<svg xmlns="http://www.w3.org/2000/svg" xmlns:xlink="http://www.w3.org/1999/xlink" x="0px" y="0px" width="18px" height="18px" viewBox="0 0 18 18"><path opacity="0.3" fill-rule="evenodd" clip-rule="evenodd" d="M15.25 4.75V15.25C15.25 15.802 14.802 16.25 14.25 16.25H5.75V3.75H14.25C14.802 3.75 15.25 4.198 15.25 4.75Z" fill="#000" data-color="color-2" data-stroke="none"></path> <path d="M2.75 5.50002C2.75 3.76702 3.999 2.28701 5.707 1.99501L11.721 0.903015" stroke="black" stroke-width="1.5" stroke-linecap="round" stroke-linejoin="round" fill="none"></path> <path d="M15.25 4.75V15.25C15.25 15.802 14.802 16.25 14.25 16.25H4.75C3.645 16.25 2.75 15.355 2.75 14.25V5.75C2.75 4.645 3.645 3.75 4.75 3.75H14.25C14.802 3.75 15.25 4.198 15.25 4.75Z" stroke="black" stroke-width="1.5" stroke-linecap="round" stroke-linejoin="round" fill="none"></path> <path d="M5.75 3.75V16.25" stroke="black" stroke-width="1.5" stroke-linecap="round" stroke-linejoin="round" fill="none"></path> <path d="M12.25 7.25H8.75V9.25H12.25V7.25Z" fill="black" stroke="black" stroke-width="1.5" stroke-linecap="round" stroke-linejoin="round"></path></svg>