<svg xmlns="http://www.w3.org/2000/svg" xmlns:xlink="http://www.w3.org/1999/xlink" x="0px" y="0px" width="18px" height="18px" viewBox="0 0 18 18"><path d="M1.75 14.706C4.453 15.518 6.646 15.586 8.439 13.751C9.52 12.666 9.52 10.906 8.439 9.81999C7.358 8.73399 5.613 8.71799 4.523 9.81999C2.75 11.612 4.298 13.314 1.75 14.706Z" fill="#000" fill-opacity="0.3" data-color="color-2" data-stroke="none"></path> <path d="M6.95599 9.04399L13.534 2.46599C14.155 1.84499 15.163 1.84499 15.784 2.46599C16.405 3.08699 16.405 4.09499 15.784 4.71599L9.20599 11.294" stroke="black" stroke-width="1.5" stroke-linecap="round" stroke-linejoin="round" fill="none"></path> <path d="M1.75 14.706C4.453 15.518 6.646 15.586 8.439 13.751C9.52 12.666 9.52 10.906 8.439 9.81999C7.358 8.73399 5.613 8.71799 4.523 9.81999C2.75 11.612 4.298 13.314 1.75 14.706Z" stroke="black" stroke-width="1.5" stroke-linecap="round" stroke-linejoin="round" fill="none"></path></svg>