<svg xmlns="http://www.w3.org/2000/svg" xmlns:xlink="http://www.w3.org/1999/xlink" x="0px" y="0px" width="12px" height="12px" viewBox="0 0 12 12"><path d="m7.724,5.482l-2.308-1.385c-.403-.242-.916.048-.916.518v2.771c0,.47.513.76.916.518l2.308-1.385c.391-.235.391-.802,0-1.037Z" fill="#000" stroke-width="0" data-color="color-2"></path><path d="m7.282,11.093l-.009-.002.009.002Z" stroke-width="0" fill="#000"></path><path d="m6.001,12c-.414,0-.75-.336-.75-.75s.336-.75.75-.75c2.48,0,4.499-2.019,4.499-4.5S8.481,1.5,6,1.5c-.414,0-.75-.336-.75-.75s.336-.75.75-.75c3.309,0,6,2.691,6,6s-2.691,6-5.999,6Z" stroke-width="0" fill="#000"></path><circle cx=".75" cy="6" r=".75" fill="#000" stroke-width="0" data-color="color-2"></circle><circle cx="1.453" cy="3.375" r=".75" fill="#000" stroke-width="0" data-color="color-2"></circle><circle cx="3.375" cy="1.453" r=".75" fill="#000" stroke-width="0" data-color="color-2"></circle><circle cx="1.453" cy="8.625" r=".75" fill="#000" stroke-width="0" data-color="color-2"></circle><circle cx="3.375" cy="10.547" r=".75" fill="#000" stroke-width="0" data-color="color-2"></circle></svg>