<svg xmlns="http://www.w3.org/2000/svg" xmlns:xlink="http://www.w3.org/1999/xlink" x="0px" y="0px" width="18px" height="18px" viewBox="0 0 18 18"><path d="M9,4.25c-.414,0-.75-.336-.75-.75V1.75c0-.414,.336-.75,.75-.75s.75,.336,.75,.75v1.75c0,.414-.336,.75-.75,.75Z" fill="#000" data-color="color-2"></path><path d="M6.25,4.987c-.259,0-.511-.134-.65-.375l-.875-1.516c-.207-.359-.084-.817,.274-1.024,.357-.208,.818-.085,1.024,.274l.875,1.516c.207,.359,.084,.817-.274,1.024-.118,.068-.247,.101-.375,.101Z" fill="#000"></path><path d="M4.236,7c-.127,0-.256-.032-.375-.101l-1.516-.875c-.359-.207-.481-.666-.274-1.024,.208-.359,.667-.481,1.024-.274l1.516,.875c.359,.207,.481,.666,.274,1.024-.139,.241-.391,.375-.65,.375Z" fill="#000" data-color="color-2"></path><path d="M3.5,9.75H1.75c-.414,0-.75-.336-.75-.75s.336-.75,.75-.75h1.75c.414,0,.75,.336,.75,.75s-.336,.75-.75,.75Z" fill="#000"></path><path d="M2.722,13.375c-.259,0-.511-.134-.65-.375-.207-.359-.084-.817,.274-1.024l1.516-.875c.357-.207,.818-.085,1.024,.274,.207,.359,.084,.817-.274,1.024l-1.516,.875c-.118,.068-.247,.101-.375,.101Z" fill="#000" data-color="color-2"></path><path d="M5.375,16.029c-.127,0-.256-.032-.375-.101-.359-.207-.481-.666-.274-1.024l.875-1.516c.207-.359,.667-.482,1.024-.274,.359,.207,.481,.666,.274,1.024l-.875,1.516c-.139,.241-.391,.375-.65,.375Z" fill="#000"></path><path d="M9,17c-.414,0-.75-.336-.75-.75v-1.75c0-.414,.336-.75,.75-.75s.75,.336,.75,.75v1.75c0,.414-.336,.75-.75,.75Z" fill="#000" data-color="color-2"></path><path d="M12.625,16.029c-.259,0-.511-.134-.65-.375l-.875-1.516c-.207-.359-.084-.817,.274-1.024,.357-.208,.818-.085,1.024,.274l.875,1.516c.207,.359,.084,.817-.274,1.024-.118,.068-.247,.101-.375,.101Z" fill="#000"></path><path d="M15.278,13.375c-.127,0-.256-.032-.375-.101l-1.516-.875c-.359-.207-.481-.666-.274-1.024,.208-.359,.667-.481,1.024-.274l1.516,.875c.359,.207,.481,.666,.274,1.024-.139,.241-.391,.375-.65,.375Z" fill="#000" data-color="color-2"></path><path d="M16.25,9.75h-1.75c-.414,0-.75-.336-.75-.75s.336-.75,.75-.75h1.75c.414,0,.75,.336,.75,.75s-.336,.75-.75,.75Z" fill="#000"></path><path d="M13.764,7c-.259,0-.511-.134-.65-.375-.207-.359-.084-.817,.274-1.024l1.516-.875c.358-.207,.818-.085,1.024,.274,.207,.359,.084,.817-.274,1.024l-1.516,.875c-.118,.068-.247,.101-.375,.101Z" fill="#000" data-color="color-2"></path><path d="M11.75,4.987c-.127,0-.256-.032-.375-.101-.359-.207-.481-.666-.274-1.024l.875-1.516c.207-.359,.667-.482,1.024-.274,.359,.207,.481,.666,.274,1.024l-.875,1.516c-.139,.241-.391,.375-.65,.375Z" fill="#000"></path></svg>