<svg xmlns="http://www.w3.org/2000/svg" xmlns:xlink="http://www.w3.org/1999/xlink" x="0px" y="0px" width="18px" height="18px" viewBox="0 0 18 18"><circle cx="9" cy="9" r="4" fill="#000" data-color="color-2"></circle><path d="M3.97,5.03c.146,.146,.338,.22,.53,.22s.384-.073,.53-.22c.293-.293,.293-.768,0-1.061l-1.75-1.75c-.293-.293-.768-.293-1.061,0s-.293,.768,0,1.061l1.75,1.75Z" fill="#000"></path><path d="M13.5,5.25c.192,0,.384-.073,.53-.22l1.75-1.75c.293-.293,.293-.768,0-1.061s-.768-.293-1.061,0l-1.75,1.75c-.293,.293-.293,.768,0,1.061,.146,.146,.338,.22,.53,.22Z" fill="#000"></path><path d="M14.03,12.97c-.293-.293-.768-.293-1.061,0s-.293,.768,0,1.061l1.75,1.75c.146,.146,.338,.22,.53,.22s.384-.073,.53-.22c.293-.293,.293-.768,0-1.061l-1.75-1.75Z" fill="#000"></path><path d="M3.97,12.97l-1.75,1.75c-.293,.293-.293,.768,0,1.061,.146,.146,.338,.22,.53,.22s.384-.073,.53-.22l1.75-1.75c.293-.293,.293-.768,0-1.061s-.768-.293-1.061,0Z" fill="#000"></path></svg>