<svg xmlns="http://www.w3.org/2000/svg" xmlns:xlink="http://www.w3.org/1999/xlink" x="0px" y="0px" width="32px" height="32px" viewBox="0 0 32 32"> <path d="M7 27C4.23858 27 2 25.6569 2 24V9V9.5" stroke="black" stroke-width="2" stroke-linecap="square" fill="none"></path> <path d="M25 27C27.7614 27 30 25.6569 30 24V9V9.5" stroke="black" stroke-width="2" stroke-linecap="square" fill="none"></path> <path d="M11 12V26C11 27.6569 13.2386 29 16 29C18.7614 29 21 27.6569 21 26V12" stroke="black" stroke-width="2" data-cap="butt" fill="none"></path> <ellipse cx="5" cy="3" rx="5" ry="3" transform="matrix(-1 0 0 1 12 6)" stroke="black" stroke-width="2" data-cap="butt" fill="none"></ellipse> <path d="M2 18C2 19.6569 4.23858 21 7 21" stroke="black" stroke-width="2" stroke-linecap="square" fill="none"></path> <ellipse cx="5" cy="3" rx="5" ry="3" transform="matrix(-1 0 0 1 30 6)" stroke="black" stroke-width="2" data-cap="butt" fill="none"></ellipse> <path d="M25 21C27.7614 21 30 19.6569 30 18" stroke="black" stroke-width="2" stroke-linecap="square" fill="none"></path> <path d="M25 8V6C25 4.34315 23.6569 3 22 3L19 3" stroke="#000" stroke-width="2" stroke-linecap="square" data-color="color-2" fill="none"></path> <path d="M7 8V6C7 4.34315 8.34315 3 10 3L13 3" stroke="#000" stroke-width="2" stroke-linecap="square" data-color="color-2" fill="none"></path> <ellipse cx="5" cy="3" rx="5" ry="3" transform="matrix(-1 0 0 1 21 9)" stroke="black" stroke-width="2" data-cap="butt" fill="none"></ellipse> <path d="M11 20C11 21.6569 13.2386 23 16 23C18.7614 23 21 21.6569 21 20" stroke="black" stroke-width="2" data-cap="butt" fill="none"></path> <path d="M16 11L16 6" stroke="#000" stroke-width="2" stroke-linecap="square" data-color="color-2" fill="none"></path> </svg>