<svg xmlns="http://www.w3.org/2000/svg" xmlns:xlink="http://www.w3.org/1999/xlink" x="0px" y="0px" width="48px" height="48px" viewBox="0 0 48 48"> <path d="M24 21L21.4721 18.4721L21.6897 18.6897" stroke="#000" stroke-width="2" stroke-linecap="square" data-color="color-2" fill="none"></path> <path d="M28 17L25.5009 14.5009L25.7185 14.7185" stroke="#000" stroke-width="2" stroke-linecap="square" data-color="color-2" fill="none"></path> <path d="M16.4702 37.521L9.89444 44.1188C8.72344 45.2937 6.82121 45.2953 5.64825 44.1224L4.77312 43.2473L3.8909 42.365C2.72071 41.1948 2.71913 39.2981 3.88736 38.1259L10.4677 31.5236" stroke="#000" stroke-width="2" stroke-linecap="square" data-color="color-2" fill="none"></path> <path d="M16.5 23.5001L31.5 8.50006C36.4271 9.23996 38 7.50006 42 4.00006C43.938 8.69252 43.4585 12.5638 39.5 16.5001L24.5 31.5001" stroke="black" stroke-width="2" stroke-miterlimit="10" data-cap="butt" fill="none"></path> <path d="M25 39L9 23L12.5 19.4999L28.5 35.4999L25 39Z" stroke="black" stroke-width="2" stroke-linecap="square" fill="none"></path> </svg>