<svg xmlns="http://www.w3.org/2000/svg" xmlns:xlink="http://www.w3.org/1999/xlink" x="0px" y="0px" width="48px" height="48px" viewBox="0 0 48 48"> <path d="M41 35V43H7V35" stroke="black" stroke-width="2" stroke-miterlimit="10" data-cap="butt" fill="none"></path> <path d="M30 26H18V18H30V26Z" stroke="#000" stroke-width="2" stroke-miterlimit="10" data-color="color-2" data-cap="butt" fill="none"></path> <path d="M18 32H30" stroke="black" stroke-width="2" stroke-linecap="square" fill="none"></path> <path d="M18 37H30" stroke="black" stroke-width="2" stroke-linecap="square" fill="none"></path> <path d="M41 29V23L40.879 22.9032C37.7952 20.4361 36 16.7011 36 12.7519V3.00002H31L30.4768 6.62233C30.0118 9.84167 27.2528 12.2308 24 12.2308V12.2308C20.7472 12.2308 17.9882 9.84167 17.5232 6.62233L17 3.00002L12 3V12.7519C12 16.7011 10.2048 20.4361 7.12103 22.9032L7 23V29" stroke="black" stroke-width="2" stroke-miterlimit="10" data-cap="butt" fill="none"></path> <path d="M10 29H3V35H10C11.6569 35 13 33.6569 13 32C13 30.3431 11.6569 29 10 29Z" stroke="#000" stroke-width="2" stroke-linecap="square" data-color="color-2" fill="none"></path> <path d="M45 29H38C36.3431 29 35 30.3431 35 32C35 33.6569 36.3431 35 38 35H45V29Z" stroke="#000" stroke-width="2" stroke-linecap="square" data-color="color-2" fill="none"></path> </svg>