<svg xmlns="http://www.w3.org/2000/svg" xmlns:xlink="http://www.w3.org/1999/xlink" x="0px" y="0px" width="20px" height="20px" viewBox="0 0 20 20"><path d="m10,2C5.589,2,2,5.589,2,10s3.589,8,8,8,8-3.589,8-8S14.411,2,10,2Zm-3.793,9.207c-.195.195-.451.293-.707.293s-.512-.098-.707-.293c-.391-.391-.391-1.023,0-1.414l.793-.793-.793-.793c-.391-.391-.391-1.023,0-1.414s1.023-.391,1.414,0l.793.793.793-.793c.391-.391,1.023-.391,1.414,0s.391,1.023,0,1.414l-.793.793.793.793c.391.391.391,1.023,0,1.414-.195.195-.451.293-.707.293s-.512-.098-.707-.293l-.793-.793-.793.793Zm5.126,3.793h-2.667c-.368,0-.667-.299-.667-.667,0-1.104.896-2,2-2s2,.896,2,2c0,.368-.299.667-.667.667Zm3.874-5.207c.391.391.391,1.023,0,1.414-.195.195-.451.293-.707.293s-.512-.098-.707-.293l-.793-.793-.793.793c-.195.195-.451.293-.707.293s-.512-.098-.707-.293c-.391-.391-.391-1.023,0-1.414l.793-.793-.793-.793c-.391-.391-.391-1.023,0-1.414s1.023-.391,1.414,0l.793.793.793-.793c.391-.391,1.023-.391,1.414,0s.391,1.023,0,1.414l-.793.793.793.793Z" stroke-width="0" fill="#000"></path></svg>