<svg xmlns="http://www.w3.org/2000/svg" xmlns:xlink="http://www.w3.org/1999/xlink" x="0px" y="0px" width="18px" height="18px" viewBox="0 0 18 18"><path d="M9.75,16c-.192,0-.384-.073-.53-.22l-.75-.75c-.293-.293-.293-.768,0-1.061s.768-.293,1.061,0l.75,.75c.293,.293,.293,.768,0,1.061-.146,.146-.338,.22-.53,.22Z" fill="#000"></path><path d="M7,13.25c-.192,0-.384-.073-.53-.22l-3.25-3.25c-.293-.293-.293-.768,0-1.061s.768-.293,1.061,0l3.25,3.25c.293,.293,.293,.768,0,1.061-.146,.146-.338,.22-.53,.22Z" fill="#000"></path><path d="M8.75,9.5c-.192,0-.384-.073-.53-.22l-.75-.75c-.293-.293-.293-.768,0-1.061s.768-.293,1.061,0l.75,.75c.293,.293,.293,.768,0,1.061-.146,.146-.338,.22-.53,.22Z" fill="#000" data-color="color-2"></path><path d="M6,6.75c-.192,0-.384-.073-.53-.22L2.22,3.28c-.293-.293-.293-.768,0-1.061s.768-.293,1.061,0l3.25,3.25c.293,.293,.293,.768,0,1.061-.146,.146-.338,.22-.53,.22Z" fill="#000" data-color="color-2"></path><path d="M15.25,10.5c-.192,0-.384-.073-.53-.22l-.75-.75c-.293-.293-.293-.768,0-1.061s.768-.293,1.061,0l.75,.75c.293,.293,.293,.768,0,1.061-.146,.146-.338,.22-.53,.22Z" fill="#000"></path><path d="M12.5,7.75c-.192,0-.384-.073-.53-.22l-3.25-3.25c-.293-.293-.293-.768,0-1.061s.768-.293,1.061,0l3.25,3.25c.293,.293,.293,.768,0,1.061-.146,.146-.338,.22-.53,.22Z" fill="#000"></path></svg>