<svg xmlns="http://www.w3.org/2000/svg" xmlns:xlink="http://www.w3.org/1999/xlink" x="0px" y="0px" width="18px" height="18px" viewBox="0 0 18 18"><path d="M6,5.538c0-1.278-.722-2.012-1.36-2.66-.188-.191-.381-.387-.562-.605-.284-.345-.872-.345-1.156,0-.181,.218-.375,.414-.562,.605-.638,.648-1.36,1.382-1.36,2.66,0,1.358,1.122,2.462,2.5,2.462s2.5-1.104,2.5-2.462Z" fill="#000" data-color="color-2"></path><path d="M15.64,2.877c-.188-.191-.381-.387-.562-.605-.284-.345-.872-.345-1.156,0-.181,.218-.375,.414-.562,.605-.638,.648-1.36,1.382-1.36,2.66,0,1.358,1.122,2.462,2.5,2.462s2.5-1.104,2.5-2.462c0-1.278-.722-2.012-1.36-2.66Z" fill="#000" data-color="color-2"></path><path d="M9.595,5.793c-.284-.37-.906-.37-1.19,0-.342,.446-.719,.858-1.083,1.257-1.142,1.25-2.322,2.541-2.322,4.775,0,2.302,1.794,4.174,4,4.174s4-1.873,4-4.174c0-2.234-1.18-3.525-2.322-4.775-.364-.399-.741-.811-1.083-1.257Z" fill="#000"></path></svg>