<svg xmlns="http://www.w3.org/2000/svg" xmlns:xlink="http://www.w3.org/1999/xlink" x="0px" y="0px" width="18px" height="18px" viewBox="0 0 18 18"><path d="M13.75,13.375l.691,.146c.932,.196,1.809-.515,1.809-1.468V4.619c0-.709-.497-1.322-1.191-1.468l-6.5-1.368c-.712-.15-1.388,.231-1.669,.843" fill="none" stroke="#000" stroke-linecap="round" stroke-linejoin="round" stroke-width="1.5" data-color="color-2"></path><path d="M3.559,4.479l6.5,1.368c.694,.146,1.191,.758,1.191,1.468v7.434c0,.953-.877,1.664-1.809,1.468l-6.5-1.368c-.694-.146-1.191-.758-1.191-1.468V5.947c0-.953,.877-1.664,1.809-1.468Z" fill="none" stroke="#000" stroke-linecap="round" stroke-linejoin="round" stroke-width="1.5"></path></svg>