<svg xmlns="http://www.w3.org/2000/svg" xmlns:xlink="http://www.w3.org/1999/xlink" x="0px" y="0px" width="18px" height="18px" viewBox="0 0 18 18"><path d="M7,14.658c-1.704-.603-3.055-1.953-3.658-3.658" fill="none" stroke="#000" stroke-linecap="round" stroke-linejoin="round" stroke-width="1.5" data-color="color-2"></path><path d="M14.658,11c-.603,1.704-1.953,3.055-3.658,3.658" fill="none" stroke="#000" stroke-linecap="round" stroke-linejoin="round" stroke-width="1.5" data-color="color-2"></path><path d="M11,3.342c1.704,.603,3.055,1.953,3.658,3.658" fill="none" stroke="#000" stroke-linecap="round" stroke-linejoin="round" stroke-width="1.5" data-color="color-2"></path><path d="M3.342,7c.603-1.704,1.953-3.055,3.658-3.658" fill="none" stroke="#000" stroke-linecap="round" stroke-linejoin="round" stroke-width="1.5" data-color="color-2"></path><rect x="7" y="1.25" width="4" height="4" rx="1" ry="1" fill="none" stroke="#000" stroke-linecap="round" stroke-linejoin="round" stroke-width="1.5"></rect><rect x="7" y="12.75" width="4" height="4" rx="1" ry="1" fill="none" stroke="#000" stroke-linecap="round" stroke-linejoin="round" stroke-width="1.5"></rect><rect x="1.25" y="7" width="4" height="4" rx="1" ry="1" fill="none" stroke="#000" stroke-linecap="round" stroke-linejoin="round" stroke-width="1.5"></rect><rect x="12.75" y="7" width="4" height="4" rx="1" ry="1" fill="none" stroke="#000" stroke-linecap="round" stroke-linejoin="round" stroke-width="1.5"></rect></svg>