<svg xmlns="http://www.w3.org/2000/svg" xmlns:xlink="http://www.w3.org/1999/xlink" x="0px" y="0px" width="18px" height="18px" viewBox="0 0 18 18"><path d="M2.665,6.711l5.87-3.091c.292-.154,.64-.154,.932,0l5.87,3.091c.534,.281,.534,1.046,0,1.327l-5.87,3.091c-.292,.154-.64,.154-.932,0l-5.87-3.091c-.534-.281-.534-1.046,0-1.327Z" fill="none" stroke="#000" stroke-linecap="round" stroke-linejoin="round" stroke-width="1.5"></path><path d="M15.736,10.625c0,.261-.134,.523-.401,.664l-5.87,3.091c-.292,.154-.64,.154-.932,0l-5.87-3.091c-.267-.141-.401-.402-.401-.664" fill="none" stroke="#000" stroke-linecap="round" stroke-linejoin="round" stroke-width="1.5" data-color="color-2"></path></svg>