<svg xmlns="http://www.w3.org/2000/svg" xmlns:xlink="http://www.w3.org/1999/xlink" x="0px" y="0px" width="18px" height="18px" viewBox="0 0 18 18"><path d="M9 6.5C12.452 6.5 15.25 5.493 15.25 4.25C15.25 3.007 12.452 2 9 2C5.548 2 2.75 3.007 2.75 4.25C2.75 5.493 5.548 6.5 9 6.5Z" stroke="black" stroke-width="1.5" stroke-linecap="round" stroke-linejoin="round" fill="none"></path> <path d="M15.25 7.87561V4.25" stroke="black" stroke-width="1.5" stroke-linecap="round" stroke-linejoin="round" fill="none"></path> <path d="M2.75 4.25V13.75C2.75 14.8792 5.059 15.8136 8.0698 15.9753" stroke="black" stroke-width="1.5" stroke-linecap="round" stroke-linejoin="round" fill="none"></path> <path d="M2.75 9C2.75 10.1693 5.226 11.1297 8.3933 11.2395" stroke="black" stroke-width="1.5" stroke-linecap="round" stroke-linejoin="round" fill="none"></path> <path d="M14 10C11.7939 10 10 11.7944 10 14C10 16.2056 11.7939 18 14 18C16.2061 18 18 16.2056 18 14C18 11.7944 16.2061 10 14 10ZM16.3076 13.252L14.0576 15.752C13.9199 15.9048 13.7256 15.9942 13.5195 15.9996C13.5127 16.0001 13.5068 16.0001 13.5 16.0001C13.3018 16.0001 13.1104 15.9215 12.9697 15.7804L11.7197 14.5304C11.4267 14.2374 11.4267 13.7628 11.7197 13.4699C12.0127 13.177 12.4873 13.1769 12.7802 13.4699L13.4716 14.1608L15.1923 12.2482C15.4706 11.9416 15.9433 11.9162 16.2519 12.1925C16.5595 12.4698 16.5849 12.9439 16.3076 13.252Z" fill="#000" data-color="color-2" data-stroke="none"></path></svg>