<svg xmlns="http://www.w3.org/2000/svg" xmlns:xlink="http://www.w3.org/1999/xlink" x="0px" y="0px" width="18px" height="18px" viewBox="0 0 18 18"><circle cx="9" cy="9" r=".75" fill="#000" data-color="color-2" data-stroke="none"></circle><circle cx="15.25" cy="9" r=".75" fill="#000" data-color="color-2" data-stroke="none"></circle><circle cx="12.125" cy="9" r=".75" fill="#000" data-color="color-2" data-stroke="none"></circle><circle cx="5.875" cy="9" r=".75" fill="#000" data-color="color-2" data-stroke="none"></circle><circle cx="2.75" cy="9" r=".75" fill="#000" data-color="color-2" data-stroke="none"></circle><path d="M12.504,2.583l-3.132,3.5c-.199,.222-.546,.222-.745,0l-3.132-3.5c-.288-.322-.06-.833,.373-.833h6.263c.432,0,.661,.511,.373,.833Z" fill="none" stroke="#000" stroke-linecap="round" stroke-linejoin="round" stroke-width="1.5"></path><path d="M12.504,15.417l-3.132-3.5c-.199-.222-.546-.222-.745,0l-3.132,3.5c-.288,.322-.06,.833,.373,.833h6.263c.432,0,.661-.511,.373-.833Z" fill="none" stroke="#000" stroke-linecap="round" stroke-linejoin="round" stroke-width="1.5"></path></svg>