<svg xmlns="http://www.w3.org/2000/svg" xmlns:xlink="http://www.w3.org/1999/xlink" x="0px" y="0px" width="18px" height="18px" viewBox="0 0 18 18"><path d="M9 6.5C12.452 6.5 15.25 5.493 15.25 4.25C15.25 3.007 12.452 2 9 2C5.548 2 2.75 3.007 2.75 4.25C2.75 5.493 5.548 6.5 9 6.5Z" stroke="black" stroke-width="1.5" stroke-linecap="round" stroke-linejoin="round" fill="none"></path> <path d="M15.25 11.75V4.25" stroke="black" stroke-width="1.5" stroke-linecap="round" stroke-linejoin="round" fill="none"></path> <path d="M2.75 4.25V13.75C2.75 14.993 5.548 16 9 16C9.1748 16 9.34769 15.9975 9.51859 15.9924" stroke="black" stroke-width="1.5" stroke-linecap="round" stroke-linejoin="round" fill="none"></path> <path d="M2.75 9C2.75 10.243 5.548 11.25 9 11.25C12.452 11.25 15.25 10.243 15.25 9" stroke="black" stroke-width="1.5" stroke-linecap="round" stroke-linejoin="round" fill="none"></path> <path d="M17.25 14.75H12.25" stroke="#000" stroke-width="1.5" stroke-linecap="round" stroke-linejoin="round" data-color="color-2" fill="none"></path></svg>