<svg xmlns="http://www.w3.org/2000/svg" xmlns:xlink="http://www.w3.org/1999/xlink" x="0px" y="0px" width="24px" height="24px" viewBox="0 0 24 24"> <path d="M3 21L13 11L12.5 11.5" stroke="#000" stroke-width="2" stroke-linecap="square" data-color="color-2" fill="none"></path> <path d="M19.5 4.5L18.2506 8.37138L20.7716 11.7137L16.6574 11.5853L14.3438 14.9001L13.0505 10.9495L9.09988 9.65622L12.4147 7.34263L12.2863 3.22843L15.6286 5.74943L19.5 4.5Z" stroke="black" stroke-width="2" stroke-miterlimit="10" stroke-linecap="square" fill="none"></path> <path d="M6.55 3.45L5.5 1L4.45 3.45L2 4.5L4.45 5.55L5.5 8L6.55 5.55L9 4.5L6.55 3.45Z" fill="#000" data-color="color-2" data-cap="butt" data-stroke="none"></path> <path d="M20.55 17.45L19.5 15L18.45 17.45L16 18.5L18.45 19.55L19.5 22L20.55 19.55L23 18.5L20.55 17.45Z" fill="#000" data-color="color-2" data-cap="butt" data-stroke="none"></path> </svg>