<svg xmlns="http://www.w3.org/2000/svg" xmlns:xlink="http://www.w3.org/1999/xlink" x="0px" y="0px" width="24px" height="24px" viewBox="0 0 24 24"> <path d="M3 13H11" stroke="black" stroke-width="2" data-cap="butt" fill="none"></path> <path d="M23 7V19.2918C23 21.3398 21.305 23 19.257 23V23C17.8866 23 16.6129 22.2257 16 21V21" stroke="#000" stroke-width="2" stroke-linecap="square" data-color="color-2" fill="none"></path> <path d="M15 11V13C15 15.2091 16.7909 17 19 17C21.2091 17 23 15.2091 23 13V11C23 8.79086 21.2091 7 19 7C16.7909 7 15 8.79086 15 11Z" stroke="#000" stroke-width="2" stroke-linecap="square" data-color="color-2" fill="none"></path> <path d="M1.69144 17H1.5L6.38889 3H7.61111L12.5 17H12.2916" stroke="black" stroke-width="2" stroke-linecap="square" fill="none"></path> </svg>