<svg xmlns="http://www.w3.org/2000/svg" xmlns:xlink="http://www.w3.org/1999/xlink" x="0px" y="0px" width="24px" height="24px" viewBox="0 0 24 24"><path d="M9 22L6.99999 22C5.89542 22 4.99999 21.1046 4.99999 20L4.99999 4C4.99999 2.89543 5.89542 2 6.99999 2L17 2C18.1046 2 19 2.89543 19 4L19 10" stroke="black" stroke-width="2" stroke-miterlimit="10" stroke-linecap="square" fill="none"></path> <path d="M13.4397 5.12062L10.5603 5.12062C10.527 5.12062 10.5 5.09362 10.5 5.06031C10.5 5.027 10.527 5 10.5603 5L13.4397 5C13.473 5 13.5 5.027 13.5 5.06031C13.5 5.09362 13.473 5.12062 13.4397 5.12062Z" stroke="black" stroke-width="2" stroke-miterlimit="10" stroke-linecap="square" fill="none"></path> <path d="M20 17C21.1046 17 22 16.1046 22 15C22 13.8954 21.1046 13 20 13C18.8954 13 18 13.8954 18 15C18 16.1046 18.8954 17 20 17Z" fill="#000" data-color="color-2" data-cap="butt" data-stroke="none"></path> <path d="M20 23C21.1046 23 22 22.1046 22 21C22 19.8954 21.1046 19 20 19C18.8954 19 18 19.8954 18 21C18 22.1046 18.8954 23 20 23Z" fill="#000" data-color="color-2" data-cap="butt" data-stroke="none"></path> <path d="M14 17C15.1046 17 16 16.1046 16 15C16 13.8954 15.1046 13 14 13C12.8954 13 12 13.8954 12 15C12 16.1046 12.8954 17 14 17Z" fill="#000" data-color="color-2" data-cap="butt" data-stroke="none"></path> <path d="M14 23C15.1046 23 16 22.1046 16 21C16 19.8954 15.1046 19 14 19C12.8954 19 12 19.8954 12 21C12 22.1046 12.8954 23 14 23Z" fill="#000" data-color="color-2" data-cap="butt" data-stroke="none"></path></svg>