<svg xmlns="http://www.w3.org/2000/svg" xmlns:xlink="http://www.w3.org/1999/xlink" x="0px" y="0px" width="24px" height="24px" viewBox="0 0 24 24"><path d="M8.5 22V15M8.5 15H11M8.5 15L6 15" stroke="#000" stroke-width="2" stroke-linecap="square" data-color="color-2" fill="none"></path> <path d="M4 11L4 4C4 2.89543 4.89543 2 6 2L13 2L20 9L20 11" stroke="black" stroke-width="2" stroke-miterlimit="10" stroke-linecap="square" fill="none"></path> <path d="M13 2V9H20" stroke="black" stroke-width="2" data-cap="butt" fill="none"></path> <path d="M18 15H15.75C14.7835 15 14 15.7835 14 16.75V16.75C14 17.7165 14.7835 18.5 15.75 18.5H17.25C18.2165 18.5 19 19.2835 19 20.25V20.25C19 21.2165 18.2165 22 17.25 22H15" stroke="#000" stroke-width="2" stroke-linecap="square" data-color="color-2" fill="none"></path></svg>