<svg xmlns="http://www.w3.org/2000/svg" xmlns:xlink="http://www.w3.org/1999/xlink" x="0px" y="0px" width="24px" height="24px" viewBox="0 0 24 24"> <path d="M22 7V19.2918C22 21.3398 20.305 23 18.257 23V23C16.8866 23 15.6129 22.2257 15 21V21" stroke="#000" stroke-width="2" stroke-linecap="square" data-color="color-2" fill="none"></path> <path d="M14 11V13C14 15.2091 15.7909 17 18 17C20.2091 17 22 15.2091 22 13V11C22 8.79086 20.2091 7 18 7C15.7909 7 14 8.79086 14 11Z" stroke="#000" stroke-width="2" stroke-linecap="square" data-color="color-2" fill="none"></path> <path d="M9.9849 13.5583C8.98047 15.869 6.93605 16.9653 5.02852 16.9995C3.68801 17.0236 2.30056 16.1848 2.03923 14.7068C1.83615 13.5583 2.55033 12.426 4.30942 11.916C6.26686 11.3483 10 11.5 10 11.5" stroke="black" stroke-width="2" data-cap="butt" fill="none"></path> <path d="M10 17V10.7382C10 8.67364 8.32636 7 6.26183 7V7C5.2921 7 4.36031 7.37684 3.66321 8.05096L3 8.69231" stroke="black" stroke-width="2" stroke-linecap="square" fill="none"></path> </svg>