<svg xmlns="http://www.w3.org/2000/svg" xmlns:xlink="http://www.w3.org/1999/xlink" x="0px" y="0px" width="24px" height="24px" viewBox="0 0 24 24"> <path d="M16 14H22" stroke="#000" stroke-width="2" stroke-linecap="square" data-color="color-2" fill="none"></path> <path d="M16 3V3C17.6569 3 19 4.34315 19 6L19 18C19 19.6569 17.6569 21 16 21V21" stroke="#000" stroke-width="2" stroke-miterlimit="10" stroke-linecap="square" data-color="color-2" fill="none"></path> <path d="M22 3V3C20.3431 3 19 4.34315 19 6L19 18C19 19.6569 20.3431 21 22 21V21" stroke="#000" stroke-width="2" stroke-miterlimit="10" stroke-linecap="square" data-color="color-2" fill="none"></path> <path d="M8 18.5H12" stroke="black" stroke-width="2" stroke-linecap="square" fill="none"></path> <path d="M8 5.5H12" stroke="black" stroke-width="2" stroke-linecap="square" fill="none"></path> <path d="M5.5 8L5.5 16" stroke="black" stroke-width="2" stroke-linecap="square" fill="none"></path> <path d="M8 3H3V8H8V3Z" stroke="black" stroke-width="2" stroke-miterlimit="10" stroke-linecap="square" fill="none"></path> <path d="M8 16H3V21H8V16Z" stroke="black" stroke-width="2" stroke-miterlimit="10" stroke-linecap="square" fill="none"></path> </svg>