<svg xmlns="http://www.w3.org/2000/svg" xmlns:xlink="http://www.w3.org/1999/xlink" x="0px" y="0px" width="24px" height="24px" viewBox="0 0 24 24"><path d="M21 18.5H23V22H20.5C18.567 22 17 20.433 17 18.5C17 16.567 18.567 15 20.5 15H21" stroke="#000" stroke-width="2" stroke-linecap="square" data-color="color-2" fill="none"></path> <path d="M1 22V15H3C4.38071 15 5.5 16.1193 5.5 17.5V17.5C5.5 18.8807 4.38071 20 3 20H1.5" stroke="#000" stroke-width="2" stroke-linecap="square" data-color="color-2" fill="none"></path> <path d="M8.5 22V15L9.5 15L13 22H14V15" stroke="#000" stroke-width="2" stroke-linecap="square" data-color="color-2" fill="none"></path> <path d="M4 9H11V2" stroke="black" stroke-width="2" stroke-miterlimit="10" data-cap="butt" fill="none"></path> <path d="M4 11V9.07843C4 8.54799 4.21071 8.03929 4.58579 7.66421L9.66421 2.58579C10.0393 2.21071 10.548 2 11.0784 2H18C19.1046 2 20 2.89543 20 4V11" stroke="black" stroke-width="2" stroke-miterlimit="10" stroke-linecap="square" fill="none"></path></svg>