<svg xmlns="http://www.w3.org/2000/svg" xmlns:xlink="http://www.w3.org/1999/xlink" x="0px" y="0px" width="24px" height="24px" viewBox="0 0 24 24"><path d="M6 15L6 19.5C6 20.8807 4.88071 22 3.5 22V22C2.11929 22 1 20.8807 1 19.5V19" stroke="#000" stroke-width="2" stroke-linecap="square" data-color="color-2" fill="none"></path> <path d="M13 15H10.75C9.7835 15 9 15.7835 9 16.75V16.75C9 17.7165 9.7835 18.5 10.75 18.5H12.25C13.2165 18.5 14 19.2835 14 20.25V20.25C14 21.2165 13.2165 22 12.25 22H10" stroke="#000" stroke-width="2" stroke-linecap="square" data-color="color-2" fill="none"></path> <path d="M17 22V15H19.5C20.8807 15 22 16.1193 22 17.5V17.5C22 18.8807 20.8807 20 19.5 20H17.5" stroke="#000" stroke-width="2" stroke-linecap="square" data-color="color-2" fill="none"></path> <path d="M4 9H11V2" stroke="black" stroke-width="2" stroke-miterlimit="10" data-cap="butt" fill="none"></path> <path d="M4 11V9.07843C4 8.54799 4.21071 8.03929 4.58579 7.66421L9.66421 2.58579C10.0393 2.21071 10.548 2 11.0784 2H18C19.1046 2 20 2.89543 20 4V11" stroke="black" stroke-width="2" stroke-miterlimit="10" stroke-linecap="square" fill="none"></path></svg>