<svg xmlns="http://www.w3.org/2000/svg" xmlns:xlink="http://www.w3.org/1999/xlink" x="0px" y="0px" width="32px" height="32px" viewBox="0 0 32 32"> <path d="M9.33777 28.9934H27.0063C28.1108 28.9934 29.0061 28.0982 29.0063 26.9937L29.0072 21.0059C29.0073 19.9012 28.1119 19.0056 27.0072 19.0056H21.1239" stroke="black" stroke-width="2" stroke-miterlimit="10" data-cap="butt" fill="none"></path> <path d="M14 12.0459L19.0549 6.99322C19.836 6.21238 21.1023 6.21261 21.8832 6.99373L24 9.11115L26.1084 11.2201C26.8926 12.0045 26.8886 13.2773 26.0996 14.0568L13 27" stroke="#000" stroke-width="2" stroke-miterlimit="10" data-color="color-2" data-cap="butt" fill="none"></path> <path d="M9.00646 29.0063C11.7644 29.0029 13.9974 26.7645 13.9942 24.0066L13.9721 4.99423C13.9708 3.88961 13.0743 2.9952 11.9697 2.99656L5.98185 3.00394C4.87734 3.0053 3.98304 3.90175 3.98432 5.00626L4.0064 24.0182C4.00961 26.7764 6.24827 29.0097 9.00646 29.0063V29.0063Z" stroke="black" stroke-width="2" stroke-miterlimit="10" stroke-linecap="square" fill="none"></path> <path fill-rule="evenodd" clip-rule="evenodd" d="M7 23.0002C7 21.8957 7.89543 21.0002 9 21.0002C10.1046 21.0002 11 21.8957 11 23.0002C11 24.1048 10.1046 25.0002 9 25.0002C7.89543 25.0002 7 24.1048 7 23.0002Z" fill="#000" data-color="color-2" data-cap="butt" data-stroke="none"></path> <path d="M8 7H10" stroke="black" stroke-width="2" stroke-linecap="square" fill="none"></path> <path d="M20.2929 11.2929L21 12L21.7071 12.7071" stroke="black" stroke-width="2" stroke-linecap="square" fill="none"></path> <path d="M25 23L25 25" stroke="black" stroke-width="2" stroke-linecap="square" fill="none"></path> </svg>