<svg xmlns="http://www.w3.org/2000/svg" xmlns:xlink="http://www.w3.org/1999/xlink" x="0px" y="0px" width="32px" height="32px" viewBox="0 0 32 32"> <path d="M7.5 29C9.98528 29 12 26.9853 12 24.5C12 22.0147 9.98528 20 7.5 20C5.01472 20 3 22.0147 3 24.5C3 26.9853 5.01472 29 7.5 29Z" stroke="black" stroke-width="2" stroke-miterlimit="10" stroke-linecap="square" fill="none"></path> <path d="M24.5 29C22.0147 29 20 26.9853 20 24.5C20 22.0147 22.0147 20 24.5 20C26.9853 20 29 22.0147 29 24.5C29 26.9853 26.9853 29 24.5 29Z" stroke="black" stroke-width="2" stroke-miterlimit="10" stroke-linecap="square" fill="none"></path> <path d="M20 25L16 17M16 17L9 4L8.92902 4.04259C6.32489 5.60506 5.70359 9.10921 7.61179 11.4717L14.5 20L16 17Z" stroke="black" stroke-width="2" data-cap="butt" fill="none"></path> <path d="M12 25.0001L16 17.0001M16 17.0001L23 4.00012L23.071 4.04271C25.6751 5.60519 26.2964 9.10933 24.3882 11.4719L17.5 20.0001L16 17.0001Z" stroke="black" stroke-width="2" data-cap="butt" fill="none"></path> <path d="M16 3L16 2" stroke="#000" stroke-width="2" stroke-linecap="square" data-color="color-2" fill="none"></path> <path d="M16 27L16 26" stroke="#000" stroke-width="2" stroke-linecap="square" data-color="color-2" fill="none"></path> <path d="M16 8L16 7" stroke="#000" stroke-width="2" stroke-linecap="square" data-color="color-2" fill="none"></path> </svg>