<svg xmlns="http://www.w3.org/2000/svg" xmlns:xlink="http://www.w3.org/1999/xlink" x="0px" y="0px" width="32px" height="32px" viewBox="0 0 32 32"><path d="M18 20H14.75C13.5074 20 12.5 21.0074 12.5 22.25V22.25C12.5 23.4926 13.5074 24.5 14.75 24.5H17.25C18.4926 24.5 19.5 25.5074 19.5 26.75V26.75C19.5 27.9926 18.4926 29 17.25 29H14" stroke="#000" stroke-width="2" stroke-linecap="square" data-color="color-2" fill="none"></path> <path d="M6 16L6 6C6 4.34315 7.34315 3 9 3L17 3L26 11L26 16" stroke="black" stroke-width="2" stroke-miterlimit="10" stroke-linecap="square" fill="none"></path> <path d="M16 3V12.0001H26" stroke="black" stroke-width="2" data-cap="butt" fill="none"></path> <path d="M7 29V20M7 20H10M7 20L4 20" stroke="#000" stroke-width="2" stroke-linecap="square" data-color="color-2" fill="none"></path> <path d="M28.4191 29H28.5L22.5 20H22.5825" stroke="#000" stroke-width="2" stroke-linecap="square" data-color="color-2" fill="none"></path> <path d="M22.5809 29H22.5L28.5 20H28.4175" stroke="#000" stroke-width="2" stroke-linecap="square" data-color="color-2" fill="none"></path></svg>