<svg xmlns="http://www.w3.org/2000/svg" xmlns:xlink="http://www.w3.org/1999/xlink" x="0px" y="0px" width="32px" height="32px" viewBox="0 0 32 32"> <path d="M16 2L16 5" stroke="#000" stroke-width="2" stroke-linecap="square" data-color="color-2" fill="none"></path> <path d="M24 2L24 5" stroke="#000" stroke-width="2" stroke-linecap="square" data-color="color-2" fill="none"></path> <path d="M8 2L8 5" stroke="#000" stroke-width="2" stroke-linecap="square" data-color="color-2" fill="none"></path> <path d="M30 27L30 5L2 5L2 27L30 27Z" stroke="black" stroke-width="2" stroke-miterlimit="10" stroke-linecap="square" fill="none"></path> <path d="M4 27L9.5 19.5L13.6296 24.0968L22 12L30 23.129" stroke="black" stroke-width="2" stroke-miterlimit="10" data-cap="butt" fill="none"></path> <path d="M10.5 15C11.8807 15 13 13.8807 13 12.5C13 11.1193 11.8807 10 10.5 10C9.11929 10 8 11.1193 8 12.5C8 13.8807 9.11929 15 10.5 15Z" stroke="#000" stroke-width="2" stroke-miterlimit="10" stroke-linecap="square" data-color="color-2" fill="none"></path> </svg>