<svg xmlns="http://www.w3.org/2000/svg" xmlns:xlink="http://www.w3.org/1999/xlink" x="0px" y="0px" width="32px" height="32px" viewBox="0 0 32 32"> <path d="M16 24C19.0376 24 21.5 21.5376 21.5 18.5C21.5 15.4624 19.0376 13 16 13C12.9624 13 10.5 15.4624 10.5 18.5C10.5 21.5376 12.9624 24 16 24Z" stroke="#000" stroke-width="2" stroke-miterlimit="10" stroke-linecap="square" data-color="color-2" fill="none"></path> <path d="M2 14.847C10.3338 6.51323 21.6662 6.51323 30 14.847" stroke="black" stroke-width="2" stroke-miterlimit="10" stroke-linecap="square" fill="none"></path> <path d="M12.6388 8.91639L12.6667 9L11.5 5.5" stroke="black" stroke-width="2" stroke-miterlimit="10" stroke-linecap="square" fill="none"></path> <path d="M6.00236 11.6142L6.05444 11.6895L4.10889 8.87842" stroke="black" stroke-width="2" stroke-miterlimit="10" stroke-linecap="square" fill="none"></path> <path d="M19.3644 8.90725L19.3342 9L20.5008 5.5" stroke="black" stroke-width="2" stroke-miterlimit="10" stroke-linecap="square" fill="none"></path> <path d="M25.9859 11.5757L25.9421 11.6383L27.8912 8.84717" stroke="black" stroke-width="2" stroke-miterlimit="10" stroke-linecap="square" fill="none"></path> </svg>