<svg xmlns="http://www.w3.org/2000/svg" xmlns:xlink="http://www.w3.org/1999/xlink" x="0px" y="0px" width="48px" height="48px" viewBox="0 0 48 48"> <path d="M22.5 19.5V19.5C25.3328 20.4443 27.5557 22.6672 28.5 25.5V25.5" stroke="#000" stroke-width="2" data-color="color-2" data-cap="butt" fill="none"></path> <path d="M19 24.1797L32.2678 6.66716C34.6379 3.5389 39.2248 3.22411 42 5.99929V5.99929V5.99929C44.7752 8.77449 44.4605 13.3614 41.3322 15.7316L23.8201 28.9999" stroke="black" stroke-width="2" data-cap="butt" fill="none"></path> <path d="M21.6037 39.017C17.137 43.4837 5.02261 43 5.02261 43C5.02261 43 4.52648 30.898 9.00557 26.4189C13.1595 22.265 18.7496 23.132 21.8201 26.2025C24.8906 29.273 25.7576 34.8631 21.6037 39.017Z" stroke="#000" stroke-width="2" stroke-miterlimit="10" stroke-linecap="square" data-color="color-2" fill="none"></path> </svg>