<svg xmlns="http://www.w3.org/2000/svg" xmlns:xlink="http://www.w3.org/1999/xlink" x="0px" y="0px" width="48px" height="48px" viewBox="0 0 48 48"> <path d="M21 38L7 38C4.23858 38 2 35.7614 2 33L2 9.99999C2 7.23857 4.23858 5 7 5L36 5C38.7614 5 41 7.23858 41 10L41 13" stroke="black" stroke-width="2" stroke-miterlimit="10" stroke-linecap="square" fill="none"></path> <path d="M32.5002 18L32.5001 19.5C32.5001 19.7761 32.724 20 33.0001 20H36C36.2762 20 36.5 19.7762 36.5 19.5L36.5001 18" stroke="black" stroke-width="2" stroke-miterlimit="10" stroke-linecap="square" fill="none"></path> <path d="M39 18L30 18C27.7909 18 26 19.7909 26 22L26 40C26 42.2091 27.7909 44 30 44L39 44C41.2091 44 43 42.2091 43 40L43 22C43 19.7909 41.2091 18 39 18Z" stroke="black" stroke-width="2" stroke-miterlimit="10" stroke-linecap="square" fill="none"></path> <path d="M18 32V32C18 30.3431 19.3431 29 21 29V29" stroke="#000" stroke-width="2" stroke-linecap="square" data-color="color-2" fill="none"></path> <path d="M13 32V32C13 27.5817 16.5817 24 21 24V24" stroke="#000" stroke-width="2" stroke-linecap="square" data-color="color-2" fill="none"></path> <path d="M8 32V32C8 24.8203 13.8203 19 21 19V19" stroke="#000" stroke-width="2" stroke-linecap="square" data-color="color-2" fill="none"></path> </svg>