<svg xmlns="http://www.w3.org/2000/svg" xmlns:xlink="http://www.w3.org/1999/xlink" x="0px" y="0px" width="48px" height="48px" viewBox="0 0 48 48"><path d="M24 19C28.1421 19 31.5 15.6421 31.5 11.5C31.5 7.35786 28.1421 4 24 4C19.8579 4 16.5 7.35786 16.5 11.5C16.5 15.6421 19.8579 19 24 19Z" stroke="black" stroke-width="2" stroke-miterlimit="10" stroke-linecap="square" fill="none"></path> <path d="M21.5 43H38.2391L44.5 31H27.7609L21.5 43Z" stroke="#000" stroke-width="2" stroke-linecap="round" data-color="color-2" fill="none"></path> <path d="M22 43H15" stroke="#000" stroke-width="2" stroke-linecap="square" data-color="color-2" fill="none"></path> <path d="M10 41.7232C8.66664 41.48 7.33331 41.2021 6 40.8894C6 31.5622 14.0595 24 24 24C27.0741 24 29.9684 24.7232 32.5 25.9982" stroke="black" stroke-width="2" stroke-miterlimit="10" stroke-linecap="square" fill="none"></path></svg>