<svg xmlns="http://www.w3.org/2000/svg" xmlns:xlink="http://www.w3.org/1999/xlink" x="0px" y="0px" width="48px" height="48px" viewBox="0 0 48 48"><path d="M7.78282 29H22.2101" stroke="black" stroke-width="2" data-cap="butt" fill="none"></path> <path d="M29 28H43" stroke="#000" stroke-width="2" stroke-linecap="square" data-color="color-2" fill="none"></path> <path d="M29 5L30 5C33.3137 5 36 7.68629 36 11L36 37C36 40.3137 33.3137 43 30 43L29 43" stroke="#000" stroke-width="2" stroke-miterlimit="10" stroke-linecap="square" data-color="color-2" fill="none"></path> <path d="M43 5L42 5C38.6863 5 36 7.68629 36 11L36 37C36 40.3137 38.6863 43 42 43L43 43" stroke="#000" stroke-width="2" stroke-miterlimit="10" stroke-linecap="square" data-color="color-2" fill="none"></path> <path d="M5.0997 37H5L14.375 10H15H15.625L25 37H24.8995" stroke="black" stroke-width="2" stroke-linecap="square" fill="none"></path></svg>