<svg xmlns="http://www.w3.org/2000/svg" xmlns:xlink="http://www.w3.org/1999/xlink" x="0px" y="0px" width="48px" height="48px" viewBox="0 0 48 48"> <path d="M24 36C28.9706 36 33 30.6274 33 24C33 17.3726 28.9706 12 24 12C19.0294 12 15 17.3726 15 24C15 30.6274 19.0294 36 24 36Z" stroke="#000" stroke-width="2" stroke-miterlimit="10" stroke-linecap="square" data-color="color-2" fill="none"></path> <path d="M40 39V9C36.3183 9 33.5 6.51432 33.5 3H14.5C14.5 6.51432 11.6817 9 8 9V39C11.6817 39 14.5 41.4857 14.5 45H33.5C33.5 41.4857 36.3183 39 40 39Z" stroke="black" stroke-width="2" stroke-miterlimit="10" stroke-linecap="square" fill="none"></path> </svg>