<svg xmlns="http://www.w3.org/2000/svg" xmlns:xlink="http://www.w3.org/1999/xlink" x="0px" y="0px" width="48px" height="48px" viewBox="0 0 48 48"> <path d="M20 3V16H7" stroke="black" stroke-width="2" stroke-miterlimit="10" data-cap="butt" fill="none"></path> <path d="M20 36V43H26.5C28.433 43 30 41.433 30 39.5C30 37.567 28.433 36 26.5 36H20ZM20 36V29M20 36H24.5C26.433 36 28 34.433 28 32.5C28 30.567 26.433 29 24.5 29H20M20 29H21.978" stroke="#000" stroke-width="2" data-color="color-2" data-cap="butt" fill="none"></path> <path d="M44 29L44 38C44 40.7614 41.7614 43 39 43V43C36.2386 43 34 40.7614 34 38V37" stroke="#000" stroke-width="2" stroke-linecap="square" data-color="color-2" fill="none"></path> <path d="M16 36C16 39.866 13.3137 43 10 43C6.68629 43 4 39.866 4 36C4 32.134 6.68629 29 10 29C13.3137 29 16 32.134 16 36Z" stroke="#000" stroke-width="2" data-color="color-2" data-cap="butt" fill="none"></path> <path d="M7 24C7 21.7277 7 18.7293 7 16.2422C7 15.4466 7.31607 14.6839 7.87868 14.1213L18.1213 3.87868C18.6839 3.31607 19.447 3 20.2426 3H36C38.7614 3 41 5.23768 41 7.9991C41 13.0203 41 18.769 41 24" stroke="black" stroke-width="2" stroke-miterlimit="10" stroke-linecap="square" fill="none"></path> </svg>