<svg xmlns="http://www.w3.org/2000/svg" xmlns:xlink="http://www.w3.org/1999/xlink" x="0px" y="0px" width="48px" height="48px" viewBox="0 0 48 48"> <path d="M3 23.9998C15.4822 11.5176 32.4556 11.5176 44.9378 23.9998" stroke="black" stroke-width="2" stroke-miterlimit="10" stroke-linecap="square" fill="none"></path> <path d="M18.9216 15.138L18.9522 15.231L17.2288 10" stroke="black" stroke-width="2" stroke-miterlimit="10" stroke-linecap="square" fill="none"></path> <path d="M9 19.1269L9.08577 19.2496L6.15869 15.0596" stroke="black" stroke-width="2" stroke-miterlimit="10" stroke-linecap="square" fill="none"></path> <path d="M28.977 15.1487L28.9541 15.2176L30.709 10" stroke="black" stroke-width="2" stroke-miterlimit="10" stroke-linecap="square" fill="none"></path> <path d="M38.9052 19.1239L38.8596 19.1887L41.7791 15.0132" stroke="black" stroke-width="2" stroke-miterlimit="10" stroke-linecap="square" fill="none"></path> <path d="M24 36C28.4183 36 32 32.4183 32 28C32 23.5817 28.4183 20 24 20C19.5817 20 16 23.5817 16 28C16 32.4183 19.5817 36 24 36Z" stroke="#000" stroke-width="2" stroke-miterlimit="10" stroke-linecap="square" data-color="color-2" fill="none"></path> </svg>