<svg xmlns="http://www.w3.org/2000/svg" xmlns:xlink="http://www.w3.org/1999/xlink" x="0px" y="0px" width="48px" height="48px" viewBox="0 0 48 48"><path d="M16.15 14.85L14.5 11L12.85 14.85L9 16.5L12.85 18.15L14.5 22L16.15 18.15L20 16.5L16.15 14.85Z" fill="#000" data-color="color-2" data-cap="butt" data-stroke="none"></path> <path d="M43.0001 29H42.4292L33.6302 18.3325L25.0235 28.0704L20.6141 23.8962L15.5001 29.0102" stroke="#000" stroke-width="2" stroke-miterlimit="10" stroke-linecap="square" data-color="color-2" fill="none"></path> <path d="M5 29V12C5 9.23858 7.23858 7 10 7H38C40.7614 7 43 9.23858 43 12V29" stroke="black" stroke-width="2" stroke-miterlimit="10" stroke-linecap="square" fill="none"></path> <path d="M3 34V38C3 39.6569 4.34315 41 6 41H42C43.6569 41 45 39.6569 45 38V34H32V35C32 36.1046 31.1046 37 30 37H18C16.8954 37 16 36.1046 16 35V34H3Z" stroke="black" stroke-width="2" stroke-miterlimit="10" stroke-linecap="square" fill="none"></path></svg>