<svg xmlns="http://www.w3.org/2000/svg" xmlns:xlink="http://www.w3.org/1999/xlink" x="0px" y="0px" width="48px" height="48px" viewBox="0 0 48 48"> <path d="M7 25V44H41.0001V25" stroke="#000" stroke-width="2" data-color="color-2" data-cap="butt" fill="none"></path> <path d="M7 23.065V25H41V23.065C41 21.0332 39.4769 19.3243 37.4585 19.0914L28 18L29.2559 7.95366C29.6512 4.79233 27.1862 2 24.0002 2C20.8143 2 18.3492 4.79231 18.7444 7.95368L20 18L10.5415 19.0914C8.52314 19.3243 7 21.0332 7 23.065Z" stroke="black" stroke-width="2" stroke-linecap="square" fill="none"></path> <path d="M15 44V35" stroke="#000" stroke-width="2" stroke-linecap="square" data-color="color-2" fill="none"></path> <path d="M34 44V31.5" stroke="#000" stroke-width="2" stroke-linecap="square" data-color="color-2" fill="none"></path> <path d="M20 44V40" stroke="#000" stroke-width="2" stroke-linecap="square" data-color="color-2" fill="none"></path> <path d="M24 8.00012C24.2761 8.00012 24.5 7.77626 24.5 7.50012C24.5 7.22398 24.2761 7.00012 24 7.00012C23.7239 7.00012 23.5 7.22398 23.5 7.50012C23.5 7.77626 23.7239 8.00012 24 8.00012Z" stroke="black" stroke-width="2" stroke-miterlimit="10" stroke-linecap="square" fill="none"></path> <path d="M24 9C24.8284 9 25.5 8.32843 25.5 7.5C25.5 6.67157 24.8284 6 24 6C23.1716 6 22.5 6.67157 22.5 7.5C22.5 8.32843 23.1716 9 24 9Z" fill="black" data-cap="butt" data-stroke="none"></path> </svg>