<svg xmlns="http://www.w3.org/2000/svg" xmlns:xlink="http://www.w3.org/1999/xlink" x="0px" y="0px" width="20px" height="20px" viewBox="0 0 20 20"><path d="m12,14v-2c0-1.1046.8954-2,2-2h0c1.1046,0,2,.8954,2,2v2" fill="none" stroke="#000" stroke-linecap="round" stroke-linejoin="round" stroke-width="2" data-color="color-2"></path><path d="m17,7.3979v-2.0104c0-.6826-.6687-1.1646-1.3162-.9487l-2.8362.9454c-.2244.0748-.468.0676-.6876-.0202l-4.3198-1.7279c-.2196-.0878-.4632-.095-.6876-.0202l-3.4687,1.1562c-.4083.1361-.6838.5182-.6838.9487v8.8918c0,.6826.6687,1.1646,1.3162.9487l2.8362-.9454c.1129-.0376.2305-.0542.3475-.0505v-.0653" fill="none" stroke="#000" stroke-linecap="round" stroke-linejoin="round" stroke-width="2"></path><rect x="11" y="14" width="6" height="3" rx=".5" ry=".5" fill="#000" stroke="#000" stroke-linecap="round" stroke-linejoin="round" stroke-width="2" data-color="color-2"></rect></svg>