<svg xmlns="http://www.w3.org/2000/svg" xmlns:xlink="http://www.w3.org/1999/xlink" x="0px" y="0px" width="20px" height="20px" viewBox="0 0 20 20"><circle cx="10" cy="11" r="1" fill="#000" stroke="#000" stroke-linecap="round" stroke-linejoin="round" stroke-width="2" data-color="color-2"></circle><line x1="10" y1="11" x2="5" y2="6" fill="none" stroke="#000" stroke-linecap="round" stroke-linejoin="round" stroke-width="2" data-color="color-2"></line><line x1="10" y1="4" x2="10" y2="6" fill="none" stroke="#000" stroke-linecap="round" stroke-linejoin="round" stroke-width="2"></line><line x1="14.95" y1="6.05" x2="13.536" y2="7.464" fill="none" stroke="#000" stroke-linecap="round" stroke-linejoin="round" stroke-width="2"></line><line x1="17" y1="11" x2="15" y2="11" fill="none" stroke="#000" stroke-linecap="round" stroke-linejoin="round" stroke-width="2"></line><line x1="14.95" y1="15.95" x2="13.536" y2="14.536" fill="none" stroke="#000" stroke-linecap="round" stroke-linejoin="round" stroke-width="2"></line><line x1="5.05" y1="15.95" x2="6.464" y2="14.536" fill="none" stroke="#000" stroke-linecap="round" stroke-linejoin="round" stroke-width="2"></line><line x1="3" y1="11" x2="5" y2="11" fill="none" stroke="#000" stroke-linecap="round" stroke-linejoin="round" stroke-width="2"></line><path d="m14.95,15.95c1.267-1.267,2.05-3.017,2.05-4.95,0-3.866-3.134-7-7-7-.626,0-1.229.09-1.806.244" fill="none" stroke="#000" stroke-linecap="round" stroke-linejoin="round" stroke-width="2"></path><path d="m3.244,9.194c-.154.577-.244,1.181-.244,1.806,0,1.933.784,3.683,2.05,4.95" fill="none" stroke="#000" stroke-linecap="round" stroke-linejoin="round" stroke-width="2"></path></svg>