<svg xmlns="http://www.w3.org/2000/svg" xmlns:xlink="http://www.w3.org/1999/xlink" x="0px" y="0px" width="20px" height="20px" viewBox="0 0 20 20"><path d="m14,3H6c-1.657,0-3,1.343-3,3v2h14v-2c0-1.657-1.343-3-3-3Zm-8,3c-.552,0-1-.448-1-1s.448-1,1-1,1,.448,1,1-.448,1-1,1Zm3,0c-.552,0-1-.448-1-1s.448-1,1-1,1,.448,1,1-.448,1-1,1Z" stroke-width="0" fill="#000"></path><path d="m17,8.383v-2.383c0-1.657-1.343-3-3-3H6c-1.657,0-3,1.343-3,3v8c0,1.657,1.343,3,3,3h3.016" fill="none" stroke="#000" stroke-linecap="round" stroke-linejoin="round" stroke-width="2"></path><path d="m17.98,12.572c-.141-1.133-1.059-1.883-2.201-1.863-.71.013-1.304.374-1.78.969-.364-.606-1.091-.97-1.818-.97-1.212,0-2.182.97-2.182,2.182.1,2.211,2.201,4.078,3.399,4.928.355.252.827.24,1.172-.024,1.163-.892,3.675-3.086,3.409-5.222Z" fill="#000" stroke-width="0" data-color="color-2"></path></svg>