<svg xmlns="http://www.w3.org/2000/svg" xmlns:xlink="http://www.w3.org/1999/xlink" x="0px" y="0px" width="20px" height="20px" viewBox="0 0 20 20"><path d="m5.5,7h1l.474,9.475c.014.286-.213.525-.499.525h-.949c-.286,0-.514-.239-.499-.525l.474-9.475Z" stroke="#000" stroke-linecap="round" stroke-linejoin="round" stroke-width="2" fill="#000"></path><line x1="14" y1="5" x2="14" y2="11" fill="none" stroke="#000" stroke-linecap="round" stroke-linejoin="round" stroke-width="2" data-color="color-2"></line><polygon points="15 5 14 7 13 5 13.5 3 14.5 3 15 5" fill="none" stroke="#000" stroke-linecap="round" stroke-linejoin="round" stroke-width="2" data-color="color-2"></polygon><line x1="17" y1="11" x2="11" y2="11" fill="none" stroke="#000" stroke-linecap="round" stroke-linejoin="round" stroke-width="2" data-color="color-2"></line><path d="m16,11v5c0,.552-.448,1-1,1h-2c-.552,0-1-.448-1-1v-5" fill="none" stroke="#000" stroke-linecap="round" stroke-linejoin="round" stroke-width="2" data-color="color-2"></path><path d="m7.5,2.297v2.703c0,.553-.448,1-1,1h-1c-.552,0-1-.447-1-1v-2.703c-1.463.595-2.5,2.028-2.5,3.703,0,2.206,1.794,4,4,4s4-1.794,4-4c0-1.675-1.037-3.107-2.5-3.703Z" stroke-width="0" fill="#000"></path></svg>