<svg xmlns="http://www.w3.org/2000/svg" xmlns:xlink="http://www.w3.org/1999/xlink" x="0px" y="0px" width="20px" height="20px" viewBox="0 0 20 20"><path d="m12,15v-2c0-1.105.895-2,2-2h0c1.105,0,2,.895,2,2v2" fill="none" stroke="#000" stroke-linecap="round" stroke-linejoin="round" stroke-width="2" data-color="color-2"></path><path d="m3,8h14v-2c0-1.657-1.343-3-3-3H6c-1.657,0-3,1.343-3,3v8c0,1.657,1.343,3,3,3h2V3" fill="none" stroke="#000" stroke-linecap="round" stroke-linejoin="round" stroke-width="2"></path><path d="m3,8h14v-2c0-1.657-1.343-3-3-3H6c-1.657,0-3,1.343-3,3v8c0,1.657,1.343,3,3,3h2V3" fill="none" stroke="#000" stroke-linecap="round" stroke-linejoin="round" stroke-width="2"></path><rect x="11" y="15" width="6" height="3" rx=".5" ry=".5" fill="#000" stroke="#000" stroke-linecap="round" stroke-linejoin="round" stroke-width="2" data-color="color-2"></rect></svg>