<svg xmlns="http://www.w3.org/2000/svg" xmlns:xlink="http://www.w3.org/1999/xlink" x="0px" y="0px" width="20px" height="20px" viewBox="0 0 20 20"><circle cx="10" cy="3" r="1" fill="#000" stroke-width="0" data-color="color-2"></circle><circle cx="15.657" cy="5.343" r="1" fill="#000" stroke-width="0" data-color="color-2"></circle><path d="m17,11c0,.552.448,1,1,1s1-.448,1-1-.448-1-1-1-1,.448-1,1Z" fill="#000" stroke-width="0" data-color="color-2"></path><circle cx="15.657" cy="16.657" r="1" fill="#000" stroke-width="0" data-color="color-2"></circle><circle cx="4.343" cy="16.657" r="1" fill="#000" stroke-width="0" data-color="color-2"></circle><circle cx="2" cy="11" r="1" fill="#000" stroke-width="0" data-color="color-2"></circle><circle cx="4.343" cy="5.343" r="1" fill="#000" stroke-width="0" data-color="color-2"></circle><path d="m10,5c-3.309,0-6,2.691-6,6s2.691,6,6,6,6-2.691,6-6-2.691-6-6-6Zm2.707,8.707c-.195.195-.451.293-.707.293s-.512-.098-.707-.293l-2-2c-.391-.391-.391-1.023,0-1.414s1.023-.391,1.414,0l2,2c.391.391.391,1.023,0,1.414Z" stroke-width="0" fill="#000"></path></svg>