<svg xmlns="http://www.w3.org/2000/svg" xmlns:xlink="http://www.w3.org/1999/xlink" x="0px" y="0px" width="20px" height="20px" viewBox="0 0 20 20"><path d="m16.083,5.056l-4.688-2.858c-.861-.523-1.93-.524-2.791,0l-4.688,2.857c-.874.533-1.417,1.531-1.417,2.604v4.679c0,1.074.543,2.072,1.417,2.604l4.688,2.858c.43.262.913.393,1.395.393s.965-.131,1.395-.393l4.688-2.857c.874-.533,1.417-1.531,1.417-2.604v-4.679c0-1.074-.543-2.072-1.417-2.604Zm-1.799,2.564l-4.75,6c-.183.231-.458.37-.753.379-.01,0-.021,0-.031,0-.283,0-.554-.12-.743-.331l-2.25-2.5c-.369-.411-.336-1.043.074-1.412.411-.37,1.042-.336,1.412.074l1.458,1.62,4.015-5.071c.343-.432.971-.506,1.405-.164.433.343.506.972.163,1.405Z" stroke-width="0" fill="#000"></path></svg>