<svg xmlns="http://www.w3.org/2000/svg" xmlns:xlink="http://www.w3.org/1999/xlink" x="0px" y="0px" width="20px" height="20px" viewBox="0 0 20 20"><path d="m14,2H6c-2.206,0-4,1.794-4,4v8c0,2.206,1.794,4,4,4h8c2.206,0,4-1.794,4-4V6c0-2.206-1.794-4-4-4Zm-7.25,3.5c.69,0,1.25.56,1.25,1.25s-.56,1.25-1.25,1.25-1.25-.56-1.25-1.25.56-1.25,1.25-1.25Zm7.25,10.5H6c-.688,0-1.296-.349-1.656-.88l5.888-5.888c.943-.944,2.591-.944,3.536,0l2.232,2.232v2.536c0,1.103-.897,2-2,2Z" stroke-width="0" fill="#000"></path></svg>