<svg xmlns="http://www.w3.org/2000/svg" xmlns:xlink="http://www.w3.org/1999/xlink" x="0px" y="0px" width="18px" height="18px" viewBox="0 0 18 18"><path d="M10.5 6.25L13.25 3.5L16 6.25" stroke="black" stroke-width="1.5" stroke-linecap="round" stroke-linejoin="round" fill="none"></path> <path d="M13.25 3.5V14" stroke="black" stroke-width="1.5" stroke-linecap="round" stroke-linejoin="round" fill="none"></path> <path d="M5.24999 7.5V2C5.24999 2 4.61999 3.108 3.28299 3.364" stroke="black" stroke-width="1.5" stroke-linecap="round" stroke-linejoin="round" fill="none"></path> <path d="M5.15601 13.188C6.03635 13.188 6.75001 12.4743 6.75001 11.594C6.75001 10.7137 6.03635 10 5.15601 10C4.27567 10 3.56201 10.7137 3.56201 11.594C3.56201 12.4743 4.27567 13.188 5.15601 13.188Z" stroke="black" stroke-width="1.5" stroke-linecap="round" stroke-linejoin="round" fill="none"></path> <path d="M4.5 15.5C4.851 15.331 5.473 14.97 5.984 14.274C6.804 13.16 6.773 11.958 6.75 11.593" stroke="black" stroke-width="1.5" stroke-linecap="round" stroke-linejoin="round" fill="none"></path></svg>