<svg xmlns="http://www.w3.org/2000/svg" xmlns:xlink="http://www.w3.org/1999/xlink" x="0px" y="0px" width="18px" height="18px" viewBox="0 0 18 18"><path d="M11.25 11.75C12.9069 11.75 14.25 10.4069 14.25 8.75C14.25 7.09315 12.9069 5.75 11.25 5.75C9.59315 5.75 8.25 7.09315 8.25 8.75C8.25 10.4069 9.59315 11.75 11.25 11.75Z" fill="#000" fill-opacity="0.3" data-color="color-2" data-stroke="none"></path> <path d="M1.75 14.75H12.25" stroke="black" stroke-width="1.5" stroke-linecap="round" stroke-linejoin="round" fill="none"></path> <path d="M1.75 10.75H5.25" stroke="black" stroke-width="1.5" stroke-linecap="round" stroke-linejoin="round" fill="none"></path> <path d="M1.75 6.75H5.25" stroke="black" stroke-width="1.5" stroke-linecap="round" stroke-linejoin="round" fill="none"></path> <path d="M1.75 2.75H12.25" stroke="black" stroke-width="1.5" stroke-linecap="round" stroke-linejoin="round" fill="none"></path> <path d="M11.25 11.75C12.9069 11.75 14.25 10.4069 14.25 8.75C14.25 7.09315 12.9069 5.75 11.25 5.75C9.59315 5.75 8.25 7.09315 8.25 8.75C8.25 10.4069 9.59315 11.75 11.25 11.75Z" stroke="black" stroke-width="1.5" stroke-linecap="round" stroke-linejoin="round" fill="none"></path> <path d="M13.371 10.871L16.25 13.75" stroke="black" stroke-width="1.5" stroke-linecap="round" stroke-linejoin="round" fill="none"></path></svg>