<svg xmlns="http://www.w3.org/2000/svg" xmlns:xlink="http://www.w3.org/1999/xlink" x="0px" y="0px" width="18px" height="18px" viewBox="0 0 18 18"><path d="M7.75 13.25C10.7875 13.25 13.25 10.7875 13.25 7.75C13.25 4.7125 10.7875 2.25 7.75 2.25C4.7125 2.25 2.25 4.7125 2.25 7.75C2.25 10.7875 4.7125 13.25 7.75 13.25Z" fill="#000" fill-opacity="0.3" data-color="color-2" data-stroke="none"></path> <path d="M15.75 15.75L11.6386 11.6386" stroke="black" stroke-width="1.5" stroke-linecap="round" stroke-linejoin="round" fill="none"></path> <path d="M7.75 13.25C10.7875 13.25 13.25 10.7875 13.25 7.75C13.25 4.7125 10.7875 2.25 7.75 2.25C4.7125 2.25 2.25 4.7125 2.25 7.75C2.25 10.7875 4.7125 13.25 7.75 13.25Z" stroke="black" stroke-width="1.5" stroke-linecap="round" stroke-linejoin="round" fill="none"></path> <path d="M7.75 5.5V7.5" stroke="black" stroke-width="1.5" stroke-linecap="round" stroke-linejoin="round" fill="none"></path> <path d="M7.75 10.75C8.164 10.75 8.5 10.4142 8.5 10C8.5 9.5858 8.164 9.25 7.75 9.25C7.336 9.25 7 9.5858 7 10C7 10.4142 7.336 10.75 7.75 10.75Z" fill="black" data-stroke="none"></path></svg>