<svg xmlns="http://www.w3.org/2000/svg" xmlns:xlink="http://www.w3.org/1999/xlink" x="0px" y="0px" width="24px" height="24px" viewBox="0 0 24 24"><path d="m19.5,22h-11c-1.378,0-2.5-1.122-2.5-2.5v-2.5h2v2.5c0,.276.224.5.5.5h11c.276,0,.5-.224.5-.5v-11c0-.276-.224-.5-.5-.5h-2.5v-2h2.5c1.378,0,2.5,1.122,2.5,2.5v11c0,1.378-1.122,2.5-2.5,2.5Z" fill="#000" stroke-width="0" data-color="color-2"></path><path d="m15.5,2H4.5c-1.378,0-2.5,1.122-2.5,2.5v11c0,1.378,1.122,2.5,2.5,2.5h11c1.378,0,2.5-1.122,2.5-2.5V4.5c0-1.378-1.122-2.5-2.5-2.5Zm-1.5,9h-3v3h-2v-3h-3v-2h3v-3h2v3h3v2Z" stroke-width="0" fill="#000"></path></svg>