<svg xmlns="http://www.w3.org/2000/svg" xmlns:xlink="http://www.w3.org/1999/xlink" x="0px" y="0px" width="32px" height="32px" viewBox="0 0 32 32"><rect x="17" y="10" width="5" height="5" fill="#000" stroke-width="0" data-color="color-2"></rect><rect x="24" y="3" width="5" height="5" fill="#000" stroke-width="0" data-color="color-2"></rect><rect x="3" y="24" width="5" height="5" fill="#000" stroke-width="0" data-color="color-2"></rect><rect x="10" y="17" width="5" height="5" fill="#000" stroke-width="0" data-color="color-2"></rect><rect x="3" y="3" width="5" height="5" stroke-width="0" fill="#000"></rect><rect x="3" y="10" width="5" height="5" stroke-width="0" fill="#000"></rect><rect x="10" y="10" width="5" height="5" stroke-width="0" fill="#000"></rect><rect x="24" y="10" width="5" height="5" stroke-width="0" fill="#000"></rect><rect x="10" y="3" width="5" height="5" stroke-width="0" fill="#000"></rect><rect x="17" y="3" width="5" height="5" stroke-width="0" fill="#000"></rect><rect x="3" y="17" width="5" height="5" stroke-width="0" fill="#000"></rect><rect x="10" y="24" width="5" height="5" stroke-width="0" fill="#000"></rect><rect x="17" y="24" width="5" height="5" stroke-width="0" fill="#000"></rect><rect x="24" y="24" width="5" height="5" stroke-width="0" fill="#000"></rect><rect x="17" y="17" width="5" height="5" stroke-width="0" fill="#000"></rect><rect x="24" y="17" width="5" height="5" stroke-width="0" fill="#000"></rect></svg>