<svg xmlns="http://www.w3.org/2000/svg" xmlns:xlink="http://www.w3.org/1999/xlink" x="0px" y="0px" width="32px" height="32px" viewBox="0 0 32 32"><path fill-rule="evenodd" clip-rule="evenodd" d="M8 11.8261C8 9.713 9.713 8 11.8261 8H26.1739C28.287 8 30 9.713 30 11.8261V26.1739C30 28.287 28.287 30 26.1739 30H11.8261C9.713 30 8 28.287 8 26.1739V11.8261Z" fill="black"></path> <path d="M5.82609 2C3.713 2 2 3.713 2 5.82609V20.1739C2 22.287 3.713 24 5.82609 24H6V11C6 8.23858 8.23858 6 11 6H24V5.82609C24 3.713 22.287 2 20.1739 2H5.82609Z" fill="#000" data-color="color-2"></path></svg>