<svg xmlns="http://www.w3.org/2000/svg" xmlns:xlink="http://www.w3.org/1999/xlink" x="0px" y="0px" width="32px" height="32px" viewBox="0 0 32 32"><path fill-rule="evenodd" clip-rule="evenodd" d="M24 20.1739C24 22.287 22.287 24 20.1739 24L5.82609 24C3.713 24 2 22.287 2 20.1739L2 5.82608C2 3.713 3.713 2 5.82609 2L20.1739 2C22.287 2 24 3.713 24 5.82609L24 20.1739Z" fill="black"></path> <path d="M26.1739 30C28.287 30 30 28.287 30 26.1739L30 11.8261C30 9.713 28.287 8 26.1739 8L26 8L26 21C26 23.7614 23.7614 26 21 26L8 26L8 26.1739C8 28.287 9.713 30 11.8261 30L26.1739 30Z" fill="#000" data-color="color-2"></path></svg>