<svg xmlns="http://www.w3.org/2000/svg" xmlns:xlink="http://www.w3.org/1999/xlink" x="0px" y="0px" width="32px" height="32px" viewBox="0 0 32 32"> <path fill-rule="evenodd" clip-rule="evenodd" d="M22 11.5C22 5.70101 17.299 1 11.5 1C5.70101 1 1 5.70101 1 11.5C1 17.299 5.70101 22 11.5 22C17.299 22 22 17.299 22 11.5Z" fill="black"></path> <path d="M23.9671 10.5859C23.9889 10.8878 24 11.1926 24 11.5C24 18.4036 18.4036 24 11.5 24C11.1926 24 10.8878 23.9889 10.5859 23.9671C12.018 28.0625 15.916 31 20.5 31C26.299 31 31 26.299 31 20.5C31 15.916 28.0625 12.018 23.9671 10.5859Z" fill="#000" data-color="color-2"></path> </svg>