<svg xmlns="http://www.w3.org/2000/svg" xmlns:xlink="http://www.w3.org/1999/xlink" x="0px" y="0px" width="48px" height="48px" viewBox="0 0 48 48"> <path d="M46 4L46 35L2 35L2 4L46 4Z" fill="black"></path> <path fill-rule="evenodd" clip-rule="evenodd" d="M21.5 41.5C21.5 40.1193 22.6193 39 24 39C25.3807 39 26.5 40.1193 26.5 41.5C26.5 42.8807 25.3807 44 24 44C22.6193 44 21.5 42.8807 21.5 41.5Z" fill="#000" data-color="color-2"></path> <path fill-rule="evenodd" clip-rule="evenodd" d="M33.5 41.5C33.5 40.1193 34.6193 39 36 39C37.3807 39 38.5 40.1193 38.5 41.5C38.5 42.8807 37.3807 44 36 44C34.6193 44 33.5 42.8807 33.5 41.5Z" fill="#000" data-color="color-2"></path> <path fill-rule="evenodd" clip-rule="evenodd" d="M9.5 41.5C9.5 40.1193 10.6193 39 12 39C13.3807 39 14.5 40.1193 14.5 41.5C14.5 42.8807 13.3807 44 12 44C10.6193 44 9.5 42.8807 9.5 41.5Z" fill="#000" data-color="color-2"></path> </svg>