<svg xmlns="http://www.w3.org/2000/svg" xmlns:xlink="http://www.w3.org/1999/xlink" x="0px" y="0px" width="48px" height="48px" viewBox="0 0 48 48"> <path fill-rule="evenodd" clip-rule="evenodd" d="M5 5L43 5L43 17L5 17L5 5Z" fill="black"></path> <path fill-rule="evenodd" clip-rule="evenodd" d="M4 4H44V44H4V4ZM7 7V41H41V7H7Z" fill="black"></path> <path fill-rule="evenodd" clip-rule="evenodd" d="M10 27L22 27L22 20L10 20L10 27Z" fill="#000" data-color="color-2"></path> <path fill-rule="evenodd" clip-rule="evenodd" d="M10 38L22 38L22 31L10 31L10 38Z" fill="#000" data-color="color-2"></path> <path fill-rule="evenodd" clip-rule="evenodd" d="M26 27L38 27L38 20L26 20L26 27Z" fill="#000" data-color="color-2"></path> <path fill-rule="evenodd" clip-rule="evenodd" d="M26 38L38 38L38 31L26 31L26 38Z" fill="#000" data-color="color-2"></path> </svg>