<svg xmlns="http://www.w3.org/2000/svg" xmlns:xlink="http://www.w3.org/1999/xlink" x="0px" y="0px" width="48px" height="48px" viewBox="0 0 48 48"><path fill-rule="evenodd" clip-rule="evenodd" d="M14 20C14 16.6863 16.6863 14 20 14H38C41.3137 14 44 16.6863 44 20V38C44 41.3137 41.3137 44 38 44H20C16.6863 44 14 41.3137 14 38V20Z" fill="black"></path> <path d="M10 4C6.68629 4 4 6.68629 4 10V28C4 31.3137 6.68629 34 10 34H11V19C11 14.5817 14.5817 11 19 11H34V10C34 6.68629 31.3137 4 28 4H10Z" fill="#000" data-color="color-2"></path></svg>