<svg xmlns="http://www.w3.org/2000/svg" xmlns:xlink="http://www.w3.org/1999/xlink" x="0px" y="0px" width="48px" height="48px" viewBox="0 0 48 48"> <path fill-rule="evenodd" clip-rule="evenodd" d="M21 5C20.4477 5 20 5.44772 20 6V9H17V6C17 3.79086 18.7909 2 21 2H27C29.2091 2 31 3.79086 31 6V9H28V6C28 5.44772 27.5523 5 27 5H21Z" fill="#000" data-color="color-2"></path> <path fill-rule="evenodd" clip-rule="evenodd" d="M4 8H44V16H4V8Z" fill="#000" data-color="color-2"></path> <path fill-rule="evenodd" clip-rule="evenodd" d="M39.0834 19H8.91699L10.6353 40.4785C10.8847 43.5967 13.488 46 16.6162 46H31.3842C34.5124 46 37.1156 43.5967 37.3651 40.4785L39.0834 19ZM18.4364 23.9388L19.0613 38.9362L16.0639 39.0611L15.439 24.0637L18.4364 23.9388ZM25.5 24V39H22.5V24H25.5ZM32.5613 24.0637L31.9364 39.0611L28.939 38.9362L29.5639 23.9388L32.5613 24.0637Z" fill="black"></path> </svg>