<svg xmlns="http://www.w3.org/2000/svg" xmlns:xlink="http://www.w3.org/1999/xlink" x="0px" y="0px" width="18px" height="18px" viewBox="0 0 18 18"><path d="M13.75 4.25H3.75C2.64543 4.25 1.75 5.14543 1.75 6.25V11.75C1.75 12.8546 2.64543 13.75 3.75 13.75H13.75C14.8546 13.75 15.75 12.8546 15.75 11.75V6.25C15.75 5.14543 14.8546 4.25 13.75 4.25Z" fill="#000" fill-opacity="0.3" data-color="color-2" data-stroke="none"></path> <path d="M13.75 4.25H3.75C2.64543 4.25 1.75 5.14543 1.75 6.25V11.75C1.75 12.8546 2.64543 13.75 3.75 13.75H13.75C14.8546 13.75 15.75 12.8546 15.75 11.75V6.25C15.75 5.14543 14.8546 4.25 13.75 4.25Z" stroke="black" stroke-width="1.5" stroke-linecap="round" stroke-linejoin="round" fill="none"></path> <path d="M17.25 7.75H15.75V10.25H17.25V7.75Z" fill="black" stroke="black" stroke-width="1.5" stroke-linecap="round" stroke-linejoin="round"></path></svg>