<svg xmlns="http://www.w3.org/2000/svg" xmlns:xlink="http://www.w3.org/1999/xlink" x="0px" y="0px" width="18px" height="18px" viewBox="0 0 18 18"><path d="M13.25 1.75H4.75C3.64543 1.75 2.75 2.64543 2.75 3.75V14.25C2.75 15.3546 3.64543 16.25 4.75 16.25H13.25C14.3546 16.25 15.25 15.3546 15.25 14.25V3.75C15.25 2.64543 14.3546 1.75 13.25 1.75Z" fill="#000" fill-opacity="0.3" data-color="color-2" data-stroke="none"></path> <path d="M13.25 1.75H4.75C3.64543 1.75 2.75 2.64543 2.75 3.75V14.25C2.75 15.3546 3.64543 16.25 4.75 16.25H13.25C14.3546 16.25 15.25 15.3546 15.25 14.25V3.75C15.25 2.64543 14.3546 1.75 13.25 1.75Z" stroke="black" stroke-width="1.5" stroke-linecap="round" stroke-linejoin="round" fill="none"></path> <path d="M7.75 4.25H10.25" stroke="black" stroke-width="1.5" stroke-linecap="round" stroke-linejoin="round" fill="none"></path></svg>