<svg xmlns="http://www.w3.org/2000/svg" xmlns:xlink="http://www.w3.org/1999/xlink" x="0px" y="0px" width="18px" height="18px" viewBox="0 0 18 18"><path d="M14.25 2.75H3.75C2.64543 2.75 1.75 3.64543 1.75 4.75V10.75C1.75 11.8546 2.64543 12.75 3.75 12.75H14.25C15.3546 12.75 16.25 11.8546 16.25 10.75V4.75C16.25 3.64543 15.3546 2.75 14.25 2.75Z" fill="#000" fill-opacity="0.3" data-color="color-2" data-stroke="none"></path> <path d="M5.75 15.75C6.508 15.511 7.628 15.25 9 15.25C9.795 15.25 10.941 15.338 12.25 15.75" stroke="black" stroke-width="1.5" stroke-linecap="round" stroke-linejoin="round" fill="none"></path> <path d="M9 12.75V15.25" stroke="black" stroke-width="1.5" stroke-linecap="round" stroke-linejoin="round" fill="none"></path> <path d="M14.25 2.75H3.75C2.64543 2.75 1.75 3.64543 1.75 4.75V10.75C1.75 11.8546 2.64543 12.75 3.75 12.75H14.25C15.3546 12.75 16.25 11.8546 16.25 10.75V4.75C16.25 3.64543 15.3546 2.75 14.25 2.75Z" stroke="black" stroke-width="1.5" stroke-linecap="round" stroke-linejoin="round" fill="none"></path></svg>