<svg xmlns="http://www.w3.org/2000/svg" xmlns:xlink="http://www.w3.org/1999/xlink" x="0px" y="0px" width="18px" height="18px" viewBox="0 0 18 18"><path d="m5.6958,7.5609l4.7433,4.7433c.4427.4427.4427,1.1614,0,1.6041l-.3176.3176c-1.7525,1.7525-4.595,1.7525-6.3474,0h0c-1.7525-1.7525-1.7525-4.595,0-6.3474l.3176-.3176c.4427-.4427,1.1614-.4427,1.6041,0Z" fill="#000" opacity=".3" stroke-width="0" data-color="color-2"></path><polygon points="14.9167 5.25 12.25 5.25 14.5 1.75 13.5833 4.75 16.25 4.75 14 8.25 14.9167 5.25" stroke="#000" stroke-linecap="round" stroke-linejoin="round" stroke-width="1.5" fill="#000"></polygon><path d="m1.75,16.25l2.0233-2.0233" fill="none" stroke="#000" stroke-linecap="round" stroke-linejoin="round" stroke-width="1.5"></path><path d="m5.6958,7.5609l4.7433,4.7433c.4427.4427.4427,1.1614,0,1.6041l-.3176.3176c-1.7525,1.7525-4.595,1.7525-6.3474,0h0c-1.7525-1.7525-1.7525-4.595,0-6.3474l.3176-.3176c.4427-.4427,1.1614-.4427,1.6041,0Z" fill="none" stroke="#000" stroke-linecap="round" stroke-linejoin="round" stroke-width="1.5"></path><line x1="6.6494" y1="8.5145" x2="8.4139" y2="6.75" fill="none" stroke="#000" stroke-linecap="round" stroke-linejoin="round" stroke-width="1.5"></line><line x1="9.4855" y1="11.3506" x2="11.25" y2="9.5861" fill="none" stroke="#000" stroke-linecap="round" stroke-linejoin="round" stroke-width="1.5"></line></svg>