<svg xmlns="http://www.w3.org/2000/svg" xmlns:xlink="http://www.w3.org/1999/xlink" x="0px" y="0px" width="18px" height="18px" viewBox="0 0 18 18"><path d="M3.145 5.94999L8.39499 1.96C8.75299 1.688 9.24801 1.688 9.60501 1.96L14.855 5.94999C15.104 6.13899 15.25 6.434 15.25 6.746V14.25C15.25 15.355 14.355 16.25 13.25 16.25H4.75C3.645 16.25 2.75 15.355 2.75 14.25V6.746C2.75 6.433 2.896 6.13899 3.145 5.94999Z" fill="#000" fill-opacity="0.3" data-color="color-2" data-stroke="none"></path> <path d="M3.145 5.94999L8.39499 1.96C8.75299 1.688 9.24801 1.688 9.60501 1.96L14.855 5.94999C15.104 6.13899 15.25 6.434 15.25 6.746V14.25C15.25 15.355 14.355 16.25 13.25 16.25H4.75C3.645 16.25 2.75 15.355 2.75 14.25V6.746C2.75 6.433 2.896 6.13899 3.145 5.94999Z" stroke="black" stroke-width="1.5" stroke-linecap="round" stroke-linejoin="round" fill="none"></path> <path d="M6.5 11C7.052 11 7.5 10.5523 7.5 10C7.5 9.4477 7.052 9 6.5 9C5.948 9 5.5 9.4477 5.5 10C5.5 10.5523 5.948 11 6.5 11Z" fill="black" data-stroke="none"></path> <path d="M11.5 11C12.052 11 12.5 10.5523 12.5 10C12.5 9.4477 12.052 9 11.5 9C10.948 9 10.5 9.4477 10.5 10C10.5 10.5523 10.948 11 11.5 11Z" fill="black" data-stroke="none"></path> <path d="M7.83331 11.5H10.1666C10.4886 11.5 10.7499 11.7613 10.7499 12.0833C10.7499 13.0493 9.96591 13.8333 8.99991 13.8333C8.03391 13.8333 7.24991 13.0493 7.24991 12.0833C7.24991 11.7613 7.51131 11.5 7.83331 11.5Z" fill="black" data-stroke="none"></path></svg>