<svg xmlns="http://www.w3.org/2000/svg" xmlns:xlink="http://www.w3.org/1999/xlink" x="0px" y="0px" width="18px" height="18px" viewBox="0 0 18 18"><path fill-rule="evenodd" clip-rule="evenodd" d="M5.3698 11.25L4.25 15.25H13.749L12.6292 11.25H5.3698ZM6.48959 7.25H11.5094L10.454 3.48C10.333 3.049 9.939 2.75 9.491 2.75H8.508C8.06 2.75 7.666 3.048 7.545 3.48L6.48959 7.25Z" fill="#000" fill-opacity="0.3" data-color="color-2" data-stroke="none"></path> <path d="M4.25 15.25L7.545 3.48C7.666 3.048 8.06 2.75 8.508 2.75H9.491C9.939 2.75 10.333 3.049 10.454 3.48L13.749 15.25" stroke="black" stroke-width="1.5" stroke-linecap="round" stroke-linejoin="round" fill="none"></path> <path d="M5.37 11.25H12.63" stroke="black" stroke-width="1.5" stroke-linecap="round" stroke-linejoin="round" fill="none"></path> <path d="M6.63 7.25H11.37" stroke="black" stroke-width="1.5" stroke-linecap="round" stroke-linejoin="round" fill="none"></path> <path d="M15.25 15.25H2.75" stroke="black" stroke-width="1.5" stroke-linecap="round" stroke-linejoin="round" fill="none"></path></svg>