<svg xmlns="http://www.w3.org/2000/svg" xmlns:xlink="http://www.w3.org/1999/xlink" x="0px" y="0px" width="18px" height="18px" viewBox="0 0 18 18"><path fill-rule="evenodd" clip-rule="evenodd" d="M2.75 12.75V3.75C2.75 2.64543 3.64543 1.75 4.75 1.75H13.25C14.3546 1.75 15.25 2.64543 15.25 3.75V5.75H10.25V9.25H6.75V12.75H2.75Z" fill="#000" fill-opacity="0.3" data-color="color-2" data-stroke="none"></path> <path d="M2.75 12.75H15.25" stroke="black" stroke-width="1.5" stroke-linecap="round" stroke-linejoin="round" fill="none"></path> <path d="M6.75 12.75V9.25H15.25" stroke="black" stroke-width="1.5" stroke-linecap="round" stroke-linejoin="round" fill="none"></path> <path d="M10.25 9.25V5.75H15.25" stroke="black" stroke-width="1.5" stroke-linecap="round" stroke-linejoin="round" fill="none"></path> <path d="M2.75 3.75L2.75 14.25C2.75 15.3546 3.64543 16.25 4.75 16.25H13.25C14.3546 16.25 15.25 15.3546 15.25 14.25V3.75C15.25 2.64543 14.3546 1.75 13.25 1.75H4.75C3.64543 1.75 2.75 2.64543 2.75 3.75Z" stroke="black" stroke-width="1.5" stroke-linecap="round" stroke-linejoin="round" fill="none"></path></svg>