<svg xmlns="http://www.w3.org/2000/svg" xmlns:xlink="http://www.w3.org/1999/xlink" x="0px" y="0px" width="18px" height="18px" viewBox="0 0 18 18"><path d="M15.5 8.36914V13.25C15.5 14.355 14.605 15.25 13.5 15.25H11.7249V9.30164H6.25416V15.25H4.5C3.395 15.25 2.5 14.355 2.5 13.25V8.37012C2.57668 8.34289 2.65356 8.31255 2.72852 8.27637L9 5.24805L15.5 8.36914Z" fill="#000" fill-opacity="0.3" data-color="color-2" data-stroke="none"></path> <path d="M6.25 15.25V9.25H11.75V15.25" stroke="black" stroke-width="1.5" stroke-linecap="round" stroke-linejoin="round" fill="none"></path> <path d="M6.25 12.25H11.75" stroke="black" stroke-width="1.5" stroke-linecap="round" stroke-linejoin="round" fill="none"></path> <path d="M15.25 9.07851V13.25C15.25 14.355 14.355 15.25 13.25 15.25H4.75C3.645 15.25 2.75 14.355 2.75 13.25V9.07831" stroke="black" stroke-width="1.5" stroke-linecap="round" stroke-linejoin="round" fill="none"></path> <path d="M1.75 6.25L9 2.75L16.25 6.25" stroke="black" stroke-width="1.5" stroke-linecap="round" stroke-linejoin="round" fill="none"></path></svg>