<svg xmlns="http://www.w3.org/2000/svg" xmlns:xlink="http://www.w3.org/1999/xlink" x="0px" y="0px" width="18px" height="18px" viewBox="0 0 18 18"><path d="M4.97798 2.75H13.022C13.456 2.75 13.84 3.03 13.973 3.442L16.076 9.942C16.285 10.588 15.803 11.25 15.125 11.25H2.87498C2.19598 11.25 1.71498 10.588 1.92398 9.942L4.02598 3.442C4.15898 3.029 4.54498 2.75 4.97798 2.75Z" fill="#000" fill-opacity="0.3" data-color="color-2" data-stroke="none"></path> <path d="M12.25 15.25H5.75" stroke="black" stroke-width="1.5" stroke-linecap="round" stroke-linejoin="round" fill="none"></path> <path d="M9 15.25V11.25" stroke="black" stroke-width="1.5" stroke-linecap="round" stroke-linejoin="round" fill="none"></path> <path d="M4.97798 2.75H13.022C13.456 2.75 13.84 3.03 13.973 3.442L16.076 9.942C16.285 10.588 15.803 11.25 15.125 11.25H2.87498C2.19598 11.25 1.71498 10.588 1.92398 9.942L4.02598 3.442C4.15898 3.029 4.54498 2.75 4.97798 2.75Z" stroke="black" stroke-width="1.5" stroke-linecap="round" stroke-linejoin="round" fill="none"></path> <path d="M7.25 2.75L6.5 11.25" stroke="black" stroke-width="1.5" stroke-linecap="round" stroke-linejoin="round" fill="none"></path> <path d="M10.75 2.75L11.5 11.25" stroke="black" stroke-width="1.5" stroke-linecap="round" stroke-linejoin="round" fill="none"></path> <path d="M2.95599 6.75H15" stroke="black" stroke-width="1.5" stroke-linecap="round" stroke-linejoin="round" fill="none"></path></svg>