<svg xmlns="http://www.w3.org/2000/svg" xmlns:xlink="http://www.w3.org/1999/xlink" x="0px" y="0px" width="18px" height="18px" viewBox="0 0 18 18"><path d="M13.5,3.5h0c.276,0,.5,.224,.5,.5h0c0,1.38-1.12,2.5-2.5,2.5h0c-.276,0-.5-.224-.5-.5h0c0-1.38,1.12-2.5,2.5-2.5Z" fill="#000" data-color="color-2"></path><path d="M12.25,7.5c-.271,0-.533,.036-.792,.08l-.184,7.748c-.013,.523-.164,1.01-.399,1.445,.438,.134,.894,.227,1.376,.227,2.619,0,4.75-2.131,4.75-4.75s-2.131-4.75-4.75-4.75Z" fill="#000" data-color="color-2"></path><path d="M9.786,5.226c-.141-.145-.334-.226-.536-.226h-3.385l-.271-2.442c-.098-.888-.845-1.558-1.739-1.558H1.75c-.414,0-.75,.336-.75,.75s.336,.75,.75,.75H3.854c.128,0,.234,.095,.249,.223l.253,2.277h-1.607c-.202,0-.396,.082-.536,.226-.142,.145-.219,.34-.214,.542l.227,9.523c.022,.942,.808,1.708,1.75,1.708h4.047c.942,0,1.728-.767,1.75-1.708l.227-9.524c.005-.202-.072-.397-.214-.542Zm-1.513,10.03c-.003,.134-.115,.244-.25,.244H3.977c-.135,0-.247-.109-.25-.244l-.209-8.756h1.006l.732,6.583c.042,.383,.367,.667,.744,.667,.027,0,.056-.001,.084-.004,.411-.046,.708-.417,.662-.829l-.713-6.417h2.451l-.209,8.756Z" fill="#000"></path></svg>