<svg xmlns="http://www.w3.org/2000/svg" xmlns:xlink="http://www.w3.org/1999/xlink" x="0px" y="0px" width="12px" height="12px" viewBox="0 0 12 12"><path d="m1.75,12c-.414,0-.75-.336-.75-.75V.75c0-.414.336-.75.75-.75s.75.336.75.75v10.5c0,.414-.336.75-.75.75Z" fill="#000" stroke-width="0" data-color="color-2"></path><path d="m7.75,3.5h-3.5c-.414,0-.75-.336-.75-.75s.336-.75.75-.75h3.5c.414,0,.75.336.75.75s-.336.75-.75.75Z" stroke-width="0" fill="#000"></path><path d="m5.75,10h-1.5c-.414,0-.75-.336-.75-.75s.336-.75.75-.75h1.5c.414,0,.75.336.75.75s-.336.75-.75.75Z" stroke-width="0" fill="#000"></path><path d="m10.25,6.75h-6c-.414,0-.75-.336-.75-.75s.336-.75.75-.75h6c.414,0,.75.336.75.75s-.336.75-.75.75Z" stroke-width="0" fill="#000"></path></svg>