<svg xmlns="http://www.w3.org/2000/svg" xmlns:xlink="http://www.w3.org/1999/xlink" x="0px" y="0px" width="12px" height="12px" viewBox="0 0 12 12"><path d="m11.25,11H.75c-.414,0-.75-.336-.75-.75s.336-.75.75-.75h10.5c.414,0,.75.336.75.75s-.336.75-.75.75Z" fill="#000" stroke-width="0" data-color="color-2"></path><path d="m2.75,8.5c-.414,0-.75-.336-.75-.75v-3.5c0-.414.336-.75.75-.75s.75.336.75.75v3.5c0,.414-.336.75-.75.75Z" stroke-width="0" fill="#000"></path><path d="m9.25,8.5c-.414,0-.75-.336-.75-.75v-1.5c0-.414.336-.75.75-.75s.75.336.75.75v1.5c0,.414-.336.75-.75.75Z" stroke-width="0" fill="#000"></path><path d="m6,8.5c-.414,0-.75-.336-.75-.75V1.75c0-.414.336-.75.75-.75s.75.336.75.75v6c0,.414-.336.75-.75.75Z" stroke-width="0" fill="#000"></path></svg>