<svg xmlns="http://www.w3.org/2000/svg" xmlns:xlink="http://www.w3.org/1999/xlink" x="0px" y="0px" width="12px" height="12px" viewBox="0 0 12 12"><path d="m8.25,8.5h-4c-.414,0-.75-.336-.75-.75s.336-.75.75-.75h4c.414,0,.75.336.75.75s-.336.75-.75.75Z" stroke-width="0" fill="#000"></path><path d="m10.25,2.5h-6c-.414,0-.75-.336-.75-.75s.336-.75.75-.75h6c.414,0,.75.336.75.75s-.336.75-.75.75Z" stroke-width="0" fill="#000"></path><path d="m5.75,5.5h-1.5c-.414,0-.75-.336-.75-.75s.336-.75.75-.75h1.5c.414,0,.75.336.75.75s-.336.75-.75.75Z" stroke-width="0" fill="#000"></path><path d="m10.75,11.5H3.25c-1.517,0-2.75-1.233-2.75-2.75V1.25c0-.414.336-.75.75-.75s.75.336.75.75v7.5c0,.689.561,1.25,1.25,1.25h7.5c.414,0,.75.336.75.75s-.336.75-.75.75Z" fill="#000" stroke-width="0" data-color="color-2"></path></svg>