<svg xmlns="http://www.w3.org/2000/svg" xmlns:xlink="http://www.w3.org/1999/xlink" x="0px" y="0px" width="18px" height="18px" viewBox="0 0 18 18"><path d="M12.25,5.5c-1.241,0-2.25-1.009-2.25-2.25,0-.264,.054-.514,.138-.75H4.25c-1.517,0-2.75,1.233-2.75,2.75V13.75c0,1.517,1.233,2.75,2.75,2.75H12.75c1.517,0,2.75-1.233,2.75-2.75V5.5h-3.25Zm-6.25,7.25c0,.414-.336,.75-.75,.75s-.75-.336-.75-.75v-4.25c0-.414,.336-.75,.75-.75s.75,.336,.75,.75v4.25Zm3.25,0c0,.414-.336,.75-.75,.75s-.75-.336-.75-.75V6.25c0-.414,.336-.75,.75-.75s.75,.336,.75,.75v6.5Zm3.25,0c0,.414-.336,.75-.75,.75s-.75-.336-.75-.75v-2c0-.414,.336-.75,.75-.75s.75,.336,.75,.75v2Z" fill="#000"></path><path d="M17.25,2.5h-5c-.414,0-.75,.336-.75,.75s.336,.75,.75,.75h5c.414,0,.75-.336,.75-.75s-.336-.75-.75-.75Z" fill="#000" data-color="color-2"></path></svg>