<svg xmlns="http://www.w3.org/2000/svg" xmlns:xlink="http://www.w3.org/1999/xlink" x="0px" y="0px" width="18px" height="18px" viewBox="0 0 18 18"><path d="M13.75,15.5c-.414,0-.75-.336-.75-.75s.336-.75,.75-.75c.689,0,1.25-.561,1.25-1.25V4.75c0-.689-.561-1.25-1.25-1.25H4.25c-.689,0-1.25,.561-1.25,1.25V12.75c0,.689,.561,1.25,1.25,1.25,.414,0,.75,.336,.75,.75s-.336,.75-.75,.75c-1.517,0-2.75-1.233-2.75-2.75V4.75c0-1.517,1.233-2.75,2.75-2.75H13.75c1.517,0,2.75,1.233,2.75,2.75V12.75c0,1.517-1.233,2.75-2.75,2.75Z" fill="#000"></path><path d="M17.25,15.5H.75c-.414,0-.75-.336-.75-.75s.336-.75,.75-.75H17.25c.414,0,.75,.336,.75,.75s-.336,.75-.75,.75Z" fill="#000"></path><path d="M9,5.5c-1.792,0-3.25,1.458-3.25,3.25s1.458,3.25,3.25,3.25,3.25-1.458,3.25-3.25-1.458-3.25-3.25-3.25Zm0,3.25v-1.75c.965,0,1.75,.785,1.75,1.75h-1.75Z" fill="#000" data-color="color-2"></path></svg>