<svg xmlns="http://www.w3.org/2000/svg" xmlns:xlink="http://www.w3.org/1999/xlink" x="0px" y="0px" width="24px" height="24px" viewBox="0 0 24 24"> <path d="M12 19V23" stroke="#000" stroke-width="2" stroke-linecap="square" data-color="color-2" fill="none"></path> <path d="M12 15C15.866 15 19 11.866 19 8C19 4.13401 15.866 1 12 1C8.13401 1 5 4.13401 5 8C5 11.866 8.13401 15 12 15Z" stroke="black" stroke-width="2" stroke-miterlimit="10" stroke-linecap="square" fill="none"></path> <path d="M10 8C10 8.55228 9.55228 9 9 9C8.44772 9 8 8.55228 8 8C8 7.44772 8.44772 7 9 7C9.55228 7 10 7.44772 10 8Z" fill="#000" data-color="color-2" data-cap="butt" data-stroke="none"></path> <path d="M12 5C12 5.55228 11.5523 6 11 6C10.4477 6 10 5.55228 10 5C10 4.44772 10.4477 4 11 4C11.5523 4 12 4.44772 12 5Z" fill="#000" data-color="color-2" data-cap="butt" data-stroke="none"></path> <path d="M12 11C12 11.5523 11.5523 12 11 12C10.4477 12 10 11.5523 10 11C10 10.4477 10.4477 10 11 10C11.5523 10 12 10.4477 12 11Z" fill="#000" data-color="color-2" data-cap="butt" data-stroke="none"></path> <path d="M9 19H15" stroke="#000" stroke-width="2" stroke-linecap="square" data-color="color-2" fill="none"></path> </svg>