<svg xmlns="http://www.w3.org/2000/svg" xmlns:xlink="http://www.w3.org/1999/xlink" x="0px" y="0px" width="24px" height="24px" viewBox="0 0 24 24"> <path d="M9.13794 16L10.8926 16" stroke="black" stroke-width="2" data-cap="butt" fill="none"></path> <path d="M9.50013 8L9.03668 17.7299C9.02515 17.972 9.33023 18.0872 9.48162 17.898L11 16H14.7196" stroke="black" stroke-width="2" stroke-miterlimit="10" data-cap="butt" fill="none"></path> <path d="M14 8H14.5L15 22.75" stroke="black" stroke-width="2" stroke-miterlimit="10" stroke-linecap="square" fill="none"></path> <path d="M12 5C13.1046 5 14 4.10457 14 3C14 1.89543 13.1046 1 12 1C10.8954 1 10 1.89543 10 3C10 4.10457 10.8954 5 12 5Z" stroke="#000" stroke-width="2" stroke-miterlimit="10" stroke-linecap="square" data-color="color-2" fill="none"></path> <path d="M3.5 15C3.5 19.0999 6.77683 22.4794 11 22.9452" stroke="#000" stroke-width="2" stroke-miterlimit="10" stroke-linecap="square" data-color="color-2" fill="none"></path> <path d="M20.5 15C20.5 16.7539 19.9003 18.3759 18.8834 19.6945" stroke="#000" stroke-width="2" stroke-miterlimit="10" stroke-linecap="square" data-color="color-2" fill="none"></path> <path d="M4 11L8.24808 8.16795C8.41234 8.05844 8.60535 8 8.80278 8H15.1972C15.3946 8 15.5877 8.05844 15.7519 8.16795L20 11" stroke="black" stroke-width="2" stroke-miterlimit="10" stroke-linecap="square" fill="none"></path> </svg>