<svg xmlns="http://www.w3.org/2000/svg" xmlns:xlink="http://www.w3.org/1999/xlink" x="0px" y="0px" width="24px" height="24px" viewBox="0 0 24 24"> <path d="M8.80959 14.7201L5 9" stroke="black" stroke-width="2" data-cap="butt" fill="none"></path> <path d="M15 8L3 21H2.5" stroke="black" stroke-width="2" data-cap="butt" fill="none"></path> <path d="M3 9H8" stroke="#000" stroke-width="2" stroke-linecap="square" data-color="color-2" fill="none"></path> <path d="M20 2L19 4H14.618C13.8747 4 13.3912 4.78231 13.7236 5.44722L18 14L17.75 13.5" stroke="black" stroke-width="2" stroke-linecap="square" fill="none"></path> <path d="M1 21H6" stroke="black" stroke-width="2" stroke-linecap="square" fill="none"></path> <path d="M19 22C21.2091 22 23 20.2091 23 18C23 15.7909 21.2091 14 19 14C16.7909 14 15 15.7909 15 18C15 20.2091 16.7909 22 19 22Z" stroke="#000" stroke-width="2" stroke-miterlimit="10" stroke-linecap="square" data-color="color-2" fill="none"></path> </svg>