<svg xmlns="http://www.w3.org/2000/svg" xmlns:xlink="http://www.w3.org/1999/xlink" x="0px" y="0px" width="24px" height="24px" viewBox="0 0 24 24"> <path d="M17.1179 17H17.5179L19.1179 21H19.0503" stroke="#000" stroke-width="2" stroke-linecap="square" data-color="color-2" fill="none"></path> <path d="M7 17H6.6L5 21H5.0676" stroke="#000" stroke-width="2" stroke-linecap="square" data-color="color-2" fill="none"></path> <path d="M6.5 8.5L13 7L12.5 7.11538" stroke="#000" stroke-width="2" stroke-linecap="square" data-color="color-2" fill="none"></path> <path d="M18 17V13" stroke="black" stroke-width="2" data-cap="butt" fill="none"></path> <path d="M18 13C20.7614 13 23 10.7614 23 8C23 5.23858 20.7614 3 18 3C15.2386 3 13 5.23858 13 8C13 10.7614 15.2386 13 18 13Z" stroke="black" stroke-width="2" stroke-miterlimit="10" stroke-linecap="square" fill="none"></path> <path d="M18 9.5C18.8284 9.5 19.5 8.82843 19.5 8C19.5 7.17157 18.8284 6.5 18 6.5C17.1716 6.5 16.5 7.17157 16.5 8C16.5 8.82843 17.1716 9.5 18 9.5Z" fill="#000" data-color="color-2" data-cap="butt" data-stroke="none"></path> <path d="M18 17H9.09524M9.09524 17H2V13.5729C2 12.993 2.49177 12.5347 3.0703 12.5754L8.16553 12.9345C8.68924 12.9714 9.09524 13.407 9.09524 13.932V17Z" stroke="black" stroke-width="2" stroke-linecap="square" fill="none"></path> </svg>