<svg xmlns="http://www.w3.org/2000/svg" xmlns:xlink="http://www.w3.org/1999/xlink" x="0px" y="0px" width="24px" height="24px" viewBox="0 0 24 24"> <path d="M17 4V1" stroke="black" stroke-width="2" stroke-linecap="square" fill="none"></path> <path d="M7 4V1" stroke="black" stroke-width="2" stroke-linecap="square" fill="none"></path> <path d="M22 8L2 8" stroke="black" stroke-width="2" stroke-linecap="square" fill="none"></path> <path d="M9 20H4C2.89543 20 2 19.1046 2 18V6C2 4.89543 2.89543 4 4 4H20C21.1046 4 22 4.89543 22 6V11" stroke="black" stroke-width="2" stroke-miterlimit="10" stroke-linecap="square" fill="none"></path> <path d="M7.25 15.5C7.94036 15.5 8.5 14.9404 8.5 14.25C8.5 13.5596 7.94036 13 7.25 13C6.55964 13 6 13.5596 6 14.25C6 14.9404 6.55964 15.5 7.25 15.5Z" fill="black" data-cap="butt" data-stroke="none"></path> <path d="M13 18H23" stroke="#000" stroke-width="2" stroke-linecap="square" data-color="color-2" fill="none"></path> <path d="M13 15C13 14.4477 13.4477 14 14 14H15V22H14C13.4477 22 13 21.5523 13 21V15Z" fill="#000" data-color="color-2" data-cap="butt" data-stroke="none"></path> <path d="M21 14H22C22.5523 14 23 14.4477 23 15V21C23 21.5523 22.5523 22 22 22H21V14Z" fill="#000" data-color="color-2" data-cap="butt" data-stroke="none"></path> </svg>