<svg xmlns="http://www.w3.org/2000/svg" xmlns:xlink="http://www.w3.org/1999/xlink" x="0px" y="0px" width="24px" height="24px" viewBox="0 0 24 24"><circle cx="5" cy="17" r="4" fill="none" stroke="#444444" stroke-linecap="square" stroke-miterlimit="10" stroke-width="2" data-color="color-2"></circle> <circle cx="19" cy="17" r="4" fill="none" stroke="#444444" stroke-linecap="square" stroke-miterlimit="10" stroke-width="2" data-color="color-2"></circle> <path d="M18.785,2.056A2,2,0,1,1,17.692,5.9C16.63,5.6,14,2.776,14,2.776S17.722,1.754,18.785,2.056Z" fill="none" stroke="#444" stroke-linecap="square" stroke-miterlimit="10" stroke-width="2"></path> <path d="M12,18V13.5a1,1,0,0,0-.4-.8L9.294,10.971a1,1,0,0,1,.153-1.7l3.908-1.954a1,1,0,0,1,1.155.188l2.2,2.2a1,1,0,0,0,.707.293H20" fill="none" stroke="#444" stroke-linecap="square" stroke-miterlimit="10" stroke-width="2"></path></svg>