<svg xmlns="http://www.w3.org/2000/svg" xmlns:xlink="http://www.w3.org/1999/xlink" x="0px" y="0px" width="32px" height="32px" viewBox="0 0 32 32"> <path d="M18.5 16.5L22.5 15L22.3038 15.0841" stroke="#000" stroke-width="2" stroke-linecap="square" data-color="color-2" fill="none"></path> <path d="M19.7759 6.19048L22.9828 17.1429L25.8449 17.9249C28.8888 18.7565 31 21.5219 31 24.6774V25C31 26.1046 30.1046 27 29 27H19.3483C18.4736 27 17.623 26.7133 16.9268 26.1838L3.38317 15.8827C1.54886 14.4876 1.26984 11.835 2.77371 10.0887L7.43724 4.67349C7.76802 4.28939 8.33387 4.21354 8.75413 4.49697L9.5 5L9.70301 8.65413C9.85127 11.3229 12.525 13.0982 15.0422 12.1992L17 11.5" stroke="black" stroke-width="2" stroke-linecap="square" fill="none"></path> <path d="M11 27H5" stroke="#000" stroke-width="2" stroke-linecap="square" data-color="color-2" fill="none"></path> <path d="M4.99999 23L0.999988 23" stroke="#000" stroke-width="2" stroke-linecap="square" data-color="color-2" fill="none"></path> </svg>