<svg xmlns="http://www.w3.org/2000/svg" xmlns:xlink="http://www.w3.org/1999/xlink" x="0px" y="0px" width="32px" height="32px" viewBox="0 0 32 32"> <path d="M19 23.5V28" stroke="#000" stroke-width="2" data-color="color-2" data-cap="butt" fill="none"></path> <path d="M7 24V28" stroke="#000" stroke-width="2" data-color="color-2" data-cap="butt" fill="none"></path> <path d="M3 28L28.9947 28C29.7575 28 30.2394 27.1803 29.8686 26.5138L28.2784 23.6558L28.4699 24" stroke="#000" stroke-width="2" stroke-linecap="square" data-color="color-2" fill="none"></path> <path d="M4.12013 4L16.2086 4L16.3346 5.93666C16.4998 8.47559 17.4006 10.9115 18.9271 12.947C20.0875 14.4944 21.7626 15.5763 23.6504 15.9974L25.3599 16.3787C28.0716 16.9836 30 19.3896 30 22.1679V23.6207L23.4669 24.0626C19.3193 24.3431 15.2254 22.9984 12.052 20.3132L10.5 19H10V24H4V21L3.22636 16.9163C2.98257 15.6295 2.93465 14.3132 3.08422 13.012L4.12013 4Z" stroke="black" stroke-width="2" data-cap="butt" fill="none"></path> <path d="M14 10L17 9L16.8589 9.04703" stroke="black" stroke-width="2" stroke-linecap="square" fill="none"></path> <path d="M16.1638 14.0154L18.7556 12.5982L18.6356 12.6639" stroke="black" stroke-width="2" stroke-linecap="square" fill="none"></path> <path d="M19.3651 17.28L21.4998 15L21.4221 15.0829" stroke="black" stroke-width="2" stroke-linecap="square" fill="none"></path> </svg>