<svg xmlns="http://www.w3.org/2000/svg" xmlns:xlink="http://www.w3.org/1999/xlink" x="0px" y="0px" width="32px" height="32px" viewBox="0 0 32 32"><path d="M10 9V2" stroke="#000" stroke-width="2" stroke-linecap="square" data-color="color-2" fill="none"></path> <path d="M22 9V2" stroke="#000" stroke-width="2" stroke-linecap="square" data-color="color-2" fill="none"></path> <path d="M10 29C14.4183 29 18 25.4183 18 21C18 16.5817 14.4183 13 10 13C5.58172 13 2 16.5817 2 21C2 25.4183 5.58172 29 10 29Z" stroke="black" stroke-width="2" stroke-miterlimit="10" stroke-linecap="square" fill="none"></path> <path d="M19.3293 13.4566C20.1646 13.1609 21.0635 13 22 13C26.4183 13 30 16.5817 30 21C30 25.4183 26.4183 29 22 29C21.0712 29 20.1793 28.8417 19.35 28.5506" stroke="black" stroke-width="2" stroke-miterlimit="10" stroke-linecap="square" fill="none"></path> </svg>