<svg xmlns="http://www.w3.org/2000/svg" xmlns:xlink="http://www.w3.org/1999/xlink" x="0px" y="0px" width="32px" height="32px" viewBox="0 0 32 32"> <path d="M25.95 10.6145L25.957 10.5625C25.6118 13.0954 24.3678 23.7355 27 29H26.9336" stroke="black" stroke-width="2" stroke-linecap="square" fill="none"></path> <path d="M6.05571 10.6176L6.05167 10.5879C6.39646 13.1168 7.63298 23.734 5 29H5.06639" stroke="black" stroke-width="2" stroke-linecap="square" fill="none"></path> <path d="M16 5.6V6C16 8.76142 13.7614 11 11 11H8.29669C5.27075 11 2.71835 8.74678 2.34303 5.74421L2 3H2.05043" stroke="black" stroke-width="2" stroke-linecap="square" fill="none"></path> <path d="M16 5V6C16 8.76142 18.2386 11 21 11H23.7033C26.7292 11 29.2817 8.74678 29.657 5.74421L30 3H29.9436" stroke="black" stroke-width="2" stroke-linecap="square" stroke-linejoin="round" fill="none"></path> <path d="M21 20H20C17.7909 20 16 18.2091 16 16V16" stroke="#000" stroke-width="2" stroke-linecap="square" stroke-linejoin="round" data-color="color-2" fill="none"></path> <path d="M21 25H20C17.7909 25 16 23.2091 16 21V20" stroke="#000" stroke-width="2" stroke-linecap="square" stroke-linejoin="round" data-color="color-2" fill="none"></path> <path d="M11 20H12C14.2091 20 16 18.2091 16 16V16" stroke="#000" stroke-width="2" stroke-linecap="square" stroke-linejoin="round" data-color="color-2" fill="none"></path> <path d="M11 25H12C14.2091 25 16 23.2092 16 21V16.9502" stroke="#000" stroke-width="2" stroke-linecap="square" stroke-linejoin="round" data-color="color-2" fill="none"></path> </svg>