<svg xmlns="http://www.w3.org/2000/svg" xmlns:xlink="http://www.w3.org/1999/xlink" x="0px" y="0px" width="32px" height="32px" viewBox="0 0 32 32"> <path d="M22.5 18.5C20.5209 22.9531 13.6455 27.4061 6.23447 26.0193" stroke="#000" stroke-width="2" stroke-miterlimit="10" data-color="color-2" data-cap="butt" fill="none"></path> <path d="M10.5 19.5C6.98038 15.347 7.14267 7.73716 8.40993 4.23715" stroke="#000" stroke-width="2" stroke-miterlimit="10" data-color="color-2" data-cap="butt" fill="none"></path> <path d="M14.5 9C19.6044 7.84586 26 10 30 17" stroke="#000" stroke-width="2" stroke-miterlimit="10" data-color="color-2" data-cap="butt" fill="none"></path> <path d="M2.5 19.5C7.3684 21.3252 12.788 19.649 16.5 16M16.5 16C13.9642 11.7099 14.0452 6.32882 16.5 2M16.5 16C21.2879 16.364 25.4816 19.7669 27.3627 24.1668" stroke="black" stroke-width="2" stroke-miterlimit="10" data-cap="butt" fill="none"></path> <path d="M16 30C23.732 30 30 23.732 30 16C30 8.26801 23.732 2 16 2C8.26801 2 2 8.26801 2 16C2 23.732 8.26801 30 16 30Z" stroke="black" stroke-width="2" stroke-miterlimit="10" stroke-linecap="square" fill="none"></path> </svg>