<svg xmlns="http://www.w3.org/2000/svg" xmlns:xlink="http://www.w3.org/1999/xlink" x="0px" y="0px" width="32px" height="32px" viewBox="0 0 32 32"> <path d="M4 9.99995H8.5L11 16.5L10.8724 16.1682" stroke="black" stroke-width="2" stroke-linecap="square" fill="none"></path> <path d="M20 7H24L26 4H26.3113C28.5006 4 29.9526 6.26931 29.0352 8.25717L25.4615 16" stroke="#000" stroke-width="2" stroke-linecap="square" data-color="color-2" fill="none"></path> <path d="M8 24C9.10457 24 10 23.1046 10 22C10 20.8954 9.10457 20 8 20C6.89543 20 6 20.8954 6 22C6 23.1046 6.89543 24 8 24Z" stroke="#000" stroke-width="2" stroke-linecap="square" data-color="color-2" fill="none"></path> <path d="M8.09854 28H26.2374C28.3154 28 30 26.3154 30 24.2374C30 22.5265 28.8457 21.031 27.1907 20.5976L9.64366 16.0019C5.77834 14.9896 2 17.9058 2 21.9015C2 25.2696 4.73041 28 8.09854 28Z" stroke="black" stroke-width="2" stroke-linecap="square" fill="none"></path> </svg>