<svg xmlns="http://www.w3.org/2000/svg" xmlns:xlink="http://www.w3.org/1999/xlink" x="0px" y="0px" width="32px" height="32px" viewBox="0 0 32 32"> <path d="M6.12225 19.8696L15.3766 11H16.6233L25.9054 19.9054" stroke="black" stroke-width="2" data-cap="butt" fill="none"></path> <path d="M6.19379 19.7803L15.3767 29H16.6235L25.8965 19.7535" stroke="black" stroke-width="2" data-cap="butt" fill="none"></path> <path d="M4 3H28C29.1046 3 30 3.89543 30 5C30 6.10457 29.1046 7 28 7H4C2.89543 7 2 6.10457 2 5C2 3.89543 2.89543 3 4 3Z" stroke="#000" stroke-width="2" stroke-linecap="square" data-color="color-2" fill="none"></path> <path d="M27 11L24.75 29H24.1944L5.55556 11H5L7.25 29H7.80556L26.4444 11H27Z" stroke="black" stroke-width="2" stroke-linecap="square" fill="none"></path> </svg>