<svg xmlns="http://www.w3.org/2000/svg" xmlns:xlink="http://www.w3.org/1999/xlink" x="0px" y="0px" width="32px" height="32px" viewBox="0 0 32 32"> <path d="M8 20H23" stroke="black" stroke-width="2" stroke-linecap="square" fill="none"></path> <path d="M8 14H23" stroke="black" stroke-width="2" stroke-linecap="square" fill="none"></path> <path d="M8 8H23" stroke="black" stroke-width="2" stroke-linecap="square" fill="none"></path> <path d="M29.9646 26C29.722 27.6961 28.2633 29 26.5 29C24.567 29 23 27.433 23 25.5C23 27.433 21.433 29 19.5 29C17.567 29 16 27.433 16 25.5C16 27.433 14.433 29 12.5 29C10.567 29 9.00002 27.433 9.00002 25.5C9.00002 27.433 7.43301 29 5.50002 29C3.73678 29 2.27808 27.6961 2.03546 26" stroke="#000" stroke-width="2" stroke-linecap="square" data-color="color-2" fill="none"></path> <path d="M8 22V4C8 2.89543 8.89543 2 10 2V2C11.1046 2 12 2.89543 12 4V4" stroke="black" stroke-width="2" stroke-linecap="square" fill="none"></path> <path d="M23 22V4C23 2.89543 23.8954 2 25 2V2C26.1046 2 27 2.89543 27 4V4" stroke="black" stroke-width="2" stroke-linecap="square" fill="none"></path> </svg>