<svg xmlns="http://www.w3.org/2000/svg" xmlns:xlink="http://www.w3.org/1999/xlink" x="0px" y="0px" width="32px" height="32px" viewBox="0 0 32 32"> <path d="M29.5622 13.4378C27.1524 13.9517 24.8777 15.5515 23.4641 18C22.0505 20.4485 21.8024 23.2183 22.5622 25.5622" stroke="#000" stroke-width="2" stroke-miterlimit="10" data-color="color-2" data-cap="butt" fill="none"></path> <path d="M17.4378 6.43782C18.1976 8.78171 17.9495 11.5515 16.5359 14C15.1222 16.4485 12.8476 18.0483 10.4378 18.5622" stroke="#000" stroke-width="2" stroke-miterlimit="10" data-color="color-2" data-cap="butt" fill="none"></path> <path d="M15 24.6603C19.7829 27.4217 25.8988 25.7829 28.6602 21C31.4217 16.2171 29.7829 10.1012 25 7.33975C20.217 4.57833 14.1011 6.21708 11.3397 11C8.5783 15.7829 10.217 21.8988 15 24.6603Z" stroke="black" stroke-width="2" stroke-miterlimit="10" stroke-linecap="square" fill="none"></path> <path d="M6 16H1" stroke="#000" stroke-width="2" stroke-linecap="square" data-color="color-2" fill="none"></path> <path d="M7 11H3" stroke="#000" stroke-width="2" stroke-linecap="square" data-color="color-2" fill="none"></path> <path d="M7 21H5" stroke="#000" stroke-width="2" stroke-linecap="square" data-color="color-2" fill="none"></path> </svg>