<svg xmlns="http://www.w3.org/2000/svg" xmlns:xlink="http://www.w3.org/1999/xlink" x="0px" y="0px" width="32px" height="32px" viewBox="0 0 32 32"> <path d="M15.5 8C16.8807 8 18 6.88071 18 5.5C18 4.11929 16.8807 3 15.5 3C14.1193 3 13 4.11929 13 5.5C13 6.88071 14.1193 8 15.5 8Z" stroke="#000" stroke-width="2" stroke-miterlimit="10" stroke-linecap="square" data-color="color-2" fill="none"></path> <path d="M15.5 15L14 18.5L17.2074 20.1037C18.7314 20.8656 19.3156 22.7423 18.4934 24.2346L15.8681 28.9999L13.1041 28.9899L14.5001 22.9999L10.2104 22.1483C8.27458 21.764 7.23085 19.6473 8.10454 17.8776L10.6746 12.6719C11.18 11.6481 12.2228 11 13.3646 11H24" stroke="black" stroke-width="2" stroke-linecap="square" fill="none"></path> <path d="M27 9V8C27 7.44772 26.5523 7 26 7H22C21.4477 7 21 7.44772 21 8V9H27Z" fill="#000" data-color="color-2" data-cap="butt" data-stroke="none"></path> <path d="M27 13V14C27 14.5523 26.5523 15 26 15H22C21.4477 15 21 14.5523 21 14V13H27Z" fill="#000" data-color="color-2" data-cap="butt" data-stroke="none"></path> </svg>