<svg xmlns="http://www.w3.org/2000/svg" xmlns:xlink="http://www.w3.org/1999/xlink" x="0px" y="0px" width="48px" height="48px" viewBox="0 0 48 48"> <path d="M17.6847 44.6205L17.4962 44.0774C15.2883 37.7134 10.2866 32.7117 3.92261 30.5037L3.37946 30.3153" stroke="black" stroke-width="2" data-cap="butt" fill="none"></path> <path d="M44.6206 17.6847L44.0774 17.4962C37.7135 15.2883 32.7117 10.2866 30.5038 3.9226L30.257 3.2113" stroke="black" stroke-width="2" data-cap="butt" fill="none"></path> <path d="M16 32L32 16" stroke="#000" stroke-width="2" stroke-linecap="square" data-color="color-2" fill="none"></path> <path d="M26 17.5L30.5 22" stroke="#000" stroke-width="2" stroke-linecap="square" data-color="color-2" fill="none"></path> <path d="M17.5 26L22 30.5" stroke="#000" stroke-width="2" stroke-linecap="square" data-color="color-2" fill="none"></path> <path d="M21 21L27 27" stroke="#000" stroke-width="2" stroke-linecap="square" data-color="color-2" fill="none"></path> <path d="M5.10664 42.9347C1.27018 39.0983 2.10706 22.6377 12.3806 12.3542C22.5702 2.16221 39.1384 1.26349 42.9478 5.07443C46.7573 8.88536 45.7674 25.5499 35.6694 35.6519C25.4813 45.8454 8.89511 46.7261 5.10664 42.9347Z" stroke="black" stroke-width="2" stroke-miterlimit="10" stroke-linecap="square" fill="none"></path> </svg>