<svg xmlns="http://www.w3.org/2000/svg" xmlns:xlink="http://www.w3.org/1999/xlink" x="0px" y="0px" width="48px" height="48px" viewBox="0 0 48 48"> <path d="M24 2.97778V9.99997" stroke="black" stroke-width="2" data-cap="butt" fill="none"></path> <path d="M32 3V10" stroke="black" stroke-width="2" data-cap="butt" fill="none"></path> <path d="M16 3V10" stroke="black" stroke-width="2" data-cap="butt" fill="none"></path> <path d="M34.5177 10L40.3235 19.9945C40.7666 20.7573 41 21.6238 41 22.506V40C41 42.7614 38.7614 45 36 45H12C9.23858 45 7 42.7614 7 40L7 22.506C7 21.6238 7.23341 20.7573 7.67654 19.9945L13.4823 10" stroke="black" stroke-width="2" data-cap="butt" fill="none"></path> <path d="M9 10L39 10L39 3L9 3L9 10Z" stroke="black" stroke-width="2" stroke-miterlimit="10" stroke-linecap="square" fill="none"></path> <path d="M15 30L22.875 16H25.125L24 25H33L25.125 39H22.875L24 30H15Z" stroke="#000" stroke-width="2" stroke-linecap="square" data-color="color-2" fill="none"></path> </svg>