<svg xmlns="http://www.w3.org/2000/svg" xmlns:xlink="http://www.w3.org/1999/xlink" x="0px" y="0px" width="48px" height="48px" viewBox="0 0 48 48"><path d="M24 19C28.1421 19 31.5 15.6421 31.5 11.5C31.5 7.35786 28.1421 4 24 4C19.8579 4 16.5 7.35786 16.5 11.5C16.5 15.6421 19.8579 19 24 19Z" stroke="black" stroke-width="2" stroke-miterlimit="10" stroke-linecap="square" fill="none"></path> <path d="M37 44L43 38L27 38" stroke="#000" stroke-width="2" stroke-miterlimit="10" stroke-linecap="square" data-color="color-2" fill="none"></path> <path d="M31 26L25 32L41 32" stroke="#000" stroke-width="2" stroke-miterlimit="10" stroke-linecap="square" data-color="color-2" fill="none"></path> <path d="M26 24.1031C25.3433 24.035 24.676 24 24 24C14.0595 24 6 31.5622 6 40.8894C11.9996 42.2965 17.9998 43 24 43C25.6667 43 27.3333 42.9457 29 42.8372" stroke="black" stroke-width="2" stroke-miterlimit="10" stroke-linecap="square" fill="none"></path></svg>