<svg xmlns="http://www.w3.org/2000/svg" xmlns:xlink="http://www.w3.org/1999/xlink" x="0px" y="0px" width="48px" height="48px" viewBox="0 0 48 48"> <path d="M35 38V43" stroke="#000" stroke-width="2" stroke-linecap="square" data-color="color-2" fill="none"></path> <path d="M5 43H43" stroke="black" stroke-width="2" stroke-linecap="square" fill="none"></path> <path d="M4.57124 3H4.5L12.8922 29.4046C13.5519 31.4803 15.4793 32.8901 17.6573 32.8901H24" stroke="black" stroke-width="2" stroke-linecap="square" fill="none"></path> <path d="M19 28H24" stroke="black" stroke-width="2" stroke-linecap="square" fill="none"></path> <path d="M21 23H27" stroke="black" stroke-width="2" stroke-linecap="square" fill="none"></path> <path d="M35 38C38.3137 38 41 35.3137 41 32C41 28.6863 38.3137 26 35 26C31.6863 26 29 28.6863 29 32C29 35.3137 31.6863 38 35 38Z" stroke="#000" stroke-width="2" stroke-miterlimit="10" stroke-linecap="square" data-color="color-2" fill="none"></path> <path d="M10.8505 3H10.7955L15.9645 19.5037L36.4927 12.9475C40.1044 11.794 43.6356 14.9228 42.9254 18.647L42 23.5" stroke="black" stroke-width="2" stroke-linecap="square" fill="none"></path> </svg>