<svg xmlns="http://www.w3.org/2000/svg" xmlns:xlink="http://www.w3.org/1999/xlink" x="0px" y="0px" width="48px" height="48px" viewBox="0 0 48 48"> <path d="M5.5 18H18.3962C22.5957 18 26 21.4043 26 25.6038V25.6038C26 28.5856 24.2572 31.2922 21.5427 32.5261L4 40.5" stroke="#000" stroke-width="2" data-color="color-2" data-cap="butt" fill="none"></path> <path d="M24.1669 5.16601C2.80817 7.65487 1.23533 27.4655 4.06857 40.0346C4.72341 42.9397 7.69786 44.5197 10.6044 43.8718L42.3292 36.7997C48.5691 26.1908 44.4092 2.80724 24.1669 5.16601Z" stroke="black" stroke-width="2" data-cap="butt" fill="none"></path> <path d="M18.5 28C19.8807 28 21 26.8807 21 25.5C21 24.1193 19.8807 23 18.5 23C17.1193 23 16 24.1193 16 25.5C16 26.8807 17.1193 28 18.5 28Z" stroke="black" stroke-width="2" stroke-miterlimit="10" stroke-linecap="square" fill="none"></path> </svg>