<svg xmlns="http://www.w3.org/2000/svg" xmlns:xlink="http://www.w3.org/1999/xlink" x="0px" y="0px" width="48px" height="48px" viewBox="0 0 48 48"> <path d="M24 5V13.0001" stroke="black" stroke-width="2" stroke-linecap="square" fill="none"></path> <path d="M10 43V20" stroke="black" stroke-width="2" stroke-linecap="square" fill="none"></path> <path d="M38 43V20" stroke="black" stroke-width="2" stroke-linecap="square" fill="none"></path> <path d="M24 43V38" stroke="#000" stroke-width="2" data-color="color-2" data-cap="butt" fill="none"></path> <path d="M30 23V28H18V23H30Z" stroke="black" stroke-width="2" stroke-linecap="square" fill="none"></path> <path d="M32 35.5V38H16V35.5C16 34.1193 17.1193 33 18.5 33H29.5C30.8807 33 32 34.1193 32 35.5Z" stroke="#000" stroke-width="2" stroke-linecap="square" data-color="color-2" fill="none"></path> <path d="M5 43H43" stroke="black" stroke-width="2" stroke-linecap="square" fill="none"></path> <path d="M30 18V23H18V18H30Z" stroke="black" stroke-width="2" stroke-linecap="square" fill="none"></path> <path d="M38 8V5H10V8" stroke="black" stroke-width="2" stroke-linecap="square" fill="none"></path> <path d="M43.5 19L41.101 14.5712C40.5767 13.6031 39.5641 13 38.4632 13H9.53684C8.43587 13 7.42335 13.6031 6.89897 14.5711L4.5 19" stroke="#000" stroke-width="2" stroke-linecap="square" data-color="color-2" fill="none"></path> </svg>