<svg xmlns="http://www.w3.org/2000/svg" xmlns:xlink="http://www.w3.org/1999/xlink" x="0px" y="0px" width="48px" height="48px" viewBox="0 0 48 48"> <path d="M15 30V26.7656C15 25.7569 14.2489 24.9061 13.2481 24.781L5.24807 23.781C4.05436 23.6318 3 24.5626 3 25.7656V30" stroke="black" stroke-width="2" stroke-linecap="square" fill="none"></path> <path d="M15 16L29 13L28.5 13.1071" stroke="#000" stroke-width="2" stroke-linecap="square" data-color="color-2" fill="none"></path> <path d="M6.75 36H6V43H9L12 36H11.5" stroke="#000" stroke-width="2" stroke-linecap="square" data-color="color-2" fill="none"></path> <path d="M37.25 36H38V43H35L32 36H32.5" stroke="#000" stroke-width="2" stroke-linecap="square" data-color="color-2" fill="none"></path> <path d="M37.5 22C42.1944 22 46 18.1944 46 13.5C46 8.80558 42.1944 5 37.5 5C32.8056 5 29 8.80558 29 13.5C29 18.1944 32.8056 22 37.5 22Z" stroke="black" stroke-width="2" stroke-miterlimit="10" stroke-linecap="square" fill="none"></path> <path d="M37.5 17C39.433 17 41 15.433 41 13.5C41 11.567 39.433 10 37.5 10C35.567 10 34 11.567 34 13.5C34 15.433 35.567 17 37.5 17Z" stroke="#000" stroke-width="2" stroke-miterlimit="10" stroke-linecap="square" data-color="color-2" fill="none"></path> <path d="M41 30V33.5C41 34.8807 39.8807 36 38.5 36H5.5C4.11929 36 3 34.8807 3 33.5V30H41Z" stroke="black" stroke-width="2" stroke-linecap="square" fill="none"></path> <path d="M41 30V21.5" stroke="black" stroke-width="2" data-cap="butt" fill="none"></path> <path d="M34.5 21.5L33 30H32" stroke="black" stroke-width="2" data-cap="butt" fill="none"></path> </svg>