<svg xmlns="http://www.w3.org/2000/svg" xmlns:xlink="http://www.w3.org/1999/xlink" x="0px" y="0px" width="48px" height="48px" viewBox="0 0 48 48"><path d="M6.51401 43H6.99998L13.8299 27.8225" stroke="#000" stroke-width="2" stroke-linecap="square" data-color="color-2" fill="none"></path> <path d="M41.1361 43H40.5L35 31H34" stroke="#000" stroke-width="2" stroke-linecap="square" data-color="color-2" fill="none"></path> <path d="M26.0711 30.9999H41C42.1046 30.9999 43 30.1045 43 28.9999C43 26.7908 41.2091 24.9999 39 24.9999H27.8284C27.298 24.9999 26.7893 24.7892 26.4142 24.4142L10.5 8.49999C8.84314 6.84314 6.15686 6.84314 4.5 8.5C3.67157 9.32843 3.67158 10.6716 4.50001 11.5L22.5355 29.5355C23.4732 30.4732 24.745 30.9999 26.0711 30.9999Z" stroke="black" stroke-width="2" stroke-linecap="square" fill="none"></path> <path d="M36 43H45" stroke="black" stroke-width="2" stroke-linecap="square" fill="none"></path> <path d="M36 43H45" stroke="black" stroke-width="2" stroke-linecap="square" fill="none"></path> <path d="M3 43H12" stroke="black" stroke-width="2" stroke-linecap="square" fill="none"></path> </svg>