<svg xmlns="http://www.w3.org/2000/svg" xmlns:xlink="http://www.w3.org/1999/xlink" x="0px" y="0px" width="12px" height="12px" viewBox="0 0 12 12"><path d="m1.189,5.311l.561-.561h8.5l.561.561c.281.281.439.663.439,1.061v2.879H.75v-2.879c0-.398.158-.779.439-1.061Z" fill="none" stroke="#000" stroke-linecap="round" stroke-linejoin="round" stroke-width="1.5"></path><path d="m1.75,4.75l.581-2.71c.099-.461.506-.79.978-.79h5.383c.472,0,.879.329.978.79l.581,2.71" fill="none" stroke="#000" stroke-linecap="round" stroke-linejoin="round" stroke-width="1.5"></path><circle cx="3.25" cy="7" r=".75" fill="#000" stroke-width="0" data-color="color-2"></circle><circle cx="8.75" cy="7" r=".75" fill="#000" stroke-width="0" data-color="color-2"></circle><path d="m.75,9.25h1.5v1c0,.276-.224.5-.5.5h-.5c-.276,0-.5-.224-.5-.5v-1h0Z" fill="none" stroke="#000" stroke-linecap="round" stroke-linejoin="round" stroke-width="1.5"></path><path d="m9.75,9.25h1.5v1c0,.276-.224.5-.5.5h-.5c-.276,0-.5-.224-.5-.5v-1h0Z" fill="none" stroke="#000" stroke-linecap="round" stroke-linejoin="round" stroke-width="1.5"></path></svg>