<svg xmlns="http://www.w3.org/2000/svg" xmlns:xlink="http://www.w3.org/1999/xlink" x="0px" y="0px" width="18px" height="18px" viewBox="0 0 18 18"><path d="M15.75 14.75L13.25 17.25L10.75 14.75" stroke="#000" stroke-width="1.5" stroke-linecap="round" stroke-linejoin="round" data-color="color-2" fill="none"></path> <path d="M16.25 11.804V4.9971C16.25 4.357 15.658 3.8821 15.033 4.021L12.035 4.687C11.849 4.728 11.655 4.71609 11.476 4.65089L6.524 2.8501C6.345 2.7849 6.151 2.77199 5.965 2.81399L2.533 3.5769C2.075 3.679 1.75 4.08499 1.75 4.55299V13.003C1.75 13.6431 2.342 14.118 2.967 13.9791L5.965 13.3131C6.151 13.2721 6.345 13.284 6.524 13.3492L7.9019 13.8499" stroke="black" stroke-width="1.5" stroke-linecap="round" stroke-linejoin="round" fill="none"></path> <path d="M13.25 17.25V12.25" stroke="#000" stroke-width="1.5" stroke-linecap="round" stroke-linejoin="round" data-color="color-2" fill="none"></path></svg>