<svg xmlns="http://www.w3.org/2000/svg" xmlns:xlink="http://www.w3.org/1999/xlink" x="0px" y="0px" width="18px" height="18px" viewBox="0 0 18 18"><path d="M8.25 9.75C9.3546 9.75 10.25 8.854 10.25 7.75C10.25 6.646 9.3546 5.75 8.25 5.75C7.1454 5.75 6.25 6.646 6.25 7.75C6.25 8.854 7.1454 9.75 8.25 9.75Z" stroke="black" stroke-width="1.5" stroke-linecap="round" stroke-linejoin="round" fill="none"></path> <path d="M12 16.75H11.5C10.5335 16.75 9.75 15.9665 9.75 15V14C9.75 13.0335 10.5335 12.25 11.5 12.25H12" stroke="#000" stroke-width="1.5" stroke-linecap="round" stroke-linejoin="round" data-color="color-2" fill="none"></path> <path d="M14.0476 9.4194C14.1764 8.8818 14.25 8.3244 14.25 7.75C14.25 4.438 11.5637 1.75 8.25 1.75C4.9363 1.75 2.25 4.438 2.25 7.75C2.25 11.2163 4.86769 14.083 6.79529 15.4482" stroke="black" stroke-width="1.5" stroke-linecap="round" stroke-linejoin="round" fill="none"></path> <path d="M15 16.75H15.5C16.4665 16.75 17.25 15.9665 17.25 15V14C17.25 13.0335 16.4665 12.25 15.5 12.25H15" stroke="#000" stroke-width="1.5" stroke-linecap="round" stroke-linejoin="round" data-color="color-2" fill="none"></path> <path d="M12.25 14.5H14.75" stroke="#000" stroke-width="1.5" stroke-linecap="round" stroke-linejoin="round" data-color="color-2" fill="none"></path></svg>