<svg xmlns="http://www.w3.org/2000/svg" xmlns:xlink="http://www.w3.org/1999/xlink" x="0px" y="0px" width="18px" height="18px" viewBox="0 0 18 18"><path d="M8.25 9.75C9.3546 9.75 10.25 8.854 10.25 7.75C10.25 6.646 9.3546 5.75 8.25 5.75C7.1454 5.75 6.25 6.646 6.25 7.75C6.25 8.854 7.1454 9.75 8.25 9.75Z" stroke="black" stroke-width="1.5" stroke-linecap="round" stroke-linejoin="round" fill="none"></path> <path d="M14.25 7.75C14.25 4.438 11.5637 1.75 8.25 1.75C4.9363 1.75 2.25 4.438 2.25 7.75C2.25 11.4915 5.2991 14.5349 7.2384 15.7444" stroke="black" stroke-width="1.5" stroke-linecap="round" stroke-linejoin="round" fill="none"></path> <path d="M12.7959 16.2042L15.9571 13.043C16.3476 12.6525 16.3476 12.0193 15.9571 11.6288L15.3713 11.043C14.9808 10.6525 14.3476 10.6525 13.9571 11.043L10.7959 14.2042L10.0001 17.0001L12.7959 16.2042Z" stroke="#000" stroke-width="1.5" stroke-linecap="round" stroke-linejoin="round" data-color="color-2" fill="none"></path></svg>