<svg xmlns="http://www.w3.org/2000/svg" xmlns:xlink="http://www.w3.org/1999/xlink" x="0px" y="0px" width="18px" height="18px" viewBox="0 0 18 18"><path d="M8.25 9.75C9.3546 9.75 10.25 8.854 10.25 7.75C10.25 6.646 9.3546 5.75 8.25 5.75C7.1454 5.75 6.25 6.646 6.25 7.75C6.25 8.854 7.1454 9.75 8.25 9.75Z" stroke="black" stroke-width="1.5" stroke-linecap="round" stroke-linejoin="round" fill="none"></path> <path d="M13.75 13.25H16.25V10.75" stroke="#000" stroke-width="1.5" stroke-linecap="round" stroke-linejoin="round" data-color="color-2" fill="none"></path> <path d="M14.216 8.3154C14.2314 8.1279 14.25 7.9414 14.25 7.75C14.25 4.438 11.5637 1.75 8.25 1.75C4.9363 1.75 2.25 4.438 2.25 7.75C2.25 12.2078 6.5801 15.6797 8.2006 16.2307" stroke="black" stroke-width="1.5" stroke-linecap="round" stroke-linejoin="round" fill="none"></path> <path d="M15.5 15.887C14.999 16.418 14.288 16.75 13.5 16.75C11.981 16.75 10.75 15.519 10.75 14C10.75 12.481 11.981 11.25 13.5 11.25C14.666 11.25 15.662 11.976 16.063 13" stroke="#000" stroke-width="1.5" stroke-linecap="round" stroke-linejoin="round" data-color="color-2" fill="none"></path></svg>