<svg xmlns="http://www.w3.org/2000/svg" xmlns:xlink="http://www.w3.org/1999/xlink" x="0px" y="0px" width="18px" height="18px" viewBox="0 0 18 18"><path d="M9 2.25V15.75" stroke="black" stroke-width="1.5" stroke-linecap="round" stroke-linejoin="round" fill="none"></path> <path d="M5.75 15.75H12.25" stroke="black" stroke-width="1.5" stroke-linecap="round" stroke-linejoin="round" fill="none"></path> <path d="M8.99999 6.74999H4.13399C3.88699 6.74999 3.64898 6.65899 3.46498 6.49299L2.07599 5.24299C1.63499 4.84599 1.63499 4.15399 2.07599 3.75599L3.46498 2.50599C3.64898 2.34099 3.88699 2.24899 4.13399 2.24899H8.99999" stroke="black" stroke-width="1.5" stroke-linecap="round" stroke-linejoin="round" fill="none"></path> <path d="M11.745 11.25H13.861C14.108 11.25 14.346 11.159 14.53 10.993L15.919 9.74299C16.36 9.34599 16.36 8.65399 15.919 8.25599L14.53 7.00599C14.346 6.84099 14.108 6.74899 13.861 6.74899H11.745" stroke="#000" stroke-width="1.5" stroke-linecap="round" stroke-linejoin="round" data-color="color-2" fill="none"></path></svg>