<svg xmlns="http://www.w3.org/2000/svg" xmlns:xlink="http://www.w3.org/1999/xlink" x="0px" y="0px" width="18px" height="18px" viewBox="0 0 18 18"><path d="M8.25 9.75C9.3546 9.75 10.25 8.854 10.25 7.75C10.25 6.646 9.3546 5.75 8.25 5.75C7.1454 5.75 6.25 6.646 6.25 7.75C6.25 8.854 7.1454 9.75 8.25 9.75Z" stroke="black" stroke-width="1.5" stroke-linecap="round" stroke-linejoin="round" fill="none"></path> <path d="M13.75 10.5V11.5" stroke="#000" stroke-width="1.5" stroke-linecap="round" stroke-linejoin="round" data-color="color-2" fill="none"></path> <path d="M16.0481 11.4519L15.341 12.159" stroke="#000" stroke-width="1.5" stroke-linecap="round" stroke-linejoin="round" data-color="color-2" fill="none"></path> <path d="M17 13.75H16" stroke="#000" stroke-width="1.5" stroke-linecap="round" stroke-linejoin="round" data-color="color-2" fill="none"></path> <path d="M16.0481 16.0481L15.341 15.341" stroke="#000" stroke-width="1.5" stroke-linecap="round" stroke-linejoin="round" data-color="color-2" fill="none"></path> <path d="M13.75 17V16" stroke="#000" stroke-width="1.5" stroke-linecap="round" stroke-linejoin="round" data-color="color-2" fill="none"></path> <path d="M11.4519 16.0481L12.159 15.341" stroke="#000" stroke-width="1.5" stroke-linecap="round" stroke-linejoin="round" data-color="color-2" fill="none"></path> <path d="M10.5 13.75H11.5" stroke="#000" stroke-width="1.5" stroke-linecap="round" stroke-linejoin="round" data-color="color-2" fill="none"></path> <path d="M11.4519 11.4519L12.159 12.159" stroke="#000" stroke-width="1.5" stroke-linecap="round" stroke-linejoin="round" data-color="color-2" fill="none"></path> <path d="M14.24 7.55249C14.1348 4.33249 11.497 1.75 8.25 1.75C4.9363 1.75 2.25 4.438 2.25 7.75C2.25 12.25 6.6667 15.75 8.25 16.25C8.3182 16.2285 8.3981 16.1941 8.4763 16.1616" stroke="black" stroke-width="1.5" stroke-linecap="round" stroke-linejoin="round" fill="none"></path> <path d="M13.75 15.75C14.8546 15.75 15.75 14.8546 15.75 13.75C15.75 12.6454 14.8546 11.75 13.75 11.75C12.6454 11.75 11.75 12.6454 11.75 13.75C11.75 14.8546 12.6454 15.75 13.75 15.75Z" stroke="#000" stroke-width="1.5" stroke-linecap="round" stroke-linejoin="round" data-color="color-2" fill="none"></path></svg>