<svg xmlns="http://www.w3.org/2000/svg" xmlns:xlink="http://www.w3.org/1999/xlink" x="0px" y="0px" width="18px" height="18px" viewBox="0 0 18 18"><path d="M14.5 10.75L11.75 12V14.94C11.75 16.48 14.5 17.25 14.5 17.25V10.75Z" fill="#000" data-color="color-2" data-stroke="none"></path> <path d="M14.5 10.75L17.25 12V14.94C17.25 16.48 14.5 17.25 14.5 17.25C14.5 17.25 11.75 16.48 11.75 14.94V12L14.5 10.75Z" stroke="#000" stroke-width="1.5" stroke-linecap="round" stroke-linejoin="round" data-color="color-2" fill="none"></path> <path d="M13.0008 2.98069L11.4893 2.9094C10.4948 2.8625 9.73549 3.7861 9.97369 4.7527L10.2457 5.8562C10.3051 6.0973 10.2086 6.3499 10.0036 6.4899C9.838 6.603 9.62659 6.6251 9.44119 6.5487L8.5141 6.1666C7.7892 5.8678 6.96159 5.9623 6.32269 6.4169C5.75689 6.8194 5.40529 7.4578 5.36749 8.1511L5.29651 9.4532" stroke="black" stroke-width="1.5" stroke-linecap="round" fill="none"></path> <path d="M2.59167 5.7457C3.02027 6.8697 3.97028 8.6883 5.49658 9.6832C5.92248 9.9178 6.90028 10.6811 6.83228 11.8894C6.73908 13.5437 7.70377 13.6532 8.50247 14.2477C8.91247 14.5528 9.01706 15.4906 8.95706 16.2307" stroke="black" stroke-width="1.5" stroke-linecap="round" fill="none"></path> <path d="M5.75421 9.8474C6.74691 9.6381 7.94269 9.27061 9.31149 10.2039" stroke="black" stroke-width="1.5" stroke-linecap="round" fill="none"></path> <path d="M8.94839 16.2498C4.96809 16.2221 1.75 12.9868 1.75 9C1.75 4.996 4.996 1.75 9 1.75C12.7451 1.75 15.826 4.5886 16.2096 8.2319" stroke="black" stroke-width="1.5" stroke-linecap="round" stroke-linejoin="round" fill="none"></path></svg>