<svg xmlns="http://www.w3.org/2000/svg" xmlns:xlink="http://www.w3.org/1999/xlink" x="0px" y="0px" width="18px" height="18px" viewBox="0 0 18 18"><path d="M7.233 8H9.875C10.635 8 11.251 8.61701 11.25 9.37701C11.249 10.136 10.634 10.75 9.875 10.75H7.23199L7.23599 5.25H9.64101C10.4 5.25 11.016 5.866 11.016 6.625C11.016 7.384 10.4 8 9.64101 8" stroke="#000" stroke-width="1.5" stroke-linecap="round" stroke-linejoin="round" data-color="color-2" fill="none"></path> <path d="M9 16.25C10.5833 15.75 15 12.25 15 7.75C15 4.438 12.3137 1.75 9 1.75C5.6863 1.75 3 4.438 3 7.75C3 12.25 7.4167 15.75 9 16.25Z" stroke="black" stroke-width="1.5" stroke-linecap="round" stroke-linejoin="round" fill="none"></path></svg>