<svg xmlns="http://www.w3.org/2000/svg" xmlns:xlink="http://www.w3.org/1999/xlink" x="0px" y="0px" width="48px" height="48px" viewBox="0 0 48 48"> <path d="M27.6869 8.68691L27.5 8.5L36.3787 17.3787C37.5503 18.5503 37.5503 20.4497 36.3787 21.6213L30.5 27.5C29.3954 28.6046 29.3954 30.3954 30.5 31.5V31.5C31.6046 32.6046 33.3954 32.6046 34.5 31.5L35.5 30.5" stroke="#000" stroke-width="2" stroke-miterlimit="10" stroke-linecap="square" data-color="color-2" fill="none"></path> <path d="M5 43H43" stroke="#000" stroke-width="2" stroke-miterlimit="10" stroke-linecap="square" data-color="color-2" fill="none"></path> <path d="M7 36L17.0434 33.1304L36.4644 13.7095C38.417 11.7569 38.417 8.5911 36.4644 6.63847L36.3616 6.53563C34.409 4.58296 31.2431 4.58294 29.2905 6.53559L9.86955 25.9566L7 36Z" stroke="black" stroke-width="2" stroke-miterlimit="10" stroke-linecap="square" fill="none"></path> </svg>