<svg xmlns="http://www.w3.org/2000/svg" xmlns:xlink="http://www.w3.org/1999/xlink" x="0px" y="0px" width="20px" height="20px" viewBox="0 0 20 20"><path d="m17.1993,8.0502l-3.266-3.2736c-1.0311-1.0347-2.8327-1.0361-3.8657-.0004l-3.2669,3.2736c-.516.5176-.8007,1.2055-.8007,1.9371s.2847,1.4195.8007,1.9366l3.2669,3.2741c.516.5176,1.2028.8025,1.9324.8025.7304,0,1.4173-.2853,1.9324-.8025l3.2669-3.2736c.516-.5176.8007-1.2055.8007-1.9371s-.2847-1.4195-.8007-1.9366Z" stroke-width="0" fill="#000"></path><path d="m7.0676,4.7762l-3.2669,3.2736c-.516.5176-.8007,1.2055-.8007,1.9371s.2847,1.4195.8007,1.9366l3.2669,3.2741" fill="none" stroke="#000" stroke-linecap="round" stroke-linejoin="round" stroke-width="2" data-color="color-2"></path></svg>