<svg xmlns="http://www.w3.org/2000/svg" xmlns:xlink="http://www.w3.org/1999/xlink" x="0px" y="0px" width="20px" height="20px" viewBox="0 0 20 20"><path d="m3.034,12.231c-.111.475.072,1.01.555,1.286l5.83,3.332c.36.206.801.206,1.161,0l5.83-3.332c.483-.276.667-.811.555-1.286" fill="none" stroke="#000" stroke-linecap="round" stroke-linejoin="round" stroke-width="2" data-color="color-2"></path><path d="m10.58,3.154l5.83,3.332c.786.449.786,1.582,0,2.031l-5.83,3.332c-.36.205-.801.205-1.161,0l-5.83-3.332c-.786-.449-.786-1.582,0-2.031l5.83-3.332c.36-.205.801-.205,1.161,0Z" fill="none" stroke="#000" stroke-linecap="round" stroke-linejoin="round" stroke-width="2"></path></svg>