<svg xmlns="http://www.w3.org/2000/svg" xmlns:xlink="http://www.w3.org/1999/xlink" x="0px" y="0px" width="20px" height="20px" viewBox="0 0 20 20"><circle cx="10" cy="10" r="7" fill="none" stroke="#000" stroke-linecap="round" stroke-linejoin="round" stroke-width="2"></circle><path d="m13.0137,9.2742l-1.6807-.6304-.6309-1.6807c-.2188-.5859-1.1855-.5859-1.4043,0l-.6309,1.6807-1.6807.6304c-.292.1099-.4863.3896-.4863.7021s.1943.5923.4863.7021l1.6807.6304.6309,1.6807c.1094.293.3896.4868.7021.4868s.5928-.1938.7021-.4868l.6309-1.6807,1.6807-.6304c.292-.1099.4863-.3896.4863-.7021s-.1943-.5923-.4863-.7021Z" fill="#000" stroke-width="0" data-color="color-2"></path></svg>