<svg xmlns="http://www.w3.org/2000/svg" xmlns:xlink="http://www.w3.org/1999/xlink" x="0px" y="0px" width="20px" height="20px" viewBox="0 0 20 20"><circle cx="3.25" cy="16.75" r="1.25" fill="#000" stroke-width="0" data-color="color-2"></circle><circle cx="7.75" cy="16.75" r="1.25" fill="#000" stroke-width="0" data-color="color-2"></circle><circle cx="12.25" cy="16.75" r="1.25" fill="#000" stroke-width="0" data-color="color-2"></circle><circle cx="16.75" cy="16.75" r="1.25" fill="#000" stroke-width="0" data-color="color-2"></circle><rect x="5" y="8" width="10" height="5" rx="1.5" ry="1.5" fill="none" stroke="#000" stroke-linecap="round" stroke-linejoin="round" stroke-width="2"></rect><path d="m7.5,8v-2.5c0-1.3807,1.1193-2.5,2.5-2.5h0c1.3807,0,2.5,1.1193,2.5,2.5v2.5h.5" fill="none" stroke="#000" stroke-linecap="round" stroke-linejoin="round" stroke-width="2"></path><path d="m13.5,8h-7c-.8284,0-1.5.6716-1.5,1.5v2c0,.8284.6716,1.5,1.5,1.5h7c.8284,0,1.5-.6716,1.5-1.5v-2c0-.8284-.6716-1.5-1.5-1.5Zm-2.5,3c0,.5522-.4478,1-1,1s-1-.4478-1-1v-1c0-.5522.4478-1,1-1s1,.4478,1,1v1Z" stroke-width="0" fill="#000"></path></svg>