<svg xmlns="http://www.w3.org/2000/svg" xmlns:xlink="http://www.w3.org/1999/xlink" x="0px" y="0px" width="20px" height="20px" viewBox="0 0 20 20"><rect x="3" y="3" width="14" height="14" rx="3" ry="3" fill="none" stroke="#000" stroke-linecap="round" stroke-linejoin="round" stroke-width="2"></rect><path d="m14,3H6c-1.6569,0-3,1.3431-3,3v8c0,1.6569,1.3431,3,3,3h8c1.6569,0,3-1.3431,3-3V6c0-1.6569-1.3431-3-3-3Zm-.9863,7.6785l-1.6807.6304-.6309,1.6807c-.1094.293-.3897.4868-.7021.4868s-.5928-.1938-.7021-.4868l-.6309-1.6807-1.6807-.6304c-.292-.1099-.4863-.3896-.4863-.7021s.1943-.5923.4863-.7021l1.6807-.6304.6309-1.6807c.2188-.5859,1.1855-.5859,1.4043,0l.6309,1.6807,1.6807.6304c.292.1099.4863.3896.4863.7021s-.1943.5923-.4863.7021Z" stroke-width="0" fill="#000"></path></svg>