<svg xmlns="http://www.w3.org/2000/svg" xmlns:xlink="http://www.w3.org/1999/xlink" x="0px" y="0px" width="20px" height="20px" viewBox="0 0 20 20"><path d="m10.5,6.5l2.8787-2.8787c.8284-.8284,2.1716-.8284,3,0h0c.8284.8284.8284,2.1716,0,3l-2.8787,2.8787-3-3Z" stroke-width="0" fill="#000"></path><path d="m13.5,9.5l-5.8787,5.8787c-.8284.8284-2.1716.8284-3,0h0c-.8284-.8284-.8284-2.1716,0-3l5.8787-5.8787" fill="none" stroke="#000" stroke-linecap="round" stroke-linejoin="round" stroke-width="2" data-color="color-2"></path><path d="m10.5,6.5l2.8787-2.8787c.8284-.8284,2.1716-.8284,3,0h0c.8284.8284.8284,2.1716,0,3l-2.8787,2.8787" fill="none" stroke="#000" stroke-linecap="round" stroke-linejoin="round" stroke-width="2"></path><line x1="4.6213" y1="15.3787" x2="3" y2="17" fill="none" stroke="#000" stroke-linecap="round" stroke-linejoin="round" stroke-width="2" data-color="color-2"></line><line x1="9" y1="5" x2="15" y2="11" fill="none" stroke="#000" stroke-linecap="round" stroke-linejoin="round" stroke-width="2"></line></svg>