<svg xmlns="http://www.w3.org/2000/svg" xmlns:xlink="http://www.w3.org/1999/xlink" x="0px" y="0px" width="20px" height="20px" viewBox="0 0 20 20"><polygon points="6.5 10 7.3077 12.6923 10 13.5 7.3077 14.3077 6.5 17 5.6923 14.3077 3 13.5 5.6923 12.6923 6.5 10" stroke="#000" stroke-linecap="round" stroke-linejoin="round" stroke-width="2" fill="#000"></polygon><polygon points="13.5 3 14.3077 5.6923 17 6.5 14.3077 7.3077 13.5 10 12.6923 7.3077 10 6.5 12.6923 5.6923 13.5 3" stroke="#000" stroke-linecap="round" stroke-linejoin="round" stroke-width="2" fill="#000"></polygon><path d="m6.6526,3.978l-1.2005-.4533-.4506-1.2087c-.1563-.4214-.8468-.4214-1.0031,0l-.4506,1.2087-1.2005.4533c-.2086.079-.3474.2802-.3474.505s.1388.4259.3474.505l1.2005.4533.4506,1.2087c.0781.2107.2783.3501.5015.3501s.4234-.1394.5015-.3501l.4506-1.2087,1.2005-.4533c.2086-.079.3474-.2802.3474-.505s-.1388-.4259-.3474-.505Z" fill="#000" stroke-width="0" data-color="color-2"></path><path d="m17.6526,14.978l-1.2005-.4533-.4506-1.2087c-.1563-.4214-.8468-.4214-1.0031,0l-.4506,1.2087-1.2005.4533c-.2086.079-.3474.2802-.3474.505s.1388.4259.3474.505l1.2005.4533.4506,1.2087c.0781.2107.2783.3501.5015.3501s.4234-.1394.5015-.3501l.4506-1.2087,1.2005-.4533c.2086-.079.3474-.2802.3474-.505s-.1388-.4259-.3474-.505Z" fill="#000" stroke-width="0" data-color="color-2"></path></svg>