<svg xmlns="http://www.w3.org/2000/svg" xmlns:xlink="http://www.w3.org/1999/xlink" x="0px" y="0px" width="20px" height="20px" viewBox="0 0 20 20"><polyline points="13 6 10 3 7 6" fill="none" stroke="#000" stroke-linecap="round" stroke-linejoin="round" stroke-width="2" data-color="color-2"></polyline><path d="m3,10.499v2c0,.396.196.791.589,1.016l5.83,3.332c.36.206.801.206,1.161,0l5.83-3.332c.393-.225.589-.62.589-1.016v-2" fill="none" stroke="#000" stroke-linecap="round" stroke-linejoin="round" stroke-width="2"></path><line x1="10" y1="11" x2="10" y2="3" fill="none" stroke="#000" stroke-linecap="round" stroke-linejoin="round" stroke-width="2" data-color="color-2"></line><path d="m4.862,8.756l-1.273.727c-.786.449-.786,1.582,0,2.031l5.83,3.332c.36.205.801.205,1.161,0l5.83-3.332c.786-.449.786-1.582,0-2.031l-1.273-.727" fill="none" stroke="#000" stroke-linecap="round" stroke-linejoin="round" stroke-width="2"></path></svg>