<svg xmlns="http://www.w3.org/2000/svg" xmlns:xlink="http://www.w3.org/1999/xlink" x="0px" y="0px" width="20px" height="20px" viewBox="0 0 20 20"><path d="m14,3H6c-1.6569,0-3,1.3431-3,3v2h14v-2c0-1.6569-1.3431-3-3-3Zm-8,3c-.5523,0-1-.4478-1-1s.4477-1,1-1,1,.4477,1,1-.4477,1-1,1Zm3,0c-.5523,0-1-.4478-1-1s.4477-1,1-1,1,.4477,1,1-.4477,1-1,1Z" stroke-width="0" fill="#000"></path><polygon points="11 11 17 13 14 14 13 17 11 11" fill="#000" stroke="#000" stroke-linecap="round" stroke-linejoin="round" stroke-width="2" data-color="color-2"></polygon><path d="m17,9.3107v-3.3107c0-1.6569-1.3431-3-3-3H6c-1.6569,0-3,1.3431-3,3v8c0,1.6569,1.3431,3,3,3h3.3107" fill="none" stroke="#000" stroke-linecap="round" stroke-linejoin="round" stroke-width="2"></path></svg>