<svg xmlns="http://www.w3.org/2000/svg" xmlns:xlink="http://www.w3.org/1999/xlink" x="0px" y="0px" width="18px" height="18px" viewBox="0 0 18 18"><path d="M1.917,10.537c.791,.29,1.627,.439,2.47,.441,1.727-.077,3.367-.78,4.613-1.977" fill="none" stroke="#000" stroke-linecap="round" stroke-linejoin="round" stroke-width="1.5" data-color="color-2"></path><path d="M14.868,13.253c-.312-.783-.758-1.506-1.318-2.135-1.209-1.235-2.826-1.988-4.55-2.118" fill="none" stroke="#000" stroke-linecap="round" stroke-linejoin="round" stroke-width="1.5" data-color="color-2"></path><path d="M8.883,1.753c-.44,.719-.751,1.509-.918,2.335-.263,1.709,.105,3.455,1.036,4.912" fill="none" stroke="#000" stroke-linecap="round" stroke-linejoin="round" stroke-width="1.5" data-color="color-2"></path><path d="M12.503,10.238c-1.246,2.519-3.139,4.191-8.505,4.01" fill="none" stroke="#000" stroke-linecap="round" stroke-linejoin="round" stroke-width="1.5" data-color="color-2"></path><path d="M5.806,10.769c-1.913-2.31-1.845-5.759-1.125-7.593" fill="none" stroke="#000" stroke-linecap="round" stroke-linejoin="round" stroke-width="1.5" data-color="color-2"></path><path d="M7.888,5.476c2.662-.601,5.112-.145,8.347,3.993" fill="none" stroke="#000" stroke-linecap="round" stroke-linejoin="round" stroke-width="1.5" data-color="color-2"></path><circle cx="9" cy="9" r="7.25" fill="none" stroke="#000" stroke-linecap="round" stroke-linejoin="round" stroke-width="1.5"></circle></svg>