<svg xmlns="http://www.w3.org/2000/svg" xmlns:xlink="http://www.w3.org/1999/xlink" x="0px" y="0px" width="18px" height="18px" viewBox="0 0 18 18"><circle cx="9" cy="2.25" r="1.5" fill="none" stroke="#000" stroke-linecap="round" stroke-linejoin="round" stroke-width="1.5"></circle><path d="M15.25,6.75l-1.646,1.646c-.195,.195-.512,.195-.707,0l-1.561-1.561c-.375-.375-.884-.586-1.414-.586h-.922s-.922,0-.922,0c-.53,0-1.039,.211-1.414,.586l-1.561,1.561c-.195,.195-.512,.195-.707,0l-1.646-1.646" fill="none" stroke="#000" stroke-linecap="round" stroke-linejoin="round" stroke-width="1.5"></path><path d="M9,12.589c.155,.176,.25,.408,.25,.661h0c0,.552-.448,1-1,1h-2.596c-.775,0-1.404-.629-1.404-1.404h0c0-.644,.438-1.206,1.063-1.362l1.937-.484V6.5" fill="none" stroke="#000" stroke-linecap="round" stroke-linejoin="round" stroke-width="1.5"></path><path d="M10.75,6.5v4.5s1.937,.484,1.937,.484c.625,.156,1.063,.718,1.063,1.362h0c0,.775-.629,1.404-1.404,1.404h-.74" fill="none" stroke="#000" stroke-linecap="round" stroke-linejoin="round" stroke-width="1.5"></path><line x1="2.25" y1="16.75" x2="15.75" y2="16.75" fill="none" stroke="#000" stroke-linecap="round" stroke-linejoin="round" stroke-width="1.5" data-color="color-2"></line></svg>