<svg xmlns="http://www.w3.org/2000/svg" xmlns:xlink="http://www.w3.org/1999/xlink" x="0px" y="0px" width="12px" height="12px" viewBox="0 0 12 12"><path d="m8.75,10.5c-.414,0-.75-.336-.75-.75s.336-.75.75-.75.75-.336.75-.75V3.25c0-.414-.336-.75-.75-.75H3.25c-.414,0-.75.336-.75.75v5c0,.414.336.75.75.75s.75.336.75.75-.336.75-.75.75c-1.241,0-2.25-1.009-2.25-2.25V3.25c0-1.241,1.009-2.25,2.25-2.25h5.5c1.241,0,2.25,1.009,2.25,2.25v5c0,1.241-1.009,2.25-2.25,2.25Z" stroke-width="0" fill="#000"></path><path d="m11.25,10.5H.75c-.414,0-.75-.336-.75-.75s.336-.75.75-.75h10.5c.414,0,.75.336.75.75s-.336.75-.75.75Z" fill="#000" stroke-width="0" data-color="color-2"></path></svg>