<svg xmlns="http://www.w3.org/2000/svg" xmlns:xlink="http://www.w3.org/1999/xlink" x="0px" y="0px" width="12px" height="12px" viewBox="0 0 12 12"><path d="m9.75,0H2.25C1.01,0,0,1.009,0,2.25v1c0,1.241,1.01,2.25,2.25,2.25h7.5c1.24,0,2.25-1.009,2.25-2.25v-1c0-1.241-1.01-2.25-2.25-2.25ZM3,3.75c-.552,0-1-.448-1-1s.448-1,1-1,1,.448,1,1-.448,1-1,1Zm3,0c-.552,0-1-.448-1-1s.448-1,1-1,1,.448,1,1-.448,1-1,1Z" stroke-width="0" fill="#000"></path><path d="m9.75,6.5H2.25c-1.24,0-2.25,1.009-2.25,2.25v1c0,1.241,1.01,2.25,2.25,2.25h7.5c1.24,0,2.25-1.009,2.25-2.25v-1c0-1.241-1.01-2.25-2.25-2.25Zm-6.75,3.75c-.552,0-1-.448-1-1s.448-1,1-1,1,.448,1,1-.448,1-1,1Zm3,0c-.552,0-1-.448-1-1s.448-1,1-1,1,.448,1,1-.448,1-1,1Z" fill="#000" stroke-width="0" data-color="color-2"></path></svg>