<svg xmlns="http://www.w3.org/2000/svg" xmlns:xlink="http://www.w3.org/1999/xlink" x="0px" y="0px" width="12px" height="12px" viewBox="0 0 12 12"><path d="m4.25,10h-1c-1.517,0-2.75-1.233-2.75-2.75V2.75C.5,1.233,1.733,0,3.25,0h2.75c1.517,0,2.75,1.233,2.75,2.75,0,.414-.336.75-.75.75s-.75-.336-.75-.75c0-.689-.561-1.25-1.25-1.25h-2.75c-.689,0-1.25.561-1.25,1.25v4.5c0,.689.561,1.25,1.25,1.25h1c.414,0,.75.336.75.75s-.336.75-.75.75Z" stroke-width="0" fill="#000"></path><rect x="6" y="4.5" width="5.5" height="7.5" rx="2.25" ry="2.25" fill="#000" stroke-width="0" data-color="color-2"></rect></svg>