<svg xmlns="http://www.w3.org/2000/svg" xmlns:xlink="http://www.w3.org/1999/xlink" x="0px" y="0px" width="18px" height="18px" viewBox="0 0 18 18"><rect x="4.5" y="8.5" width="2" height="2" rx=".75" ry=".75" fill="#000"></rect><rect x="1" y="8.5" width="2" height="2" rx=".75" ry=".75" fill="#000"></rect><rect x="8" y="8.5" width="2" height="2" rx=".75" ry=".75" fill="#000"></rect><rect x="11.5" y="8.5" width="2" height="2" rx=".75" ry=".75" fill="#000"></rect><rect x="6.25" y="5" width="2" height="2" rx=".75" ry=".75" fill="#000"></rect><rect x="2.75" y="5" width="2" height="2" rx=".75" ry=".75" fill="#000"></rect><rect x="9.75" y="5" width="2" height="2" rx=".75" ry=".75" fill="#000"></rect><rect x="13.25" y="5" width="2" height="2" rx=".75" ry=".75" fill="#000"></rect><rect x="15" y="8.5" width="2" height="2" rx=".75" ry=".75" fill="#000"></rect><path d="M13.5,13.5H4.5c-.414,0-.75-.336-.75-.75s.336-.75,.75-.75H13.5c.414,0,.75,.336,.75,.75s-.336,.75-.75,.75Z" fill="#000" data-color="color-2"></path></svg>