<svg xmlns="http://www.w3.org/2000/svg" xmlns:xlink="http://www.w3.org/1999/xlink" x="0px" y="0px" width="18px" height="18px" viewBox="0 0 18 18"><path d="m12.25,13.25h-1.25c-1.5166,0-2.75-1.2334-2.75-2.75v-3.25c0-.6895-.5605-1.25-1.25-1.25h-1.25c-.4141,0-.75-.3359-.75-.75s.3359-.75.75-.75h1.25c1.5166,0,2.75,1.2334,2.75,2.75v3.25c0,.6895.5605,1.25,1.25,1.25h1.25c.4141,0,.75.3359.75.75s-.3359.75-.75.75Z" fill="#000" stroke-width="0" data-color="color-2"></path><circle cx="3.5" cy="5.25" r="2.5" stroke-width="0" fill="#000"></circle><circle cx="14.5" cy="12.75" r="2.5" stroke-width="0" fill="#000"></circle></svg>