<svg xmlns="http://www.w3.org/2000/svg" xmlns:xlink="http://www.w3.org/1999/xlink" x="0px" y="0px" width="18px" height="18px" viewBox="0 0 18 18"><path d="m9.7393,5.1211c-.1924,0-.3838-.0732-.5303-.2197-.293-.293-.293-.7681,0-1.0605l2.1221-2.1211c.2939-.2939.7686-.292,1.0605,0,.293.293.293.7681,0,1.0605l-2.1221,2.1211c-.1465.1465-.3389.2197-.5303.2197Z" fill="#000" stroke-width="0" data-color="color-2"></path><path d="m13.6289,9.0103c-.1924,0-.3838-.0732-.5303-.2197-.293-.293-.293-.7676,0-1.0605l2.1211-2.1211c.293-.293.7676-.293,1.0605,0s.293.7676,0,1.0605l-2.1211,2.1211c-.1465.1465-.3379.2197-.5303.2197Z" fill="#000" stroke-width="0" data-color="color-2"></path><path d="m15.9268,9.498l-7.4248-7.4248v-.0005c-.6836-.6807-1.793-.6812-2.4746.0005l-1.2373,1.2373c-1.2598,1.2598-1.9306,2.8845-2.0275,4.5369.4243-.5264,1.0504-.8469,1.7394-.8469.3281,0,.6455.0698.9434.2075,1.0166.4717,1.5342,1.6333,1.2051,2.7026l-.0361.1191c.6768.1108,1.2734.5269,1.6094,1.1401.3965.7231.3652,1.603-.0811,2.2969l-.8627,1.342c.7767.291,1.605.45,2.4594.45,1.8711,0,3.6289-.7275,4.9502-2.0488l1.2373-1.2368c.3301-.3306.5127-.77.5127-1.2378s-.1826-.9072-.5127-1.2373Z" stroke-width="0" fill="#000"></path><path d="m6.9082,11.8906c-.1318-.2407-.3838-.3906-.6582-.3906h-1.6533l.6201-2.0308c.1104-.3584-.0615-.7422-.4014-.8999-.3379-.1562-.7441-.04-.9463.2749l-2.25,3.5c-.1484.231-.1592.5244-.0273.7651s.3838.3906.6582.3906h1.6533l-.6201,2.0308c-.1104.3584.0615.7422.4014.8999.1016.0469.209.0693.3154.0693.248,0,.4893-.1235.6309-.3442l2.25-3.5c.1484-.231.1592-.5244.0273-.7651Z" fill="#000" stroke-width="0" data-color="color-2"></path></svg>