<svg xmlns="http://www.w3.org/2000/svg" xmlns:xlink="http://www.w3.org/1999/xlink" x="0px" y="0px" width="20px" height="20px" viewBox="0 0 20 20"><path d="m4.3605,15.6395L15.1171,4.8829c-.9099-.5563-1.9747-.8829-3.1171-.8829-2.5933,0-4.8252,1.6367-5.6484,4.0166-2.3276-.2231-4.3521,1.6602-4.3516,3.9834,0,1.6201.9723,3.0114,2.3605,3.6395Z" stroke-width="0" fill="#000"></path><path d="m8.2422,16h3.7578c3.3086,0,6-2.6914,6-6,0-1.0794-.2905-2.0905-.7914-2.9664l-8.9664,8.9664Z" stroke-width="0" fill="#000"></path><path d="m3,18c-.2559,0-.5117-.0977-.707-.293-.3906-.3906-.3906-1.0234,0-1.4141L16.293,2.293c.3906-.3906,1.0234-.3906,1.4141,0s.3906,1.0234,0,1.4141L3.707,17.707c-.1953.1953-.4512.293-.707.293Z" fill="#000" stroke-width="0" data-color="color-2"></path></svg>