<svg xmlns="http://www.w3.org/2000/svg" xmlns:xlink="http://www.w3.org/1999/xlink" x="0px" y="0px" width="18px" height="18px" viewBox="0 0 18 18"><path d="m9,12.75l5,3.5.25-5.75h-2.5c-1.2426,0-2.25-1.0074-2.25-2.25s1.0074-2.25,2.25-2.25h2.5l-.25-2.25c0-1.105-.895-2-2-2h-6.25c-1.105,0-2,.895-2,2v12.5l5.25-3.5Z" fill="#000" fill-rule="evenodd" opacity=".3" stroke-width="0" data-color="color-2"></path><path d="m16.75,8.25h-5" fill="none" stroke="#000" stroke-linecap="round" stroke-linejoin="round" stroke-width="1.5"></path><path d="m14.25,5.25v-1.5c0-1.104-.895-2-2-2h-6.5c-1.105,0-2,.896-2,2v12.5l5.25-3.5,5.25,3.5v-5" fill="none" stroke="#000" stroke-linecap="round" stroke-linejoin="round" stroke-width="1.5"></path></svg>