<svg xmlns="http://www.w3.org/2000/svg" xmlns:xlink="http://www.w3.org/1999/xlink" x="0px" y="0px" width="18px" height="18px" viewBox="0 0 18 18"><path d="m8.543,14.8516c.4026-1.1575,1.2111-2.0842,2.224-2.6704-.3259-.48-.517-1.0586-.517-1.6812,0-1.6543,1.3457-3,3-3,.8469,0,1.6058.3585,2.15.926.0777.0811,1.0141-1.7344.716-2.8701-.181-.689-.575-1.321-1.11-1.7898-2.005-1.7581-4.933-1.05-6.007,1.1619-.171-.353-.396-.678-.666-.9619-1.451-1.5281-3.867-1.5911-5.395-.1392-1.528,1.4512-1.591,3.8669-.139,5.395l5.48,5.6941c.0643.0669.2382.0095.264-.0645Z" fill="#000" fill-rule="evenodd" opacity=".3" stroke-width="0" data-color="color-2"></path><circle cx="13.25" cy="10.5" r="1.5" stroke-width="0" fill="#000"></circle><path d="m15.9874,7.9551c.2821-.73.35-1.5571.1287-2.3992-.181-.688-.575-1.3201-1.11-1.7898-2.005-1.7581-4.933-1.05-6.007,1.1619-.171-.353-.396-.677-.666-.9619-1.451-1.5281-3.867-1.5911-5.395-.1392-1.528,1.4512-1.59,3.8669-.139,5.395l5.0804,5.2788" fill="none" stroke="#000" stroke-linecap="round" stroke-linejoin="round" stroke-width="1.5"></path><path d="m15.3511,17h-4.2021c-.4067,0-.7905-.1987-1.0273-.5317-.2324-.3276-.293-.7476-.1621-1.123.4883-1.4023,1.8105-2.3452,3.2905-2.3452s2.8022.9429,3.291,2.3457c.1304.375.0698.7949-.1626,1.1226-.2368.333-.6206.5317-1.0273.5317Z" stroke-width="0" fill="#000"></path></svg>