<svg xmlns="http://www.w3.org/2000/svg" xmlns:xlink="http://www.w3.org/1999/xlink" x="0px" y="0px" width="18px" height="18px" viewBox="0 0 18 18"><path d="m14.5693,3.4307c-1.9718-1.3154-4.572-.5588-5.5703,1.4973-.171-.353-.396-.678-.666-.962-1.451-1.528-3.867-1.591-5.395-.139-1.528,1.451-1.591,3.867-.139,5.395l2.9322,3.0467L14.5693,3.4307Zm-7.2602,10.4775l.9699,1.0078c.393.409,1.048.409,1.441,0l5.48-5.694c.882-.928,1.279-2.283.916-3.666-.0307-.1167-.3197.0205-.3623-.0925L7.3091,13.9082Z" fill="#000" fill-rule="evenodd" opacity=".3" stroke-width="0" data-color="color-2"></path><path d="m5.731,12.269l-2.932-3.047c-1.452-1.528-1.389-3.944.139-5.395,1.528-1.452,3.944-1.389,5.395.139.27.284.495.609.666.962.998-2.056,3.598-2.813,5.57-1.497" fill="none" stroke="#000" stroke-linecap="round" stroke-linejoin="round" stroke-width="1.5"></path><path d="m7.8115,14.4307l.4675.4854c.393.4089,1.048.4089,1.441,0l5.48-5.6941c.7794-.8198,1.1728-1.9741,1.0051-3.1848" fill="none" stroke="#000" stroke-linecap="round" stroke-linejoin="round" stroke-width="1.5"></path><line x1="2.75" y1="15.25" x2="16" y2="2" fill="none" stroke="#000" stroke-linecap="round" stroke-linejoin="round" stroke-width="1.5"></line></svg>