<svg xmlns="http://www.w3.org/2000/svg" xmlns:xlink="http://www.w3.org/1999/xlink" x="0px" y="0px" width="18px" height="18px" viewBox="0 0 18 18"><polygon points="11.6512 6.3488 11.24 6.289 9 1.75 6.76 6.289 1.75 7.017 5.375 10.551 4.9454 13.0545 11.6512 6.3488" fill="#000" fill-rule="evenodd" opacity=".3" stroke-width="0" data-color="color-2"></polygon><polygon points="14.7969 6.4204 8.5106 12.7067 9 13.185 13.481 15.54 12.625 10.551 16.25 7.017 14.7969 6.4204" fill="#000" fill-rule="evenodd" opacity=".3" stroke-width="0" data-color="color-2"></polygon><polyline points="4.946 13.054 5.375 10.551 1.75 7.017 6.76 6.289 9 1.75 11.24 6.289 11.651 6.349" fill="none" stroke="#000" stroke-linecap="round" stroke-linejoin="round" stroke-width="1.5"></polyline><polyline points="15.3548 6.8873 16.25 7.017 12.625 10.551 13.481 15.54 9 13.185" fill="none" stroke="#000" stroke-linecap="round" stroke-linejoin="round" stroke-width="1.5"></polyline><line x1="2" y1="16" x2="16" y2="2" fill="none" stroke="#000" stroke-linecap="round" stroke-linejoin="round" stroke-width="1.5"></line></svg>