<svg xmlns="http://www.w3.org/2000/svg" xmlns:xlink="http://www.w3.org/1999/xlink" x="0px" y="0px" width="18px" height="18px" viewBox="0 0 18 18"><path d="m8.172,2.25H3.25c-.552,0-1,.448-1,1v4.922c0,.53.211,1.039.586,1.414l5.75,5.75c.781.781,2.047.781,2.828,0l3.922-3.922c.781-.781.781-2.047,0-2.828l.1777-.586h-3.7637c-1.2426,0-2.25-1.0074-2.25-2.25,0-.7566.3734-1.4259.946-1.8338l-.86-1.0802c-.375-.375-.884-.586-1.414-.586Z" fill="#000" fill-rule="evenodd" opacity=".3" stroke-width="0" data-color="color-2"></path><circle cx="6.25" cy="6.25" r="1.25" stroke-width="0" fill="#000"></circle><line x1="16.75" y1="5.75" x2="11.75" y2="5.75" fill="none" stroke="#000" stroke-linecap="round" stroke-linejoin="round" stroke-width="1.5"></line><path d="m10.0396,3.2896l-.4546-.4546c-.375-.375-.884-.5859-1.414-.5859H3.25c-.552,0-1,.448-1,1v4.9219c0,.53.211,1.0391.586,1.4141l5.75,5.75c.781.781,2.047.781,2.828,0l3.922-3.9219c.7297-.7297.7686-1.8777.1348-2.6631" fill="none" stroke="#000" stroke-linecap="round" stroke-linejoin="round" stroke-width="1.5"></path></svg>