<svg xmlns="http://www.w3.org/2000/svg" xmlns:xlink="http://www.w3.org/1999/xlink" x="0px" y="0px" width="18px" height="18px" viewBox="0 0 18 18"><path d="m13.559,4.441l-.259-.32c-.19-.235-.475-.371-.777-.371h-7.773c-1.105,0-2,.895-2,2v6.5c0,.8114.4826,1.5097,1.1767,1.8234L13.559,4.441Z" fill="#000" fill-rule="evenodd" opacity=".3" stroke-width="0" data-color="color-2"></path><path d="m7.451,14.25h5.072c.302,0,.587-.136.777-.371l3.95-4.879-2.2516-2.7811-7.5191,7.5192-.0283.5119Z" fill="#000" fill-rule="evenodd" opacity=".3" stroke-width="0" data-color="color-2"></path><path d="m3.927,14.073c-.694-.314-1.177-1.012-1.177-1.823v-6.5c0-1.105.895-2,2-2h7.773c.302,0,.587.136.777.371l.259.32" fill="none" stroke="#000" stroke-linecap="round" stroke-linejoin="round" stroke-width="1.5"></path><path d="m2,16L16,2" fill="none" stroke="#000" stroke-linecap="round" stroke-linejoin="round" stroke-width="1.5"></path><path d="m15.4572,6.785l1.7928,2.215-3.95,4.879c-.19.235-.475.371-.777.371h-4.5308" fill="none" stroke="#000" stroke-linecap="round" stroke-linejoin="round" stroke-width="1.5"></path></svg>