<svg xmlns="http://www.w3.org/2000/svg" xmlns:xlink="http://www.w3.org/1999/xlink" x="0px" y="0px" width="18px" height="18px" viewBox="0 0 18 18"><path d="m4.408,5.905l3.921-3.547c.381-.345.961-.345,1.342,0l3.921,3.547c.419.379.658.918.658,1.483v6.862c0,1.105-.895,2-2,2h-6.5c-1.105,0-2-.895-2-2v-6.862c0-.565.239-1.104.658-1.483Z" fill="#000" opacity=".3" stroke-width="0" data-color="color-2"></path><path d="m6.75,13.25h4.5" fill="none" stroke="#000" stroke-linecap="round" stroke-linejoin="round" stroke-width="1.5"></path><path d="m9,8c.6904,0,1.25-.5596,1.25-1.25s-.5596-1.25-1.25-1.25-1.25.5596-1.25,1.25.5596,1.25,1.25,1.25Z" stroke-width="0" fill="#000"></path><path d="m4.408,5.5554l3.921-3.547c.381-.345.961-.345,1.342,0l3.921,3.547c.419.379.658.918.658,1.483v7.2116c0,1.105-.895,2-2,2h-6.5c-1.105,0-2-.895-2-2v-7.2116c0-.565.239-1.104.658-1.483Z" fill="none" stroke="#000" stroke-linecap="round" stroke-linejoin="round" stroke-width="1.5"></path></svg>