<svg xmlns="http://www.w3.org/2000/svg" xmlns:xlink="http://www.w3.org/1999/xlink" x="0px" y="0px" width="18px" height="18px" viewBox="0 0 18 18"><path d="m11.24,6.289l-2.24-4.539-2.24,4.539-5.01.728,3.625,3.534-.856,4.989,3.9892-2.0965c-.0054-.0638-.0082-.1283-.0082-.1935,0-1.2426,1.0074-2.25,2.25-2.25h.25v-.25c0-1.2426,1.0074-2.25,2.25-2.25.4215,0,.8795.1474,1.2167.349l1.7833-1.832-5.01-.728Z" fill="#000" fill-rule="evenodd" opacity=".3" stroke-width="0" data-color="color-2"></path><line x1="13.25" y1="10.75" x2="13.25" y2="15.75" fill="none" stroke="#000" stroke-linecap="round" stroke-linejoin="round" stroke-width="1.5"></line><line x1="15.75" y1="13.25" x2="10.75" y2="13.25" fill="none" stroke="#000" stroke-linecap="round" stroke-linejoin="round" stroke-width="1.5"></line><polyline points="14.9509 8.2841 16.25 7.017 11.24 6.29 9 1.75 6.76 6.29 1.75 7.017 5.375 10.551 4.519 15.54 7.8043 13.8138" fill="none" stroke="#000" stroke-linecap="round" stroke-linejoin="round" stroke-width="1.5"></polyline></svg>