<svg xmlns="http://www.w3.org/2000/svg" xmlns:xlink="http://www.w3.org/1999/xlink" x="0px" y="0px" width="18px" height="18px" viewBox="0 0 18 18"><path d="M8.529 15.222C8.826 15.377 9.173 15.377 9.47 15.222C11.04 14.403 15.999 11.435 15.999 6.609C16.007 4.489 14.295 2.763 12.173 2.75C10.896 2.766 9.709 3.41 9 4.47C8.29 3.41 7.103 2.766 5.827 2.75C3.704 2.763 1.993 4.489 2.001 6.609C2.001 11.435 6.959 14.403 8.529 15.222Z" fill="#000" fill-opacity="0.3" data-color="color-2" data-stroke="none"></path> <path d="M8.529 15.222C8.826 15.377 9.173 15.377 9.47 15.222C11.04 14.403 15.999 11.435 15.999 6.609C16.007 4.489 14.295 2.763 12.173 2.75C10.896 2.766 9.709 3.41 9 4.47C8.29 3.41 7.103 2.766 5.827 2.75C3.704 2.763 1.993 4.489 2.001 6.609C2.001 11.435 6.959 14.403 8.529 15.222Z" stroke="black" stroke-width="1.5" stroke-linecap="round" stroke-linejoin="round" fill="none"></path></svg>