<svg xmlns="http://www.w3.org/2000/svg" xmlns:xlink="http://www.w3.org/1999/xlink" x="0px" y="0px" width="18px" height="18px" viewBox="0 0 18 18"><path d="M10.415 15.5853L15.5861 10.4142C16.3671 9.63316 16.3671 8.36684 15.5861 7.58579L10.415 2.41471C9.63394 1.63367 8.36761 1.63367 7.58656 2.41471L2.41549 7.58579C1.63444 8.36683 1.63444 9.63317 2.41549 10.4142L7.58656 15.5853C8.36761 16.3663 9.63394 16.3663 10.415 15.5853Z" fill="#000" fill-opacity="0.3" data-color="color-2" data-stroke="none"></path> <path d="M10 6.5L12.25 8.75L10 11" stroke="black" stroke-width="1.5" stroke-linecap="round" stroke-linejoin="round" fill="none"></path> <path d="M12.25 8.75H8.75C7.645 8.75 6.75 9.645 6.75 10.75V11.25" stroke="black" stroke-width="1.5" stroke-linecap="round" stroke-linejoin="round" fill="none"></path> <path d="M10.415 15.5853L15.5861 10.4142C16.3671 9.63316 16.3671 8.36684 15.5861 7.58579L10.415 2.41471C9.63394 1.63367 8.36761 1.63367 7.58656 2.41471L2.41549 7.58579C1.63444 8.36683 1.63444 9.63317 2.41549 10.4142L7.58656 15.5853C8.36761 16.3663 9.63394 16.3663 10.415 15.5853Z" stroke="black" stroke-width="1.5" stroke-linecap="round" stroke-linejoin="round" fill="none"></path></svg>