<svg xmlns="http://www.w3.org/2000/svg" xmlns:xlink="http://www.w3.org/1999/xlink" x="0px" y="0px" width="18px" height="18px" viewBox="0 0 18 18"><path d="M16.25 9.00001C16.25 13.0041 13.0041 16.25 9 16.25C8.02801 16.25 6.52723 16.1286 5.91507 15.2669L15.2549 5.927C16.0816 6.83495 16.25 7.77564 16.25 9.00001Z" fill="#000" fill-opacity="0.3" data-color="color-2" data-stroke="none"></path> <path fill-rule="evenodd" clip-rule="evenodd" d="M14.1265 3.87346C12.8145 2.56148 11.002 1.75 9 1.75C4.99594 1.75 1.75 4.99594 1.75 9C1.75 11.002 2.56148 12.8145 3.87346 14.1265L14.1265 3.87346Z" fill="#000" fill-opacity="0.3" data-color="color-2" data-stroke="none"></path> <path d="M9 4.25V1.75" stroke="black" stroke-width="1.5" stroke-linecap="round" stroke-linejoin="round" fill="none"></path> <path d="M13.75 9H16.25" stroke="black" stroke-width="1.5" stroke-linecap="round" stroke-linejoin="round" fill="none"></path> <path d="M9 13.75V16.25" stroke="black" stroke-width="1.5" stroke-linecap="round" stroke-linejoin="round" fill="none"></path> <path d="M4.25 9H1.75" stroke="black" stroke-width="1.5" stroke-linecap="round" stroke-linejoin="round" fill="none"></path> <path d="M3.874 14.127C2.562 12.815 1.75 11.002 1.75 9C1.75 4.996 4.996 1.75 9 1.75C11.002 1.75 12.815 2.561 14.127 3.873" stroke="black" stroke-width="1.5" stroke-linecap="round" stroke-linejoin="round" fill="none"></path> <path d="M2 16L16 2" stroke="black" stroke-width="1.5" stroke-linecap="round" stroke-linejoin="round" fill="none"></path> <path d="M6.45911 15.7832C7.25081 16.0798 8.10451 16.25 9.00001 16.25C13.004 16.25 16.25 13.0039 16.25 9.00001C16.25 8.10451 16.0798 7.25101 15.7831 6.45901" stroke="black" stroke-width="1.5" stroke-linecap="round" stroke-linejoin="round" fill="none"></path></svg>