<svg xmlns="http://www.w3.org/2000/svg" xmlns:xlink="http://www.w3.org/1999/xlink" x="0px" y="0px" width="18px" height="18px" viewBox="0 0 18 18"><path d="M14.25 12.25C14.161 11.551 13.932 10.49 13.281 9.375C12.946 8.801 12.578 8.347 12.25 8V3.75C12.25 2.645 11.355 1.75 10.25 1.75H7.75C6.645 1.75 5.75 2.645 5.75 3.75V8C5.421 8.347 5.053 8.801 4.719 9.375C4.069 10.49 3.839 11.551 3.75 12.25H14.25Z" fill="#000" fill-opacity="0.3" data-color="color-2" data-stroke="none"></path> <path d="M9 16.25V12.25" stroke="black" stroke-width="1.5" stroke-linecap="round" stroke-linejoin="round" fill="none"></path> <path d="M14.25 12.25C14.161 11.551 13.932 10.49 13.281 9.375C12.946 8.801 12.578 8.347 12.25 8V3.75C12.25 2.645 11.355 1.75 10.25 1.75H7.75C6.645 1.75 5.75 2.645 5.75 3.75V8C5.421 8.347 5.053 8.801 4.719 9.375C4.069 10.49 3.839 11.551 3.75 12.25H14.25Z" stroke="black" stroke-width="1.5" stroke-linecap="round" stroke-linejoin="round" fill="none"></path></svg>