<svg xmlns="http://www.w3.org/2000/svg" xmlns:xlink="http://www.w3.org/1999/xlink" x="0px" y="0px" width="18px" height="18px" viewBox="0 0 18 18"><path d="M3.75 10.239C4.533 10.067 5.725 9.90201 7.125 10.125C8.438 10.334 8.948 10.729 10.035 10.909C10.978 11.065 12.384 11.065 14.25 10.239V3.25001C12.46 4.21201 11.114 4.25901 10.219 4.12501C9.054 3.95101 8.538 3.45601 7.125 3.18701C5.732 2.92201 4.531 3.08101 3.75 3.24901" fill="#000" fill-opacity="0.3" data-color="color-2" data-stroke="none"></path> <path d="M3.75 10.239C4.533 10.067 5.725 9.90201 7.125 10.125C8.438 10.334 8.948 10.729 10.035 10.909C10.978 11.065 12.384 11.065 14.25 10.239V3.25001C12.46 4.21201 11.114 4.25901 10.219 4.12501C9.054 3.95101 8.538 3.45601 7.125 3.18701C5.732 2.92201 4.531 3.08101 3.75 3.24901" stroke="black" stroke-width="1.5" stroke-linecap="round" stroke-linejoin="round" fill="none"></path> <path d="M3.75 1.75V16.25" stroke="black" stroke-width="1.5" stroke-linecap="round" stroke-linejoin="round" fill="none"></path></svg>