<svg xmlns="http://www.w3.org/2000/svg" xmlns:xlink="http://www.w3.org/1999/xlink" x="0px" y="0px" width="18px" height="18px" viewBox="0 0 18 18"><path d="M9 8.25C10.7949 8.25 12.25 6.79493 12.25 5C12.25 3.20507 10.7949 1.75 9 1.75C7.20507 1.75 5.75 3.20507 5.75 5C5.75 6.79493 7.20507 8.25 9 8.25Z" fill="#000" fill-opacity="0.3" data-color="color-2" data-stroke="none"></path> <path d="M9 8.25C10.7949 8.25 12.25 6.79493 12.25 5C12.25 3.20507 10.7949 1.75 9 1.75C7.20507 1.75 5.75 3.20507 5.75 5C5.75 6.79493 7.20507 8.25 9 8.25Z" stroke="black" stroke-width="1.5" stroke-linecap="round" stroke-linejoin="round" fill="none"></path> <path d="M9 13.25V8.25" stroke="black" stroke-width="1.5" stroke-linecap="round" stroke-linejoin="round" fill="none"></path> <path d="M15.25 16.25H2.75" stroke="black" stroke-width="1.5" stroke-linecap="round" stroke-linejoin="round" fill="none"></path></svg>