<svg xmlns="http://www.w3.org/2000/svg" xmlns:xlink="http://www.w3.org/1999/xlink" x="0px" y="0px" width="18px" height="18px" viewBox="0 0 18 18"><path d="M2.533 3.576L5.965 2.813C6.151 2.772 6.345 2.784 6.524 2.849L11.476 4.65C11.655 4.715 11.849 4.728 12.035 4.686L15.033 4.02C15.658 3.881 16.25 4.356 16.25 4.996V13.448C16.25 13.917 15.924 14.323 15.467 14.424L12.035 15.187C11.849 15.228 11.655 15.216 11.476 15.151L6.524 13.35C6.345 13.285 6.151 13.272 5.965 13.314L2.967 13.98C2.342 14.119 1.75 13.644 1.75 13.004V4.552C1.75 4.083 2.076 3.677 2.533 3.576Z" fill="#000" fill-opacity="0.3" data-color="color-2" data-stroke="none"></path> <path d="M2.533 3.576L5.965 2.813C6.151 2.772 6.345 2.784 6.524 2.849L11.476 4.65C11.655 4.715 11.849 4.728 12.035 4.686L15.033 4.02C15.658 3.881 16.25 4.356 16.25 4.996V13.448C16.25 13.917 15.924 14.323 15.467 14.424L12.035 15.187C11.849 15.228 11.655 15.216 11.476 15.151L6.524 13.35C6.345 13.285 6.151 13.272 5.965 13.314L2.967 13.98C2.342 14.119 1.75 13.644 1.75 13.004V4.552C1.75 4.083 2.076 3.677 2.533 3.576Z" stroke="black" stroke-width="1.5" stroke-linecap="round" stroke-linejoin="round" fill="none"></path> <path d="M10.75 7.75L13.75 10.75" stroke="black" stroke-width="1.5" stroke-linecap="round" stroke-linejoin="round" fill="none"></path> <path d="M13.75 7.75L10.75 10.75" stroke="black" stroke-width="1.5" stroke-linecap="round" stroke-linejoin="round" fill="none"></path> <path d="M7.75 9.25H8.75" stroke="black" stroke-width="1.5" stroke-linecap="round" stroke-linejoin="round" fill="none"></path> <path d="M4.25 9.25H5.25" stroke="black" stroke-width="1.5" stroke-linecap="round" stroke-linejoin="round" fill="none"></path></svg>