<svg xmlns="http://www.w3.org/2000/svg" xmlns:xlink="http://www.w3.org/1999/xlink" x="0px" y="0px" width="20px" height="20px" viewBox="0 0 20 20"><path d="m10,2C5.589,2,2,5.589,2,10c0,1.44.388,2.789,1.057,3.958l-1.018,3.055c-.09.27-.02.567.181.768.143.143.334.22.53.22.08,0,.16-.013.237-.039l3.055-1.018c1.169.669,2.518,1.057,3.958,1.057,4.411,0,8-3.589,8-8S14.411,2,10,2Zm0,11h-3c-.553,0-1-.448-1-1s.447-1,1-1h3c.553,0,1,.448,1,1s-.447,1-1,1Zm3,0c-.552,0-1-.448-1-1s.448-1,1-1,1,.448,1,1-.448,1-1,1Z" stroke-width="0" fill="#000"></path></svg>