<svg xmlns="http://www.w3.org/2000/svg" xmlns:xlink="http://www.w3.org/1999/xlink" x="0px" y="0px" width="20px" height="20px" viewBox="0 0 20 20"><circle cx="6.75" cy="9.25" r="1.25" fill="#000" stroke-width="0" data-color="color-2"></circle><circle cx="13.25" cy="9.25" r="1.25" fill="#000" stroke-width="0" data-color="color-2"></circle><path d="m8.667,11.333h2.667c.368,0,.667.299.667.667h0c0,1.104-.896,2-2,2h0c-1.104,0-2-.896-2-2h0c0-.368.299-.667.667-.667Z" fill="#000" stroke-width="0" data-color="color-2"></path><path d="m3,7v-1c0-1.657,1.343-3,3-3h1" fill="none" stroke="#000" stroke-linecap="round" stroke-linejoin="round" stroke-width="2"></path><path d="m7,17h-1c-1.657,0-3-1.343-3-3v-1" fill="none" stroke="#000" stroke-linecap="round" stroke-linejoin="round" stroke-width="2"></path><path d="m17,13v1c0,1.657-1.343,3-3,3h-1" fill="none" stroke="#000" stroke-linecap="round" stroke-linejoin="round" stroke-width="2"></path><path d="m13,3h1c1.657,0,3,1.343,3,3v1" fill="none" stroke="#000" stroke-linecap="round" stroke-linejoin="round" stroke-width="2"></path></svg>