<svg xmlns="http://www.w3.org/2000/svg" xmlns:xlink="http://www.w3.org/1999/xlink" x="0px" y="0px" width="20px" height="20px" viewBox="0 0 20 20"><path d="m8,3h-2c-.5522,0-1-.4478-1-1s.4478-1,1-1h2c.5522,0,1,.4478,1,1s-.4478,1-1,1Z" fill="#000" stroke-width="0" data-color="color-2"></path><path d="m14,4H6c-2.2056,0-4,1.7944-4,4v5c0,2.2056,1.7944,4,4,4h8c2.2056,0,4-1.7944,4-4v-5c0-2.2056-1.7944-4-4-4Zm-8.25,5c-.6904,0-1.25-.5596-1.25-1.25s.5596-1.25,1.25-1.25,1.25.5596,1.25,1.25-.5596,1.25-1.25,1.25Zm6.25,4.5c-1.6569,0-3-1.3431-3-3s1.3431-3,3-3,3,1.3431,3,3-1.3431,3-3,3Z" stroke-width="0" fill="#000"></path></svg>