<svg xmlns="http://www.w3.org/2000/svg" xmlns:xlink="http://www.w3.org/1999/xlink" x="0px" y="0px" width="20px" height="20px" viewBox="0 0 20 20"><path d="m14,4h-.4419l-.3818-.8335c-.3247-.7085-1.0386-1.1665-1.8179-1.1665h-2.7168c-.7793,0-1.4932.458-1.8184,1.167l-.3813.833h-.4419c-2.2056,0-4,1.7944-4,4v5c0,2.2056,1.7944,4,4,4h8c2.2056,0,4-1.7944,4-4v-5c0-2.2056-1.7944-4-4-4Zm-4,10c-1.933,0-3.5-1.567-3.5-3.5s1.567-3.5,3.5-3.5,3.5,1.567,3.5,3.5-1.567,3.5-3.5,3.5Z" stroke-width="0" fill="#000"></path></svg>