<svg xmlns="http://www.w3.org/2000/svg" xmlns:xlink="http://www.w3.org/1999/xlink" x="0px" y="0px" width="24px" height="24px" viewBox="0 0 24 24"> <path d="M10.5 7C9.11929 7 8 8.11929 8 9.5V20.5C8 21.8807 9.11929 23 10.5 23H19.5C20.8807 23 22 21.8807 22 20.5V9.5C22 8.11929 20.8807 7 19.5 7H10.5Z" fill="black"></path> <path d="M2 3.5C2 2.11929 3.11929 1 4.5 1H13.5C14.8807 1 16 2.11929 16 3.5V5H10.5C8.01472 5 6 7.01472 6 9.5V17H4.5C3.11929 17 2 15.8807 2 14.5V3.5Z" fill="#000" data-color="color-2"></path> </svg>