<svg xmlns="http://www.w3.org/2000/svg" xmlns:xlink="http://www.w3.org/1999/xlink" x="0px" y="0px" width="32px" height="32px" viewBox="0 0 32 32"> <path fill-rule="evenodd" clip-rule="evenodd" d="M14 19H18C20.2091 19 22 20.7909 22 23C22 25.2091 20.2091 27 18 27H16V30H14V19ZM16 25H18C19.1046 25 20 24.1046 20 23C20 21.8954 19.1046 21 18 21H16V25Z" fill="#000" data-color="color-2"></path> <path fill-rule="evenodd" clip-rule="evenodd" d="M2 19H4.52395L7 22.5765L9.47605 19H12V30H10V21.7568L7 26.0902L4 21.7568V30H2V19Z" fill="#000" data-color="color-2"></path> <path fill-rule="evenodd" clip-rule="evenodd" d="M28.0261 19H29.9999L29.9999 25H31V27H30L29.9999 30L27.9999 30L27.9999 27H23V25.143L28.0261 19ZM27.9999 25L27.9999 22.1904L25.7012 25H27.9999Z" fill="#000" data-color="color-2"></path> <path fill-rule="evenodd" clip-rule="evenodd" d="M13.2426 1C12.1818 1 11.1644 1.42143 10.4142 2.17157L4.17157 8.41421C3.42143 9.16436 3 10.1818 3 11.2426V17H29V5C29 2.79086 27.2091 1 25 1H13.2426ZM13 11V3L5 11H13Z" fill="black"></path> </svg>