<svg xmlns="http://www.w3.org/2000/svg" xmlns:xlink="http://www.w3.org/1999/xlink" x="0px" y="0px" width="32px" height="32px" viewBox="0 0 32 32"> <path fill-rule="evenodd" clip-rule="evenodd" d="M27 25V8C27 5.23858 24.7614 3 22 3H9V1H22C25.866 1 29 4.13401 29 8V25H27Z" fill="#000" data-color="color-2"></path> <path fill-rule="evenodd" clip-rule="evenodd" d="M21 31C23.2091 31 25 29.2091 25 27V9C25 6.79086 23.2091 5 21 5H7C4.79086 5 3 6.79086 3 9V27C3 29.2091 4.79086 31 7 31H21ZM8 16H20V18H8V16ZM8 11V13H15V11H8ZM17 11H20V13H17V11ZM8 21V23H13V21H8Z" fill="black"></path> </svg>