<svg xmlns="http://www.w3.org/2000/svg" xmlns:xlink="http://www.w3.org/1999/xlink" x="0px" y="0px" width="48px" height="48px" viewBox="0 0 48 48"> <path d="M31.5 32.5C33.433 32.5 35 30.933 35 29C35 27.067 33.433 25.5 31.5 25.5C29.567 25.5 28 27.067 28 29C28 30.933 29.567 32.5 31.5 32.5Z" fill="#000" data-color="color-2"></path> <path d="M41 33C42.6569 33 44 31.6569 44 30C44 28.3431 42.6569 27 41 27C39.3431 27 38 28.3431 38 30C38 31.6569 39.3431 33 41 33Z" fill="#000" data-color="color-2"></path> <path fill-rule="evenodd" clip-rule="evenodd" d="M23 43C23 38.3056 26.8056 34.5 31.5 34.5C36.1944 34.5 40 38.3056 40 43H23Z" fill="#000" data-color="color-2"></path> <path d="M42.957 42H47.9999C47.9999 38.134 44.8659 35 40.9999 35H39.7612C41.5488 36.8456 42.7234 39.2883 42.957 42Z" fill="#000" data-color="color-2"></path> <path d="M8 4C4.68629 4 2 6.68629 2 10V36C2 39.3137 4.68629 42 8 42H20.0429C20.3891 37.981 22.8023 34.5529 26.2144 32.784C25.45 31.7182 25 30.4116 25 29C25 25.4101 27.9101 22.5 31.5 22.5C33.814 22.5 35.8456 23.7092 36.9974 25.5301C38.0592 24.5787 39.462 24 41 24C43.087 24 44.9251 25.0655 46 26.6822V16C46 12.6863 43.3137 10 40 10H27.3333L19.3333 4H8Z" fill="black"></path> </svg>