<svg xmlns="http://www.w3.org/2000/svg" xmlns:xlink="http://www.w3.org/1999/xlink" x="0px" y="0px" width="48px" height="48px" viewBox="0 0 48 48"> <path fill-rule="evenodd" clip-rule="evenodd" d="M38.5762 24.8727C40.3853 23.0636 43.3184 23.0636 45.1274 24.8727C46.9365 26.6818 46.9365 29.6149 45.1275 31.4239L33.0515 43.5L25.8921 44.108L26.5002 36.9487L38.5762 24.8727Z" fill="#000" data-color="color-2"></path> <path d="M2 10C2 6.68629 4.68629 4 8 4H19.3333L27.3333 10H40C43.3137 10 46 12.6863 46 16V21.7398C43.0424 19.8211 39.0477 20.1583 36.4546 22.7514L24.3786 34.8273C23.8781 35.3279 23.5706 35.9894 23.5107 36.6948L23.0601 42H8C4.68629 42 2 39.3137 2 36V10Z" fill="black"></path> </svg>