<svg xmlns="http://www.w3.org/2000/svg" xmlns:xlink="http://www.w3.org/1999/xlink" x="0px" y="0px" width="18px" height="18px" viewBox="0 0 18 18"><circle cx="9" cy="7.75" r="2" fill="none" stroke="#000" stroke-linecap="round" stroke-linejoin="round" stroke-width="1.5" data-color="color-2"></circle><path d="M5.539,14.243c.693-1.192,1.983-1.993,3.461-1.993s2.768,.801,3.461,1.993" fill="none" stroke="#000" stroke-linecap="round" stroke-linejoin="round" stroke-width="1.5" data-color="color-2"></path><path d="M15.25,11.473V6.527c0-.713-.38-1.372-.997-1.73l-4.25-2.465c-.621-.36-1.386-.36-2.007,0L3.747,4.797c-.617,.358-.997,1.017-.997,1.73v4.946c0,.713,.38,1.372,.997,1.73l4.25,2.465c.621,.36,1.386,.36,2.007,0l4.25-2.465c.617-.358,.997-1.017,.997-1.73Z" fill="none" stroke="#000" stroke-linecap="round" stroke-linejoin="round" stroke-width="1.5"></path></svg>