<svg xmlns="http://www.w3.org/2000/svg" xmlns:xlink="http://www.w3.org/1999/xlink" x="0px" y="0px" width="18px" height="18px" viewBox="0 0 18 18"><circle cx="4.5" cy="10.25" r="1.75" fill="none" stroke="#000" stroke-linecap="round" stroke-linejoin="round" stroke-width="1.5"></circle><path d="M1.145,16.75c.43-1.446,1.77-2.5,3.355-2.5,1.585,0,2.925,1.054,3.355,2.5" fill="none" stroke="#000" stroke-linecap="round" stroke-linejoin="round" stroke-width="1.5"></path><circle cx="13.5" cy="3.005" r="1.75" fill="none" stroke="#000" stroke-linecap="round" stroke-linejoin="round" stroke-width="1.5"></circle><path d="M10.145,9.505c.43-1.446,1.77-2.5,3.355-2.5,1.585,0,2.925,1.054,3.355,2.5" fill="none" stroke="#000" stroke-linecap="round" stroke-linejoin="round" stroke-width="1.5"></path><path d="M7.25,2.75h-2c-1.381,0-2.5,1.119-2.5,2.5v.75" fill="none" stroke="#000" stroke-linecap="round" stroke-linejoin="round" stroke-width="1.5" data-color="color-2"></path><polyline points="5.75 .75 7.75 2.75 5.75 4.75" fill="none" stroke="#000" stroke-linecap="round" stroke-linejoin="round" stroke-width="1.5" data-color="color-2"></polyline><path d="M10.75,15.25h2c1.381,0,2.5-1.119,2.5-2.5v-.75" fill="none" stroke="#000" stroke-linecap="round" stroke-linejoin="round" stroke-width="1.5" data-color="color-2"></path><polyline points="12.25 17.25 10.25 15.25 12.25 13.25" fill="none" stroke="#000" stroke-linecap="round" stroke-linejoin="round" stroke-width="1.5" data-color="color-2"></polyline></svg>