<svg xmlns="http://www.w3.org/2000/svg" xmlns:xlink="http://www.w3.org/1999/xlink" x="0px" y="0px" width="18px" height="18px" viewBox="0 0 18 18"><path d="M9 9.2505C9.9669 9.2505 10.75 8.467 10.75 7.5005C10.75 6.534 9.9669 5.7505 9 5.7505C8.0331 5.7505 7.25 6.534 7.25 7.5005C7.25 8.467 8.0331 9.2505 9 9.2505Z" stroke="#000" stroke-width="1.5" stroke-linecap="round" stroke-linejoin="round" data-color="color-2" fill="none"></path> <path d="M5.03088 15.2505C5.27668 13.2771 6.95997 11.75 8.99997 11.75C11.04 11.75 12.7233 13.2771 12.9691 15.2505" stroke="#000" stroke-width="1.5" stroke-linecap="round" stroke-linejoin="round" data-color="color-2" fill="none"></path> <path d="M13.25 2.7505H4.75C3.645 2.7505 2.75 3.6455 2.75 4.7505V13.2505C2.75 14.3555 3.645 15.2505 4.75 15.2505H13.25C14.355 15.2505 15.25 14.3555 15.25 13.2505V4.7505C15.25 3.6455 14.355 2.7505 13.25 2.7505Z" stroke="black" stroke-width="1.5" stroke-linecap="round" stroke-linejoin="round" fill="none"></path></svg>