<svg xmlns="http://www.w3.org/2000/svg" xmlns:xlink="http://www.w3.org/1999/xlink" x="0px" y="0px" width="18px" height="18px" viewBox="0 0 18 18"><circle cx="3.75" cy="3.5" r="1.75" fill="none" stroke="#000" stroke-linecap="round" stroke-linejoin="round" stroke-width="1.5"></circle><path d="M5.75,12.75v1.5c0,.552-.448,1-1,1H2.75c-.552,0-1-.448-1-1v-4.5c0-1.105,.895-2,2-2h0c1.105,0,1.641,.66,2.109,1.734,.423,.969,1.287,1.406,1.961,1.604" fill="none" stroke="#000" stroke-linecap="round" stroke-linejoin="round" stroke-width="1.5"></path><path d="M12.25,12.75v1.5c0,.552,.448,1,1,1h2c.552,0,1-.448,1-1v-4.5c0-1.105-.895-2-2-2h0c-1.105,0-1.641,.66-2.109,1.734-.423,.969-1.287,1.406-1.961,1.604" fill="none" stroke="#000" stroke-linecap="round" stroke-linejoin="round" stroke-width="1.5" data-color="color-2"></path><circle cx="14.25" cy="3.5" r="1.75" fill="none" stroke="#000" stroke-linecap="round" stroke-linejoin="round" stroke-width="1.5" data-color="color-2"></circle></svg>