<svg xmlns="http://www.w3.org/2000/svg" xmlns:xlink="http://www.w3.org/1999/xlink" x="0px" y="0px" width="18px" height="18px" viewBox="0 0 18 18"><circle cx="9.001" cy="2.5" r="1.75" fill="none" stroke="#000" stroke-linecap="round" stroke-linejoin="round" stroke-width="1.5" data-color="color-2"></circle><path d="M13.076,13.617l-1.659-6.014c-.105-.382-.421-.664-.812-.726-.469-.073-1.008-.125-1.604-.125-.45,0-.99,.029-1.594,.123-.392,.061-.717,.344-.822,.726l-1.659,6.014c-.088,.318,.152,.633,.482,.633h1.593s.174,2.083,.174,2.083c.043,.518,.476,.917,.997,.917h1.66c.52,0,.953-.399,.997-.917l.174-2.083h1.593c.33,0,.57-.315,.482-.633Z" fill="none" stroke="#000" stroke-linecap="round" stroke-linejoin="round" stroke-width="1.5"></path></svg>