<svg xmlns="http://www.w3.org/2000/svg" xmlns:xlink="http://www.w3.org/1999/xlink" x="0px" y="0px" width="18px" height="18px" viewBox="0 0 18 18"><path d="M9 10.25C10.105 10.25 11 9.3546 11 8.25C11 7.1454 10.105 6.25 9 6.25C7.895 6.25 7 7.1454 7 8.25C7 9.3546 7.895 10.25 9 10.25Z" stroke="#000" stroke-width="1.5" stroke-linecap="round" stroke-linejoin="round" data-color="color-2" fill="none"></path> <path d="M5.03101 16.25C5.27701 14.277 6.96 12.75 9 12.75C11.04 12.75 12.723 14.277 12.969 16.25" stroke="#000" stroke-width="1.5" stroke-linecap="round" stroke-linejoin="round" data-color="color-2" fill="none"></path> <path d="M3.145 5.95L8.395 1.96C8.753 1.688 9.248 1.688 9.605 1.96L14.855 5.95C15.104 6.139 15.25 6.434 15.25 6.746V14.25C15.25 15.355 14.355 16.25 13.25 16.25H4.75C3.645 16.25 2.75 15.355 2.75 14.25V6.746C2.75 6.433 2.896 6.139 3.145 5.95Z" stroke="black" stroke-width="1.5" stroke-linecap="round" stroke-linejoin="round" fill="none"></path></svg>