<svg xmlns="http://www.w3.org/2000/svg" xmlns:xlink="http://www.w3.org/1999/xlink" x="0px" y="0px" width="18px" height="18px" viewBox="0 0 18 18"><path d="M9 7.2505C10.5188 7.2505 11.75 6.0195 11.75 4.5005C11.75 2.9815 10.5188 1.7505 9 1.7505C7.4812 1.7505 6.25 2.9815 6.25 4.5005C6.25 6.0195 7.4812 7.2505 9 7.2505Z" stroke="black" stroke-width="1.5" stroke-linecap="round" stroke-linejoin="round" fill="none"></path> <path d="M10.8782 10.0476C10.2859 9.8574 9.65649 9.7505 8.99999 9.7505C6.44899 9.7505 4.26099 11.2805 3.29099 13.4705C2.92599 14.2955 3.37799 15.2444 4.23799 15.5154C4.95779 15.7422 5.83108 15.9434 6.80828 16.0769" stroke="black" stroke-width="1.5" stroke-linecap="round" stroke-linejoin="round" fill="none"></path> <path d="M14.5 11.75C13.2297 11.75 12.1711 12.616 11.8553 13.7864C11.7405 13.7627 11.6217 13.75 11.5 13.75C10.5335 13.75 9.75 14.5335 9.75 15.5C9.75 16.4665 10.5335 17.25 11.5 17.25H14.5C16.0188 17.25 17.25 16.0187 17.25 14.5C17.25 12.9813 16.0188 11.75 14.5 11.75Z" stroke="#000" stroke-width="1.5" stroke-linecap="round" stroke-linejoin="round" data-color="color-2" fill="none"></path></svg>