<svg xmlns="http://www.w3.org/2000/svg" xmlns:xlink="http://www.w3.org/1999/xlink" x="0px" y="0px" width="18px" height="18px" viewBox="0 0 18 18"><path d="m9,9.7505c1.105,0,2-.8954,2-2s-.895-2-2-2-2,.8954-2,2,.895,2,2,2Z" fill="none" stroke="#000" stroke-linecap="round" stroke-linejoin="round" stroke-width="1.5" data-color="color-2"></path><path d="m5.154,15.1475c.479-1.673,2.019-2.897,3.846-2.897s3.367,1.224,3.846,2.897" fill="none" stroke="#000" stroke-linecap="round" stroke-linejoin="round" stroke-width="1.5" data-color="color-2"></path><path d="m9.9606,1.8208c-.3151-.0417-.6341-.0708-.9606-.0708C4.996,1.75,1.75,4.9958,1.75,9s3.246,7.25,7.25,7.25,7.25-3.2461,7.25-7.25c0-.5928-.0789-1.1655-.2131-1.717" fill="none" stroke="#000" stroke-linecap="round" stroke-linejoin="round" stroke-width="1.5"></path><polyline points="12.2436 3.75 13.8526 5.25 16.75 1.5" fill="none" stroke="#000" stroke-linecap="round" stroke-linejoin="round" stroke-width="1.5" data-color="color-2"></polyline></svg>