<svg xmlns="http://www.w3.org/2000/svg" xmlns:xlink="http://www.w3.org/1999/xlink" x="0px" y="0px" width="18px" height="18px" viewBox="0 0 18 18"><path d="M9,4.75v-.75c0-.966,.784-1.75,1.75-1.75h1.75c.793,0,1.462-.527,1.677-1.25" fill="none" stroke="#000" stroke-linecap="round" stroke-linejoin="round" stroke-width="1.5"></path><circle cx="10.75" cy="9.75" r=".75" fill="#000" data-color="color-2" data-stroke="none"></circle><circle cx="12.25" cy="7.75" r=".75" fill="#000" data-color="color-2" data-stroke="none"></circle><line x1="6.25" y1="7.5" x2="6.25" y2="10" fill="none" stroke="#000" stroke-linecap="round" stroke-linejoin="round" stroke-width="1.5" data-color="color-2"></line><line x1="7.5" y1="8.75" x2="5" y2="8.75" fill="none" stroke="#000" stroke-linecap="round" stroke-linejoin="round" stroke-width="1.5" data-color="color-2"></line><path d="M16.914,12.986l-1.993-6.799c-.25-.852-1.031-1.438-1.919-1.438H4.998c-.888,0-1.669,.585-1.919,1.438l-1.993,6.799c-.051,.163-.086,.333-.086,.514,0,.967,.784,1.75,1.75,1.75,.584,0,1.098-.289,1.415-.728l1.272-1.772h7.124l1.272,1.772c.318,.439,.832,.728,1.415,.728,.966,0,1.75-.783,1.75-1.75,0-.18-.035-.35-.086-.514Z" fill="none" stroke="#000" stroke-linecap="round" stroke-linejoin="round" stroke-width="1.5"></path></svg>