<svg xmlns="http://www.w3.org/2000/svg" xmlns:xlink="http://www.w3.org/1999/xlink" x="0px" y="0px" width="18px" height="18px" viewBox="0 0 18 18"><line x1="5.25" y1="6.545" x2="2.269" y2="4.925" fill="none" stroke="#000" stroke-linecap="round" stroke-linejoin="round" stroke-width="1.5" data-color="color-2"></line><line x1="6.545" y1="5.247" x2="4.925" y2="2.269" fill="none" stroke="#000" stroke-linecap="round" stroke-linejoin="round" stroke-width="1.5" data-color="color-2"></line><line x1="11.455" y1="5.25" x2="13.075" y2="2.269" fill="none" stroke="#000" stroke-linecap="round" stroke-linejoin="round" stroke-width="1.5" data-color="color-2"></line><line x1="12.753" y1="6.545" x2="15.731" y2="4.925" fill="none" stroke="#000" stroke-linecap="round" stroke-linejoin="round" stroke-width="1.5" data-color="color-2"></line><line x1="12.75" y1="11.455" x2="15.731" y2="13.075" fill="none" stroke="#000" stroke-linecap="round" stroke-linejoin="round" stroke-width="1.5" data-color="color-2"></line><line x1="11.455" y1="12.753" x2="13.075" y2="15.731" fill="none" stroke="#000" stroke-linecap="round" stroke-linejoin="round" stroke-width="1.5" data-color="color-2"></line><line x1="6.545" y1="12.75" x2="4.925" y2="15.731" fill="none" stroke="#000" stroke-linecap="round" stroke-linejoin="round" stroke-width="1.5" data-color="color-2"></line><line x1="5.247" y1="11.455" x2="2.269" y2="13.075" fill="none" stroke="#000" stroke-linecap="round" stroke-linejoin="round" stroke-width="1.5" data-color="color-2"></line><polygon points="6.545 12.75 5.25 11.455 5.25 6.545 6.545 5.25 11.455 5.25 12.75 6.545 12.75 11.455 11.455 12.75 6.545 12.75" fill="none" stroke="#000" stroke-linecap="round" stroke-linejoin="round" stroke-width="1.5" data-color="color-2"></polygon><path d="M4.412,15.457l-1.869-1.869c-.188-.188-.293-.442-.293-.707V5.119c0-.265,.105-.52,.293-.707l1.869-1.869c.188-.188,.442-.293,.707-.293h7.762c.265,0,.52,.105,.707,.293l1.869,1.869c.188,.188,.293,.442,.293,.707v7.762c0,.265-.105,.52-.293,.707l-1.869,1.869c-.188,.188-.442,.293-.707,.293H5.119c-.265,0-.52-.105-.707-.293Z" fill="none" stroke="#000" stroke-linecap="round" stroke-linejoin="round" stroke-width="1.5"></path></svg>