<svg xmlns="http://www.w3.org/2000/svg" xmlns:xlink="http://www.w3.org/1999/xlink" x="0px" y="0px" width="18px" height="18px" viewBox="0 0 18 18"><line x1="12.341" y1="5.659" x2="14" y2="4" fill="none" stroke="#000" stroke-linecap="round" stroke-linejoin="round" stroke-width="1.5" data-color="color-2"></line><line x1="15.75" y1="2.25" x2="16.5" y2="1.5" fill="none" stroke="#000" stroke-linecap="round" stroke-linejoin="round" stroke-width="1.5" data-color="color-2"></line><line x1="12.25" y1="1.75" x2="12.25" y2=".75" fill="none" stroke="#000" stroke-linecap="round" stroke-linejoin="round" stroke-width="1.5" data-color="color-2"></line><line x1="16.25" y1="5.75" x2="17.25" y2="5.75" fill="none" stroke="#000" stroke-linecap="round" stroke-linejoin="round" stroke-width="1.5" data-color="color-2"></line><path d="M13.5,7.157c-.256-.435-.643-.993-1.212-1.551-.519-.509-1.033-.864-1.445-1.106l-1.333,1.333c-.759-.37-1.609-.583-2.51-.583-3.176,0-5.75,2.574-5.75,5.75s2.574,5.75,5.75,5.75,5.75-2.574,5.75-5.75c0-.901-.213-1.751-.583-2.51,.534-.533,.799-.799,1.333-1.333Z" fill="none" stroke="#000" stroke-linecap="round" stroke-linejoin="round" stroke-width="1.5"></path></svg>