<svg xmlns="http://www.w3.org/2000/svg" xmlns:xlink="http://www.w3.org/1999/xlink" x="0px" y="0px" width="18px" height="18px" viewBox="0 0 18 18"><path d="M9 6.25C10.243 6.25 11.25 5.2426 11.25 4C11.25 2.7574 10.243 1.75 9 1.75C7.757 1.75 6.75 2.7574 6.75 4C6.75 5.2426 7.757 6.25 9 6.25Z" stroke="#000" stroke-width="1.5" stroke-linecap="round" stroke-linejoin="round" data-color="color-2" fill="none"></path> <path d="M9 6.25V10.25" stroke="#000" stroke-width="1.5" stroke-linecap="round" stroke-linejoin="round" data-color="color-2" fill="none"></path> <path d="M11.998 8.6122L13.775 9.487C14.408 9.798 14.408 10.701 13.775 11.012L9.43698 13.147C9.29898 13.215 9.14898 13.249 8.99898 13.249C8.84898 13.249 8.69898 13.215 8.56098 13.147L4.22298 11.012C3.58998 10.701 3.58998 9.798 4.22298 9.487L5.99998 8.6122" stroke="black" stroke-width="1.5" stroke-linecap="round" stroke-linejoin="round" fill="none"></path> <path d="M14.25 10.25V13.25C14.25 13.553 14.092 13.857 13.775 14.013L9.43698 16.148C9.16098 16.284 8.83698 16.284 8.56098 16.148L4.22298 14.013C3.90698 13.857 3.74799 13.554 3.74799 13.25V10.25" stroke="black" stroke-width="1.5" stroke-linecap="round" stroke-linejoin="round" fill="none"></path></svg>