<svg xmlns="http://www.w3.org/2000/svg" xmlns:xlink="http://www.w3.org/1999/xlink" x="0px" y="0px" width="18px" height="18px" viewBox="0 0 18 18"><line x1="9" y1="1.75" x2="9" y2="16.25" fill="none" stroke="#000" stroke-linecap="round" stroke-linejoin="round" stroke-width="1.5" data-color="color-2"></line><line x1="2.75" y1="8.25" x2="15.25" y2="8.25" fill="none" stroke="#000" stroke-linecap="round" stroke-linejoin="round" stroke-width="1.5" data-color="color-2"></line><line x1="9" y1="8.25" x2="12.24" y2="11.49" fill="none" stroke="#000" stroke-linecap="round" stroke-linejoin="round" stroke-width="1.5" data-color="color-2"></line><path d="M7.25,4.75c-.966,0-1.75,.783-1.75,1.75s.784,1.75,1.75,1.75h1.75v-1.75c0-.967-.784-1.75-1.75-1.75Z" fill="none" stroke="#000" stroke-linecap="round" stroke-linejoin="round" stroke-width="1.5" data-color="color-2"></path><line x1="9" y1="8.25" x2="5.76" y2="11.49" fill="none" stroke="#000" stroke-linecap="round" stroke-linejoin="round" stroke-width="1.5" data-color="color-2"></line><path d="M10.75,4.75c.966,0,1.75,.783,1.75,1.75s-.784,1.75-1.75,1.75h-1.75v-1.75c0-.967,.784-1.75,1.75-1.75Z" fill="none" stroke="#000" stroke-linecap="round" stroke-linejoin="round" stroke-width="1.5" data-color="color-2"></path><rect x="1.75" y="2.75" width="14.5" height="12.5" rx="2" ry="2" transform="translate(0 18) rotate(-90)" fill="none" stroke="#000" stroke-linecap="round" stroke-linejoin="round" stroke-width="1.5"></rect></svg>