<svg xmlns="http://www.w3.org/2000/svg" xmlns:xlink="http://www.w3.org/1999/xlink" x="0px" y="0px" width="18px" height="18px" viewBox="0 0 18 18"><path d="M10.768 3.98199C10.316 3.52999 9.69099 3.25 8.99999 3.25C8.30999 3.25 7.68499 3.52999 7.23199 3.98199" stroke="#000" stroke-width="1.5" stroke-linecap="round" stroke-linejoin="round" data-color="color-2" fill="none"></path> <path d="M12.536 2.214C11.631 1.309 10.381 0.75 8.99999 0.75C7.61899 0.75 6.36899 1.31 5.46399 2.214" stroke="#000" stroke-width="1.5" stroke-linecap="round" stroke-linejoin="round" data-color="color-2" fill="none"></path> <path d="M9 6.5C9.4142 6.5 9.75 6.164 9.75 5.75C9.75 5.336 9.4142 5 9 5C8.5858 5 8.25 5.336 8.25 5.75C8.25 6.164 8.5858 6.5 9 6.5Z" fill="#000" data-color="color-2" data-stroke="none"></path> <path d="M14.1325 4.75H14.25C15.355 4.75 16.25 5.645 16.25 6.75V13.75C16.25 14.855 15.355 15.75 14.25 15.75H3.75C2.645 15.75 1.75 14.855 1.75 13.75V6.75C1.75 5.645 2.645 4.75 3.75 4.75H3.8672" stroke="black" stroke-width="1.5" stroke-linecap="round" stroke-linejoin="round" fill="none"></path> <path d="M1.75 8.75H16.25" stroke="black" stroke-width="1.5" stroke-linecap="round" stroke-linejoin="round" fill="none"></path> <path d="M4.25 12.75H7.25" stroke="black" stroke-width="1.5" stroke-linecap="round" stroke-linejoin="round" fill="none"></path> <path d="M12.75 12.75H13.75" stroke="black" stroke-width="1.5" stroke-linecap="round" stroke-linejoin="round" fill="none"></path></svg>