<svg xmlns="http://www.w3.org/2000/svg" xmlns:xlink="http://www.w3.org/1999/xlink" x="0px" y="0px" width="18px" height="18px" viewBox="0 0 18 18"><rect x="7" y="5" width="4" height="3" fill="#000" data-color="color-2" data-stroke="none"></rect><path d="M7,10v2.499c0,.202,.122,.385,.309,.462,.187,.079,.401,.035,.545-.108l1.146-1.146,1.146,1.146c.096,.096,.224,.146,.354,.146,.064,0,.13-.012,.191-.038,.187-.077,.309-.26,.309-.462v-2.499H7Z" fill="#000" data-color="color-2" data-stroke="none"></path><path d="M3.75,3.5c0-.966,.784-1.75,1.75-1.75,2.589,0,3.5,3.5,3.5,3.5h-3.5c-.966,0-1.75-.784-1.75-1.75Z" fill="none" stroke="#000" stroke-linecap="round" stroke-linejoin="round" stroke-width="1.5" data-color="color-2"></path><path d="M12.5,5.25h-3.5s.911-3.5,3.5-3.5c.966,0,1.75,.784,1.75,1.75s-.784,1.75-1.75,1.75Z" fill="none" stroke="#000" stroke-linecap="round" stroke-linejoin="round" stroke-width="1.5" data-color="color-2"></path><path d="M14.25,8.25v6c0,1.105-.895,2-2,2H5.75c-1.105,0-2-.895-2-2v-6" fill="none" stroke="#000" stroke-linecap="round" stroke-linejoin="round" stroke-width="1.5"></path><rect x="1.75" y="5.25" width="14.5" height="3" rx="1" ry="1" fill="none" stroke="#000" stroke-linecap="round" stroke-linejoin="round" stroke-width="1.5"></rect></svg>