<svg xmlns="http://www.w3.org/2000/svg" xmlns:xlink="http://www.w3.org/1999/xlink" x="0px" y="0px" width="18px" height="18px" viewBox="0 0 18 18"><path d="M9.5,14.25H3.75c-1.105,0-2-.895-2-2V4.75c0-1.105,.895-2,2-2H14.25c1.105,0,2,.895,2,2v2" fill="none" stroke="#000" stroke-linecap="round" stroke-linejoin="round" stroke-width="1.5"></path><line x1="1.75" y1="6.75" x2="16.25" y2="6.75" fill="none" stroke="#000" stroke-linecap="round" stroke-linejoin="round" stroke-width="1.5"></line><line x1="4.25" y1="11.25" x2="7.25" y2="11.25" fill="none" stroke="#000" stroke-linecap="round" stroke-linejoin="round" stroke-width="1.5"></line><path d="M14.018,14.768c.452-.452,.732-1.077,.732-1.768,0-.69-.28-1.315-.732-1.768" fill="none" stroke="#000" stroke-linecap="round" stroke-linejoin="round" stroke-width="1.5" data-color="color-2"></path><path d="M15.786,16.536c.905-.905,1.464-2.155,1.464-3.536,0-1.381-.56-2.631-1.464-3.536" fill="none" stroke="#000" stroke-linecap="round" stroke-linejoin="round" stroke-width="1.5" data-color="color-2"></path><circle cx="12.25" cy="13" r=".75" fill="#000" data-color="color-2" data-stroke="none"></circle></svg>