<svg xmlns="http://www.w3.org/2000/svg" xmlns:xlink="http://www.w3.org/1999/xlink" x="0px" y="0px" width="18px" height="18px" viewBox="0 0 18 18"><path d="M1.75 1.75L3.101 2.088C3.494 2.186 3.78901 2.51199 3.84801 2.91299L4.92731 10.25" stroke="black" stroke-width="1.5" stroke-linecap="round" stroke-linejoin="round" fill="none"></path> <path d="M8.29932 4.75H4.11804" stroke="black" stroke-width="1.5" stroke-linecap="round" stroke-linejoin="round" fill="none"></path> <path d="M15.25 13.25H4.75C3.9216 13.25 3.25 12.5784 3.25 11.75C3.25 10.9216 3.9216 10.25 4.75 10.25H13.0496C13.4108 10.25 13.7388 10.0559 13.9153 9.7507" stroke="black" stroke-width="1.5" stroke-linecap="round" stroke-linejoin="round" fill="none"></path> <path d="M4 17C4.552 17 5 16.552 5 16C5 15.448 4.552 15 4 15C3.448 15 3 15.448 3 16C3 16.552 3.448 17 4 17Z" fill="#000" data-color="color-2" data-stroke="none"></path> <path d="M14 17C14.552 17 15 16.552 15 16C15 15.448 14.552 15 14 15C13.448 15 13 15.448 13 16C13 16.552 13.448 17 14 17Z" fill="#000" data-color="color-2" data-stroke="none"></path> <path d="M14.25 3.25H16.75V0.75" stroke="#000" stroke-width="1.5" stroke-linecap="round" stroke-linejoin="round" data-color="color-2" fill="none"></path> <path d="M16 5.88699C15.499 6.41799 14.788 6.75 14 6.75C12.481 6.75 11.25 5.519 11.25 4C11.25 2.481 12.481 1.25 14 1.25C15.166 1.25 16.162 1.976 16.563 3" stroke="#000" stroke-width="1.5" stroke-linecap="round" stroke-linejoin="round" data-color="color-2" fill="none"></path></svg>