<svg xmlns="http://www.w3.org/2000/svg" xmlns:xlink="http://www.w3.org/1999/xlink" x="0px" y="0px" width="18px" height="18px" viewBox="0 0 18 18"><path d="M15.718,8.293l-1.468-1.468v-2.075c0-.552-.448-1-1-1h-2.075l-1.468-1.468c-.391-.39-1.024-.39-1.414,0l-1.468,1.468h-2.075c-.552,0-1,.448-1,1v2.075l-1.468,1.468c-.391,.39-.391,1.024,0,1.414l1.468,1.468v2.075c0,.552,.448,1,1,1h2.075l1.468,1.468c.391,.39,1.024,.39,1.414,0l1.468-1.468h2.075c.552,0,1-.448,1-1v-2.075l1.468-1.468c.391-.39,.391-1.024,0-1.414Z" fill="none" stroke="#000" stroke-linecap="round" stroke-linejoin="round" stroke-width="1.5"></path><circle cx="7" cy="7" r="1" fill="#000" data-color="color-2" data-stroke="none"></circle><circle cx="11" cy="11" r="1" fill="#000" data-color="color-2" data-stroke="none"></circle><line x1="6.75" y1="11.25" x2="11.25" y2="6.75" fill="none" stroke="#000" stroke-linecap="round" stroke-linejoin="round" stroke-width="1.5" data-color="color-2"></line></svg>