<svg xmlns="http://www.w3.org/2000/svg" xmlns:xlink="http://www.w3.org/1999/xlink" x="0px" y="0px" width="24px" height="24px" viewBox="0 0 24 24"> <path fill-rule="evenodd" clip-rule="evenodd" d="M4 11L4 21L2 21L2 11L4 11Z" fill="black"></path> <path d="M22 21L20 21L20 11L22 11L22 21Z" fill="black"></path> <path d="M19 10V9H22V13L13 13V9H16V10L19 10Z" fill="black"></path> <path d="M8 10V9H11V13L2 13V9H5V10L8 10Z" fill="black"></path> <path d="M19 3C20.6569 3 22 4.34315 22 6L22 7L2 7L2 6C2 4.34314 3.34315 3 5 3L19 3Z" fill="#000" data-color="color-2"></path> </svg>