<svg xmlns="http://www.w3.org/2000/svg" xmlns:xlink="http://www.w3.org/1999/xlink" x="0px" y="0px" width="24px" height="24px" viewBox="0 0 24 24"> <path fill-rule="evenodd" clip-rule="evenodd" d="M6 19V23H4V19H6Z" fill="#000" data-color="color-2"></path> <path fill-rule="evenodd" clip-rule="evenodd" d="M20 19V23H18V19H20Z" fill="#000" data-color="color-2"></path> <path fill-rule="evenodd" clip-rule="evenodd" d="M23 18V15C23 13.3431 21.6569 12 20 12L4 12C2.34315 12 1 13.3431 1 15V18C1 19.6569 2.34315 21 4 21L20 21C21.6569 21 23 19.6569 23 18ZM12 15.5C11.4477 15.5 11 15.9477 11 16.5C11 17.0523 11.4477 17.5 12 17.5C12.5523 17.5 13 17.0523 13 16.5C13 15.9477 12.5523 15.5 12 15.5Z" fill="black"></path> <path fill-rule="evenodd" clip-rule="evenodd" d="M12 1C8.68629 1 6 3.68629 6 7V10H18V7C18 3.68629 15.3137 1 12 1ZM14.4141 8L16.531 5.8831C16.241 5.26336 15.8276 4.7129 15.3223 4.26337L11.5857 8H14.4141Z" fill="#000" data-color="color-2"></path> </svg>