<svg xmlns="http://www.w3.org/2000/svg" xmlns:xlink="http://www.w3.org/1999/xlink" x="0px" y="0px" width="24px" height="24px" viewBox="0 0 24 24"> <path d="M8 23V20H16V23H8Z" fill="#000" data-color="color-2"></path> <path fill-rule="evenodd" clip-rule="evenodd" d="M12 4H15V6H12V4Z" fill="black"></path> <path fill-rule="evenodd" clip-rule="evenodd" d="M7 4C7 2.34315 8.34315 1 10 1C11.6569 1 13 2.34315 13 4V10H11V4C11 3.44772 10.5523 3 10 3C9.44772 3 9 3.44772 9 4V5H7V4Z" fill="#000" data-color="color-2"></path> <path fill-rule="evenodd" clip-rule="evenodd" d="M19 8C20.6569 8 22 9.34315 22 11C22 14.866 18.866 18 15 18L9 18C5.13401 18 2 14.866 2 11C2 9.34314 3.34315 8 5 8L19 8Z" fill="black"></path> </svg>