<svg xmlns="http://www.w3.org/2000/svg" xmlns:xlink="http://www.w3.org/1999/xlink" x="0px" y="0px" width="32px" height="32px" viewBox="0 0 32 32"> <path fill-rule="evenodd" clip-rule="evenodd" d="M17 6V12H15V6H17Z" fill="black"></path> <path fill-rule="evenodd" clip-rule="evenodd" d="M15 21.5V21H17V21.5C17 23.9853 19.0147 26 21.5 26C23.9853 26 26 23.9853 26 21.5V21H28V21.5C28 25.0899 25.0899 28 21.5 28C17.9101 28 15 25.0899 15 21.5Z" fill="black"></path> <path fill-rule="evenodd" clip-rule="evenodd" d="M4 21.5V21H6V21.5C6 23.9853 8.01472 26 10.5 26C12.9853 26 15 23.9853 15 21.5V21H17V21.5C17 25.0899 14.0899 28 10.5 28C6.91015 28 4 25.0899 4 21.5Z" fill="black"></path> <path fill-rule="evenodd" clip-rule="evenodd" d="M12 18C12 15.7909 13.7909 14 16 14C18.2091 14 20 15.7909 20 18C20 20.2091 18.2091 22 16 22C13.7909 22 12 20.2091 12 18Z" fill="#000" data-color="color-2"></path> <path fill-rule="evenodd" clip-rule="evenodd" d="M1 18C1 15.7909 2.79086 14 5 14C7.20914 14 9 15.7909 9 18C9 20.2091 7.20914 22 5 22C2.79086 22 1 20.2091 1 18Z" fill="#000" data-color="color-2"></path> <path fill-rule="evenodd" clip-rule="evenodd" d="M23 18C23 15.7909 24.7909 14 27 14C29.2091 14 31 15.7909 31 18C31 20.2091 29.2091 22 27 22C24.7909 22 23 20.2091 23 18Z" fill="#000" data-color="color-2"></path> <path fill-rule="evenodd" clip-rule="evenodd" d="M15.9953 27.243L17.4189 28.6667L16.0047 30.0809L14.5811 28.6572L15.9953 27.243Z" fill="black"></path> <path fill-rule="evenodd" clip-rule="evenodd" d="M11 2H21C21 4.76142 18.7614 7 16 7C13.2386 7 11 4.76142 11 2Z" fill="black"></path> </svg>