<svg xmlns="http://www.w3.org/2000/svg" xmlns:xlink="http://www.w3.org/1999/xlink" x="0px" y="0px" width="32px" height="32px" viewBox="0 0 32 32"> <path fill-rule="evenodd" clip-rule="evenodd" d="M2 23C2 21.3431 3.34315 20 5 20H27C28.6569 20 30 21.3431 30 23V27C30 28.6569 28.6569 30 27 30H5C3.34315 30 2 28.6569 2 27V23ZM20 22H25V24H20V22ZM7 22V24H12V22H7Z" fill="black"></path> <path fill-rule="evenodd" clip-rule="evenodd" d="M4 6C4 3.79086 5.79086 2 8 2H24C26.2091 2 28 3.79086 28 6V14C28 16.2091 26.2091 18 24 18H8C5.79086 18 4 16.2091 4 14V6ZM8 4C6.89543 4 6 4.89543 6 6V13C6 14.1046 6.89543 15 8 15H24C25.1046 15 26 14.1046 26 13V6C26 4.89543 25.1046 4 24 4H8Z" fill="black"></path> </svg>