<svg xmlns="http://www.w3.org/2000/svg" xmlns:xlink="http://www.w3.org/1999/xlink" x="0px" y="0px" width="32px" height="32px" viewBox="0 0 32 32"> <path fill-rule="evenodd" clip-rule="evenodd" d="M15 23V31L8.00001 31C5.79087 31 4.00001 29.2091 4.00001 27L4 23H15ZM11 28V26H8V28H11Z" fill="black"></path> <path fill-rule="evenodd" clip-rule="evenodd" d="M15 15V21H4V15H15ZM11 19V17L8 17V19L11 19Z" fill="black"></path> <path fill-rule="evenodd" clip-rule="evenodd" d="M15 1V13H4L4 5C4 2.79086 5.79086 1 8 1H15ZM11 10H13V6H11V10Z" fill="black"></path> <path fill-rule="evenodd" clip-rule="evenodd" d="M24 31L17 31V1H24C26.2091 1 28 2.79086 28 5L28 27C28 29.2091 26.2091 31 24 31ZM19 18H21V14H19V18Z" fill="#000" data-color="color-2"></path> </svg>