<svg xmlns="http://www.w3.org/2000/svg" xmlns:xlink="http://www.w3.org/1999/xlink" x="0px" y="0px" width="32px" height="32px" viewBox="0 0 32 32"> <path fill-rule="evenodd" clip-rule="evenodd" d="M10 27V31H8V27H10Z" fill="#000" data-color="color-2"></path> <path fill-rule="evenodd" clip-rule="evenodd" d="M24 27V31H22V27H24Z" fill="#000" data-color="color-2"></path> <path fill-rule="evenodd" clip-rule="evenodd" d="M28 3V15L4 15V3H28ZM16 8.5C15.1716 8.5 14.5 9.17157 14.5 10C14.5 10.8284 15.1716 11.5 16 11.5C16.8284 11.5 17.5 10.8284 17.5 10C17.5 9.17157 16.8284 8.5 16 8.5Z" fill="black"></path> <path fill-rule="evenodd" clip-rule="evenodd" d="M4 17H28L28 25C28 27.2091 26.2091 29 24 29L8.00001 29C5.79087 29 4 27.2091 4 25L4 17ZM16 20.5C15.1716 20.5 14.5 21.1716 14.5 22C14.5 22.8284 15.1716 23.5 16 23.5C16.8284 23.5 17.5 22.8284 17.5 22C17.5 21.1716 16.8284 20.5 16 20.5Z" fill="black"></path> <path fill-rule="evenodd" clip-rule="evenodd" d="M30 5L2 5L2 3L30 3L30 5Z" fill="#000" data-color="color-2"></path> </svg>