<svg xmlns="http://www.w3.org/2000/svg" xmlns:xlink="http://www.w3.org/1999/xlink" x="0px" y="0px" width="48px" height="48px" viewBox="0 0 48 48"> <path fill-rule="evenodd" clip-rule="evenodd" d="M8 38H14.618L11.618 44H8V38Z" fill="#000" data-color="color-2"></path> <path fill-rule="evenodd" clip-rule="evenodd" d="M40 38H33.382L36.382 44H40V38Z" fill="#000" data-color="color-2"></path> <path fill-rule="evenodd" clip-rule="evenodd" d="M2 23.5V34C2 37.3137 4.68629 40 8 40H40C43.3137 40 46 37.3137 46 34L46 23.5H2ZM29 30C29 31.6569 27.6569 33 26 33L22 33C20.3431 33 19 31.6569 19 30C19 29.4477 19.4477 29 20 29L28 29C28.5523 29 29 29.4477 29 30Z" fill="black"></path> <path fill-rule="evenodd" clip-rule="evenodd" d="M2 20.5V10C2 6.68629 4.68629 4 8 4H40C43.3137 4 46 6.68629 46 10L46 20.5H2ZM29 12C29 13.6569 27.6569 15 26 15L22 15C20.3431 15 19 13.6568 19 12C19 11.4477 19.4477 11 20 11L28 11C28.5523 11 29 11.4477 29 12Z" fill="black"></path> </svg>