<svg xmlns="http://www.w3.org/2000/svg" xmlns:xlink="http://www.w3.org/1999/xlink" x="0px" y="0px" width="48px" height="48px" viewBox="0 0 48 48"> <path fill-rule="evenodd" clip-rule="evenodd" d="M29.5 14V34H26.5V14H29.5Z" fill="#000" data-color="color-2"></path> <path fill-rule="evenodd" clip-rule="evenodd" d="M21.5 14V34H18.5V14H21.5Z" fill="#000" data-color="color-2"></path> <path fill-rule="evenodd" clip-rule="evenodd" d="M37.5 14V34H34.5V14H37.5Z" fill="#000" data-color="color-2"></path> <path fill-rule="evenodd" clip-rule="evenodd" d="M13.5 14V34H10.5V14H13.5Z" fill="#000" data-color="color-2"></path> <path fill-rule="evenodd" clip-rule="evenodd" d="M4 13H44V16H4V13Z" fill="black"></path> <path fill-rule="evenodd" clip-rule="evenodd" d="M12 37V44H9V37H12Z" fill="#000" data-color="color-2"></path> <path fill-rule="evenodd" clip-rule="evenodd" d="M39 37V44H36V37H39Z" fill="#000" data-color="color-2"></path> <path fill-rule="evenodd" clip-rule="evenodd" d="M4 34V8H7L7 32H41L41 8.00001L44 8.00001L44 34C44 37.3137 41.3137 40 38 40H10C6.68629 40 4 37.3137 4 34Z" fill="black"></path> </svg>