<svg xmlns="http://www.w3.org/2000/svg" xmlns:xlink="http://www.w3.org/1999/xlink" x="0px" y="0px" width="48px" height="48px" viewBox="0 0 48 48"> <path fill-rule="evenodd" clip-rule="evenodd" d="M6 18H22.5V30H6V18ZM17 25.5V22.5H12V25.5H17Z" fill="black"></path> <path fill-rule="evenodd" clip-rule="evenodd" d="M36 46L25.5 46V2L36 2.00001C39.3137 2.00001 42 4.6863 42 8.00001L42 40C42 43.3137 39.3137 46 36 46ZM29 28H32V20H29V28Z" fill="#000" data-color="color-2"></path> <path fill-rule="evenodd" clip-rule="evenodd" d="M12 2L22.5 2V15H6V8C6 4.6863 8.6863 2 12 2ZM19 7H16V12H19V7Z" fill="black"></path> <path fill-rule="evenodd" clip-rule="evenodd" d="M22.5 33V46L12 46C8.68629 46 6 43.3137 6 40V33H22.5ZM17 40.5V37.5H12V40.5H17Z" fill="black"></path> </svg>