<svg xmlns="http://www.w3.org/2000/svg" xmlns:xlink="http://www.w3.org/1999/xlink" x="0px" y="0px" width="24px" height="24px" viewBox="0 0 24 24"> <path fill-rule="evenodd" clip-rule="evenodd" d="M8 2C8 0.89543 8.89543 0 10 0H14C15.1046 0 16 0.89543 16 2V4H14V2H10V4H8V2Z" fill="#000" data-color="color-2"></path> <path fill-rule="evenodd" clip-rule="evenodd" d="M6 3C4.34315 3 3 4.34315 3 6V13C3 14.6569 4.34315 16 6 16H18C19.6569 16 21 14.6569 21 13V6C21 4.34315 19.6569 3 18 3H6ZM10 5H8V14H10V5ZM16 5H14V14H16V5Z" fill="black"></path> <path fill-rule="evenodd" clip-rule="evenodd" d="M1 21C1 19.3431 2.34315 18 4 18H20C21.6569 18 23 19.3431 23 21C23 22.6569 21.6569 24 20 24H4C2.34315 24 1 22.6569 1 21Z" fill="#000" data-color="color-2"></path> </svg>