<svg xmlns="http://www.w3.org/2000/svg" xmlns:xlink="http://www.w3.org/1999/xlink" x="0px" y="0px" width="24px" height="24px" viewBox="0 0 24 24"> <path d="M9.45068 15.9629L7.32275 18.2383L5.86182 16.8721L7.98975 14.5977L9.45068 15.9629Z" fill="black"></path> <path d="M5.29563 22.1182C4.35279 23.0607 2.82431 23.0609 1.88163 22.1182C0.997772 21.2342 0.943062 19.8354 1.71659 18.8872L1.88163 18.7042L5.50003 15.0858L8.91403 18.4998L5.29563 22.1182Z" fill="#000" data-color="color-2"></path> <path d="M14.0283 1.48242C18.7227 1.48245 22.5283 5.28806 22.5283 9.98242C22.5283 14.6768 18.7227 18.4824 14.0283 18.4824C11.6783 18.4824 9.54925 17.527 8.01172 15.9863L7.3291 15.3027L9.11426 13.3945C10.179 14.2732 11.544 14.8018 13.0322 14.8018C16.4338 14.8015 19.1914 12.0432 19.1914 8.6416C19.1912 5.24015 16.4337 2.48267 13.0322 2.48242H13.0283V1.48242H14.0283Z" fill="black"></path> </svg>