<svg xmlns="http://www.w3.org/2000/svg" xmlns:xlink="http://www.w3.org/1999/xlink" x="0px" y="0px" width="32px" height="32px" viewBox="0 0 32 32"><path d="m22,1c-3.13,0-4.996,2.386-6,4.323-1.004-1.937-2.87-4.323-6-4.323-2.206,0-4,1.794-4,4s1.794,4,4,4h12c2.206,0,4-1.794,4-4s-1.794-4-4-4Zm-12,6c-1.103,0-2-.897-2-2s.897-2,2-2c2.473,0,3.914,2.446,4.58,4h-4.58Zm12,0h-4.58c.666-1.554,2.107-4,4.58-4,1.103,0,2,.897,2,2s-.897,2-2,2Z" fill="#000" stroke-width="0" data-color="color-2"></path><path d="m14,15H3v11c0,2.206,1.794,4,4,4h7v-15Z" stroke-width="0" fill="#000"></path><path d="m18,15v15h7c2.206,0,4-1.794,4-4v-11h-11Z" stroke-width="0" fill="#000"></path><rect x="1" y="7" width="30" height="6" fill="#000" stroke-width="0" data-color="color-2"></rect></svg>