<svg xmlns="http://www.w3.org/2000/svg" xmlns:xlink="http://www.w3.org/1999/xlink" x="0px" y="0px" width="18px" height="18px" viewBox="0 0 18 18"><path d="M12.821,4.75h2.429c.552,0,1,.448,1,1v1.5c0,1.657-1.343,3-3,3h-.76" fill="none" stroke="#000" stroke-linecap="round" stroke-linejoin="round" stroke-width="1.5" data-color="color-2"></path><path d="M8,15.25h3.993c.637,0,1.105-.585,.977-1.209-.287-1.398-.512-3.101-.512-5.041,0-1.356,.11-3.087,.514-5.051,.127-.618-.346-1.199-.976-1.199h-3.996s-3.996,0-3.996,0c-.631,0-1.103,.581-.976,1.199,.404,1.964,.514,3.695,.514,5.051,0,1.94-.225,3.643-.512,5.041-.128,.624,.34,1.209,.977,1.209h3.993Z" fill="none" stroke="#000" stroke-linecap="round" stroke-linejoin="round" stroke-width="1.5"></path></svg>