<svg xmlns="http://www.w3.org/2000/svg" xmlns:xlink="http://www.w3.org/1999/xlink" x="0px" y="0px" width="18px" height="18px" viewBox="0 0 18 18"><path d="M8.25 6.75V2.25C8.25 1.698 7.802 1.25 7.25 1.25H6.25C5.698 1.25 5.25 1.698 5.25 2.25V6.75C5.25 6.75 2.75 7.188 2.75 10V15.75C2.75 16.302 3.198 16.75 3.75 16.75H8.25" stroke="black" stroke-width="1.5" stroke-linecap="round" stroke-linejoin="round" fill="none"></path> <path d="M2.75 9.75H7.25V13.75H2.75" stroke="black" stroke-width="1.5" stroke-linecap="round" stroke-linejoin="round" fill="none"></path> <path d="M5.25 4.75H8.25" stroke="black" stroke-width="1.5" stroke-linecap="round" stroke-linejoin="round" fill="none"></path> <path d="M10.75 8.75H14.75L15.162 10.808C15.466 12.33 14.25 13.75 12.75 13.75C11.25 13.75 10.0341 12.33 10.3381 10.808L10.75 8.75Z" stroke="#000" stroke-width="1.5" stroke-linecap="round" stroke-linejoin="round" data-color="color-2" fill="none"></path> <path d="M11.25 16.75H14.25" stroke="#000" stroke-width="1.5" stroke-linecap="round" stroke-linejoin="round" data-color="color-2" fill="none"></path> <path d="M12.75 16.75V13.75" stroke="#000" stroke-width="1.5" stroke-linecap="round" stroke-linejoin="round" data-color="color-2" fill="none"></path></svg>