<svg xmlns="http://www.w3.org/2000/svg" xmlns:xlink="http://www.w3.org/1999/xlink" x="0px" y="0px" width="18px" height="18px" viewBox="0 0 18 18"><line x1="9" y1="7.75" x2="9" y2="4.75" fill="none" stroke="#000" stroke-linecap="round" stroke-linejoin="round" stroke-width="1.5" data-color="color-2"></line><path d="M9,4.75c.838,0,1.517-.681,1.517-1.522,0-1.156-1.517-2.478-1.517-2.478,0,0-1.517,1.322-1.517,2.478,0,.841,.679,1.522,1.517,1.522Z" fill="none" stroke="#000" stroke-linecap="round" stroke-linejoin="round" stroke-width="1.5" data-color="color-2"></path><rect x="2.25" y="7.75" width="13.5" height="7.5" rx="2" ry="2" fill="none" stroke="#000" stroke-linecap="round" stroke-linejoin="round" stroke-width="1.5"></rect><path d="M15.75,11c-.992,0-1.259,1-2.25,1s-1.259-1-2.25-1-1.259,1-2.25,1-1.259-1-2.25-1-1.259,1-2.25,1-1.259-1-2.25-1" fill="none" stroke="#000" stroke-linecap="round" stroke-linejoin="round" stroke-width="1.5"></path></svg>