<svg xmlns="http://www.w3.org/2000/svg" xmlns:xlink="http://www.w3.org/1999/xlink" x="0px" y="0px" width="18px" height="18px" viewBox="0 0 18 18"><path d="M8.20367 6.7799C8.07747 6.3847 7.99998 6.0286 7.99998 5.75V3.75L8.49998 3.25V1.75C8.49998 1.198 8.05198 0.75 7.49998 0.75H5.49998C4.94798 0.75 4.49998 1.198 4.49998 1.75V3.25L4.99998 3.75V5.75C4.99998 6.63 4.22498 8.285 3.58498 9.502C3.04298 10.532 2.81598 11.696 2.92698 12.855L3.16398 15.345C3.21298 15.858 3.64397 16.25 4.15897 16.25H7.24998" stroke="black" stroke-width="1.5" stroke-linecap="round" stroke-linejoin="round" fill="none"></path> <path d="M5 5.75H8" stroke="black" stroke-width="1.5" stroke-linecap="round" stroke-linejoin="round" fill="none"></path> <path d="M6.5 13.75C7.328 13.75 8 13.0784 8 12.25C8 11.4216 7.328 10.75 6.5 10.75C5.672 10.75 5 11.4216 5 12.25C5 13.0784 5.672 13.75 6.5 13.75Z" fill="black" data-stroke="none"></path> <path d="M11.25 6.75H14.25L14.839 10.284C15.054 11.575 14.059 12.75 12.75 12.75C11.441 12.75 10.446 11.575 10.661 10.284L11.25 6.75Z" stroke="#000" stroke-width="1.5" stroke-linecap="round" stroke-linejoin="round" data-color="color-2" fill="none"></path> <path d="M15.25 16.25H10.25" stroke="#000" stroke-width="1.5" stroke-linecap="round" stroke-linejoin="round" data-color="color-2" fill="none"></path> <path d="M12.75 12.75V16.25" stroke="#000" stroke-width="1.5" stroke-linecap="round" stroke-linejoin="round" data-color="color-2" fill="none"></path></svg>