<svg xmlns="http://www.w3.org/2000/svg" xmlns:xlink="http://www.w3.org/1999/xlink" x="0px" y="0px" width="18px" height="18px" viewBox="0 0 18 18"><path fill-rule="evenodd" clip-rule="evenodd" d="M12 7C13.2427 7 14.25 5.99264 14.25 4.75C14.25 3.50736 13.2427 2.5 12 2.5C11.8943 2.5 10.9465 2.56499 11.0747 2.83779C11.3475 3.41813 11.5 4.06626 11.5 4.75C11.5 5.43625 11.3464 6.08663 11.0717 6.66861C10.9613 6.90244 11.9051 7 12 7Z" fill="#000" fill-opacity="0.3" data-color="color-2" data-stroke="none"></path> <path d="M7 7C8.24264 7 9.25 5.99264 9.25 4.75C9.25 3.50736 8.24264 2.5 7 2.5C5.75736 2.5 4.75 3.50736 4.75 4.75C4.75 5.99264 5.75736 7 7 7Z" fill="#000" fill-opacity="0.3" data-color="color-2" data-stroke="none"></path> <path d="M14.75 10.25V15.25" stroke="black" stroke-width="1.5" stroke-linecap="round" stroke-linejoin="round" fill="none"></path> <path d="M17.25 12.75H12.25" stroke="black" stroke-width="1.5" stroke-linecap="round" stroke-linejoin="round" fill="none"></path> <path d="M7 7C8.24264 7 9.25 5.99264 9.25 4.75C9.25 3.50736 8.24264 2.5 7 2.5C5.75736 2.5 4.75 3.50736 4.75 4.75C4.75 5.99264 5.75736 7 7 7Z" stroke="black" stroke-width="1.5" stroke-linecap="round" stroke-linejoin="round" fill="none"></path> <path d="M11.7371 6.97559C11.824 6.98659 11.9101 7.00049 12 7.00049C13.243 7.00049 14.25 5.99339 14.25 4.75049C14.25 3.50759 13.243 2.50049 12 2.50049C11.91 2.50049 11.8239 2.51419 11.7369 2.52519" stroke="black" stroke-width="1.5" stroke-linecap="round" stroke-linejoin="round" fill="none"></path> <path d="M10.2125 10.572C9.3071 9.91039 8.208 9.50049 7 9.50049C4.855 9.50049 3 10.7295 2.094 12.5205C1.694 13.3115 2.122 14.2773 2.96 14.5684C3.991 14.9266 5.368 15.2515 7 15.2515C8.1964 15.2515 9.2347 15.0723 10.1174 14.8374" stroke="black" stroke-width="1.5" stroke-linecap="round" stroke-linejoin="round" fill="none"></path></svg>