<svg xmlns="http://www.w3.org/2000/svg" xmlns:xlink="http://www.w3.org/1999/xlink" x="0px" y="0px" width="18px" height="18px" viewBox="0 0 18 18"><path d="M9 7.25C10.5188 7.25 11.75 6.01878 11.75 4.5C11.75 2.98122 10.5188 1.75 9 1.75C7.48122 1.75 6.25 2.98122 6.25 4.5C6.25 6.01878 7.48122 7.25 9 7.25Z" fill="#000" fill-opacity="0.3" data-color="color-2" data-stroke="none"></path> <path d="M9 7.25C10.5188 7.25 11.75 6.01878 11.75 4.5C11.75 2.98122 10.5188 1.75 9 1.75C7.48122 1.75 6.25 2.98122 6.25 4.5C6.25 6.01878 7.48122 7.25 9 7.25Z" stroke="black" stroke-width="1.5" stroke-linecap="round" stroke-linejoin="round" fill="none"></path> <path d="M14 17.2505C15.795 17.2505 17.25 15.7954 17.25 14.0005C17.25 12.2056 15.795 10.7505 14 10.7505C12.205 10.7505 10.75 12.2056 10.75 14.0005C10.75 15.7954 12.205 17.2505 14 17.2505Z" stroke="black" stroke-width="1.5" stroke-linecap="round" stroke-linejoin="round" fill="none"></path> <path d="M11.702 16.2985L16.292 11.7085" stroke="black" stroke-width="1.5" stroke-linecap="round" stroke-linejoin="round" fill="none"></path> <path d="M9.39809 9.78609C9.26469 9.77629 9.13599 9.75049 8.99999 9.75049C6.44899 9.75049 4.26099 11.2805 3.29099 13.4705C2.92599 14.2955 3.37799 15.2444 4.23799 15.5154C5.27439 15.8428 6.61518 16.1223 8.15878 16.2046" stroke="black" stroke-width="1.5" stroke-linecap="round" stroke-linejoin="round" fill="none"></path></svg>