<svg xmlns="http://www.w3.org/2000/svg" xmlns:xlink="http://www.w3.org/1999/xlink" x="0px" y="0px" width="18px" height="18px" viewBox="0 0 18 18"><path fill-rule="evenodd" clip-rule="evenodd" d="M5.34509 5.65723C6.55453 6.13439 9.2442 6.63629 12.666 5.70704C12.3022 4.01681 10.799 2.75 9.00001 2.75C7.21872 2.75 5.72751 3.99198 5.34509 5.65723Z" fill="#000" fill-opacity="0.3" data-color="color-2" data-stroke="none"></path> <path d="M9 10.25C11.0711 10.25 12.75 8.57107 12.75 6.5C12.75 4.42893 11.0711 2.75 9 2.75C6.92893 2.75 5.25 4.42893 5.25 6.5C5.25 8.57107 6.92893 10.25 9 10.25Z" stroke="black" stroke-width="1.5" stroke-linecap="round" stroke-linejoin="round" fill="none"></path> <path d="M15.25 4.496C13.43 5.609 11.29 6.25 9 6.25C7.724 6.25 6.494 6.051 5.34 5.682" stroke="black" stroke-width="1.5" stroke-linecap="round" stroke-linejoin="round" fill="none"></path> <path d="M2.953 16C4.251 14.042 6.475 12.75 9 12.75C11.525 12.75 13.749 14.041 15.047 16" stroke="black" stroke-width="1.5" stroke-linecap="round" stroke-linejoin="round" fill="none"></path></svg>