<svg xmlns="http://www.w3.org/2000/svg" xmlns:xlink="http://www.w3.org/1999/xlink" x="0px" y="0px" width="18px" height="18px" viewBox="0 0 18 18"><path d="M12.7959 16.2042L15.9571 13.043C16.3476 12.6525 16.3476 12.0193 15.9571 11.6288L15.3713 11.043C14.9808 10.6525 14.3476 10.6525 13.9571 11.043L10.7959 14.2042L10.0001 17.0001L12.7959 16.2042Z" fill="#000" fill-opacity="0.3" data-color="color-2" data-stroke="none"></path> <path d="M9 7.25C10.5188 7.25 11.75 6.01878 11.75 4.5C11.75 2.98122 10.5188 1.75 9 1.75C7.48122 1.75 6.25 2.98122 6.25 4.5C6.25 6.01878 7.48122 7.25 9 7.25Z" fill="#000" fill-opacity="0.3" data-color="color-2" data-stroke="none"></path> <path d="M9 7.25C10.5188 7.25 11.75 6.01878 11.75 4.5C11.75 2.98122 10.5188 1.75 9 1.75C7.48122 1.75 6.25 2.98122 6.25 4.5C6.25 6.01878 7.48122 7.25 9 7.25Z" stroke="black" stroke-width="1.5" stroke-linecap="round" stroke-linejoin="round" fill="none"></path> <path d="M10.7443 10.0134C10.1908 9.84808 9.6082 9.75049 9 9.75049C6.449 9.75049 4.26098 11.2805 3.29098 13.4705C2.92598 14.2955 3.378 15.2444 4.238 15.5154C5.0373 15.7678 6.01889 15.9922 7.12979 16.1238" stroke="black" stroke-width="1.5" stroke-linecap="round" stroke-linejoin="round" fill="none"></path> <path d="M12.7959 16.2042L15.9571 13.043C16.3476 12.6525 16.3476 12.0193 15.9571 11.6288L15.3713 11.043C14.9808 10.6525 14.3476 10.6525 13.9571 11.043L10.7959 14.2042L10.0001 17.0001L12.7959 16.2042Z" stroke="black" stroke-width="1.5" stroke-linecap="round" stroke-linejoin="round" fill="none"></path></svg>