<svg xmlns="http://www.w3.org/2000/svg" xmlns:xlink="http://www.w3.org/1999/xlink" x="0px" y="0px" width="18px" height="18px" viewBox="0 0 18 18"><path d="M9 10.25C11.0711 10.25 12.75 8.57107 12.75 6.5C12.75 4.42893 11.0711 2.75 9 2.75C6.92893 2.75 5.25 4.42893 5.25 6.5C5.25 8.57107 6.92893 10.25 9 10.25Z" fill="#000" fill-opacity="0.3" data-color="color-2" data-stroke="none"></path> <path d="M9 10.25C11.0711 10.25 12.75 8.57107 12.75 6.5C12.75 4.42893 11.0711 2.75 9 2.75C6.92893 2.75 5.25 4.42893 5.25 6.5C5.25 8.57107 6.92893 10.25 9 10.25Z" stroke="black" stroke-width="1.5" stroke-linecap="round" stroke-linejoin="round" fill="none"></path> <path d="M5.26999 6.301C5.74299 6.427 6.23699 6.5 6.74999 6.5C8.79799 6.5 10.591 5.426 11.61 3.814C10.935 3.158 10.016 2.75 8.99999 2.75C6.99699 2.75 5.37599 4.324 5.26999 6.301Z" fill="black" data-stroke="none"></path> <path d="M2.953 16C4.251 14.042 6.475 12.75 9 12.75C11.525 12.75 13.749 14.041 15.047 16" stroke="black" stroke-width="1.5" stroke-linecap="round" stroke-linejoin="round" fill="none"></path></svg>