<svg xmlns="http://www.w3.org/2000/svg" xmlns:xlink="http://www.w3.org/1999/xlink" x="0px" y="0px" width="18px" height="18px" viewBox="0 0 18 18"><path d="M12.75 6.5C12.75 8.571 11.071 10.25 9 10.25C6.929 10.25 5.25 8.571 5.25 6.5" fill="#000" fill-opacity="0.3" data-color="color-2" data-stroke="none"></path> <path d="M4 6.25H14" stroke="black" stroke-width="1.5" stroke-linecap="round" stroke-linejoin="round" fill="none"></path> <path d="M9 2.25V4" stroke="black" stroke-width="1.5" stroke-linecap="round" stroke-linejoin="round" fill="none"></path> <path d="M5.258 6.25C5.387 4.295 7.013 2.75 9 2.75C10.987 2.75 12.613 4.295 12.742 6.25" stroke="black" stroke-width="1.5" stroke-linecap="round" stroke-linejoin="round" fill="none"></path> <path d="M2.953 16C4.251 14.042 6.475 12.75 9 12.75C11.525 12.75 13.749 14.041 15.047 16" stroke="black" stroke-width="1.5" stroke-linecap="round" stroke-linejoin="round" fill="none"></path> <path d="M12.75 6.5C12.75 8.571 11.071 10.25 9 10.25C6.929 10.25 5.25 8.571 5.25 6.5" stroke="black" stroke-width="1.5" stroke-linecap="round" stroke-linejoin="round" fill="none"></path></svg>