<svg xmlns="http://www.w3.org/2000/svg" xmlns:xlink="http://www.w3.org/1999/xlink" x="0px" y="0px" width="32px" height="32px" viewBox="0 0 32 32"> <path fill-rule="evenodd" clip-rule="evenodd" d="M10 5.99997V10.9999H8V5.99997H10Z" fill="#000" data-color="color-2"></path> <path fill-rule="evenodd" clip-rule="evenodd" d="M1 14C1 11.7909 2.79086 10 5 10H14.9454L19.3507 14.8948L31 12.2472V16.4424L20.5309 25.9598C19.7946 26.6291 18.8352 27 17.8402 27H5C2.79086 27 1 25.2091 1 23V14ZM5 21V23H9.66667V21H5Z" fill="black"></path> <path fill-rule="evenodd" clip-rule="evenodd" d="M4.00001 5.00003H14V7.00003H4.00001V5.00003Z" fill="#000" data-color="color-2"></path> <path d="M28.5 23C29.7984 24.1667 31 25.9167 31 27.4199C31 29.0058 29.8806 30 28.5 30C27.1194 30 26 29.0058 26 27.4199C26 25.9167 27.2149 24.1667 28.5 23Z" fill="#000" data-color="color-2"></path> </svg>