<svg xmlns="http://www.w3.org/2000/svg" xmlns:xlink="http://www.w3.org/1999/xlink" x="0px" y="0px" width="32px" height="32px" viewBox="0 0 32 32"> <path fill-rule="evenodd" clip-rule="evenodd" d="M10 2H20V4H10V2Z" fill="#000" data-color="color-2"></path> <path fill-rule="evenodd" clip-rule="evenodd" d="M12 2L12 7L3 7L3 2L12 2Z" fill="#000" data-color="color-2"></path> <path d="M28 21C29.5581 22.3333 31 24.3333 31 26.0513C31 27.8638 29.6568 29 28 29C26.3433 29 25 27.8638 25 26.0513C25 24.3333 26.4579 22.3333 28 21Z" fill="#000" data-color="color-2"></path> <path d="M2 9V30H13V24C13 20.134 16.134 17 20 17H30V14C30 11.2386 27.7614 9 25 9H2Z" fill="black"></path> </svg>