<svg xmlns="http://www.w3.org/2000/svg" xmlns:xlink="http://www.w3.org/1999/xlink" x="0px" y="0px" width="24px" height="24px" viewBox="0 0 24 24"> <path fill-rule="evenodd" clip-rule="evenodd" d="M6 3.5H18V5.5H6V3.5Z" fill="black"></path> <path fill-rule="evenodd" clip-rule="evenodd" d="M6 18.5H18V20.5H6V18.5Z" fill="black"></path> <path fill-rule="evenodd" clip-rule="evenodd" d="M18.5 18L18.5 6L20.5 6L20.5 18L18.5 18Z" fill="black"></path> <path fill-rule="evenodd" clip-rule="evenodd" d="M3.5 18L3.5 6L5.5 6L5.5 18L3.5 18Z" fill="black"></path> <path d="M16.5 1.5H22.5V7.5H16.5V1.5Z" fill="#000" data-color="color-2"></path> <path d="M16.5 16.5H22.5V22.5H16.5V16.5Z" fill="#000" data-color="color-2"></path> <path d="M1.5 1.5H7.5V7.5H1.5V1.5Z" fill="#000" data-color="color-2"></path> <path d="M1.5 16.5H7.5V22.5H1.5V16.5Z" fill="#000" data-color="color-2"></path> </svg>