<svg xmlns="http://www.w3.org/2000/svg" xmlns:xlink="http://www.w3.org/1999/xlink" x="0px" y="0px" width="24px" height="24px" viewBox="0 0 24 24"> <path d="M10 21L21 21L21 10L18 10L18 8L23 8L23 23L8 23L8 18L10 18L10 21Z" fill="#000" data-color="color-2"></path> <path fill-rule="evenodd" clip-rule="evenodd" d="M14 14L14 4L16 4L16 14L14 14Z" fill="black"></path> <path fill-rule="evenodd" clip-rule="evenodd" d="M14 4L4 4L4 2L14 2L14 4Z" fill="black"></path> <path fill-rule="evenodd" clip-rule="evenodd" d="M4 4L4 14L2 14L2 4L4 4Z" fill="black"></path> <path fill-rule="evenodd" clip-rule="evenodd" d="M14 16L4 16L4 14L14 14L14 16Z" fill="black"></path> <path d="M17.5 5.5L17.5 0.5L12.5 0.5L12.5 5.5L17.5 5.5Z" fill="black"></path> <path d="M17.5 17.5L17.5 12.5L12.5 12.5L12.5 17.5L17.5 17.5Z" fill="black"></path> <path d="M5.5 5.5L5.5 0.5L0.5 0.5L0.5 5.5L5.5 5.5Z" fill="black"></path> <path d="M5.5 17.5L5.5 12.5L0.5 12.5L0.5 17.5L5.5 17.5Z" fill="black"></path> <path d="M12 10L10 10L10 12L8 12L8 8L12 8L12 10Z" fill="#000" data-color="color-2"></path> </svg>