<svg xmlns="http://www.w3.org/2000/svg" xmlns:xlink="http://www.w3.org/1999/xlink" x="0px" y="0px" width="24px" height="24px" viewBox="0 0 24 24"> <path fill-rule="evenodd" clip-rule="evenodd" d="M17.0858 22.0001L20.5858 18.5L17.0858 15.0001L18.5 13.5858L23.4142 18.5L18.5 23.4143L17.0858 22.0001Z" fill="#000" data-color="color-2"></path> <path fill-rule="evenodd" clip-rule="evenodd" d="M14.9142 22L11.4142 18.5L14.9142 15L13.5 13.5858L8.58578 18.5L13.5 23.4142L14.9142 22Z" fill="#000" data-color="color-2"></path> <path fill-rule="evenodd" clip-rule="evenodd" d="M8.95711 1.87868C9.51972 1.31607 10.2828 1 11.0784 1H18C19.6569 1 21 2.34315 21 4V13.2575L19.9141 12.1716C19.539 11.7966 19.0303 11.5858 18.4999 11.5858C17.9694 11.5859 17.4607 11.7966 17.0857 12.1716L15.9999 13.2574L14.9141 12.1716C14.1331 11.3905 12.8668 11.3905 12.0857 12.1716L7.17149 17.0857C6.79641 17.4608 6.58569 17.9695 6.58569 18.5C6.58569 19.0304 6.79641 19.5391 7.17148 19.9142L10.2573 23H6C4.34315 23 3 21.6569 3 20V9.07843C3 8.28278 3.31607 7.51972 3.87868 6.95711L8.95711 1.87868ZM5 9H11V3L5 9Z" fill="black"></path> </svg>