<svg xmlns="http://www.w3.org/2000/svg" xmlns:xlink="http://www.w3.org/1999/xlink" x="0px" y="0px" width="24px" height="24px" viewBox="0 0 24 24"><path fill-rule="evenodd" clip-rule="evenodd" d="M18.5 16C17.1193 16 16 17.1193 16 18.5C16 19.8807 17.1193 21 18.5 21H20V19.5H18V17.5H22V23H18.5C16.0147 23 14 20.9853 14 18.5C14 16.0147 16.0147 14 18.5 14H20V16H18.5Z" fill="#000" data-color="color-2"></path> <path fill-rule="evenodd" clip-rule="evenodd" d="M12.5 14V23H10.5V14H12.5Z" fill="#000" data-color="color-2"></path> <path fill-rule="evenodd" clip-rule="evenodd" d="M2.5 14H8.5V16H4.5V17.5H7.5V19.5H4.5V23H2.5V14Z" fill="#000" data-color="color-2"></path> <path fill-rule="evenodd" clip-rule="evenodd" d="M20 7.58579V12L4 12V3C4 1.89543 4.89543 1 6 1H13.4142L20 7.58579ZM13 3V8H18L13 3Z" fill="black"></path></svg>