<svg xmlns="http://www.w3.org/2000/svg" xmlns:xlink="http://www.w3.org/1999/xlink" x="0px" y="0px" width="24px" height="24px" viewBox="0 0 24 24"> <path fill-rule="evenodd" clip-rule="evenodd" d="M20.0961 11.6821L22.2174 13.8035L20.8032 15.2177L18.6819 13.0963L20.0961 11.6821Z" fill="#000" data-color="color-2"></path> <path fill-rule="evenodd" clip-rule="evenodd" d="M14.5 4.61792L19.382 9.49992L5.23985 23.642L0.35791 18.7601L14.5 4.61792ZM13.9838 12.0697L16.5535 9.49991L14.5 7.44636L11.9302 10.0161L13.9838 12.0697Z" fill="black"></path> <path fill-rule="evenodd" clip-rule="evenodd" d="M21 7.5L24.0001 7.50006L24 9.50006L21 9.5L21 7.5Z" fill="#000" data-color="color-2"></path> <path fill-rule="evenodd" clip-rule="evenodd" d="M22.2176 3.19671L20.0962 5.318L18.682 3.90376L20.8034 1.78247L22.2176 3.19671Z" fill="#000" data-color="color-2"></path> <path fill-rule="evenodd" clip-rule="evenodd" d="M16.5001 4.19617e-05L16.5 3.00006L14.5 3.00002L14.5001 0L16.5001 4.19617e-05Z" fill="#000" data-color="color-2"></path> <path fill-rule="evenodd" clip-rule="evenodd" d="M10.1967 1.78247L12.318 3.90385L10.9038 5.31803L8.78247 3.19665L10.1967 1.78247Z" fill="#000" data-color="color-2"></path> </svg>