<svg xmlns="http://www.w3.org/2000/svg" xmlns:xlink="http://www.w3.org/1999/xlink" x="0px" y="0px" width="24px" height="24px" viewBox="0 0 24 24"><path d="m17,9h-2v-4c0-1.654-1.346-3-3-3s-3,1.346-3,3v4h-2v-4c0-2.757,2.243-5,5-5s5,2.243,5,5v4Z" stroke-width="0" fill="#000"></path><circle cx="7.25" cy="22.5" r="1.5" fill="#000" stroke-width="0" data-color="color-2"></circle><circle cx="2.5" cy="22.5" r="1.5" fill="#000" stroke-width="0" data-color="color-2"></circle><circle cx="21.5" cy="22.5" r="1.5" fill="#000" stroke-width="0" data-color="color-2"></circle><circle cx="12" cy="22.5" r="1.5" fill="#000" stroke-width="0" data-color="color-2"></circle><circle cx="16.75" cy="22.5" r="1.5" fill="#000" stroke-width="0" data-color="color-2"></circle><path d="m17,8H7c-1.654,0-3,1.346-3,3v5c0,1.654,1.346,3,3,3h10c1.654,0,3-1.346,3-3v-5c0-1.654-1.346-3-3-3Zm-4,7h-2v-3h2v3Z" stroke-width="0" fill="#000"></path></svg>