<svg xmlns="http://www.w3.org/2000/svg" xmlns:xlink="http://www.w3.org/1999/xlink" x="0px" y="0px" width="24px" height="24px" viewBox="0 0 24 24"><rect x="13.984" y="12.615" width="1.999" height="5.192" transform="translate(-3.535 4.584) rotate(-15.581)" fill="#000" stroke-width="0" data-color="color-2"></rect><polygon points="21.033 15.403 17.79 11.238 19.6 10.307 22.611 14.175 21.033 15.403" fill="#000" stroke-width="0" data-color="color-2"></polygon><rect x="6.421" y="14.211" width="5.192" height="1.999" transform="translate(-8.057 19.809) rotate(-74.416)" fill="#000" stroke-width="0" data-color="color-2"></rect><polygon points="2.967 15.403 1.389 14.175 4.4 10.307 6.21 11.238 2.967 15.403" fill="#000" stroke-width="0" data-color="color-2"></polygon><path d="m12,15.035c-3.577,0-7.154-1.776-10.707-5.328l-.707-.707,1.414-1.414.707.707c6.254,6.253,12.332,6.253,18.586,0l.707-.707,1.414,1.414-.707.707c-3.553,3.552-7.13,5.328-10.707,5.328Z" stroke-width="0" fill="#000"></path></svg>