<svg xmlns="http://www.w3.org/2000/svg" xmlns:xlink="http://www.w3.org/1999/xlink" x="0px" y="0px" width="24px" height="24px" viewBox="0 0 24 24"><rect x="1" y="3" width="10" height="18" rx="3" ry="3" stroke-width="0" fill="#000"></rect><path d="m15,8h-2v-2c0-1.654,1.346-3,3-3h1v2h-1c-.551,0-1,.449-1,1v2Z" fill="#000" stroke-width="0" data-color="color-2"></path><path d="m17,21h-1c-1.654,0-3-1.346-3-3v-2h2v2c0,.551.449,1,1,1h1v2Z" fill="#000" stroke-width="0" data-color="color-2"></path><path d="m20,21h-1v-2h1c.551,0,1-.449,1-1v-2h2v2c0,1.654-1.346,3-3,3Z" fill="#000" stroke-width="0" data-color="color-2"></path><path d="m23,8h-2v-2c0-.551-.449-1-1-1h-1v-2h1c1.654,0,3,1.346,3,3v2Z" fill="#000" stroke-width="0" data-color="color-2"></path><rect x="13" y="10" width="2" height="4" fill="#000" stroke-width="0" data-color="color-2"></rect><rect x="21" y="10" width="2" height="4" fill="#000" stroke-width="0" data-color="color-2"></rect></svg>