<svg xmlns="http://www.w3.org/2000/svg" xmlns:xlink="http://www.w3.org/1999/xlink" x="0px" y="0px" width="24px" height="24px" viewBox="0 0 24 24"><circle cx="12" cy="12" r="4" fill="#000" stroke-width="0" data-color="color-2"></circle><path d="m7.365,22.028l-.865-.5c-3.392-1.962-5.5-5.613-5.5-9.528S3.107,4.434,6.5,2.472l.865-.5,1.001,1.731-.866.501c-2.776,1.605-4.5,4.593-4.5,7.796s1.725,6.191,4.5,7.796l.866.501-1.001,1.731Z" stroke-width="0" fill="#000"></path><path d="m16.635,22.028l-1.001-1.731.866-.501c2.776-1.605,4.5-4.593,4.5-7.796s-1.725-6.191-4.5-7.796l-.866-.501,1.001-1.731.865.5c3.392,1.962,5.5,5.613,5.5,9.528s-2.107,7.566-5.5,9.528l-.865.5Z" stroke-width="0" fill="#000"></path></svg>