<svg xmlns="http://www.w3.org/2000/svg" xmlns:xlink="http://www.w3.org/1999/xlink" x="0px" y="0px" width="32px" height="32px" viewBox="0 0 32 32"> <path fill-rule="evenodd" clip-rule="evenodd" d="M23 2H30V9H23V2Z" fill="black"></path> <path fill-rule="evenodd" clip-rule="evenodd" d="M23 16H30V23H23V16Z" fill="black"></path> <path fill-rule="evenodd" clip-rule="evenodd" d="M23 9H30V16H23V9Z" fill="black"></path> <path fill-rule="evenodd" clip-rule="evenodd" d="M16 9H23V16H16V9Z" fill="black"></path> <path fill-rule="evenodd" clip-rule="evenodd" d="M9 9H16V16H9V9Z" fill="black"></path> <path fill-rule="evenodd" clip-rule="evenodd" d="M2 2H9V9H2V2Z" fill="#000" data-color="color-2"></path> <path fill-rule="evenodd" clip-rule="evenodd" d="M2 16H9V23H2V16Z" fill="black"></path> <path fill-rule="evenodd" clip-rule="evenodd" d="M2 23H9V30H2V23Z" fill="black"></path> <path fill-rule="evenodd" clip-rule="evenodd" d="M9 16H16V23H9V16Z" fill="black"></path> <path fill-rule="evenodd" clip-rule="evenodd" d="M23 23H30V30H23V23Z" fill="black"></path> </svg>