<svg xmlns="http://www.w3.org/2000/svg" xmlns:xlink="http://www.w3.org/1999/xlink" x="0px" y="0px" width="32px" height="32px" viewBox="0 0 32 32"> <path fill-rule="evenodd" clip-rule="evenodd" d="M17 18V26H15V18H17Z" fill="#000" data-color="color-2"></path> <path fill-rule="evenodd" clip-rule="evenodd" d="M17 0V5.00004H15V0H17Z" fill="black"></path> <path fill-rule="evenodd" clip-rule="evenodd" d="M3 21H29V23H3V21Z" fill="black"></path> <path d="M16 12.5C18.4853 12.5 20.5 10.4853 20.5 8C20.5 5.51472 18.4853 3.5 16 3.5C13.5147 3.5 11.5 5.51472 11.5 8C11.5 10.4853 13.5147 12.5 16 12.5Z" fill="#000" data-color="color-2"></path> <path d="M11.5249 12.7141L2.65845 30.4471L4.4473 31.3415L13.1873 13.8615C12.5735 13.5664 12.0132 13.1778 11.5249 12.7141Z" fill="black"></path> <path d="M18.8127 13.8615L27.5527 31.3415L29.3416 30.4471L20.4751 12.7141C19.9868 13.1778 19.4265 13.5664 18.8127 13.8615Z" fill="black"></path> </svg>