<svg xmlns="http://www.w3.org/2000/svg" xmlns:xlink="http://www.w3.org/1999/xlink" x="0px" y="0px" width="32px" height="32px" viewBox="0 0 32 32"> <path fill-rule="evenodd" clip-rule="evenodd" d="M7 10L2 10L2 15L4 15L4 12L7 12L7 10Z" fill="#000" data-color="color-2"></path> <path fill-rule="evenodd" clip-rule="evenodd" d="M22 15L22 10L17 10L17 12L20 12L20 15L22 15Z" fill="#000" data-color="color-2"></path> <path fill-rule="evenodd" clip-rule="evenodd" d="M20 25L20 28L17 28L17 30L22 30L22 25L20 25Z" fill="#000" data-color="color-2"></path> <path fill-rule="evenodd" clip-rule="evenodd" d="M2 17L2 23L4 23L4 17L2 17Z" fill="#000" data-color="color-2"></path> <path fill-rule="evenodd" clip-rule="evenodd" d="M20 17L20 23L22 23L22 17L20 17Z" fill="#000" data-color="color-2"></path> <path fill-rule="evenodd" clip-rule="evenodd" d="M2 25L2 30L7 30L7 28L4 28L4 25L2 25Z" fill="#000" data-color="color-2"></path> <path fill-rule="evenodd" clip-rule="evenodd" d="M9 28L9 30L15 30L15 28L9 28Z" fill="#000" data-color="color-2"></path> <path fill-rule="evenodd" clip-rule="evenodd" d="M9 10L9 12L15 12L15 10L9 10Z" fill="#000" data-color="color-2"></path> <path fill-rule="evenodd" clip-rule="evenodd" d="M30 22L30 2L10 2L10 8L22 8C23.1046 8 24 8.89543 24 10V22H30Z" fill="black"></path> </svg>