<svg xmlns="http://www.w3.org/2000/svg" xmlns:xlink="http://www.w3.org/1999/xlink" x="0px" y="0px" width="32px" height="32px" viewBox="0 0 32 32"> <path fill-rule="evenodd" clip-rule="evenodd" d="M14 21H3V19H14V21Z" fill="black"></path> <path fill-rule="evenodd" clip-rule="evenodd" d="M6.99745 5H10.0025L16.8797 26H14.4036V24.8652L8.553 7H8.44699L2.59679 24.864V26H0.120255L6.99745 5Z" fill="black"></path> <path fill-rule="evenodd" clip-rule="evenodd" d="M16 15.5C16 9.70101 20.701 5 26.5 5H30V7H26.5C21.8056 7 18 10.8056 18 15.5C18 20.1944 21.8056 24 26.5 24H29V18H25V16H31V26H26.5C20.701 26 16 21.299 16 15.5Z" fill="#000" data-color="color-2"></path> </svg>