<svg xmlns="http://www.w3.org/2000/svg" xmlns:xlink="http://www.w3.org/1999/xlink" x="0px" y="0px" width="32px" height="32px" viewBox="0 0 32 32"> <path fill-rule="evenodd" clip-rule="evenodd" d="M22 2H30V10H22V2Z" fill="black"></path> <path fill-rule="evenodd" clip-rule="evenodd" d="M12 2H20V10H12V2Z" fill="black"></path> <path fill-rule="evenodd" clip-rule="evenodd" d="M12 12H20V20H12V12Z" fill="black"></path> <path fill-rule="evenodd" clip-rule="evenodd" d="M2 2H10V10H2V2Z" fill="black"></path> <path fill-rule="evenodd" clip-rule="evenodd" d="M2 12H10V20H2V12Z" fill="black"></path> <path fill-rule="evenodd" clip-rule="evenodd" d="M2 22H10V30H2V22Z" fill="black"></path> <path fill-rule="evenodd" clip-rule="evenodd" d="M27 12V20H25V12H27Z" fill="#000" data-color="color-2"></path> <path fill-rule="evenodd" clip-rule="evenodd" d="M17 22V30H15V22H17Z" fill="#000" data-color="color-2"></path> <path fill-rule="evenodd" clip-rule="evenodd" d="M27 22V30H25V22H27Z" fill="#000" data-color="color-2"></path> <path fill-rule="evenodd" clip-rule="evenodd" d="M30 17L22 17L22 15L30 15L30 17Z" fill="#000" data-color="color-2"></path> <path fill-rule="evenodd" clip-rule="evenodd" d="M20 27L12 27L12 25L20 25L20 27Z" fill="#000" data-color="color-2"></path> <path fill-rule="evenodd" clip-rule="evenodd" d="M30 27L22 27L22 25L30 25L30 27Z" fill="#000" data-color="color-2"></path> </svg>