<svg xmlns="http://www.w3.org/2000/svg" xmlns:xlink="http://www.w3.org/1999/xlink" x="0px" y="0px" width="32px" height="32px" viewBox="0 0 32 32"> <path fill-rule="evenodd" clip-rule="evenodd" d="M10 5H22V7H10V5Z" fill="black"></path> <path fill-rule="evenodd" clip-rule="evenodd" d="M6 25H26V27H6V25Z" fill="black"></path> <path fill-rule="evenodd" clip-rule="evenodd" d="M27.3133 24.2364L22.7638 8.31336L24.6869 7.76392L29.2363 23.687L27.3133 24.2364Z" fill="black"></path> <path fill-rule="evenodd" clip-rule="evenodd" d="M9.25537 8.34911L4.31764 23.9222L2.41118 23.3177L7.34891 7.74463L9.25537 8.34911Z" fill="black"></path> <path d="M11.5 2.5H4.5V9.5H11.5V2.5Z" fill="#000" data-color="color-2"></path> <path d="M27.5 2.5H20.5V9.5H27.5V2.5Z" fill="#000" data-color="color-2"></path> <path d="M31.5 22.5H24.5V29.5H31.5V22.5Z" fill="#000" data-color="color-2"></path> <path d="M7.5 22.5H0.5V29.5H7.5V22.5Z" fill="#000" data-color="color-2"></path> </svg>