<svg xmlns="http://www.w3.org/2000/svg" xmlns:xlink="http://www.w3.org/1999/xlink" x="0px" y="0px" width="32px" height="32px" viewBox="0 0 32 32"><path fill-rule="evenodd" clip-rule="evenodd" d="M17 10V23H15V10H17Z" fill="#000" data-color="color-2"></path> <path fill-rule="evenodd" clip-rule="evenodd" d="M6 3.5H26V5.5H6V3.5Z" fill="black"></path> <path fill-rule="evenodd" clip-rule="evenodd" d="M6 26.5H26V28.5H6V26.5Z" fill="black"></path> <path fill-rule="evenodd" clip-rule="evenodd" d="M26.5 26L26.5 6L28.5 6L28.5 26L26.5 26Z" fill="black"></path> <path fill-rule="evenodd" clip-rule="evenodd" d="M5.5 6L5.5 26L3.5 26L3.5 6L5.5 6Z" fill="black"></path> <path fill-rule="evenodd" clip-rule="evenodd" d="M1 1H8V8H1V1Z" fill="#000" data-color="color-2"></path> <path fill-rule="evenodd" clip-rule="evenodd" d="M1 24H8V31H1V24Z" fill="#000" data-color="color-2"></path> <path fill-rule="evenodd" clip-rule="evenodd" d="M24 1H31V8H24V1Z" fill="#000" data-color="color-2"></path> <path d="M24 24H31V31H24V24Z" fill="#000" data-color="color-2"></path> <path fill-rule="evenodd" clip-rule="evenodd" d="M10 10H22V12H10V10Z" fill="#000" data-color="color-2"></path></svg>