<svg xmlns="http://www.w3.org/2000/svg" xmlns:xlink="http://www.w3.org/1999/xlink" x="0px" y="0px" width="32px" height="32px" viewBox="0 0 32 32"> <path fill-rule="evenodd" clip-rule="evenodd" d="M10.4999 21C8.44049 21 6.83325 22.601 6.83325 24.5C6.83325 26.399 8.44049 28 10.4999 28H12V26H10V24H14V30H10.4999C7.40516 30 4.83325 27.5716 4.83325 24.5C4.83325 21.4284 7.40516 19 10.4999 19H12V21H10.4999Z" fill="#000" data-color="color-2"></path> <path fill-rule="evenodd" clip-rule="evenodd" d="M20 19H27V21H22V23.5H25.75V25.5H22V30H20V19Z" fill="#000" data-color="color-2"></path> <path fill-rule="evenodd" clip-rule="evenodd" d="M18 19V30H16V19H18Z" fill="#000" data-color="color-2"></path> <path fill-rule="evenodd" clip-rule="evenodd" d="M13.2426 1C12.1818 1 11.1644 1.42143 10.4142 2.17157L4.17157 8.41421C3.42143 9.16436 3 10.1818 3 11.2426V17H29V5C29 2.79086 27.2091 1 25 1H13.2426ZM13 11V3L5 11H13Z" fill="black"></path> </svg>