<svg xmlns="http://www.w3.org/2000/svg" xmlns:xlink="http://www.w3.org/1999/xlink" x="0px" y="0px" width="32px" height="32px" viewBox="0 0 32 32"> <path d="M14 19V29H29V19H14Z" fill="black"></path> <path fill-rule="evenodd" clip-rule="evenodd" d="M3 25L8 25L8 23L3 23L3 25Z" fill="#000" data-color="color-2"></path> <path fill-rule="evenodd" clip-rule="evenodd" d="M3 17L8 17L8 15L3 15L3 17Z" fill="#000" data-color="color-2"></path> <path fill-rule="evenodd" clip-rule="evenodd" d="M3 9L8 9L8 7L3 7L3 9Z" fill="#000" data-color="color-2"></path> <path fill-rule="evenodd" clip-rule="evenodd" d="M3 29L11 29L11 27L3 27L3 29Z" fill="#000" data-color="color-2"></path> <path fill-rule="evenodd" clip-rule="evenodd" d="M3 21L11 21L11 19L3 19L3 21Z" fill="#000" data-color="color-2"></path> <path fill-rule="evenodd" clip-rule="evenodd" d="M3 13L11 13L11 11L3 11L3 13Z" fill="#000" data-color="color-2"></path> <path fill-rule="evenodd" clip-rule="evenodd" d="M3 5L11 5L11 3L3 3L3 5Z" fill="#000" data-color="color-2"></path> </svg>