<svg xmlns="http://www.w3.org/2000/svg" xmlns:xlink="http://www.w3.org/1999/xlink" x="0px" y="0px" width="48px" height="48px" viewBox="0 0 48 48"> <path fill-rule="evenodd" clip-rule="evenodd" d="M27.5 26.5L27.5 9.5L30.5 9.5L30.5 26.5L27.5 26.5Z" fill="black"></path> <path fill-rule="evenodd" clip-rule="evenodd" d="M26.5 8.5L9.5 8.5L9.5 5.5L26.5 5.5L26.5 8.5Z" fill="black"></path> <path fill-rule="evenodd" clip-rule="evenodd" d="M5.5 26.5L5.5 9.5L8.5 9.5L8.5 26.5L5.5 26.5Z" fill="black"></path> <path fill-rule="evenodd" clip-rule="evenodd" d="M26.5 30.5L9.5 30.5L9.5 27.5L26.5 27.5L26.5 30.5Z" fill="black"></path> <path fill-rule="evenodd" clip-rule="evenodd" d="M46 46L18 46L18 33.5L21 33.5L21 43L43 43L43 21L33.5 21L33.5 18L46 18L46 46Z" fill="#000" data-color="color-2"></path> <path fill-rule="evenodd" clip-rule="evenodd" d="M12 2L12 12L2 12L2 2L12 2Z" fill="black"></path> <path fill-rule="evenodd" clip-rule="evenodd" d="M12 24L12 34L2 34L2 24L12 24Z" fill="black"></path> <path fill-rule="evenodd" clip-rule="evenodd" d="M34 2L34 12L24 12L24 2L34 2Z" fill="black"></path> <path fill-rule="evenodd" clip-rule="evenodd" d="M34 24L34 34L24 34L24 24L34 24Z" fill="black"></path> <path fill-rule="evenodd" clip-rule="evenodd" d="M24.5 21L21 21L21 24.5L18 24.5L18 18L24.5 18L24.5 21Z" fill="#000" data-color="color-2"></path> </svg>