<svg xmlns="http://www.w3.org/2000/svg" xmlns:xlink="http://www.w3.org/1999/xlink" x="0px" y="0px" width="48px" height="48px" viewBox="0 0 48 48"><path fill-rule="evenodd" clip-rule="evenodd" d="M25.5 16V34H22.5V16H25.5Z" fill="#000" data-color="color-2"></path> <path fill-rule="evenodd" clip-rule="evenodd" d="M16 16H32V19H16V16Z" fill="#000" data-color="color-2"></path> <path fill-rule="evenodd" clip-rule="evenodd" d="M11.5 7.5H36.5V10.5H11.5V7.5Z" fill="black"></path> <path fill-rule="evenodd" clip-rule="evenodd" d="M11.5 37.5H36.5V40.5H11.5V37.5Z" fill="black"></path> <path fill-rule="evenodd" clip-rule="evenodd" d="M37.5 11.5L40.5 11.5L40.5 36.5L37.5 36.5L37.5 11.5Z" fill="black"></path> <path fill-rule="evenodd" clip-rule="evenodd" d="M7.5 11.5L10.5 11.5L10.5 36.5L7.5 36.5L7.5 11.5Z" fill="black"></path> <path d="M4 34H14V44H4V34Z" fill="#000" data-color="color-2"></path> <path fill-rule="evenodd" clip-rule="evenodd" d="M34 34H44V44H34V34Z" fill="#000" data-color="color-2"></path> <path fill-rule="evenodd" clip-rule="evenodd" d="M4 4H14V14H4V4Z" fill="#000" data-color="color-2"></path> <path fill-rule="evenodd" clip-rule="evenodd" d="M34 4H44V14H34V4Z" fill="#000" data-color="color-2"></path></svg>