<svg xmlns="http://www.w3.org/2000/svg" xmlns:xlink="http://www.w3.org/1999/xlink" x="0px" y="0px" width="24px" height="24px" viewBox="0 0 24 24"> <path d="M11 14H13V22H11V14Z" fill="black"></path> <path d="M15 19C15 17.8954 15.8954 17 17 17H21V19H17V22H15V19Z" fill="black"></path> <path d="M9 19C9 17.8954 8.10457 17 7 17H3V19H7V22H9V19Z" fill="black"></path> <path d="M18 13V15H6V13H18Z" fill="black"></path> <path d="M20 11H22V22H20V11Z" fill="black"></path> <path d="M4 11H2V22H4V11Z" fill="black"></path> <path d="M12 10.5938C13.2201 10.0052 17.5 7.15143 17.5 4.16381C17.5 2.41619 16.1736 1 14.5382 1C13.4612 1 12.6545 1.7219 12 2.53333C11.3455 1.7219 10.5388 1 9.46175 1C7.82642 1 6.5 2.41619 6.5 4.16381C6.5 7.15143 10.7799 10.0052 12 10.5938Z" fill="#000" data-color="color-2"></path> </svg>