<svg xmlns="http://www.w3.org/2000/svg" xmlns:xlink="http://www.w3.org/1999/xlink" x="0px" y="0px" width="24px" height="24px" viewBox="0 0 24 24"> <path d="M17 8C19.7614 8 22 10.2386 22 13H15.3818L14.3818 15H9.61816L8.61816 13H2C2 10.2386 4.23858 8 7 8H17Z" fill="black"></path> <path d="M11 0H13V4H11V0Z" fill="#000" data-color="color-2"></path> <path d="M16 2H18V6H16V2Z" fill="#000" data-color="color-2"></path> <path d="M6 2H8V6H6V2Z" fill="#000" data-color="color-2"></path> <path d="M7.38184 15L8.38184 17H15.6182L16.6182 15H22V16C22 18.7614 19.7614 21 17 21H7C4.23858 21 2 18.7614 2 16V15H7.38184Z" fill="black"></path> </svg>