<svg xmlns="http://www.w3.org/2000/svg" xmlns:xlink="http://www.w3.org/1999/xlink" x="0px" y="0px" width="24px" height="24px" viewBox="0 0 24 24"> <path d="M23 19C23 20.6569 21.6569 22 20 22H4C2.34315 22 1 20.6569 1 19V17H23V19Z" fill="black"></path> <path d="M13 6V12H11V6H13Z" fill="#000" data-color="color-2"></path> <path d="M20 11C21.6569 11 23 12.3431 23 14V15H1V14C1 12.3949 2.26055 11.0842 3.8457 11.0039L20 11Z" fill="black"></path> <path d="M12 8C13.3808 8 14.5 6.95525 14.5 5.66638C14.5 4 12 2 12 2C12 2 9.5 4 9.5 5.66638C9.5 6.95438 10.6192 8 12 8Z" fill="#000" data-color="color-2"></path> </svg>