<svg xmlns="http://www.w3.org/2000/svg" xmlns:xlink="http://www.w3.org/1999/xlink" x="0px" y="0px" width="24px" height="24px" viewBox="0 0 24 24"> <path fill-rule="evenodd" clip-rule="evenodd" d="M7 2H17V7.01451L23 10.476V17H1V10.476L7 7.01451V2ZM11 12V14.01H9V12H11ZM15 12H13V14.01H15V12Z" fill="black"></path> <path fill-rule="evenodd" clip-rule="evenodd" d="M9 19V20C9 21.6569 7.65685 23 6 23H3V21H6C6.55228 21 7 20.5523 7 20V19H9Z" fill="#000" data-color="color-2"></path> <path fill-rule="evenodd" clip-rule="evenodd" d="M15 19V20C15 21.6569 16.3431 23 18 23H21V21H18C17.4477 21 17 20.5523 17 20V19H15Z" fill="#000" data-color="color-2"></path> <path fill-rule="evenodd" clip-rule="evenodd" d="M13 19V23H11V19H13Z" fill="#000" data-color="color-2"></path> </svg>