<svg xmlns="http://www.w3.org/2000/svg" xmlns:xlink="http://www.w3.org/1999/xlink" x="0px" y="0px" width="32px" height="32px" viewBox="0 0 32 32"> <path d="M28 11V4H22.5V2H30V11C30 12.0253 29.6395 13.0294 28.9668 13.7861C28.2907 14.5467 27.346 15 26.333 15H24.5V13H26.333C26.7345 13 27.1475 12.8217 27.4717 12.457C27.7992 12.0886 28 11.566 28 11Z" fill="#000" data-color="color-2"></path> <path fill-rule="evenodd" clip-rule="evenodd" d="M27.3984 25.3369C27.8085 27.7767 25.9271 30 23.4531 30H7.52539C5.06087 29.9998 3.18264 27.7922 3.57715 25.3594L5.96484 10.6318L3.08594 4.12695L3 3.93359V2H23.4746L27.3984 25.3369ZM5.66211 25H25.3135L24.9775 23H5.98633L5.66211 25ZM13 18V20H18V18H13ZM13 16H18V14H13V16ZM13 12H18V10H13V12Z" fill="black"></path> </svg>