<svg xmlns="http://www.w3.org/2000/svg" xmlns:xlink="http://www.w3.org/1999/xlink" x="0px" y="0px" width="32px" height="32px" viewBox="0 0 32 32"> <path d="M21.5859 16L16 21.5859L10.4141 16L16 10.4141L21.5859 16Z" fill="black"></path> <path d="M30 26C30 28.2091 28.2091 30 26 30H24.4141L30 24.4141V26Z" fill="black"></path> <path d="M2 7.58594V6C2 3.79086 3.79086 2 6 2H7.58594L2 7.58594Z" fill="black"></path> <path d="M26 2C28.2091 2 30 3.79086 30 6V7.58594L24.4141 2H26Z" fill="black"></path> <path d="M7.58594 30H6C3.79086 30 2 28.2091 2 26V24.4141L7.58594 30Z" fill="black"></path> <path d="M16 7.58594L10.4141 2H21.5859L16 7.58594Z" fill="#000" data-color="color-2"></path> <path d="M7.58594 16L2 21.5859V10.4141L7.58594 16Z" fill="#000" data-color="color-2"></path> <path d="M30 10.4141V21.5859L24.4141 16L30 10.4141Z" fill="#000" data-color="color-2"></path> <path d="M21.5859 30H10.4141L16 24.4141L21.5859 30Z" fill="#000" data-color="color-2"></path> <path d="M28.5859 23L23 28.5859L17.4141 23L23 17.4141L28.5859 23Z" fill="black"></path> <path d="M14.5859 23L9 28.5859L3.41406 23L9 17.4141L14.5859 23Z" fill="black"></path> <path d="M14.5859 9L9 14.5859L3.41406 9L9 3.41406L14.5859 9Z" fill="black"></path> <path d="M28.5859 9L23 14.5859L17.4141 9L23 3.41406L28.5859 9Z" fill="black"></path> </svg>