<svg xmlns="http://www.w3.org/2000/svg" xmlns:xlink="http://www.w3.org/1999/xlink" x="0px" y="0px" width="32px" height="32px" viewBox="0 0 32 32"> <path d="M18 10H14V14H12V8H20V14H18V10Z" fill="#000" data-color="color-2"></path> <path d="M6 11.9111C6.00001 10.3036 4.69639 9 3.08887 9H1V11H3.08887C3.59182 11 4 11.4082 4 11.9111V13.9111H6V11.9111Z" fill="black"></path> <path d="M26 11.9111C26 10.3036 27.3036 9 28.9111 9H31V11H28.9111C28.4082 11 28 11.4082 28 11.9111V13.9111H26V11.9111Z" fill="black"></path> <path d="M15 0H17V4H15V0Z" fill="#000" data-color="color-2"></path> <path d="M22 2H24V6H22V2Z" fill="#000" data-color="color-2"></path> <path d="M8 2H10V6H8V2Z" fill="#000" data-color="color-2"></path> <path fill-rule="evenodd" clip-rule="evenodd" d="M28 26C28 28.2091 26.2091 30 24 30H8C5.79086 30 4 28.2091 4 26V12H28V26ZM6 17V19H26V17H6Z" fill="black"></path> </svg>