<svg xmlns="http://www.w3.org/2000/svg" xmlns:xlink="http://www.w3.org/1999/xlink" x="0px" y="0px" width="32px" height="32px" viewBox="0 0 32 32"><path fill-rule="evenodd" clip-rule="evenodd" d="M26.8926 27.332C26.7198 29.4052 24.9866 31 22.9062 31H9.09375C7.0134 31 5.28019 29.4052 5.10742 27.332L3.91309 13H28.0869L26.8926 27.332ZM16 18C13.7909 18 12 19.7909 12 22C12 24.2091 13.7909 26 16 26C18.2091 26 20 24.2091 20 22C20 19.7909 18.2091 18 16 18Z" fill="black"></path> <path d="M22.1152 11H18.5791L18.9639 1H22.5L22.1152 11Z" fill="#000" data-color="color-2"></path> <path d="M26.2139 11H23.126L23.292 7H26.5L26.2139 11Z" fill="#000" data-color="color-2"></path> <path d="M8.8623 11H5.8125L5.5 6H8.63574L8.8623 11Z" fill="#000" data-color="color-2"></path> <path d="M13.4404 11H9.85352L9.41309 2H13L13.4404 11Z" fill="#000" data-color="color-2"></path> <path d="M17.4111 11H14.6338L14.3896 6H17.6035L17.4111 11Z" fill="#000" data-color="color-2"></path></svg>