<svg xmlns="http://www.w3.org/2000/svg" xmlns:xlink="http://www.w3.org/1999/xlink" x="0px" y="0px" width="32px" height="32px" viewBox="0 0 32 32"> <path d="M18 19C18 16.7909 19.7909 15 22 15C24.2091 15 26 16.7909 26 19H18Z" fill="#000" data-color="color-2"></path> <path d="M12 19C12 16.7909 13.7909 15 16 15C18.2091 15 20 16.7909 20 19H12Z" fill="#000" data-color="color-2"></path> <path d="M6 19C6 16.7909 7.79086 15 10 15C12.2091 15 14 16.7909 14 19H6Z" fill="#000" data-color="color-2"></path> <path fill-rule="evenodd" clip-rule="evenodd" d="M30 10.6666V30H28V10.6666H30Z" fill="black"></path> <path fill-rule="evenodd" clip-rule="evenodd" d="M29 28H3V25H29V28Z" fill="black"></path> <path fill-rule="evenodd" clip-rule="evenodd" d="M29 23H3V20H29V23Z" fill="black"></path> <path fill-rule="evenodd" clip-rule="evenodd" d="M4 10.6666V30H2V10.6666H4Z" fill="black"></path> <path fill-rule="evenodd" clip-rule="evenodd" d="M0.0809937 11L3.29528 2H28.7047L31.919 11H0.0809937ZM7.68513 9H9.73154L10.8149 4H8.76846L7.68513 9ZM15 4V9H17V4H15ZM21.1851 4L22.2685 9H24.3149L23.2315 4H21.1851Z" fill="black"></path> </svg>