<svg xmlns="http://www.w3.org/2000/svg" xmlns:xlink="http://www.w3.org/1999/xlink" x="0px" y="0px" width="32px" height="32px" viewBox="0 0 32 32"> <path d="M30 13V9H25V7H32V13C32 15.2091 30.2091 17 28 17H25V15H28C29.1046 15 30 14.1046 30 13Z" fill="black"></path> <path d="M13 0H15V5H13V0Z" fill="#000" data-color="color-2"></path> <path d="M18 2H20V5H18V2Z" fill="#000" data-color="color-2"></path> <path d="M8 2H10V5H8V2Z" fill="#000" data-color="color-2"></path> <path d="M15 15H12V22H20V15H17V7H27V17.5C27 24.4036 21.4036 30 14.5 30C7.59644 30 2 24.4036 2 17.5V7H15V15Z" fill="black"></path> </svg>