<svg xmlns="http://www.w3.org/2000/svg" xmlns:xlink="http://www.w3.org/1999/xlink" x="0px" y="0px" width="48px" height="48px" viewBox="0 0 48 48"> <path d="M35.5 5V28H32.5V5H35.5Z" fill="black"></path> <path d="M14.5 21V28L11.5 28V21L14.5 21Z" fill="black"></path> <path d="M6 15V4H9V15C9 17.2091 10.7909 19 13 19C15.2091 19 17 17.2091 17 15V4H20V15C20 18.866 16.866 22 13 22C9.13401 22 6 18.866 6 15Z" fill="black"></path> <path d="M42 4V22H26V4H42ZM29 19H39V7H29V19Z" fill="black"></path> <path d="M38 41C38 43.2091 36.2091 45 34 45C31.7909 45 30 43.2091 30 41V31H38V41Z" fill="#000" data-color="color-2"></path> <path d="M17 41C17 43.2091 15.2091 45 13 45C10.7909 45 9 43.2091 9 41V31H17V41Z" fill="#000" data-color="color-2"></path> </svg>