<svg xmlns="http://www.w3.org/2000/svg" xmlns:xlink="http://www.w3.org/1999/xlink" x="0px" y="0px" width="24px" height="24px" viewBox="0 0 24 24"> <path d="M12 5V3V3.30938" stroke="black" stroke-width="2" stroke-linecap="square" fill="none"></path> <path d="M12 19V21V20.6906" stroke="black" stroke-width="2" stroke-linecap="square" fill="none"></path> <path d="M19 12L21 12L20.6906 12" stroke="black" stroke-width="2" stroke-linecap="square" fill="none"></path> <path d="M5 12L3 12L3.30938 12" stroke="black" stroke-width="2" stroke-linecap="square" fill="none"></path> <path d="M12 21C16.9706 21 21 16.9706 21 12C21 7.02944 16.9706 3 12 3C7.02944 3 3 7.02944 3 12C3 16.9706 7.02944 21 12 21Z" stroke="black" stroke-width="2" stroke-miterlimit="10" stroke-linecap="square" fill="none"></path> <path d="M12 15C13.6569 15 15 13.6569 15 12C15 10.3431 13.6569 9 12 9C10.3431 9 9 10.3431 9 12C9 13.6569 10.3431 15 12 15Z" stroke="#000" stroke-width="2" stroke-miterlimit="10" stroke-linecap="square" data-color="color-2" fill="none"></path> </svg>