<svg xmlns="http://www.w3.org/2000/svg" xmlns:xlink="http://www.w3.org/1999/xlink" x="0px" y="0px" width="24px" height="24px" viewBox="0 0 24 24"> <path d="M17.5 7C18.8807 7 20 5.88071 20 4.5C20 3.11929 18.8807 2 17.5 2C16.1193 2 15 3.11929 15 4.5C15 5.88071 16.1193 7 17.5 7Z" stroke="#000" stroke-width="2" stroke-miterlimit="10" data-color="color-2" data-cap="butt" fill="none"></path> <path d="M5 7L7.81066 4.99238C8.20845 4.70825 8.75335 4.75335 9.09901 5.09901L10.1758 6.17578" stroke="black" stroke-width="2" stroke-miterlimit="10" stroke-linecap="square" fill="none"></path> <path d="M10.5 21.5L13.2929 18.7071C13.6834 18.3166 13.6834 17.6834 13.2929 17.2929L11.8348 15.8348" stroke="black" stroke-width="2" stroke-miterlimit="10" stroke-linecap="square" fill="none"></path> <path d="M21 11L18.1893 13.0076C17.7916 13.2917 17.2467 13.2467 16.901 12.901L13 9L2 20" stroke="black" stroke-width="2" stroke-miterlimit="10" stroke-linecap="square" fill="none"></path> </svg>