<svg xmlns="http://www.w3.org/2000/svg" xmlns:xlink="http://www.w3.org/1999/xlink" x="0px" y="0px" width="24px" height="24px" viewBox="0 0 24 24"> <path d="M9 20L9 4" stroke="#000" stroke-width="2" stroke-miterlimit="10" stroke-linecap="square" data-color="color-2" fill="none"></path> <path d="M13 12L14 12" stroke="#000" stroke-width="2" stroke-miterlimit="10" stroke-linecap="square" data-color="color-2" fill="none"></path> <path d="M13 8L15 8" stroke="#000" stroke-width="2" stroke-miterlimit="10" stroke-linecap="square" data-color="color-2" fill="none"></path> <path d="M13 16L15 16" stroke="#000" stroke-width="2" stroke-miterlimit="10" stroke-linecap="square" data-color="color-2" fill="none"></path> <path d="M2 20L22 20L22 15.5L21.9592 15.4932C20.2516 15.2086 19 13.7312 19 12C19 10.2688 20.2516 8.79141 21.9592 8.5068L22 8.5L22 4L2 4L2 8.5L2.04082 8.5068C3.74843 8.79141 5 10.2688 5 12C5 13.7312 3.74843 15.2086 2.04082 15.4932L2 15.5L2 20Z" stroke="black" stroke-width="2" stroke-miterlimit="10" stroke-linecap="square" fill="none"></path> </svg>