<svg xmlns="http://www.w3.org/2000/svg" xmlns:xlink="http://www.w3.org/1999/xlink" x="0px" y="0px" width="32px" height="32px" viewBox="0 0 32 32"> <path d="M16 23L16 28" stroke="#000" stroke-width="2" stroke-linecap="square" data-color="color-2" fill="none"></path> <path d="M11 14C11 16.7614 13.2386 19 16 19C18.7614 19 21 16.7614 21 14C21 11.2386 18.7614 9 16 9C13.2386 9 11 11.2386 11 14Z" stroke="#000" stroke-width="2" stroke-miterlimit="10" stroke-linecap="square" data-color="color-2" fill="none"></path> <path d="M21 5H11C6.02944 5 2 9.02944 2 14C2 18.9706 6.02944 23 11 23H21C25.9706 23 30 18.9706 30 14C30 9.02944 25.9706 5 21 5Z" stroke="black" stroke-width="2" stroke-miterlimit="10" stroke-linecap="square" fill="none"></path> <path d="M24 14C24 14.8284 24.6716 15.5 25.5 15.5C26.3284 15.5 27 14.8284 27 14C27 13.1716 26.3284 12.5 25.5 12.5C24.6716 12.5 24 13.1716 24 14Z" fill="black" data-cap="butt" data-stroke="none"></path> <path d="M14.5 14C14.5 14.8284 15.1716 15.5 16 15.5C16.8284 15.5 17.5 14.8284 17.5 14C17.5 13.1716 16.8284 12.5 16 12.5C15.1716 12.5 14.5 13.1716 14.5 14Z" fill="black" data-cap="butt" data-stroke="none"></path> <path d="M9 28L23 28" stroke="#000" stroke-width="2" stroke-linecap="square" data-color="color-2" fill="none"></path> </svg>