<svg xmlns="http://www.w3.org/2000/svg" xmlns:xlink="http://www.w3.org/1999/xlink" x="0px" y="0px" width="32px" height="32px" viewBox="0 0 32 32"><path d="M17 3H22C23.6569 3 25 4.34315 25 6V13V12" stroke="#000" stroke-width="2" stroke-linecap="square" data-color="color-2" fill="none"></path> <path d="M21.5 9.5L25 13L28.5 9.5" stroke="#000" stroke-width="2" stroke-miterlimit="10" stroke-linecap="square" data-color="color-2" fill="none"></path> <path d="M16 29L23.5 19L29 25" stroke="black" stroke-width="2" stroke-miterlimit="10" data-cap="butt" fill="none"></path> <path d="M17.5 18.25C17.9142 18.25 18.25 17.9142 18.25 17.5C18.25 17.0858 17.9142 16.75 17.5 16.75C17.0858 16.75 16.75 17.0858 16.75 17.5C16.75 17.9142 17.0858 18.25 17.5 18.25Z" fill="black" data-cap="butt" data-stroke="none"></path> <path d="M7 15V3" stroke="black" stroke-width="2" stroke-linecap="square" fill="none"></path> <path d="M2 3H12" stroke="black" stroke-width="2" stroke-linecap="square" fill="none"></path> <path d="M4.9 21.1L4 19L3.1 21.1L1 22L3.1 22.9L4 25L4.9 22.9L7 22L4.9 21.1Z" fill="#000" data-color="color-2" data-cap="butt" data-stroke="none"></path> <path d="M7.6 28.4L7 27L6.4 28.4L5 29L6.4 29.6L7 31L7.6 29.6L9 29L7.6 28.4Z" fill="#000" data-color="color-2" data-cap="butt" data-stroke="none"></path> <path d="M17.5 18C17.7761 18 18 17.7761 18 17.5C18 17.2239 17.7761 17 17.5 17C17.2239 17 17 17.2239 17 17.5C17 17.7761 17.2239 18 17.5 18Z" fill="black" stroke="black" stroke-width="2" stroke-linecap="square"></path> <path d="M29 15V26C29 27.6569 27.6569 29 26 29H15C13.3431 29 12 27.6569 12 26V15C12 13.3431 13.3431 12 15 12H18.3576" stroke="black" stroke-width="2" stroke-miterlimit="10" stroke-linecap="square" fill="none"></path></svg>