<svg xmlns="http://www.w3.org/2000/svg" xmlns:xlink="http://www.w3.org/1999/xlink" x="0px" y="0px" width="32px" height="32px" viewBox="0 0 32 32"> <path d="M22 29V21H10V29" stroke="#000" stroke-width="2" stroke-miterlimit="10" stroke-linecap="square" data-color="color-2" fill="none"></path> <path d="M8 29L24 29C25.6569 29 27 27.6569 27 26L27 6C27 4.34315 25.6569 3 24 3L13.2592 3C12.3809 3 11.5467 3.38489 10.9767 4.05311L5.71754 10.2188C5.25441 10.7617 5 11.452 5 12.1657L5 26C5 27.6569 6.34314 29 8 29Z" stroke="black" stroke-width="2" stroke-miterlimit="10" stroke-linecap="square" fill="none"></path> <path d="M22 8V10" stroke="#000" stroke-width="2" stroke-linecap="square" data-color="color-2" fill="none"></path> <path d="M18 8V10" stroke="#000" stroke-width="2" stroke-linecap="square" data-color="color-2" fill="none"></path> <path d="M14 8V10" stroke="#000" stroke-width="2" stroke-linecap="square" data-color="color-2" fill="none"></path> </svg>