<svg xmlns="http://www.w3.org/2000/svg" xmlns:xlink="http://www.w3.org/1999/xlink" x="0px" y="0px" width="32px" height="32px" viewBox="0 0 32 32"> <path d="M16 16V23" stroke="#000" stroke-width="2" stroke-linecap="square" data-color="color-2" fill="none"></path> <path d="M2 16C2 16.2761 2.22386 16.5 2.5 16.5C2.77614 16.5 3 16.2761 3 16C3 15.7239 2.77614 15.5 2.5 15.5C2.22386 15.5 2 15.7239 2 16Z" fill="#000" stroke="#000" stroke-width="2" data-color="color-2" data-cap="butt"></path> <path d="M9 28.1244C9.23915 28.2624 9.54494 28.1805 9.68301 27.9413C9.82108 27.7022 9.73915 27.3964 9.5 27.2583C9.26085 27.1203 8.95506 27.2022 8.81699 27.4413C8.67891 27.6805 8.76085 27.9863 9 28.1244Z" fill="#000" stroke="#000" stroke-width="2" data-color="color-2" data-cap="butt"></path> <path d="M3.87564 9C3.73757 9.23915 3.81951 9.54494 4.05866 9.68301C4.2978 9.82108 4.6036 9.73915 4.74167 9.5C4.87974 9.26085 4.7978 8.95506 4.55866 8.81699C4.31951 8.67891 4.01371 8.76085 3.87564 9Z" fill="#000" stroke="#000" stroke-width="2" data-color="color-2" data-cap="butt"></path> <path d="M3.87564 23C4.01371 23.2391 4.31951 23.3211 4.55866 23.183C4.7978 23.0449 4.87974 22.7391 4.74167 22.5C4.6036 22.2609 4.2978 22.1789 4.05866 22.317C3.81951 22.4551 3.73757 22.7609 3.87564 23Z" fill="#000" stroke="#000" stroke-width="2" data-color="color-2" data-cap="butt"></path> <path d="M9 3.87564C8.76085 4.01371 8.67892 4.31951 8.81699 4.55866C8.95506 4.7978 9.26085 4.87974 9.5 4.74167C9.73915 4.6036 9.82109 4.2978 9.68301 4.05866C9.54494 3.81951 9.23915 3.73757 9 3.87564Z" fill="#000" stroke="#000" stroke-width="2" data-color="color-2" data-cap="butt"></path> <path d="M16 30C23.732 30 30 23.732 30 16C30 8.26801 23.732 2 16 2" stroke="black" stroke-width="2" stroke-miterlimit="10" stroke-linecap="square" fill="none"></path> </svg>