<svg xmlns="http://www.w3.org/2000/svg" xmlns:xlink="http://www.w3.org/1999/xlink" x="0px" y="0px" width="32px" height="32px" viewBox="0 0 32 32"> <path d="M16 9V3" stroke="black" stroke-width="2" stroke-linecap="square" fill="none"></path> <path d="M22.5 9.00001V3" stroke="black" stroke-width="2" stroke-linecap="square" fill="none"></path> <path d="M3 9L29 9" stroke="black" stroke-width="2" stroke-linecap="square" fill="none"></path> <path d="M2.99999 23L12.1018 23" stroke="black" stroke-width="2" stroke-linecap="square" fill="none"></path> <path d="M9.5 29V23" stroke="black" stroke-width="2" stroke-linecap="square" fill="none"></path> <path d="M9.5 9V3" stroke="black" stroke-width="2" stroke-linecap="square" fill="none"></path> <path d="M29 14.5L29 6C29 4.34315 27.6569 3 26 3L6 3C4.34315 3 3 4.34315 3 6L3 26C3 27.6569 4.34315 29 6 29L15.2971 29" stroke="black" stroke-width="2" stroke-miterlimit="10" stroke-linecap="square" fill="none"></path> <path d="M23 30C24.5526 29.2941 30 25.3821 30 21.7962C30 19.6998 28.3116 18 26.2312 18C24.8592 18 23.8344 18.8668 23 19.8395C22.167 18.8654 21.1408 18 19.7688 18C17.687 18 16 19.6998 16 21.7962C16 25.3821 21.4474 29.2941 23 30Z" stroke="#000" stroke-width="2" stroke-miterlimit="10" stroke-linecap="square" data-color="color-2" fill="none"></path> </svg>