<svg xmlns="http://www.w3.org/2000/svg" xmlns:xlink="http://www.w3.org/1999/xlink" x="0px" y="0px" width="32px" height="32px" viewBox="0 0 32 32"> <path d="M9 11L9 2L23 2L23 11" stroke="#000" stroke-width="2" stroke-miterlimit="10" stroke-linecap="square" data-color="color-2" fill="none"></path> <path d="M13 11V7" stroke="#000" stroke-width="2" stroke-linecap="square" data-color="color-2" fill="none"></path> <path d="M19 11V7" stroke="#000" stroke-width="2" stroke-linecap="square" data-color="color-2" fill="none"></path> <path d="M26 11L6 11L6 19.3496C6 19.7723 6.13392 20.1841 6.38253 20.526L9.25384 24.474C9.50245 24.8159 9.63636 25.2277 9.63636 25.6504L9.63636 30L22.3636 30L22.3636 25.6504C22.3636 25.2277 22.4976 24.8159 22.7462 24.474L25.6175 20.526C25.8661 20.1841 26 19.7723 26 19.3496L26 11Z" stroke="black" stroke-width="2" stroke-miterlimit="10" stroke-linecap="square" fill="none"></path> <path d="M20 15H12V19H20V15Z" stroke="black" stroke-width="2" stroke-miterlimit="10" stroke-linecap="square" fill="none"></path> </svg>