<svg xmlns="http://www.w3.org/2000/svg" xmlns:xlink="http://www.w3.org/1999/xlink" x="0px" y="0px" width="32px" height="32px" viewBox="0 0 32 32"> <path d="M4 25.8293C2.83481 25.4175 2 24.3062 2 23V9C2 7.34315 3.34315 6 5 6H21C21.7684 6 22.4692 6.28885 23 6.76389" stroke="black" stroke-width="2" stroke-miterlimit="10" data-cap="butt" fill="none"></path> <path d="M25.3485 10.3257L30 8V24L24 21V23C24 24.6569 22.6569 26 21 26H9.65604" stroke="black" stroke-width="2" stroke-miterlimit="10" stroke-linecap="square" fill="none"></path> <path d="M8 13C8.55228 13 9 12.5523 9 12C9 11.4477 8.55228 11 8 11C7.44772 11 7 11.4477 7 12C7 12.5523 7.44772 13 8 13Z" fill="#000" stroke="#000" stroke-width="2" data-color="color-2" data-cap="butt"></path> <path d="M25 5L2 28" stroke="#000" stroke-width="2" stroke-linecap="square" data-color="color-2" fill="none"></path> </svg>