<svg xmlns="http://www.w3.org/2000/svg" xmlns:xlink="http://www.w3.org/1999/xlink" x="0px" y="0px" width="32px" height="32px" viewBox="0 0 32 32"> <path d="M16 29V24" stroke="black" stroke-width="2" stroke-linecap="square" fill="none"></path> <path d="M16 8.00001V3" stroke="black" stroke-width="2" stroke-linecap="square" fill="none"></path> <path d="M22.5 29V24" stroke="black" stroke-width="2" stroke-linecap="square" fill="none"></path> <path d="M22.5 8.00001V3" stroke="black" stroke-width="2" stroke-linecap="square" fill="none"></path> <path d="M3 8L29 8" stroke="black" stroke-width="2" stroke-linecap="square" fill="none"></path> <path d="M3 24L29 24" stroke="black" stroke-width="2" stroke-linecap="square" fill="none"></path> <path d="M9.5 29V24" stroke="black" stroke-width="2" stroke-linecap="square" fill="none"></path> <path d="M9.5 8V3" stroke="black" stroke-width="2" stroke-linecap="square" fill="none"></path> <path d="M13.5 12L20.5 16L13.5 20V12Z" stroke="#000" stroke-width="2" stroke-miterlimit="10" stroke-linecap="square" data-color="color-2" fill="none"></path> <path d="M26 3L6 3C4.34315 3 3 4.34315 3 6L3 26C3 27.6569 4.34315 29 6 29L26 29C27.6569 29 29 27.6569 29 26L29 6C29 4.34315 27.6569 3 26 3Z" stroke="black" stroke-width="2" stroke-miterlimit="10" stroke-linecap="square" fill="none"></path> </svg>