<svg xmlns="http://www.w3.org/2000/svg" xmlns:xlink="http://www.w3.org/1999/xlink" x="0px" y="0px" width="32px" height="32px" viewBox="0 0 32 32"><path d="M16 18.5C18.2091 18.5 20 16.7091 20 14.5C20 12.2909 18.2091 10.5 16 10.5C13.7909 10.5 12 12.2909 12 14.5C12 16.7091 13.7909 18.5 16 18.5Z" stroke="black" stroke-width="2" stroke-miterlimit="10" fill="none" data-cap="butt"></path> <path d="M27.4001 4.59999L25.4501 0.0499878L23.5001 4.59999L18.9501 6.54999L23.5001 8.49999L25.4501 13.05L27.4001 8.49999L31.9501 6.54999L27.4001 4.59999Z" fill="#000" data-color="color-2" data-stroke="none" data-cap="butt"></path> <path d="M7.29382 26.9644C9.01173 24.0003 12.2671 22 16 22C19.7328 22 22.9882 24.0003 24.7061 26.9644" stroke="black" stroke-width="2" stroke-miterlimit="10" fill="none" data-cap="butt"></path> <path d="M16 2C8.26801 2 2 8.26801 2 16C2 20.4413 4.0681 24.3996 7.29383 26.9644C9.68384 28.8647 12.7093 30 16 30C19.2907 30 22.3161 28.8647 24.7061 26.9644C27.9319 24.3996 30 20.4413 30 16" stroke="black" stroke-width="2" stroke-miterlimit="10" stroke-linecap="square" fill="none"></path></svg>