<svg xmlns="http://www.w3.org/2000/svg" xmlns:xlink="http://www.w3.org/1999/xlink" x="0px" y="0px" width="48px" height="48px" viewBox="0 0 48 48"><path d="M24 33C28.9706 33 33 28.9706 33 24C33 19.0294 28.9706 15 24 15C19.0294 15 15 19.0294 15 24C15 28.9706 19.0294 33 24 33Z" stroke="#000" stroke-width="2" stroke-miterlimit="10" stroke-linecap="square" data-color="color-2" fill="none"></path> <path d="M38 5H10C7.23858 5 5 7.23858 5 10V38C5 40.7614 7.23858 43 10 43H38C40.7614 43 43 40.7614 43 38V10C43 7.23858 40.7614 5 38 5Z" stroke="black" stroke-width="2" stroke-miterlimit="10" stroke-linecap="square" fill="none"></path> <path d="M12 13C12.5523 13 13 12.5523 13 12C13 11.4477 12.5523 11 12 11C11.4477 11 11 11.4477 11 12C11 12.5523 11.4477 13 12 13Z" fill="#000" stroke="#000" stroke-width="2" data-color="color-2" data-cap="butt"></path></svg>