<svg xmlns="http://www.w3.org/2000/svg" xmlns:xlink="http://www.w3.org/1999/xlink" x="0px" y="0px" width="48px" height="48px" viewBox="0 0 48 48"> <path d="M5 34H43" stroke="black" stroke-width="2" data-cap="butt" fill="none"></path> <path d="M24 28C28.4183 28 32 24.4183 32 20C32 15.5817 28.4183 12 24 12C19.5817 12 16 15.5817 16 20C16 24.4183 19.5817 28 24 28Z" stroke="#000" stroke-width="2" stroke-miterlimit="10" stroke-linecap="square" data-color="color-2" fill="none"></path> <path d="M38 5H10C7.23858 5 5 7.23858 5 10V38C5 40.7614 7.23858 43 10 43H38C40.7614 43 43 40.7614 43 38V10C43 7.23858 40.7614 5 38 5Z" stroke="black" stroke-width="2" stroke-miterlimit="10" stroke-linecap="square" fill="none"></path> <path d="M11 12C11.5523 12 12 11.5523 12 11C12 10.4477 11.5523 10 11 10C10.4477 10 10 10.4477 10 11C10 11.5523 10.4477 12 11 12Z" fill="#000" stroke="#000" stroke-width="2" data-color="color-2" data-cap="butt"></path> </svg>