<svg xmlns="http://www.w3.org/2000/svg" xmlns:xlink="http://www.w3.org/1999/xlink" x="0px" y="0px" width="48px" height="48px" viewBox="0 0 48 48"> <path d="M17 5H10C7.23858 5 5 7.23858 5 10L5 17" stroke="#000" stroke-width="2" stroke-miterlimit="10" stroke-linecap="square" data-color="color-2" fill="none"></path> <path d="M17 43H10C7.23858 43 5 40.7614 5 38L5 31" stroke="#000" stroke-width="2" stroke-miterlimit="10" stroke-linecap="square" data-color="color-2" fill="none"></path> <path d="M43 17L43 10C43 7.23858 40.7614 5 38 5L31 5" stroke="#000" stroke-width="2" stroke-miterlimit="10" stroke-linecap="square" data-color="color-2" fill="none"></path> <path d="M43 31L43 38C43 40.7614 40.7614 43 38 43L31 43" stroke="#000" stroke-width="2" stroke-miterlimit="10" stroke-linecap="square" data-color="color-2" fill="none"></path> <path d="M19 25.7273V12.5C19 11.1193 20.1193 10 21.5 10V10C22.8807 10 24 11.1193 24 12.5V19.5909L31.2066 21.7406C33.0071 22.1738 34.2045 23.8826 34 25.7273L32.7757 38H20V35.5455L16.2044 31.1162C15.4511 30.4192 15.0227 29.4383 15.0227 28.4108L15.0227 25.5228C15.0227 23.6024 16.5795 22.0455 18.5 22.0455V22.0455" stroke="black" stroke-width="2" stroke-miterlimit="2" stroke-linecap="square" fill="none"></path> </svg>