<svg xmlns="http://www.w3.org/2000/svg" xmlns:xlink="http://www.w3.org/1999/xlink" x="0px" y="0px" width="18px" height="18px" viewBox="0 0 18 18"><path d="M9,9c-2.009-2.412-3.19-4.254-3.19-5.902,0-.622,.3-1.222,.976-1.329,.805-.128,1.66,.421,2.214,1.081,.555-.66,1.409-1.208,2.214-1.081,.676,.107,.976,.707,.976,1.329,0,1.649-1.181,3.491-3.19,5.902" fill="none" stroke="#000" stroke-linecap="round" stroke-linejoin="round" stroke-width="1.5" data-color="color-2"></path><path d="M9,9c2.009,2.412,3.19,4.254,3.19,5.902,0,.622-.3,1.222-.976,1.329-.805,.128-1.66-.421-2.214-1.081-.555,.66-1.409,1.208-2.214,1.081-.676-.107-.976-.707-.976-1.329,0-1.649,1.181-3.491,3.19-5.902" fill="none" stroke="#000" stroke-linecap="round" stroke-linejoin="round" stroke-width="1.5" data-color="color-2"></path><path d="M9,9c2.412-2.009,4.254-3.19,5.902-3.19,.622,0,1.222,.3,1.329,.976,.128,.805-.421,1.66-1.081,2.214,.66,.555,1.208,1.409,1.081,2.214-.107,.676-.707,.976-1.329,.976-1.649,0-3.491-1.181-5.902-3.19" fill="none" stroke="#000" stroke-linecap="round" stroke-linejoin="round" stroke-width="1.5"></path><path d="M9,9c-2.412,2.009-4.254,3.19-5.902,3.19-.622,0-1.222-.3-1.329-.976-.128-.805,.421-1.66,1.081-2.214-.66-.555-1.208-1.409-1.081-2.214,.107-.676,.707-.976,1.329-.976,1.649,0,3.491,1.181,5.902,3.19" fill="none" stroke="#000" stroke-linecap="round" stroke-linejoin="round" stroke-width="1.5"></path></svg>