<svg xmlns="http://www.w3.org/2000/svg" xmlns:xlink="http://www.w3.org/1999/xlink" x="0px" y="0px" width="18px" height="18px" viewBox="0 0 18 18"><path d="M2.25,10V2.172c0-.603,.676-.96,1.174-.619l3.576,2.447" fill="none" stroke="#000" stroke-linecap="round" stroke-linejoin="round" stroke-width="1.5" data-color="color-2"></path><path d="M15.75,10V2.172c0-.603-.676-.96-1.174-.619l-3.576,2.447" fill="none" stroke="#000" stroke-linecap="round" stroke-linejoin="round" stroke-width="1.5" data-color="color-2"></path><path d="M9,13.417c.434-.477,.801-.967,1-1.491-.333-.117-.667-.175-1-.175-.333,0-.667,.058-1,.175,.199,.524,.566,1.015,1,1.491h0Z" stroke="#000" stroke-linecap="round" stroke-linejoin="round" stroke-width="1.5" fill="#000"></path><circle cx="6" cy="9.5" r="1" fill="#000" data-color="color-2" data-stroke="none"></circle><circle cx="12" cy="9.5" r="1" fill="#000" data-color="color-2" data-stroke="none"></circle><path d="M15.442,11.871c.2-.591,.308-1.219,.308-1.871,0-3.452-3.022-6.25-6.75-6.25-3.728,0-6.75,2.798-6.75,6.25,0,.652,.108,1.28,.308,1.871" fill="none" stroke="#000" stroke-linecap="round" stroke-linejoin="round" stroke-width="1.5"></path><path d="M11.655,15.748c-.815,.323-1.713,.502-2.655,.502-.943,0-1.84-.179-2.655-.502" fill="none" stroke="#000" stroke-linecap="round" stroke-linejoin="round" stroke-width="1.5"></path><line x1="4.25" y1="11.75" x2=".75" y2="12" fill="none" stroke="#000" stroke-linecap="round" stroke-linejoin="round" stroke-width="1.5"></line><line x1="5.25" y1="13.5" x2="1.5" y2="15" fill="none" stroke="#000" stroke-linecap="round" stroke-linejoin="round" stroke-width="1.5"></line><line x1="13.75" y1="11.75" x2="17.25" y2="12" fill="none" stroke="#000" stroke-linecap="round" stroke-linejoin="round" stroke-width="1.5"></line><line x1="12.75" y1="13.5" x2="16.5" y2="15" fill="none" stroke="#000" stroke-linecap="round" stroke-linejoin="round" stroke-width="1.5"></line><line x1="9" y1="13" x2="9" y2="16.25" fill="none" stroke="#000" stroke-linecap="round" stroke-linejoin="round" stroke-width="1.5"></line></svg>