<svg xmlns="http://www.w3.org/2000/svg" xmlns:xlink="http://www.w3.org/1999/xlink" x="0px" y="0px" width="18px" height="18px" viewBox="0 0 18 18"><line x1="9" y1="2.25" x2="9" y2=".75" fill="none" stroke="#000" stroke-linecap="round" stroke-linejoin="round" stroke-width="1.5" data-color="color-2"></line><circle cx="9" cy="8.5" r="3.25" fill="none" stroke="#000" stroke-linecap="round" stroke-linejoin="round" stroke-width="1.5"></circle><circle cx="9" cy="14.5" r="1.5" fill="#000" stroke-width="0" data-color="color-2"></circle><path d="m6.442,10.5l-2.78-1.741c-.26-.163-.431-.437-.464-.743l-.449-4.266" fill="none" stroke="#000" stroke-linecap="round" stroke-linejoin="round" stroke-width="1.5"></path><path d="m7.917,11.75l-2.215,1.454c-.282.185-.451.499-.451.836v2.21" fill="none" stroke="#000" stroke-linecap="round" stroke-linejoin="round" stroke-width="1.5"></path><path d="m7.016,11.25h-2.777c-.309,0-.6.142-.789.386l-1.45,1.864" fill="none" stroke="#000" stroke-linecap="round" stroke-linejoin="round" stroke-width="1.5"></path><path d="m11.558,10.5l2.78-1.741c.26-.163.431-.437.464-.743l.449-4.266" fill="none" stroke="#000" stroke-linecap="round" stroke-linejoin="round" stroke-width="1.5"></path><path d="m10.083,11.75l2.215,1.454c.282.185.451.499.451.836v2.21" fill="none" stroke="#000" stroke-linecap="round" stroke-linejoin="round" stroke-width="1.5"></path><path d="m10.984,11.25h2.777c.309,0,.6.142.789.386l1.45,1.864" fill="none" stroke="#000" stroke-linecap="round" stroke-linejoin="round" stroke-width="1.5"></path></svg>