<svg xmlns="http://www.w3.org/2000/svg" xmlns:xlink="http://www.w3.org/1999/xlink" x="0px" y="0px" width="12px" height="12px" viewBox="0 0 12 12"><path d="m5.75,11.5c-.414,0-.75-.336-.75-.75V3.25c0-1.517,1.233-2.75,2.75-2.75h2c.414,0,.75.336.75.75s-.336.75-.75.75h-2c-.689,0-1.25.561-1.25,1.25v7.5c0,.414-.336.75-.75.75Z" fill="#000" stroke-width="0" data-color="color-2"></path><path d="m5.75,11.75c-.192,0-.384-.073-.53-.22l-3.25-3.25c-.293-.293-.293-.768,0-1.061s.768-.293,1.061,0l2.72,2.72,2.72-2.72c.293-.293.768-.293,1.061,0s.293.768,0,1.061l-3.25,3.25c-.146.146-.338.22-.53.22Z" stroke-width="0" fill="#000"></path></svg>