<svg xmlns="http://www.w3.org/2000/svg" xmlns:xlink="http://www.w3.org/1999/xlink" x="0px" y="0px" width="12px" height="12px" viewBox="0 0 12 12"><path d="m10,1h-4.146c-.406,0-.769.242-.924.617s-.07.803.217,1.09l4.146,4.146c.192.192.446.293.706.293.129,0,.259-.025.384-.077.375-.155.617-.518.617-.924V2c0-.551-.449-1-1-1Z" fill="#000" stroke-width="0" data-color="color-2"></path><path d="m2.707,5.146c-.287-.287-.714-.372-1.09-.217-.375.155-.617.518-.617.924v4.146c0,.551.449,1,1,1h4.146c.406,0,.769-.242.924-.617s.07-.803-.217-1.09L2.707,5.146Z" stroke-width="0" fill="#000"></path></svg>