<svg xmlns="http://www.w3.org/2000/svg" xmlns:xlink="http://www.w3.org/1999/xlink" x="0px" y="0px" width="12px" height="12px" viewBox="0 0 12 12"><path d="m10.25,11c-.192,0-.384-.073-.53-.22L1.396,2.457c-.293-.293-.293-.768,0-1.061s.768-.293,1.061,0l8.323,8.323c.293.293.293.768,0,1.061-.146.146-.338.22-.53.22Z" fill="#000" stroke-width="0" data-color="color-2"></path><path d="m1.75,7.25c-.414,0-.75-.336-.75-.75V1.75c0-.414.336-.75.75-.75h4.75c.414,0,.75.336.75.75s-.336.75-.75.75H2.5v4c0,.414-.336.75-.75.75Z" stroke-width="0" fill="#000"></path></svg>