<svg xmlns="http://www.w3.org/2000/svg" xmlns:xlink="http://www.w3.org/1999/xlink" x="0px" y="0px" width="12px" height="12px" viewBox="0 0 12 12"><path d="m7,5.25H2.561l1.22-1.22c.293-.293.293-.768,0-1.061s-.768-.293-1.061,0L.22,5.47c-.293.293-.293.768,0,1.061l2.5,2.5c.146.146.338.22.53.22s.384-.073.53-.22c.293-.293.293-.768,0-1.061l-1.22-1.22h4.439c.414,0,.75-.336.75-.75s-.336-.75-.75-.75Z" fill="#000" stroke-width="0" data-color="color-2"></path><path d="m9.25,12h-2.5c-.414,0-.75-.336-.75-.75s.336-.75.75-.75h2.5c.689,0,1.25-.561,1.25-1.25V2.75c0-.689-.561-1.25-1.25-1.25h-2.5c-.414,0-.75-.336-.75-.75s.336-.75.75-.75h2.5c1.517,0,2.75,1.233,2.75,2.75v6.5c0,1.517-1.233,2.75-2.75,2.75Z" stroke-width="0" fill="#000"></path></svg>