<svg xmlns="http://www.w3.org/2000/svg" xmlns:xlink="http://www.w3.org/1999/xlink" x="0px" y="0px" width="12px" height="12px" viewBox="0 0 12 12"><path d="m7.97,2.72l-1.22,1.22V.75c0-.414-.336-.75-.75-.75s-.75.336-.75.75v3.189l-1.22-1.22c-.293-.293-.768-.293-1.061,0s-.293.768,0,1.061l2.5,2.5c.146.146.338.22.53.22s.384-.073.53-.22l2.5-2.5c.293-.293.293-.768,0-1.061s-.768-.293-1.061,0Z" fill="#000" stroke-width="0" data-color="color-2"></path><rect y="7.5" width="12" height="4.5" rx="1.75" ry="1.75" stroke-width="0" fill="#000"></rect></svg>