<svg xmlns="http://www.w3.org/2000/svg" xmlns:xlink="http://www.w3.org/1999/xlink" x="0px" y="0px" width="12px" height="12px" viewBox="0 0 12 12"><path d="m6,11.75c-.414,0-.75-.336-.75-.75v-5.75c0-.414.336-.75.75-.75s.75.336.75.75v5.75c0,.414-.336.75-.75.75Z" fill="#000" stroke-width="0" data-color="color-2"></path><path d="m6.986.797c-.477-.613-1.496-.613-1.973,0l-2.478,3.185c-.296.38-.348.885-.137,1.317.211.433.642.701,1.123.701h4.955c.481,0,.912-.269,1.123-.701.211-.432.159-.937-.137-1.317L6.986.797Z" stroke-width="0" fill="#000"></path></svg>