<svg xmlns="http://www.w3.org/2000/svg" xmlns:xlink="http://www.w3.org/1999/xlink" x="0px" y="0px" width="12px" height="12px" viewBox="0 0 12 12"><path d="m6.53.22c-.293-.293-.768-.293-1.061,0l-2.5,2.5c-.293.293-.293.768,0,1.061s.768.293,1.061,0l1.22-1.22v3.189c0,.414.336.75.75.75s.75-.336.75-.75v-3.189l1.22,1.22c.146.146.338.22.53.22s.384-.073.53-.22c.293-.293.293-.768,0-1.061L6.53.22Z" fill="#000" stroke-width="0" data-color="color-2"></path><rect y="7.5" width="12" height="4.5" rx="1.75" ry="1.75" stroke-width="0" fill="#000"></rect></svg>