<svg xmlns="http://www.w3.org/2000/svg" xmlns:xlink="http://www.w3.org/1999/xlink" x="0px" y="0px" width="12px" height="12px" viewBox="0 0 12 12"><path d="m6,12c-3.309,0-6-2.691-6-6S2.691,0,6,0c2.31,0,4.375,1.289,5.392,3.364.182.372.028.821-.344,1.003-.374.182-.821.027-1.004-.344-.762-1.557-2.312-2.523-4.044-2.523C3.519,1.5,1.5,3.519,1.5,6s2.019,4.5,4.5,4.5c1.965,0,3.687-1.255,4.286-3.125.126-.393.547-.613.942-.485.395.126.612.549.485.943-.799,2.492-3.095,4.167-5.714,4.167Z" fill="#000" stroke-width="0" data-color="color-2"></path><path d="m10.75,4.5h-3c-.414,0-.75-.336-.75-.75s.336-.75.75-.75h2.25V.75c0-.414.336-.75.75-.75s.75.336.75.75v3c0,.414-.336.75-.75.75Z" stroke-width="0" fill="#000"></path></svg>