<svg xmlns="http://www.w3.org/2000/svg" xmlns:xlink="http://www.w3.org/1999/xlink" x="0px" y="0px" width="12px" height="12px" viewBox="0 0 12 12"><path d="m10.75,10.5c-.414,0-.75-.336-.75-.75v-2c0-.689-.561-1.25-1.25-1.25H1.25c-.414,0-.75-.336-.75-.75s.336-.75.75-.75h7.5c1.517,0,2.75,1.233,2.75,2.75v2c0,.414-.336.75-.75.75Z" fill="#000" stroke-width="0" data-color="color-2"></path><path d="m4.25,9.75c-.192,0-.384-.073-.53-.22L.47,6.28c-.293-.293-.293-.768,0-1.061L3.72,1.97c.293-.293.768-.293,1.061,0s.293.768,0,1.061l-2.72,2.72,2.72,2.72c.293.293.293.768,0,1.061-.146.146-.338.22-.53.22Z" stroke-width="0" fill="#000"></path></svg>