<svg xmlns="http://www.w3.org/2000/svg" xmlns:xlink="http://www.w3.org/1999/xlink" x="0px" y="0px" width="12px" height="12px" viewBox="0 0 12 12"><path d="m11.274,5.451c-.422-.028-.763.307-.777.721-.092,2.427-2.066,4.328-4.497,4.328-1.311,0-2.516-.556-3.356-1.5h1.606c.414,0,.75-.336.75-.75s-.336-.75-.75-.75H1.25c-.414,0-.75.336-.75.75v3c0,.414.336.75.75.75s.75-.336.75-.75v-.784c1.078.97,2.483,1.534,4,1.534,3.24,0,5.874-2.535,5.995-5.771.016-.414-.307-.762-.721-.778Z" fill="#000" stroke-width="0" data-color="color-2"></path><path d="m10.75,0c-.414,0-.75.336-.75.75v.784c-1.078-.97-2.483-1.534-4-1.534C2.76,0,.126,2.535.005,5.771c-.016.414.307.762.721.778.01,0,.02,0,.029,0,.4,0,.733-.317.748-.722.092-2.427,2.066-4.328,4.497-4.328,1.311,0,2.516.556,3.356,1.5h-1.606c-.414,0-.75.336-.75.75s.336.75.75.75h3c.414,0,.75-.336.75-.75V.75c0-.414-.336-.75-.75-.75Z" stroke-width="0" fill="#000"></path></svg>