<svg xmlns="http://www.w3.org/2000/svg" xmlns:xlink="http://www.w3.org/1999/xlink" x="0px" y="0px" width="12px" height="12px" viewBox="0 0 12 12"><path d="m8.25,11h-1.25c-.414,0-.75-.336-.75-.75s.336-.75.75-.75h1.25c.965,0,1.75-.785,1.75-1.75s-.785-1.75-1.75-1.75H1.25c-.414,0-.75-.336-.75-.75s.336-.75.75-.75h7c1.792,0,3.25,1.458,3.25,3.25s-1.458,3.25-3.25,3.25Z" fill="#000" stroke-width="0" data-color="color-2"></path><path d="m4.25,9.25c-.192,0-.384-.073-.53-.22L.47,5.78c-.293-.293-.293-.768,0-1.061L3.72,1.47c.293-.293.768-.293,1.061,0s.293.768,0,1.061l-2.72,2.72,2.72,2.72c.293.293.293.768,0,1.061-.146.146-.338.22-.53.22Z" stroke-width="0" fill="#000"></path></svg>