<svg xmlns="http://www.w3.org/2000/svg" xmlns:xlink="http://www.w3.org/1999/xlink" x="0px" y="0px" width="18px" height="18px" viewBox="0 0 18 18"><path d="M12.061,11h2.7c.414,0,.75-.336,.75-.75s-.336-.75-.75-.75h-4.511c-.414,0-.75,.336-.75,.75v4.51c0,.414,.336,.75,.75,.75s.75-.336,.75-.75v-2.7l3.72,3.72c.146,.146,.338,.22,.53,.22s.384-.073,.53-.22c.293-.293,.293-.768,0-1.061l-3.72-3.72Z" fill="#000" data-color="color-2"></path><rect x="2" y="2" width="7" height="7" rx="1.75" ry="1.75" fill="#000"></rect></svg>