<svg xmlns="http://www.w3.org/2000/svg" xmlns:xlink="http://www.w3.org/1999/xlink" x="0px" y="0px" width="18px" height="18px" viewBox="0 0 18 18"><path d="M11.72,12.47l-1.97,1.97v-3.689c0-.414-.336-.75-.75-.75s-.75,.336-.75,.75v3.689l-1.97-1.97c-.293-.293-.768-.293-1.061,0s-.293,.768,0,1.061l3.25,3.25c.146,.146,.338,.22,.53,.22s.384-.073,.53-.22l3.25-3.25c.293-.293,.293-.768,0-1.061s-.768-.293-1.061,0Z" fill="#000" data-color="color-2"></path><path d="M9.53,1.22c-.293-.293-.768-.293-1.061,0l-3.25,3.25c-.293,.293-.293,.768,0,1.061s.768,.293,1.061,0l1.97-1.97v3.689c0,.414,.336,.75,.75,.75s.75-.336,.75-.75V3.561l1.97,1.97c.146,.146,.338,.22,.53,.22s.384-.073,.53-.22c.293-.293,.293-.768,0-1.061l-3.25-3.25Z" fill="#000"></path></svg>