<svg xmlns="http://www.w3.org/2000/svg" xmlns:xlink="http://www.w3.org/1999/xlink" x="0px" y="0px" width="18px" height="18px" viewBox="0 0 18 18"><path d="M11.97,2.97l-2.97,2.97-2.97-2.97c-.293-.293-.768-.293-1.061,0s-.293,.768,0,1.061l3.5,3.5c.146,.146,.338,.22,.53,.22s.384-.073,.53-.22l3.5-3.5c.293-.293,.293-.768,0-1.061s-.768-.293-1.061,0Z" fill="#000"></path><path d="M9.53,10.47c-.293-.293-.768-.293-1.061,0l-3.5,3.5c-.293,.293-.293,.768,0,1.061s.768,.293,1.061,0l2.97-2.97,2.97,2.97c.146,.146,.338,.22,.53,.22s.384-.073,.53-.22c.293-.293,.293-.768,0-1.061l-3.5-3.5Z" fill="#000" data-color="color-2"></path></svg>