<svg xmlns="http://www.w3.org/2000/svg" xmlns:xlink="http://www.w3.org/1999/xlink" x="0px" y="0px" width="18px" height="18px" viewBox="0 0 18 18"><rect x="8.25" y=".161" width="1.5" height="17.678" transform="translate(-3.728 9) rotate(-45)" fill="#000" data-color="color-2"></rect><path d="M2.75,8c-.414,0-.75-.336-.75-.75V2.75c0-.414,.336-.75,.75-.75H7.25c.414,0,.75,.336,.75,.75s-.336,.75-.75,.75H3.5v3.75c0,.414-.336,.75-.75,.75Z" fill="#000"></path><path d="M15.25,16h-4.5c-.414,0-.75-.336-.75-.75s.336-.75,.75-.75h3.75v-3.75c0-.414,.336-.75,.75-.75s.75,.336,.75,.75v4.5c0,.414-.336,.75-.75,.75Z" fill="#000"></path></svg>