<svg xmlns="http://www.w3.org/2000/svg" xmlns:xlink="http://www.w3.org/1999/xlink" x="0px" y="0px" width="18px" height="18px" viewBox="0 0 18 18"><path d="M14.72,6.72l-7.22,7.22v-2.7c0-.414-.336-.75-.75-.75s-.75,.336-.75,.75v4.51c0,.414,.336,.75,.75,.75h4.51c.414,0,.75-.336,.75-.75s-.336-.75-.75-.75h-2.7l7.22-7.22c.293-.293,.293-.768,0-1.061s-.768-.293-1.061,0Z" fill="#000" data-color="color-2"></path><path d="M10.5,6.76c0,.414,.336,.75,.75,.75s.75-.336,.75-.75V2.25c0-.414-.336-.75-.75-.75H6.74c-.414,0-.75,.336-.75,.75s.336,.75,.75,.75h2.7L2.22,10.22c-.293,.293-.293,.768,0,1.061,.146,.146,.338,.22,.53,.22s.384-.073,.53-.22l7.22-7.22v2.7Z" fill="#000"></path></svg>