<svg xmlns="http://www.w3.org/2000/svg" xmlns:xlink="http://www.w3.org/1999/xlink" x="0px" y="0px" width="18px" height="18px" viewBox="0 0 18 18"><path d="M9,1C4.589,1,1,4.589,1,9s3.589,8,8,8,8-3.589,8-8S13.411,1,9,1Zm.25,11.5h-3c-.414,0-.75-.336-.75-.75v-3c0-.414,.336-.75,.75-.75s.75,.336,.75,.75v2.25h2.25c.414,0,.75,.336,.75,.75s-.336,.75-.75,.75Zm3.25-3.25c0,.414-.336,.75-.75,.75s-.75-.336-.75-.75v-2.25h-2.25c-.414,0-.75-.336-.75-.75s.336-.75,.75-.75h3c.414,0,.75,.336,.75,.75v3Z" fill="#000"></path></svg>