<svg xmlns="http://www.w3.org/2000/svg" xmlns:xlink="http://www.w3.org/1999/xlink" x="0px" y="0px" width="18px" height="18px" viewBox="0 0 18 18"><path d="M14.75,14.5H3.25c-.414,0-.75,.336-.75,.75s.336,.75,.75,.75H14.75c.414,0,.75-.336,.75-.75s-.336-.75-.75-.75Z" fill="#000" data-color="color-2"></path><path d="M4.318,13H13.682c.638,0,1.226-.347,1.533-.906s.287-1.242-.055-1.781L10.479,2.93c-.323-.509-.876-.812-1.479-.812s-1.155,.304-1.479,.812L2.84,10.313c-.342,.539-.362,1.222-.055,1.781s.896,.906,1.533,.906Z" fill="#000"></path></svg>