<svg xmlns="http://www.w3.org/2000/svg" xmlns:xlink="http://www.w3.org/1999/xlink" x="0px" y="0px" width="18px" height="18px" viewBox="0 0 18 18"><polygon points="15.75 8.25 9.75 8.25 9.75 2.25 8.25 2.25 8.25 8.25 2.25 8.25 2.25 9.75 8.25 9.75 8.25 15.75 9.75 15.75 9.75 9.75 15.75 9.75 15.75 8.25" fill="#000" data-color="color-2"></polygon><path d="M11.25,5.25c-.192,0-.384-.073-.53-.22l-1.72-1.72-1.72,1.72c-.293,.293-.768,.293-1.061,0s-.293-.768,0-1.061l2.25-2.25c.293-.293,.768-.293,1.061,0l2.25,2.25c.293,.293,.293,.768,0,1.061-.146,.146-.338,.22-.53,.22Z" fill="#000"></path><path d="M9,16.5c-.192,0-.384-.073-.53-.22l-2.25-2.25c-.293-.293-.293-.768,0-1.061s.768-.293,1.061,0l1.72,1.72,1.72-1.72c.293-.293,.768-.293,1.061,0s.293,.768,0,1.061l-2.25,2.25c-.146,.146-.338,.22-.53,.22Z" fill="#000"></path><path d="M4.5,12c-.192,0-.384-.073-.53-.22l-2.25-2.25c-.293-.293-.293-.768,0-1.061l2.25-2.25c.293-.293,.768-.293,1.061,0s.293,.768,0,1.061l-1.72,1.72,1.72,1.72c.293,.293,.293,.768,0,1.061-.146,.146-.338,.22-.53,.22Z" fill="#000"></path><path d="M13.5,12c-.192,0-.384-.073-.53-.22-.293-.293-.293-.768,0-1.061l1.72-1.72-1.72-1.72c-.293-.293-.293-.768,0-1.061s.768-.293,1.061,0l2.25,2.25c.293,.293,.293,.768,0,1.061l-2.25,2.25c-.146,.146-.338,.22-.53,.22Z" fill="#000"></path></svg>