<svg xmlns="http://www.w3.org/2000/svg" xmlns:xlink="http://www.w3.org/1999/xlink" x="0px" y="0px" width="18px" height="18px" viewBox="0 0 18 18"><path d="M9,11c-.414,0-.75-.336-.75-.75V2.25c0-.414,.336-.75,.75-.75s.75,.336,.75,.75V10.25c0,.414-.336,.75-.75,.75Z" fill="#000" data-color="color-2"></path><path d="M12.058,9.5H5.942c-.463,0-.887,.254-1.104,.664-.217,.409-.191,.902,.069,1.287l3.058,4.517c.233,.344,.62,.549,1.035,.549s.802-.206,1.035-.549l3.058-4.517c.26-.384,.286-.877,.069-1.287-.217-.41-.641-.664-1.104-.664Z" fill="#000"></path></svg>