<svg xmlns="http://www.w3.org/2000/svg" xmlns:xlink="http://www.w3.org/1999/xlink" x="0px" y="0px" width="18px" height="18px" viewBox="0 0 18 18"><path d="M4,14.75c-.192,0-.384-.073-.53-.22-.293-.293-.293-.768,0-1.061L13.72,3.22c.293-.293,.768-.293,1.061,0s.293,.768,0,1.061L4.53,14.53c-.146,.146-.338,.22-.53,.22Z" fill="#000" data-color="color-2"></path><path d="M9.761,15H3.75c-.414,0-.75-.336-.75-.75v-6.01c0-.414,.336-.75,.75-.75s.75,.336,.75,.75v5.26h5.261c.414,0,.75,.336,.75,.75s-.336,.75-.75,.75Z" fill="#000"></path></svg>