<svg xmlns="http://www.w3.org/2000/svg" xmlns:xlink="http://www.w3.org/1999/xlink" x="0px" y="0px" width="18px" height="18px" viewBox="0 0 18 18"><path d="M13.75,6.5h-4v6.25c0,.414-.336,.75-.75,.75s-.75-.336-.75-.75V6.5H4.25c-1.517,0-2.75,1.233-2.75,2.75v4.5c0,1.517,1.233,2.75,2.75,2.75H13.75c1.517,0,2.75-1.233,2.75-2.75v-4.5c0-1.517-1.233-2.75-2.75-2.75Z" fill="#000"></path><path d="M12.53,3.72L9.53,.72c-.293-.293-.768-.293-1.061,0l-3,3c-.293,.293-.293,.768,0,1.061s.768,.293,1.061,0l1.72-1.72v3.439h1.5V3.061l1.72,1.72c.146,.146,.338,.22,.53,.22s.384-.073,.53-.22c.293-.293,.293-.768,0-1.061Z" fill="#000" data-color="color-2"></path></svg>