<svg xmlns="http://www.w3.org/2000/svg" xmlns:xlink="http://www.w3.org/1999/xlink" x="0px" y="0px" width="18px" height="18px" viewBox="0 0 18 18"><path d="M3.561,5h3.689c.414,0,.75-.336,.75-.75s-.336-.75-.75-.75H3.561l1.22-1.22c.293-.293,.293-.768,0-1.061s-.768-.293-1.061,0L1.22,3.72c-.293,.293-.293,.768,0,1.061l2.5,2.5c.146,.146,.338,.22,.53,.22s.384-.073,.53-.22c.293-.293,.293-.768,0-1.061l-1.22-1.22Z" fill="#000"></path><path d="M16.78,13.22l-2.5-2.5c-.293-.293-.768-.293-1.061,0s-.293,.768,0,1.061l1.22,1.22h-3.689c-.414,0-.75,.336-.75,.75s.336,.75,.75,.75h3.689l-1.22,1.22c-.293,.293-.293,.768,0,1.061,.146,.146,.338,.22,.53,.22s.384-.073,.53-.22l2.5-2.5c.293-.293,.293-.768,0-1.061Z" fill="#000"></path><circle cx="9" cy="9" r="3.25" fill="#000" data-color="color-2"></circle></svg>