<svg xmlns="http://www.w3.org/2000/svg" xmlns:xlink="http://www.w3.org/1999/xlink" x="0px" y="0px" width="18px" height="18px" viewBox="0 0 18 18"><path d="M5.125,13.625c-.192,0-.384-.073-.53-.22-.293-.293-.293-.768,0-1.061l7.75-7.75c.293-.293,.768-.293,1.061,0s.293,.768,0,1.061l-7.75,7.75c-.146,.146-.338,.22-.53,.22Z" fill="#000" data-color="color-2"></path><path d="M3.707,10.396c-.287-.287-.713-.372-1.09-.217-.375,.155-.617,.518-.617,.924v3.896c0,.551,.449,1,1,1h3.896c.406,0,.769-.242,.924-.617s.07-.803-.217-1.09l-3.896-3.896Z" fill="#000"></path><path d="M15,2h-3.896c-.406,0-.769,.242-.924,.617s-.07,.803,.217,1.09l3.896,3.896c.192,.192,.446,.293,.706,.293,.129,0,.259-.025,.384-.077,.375-.155,.617-.518,.617-.924V3c0-.551-.449-1-1-1Z" fill="#000"></path></svg>