<svg xmlns="http://www.w3.org/2000/svg" xmlns:xlink="http://www.w3.org/1999/xlink" x="0px" y="0px" width="18px" height="18px" viewBox="0 0 18 18"><path d="M11.25,10.49c-.414,0-.75,.336-.75,.75v2.7L3.28,6.72c-.293-.293-.768-.293-1.061,0s-.293,.768,0,1.061l7.22,7.22h-2.7c-.414,0-.75,.336-.75,.75s.336,.75,.75,.75h4.511c.414,0,.75-.336,.75-.75v-4.51c0-.414-.336-.75-.75-.75Z" fill="#000" data-color="color-2"></path><path d="M15.78,10.22L8.561,3h2.7c.414,0,.75-.336,.75-.75s-.336-.75-.75-.75H6.75c-.414,0-.75,.336-.75,.75V6.76c0,.414,.336,.75,.75,.75s.75-.336,.75-.75v-2.7l7.22,7.22c.146,.146,.338,.22,.53,.22s.384-.073,.53-.22c.293-.293,.293-.768,0-1.061Z" fill="#000"></path></svg>