<svg xmlns="http://www.w3.org/2000/svg" xmlns:xlink="http://www.w3.org/1999/xlink" x="0px" y="0px" width="18px" height="18px" viewBox="0 0 18 18"><path d="M13.25,2h-3.25c-.414,0-.75,.336-.75,.75s.336,.75,.75,.75h3.25c.689,0,1.25,.561,1.25,1.25v3.25c0,.414,.336,.75,.75,.75s.75-.336,.75-.75v-3.25c0-1.517-1.233-2.75-2.75-2.75Z" fill="#000"></path><path d="M8,14.5h-3.25c-.689,0-1.25-.561-1.25-1.25v-3.25c0-.414-.336-.75-.75-.75s-.75,.336-.75,.75v3.25c0,1.517,1.233,2.75,2.75,2.75h3.25c.414,0,.75-.336,.75-.75s-.336-.75-.75-.75Z" fill="#000"></path><path d="M2.75,7.75c.414,0,.75-.336,.75-.75v-2.439l2.97,2.97c.146,.146,.338,.22,.53,.22s.384-.073,.53-.22c.293-.293,.293-.768,0-1.061l-2.97-2.97h2.439c.414,0,.75-.336,.75-.75s-.336-.75-.75-.75H2.75c-.414,0-.75,.336-.75,.75V7c0,.414,.336,.75,.75,.75Z" fill="#000" data-color="color-2"></path><path d="M15.25,10.25c-.414,0-.75,.336-.75,.75v2.439l-2.97-2.97c-.293-.293-.768-.293-1.061,0s-.293,.768,0,1.061l2.97,2.97h-2.439c-.414,0-.75,.336-.75,.75s.336,.75,.75,.75h4.25c.414,0,.75-.336,.75-.75v-4.25c0-.414-.336-.75-.75-.75Z" fill="#000" data-color="color-2"></path></svg>