<svg xmlns="http://www.w3.org/2000/svg" xmlns:xlink="http://www.w3.org/1999/xlink" x="0px" y="0px" width="18px" height="18px" viewBox="0 0 18 18"><line x1="3.25" y1="9.25" x2="3.25" y2="3.75" fill="none" stroke="#000" stroke-linecap="round" stroke-linejoin="round" stroke-width="1.5"></line><line x1="15.25" y1="9.25" x2="15.25" y2="1.75" fill="none" stroke="#000" stroke-linecap="round" stroke-linejoin="round" stroke-width="1.5"></line><line x1="12.25" y1="9.25" x2="12.25" y2="2.75" fill="none" stroke="#000" stroke-linecap="round" stroke-linejoin="round" stroke-width="1.5"></line><line x1="9.25" y1="9.25" x2="9.25" y2="5.75" fill="none" stroke="#000" stroke-linecap="round" stroke-linejoin="round" stroke-width="1.5"></line><line x1="6.25" y1="9.25" x2="6.25" y2="1.75" fill="none" stroke="#000" stroke-linecap="round" stroke-linejoin="round" stroke-width="1.5"></line><path d="M1.75,13.75l1.75-2,1.75,2v1.5c0,.552-.448,1-1,1h-1.5c-.552,0-1-.448-1-1v-1.5Z" fill="none" stroke="#000" stroke-linecap="round" stroke-linejoin="round" stroke-width="1.5" data-color="color-2"></path><path d="M12.75,13.75l1.75-2,1.75,2v1.5c0,.552-.448,1-1,1h-1.5c-.552,0-1-.448-1-1v-1.5Z" fill="none" stroke="#000" stroke-linecap="round" stroke-linejoin="round" stroke-width="1.5" data-color="color-2"></path></svg>