<svg xmlns="http://www.w3.org/2000/svg" xmlns:xlink="http://www.w3.org/1999/xlink" x="0px" y="0px" width="18px" height="18px" viewBox="0 0 18 18"><rect x="2.25" y="2.75" width="13.5" height="10.5" rx="2" ry="2" fill="none" stroke="#000" stroke-linecap="round" stroke-linejoin="round" stroke-width="1.5"></rect><line x1="4.75" y1="16.25" x2="13.25" y2="16.25" fill="none" stroke="#000" stroke-linecap="round" stroke-linejoin="round" stroke-width="1.5" data-color="color-2"></line><path d="M12.691,7.108c-.54-.694-1.736-1.858-3.691-1.858s-3.151,1.164-3.691,1.859c-.413,.533-.413,1.249,0,1.782,0,0,0,0,0,0,.54,.694,1.736,1.858,3.691,1.858s3.151-1.164,3.691-1.859c.413-.533,.413-1.249,0-1.783Zm-3.691,2.392c-.828,0-1.5-.672-1.5-1.5s.672-1.5,1.5-1.5,1.5,.672,1.5,1.5-.672,1.5-1.5,1.5Z" fill="#000" data-color="color-2" data-stroke="none"></path></svg>