<svg xmlns="http://www.w3.org/2000/svg" xmlns:xlink="http://www.w3.org/1999/xlink" x="0px" y="0px" width="18px" height="18px" viewBox="0 0 18 18"><path d="M10.798,8.47l-2.375-1.386c-.409-.239-.922,.056-.922,.53v2.771c0,.473,.514,.768,.922,.53l2.375-1.386c.406-.237,.406-.823,0-1.06Z" fill="#000" data-color="color-2" data-stroke="none"></path><rect x="1.75" y="2.75" width="14.5" height="12.5" rx="2" ry="2" transform="translate(18 18) rotate(180)" fill="none" stroke="#000" stroke-linecap="round" stroke-linejoin="round" stroke-width="1.5"></rect><line x1="1.75" y1="5.75" x2="16.25" y2="5.75" fill="none" stroke="#000" stroke-linecap="round" stroke-linejoin="round" stroke-width="1.5"></line><line x1="1.75" y1="12.25" x2="16.25" y2="12.25" fill="none" stroke="#000" stroke-linecap="round" stroke-linejoin="round" stroke-width="1.5"></line><line x1="9" y1="2.75" x2="9" y2="5.75" fill="none" stroke="#000" stroke-linecap="round" stroke-linejoin="round" stroke-width="1.5"></line><line x1="9" y1="12.25" x2="9" y2="15.25" fill="none" stroke="#000" stroke-linecap="round" stroke-linejoin="round" stroke-width="1.5"></line><line x1="5.25" y1="2.75" x2="5.25" y2="5.75" fill="none" stroke="#000" stroke-linecap="round" stroke-linejoin="round" stroke-width="1.5"></line><line x1="12.75" y1="2.75" x2="12.75" y2="5.75" fill="none" stroke="#000" stroke-linecap="round" stroke-linejoin="round" stroke-width="1.5"></line><line x1="5.25" y1="12.25" x2="5.25" y2="15.25" fill="none" stroke="#000" stroke-linecap="round" stroke-linejoin="round" stroke-width="1.5"></line><line x1="12.75" y1="12.25" x2="12.75" y2="15.25" fill="none" stroke="#000" stroke-linecap="round" stroke-linejoin="round" stroke-width="1.5"></line></svg>