<svg xmlns="http://www.w3.org/2000/svg" xmlns:xlink="http://www.w3.org/1999/xlink" x="0px" y="0px" width="18px" height="18px" viewBox="0 0 18 18"><polyline points="13.763 13.225 16.237 10.75 13.763 8.275" fill="none" stroke="#000" stroke-linecap="round" stroke-linejoin="round" stroke-width="1.5"></polyline><line x1="7.25" y1="10.75" x2="16.25" y2="10.75" fill="none" stroke="#000" stroke-linecap="round" stroke-linejoin="round" stroke-width="1.5"></line><path d="M6.75,2.5c.414,0,.75-.336,.75-.75s-.336-.75-.75-.75-.75,.336-.75,.75,.336,.75,.75,.75Z" fill="#000" data-color="color-2" data-stroke="none"></path><path d="M6.75,5.5c.414,0,.75-.336,.75-.75s-.336-.75-.75-.75-.75,.336-.75,.75,.336,.75,.75,.75Z" fill="#000" data-color="color-2" data-stroke="none"></path><path d="M6.75,8.5c.414,0,.75-.336,.75-.75s-.336-.75-.75-.75-.75,.336-.75,.75,.336,.75,.75,.75Z" fill="#000" data-color="color-2" data-stroke="none"></path><circle cx="1.25" cy="16.75" r=".75" fill="#000" data-color="color-2" data-stroke="none"></circle><circle cx="3.25" cy="14.75" r=".75" fill="#000" data-color="color-2" data-stroke="none"></circle><circle cx="5.25" cy="12.75" r=".75" fill="#000" data-color="color-2" data-stroke="none"></circle></svg>