<svg xmlns="http://www.w3.org/2000/svg" xmlns:xlink="http://www.w3.org/1999/xlink" x="0px" y="0px" width="18px" height="18px" viewBox="0 0 18 18"><path d="M9,4.724c2.142,0,4.81,.077,6.131,1.12,1.321,1.042,1.815,2.119,1.55,4.047-.264,1.928-1.462,2.97-2.848,3.283-1.386,.313-2.512-.142-3.092-.755-.625-.66-.956-1.222-1.741-1.222-.786,0-1.116,.562-1.741,1.222-.58,.612-1.706,1.068-3.092,.755-1.386-.313-2.584-1.355-2.848-3.283-.264-1.928,.229-3.005,1.55-4.047,1.321-1.043,3.989-1.12,6.131-1.12Z" fill="none" stroke="#000" stroke-linecap="round" stroke-linejoin="round" stroke-width="1.5"></path><path d="M6,7.366c.693-.085,1.659-.142,3-.142s2.307,.056,3,.142" fill="none" stroke="#000" stroke-linecap="round" stroke-linejoin="round" stroke-width="1.5" data-color="color-2"></path></svg>