<svg xmlns="http://www.w3.org/2000/svg" xmlns:xlink="http://www.w3.org/1999/xlink" x="0px" y="0px" width="18px" height="18px" viewBox="0 0 18 18"><path d="M9,4.75c2.073,0,4.654,.077,5.933,1.113,1.279,1.036,1.756,2.106,1.5,4.023-.256,1.917-1.415,2.952-2.756,3.263-1.341,.311-2.431-.142-2.992-.75-.605-.656-.925-1.215-1.685-1.215-.76,0-1.08,.559-1.685,1.215-.561,.608-1.651,1.061-2.992,.75-1.341-.311-2.501-1.346-2.756-3.263-.256-1.917,.222-2.987,1.5-4.023,1.279-1.036,3.86-1.113,5.933-1.113Z" fill="none" stroke="#000" stroke-linecap="round" stroke-linejoin="round" stroke-width="1.5"></path></svg>