<svg xmlns="http://www.w3.org/2000/svg" xmlns:xlink="http://www.w3.org/1999/xlink" x="0px" y="0px" width="32px" height="32px" viewBox="0 0 32 32"> <path d="M13.0498 15C13.0171 15.3289 13 15.6625 13 16C13 16.3375 13.0171 16.6711 13.0498 17H2V15H13.0498Z" fill="#000" data-color="color-2"></path> <path d="M8 23.4141L0.585937 16L8 8.58594L9.41406 10L3.41406 16L9.41406 22L8 23.4141Z" fill="#000" data-color="color-2"></path> <path d="M15 16C15 20.4183 18.5817 24 23 24C27.4183 24 31 20.4183 31 16C31 11.5817 27.4183 8 23 8C18.5817 8 15 11.5817 15 16Z" fill="black"></path> </svg>