<svg xmlns="http://www.w3.org/2000/svg" xmlns:xlink="http://www.w3.org/1999/xlink" x="0px" y="0px" width="20px" height="20px" viewBox="0 0 20 20"><path d="m10,2C5.589,2,2,5.589,2,10s3.589,8,8,8,8-3.589,8-8S14.411,2,10,2Zm-3.25,10c-.69,0-1.25-.56-1.25-1.25,0-.384.183-.715.456-.944l-.87-.395c-.503-.229-.725-.821-.496-1.324.228-.501.816-.727,1.324-.497l2.75,1.25c.503.229.725.821.496,1.324-.167.369-.53.586-.911.586-.087,0-.174-.033-.26-.057,0,.02.011.037.011.057,0,.69-.56,1.25-1.25,1.25Zm4.583,3h-2.667c-.368,0-.667-.299-.667-.667,0-1.104.896-2,2-2s2,.896,2,2c0,.368-.299.667-.667.667Zm3.581-5.59l-.87.395c.273.229.456.56.456.944,0,.69-.56,1.25-1.25,1.25s-1.25-.56-1.25-1.25c0-.02.01-.037.011-.057-.087.024-.174.057-.26.057-.381,0-.744-.218-.911-.586-.229-.502-.007-1.095.496-1.324l2.75-1.25c.507-.23,1.098-.005,1.324.497.229.502.007,1.095-.496,1.324Z" stroke-width="0" fill="#000"></path></svg>