<svg xmlns="http://www.w3.org/2000/svg" xmlns:xlink="http://www.w3.org/1999/xlink" x="0px" y="0px" width="20px" height="20px" viewBox="0 0 20 20"><path d="m10,2C5.589,2,2,5.589,2,10s3.589,8,8,8,8-3.589,8-8S14.411,2,10,2Zm-4.5,8.25c0-.69.56-1.25,1.25-1.25s1.25.56,1.25,1.25-.56,1.25-1.25,1.25-1.25-.56-1.25-1.25Zm7.245,4.167c-.37.412-1.002.447-1.412.077-.731-.656-1.931-.657-2.666,0-.191.17-.43.254-.667.254-.274,0-.548-.112-.745-.333-.368-.412-.333-1.044.078-1.412,1.472-1.314,3.868-1.314,5.334,0,.412.368.446,1,.078,1.412Zm.505-2.917c-.69,0-1.25-.56-1.25-1.25s.56-1.25,1.25-1.25,1.25.56,1.25,1.25-.56,1.25-1.25,1.25Z" stroke-width="0" fill="#000"></path></svg>