<svg xmlns="http://www.w3.org/2000/svg" xmlns:xlink="http://www.w3.org/1999/xlink" x="0px" y="0px" width="20px" height="20px" viewBox="0 0 20 20"><path d="m10,2C5.589,2,2,5.589,2,10s3.589,8,8,8,8-3.589,8-8S14.411,2,10,2Zm-3.25,9c-.69,0-1.25-.56-1.25-1.25s.56-1.25,1.25-1.25,1.25.56,1.25,1.25-.56,1.25-1.25,1.25Zm4.583-3.505c-.733-.657-1.933-.657-2.666,0-.413.369-1.044.333-1.412-.078s-.333-1.044.078-1.412c1.469-1.314,3.865-1.314,5.334,0,.412.368.446,1,.078,1.412-.198.221-.471.333-.746.333-.237,0-.476-.084-.667-.255Zm1.917,3.505c-.69,0-1.25-.56-1.25-1.25s.56-1.25,1.25-1.25,1.25.56,1.25,1.25-.56,1.25-1.25,1.25Z" stroke-width="0" fill="#000"></path></svg>