<svg xmlns="http://www.w3.org/2000/svg" xmlns:xlink="http://www.w3.org/1999/xlink" x="0px" y="0px" width="20px" height="20px" viewBox="0 0 20 20"><path d="m17.378,6.909c.101-.216.215-.425.291-.652.47-1.4.354-2.661.174-3.473-.085-.386-.39-.685-.777-.764-.39-.083-.785.078-1.013.399-.338.474-.78.874-1.272,1.181-1.336-1-2.987-1.601-4.781-1.601s-3.445.6-4.78,1.601c-.492-.307-.934-.707-1.272-1.181-.229-.321-.626-.481-1.013-.399-.387.079-.691.378-.777.764-.18.812-.296,2.073.174,3.473.076.227.191.437.291.653-.4.952-.622,1.996-.622,3.091,0,4.411,3.589,8,8,8s8-3.589,8-8c0-1.095-.222-2.14-.622-3.091Zm-10.628,4.591c-.69,0-1.25-.56-1.25-1.25s.56-1.25,1.25-1.25,1.25.56,1.25,1.25-.56,1.25-1.25,1.25Zm3.25,3.5c-1.104,0-2-.896-2-2,0-.368.299-.667.667-.667h2.667c.368,0,.667.299.667.667,0,1.104-.896,2-2,2Zm3.25-3.5c-.69,0-1.25-.56-1.25-1.25s.56-1.25,1.25-1.25,1.25.56,1.25,1.25-.56,1.25-1.25,1.25Z" stroke-width="0" fill="#000"></path></svg>