<svg xmlns="http://www.w3.org/2000/svg" xmlns:xlink="http://www.w3.org/1999/xlink" x="0px" y="0px" width="18px" height="18px" viewBox="0 0 18 18"><line x1="1.75" y1="2.25" x2="16.25" y2="2.25" fill="none" stroke="#000" stroke-linecap="round" stroke-linejoin="round" stroke-width="1.5" data-color="color-2"></line><line x1="9" y1="5.25" x2="9" y2="1" fill="none" stroke="#000" stroke-linecap="round" stroke-linejoin="round" stroke-width="1.5" data-color="color-2"></line><line x1="9" y1="5.25" x2="9" y2="9.75" fill="none" stroke="#000" stroke-linecap="round" stroke-linejoin="round" stroke-width="1.5"></line><path d="M7.457,5.25h3.086c1.261,0,2.324,.939,2.481,2.19l.375,3c.187,1.492-.977,2.81-2.481,2.81h-3.836c-1.504,0-2.667-1.318-2.481-2.81l.375-3c.156-1.251,1.22-2.19,2.481-2.19Z" fill="none" stroke="#000" stroke-linecap="round" stroke-linejoin="round" stroke-width="1.5"></path><path d="M3.75,16.25c0-1.657,1.343-3,3-3h4.5c1.657,0,3,1.343,3,3" fill="none" stroke="#000" stroke-linecap="round" stroke-linejoin="round" stroke-width="1.5"></path><line x1="13.312" y1="9.75" x2="4.688" y2="9.75" fill="none" stroke="#000" stroke-linecap="round" stroke-linejoin="round" stroke-width="1.5"></line></svg>