<svg xmlns="http://www.w3.org/2000/svg" xmlns:xlink="http://www.w3.org/1999/xlink" x="0px" y="0px" width="18px" height="18px" viewBox="0 0 18 18"><path d="M1.25 12.75H3.25" stroke="black" stroke-width="1.5" stroke-linecap="round" stroke-linejoin="round" fill="none"></path> <path d="M1.25 3.25H2.632C3.0108 3.25 3.357 3.464 3.5264 3.8028L5.25 7.25L9.0442 8.0088C9.7453 8.149 10.25 8.7646 10.25 9.4797V12.75H7.25" stroke="black" stroke-width="1.5" stroke-linecap="round" stroke-linejoin="round" fill="none"></path> <path d="M5.25 14.75C6.354 14.75 7.25 13.8546 7.25 12.75C7.25 11.6454 6.354 10.75 5.25 10.75C4.146 10.75 3.25 11.6454 3.25 12.75C3.25 13.8546 4.146 14.75 5.25 14.75Z" stroke="black" stroke-width="1.5" stroke-linecap="round" stroke-linejoin="round" fill="none"></path> <path d="M13.311 9.621C13.897 10.207 13.897 11.157 13.311 11.742" stroke="#000" stroke-width="1.5" stroke-linecap="round" stroke-linejoin="round" data-color="color-2" fill="none"></path> <path d="M15.432 7.5C17.189 9.257 17.189 12.107 15.432 13.864" stroke="#000" stroke-width="1.5" stroke-linecap="round" stroke-linejoin="round" data-color="color-2" fill="none"></path></svg>