<svg xmlns="http://www.w3.org/2000/svg" xmlns:xlink="http://www.w3.org/1999/xlink" x="0px" y="0px" width="18px" height="18px" viewBox="0 0 18 18"><line x1="5.75" y1="13.25" x2="11.77" y2="13.25" fill="none" stroke="#000" stroke-linecap="round" stroke-linejoin="round" stroke-width="1.5"></line><line x1="7.25" y1="3.75" x2="7.25" y2="8.25" fill="none" stroke="#000" stroke-linecap="round" stroke-linejoin="round" stroke-width="1.5"></line><path d="M2.25,13.25h-.5c-.552,0-1-.448-1-1v-3.528c0-.31,.072-.617,.211-.894l1.486-2.972c.339-.678,1.031-1.106,1.789-1.106h2.014s1.75,0,1.75,0h2.264c.758,0,1.45,.428,1.789,1.106l1.697,3.394h1.5c1.105,0,2,.895,2,2v2c0,.552-.448,1-1,1h-1" fill="none" stroke="#000" stroke-linecap="round" stroke-linejoin="round" stroke-width="1.5"></path><line x1="13.583" y1="8.25" x2="1" y2="8.25" fill="none" stroke="#000" stroke-linecap="round" stroke-linejoin="round" stroke-width="1.5"></line><circle cx="4" cy="13.5" r="1.75" fill="none" stroke="#000" stroke-linecap="round" stroke-linejoin="round" stroke-width="1.5" data-color="color-2"></circle><circle cx="13.5" cy="13.5" r="1.75" fill="none" stroke="#000" stroke-linecap="round" stroke-linejoin="round" stroke-width="1.5" data-color="color-2"></circle></svg>