<svg xmlns="http://www.w3.org/2000/svg" xmlns:xlink="http://www.w3.org/1999/xlink" x="0px" y="0px" width="18px" height="18px" viewBox="0 0 18 18"><path d="M10.937 7.75C10.055 8.797 9.72198 9.742 9.93898 10.583C10.26 11.831 11.614 12.166 11.936 13.416C12.153 14.258 11.82 15.202 10.938 16.249" stroke="#000" stroke-width="1.5" stroke-linecap="round" stroke-linejoin="round" data-color="color-2" fill="none"></path> <path d="M14.8492 12.708C15.1495 12.8044 15.4497 12.8887 15.75 13V3.99999C11.25 2.33329 6.75 2.33329 2.25 3.99999V13C2.7219 12.8252 3.1937 12.6794 3.6655 12.5413" stroke="black" stroke-width="1.5" stroke-linecap="round" stroke-linejoin="round" fill="none"></path> <path d="M7.06197 7.75C6.17997 8.797 5.84698 9.742 6.06398 10.583C6.38498 11.831 7.73897 12.166 8.06097 13.416C8.27797 14.258 7.94498 15.202 7.06298 16.249" stroke="#000" stroke-width="1.5" stroke-linecap="round" stroke-linejoin="round" data-color="color-2" fill="none"></path></svg>