<svg xmlns="http://www.w3.org/2000/svg" xmlns:xlink="http://www.w3.org/1999/xlink" x="0px" y="0px" width="18px" height="18px" viewBox="0 0 18 18"><line x1="17.25" y1="8.75" x2="17.25" y2="13.25" fill="none" stroke="#000" stroke-linecap="round" stroke-linejoin="round" stroke-width="1.5"></line><path d="M13.25,7.75h-1.5l-1.2-1.6c-.189-.252-.485-.4-.8-.4H5.75c-.315,0-.611,.148-.8,.4l-1.2,1.6h-1c-.552,0-1,.448-1,1v2.5c0,.552,.448,1,1,1h1l1.2,1.6c.189,.252,.485,.4,.8,.4h7.5c.552,0,1-.448,1-1v-4.5c0-.552-.448-1-1-1Z" fill="none" stroke="#000" stroke-linecap="round" stroke-linejoin="round" stroke-width="1.5"></path><line x1="5.25" y1="1.75" x2="10.25" y2="1.75" fill="none" stroke="#000" stroke-linecap="round" stroke-linejoin="round" stroke-width="1.5" data-color="color-2"></line><line x1="14.25" y1="11" x2="17.25" y2="11" fill="none" stroke="#000" stroke-linecap="round" stroke-linejoin="round" stroke-width="1.5"></line><line x1="7.75" y1="1.75" x2="7.75" y2="3.25" fill="none" stroke="#000" stroke-linecap="round" stroke-linejoin="round" stroke-width="1.5" data-color="color-2"></line></svg>