<svg xmlns="http://www.w3.org/2000/svg" xmlns:xlink="http://www.w3.org/1999/xlink" x="0px" y="0px" width="18px" height="18px" viewBox="0 0 18 18"><circle cx="9" cy="9" r="7.25" fill="none" stroke="#000" stroke-linecap="round" stroke-linejoin="round" stroke-width="1.5"></circle><path d="M7.485,7.75c-.126,.119-.554,.496-1.228,.559-.636,.06-1.105-.195-1.258-.286" fill="none" stroke="#000" stroke-linecap="round" stroke-linejoin="round" stroke-width="1.5" data-color="color-2"></path><path d="M10.515,7.75c.126,.119,.554,.496,1.228,.559,.636,.06,1.105-.195,1.258-.286" fill="none" stroke="#000" stroke-linecap="round" stroke-linejoin="round" stroke-width="1.5" data-color="color-2"></path><path d="M6,12.896c.441-.193,.75-.633,.75-1.146,0-.605-.429-1.109-1-1.225" fill="none" stroke="#000" stroke-linecap="round" stroke-linejoin="round" stroke-width="1.5" data-color="color-2"></path><path d="M12,12.896c-.441-.193-.75-.633-.75-1.146,0-.605,.429-1.109,1-1.225" fill="none" stroke="#000" stroke-linecap="round" stroke-linejoin="round" stroke-width="1.5" data-color="color-2"></path><path d="M6.742,11.616c.897-.219,1.679-.272,2.258-.272s1.361,.053,2.258,.272" fill="none" stroke="#000" stroke-linecap="round" stroke-linejoin="round" stroke-width="1.5" data-color="color-2"></path></svg>