<svg xmlns="http://www.w3.org/2000/svg" xmlns:xlink="http://www.w3.org/1999/xlink" x="0px" y="0px" width="18px" height="18px" viewBox="0 0 18 18"><circle cx="9" cy="9" r="7.25" fill="none" stroke="#000" stroke-linecap="round" stroke-linejoin="round" stroke-width="1.5"></circle><path d="M10.757,6.103c-.154,.154-.221,.366-.189,.583h0c.239,1.533,.238,3.112-.001,4.639-.032,.214,.035,.421,.185,.572,.153,.154,.376,.227,.598,.193,1.511-.23,2.651-1.558,2.651-3.089s-1.141-2.86-2.654-3.089c-.216-.033-.436,.039-.589,.192Z" fill="#000" data-color="color-2" data-stroke="none"></path><path d="M8.25,13.25c-.69,0-1.25-.56-1.25-1.25s.56-1.25,1.25-1.25" fill="none" stroke="#000" stroke-linecap="round" stroke-linejoin="round" stroke-width="1.5" data-color="color-2"></path><path d="M8.25,7.25c-.69,0-1.25-.56-1.25-1.25s.56-1.25,1.25-1.25" fill="none" stroke="#000" stroke-linecap="round" stroke-linejoin="round" stroke-width="1.5" data-color="color-2"></path><line x1=".75" y1="16.25" x2="2.75" y2="16.25" fill="none" stroke="#000" stroke-linecap="round" stroke-linejoin="round" stroke-width="1.5"></line></svg>