<svg xmlns="http://www.w3.org/2000/svg" xmlns:xlink="http://www.w3.org/1999/xlink" x="0px" y="0px" width="18px" height="18px" viewBox="0 0 18 18"><path d="M4.75,8.25c0-.69,.56-1.25,1.25-1.25s1.25,.56,1.25,1.25" fill="none" stroke="#000" stroke-linecap="round" stroke-linejoin="round" stroke-width="1.5" data-color="color-2"></path><path d="M10.75,8.25c0-.69,.56-1.25,1.25-1.25s1.25,.56,1.25,1.25" fill="none" stroke="#000" stroke-linecap="round" stroke-linejoin="round" stroke-width="1.5" data-color="color-2"></path><circle cx="9" cy="9" r="7.25" fill="none" stroke="#000" stroke-linecap="round" stroke-linejoin="round" stroke-width="1.5"></circle><path d="M6,10.75c.769,.768,1.83,1.243,3,1.243s2.231-.475,3-1.243" fill="none" stroke="#000" stroke-linecap="round" stroke-linejoin="round" stroke-width="1.5" data-color="color-2"></path><path d="M8.756,11.986c-.002,.162,.017,.326,.071,.488l.25,.75c.209,.629,.795,1.026,1.423,1.026,.157,0,.317-.025,.475-.078,.786-.262,1.21-1.111,.948-1.897l-.25-.75c-.043-.131-.099-.239-.172-.348-.702,.512-1.567,.815-2.5,.815-.1,0-.244-.007-.244-.007" fill="#000" data-color="color-2" data-stroke="none"></path></svg>