<svg xmlns="http://www.w3.org/2000/svg" xmlns:xlink="http://www.w3.org/1999/xlink" x="0px" y="0px" width="20px" height="20px" viewBox="0 0 20 20"><path d="m6,18h8c2.206,0,4-1.794,4-4V6c0-2.206-1.794-4-4-4H6c-2.206,0-4,1.794-4,4v8c0,2.206,1.794,4,4,4Zm4.617-5.076c-.374-.154-.617-.52-.617-.924v-1h-3c-.553,0-1-.447-1-1,0-.553.447-1,1-1h3v-1c0-.404.243-.77.617-.924.374-.155.804-.069,1.09.217l2,2c.195.195.293.451.293.707,0,.256-.098.512-.293.707l-2,2c-.286.286-.716.372-1.09.217Z" stroke-width="0" fill="#000"></path></svg>