<svg xmlns="http://www.w3.org/2000/svg" xmlns:xlink="http://www.w3.org/1999/xlink" x="0px" y="0px" width="20px" height="20px" viewBox="0 0 20 20"><path d="m14,2H6c-2.206,0-4,1.794-4,4v8c0,2.206,1.794,4,4,4h8c2.206,0,4-1.794,4-4V6c0-2.206-1.794-4-4-4Zm-5.296,12.586c-.104.252-.348.414-.621.414h-2.411c-.371,0-.672-.302-.672-.673v-2.41c0-.274.164-.519.417-.622.252-.104.54-.047.733.148l2.41,2.408c.194.195.25.483.145.734Zm-.144-8.439l-2.413,2.412c-.128.129-.299.198-.475.198-.086,0-.173-.017-.257-.052-.253-.104-.417-.348-.417-.622v-2.41c0-.371.302-.673.672-.673h2.411c.272,0,.516.162.621.414.105.251.049.539-.144.732Zm6.439,8.181c0,.371-.302.673-.672.673h-2.411c-.272,0-.516-.162-.621-.414-.105-.251-.049-.539.144-.732l2.413-2.412c.191-.191.478-.253.731-.146.253.104.417.348.417.622v2.41Zm0-6.244c0,.274-.164.519-.417.622-.083.034-.17.052-.257.052-.175,0-.347-.069-.476-.2l-2.41-2.408c-.194-.195-.25-.483-.145-.734.104-.252.348-.414.621-.414h2.411c.371,0,.672.302.672.673v2.41Z" stroke-width="0" fill="#000"></path></svg>