<svg xmlns="http://www.w3.org/2000/svg" xmlns:xlink="http://www.w3.org/1999/xlink" x="0px" y="0px" width="20px" height="20px" viewBox="0 0 20 20"><path d="m2,7v6c0,2.206,1.794,4,4,4h8c2.206,0,4-1.794,4-4v-6c0-2.206-1.794-4-4-4H6c-2.206,0-4,1.794-4,4Zm7.293,1.293c.391-.391,1.023-.391,1.414,0l2.146,2.146.866-.866c.215-.215.535-.279.817-.162.281.116.463.388.463.692v3.146c0,.413-.337.75-.75.75h-3.146c-.305,0-.576-.182-.692-.463-.117-.281-.053-.603.162-.817l.866-.866-2.146-2.146c-.391-.391-.391-1.023,0-1.414Z" stroke-width="0" fill="#000"></path></svg>