<svg xmlns="http://www.w3.org/2000/svg" xmlns:xlink="http://www.w3.org/1999/xlink" x="0px" y="0px" width="18px" height="18px" viewBox="0 0 18 18"><path d="M10.75 5.25H7.25C6.69772 5.25 6.25 5.69772 6.25 6.25V11.75C6.25 12.3023 6.69772 12.75 7.25 12.75H10.75C11.3023 12.75 11.75 12.3023 11.75 11.75V6.25C11.75 5.69772 11.3023 5.25 10.75 5.25Z" fill="#000" fill-opacity="0.3" data-color="color-2" data-stroke="none"></path> <path d="M6.25 11.25H1.75C1.198 11.25 0.75 10.802 0.75 10.25V7.75C0.75 7.198 1.198 6.75 1.75 6.75H6.25" stroke="black" stroke-width="1.5" stroke-linecap="round" stroke-linejoin="round" fill="none"></path> <path d="M11.75 6.75H16.25C16.802 6.75 17.25 7.198 17.25 7.75V10.25C17.25 10.802 16.802 11.25 16.25 11.25H11.75" stroke="black" stroke-width="1.5" stroke-linecap="round" stroke-linejoin="round" fill="none"></path> <path d="M10.75 5.25H7.25C6.69772 5.25 6.25 5.69772 6.25 6.25V11.75C6.25 12.3023 6.69772 12.75 7.25 12.75H10.75C11.3023 12.75 11.75 12.3023 11.75 11.75V6.25C11.75 5.69772 11.3023 5.25 10.75 5.25Z" stroke="black" stroke-width="1.5" stroke-linecap="round" stroke-linejoin="round" fill="none"></path> <path d="M9.75 9H11.75" stroke="black" stroke-width="1.5" stroke-linecap="round" stroke-linejoin="round" fill="none"></path></svg>