<svg xmlns="http://www.w3.org/2000/svg" xmlns:xlink="http://www.w3.org/1999/xlink" x="0px" y="0px" width="18px" height="18px" viewBox="0 0 18 18"><path d="M3.435 14.057L2.58599 13.192C1.80499 12.411 1.80499 11.145 2.58599 10.364L10.364 2.58599C11.145 1.80499 12.411 1.80499 13.192 2.58599L14.041 3.45001" fill="#000" fill-opacity="0.3" data-color="color-2" data-stroke="none"></path> <path d="M3.435 14.057L14.041 3.45001L3.435 14.057Z" fill="#000" fill-opacity="0.3" data-color="color-2" data-stroke="none"></path> <path d="M5.518 16.124L2.58599 13.192C1.80499 12.411 1.80499 11.145 2.58599 10.364L10.364 2.58599C11.145 1.80499 12.411 1.80499 13.192 2.58599L16.124 5.518" stroke="black" stroke-width="1.5" stroke-linecap="round" stroke-linejoin="round" fill="none"></path> <path d="M11.9276 5.5636L14.003 7.639" stroke="black" stroke-width="1.5" stroke-linecap="round" stroke-linejoin="round" fill="none"></path> <path d="M9.8063 7.68509L11.8821 9.75999" stroke="black" stroke-width="1.5" stroke-linecap="round" stroke-linejoin="round" fill="none"></path> <path d="M7.68521 9.8064L9.75991 11.882" stroke="black" stroke-width="1.5" stroke-linecap="round" stroke-linejoin="round" fill="none"></path> <path d="M5.5639 11.9279L7.63901 14.003" stroke="black" stroke-width="1.5" stroke-linecap="round" stroke-linejoin="round" fill="none"></path> <path d="M3.435 14.057L14.041 3.45001" stroke="black" stroke-width="1.5" stroke-linecap="round" stroke-linejoin="round" fill="none"></path></svg>