<svg xmlns="http://www.w3.org/2000/svg" xmlns:xlink="http://www.w3.org/1999/xlink" x="0px" y="0px" width="18px" height="18px" viewBox="0 0 18 18"><path d="M9 5.683C10.289 4.411 12.254 4.443 13.507 5.757L16.75 9C15.2 10.7 12.875 13.25 9 13.25C5.125 13.25 2.8 10.7 1.25 9L4.493 5.757C5.746 4.443 7.711 4.411 9 5.683Z" fill="#000" fill-opacity="0.3" data-color="color-2" data-stroke="none"></path> <path d="M1.25 9.00001C4.018 9.00001 4.295 8.39301 5.679 8.39301C7.063 8.39301 7.34 9.00001 9 9.00001C10.66 9.00001 10.938 8.39301 12.321 8.39301C13.704 8.39301 14.535 9.00001 16.75 9.00001" stroke="black" stroke-width="1.5" stroke-linecap="round" stroke-linejoin="round" fill="none"></path> <path d="M9 5.683C10.289 4.411 12.254 4.443 13.507 5.757L16.75 9C15.2 10.7 12.875 13.25 9 13.25C5.125 13.25 2.8 10.7 1.25 9L4.493 5.757C5.746 4.443 7.711 4.411 9 5.683Z" stroke="black" stroke-width="1.5" stroke-linecap="round" stroke-linejoin="round" fill="none"></path></svg>