<svg xmlns="http://www.w3.org/2000/svg" xmlns:xlink="http://www.w3.org/1999/xlink" x="0px" y="0px" width="20px" height="20px" viewBox="0 0 20 20"><path d="m8,3h-2c-.5522,0-1-.4478-1-1s.4478-1,1-1h2c.5522,0,1,.4478,1,1s-.4478,1-1,1Z" fill="#000" stroke-width="0" data-color="color-2"></path><path d="m14.7987,9.4435c.1246.3297.2013.6832.2013,1.0565,0,1.6569-1.3431,3-3,3-.3734,0-.7268-.0767-1.0565-.2013l-3.7013,3.7013h6.7578c2.2056,0,4-1.7944,4-4v-5c0-.5199-.1069-1.0136-.2881-1.4697l-2.9131,2.9131Z" stroke-width="0" fill="#000"></path><path d="m3.7207,16.2793L15.6395,4.3605c-.5016-.2271-1.054-.3605-1.6395-.3605H6c-2.2056,0-4,1.7944-4,4v5c0,1.3578.6833,2.5558,1.7207,3.2793Zm2.0293-9.7793c.6904,0,1.25.5596,1.25,1.25s-.5596,1.25-1.25,1.25-1.25-.5596-1.25-1.25.5596-1.25,1.25-1.25Z" stroke-width="0" fill="#000"></path><path d="m3,18c-.2559,0-.5117-.0977-.707-.293-.3906-.3906-.3906-1.0234,0-1.4141L16.293,2.293c.3906-.3906,1.0234-.3906,1.4141,0s.3906,1.0234,0,1.4141L3.707,17.707c-.1953.1953-.4512.293-.707.293Z" fill="#000" stroke-width="0" data-color="color-2"></path></svg>