<svg xmlns="http://www.w3.org/2000/svg" xmlns:xlink="http://www.w3.org/1999/xlink" x="0px" y="0px" width="20px" height="20px" viewBox="0 0 20 20"><path d="m14,2H6c-2.2061,0-4,1.7944-4,4v8c0,2.2056,1.7939,4,4,4h8c2.2061,0,4-1.7944,4-4V6c0-2.2056-1.7939-4-4-4Zm-1.2256,8.8516l-3.25,2c-.1611.0986-.3428.1484-.5244.1484-.168,0-.3359-.042-.4883-.127-.3154-.1768-.5117-.5107-.5117-.873v-4c0-.3623.1963-.6963.5117-.873.3164-.1768.7021-.168,1.0127.0215l3.25,2c.2959.1821.4756.5044.4756.8516s-.1797.6694-.4756.8516Z" stroke-width="0" fill="#000"></path></svg>