<svg xmlns="http://www.w3.org/2000/svg" xmlns:xlink="http://www.w3.org/1999/xlink" x="0px" y="0px" width="20px" height="20px" viewBox="0 0 20 20"><path d="m16.9996,7.9506c.0003.0164.0004.0329.0004.0494v5c0,1.6569-1.3431,3-3,3h-5.0498" fill="none" stroke="#000" stroke-linecap="round" stroke-linejoin="round" stroke-width="2"></path><path d="m4.4383,15.562c-.8626-.5269-1.4383-1.4772-1.4383-2.562v-5c0-1.6569,1.3431-3,3-3h8c.3029,0,.5954.0449.8711.1284" fill="none" stroke="#000" stroke-linecap="round" stroke-linejoin="round" stroke-width="2"></path><circle cx="6" cy="8" r="1" stroke-width="0" fill="#000"></circle><line x1="6" y1="2" x2="8" y2="2" fill="none" stroke="#000" stroke-linecap="round" stroke-linejoin="round" stroke-width="2" data-color="color-2"></line><path d="m12.2303,7.7697c-.3762-.1699-.7906-.2697-1.2303-.2697-1.6569,0-3,1.3431-3,3,0,.4396.0998.8541.2697,1.2303l3.9606-3.9606Z" fill="#000" stroke-width="0" data-color="color-2"></path><line x1="3" y1="17" x2="17" y2="3" fill="none" stroke="#000" stroke-linecap="round" stroke-linejoin="round" stroke-width="2" data-color="color-2"></line></svg>