<svg xmlns="http://www.w3.org/2000/svg" xmlns:xlink="http://www.w3.org/1999/xlink" x="0px" y="0px" width="20px" height="20px" viewBox="0 0 20 20"><path d="m10,2C5.5889,2,2,5.5889,2,10s3.5889,8,8,8,8-3.5889,8-8S14.4111,2,10,2Zm-2.5,5c.8284,0,1.5.6716,1.5,1.5s-.6716,1.5-1.5,1.5-1.5-.6716-1.5-1.5.6716-1.5,1.5-1.5Zm2.5,9c-1.5366,0-2.9354-.5854-3.998-1.5386l5.0838-5.0838c.781-.781,2.0474-.781,2.8284,0l1.9363,1.9363c-.6013,2.6779-2.9937,4.6861-5.8505,4.6861Z" stroke-width="0" fill="#000"></path></svg>