<svg xmlns="http://www.w3.org/2000/svg" xmlns:xlink="http://www.w3.org/1999/xlink" x="0px" y="0px" width="18px" height="18px" viewBox="0 0 18 18"><path fill-rule="evenodd" clip-rule="evenodd" d="M9 16.25C13.0041 16.25 16.25 13.0041 16.25 9C16.25 4.99594 13.0041 1.75 9 1.75C4.99594 1.75 1.75 4.99594 1.75 9C1.75 13.0041 4.99594 16.25 9 16.25ZM5.5 10.25C6.88071 10.25 8 9.13071 8 7.75C8 6.36929 6.88071 5.25 5.5 5.25C4.11929 5.25 3 6.36929 3 7.75C3 9.13071 4.11929 10.25 5.5 10.25ZM15 7.75C15 9.13071 13.8807 10.25 12.5 10.25C11.1193 10.25 10 9.13071 10 7.75C10 6.36929 11.1193 5.25 12.5 5.25C13.8807 5.25 15 6.36929 15 7.75Z" fill="#000" fill-opacity="0.3" data-color="color-2" data-stroke="none"></path> <path d="M7.75 12.75H10.25" stroke="black" stroke-width="1.5" stroke-linecap="round" stroke-linejoin="round" fill="none"></path> <path d="M9 16.25C13.0041 16.25 16.25 13.0041 16.25 9C16.25 4.99594 13.0041 1.75 9 1.75C4.99594 1.75 1.75 4.99594 1.75 9C1.75 13.0041 4.99594 16.25 9 16.25Z" stroke="black" stroke-width="1.5" stroke-linecap="round" stroke-linejoin="round" fill="none"></path> <path d="M5.5 10.25C6.88071 10.25 8 9.13071 8 7.75C8 6.36929 6.88071 5.25 5.5 5.25C4.11929 5.25 3 6.36929 3 7.75C3 9.13071 4.11929 10.25 5.5 10.25Z" stroke="black" stroke-width="1.5" stroke-linecap="round" stroke-linejoin="round" fill="none"></path> <path d="M3 7.75H0.75" stroke="black" stroke-width="1.5" stroke-linecap="round" stroke-linejoin="round" fill="none"></path> <path d="M12.5 10.25C13.8807 10.25 15 9.13071 15 7.75C15 6.36929 13.8807 5.25 12.5 5.25C11.1193 5.25 10 6.36929 10 7.75C10 9.13071 11.1193 10.25 12.5 10.25Z" stroke="black" stroke-width="1.5" stroke-linecap="round" stroke-linejoin="round" fill="none"></path> <path d="M15 7.75H17.25" stroke="black" stroke-width="1.5" stroke-linecap="round" stroke-linejoin="round" fill="none"></path> <path d="M8 7.75C8.195 7.38 8.581 7.147 9 7.147C9.419 7.147 9.805 7.38 10 7.75" stroke="black" stroke-width="1.5" stroke-linecap="round" stroke-linejoin="round" fill="none"></path></svg>