<svg xmlns="http://www.w3.org/2000/svg" xmlns:xlink="http://www.w3.org/1999/xlink" x="0px" y="0px" width="18px" height="18px" viewBox="0 0 18 18"><path d="M9 16.25C13.0041 16.25 16.25 13.0041 16.25 9C16.25 4.99594 13.0041 1.75 9 1.75C4.99594 1.75 1.75 4.99594 1.75 9C1.75 13.0041 4.99594 16.25 9 16.25Z" fill="#000" fill-opacity="0.3" data-color="color-2" data-stroke="none"></path> <path d="M9 16.25C13.0041 16.25 16.25 13.0041 16.25 9C16.25 4.99594 13.0041 1.75 9 1.75C4.99594 1.75 1.75 4.99594 1.75 9C1.75 13.0041 4.99594 16.25 9 16.25Z" stroke="black" stroke-width="1.5" stroke-linecap="round" stroke-linejoin="round" fill="none"></path> <path d="M10.757 6.103C10.603 6.257 10.536 6.469 10.568 6.686C10.807 8.219 10.806 9.798 10.567 11.325C10.535 11.539 10.602 11.746 10.752 11.897C10.905 12.051 11.128 12.124 11.35 12.09C12.861 11.86 14.001 10.532 14.001 9.001C14.001 7.47 12.86 6.141 11.347 5.912C11.131 5.879 10.911 5.951 10.758 6.104L10.757 6.103Z" fill="black" data-stroke="none"></path> <path d="M8.25 13.25C7.56 13.25 7 12.69 7 12C7 11.31 7.56 10.75 8.25 10.75" stroke="black" stroke-width="1.5" stroke-linecap="round" stroke-linejoin="round" fill="none"></path> <path d="M8.25 7.25C7.56 7.25 7 6.69 7 6C7 5.31 7.56 4.75 8.25 4.75" stroke="black" stroke-width="1.5" stroke-linecap="round" stroke-linejoin="round" fill="none"></path> <path d="M0.75 16.25H2.75" stroke="black" stroke-width="1.5" stroke-linecap="round" stroke-linejoin="round" fill="none"></path></svg>