<svg xmlns="http://www.w3.org/2000/svg" xmlns:xlink="http://www.w3.org/1999/xlink" x="0px" y="0px" width="18px" height="18px" viewBox="0 0 18 18"><path d="m14.75,6.75c-1.1046,0-2,.8955-2,2V3.75c0-.6904-.5596-1.25-1.25-1.25s-1.25.5596-1.25,1.25v-1.25c0-.6904-.5596-1.25-1.25-1.25s-1.25.5596-1.25,1.25v1.25c0-.6904-.5596-1.25-1.25-1.25s-1.25.5596-1.25,1.25v1.5c0-.6904-.5596-1.25-1.25-1.25s-1.25.5596-1.25,1.25v4.9868h-.001v.4976c0,.0066.001.0127.001.0193v1.2825h.1447c.5951,2.687,2.9881,4.6982,5.8543,4.6982h1.001c2.9595,0,5.4127-2.1448,5.9045-4.9636h.0955v-5.0208h-1Z" fill="#000" opacity=".3" stroke-width="0" data-color="color-2"></path><path d="m10.25,7.75V2.5c0-.69-.564-1.25-1.25-1.25s-1.25.56-1.25,1.25v5.25" fill="none" stroke="#000" stroke-linecap="round" stroke-linejoin="round" stroke-width="1.5"></path><path d="m7.75,3.75c0-.69-.564-1.25-1.25-1.25s-1.25.56-1.25,1.25v4" fill="none" stroke="#000" stroke-linecap="round" stroke-linejoin="round" stroke-width="1.5"></path><path d="m12.75,9.25V3.75c0-.69-.564-1.25-1.25-1.25s-1.25.56-1.25,1.25" fill="none" stroke="#000" stroke-linecap="round" stroke-linejoin="round" stroke-width="1.5"></path><path d="m5.249,5.25c0-.69-.564-1.25-1.25-1.25s-1.25.56-1.25,1.25v5.4844c0,3.3202,2.6964,6.0092,6.0166,6l1.001-.0028c3.3072-.0092,5.9834-2.6928,5.9834-6v-3.9816s-1,0-1,0c-1.1046,0-2,.8954-2,2v1.5c-1.5727,0-2.8627,1.2101-2.9897,2.75" fill="none" stroke="#000" stroke-linecap="round" stroke-linejoin="round" stroke-width="1.5"></path></svg>