<svg xmlns="http://www.w3.org/2000/svg" xmlns:xlink="http://www.w3.org/1999/xlink" x="0px" y="0px" width="20px" height="20px" viewBox="0 0 20 20"><line x1="14" y1="18" x2="14" y2="12" fill="none" stroke="#000" stroke-linecap="round" stroke-linejoin="round" stroke-width="2" data-color="color-2"></line><path d="m16.973,10.199c.04-.523-.059-1.055-.334-1.513-.962-1.715-3.175-4.686-6.639-4.686s-5.677,2.972-6.639,4.686c-.481.8-.481,1.829,0,2.629.711,1.352,2.107,3.261,4.184,4.168" fill="none" stroke="#000" stroke-linecap="round" stroke-linejoin="round" stroke-width="2"></path><line x1="11" y1="15" x2="17" y2="15" fill="none" stroke="#000" stroke-linecap="round" stroke-linejoin="round" stroke-width="2" data-color="color-2"></line><path d="m11,12c0-1.26.782-2.336,1.884-2.78-.345-1.276-1.499-2.22-2.884-2.22-1.657,0-3,1.343-3,3,0,1.293.822,2.384,1.968,2.806.535-.496,1.246-.807,2.032-.807Z" stroke-width="0" fill="#000"></path></svg>