<svg xmlns="http://www.w3.org/2000/svg" xmlns:xlink="http://www.w3.org/1999/xlink" x="0px" y="0px" width="18px" height="18px" viewBox="0 0 18 18"><path d="M7.25,2h-2.25v-.25c0-.414-.336-.75-.75-.75s-.75,.336-.75,.75v.25H1.25c-.414,0-.75,.336-.75,.75s.336,.75,.75,.75H3.5v3.25c0,.414,.336,.75,.75,.75s.75-.336,.75-.75V3.5h2.25c.414,0,.75-.336,.75-.75s-.336-.75-.75-.75Z" fill="#000" data-color="color-2"></path><path d="M16.75,2h-2.25v-.25c0-.414-.336-.75-.75-.75s-.75,.336-.75,.75v.25h-2.25c-.414,0-.75,.336-.75,.75s.336,.75,.75,.75h2.25v3.25c0,.414,.336,.75,.75,.75s.75-.336,.75-.75V3.5h2.25c.414,0,.75-.336,.75-.75s-.336-.75-.75-.75Z" fill="#000" data-color="color-2"></path><path d="M12.558,11.582l.132-1.582h1.81c1.103,0,2-.897,2-2s-.897-2-2-2H3.5c-1.103,0-2,.897-2,2s.897,2,2,2h1.81l.132,1.582c-2.234,.386-3.942,2.326-3.942,4.668,0,.414,.336,.75,.75,.75s.75-.336,.75-.75c0-1.792,1.458-3.25,3.25-3.25h5.5c1.792,0,3.25,1.458,3.25,3.25,0,.414,.336,.75,.75,.75s.75-.336,.75-.75c0-2.342-1.708-4.282-3.942-4.668Zm-3.558-1.582c-.552,0-1-.448-1-1s.448-1,1-1,1,.448,1,1-.448,1-1,1Z" fill="#000"></path></svg>