<svg xmlns="http://www.w3.org/2000/svg" xmlns:xlink="http://www.w3.org/1999/xlink" x="0px" y="0px" width="20px" height="20px" viewBox="0 0 20 20"><path d="m10,2C5.5886,2,2,5.5886,2,10s3.5886,8,8,8,8-3.5886,8-8S14.4114,2,10,2Zm0,11c1.0679,0,2.064-.5752,2.5991-1.5005.2773-.4775.8877-.6416,1.3662-.3652.478.2764.6416.8882.3652,1.3662-.8916,1.542-2.5508,2.4995-4.3306,2.4995-2.7568,0-5-2.2432-5-5s2.2432-5,5-5c1.7798,0,3.439.9575,4.3306,2.4995.2764.478.1128,1.0898-.3652,1.3662-.4785.2764-1.0889.1133-1.3662-.3652-.5352-.9253-1.5312-1.5005-2.5991-1.5005-1.6543,0-3,1.3457-3,3s1.3457,3,3,3Z" stroke-width="0" fill="#000"></path></svg>