<svg xmlns="http://www.w3.org/2000/svg" xmlns:xlink="http://www.w3.org/1999/xlink" x="0px" y="0px" width="20px" height="20px" viewBox="0 0 20 20"><polyline points="17 6 3 6 6 3" fill="none" stroke="#000" stroke-linecap="round" stroke-linejoin="round" stroke-width="2" data-color="color-2"></polyline><polyline points="3 14 17 14 14 17" fill="none" stroke="#000" stroke-linecap="round" stroke-linejoin="round" stroke-width="2" data-color="color-2"></polyline><path d="m10,5c-2.757,0-5,2.243-5,5s2.243,5,5,5,5-2.243,5-5-2.243-5-5-5Zm1,6c0,.553-.448,1-1,1s-1-.447-1-1v-2c0-.553.448-1,1-1s1,.447,1,1v2Z" stroke-width="0" fill="#000"></path></svg>