<svg xmlns="http://www.w3.org/2000/svg" xmlns:xlink="http://www.w3.org/1999/xlink" x="0px" y="0px" width="20px" height="20px" viewBox="0 0 20 20"><line x1="8" y1="17" x2="8" y2="9" fill="none" stroke="#000" stroke-linecap="round" stroke-linejoin="round" stroke-width="2" data-color="color-2"></line><line x1="4" y1="17" x2="4" y2="9" fill="none" stroke="#000" stroke-linecap="round" stroke-linejoin="round" stroke-width="2" data-color="color-2"></line><line x1="12" y1="17" x2="12" y2="9" fill="none" stroke="#000" stroke-linecap="round" stroke-linejoin="round" stroke-width="2" data-color="color-2"></line><line x1="16" y1="17" x2="16" y2="9" fill="none" stroke="#000" stroke-linecap="round" stroke-linejoin="round" stroke-width="2" data-color="color-2"></line><line x1="17" y1="17" x2="3" y2="17" fill="none" stroke="#000" stroke-linecap="round" stroke-linejoin="round" stroke-width="2"></line><path d="m3,7l6.5039-3.7165c.3074-.1757.6848-.1757.9923,0l6.5039,3.7165v2H3v-2Z" fill="none" stroke="#000" stroke-linecap="round" stroke-linejoin="round" stroke-width="2"></path><path d="m10.4962,3.2835c-.3074-.1757-.6849-.1757-.9923,0l-6.5038,3.7165v2h14v-2l-6.5038-3.7165Zm-.4962,4.2165c-.6904,0-1.25-.5596-1.25-1.25s.5596-1.25,1.25-1.25,1.25.5596,1.25,1.25-.5596,1.25-1.25,1.25Z" stroke-width="0" fill="#000"></path></svg>