<svg xmlns="http://www.w3.org/2000/svg" xmlns:xlink="http://www.w3.org/1999/xlink" x="0px" y="0px" width="20px" height="20px" viewBox="0 0 20 20"><polyline points="6 17 11 17 12 17 17 17 17 9 12 12.5 12 9 9 11" fill="none" stroke="#000" stroke-linecap="round" stroke-linejoin="round" stroke-width="2"></polyline><path d="m12.687,4c-.222-.863-1.005-1.5-1.937-1.5-.56,0-1.064.231-1.427.602-.449-.665-1.21-1.102-2.073-1.102-1.209,0-2.218.859-2.45,2" fill="none" stroke="#000" stroke-linecap="round" stroke-linejoin="round" stroke-width="2" data-color="color-2"></path><path d="m5.449,17h-1.398c-.572,0-1.027-.479-.999-1.05l.4-8c.027-.532.466-.95.999-.95h.598c.533,0,.972.418.999.95l.4,8c.029.571-.427,1.05-.999,1.05Z" stroke="#000" stroke-linecap="round" stroke-linejoin="round" stroke-width="2" fill="#000"></path></svg>