<svg xmlns="http://www.w3.org/2000/svg" xmlns:xlink="http://www.w3.org/1999/xlink" x="0px" y="0px" width="20px" height="20px" viewBox="0 0 20 20"><path d="m7.8199,16h-2.3199c-1.3807,0-2.5-1.1193-2.5-2.5v-4c0-1.3807,1.1193-2.5,2.5-2.5h9c1.2571,0,2.2975.9278,2.4737,2.136" fill="none" stroke="#000" stroke-linecap="round" stroke-linejoin="round" stroke-width="2"></path><path d="m7,7v-3c0-.5523.4477-1,1-1h4c.5523,0,1,.4477,1,1v3" fill="none" stroke="#000" stroke-linecap="round" stroke-linejoin="round" stroke-width="2"></path><polygon points="13.75 10.5 14.5 13 17 13.75 14.5 14.5 13.75 17 13 14.5 10.5 13.75 13 13 13.75 10.5" fill="#000" stroke="#000" stroke-linecap="round" stroke-linejoin="round" stroke-width="2" data-color="color-2"></polygon></svg>