<svg xmlns="http://www.w3.org/2000/svg" xmlns:xlink="http://www.w3.org/1999/xlink" x="0px" y="0px" width="20px" height="20px" viewBox="0 0 20 20"><circle cx="3.25" cy="5.25" r="1.25" fill="#000" stroke-width="0" data-color="color-2"></circle><path d="m4.3471,10h3.3057c.4888,0,.906.3534.9864.8356l.8607,5.1644H2.5l.8607-5.1644c.0804-.4822.4976-.8356.9864-.8356Z" fill="none" stroke="#000" stroke-linecap="round" stroke-linejoin="round" stroke-width="2"></path><path d="m15.6529,10h-3.3057c-.4888,0-.906.3534-.9864.8356l-.8607,5.1644h7s-.8607-5.1644-.8607-5.1644c-.0804-.4822-.4976-.8356-.9864-.8356Z" fill="none" stroke="#000" stroke-linecap="round" stroke-linejoin="round" stroke-width="2"></path><polygon points="10.5 16 9.5 16 8.498 10 11.498 10 10.5 16" stroke-width="0" fill="#000"></polygon><path d="m10.5001,4h-2.153c-.4888,0-.906.3534-.9864.8356l-.8607,5.1644h7l-.4487-2.6926" fill="none" stroke="#000" stroke-linecap="round" stroke-linejoin="round" stroke-width="2"></path><path d="m18.72,3.553l-1.521-.752-.752-1.521c-.168-.341-.729-.341-.896,0l-.752,1.521-1.521.752c-.171.084-.278.258-.278.448s.107.364.278.448l1.521.752.752,1.521c.084.17.258.278.448.278s.364-.108.448-.278l.752-1.521,1.521-.752c.171-.084.278-.258.278-.448s-.107-.364-.278-.448Z" fill="#000" stroke-width="0" data-color="color-2"></path><line x1="9" y1="16" x2="11" y2="16" fill="none" stroke="#000" stroke-linecap="round" stroke-linejoin="round" stroke-width="2"></line></svg>