<svg xmlns="http://www.w3.org/2000/svg" xmlns:xlink="http://www.w3.org/1999/xlink" x="0px" y="0px" width="20px" height="20px" viewBox="0 0 20 20"><rect x="3" y="4" width="14" height="12" rx="3" ry="3" fill="none" stroke="#000" stroke-linecap="round" stroke-linejoin="round" stroke-width="2"></rect><path d="m10,7.5c-1.3807,0-2.5,1.1193-2.5,2.5s1.1193,2.5,2.5,2.5,2.5-1.1193,2.5-2.5-1.1193-2.5-2.5-2.5Z" fill="#000" stroke-width="0" data-color="color-2"></path><path d="m3,7v.8163c.3142.1117.6475.1837,1,.1837,1.6569,0,3-1.3431,3-3,0-.3525-.072-.6858-.1837-1h-.8163c-1.6569,0-3,1.3431-3,3Z" stroke-width="0" fill="#000"></path><path d="m17,7v.8163c-.3142.1117-.6475.1837-1,.1837-1.6569,0-3-1.3431-3-3,0-.3525.072-.6858.1837-1h.8163c1.6569,0,3,1.3431,3,3Z" stroke-width="0" fill="#000"></path><path d="m3,13v-.8163c.3142-.1117.6475-.1837,1-.1837,1.6569,0,3,1.3431,3,3,0,.3525-.072.6858-.1837,1h-.8163c-1.6569,0-3-1.3431-3-3Z" stroke-width="0" fill="#000"></path><path d="m17,13v-.8163c-.3142-.1117-.6475-.1837-1-.1837-1.6569,0-3,1.3431-3,3,0,.3525.072.6858.1837,1h.8163c1.6569,0,3-1.3431,3-3Z" stroke-width="0" fill="#000"></path></svg>