<svg xmlns="http://www.w3.org/2000/svg" xmlns:xlink="http://www.w3.org/1999/xlink" x="0px" y="0px" width="20px" height="20px" viewBox="0 0 20 20"><line x1="7" y1="15" x2="7" y2="17" fill="none" stroke="#000" stroke-linecap="round" stroke-linejoin="round" stroke-width="2" data-color="color-2"></line><line x1="13" y1="15" x2="13" y2="17" fill="none" stroke="#000" stroke-linecap="round" stroke-linejoin="round" stroke-width="2" data-color="color-2"></line><rect x="3.5" y="3" width="13" height="12" rx="2.5" ry="2.5" fill="none" stroke="#000" stroke-linecap="round" stroke-linejoin="round" stroke-width="2"></rect><path d="m14,3H6c-1.3807,0-2.5,1.1193-2.5,2.5v7c0,1.3807,1.1193,2.5,2.5,2.5h8c1.3807,0,2.5-1.1193,2.5-2.5v-7c0-1.3807-1.1193-2.5-2.5-2.5Zm-3,7.7889v1.2111c0,.5522-.4478,1-1,1s-1-.4478-1-1v-1.2111c-.8823-.386-1.5-1.2643-1.5-2.2889,0-1.3807,1.1193-2.5,2.5-2.5s2.5,1.1193,2.5,2.5c0,1.0247-.6177,1.9029-1.5,2.2889Z" stroke-width="0" fill="#000"></path></svg>