<svg xmlns="http://www.w3.org/2000/svg" xmlns:xlink="http://www.w3.org/1999/xlink" x="0px" y="0px" width="20px" height="20px" viewBox="0 0 20 20"><path d="m7,7v-3c0-.5523.4477-1,1-1h4c.5523,0,1,.4477,1,1v3" fill="none" stroke="#000" stroke-linecap="round" stroke-linejoin="round" stroke-width="2"></path><path d="m15.9863,7.5c-.4164-.3101-.9272-.5-1.4863-.5H5.5c-1.3807,0-2.5,1.1193-2.5,2.5v4c0,1.3807,1.1193,2.5,2.5,2.5h4" fill="none" stroke="#000" stroke-linecap="round" stroke-linejoin="round" stroke-width="2"></path><path d="m14,11h2c.5523,0,1,.4477,1,1v5l-2-3-2,3v-5c0-.5523.4477-1,1-1Z" fill="#000" stroke="#000" stroke-linecap="round" stroke-linejoin="round" stroke-width="2" data-color="color-2"></path></svg>