<svg xmlns="http://www.w3.org/2000/svg" xmlns:xlink="http://www.w3.org/1999/xlink" x="0px" y="0px" width="20px" height="20px" viewBox="0 0 20 20"><path d="m7,7v-3c0-.5523.4477-1,1-1h4c.5523,0,1,.4477,1,1v3" fill="none" stroke="#000" stroke-linecap="round" stroke-linejoin="round" stroke-width="2" data-color="color-2"></path><path d="m9.0074,10.9634c.0203-.5342.4529-.9634.9926-.9634s.9723.4291.9926.9634c2.34-.0956,4.6786-.5318,7.0074-1.3035v-.1599c0-1.9297-1.5703-3.5-3.5-3.5H5.5c-1.9297,0-3.5,1.5703-3.5,3.5v.1599c2.3287.7717,4.6674,1.2078,7.0074,1.3035Z" fill="#000" stroke-width="0" data-color="color-2"></path><path d="m11,12.9679v.0321c0,.5522-.4473,1-1,1s-1-.4478-1-1v-.0321c-2.3368-.0893-4.6727-.4903-7-1.2054v1.7375c0,1.9297,1.5703,3.5,3.5,3.5h9c1.9297,0,3.5-1.5703,3.5-3.5v-1.7375c-2.3273.7151-4.6632,1.1161-7,1.2054Z" stroke-width="0" fill="#000"></path></svg>