<svg xmlns="http://www.w3.org/2000/svg" xmlns:xlink="http://www.w3.org/1999/xlink" x="0px" y="0px" width="20px" height="20px" viewBox="0 0 20 20"><path d="m7,7v-3c0-.5523.4477-1,1-1h4c.5523,0,1,.4477,1,1v3" fill="none" stroke="#000" stroke-linecap="round" stroke-linejoin="round" stroke-width="2"></path><path d="m12,15v-2c0-1.1046.8954-2,2-2h0c1.1046,0,2,.8954,2,2v2" fill="none" stroke="#000" stroke-linecap="round" stroke-linejoin="round" stroke-width="2" data-color="color-2"></path><path d="m16.6243,8.1966c-.4399-.7153-1.223-1.1966-2.1243-1.1966H5.5c-1.3807,0-2.5,1.1193-2.5,2.5v4c0,1.3807,1.1193,2.5,2.5,2.5h2" fill="none" stroke="#000" stroke-linecap="round" stroke-linejoin="round" stroke-width="2"></path><rect x="11" y="15" width="6" height="3" rx=".5" ry=".5" fill="#000" stroke="#000" stroke-linecap="round" stroke-linejoin="round" stroke-width="2" data-color="color-2"></rect></svg>