<svg xmlns="http://www.w3.org/2000/svg" xmlns:xlink="http://www.w3.org/1999/xlink" x="0px" y="0px" width="20px" height="20px" viewBox="0 0 20 20"><path d="m10,2C5.5886,2,2,5.5886,2,10s3.5886,8,8,8,8-3.5886,8-8S14.4114,2,10,2Zm1,12.4747v.5253c0,.5522-.4473,1-1,1s-1-.4478-1-1v-.5h-1c-.5527,0-1-.4478-1-1s.4473-1,1-1h2.75c.4131,0,.75-.3364.75-.75s-.3369-.75-.75-.75h-1.5c-1.5166,0-2.75-1.2334-2.75-2.75,0-1.431,1.1021-2.5961,2.5-2.7247v-.5253c0-.5522.4473-1,1-1s1,.4478,1,1v.5h1c.5527,0,1,.4478,1,1s-.4473,1-1,1h-2.75c-.4131,0-.75.3364-.75.75s.3369.75.75.75h1.5c1.5166,0,2.75,1.2334,2.75,2.75,0,1.431-1.1021,2.5961-2.5,2.7247Z" stroke-width="0" fill="#000"></path></svg>