<svg xmlns="http://www.w3.org/2000/svg" xmlns:xlink="http://www.w3.org/1999/xlink" x="0px" y="0px" width="20px" height="20px" viewBox="0 0 20 20"><path d="m7,7v-3c0-.5523.4477-1,1-1h4c.5523,0,1,.4477,1,1v3" fill="none" stroke="#000" stroke-linecap="round" stroke-linejoin="round" stroke-width="2"></path><path d="m17,9.5c0-1.3807-1.1193-2.5-2.5-2.5H5.5c-1.3807,0-2.5,1.1193-2.5,2.5v4c0,1.3807,1.1193,2.5,2.5,2.5h2.3181" fill="none" stroke="#000" stroke-linecap="round" stroke-linejoin="round" stroke-width="2"></path><path d="m14,14v-1.5c0-.8284-.6716-1.5-1.5-1.5h0c-.8284,0-1.5.6716-1.5,1.5v1.5c0,1.6569,1.3431,3,3,3h0c1.6569,0,3-1.3431,3-3v-1" fill="none" stroke="#000" stroke-linecap="round" stroke-linejoin="round" stroke-width="2" data-color="color-2"></path></svg>