<svg xmlns="http://www.w3.org/2000/svg" xmlns:xlink="http://www.w3.org/1999/xlink" x="0px" y="0px" width="20px" height="20px" viewBox="0 0 20 20"><line x1="17" y1="3" x2="3" y2="3" fill="none" stroke="#000" stroke-linecap="round" stroke-linejoin="round" stroke-width="2" data-color="color-2"></line><path d="m16,6h-3v12h1c1.6543,0,3-1.3457,3-3V7c0-.5522-.4478-1-1-1Z" stroke-width="0" fill="#000"></path><path d="m11,6h-7c-.5522,0-1,.4478-1,1v8c0,1.6543,1.3457,3,3,3h5V6Zm-4,9c-.5522,0-1-.4478-1-1v-2c0-.5522.4478-1,1-1s1,.4478,1,1v2c0,.5522-.4478,1-1,1Z" stroke-width="0" fill="#000"></path></svg>