<svg xmlns="http://www.w3.org/2000/svg" xmlns:xlink="http://www.w3.org/1999/xlink" x="0px" y="0px" width="20px" height="20px" viewBox="0 0 20 20"><path d="m16.4463,7.332l-.5073-.8804.1758-.9995c.168-.957-.3726-1.8931-1.2856-2.2251l-.9531-.3472-.5078-.8804c-.4873-.8418-1.5039-1.2114-2.4155-.8784l-.9521.3472-.9531-.3472c-.9141-.3335-1.9297.0366-2.4165.8799l-.5073.8789-.9526.3472c-.9131.332-1.4536,1.2681-1.2856,2.2256l.1753,1.0005-.5059.8774c-.4878.8423-.3003,1.9077.4458,2.5332l.7769.6509.1758.9985c.1685.958.9966,1.6533,1.9697,1.6533l1.0142-.0005.7778.6533c.3726.312.8286.4678,1.2852.4678s.9126-.1558,1.2852-.4678l.001-.001.7769-.6519h1.0142c.9731,0,1.8013-.6953,1.9697-1.6528l.1758-.998.7769-.6519c.7461-.6255.9336-1.6909.4468-2.5317Z" stroke-width="0" fill="#000"></path><path d="m13.0771,15.1665h-.2861l-.2192.1841c-.7212.604-1.6343.9365-2.5718.9365s-1.8496-.332-2.5693-.9346l-.2217-.186h-.2852c-.3188,0-.6251-.0497-.9238-.1205v2.954c0,.3687.2031.7075.5283.8818.3242.1738.7188.1538,1.0264-.0498l2.4453-1.6304,2.4453,1.6304c.1675.1118.3608.168.5547.168.1616,0,.3242-.0391.4717-.1182.3252-.1743.5283-.5132.5283-.8818v-2.9538c-.2985.0707-.6044.1203-.9229.1203Z" fill="#000" stroke-width="0" data-color="color-2"></path></svg>