<svg xmlns="http://www.w3.org/2000/svg" xmlns:xlink="http://www.w3.org/1999/xlink" x="0px" y="0px" width="12px" height="12px" viewBox="0 0 12 12"><line x1="6.75" y1="6" x2="11" y2="6" fill="none" stroke="#000" stroke-linecap="round" stroke-linejoin="round" stroke-width="1.5" data-color="color-2"></line><polyline points="9 8.25 11.25 6 9 3.75" fill="none" stroke="#000" stroke-linecap="round" stroke-linejoin="round" stroke-width="1.5" data-color="color-2"></polyline><path d="m1.23,1.15l2.16,1.8c.228.19.36.471.36.768v4.563c0,.297-.132.578-.36.768l-2.16,1.8" fill="none" stroke="#000" stroke-linecap="round" stroke-linejoin="round" stroke-width="1.5"></path><path d="m7.224,10.008c-.123.705-.734,1.242-1.474,1.242h-3.5c-.828,0-1.5-.672-1.5-1.5V2.25c0-.828.672-1.5,1.5-1.5h3.5c.74,0,1.351.537,1.474,1.242" fill="none" stroke="#000" stroke-linecap="round" stroke-linejoin="round" stroke-width="1.5"></path></svg>