<svg xmlns="http://www.w3.org/2000/svg" xmlns:xlink="http://www.w3.org/1999/xlink" x="0px" y="0px" width="18px" height="18px" viewBox="0 0 18 18"><path d="M3.8862 13.25H3.75C2.645 13.25 1.75 12.355 1.75 11.25V5.25C1.75 4.145 2.645 3.25 3.75 3.25H14.25C15.355 3.25 16.25 4.145 16.25 5.25V11.25C16.25 12.355 15.355 13.25 14.25 13.25H14.1139" stroke="black" stroke-width="1.5" stroke-linecap="round" stroke-linejoin="round" fill="none"></path> <path d="M8.58598 11.659L6.00598 15.47C5.78098 15.802 6.01898 16.25 6.41998 16.25H11.58C11.981 16.25 12.219 15.802 11.994 15.47L9.41398 11.659C9.21598 11.366 8.78398 11.366 8.58598 11.659Z" stroke="#000" stroke-width="1.5" stroke-linecap="round" stroke-linejoin="round" data-color="color-2" fill="none"></path></svg>