<svg xmlns="http://www.w3.org/2000/svg" xmlns:xlink="http://www.w3.org/1999/xlink" x="0px" y="0px" width="18px" height="18px" viewBox="0 0 18 18"><path d="M8.75002 4.74999H6.75002V2.24398C6.75002 1.79298 6.20102 1.573 5.88902 1.898L1.44202 6.53798C1.19502 6.79598 1.19502 7.20299 1.44202 7.46099L3.50002 9.60808" stroke="#000" stroke-width="1.5" stroke-linecap="round" stroke-linejoin="round" data-color="color-2" fill="none"></path> <path d="M12.111 5.898L16.558 10.538C16.805 10.796 16.805 11.203 16.558 11.461L12.111 16.101C11.799 16.426 11.25 16.206 11.25 15.755V13.249H7.25C6.698 13.249 6.25 12.801 6.25 12.249V9.74899C6.25 9.19699 6.698 8.74899 7.25 8.74899H11.25V6.24301C11.25 5.79201 11.799 5.573 12.111 5.898Z" stroke="black" stroke-width="1.5" stroke-linecap="round" stroke-linejoin="round" fill="none"></path></svg>