<svg xmlns="http://www.w3.org/2000/svg" xmlns:xlink="http://www.w3.org/1999/xlink" x="0px" y="0px" width="18px" height="18px" viewBox="0 0 18 18"><path d="M8.07969 1.81283C11.9943 1.30713 15.604 4.03133 16.174 7.95993C16.751 11.92 14.006 15.5999 10.044 16.17C6.08199 16.75 2.40199 14.01 1.82599 10.04C1.41199 7.19991 2.70499 4.50997 4.92799 2.99997" stroke="black" stroke-width="1.5" stroke-linecap="round" stroke-linejoin="round" fill="none"></path> <path d="M2.25598 2.77002L5.22898 2.75L5.24998 5.71997" stroke="black" stroke-width="1.5" stroke-linecap="round" stroke-linejoin="round" fill="none"></path> <path d="M8.54589 11.4543L11.9571 8.043C12.3476 7.6525 12.3476 7.01931 11.9571 6.62881L11.3713 6.043C10.9808 5.6525 10.3476 5.6525 9.95709 6.043L6.54589 9.45425L5.75009 12.2502L8.54589 11.4543Z" stroke="#000" stroke-width="1.5" stroke-linecap="round" stroke-linejoin="round" data-color="color-2" fill="none"></path></svg>