<svg xmlns="http://www.w3.org/2000/svg" xmlns:xlink="http://www.w3.org/1999/xlink" x="0px" y="0px" width="18px" height="18px" viewBox="0 0 18 18"><path d="m10.75,6.2501h-2.3752c-.7593,0-1.3748.6155-1.3748,1.3748s.6155,1.3752,1.3748,1.3752h1.2503c.7593,0,1.3748.6155,1.3748,1.3748s-.6155,1.3749-1.3748,1.3749h-2.3752m1.75-6.4999v1.0002m0,6.4998v-1" fill="none" stroke="#000" stroke-linecap="round" stroke-linejoin="round" stroke-width="1.5" data-color="color-2"></path><polyline points="14.75 12.25 17.25 14.75 14.75 17.25" fill="none" stroke="#000" stroke-linecap="round" stroke-linejoin="round" stroke-width="1.5"></polyline><path d="m16.2173,9.6479c.019-.2139.0327-.4292.0327-.6479,0-4.0039-3.2459-7.25-7.25-7.25S1.75,4.9961,1.75,9s3.2459,7.25,7.25,7.25c.2168,0,.4303-.0137.6423-.0325" fill="none" stroke="#000" stroke-linecap="round" stroke-linejoin="round" stroke-width="1.5"></path><line x1="17" y1="14.75" x2="12.25" y2="14.75" fill="none" stroke="#000" stroke-linecap="round" stroke-linejoin="round" stroke-width="1.5"></line></svg>