<svg xmlns="http://www.w3.org/2000/svg" xmlns:xlink="http://www.w3.org/1999/xlink" x="0px" y="0px" width="18px" height="18px" viewBox="0 0 18 18"><path d="M8.75 1L10.75 3L8.75 5" stroke="#000" stroke-width="1.5" stroke-linecap="round" stroke-linejoin="round" data-color="color-2" fill="none"></path> <path d="M2.19699 13.217L2.92899 10.484L5.661 11.217" stroke="black" stroke-width="1.5" stroke-linecap="round" stroke-linejoin="round" fill="none"></path> <path d="M16.053 12.783L13.321 13.516L12.589 10.783" stroke="black" stroke-width="1.5" stroke-linecap="round" stroke-linejoin="round" fill="none"></path> <path d="M10.722 2.98999C10.175 2.83399 9.59699 2.75 8.99999 2.75C6.06949 2.75 3.60989 4.76712 2.93399 7.48792" stroke="#000" stroke-width="1.5" stroke-linecap="round" stroke-linejoin="round" data-color="color-2" fill="none"></path> <path d="M2.93399 10.514C3.07199 11.066 3.28899 11.608 3.58699 12.125C5.05149 14.6618 8.02529 15.7837 10.7193 15.01" stroke="black" stroke-width="1.5" stroke-linecap="round" stroke-linejoin="round" fill="none"></path> <path d="M13.344 13.496C13.753 13.1 14.114 12.642 14.413 12.125C15.8775 9.5882 15.3616 6.45211 13.3456 4.50531" stroke="black" stroke-width="1.5" stroke-linecap="round" stroke-linejoin="round" fill="none"></path></svg>