<svg xmlns="http://www.w3.org/2000/svg" xmlns:xlink="http://www.w3.org/1999/xlink" x="0px" y="0px" width="18px" height="18px" viewBox="0 0 18 18"><path d="M2.09399 3L6.83801 6.45C7.09701 6.638 7.25 6.939 7.25 7.259V16.268C7.25 16.677 6.78599 16.913 6.45599 16.672L2.16199 13.549C1.90299 13.361 1.75 13.06 1.75 12.74V3.75C1.75 3.198 2.198 2.75 2.75 2.75H9.25C9.802 2.75 10.25 3.198 10.25 3.75V4.5" stroke="black" stroke-width="1.5" stroke-linecap="round" stroke-linejoin="round" fill="none"></path> <path d="M10.25 11.75V12.25C10.25 12.802 9.802 13.25 9.25 13.25H7.25" stroke="black" stroke-width="1.5" stroke-linecap="round" stroke-linejoin="round" fill="none"></path> <path d="M13 5.5L10.25 8.25L13 11" stroke="#000" stroke-width="1.5" stroke-linecap="round" stroke-linejoin="round" data-color="color-2" fill="none"></path> <path d="M10.25 8.25H16.25" stroke="#000" stroke-width="1.5" stroke-linecap="round" stroke-linejoin="round" data-color="color-2" fill="none"></path></svg>