<svg xmlns="http://www.w3.org/2000/svg" xmlns:xlink="http://www.w3.org/1999/xlink" x="0px" y="0px" width="18px" height="18px" viewBox="0 0 18 18"><circle cx="9" cy="9" r="1.75" fill="none" stroke="#000" stroke-linecap="round" stroke-linejoin="round" stroke-width="1.5" data-color="color-2"></circle><path d="M8.795,1.542l-1.969,2.807c-.116,.166,.002,.394,.205,.394h3.938c.202,0,.321-.228,.205-.394l-1.969-2.807c-.1-.142-.31-.142-.409,0Z" fill="none" stroke="#000" stroke-linecap="round" stroke-linejoin="round" stroke-width="1.5"></path><path d="M16.458,8.795l-2.807-1.969c-.166-.116-.394,.002-.394,.205v3.938c0,.202,.228,.321,.394,.205l2.807-1.969c.142-.1,.142-.31,0-.409Z" fill="none" stroke="#000" stroke-linecap="round" stroke-linejoin="round" stroke-width="1.5"></path><path d="M9.205,16.458l1.969-2.807c.116-.166-.002-.394-.205-.394h-3.938c-.202,0-.321,.228-.205,.394l1.969,2.807c.1,.142,.31,.142,.409,0Z" fill="none" stroke="#000" stroke-linecap="round" stroke-linejoin="round" stroke-width="1.5"></path><path d="M1.542,9.205l2.807,1.969c.166,.116,.394-.002,.394-.205v-3.938c0-.202-.228-.321-.394-.205l-2.807,1.969c-.142,.1-.142,.31,0,.409Z" fill="none" stroke="#000" stroke-linecap="round" stroke-linejoin="round" stroke-width="1.5"></path></svg>