<svg xmlns="http://www.w3.org/2000/svg" xmlns:xlink="http://www.w3.org/1999/xlink" x="0px" y="0px" width="18px" height="18px" viewBox="0 0 18 18"><path d="M9.25 4.25C9.802 4.25 10.25 3.8033 10.25 3.25C10.25 2.6967 9.802 2.25 9.25 2.25C8.698 2.25 8.25 2.6967 8.25 3.25C8.25 3.8033 8.698 4.25 9.25 4.25Z" fill="#000" stroke="#000" stroke-width="1.5" stroke-linecap="round" stroke-linejoin="round" data-color="color-2"></path> <path d="M14.75 9.75C15.302 9.75 15.75 9.3033 15.75 8.75C15.75 8.1967 15.302 7.75 14.75 7.75C14.198 7.75 13.75 8.1967 13.75 8.75C13.75 9.3033 14.198 9.75 14.75 9.75Z" fill="#000" stroke="#000" stroke-width="1.5" stroke-linecap="round" stroke-linejoin="round" data-color="color-2"></path> <path d="M8.25 9.75L15.75 2.25" stroke="#000" stroke-width="1.5" stroke-linecap="round" stroke-linejoin="round" data-color="color-2" fill="none"></path> <path d="M8.25 12.75L5.25 15.75L2.25 12.75" stroke="black" stroke-width="1.5" stroke-linecap="round" stroke-linejoin="round" fill="none"></path> <path d="M5.25 15.75V2.25" stroke="black" stroke-width="1.5" stroke-linecap="round" stroke-linejoin="round" fill="none"></path></svg>