<svg xmlns="http://www.w3.org/2000/svg" xmlns:xlink="http://www.w3.org/1999/xlink" x="0px" y="0px" width="18px" height="18px" viewBox="0 0 18 18"><path d="M11.604,2.75h3.396c.138,0,.25,.112,.25,.25v3.396c0,.223-.269,.334-.427,.177l-3.396-3.396c-.157-.157-.046-.427,.177-.427Z" fill="none" stroke="#000" stroke-linecap="round" stroke-linejoin="round" stroke-width="1.5" data-color="color-2"></path><path d="M6.396,15.25H3c-.138,0-.25-.112-.25-.25v-3.396c0-.223,.269-.334,.427-.177l3.396,3.396c.157,.157,.046,.427-.177,.427Z" fill="none" stroke="#000" stroke-linecap="round" stroke-linejoin="round" stroke-width="1.5" data-color="color-2"></path><path d="M2.75,6.396V3c0-.138,.112-.25,.25-.25h3.396c.223,0,.334,.269,.177,.427l-3.396,3.396c-.157,.157-.427,.046-.427-.177Z" fill="none" stroke="#000" stroke-linecap="round" stroke-linejoin="round" stroke-width="1.5"></path><path d="M15.25,11.604v3.396c0,.138-.112,.25-.25,.25h-3.396c-.223,0-.334-.269-.177-.427l3.396-3.396c.157-.157,.427-.046,.427,.177Z" fill="none" stroke="#000" stroke-linecap="round" stroke-linejoin="round" stroke-width="1.5"></path></svg>