<svg xmlns="http://www.w3.org/2000/svg" xmlns:xlink="http://www.w3.org/1999/xlink" x="0px" y="0px" width="18px" height="18px" viewBox="0 0 18 18"><path d="M10.75,14.896v-3.896c0-.138,.112-.25,.25-.25h3.896c.223,0,.334,.269,.177,.427l-3.896,3.896c-.157,.157-.427,.046-.427-.177Z" fill="none" stroke="#000" stroke-linecap="round" stroke-linejoin="round" stroke-width="1.5" data-color="color-2"></path><line x1="13.125" y1="13.125" x2="15.25" y2="15.25" fill="none" stroke="#000" stroke-linecap="round" stroke-linejoin="round" stroke-width="1.5" data-color="color-2"></line><path d="M3.104,7.25h3.896c.138,0,.25-.112,.25-.25V3.104c0-.223-.269-.334-.427-.177l-3.896,3.896c-.157,.157-.046,.427,.177,.427Z" fill="none" stroke="#000" stroke-linecap="round" stroke-linejoin="round" stroke-width="1.5"></path><line x1="4.875" y1="4.875" x2="2.75" y2="2.75" fill="none" stroke="#000" stroke-linecap="round" stroke-linejoin="round" stroke-width="1.5"></line></svg>