<svg xmlns="http://www.w3.org/2000/svg" xmlns:xlink="http://www.w3.org/1999/xlink" x="0px" y="0px" width="18px" height="18px" viewBox="0 0 18 18"><path d="M16.25 9C16.25 13.0041 13.0041 16.25 9 16.25C4.99594 16.25 1.75 13.0041 1.75 9C1.75 6.9782 2.57759 5.1497 3.91249 3.83476L9 9V1.75C13.0041 1.75 16.25 4.99594 16.25 9Z" fill="#000" fill-opacity="0.3" data-color="color-2" data-stroke="none"></path> <path d="M2.02899 7C1.84699 7.635 1.75 8.306 1.75 9C1.75 13.004 4.996 16.25 9 16.25C13.004 16.25 16.25 13.004 16.25 9C16.25 4.996 13.004 1.75 9 1.75V4.25" stroke="black" stroke-width="1.5" stroke-linecap="round" stroke-linejoin="round" fill="none"></path> <path d="M9 10.25C9.69 10.25 10.25 9.69 10.25 9C10.25 8.31 9.69 7.75 9 7.75C8.31 7.75 7.75 8.31 7.75 9C7.75 9.69 8.31 10.25 9 10.25Z" fill="black" stroke="black" stroke-width="1.5" stroke-linecap="round" stroke-linejoin="round"></path> <path d="M8.293 8.293L3.883 3.883" stroke="black" stroke-width="1.5" stroke-linecap="round" stroke-linejoin="round" fill="none"></path></svg>