<svg xmlns="http://www.w3.org/2000/svg" xmlns:xlink="http://www.w3.org/1999/xlink" x="0px" y="0px" width="18px" height="18px" viewBox="0 0 18 18"><path d="M10.75 16.25H14.25C15.3546 16.25 16.25 15.3546 16.25 14.25V8.75C16.25 7.64543 15.3546 6.75 14.25 6.75H10.75C9.64543 6.75 8.75 7.64543 8.75 8.75V14.25C8.75 15.3546 9.64543 16.25 10.75 16.25Z" fill="#000" fill-opacity="0.3" data-color="color-2" data-stroke="none"></path> <path d="M5.25 11.25H3.75C2.645 11.25 1.75 10.355 1.75 9.25V3.75C1.75 2.645 2.645 1.75 3.75 1.75H7.25C8.355 1.75 9.25 2.645 9.25 3.75V4.25" stroke="black" stroke-width="1.5" stroke-linecap="round" stroke-linejoin="round" fill="none"></path> <path d="M8.75 13.75H7.25C6.145 13.75 5.25 12.855 5.25 11.75V6.25C5.25 5.145 6.145 4.25 7.25 4.25H10.75C11.855 4.25 12.75 5.145 12.75 6.25V6.75" stroke="black" stroke-width="1.5" stroke-linecap="round" stroke-linejoin="round" fill="none"></path> <path d="M10.75 16.25H14.25C15.3546 16.25 16.25 15.3546 16.25 14.25V8.75C16.25 7.64543 15.3546 6.75 14.25 6.75H10.75C9.64543 6.75 8.75 7.64543 8.75 8.75V14.25C8.75 15.3546 9.64543 16.25 10.75 16.25Z" stroke="black" stroke-width="1.5" stroke-linecap="round" stroke-linejoin="round" fill="none"></path></svg>