<svg xmlns="http://www.w3.org/2000/svg" xmlns:xlink="http://www.w3.org/1999/xlink" x="0px" y="0px" width="18px" height="18px" viewBox="0 0 18 18"><path fill-rule="evenodd" clip-rule="evenodd" d="M9 1.74994C4.99594 1.74994 1.75 4.99588 1.75 8.99994C1.75 13.004 4.99594 16.2499 9 16.2499C13.0041 16.2499 16.25 13.004 16.25 8.99994C16.25 8.3062 16.3226 7.63529 16.1406 7.00001L13.5 6.99994C11.2458 6.8201 10.6457 3.98877 11.6816 2.45158C10.6618 1.8286 10.223 1.74994 9 1.74994Z" fill="#000" fill-opacity="0.3" data-color="color-2" data-stroke="none"></path> <path d="M9 4.75V9L12.25 11.25" stroke="black" stroke-width="1.5" stroke-linecap="round" stroke-linejoin="round" fill="none"></path> <path d="M13.75 0.75H17.25L13.75 4.75H17.25" stroke="black" stroke-width="1.5" stroke-linecap="round" stroke-linejoin="round" fill="none"></path> <path d="M11.0596 2.0515C10.4063 1.8579 9.7161 1.75 9 1.75C4.996 1.75 1.75 4.9961 1.75 9C1.75 13.0039 4.996 16.25 9 16.25C13.004 16.25 16.25 13.0039 16.25 9C16.25 8.5718 16.1971 8.1575 16.1232 7.75" stroke="black" stroke-width="1.5" stroke-linecap="round" stroke-linejoin="round" fill="none"></path></svg>