<svg xmlns="http://www.w3.org/2000/svg" xmlns:xlink="http://www.w3.org/1999/xlink" x="0px" y="0px" width="18px" height="18px" viewBox="0 0 18 18"><path d="M9,4.926s0,0,0,.001c.171-.353,.396-.677,.666-.962,1.451-1.528,3.867-1.591,5.395-.139,1.528,1.451,1.59,3.867,.139,5.395l-5.48,5.694c-.197,.205-.459,.307-.721,.307" fill="none" stroke="#000" stroke-linecap="round" stroke-linejoin="round" stroke-width="1.5" data-color="color-2"></path><path d="M9,4.926s0,0,0,.001c-.171-.353-.396-.677-.666-.962-1.451-1.528-3.867-1.591-5.395-.139-1.528,1.451-1.59,3.867-.139,5.395l5.48,5.694c.197,.205,.459,.307,.721,.307V4.926Z" fill="none" stroke="#000" stroke-linecap="round" stroke-linejoin="round" stroke-width="1.5"></path></svg>