<svg xmlns="http://www.w3.org/2000/svg" xmlns:xlink="http://www.w3.org/1999/xlink" x="0px" y="0px" width="18px" height="18px" viewBox="0 0 18 18"><rect x="10.25" y="12.75" width="6" height="3.5" rx="1" ry="1" fill="none" stroke="#000" stroke-linecap="round" stroke-linejoin="round" stroke-width="1.5" data-color="color-2"></rect><path d="m11.75,12.75v-1.5c0-.828.672-1.5,1.5-1.5h0c.828,0,1.5.672,1.5,1.5v1.5" fill="none" stroke="#000" stroke-linecap="round" stroke-linejoin="round" stroke-width="1.5" data-color="color-2"></path><path d="m15.9214,7.631c.0509-.3304.0786-.6709.0786-1.0221.008-2.1199-1.704-3.8459-3.827-3.8589-1.277.0161-2.464.6599-3.173,1.72-.71-1.061-1.896-1.7039-3.173-1.72-2.123.0129-3.834,1.739-3.827,3.8589,0,3.8755,3.1931,6.5483,5.2659,7.8765" fill="none" stroke="#000" stroke-linecap="round" stroke-linejoin="round" stroke-width="1.5"></path></svg>