<svg xmlns="http://www.w3.org/2000/svg" xmlns:xlink="http://www.w3.org/1999/xlink" x="0px" y="0px" width="24px" height="24px" viewBox="0 0 24 24"> <path d="M14.5 3L14.5 6" stroke="#000" stroke-width="2" stroke-linecap="square" data-color="color-2" fill="none"></path> <path d="M1 2L3.99994 2L5.5 17H21" stroke="black" stroke-width="2" stroke-linecap="square" fill="none"></path> <path d="M20 3L9 3L9 11.5C9 12.3284 9.67157 13 10.5 13L18.5 13C19.3284 13 20 12.3284 20 11.5L20 3Z" stroke="black" stroke-width="2" stroke-miterlimit="10" stroke-linecap="square" fill="none"></path> <path d="M20.5001 22.5L17.5001 17L17.6839 17.3308" stroke="black" stroke-width="2" stroke-linecap="square" fill="none"></path> <path d="M6 23C6.55228 23 7 22.5523 7 22C7 21.4477 6.55228 21 6 21C5.44772 21 5 21.4477 5 22C5 22.5523 5.44772 23 6 23Z" fill="black" stroke="black" stroke-width="2" stroke-linecap="round" stroke-linejoin="round"></path> </svg>