<svg xmlns="http://www.w3.org/2000/svg" xmlns:xlink="http://www.w3.org/1999/xlink" x="0px" y="0px" width="24px" height="24px" viewBox="0 0 24 24"><path d="M3.51 12H3.5L4.30232 19.2209C4.41486 20.2337 5.27099 21 6.29009 21H12" stroke="black" stroke-width="2" stroke-linecap="square" fill="none"></path> <path d="M8 13V17" stroke="black" stroke-width="2" stroke-linecap="square" stroke-linejoin="round" fill="none"></path> <path d="M12 13V17" stroke="black" stroke-width="2" stroke-linecap="square" stroke-linejoin="round" fill="none"></path> <path d="M2 8H22" stroke="black" stroke-width="2" stroke-linecap="square" stroke-linejoin="round" fill="none"></path> <path d="M8.75 1.5L5 8H6" stroke="black" stroke-width="2" stroke-linecap="square" stroke-linejoin="round" fill="none"></path> <path d="M15.25 1.5L19 8H18" stroke="black" stroke-width="2" stroke-linecap="square" stroke-linejoin="round" fill="none"></path> <path d="M19 21V22" stroke="#000" stroke-width="2" stroke-linecap="square" data-color="color-2" fill="none"></path> <path d="M19 12V13" stroke="#000" stroke-width="2" stroke-linecap="square" data-color="color-2" fill="none"></path> <path d="M21 13L18 13C16.8954 13 16 13.8954 16 15V15C16 16.1046 16.8954 17 18 17H20C21.1046 17 22 17.8954 22 19V19C22 20.1046 21.1046 21 20 21H17" stroke="#000" stroke-width="2" stroke-linecap="square" data-color="color-2" fill="none"></path></svg>