<svg xmlns="http://www.w3.org/2000/svg" xmlns:xlink="http://www.w3.org/1999/xlink" x="0px" y="0px" width="24px" height="24px" viewBox="0 0 24 24"> <path d="M3.51 12H3.5L4.30232 19.2209C4.41486 20.2337 5.27099 21 6.29009 21H11" stroke="black" stroke-width="2" stroke-linecap="square" fill="none"></path> <path d="M8 13V17" stroke="black" stroke-width="2" stroke-linecap="square" stroke-linejoin="round" fill="none"></path> <path d="M2 8H22" stroke="black" stroke-width="2" stroke-linecap="square" stroke-linejoin="round" fill="none"></path> <path d="M8.75 1.5L5 8H6" stroke="black" stroke-width="2" stroke-linecap="square" stroke-linejoin="round" fill="none"></path> <path d="M15.25 1.5L19 8H18" stroke="black" stroke-width="2" stroke-linecap="square" stroke-linejoin="round" fill="none"></path> <path d="M17.5 20C19.433 20 21 18.433 21 16.5C21 14.567 19.433 13 17.5 13C15.567 13 14 14.567 14 16.5C14 18.433 15.567 20 17.5 20Z" stroke="#000" stroke-width="2" stroke-miterlimit="10" stroke-linecap="square" data-color="color-2" fill="none"></path> <path d="M22.5 21.5L19.975 18.975" stroke="#000" stroke-width="2" stroke-miterlimit="10" stroke-linecap="square" data-color="color-2" fill="none"></path> </svg>