<svg xmlns="http://www.w3.org/2000/svg" xmlns:xlink="http://www.w3.org/1999/xlink" x="0px" y="0px" width="24px" height="24px" viewBox="0 0 24 24"> <path d="M5 21L8 18H16L19 21" stroke="#000" stroke-width="2" stroke-linecap="square" data-color="color-2" fill="none"></path> <path d="M4.5 14H7L9 18H15L17 14H19.5C20.8807 14 22 12.8807 22 11.5C22 10.1193 20.8807 9 19.5 9H4.5C3.11929 9 2 10.1193 2 11.5C2 12.8807 3.11929 14 4.5 14Z" stroke="black" stroke-width="2" stroke-linecap="square" fill="none"></path> <path d="M12 15C12.6904 15 13.25 14.4404 13.25 13.75C13.25 13.0596 12.6904 12.5 12 12.5C11.3096 12.5 10.75 13.0596 10.75 13.75C10.75 14.4404 11.3096 15 12 15Z" fill="#000" data-color="color-2" data-cap="butt" data-stroke="none"></path> <path d="M19 4V9" stroke="black" stroke-width="2" stroke-linecap="square" fill="none"></path> <path d="M5 4V9" stroke="black" stroke-width="2" stroke-linecap="square" fill="none"></path> <path d="M1 5H9" stroke="#000" stroke-width="2" stroke-linecap="square" data-color="color-2" fill="none"></path> <path d="M15 5L23 5" stroke="#000" stroke-width="2" stroke-linecap="square" data-color="color-2" fill="none"></path> </svg>