<svg xmlns="http://www.w3.org/2000/svg" xmlns:xlink="http://www.w3.org/1999/xlink" x="0px" y="0px" width="24px" height="24px" viewBox="0 0 24 24"> <path d="M9 9V4C9 2.34315 10.3431 1 12 1V1C13.6569 1 15 2.34315 15 4V9" stroke="#000" stroke-width="2" stroke-linecap="square" data-color="color-2" fill="none"></path> <path d="M19 9V6H12H5.00001V12L3.47843 19.6078C3.23091 20.8453 4.17749 22 5.43959 22H12" stroke="black" stroke-width="2" stroke-miterlimit="10" stroke-linecap="square" fill="none"></path> <path d="M19 22V23" stroke="#000" stroke-width="2" stroke-linecap="square" data-color="color-2" fill="none"></path> <path d="M19 13V14" stroke="#000" stroke-width="2" stroke-linecap="square" data-color="color-2" fill="none"></path> <path d="M21 14L18 14C16.8954 14 16 14.8954 16 16V16C16 17.1046 16.8954 18 18 18H20C21.1046 18 22 18.8954 22 20V20C22 21.1046 21.1046 22 20 22H17" stroke="#000" stroke-width="2" stroke-linecap="square" data-color="color-2" fill="none"></path> </svg>