<svg xmlns="http://www.w3.org/2000/svg" xmlns:xlink="http://www.w3.org/1999/xlink" x="0px" y="0px" width="32px" height="32px" viewBox="0 0 32 32"> <path d="M31 12H27V20H31M29.5 16H27.625" stroke="#000" stroke-width="2" stroke-linecap="square" data-color="color-2" fill="none"></path> <path d="M6 12H3C1.89543 12 1 12.8954 1 14V14C1 15.1046 1.89543 16 3 16H5C6.10457 16 7 16.8954 7 18V18C7 19.1046 6.10457 20 5 20H2" stroke="#000" stroke-width="2" stroke-linecap="square" data-color="color-2" fill="none"></path> <path d="M19.5 12L19.5 20H23.5" stroke="#000" stroke-width="2" stroke-linecap="square" data-color="color-2" fill="none"></path> <path d="M11 18H15" stroke="#000" stroke-width="2" data-color="color-2" data-cap="butt" fill="none"></path> <path d="M15.9194 20H16L13.4286 12H12.5714L10 20H10.0877" stroke="#000" stroke-width="2" stroke-linecap="square" data-color="color-2" fill="none"></path> <path d="M27.4906 24C24.9607 27.627 20.7575 30 16 30C11.2425 30 7.03926 27.627 4.50937 24" stroke="black" stroke-width="2" stroke-miterlimit="10" stroke-linecap="square" fill="none"></path> <path d="M4.5094 8C7.03929 4.37303 11.2425 2 16 2C20.7575 2 24.9608 4.37303 27.4906 8" stroke="black" stroke-width="2" stroke-miterlimit="10" stroke-linecap="square" fill="none"></path> </svg>