<svg xmlns="http://www.w3.org/2000/svg" xmlns:xlink="http://www.w3.org/1999/xlink" x="0px" y="0px" width="32px" height="32px" viewBox="0 0 32 32"> <path d="M18 16H7H7.49999" stroke="black" stroke-width="2" stroke-miterlimit="10" stroke-linecap="square" fill="none"></path> <path d="M6.00003 6H5.57104H28L26.0399 12.3415" stroke="black" stroke-width="2" stroke-miterlimit="10" stroke-linecap="square" fill="none"></path> <path d="M6.5 30C7.88071 30 9 28.8807 9 27.5C9 26.1193 7.88071 25 6.5 25C5.11929 25 4 26.1193 4 27.5C4 28.8807 5.11929 30 6.5 30Z" stroke="black" stroke-width="2" stroke-miterlimit="10" stroke-linecap="square" fill="none"></path> <path d="M2 2H3.69906C4.44553 2 5.07841 2.54889 5.18398 3.28787L7 16L4.95 18.563C4.164 19.545 4.863 21 6.121 21H18" stroke="black" stroke-width="2" stroke-miterlimit="10" stroke-linecap="square" fill="none"></path> <path d="M16 10V12" stroke="#000" stroke-width="2" stroke-miterlimit="10" stroke-linecap="square" data-color="color-2" fill="none"></path> <path d="M20 10V12" stroke="#000" stroke-width="2" stroke-miterlimit="10" stroke-linecap="square" data-color="color-2" fill="none"></path> <path d="M12 10V12" stroke="#000" stroke-width="2" stroke-miterlimit="10" stroke-linecap="square" data-color="color-2" fill="none"></path> <path d="M24 21C25.3807 21 26.5 19.8807 26.5 18.5C26.5 17.1193 25.3807 16 24 16C22.6193 16 21.5 17.1193 21.5 18.5C21.5 19.8807 22.6193 21 24 21Z" stroke="#000" stroke-width="2" stroke-miterlimit="10" stroke-linecap="square" data-color="color-2" fill="none"></path> <path d="M24 24C20.6863 24 18 26.6863 18 30H30C30 26.6863 27.3137 24 24 24Z" stroke="#000" stroke-width="2" stroke-miterlimit="10" stroke-linecap="square" data-color="color-2" fill="none"></path> </svg>