<svg xmlns="http://www.w3.org/2000/svg" xmlns:xlink="http://www.w3.org/1999/xlink" x="0px" y="0px" width="32px" height="32px" viewBox="0 0 32 32"> <path d="M15.596 16H7H7.49999" stroke="black" stroke-width="2" stroke-miterlimit="10" stroke-linecap="square" fill="none"></path> <path d="M6.5 30C7.88071 30 9 28.8807 9 27.5C9 26.1193 7.88071 25 6.5 25C5.11929 25 4 26.1193 4 27.5C4 28.8807 5.11929 30 6.5 30Z" stroke="black" stroke-width="2" stroke-miterlimit="10" stroke-linecap="square" fill="none"></path> <path d="M2 2H3.69906C4.44553 2 5.07841 2.54889 5.18398 3.28787L7 16L4.95 18.563C4.164 19.545 4.863 21 6.121 21H13" stroke="black" stroke-width="2" stroke-miterlimit="10" stroke-linecap="square" fill="none"></path> <path d="M16 10V12" stroke="#000" stroke-width="2" stroke-miterlimit="10" stroke-linecap="square" data-color="color-2" fill="none"></path> <path d="M20 10V12" stroke="#000" stroke-width="2" stroke-miterlimit="10" stroke-linecap="square" data-color="color-2" fill="none"></path> <path d="M12 10V12" stroke="#000" stroke-width="2" stroke-miterlimit="10" stroke-linecap="square" data-color="color-2" fill="none"></path> <path d="M6.00003 6H5.57104H28L25.4468 14.227" stroke="black" stroke-width="2" stroke-miterlimit="10" stroke-linecap="square" fill="none"></path> <path d="M24 30C25.5526 29.2941 31 25.3821 31 21.7962C31 19.6998 29.3116 18 27.2312 18C25.8592 18 24.8344 18.8668 24 19.8395C23.167 18.8654 22.1408 18 20.7688 18C18.687 18 17 19.6998 17 21.7962C17 25.3821 22.4474 29.2941 24 30Z" stroke="#000" stroke-width="2" stroke-miterlimit="10" stroke-linecap="square" data-color="color-2" fill="none"></path> </svg>