<svg xmlns="http://www.w3.org/2000/svg" xmlns:xlink="http://www.w3.org/1999/xlink" x="0px" y="0px" width="32px" height="32px" viewBox="0 0 32 32"> <path d="M7 8L16 1.5L25 8" stroke="#000" stroke-width="2" data-color="color-2" data-cap="butt" fill="none"></path> <path d="M2.99988 16L2.99988 8L29 8L29 16" stroke="black" stroke-width="2" stroke-miterlimit="10" stroke-linecap="square" fill="none"></path> <path d="M2 22.1429L2.04687 22.0089C2.46801 20.8057 3.60361 20 4.87844 20H5.17043C6.73316 20 8 21.2668 8 22.8296V22.8296C8 23.7434 7.55868 24.6009 6.81508 25.1321L2 28.5714V30H8" stroke="#000" stroke-width="2" stroke-linecap="square" data-color="color-2" fill="none"></path> <path d="M16 30V28V20H15.5816L10 27.6227V28H18" stroke="#000" stroke-width="2" stroke-linecap="square" data-color="color-2" fill="none"></path> <path d="M22.0133 25L22 25" stroke="black" stroke-width="2" stroke-linecap="square" fill="none"></path> <path d="M25 20H31L31 21L27 30H27.0918" stroke="#000" stroke-width="2" stroke-linecap="square" data-color="color-2" fill="none"></path> </svg>