<svg xmlns="http://www.w3.org/2000/svg" xmlns:xlink="http://www.w3.org/1999/xlink" x="0px" y="0px" width="32px" height="32px" viewBox="0 0 32 32"> <path d="M7.5 31C8.88071 31 10 29.8807 10 28.5C10 27.1193 8.88071 26 7.5 26C6.11929 26 5 27.1193 5 28.5C5 29.8807 6.11929 31 7.5 31Z" stroke="black" stroke-width="2" stroke-miterlimit="10" stroke-linecap="square" fill="none"></path> <path d="M26.5 31C27.8807 31 29 29.8807 29 28.5C29 27.1193 27.8807 26 26.5 26C25.1193 26 24 27.1193 24 28.5C24 29.8807 25.1193 31 26.5 31Z" stroke="black" stroke-width="2" stroke-miterlimit="10" stroke-linecap="square" fill="none"></path> <path d="M16 4L16 10L21 10L21 4" stroke="#000" stroke-width="2" stroke-linecap="square" data-color="color-2" fill="none"></path> <path d="M2 3.00006H6V23.0001H28" stroke="black" stroke-width="2" stroke-linecap="square" fill="none"></path> <path d="M27 4L10 4L10 17C10 18.1046 10.8954 19 12 19L25 19C26.1046 19 27 18.1046 27 17L27 4Z" stroke="black" stroke-width="2" stroke-miterlimit="10" stroke-linecap="square" fill="none"></path> </svg>