<svg xmlns="http://www.w3.org/2000/svg" xmlns:xlink="http://www.w3.org/1999/xlink" x="0px" y="0px" width="32px" height="32px" viewBox="0 0 32 32"> <path d="M7 8L16 1.5L25 8" stroke="#000" stroke-width="2" data-color="color-2" data-cap="butt" fill="none"></path> <path d="M2.99988 16L2.99988 8L29 8L29 16" stroke="black" stroke-width="2" stroke-miterlimit="10" stroke-linecap="square" fill="none"></path> <path d="M7 24C7 26.2091 5.65685 28 4 28C2.34315 28 1 26.2091 1 24C1 21.7909 2.34315 20 4 20C5.65685 20 7 21.7909 7 24Z" stroke="#000" stroke-width="2" data-color="color-2" data-cap="butt" fill="none"></path> <path d="M25 28V20H26.5556L29.4444 28H31V20" stroke="#000" stroke-width="2" stroke-linecap="square" data-color="color-2" fill="none"></path> <path d="M21.5 20H17.5V28H21.5M20 24H18.125" stroke="#000" stroke-width="2" stroke-linecap="square" data-color="color-2" fill="none"></path> <path d="M9.5 28V20H12C13.3807 20 14.5 21.1193 14.5 22.5V22.5C14.5 23.8807 13.3807 25 12 25H10.0714" stroke="#000" stroke-width="2" stroke-linecap="square" data-color="color-2" fill="none"></path> </svg>