<svg xmlns="http://www.w3.org/2000/svg" xmlns:xlink="http://www.w3.org/1999/xlink" x="0px" y="0px" width="32px" height="32px" viewBox="0 0 32 32"><path d="M8.50003 7.30768L8.00003 8L12.3333 2" stroke="black" stroke-width="2" stroke-miterlimit="10" stroke-linecap="square" fill="none"></path> <path d="M23.5703 7.40497L24.0001 8L19.6667 2" stroke="black" stroke-width="2" stroke-miterlimit="10" stroke-linecap="square" fill="none"></path> <path d="M30 8H2V13H30V8Z" stroke="black" stroke-width="2" stroke-miterlimit="10" stroke-linecap="square" fill="none"></path> <path d="M11 19V24" stroke="black" stroke-width="2" stroke-miterlimit="10" stroke-linecap="square" fill="none"></path> <path d="M4 17L4.77076 26.2491C4.90033 27.804 6.20013 29 7.7604 29H11" stroke="black" stroke-width="2" stroke-miterlimit="10" stroke-linecap="square" fill="none"></path> <path d="M15 23.1429L15.0469 23.0089C15.468 21.8057 16.6036 21 17.8784 21H18.1704C19.7332 21 21 22.2668 21 23.8296V23.8296C21 24.7434 20.5587 25.6009 19.8151 26.1321L15 29.5714V31H21" stroke="#000" stroke-width="2" stroke-linecap="square" data-color="color-2" fill="none"></path> <path d="M29 31V29V21H28.5816L23 28.6227V29H31" stroke="#000" stroke-width="2" stroke-linecap="square" data-color="color-2" fill="none"></path></svg>