<svg xmlns="http://www.w3.org/2000/svg" xmlns:xlink="http://www.w3.org/1999/xlink" x="0px" y="0px" width="48px" height="48px" viewBox="0 0 48 48"> <path d="M9 44L4.99991 44" stroke="black" stroke-width="2" stroke-miterlimit="10" stroke-linecap="square" fill="none"></path> <path d="M43 44L38.9999 44" stroke="black" stroke-width="2" stroke-miterlimit="10" stroke-linecap="square" fill="none"></path> <path d="M10 14L20.1793 10.084L19.6588 10.2842" stroke="#000" stroke-width="2" stroke-linecap="square" data-color="color-2" fill="none"></path> <path d="M5 15V19" stroke="black" stroke-width="2" stroke-miterlimit="10" stroke-linecap="square" fill="none"></path> <path d="M43 15V19" stroke="black" stroke-width="2" stroke-miterlimit="10" stroke-linecap="square" fill="none"></path> <path d="M43 19H5V43H43V19Z" stroke="black" stroke-width="2" stroke-miterlimit="10" stroke-linecap="square" fill="none"></path> <path d="M28 27V35.0001" stroke="#000" stroke-width="2" stroke-miterlimit="10" stroke-linecap="square" data-color="color-2" fill="none"></path> <path d="M36 27V35.0001" stroke="#000" stroke-width="2" stroke-miterlimit="10" stroke-linecap="square" data-color="color-2" fill="none"></path> <path d="M20 27V35.0001" stroke="#000" stroke-width="2" stroke-miterlimit="10" stroke-linecap="square" data-color="color-2" fill="none"></path> <path d="M12 27V35.0001" stroke="#000" stroke-width="2" stroke-miterlimit="10" stroke-linecap="square" data-color="color-2" fill="none"></path> <path d="M37.9999 14L27.8207 10.084L28.4999 10.3453" stroke="#000" stroke-width="2" stroke-linecap="square" data-color="color-2" fill="none"></path> <path d="M20 9.89744C20 12.1631 21.791 14 24 14C26.209 14 28 12.1631 28 9.89744C28 7.6318 26.328 6.69846 24 5V2" stroke="black" stroke-width="2" stroke-miterlimit="10" stroke-linecap="square" fill="none"></path> </svg>