<svg xmlns="http://www.w3.org/2000/svg" xmlns:xlink="http://www.w3.org/1999/xlink" x="0px" y="0px" width="48px" height="48px" viewBox="0 0 48 48"> <rect x="5" y="5" width="12" height="12" stroke="#000" stroke-width="2" data-color="color-2" data-cap="butt" fill="none"></rect> <rect x="31" y="5" width="12" height="12" stroke="#000" stroke-width="2" data-color="color-2" data-cap="butt" fill="none"></rect> <rect x="5" y="31" width="12" height="12" stroke="#000" stroke-width="2" data-color="color-2" data-cap="butt" fill="none"></rect> <rect x="10" y="10" width="2" height="2" stroke="black" stroke-width="2" data-cap="butt" fill="none"></rect> <rect x="10" y="36" width="2" height="2" stroke="black" stroke-width="2" data-cap="butt" fill="none"></rect> <rect x="7" y="23" width="2" height="2" stroke="black" stroke-width="2" data-cap="butt" fill="none"></rect> <rect x="36" y="10" width="2" height="2" stroke="black" stroke-width="2" data-cap="butt" fill="none"></rect> <path d="M27 22H29V28H27V22Z" stroke="black" stroke-width="2" data-cap="butt" fill="none"></path> <path d="M22 30V43H24V41H26V43H28H32M28 39H24M24 33H29" stroke="black" stroke-width="2" stroke-linecap="square" fill="none"></path> <path d="M43 22H41V26H36V24H34V28H41V33H34V35V38H36V35H41V43H37" stroke="black" stroke-width="2" stroke-linecap="square" fill="none"></path> <path d="M26 17V13H24V17H22V5H26" stroke="black" stroke-width="2" stroke-linecap="square" fill="none"></path> <path d="M27 22H22V25" stroke="black" stroke-width="2" stroke-linecap="square" fill="none"></path> </svg>