<svg xmlns="http://www.w3.org/2000/svg" xmlns:xlink="http://www.w3.org/1999/xlink" x="0px" y="0px" width="18px" height="18px" viewBox="0 0 18 18"><path d="M9 7.25C10.5188 7.25 11.75 6.01878 11.75 4.5C11.75 2.98122 10.5188 1.75 9 1.75C7.48122 1.75 6.25 2.98122 6.25 4.5C6.25 6.01878 7.48122 7.25 9 7.25Z" fill="#000" fill-opacity="0.3" data-color="color-2" data-stroke="none"></path> <path d="M9 7.25C10.5188 7.25 11.75 6.01878 11.75 4.5C11.75 2.98122 10.5188 1.75 9 1.75C7.48122 1.75 6.25 2.98122 6.25 4.5C6.25 6.01878 7.48122 7.25 9 7.25Z" stroke="black" stroke-width="1.5" stroke-linecap="round" stroke-linejoin="round" fill="none"></path> <path d="M13.75 13.25H16.25V10.75" stroke="black" stroke-width="1.5" stroke-linecap="round" stroke-linejoin="round" fill="none"></path> <path d="M15.5 15.887C14.999 16.418 14.288 16.75 13.5 16.75C11.981 16.75 10.75 15.519 10.75 14C10.75 12.481 11.981 11.25 13.5 11.25C14.666 11.25 15.662 11.976 16.063 13" stroke="black" stroke-width="1.5" stroke-linecap="round" stroke-linejoin="round" fill="none"></path> <path d="M9.599 9.7883C9.4021 9.7658 9.2031 9.75049 9 9.75049C6.449 9.75049 4.26098 11.2805 3.29098 13.4705C2.92598 14.2955 3.378 15.2444 4.238 15.5157C5.2819 15.8446 6.6338 16.127 8.1918 16.2076" stroke="black" stroke-width="1.5" stroke-linecap="round" stroke-linejoin="round" fill="none"></path></svg>