<svg xmlns="http://www.w3.org/2000/svg" xmlns:xlink="http://www.w3.org/1999/xlink" x="0px" y="0px" width="18px" height="18px" viewBox="0 0 18 18"><path d="M9 7.25C10.5188 7.25 11.75 6.01878 11.75 4.5C11.75 2.98122 10.5188 1.75 9 1.75C7.48122 1.75 6.25 2.98122 6.25 4.5C6.25 6.01878 7.48122 7.25 9 7.25Z" fill="#000" fill-opacity="0.3" data-color="color-2" data-stroke="none"></path> <path d="M9 7.25C10.5188 7.25 11.75 6.01878 11.75 4.5C11.75 2.98122 10.5188 1.75 9 1.75C7.48122 1.75 6.25 2.98122 6.25 4.5C6.25 6.01878 7.48122 7.25 9 7.25Z" stroke="black" stroke-width="1.5" stroke-linecap="round" stroke-linejoin="round" fill="none"></path> <path d="M14.25 10.25L16.75 12.75L14.25 15.25" stroke="black" stroke-width="1.5" stroke-linecap="round" stroke-linejoin="round" fill="none"></path> <path d="M16.75 12.75H11.75" stroke="black" stroke-width="1.5" stroke-linecap="round" stroke-linejoin="round" fill="none"></path> <path d="M10.6392 9.98441C10.1166 9.83821 9.5697 9.75049 9 9.75049C6.449 9.75049 4.26098 11.2805 3.29098 13.4705C2.92598 14.2955 3.378 15.2444 4.238 15.5157C5.463 15.9014 7.084 16.2496 9 16.2496C9.8621 16.2496 10.6414 16.1646 11.373 16.0506" stroke="black" stroke-width="1.5" stroke-linecap="round" stroke-linejoin="round" fill="none"></path></svg>