<svg xmlns="http://www.w3.org/2000/svg" xmlns:xlink="http://www.w3.org/1999/xlink" x="0px" y="0px" width="18px" height="18px" viewBox="0 0 18 18"><path d="M15.75 12.75H11.75C11.1977 12.75 10.75 13.1977 10.75 13.75V15.25C10.75 15.8023 11.1977 16.25 11.75 16.25H15.75C16.3023 16.25 16.75 15.8023 16.75 15.25V13.75C16.75 13.1977 16.3023 12.75 15.75 12.75Z" fill="#000" fill-opacity="0.3" data-color="color-2" data-stroke="none"></path> <path d="M9 7.25C10.5188 7.25 11.75 6.01878 11.75 4.5C11.75 2.98122 10.5188 1.75 9 1.75C7.48122 1.75 6.25 2.98122 6.25 4.5C6.25 6.01878 7.48122 7.25 9 7.25Z" fill="#000" fill-opacity="0.3" data-color="color-2" data-stroke="none"></path> <path d="M9 7.25C10.5188 7.25 11.75 6.01878 11.75 4.5C11.75 2.98122 10.5188 1.75 9 1.75C7.48122 1.75 6.25 2.98122 6.25 4.5C6.25 6.01878 7.48122 7.25 9 7.25Z" stroke="black" stroke-width="1.5" stroke-linecap="round" stroke-linejoin="round" fill="none"></path> <path d="M15.75 12.75H11.75C11.1977 12.75 10.75 13.1977 10.75 13.75V15.25C10.75 15.8023 11.1977 16.25 11.75 16.25H15.75C16.3023 16.25 16.75 15.8023 16.75 15.25V13.75C16.75 13.1977 16.3023 12.75 15.75 12.75Z" stroke="black" stroke-width="1.5" stroke-linecap="round" stroke-linejoin="round" fill="none"></path> <path d="M12.25 12.75V11.25C12.25 10.422 12.922 9.75 13.75 9.75C14.578 9.75 15.25 10.422 15.25 11.25V12.75" stroke="black" stroke-width="1.5" stroke-linecap="round" stroke-linejoin="round" fill="none"></path> <path d="M9.51129 9.79659C9.34099 9.78069 9.17499 9.75049 8.99999 9.75049C6.44899 9.75049 4.26099 11.2805 3.29099 13.4705C2.92599 14.2955 3.37799 15.2444 4.23799 15.5154C5.20879 15.8218 6.45119 16.083 7.87119 16.1839" stroke="black" stroke-width="1.5" stroke-linecap="round" stroke-linejoin="round" fill="none"></path></svg>