<svg xmlns="http://www.w3.org/2000/svg" xmlns:xlink="http://www.w3.org/1999/xlink" x="0px" y="0px" width="32px" height="32px" viewBox="0 0 32 32"> <path d="M14 10V16H12" stroke="#000" stroke-width="2" stroke-linecap="square" data-color="color-2" fill="none"></path> <path d="M24 5L5 5C3.34314 5 2 6.34315 2 8L2 26C2 27.6569 3.34314 29 5 29L16.75 29" stroke="black" stroke-width="2" stroke-miterlimit="10" stroke-linecap="square" fill="none"></path> <path d="M24 2.00001L27 2.00001C28.6569 2.00001 30 3.34315 30 5.00001L30 26.0001" stroke="black" stroke-width="2" stroke-miterlimit="10" data-cap="butt" fill="none"></path> <path d="M24 2L24 23L27 23C28.6569 23 30 24.3431 30 26V26C30 27.6569 28.6569 29 27 29L17 29" stroke="black" stroke-width="2" stroke-miterlimit="10" stroke-linecap="square" fill="none"></path> <path d="M7 24V10H19V24H12V21" stroke="#000" stroke-width="2" stroke-linecap="square" data-color="color-2" fill="none"></path> </svg>