<svg xmlns="http://www.w3.org/2000/svg" xmlns:xlink="http://www.w3.org/1999/xlink" x="0px" y="0px" width="48px" height="48px" viewBox="0 0 48 48"> <path d="M14 15H19" stroke="#000" stroke-width="2" data-color="color-2" data-cap="butt" fill="none"></path> <path d="M29 15H34" stroke="#000" stroke-width="2" data-color="color-2" data-cap="butt" fill="none"></path> <path d="M24 15H24.01" stroke="#000" stroke-width="2" stroke-linecap="square" data-color="color-2" fill="none"></path> <path d="M9 15H9.01" stroke="#000" stroke-width="2" stroke-linecap="square" data-color="color-2" fill="none"></path> <path d="M9 35H9.01" stroke="#000" stroke-width="2" stroke-linecap="square" data-color="color-2" fill="none"></path> <path d="M24 35H24.01" stroke="#000" stroke-width="2" stroke-linecap="square" data-color="color-2" fill="none"></path> <path d="M39 35H39.01" stroke="#000" stroke-width="2" stroke-linecap="square" data-color="color-2" fill="none"></path> <path d="M39 15H39.01" stroke="#000" stroke-width="2" stroke-linecap="square" data-color="color-2" fill="none"></path> <path d="M14 35H19" stroke="#000" stroke-width="2" data-color="color-2" data-cap="butt" fill="none"></path> <path d="M29 35H34" stroke="#000" stroke-width="2" data-color="color-2" data-cap="butt" fill="none"></path> <path d="M29 43L29 8.35277L24 4L19 8.35277L19 43H29Z" stroke="black" stroke-width="2" stroke-linecap="square" fill="none"></path> <path d="M44 43L44 8.35277L39 4L34 8.35277L34 43H44Z" stroke="black" stroke-width="2" stroke-linecap="square" fill="none"></path> <path d="M14 43L14 8.35277L9 4L4 8.35277L4 43H14Z" stroke="black" stroke-width="2" stroke-linecap="square" fill="none"></path> </svg>