<svg xmlns="http://www.w3.org/2000/svg" xmlns:xlink="http://www.w3.org/1999/xlink" x="0px" y="0px" width="48px" height="48px" viewBox="0 0 48 48"> <path d="M3 34V38C3 39.6569 4.34315 41 6 41H42C43.6569 41 45 39.6569 45 38V34H32V35C32 36.1046 31.1046 37 30 37H18C16.8954 37 16 36.1046 16 35V34H3Z" stroke="black" stroke-width="2" stroke-miterlimit="10" stroke-linecap="square" fill="none"></path> <path d="M5 29V12C5 9.23858 7.23858 7 10 7L25 7" stroke="black" stroke-width="2" stroke-miterlimit="10" stroke-linecap="square" fill="none"></path> <path d="M32 26V19H38V26" stroke="#000" stroke-width="2" stroke-linecap="square" data-color="color-2" fill="none"></path> <path d="M45.1111 14.2727L35 6L24.8889 14.2727" stroke="#000" stroke-width="2" stroke-miterlimit="10" stroke-linecap="square" data-color="color-2" fill="none"></path> <path d="M27 18V24C27 25.1046 27.8954 26 29 26H41C42.1046 26 43 25.1046 43 24V18" stroke="#000" stroke-width="2" stroke-miterlimit="10" stroke-linecap="square" data-color="color-2" fill="none"></path> </svg>