<svg xmlns="http://www.w3.org/2000/svg" xmlns:xlink="http://www.w3.org/1999/xlink" x="0px" y="0px" width="20px" height="20px" viewBox="0 0 20 20"><path d="m10,6H3v-1.5c0-.828.672-1.5,1.5-1.5h2.965c.334,0,.647.167.832.445l1.703,2.555Z" stroke="#000" stroke-linecap="round" stroke-linejoin="round" stroke-width="2" fill="#000"></path><path d="m14,11h2c.552,0,1,.448,1,1v5l-2-3-2,3v-5c0-.552.448-1,1-1Z" fill="#000" stroke="#000" stroke-linecap="round" stroke-linejoin="round" stroke-width="2" data-color="color-2"></path><path d="m17,7.621v-.121c0-.828-.672-1.5-1.5-1.5H3v8c0,1.657,1.343,3,3,3h3.5" fill="none" stroke="#000" stroke-linecap="round" stroke-linejoin="round" stroke-width="2"></path></svg>