<svg xmlns="http://www.w3.org/2000/svg" xmlns:xlink="http://www.w3.org/1999/xlink" x="0px" y="0px" width="20px" height="20px" viewBox="0 0 20 20"><path d="m5,17h0c-1.105,0-2-.895-2-2v-4h1" fill="none" stroke="#000" stroke-linecap="round" stroke-linejoin="round" stroke-width="2" data-color="color-2"></path><path d="m15,2h-6c-1.654,0-3,1.346-3,3v10c0,.551-.449,1-1,1s-1,.448-1,1,.448,1,1,1h10c1.654,0,3-1.346,3-3V5c0-1.654-1.346-3-3-3Zm-1,11h-4c-.552,0-1-.448-1-1s.448-1,1-1h4c.552,0,1,.448,1,1s-.448,1-1,1Zm1-5c0,.552-.448,1-1,1h-4c-.552,0-1-.448-1-1v-2c0-.552.448-1,1-1h4c.552,0,1,.448,1,1v2Z" stroke-width="0" fill="#000"></path></svg>