<svg xmlns="http://www.w3.org/2000/svg" xmlns:xlink="http://www.w3.org/1999/xlink" x="0px" y="0px" width="20px" height="20px" viewBox="0 0 20 20"><path d="m10,6H3v-1.5c0-.828.672-1.5,1.5-1.5h2.965c.334,0,.647.167.832.445l1.703,2.555Z" stroke="#000" stroke-linecap="round" stroke-linejoin="round" stroke-width="2" fill="#000"></path><polygon points="14 11.82 14.708 14 17 14 15.146 15.347 15.854 17.527 14 16.18 12.146 17.527 12.854 15.347 11 14 13.292 14 14 11.82" fill="#000" stroke="#000" stroke-linecap="round" stroke-linejoin="round" stroke-width="2" data-color="color-2"></polygon><path d="m17,10.02v-2.52c0-.828-.672-1.5-1.5-1.5H3v8c0,1.657,1.343,3,3,3h2.695" fill="none" stroke="#000" stroke-linecap="round" stroke-linejoin="round" stroke-width="2"></path></svg>