<svg xmlns="http://www.w3.org/2000/svg" xmlns:xlink="http://www.w3.org/1999/xlink" x="0px" y="0px" width="20px" height="20px" viewBox="0 0 20 20"><path d="m4,7h3c.552,0,1-.448,1-1v-3" stroke="#000" stroke-linejoin="round" stroke-width="2" fill="#000"></path><path d="m16,7.832v-1.832c0-1.657-1.343-3-3-3h-4.586c-.265,0-.52.105-.707.293l-3.414,3.414c-.188.188-.293.442-.293.707v6.586c0,1.657,1.343,3,3,3h2.232" fill="none" stroke="#000" stroke-linecap="round" stroke-linejoin="round" stroke-width="2"></path><polygon points="13.75 10.5 14.5 13 17 13.75 14.5 14.5 13.75 17 13 14.5 10.5 13.75 13 13 13.75 10.5" fill="#000" stroke="#000" stroke-linecap="round" stroke-linejoin="round" stroke-width="2" data-color="color-2"></polygon></svg>