<svg xmlns="http://www.w3.org/2000/svg" xmlns:xlink="http://www.w3.org/1999/xlink" x="0px" y="0px" width="20px" height="20px" viewBox="0 0 20 20"><path d="m10,6H3v-1.5c0-.828.672-1.5,1.5-1.5h2.965c.334,0,.647.167.832.445l1.703,2.555Z" stroke="#000" stroke-linecap="round" stroke-linejoin="round" stroke-width="2" fill="#000"></path><path d="m14,14v-1.5c0-.828-.672-1.5-1.5-1.5h0c-.828,0-1.5.672-1.5,1.5v1.5c0,1.657,1.343,3,3,3h0c1.657,0,3-1.343,3-3v-1" fill="none" stroke="#000" stroke-linecap="round" stroke-linejoin="round" stroke-width="2" data-color="color-2"></path><path d="m17,9.5v-2c0-.828-.672-1.5-1.5-1.5H3v8c0,1.657,1.343,3,3,3h2.24" fill="none" stroke="#000" stroke-linecap="round" stroke-linejoin="round" stroke-width="2"></path></svg>