<svg xmlns="http://www.w3.org/2000/svg" xmlns:xlink="http://www.w3.org/1999/xlink" x="0px" y="0px" width="20px" height="20px" viewBox="0 0 20 20"><path d="m13,2h-6c-2.206,0-4,1.794-4,4v8c0,2.206,1.794,4,4,4h6c2.206,0,4-1.794,4-4V6c0-2.206-1.794-4-4-4Zm-4,9h-2c-.553,0-1-.448-1-1s.447-1,1-1h2c.553,0,1,.448,1,1s-.447,1-1,1Zm3.5,4c-.828,0-1.5-.672-1.5-1.5s.672-1.5,1.5-1.5,1.5.672,1.5,1.5-.672,1.5-1.5,1.5Zm.5-8h-6c-.553,0-1-.448-1-1s.447-1,1-1h6c.553,0,1,.448,1,1s-.447,1-1,1Z" stroke-width="0" fill="#000"></path></svg>