<svg xmlns="http://www.w3.org/2000/svg" xmlns:xlink="http://www.w3.org/1999/xlink" x="0px" y="0px" width="20px" height="20px" viewBox="0 0 20 20"><path d="m17.707,6.293l-4-4c-.188-.188-.441-.293-.707-.293h-1v4c0,.552-.447,1-1,1h-5c-.553,0-1-.448-1-1v-3.858c-1.721.447-3,2-3,3.858v8c0,2.206,1.794,4,4,4h8c2.206,0,4-1.794,4-4v-7c0-.265-.105-.52-.293-.707Zm-2.707,7.707c0,.552-.447,1-1,1H6c-.553,0-1-.448-1-1v-2c0-.552.447-1,1-1h8c.553,0,1,.448,1,1v2Z" stroke-width="0" fill="#000"></path><rect x="8" y="2" width="2" height="3" fill="#000" stroke-width="0" data-color="color-2"></rect></svg>