<svg xmlns="http://www.w3.org/2000/svg" xmlns:xlink="http://www.w3.org/1999/xlink" x="0px" y="0px" width="32px" height="32px" viewBox="0 0 32 32"> <path fill-rule="evenodd" clip-rule="evenodd" d="M4.50507 17.2562C4.92012 12.0741 9.26536 8 14.5667 8C20.0115 8 24.4551 12.2968 24.6593 17.6808C27.1516 18.3132 29 20.5616 29 23.25C29 26.4293 26.4152 29 23.2333 29H7.2C3.77889 29 1 26.2359 1 22.8182C1 20.3639 2.43538 18.2539 4.50507 17.2562Z" fill="black"></path> <path d="M26.3148 15.167C28.5088 13.9852 30 11.6667 30 9C30 5.13401 26.866 2 23 2C20.1415 2 17.6832 3.71335 16.5961 6.1691C21.351 6.97034 25.1701 10.5393 26.3148 15.167Z" fill="#000" data-color="color-2"></path> </svg>