<svg xmlns="http://www.w3.org/2000/svg" xmlns:xlink="http://www.w3.org/1999/xlink" x="0px" y="0px" width="48px" height="48px" viewBox="0 0 48 48"> <path fill-rule="evenodd" clip-rule="evenodd" d="M22.5 34L22.5 29L25.5 29L25.5 34L22.5 34Z" fill="#000" data-color="color-2"></path> <path fill-rule="evenodd" clip-rule="evenodd" d="M28.5 44L28.5 39L31.5 39L31.5 44L28.5 44Z" fill="#000" data-color="color-2"></path> <path fill-rule="evenodd" clip-rule="evenodd" d="M16.5 44L16.5 39L19.5 39L19.5 44L16.5 44Z" fill="#000" data-color="color-2"></path> <path fill-rule="evenodd" clip-rule="evenodd" d="M22.5 46L22.5 37L25.5 37L25.5 46L22.5 46Z" fill="#000" data-color="color-2"></path> <path fill-rule="evenodd" clip-rule="evenodd" d="M16.5 36L16.5 29L19.5 29L19.5 36L16.5 36Z" fill="#000" data-color="color-2"></path> <path fill-rule="evenodd" clip-rule="evenodd" d="M28.5 36L28.5 29L31.5 29L31.5 36L28.5 36Z" fill="#000" data-color="color-2"></path> <path d="M6.90398 21.8784C7.39853 13.5504 14.564 7 23.2667 7C32.2414 7 39.5936 13.965 39.6661 22.6655C43.8173 23.4427 47 26.9595 47 31.25C47 36.1205 42.9032 40 37.9333 40H34.5V29C34.5 27.3431 33.1569 26 31.5 26H24H16.5C14.8431 26 13.5 27.3431 13.5 29V40H10.8C5.4253 40 1 35.8048 1 30.5455C1 26.6398 3.45141 23.3242 6.90398 21.8784Z" fill="black"></path> </svg>