<svg xmlns="http://www.w3.org/2000/svg" xmlns:xlink="http://www.w3.org/1999/xlink" x="0px" y="0px" width="18px" height="18px" viewBox="0 0 18 18"><path d="M16.933 7.56699C17.249 8.91099 16.416 10.257 15.072 10.573L13.25 11.002" stroke="#000" stroke-width="1.5" stroke-linecap="round" stroke-linejoin="round" data-color="color-2" fill="none"></path> <path d="M13.25 11L4.75 13" stroke="#000" stroke-width="1.5" stroke-linecap="round" stroke-linejoin="round" data-color="color-2" fill="none"></path> <path d="M13.25 8L4.75 10" stroke="#000" stroke-width="1.5" stroke-linecap="round" stroke-linejoin="round" data-color="color-2" fill="none"></path> <path d="M13.25 5L4.75 7" stroke="#000" stroke-width="1.5" stroke-linecap="round" stroke-linejoin="round" data-color="color-2" fill="none"></path> <path d="M13.8323 13.9449L14.547 15.106C14.855 15.606 14.495 16.249 13.908 16.249H4.09205C3.50505 16.249 3.14604 15.606 3.45304 15.106L4.75004 12.999V7" stroke="black" stroke-width="1.5" stroke-linecap="round" stroke-linejoin="round" fill="none"></path> <path d="M4.16748 4.0549L3.45297 2.89401C3.14497 2.39401 3.50498 1.75101 4.09198 1.75101H13.908C14.495 1.75101 14.854 2.39401 14.547 2.89401L13.25 5.00101V11.001" stroke="black" stroke-width="1.5" stroke-linecap="round" stroke-linejoin="round" fill="none"></path></svg>