<svg xmlns="http://www.w3.org/2000/svg" xmlns:xlink="http://www.w3.org/1999/xlink" x="0px" y="0px" width="18px" height="18px" viewBox="0 0 18 18"><path d="M16.2445 9.0813C16.2449 9.0537 16.25 9.0276 16.25 9C16.25 4.9961 13.004 1.75 9 1.75C4.996 1.75 1.75 4.9961 1.75 9C1.75 10.3188 2.108 11.552 2.723 12.6169C3.153 13.4228 2.67 15.3291 1.75 16.25C3 16.3179 4.647 15.7529 5.383 15.2769C5.872 15.5591 6.647 15.9331 7.662 16.125C8.095 16.207 8.543 16.25 9 16.25C9.0404 16.25 9.0797 16.2449 9.1199 16.2439" stroke="black" stroke-width="1.5" stroke-linecap="round" stroke-linejoin="round" fill="none"></path> <path d="M14 11.068L15.004 13.103L17.25 13.429L15.625 15.013L16.009 17.25L14 16.194L11.991 17.25L12.375 15.013L10.75 13.429L12.996 13.103L14 11.068Z" stroke="#000" stroke-width="1.5" stroke-linecap="round" stroke-linejoin="round" data-color="color-2" fill="none"></path></svg>