<svg xmlns="http://www.w3.org/2000/svg" xmlns:xlink="http://www.w3.org/1999/xlink" x="0px" y="0px" width="18px" height="18px" viewBox="0 0 18 18"><path d="M14.75 12.25L17.25 14.75L14.75 17.25" stroke="#000" stroke-width="1.5" stroke-linecap="round" stroke-linejoin="round" data-color="color-2" fill="none"></path> <path d="M17.25 14.75H12.25" stroke="#000" stroke-width="1.5" stroke-linecap="round" stroke-linejoin="round" data-color="color-2" fill="none"></path> <path d="M16.2151 9.6467C16.2363 9.4338 16.25 9.219 16.25 9C16.25 4.9961 13.004 1.75 9 1.75C4.996 1.75 1.75 4.9961 1.75 9C1.75 10.3188 2.10801 11.552 2.72301 12.6169C3.15301 13.4228 2.67 15.3291 1.75 16.25C3 16.3179 4.647 15.7529 5.383 15.2769C5.872 15.5591 6.647 15.9331 7.662 16.125C8.095 16.207 8.543 16.25 9 16.25C9.2167 16.25 9.4299 16.2363 9.6412 16.2156" stroke="black" stroke-width="1.5" stroke-linecap="round" stroke-linejoin="round" fill="none"></path></svg>