<svg xmlns="http://www.w3.org/2000/svg" xmlns:xlink="http://www.w3.org/1999/xlink" x="0px" y="0px" width="18px" height="18px" viewBox="0 0 18 18"><path d="M12.75 17.25V13.25" stroke="#000" stroke-width="1.5" stroke-linecap="round" stroke-linejoin="round" data-color="color-2" fill="none"></path> <path d="M16.75 10.75H13.25C12.9739 10.75 12.75 10.974 12.75 11.25V13.25C12.75 13.526 12.9739 13.75 13.25 13.75H16.75C17.0261 13.75 17.25 13.526 17.25 13.25V11.25C17.25 10.974 17.0261 10.75 16.75 10.75Z" stroke="#000" stroke-width="1.5" stroke-linecap="round" stroke-linejoin="round" data-color="color-2" fill="none"></path> <path d="M16.1357 7.75C15.543 4.3423 12.5773 1.75 9 1.75C4.996 1.75 1.75 4.9961 1.75 9C1.75 10.3188 2.108 11.552 2.723 12.6169C3.153 13.4228 2.67 15.3291 1.75 16.25C3 16.3179 4.647 15.7529 5.383 15.2769C5.872 15.5591 6.647 15.9331 7.662 16.125C8.095 16.207 8.543 16.25 9 16.25C9.2542 16.25 9.5032 16.2307 9.75 16.2031" stroke="black" stroke-width="1.5" stroke-linecap="round" stroke-linejoin="round" fill="none"></path></svg>