<svg xmlns="http://www.w3.org/2000/svg" xmlns:xlink="http://www.w3.org/1999/xlink" x="0px" y="0px" width="32px" height="32px" viewBox="0 0 32 32"> <path d="M4.26707 16H5.50317C7.56537 16 9.0127 18.0326 8.33813 19.9813L5.21629 29" stroke="black" stroke-width="2" data-cap="butt" fill="none"></path> <path d="M15.5 10H28H27.5" stroke="black" stroke-width="2" stroke-linecap="square" fill="none"></path> <path d="M13.3465 19H17.3929C17.8476 19 18.2781 18.8459 18.623 18.577" stroke="black" stroke-width="2" data-cap="butt" fill="none"></path> <path d="M14.6667 15L10 29H4L1.64956 25.8661C1.2443 25.3257 1.13915 24.6173 1.36997 23.9826L4.66673 14.9165C4.87707 14.3381 4.80935 13.695 4.48314 13.173L2.97977 10.7676C2.67482 10.2797 2.59478 9.68407 2.76012 9.13294L4 5H5" stroke="black" stroke-width="2" data-cap="butt" fill="none"></path> <path d="M29 29L3 2.99994" stroke="#000" stroke-width="2" stroke-linecap="square" data-color="color-2" fill="none"></path> <path d="M19.5 14H24.7639C25.5215 14 26.214 13.572 26.5528 12.8944L28 10H30V5H10.5" stroke="black" stroke-width="2" stroke-linecap="square" fill="none"></path> </svg>