<svg xmlns="http://www.w3.org/2000/svg" xmlns:xlink="http://www.w3.org/1999/xlink" x="0px" y="0px" width="32px" height="32px" viewBox="0 0 32 32"> <path d="M20.9737 20.0043C20.9737 27 31.655 27.2176 29.7789 15.9165C28.7318 9.609 22 9.50004 20 14.5C18.0878 19.2805 15.4575 18.1263 11.6149 17.1008L11.6365 17.1039" stroke="black" stroke-width="2" stroke-linecap="square" fill="none"></path> <path d="M10.4512 16.9928C10.3265 16.9962 10.2049 16.9925 10.0875 16.9813C10.2043 16.9813 10.3258 16.9851 10.4512 16.9928Z" fill="black" data-cap="butt" data-stroke="none"></path> <path d="M5.5 11C8.48755 7.68719 13.6997 5.99997 15.4797 10.6468C16.8278 14.166 12.5589 17.216 10.0875 16.9813C12.7836 16.9813 18 19 16.8282 24.7235C14.5 32.5 2 28.5 2 20" stroke="black" stroke-width="2" stroke-linecap="square" fill="none"></path> <path d="M15 1.49998C15.7014 4.39283 19.2656 9.32499 27.9104 5.91084" stroke="#000" stroke-width="2" stroke-linecap="square" data-color="color-2" fill="none"></path> <circle cx="21.5991" cy="2" r="2" fill="black" data-cap="butt" data-stroke="none"></circle> </svg>