<svg xmlns="http://www.w3.org/2000/svg" xmlns:xlink="http://www.w3.org/1999/xlink" x="0px" y="0px" width="48px" height="48px" viewBox="0 0 48 48"> <path d="M42 14L22.5 14.0001L26.8197 6.98769" stroke="black" stroke-width="2" data-cap="butt" fill="none"></path> <path d="M20 28H24.3624C25.3568 28 26.2917 27.6318 27.0083 27" stroke="black" stroke-width="2" data-cap="butt" fill="none"></path> <path d="M14 19H19H18.5" stroke="black" stroke-width="2" stroke-linecap="square" fill="none"></path> <path d="M7 24H9.77156C11.8381 24 13.2858 26.0405 12.6031 27.9911L7.35 43" stroke="black" stroke-width="2" data-cap="butt" fill="none"></path> <path d="M7 7L4.89929 12.6019C4.33465 14.1076 4.52867 15.793 5.42068 17.131L6.60857 18.9129C7.48419 20.2263 7.68815 21.8761 7.15877 23.3632L3.14559 34.6368C2.61621 36.1239 2.82017 37.7737 3.69578 39.0871L6.30435 43H15.3044L21.778 21.7293" stroke="black" stroke-width="2" data-cap="butt" fill="none"></path> <path d="M44.0001 44L4.00006 4" stroke="#000" stroke-width="2" stroke-linecap="square" data-color="color-2" fill="none"></path> <path d="M14 7H45V14H42L40.2987 17.9696C39.5109 19.808 37.7032 21 35.703 21H28" stroke="black" stroke-width="2" stroke-linecap="square" fill="none"></path> </svg>