<svg xmlns="http://www.w3.org/2000/svg" xmlns:xlink="http://www.w3.org/1999/xlink" x="0px" y="0px" width="20px" height="20px" viewBox="0 0 20 20"><line x1="17.5" y1="4.5" x2="15.5" y2="2.5" fill="none" stroke="#000" stroke-linecap="round" stroke-linejoin="round" stroke-width="2" data-color="color-2"></line><line x1="2.5" y1="4.5" x2="4.5" y2="2.5" fill="none" stroke="#000" stroke-linecap="round" stroke-linejoin="round" stroke-width="2" data-color="color-2"></line><path d="m10,3c-3.8599,0-7,3.1401-7,7s3.1401,7,7,7,7-3.1401,7-7-3.1401-7-7-7Zm.707,7.707c-.1953.1953-.4512.293-.707.293s-.5117-.0977-.707-.293l-2.5-2.5c-.3906-.3906-.3906-1.0234,0-1.4141s1.0234-.3906,1.4141,0l2.5,2.5c.3906.3906.3906,1.0234,0,1.4141Z" stroke-width="0" fill="#000"></path></svg>