<svg xmlns="http://www.w3.org/2000/svg" xmlns:xlink="http://www.w3.org/1999/xlink" x="0px" y="0px" width="20px" height="20px" viewBox="0 0 20 20"><path d="m17,8v-1c0-1.6569-1.3431-3-3-3H6c-1.6569,0-3,1.3431-3,3v1h14Z" stroke-width="0" fill="#000"></path><line x1="6" y1="4" x2="6" y2="2" fill="none" stroke="#000" stroke-linecap="round" stroke-linejoin="round" stroke-width="2"></line><line x1="14" y1="4" x2="14" y2="2" fill="none" stroke="#000" stroke-linecap="round" stroke-linejoin="round" stroke-width="2"></line><circle cx="10" cy="15" r="2" fill="none" stroke="#000" stroke-linecap="round" stroke-linejoin="round" stroke-width="2" data-color="color-2"></circle><line x1="17" y1="15" x2="12" y2="15" fill="none" stroke="#000" stroke-linecap="round" stroke-linejoin="round" stroke-width="2" data-color="color-2"></line><path d="m17,11.5v-4.5c0-1.6569-1.3431-3-3-3H6c-1.6569,0-3,1.3431-3,3v6c0,1.1217.6229,2.0881,1.5347,2.6028" fill="none" stroke="#000" stroke-linecap="round" stroke-linejoin="round" stroke-width="2"></path><line x1="15" y1="17" x2="15" y2="15" fill="none" stroke="#000" stroke-linecap="round" stroke-linejoin="round" stroke-width="2" data-color="color-2"></line></svg>