<svg xmlns="http://www.w3.org/2000/svg" xmlns:xlink="http://www.w3.org/1999/xlink" x="0px" y="0px" width="20px" height="20px" viewBox="0 0 20 20"><line x1="2.75" y1="5.25" x2="4.75" y2="3.25" fill="none" stroke="#000" stroke-linecap="round" stroke-linejoin="round" stroke-width="2" data-color="color-2"></line><line x1="17.25" y1="5.25" x2="15.25" y2="3.25" fill="none" stroke="#000" stroke-linecap="round" stroke-linejoin="round" stroke-width="2" data-color="color-2"></line><line x1="4" y1="16.5" x2="6.75" y2="13.75" fill="none" stroke="#000" stroke-linecap="round" stroke-linejoin="round" stroke-width="2"></line><line x1="16" y1="16.5" x2="13.25" y2="13.75" fill="none" stroke="#000" stroke-linecap="round" stroke-linejoin="round" stroke-width="2"></line><path d="m10,4c-3.584,0-6.5,2.916-6.5,6.5s2.916,6.5,6.5,6.5,6.5-2.916,6.5-6.5-2.916-6.5-6.5-6.5Zm3.7007,4.6206l-3.958,5c-.1831.231-.458.3696-.7524.3789-.0107.0005-.0215.0005-.0317.0005-.2832,0-.5532-.1201-.7432-.3311l-1.875-2.0835c-.3696-.4106-.3364-1.043.0742-1.4121.4106-.3706,1.0435-.3354,1.4121.0742l1.083,1.2031,3.2227-4.0713c.3423-.4336.9722-.5063,1.4048-.1636.4331.3428.5063.9717.1636,1.4048Z" stroke-width="0" fill="#000"></path></svg>