<svg xmlns="http://www.w3.org/2000/svg" xmlns:xlink="http://www.w3.org/1999/xlink" x="0px" y="0px" width="20px" height="20px" viewBox="0 0 20 20"><path d="m17,8v-1c0-1.6569-1.3431-3-3-3H6c-1.6569,0-3,1.3431-3,3v1h14Z" stroke-width="0" fill="#000"></path><line x1="6" y1="4" x2="6" y2="2" fill="none" stroke="#000" stroke-linecap="round" stroke-linejoin="round" stroke-width="2"></line><line x1="14" y1="4" x2="14" y2="2" fill="none" stroke="#000" stroke-linecap="round" stroke-linejoin="round" stroke-width="2"></line><path d="m17,8.2395v-1.2395c0-1.6569-1.3431-3-3-3H6c-1.6569,0-3,1.3431-3,3v6c0,1.6569,1.3431,3,3,3h1.8181" fill="none" stroke="#000" stroke-linecap="round" stroke-linejoin="round" stroke-width="2"></path><path d="m14,10c-2.2092,0-4,1.7908-4,4s1.7908,4,4,4,4-1.7909,4-4-1.7908-4-4-4Zm2.0312,5.6245c-.1982.2471-.4883.3755-.7822.3755-.2188,0-.4395-.0718-.624-.2192l-1.25-1c-.2373-.1895-.375-.4771-.375-.7808v-1.5c0-.5522.4473-1,1-1s1,.4478,1,1v1.0195l.875.6997c.4307.3447.501.9741.1562,1.4053Z" fill="#000" stroke-width="0" data-color="color-2"></path></svg>