<svg xmlns="http://www.w3.org/2000/svg" xmlns:xlink="http://www.w3.org/1999/xlink" x="0px" y="0px" width="20px" height="20px" viewBox="0 0 20 20"><line x1="2.75" y1="5.25" x2="4.75" y2="3.25" fill="none" stroke="#000" stroke-linecap="round" stroke-linejoin="round" stroke-width="2" data-color="color-2"></line><line x1="17.25" y1="5.25" x2="15.25" y2="3.25" fill="none" stroke="#000" stroke-linecap="round" stroke-linejoin="round" stroke-width="2" data-color="color-2"></line><line x1="4" y1="16.5" x2="7" y2="13.5" fill="none" stroke="#000" stroke-linecap="round" stroke-linejoin="round" stroke-width="2"></line><line x1="16" y1="16.5" x2="13" y2="13.5" fill="none" stroke="#000" stroke-linecap="round" stroke-linejoin="round" stroke-width="2"></line><path d="m10,4c-3.584,0-6.5,2.916-6.5,6.5s2.916,6.5,6.5,6.5,6.5-2.916,6.5-6.5-2.916-6.5-6.5-6.5Zm2.75,7.5h-5.5c-.5522,0-1-.4478-1-1s.4478-1,1-1h5.5c.5522,0,1,.4478,1,1s-.4478,1-1,1Z" stroke-width="0" fill="#000"></path></svg>