<svg xmlns="http://www.w3.org/2000/svg" xmlns:xlink="http://www.w3.org/1999/xlink" x="0px" y="0px" width="20px" height="20px" viewBox="0 0 20 20"><path d="m17,8v-1c0-1.6569-1.3431-3-3-3H6c-1.6569,0-3,1.3431-3,3v1h14Z" stroke-width="0" fill="#000"></path><line x1="6" y1="4" x2="6" y2="2" fill="none" stroke="#000" stroke-linecap="round" stroke-linejoin="round" stroke-width="2"></line><line x1="14" y1="4" x2="14" y2="2" fill="none" stroke="#000" stroke-linecap="round" stroke-linejoin="round" stroke-width="2"></line><circle cx="13" cy="15.25" r="1.25" fill="#000" stroke-width="0" data-color="color-2"></circle><circle cx="9.25" cy="15.25" r="1.25" fill="#000" stroke-width="0" data-color="color-2"></circle><path d="m17,11.5253v-4.5253c0-1.6569-1.3431-3-3-3H6c-1.6569,0-3,1.3431-3,3v6c0,1.5101,1.1194,2.7473,2.5714,2.9568" fill="none" stroke="#000" stroke-linecap="round" stroke-linejoin="round" stroke-width="2"></path><circle cx="16.75" cy="15.25" r="1.25" fill="#000" stroke-width="0" data-color="color-2"></circle></svg>