<svg xmlns="http://www.w3.org/2000/svg" xmlns:xlink="http://www.w3.org/1999/xlink" x="0px" y="0px" width="20px" height="20px" viewBox="0 0 20 20"><path d="m17,8v-1c0-1.6569-1.3431-3-3-3H6c-1.6569,0-3,1.3431-3,3v1h14Z" stroke-width="0" fill="#000"></path><line x1="6" y1="4" x2="6" y2="2" fill="none" stroke="#000" stroke-linecap="round" stroke-linejoin="round" stroke-width="2"></line><line x1="14" y1="4" x2="14" y2="2" fill="none" stroke="#000" stroke-linecap="round" stroke-linejoin="round" stroke-width="2"></line><path d="m12,14v-2c0-1.1046.8954-2,2-2h0c1.1046,0,2,.8954,2,2v2" fill="none" stroke="#000" stroke-linecap="round" stroke-linejoin="round" stroke-width="2" data-color="color-2"></path><path d="m17,7c0-1.6569-1.3431-3-3-3H6c-1.6569,0-3,1.3431-3,3v6c0,1.6569,1.3431,3,3,3h1.5" fill="none" stroke="#000" stroke-linecap="round" stroke-linejoin="round" stroke-width="2"></path><rect x="11" y="14" width="6" height="3" rx=".5" ry=".5" fill="#000" stroke="#000" stroke-linecap="round" stroke-linejoin="round" stroke-width="2" data-color="color-2"></rect></svg>