<svg xmlns="http://www.w3.org/2000/svg" xmlns:xlink="http://www.w3.org/1999/xlink" x="0px" y="0px" width="18px" height="18px" viewBox="0 0 18 18"><path d="M11.1221 11.1211L11.751 11.75" stroke="black" stroke-width="1.5" stroke-linecap="round" stroke-linejoin="round" fill="none"></path> <path d="M6.25098 6.25L9.00098 9" stroke="black" stroke-width="1.5" stroke-linecap="round" stroke-linejoin="round" fill="none"></path> <path d="M9.51898 4.94699C9.42198 4.73299 9.29196 4.52999 9.11496 4.35299L7.34695 2.58499C6.56595 1.80399 5.29998 1.80399 4.51898 2.58499L2.58697 4.51699C1.80597 5.29799 1.80597 6.56399 2.58697 7.34499L4.35498 9.11299C4.53098 9.28899 4.73397 9.41999 4.94897 9.51699" stroke="black" stroke-width="1.5" stroke-linecap="round" stroke-linejoin="round" fill="none"></path> <path d="M13.5026 8.7406L15.416 10.654C16.197 11.435 16.197 12.701 15.416 13.482L13.484 15.414C12.703 16.195 11.437 16.195 10.656 15.414L8.74261 13.5006" stroke="black" stroke-width="1.5" stroke-linecap="round" stroke-linejoin="round" fill="none"></path> <path d="M2.00098 16L16.001 2" stroke="#000" stroke-width="1.5" stroke-linecap="round" stroke-linejoin="round" data-color="color-2" fill="none"></path></svg>