<svg xmlns="http://www.w3.org/2000/svg" xmlns:xlink="http://www.w3.org/1999/xlink" x="0px" y="0px" width="18px" height="18px" viewBox="0 0 18 18"><path d="M8 11.75H2.75" stroke="black" stroke-width="1.5" stroke-linecap="round" stroke-linejoin="round" fill="none"></path> <path d="M15.205 7.75H2.75" stroke="black" stroke-width="1.5" stroke-linecap="round" stroke-linejoin="round" fill="none"></path> <path d="M15.25 3.75H2.75" stroke="black" stroke-width="1.5" stroke-linecap="round" stroke-linejoin="round" fill="none"></path> <path d="M16.4873 12.5381L14.5928 11.9072L13.9615 10.0127C13.8594 9.707 13.5728 9.5 13.2501 9.5C12.9274 9.5 12.6407 9.707 12.5387 10.0127L11.9074 11.9072L10.0129 12.5381C9.70668 12.6406 9.50018 12.9268 9.50018 13.25C9.50018 13.5732 9.70668 13.8594 10.0129 13.9619L11.9074 14.5928L12.5387 16.4873C12.6408 16.793 12.9274 17 13.2501 17C13.5728 17 13.8595 16.793 13.9615 16.4873L14.5928 14.5928L16.4873 13.9619C16.7935 13.8594 17 13.5732 17 13.25C17 12.9268 16.7935 12.6406 16.4873 12.5381Z" fill="#000" data-color="color-2" data-stroke="none"></path></svg>