<svg xmlns="http://www.w3.org/2000/svg" xmlns:xlink="http://www.w3.org/1999/xlink" x="0px" y="0px" width="18px" height="18px" viewBox="0 0 18 18"><path d="M4.51898 2.58589L2.58697 4.51769C1.80597 5.29869 1.80597 6.56499 2.58697 7.34609L4.35498 9.11419C5.13598 9.89519 6.40296 9.89519 7.18396 9.11419L9.11596 7.18239C9.89696 6.40129 9.89696 5.13499 9.11596 4.35389L7.34695 2.58589C6.56595 1.80479 5.29998 1.80479 4.51898 2.58589Z" stroke="black" stroke-width="1.5" stroke-linecap="round" stroke-linejoin="round" fill="none"></path> <path d="M10.818 8.8858L8.88598 10.8177C8.10498 11.5987 8.10498 12.865 8.88598 13.6461L10.654 15.4142C11.435 16.1952 12.702 16.1952 13.483 15.4142L15.415 13.4824C16.196 12.7013 16.196 11.435 15.415 10.6539L13.647 8.8858C12.866 8.1048 11.599 8.1048 10.818 8.8858Z" stroke="black" stroke-width="1.5" stroke-linecap="round" stroke-linejoin="round" fill="none"></path> <path d="M6.25098 6.25L11.751 11.75" stroke="#000" stroke-width="1.5" stroke-linecap="round" stroke-linejoin="round" data-color="color-2" fill="none"></path></svg>