<svg xmlns="http://www.w3.org/2000/svg" xmlns:xlink="http://www.w3.org/1999/xlink" x="0px" y="0px" width="18px" height="18px" viewBox="0 0 18 18"><path d="M1.75,9.25H6.25c.552,0,1,.448,1,1v3c0,.552-.448,1-1,1H2.75c-.552,0-1-.448-1-1v-4c0-3.75,1.25-5.625,3.5-6.5" fill="none" stroke="#000" stroke-linecap="round" stroke-linejoin="round" stroke-width="1.5"></path><path d="M10.75,9.25h4.5c.552,0,1,.448,1,1v3c0,.552-.448,1-1,1h-3.5c-.552,0-1-.448-1-1v-4c0-3.75,1.25-5.625,3.5-6.5" fill="none" stroke="#000" stroke-linecap="round" stroke-linejoin="round" stroke-width="1.5" data-color="color-2"></path></svg>