<svg xmlns="http://www.w3.org/2000/svg" xmlns:xlink="http://www.w3.org/1999/xlink" x="0px" y="0px" width="20px" height="20px" viewBox="0 0 20 20"><circle cx="12.5" cy="7.5" r="1.5" fill="#000" stroke-width="0" data-color="color-2"></circle><path d="m17,3h-1.2721c-2.3869,0-4.6761.9482-6.364,2.636l-4.364,4.364,5,5,4.364-4.364c1.6878-1.6878,2.636-3.977,2.636-6.364v-1.2721Z" fill="none" stroke="#000" stroke-linecap="round" stroke-linejoin="round" stroke-width="2"></path><polygon points="5 10 3 8 4 7 9 6 5 10" stroke="#000" stroke-linecap="round" stroke-linejoin="round" stroke-width="2" fill="#000"></polygon><polygon points="10 15 12 17 13 16 14 11 10 15" stroke="#000" stroke-linecap="round" stroke-linejoin="round" stroke-width="2" fill="#000"></polygon><path d="m4.25,13.5c-1.2407,0-2.25,1.0093-2.25,2.25v1.5c0,.4141.3359.75.75.75h1.5c1.2407,0,2.25-1.0093,2.25-2.25s-1.0093-2.25-2.25-2.25Z" fill="#000" stroke-width="0" data-color="color-2"></path></svg>