<svg xmlns="http://www.w3.org/2000/svg" xmlns:xlink="http://www.w3.org/1999/xlink" x="0px" y="0px" width="18px" height="18px" viewBox="0 0 18 18"><circle cx="9" cy="9" r="7.25" fill="none" stroke="#000" stroke-linecap="round" stroke-linejoin="round" stroke-width="1.5"></circle><path d="M11.897,10.757c-.154-.154-.366-.221-.583-.189h0c-1.532,.239-3.112,.238-4.638-.001-.214-.032-.421,.035-.572,.185-.154,.153-.227,.376-.193,.598,.23,1.511,1.558,2.651,3.089,2.651s2.86-1.141,3.089-2.654c.033-.216-.039-.436-.192-.589Z" fill="#000" data-color="color-2" data-stroke="none"></path><path d="M4.75,8.25c0-.69,.56-1.25,1.25-1.25s1.25,.56,1.25,1.25" fill="none" stroke="#000" stroke-linecap="round" stroke-linejoin="round" stroke-width="1.5" data-color="color-2"></path><path d="M10.75,8.25c0-.69,.56-1.25,1.25-1.25s1.25,.56,1.25,1.25" fill="none" stroke="#000" stroke-linecap="round" stroke-linejoin="round" stroke-width="1.5" data-color="color-2"></path></svg>