<svg xmlns="http://www.w3.org/2000/svg" xmlns:xlink="http://www.w3.org/1999/xlink" x="0px" y="0px" width="18px" height="18px" viewBox="0 0 18 18"><path d="M2.75,6.75v-2c0-1.105,.895-2,2-2h2" fill="none" stroke="#000" stroke-linecap="round" stroke-linejoin="round" stroke-width="1.5"></path><path d="M11.25,2.75h2c1.105,0,2,.895,2,2v2" fill="none" stroke="#000" stroke-linecap="round" stroke-linejoin="round" stroke-width="1.5"></path><path d="M15.25,11.25v2c0,1.105-.895,2-2,2h-2" fill="none" stroke="#000" stroke-linecap="round" stroke-linejoin="round" stroke-width="1.5"></path><path d="M6.75,15.25h-2c-1.105,0-2-.895-2-2v-2" fill="none" stroke="#000" stroke-linecap="round" stroke-linejoin="round" stroke-width="1.5"></path><circle cx="6" cy="7" r="1" fill="#000" data-color="color-2" data-stroke="none"></circle><circle cx="12" cy="7" r="1" fill="#000" data-color="color-2" data-stroke="none"></circle><path d="M11.897,9.757c-.154-.154-.366-.221-.583-.189h0c-1.532,.239-3.112,.238-4.638-.001-.214-.032-.421,.035-.572,.185-.154,.153-.227,.376-.193,.598,.23,1.511,1.558,2.651,3.089,2.651s2.86-1.141,3.089-2.654c.033-.216-.039-.436-.192-.589h0Z" fill="#000" data-color="color-2" data-stroke="none"></path></svg>