<svg xmlns="http://www.w3.org/2000/svg" xmlns:xlink="http://www.w3.org/1999/xlink" x="0px" y="0px" width="18px" height="18px" viewBox="0 0 18 18"><path d="m5.75,12.25h-1.5c-1.1046,0-2-.8954-2-2v-6c0-1.1046.8954-2,2-2h6c1.1046,0,2,.8954,2,2v1.5" fill="none" stroke="#000" stroke-linecap="round" stroke-linejoin="round" stroke-width="1.5" data-color="color-2"></path><path d="m13.75,5.75h-6c-1.1046,0-2,.8954-2,2v6c0,1.1046.8954,2,2,2h6c1.1046,0,2-.8954,2-2v-6c0-1.1046-.8954-2-2-2Z" fill="none" stroke="#000" stroke-linecap="round" stroke-linejoin="round" stroke-width="1.5"></path><path d="m13,11c.552,0,1-.4477,1-1s-.448-1-1-1-1,.4477-1,1,.448,1,1,1Z" fill="#000" stroke-width="0" data-color="color-2"></path><path d="m8.5,11c.552,0,1-.4477,1-1s-.448-1-1-1-1,.4477-1,1,.448,1,1,1Z" fill="#000" stroke-width="0" data-color="color-2"></path><path d="m9.6195,11.8237c.7156.1717,1.4592.1786,2.2344-.0001.3429-.079.6631.1762.6431.5275-.0524.919-.8151,1.6489-1.7471,1.6489-.9221,0-1.6783-.7142-1.7452-1.6193-.0252-.341.2823-.6367.6148-.5569Z" fill="#000" stroke-width="0" data-color="color-2"></path></svg>