<svg xmlns="http://www.w3.org/2000/svg" xmlns:xlink="http://www.w3.org/1999/xlink" x="0px" y="0px" width="18px" height="18px" viewBox="0 0 18 18"><circle cx="6" cy="9.5" r="1" fill="#000" data-color="color-2" data-stroke="none"></circle><circle cx="12" cy="9.5" r="1" fill="#000" data-color="color-2" data-stroke="none"></circle><line x1="7.75" y1="12.25" x2="10.25" y2="12.25" fill="none" stroke="#000" stroke-linecap="round" stroke-linejoin="round" stroke-width="1.5" data-color="color-2"></line><line x1="5" y1="8.25" x2="13" y2="8.25" fill="none" stroke="#000" stroke-linecap="round" stroke-linejoin="round" stroke-width="1.5" data-color="color-2"></line><path d="M11.3,2.129c-.724-.242-1.495-.379-2.3-.379C4.996,1.75,1.75,4.996,1.75,9s3.246,7.25,7.25,7.25,7.25-3.246,7.25-7.25c0-.283-.02-.561-.052-.835" fill="none" stroke="#000" stroke-linecap="round" stroke-linejoin="round" stroke-width="1.5"></path><path d="M15.353,5.75c1.047,0,1.897-.852,1.897-1.902,0-1.445-1.897-3.098-1.897-3.098,0,0-1.897,1.652-1.897,3.098,0,1.051,.849,1.902,1.897,1.902Z" fill="none" stroke="#000" stroke-linecap="round" stroke-linejoin="round" stroke-width="1.5" data-color="color-2"></path></svg>