<svg xmlns="http://www.w3.org/2000/svg" xmlns:xlink="http://www.w3.org/1999/xlink" x="0px" y="0px" width="24px" height="24px" viewBox="0 0 24 24"> <path d="M21 19C21 20.6569 19.6569 22 18 22H6C4.34315 22 3 20.6569 3 19V17.2314C3.53103 17.7077 4.23053 18 5 18H19C19.7695 18 20.469 17.7077 21 17.2314V19Z" fill="#000" data-color="color-2"></path> <path d="M17 5L15 5L15 2L9 2L9 5L7 5L7 -4.37114e-07L17 0L17 5Z" fill="#000" data-color="color-2"></path> <path fill-rule="evenodd" clip-rule="evenodd" d="M22 13C22 14.6569 20.6569 16 19 16H16V13H14V16H10V13H8V16H5C3.34315 16 2 14.6569 2 13V4H22V13ZM9 9H15V7H9V9Z" fill="black"></path> </svg>