<svg xmlns="http://www.w3.org/2000/svg" xmlns:xlink="http://www.w3.org/1999/xlink" x="0px" y="0px" width="18px" height="18px" viewBox="0 0 18 18"><path d="M3.75,12.5c.161,0,.323-.052,.46-.158,1.005-.781,1.436-1.603,1.629-2.645,.813,.804,1.929,1.303,3.16,1.303s2.347-.499,3.16-1.303c.193,1.042,.625,1.864,1.629,2.645,.137,.106,.299,.158,.46,.158,.224,0,.445-.1,.593-.29,.254-.327,.195-.798-.132-1.053-1.163-.904-1.21-1.66-1.21-4.408v-.25c0-2.481-2.019-4.5-4.5-4.5s-4.5,2.019-4.5,4.5v.25c0,2.748-.048,3.504-1.21,4.408-.327,.254-.386,.726-.132,1.053,.148,.19,.369,.29,.593,.29Zm5.25-3c-1.594,0-2.89-1.253-2.982-2.825,1.241-.216,2.311-.935,2.982-1.947,.671,1.012,1.741,1.731,2.982,1.947-.093,1.571-1.388,2.825-2.982,2.825Z" fill="#000"></path><path d="M15.2,14.957c-1.528-1.879-3.788-2.957-6.2-2.957s-4.672,1.078-6.2,2.957c-.306,.376-.365,.883-.156,1.323,.212,.444,.647,.72,1.137,.72H14.219c.49,0,.925-.276,1.137-.72,.209-.44,.15-.947-.156-1.323Z" fill="#000" data-color="color-2"></path></svg>