<svg xmlns="http://www.w3.org/2000/svg" xmlns:xlink="http://www.w3.org/1999/xlink" x="0px" y="0px" width="18px" height="18px" viewBox="0 0 18 18"><path d="M4.18,15.25h-.43c-1.105,0-2-.895-2-2V3.75c0-.552,.448-1,1-1h3.797c.288,0,.563,.125,.753,.342l2.325,2.658h5.626" fill="none" stroke="#000" stroke-linecap="round" stroke-linejoin="round" stroke-width="1.5" data-color="color-2"></path><path d="M16.187,8.25H5.308c-.472,0-.879,.329-.978,.79l-1.071,5c-.133,.623,.341,1.21,.978,1.21H15.115c.472,0,.879-.329,.978-.79l1.071-5c.133-.623-.341-1.21-.978-1.21Z" fill="none" stroke="#000" stroke-linecap="round" stroke-linejoin="round" stroke-width="1.5"></path></svg>