<svg xmlns="http://www.w3.org/2000/svg" xmlns:xlink="http://www.w3.org/1999/xlink" x="0px" y="0px" width="18px" height="18px" viewBox="0 0 18 18"><path d="M2.25 8.75V4.75C2.25 3.645 3.145 2.75 4.25 2.75H6.20099C6.80799 2.75 7.38099 3.02499 7.76099 3.49799L8.36401 4.25H13.75C14.855 4.25 15.75 5.145 15.75 6.25V8.452" stroke="black" stroke-width="1.5" stroke-linecap="round" stroke-linejoin="round" fill="none"></path> <path d="M13.25 17.25C14.078 17.25 14.75 16.578 14.75 15.75C14.75 14.922 14.078 14.25 13.25 14.25C12.422 14.25 11.75 14.922 11.75 15.75C11.75 16.578 12.422 17.25 13.25 17.25Z" stroke="#000" stroke-width="1.5" stroke-linecap="round" stroke-linejoin="round" data-color="color-2" fill="none"></path> <path d="M15.72 8.452C15.575 7.49 14.753 6.75 13.75 6.75H4.25C3.145 6.75 2.25 7.646 2.25 8.75V13.25C2.25 14.354 3.145 15.25 4.25 15.25H8.77789" stroke="black" stroke-width="1.5" stroke-linecap="round" stroke-linejoin="round" fill="none"></path> <path d="M14.75 15.75V10.75C15.067 11.073 15.48 11.442 16 11.797C16.45 12.104 16.879 12.332 17.25 12.5" stroke="#000" stroke-width="1.5" stroke-linecap="round" stroke-linejoin="round" data-color="color-2" fill="none"></path></svg>