<svg xmlns="http://www.w3.org/2000/svg" xmlns:xlink="http://www.w3.org/1999/xlink" x="0px" y="0px" width="18px" height="18px" viewBox="0 0 18 18"><path d="M2.25 8.75V4.75C2.25 3.645 3.145 2.75 4.25 2.75H6.201C6.808 2.75 7.381 3.02499 7.761 3.49799L8.364 4.25H13.75C14.855 4.25 15.75 5.145 15.75 6.25V9.09399" stroke="black" stroke-width="1.5" stroke-linecap="round" stroke-linejoin="round" fill="none"></path> <path d="M14.75 12.25V17.25" stroke="#000" stroke-width="1.5" stroke-linecap="round" stroke-linejoin="round" data-color="color-2" fill="none"></path> <path d="M15.75 9.42221V8.75C15.75 7.646 14.855 6.75 13.75 6.75H4.25C3.145 6.75 2.25 7.646 2.25 8.75V13.25C2.25 14.354 3.145 15.25 4.25 15.25H9.2919" stroke="black" stroke-width="1.5" stroke-linecap="round" stroke-linejoin="round" fill="none"></path> <path d="M17.25 14.75H12.25" stroke="#000" stroke-width="1.5" stroke-linecap="round" stroke-linejoin="round" data-color="color-2" fill="none"></path></svg>