<svg xmlns="http://www.w3.org/2000/svg" xmlns:xlink="http://www.w3.org/1999/xlink" x="0px" y="0px" width="18px" height="18px" viewBox="0 0 18 18"><path d="M15.25,5.25c0-.552-.448-1-1-1h-6l-.956-1.53c-.183-.292-.503-.47-.848-.47H3.75c-.552,0-1,.448-1,1v2" fill="none" stroke="#000" stroke-linecap="round" stroke-linejoin="round" stroke-width="1.5" data-color="color-2"></path><path d="M2.918,7.75H15.082c.614,0,1.083,.548,.988,1.154l-.938,6c-.076,.487-.495,.846-.988,.846H3.856c-.493,0-.912-.359-.988-.846l-.938-6c-.095-.606,.374-1.154,.988-1.154Z" fill="none" stroke="#000" stroke-linecap="round" stroke-linejoin="round" stroke-width="1.5"></path></svg>