<svg xmlns="http://www.w3.org/2000/svg" xmlns:xlink="http://www.w3.org/1999/xlink" x="0px" y="0px" width="18px" height="18px" viewBox="0 0 18 18"><path d="M5.25,13.25h-1c-1.105,0-2-.895-2-2V3.25c0-1.105,.895-2,2-2h5c1.105,0,2,.895,2,2v1.052" fill="none" stroke="#000" stroke-linecap="round" stroke-linejoin="round" stroke-width="1.5" data-color="color-2"></path><path d="M5.25,14.25V6.25c0-1.105,.895-2,2-2h4.086c.265,0,.52,.105,.707,.293l2.914,2.914c.188,.188,.293,.442,.293,.707v6.086c0,1.105-.895,2-2,2H7.25c-1.105,0-2-.895-2-2Z" fill="none" stroke="#000" stroke-linecap="round" stroke-linejoin="round" stroke-width="1.5"></path><path d="M15.25,8.25h-3c-.552,0-1-.448-1-1v-3" fill="none" stroke="#000" stroke-linecap="round" stroke-linejoin="round" stroke-width="1.5"></path><line x1="8" y1="10.75" x2="12.25" y2="10.75" fill="none" stroke="#000" stroke-linecap="round" stroke-linejoin="round" stroke-width="1.5" data-color="color-2"></line><line x1="8" y1="13.25" x2="12.25" y2="13.25" fill="none" stroke="#000" stroke-linecap="round" stroke-linejoin="round" stroke-width="1.5" data-color="color-2"></line><line x1="8" y1="8.25" x2="9" y2="8.25" fill="none" stroke="#000" stroke-linecap="round" stroke-linejoin="round" stroke-width="1.5" data-color="color-2"></line></svg>