<svg xmlns="http://www.w3.org/2000/svg" xmlns:xlink="http://www.w3.org/1999/xlink" x="0px" y="0px" width="18px" height="18px" viewBox="0 0 18 18"><path d="M11.874,10.75h2.876c.828,0,1.5,.672,1.5,1.5v2.5c0,.828-.672,1.5-1.5,1.5h-6c-.828,0-1.5-.672-1.5-1.5v-5c0-.552,.448-1,1-1h1.524c.301,0,.587,.136,.776,.37l1.323,1.63Z" fill="none" stroke="#000" stroke-linecap="round" stroke-linejoin="round" stroke-width="1.5"></path><path d="M10.75,6.25v-1c0-.828-.672-1.5-1.5-1.5h-2.876l-1.323-1.63c-.19-.234-.475-.37-.776-.37h-1.524c-.552,0-1,.448-1,1V7.75c0,.828,.672,1.5,1.5,1.5h1.5" fill="none" stroke="#000" stroke-linecap="round" stroke-linejoin="round" stroke-width="1.5"></path><path d="M4.745,14.708c-1.416-.24-2.495-1.473-2.495-2.958" fill="none" stroke="#000" stroke-linecap="round" stroke-linejoin="round" stroke-width="1.5" data-color="color-2"></path><path d="M13.255,5.292c1.416,.24,2.495,1.473,2.495,2.958" fill="none" stroke="#000" stroke-linecap="round" stroke-linejoin="round" stroke-width="1.5" data-color="color-2"></path></svg>