<svg xmlns="http://www.w3.org/2000/svg" xmlns:xlink="http://www.w3.org/1999/xlink" x="0px" y="0px" width="18px" height="18px" viewBox="0 0 18 18"><path d="M5.75 6.75H7.75" stroke="black" stroke-width="1.5" stroke-linecap="round" stroke-linejoin="round" fill="none"></path> <path d="M5.75 9.75H8.5" stroke="black" stroke-width="1.5" stroke-linecap="round" stroke-linejoin="round" fill="none"></path> <path d="M15.16 6.25H11.75C11.198 6.25 10.75 5.802 10.75 5.25V1.85201" stroke="black" stroke-width="1.5" stroke-linecap="round" stroke-linejoin="round" fill="none"></path> <path d="M15.25 9.0806V6.66409C15.25 6.39899 15.145 6.14411 14.957 5.95711L11.043 2.043C10.855 1.855 10.601 1.75 10.336 1.75H4.75C3.645 1.75 2.75 2.646 2.75 3.75V14.25C2.75 15.354 3.645 16.25 4.75 16.25H9.4446" stroke="black" stroke-width="1.5" stroke-linecap="round" stroke-linejoin="round" fill="none"></path> <path d="M11.126 10.768L17.066 12.938C17.316 13.029 17.309 13.386 17.055 13.467L14.336 14.337L13.466 17.056C13.385 17.31 13.028 17.317 12.937 17.067L10.767 11.127C10.685 10.904 10.902 10.687 11.126 10.768Z" stroke="#000" stroke-width="1.5" stroke-linecap="round" stroke-linejoin="round" data-color="color-2" fill="none"></path></svg>