<svg xmlns="http://www.w3.org/2000/svg" xmlns:xlink="http://www.w3.org/1999/xlink" x="0px" y="0px" width="18px" height="18px" viewBox="0 0 18 18"><path opacity="0.3" d="M2.75 8.75V4.75C2.75 3.645 3.65 2.75 4.75 2.75H13.25C14.35 2.75 15.25 3.645 15.25 4.75V8.75H2.75Z" fill="#000" data-color="color-2" data-stroke="none"></path> <path d="M11 16.75L7 12.75" stroke="black" stroke-width="1.5" stroke-linecap="round" stroke-linejoin="round" fill="none"></path> <path d="M7 16.75L11 12.75" stroke="black" stroke-width="1.5" stroke-linecap="round" stroke-linejoin="round" fill="none"></path> <path d="M2.75 8.75H15.25" stroke="black" stroke-width="1.5" stroke-linecap="round" stroke-linejoin="round" fill="none"></path> <path d="M13.25 15C14.36 15 15.25 14.104 15.25 13V4.75C15.25 3.646 14.36 2.75 13.25 2.75H4.75C3.64 2.75 2.75 3.646 2.75 4.75V13C2.75 14.104 3.64 15 4.75 15" stroke="black" stroke-width="1.5" stroke-linecap="round" stroke-linejoin="round" fill="none"></path></svg>