<svg xmlns="http://www.w3.org/2000/svg" xmlns:xlink="http://www.w3.org/1999/xlink" x="0px" y="0px" width="18px" height="18px" viewBox="0 0 18 18"><path opacity="0.3" d="M10.968 2.25H7.03297C6.50297 2.25 5.99397 2.461 5.61897 2.836L2.83698 5.61798C2.46198 5.99298 2.25098 6.50198 2.25098 7.03198V10.967C2.25098 11.497 2.46198 12.006 2.83698 12.381L5.61897 15.163C5.99397 15.538 6.50297 15.749 7.03297 15.749H10.968C11.498 15.749 12.007 15.538 12.382 15.163L15.164 12.381C15.539 12.006 15.75 11.497 15.75 10.967V7.03198C15.75 6.50198 15.539 5.99298 15.164 5.61798L12.382 2.836C12.007 2.461 11.498 2.25 10.968 2.25Z" fill="#000" data-color="color-2" data-stroke="none"></path> <path d="M10.968 2.25H7.03297C6.50297 2.25 5.99397 2.461 5.61897 2.836L2.83698 5.61798C2.46198 5.99298 2.25098 6.50198 2.25098 7.03198V10.967C2.25098 11.497 2.46198 12.006 2.83698 12.381L5.61897 15.163C5.99397 15.538 6.50297 15.749 7.03297 15.749H10.968C11.498 15.749 12.007 15.538 12.382 15.163L15.164 12.381C15.539 12.006 15.75 11.497 15.75 10.967V7.03198C15.75 6.50198 15.539 5.99298 15.164 5.61798L12.382 2.836C12.007 2.461 11.498 2.25 10.968 2.25Z" stroke="black" stroke-width="1.5" stroke-linecap="round" stroke-linejoin="round" fill="none"></path> <path d="M9 5.43103V9.5" stroke="black" stroke-width="1.5" stroke-linecap="round" stroke-linejoin="round" fill="none"></path> <path d="M9 13.417C8.448 13.417 8 12.968 8 12.417C8 11.866 8.448 11.417 9 11.417C9.552 11.417 10 11.866 10 12.417C10 12.968 9.552 13.417 9 13.417Z" fill="black" data-stroke="none"></path></svg>