<svg xmlns="http://www.w3.org/2000/svg" xmlns:xlink="http://www.w3.org/1999/xlink" x="0px" y="0px" width="18px" height="18px" viewBox="0 0 18 18"><path d="M3.25 6.25L3.25 11.75C3.25 12.8546 4.14543 13.75 5.25 13.75H12.75C13.8546 13.75 14.75 12.8546 14.75 11.75V6.25C14.75 5.14543 13.8546 4.25 12.75 4.25H5.25C4.14543 4.25 3.25 5.14543 3.25 6.25Z" fill="#000" fill-opacity="0.3" data-color="color-2" data-stroke="none"></path> <path d="M3.25 6.25L3.25 11.75C3.25 12.8546 4.14543 13.75 5.25 13.75H12.75C13.8546 13.75 14.75 12.8546 14.75 11.75V6.25C14.75 5.14543 13.8546 4.25 12.75 4.25H5.25C4.14543 4.25 3.25 5.14543 3.25 6.25Z" stroke="black" stroke-width="1.5" stroke-linecap="round" stroke-linejoin="round" fill="none"></path> <path d="M14.25 1.25H3.75" stroke="black" stroke-width="1.5" stroke-linecap="round" stroke-linejoin="round" fill="none"></path> <path d="M14.25 16.75H3.75" stroke="black" stroke-width="1.5" stroke-linecap="round" stroke-linejoin="round" fill="none"></path> <path d="M7 9H11" stroke="black" stroke-width="1.5" stroke-linecap="round" stroke-linejoin="round" fill="none"></path> <path d="M9 7V11" stroke="black" stroke-width="1.5" stroke-linecap="round" stroke-linejoin="round" fill="none"></path></svg>