<svg xmlns="http://www.w3.org/2000/svg" xmlns:xlink="http://www.w3.org/1999/xlink" x="0px" y="0px" width="18px" height="18px" viewBox="0 0 18 18"><path d="M6.25 14.75L11.75 14.75C12.8546 14.75 13.75 13.8546 13.75 12.75L13.75 5.25C13.75 4.14543 12.8546 3.25 11.75 3.25L6.25 3.25C5.14543 3.25 4.25 4.14543 4.25 5.25L4.25 12.75C4.25 13.8546 5.14543 14.75 6.25 14.75Z" fill="#000" fill-opacity="0.3" data-color="color-2" data-stroke="none"></path> <path d="M6.25 14.75L11.75 14.75C12.8546 14.75 13.75 13.8546 13.75 12.75L13.75 5.25C13.75 4.14543 12.8546 3.25 11.75 3.25L6.25 3.25C5.14543 3.25 4.25 4.14543 4.25 5.25L4.25 12.75C4.25 13.8546 5.14543 14.75 6.25 14.75Z" stroke="black" stroke-width="1.5" stroke-linecap="round" stroke-linejoin="round" fill="none"></path> <path d="M1.25 3.75V14.25" stroke="black" stroke-width="1.5" stroke-linecap="round" stroke-linejoin="round" fill="none"></path> <path d="M16.75 3.75V14.25" stroke="black" stroke-width="1.5" stroke-linecap="round" stroke-linejoin="round" fill="none"></path> <path d="M9 11V7" stroke="black" stroke-width="1.5" stroke-linecap="round" stroke-linejoin="round" fill="none"></path> <path d="M7 9H11" stroke="black" stroke-width="1.5" stroke-linecap="round" stroke-linejoin="round" fill="none"></path></svg>