<svg xmlns="http://www.w3.org/2000/svg" xmlns:xlink="http://www.w3.org/1999/xlink" x="0px" y="0px" width="18px" height="18px" viewBox="0 0 18 18"><path d="M15.25 13.25V4.75C15.25 3.64543 14.3546 2.75 13.25 2.75L4.75 2.75C3.64543 2.75 2.75 3.64543 2.75 4.75V13.25C2.75 14.3546 3.64543 15.25 4.75 15.25H13.25C14.3546 15.25 15.25 14.3546 15.25 13.25Z" fill="#000" fill-opacity="0.3" data-color="color-2" data-stroke="none"></path> <path d="M15.25 13.25V4.75C15.25 3.64543 14.3546 2.75 13.25 2.75L4.75 2.75C3.64543 2.75 2.75 3.64543 2.75 4.75V13.25C2.75 14.3546 3.64543 15.25 4.75 15.25H13.25C14.3546 15.25 15.25 14.3546 15.25 13.25Z" stroke="black" stroke-width="1.5" stroke-linecap="round" stroke-linejoin="round" fill="none"></path> <path d="M10 9C10 9.551 9.551 10 9 10C8.449 10 8 9.551 8 9C8 8.449 8.449 8 9 8C9.551 8 10 8.449 10 9Z" fill="black" data-stroke="none"></path> <path d="M10 12.5C10 13.051 9.551 13.5 9 13.5C8.449 13.5 8 13.051 8 12.5C8 11.949 8.449 11.5 9 11.5C9.551 11.5 10 11.949 10 12.5Z" fill="black" data-stroke="none"></path> <path d="M10 5.5C10 6.051 9.551 6.5 9 6.5C8.449 6.5 8 6.051 8 5.5C8 4.949 8.449 4.5 9 4.5C9.551 4.5 10 4.949 10 5.5Z" fill="black" data-stroke="none"></path></svg>