<svg xmlns="http://www.w3.org/2000/svg" xmlns:xlink="http://www.w3.org/1999/xlink" x="0px" y="0px" width="18px" height="18px" viewBox="0 0 18 18"><path d="M6.45331 2.20999C7.24551 1.91269 8.1038 1.75 9 1.75C13.004 1.75 16.25 4.996 16.25 9C16.25 13.004 13.004 16.25 9 16.25C4.996 16.25 1.75 13.004 1.75 9C1.75 8.1036 1.9128 7.2451 2.2103 6.4527" stroke="black" stroke-width="1.5" stroke-linecap="round" stroke-linejoin="round" fill="none"></path> <path opacity="0.3" d="M9 11.25C10.2426 11.25 11.25 10.243 11.25 9C11.25 7.757 10.2426 6.75 9 6.75C7.7574 6.75 6.75 7.757 6.75 9C6.75 10.243 7.7574 11.25 9 11.25Z" fill="#000" data-color="color-2" data-stroke="none"></path> <path d="M9 11.25C10.2426 11.25 11.25 10.243 11.25 9C11.25 7.757 10.2426 6.75 9 6.75C7.7574 6.75 6.75 7.757 6.75 9C6.75 10.243 7.7574 11.25 9 11.25Z" stroke="black" stroke-width="1.5" stroke-linecap="round" stroke-linejoin="round" fill="none"></path> <path d="M7.40906 7.409L3.88306 3.883" stroke="black" stroke-width="1.5" stroke-linecap="round" stroke-linejoin="round" fill="none"></path></svg>