<svg xmlns="http://www.w3.org/2000/svg" xmlns:xlink="http://www.w3.org/1999/xlink" x="0px" y="0px" width="18px" height="18px" viewBox="0 0 18 18"><path opacity="0.3" d="M14.25 15.75H10.75L10.75 2.25H14.25C14.8019 2.25 15.25 2.6981 15.25 3.25L15.25 14.75C15.25 15.3019 14.8019 15.75 14.25 15.75Z" fill="#000" data-color="color-2" data-stroke="none"></path> <path d="M14.25 2.25H3.75C3.19772 2.25 2.75 2.69772 2.75 3.25V14.75C2.75 15.3023 3.19772 15.75 3.75 15.75H14.25C14.8023 15.75 15.25 15.3023 15.25 14.75V3.25C15.25 2.69772 14.8023 2.25 14.25 2.25Z" stroke="black" stroke-width="1.5" stroke-linecap="round" stroke-linejoin="round" fill="none"></path> <path d="M10.75 15.75V2.25" stroke="black" stroke-width="1.5" stroke-linecap="round" stroke-linejoin="round" fill="none"></path> <path d="M3 11.25H10.5" stroke="black" stroke-width="1.5" stroke-linecap="round" stroke-linejoin="round" fill="none"></path> <path d="M3 6.75H10.5" stroke="black" stroke-width="1.5" stroke-linecap="round" stroke-linejoin="round" fill="none"></path></svg>