<svg xmlns="http://www.w3.org/2000/svg" xmlns:xlink="http://www.w3.org/1999/xlink" x="0px" y="0px" width="18px" height="18px" viewBox="0 0 18 18"><path d="M3.75 15.25L14.25 15.25C15.3546 15.25 16.25 14.3546 16.25 13.25V4.75C16.25 3.64543 15.3546 2.75 14.25 2.75L3.75 2.75C2.64543 2.75 1.75 3.64543 1.75 4.75L1.75 13.25C1.75 14.3546 2.64543 15.25 3.75 15.25Z" fill="#000" fill-opacity="0.3" data-color="color-2" data-stroke="none"></path> <path d="M3.75 15.25L14.25 15.25C15.3546 15.25 16.25 14.3546 16.25 13.25V4.75C16.25 3.64543 15.3546 2.75 14.25 2.75L3.75 2.75C2.64543 2.75 1.75 3.64543 1.75 4.75L1.75 13.25C1.75 14.3546 2.64543 15.25 3.75 15.25Z" stroke="black" stroke-width="1.5" stroke-linecap="round" stroke-linejoin="round" fill="none"></path> <path d="M4.75 12.25H13.25" stroke="black" stroke-width="1.5" stroke-linecap="round" stroke-linejoin="round" fill="none"></path></svg>