<svg xmlns="http://www.w3.org/2000/svg" xmlns:xlink="http://www.w3.org/1999/xlink" x="0px" y="0px" width="18px" height="18px" viewBox="0 0 18 18"><path d="M13.25 3H4.75C3.7835 3 3 3.7835 3 4.75V13.25C3 14.2165 3.7835 15 4.75 15H13.25C14.2165 15 15 14.2165 15 13.25V4.75C15 3.7835 14.2165 3 13.25 3Z" fill="#000" fill-opacity="0.3" data-color="color-2" data-stroke="none"></path> <path d="M5.75 9H12.25" stroke="black" stroke-width="1.5" stroke-linecap="round" stroke-linejoin="round" fill="none"></path> <path d="M9 5.75V12.25" stroke="black" stroke-width="1.5" stroke-linecap="round" stroke-linejoin="round" fill="none"></path> <path d="M2.75 6.75V4.75C2.75 3.645 3.645 2.75 4.75 2.75H6.75" stroke="black" stroke-width="1.5" stroke-linecap="round" stroke-linejoin="round" fill="none"></path> <path d="M11.25 2.75H13.25C14.355 2.75 15.25 3.645 15.25 4.75V6.75" stroke="black" stroke-width="1.5" stroke-linecap="round" stroke-linejoin="round" fill="none"></path> <path d="M15.25 11.25V13.25C15.25 14.355 14.355 15.25 13.25 15.25H11.25" stroke="black" stroke-width="1.5" stroke-linecap="round" stroke-linejoin="round" fill="none"></path> <path d="M6.75 15.25H4.75C3.645 15.25 2.75 14.355 2.75 13.25V11.25" stroke="black" stroke-width="1.5" stroke-linecap="round" stroke-linejoin="round" fill="none"></path></svg>