<svg xmlns="http://www.w3.org/2000/svg" xmlns:xlink="http://www.w3.org/1999/xlink" x="0px" y="0px" width="18px" height="18px" viewBox="0 0 18 18"><path d="M14.25 2.75H8.25C7.14543 2.75 6.25 3.64543 6.25 4.75V13.25C6.25 14.3546 7.14543 15.25 8.25 15.25H14.25C15.3546 15.25 16.25 14.3546 16.25 13.25V4.75C16.25 3.64543 15.3546 2.75 14.25 2.75Z" fill="#000" fill-opacity="0.3" data-color="color-2" data-stroke="none"></path> <path d="M8 15.25H3.75C2.645 15.25 1.75 14.355 1.75 13.25V4.75C1.75 3.645 2.645 2.75 3.75 2.75H8" stroke="black" stroke-width="1.5" stroke-linecap="round" stroke-linejoin="round" fill="none"></path> <path d="M14.25 2.75H8.25C7.14543 2.75 6.25 3.64543 6.25 4.75V13.25C6.25 14.3546 7.14543 15.25 8.25 15.25H14.25C15.3546 15.25 16.25 14.3546 16.25 13.25V4.75C16.25 3.64543 15.3546 2.75 14.25 2.75Z" stroke="black" stroke-width="1.5" stroke-linecap="round" stroke-linejoin="round" fill="none"></path></svg>