<svg xmlns="http://www.w3.org/2000/svg" xmlns:xlink="http://www.w3.org/1999/xlink" x="0px" y="0px" width="18px" height="18px" viewBox="0 0 18 18"><path opacity="0.3" d="M9.25 2.75H13.25C14.355 2.75 15.25 3.65 15.25 4.75V13.25C15.25 14.35 14.355 15.25 13.25 15.25H9.25V2.75Z" fill="#000" data-color="color-2" data-stroke="none"></path> <path d="M1.25 11L5.25 7" stroke="black" stroke-width="1.5" stroke-linecap="round" stroke-linejoin="round" fill="none"></path> <path d="M1.25 7L5.25 11" stroke="black" stroke-width="1.5" stroke-linecap="round" stroke-linejoin="round" fill="none"></path> <path d="M9.25 2.75V15.25" stroke="black" stroke-width="1.5" stroke-linecap="round" stroke-linejoin="round" fill="none"></path> <path d="M3 13.25C3 14.36 3.896 15.25 5 15.25H13.25C14.354 15.25 15.25 14.36 15.25 13.25V4.75C15.25 3.64 14.354 2.75 13.25 2.75H5C3.896 2.75 3 3.64 3 4.75" stroke="black" stroke-width="1.5" stroke-linecap="round" stroke-linejoin="round" fill="none"></path></svg>