<svg xmlns="http://www.w3.org/2000/svg" xmlns:xlink="http://www.w3.org/1999/xlink" x="0px" y="0px" width="18px" height="18px" viewBox="0 0 18 18"><path opacity="0.3" d="M15.25 8.75V4.75C15.25 3.645 14.35 2.75 13.25 2.75H4.75C3.65 2.75 2.75 3.645 2.75 4.75V8.75H15.25Z" fill="#000" data-color="color-2" data-stroke="none"></path> <path d="M15.25 8.75H2.75" stroke="black" stroke-width="1.5" stroke-linecap="round" stroke-linejoin="round" fill="none"></path> <path d="M9 17.25V12.25" stroke="black" stroke-width="1.5" stroke-linecap="round" stroke-linejoin="round" fill="none"></path> <path d="M11.5 14.75H6.5" stroke="black" stroke-width="1.5" stroke-linecap="round" stroke-linejoin="round" fill="none"></path> <path d="M3.51711 14.5649C3.05181 14.2002 2.75 13.637 2.75 13V4.75C2.75 3.646 3.6401 2.75 4.75 2.75H13.25C14.3599 2.75 15.25 3.646 15.25 4.75V13C15.25 13.6371 14.9482 14.2004 14.4829 14.5651" stroke="black" stroke-width="1.5" stroke-linecap="round" stroke-linejoin="round" fill="none"></path></svg>