<svg xmlns="http://www.w3.org/2000/svg" xmlns:xlink="http://www.w3.org/1999/xlink" x="0px" y="0px" width="18px" height="18px" viewBox="0 0 18 18"><path fill-rule="evenodd" clip-rule="evenodd" d="M13.25 2.75C14.3546 2.75 15.25 3.64543 15.25 4.75V13.25C15.25 14.3546 14.3546 15.25 13.25 15.25H4.75C3.64543 15.25 2.75 14.3546 2.75 13.25V4.75C2.75 3.64543 3.64543 2.75 4.75 2.75H13.25ZM10.75 9C10.75 9.9665 9.9665 10.75 9 10.75C8.0335 10.75 7.25 9.9665 7.25 9C7.25 8.0335 8.0335 7.25 9 7.25C9.9665 7.25 10.75 8.0335 10.75 9Z" fill="#000" fill-opacity="0.3" data-color="color-2" data-stroke="none"></path> <path d="M15.25 13.25V4.75C15.25 3.64543 14.3546 2.75 13.25 2.75L4.75 2.75C3.64543 2.75 2.75 3.64543 2.75 4.75V13.25C2.75 14.3546 3.64543 15.25 4.75 15.25H13.25C14.3546 15.25 15.25 14.3546 15.25 13.25Z" stroke="black" stroke-width="1.5" stroke-linecap="round" stroke-linejoin="round" fill="none"></path> <path d="M9 5.75V7" stroke="black" stroke-width="1.5" stroke-linecap="round" stroke-linejoin="round" fill="none"></path> <path d="M11.298 6.70203L10.414 7.58603" stroke="black" stroke-width="1.5" stroke-linecap="round" stroke-linejoin="round" fill="none"></path> <path d="M12.25 9H11" stroke="black" stroke-width="1.5" stroke-linecap="round" stroke-linejoin="round" fill="none"></path> <path d="M11.298 11.298L10.414 10.414" stroke="black" stroke-width="1.5" stroke-linecap="round" stroke-linejoin="round" fill="none"></path> <path d="M9 12.25V11" stroke="black" stroke-width="1.5" stroke-linecap="round" stroke-linejoin="round" fill="none"></path> <path d="M6.702 11.298L7.586 10.414" stroke="black" stroke-width="1.5" stroke-linecap="round" stroke-linejoin="round" fill="none"></path> <path d="M5.75 9H7" stroke="black" stroke-width="1.5" stroke-linecap="round" stroke-linejoin="round" fill="none"></path> <path d="M6.702 6.70203L7.586 7.58603" stroke="black" stroke-width="1.5" stroke-linecap="round" stroke-linejoin="round" fill="none"></path> <path d="M9 10.75C9.9665 10.75 10.75 9.9665 10.75 9C10.75 8.0335 9.9665 7.25 9 7.25C8.0335 7.25 7.25 8.0335 7.25 9C7.25 9.9665 8.0335 10.75 9 10.75Z" stroke="black" stroke-width="1.5" stroke-linecap="round" stroke-linejoin="round" fill="none"></path></svg>