<svg xmlns="http://www.w3.org/2000/svg" xmlns:xlink="http://www.w3.org/1999/xlink" x="0px" y="0px" width="18px" height="18px" viewBox="0 0 18 18"><path d="M14.25 8.75H3.75C2.09315 8.75 0.75 10.0931 0.75 11.75C0.75 13.4069 2.09315 14.75 3.75 14.75H14.25C15.9069 14.75 17.25 13.4069 17.25 11.75C17.25 10.0931 15.9069 8.75 14.25 8.75Z" fill="#000" fill-opacity="0.3" data-color="color-2" data-stroke="none"></path> <path d="M9.40401 5.052L11.161 2.522C11.387 2.196 11.154 1.75 10.757 1.75H7.24401C6.84701 1.75 6.61401 2.196 6.84001 2.522L8.59701 5.052C8.79301 5.334 9.20801 5.334 9.40401 5.052Z" fill="#000" fill-opacity="0.3" data-color="color-2" data-stroke="none"></path> <path d="M3.75 11.75H9" stroke="black" stroke-width="1.5" stroke-linecap="round" stroke-linejoin="round" fill="none"></path> <path d="M14.25 8.75H3.75C2.09315 8.75 0.75 10.0931 0.75 11.75C0.75 13.4069 2.09315 14.75 3.75 14.75H14.25C15.9069 14.75 17.25 13.4069 17.25 11.75C17.25 10.0931 15.9069 8.75 14.25 8.75Z" stroke="black" stroke-width="1.5" stroke-linecap="round" stroke-linejoin="round" fill="none"></path> <path d="M9.40401 5.052L11.161 2.522C11.387 2.196 11.154 1.75 10.757 1.75H7.24401C6.84701 1.75 6.61401 2.196 6.84001 2.522L8.59701 5.052C8.79301 5.334 9.20801 5.334 9.40401 5.052Z" stroke="black" stroke-width="1.5" stroke-linecap="round" stroke-linejoin="round" fill="none"></path></svg>