<svg xmlns="http://www.w3.org/2000/svg" xmlns:xlink="http://www.w3.org/1999/xlink" x="0px" y="0px" width="18px" height="18px" viewBox="0 0 18 18"><path d="M14.25 5.25H3.75C3.19772 5.25 2.75 5.69772 2.75 6.25V11.75C2.75 12.3023 3.19772 12.75 3.75 12.75H14.25C14.8023 12.75 15.25 12.3023 15.25 11.75V6.25C15.25 5.69772 14.8023 5.25 14.25 5.25Z" fill="#000" fill-opacity="0.3" data-color="color-2" data-stroke="none"></path> <path d="M14.25 5.25H3.75C3.19772 5.25 2.75 5.69772 2.75 6.25V11.75C2.75 12.3023 3.19772 12.75 3.75 12.75H14.25C14.8023 12.75 15.25 12.3023 15.25 11.75V6.25C15.25 5.69772 14.8023 5.25 14.25 5.25Z" stroke="black" stroke-width="1.5" stroke-linecap="round" stroke-linejoin="round" fill="none"></path> <path d="M2.75 2.25H15.25" stroke="black" stroke-width="1.5" stroke-linecap="round" stroke-linejoin="round" fill="none"></path> <path d="M2.75 15.75H15.25" stroke="black" stroke-width="1.5" stroke-linecap="round" stroke-linejoin="round" fill="none"></path></svg>