<svg xmlns="http://www.w3.org/2000/svg" xmlns:xlink="http://www.w3.org/1999/xlink" x="0px" y="0px" width="18px" height="18px" viewBox="0 0 18 18"><path opacity="0.3" d="M13.605 4.75L13.099 14.35C13.043 15.4201 12.165 16.25 11.102 16.25H6.89703C5.83303 16.25 4.95602 15.42 4.90002 14.35L4.39404 4.75" fill="#000" data-color="color-2" data-stroke="none"></path> <path d="M2.75 4.75H15.25" stroke="black" stroke-width="1.5" stroke-linecap="round" stroke-linejoin="round" fill="none"></path> <path d="M6.75 4.75V2.75C6.75 2.2 7.198 1.75 7.75 1.75H10.25C10.802 1.75 11.25 2.2 11.25 2.75V4.75" stroke="black" stroke-width="1.5" stroke-linecap="round" stroke-linejoin="round" fill="none"></path> <path d="M13.8557 4.75L13.35 14.35C13.294 15.4201 12.416 16.25 11.353 16.25H6.64798C5.58398 16.25 4.70697 15.42 4.65097 14.35L4.14526 4.75" stroke="black" stroke-width="1.5" stroke-linecap="round" stroke-linejoin="round" fill="none"></path> <path d="M7.32495 8L7.59213 13.25" stroke="black" stroke-width="1.5" stroke-linecap="round" stroke-linejoin="round" fill="none"></path> <path d="M10.675 8L10.4078 13.25" stroke="black" stroke-width="1.5" stroke-linecap="round" stroke-linejoin="round" fill="none"></path></svg>