<svg xmlns="http://www.w3.org/2000/svg" xmlns:xlink="http://www.w3.org/1999/xlink" x="0px" y="0px" width="18px" height="18px" viewBox="0 0 18 18"><path d="m3.25,15.25h11.5c.2761,0,.5-.2239.5-.5v-2.5c0-.2761-.2239-.5-.5-.5H3.25c-.2761,0-.5.2239-.5.5v2.5c0,.2761.2239.5.5.5Z" fill="#000" opacity=".3" stroke-width="0" data-color="color-2"></path><path d="m3.75,15.25h10.5c.5523,0,1-.4477,1-1v-1.5c0-.5523-.4477-1-1-1H3.75c-.5523,0-1,.4477-1,1v1.5c0,.5523.4477,1,1,1Z" fill="none" stroke="#000" stroke-linecap="round" stroke-linejoin="round" stroke-width="1.5"></path><path d="m2.75,9.75c.4142,0,.75-.3358.75-.75s-.3358-.75-.75-.75-.75.3358-.75.75.3358.75.75.75Z" stroke-width="0" fill="#000"></path><path d="m15.25,9.75c.4142,0,.75-.3358.75-.75s-.3358-.75-.75-.75-.75.3358-.75.75.3358.75.75.75Z" stroke-width="0" fill="#000"></path><path d="m9,3.5c.4142,0,.75-.3358.75-.75s-.3358-.75-.75-.75-.75.3358-.75.75.3358.75.75.75Z" stroke-width="0" fill="#000"></path><path d="m15.25,6.625c.4142,0,.75-.3358.75-.75s-.3358-.75-.75-.75-.75.3358-.75.75.3358.75.75.75Z" stroke-width="0" fill="#000"></path><path d="m15.25,3.5c.4142,0,.75-.3358.75-.75s-.3358-.75-.75-.75-.75.3358-.75.75.3358.75.75.75Z" stroke-width="0" fill="#000"></path><path d="m2.75,6.625c.4142,0,.75-.3358.75-.75s-.3358-.75-.75-.75-.75.3358-.75.75.3358.75.75.75Z" stroke-width="0" fill="#000"></path><path d="m2.75,3.5c.4142,0,.75-.3358.75-.75s-.3358-.75-.75-.75-.75.3358-.75.75.3358.75.75.75Z" stroke-width="0" fill="#000"></path><path d="m5.875,3.5c.4142,0,.75-.3358.75-.75s-.3358-.75-.75-.75-.75.3358-.75.75.3358.75.75.75Z" stroke-width="0" fill="#000"></path><path d="m12.125,3.5c.4142,0,.75-.3358.75-.75s-.3358-.75-.75-.75-.75.3358-.75.75.3358.75.75.75Z" stroke-width="0" fill="#000"></path></svg>