<svg xmlns="http://www.w3.org/2000/svg" xmlns:xlink="http://www.w3.org/1999/xlink" x="0px" y="0px" width="18px" height="18px" viewBox="0 0 18 18"><path opacity="0.3" d="M3.75 2.25H7.25V15.75H3.75C3.1981 15.75 2.75 15.3019 2.75 14.75V3.25C2.75 2.6981 3.1981 2.25 3.75 2.25Z" fill="#000" data-color="color-2" data-stroke="none"></path> <path d="M3.75 15.75L14.25 15.75C14.8023 15.75 15.25 15.3023 15.25 14.75L15.25 3.25C15.25 2.69771 14.8023 2.25 14.25 2.25L3.75 2.25C3.19771 2.25 2.75 2.69771 2.75 3.25L2.75 14.75C2.75 15.3023 3.19771 15.75 3.75 15.75Z" stroke="black" stroke-width="1.5" stroke-linecap="round" stroke-linejoin="round" fill="none"></path> <path d="M7.25 15.75V2.25" stroke="black" stroke-width="1.5" stroke-linecap="round" stroke-linejoin="round" fill="none"></path> <path d="M15 11.25H7.5" stroke="black" stroke-width="1.5" stroke-linecap="round" stroke-linejoin="round" fill="none"></path> <path d="M15 6.75H7.5" stroke="black" stroke-width="1.5" stroke-linecap="round" stroke-linejoin="round" fill="none"></path></svg>