<svg xmlns="http://www.w3.org/2000/svg" xmlns:xlink="http://www.w3.org/1999/xlink" x="0px" y="0px" width="18px" height="18px" viewBox="0 0 18 18"><path d="M14.75 3.75H3.25C2.42157 3.75 1.75 4.42157 1.75 5.25V6.75C1.75 7.57843 2.42157 8.25 3.25 8.25H14.75C15.5784 8.25 16.25 7.57843 16.25 6.75V5.25C16.25 4.42157 15.5784 3.75 14.75 3.75Z" fill="#000" fill-opacity="0.3" data-color="color-2" data-stroke="none"></path> <path d="M9 11.25V16.25" stroke="black" stroke-width="1.5" stroke-linecap="round" stroke-linejoin="round" fill="none"></path> <path d="M11.5 13.75H6.5" stroke="black" stroke-width="1.5" stroke-linecap="round" stroke-linejoin="round" fill="none"></path> <path d="M14.75 3.75H3.25C2.42157 3.75 1.75 4.42157 1.75 5.25V6.75C1.75 7.57843 2.42157 8.25 3.25 8.25H14.75C15.5784 8.25 16.25 7.57843 16.25 6.75V5.25C16.25 4.42157 15.5784 3.75 14.75 3.75Z" stroke="black" stroke-width="1.5" stroke-linecap="round" stroke-linejoin="round" fill="none"></path></svg>