<svg xmlns="http://www.w3.org/2000/svg" xmlns:xlink="http://www.w3.org/1999/xlink" x="0px" y="0px" width="18px" height="18px" viewBox="0 0 18 18"><path opacity="0.3" d="M8.75 15.25H4.75C3.645 15.25 2.75 14.35 2.75 13.25V4.75C2.75 3.65 3.645 2.75 4.75 2.75H8.75V15.25Z" fill="#000" data-color="color-2" data-stroke="none"></path> <path d="M8.75 15.25V2.75" stroke="black" stroke-width="1.5" stroke-linecap="round" stroke-linejoin="round" fill="none"></path> <path d="M14.75 6.5L17.25 9L14.75 11.5" stroke="black" stroke-width="1.5" stroke-linecap="round" stroke-linejoin="round" fill="none"></path> <path d="M17.25 9H11.75" stroke="black" stroke-width="1.5" stroke-linecap="round" stroke-linejoin="round" fill="none"></path> <path d="M14.5692 3.51758C14.2041 3.05028 13.639 2.75 13 2.75H4.75C3.646 2.75 2.75 3.6401 2.75 4.75V13.25C2.75 14.3599 3.646 15.25 4.75 15.25H13C13.639 15.25 14.2034 14.9497 14.5687 14.4824" stroke="black" stroke-width="1.5" stroke-linecap="round" stroke-linejoin="round" fill="none"></path></svg>