<svg xmlns="http://www.w3.org/2000/svg" xmlns:xlink="http://www.w3.org/1999/xlink" x="0px" y="0px" width="18px" height="18px" viewBox="0 0 18 18"><path d="M12.75 14.25V3.75C12.75 3.19772 12.3023 2.75 11.75 2.75L6.25 2.75C5.69772 2.75 5.25 3.19772 5.25 3.75L5.25 14.25C5.25 14.8023 5.69772 15.25 6.25 15.25H11.75C12.3023 15.25 12.75 14.8023 12.75 14.25Z" fill="#000" fill-opacity="0.3" data-color="color-2" data-stroke="none"></path> <path d="M12.75 14.25V3.75C12.75 3.19772 12.3023 2.75 11.75 2.75L6.25 2.75C5.69772 2.75 5.25 3.19772 5.25 3.75L5.25 14.25C5.25 14.8023 5.69772 15.25 6.25 15.25H11.75C12.3023 15.25 12.75 14.8023 12.75 14.25Z" stroke="black" stroke-width="1.5" stroke-linecap="round" stroke-linejoin="round" fill="none"></path> <path d="M15.75 2.75V15.25" stroke="black" stroke-width="1.5" stroke-linecap="round" stroke-linejoin="round" fill="none"></path> <path d="M2.25 2.75V15.25" stroke="black" stroke-width="1.5" stroke-linecap="round" stroke-linejoin="round" fill="none"></path></svg>