<svg xmlns="http://www.w3.org/2000/svg" xmlns:xlink="http://www.w3.org/1999/xlink" x="0px" y="0px" width="18px" height="18px" viewBox="0 0 18 18"><path d="M4.25 2.75H3.75C2.64543 2.75 1.75 3.64543 1.75 4.75V13.25C1.75 14.3546 2.64543 15.25 3.75 15.25H4.25C5.35457 15.25 6.25 14.3546 6.25 13.25V4.75C6.25 3.64543 5.35457 2.75 4.25 2.75Z" fill="#000" fill-opacity="0.3" data-color="color-2" data-stroke="none"></path> <path d="M4 2.75H14.25C15.355 2.75 16.25 3.645 16.25 4.75V13.25C16.25 14.355 15.355 15.25 14.25 15.25H4" stroke="black" stroke-width="1.5" stroke-linecap="round" stroke-linejoin="round" fill="none"></path> <path d="M4.25 2.75H3.75C2.64543 2.75 1.75 3.64543 1.75 4.75V13.25C1.75 14.3546 2.64543 15.25 3.75 15.25H4.25C5.35457 15.25 6.25 14.3546 6.25 13.25V4.75C6.25 3.64543 5.35457 2.75 4.25 2.75Z" stroke="black" stroke-width="1.5" stroke-linecap="round" stroke-linejoin="round" fill="none"></path></svg>