<svg xmlns="http://www.w3.org/2000/svg" xmlns:xlink="http://www.w3.org/1999/xlink" x="0px" y="0px" width="18px" height="18px" viewBox="0 0 18 18"><path d="M5.25 2.75H3.75C2.64543 2.75 1.75 3.64543 1.75 4.75V13.25C1.75 14.3546 2.64543 15.25 3.75 15.25H5.25C6.35457 15.25 7.25 14.3546 7.25 13.25V4.75C7.25 3.64543 6.35457 2.75 5.25 2.75Z" fill="#000" fill-opacity="0.3" data-color="color-2" data-stroke="none"></path> <path d="M5.25 2.75H3.75C2.64543 2.75 1.75 3.64543 1.75 4.75V13.25C1.75 14.3546 2.64543 15.25 3.75 15.25H5.25C6.35457 15.25 7.25 14.3546 7.25 13.25V4.75C7.25 3.64543 6.35457 2.75 5.25 2.75Z" stroke="black" stroke-width="1.5" stroke-linecap="round" stroke-linejoin="round" fill="none"></path> <path d="M10.75 5V4.25C10.75 3.422 11.422 2.75 12.25 2.75" stroke="black" stroke-width="1.5" stroke-linecap="round" stroke-linejoin="round" fill="none"></path> <path d="M10.75 10.25V7.75" stroke="black" stroke-width="1.5" stroke-linecap="round" stroke-linejoin="round" fill="none"></path> <path d="M12.25 15.25C11.422 15.25 10.75 14.578 10.75 13.75V13" stroke="black" stroke-width="1.5" stroke-linecap="round" stroke-linejoin="round" fill="none"></path> <path d="M16.25 5V4.25C16.25 3.422 15.578 2.75 14.75 2.75" stroke="black" stroke-width="1.5" stroke-linecap="round" stroke-linejoin="round" fill="none"></path> <path d="M16.25 10.25V7.75" stroke="black" stroke-width="1.5" stroke-linecap="round" stroke-linejoin="round" fill="none"></path> <path d="M14.75 15.25C15.578 15.25 16.25 14.578 16.25 13.75V13" stroke="black" stroke-width="1.5" stroke-linecap="round" stroke-linejoin="round" fill="none"></path></svg>