<svg xmlns="http://www.w3.org/2000/svg" xmlns:xlink="http://www.w3.org/1999/xlink" x="0px" y="0px" width="18px" height="18px" viewBox="0 0 18 18"><path d="M11.75 7.25L14.75 7.25C15.3023 7.25 15.75 6.80228 15.75 6.25V3.25C15.75 2.69772 15.3023 2.25 14.75 2.25L11.75 2.25C11.1977 2.25 10.75 2.69772 10.75 3.25V6.25C10.75 6.80228 11.1977 7.25 11.75 7.25Z" fill="#000" fill-opacity="0.3" data-color="color-2" data-stroke="none"></path> <path d="M11.75 15.75H14.75C15.3023 15.75 15.75 15.3023 15.75 14.75V11.75C15.75 11.1977 15.3023 10.75 14.75 10.75H11.75C11.1977 10.75 10.75 11.1977 10.75 11.75V14.75C10.75 15.3023 11.1977 15.75 11.75 15.75Z" fill="#000" fill-opacity="0.3" data-color="color-2" data-stroke="none"></path> <path d="M3.25 7.25L6.25 7.25C6.80228 7.25 7.25 6.80228 7.25 6.25L7.25 3.25C7.25 2.69772 6.80228 2.25 6.25 2.25L3.25 2.25C2.69772 2.25 2.25 2.69772 2.25 3.25L2.25 6.25C2.25 6.80228 2.69772 7.25 3.25 7.25Z" fill="#000" fill-opacity="0.3" data-color="color-2" data-stroke="none"></path> <path d="M11.75 7.25L14.75 7.25C15.3023 7.25 15.75 6.80228 15.75 6.25V3.25C15.75 2.69772 15.3023 2.25 14.75 2.25L11.75 2.25C11.1977 2.25 10.75 2.69772 10.75 3.25V6.25C10.75 6.80228 11.1977 7.25 11.75 7.25Z" stroke="black" stroke-width="1.5" stroke-linecap="round" stroke-linejoin="round" fill="none"></path> <path d="M11.75 15.75H14.75C15.3023 15.75 15.75 15.3023 15.75 14.75V11.75C15.75 11.1977 15.3023 10.75 14.75 10.75H11.75C11.1977 10.75 10.75 11.1977 10.75 11.75V14.75C10.75 15.3023 11.1977 15.75 11.75 15.75Z" stroke="black" stroke-width="1.5" stroke-linecap="round" stroke-linejoin="round" fill="none"></path> <path d="M3.25 7.25L6.25 7.25C6.80228 7.25 7.25 6.80228 7.25 6.25L7.25 3.25C7.25 2.69772 6.80228 2.25 6.25 2.25L3.25 2.25C2.69772 2.25 2.25 2.69772 2.25 3.25L2.25 6.25C2.25 6.80228 2.69772 7.25 3.25 7.25Z" stroke="black" stroke-width="1.5" stroke-linecap="round" stroke-linejoin="round" fill="none"></path> <path d="M7.25 12V11.75C7.25 11.198 6.802 10.75 6.25 10.75H6" stroke="black" stroke-width="1.5" stroke-linecap="round" stroke-linejoin="round" fill="none"></path> <path d="M6 15.75H6.25C6.802 15.75 7.25 15.302 7.25 14.75V14.5" stroke="black" stroke-width="1.5" stroke-linecap="round" stroke-linejoin="round" fill="none"></path> <path d="M2.25 14.5V14.75C2.25 15.302 2.698 15.75 3.25 15.75H3.5" stroke="black" stroke-width="1.5" stroke-linecap="round" stroke-linejoin="round" fill="none"></path> <path d="M3.5 10.75H3.25C2.698 10.75 2.25 11.198 2.25 11.75V12" stroke="black" stroke-width="1.5" stroke-linecap="round" stroke-linejoin="round" fill="none"></path></svg>