<svg xmlns="http://www.w3.org/2000/svg" xmlns:xlink="http://www.w3.org/1999/xlink" x="0px" y="0px" width="18px" height="18px" viewBox="0 0 18 18"><path opacity="0.3" d="M2 7C2 5.895 2.8954 5 4 5H9.25C10.3546 5 11.25 5.895 11.25 7V11C11.25 12.105 10.3546 13 9.25 13H4C2.8954 13 2 12.105 2 11V7Z" fill="#000" data-color="color-2" data-stroke="none"></path> <path d="M10.75 13.25H3.75C2.645 13.25 1.75 12.355 1.75 11.25V6.75C1.75 5.645 2.645 4.75 3.75 4.75H10.75" stroke="black" stroke-width="1.5" stroke-linecap="round" stroke-linejoin="round" fill="none"></path> <path d="M13.75 4.75H14.25C15.355 4.75 16.25 5.645 16.25 6.75V11.25C16.25 12.355 15.355 13.25 14.25 13.25H13.75" stroke="black" stroke-width="1.5" stroke-linecap="round" stroke-linejoin="round" fill="none"></path> <path d="M10.75 3.75V14.25" stroke="black" stroke-width="1.5" stroke-linecap="round" stroke-linejoin="round" fill="none"></path> <path d="M8.75 1.75C9.855 1.75 10.75 2.645 10.75 3.75" stroke="black" stroke-width="1.5" stroke-linecap="round" stroke-linejoin="round" fill="none"></path> <path d="M12.75 1.75C11.645 1.75 10.75 2.645 10.75 3.75" stroke="black" stroke-width="1.5" stroke-linecap="round" stroke-linejoin="round" fill="none"></path> <path d="M8.75 16.25C9.855 16.25 10.75 15.355 10.75 14.25" stroke="black" stroke-width="1.5" stroke-linecap="round" stroke-linejoin="round" fill="none"></path> <path d="M12.75 16.25C11.645 16.25 10.75 15.355 10.75 14.25" stroke="black" stroke-width="1.5" stroke-linecap="round" stroke-linejoin="round" fill="none"></path> <path d="M9.25 9.75H12.25" stroke="black" stroke-width="1.5" stroke-linecap="round" stroke-linejoin="round" fill="none"></path></svg>