<svg xmlns="http://www.w3.org/2000/svg" xmlns:xlink="http://www.w3.org/1999/xlink" x="0px" y="0px" width="18px" height="18px" viewBox="0 0 18 18"><path opacity="0.3" d="M6.25 15.25H11.75C12.302 15.25 12.75 14.802 12.75 14.25V3.75C12.75 3.198 12.302 2.75 11.75 2.75H6.25C5.698 2.75 5.25 3.198 5.25 3.75V14.25C5.25 14.802 5.698 15.25 6.25 15.25Z" fill="#000" data-color="color-2" data-stroke="none"></path> <path d="M6.25 15.25H11.75C12.302 15.25 12.75 14.802 12.75 14.25V3.75C12.75 3.198 12.302 2.75 11.75 2.75H6.25C5.698 2.75 5.25 3.198 5.25 3.75V14.25C5.25 14.802 5.698 15.25 6.25 15.25Z" stroke="black" stroke-width="1.5" stroke-linecap="round" stroke-linejoin="round" fill="none"></path> <path d="M2.75 4.17769L2.44701 4.0478C2.11701 3.9069 1.75 4.1489 1.75 4.508V13.4909C1.75 13.85 2.11701 14.092 2.44701 13.9509L2.75 13.8213" stroke="black" stroke-width="1.5" stroke-linecap="round" stroke-linejoin="round" fill="none"></path> <path d="M15.25 4.17769L15.553 4.0478C15.883 3.9069 16.25 4.1489 16.25 4.508V13.4909C16.25 13.85 15.883 14.092 15.553 13.9509L15.25 13.8213" stroke="black" stroke-width="1.5" stroke-linecap="round" stroke-linejoin="round" fill="none"></path></svg>