<svg xmlns="http://www.w3.org/2000/svg" xmlns:xlink="http://www.w3.org/1999/xlink" x="0px" y="0px" width="18px" height="18px" viewBox="0 0 18 18"><path d="m3.75,2.75h2.5v12.5h-2.5c-1.1038,0-2-.8962-2-2V4.75c0-1.1038.8962-2,2-2Z" fill="#000" opacity=".3" stroke-width="0" data-color="color-2"></path><line x1="6.25" y1="2.75" x2="6.25" y2="15.25" fill="none" stroke="#000" stroke-linecap="round" stroke-linejoin="round" stroke-width="1.5"></line><path d="m16.25,7.1675v-2.4175c0-1.1045-.8954-2-2-2H3.75c-1.1046,0-2,.8955-2,2v8.5c0,1.1045.8954,2,2,2h3.9156" fill="none" stroke="#000" stroke-linecap="round" stroke-linejoin="round" stroke-width="1.5"></path><path d="m13.2959,15.4542l3.1612-3.1612c.3905-.3905.3905-1.0237,0-1.4142l-.5858-.5858c-.3905-.3905-1.0237-.3905-1.4142,0l-3.1612,3.1612-.7958,2.7959,2.7959-.7958Z" fill="#000" opacity=".3" stroke-width="0" data-color="color-2"></path><path d="m13.2959,15.4542l3.1612-3.1612c.3905-.3905.3905-1.0237,0-1.4142l-.5858-.5858c-.3905-.3905-1.0237-.3905-1.4142,0l-3.1612,3.1612-.7958,2.7959,2.7959-.7958Z" fill="none" stroke="#000" stroke-linecap="round" stroke-linejoin="round" stroke-width="1.5"></path></svg>