<svg xmlns="http://www.w3.org/2000/svg" xmlns:xlink="http://www.w3.org/1999/xlink" x="0px" y="0px" width="18px" height="18px" viewBox="0 0 18 18"><path d="M14.25 7.75H3.75C3.19772 7.75 2.75 8.19772 2.75 8.75V14.25C2.75 14.8023 3.19772 15.25 3.75 15.25H14.25C14.8023 15.25 15.25 14.8023 15.25 14.25V8.75C15.25 8.19772 14.8023 7.75 14.25 7.75Z" fill="#000" fill-opacity="0.3" data-color="color-2" data-stroke="none"></path> <path d="M14.25 7.75H3.75C3.19772 7.75 2.75 8.19772 2.75 8.75V14.25C2.75 14.8023 3.19772 15.25 3.75 15.25H14.25C14.8023 15.25 15.25 14.8023 15.25 14.25V8.75C15.25 8.19772 14.8023 7.75 14.25 7.75Z" stroke="black" stroke-width="1.5" stroke-linecap="round" stroke-linejoin="round" fill="none"></path> <path d="M5.75 1.75H12.25" stroke="black" stroke-width="1.5" stroke-linecap="round" stroke-linejoin="round" fill="none"></path> <path d="M4.25 4.75H13.75" stroke="black" stroke-width="1.5" stroke-linecap="round" stroke-linejoin="round" fill="none"></path></svg>