<svg xmlns="http://www.w3.org/2000/svg" xmlns:xlink="http://www.w3.org/1999/xlink" x="0px" y="0px" width="18px" height="18px" viewBox="0 0 18 18"><path d="m11.2981,6.7019l2.8284-2.8284c-1.312-1.312-3.1245-2.1235-5.1265-2.1235v4c.8975,0,1.71.3638,2.2981.9519Z" fill="#000" opacity=".3" stroke-width="0" data-color="color-2"></path><path d="m11.2981,11.2981l2.8284,2.8284c1.312-1.312,2.1235-3.1245,2.1235-5.1265h-4c0,.8975-.3638,1.71-.9519,2.2981Z" fill="#000" opacity=".3" stroke-width="0" data-color="color-2"></path><path d="m6.7019,11.2981l-2.8284,2.8284c1.312,1.312,3.1245,2.1235,5.1265,2.1235v-4c-.8975,0-1.71-.3638-2.2981-.9519Z" fill="#000" opacity=".3" stroke-width="0" data-color="color-2"></path><path d="m6.7019,6.7019l-2.8284-2.8284c-1.312,1.312-2.1235,3.1245-2.1235,5.1265h4c0-.8975.3638-1.71.9519-2.2981Z" fill="#000" opacity=".3" stroke-width="0" data-color="color-2"></path><circle cx="9" cy="9" r="7.25" fill="none" stroke="#000" stroke-linecap="round" stroke-linejoin="round" stroke-width="1.5"></circle><circle cx="9" cy="9" r="3.25" fill="none" stroke="#000" stroke-linecap="round" stroke-linejoin="round" stroke-width="1.5"></circle><line x1="9" y1="1.75" x2="9" y2="5.75" fill="none" stroke="#000" stroke-linecap="round" stroke-linejoin="round" stroke-width="1.5"></line><line x1="9" y1="12.25" x2="9" y2="16.25" fill="none" stroke="#000" stroke-linecap="round" stroke-linejoin="round" stroke-width="1.5"></line><line x1="16.25" y1="9" x2="12.25" y2="9" fill="none" stroke="#000" stroke-linecap="round" stroke-linejoin="round" stroke-width="1.5"></line><line x1="5.75" y1="9" x2="1.75" y2="9" fill="none" stroke="#000" stroke-linecap="round" stroke-linejoin="round" stroke-width="1.5"></line><line x1="14.1265" y1="14.1265" x2="11.2981" y2="11.2981" fill="none" stroke="#000" stroke-linecap="round" stroke-linejoin="round" stroke-width="1.5"></line><line x1="6.7019" y1="6.7019" x2="3.8735" y2="3.8735" fill="none" stroke="#000" stroke-linecap="round" stroke-linejoin="round" stroke-width="1.5"></line><line x1="14.1265" y1="3.8735" x2="11.2981" y2="6.7019" fill="none" stroke="#000" stroke-linecap="round" stroke-linejoin="round" stroke-width="1.5"></line><line x1="6.7019" y1="11.2981" x2="3.8735" y2="14.1265" fill="none" stroke="#000" stroke-linecap="round" stroke-linejoin="round" stroke-width="1.5"></line></svg>