<svg xmlns="http://www.w3.org/2000/svg" xmlns:xlink="http://www.w3.org/1999/xlink" x="0px" y="0px" width="20px" height="20px" viewBox="0 0 20 20"><line x1="13.8571" y1="13" x2="6.1429" y2="13" fill="none" stroke="#000" stroke-linecap="round" stroke-linejoin="round" stroke-width="2"></line><path d="m15,16l-2.6518-6.9609" fill="none" stroke="#000" stroke-linecap="round" stroke-linejoin="round" stroke-width="2"></path><line x1="9.5714" y1="4" x2="5" y2="16" fill="none" stroke="#000" stroke-linecap="round" stroke-linejoin="round" stroke-width="2"></line><path d="m17.5822,4.39l-1.4438-.5415-.542-1.4438c-.1879-.5034-1.0185-.5034-1.2064,0l-.542,1.4438-1.4438.5415c-.2508.0944-.4178.3347-.4178.6032s.167.5088.4178.6032l1.4438.5415.542,1.4438c.094.2517.3347.4182.6032.4182s.5092-.1665.6032-.4182l.542-1.4438,1.4438-.5415c.2508-.0944.4178-.3347.4178-.6032s-.167-.5088-.4178-.6032Z" fill="#000" stroke-width="0" data-color="color-2"></path><circle cx="4" cy="8" r="1" fill="#000" stroke-width="0" data-color="color-2"></circle></svg>