<svg xmlns="http://www.w3.org/2000/svg" xmlns:xlink="http://www.w3.org/1999/xlink" x="0px" y="0px" width="20px" height="20px" viewBox="0 0 20 20"><path d="m7.8219,15.6915l-2.412-1.901c-.1439-.1134-.2604-.2467-.3642-.3873-.0153.0164-.0361.0239-.0505.0416l-2.376,2.9248c-.2432.2993-.292.7119-.127,1.0601.166.3486.5176.5703.9033.5703h2.8545c.2969,0,.5791-.1318.7686-.3604l1.2803-1.5386c.0294-.0352.0389-.0782.0626-.116-.1889-.0707-.3726-.162-.5396-.2935Z" fill="#000" stroke-width="0" data-color="color-2"></path><rect x="4.1027" y="6.0249" width="13.1924" height="7.0711" rx="2" ry="2" transform="translate(-3.4324 12.0454) rotate(-51.7571)" fill="none" stroke="#000" stroke-linecap="round" stroke-linejoin="round" stroke-width="2"></rect><line x1="14.7819" y1="4.3798" x2="10.9928" y2="9.1874" fill="none" stroke="#000" stroke-linecap="round" stroke-linejoin="round" stroke-width="2"></line></svg>