<svg xmlns="http://www.w3.org/2000/svg" xmlns:xlink="http://www.w3.org/1999/xlink" x="0px" y="0px" width="20px" height="20px" viewBox="0 0 20 20"><polygon points="17.5 6 17.5 14 14 10 14 10 17.5 6" fill="#000" stroke="#000" stroke-linecap="round" stroke-linejoin="round" stroke-width="2" data-color="color-2"></polygon><path d="m10.5,3h-5c-1.933,0-3.5,1.567-3.5,3.5v7c0,1.933,1.567,3.5,3.5,3.5h5c1.933,0,3.5-1.567,3.5-3.5v-7c0-1.933-1.567-3.5-3.5-3.5Zm-4.75,5c-.6904,0-1.25-.5596-1.25-1.25s.5596-1.25,1.25-1.25,1.25.5596,1.25,1.25-.5596,1.25-1.25,1.25Z" stroke-width="0" fill="#000"></path></svg>