<svg xmlns="http://www.w3.org/2000/svg" xmlns:xlink="http://www.w3.org/1999/xlink" x="0px" y="0px" width="20px" height="20px" viewBox="0 0 20 20"><path d="m3,11h4c.552,0,1,.448,1,1v3c0,.552-.448,1-1,1h-3c-.552,0-1-.448-1-1v-4h0Z" stroke="#000" stroke-linecap="round" stroke-linejoin="round" stroke-width="2" fill="#000"></path><path d="m6,4s-3,2-3,7" fill="none" stroke="#000" stroke-linecap="round" stroke-linejoin="round" stroke-width="2"></path><path d="m12,11h4c.552,0,1,.448,1,1v3c0,.552-.448,1-1,1h-3c-.552,0-1-.448-1-1v-4h0Z" fill="#000" stroke="#000" stroke-linecap="round" stroke-linejoin="round" stroke-width="2" data-color="color-2"></path><path d="m15,4s-3,2-3,7" fill="none" stroke="#000" stroke-linecap="round" stroke-linejoin="round" stroke-width="2" data-color="color-2"></path></svg>