<svg xmlns="http://www.w3.org/2000/svg" xmlns:xlink="http://www.w3.org/1999/xlink" x="0px" y="0px" width="24px" height="24px" viewBox="0 0 24 24"><path d="m10.001,7h-3.038c-.608,0-1.183.277-1.563.752l-3.602,4.51,4.553,1.089" fill="none" stroke="#000" stroke-miterlimit="10" stroke-width="2" data-cap="butt"></path><path d="m17,13.999v3.038c0,.608-.277,1.183-.752,1.563l-4.51,3.602-1.089-4.553" fill="none" stroke="#000" stroke-miterlimit="10" stroke-width="2" data-cap="butt"></path><circle cx="15.5" cy="8.5" r=".5" fill="#000" stroke="#000" stroke-linecap="square" stroke-miterlimit="10" stroke-width="2" data-color="color-2"></circle><path d="m4.402,16.95c-.31.153-.62.372-.918.67-1.161,1.161-1.484,4.38-1.484,4.38,0,0,3.22-.324,4.38-1.484.297-.297.516-.608.67-.918" fill="none" stroke="#000" stroke-linecap="square" stroke-miterlimit="10" stroke-width="2" data-color="color-2"></path><path d="m10.649,17.649c5.762-1.583,10.564-6.504,11.351-15.649-9.145.786-14.067,5.588-15.649,11.351l4.299,4.299Z" fill="none" stroke="#000" stroke-linecap="square" stroke-miterlimit="10" stroke-width="2"></path></svg>