<svg xmlns="http://www.w3.org/2000/svg" xmlns:xlink="http://www.w3.org/1999/xlink" x="0px" y="0px" width="18px" height="18px" viewBox="0 0 18 18"><path d="m10.25,9.75H2.75c-.4141,0-.75-.3359-.75-.75s.3359-.75.75-.75h7.5c.4141,0,.75.3359.75.75s-.3359.75-.75.75Z" fill="#000" opacity=".4" stroke-width="0" data-color="color-2"></path><path d="m13.25,14.5h-7.5c-.4141,0-.75-.3359-.75-.75s.3359-.75.75-.75h7.5c.4141,0,.75.3359.75.75s-.3359.75-.75.75Z" stroke-width="0" fill="#000"></path><path d="m15.25,5h-7.5c-.4141,0-.75-.3359-.75-.75s.3359-.75.75-.75h7.5c.4141,0,.75.3359.75.75s-.3359.75-.75.75Z" stroke-width="0" fill="#000"></path></svg>