<svg xmlns="http://www.w3.org/2000/svg" xmlns:xlink="http://www.w3.org/1999/xlink" x="0px" y="0px" width="24px" height="24px" viewBox="0 0 24 24"> <path d="M12 8V1.5V2" stroke="#000" stroke-width="2" stroke-linecap="square" data-color="color-2" fill="none"></path> <path d="M15 4.5L12.0001 1.50004L9 4.5" stroke="#000" stroke-width="2" stroke-miterlimit="10" stroke-linecap="square" data-color="color-2" fill="none"></path> <path d="M7 21V14.5C7 13.1193 8.11929 12 9.5 12V12C10.8807 12 12 13.1193 12 14.5V21" stroke="black" stroke-width="2" stroke-linecap="square" fill="none"></path> <path d="M12 21V16.5C12 15.1193 13.1193 14 14.5 14V14C15.8807 14 17 15.1193 17 16.5V21" stroke="black" stroke-width="2" stroke-linecap="square" fill="none"></path> <path d="M17 21V18.5C17 17.1193 18.1193 16 19.5 16V16C20.8807 16 22 17.1193 22 18.5V21" stroke="black" stroke-width="2" stroke-linecap="square" fill="none"></path> <path d="M2 21V16.5C2 15.1193 3.11929 14 4.5 14V14C5.88071 14 7 15.1193 7 16.5V21" stroke="black" stroke-width="2" stroke-linecap="square" fill="none"></path> </svg>