<svg xmlns="http://www.w3.org/2000/svg" xmlns:xlink="http://www.w3.org/1999/xlink" x="0px" y="0px" width="24px" height="24px" viewBox="0 0 24 24"> <path d="M18 14L18 3" stroke="#000" stroke-width="2" stroke-miterlimit="10" data-color="color-2" data-cap="butt" fill="none"></path> <path d="M6 14L6 3" stroke="#000" stroke-width="2" stroke-miterlimit="10" data-color="color-2" data-cap="butt" fill="none"></path> <path d="M14 7L18 3L22 7" stroke="#000" stroke-width="2" stroke-miterlimit="10" stroke-linecap="square" data-color="color-2" fill="none"></path> <path d="M2 7L6 3L10 7" stroke="#000" stroke-width="2" stroke-miterlimit="10" stroke-linecap="square" data-color="color-2" fill="none"></path> <path d="M6 14C3.79086 14 2 15.7909 2 18C2 20.2091 3.79086 22 6 22C8.20914 22 10 20.2091 10 18C10 15.7909 8.20914 14 6 14Z" stroke="black" stroke-width="2" data-cap="butt" fill="none"></path> <path d="M18 14C15.7909 14 14 15.7909 14 18C14 20.2091 15.7909 22 18 22C20.2091 22 22 20.2091 22 18C22 15.7909 20.2091 14 18 14Z" stroke="black" stroke-width="2" data-cap="butt" fill="none"></path> </svg>