<svg xmlns="http://www.w3.org/2000/svg" xmlns:xlink="http://www.w3.org/1999/xlink" x="0px" y="0px" width="32px" height="32px" viewBox="0 0 32 32"> <path d="M19 29V21C19 19.3431 20.3431 18 22 18V18C23.6569 18 25 19.3431 25 21V29" stroke="black" stroke-width="2" stroke-linecap="square" fill="none"></path> <path d="M7 29V21C7 19.3431 8.34315 18 10 18V18C11.6569 18 13 19.3431 13 21V29" stroke="black" stroke-width="2" stroke-linecap="square" fill="none"></path> <path d="M13 29V19C13 17.3431 14.3431 16 16 16V16C17.6569 16 19 17.3431 19 19V29" stroke="black" stroke-width="2" stroke-linecap="square" fill="none"></path> <path d="M4 7L29 7L28.3333 7" stroke="#000" stroke-width="2" stroke-miterlimit="10" stroke-linecap="square" data-color="color-2" fill="none"></path> <path d="M24.5 2.49997L29 7L24.5 11.5" stroke="#000" stroke-width="2" stroke-miterlimit="10" stroke-linecap="square" data-color="color-2" fill="none"></path> </svg>