<svg xmlns="http://www.w3.org/2000/svg" xmlns:xlink="http://www.w3.org/1999/xlink" x="0px" y="0px" width="32px" height="32px" viewBox="0 0 32 32"> <path d="M24 19L24 3.00001" stroke="#000" stroke-width="2" stroke-miterlimit="10" data-color="color-2" data-cap="butt" fill="none"></path> <path d="M8 19L8 3.00001" stroke="#000" stroke-width="2" stroke-miterlimit="10" data-color="color-2" data-cap="butt" fill="none"></path> <path d="M18.9999 8.00001L24 3L29 8.00001" stroke="#000" stroke-width="2" stroke-miterlimit="10" stroke-linecap="square" data-color="color-2" fill="none"></path> <path d="M2.99994 8.00001L7.99999 3L13 8.00001" stroke="#000" stroke-width="2" stroke-miterlimit="10" stroke-linecap="square" data-color="color-2" fill="none"></path> <path d="M8 19C5.23858 19 3 21.2386 3 24C3 26.7614 5.23858 29 8 29C10.7614 29 13 26.7614 13 24C13 21.2386 10.7614 19 8 19Z" stroke="black" stroke-width="2" data-cap="butt" fill="none"></path> <path d="M24 19C21.2386 19 19 21.2386 19 24C19 26.7614 21.2386 29 24 29C26.7614 29 29 26.7614 29 24C29 21.2386 26.7614 19 24 19Z" stroke="black" stroke-width="2" data-cap="butt" fill="none"></path> </svg>