<svg xmlns="http://www.w3.org/2000/svg" xmlns:xlink="http://www.w3.org/1999/xlink" x="0px" y="0px" width="48px" height="48px" viewBox="0 0 48 48"> <path d="M45 10.5L28 10.5001L29 10.5001" stroke="#000" stroke-width="2" stroke-miterlimit="10" stroke-linecap="square" data-color="color-2" fill="none"></path> <path d="M34 4.49992L28 10.4999L34 16.4999" stroke="#000" stroke-width="2" stroke-miterlimit="10" stroke-linecap="square" data-color="color-2" fill="none"></path> <path d="M8 27V7C8 5.34315 9.34315 4 11 4C12.6569 4 14 5.34315 14 7V17L26.8828 20.3106C29.328 21.3139 30.8287 23.7991 30.5781 26.4303L29 43L27.5891 43.4938C22.0285 45.4401 15.9716 45.4401 10.4109 43.4938L9.00004 43V40.9573C9.00004 40.3346 8.80626 39.7273 8.44558 39.2197L3.73931 32.596C3.25841 31.9192 3.00004 31.1095 3.00003 30.2792L3 24C3 21.7788 4.72447 20 6.97927 20H7.49995" stroke="black" stroke-width="2" stroke-miterlimit="2" stroke-linecap="square" fill="none"></path> </svg>