<svg xmlns="http://www.w3.org/2000/svg" xmlns:xlink="http://www.w3.org/1999/xlink" x="0px" y="0px" width="48px" height="48px" viewBox="0 0 48 48"> <path d="M17.7383 24H17C14.7909 24 13 25.7909 13 28V33.1443C13 34.0575 13.3125 34.9433 13.8856 35.6544L18.3358 41.1759C18.7656 41.7092 19 42.3735 19 43.0585V44L20.6339 44.5719C26.0331 46.4616 31.9297 46.3607 37.261 44.2874L38 44L39.4868 31.3626C39.7923 28.7651 38.3801 26.2688 35.9962 25.1928L30 22.4864V11C30 9.34315 28.6569 8 27 8V8C25.3431 8 24 9.34314 24 11V21.4864" stroke="black" stroke-width="2" stroke-miterlimit="2" stroke-linecap="square" fill="none"></path> <path d="M18 31V13C18 11.3431 19.3431 10 21 10V10C22.6569 10 24 11.3431 24 13V20.4864" stroke="black" stroke-width="2" stroke-miterlimit="2" stroke-linecap="square" fill="none"></path> <path d="M37 19.2207C37.3256 18.0388 37.5 16.7905 37.5 15.5C37.5 8.04415 31.6797 2 24.5 2C17.3203 2 11.5 8.04416 11.5 15.5C11.5 16.7905 11.6744 18.0388 12 19.2207" stroke="#000" stroke-width="2" stroke-linecap="square" data-color="color-2" fill="none"></path> </svg>