<svg xmlns="http://www.w3.org/2000/svg" xmlns:xlink="http://www.w3.org/1999/xlink" x="0px" y="0px" width="48px" height="48px" viewBox="0 0 48 48"> <path d="M11.4412 3.67502L11.5664 3.45102C6 13.2984 6.29938 27.451 13.0898 36.8003" stroke="#000" stroke-width="2" stroke-miterlimit="10" stroke-linecap="square" data-color="color-2" fill="none"></path> <path d="M2.90991 7.68753L4.53371 6.75003L11.0289 3.00002L14.7789 9.49522L15.7164 11.119" stroke="#000" stroke-width="2" stroke-miterlimit="10" stroke-linecap="square" data-color="color-2" fill="none"></path> <path d="M34.4791 30.9257L20.337 45.0679C19.1654 46.2394 17.2659 46.2394 16.0944 45.0679V45.0679C14.9228 43.8963 14.9228 41.9968 16.0944 40.8252L23.8725 33.0471L18.1198 23.2892C16.6048 20.7194 17.2079 17.4268 19.5354 15.5608L31.8604 5.6796L33.7089 6.78325C38.1645 9.44348 41.8538 13.214 44.4164 17.7264L45.0858 18.905L43.6716 20.3192C42.9331 21.0578 42.6109 22.0869 42.348 23.2672L41.7652 28.8993C41.5502 30.2187 41.0275 31.5947 40.0428 32.5794L35.9549 36.6673C34.3843 38.2379 31.8186 38.2186 30.2242 36.6242L29.856 36.256" stroke="black" stroke-width="2" stroke-miterlimit="2" stroke-linecap="square" fill="none"></path> </svg>