<svg xmlns="http://www.w3.org/2000/svg" xmlns:xlink="http://www.w3.org/1999/xlink" x="0px" y="0px" width="18px" height="18px" viewBox="0 0 18 18"><path opacity="0.3" d="M14.25 9.5C14.6581 9.5 15.0385 9.61245 15.3673 9.80505C15.796 9.80395 15.75 9.45102 15.75 9.26282V6.75012H2.25V11.2501H11.9922C12.2209 10.2501 13.1822 9.5 14.25 9.5Z" fill="#000" data-color="color-2" data-stroke="none"></path> <path d="M2.25 6.75H15.75" stroke="black" stroke-width="1.5" stroke-linecap="round" stroke-linejoin="round" fill="none"></path> <path d="M2.25 11.25H11.3032" stroke="black" stroke-width="1.5" stroke-linecap="round" stroke-linejoin="round" fill="none"></path> <path d="M14.25 16.75V11.75" stroke="black" stroke-width="1.5" stroke-linecap="round" stroke-linejoin="round" fill="none"></path> <path d="M15.75 9.1582V4.75C15.75 3.6499 14.8546 2.75 13.75 2.75H4.25C3.1454 2.75 2.25 3.6499 2.25 4.75V13.25C2.25 14.3501 3.1454 15.25 4.25 15.25H8.9274" stroke="black" stroke-width="1.5" stroke-linecap="round" stroke-linejoin="round" fill="none"></path> <path d="M16.75 14.25H11.75" stroke="black" stroke-width="1.5" stroke-linecap="round" stroke-linejoin="round" fill="none"></path></svg>