<svg xmlns="http://www.w3.org/2000/svg" xmlns:xlink="http://www.w3.org/1999/xlink" x="0px" y="0px" width="18px" height="18px" viewBox="0 0 18 18"><path d="m15.25,2v1.75c0,1.1046-.8954,2-2,2H4.75c-1.1046,0-2-.8954-2-2v-1.75h12.5Z" fill="#000" opacity=".3" stroke-width="0" data-color="color-2"></path><path d="m15.25,16v-1.75c0-1.1046-.8954-2-2-2H4.75c-1.1046,0-2,.8954-2,2v1.75h12.5Z" fill="#000" opacity=".3" stroke-width="0" data-color="color-2"></path><path d="m15.25,2.75v1c0,1.105-.895,2-2,2H4.75c-1.105,0-2-.895-2-2v-1" fill="none" stroke="#000" stroke-linecap="round" stroke-linejoin="round" stroke-width="1.5"></path><path d="m15.25,15.25v-1c0-1.105-.895-2-2-2H4.75c-1.105,0-2,.895-2,2v1" fill="none" stroke="#000" stroke-linecap="round" stroke-linejoin="round" stroke-width="1.5"></path><path d="m2,9h14" fill="none" stroke="#000" stroke-linecap="round" stroke-linejoin="round" stroke-width="1.5"></path></svg>