<svg xmlns="http://www.w3.org/2000/svg" xmlns:xlink="http://www.w3.org/1999/xlink" x="0px" y="0px" width="18px" height="18px" viewBox="0 0 18 18"><path d="m14.25,3.25H3.75c-1.1046,0-2,.8954-2,2v7.5c0,1.1046.8954,2,2,2h10.5c1.1046,0,2-.8954,2-2v-7.5c0-1.1046-.8954-2-2-2Z" fill="#000" opacity=".3" stroke-width="0" data-color="color-2"></path><path d="m14.25,3.25H3.75c-1.1046,0-2,.8954-2,2v7.5c0,1.1046.8954,2,2,2h10.5c1.1046,0,2-.8954,2-2v-7.5c0-1.1046-.8954-2-2-2Z" fill="none" stroke="#000" stroke-linecap="round" stroke-linejoin="round" stroke-width="1.5"></path><rect x="4.75" y="6.25" width="8.5" height="5.5" stroke="#000" stroke-linecap="round" stroke-linejoin="round" stroke-width="1.5" fill="#000"></rect></svg>