<svg xmlns="http://www.w3.org/2000/svg" xmlns:xlink="http://www.w3.org/1999/xlink" x="0px" y="0px" width="18px" height="18px" viewBox="0 0 18 18"><path d="M12.25 11.25V6.75C12.25 6.19772 11.8023 5.75 11.25 5.75H6.75C6.19772 5.75 5.75 6.19772 5.75 6.75V11.25C5.75 11.8023 6.19772 12.25 6.75 12.25H11.25C11.8023 12.25 12.25 11.8023 12.25 11.25Z" fill="#000" fill-opacity="0.3" data-color="color-2" data-stroke="none"></path> <path d="M2.75 2.75H15.25" stroke="black" stroke-width="1.5" stroke-linecap="round" stroke-linejoin="round" fill="none"></path> <path d="M2.75 15.25H15.25" stroke="black" stroke-width="1.5" stroke-linecap="round" stroke-linejoin="round" fill="none"></path> <path d="M12.25 11.25V6.75C12.25 6.19772 11.8023 5.75 11.25 5.75H6.75C6.19772 5.75 5.75 6.19772 5.75 6.75V11.25C5.75 11.8023 6.19772 12.25 6.75 12.25H11.25C11.8023 12.25 12.25 11.8023 12.25 11.25Z" stroke="black" stroke-width="1.5" stroke-linecap="round" stroke-linejoin="round" fill="none"></path></svg>