<svg xmlns="http://www.w3.org/2000/svg" xmlns:xlink="http://www.w3.org/1999/xlink" x="0px" y="0px" width="18px" height="18px" viewBox="0 0 18 18"><path d="M5.75 2.75H3.25C2.69772 2.75 2.25 3.19772 2.25 3.75V6.25C2.25 6.80228 2.69772 7.25 3.25 7.25H5.75C6.30228 7.25 6.75 6.80228 6.75 6.25V3.75C6.75 3.19772 6.30228 2.75 5.75 2.75Z" fill="#000" fill-opacity="0.3" data-color="color-2" data-stroke="none"></path> <path d="M2.25 13.391L3.609 14.75L7.006 10.333" stroke="black" stroke-width="1.5" stroke-linecap="round" stroke-linejoin="round" fill="none"></path> <path d="M10.25 5.25H16.25" stroke="black" stroke-width="1.5" stroke-linecap="round" stroke-linejoin="round" fill="none"></path> <path d="M10.25 12.75H16.25" stroke="black" stroke-width="1.5" stroke-linecap="round" stroke-linejoin="round" fill="none"></path> <path d="M5.75 2.75H3.25C2.69772 2.75 2.25 3.19772 2.25 3.75V6.25C2.25 6.80228 2.69772 7.25 3.25 7.25H5.75C6.30228 7.25 6.75 6.80228 6.75 6.25V3.75C6.75 3.19772 6.30228 2.75 5.75 2.75Z" stroke="black" stroke-width="1.5" stroke-linecap="round" stroke-linejoin="round" fill="none"></path></svg>