<svg xmlns="http://www.w3.org/2000/svg" xmlns:xlink="http://www.w3.org/1999/xlink" x="0px" y="0px" width="18px" height="18px" viewBox="0 0 18 18"><path d="m4.75,15.25h8.5c1.1046,0,2-.8954,2-2V4.75c0-1.1046-.8954-2-2-2H4.75c-1.1046,0-2,.8954-2,2v8.5c0,1.1046.8954,2,2,2Z" fill="#000" opacity=".3" stroke-width="0" data-color="color-2"></path><path d="m4.75,15.25h8.5c1.1046,0,2-.8954,2-2V4.75c0-1.1046-.8954-2-2-2H4.75c-1.1046,0-2,.8954-2,2v8.5c0,1.1046.8954,2,2,2Z" fill="none" stroke="#000" stroke-linecap="round" stroke-linejoin="round" stroke-width="1.5"></path><rect x="5.75" y="5.75" width="1.75" height="6.5" stroke="#000" stroke-linecap="round" stroke-linejoin="round" stroke-width="1.5" fill="#000"></rect><rect x="10.5" y="5.75" width="1.75" height="2.5" stroke="#000" stroke-linecap="round" stroke-linejoin="round" stroke-width="1.5" fill="#000"></rect></svg>