<svg xmlns="http://www.w3.org/2000/svg" xmlns:xlink="http://www.w3.org/1999/xlink" x="0px" y="0px" width="18px" height="18px" viewBox="0 0 18 18"><path opacity="0.3" d="M15.25 9.25V13.25C15.25 14.355 14.35 15.25 13.25 15.25H4.75C3.65 15.25 2.75 14.355 2.75 13.25V9.25H15.25Z" fill="#000" data-color="color-2" data-stroke="none"></path> <path d="M7 1.25L11 5.25" stroke="black" stroke-width="1.5" stroke-linecap="round" stroke-linejoin="round" fill="none"></path> <path d="M11 1.25L7 5.25" stroke="black" stroke-width="1.5" stroke-linecap="round" stroke-linejoin="round" fill="none"></path> <path d="M15.25 9.25H2.75" stroke="black" stroke-width="1.5" stroke-linecap="round" stroke-linejoin="round" fill="none"></path> <path d="M4.75 3C3.64 3 2.75 3.896 2.75 5V13.25C2.75 14.354 3.64 15.25 4.75 15.25H13.25C14.36 15.25 15.25 14.354 15.25 13.25V5C15.25 3.896 14.36 3 13.25 3" stroke="black" stroke-width="1.5" stroke-linecap="round" stroke-linejoin="round" fill="none"></path></svg>