<svg xmlns="http://www.w3.org/2000/svg" xmlns:xlink="http://www.w3.org/1999/xlink" x="0px" y="0px" width="18px" height="18px" viewBox="0 0 18 18"><path d="m3.75,2.75h10.5c1.1046,0,2,.8954,2,2v8.5c0,1.1046-.8954,2-2,2H3.75c-1.1046,0-2-.8954-2-2V4.75c0-1.1046.8954-2,2-2Zm1,3h3v6.5h-3v-6.5Z" fill="#000" fill-rule="evenodd" opacity=".3" stroke-width="0" data-color="color-2"></path><path d="m14.25,2.75H3.75c-1.1046,0-2,.8954-2,2v8.5c0,1.1046.8954,2,2,2h10.5c1.1046,0,2-.8954,2-2V4.75c0-1.1046-.8954-2-2-2Z" fill="none" stroke="#000" stroke-linecap="round" stroke-linejoin="round" stroke-width="1.5"></path><path d="m7.75,5.75h-3v6.5h3v-6.5Z" fill="none" stroke="#000" stroke-linecap="round" stroke-linejoin="round" stroke-width="1.5"></path></svg>