<svg xmlns="http://www.w3.org/2000/svg" xmlns:xlink="http://www.w3.org/1999/xlink" x="0px" y="0px" width="18px" height="18px" viewBox="0 0 18 18"><path d="M4.1731 4.75001L6.48911 2.12C6.89111 1.66 7.60408 1.66001 7.99908 2.13001L10.2461 4.75001" stroke="black" stroke-width="1.5" stroke-linecap="round" stroke-linejoin="round" fill="none"></path> <path d="M11.6919 2.26001L13.8269 4.75" stroke="black" stroke-width="1.5" stroke-linecap="round" stroke-linejoin="round" fill="none"></path> <path opacity="0.3" d="M13.8268 4.75L13.3498 13.86C13.2938 14.9201 12.4158 15.75 11.3528 15.75H6.6488C5.5848 15.75 4.70779 14.92 4.65179 13.86L4.1748 4.75H13.8268Z" fill="#000" data-color="color-2" data-stroke="none"></path> <path d="M13.8268 4.75L13.3498 13.86C13.2938 14.9201 12.4158 15.75 11.3528 15.75H6.6488C5.5848 15.75 4.70779 14.92 4.65179 13.86L4.1748 4.75H13.8268Z" stroke="black" stroke-width="1.5" stroke-linecap="round" stroke-linejoin="round" fill="none"></path> <path d="M7.375 7.75L7.625 12.75" stroke="black" stroke-width="1.5" stroke-linecap="round" stroke-linejoin="round" fill="none"></path> <path d="M10.625 7.75L10.375 12.75" stroke="black" stroke-width="1.5" stroke-linecap="round" stroke-linejoin="round" fill="none"></path></svg>