<svg xmlns="http://www.w3.org/2000/svg" xmlns:xlink="http://www.w3.org/1999/xlink" x="0px" y="0px" width="18px" height="18px" viewBox="0 0 18 18"><path d="M7.25 12.25H10.75C11.5784 12.25 12.25 11.5784 12.25 10.75V7.25C12.25 6.42157 11.5784 5.75 10.75 5.75L7.25 5.75C6.42157 5.75 5.75 6.42157 5.75 7.25L5.75 10.75C5.75 11.5784 6.42157 12.25 7.25 12.25Z" fill="#000" fill-opacity="0.3" data-color="color-2" data-stroke="none"></path> <path d="M7.25 12.25H10.75C11.5784 12.25 12.25 11.5784 12.25 10.75V7.25C12.25 6.42157 11.5784 5.75 10.75 5.75L7.25 5.75C6.42157 5.75 5.75 6.42157 5.75 7.25L5.75 10.75C5.75 11.5784 6.42157 12.25 7.25 12.25Z" stroke="black" stroke-width="1.5" stroke-linecap="round" stroke-linejoin="round" fill="none"></path> <path d="M15.75 6.25V3.25C15.75 2.698 15.302 2.25 14.75 2.25H11.75" stroke="black" stroke-width="1.5" stroke-linecap="round" stroke-linejoin="round" fill="none"></path> <path d="M6.25 15.75H3.25C2.698 15.75 2.25 15.302 2.25 14.75V11.75" stroke="black" stroke-width="1.5" stroke-linecap="round" stroke-linejoin="round" fill="none"></path></svg>