<svg xmlns="http://www.w3.org/2000/svg" xmlns:xlink="http://www.w3.org/1999/xlink" x="0px" y="0px" width="18px" height="18px" viewBox="0 0 18 18"><path d="M2.25 6.75V13.25C2.25 14.355 3.145 15.25 4.25 15.25H11.75" stroke="black" stroke-width="1.5" stroke-linecap="round" stroke-linejoin="round" fill="none"></path> <path opacity="0.3" d="M7.25 12.25H13.75C14.8546 12.25 15.75 11.355 15.75 10.25V4.75C15.75 3.645 14.8546 2.75 13.75 2.75H7.25C6.1454 2.75 5.25 3.645 5.25 4.75V10.25C5.25 11.355 6.1454 12.25 7.25 12.25Z" fill="#000" data-color="color-2" data-stroke="none"></path> <path d="M7.25 12.25H13.75C14.8546 12.25 15.75 11.355 15.75 10.25V4.75C15.75 3.645 14.8546 2.75 13.75 2.75H7.25C6.1454 2.75 5.25 3.645 5.25 4.75V10.25C5.25 11.355 6.1454 12.25 7.25 12.25Z" stroke="black" stroke-width="1.5" stroke-linecap="round" stroke-linejoin="round" fill="none"></path></svg>