<svg xmlns="http://www.w3.org/2000/svg" xmlns:xlink="http://www.w3.org/1999/xlink" x="0px" y="0px" width="18px" height="18px" viewBox="0 0 18 18"><path opacity="0.3" d="M2.75 8.75V4.75C2.75 3.645 3.65 2.75 4.75 2.75H13.25C14.35 2.75 15.25 3.645 15.25 4.75V8.75H2.75Z" fill="#000" data-color="color-2" data-stroke="none"></path> <path d="M2.75 8.75H15.25" stroke="black" stroke-width="1.5" stroke-linecap="round" stroke-linejoin="round" fill="none"></path> <path d="M11.5 14.75L9 17.25L6.5 14.75" stroke="black" stroke-width="1.5" stroke-linecap="round" stroke-linejoin="round" fill="none"></path> <path d="M9 17.25V11.75" stroke="black" stroke-width="1.5" stroke-linecap="round" stroke-linejoin="round" fill="none"></path> <path d="M14.4824 14.5692C14.9497 14.2041 15.25 13.639 15.25 13V4.75C15.25 3.646 14.3599 2.75 13.25 2.75H4.75C3.6401 2.75 2.75 3.646 2.75 4.75V13C2.75 13.639 3.0503 14.2034 3.5176 14.5687" stroke="black" stroke-width="1.5" stroke-linecap="round" stroke-linejoin="round" fill="none"></path></svg>