<svg xmlns="http://www.w3.org/2000/svg" xmlns:xlink="http://www.w3.org/1999/xlink" x="0px" y="0px" width="18px" height="18px" viewBox="0 0 18 18"><path d="M14.25 4.75H3.75C2.64543 4.75 1.75 5.64543 1.75 6.75V11.25C1.75 12.3546 2.64543 13.25 3.75 13.25H14.25C15.3546 13.25 16.25 12.3546 16.25 11.25V6.75C16.25 5.64543 15.3546 4.75 14.25 4.75Z" fill="#000" fill-opacity="0.3" data-color="color-2" data-stroke="none"></path> <path d="M14.25 4.75H3.75C2.64543 4.75 1.75 5.64543 1.75 6.75V11.25C1.75 12.3546 2.64543 13.25 3.75 13.25H14.25C15.3546 13.25 16.25 12.3546 16.25 11.25V6.75C16.25 5.64543 15.3546 4.75 14.25 4.75Z" stroke="black" stroke-width="1.5" stroke-linecap="round" stroke-linejoin="round" fill="none"></path> <path d="M10.25 8.5L12 10.25L13.75 8.5" stroke="black" stroke-width="1.5" stroke-linecap="round" stroke-linejoin="round" fill="none"></path> <path d="M4.5 9H7.25" stroke="black" stroke-width="1.5" stroke-linecap="round" stroke-linejoin="round" fill="none"></path></svg>