<svg xmlns="http://www.w3.org/2000/svg" xmlns:xlink="http://www.w3.org/1999/xlink" x="0px" y="0px" width="18px" height="18px" viewBox="0 0 18 18"><path fill-rule="evenodd" clip-rule="evenodd" d="M8.73834 12.75C9.95086 11.9438 10.75 10.5652 10.75 9C10.75 7.43477 9.95086 6.05619 8.73834 5.25H12.5C14.5711 5.25 16.25 6.92893 16.25 9C16.25 11.0711 14.5711 12.75 12.5 12.75H8.73834Z" fill="#000" fill-opacity="0.3" data-color="color-2" data-stroke="none"></path> <path d="M8.73801 12.75H12.5C14.571 12.75 16.25 11.071 16.25 9C16.25 6.929 14.571 5.25 12.5 5.25H8.73801" stroke="black" stroke-width="1.5" stroke-linecap="round" stroke-linejoin="round" fill="none"></path> <path d="M6.25 13.5C8.73528 13.5 10.75 11.4853 10.75 9C10.75 6.51472 8.73528 4.5 6.25 4.5C3.76472 4.5 1.75 6.51472 1.75 9C1.75 11.4853 3.76472 13.5 6.25 13.5Z" stroke="black" stroke-width="1.5" stroke-linecap="round" stroke-linejoin="round" fill="none"></path></svg>