<svg xmlns="http://www.w3.org/2000/svg" xmlns:xlink="http://www.w3.org/1999/xlink" x="0px" y="0px" width="18px" height="18px" viewBox="0 0 18 18"><path opacity="0.3" d="M8 14.75C8 13.5093 9.0098 12.5 10.25 12.5H10.5V12.25C10.5 11.0093 11.5098 10 12.75 10C13.5418 10 14.2397 10.4114 14.6408 11.0317C14.868 11.383 15.25 10.7176 15.25 10.7176V7.75H2.75V15.25H7.97031C7.97031 15.25 8.03081 15.1816 8.02341 15.1406C8.00121 15.0177 8 14.8793 8 14.75Z" fill="#000" data-color="color-2" data-stroke="none"></path> <path d="M5.75 1.75H12.25" stroke="black" stroke-width="1.5" stroke-linecap="round" stroke-linejoin="round" fill="none"></path> <path d="M4.25 4.75H13.75" stroke="black" stroke-width="1.5" stroke-linecap="round" stroke-linejoin="round" fill="none"></path> <path d="M7.29419 15.25H3.75C3.198 15.25 2.75 14.802 2.75 14.25V8.75C2.75 8.198 3.198 7.75 3.75 7.75H14.25C14.802 7.75 15.25 8.198 15.25 8.75V10.6138" stroke="black" stroke-width="1.5" stroke-linecap="round" stroke-linejoin="round" fill="none"></path> <path d="M12.75 12.25V17.25" stroke="black" stroke-width="1.5" stroke-linecap="round" stroke-linejoin="round" fill="none"></path> <path d="M15.25 14.75H10.25" stroke="black" stroke-width="1.5" stroke-linecap="round" stroke-linejoin="round" fill="none"></path></svg>