<svg xmlns="http://www.w3.org/2000/svg" xmlns:xlink="http://www.w3.org/1999/xlink" x="0px" y="0px" width="18px" height="18px" viewBox="0 0 18 18"><path d="M2.75 12.75V14.25C2.75 15.3546 3.64543 16.25 4.75 16.25H13.25C14.3546 16.25 15.25 15.3546 15.25 14.25V12.75C15.25 11.6454 14.3546 10.75 13.25 10.75H4.75C3.64543 10.75 2.75 11.6454 2.75 12.75Z" fill="#000" fill-opacity="0.3" data-color="color-2" data-stroke="none"></path> <path d="M2.75 12.75V14.25C2.75 15.3546 3.64543 16.25 4.75 16.25H13.25C14.3546 16.25 15.25 15.3546 15.25 14.25V12.75C15.25 11.6454 14.3546 10.75 13.25 10.75H4.75C3.64543 10.75 2.75 11.6454 2.75 12.75Z" stroke="black" stroke-width="1.5" stroke-linecap="round" stroke-linejoin="round" fill="none"></path> <path d="M13 7.25H13.75C14.578 7.25 15.25 6.578 15.25 5.75" stroke="black" stroke-width="1.5" stroke-linecap="round" stroke-linejoin="round" fill="none"></path> <path d="M7.75 7.25H10.25" stroke="black" stroke-width="1.5" stroke-linecap="round" stroke-linejoin="round" fill="none"></path> <path d="M2.75 5.75C2.75 6.578 3.422 7.25 4.25 7.25H5" stroke="black" stroke-width="1.5" stroke-linecap="round" stroke-linejoin="round" fill="none"></path> <path d="M13 1.75H13.75C14.578 1.75 15.25 2.422 15.25 3.25" stroke="black" stroke-width="1.5" stroke-linecap="round" stroke-linejoin="round" fill="none"></path> <path d="M7.75 1.75H10.25" stroke="black" stroke-width="1.5" stroke-linecap="round" stroke-linejoin="round" fill="none"></path> <path d="M2.75 3.25C2.75 2.422 3.422 1.75 4.25 1.75H5" stroke="black" stroke-width="1.5" stroke-linecap="round" stroke-linejoin="round" fill="none"></path></svg>