<svg xmlns="http://www.w3.org/2000/svg" xmlns:xlink="http://www.w3.org/1999/xlink" x="0px" y="0px" width="18px" height="18px" viewBox="0 0 18 18"><path d="m3.75,15.25h10.5c1.1046,0,2-.8955,2-2V4.75c0-1.1045-.8954-2-2-2H3.75c-1.1046,0-2,.8955-2,2v8.5c0,1.1045.8954,2,2,2Zm6.5-9.5h3v6.5h-3v-6.5Z" fill="#000" opacity=".3" stroke-width="0" data-color="color-2"></path><polyline points="6 11 8 9 6 7" fill="none" stroke="#000" stroke-linecap="round" stroke-linejoin="round" stroke-width="1.5"></polyline><line x1="8" y1="9" x2="4.25" y2="9" fill="none" stroke="#000" stroke-linecap="round" stroke-linejoin="round" stroke-width="1.5"></line><rect x="1.75" y="2.75" width="14.5" height="12.5" rx="2" ry="2" fill="none" stroke="#000" stroke-linecap="round" stroke-linejoin="round" stroke-width="1.5"></rect><rect x="10.25" y="5.75" width="3" height="6.5" fill="none" stroke="#000" stroke-linecap="round" stroke-linejoin="round" stroke-width="1.5"></rect></svg>