<svg xmlns="http://www.w3.org/2000/svg" xmlns:xlink="http://www.w3.org/1999/xlink" x="0px" y="0px" width="18px" height="18px" viewBox="0 0 18 18"><path d="M11.75 15.75H14.75C15.3023 15.75 15.75 15.3023 15.75 14.75V11.75C15.75 11.1977 15.3023 10.75 14.75 10.75H11.75C11.1977 10.75 10.75 11.1977 10.75 11.75V14.75C10.75 15.3023 11.1977 15.75 11.75 15.75Z" fill="#000" fill-opacity="0.3" data-color="color-2" data-stroke="none"></path> <path d="M11.75 15.75H14.75C15.3023 15.75 15.75 15.3023 15.75 14.75V11.75C15.75 11.1977 15.3023 10.75 14.75 10.75H11.75C11.1977 10.75 10.75 11.1977 10.75 11.75V14.75C10.75 15.3023 11.1977 15.75 11.75 15.75Z" stroke="black" stroke-width="1.5" stroke-linecap="round" stroke-linejoin="round" fill="none"></path> <path d="M15.75 6V6.25C15.75 6.802 15.302 7.25 14.75 7.25H14.5" stroke="black" stroke-width="1.5" stroke-linecap="round" stroke-linejoin="round" fill="none"></path> <path d="M14.5 2.25H14.75C15.302 2.25 15.75 2.698 15.75 3.25V3.5" stroke="black" stroke-width="1.5" stroke-linecap="round" stroke-linejoin="round" fill="none"></path> <path d="M10.75 3.5V3.25C10.75 2.698 11.198 2.25 11.75 2.25H12" stroke="black" stroke-width="1.5" stroke-linecap="round" stroke-linejoin="round" fill="none"></path> <path d="M12 7.25H11.75C11.198 7.25 10.75 6.802 10.75 6.25V6" stroke="black" stroke-width="1.5" stroke-linecap="round" stroke-linejoin="round" fill="none"></path> <path d="M7.25 6V6.25C7.25 6.802 6.802 7.25 6.25 7.25H6" stroke="black" stroke-width="1.5" stroke-linecap="round" stroke-linejoin="round" fill="none"></path> <path d="M6 2.25H6.25C6.802 2.25 7.25 2.698 7.25 3.25V3.5" stroke="black" stroke-width="1.5" stroke-linecap="round" stroke-linejoin="round" fill="none"></path> <path d="M2.25 3.5V3.25C2.25 2.698 2.698 2.25 3.25 2.25H3.5" stroke="black" stroke-width="1.5" stroke-linecap="round" stroke-linejoin="round" fill="none"></path> <path d="M3.5 7.25H3.25C2.698 7.25 2.25 6.802 2.25 6.25V6" stroke="black" stroke-width="1.5" stroke-linecap="round" stroke-linejoin="round" fill="none"></path> <path d="M7.25 14.5V14.75C7.25 15.302 6.802 15.75 6.25 15.75H6" stroke="black" stroke-width="1.5" stroke-linecap="round" stroke-linejoin="round" fill="none"></path> <path d="M6 10.75H6.25C6.802 10.75 7.25 11.198 7.25 11.75V12" stroke="black" stroke-width="1.5" stroke-linecap="round" stroke-linejoin="round" fill="none"></path> <path d="M2.25 12V11.75C2.25 11.198 2.698 10.75 3.25 10.75H3.5" stroke="black" stroke-width="1.5" stroke-linecap="round" stroke-linejoin="round" fill="none"></path> <path d="M3.5 15.75H3.25C2.698 15.75 2.25 15.302 2.25 14.75V14.5" stroke="black" stroke-width="1.5" stroke-linecap="round" stroke-linejoin="round" fill="none"></path></svg>