<svg xmlns="http://www.w3.org/2000/svg" xmlns:xlink="http://www.w3.org/1999/xlink" x="0px" y="0px" width="18px" height="18px" viewBox="0 0 18 18"><path opacity="0.3" d="M2.75 9.25V13.25C2.75 14.355 3.65 15.25 4.75 15.25H13.25C14.35 15.25 15.25 14.355 15.25 13.25V9.25H2.75Z" fill="#000" data-color="color-2" data-stroke="none"></path> <path d="M2.75 9.25H15.25" stroke="black" stroke-width="1.5" stroke-linecap="round" stroke-linejoin="round" fill="none"></path> <path d="M9 0.75V5.75" stroke="black" stroke-width="1.5" stroke-linecap="round" stroke-linejoin="round" fill="none"></path> <path d="M6.5 3.25H11.5" stroke="black" stroke-width="1.5" stroke-linecap="round" stroke-linejoin="round" fill="none"></path> <path d="M14.4829 3.43506C14.9482 3.79976 15.25 4.363 15.25 5V13.25C15.25 14.354 14.3599 15.25 13.25 15.25H4.75C3.6401 15.25 2.75 14.354 2.75 13.25V5C2.75 4.3629 3.05181 3.79964 3.51711 3.43494" stroke="black" stroke-width="1.5" stroke-linecap="round" stroke-linejoin="round" fill="none"></path></svg>