<svg xmlns="http://www.w3.org/2000/svg" xmlns:xlink="http://www.w3.org/1999/xlink" x="0px" y="0px" width="24px" height="24px" viewBox="0 0 24 24"> <path d="M4 9H2.5C1.67157 9 1 9.67157 1 10.5V10.5C1 11.3284 1.67157 12 2.5 12H3.5C4.32843 12 5 12.6716 5 13.5V13.5C5 14.3284 4.32843 15 3.5 15H2" stroke="#000" stroke-width="2" stroke-linecap="square" data-color="color-2" fill="none"></path> <path d="M8 13.5H11" stroke="#000" stroke-width="2" data-color="color-2" data-cap="butt" fill="none"></path> <path d="M7.57832 15H7.5L9 9H10L11.5 15H11.4148" stroke="#000" stroke-width="2" stroke-linecap="square" data-color="color-2" fill="none"></path> <path d="M14.5 9L14.5 15H17" stroke="#000" stroke-width="2" stroke-linecap="square" data-color="color-2" fill="none"></path> <path d="M22.5714 9H20L20 15H22.5M21.5 12H20.4286" stroke="#000" stroke-width="2" stroke-linecap="square" data-color="color-2" fill="none"></path> <path d="M0.999998 5L23 5" stroke="black" stroke-width="2" stroke-linecap="square" fill="none"></path> <path d="M0.999998 19L23 19" stroke="black" stroke-width="2" stroke-linecap="square" fill="none"></path> </svg>