<svg xmlns="http://www.w3.org/2000/svg" xmlns:xlink="http://www.w3.org/1999/xlink" x="0px" y="0px" width="24px" height="24px" viewBox="0 0 24 24"> <path d="M1 11L12 2L23 11" stroke="black" stroke-width="2" stroke-miterlimit="10" data-cap="butt" fill="none"></path> <path d="M1.61108 10.5L12 2L22.3889 10.5" stroke="black" stroke-width="2" stroke-miterlimit="10" stroke-linecap="square" fill="none"></path> <path d="M4 14V20C4 21.1046 4.89543 22 6 22H18C19.1046 22 20 21.1046 20 20V14" stroke="black" stroke-width="2" stroke-miterlimit="10" stroke-linecap="square" fill="none"></path> <path d="M12.0613 12.0233C12.5262 11.4736 13.0964 11 13.8463 11C15.0355 11.0002 16 12.0133 16 13.2634C16 15.4007 12.8873 17.5789 12 18C11.1127 17.5789 8.00004 15.4007 8 13.2634C8 12.0133 8.96451 11.0002 10.1537 11C10.9036 11 11.4738 11.4736 11.9387 12.0233H12.0613Z" stroke="#000" stroke-width="2" stroke-miterlimit="10" stroke-linecap="square" data-color="color-2" fill="none"></path> </svg>