<svg xmlns="http://www.w3.org/2000/svg" xmlns:xlink="http://www.w3.org/1999/xlink" x="0px" y="0px" width="32px" height="32px" viewBox="0 0 32 32"> <path d="M2 23V26C2 27.1046 2.89543 28 4 28H28C29.1046 28 30 27.1046 30 26V23H21C21 23.5523 20.5523 24 20 24H12C11.4477 24 11 23.5523 11 23H2Z" stroke="black" stroke-width="2" stroke-miterlimit="10" stroke-linecap="square" fill="none"></path> <path d="M4 19V7C4 5.34315 5.34315 4 7 4H13" stroke="black" stroke-width="2" stroke-miterlimit="10" stroke-linecap="square" fill="none"></path> <path d="M21 16V11H25V16" stroke="#000" stroke-width="2" stroke-linecap="square" data-color="color-2" fill="none"></path> <path d="M29 7V9V14.5C29 15.3284 28.3284 16 27.5 16L18.5 16C17.6716 16 17 15.3284 17 14.5V9V7L23 3.5L29 7Z" stroke="#000" stroke-width="2" stroke-linecap="square" data-color="color-2" fill="none"></path> </svg>