<svg xmlns="http://www.w3.org/2000/svg" xmlns:xlink="http://www.w3.org/1999/xlink" x="0px" y="0px" width="24px" height="24px" viewBox="0 0 24 24"><path d="m12,10.75c2.328-1.656,4-3.541,4-5.75s-1.791-4-4-4c-2.209,0-4,1.791-4,4s1.672,4.094,4,5.75Z" fill="none" stroke="#000" stroke-linecap="square" stroke-miterlimit="10" stroke-width="2" data-color="color-2"></path><path d="m5.5,18h0c-2.485,0-4.5,2.015-4.5,4.5v.5h9v-.5c0-2.485-2.015-4.5-4.5-4.5Z" fill="none" stroke="#000" stroke-linecap="square" stroke-miterlimit="10" stroke-width="2"></path><circle cx="5.5" cy="12.5" r="2.5" fill="none" stroke="#000" stroke-linecap="square" stroke-miterlimit="10" stroke-width="2"></circle><path d="m18.5,18h0c-2.485,0-4.5,2.015-4.5,4.5v.5h9v-.5c0-2.485-2.015-4.5-4.5-4.5Z" fill="none" stroke="#000" stroke-linecap="square" stroke-miterlimit="10" stroke-width="2"></path><circle cx="18.5" cy="12.5" r="2.5" fill="none" stroke="#000" stroke-linecap="square" stroke-miterlimit="10" stroke-width="2"></circle><circle cx="12" cy="5" r="1" fill="#000" stroke-width="0" data-color="color-2" data-cap="butt"></circle></svg>