<svg xmlns="http://www.w3.org/2000/svg" xmlns:xlink="http://www.w3.org/1999/xlink" x="0px" y="0px" width="24px" height="24px" viewBox="0 0 24 24"> <path d="M12 1V2V1.5" stroke="#000" stroke-width="2" stroke-linecap="square" data-color="color-2" fill="none"></path> <path d="M8.83899 16.6054V16.6054C10.0273 19.3852 13.969 19.386 15.1556 16.6055V16.6055" stroke="#000" stroke-width="2" data-color="color-2" data-cap="butt" fill="none"></path> <path d="M11 8L11 7L12 7L12 8" stroke="#000" stroke-width="2" stroke-linecap="square" data-color="color-2" fill="none"></path> <path d="M6 22V17.6758V18.1758" stroke="#000" stroke-width="2" stroke-linecap="square" data-color="color-2" fill="none"></path> <path d="M18 22L18 17.6406V18.1406" stroke="#000" stroke-width="2" stroke-linecap="square" data-color="color-2" fill="none"></path> <path d="M22 22V21.1623C22 19.871 21.1737 18.7246 19.9487 18.3162L15.8675 16.9558C15.0509 16.6836 14.5 15.9193 14.5 15.0585V14.2733C15.6023 13.5723 16.3973 12.4176 16.6082 11.0465L17 8.49999V8" stroke="black" stroke-width="2" stroke-linecap="square" fill="none"></path> <path d="M2 22V21.1623C2 19.871 2.82629 18.7246 4.05132 18.3162L8.13246 16.9558C8.94914 16.6836 9.5 15.9193 9.5 15.0585V14.2733C8.39767 13.5723 7.60271 12.4176 7.39177 11.0465L7 8.89448L7 8" stroke="black" stroke-width="2" stroke-linecap="square" fill="none"></path> <path d="M17 7.92394V7C17 4.23858 14.7614 2 12 2C9.23858 2 7 4.23858 7 7V8H22" stroke="#000" stroke-width="2" stroke-miterlimit="10" data-color="color-2" data-cap="butt" fill="none"></path> </svg>