<svg xmlns="http://www.w3.org/2000/svg" xmlns:xlink="http://www.w3.org/1999/xlink" x="0px" y="0px" width="24px" height="24px" viewBox="0 0 24 24"><circle cx="12" cy="3" r="2" fill="none" stroke="#000" stroke-miterlimit="10" stroke-width="2" data-color="color-2" data-cap="butt"></circle><path d="m14,22l.893-3.571c.068-.273.018-.563-.138-.797l-1.755-2.632v-5.732.177" fill="none" stroke="#000" stroke-linecap="square" stroke-miterlimit="10" stroke-width="2"></path><path d="m9,12.5v2.254c0,.164.02.326.06.485l.833,3.332c.068.273.018.563-.138.797l-1.755,2.632" fill="none" stroke="#000" stroke-linecap="square" stroke-miterlimit="10" stroke-width="2"></path><path d="m17,14h1c1.105,0,2,.895,2,2v7" fill="none" stroke="#000" stroke-linecap="square" stroke-miterlimit="10" stroke-width="2" data-color="color-2"></path><path d="m5,14l1.866-3.731c.088-.175.225-.321.394-.419l2.74-1.582c.845-.488,1.918-.296,2.541.455l4.459,5.277-.208-.246" fill="none" stroke="#000" stroke-linecap="square" stroke-miterlimit="10" stroke-width="2"></path></svg>