<svg xmlns="http://www.w3.org/2000/svg" xmlns:xlink="http://www.w3.org/1999/xlink" x="0px" y="0px" width="32px" height="32px" viewBox="0 0 32 32"> <path d="M16 12C18.7614 12 21 9.76142 21 7C21 4.23858 18.7614 2 16 2C13.2386 2 11 4.23858 11 7C11 9.76142 13.2386 12 16 12Z" stroke="black" stroke-width="2" stroke-miterlimit="10" stroke-linecap="square" fill="none"></path> <path d="M16 16C9.373 16 4 21.1741 4 27.5559C7.66645 28.4384 11.3332 28.9164 15 28.99" stroke="black" stroke-width="2" stroke-miterlimit="10" stroke-linecap="square" fill="none"></path> <path d="M30 18V22H26" stroke="#000" stroke-width="2" stroke-miterlimit="10" stroke-linecap="square" data-color="color-2" fill="none"></path> <path d="M26.3178 28C25.3675 28.6318 24.2267 29 23 29C19.6863 29 17 26.3137 17 23C17 19.6863 19.6863 17 23 17C25.7 17 27.9835 18.7835 28.7367 21.2366" stroke="#000" stroke-width="2" stroke-miterlimit="10" stroke-linecap="square" data-color="color-2" fill="none"></path> </svg>