<svg xmlns="http://www.w3.org/2000/svg" xmlns:xlink="http://www.w3.org/1999/xlink" x="0px" y="0px" width="32px" height="32px" viewBox="0 0 32 32"><path d="M16 12C18.7614 12 21 9.76142 21 7C21 4.23858 18.7614 2 16 2C13.2386 2 11 4.23858 11 7C11 9.76142 13.2386 12 16 12Z" stroke="black" stroke-width="2" stroke-miterlimit="10" stroke-linecap="square" fill="none"></path> <path d="M12.7529 28.8943C9.83519 28.7043 6.9175 28.2581 4 27.5559C4 21.1741 9.373 16 16 16C16.5898 16 17.1696 16.041 17.7366 16.1201" stroke="black" stroke-width="2" stroke-miterlimit="10" stroke-linecap="square" fill="none"></path> <path d="M24.9939 17C22.0549 17.0015 19.5494 19.129 19.0739 22.0265C17.1534 22.264 15.7896 24.0115 16.0268 25.9295C16.243 27.677 17.7255 28.992 19.4883 29H24.9939C28.3108 29 31 26.3135 31 23C31 19.6865 28.3108 17 24.9939 17Z" stroke="#000" stroke-width="2" stroke-miterlimit="10" stroke-linecap="square" data-color="color-2" fill="none"></path></svg>