<svg xmlns="http://www.w3.org/2000/svg" xmlns:xlink="http://www.w3.org/1999/xlink" x="0px" y="0px" width="48px" height="48px" viewBox="0 0 48 48"> <path d="M41 35H7C4.79086 35 3 36.7909 3 39V41H45V39C45 36.7909 43.2091 35 41 35Z" stroke="#000" stroke-width="2" stroke-miterlimit="10" stroke-linecap="square" data-color="color-2" fill="none"></path> <path d="M40.5 30C42.9853 30 45 27.9853 45 25.5C45 23.0147 42.9853 21 40.5 21C38.0147 21 36 23.0147 36 25.5C36 27.9853 38.0147 30 40.5 30Z" stroke="black" stroke-width="2" stroke-miterlimit="10" stroke-linecap="square" fill="none"></path> <path d="M13.5625 16L9.62291 22.9078C9.21469 23.6236 9.00001 24.4333 9.00001 25.2573C9.00001 27.8766 11.1234 30 13.7427 30H27.0001C29.7615 30 32.0001 27.7614 32.0001 25L32.0001 11.6295C32.0001 10.7295 31.2705 10 30.3706 10C29.5784 10 28.901 10.5698 28.7652 11.3503L27.0001 21.5H17.5001L18.6196 15.9021C18.8511 14.7445 18.3822 13.5587 17.4216 12.8725L8.5 6.5L6.5 9L13.5625 16Z" stroke="black" stroke-width="2" stroke-miterlimit="10" stroke-linecap="square" fill="none"></path> </svg>