<svg xmlns="http://www.w3.org/2000/svg" xmlns:xlink="http://www.w3.org/1999/xlink" x="0px" y="0px" width="48px" height="48px" viewBox="0 0 48 48"><path d="M43 3H25C23.3431 3 22 4.34315 22 6V19V23L28 19H43C44.6569 19 46 17.6569 46 16V6C46 4.34315 44.6569 3 43 3Z" stroke="#000" stroke-width="2" stroke-miterlimit="10" stroke-linecap="square" data-color="color-2" fill="none"></path> <path d="M12.5 28C15.2614 28 17.5 25.7614 17.5 23C17.5 20.2386 15.2614 18 12.5 18C9.73858 18 7.5 20.2386 7.5 23C7.5 25.7614 9.73858 28 12.5 28Z" stroke="black" stroke-width="2" stroke-miterlimit="10" fill="none" data-cap="butt"></path> <path d="M12.5 32C6.70137 32 2 36.3781 2 41.778C8.99956 43.4073 16.0004 43.4073 23 41.778C23 36.3781 18.2986 32 12.5 32Z" stroke="black" stroke-width="2" stroke-miterlimit="10" stroke-linecap="square" fill="none"></path> <path d="M29.5 11L32.5 14L38.5 8" stroke="#000" stroke-width="2" stroke-miterlimit="10" stroke-linecap="square" data-color="color-2" fill="none"></path></svg>