<svg xmlns="http://www.w3.org/2000/svg" xmlns:xlink="http://www.w3.org/1999/xlink" x="0px" y="0px" width="48px" height="48px" viewBox="0 0 48 48"><path d="M24 19C28.1421 19 31.5 15.6421 31.5 11.5C31.5 7.35786 28.1421 4 24 4C19.8579 4 16.5 7.35786 16.5 11.5C16.5 15.6421 19.8579 19 24 19Z" stroke="black" stroke-width="2" stroke-miterlimit="10" stroke-linecap="square" fill="none"></path> <path d="M35 35C35 35.5523 35.4477 36 36 36C36.5523 36 37 35.5523 37 35C37 34.4477 36.5523 34 36 34C35.4477 34 35 34.4477 35 35Z" fill="#000" stroke="#000" stroke-width="2" stroke-miterlimit="10" stroke-linecap="square" data-color="color-2"></path> <path d="M43 35C43 35.5523 43.4477 36 44 36C44.5523 36 45 35.5523 45 35C45 34.4477 44.5523 34 44 34C43.4477 34 43 34.4477 43 35Z" fill="#000" stroke="#000" stroke-width="2" stroke-miterlimit="10" stroke-linecap="square" data-color="color-2"></path> <path d="M27 35C27 35.5523 27.4477 36 28 36C28.5523 36 29 35.5523 29 35C29 34.4477 28.5523 34 28 34C27.4477 34 27 34.4477 27 35Z" fill="#000" stroke="#000" stroke-width="2" stroke-miterlimit="10" stroke-linecap="square" data-color="color-2"></path> <path d="M34.5 27.1701C31.5446 25.175 27.9184 24 24 24C14.0595 24 6 31.5622 6 40.8894C15.4993 43.1172 25.0001 43.5814 34.5 42.2818" stroke="black" stroke-width="2" stroke-miterlimit="10" stroke-linecap="square" fill="none"></path></svg>