<svg xmlns="http://www.w3.org/2000/svg" xmlns:xlink="http://www.w3.org/1999/xlink" x="0px" y="0px" width="18px" height="18px" viewBox="0 0 18 18"><path d="M10.75 2.75H3.75C3.198 2.75 2.75 3.198 2.75 3.75V10.75C2.75 11.302 3.198 11.75 3.75 11.75H10.75C11.302 11.75 11.75 11.302 11.75 10.75V3.75C11.75 3.198 11.302 2.75 10.75 2.75Z" fill="#000" fill-opacity="0.3" data-color="color-2" data-stroke="none"></path> <path d="M6.25 11.75V14.25C6.25 14.802 6.698 15.25 7.25 15.25H14.25C14.802 15.25 15.25 14.802 15.25 14.25V7.25C15.25 6.698 14.802 6.25 14.25 6.25H11.75" stroke="black" stroke-width="1.5" stroke-linecap="round" stroke-linejoin="round" fill="none"></path> <path d="M11.75 8.75L15.25 12.25" stroke="black" stroke-width="1.5" stroke-linecap="round" stroke-linejoin="round" fill="none"></path> <path d="M8.75 11.75L12.25 15.25" stroke="black" stroke-width="1.5" stroke-linecap="round" stroke-linejoin="round" fill="none"></path> <path d="M10.75 2.75H3.75C3.198 2.75 2.75 3.198 2.75 3.75V10.75C2.75 11.302 3.198 11.75 3.75 11.75H10.75C11.302 11.75 11.75 11.302 11.75 10.75V3.75C11.75 3.198 11.302 2.75 10.75 2.75Z" stroke="black" stroke-width="1.5" stroke-linecap="round" stroke-linejoin="round" fill="none"></path></svg>