<svg xmlns="http://www.w3.org/2000/svg" xmlns:xlink="http://www.w3.org/1999/xlink" x="0px" y="0px" width="18px" height="18px" viewBox="0 0 18 18"><path d="M4.75 14.25H12.523C12.825 14.25 13.11 14.114 13.3 13.879L17.25 9L13.3 4.121C13.11 3.886 12.825 3.75 12.523 3.75H4.75C3.645 3.75 2.75 4.645 2.75 5.75V12.25C2.75 13.355 3.645 14.25 4.75 14.25Z" fill="#000" fill-opacity="0.3" data-color="color-2" data-stroke="none"></path> <path d="M4.75 14.25H12.523C12.825 14.25 13.11 14.114 13.3 13.879L17.25 9L13.3 4.121C13.11 3.886 12.825 3.75 12.523 3.75H4.75C3.645 3.75 2.75 4.645 2.75 5.75V12.25C2.75 13.355 3.645 14.25 4.75 14.25Z" stroke="black" stroke-width="1.5" stroke-linecap="round" stroke-linejoin="round" fill="none"></path> <path d="M11.25 11.25L6.75 6.75" stroke="black" stroke-width="1.5" stroke-linecap="round" stroke-linejoin="round" fill="none"></path> <path d="M6.75 11.25L11.25 6.75" stroke="black" stroke-width="1.5" stroke-linecap="round" stroke-linejoin="round" fill="none"></path></svg>