<svg xmlns="http://www.w3.org/2000/svg" xmlns:xlink="http://www.w3.org/1999/xlink" x="0px" y="0px" width="18px" height="18px" viewBox="0 0 18 18"><path d="M14.25 6.75H11.25V3.75C11.25 3.198 10.802 2.75 10.25 2.75H3.75C3.198 2.75 2.75 3.198 2.75 3.75V10.25C2.75 10.802 3.198 11.25 3.75 11.25H6.75V14.25C6.75 14.802 7.198 15.25 7.75 15.25H14.25C14.802 15.25 15.25 14.802 15.25 14.25V7.75C15.25 7.198 14.802 6.75 14.25 6.75Z" fill="#000" fill-opacity="0.3" data-color="color-2" data-stroke="none"></path> <path d="M14.25 6.75H11.25V3.75C11.25 3.198 10.802 2.75 10.25 2.75H3.75C3.198 2.75 2.75 3.198 2.75 3.75V10.25C2.75 10.802 3.198 11.25 3.75 11.25H6.75V14.25C6.75 14.802 7.198 15.25 7.75 15.25H14.25C14.802 15.25 15.25 14.802 15.25 14.25V7.75C15.25 7.198 14.802 6.75 14.25 6.75Z" stroke="black" stroke-width="1.5" stroke-linecap="round" stroke-linejoin="round" fill="none"></path></svg>