<svg xmlns="http://www.w3.org/2000/svg" xmlns:xlink="http://www.w3.org/1999/xlink" x="0px" y="0px" width="18px" height="18px" viewBox="0 0 18 18"><path d="M11 11.25C12.2426 11.25 13.25 10.2426 13.25 9C13.25 7.75736 12.2426 6.75 11 6.75C9.75736 6.75 8.75 7.75736 8.75 9C8.75 10.2426 9.75736 11.25 11 11.25Z" fill="#000" fill-opacity="0.3" data-color="color-2" data-stroke="none"></path> <path d="M1.75 14.25H11C13.899 14.25 16.25 11.899 16.25 9C16.25 6.1 13.899 3.75 11 3.75H1.75" stroke="black" stroke-width="1.5" stroke-linecap="round" stroke-linejoin="round" fill="none"></path> <path d="M11 11.25C12.2426 11.25 13.25 10.2426 13.25 9C13.25 7.75736 12.2426 6.75 11 6.75C9.75736 6.75 8.75 7.75736 8.75 9C8.75 10.2426 9.75736 11.25 11 11.25Z" stroke="black" stroke-width="1.5" stroke-linecap="round" stroke-linejoin="round" fill="none"></path> <path d="M1.75 9H8.75" stroke="black" stroke-width="1.5" stroke-linecap="round" stroke-linejoin="round" fill="none"></path></svg>