<svg xmlns="http://www.w3.org/2000/svg" xmlns:xlink="http://www.w3.org/1999/xlink" x="0px" y="0px" width="18px" height="18px" viewBox="0 0 18 18"><path d="M2.75 6.75H6.75V15.25H4.75C3.64543 15.25 2.75 14.3546 2.75 13.25V6.75Z" fill="#000" fill-opacity="0.3" data-color="color-2" data-stroke="none"></path> <path d="M6.75 2.75H13.25C14.3546 2.75 15.25 3.64543 15.25 4.75V6.75H6.75V2.75Z" fill="#000" fill-opacity="0.3" data-color="color-2" data-stroke="none"></path> <path d="M15.25 13.25C15.25 14.355 14.355 15.25 13.25 15.25" stroke="black" stroke-width="1.5" stroke-linecap="round" stroke-linejoin="round" fill="none"></path> <path d="M9.25 15.25H10.75" stroke="black" stroke-width="1.5" stroke-linecap="round" stroke-linejoin="round" fill="none"></path> <path d="M15.25 9.25V10.75" stroke="black" stroke-width="1.5" stroke-linecap="round" stroke-linejoin="round" fill="none"></path> <path d="M2.75 6.75H15.25V4.75C15.25 3.645 14.355 2.75 13.25 2.75H4.75C3.645 2.75 2.75 3.645 2.75 4.75V13.25C2.75 14.355 3.645 15.25 4.75 15.25H6.75V2.75" stroke="black" stroke-width="1.5" stroke-linecap="round" stroke-linejoin="round" fill="none"></path> <path d="M12.75 6.75V5.25" stroke="black" stroke-width="1.5" stroke-linecap="round" stroke-linejoin="round" fill="none"></path> <path d="M9.75 6.75V5.25" stroke="black" stroke-width="1.5" stroke-linecap="round" stroke-linejoin="round" fill="none"></path> <path d="M6.75 9.75H5.25" stroke="black" stroke-width="1.5" stroke-linecap="round" stroke-linejoin="round" fill="none"></path> <path d="M6.75 12.75H5.25" stroke="black" stroke-width="1.5" stroke-linecap="round" stroke-linejoin="round" fill="none"></path></svg>