<svg xmlns="http://www.w3.org/2000/svg" xmlns:xlink="http://www.w3.org/1999/xlink" x="0px" y="0px" width="18px" height="18px" viewBox="0 0 18 18"><path d="M9 13.25C10.5188 13.25 11.75 12.0188 11.75 10.5C11.75 8.98122 10.5188 7.75 9 7.75C7.48122 7.75 6.25 8.98122 6.25 10.5C6.25 12.0188 7.48122 13.25 9 13.25Z" fill="#000" fill-opacity="0.3" data-color="color-2" data-stroke="none"></path> <path d="M1.85901 8C3.67401 6.149 6.20301 5 9.00001 5C11.797 5 14.326 6.148 16.141 8" stroke="black" stroke-width="1.5" stroke-linecap="round" stroke-linejoin="round" fill="none"></path> <path d="M9 13.25C10.5188 13.25 11.75 12.0188 11.75 10.5C11.75 8.98122 10.5188 7.75 9 7.75C7.48122 7.75 6.25 8.98122 6.25 10.5C6.25 12.0188 7.48122 13.25 9 13.25Z" stroke="black" stroke-width="1.5" stroke-linecap="round" stroke-linejoin="round" fill="none"></path> <path d="M4.021 6.328L2.75 4.25" stroke="black" stroke-width="1.5" stroke-linecap="round" stroke-linejoin="round" fill="none"></path> <path d="M7.3 5.144L6.823 2.769" stroke="black" stroke-width="1.5" stroke-linecap="round" stroke-linejoin="round" fill="none"></path> <path d="M13.979 6.328L15.25 4.25" stroke="black" stroke-width="1.5" stroke-linecap="round" stroke-linejoin="round" fill="none"></path> <path d="M10.7 5.144L11.177 2.769" stroke="black" stroke-width="1.5" stroke-linecap="round" stroke-linejoin="round" fill="none"></path></svg>