<svg xmlns="http://www.w3.org/2000/svg" xmlns:xlink="http://www.w3.org/1999/xlink" x="0px" y="0px" width="18px" height="18px" viewBox="0 0 18 18"><path d="M9 13.25C11.3472 13.25 13.25 11.3472 13.25 9C13.25 6.65279 11.3472 4.75 9 4.75C6.65279 4.75 4.75 6.65279 4.75 9C4.75 11.3472 6.65279 13.25 9 13.25Z" fill="#000" fill-opacity="0.3" data-color="color-2" data-stroke="none"></path> <path d="M9 16.25C4.996 16.25 1.75 13.004 1.75 9" stroke="black" stroke-width="1.5" stroke-linecap="round" stroke-linejoin="round" fill="none"></path> <path d="M9 1.75C13.004 1.75 16.25 4.996 16.25 9" stroke="black" stroke-width="1.5" stroke-linecap="round" stroke-linejoin="round" fill="none"></path> <path d="M9 13.25C11.3472 13.25 13.25 11.3472 13.25 9C13.25 6.65279 11.3472 4.75 9 4.75C6.65279 4.75 4.75 6.65279 4.75 9C4.75 11.3472 6.65279 13.25 9 13.25Z" stroke="black" stroke-width="1.5" stroke-linecap="round" stroke-linejoin="round" fill="none"></path></svg>