<svg xmlns="http://www.w3.org/2000/svg" xmlns:xlink="http://www.w3.org/1999/xlink" x="0px" y="0px" width="18px" height="18px" viewBox="0 0 18 18"><path d="M14.25 11.25C15.4926 11.25 16.5 10.2426 16.5 9C16.5 7.75736 15.4926 6.75 14.25 6.75C13.0074 6.75 12 7.75736 12 9C12 10.2426 13.0074 11.25 14.25 11.25Z" fill="#000" fill-opacity="0.3" data-color="color-2" data-stroke="none"></path> <path d="M14.25 6.75V4.75C14.25 4.198 13.802 3.75 13.25 3.75H1.75" stroke="black" stroke-width="1.5" stroke-linecap="round" stroke-linejoin="round" fill="none"></path> <path d="M1.75 14.25H13.25C13.802 14.25 14.25 13.802 14.25 13.25V11.25" stroke="black" stroke-width="1.5" stroke-linecap="round" stroke-linejoin="round" fill="none"></path> <path d="M14.25 11.25C15.4926 11.25 16.5 10.2426 16.5 9C16.5 7.75736 15.4926 6.75 14.25 6.75C13.0074 6.75 12 7.75736 12 9C12 10.2426 13.0074 11.25 14.25 11.25Z" stroke="black" stroke-width="1.5" stroke-linecap="round" stroke-linejoin="round" fill="none"></path> <path d="M1.75 9H12" stroke="black" stroke-width="1.5" stroke-linecap="round" stroke-linejoin="round" fill="none"></path></svg>