<svg xmlns="http://www.w3.org/2000/svg" xmlns:xlink="http://www.w3.org/1999/xlink" x="0px" y="0px" width="18px" height="18px" viewBox="0 0 18 18"><path fill-rule="evenodd" clip-rule="evenodd" d="M4.75 15.25H7.515C7.93684 15.25 8.35404 15.2056 8.76038 15.1195V10.756C8.76038 9.65138 9.65581 8.75595 10.7604 8.75595H15.1203C15.2059 8.35095 15.25 7.93524 15.25 7.515V4.75C15.25 3.645 14.355 2.75 13.25 2.75H4.75C3.645 2.75 2.75 3.645 2.75 4.75V13.25C2.75 14.355 3.645 15.25 4.75 15.25Z" fill="#000" fill-opacity="0.3" data-color="color-2" data-stroke="none"></path> <path d="M7.25 15.25C8.078 15.25 8.75 14.578 8.75 13.75V10.75C8.75 9.645 9.645 8.75 10.75 8.75H13.75C14.578 8.75 15.25 8.078 15.25 7.25" stroke="black" stroke-width="1.5" stroke-linecap="round" stroke-linejoin="round" fill="none"></path> <path d="M7.515 15.25H4.75C3.645 15.25 2.75 14.355 2.75 13.25V4.75C2.75 3.645 3.645 2.75 4.75 2.75H13.25C14.355 2.75 15.25 3.645 15.25 4.75V7.515C15.25 9.106 14.618 10.632 13.493 11.758L11.758 13.493C10.633 14.618 9.107 15.25 7.515 15.25Z" stroke="black" stroke-width="1.5" stroke-linecap="round" stroke-linejoin="round" fill="none"></path></svg>