<svg xmlns="http://www.w3.org/2000/svg" xmlns:xlink="http://www.w3.org/1999/xlink" x="0px" y="0px" width="18px" height="18px" viewBox="0 0 18 18"><path d="M12.25 10.25V7.75C12.25 7.19772 11.8023 6.75 11.25 6.75L3.75 6.75C3.19771 6.75 2.75 7.19772 2.75 7.75V10.25C2.75 10.8023 3.19771 11.25 3.75 11.25H11.25C11.8023 11.25 12.25 10.8023 12.25 10.25Z" fill="#000" fill-opacity="0.3" data-color="color-2" data-stroke="none"></path> <path d="M15.25 1.75V16.25" stroke="black" stroke-width="1.5" stroke-linecap="round" stroke-linejoin="round" fill="none"></path> <path d="M12.25 10.25V7.75C12.25 7.19772 11.8023 6.75 11.25 6.75L3.75 6.75C3.19771 6.75 2.75 7.19772 2.75 7.75V10.25C2.75 10.8023 3.19771 11.25 3.75 11.25H11.25C11.8023 11.25 12.25 10.8023 12.25 10.25Z" stroke="black" stroke-width="1.5" stroke-linecap="round" stroke-linejoin="round" fill="none"></path></svg>