<svg xmlns="http://www.w3.org/2000/svg" xmlns:xlink="http://www.w3.org/1999/xlink" x="0px" y="0px" width="18px" height="18px" viewBox="0 0 18 18"><path d="M10.184 9.77004L17.038 12.274C17.327 12.38 17.318 12.791 17.026 12.885L13.889 13.889L12.885 17.026C12.791 17.319 12.38 17.327 12.274 17.038L9.77004 10.184C9.67604 9.92604 9.92604 9.67604 10.184 9.77004Z" fill="#000" fill-opacity="0.3" data-color="color-2" data-stroke="none"></path> <path d="M2.75 4.75C2.75 3.645 3.645 2.75 4.75 2.75" stroke="black" stroke-width="1.5" stroke-linecap="round" stroke-linejoin="round" fill="none"></path> <path d="M13.25 2.75C14.355 2.75 15.25 3.645 15.25 4.75" stroke="black" stroke-width="1.5" stroke-linecap="round" stroke-linejoin="round" fill="none"></path> <path d="M4.75 15.25C3.645 15.25 2.75 14.355 2.75 13.25" stroke="black" stroke-width="1.5" stroke-linecap="round" stroke-linejoin="round" fill="none"></path> <path d="M7.75 2.75H10.25" stroke="black" stroke-width="1.5" stroke-linecap="round" stroke-linejoin="round" fill="none"></path> <path d="M7.75 15.25H8.4266" stroke="black" stroke-width="1.5" stroke-linecap="round" stroke-linejoin="round" fill="none"></path> <path d="M15.25 7.75V8.42688" stroke="black" stroke-width="1.5" stroke-linecap="round" stroke-linejoin="round" fill="none"></path> <path d="M2.75 7.75V10.25" stroke="black" stroke-width="1.5" stroke-linecap="round" stroke-linejoin="round" fill="none"></path> <path d="M10.184 9.77004L17.038 12.274C17.327 12.38 17.318 12.791 17.026 12.885L13.889 13.889L12.885 17.026C12.791 17.319 12.38 17.327 12.274 17.038L9.77004 10.184C9.67604 9.92604 9.92604 9.67604 10.184 9.77004Z" stroke="black" stroke-width="1.5" stroke-linecap="round" stroke-linejoin="round" fill="none"></path></svg>