<svg xmlns="http://www.w3.org/2000/svg" xmlns:xlink="http://www.w3.org/1999/xlink" x="0px" y="0px" width="18px" height="18px" viewBox="0 0 18 18"><path d="M14.25 9.75V8.25C14.25 7.69772 13.8023 7.25 13.25 7.25L4.75 7.25C4.19771 7.25 3.75 7.69772 3.75 8.25V9.75C3.75 10.3023 4.19771 10.75 4.75 10.75H13.25C13.8023 10.75 14.25 10.3023 14.25 9.75Z" fill="#000" fill-opacity="0.3" data-color="color-2" data-stroke="none"></path> <path d="M1.75 15.25H16.25" stroke="black" stroke-width="1.5" stroke-linecap="round" stroke-linejoin="round" fill="none"></path> <path d="M1.75 2.75H16.25" stroke="black" stroke-width="1.5" stroke-linecap="round" stroke-linejoin="round" fill="none"></path> <path d="M14.25 9.75V8.25C14.25 7.69772 13.8023 7.25 13.25 7.25L4.75 7.25C4.19771 7.25 3.75 7.69772 3.75 8.25V9.75C3.75 10.3023 4.19771 10.75 4.75 10.75H13.25C13.8023 10.75 14.25 10.3023 14.25 9.75Z" stroke="black" stroke-width="1.5" stroke-linecap="round" stroke-linejoin="round" fill="none"></path></svg>