<svg xmlns="http://www.w3.org/2000/svg" xmlns:xlink="http://www.w3.org/1999/xlink" x="0px" y="0px" width="18px" height="18px" viewBox="0 0 18 18"><path d="M6 11.75H3.5C2.94772 11.75 2.5 12.1977 2.5 12.75V15.25C2.5 15.8023 2.94772 16.25 3.5 16.25H6C6.55228 16.25 7 15.8023 7 15.25V12.75C7 12.1977 6.55228 11.75 6 11.75Z" fill="#000" fill-opacity="0.3" data-color="color-2" data-stroke="none"></path> <path d="M14.5 11.75H12C11.4477 11.75 11 12.1977 11 12.75V15.25C11 15.8023 11.4477 16.25 12 16.25H14.5C15.0523 16.25 15.5 15.8023 15.5 15.25V12.75C15.5 12.1977 15.0523 11.75 14.5 11.75Z" fill="#000" fill-opacity="0.3" data-color="color-2" data-stroke="none"></path> <path d="M13.25 11.75V10.75C13.25 9.645 12.355 8.75 11.25 8.75H9H6.75C5.645 8.75 4.75 9.645 4.75 10.75V11.75" stroke="black" stroke-width="1.5" stroke-linecap="round" stroke-linejoin="round" fill="none"></path> <path d="M9 6.25V8.75" stroke="black" stroke-width="1.5" stroke-linecap="round" stroke-linejoin="round" fill="none"></path> <path d="M10.25 1.75H7.75C7.19772 1.75 6.75 2.19772 6.75 2.75V5.25C6.75 5.80228 7.19772 6.25 7.75 6.25H10.25C10.8023 6.25 11.25 5.80228 11.25 5.25V2.75C11.25 2.19772 10.8023 1.75 10.25 1.75Z" stroke="black" stroke-width="1.5" stroke-linecap="round" stroke-linejoin="round" fill="none"></path> <path d="M6 11.75H3.5C2.94772 11.75 2.5 12.1977 2.5 12.75V15.25C2.5 15.8023 2.94772 16.25 3.5 16.25H6C6.55228 16.25 7 15.8023 7 15.25V12.75C7 12.1977 6.55228 11.75 6 11.75Z" stroke="black" stroke-width="1.5" stroke-linecap="round" stroke-linejoin="round" fill="none"></path> <path d="M14.5 11.75H12C11.4477 11.75 11 12.1977 11 12.75V15.25C11 15.8023 11.4477 16.25 12 16.25H14.5C15.0523 16.25 15.5 15.8023 15.5 15.25V12.75C15.5 12.1977 15.0523 11.75 14.5 11.75Z" stroke="black" stroke-width="1.5" stroke-linecap="round" stroke-linejoin="round" fill="none"></path></svg>