<svg xmlns="http://www.w3.org/2000/svg" xmlns:xlink="http://www.w3.org/1999/xlink" x="0px" y="0px" width="18px" height="18px" viewBox="0 0 18 18"><path d="M15.718 8.293L14.25 6.825V4.75C14.25 4.198 13.802 3.75 13.25 3.75H11.175L9.70702 2.282C9.31602 1.892 8.68302 1.892 8.29302 2.282L6.82502 3.75H4.75002C4.19802 3.75 3.75002 4.198 3.75002 4.75V6.825L2.28202 8.293C1.89102 8.683 1.89102 9.317 2.28202 9.707L3.75002 11.175V13.25C3.75002 13.802 4.19802 14.25 4.75002 14.25H6.82502L8.29302 15.718C8.68402 16.108 9.31702 16.108 9.70702 15.718L11.175 14.25H13.25C13.802 14.25 14.25 13.802 14.25 13.25V11.175L15.718 9.707C16.109 9.317 16.109 8.683 15.718 8.293Z" fill="#000" fill-opacity="0.3" data-color="color-2" data-stroke="none"></path> <path d="M15.718 8.293L14.25 6.825V4.75C14.25 4.198 13.802 3.75 13.25 3.75H11.175L9.70702 2.282C9.31602 1.892 8.68302 1.892 8.29302 2.282L6.82502 3.75H4.75002C4.19802 3.75 3.75002 4.198 3.75002 4.75V6.825L2.28202 8.293C1.89102 8.683 1.89102 9.317 2.28202 9.707L3.75002 11.175V13.25C3.75002 13.802 4.19802 14.25 4.75002 14.25H6.82502L8.29302 15.718C8.68402 16.108 9.31702 16.108 9.70702 15.718L11.175 14.25H13.25C13.802 14.25 14.25 13.802 14.25 13.25V11.175L15.718 9.707C16.109 9.317 16.109 8.683 15.718 8.293Z" stroke="black" stroke-width="1.5" stroke-linecap="round" stroke-linejoin="round" fill="none"></path></svg>