<svg xmlns="http://www.w3.org/2000/svg" xmlns:xlink="http://www.w3.org/1999/xlink" x="0px" y="0px" width="18px" height="18px" viewBox="0 0 18 18"><path d="M10.25 3.75H7.75C7.19772 3.75 6.75 4.19772 6.75 4.75V13.25C6.75 13.8023 7.19772 14.25 7.75 14.25H10.25C10.8023 14.25 11.25 13.8023 11.25 13.25V4.75C11.25 4.19772 10.8023 3.75 10.25 3.75Z" fill="#000" fill-opacity="0.3" data-color="color-2" data-stroke="none"></path> <path d="M10.25 3.75H7.75C7.19772 3.75 6.75 4.19772 6.75 4.75V13.25C6.75 13.8023 7.19772 14.25 7.75 14.25H10.25C10.8023 14.25 11.25 13.8023 11.25 13.25V4.75C11.25 4.19772 10.8023 3.75 10.25 3.75Z" stroke="black" stroke-width="1.5" stroke-linecap="round" stroke-linejoin="round" fill="none"></path> <path d="M2.75 1.75V16.25" stroke="black" stroke-width="1.5" stroke-linecap="round" stroke-linejoin="round" fill="none"></path> <path d="M15.25 1.75V16.25" stroke="black" stroke-width="1.5" stroke-linecap="round" stroke-linejoin="round" fill="none"></path></svg>