<svg xmlns="http://www.w3.org/2000/svg" xmlns:xlink="http://www.w3.org/1999/xlink" x="0px" y="0px" width="18px" height="18px" viewBox="0 0 18 18"><path d="M11.7496 4.24252L8.99969 1.49258L6.24976 4.24252L8.9997 6.99246L11.7496 4.24252Z" fill="#000" fill-opacity="0.3" data-color="color-2" data-stroke="none"></path> <path d="M4.24249 6.24976L1.49255 8.99969L4.24249 11.7496L6.99243 8.9997L4.24249 6.24976Z" fill="#000" fill-opacity="0.3" data-color="color-2" data-stroke="none"></path> <path d="M6.25049 13.7574L9.00043 16.5073L11.7504 13.7574L9.00043 11.0074L6.25049 13.7574Z" fill="#000" fill-opacity="0.3" data-color="color-2" data-stroke="none"></path> <path d="M13.7574 11.7504L16.5073 9.00043L13.7574 6.25049L11.0074 9.00043L13.7574 11.7504Z" fill="#000" fill-opacity="0.3" data-color="color-2" data-stroke="none"></path> <path d="M11.7496 4.24252L8.99969 1.49258L6.24976 4.24252L8.9997 6.99246L11.7496 4.24252Z" stroke="black" stroke-width="1.5" stroke-linecap="round" stroke-linejoin="round" fill="none"></path> <path d="M4.24249 6.24976L1.49255 8.99969L4.24249 11.7496L6.99243 8.9997L4.24249 6.24976Z" stroke="black" stroke-width="1.5" stroke-linecap="round" stroke-linejoin="round" fill="none"></path> <path d="M6.25049 13.7574L9.00043 16.5073L11.7504 13.7574L9.00043 11.0074L6.25049 13.7574Z" stroke="black" stroke-width="1.5" stroke-linecap="round" stroke-linejoin="round" fill="none"></path> <path d="M13.7574 11.7504L16.5073 9.00043L13.7574 6.25049L11.0074 9.00043L13.7574 11.7504Z" stroke="black" stroke-width="1.5" stroke-linecap="round" stroke-linejoin="round" fill="none"></path></svg>