<svg xmlns="http://www.w3.org/2000/svg" xmlns:xlink="http://www.w3.org/1999/xlink" x="0px" y="0px" width="18px" height="18px" viewBox="0 0 18 18"><path d="M8.25 14.25H9.75C10.3023 14.25 10.75 13.8023 10.75 13.25L10.75 4.75C10.75 4.19771 10.3023 3.75 9.75 3.75H8.25C7.69772 3.75 7.25 4.19771 7.25 4.75L7.25 13.25C7.25 13.8023 7.69772 14.25 8.25 14.25Z" fill="#000" fill-opacity="0.3" data-color="color-2" data-stroke="none"></path> <path d="M2.75 1.75V16.25" stroke="black" stroke-width="1.5" stroke-linecap="round" stroke-linejoin="round" fill="none"></path> <path d="M15.25 1.75V16.25" stroke="black" stroke-width="1.5" stroke-linecap="round" stroke-linejoin="round" fill="none"></path> <path d="M8.25 14.25H9.75C10.3023 14.25 10.75 13.8023 10.75 13.25L10.75 4.75C10.75 4.19771 10.3023 3.75 9.75 3.75H8.25C7.69772 3.75 7.25 4.19771 7.25 4.75L7.25 13.25C7.25 13.8023 7.69772 14.25 8.25 14.25Z" stroke="black" stroke-width="1.5" stroke-linecap="round" stroke-linejoin="round" fill="none"></path></svg>