<svg xmlns="http://www.w3.org/2000/svg" xmlns:xlink="http://www.w3.org/1999/xlink" x="0px" y="0px" width="18px" height="18px" viewBox="0 0 18 18"><path d="M15.25 5.75V4.25C15.25 3.42157 14.5784 2.75 13.75 2.75L4.25 2.75C3.42157 2.75 2.75 3.42157 2.75 4.25V5.75C2.75 6.57843 3.42157 7.25 4.25 7.25L13.75 7.25C14.5784 7.25 15.25 6.57843 15.25 5.75Z" fill="#000" fill-opacity="0.3" data-color="color-2" data-stroke="none"></path> <path d="M15.25 13.75V12.25C15.25 11.4216 14.5784 10.75 13.75 10.75H10.25C9.42157 10.75 8.75 11.4216 8.75 12.25V13.75C8.75 14.5784 9.42157 15.25 10.25 15.25H13.75C14.5784 15.25 15.25 14.5784 15.25 13.75Z" fill="#000" fill-opacity="0.3" data-color="color-2" data-stroke="none"></path> <path d="M15.25 5.75V4.25C15.25 3.42157 14.5784 2.75 13.75 2.75L4.25 2.75C3.42157 2.75 2.75 3.42157 2.75 4.25V5.75C2.75 6.57843 3.42157 7.25 4.25 7.25L13.75 7.25C14.5784 7.25 15.25 6.57843 15.25 5.75Z" stroke="black" stroke-width="1.5" stroke-linecap="round" stroke-linejoin="round" fill="none"></path> <path d="M15.25 13.75V12.25C15.25 11.4216 14.5784 10.75 13.75 10.75H10.25C9.42157 10.75 8.75 11.4216 8.75 12.25V13.75C8.75 14.5784 9.42157 15.25 10.25 15.25H13.75C14.5784 15.25 15.25 14.5784 15.25 13.75Z" stroke="black" stroke-width="1.5" stroke-linecap="round" stroke-linejoin="round" fill="none"></path></svg>