<svg xmlns="http://www.w3.org/2000/svg" xmlns:xlink="http://www.w3.org/1999/xlink" x="0px" y="0px" width="18px" height="18px" viewBox="0 0 18 18"><path d="M3.75 11.75V13.25C3.75 13.8023 4.19772 14.25 4.75 14.25H13.25C13.8023 14.25 14.25 13.8023 14.25 13.25V11.75C14.25 11.1977 13.8023 10.75 13.25 10.75H4.75C4.19772 10.75 3.75 11.1977 3.75 11.75Z" fill="#000" fill-opacity="0.3" data-color="color-2" data-stroke="none"></path> <path d="M5.75 4.75V6.25C5.75 6.80228 6.19772 7.25 6.75 7.25H11.25C11.8023 7.25 12.25 6.80228 12.25 6.25V4.75C12.25 4.19772 11.8023 3.75 11.25 3.75L6.75 3.75C6.19772 3.75 5.75 4.19772 5.75 4.75Z" fill="#000" fill-opacity="0.3" data-color="color-2" data-stroke="none"></path> <path d="M9 16.25V14.25" stroke="black" stroke-width="1.5" stroke-linecap="round" stroke-linejoin="round" fill="none"></path> <path d="M9 10.75V7.25" stroke="black" stroke-width="1.5" stroke-linecap="round" stroke-linejoin="round" fill="none"></path> <path d="M9 3.75V1.75" stroke="black" stroke-width="1.5" stroke-linecap="round" stroke-linejoin="round" fill="none"></path> <path d="M3.75 11.75V13.25C3.75 13.8023 4.19772 14.25 4.75 14.25H13.25C13.8023 14.25 14.25 13.8023 14.25 13.25V11.75C14.25 11.1977 13.8023 10.75 13.25 10.75H4.75C4.19772 10.75 3.75 11.1977 3.75 11.75Z" stroke="black" stroke-width="1.5" stroke-linecap="round" stroke-linejoin="round" fill="none"></path> <path d="M5.75 4.75V6.25C5.75 6.80228 6.19772 7.25 6.75 7.25H11.25C11.8023 7.25 12.25 6.80228 12.25 6.25V4.75C12.25 4.19772 11.8023 3.75 11.25 3.75L6.75 3.75C6.19772 3.75 5.75 4.19772 5.75 4.75Z" stroke="black" stroke-width="1.5" stroke-linecap="round" stroke-linejoin="round" fill="none"></path></svg>