<svg xmlns="http://www.w3.org/2000/svg" xmlns:xlink="http://www.w3.org/1999/xlink" x="0px" y="0px" width="18px" height="18px" viewBox="0 0 18 18"><path d="M5.75 2.75H4.25C3.42157 2.75 2.75 3.42157 2.75 4.25V13.75C2.75 14.5784 3.42157 15.25 4.25 15.25H5.75C6.57843 15.25 7.25 14.5784 7.25 13.75V4.25C7.25 3.42157 6.57843 2.75 5.75 2.75Z" fill="#000" fill-opacity="0.3" data-color="color-2" data-stroke="none"></path> <path d="M13.75 8.75H12.25C11.4216 8.75 10.75 9.42157 10.75 10.25V13.75C10.75 14.5784 11.4216 15.25 12.25 15.25H13.75C14.5784 15.25 15.25 14.5784 15.25 13.75V10.25C15.25 9.42157 14.5784 8.75 13.75 8.75Z" fill="#000" fill-opacity="0.3" data-color="color-2" data-stroke="none"></path> <path d="M5.75 2.75H4.25C3.42157 2.75 2.75 3.42157 2.75 4.25V13.75C2.75 14.5784 3.42157 15.25 4.25 15.25H5.75C6.57843 15.25 7.25 14.5784 7.25 13.75V4.25C7.25 3.42157 6.57843 2.75 5.75 2.75Z" stroke="black" stroke-width="1.5" stroke-linecap="round" stroke-linejoin="round" fill="none"></path> <path d="M13.75 8.75H12.25C11.4216 8.75 10.75 9.42157 10.75 10.25V13.75C10.75 14.5784 11.4216 15.25 12.25 15.25H13.75C14.5784 15.25 15.25 14.5784 15.25 13.75V10.25C15.25 9.42157 14.5784 8.75 13.75 8.75Z" stroke="black" stroke-width="1.5" stroke-linecap="round" stroke-linejoin="round" fill="none"></path></svg>