<svg xmlns="http://www.w3.org/2000/svg" xmlns:xlink="http://www.w3.org/1999/xlink" x="0px" y="0px" width="18px" height="18px" viewBox="0 0 18 18"><path d="M13.25 1.75H4.75C3.645 1.75 2.75 2.645 2.75 3.75V14.25C2.75 15.355 3.645 16.25 4.75 16.25H13.25C14.355 16.25 15.25 15.355 15.25 14.25V3.75C15.25 2.645 14.355 1.75 13.25 1.75Z" fill="#000" fill-opacity="0.3" data-color="color-2" data-stroke="none"></path> <path d="M9 5.75L9.67099 8.32899L12.25 9L9.67099 9.67101L9 12.25L8.32901 9.67101L5.75 9L8.32901 8.32899L9 5.75Z" fill="black" stroke="black" stroke-width="1.5" stroke-linecap="round" stroke-linejoin="round"></path> <path d="M13.25 1.75H4.75C3.645 1.75 2.75 2.645 2.75 3.75V14.25C2.75 15.355 3.645 16.25 4.75 16.25H13.25C14.355 16.25 15.25 15.355 15.25 14.25V3.75C15.25 2.645 14.355 1.75 13.25 1.75Z" stroke="black" stroke-width="1.5" stroke-linecap="round" stroke-linejoin="round" fill="none"></path></svg>