<svg xmlns="http://www.w3.org/2000/svg" xmlns:xlink="http://www.w3.org/1999/xlink" x="0px" y="0px" width="18px" height="18px" viewBox="0 0 18 18"><path d="M6.25 3.75H4.75C4.19772 3.75 3.75 4.19772 3.75 4.75V13.25C3.75 13.8023 4.19772 14.25 4.75 14.25H6.25C6.80228 14.25 7.25 13.8023 7.25 13.25V4.75C7.25 4.19772 6.80228 3.75 6.25 3.75Z" fill="#000" fill-opacity="0.3" data-color="color-2" data-stroke="none"></path> <path d="M13.25 5.75H11.75C11.1977 5.75 10.75 6.19772 10.75 6.75V11.25C10.75 11.8023 11.1977 12.25 11.75 12.25H13.25C13.8023 12.25 14.25 11.8023 14.25 11.25V6.75C14.25 6.19772 13.8023 5.75 13.25 5.75Z" fill="#000" fill-opacity="0.3" data-color="color-2" data-stroke="none"></path> <path d="M1.75 9H3.75" stroke="black" stroke-width="1.5" stroke-linecap="round" stroke-linejoin="round" fill="none"></path> <path d="M7.25 9H10.75" stroke="black" stroke-width="1.5" stroke-linecap="round" stroke-linejoin="round" fill="none"></path> <path d="M14.25 9H16.25" stroke="black" stroke-width="1.5" stroke-linecap="round" stroke-linejoin="round" fill="none"></path> <path d="M6.25 3.75H4.75C4.19772 3.75 3.75 4.19772 3.75 4.75V13.25C3.75 13.8023 4.19772 14.25 4.75 14.25H6.25C6.80228 14.25 7.25 13.8023 7.25 13.25V4.75C7.25 4.19772 6.80228 3.75 6.25 3.75Z" stroke="black" stroke-width="1.5" stroke-linecap="round" stroke-linejoin="round" fill="none"></path> <path d="M13.25 5.75H11.75C11.1977 5.75 10.75 6.19772 10.75 6.75V11.25C10.75 11.8023 11.1977 12.25 11.75 12.25H13.25C13.8023 12.25 14.25 11.8023 14.25 11.25V6.75C14.25 6.19772 13.8023 5.75 13.25 5.75Z" stroke="black" stroke-width="1.5" stroke-linecap="round" stroke-linejoin="round" fill="none"></path></svg>