<svg xmlns="http://www.w3.org/2000/svg" xmlns:xlink="http://www.w3.org/1999/xlink" x="0px" y="0px" width="18px" height="18px" viewBox="0 0 18 18"><path d="M12.25,3.5c.414,0,.75-.336,.75-.75s-.336-.75-.75-.75h-2.75v-.5c0-.414-.336-.75-.75-.75s-.75,.336-.75,.75V9.752c0,.414,.336,.75,.75,.75s.75-.336,.75-.75v-3.252h2.079c.414,0,.75-.336,.75-.75s-.336-.75-.75-.75h-2.079v-1.5h2.75Z" fill="#000" data-color="color-2"></path><path d="M8.75,9c-2.206,0-4,1.794-4,4s1.794,4,4,4,4-1.794,4-4-1.794-4-4-4Zm0,5.5c-.552,0-1-.448-1-1s.448-1,1-1,1,.448,1,1-.448,1-1,1Z" fill="#000"></path></svg>