<svg xmlns="http://www.w3.org/2000/svg" xmlns:xlink="http://www.w3.org/1999/xlink" x="0px" y="0px" width="18px" height="18px" viewBox="0 0 18 18"><path d="M14.25,1h-2.5c-.414,0-.75,.336-.75,.75s.336,.75,.75,.75h2.5c.689,0,1.25,.561,1.25,1.25V14.25c0,.689-.561,1.25-1.25,1.25h-2.5c-.414,0-.75,.336-.75,.75s.336,.75,.75,.75h2.5c1.517,0,2.75-1.233,2.75-2.75V3.75c0-1.517-1.233-2.75-2.75-2.75Z" fill="#000" data-color="color-2"></path><circle cx="6.5" cy="3.25" r="2.25" fill="#000"></circle><path d="M11.406,7.386c-.202-.362-.661-.493-1.02-.292l-1.62,.9c-.095,.053-.211,.039-.291-.034l-1.549-1.419c-.331-.303-.8-.405-1.229-.268-.427,.138-.749,.497-.839,.936l-1.842,8.889c-.084,.406,.177,.803,.582,.887,.052,.011,.103,.016,.153,.016,.348,0,.66-.244,.733-.598l1.752-8.458,1.226,1.123c.555,.509,1.373,.604,2.032,.239l1.62-.9c.362-.201,.493-.658,.292-1.02Z" fill="#000"></path><path d="M3.187,8.771l.379-.167c.379-.167,.551-.609,.385-.988-.166-.379-.608-.552-.988-.385l-.378,.166c-.43,.189-.771,.549-.936,.988l-.601,1.602c-.146,.388,.051,.82,.439,.965,.086,.033,.176,.048,.263,.048,.304,0,.589-.186,.702-.487l.601-1.601c.023-.063,.072-.114,.134-.142Z" fill="#000"></path><path d="M7.99,11.369l-.637-.382c-.354-.214-.815-.098-1.029,.257s-.098,.816,.257,1.029l.637,.382c.062,.038,.105,.101,.118,.174l.424,2.544c.061,.367,.379,.626,.739,.626,.041,0,.083-.003,.125-.01,.408-.068,.685-.455,.616-.863l-.424-2.543c-.084-.507-.385-.949-.826-1.214Z" fill="#000"></path></svg>