<svg xmlns="http://www.w3.org/2000/svg" xmlns:xlink="http://www.w3.org/1999/xlink" x="0px" y="0px" width="18px" height="18px" viewBox="0 0 18 18"><path d="M10.75,9c-.414,0-.75-.336-.75-.75v-1.75c0-.551-.448-1-1-1s-1,.449-1,1v1.75c0,.414-.336,.75-.75,.75s-.75-.336-.75-.75v-1.75c0-1.378,1.121-2.5,2.5-2.5s2.5,1.122,2.5,2.5v1.75c0,.414-.336,.75-.75,.75Z" fill="#000" data-color="color-2"></path><path d="M2.75,7c-.414,0-.75-.336-.75-.75v-1.5c0-1.517,1.233-2.75,2.75-2.75h2c.414,0,.75,.336,.75,.75s-.336,.75-.75,.75h-2c-.689,0-1.25,.561-1.25,1.25v1.5c0,.414-.336,.75-.75,.75Z" fill="#000"></path><path d="M15.25,7c-.414,0-.75-.336-.75-.75v-1.5c0-.689-.561-1.25-1.25-1.25h-2c-.414,0-.75-.336-.75-.75s.336-.75,.75-.75h2c1.517,0,2.75,1.233,2.75,2.75v1.5c0,.414-.336,.75-.75,.75Z" fill="#000"></path><path d="M13.25,16h-2c-.414,0-.75-.336-.75-.75s.336-.75,.75-.75h2c.689,0,1.25-.561,1.25-1.25v-1.5c0-.414,.336-.75,.75-.75s.75,.336,.75,.75v1.5c0,1.517-1.233,2.75-2.75,2.75Z" fill="#000"></path><path d="M6.75,16h-2c-1.517,0-2.75-1.233-2.75-2.75v-1.5c0-.414,.336-.75,.75-.75s.75,.336,.75,.75v1.5c0,.689,.561,1.25,1.25,1.25h2c.414,0,.75,.336,.75,.75s-.336,.75-.75,.75Z" fill="#000"></path><rect x="5" y="7.5" width="8" height="5.5" rx="2" ry="2" fill="#000" data-color="color-2"></rect></svg>