<svg xmlns="http://www.w3.org/2000/svg" xmlns:xlink="http://www.w3.org/1999/xlink" x="0px" y="0px" width="18px" height="18px" viewBox="0 0 18 18"><path d="M12.75 8.25H5.25C4.14543 8.25 3.25 9.14543 3.25 10.25V14.25C3.25 15.3546 4.14543 16.25 5.25 16.25H12.75C13.8546 16.25 14.75 15.3546 14.75 14.25V10.25C14.75 9.14543 13.8546 8.25 12.75 8.25Z" fill="#000" fill-opacity="0.3" data-color="color-2" data-stroke="none"></path> <path d="M5.75 8.25V5C5.75 3.205 7.205 1.75 9 1.75C10.795 1.75 12.25 3.205 12.25 5V8.25" stroke="black" stroke-width="1.5" stroke-linecap="round" stroke-linejoin="round" fill="none"></path> <path d="M9 11.75V12.75" stroke="black" stroke-width="1.5" stroke-linecap="round" stroke-linejoin="round" fill="none"></path> <path d="M12.75 8.25H5.25C4.14543 8.25 3.25 9.14543 3.25 10.25V14.25C3.25 15.3546 4.14543 16.25 5.25 16.25H12.75C13.8546 16.25 14.75 15.3546 14.75 14.25V10.25C14.75 9.14543 13.8546 8.25 12.75 8.25Z" stroke="black" stroke-width="1.5" stroke-linecap="round" stroke-linejoin="round" fill="none"></path></svg>