<svg xmlns="http://www.w3.org/2000/svg" xmlns:xlink="http://www.w3.org/1999/xlink" x="0px" y="0px" width="18px" height="18px" viewBox="0 0 18 18"><path d="m5.1929,5.1939h7.7617c.5519,0,1,.4481,1,1v1.584c0,2.6938-2.187,4.8808-4.8808,4.8808h0c-2.6938,0-4.8808-2.187-4.8808-4.8808v-1.584c0-.5519.4481-1,1-1Z" transform="translate(8.9695 -3.8016) rotate(45)" fill="#000" opacity=".3" stroke-width="0" data-color="color-2"></path><path d="m5.1929,5.1939h7.7617c.5519,0,1,.4481,1,1v1.584c0,2.6938-2.187,4.8808-4.8808,4.8808h0c-2.6938,0-4.8808-2.187-4.8808-4.8808v-1.584c0-.5519.4481-1,1-1Z" transform="translate(8.9695 -3.8016) rotate(45)" fill="none" stroke="#000" stroke-linecap="round" stroke-linejoin="round" stroke-width="1.5"></path><line x1="8.6172" y1="12.8828" x2="5.25" y2="16.25" fill="none" stroke="#000" stroke-linecap="round" stroke-linejoin="round" stroke-width="1.5"></line><line x1="1.75" y1="12.75" x2="5.1172" y2="9.3828" fill="none" stroke="#000" stroke-linecap="round" stroke-linejoin="round" stroke-width="1.5"></line><line x1="4.5" y1="13.5" x2="4.25" y2="13.75" fill="none" stroke="#000" stroke-linecap="round" stroke-linejoin="round" stroke-width="1.5"></line><line x1="6.0359" y1="5.11" x2="12.6577" y2="11.7318" fill="none" stroke="#000" stroke-linecap="round" stroke-linejoin="round" stroke-width="1.5"></line><line x1="11.75" y1="1.25" x2="11.75" y2="2.25" fill="none" stroke="#000" stroke-linecap="round" stroke-linejoin="round" stroke-width="1.5"></line><line x1="16" y1="2" x2="14.5784" y2="3.4216" fill="none" stroke="#000" stroke-linecap="round" stroke-linejoin="round" stroke-width="1.5"></line><line x1="16.75" y1="6.25" x2="15.75" y2="6.25" fill="none" stroke="#000" stroke-linecap="round" stroke-linejoin="round" stroke-width="1.5"></line></svg>