<svg xmlns="http://www.w3.org/2000/svg" xmlns:xlink="http://www.w3.org/1999/xlink" x="0px" y="0px" width="18px" height="18px" viewBox="0 0 18 18"><path d="M8.75 16.25C10.5449 16.25 12 14.7949 12 13C12 11.2051 10.5449 9.75 8.75 9.75C6.95507 9.75 5.5 11.2051 5.5 13C5.5 14.7949 6.95507 16.25 8.75 16.25Z" fill="#000" fill-opacity="0.3" data-color="color-2" data-stroke="none"></path> <path d="M8.75 9.752V1.5" stroke="black" stroke-width="1.5" stroke-linecap="round" stroke-linejoin="round" fill="none"></path> <path d="M8.75 2.75H12.25" stroke="black" stroke-width="1.5" stroke-linecap="round" stroke-linejoin="round" fill="none"></path> <path d="M8.75 5.75H11.578" stroke="black" stroke-width="1.5" stroke-linecap="round" stroke-linejoin="round" fill="none"></path> <path d="M8.75 16.25C10.5449 16.25 12 14.7949 12 13C12 11.2051 10.5449 9.75 8.75 9.75C6.95507 9.75 5.5 11.2051 5.5 13C5.5 14.7949 6.95507 16.25 8.75 16.25Z" stroke="black" stroke-width="1.5" stroke-linecap="round" stroke-linejoin="round" fill="none"></path> <path d="M8.75 14.5C9.30228 14.5 9.75 14.0523 9.75 13.5C9.75 12.9477 9.30228 12.5 8.75 12.5C8.19772 12.5 7.75 12.9477 7.75 13.5C7.75 14.0523 8.19772 14.5 8.75 14.5Z" fill="black" data-stroke="none"></path></svg>