<svg xmlns="http://www.w3.org/2000/svg" xmlns:xlink="http://www.w3.org/1999/xlink" x="0px" y="0px" width="18px" height="18px" viewBox="0 0 18 18"><path d="M9.5 16.25C12.1234 16.25 14.25 14.1234 14.25 11.5C14.25 8.87665 12.1234 6.75 9.5 6.75C6.87665 6.75 4.75 8.87665 4.75 11.5C4.75 14.1234 6.87665 16.25 9.5 16.25Z" fill="#000" fill-opacity="0.3" data-color="color-2" data-stroke="none"></path> <path d="M6.75 7.628V4.5C6.75 2.981 5.519 1.75 4 1.75C2.481 1.75 1.25 2.981 1.25 4.5V6.25" stroke="black" stroke-width="1.5" stroke-linecap="round" stroke-linejoin="round" fill="none"></path> <path d="M9.5 11V12" stroke="black" stroke-width="1.5" stroke-linecap="round" stroke-linejoin="round" fill="none"></path> <path d="M9.5 16.25C12.1234 16.25 14.25 14.1234 14.25 11.5C14.25 8.87665 12.1234 6.75 9.5 6.75C6.87665 6.75 4.75 8.87665 4.75 11.5C4.75 14.1234 6.87665 16.25 9.5 16.25Z" stroke="black" stroke-width="1.5" stroke-linecap="round" stroke-linejoin="round" fill="none"></path></svg>