<svg xmlns="http://www.w3.org/2000/svg" xmlns:xlink="http://www.w3.org/1999/xlink" x="0px" y="0px" width="18px" height="18px" viewBox="0 0 18 18"><path d="M6 15.25C7.79493 15.25 9.25 13.7949 9.25 12C9.25 10.2051 7.79493 8.75 6 8.75C4.20507 8.75 2.75 10.2051 2.75 12C2.75 13.7949 4.20507 15.25 6 15.25Z" fill="#000" fill-opacity="0.3" data-color="color-2" data-stroke="none"></path> <path d="M8.29602 9.704L15.25 2.75" stroke="black" stroke-width="1.5" stroke-linecap="round" stroke-linejoin="round" fill="none"></path> <path d="M14 4L16 6" stroke="black" stroke-width="1.5" stroke-linecap="round" stroke-linejoin="round" fill="none"></path> <path d="M12 6L14 8" stroke="black" stroke-width="1.5" stroke-linecap="round" stroke-linejoin="round" fill="none"></path> <path d="M6 15.25C7.79493 15.25 9.25 13.7949 9.25 12C9.25 10.2051 7.79493 8.75 6 8.75C4.20507 8.75 2.75 10.2051 2.75 12C2.75 13.7949 4.20507 15.25 6 15.25Z" stroke="black" stroke-width="1.5" stroke-linecap="round" stroke-linejoin="round" fill="none"></path></svg>