<svg xmlns="http://www.w3.org/2000/svg" xmlns:xlink="http://www.w3.org/1999/xlink" x="0px" y="0px" width="18px" height="18px" viewBox="0 0 18 18"><rect x="5.107" y="11" width="7.785" height="1.5" fill="#000" data-color="color-2"></rect><path d="M14.25,16c-.3,0-.584-.182-.699-.479L9,3.789,4.449,15.521c-.15,.387-.586,.577-.97,.428-.386-.15-.578-.584-.428-.97L7.899,2.479c.112-.289,.39-.479,.699-.479h.803c.31,0,.587,.19,.699,.479l4.849,12.5c.15,.386-.042,.82-.428,.97-.089,.035-.181,.051-.271,.051Z" fill="#000"></path></svg>