<svg xmlns="http://www.w3.org/2000/svg" xmlns:xlink="http://www.w3.org/1999/xlink" x="0px" y="0px" width="18px" height="18px" viewBox="0 0 18 18"><path d="M7.75,11.5H2.75c-.414,0-.75-.336-.75-.75s.336-.75,.75-.75H7.75c.414,0,.75,.336,.75,.75s-.336,.75-.75,.75Z" fill="#000"></path><path d="M15.25,15H2.75c-.414,0-.75-.336-.75-.75s.336-.75,.75-.75H15.25c.414,0,.75,.336,.75,.75s-.336,.75-.75,.75Z" fill="#000"></path><path d="M7.75,8H2.75c-.414,0-.75-.336-.75-.75s.336-.75,.75-.75H7.75c.414,0,.75,.336,.75,.75s-.336,.75-.75,.75Z" fill="#000"></path><path d="M15.25,4.5H2.75c-.414,0-.75-.336-.75-.75s.336-.75,.75-.75H15.25c.414,0,.75,.336,.75,.75s-.336,.75-.75,.75Z" fill="#000"></path><rect x="10" y="6" width="6" height="6" rx="1.75" ry="1.75" fill="#000" data-color="color-2"></rect></svg>