<svg xmlns="http://www.w3.org/2000/svg" xmlns:xlink="http://www.w3.org/1999/xlink" x="0px" y="0px" width="18px" height="18px" viewBox="0 0 18 18"><path d="M10.22,8.72l-.47,.47v-3.379l.47,.47c.146,.146,.338,.22,.53,.22s.384-.073,.53-.22c.293-.293,.293-.768,0-1.061l-1.75-1.75c-.293-.293-.768-.293-1.061,0l-1.75,1.75c-.293,.293-.293,.768,0,1.061s.768,.293,1.061,0l.47-.47v3.379l-.47-.47c-.293-.293-.768-.293-1.061,0s-.293,.768,0,1.061l1.75,1.75c.146,.146,.338,.22,.53,.22s.384-.073,.53-.22l1.75-1.75c.293-.293,.293-.768,0-1.061s-.768-.293-1.061,0Z" fill="#000" data-color="color-2"></path><path d="M15.25,2.5H2.75c-.414,0-.75-.336-.75-.75s.336-.75,.75-.75H15.25c.414,0,.75,.336,.75,.75s-.336,.75-.75,.75Z" fill="#000"></path><path d="M15.25,17H2.75c-.414,0-.75-.336-.75-.75s.336-.75,.75-.75H15.25c.414,0,.75,.336,.75,.75s-.336,.75-.75,.75Z" fill="#000"></path><path d="M15.25,14H2.75c-.414,0-.75-.336-.75-.75s.336-.75,.75-.75H15.25c.414,0,.75,.336,.75,.75s-.336,.75-.75,.75Z" fill="#000"></path></svg>