<svg xmlns="http://www.w3.org/2000/svg" xmlns:xlink="http://www.w3.org/1999/xlink" x="0px" y="0px" width="18px" height="18px" viewBox="0 0 18 18"><path d="M13.25,2H4.75c-1.517,0-2.75,1.233-2.75,2.75V13.25c0,1.517,1.233,2.75,2.75,2.75H13.25c1.517,0,2.75-1.233,2.75-2.75V4.75c0-1.517-1.233-2.75-2.75-2.75Zm-5.75,3.614c0-.473,.514-.768,.922-.53l2.375,1.386c.406,.237,.406,.823,0,1.06l-2.375,1.386c-.409,.239-.922-.056-.922-.53v-2.771Zm2,7.386c0,.414-.336,.75-.75,.75s-.75-.336-.75-.75v-.5h-2.75c-.414,0-.75-.336-.75-.75s.336-.75,.75-.75h2.75v-.5c0-.414,.336-.75,.75-.75s.75,.336,.75,.75v2.5Zm3.25-.5h-1.5c-.414,0-.75-.336-.75-.75s.336-.75,.75-.75h1.5c.414,0,.75,.336,.75,.75s-.336,.75-.75,.75Z" fill="#000"></path></svg>