<svg xmlns="http://www.w3.org/2000/svg" xmlns:xlink="http://www.w3.org/1999/xlink" x="0px" y="0px" width="32px" height="32px" viewBox="0 0 32 32"><path d="M16 16V16.01" stroke="#000" stroke-width="2" stroke-linecap="square" data-color="color-2" fill="none"></path> <path d="M25 14L25 27" stroke="#000" stroke-width="2" data-color="color-2" data-cap="butt" fill="none"></path> <path d="M7 14L7 27" stroke="#000" stroke-width="2" data-color="color-2" data-cap="butt" fill="none"></path> <path d="M20 14H30" stroke="black" stroke-width="2" data-cap="butt" fill="none"></path> <path d="M2 14H12" stroke="black" stroke-width="2" data-cap="butt" fill="none"></path> <path d="M2 11C2 7.68629 4.68629 5 8 5H24C27.3137 5 30 7.68629 30 11V24C30 25.6569 28.6569 27 27 27H5C3.34315 27 2 25.6569 2 24V11Z" stroke="black" stroke-width="2" data-cap="butt" fill="none"></path> <path d="M12 17V13C12 12.4477 12.4477 12 13 12H19C19.5523 12 20 12.4477 20 13V17C20 19.2091 18.2091 21 16 21C13.7909 21 12 19.2091 12 17Z" stroke="black" stroke-width="2" data-cap="butt" fill="none"></path></svg>