<svg xmlns="http://www.w3.org/2000/svg" xmlns:xlink="http://www.w3.org/1999/xlink" x="0px" y="0px" width="48px" height="48px" viewBox="0 0 48 48"> <ellipse cx="24" cy="24" rx="11" ry="11" transform="rotate(90 24 24)" stroke="#000" stroke-width="2" data-color="color-2" data-cap="butt" fill="none"></ellipse> <path d="M24 30L18 24L24 18L30 24L24 30Z" stroke="black" stroke-width="2" stroke-miterlimit="10" stroke-linecap="square" fill="none"></path> <path d="M3 24H8C8 26.9149 8.77945 29.6477 10.1413 32.0014L5.71781 34.5553" stroke="black" stroke-width="2" data-cap="butt" fill="none"></path> <path d="M34.5 5.81347L32.0013 10.1413C29.6476 8.77945 26.9148 8 24 8V3" stroke="black" stroke-width="2" data-cap="butt" fill="none"></path> <path d="M13.5 5.81348L15.9987 10.1413C13.5707 11.5461 11.5461 13.5707 10.1413 15.9987L5.71781 13.4448L5.5 13.319" stroke="#000" stroke-width="2" data-color="color-2" data-cap="butt" fill="none"></path> <path d="M13.5 42.1865L15.9987 37.8587C18.3524 39.2205 21.0852 40 24 40V45" stroke="#000" stroke-width="2" data-color="color-2" data-cap="butt" fill="none"></path> <path d="M34.5 42.1865L32.0013 37.8587C34.4293 36.4539 36.4539 34.4293 37.8587 32.0013L42.1865 34.5" stroke="black" stroke-width="2" data-cap="butt" fill="none"></path> <path d="M45 24H40C40 21.0852 39.2206 18.3524 37.8587 15.9987L42.1865 13.5" stroke="#000" stroke-width="2" data-color="color-2" data-cap="butt" fill="none"></path> <ellipse cx="24" cy="24" rx="21" ry="21" transform="rotate(90 24 24)" stroke="black" stroke-width="2" data-cap="butt" fill="none"></ellipse> </svg>