<svg xmlns="http://www.w3.org/2000/svg" xmlns:xlink="http://www.w3.org/1999/xlink" x="0px" y="0px" width="48px" height="48px" viewBox="0 0 48 48"> <path d="M9.00211 9L15.5021 15.5" stroke="black" stroke-width="2" data-cap="butt" fill="none"></path> <path d="M32.5 32.498L39 38.9979" stroke="black" stroke-width="2" data-cap="butt" fill="none"></path> <path d="M9 38.9908L15.5 32.4908" stroke="black" stroke-width="2" data-cap="butt" fill="none"></path> <path d="M32.4909 15.5L38.9908 9.00001" stroke="black" stroke-width="2" data-cap="butt" fill="none"></path> <path d="M41 23.9932L45 23.9932L44 23.9932" stroke="black" stroke-width="2" stroke-linecap="square" fill="none"></path> <path d="M7 24L3 24L4 24" stroke="black" stroke-width="2" stroke-linecap="square" fill="none"></path> <path d="M23.995 6.99817L23.995 2.99817L23.995 3.99817" stroke="black" stroke-width="2" stroke-linecap="square" fill="none"></path> <path d="M24.0018 40.9982L24.0018 44.9982L24.0018 43.9982" stroke="black" stroke-width="2" stroke-linecap="square" fill="none"></path> <ellipse cx="24" cy="24" rx="21" ry="21" transform="rotate(90 24 24)" stroke="black" stroke-width="2" data-cap="butt" fill="none"></ellipse> <ellipse cx="24" cy="24" rx="12" ry="12" transform="rotate(90 24 24)" stroke="black" stroke-width="2" data-cap="butt" fill="none"></ellipse> <path d="M24 30L18 24L24 18L30 24L24 30Z" stroke="#000" stroke-width="2" stroke-miterlimit="10" stroke-linecap="square" data-color="color-2" fill="none"></path> </svg>