<svg xmlns="http://www.w3.org/2000/svg" xmlns:xlink="http://www.w3.org/1999/xlink" x="0px" y="0px" width="20px" height="20px" viewBox="0 0 20 20"><path d="m10,2c-4.411,0-8,3.589-8,8,0,4.411,3.589,8,8,8s8-3.589,8-8c0-4.411-3.589-8-8-8Zm4.207,8.707l-2.5,2.5c-.195.195-.451.293-.707.293s-.512-.098-.707-.293c-.391-.391-.391-1.023,0-1.414l.793-.793h-5.086c-.552,0-1-.448-1-1s.448-1,1-1h5.086s-.793-.793-.793-.793c-.391-.391-.391-1.023,0-1.414s1.023-.391,1.414,0l2.5,2.5c.391.391.391,1.023,0,1.414Z" stroke-width="0" fill="#000"></path></svg>