<svg xmlns="http://www.w3.org/2000/svg" xmlns:xlink="http://www.w3.org/1999/xlink" x="0px" y="0px" width="20px" height="20px" viewBox="0 0 20 20"><path d="m9.739,13h.261v2.849c0,.437.522.664.841.366l6.267-5.849c.212-.198.212-.533,0-.731l-6.267-5.849c-.32-.298-.841-.072-.841.366v2.849h-6c-.552,0-1,.448-1,1v2.269" fill="none" stroke="#000" stroke-linecap="round" stroke-linejoin="round" stroke-width="2"></path><circle cx="5.75" cy="3.75" r="1.25" fill="#000" stroke-width="0" data-color="color-2"></circle><path d="m7.5822,14.3628l-1.4438-.5415-.542-1.4438c-.1879-.5034-1.0185-.5034-1.2064,0l-.542,1.4438-1.4438.5415c-.2508.0944-.4178.3347-.4178.6032s.167.5088.4178.6032l1.4438.5415.542,1.4438c.094.2517.3347.4182.6032.4182s.5092-.1665.6032-.4182l.542-1.4438,1.4438-.5415c.2508-.0944.4178-.3347.4178-.6032s-.167-.5088-.4178-.6032Z" fill="#000" stroke-width="0" data-color="color-2"></path></svg>