<svg xmlns="http://www.w3.org/2000/svg" xmlns:xlink="http://www.w3.org/1999/xlink" x="0px" y="0px" width="20px" height="20px" viewBox="0 0 20 20"><path d="m14,2H6c-2.206,0-4,1.794-4,4v8c0,2.206,1.794,4,4,4h8c2.206,0,4-1.794,4-4V6c0-2.206-1.794-4-4-4Zm-2.293,7.707l-1.793,1.793.793.793c.286.286.372.716.217,1.09s-.52.617-.924.617h-3c-.552,0-1-.447-1-1v-3c0-.404.244-.77.617-.924.374-.156.804-.07,1.09.217l.793.793,1.793-1.793c.391-.391,1.023-.391,1.414,0s.391,1.023,0,1.414Z" stroke-width="0" fill="#000"></path></svg>