<svg xmlns="http://www.w3.org/2000/svg" xmlns:xlink="http://www.w3.org/1999/xlink" x="0px" y="0px" width="20px" height="20px" viewBox="0 0 20 20"><path d="m14,3H6c-2.206,0-4,1.794-4,4v6c0,2.206,1.794,4,4,4h8c2.206,0,4-1.794,4-4v-6c0-2.206-1.794-4-4-4Zm-3.293,6.707l-2.146,2.146.866.866c.215.215.279.536.162.817-.116.281-.388.463-.692.463h-3.146c-.413,0-.75-.337-.75-.75v-3.146c0-.305.182-.576.463-.692.282-.117.603-.053.817.162l.866.866,2.146-2.146c.391-.391,1.023-.391,1.414,0s.391,1.023,0,1.414Z" stroke-width="0" fill="#000"></path></svg>