<svg xmlns="http://www.w3.org/2000/svg" xmlns:xlink="http://www.w3.org/1999/xlink" x="0px" y="0px" width="20px" height="20px" viewBox="0 0 20 20"><path d="m18,10c0-4.411-3.589-8-8-8S2,5.589,2,10s3.589,8,8,8,8-3.589,8-8Zm-8.707,4.207l-2.5-2.5c-.195-.195-.293-.451-.293-.707s.098-.512.293-.707c.391-.391,1.023-.391,1.414,0l.793.793v-5.086c0-.552.448-1,1-1s1,.448,1,1v5.086s.793-.793.793-.793c.391-.391,1.023-.391,1.414,0s.391,1.023,0,1.414l-2.5,2.5c-.391.391-1.023.391-1.414,0Z" stroke-width="0" fill="#000"></path></svg>