<svg xmlns="http://www.w3.org/2000/svg" xmlns:xlink="http://www.w3.org/1999/xlink" x="0px" y="0px" width="20px" height="20px" viewBox="0 0 20 20"><path d="m6,18h8c2.206,0,4-1.794,4-4V6c0-2.206-1.794-4-4-4H6c-2.206,0-4,1.794-4,4v8c0,2.206,1.794,4,4,4Zm2.293-6.293c-.391-.391-.391-1.023,0-1.414l1.793-1.793-.793-.793c-.287-.286-.373-.716-.217-1.09.154-.374.52-.617.924-.617h3c.553,0,1,.448,1,1v3c0,.404-.243.769-.617.924s-.804.069-1.09-.217l-.793-.793-1.793,1.793c-.391.391-1.023.391-1.414,0Z" stroke-width="0" fill="#000"></path></svg>