<svg xmlns="http://www.w3.org/2000/svg" xmlns:xlink="http://www.w3.org/1999/xlink" x="0px" y="0px" width="18px" height="18px" viewBox="0 0 18 18"><path d="M14.25 2.75H3.75C2.64543 2.75 1.75 3.64543 1.75 4.75V13.25C1.75 14.3546 2.64543 15.25 3.75 15.25H14.25C15.3546 15.25 16.25 14.3546 16.25 13.25V4.75C16.25 3.64543 15.3546 2.75 14.25 2.75Z" fill="#000" fill-opacity="0.3" data-color="color-2" data-stroke="none"></path> <path d="M4.37201 11.06C6.28601 7.662 7.30501 6.786 7.86301 6.961C8.75801 7.24 8.49801 10.236 9.44601 10.411C10.145 10.54 10.764 9.001 11.516 9.193C12.123 9.348 12.086 10.442 12.774 10.654C13.05 10.739 13.348 10.654 13.627 10.498" stroke="black" stroke-width="1.5" stroke-linecap="round" stroke-linejoin="round" fill="none"></path> <path d="M14.25 2.75H3.75C2.64543 2.75 1.75 3.64543 1.75 4.75V13.25C1.75 14.3546 2.64543 15.25 3.75 15.25H14.25C15.3546 15.25 16.25 14.3546 16.25 13.25V4.75C16.25 3.64543 15.3546 2.75 14.25 2.75Z" stroke="black" stroke-width="1.5" stroke-linecap="round" stroke-linejoin="round" fill="none"></path></svg>