<svg xmlns="http://www.w3.org/2000/svg" xmlns:xlink="http://www.w3.org/1999/xlink" x="0px" y="0px" width="18px" height="18px" viewBox="0 0 18 18"><path fill-rule="evenodd" clip-rule="evenodd" d="M4.25 6.75H13.75C14.855 6.75 15.75 7.645 15.75 8.75V9.58824C15.75 9.74343 15.7205 9.90133 15.6282 10.0261C15.5844 10.0853 15.5374 10.1315 15.503 10.1198C15.2676 10.0394 15.0141 10 14.75 10C13.5074 10 12.5 11.0074 12.5 12.25V12.5138C11.844 12.4409 11.162 12.656 10.659 13.159C10.0916 13.7264 9.89063 14.5213 10.056 15.25H4.25C3.145 15.25 2.25 14.355 2.25 13.25V8.75C2.25 7.645 3.145 6.75 4.25 6.75Z" fill="#000" fill-opacity="0.3" data-color="color-2" data-stroke="none"></path> <path d="M2.25 8.75V4.75C2.25 3.645 3.145 2.75 4.25 2.75H6.201C6.808 2.75 7.381 3.025 7.761 3.498L8.364 4.25H13.75C14.855 4.25 15.75 5.145 15.75 6.25V9.411" stroke="black" stroke-width="1.5" stroke-linecap="round" stroke-linejoin="round" fill="none"></path> <path d="M17.25 14.75L14.75 17.25L12.25 14.75" stroke="black" stroke-width="1.5" stroke-linecap="round" stroke-linejoin="round" fill="none"></path> <path d="M14.75 17V12.25" stroke="black" stroke-width="1.5" stroke-linecap="round" stroke-linejoin="round" fill="none"></path> <path d="M15.75 8.75C15.75 7.646 14.855 6.75 13.75 6.75H4.25C3.145 6.75 2.25 7.646 2.25 8.75V13.25C2.25 14.354 3.145 15.25 4.25 15.25H9.2926" stroke="black" stroke-width="1.5" stroke-linecap="round" stroke-linejoin="round" fill="none"></path></svg>