<svg xmlns="http://www.w3.org/2000/svg" xmlns:xlink="http://www.w3.org/1999/xlink" x="0px" y="0px" width="18px" height="18px" viewBox="0 0 18 18"><path d="m7.75,13.25c0-3.0327,2.4678-5.5,5.5-5.5.6122,0,1.1995.105,1.75.2905v-3.2905c0-.9666-.7835-1.75-1.75-1.75H4.75c-.9665,0-1.75.7834-1.75,1.75v8.5c0,.9666.7835,1.75,1.75,1.75h3.2904c-.1855-.5505-.2904-1.1377-.2904-1.75Z" fill="#000" opacity=".3" stroke-width="0" data-color="color-2"></path><path d="m13.25,9.25c-2.2056,0-4,1.7944-4,4s1.7944,4,4,4,4-1.7944,4-4-1.7944-4-4-4Zm1.75,4.75h-3.5c-.4141,0-.75-.3359-.75-.75s.3359-.75.75-.75h3.5c.4141,0,.75.3359.75.75s-.3359.75-.75.75Z" stroke-width="0" fill="#000"></path><path d="m6,6.25h6" fill="none" stroke="#000" stroke-linecap="round" stroke-linejoin="round" stroke-width="1.5"></path><path d="m6,9.25h2.5" fill="none" stroke="#000" stroke-linecap="round" stroke-linejoin="round" stroke-width="1.5"></path><path d="m11.25,2.75h2c1.105,0,2,.895,2,2v2" fill="none" stroke="#000" stroke-linecap="round" stroke-linejoin="round" stroke-width="1.5"></path><path d="m6.75,15.25h-2c-1.105,0-2-.895-2-2v-2" fill="none" stroke="#000" stroke-linecap="round" stroke-linejoin="round" stroke-width="1.5"></path><path d="m2.75,6.75v-2c0-1.105.895-2,2-2h2" fill="none" stroke="#000" stroke-linecap="round" stroke-linejoin="round" stroke-width="1.5"></path></svg>