<svg xmlns="http://www.w3.org/2000/svg" xmlns:xlink="http://www.w3.org/1999/xlink" x="0px" y="0px" width="18px" height="18px" viewBox="0 0 18 18"><path d="m8.5,13c0-3.0327,2.4673-5.5,5.5-5.5.3675,0,.7253.0399,1.0725.1101.0595.012.1775-.018.1775-.1356v-3.2245c0-1.1045-.8954-2-2-2H4.75c-1.1046,0-2,.8955-2,2v9.5c0,1.1045.8954,2,2,2h4.1441c.1059,0,.2271-.2202.1711-.3336-.3601-.7299-.5652-1.549-.5652-2.4164Z" fill="#000" opacity=".3" stroke-width="0" data-color="color-2"></path><path d="m6,6.25h6" fill="none" stroke="#000" stroke-linecap="round" stroke-linejoin="round" stroke-width="1.5"></path><path d="m6,9.25h2.5" fill="none" stroke="#000" stroke-linecap="round" stroke-linejoin="round" stroke-width="1.5"></path><path d="m15.25,6.876v-2.626c0-1.1046-.8954-2-2-2H4.75c-1.1046,0-2,.8954-2,2v9.5c0,1.1046.8954,2,2,2h3.6386" fill="none" stroke="#000" stroke-linecap="round" stroke-linejoin="round" stroke-width="1.5"></path><path d="m14,9c-2.2056,0-4,1.7944-4,4s1.7944,4,4,4,4-1.7944,4-4-1.7944-4-4-4Zm1.75,4.75h-3.5c-.4141,0-.75-.3359-.75-.75s.3359-.75.75-.75h3.5c.4141,0,.75.3359.75.75s-.3359.75-.75.75Z" stroke-width="0" fill="#000"></path></svg>