<svg xmlns="http://www.w3.org/2000/svg" xmlns:xlink="http://www.w3.org/1999/xlink" x="0px" y="0px" width="18px" height="18px" viewBox="0 0 18 18"><path fill-rule="evenodd" clip-rule="evenodd" d="M10.75 1.83956C10.6212 1.78103 10.4801 1.75 10.336 1.75H4.75C3.645 1.75 2.75 2.645 2.75 3.75V14.25C2.75 15.355 3.645 16.25 4.75 16.25H13.25C14.355 16.25 15.25 15.355 15.25 14.25V6.664C15.25 6.51978 15.2189 6.37883 15.1603 6.24999H11.75C11.198 6.24999 10.75 5.80199 10.75 5.24999V1.83956Z" fill="#000" fill-opacity="0.3" data-color="color-2" data-stroke="none"></path> <path d="M2.75 14.25V3.75C2.75 2.645 3.645 1.75 4.75 1.75H10.336C10.601 1.75 10.856 1.855 11.043 2.043L14.957 5.957C15.145 6.145 15.25 6.399 15.25 6.664V14.25C15.25 15.355 14.355 16.25 13.25 16.25H4.75C3.645 16.25 2.75 15.355 2.75 14.25Z" stroke="black" stroke-width="1.5" stroke-linecap="round" stroke-linejoin="round" fill="none"></path> <path d="M15.16 6.24999H11.75C11.198 6.24999 10.75 5.80199 10.75 5.24999V1.85199" stroke="black" stroke-width="1.5" stroke-linecap="round" stroke-linejoin="round" fill="none"></path> <path d="M7 9.5H5V11H7V9.5Z" fill="black" data-stroke="none"></path> <path d="M9 11H7V12.5H9V11Z" fill="black" data-stroke="none"></path> <path d="M7 12.5H5V14H7V12.5Z" fill="black" data-stroke="none"></path> <path d="M9 14H7V15.5H9V14Z" fill="black" data-stroke="none"></path></svg>