<svg xmlns="http://www.w3.org/2000/svg" xmlns:xlink="http://www.w3.org/1999/xlink" x="0px" y="0px" width="18px" height="18px" viewBox="0 0 18 18"><path d="M10.75 1.83956C10.6212 1.78103 10.4801 1.75 10.336 1.75H4.75C3.645 1.75 2.75 2.645 2.75 3.75V14.25C2.75 15.355 3.645 16.25 4.75 16.25H12.25V15.5156C11.0074 15.5156 10 14.4926 10 13.25C10 12.0074 11.0074 11 12.25 11H15.25V6.664C15.25 6.51978 15.2189 6.37883 15.1603 6.24999H11.75C11.198 6.24999 10.75 5.80199 10.75 5.24999V1.83956Z" fill="#000" fill-opacity="0.3" data-color="color-2" data-stroke="none"></path> <path d="M5.75 6.75H7.75" stroke="black" stroke-width="1.5" stroke-linecap="round" stroke-linejoin="round" fill="none"></path> <path d="M5.75 9.75H10.25" stroke="black" stroke-width="1.5" stroke-linecap="round" stroke-linejoin="round" fill="none"></path> <path d="M15.16 6.24999H11.75C11.198 6.24999 10.75 5.80199 10.75 5.24999V1.85199" stroke="black" stroke-width="1.5" stroke-linecap="round" stroke-linejoin="round" fill="none"></path> <path d="M17.25 13.25H12.25" stroke="black" stroke-width="1.5" stroke-linecap="round" stroke-linejoin="round" fill="none"></path> <path d="M15.25 10.25V6.6641C15.25 6.399 15.145 6.1441 14.957 5.9571L11.043 2.043C10.855 1.855 10.601 1.75 10.336 1.75H4.75C3.645 1.75 2.75 2.646 2.75 3.75V14.25C2.75 15.354 3.645 16.25 4.75 16.25H12.25" stroke="black" stroke-width="1.5" stroke-linecap="round" stroke-linejoin="round" fill="none"></path></svg>