<svg xmlns="http://www.w3.org/2000/svg" xmlns:xlink="http://www.w3.org/1999/xlink" x="0px" y="0px" width="18px" height="18px" viewBox="0 0 18 18"><path fill-rule="evenodd" clip-rule="evenodd" d="M6.75 2.75H4.25C3.14543 2.75 2.25 3.64543 2.25 4.75V13.25C2.25 14.3546 3.14543 15.25 4.25 15.25H13.75C14.8546 15.25 15.75 14.3546 15.75 13.25V6.25H6.75V2.75Z" fill="#000" fill-opacity="0.3" data-color="color-2" data-stroke="none"></path> <path d="M6.75 2.75H13.75C14.855 2.75 15.75 3.645 15.75 4.75V6.25" stroke="black" stroke-width="1.5" stroke-linecap="round" stroke-linejoin="round" fill="none"></path> <path d="M11.25 2.75V6.25" stroke="black" stroke-width="1.5" stroke-linecap="round" stroke-linejoin="round" fill="none"></path> <path d="M15.75 6.25V13.25C15.75 14.355 14.855 15.25 13.75 15.25H4.25C3.145 15.25 2.25 14.355 2.25 13.25V4.75C2.25 3.645 3.145 2.75 4.25 2.75H6.75V6.25H15.75Z" stroke="black" stroke-width="1.5" stroke-linecap="round" stroke-linejoin="round" fill="none"></path></svg>