<svg xmlns="http://www.w3.org/2000/svg" xmlns:xlink="http://www.w3.org/1999/xlink" x="0px" y="0px" width="18px" height="18px" viewBox="0 0 18 18"><path opacity="0.3" fill-rule="evenodd" clip-rule="evenodd" d="M4.25 2.75H6.75V6.25H15.75V12H12.25C11.007 12 10 13.01 10 14.25C10 14.5003 10.0406 14.741 10.1158 14.9653C10.1487 15.0635 10.0157 15.25 9.851 15.25H4.25C3.145 15.25 2.25 14.35 2.25 13.25V4.75C2.25 3.65 3.145 2.75 4.25 2.75Z" fill="#000" data-color="color-2" data-stroke="none"></path> <path d="M6.75 2.75H13.75C14.855 2.75 15.75 3.64 15.75 4.75V6.25" stroke="black" stroke-width="1.5" stroke-linecap="round" stroke-linejoin="round" fill="none"></path> <path d="M11.25 2.75V6.25" stroke="black" stroke-width="1.5" stroke-linecap="round" stroke-linejoin="round" fill="none"></path> <path d="M17.25 14.25H12.25" stroke="black" stroke-width="1.5" stroke-linecap="round" stroke-linejoin="round" fill="none"></path> <path d="M15.75 11.25V6.25H6.75V2.75H4.25C3.145 2.75 2.25 3.64 2.25 4.75V13.25C2.25 14.36 3.145 15.25 4.25 15.25H9.4238" stroke="black" stroke-width="1.5" stroke-linecap="round" stroke-linejoin="round" fill="none"></path></svg>