<svg xmlns="http://www.w3.org/2000/svg" xmlns:xlink="http://www.w3.org/1999/xlink" x="0px" y="0px" width="18px" height="18px" viewBox="0 0 18 18"><path d="M16.25 13.75H12.25C11.6977 13.75 11.25 14.1977 11.25 14.75V16.25C11.25 16.8023 11.6977 17.25 12.25 17.25H16.25C16.8023 17.25 17.25 16.8023 17.25 16.25V14.75C17.25 14.1977 16.8023 13.75 16.25 13.75Z" fill="#000" fill-opacity="0.3" data-color="color-2" data-stroke="none"></path> <path fill-rule="evenodd" clip-rule="evenodd" d="M10.75 1.83956C10.6212 1.78103 10.4801 1.75 10.336 1.75H4.75C3.645 1.75 2.75 2.645 2.75 3.75V14.25C2.75 15.355 3.645 16.25 4.75 16.25H9V14.75C9 13.5961 9.60138 12.5826 10.5078 12.0059C10.6336 10.049 12.2614 8.5 14.25 8.5C14.5341 8.5 14.8108 8.53162 15.0769 8.59152C15.1853 8.61593 15.25 8.47674 15.25 8.3656V6.664C15.25 6.51978 15.2189 6.37883 15.1603 6.24999H11.75C11.198 6.24999 10.75 5.80199 10.75 5.24999V1.83956Z" fill="#000" fill-opacity="0.3" data-color="color-2" data-stroke="none"></path> <path d="M5.75 6.75H7.75" stroke="black" stroke-width="1.5" stroke-linecap="round" stroke-linejoin="round" fill="none"></path> <path d="M5.75 9.75H10.25" stroke="black" stroke-width="1.5" stroke-linecap="round" stroke-linejoin="round" fill="none"></path> <path d="M15.16 6.24999H11.75C11.198 6.24999 10.75 5.80199 10.75 5.24999V1.85199" stroke="black" stroke-width="1.5" stroke-linecap="round" stroke-linejoin="round" fill="none"></path> <path d="M16.25 13.75H12.25C11.6977 13.75 11.25 14.1977 11.25 14.75V16.25C11.25 16.8023 11.6977 17.25 12.25 17.25H16.25C16.8023 17.25 17.25 16.8023 17.25 16.25V14.75C17.25 14.1977 16.8023 13.75 16.25 13.75Z" stroke="black" stroke-width="1.5" stroke-linecap="round" stroke-linejoin="round" fill="none"></path> <path d="M12.75 13.75V12.25C12.75 11.422 13.422 10.75 14.25 10.75C15.078 10.75 15.75 11.422 15.75 12.25V13.75" stroke="black" stroke-width="1.5" stroke-linecap="round" stroke-linejoin="round" fill="none"></path> <path d="M15.25 7.87568V6.66498C15.25 6.39988 15.145 6.14498 14.957 5.95798L11.043 2.04388C10.855 1.85588 10.601 1.75089 10.336 1.75089H4.75C3.645 1.75089 2.75 2.64689 2.75 3.75089V14.2499C2.75 15.3539 3.645 16.2499 4.75 16.2499H8.25" stroke="black" stroke-width="1.5" stroke-linecap="round" stroke-linejoin="round" fill="none"></path></svg>