<svg xmlns="http://www.w3.org/2000/svg" xmlns:xlink="http://www.w3.org/1999/xlink" x="0px" y="0px" width="18px" height="18px" viewBox="0 0 18 18"><path d="M13.75 6.75C14.855 6.75 15.75 7.645 15.75 8.75V10.0078C14.3427 9.92103 12.9098 10 11.5 10C9.29086 10 7.48828 11.7909 7.48828 14C7.48828 14.4157 7.46268 14.8348 7.48828 15.25H4.25C3.145 15.25 2.25 14.355 2.25 13.25V8.75C2.25 7.645 3.145 6.75 4.25 6.75H13.75Z" fill="#000" fill-opacity="0.3" data-color="color-2" data-stroke="none"></path> <path d="M2.25 8.75V4.75C2.25 3.645 3.145 2.75 4.25 2.75H6.201C6.808 2.75 7.381 3.02499 7.761 3.49799L8.364 4.25H13.75C14.855 4.25 15.75 5.145 15.75 6.25V9.09399" stroke="black" stroke-width="1.5" stroke-linecap="round" stroke-linejoin="round" fill="none"></path> <path d="M15.75 9.25V8.75C15.75 7.646 14.855 6.75 13.75 6.75H4.25C3.145 6.75 2.25 7.646 2.25 8.75V13.25C2.25 14.354 3.145 15.25 4.25 15.25H6.75" stroke="black" stroke-width="1.5" stroke-linecap="round" stroke-linejoin="round" fill="none"></path> <path d="M12 16.75H11.5C10.5335 16.75 9.75 15.9665 9.75 15V14C9.75 13.0335 10.5335 12.25 11.5 12.25H12" stroke="black" stroke-width="1.5" stroke-linecap="round" stroke-linejoin="round" fill="none"></path> <path d="M15 16.75H15.5C16.4665 16.75 17.25 15.9665 17.25 15V14C17.25 13.0335 16.4665 12.25 15.5 12.25H15" stroke="black" stroke-width="1.5" stroke-linecap="round" stroke-linejoin="round" fill="none"></path> <path d="M12.25 14.5H14.75" stroke="black" stroke-width="1.5" stroke-linecap="round" stroke-linejoin="round" fill="none"></path></svg>