<svg xmlns="http://www.w3.org/2000/svg" xmlns:xlink="http://www.w3.org/1999/xlink" x="0px" y="0px" width="12px" height="12px" viewBox="0 0 12 12"><rect x=".75" y="1.75" width="10.5" height="8.5" rx="2" ry="2" fill="none" stroke="#000" stroke-linecap="round" stroke-linejoin="round" stroke-width="1.5"></rect><circle cx="6" cy="6" r="1.25" fill="#000" stroke="#000" stroke-linecap="round" stroke-linejoin="round" stroke-width="1.5" data-color="color-2"></circle><path d="m.75,3.75v1c1.657,0,3-1.343,3-3h-1C1.645,1.75.75,2.645.75,3.75Z" stroke-width="0" fill="#000"></path><path d="m11.25,3.75v1c-1.657,0-3-1.343-3-3h1c1.105,0,2,.895,2,2Z" stroke-width="0" fill="#000"></path><path d="m.75,8.25v-1c1.657,0,3,1.343,3,3h-1c-1.105,0-2-.895-2-2Z" stroke-width="0" fill="#000"></path><path d="m11.25,8.25v-1c-1.657,0-3,1.343-3,3h1c1.105,0,2-.895,2-2Z" stroke-width="0" fill="#000"></path></svg>