<svg xmlns="http://www.w3.org/2000/svg" xmlns:xlink="http://www.w3.org/1999/xlink" x="0px" y="0px" width="18px" height="18px" viewBox="0 0 18 18"><path d="M1.75 7.5C3.8219 7.5 5.5 5.8219 5.5 3.75" stroke="black" stroke-width="1.5" stroke-linecap="round" stroke-linejoin="round" fill="none"></path> <path d="M5.5 14.25C5.5 12.1781 3.8219 10.5 1.75 10.5" stroke="black" stroke-width="1.5" stroke-linecap="round" stroke-linejoin="round" fill="none"></path> <path d="M12.5 3.75C12.5 5.8219 14.1781 7.5 16.25 7.5" stroke="black" stroke-width="1.5" stroke-linecap="round" stroke-linejoin="round" fill="none"></path> <path d="M16.25 10.5C14.1781 10.5 12.5 12.1781 12.5 14.25" stroke="black" stroke-width="1.5" stroke-linecap="round" stroke-linejoin="round" fill="none"></path> <path d="M14.25 3.75H3.75C2.645 3.75 1.75 4.645 1.75 5.75V12.25C1.75 13.355 2.645 14.25 3.75 14.25H14.25C15.355 14.25 16.25 13.355 16.25 12.25V5.75C16.25 4.645 15.355 3.75 14.25 3.75Z" stroke="black" stroke-width="1.5" stroke-linecap="round" stroke-linejoin="round" fill="none"></path> <path d="M10.8182 6.5H8.20451C7.51411 6.5 6.95451 7.05961 6.95441 7.74991C6.95441 8.44041 7.51401 9.00021 8.20451 9.00021H9.79571C10.4859 9.00021 11.0456 9.5597 11.0456 10.25C11.0456 10.9404 10.486 11.5 9.79571 11.5H7.18171" stroke="#000" stroke-width="1.5" stroke-linecap="round" stroke-linejoin="round" data-color="color-2" fill="none"></path> <path d="M9 5.74979V6.5" stroke="#000" stroke-width="1.5" stroke-linecap="round" stroke-linejoin="round" data-color="color-2" fill="none"></path> <path d="M9 11.4998V12.25" stroke="#000" stroke-width="1.5" stroke-linecap="round" stroke-linejoin="round" data-color="color-2" fill="none"></path></svg>