<svg xmlns="http://www.w3.org/2000/svg" xmlns:xlink="http://www.w3.org/1999/xlink" x="0px" y="0px" width="18px" height="18px" viewBox="0 0 18 18"><path d="M13.7244 9.62939C14.7656 9.35029 15.6191 9.0236 16.25 8.75" stroke="black" stroke-width="1.5" stroke-linecap="round" stroke-linejoin="round" fill="none"></path> <path d="M1.75 8.75C2.3313 9.0018 3.1011 9.29951 4.0325 9.56281" stroke="black" stroke-width="1.5" stroke-linecap="round" stroke-linejoin="round" fill="none"></path> <path d="M6.25 4.75V2.25C6.25 1.698 6.698 1.25 7.25 1.25H10.75C11.302 1.25 11.75 1.698 11.75 2.25V4.75" stroke="black" stroke-width="1.5" stroke-linecap="round" stroke-linejoin="round" fill="none"></path> <path d="M14.25 4.75H3.75C2.645 4.75 1.75 5.645 1.75 6.75V13.25C1.75 14.355 2.645 15.25 3.75 15.25H14.25C15.355 15.25 16.25 14.355 16.25 13.25V6.75C16.25 5.645 15.355 4.75 14.25 4.75Z" stroke="black" stroke-width="1.5" stroke-linecap="round" stroke-linejoin="round" fill="none"></path> <path d="M10.8182 7.50018H8.2045C7.5141 7.50018 6.95451 8.05982 6.95441 8.75012C6.95441 9.44062 7.514 10.0004 8.2045 10.0004H9.79568C10.4859 10.0004 11.0456 10.5599 11.0456 11.2502C11.0456 11.9406 10.486 12.5002 9.79568 12.5002H7.1817" stroke="#000" stroke-width="1.5" stroke-linecap="round" stroke-linejoin="round" data-color="color-2" fill="none"></path> <path d="M9 6.75V7.50018" stroke="#000" stroke-width="1.5" stroke-linecap="round" stroke-linejoin="round" data-color="color-2" fill="none"></path> <path d="M9 12.5V13.2502" stroke="#000" stroke-width="1.5" stroke-linecap="round" stroke-linejoin="round" data-color="color-2" fill="none"></path></svg>