<svg xmlns="http://www.w3.org/2000/svg" xmlns:xlink="http://www.w3.org/1999/xlink" x="0px" y="0px" width="18px" height="18px" viewBox="0 0 18 18"><circle cx="11.25" cy="3.75" r="3" fill="none" stroke="#000" stroke-linecap="round" stroke-linejoin="round" stroke-width="1.5" data-color="color-2"></circle><line x1="11.25" y1="3" x2="11.25" y2="4.5" fill="none" stroke="#000" stroke-linecap="round" stroke-linejoin="round" stroke-width="1.5" data-color="color-2"></line><path d="M10.437,12.965l4.817-2.174c.712-.321,1.549-.005,1.871,.707h0c.321,.712,.005,1.549-.707,1.871l-6.791,3.065c-.676,.305-1.441,.349-2.148,.123l-4.478-1.432" fill="none" stroke="#000" stroke-linecap="round" stroke-linejoin="round" stroke-width="1.5"></path><path d="M7.245,12.098l1.971,.894c.711,.323,1.549,.008,1.872-.703h0c.323-.711,.008-1.549-.703-1.872l-2.777-1.268c-2.296-1.023-4.233,.539-4.608,2.352" fill="none" stroke="#000" stroke-linecap="round" stroke-linejoin="round" stroke-width="1.5"></path><path d="M.75,9.75h1.25c.552,0,1,.448,1,1v5c0,.552-.448,1-1,1H.75" fill="none" stroke="#000" stroke-linecap="round" stroke-linejoin="round" stroke-width="1.5"></path></svg>