<svg xmlns="http://www.w3.org/2000/svg" xmlns:xlink="http://www.w3.org/1999/xlink" x="0px" y="0px" width="18px" height="18px" viewBox="0 0 18 18"><path d="M5.75 16.25L6.75 13.25" stroke="#000" stroke-width="1.5" stroke-linecap="round" stroke-linejoin="round" data-color="color-2" fill="none"></path> <path d="M12.25 16.25L11.25 13.25" stroke="#000" stroke-width="1.5" stroke-linecap="round" stroke-linejoin="round" data-color="color-2" fill="none"></path> <path d="M6.75 2.75H3.75C2.645 2.75 1.75 3.646 1.75 4.75V11.25C1.75 12.354 2.645 13.25 3.75 13.25H14.25C15.355 13.25 16.25 12.354 16.25 11.25V8.19049" stroke="black" stroke-width="1.5" stroke-linecap="round" stroke-linejoin="round" fill="none"></path> <path d="M12 5.25H11.5C10.5335 5.25 9.75 4.4665 9.75 3.5V2.5C9.75 1.5335 10.5335 0.75 11.5 0.75H12" stroke="#000" stroke-width="1.5" stroke-linecap="round" stroke-linejoin="round" data-color="color-2" fill="none"></path> <path d="M15 5.25H15.5C16.4665 5.25 17.25 4.4665 17.25 3.5V2.5C17.25 1.5335 16.4665 0.75 15.5 0.75H15" stroke="#000" stroke-width="1.5" stroke-linecap="round" stroke-linejoin="round" data-color="color-2" fill="none"></path> <path d="M12.25 3H14.75" stroke="#000" stroke-width="1.5" stroke-linecap="round" stroke-linejoin="round" data-color="color-2" fill="none"></path></svg>