<svg xmlns="http://www.w3.org/2000/svg" xmlns:xlink="http://www.w3.org/1999/xlink" x="0px" y="0px" width="18px" height="18px" viewBox="0 0 18 18"><path d="M9 11C10.105 11 11 10.105 11 9C11 7.895 10.105 7 9 7C7.895 7 7 7.895 7 9C7 10.105 7.895 11 9 11Z" stroke="#000" stroke-width="1.5" stroke-linecap="round" stroke-linejoin="round" data-color="color-2" fill="none"></path> <path d="M1.75 7.5C3.8219 7.5 5.5 5.8219 5.5 3.75" stroke="black" stroke-width="1.5" stroke-linecap="round" stroke-linejoin="round" fill="none"></path> <path d="M5.5 14.25C5.5 12.1781 3.8219 10.5 1.75 10.5" stroke="black" stroke-width="1.5" stroke-linecap="round" stroke-linejoin="round" fill="none"></path> <path d="M12.5 3.75C12.5 5.8219 14.1781 7.5 16.25 7.5" stroke="black" stroke-width="1.5" stroke-linecap="round" stroke-linejoin="round" fill="none"></path> <path d="M16.25 10.5C14.1781 10.5 12.5 12.1781 12.5 14.25" stroke="black" stroke-width="1.5" stroke-linecap="round" stroke-linejoin="round" fill="none"></path> <path d="M14.25 3.75H3.75C2.645 3.75 1.75 4.645 1.75 5.75V12.25C1.75 13.355 2.645 14.25 3.75 14.25H14.25C15.355 14.25 16.25 13.355 16.25 12.25V5.75C16.25 4.645 15.355 3.75 14.25 3.75Z" stroke="black" stroke-width="1.5" stroke-linecap="round" stroke-linejoin="round" fill="none"></path></svg>