<svg xmlns="http://www.w3.org/2000/svg" xmlns:xlink="http://www.w3.org/1999/xlink" x="0px" y="0px" width="20px" height="20px" viewBox="0 0 20 20"><line x1="10" y1="3" x2="10" y2="8.5" fill="none" stroke="#000" stroke-linecap="round" stroke-linejoin="round" stroke-width="2"></line><line x1="3.1064" y1="6.5" x2="16.8934" y2="6.5" fill="none" stroke="#000" stroke-linecap="round" stroke-linejoin="round" stroke-width="2"></line><path d="m12,14v-2c0-1.1046.8954-2,2-2h0c1.1046,0,2,.8954,2,2v2" fill="none" stroke="#000" stroke-linecap="round" stroke-linejoin="round" stroke-width="2" data-color="color-2"></path><path d="m17,7.3978v-.2568c0-.4169-.1302-.8233-.3726-1.1625l-1.5292-2.1409c-.3754-.5256-.9816-.8375-1.6274-.8375h-6.9415c-.6459,0-1.252.312-1.6274.8375l-1.5292,2.1409c-.2423.3392-.3726.7456-.3726,1.1625v6.8591c0,1.6569,1.3431,3,3,3h1.5505" fill="none" stroke="#000" stroke-linecap="round" stroke-linejoin="round" stroke-width="2"></path><rect x="11" y="14" width="6" height="3" rx=".5" ry=".5" fill="#000" stroke="#000" stroke-linecap="round" stroke-linejoin="round" stroke-width="2" data-color="color-2"></rect></svg>