<svg xmlns="http://www.w3.org/2000/svg" xmlns:xlink="http://www.w3.org/1999/xlink" x="0px" y="0px" width="20px" height="20px" viewBox="0 0 20 20"><path d="m8,17v-3c0-1.105.895-2,2-2h0c1.105,0,2,.895,2,2v3h-4Z" stroke-width="0" fill="#000"></path><line x1="3" y1="17" x2="17" y2="17" fill="none" stroke="#000" stroke-linecap="round" stroke-linejoin="round" stroke-width="2"></line><line x1="4" y1="17" x2="4" y2="11" fill="none" stroke="#000" stroke-linecap="round" stroke-linejoin="round" stroke-width="2"></line><line x1="16" y1="17" x2="16" y2="11" fill="none" stroke="#000" stroke-linecap="round" stroke-linejoin="round" stroke-width="2"></line><path d="m14,3H6l-3,3c0,1.105.895,2,2,2s2-.895,2-2h1c0,1.105.895,2,2,2s2-.895,2-2h1c0,1.105.895,2,2,2s2-.895,2-2l-3-3Z" fill="#000" stroke="#000" stroke-linecap="round" stroke-linejoin="round" stroke-width="2" data-color="color-2"></path></svg>