<svg xmlns="http://www.w3.org/2000/svg" xmlns:xlink="http://www.w3.org/1999/xlink" x="0px" y="0px" width="20px" height="20px" viewBox="0 0 20 20"><line x1="10" y1="3" x2="10" y2="10" fill="none" stroke="#000" stroke-linecap="round" stroke-linejoin="round" stroke-width="2"></line><line x1="3.1064" y1="6.5" x2="16.8934" y2="6.5" fill="none" stroke="#000" stroke-linecap="round" stroke-linejoin="round" stroke-width="2"></line><path d="m17,8.0126v-.8716c0-.4169-.1302-.8233-.3726-1.1625l-1.5292-2.1409c-.3754-.5256-.9816-.8375-1.6274-.8375h-6.9415c-.6459,0-1.252.312-1.6274.8375l-1.5292,2.1409c-.2423.3392-.3726.7456-.3726,1.1625v6.8591c0,1.6569,1.3431,3,3,3h3.9335" fill="none" stroke="#000" stroke-linecap="round" stroke-linejoin="round" stroke-width="2"></path><path d="m17.0057,10.9961c-1.3252-1.3262-3.4834-1.3262-4.8086,0-1.3257,1.3252-1.3257,3.4824,0,4.8076.3618.3623,1.3101,1.4561,1.6445,1.8467.1904.2217.4678.3496.7598.3496s.5693-.1279.7598-.3496c.3345-.3906,1.2827-1.4844,1.6445-1.8467,1.3257-1.3252,1.3257-3.4824,0-4.8076Zm-2.4043,3.5039c-.6904,0-1.25-.5596-1.25-1.25s.5596-1.25,1.25-1.25,1.25.5596,1.25,1.25-.5596,1.25-1.25,1.25Z" fill="#000" stroke-width="0" data-color="color-2"></path></svg>