<svg xmlns="http://www.w3.org/2000/svg" xmlns:xlink="http://www.w3.org/1999/xlink" x="0px" y="0px" width="20px" height="20px" viewBox="0 0 20 20"><path d="m14,2H6c-1.6569,0-3,1.3431-3,3v12c0,.3687.2031.7075.5283.8818.3242.1738.7207.1543,1.0264-.0498l2.4453-1.6304,2.4453,1.6304c.3359.2239.7735.2239,1.1094,0l2.4453-1.6304,2.4453,1.6304c.167.1118.3604.168.5547.168.1621,0,.3242-.0391.4717-.1182.3252-.1743.5283-.5132.5283-.8818V5c0-1.6569-1.3431-3-3-3Zm-4.5,11h-2.5c-.5527,0-1-.4478-1-1s.4473-1,1-1h2.5c.5527,0,1,.4478,1,1s-.4473,1-1,1Zm0-4h-2.5c-.5527,0-1-.4478-1-1s.4473-1,1-1h2.5c.5527,0,1,.4478,1,1s-.4473,1-1,1Zm3.5,4c-.5523,0-1-.4477-1-1s.4477-1,1-1,1,.4477,1,1-.4477,1-1,1Zm0-4c-.5523,0-1-.4477-1-1s.4477-1,1-1,1,.4477,1,1-.4477,1-1,1Z" stroke-width="0" fill="#000"></path></svg>