<svg xmlns="http://www.w3.org/2000/svg" xmlns:xlink="http://www.w3.org/1999/xlink" x="0px" y="0px" width="20px" height="20px" viewBox="0 0 20 20"><path d="m17.9585,13.4341l-1.1431-7.9995c-.2793-1.958-1.9814-3.4346-3.9595-3.4346h-5.708c-1.978,0-3.6802,1.4766-3.9595,3.4341l-1.1431,8.0005c-.1641,1.1484.1782,2.3101.9385,3.1865s1.8613,1.3789,3.0215,1.3789h7.9932c1.1602,0,2.2622-.5029,3.0225-1.3794.7598-.8765,1.1021-2.0381.9375-3.1865Zm-7.9585-3.4341c-1.9297,0-3.5-1.5703-3.5-3.5,0-.5522.4478-1,1-1s1,.4478,1,1c0,.8271.6729,1.5,1.5,1.5s1.5-.6729,1.5-1.5c0-.5522.4478-1,1-1s1,.4478,1,1c0,1.9297-1.5703,3.5-3.5,3.5Z" stroke-width="0" fill="#000"></path></svg>