<svg xmlns="http://www.w3.org/2000/svg" xmlns:xlink="http://www.w3.org/1999/xlink" x="0px" y="0px" width="20px" height="20px" viewBox="0 0 20 20"><path d="m5,5c0-1.104.8958-2,2-2,2.4657,0,3,4,3,4h-3c-1.0417,0-2-.896-2-2Z" fill="none" stroke="#000" stroke-linecap="round" stroke-linejoin="round" stroke-width="2" data-color="color-2"></path><path d="m13,7h-3s.5343-4,3-4c1.1042,0,2,.896,2,2,0,1.104-.9583,2-2,2Z" fill="none" stroke="#000" stroke-linecap="round" stroke-linejoin="round" stroke-width="2" data-color="color-2"></path><line x1="17" y1="7" x2="3" y2="7" stroke="#000" stroke-linecap="round" stroke-linejoin="round" stroke-width="2" data-color="color-2" fill="#000"></line><path d="m16,10h-5v8h1.5c1.933,0,3.5-1.567,3.5-3.5v-4.5Z" stroke-width="0" fill="#000"></path><path d="m9,10h-5v4.5c0,1.933,1.567,3.5,3.5,3.5h1.5v-8Z" stroke-width="0" fill="#000"></path></svg>