<svg xmlns="http://www.w3.org/2000/svg" xmlns:xlink="http://www.w3.org/1999/xlink" x="0px" y="0px" width="20px" height="20px" viewBox="0 0 20 20"><path d="m12,9H4c-1.103,0-2,.897-2,2v3c0,.552.447,1,1,1h.277c-.172-.295-.277-.634-.277-1,0-1.105.895-2,2-2s2,.895,2,2c0,.366-.106.705-.277,1h1.555c-.172-.295-.277-.634-.277-1,0-1.105.895-2,2-2s2,.895,2,2c0,.366-.106.705-.277,1h.277c.553,0,1-.448,1-1v-4c0-.552-.447-1-1-1Z" stroke-width="0" fill="#000"></path><path d="m17,16h-1c-.552,0-1-.448-1-1V3" fill="none" stroke="#000" stroke-linecap="round" stroke-linejoin="round" stroke-width="2" data-color="color-2"></path><polygon points="12 10 6 10 6 4 10 4 12 10" fill="none" stroke="#000" stroke-linecap="round" stroke-linejoin="round" stroke-width="2"></polygon><circle cx="5" cy="14" r="2" fill="none" stroke="#000" stroke-linecap="round" stroke-linejoin="round" stroke-width="2"></circle><circle cx="10" cy="14" r="2" fill="none" stroke="#000" stroke-linecap="round" stroke-linejoin="round" stroke-width="2"></circle></svg>