<svg xmlns="http://www.w3.org/2000/svg" xmlns:xlink="http://www.w3.org/1999/xlink" x="0px" y="0px" width="12px" height="12px" viewBox="0 0 12 12"><circle cx="4" cy="7" r="1" fill="#000" stroke-width="0" data-color="color-2"></circle><path d="m9,1.525v-.775c0-.414-.336-.75-.75-.75s-.75.336-.75.75v.75h-3v-.75c0-.414-.336-.75-.75-.75s-.75.336-.75.75v.775c-1.398.129-2.5,1.294-2.5,2.725v5c0,1.517,1.233,2.75,2.75,2.75h5.5c1.517,0,2.75-1.233,2.75-2.75v-5c0-1.431-1.102-2.596-2.5-2.725Zm1,7.725c0,.689-.561,1.25-1.25,1.25H3.25c-.689,0-1.25-.561-1.25-1.25v-4.25h8v4.25Z" stroke-width="0" fill="#000"></path></svg>