<svg xmlns="http://www.w3.org/2000/svg" xmlns:xlink="http://www.w3.org/1999/xlink" x="0px" y="0px" width="18px" height="18px" viewBox="0 0 18 18"><path d="m16.25,13h-1.75v-1.75c0-.4141-.3359-.75-.75-.75s-.75.3359-.75.75v1.75h-1.75c-.4141,0-.75.3359-.75.75s.3359.75.75.75h1.75v1.75c0,.4141.3359.75.75.75s.75-.3359.75-.75v-1.75h1.75c.4141,0,.75-.3359.75-.75s-.3359-.75-.75-.75Z" fill="#000" stroke-width="0" data-color="color-2"></path><path d="m9,1C4.5889,1,1,4.5889,1,9s3.5889,8,8,8c.8861,0,1.7363-.1509,2.5336-.418-.0164-.1091-.0336-.2183-.0336-.332v-.25h-.25c-1.2407,0-2.25-1.0093-2.25-2.25s1.0093-2.25,2.25-2.25h.25v-.25c0-1.2407,1.0093-2.25,2.25-2.25s2.25,1.0093,2.25,2.25v.25h.25c.1137,0,.2228.0171.332.0337.2672-.7974.418-1.6475.418-2.5337,0-4.4111-3.5889-8-8-8Zm.75,8c0,.2461-.1206.4766-.3232.6167l-3.25,2.25c-.1299.0903-.2788.1333-.4263.1333-.2378,0-.4717-.1128-.6172-.3232-.2358-.3403-.1509-.8076.1899-1.0435l2.9268-2.0264v-3.8569c0-.4141.3359-.75.75-.75s.75.3359.75.75v4.25Z" stroke-width="0" fill="#000"></path></svg>