<svg xmlns="http://www.w3.org/2000/svg" xmlns:xlink="http://www.w3.org/1999/xlink" x="0px" y="0px" width="18px" height="18px" viewBox="0 0 18 18"><path d="M16.5,4.25c-.192,0-.384-.073-.53-.22l-2-2c-.293-.293-.293-.768,0-1.061s.768-.293,1.061,0l2,2c.293,.293,.293,.768,0,1.061-.146,.146-.338,.22-.53,.22Z" fill="#000" data-color="color-2"></path><path d="M1.5,4.25c-.192,0-.384-.073-.53-.22-.293-.293-.293-.768,0-1.061L2.97,.97c.293-.293,.768-.293,1.061,0s.293,.768,0,1.061l-2,2c-.146,.146-.338,.22-.53,.22Z" fill="#000" data-color="color-2"></path><path d="M14.447,13.386c.969-1.201,1.553-2.726,1.553-4.386,0-3.86-3.14-7-7-7S2,5.14,2,9c0,1.66,.584,3.185,1.553,4.386l-1.333,1.333c-.293,.293-.293,.768,0,1.061,.146,.146,.338,.22,.53,.22s.384-.073,.53-.22l1.333-1.333c1.201,.969,2.726,1.553,4.387,1.553s3.185-.583,4.387-1.553l1.333,1.333c.146,.146,.338,.22,.53,.22s.384-.073,.53-.22c.293-.293,.293-.768,0-1.061l-1.333-1.333Zm-2.947-3.636h-1.75v1.75c0,.414-.336,.75-.75,.75s-.75-.336-.75-.75v-1.75h-1.75c-.414,0-.75-.336-.75-.75s.336-.75,.75-.75h1.75v-1.75c0-.414,.336-.75,.75-.75s.75,.336,.75,.75v1.75h1.75c.414,0,.75,.336,.75,.75s-.336,.75-.75,.75Z" fill="#000"></path></svg>