<svg xmlns="http://www.w3.org/2000/svg" xmlns:xlink="http://www.w3.org/1999/xlink" x="0px" y="0px" width="18px" height="18px" viewBox="0 0 18 18"><path d="M5.25,12h-1.5c-1.517,0-2.75-1.233-2.75-2.75V3.75c0-1.517,1.233-2.75,2.75-2.75h3.5c1.517,0,2.75,1.233,2.75,2.75v.5h-1.5v-.5c0-.689-.561-1.25-1.25-1.25H3.75c-.689,0-1.25,.561-1.25,1.25v5.5c0,.689,.561,1.25,1.25,1.25h1.5v1.5Z" fill="#000" data-color="color-2"></path><path d="M8.75,14.5h-1.5c-1.517,0-2.75-1.233-2.75-2.75V6.25c0-1.517,1.233-2.75,2.75-2.75h3.5c1.517,0,2.75,1.233,2.75,2.75v.5h-1.5v-.5c0-.689-.561-1.25-1.25-1.25h-3.5c-.689,0-1.25,.561-1.25,1.25v5.5c0,.689,.561,1.25,1.25,1.25h1.5v1.5Z" fill="#000" data-color="color-2"></path><rect x="8" y="6" width="9" height="11" rx="2.75" ry="2.75" fill="#000"></rect></svg>