<svg xmlns="http://www.w3.org/2000/svg" xmlns:xlink="http://www.w3.org/1999/xlink" x="0px" y="0px" width="24px" height="24px" viewBox="0 0 24 24"><path d="M10 12H21" stroke="black" stroke-width="2" stroke-linecap="square" fill="none"></path> <path d="M10 4H21" stroke="black" stroke-width="2" stroke-linecap="square" fill="none"></path> <path d="M10 20H21" stroke="black" stroke-width="2" stroke-linecap="square" fill="none"></path> <path d="M4 1L4.92667 2.81047L7 3.101L5.5 4.51029L5.854 6.5L4 5.56047L2.14533 6.5L2.5 4.51029L1 3.101L3.07267 2.81047L4 1Z" fill="#000" data-color="color-2" data-cap="butt" data-stroke="none"></path> <path d="M4 9L4.92667 10.8105L7 11.101L5.5 12.5103L5.854 14.5L4 13.5605L2.14533 14.5L2.5 12.5103L1 11.101L3.07267 10.8105L4 9Z" fill="#000" data-color="color-2" data-cap="butt" data-stroke="none"></path> <path d="M4 17L4.92667 18.8105L7 19.101L5.5 20.5103L5.854 22.5L4 21.5605L2.14533 22.5L2.5 20.5103L1 19.101L3.07267 18.8105L4 17Z" fill="#000" data-color="color-2" data-cap="butt" data-stroke="none"></path></svg>