<svg xmlns="http://www.w3.org/2000/svg" xmlns:xlink="http://www.w3.org/1999/xlink" x="0px" y="0px" width="32px" height="32px" viewBox="0 0 32 32"><path d="m17.121,12.05c1.172-1.172,1.172-3.071,0-4.243l-4.95-4.95c-1.172-1.172-3.071-1.172-4.243,0L2.858,7.929c-1.172,1.172-1.172,3.071,0,4.243l4.95,4.95c1.172,1.172,3.071,1.172,4.243,0" fill="none" stroke="#000" stroke-linecap="square" stroke-miterlimit="10" stroke-width="2"></path><path d="m14.879,19.95c-1.172,1.172-1.172,3.071,0,4.243l4.95,4.95c1.172,1.172,3.071,1.172,4.243,0l5.071-5.071c1.172-1.172,1.172-3.071,0-4.243l-4.95-4.95c-1.172-1.172-3.071-1.172-4.243,0" fill="none" stroke="#000" stroke-linecap="square" stroke-miterlimit="10" stroke-width="2"></path><line x1="11" y1="11" x2="21" y2="21" fill="none" stroke="#000" stroke-linecap="square" stroke-miterlimit="10" stroke-width="2" data-color="color-2"></line></svg>