<svg xmlns="http://www.w3.org/2000/svg" xmlns:xlink="http://www.w3.org/1999/xlink" x="0px" y="0px" width="32px" height="32px" viewBox="0 0 32 32"><path d="M13.9792 17.008C12.5971 20.3595 9.78407 21.9496 7.15935 21.9993C5.31484 22.0342 3.40574 20.8176 3.04616 18.6738C2.76673 17.008 3.74943 15.3657 6.16989 14.6259C8.80621 13.8201 14 14.0227 14 14.0227" stroke="black" stroke-width="2" data-cap="butt" fill="none"></path> <path d="M14 22V13.3626C14 10.4009 11.5991 8 8.63738 8V8C7.26496 8 5.94477 8.52619 4.94861 9.47024L4 10.3692" stroke="black" stroke-width="2" stroke-linecap="square" fill="none"></path> <path d="M18 22L18 3" stroke="black" stroke-width="2" stroke-linecap="square" fill="none"></path> <path d="M29 16.5V14.5C29 11.4624 26.5376 9 23.5 9C20.4624 9 18 11.4624 18 14.5V16.5C18 19.5376 20.4624 22 23.5 22C26.5376 22 29 19.5376 29 16.5Z" stroke="black" stroke-width="2" stroke-linecap="square" fill="none"></path> <path d="M2 28H30" stroke="#000" stroke-width="2" stroke-miterlimit="10" stroke-linecap="square" data-color="color-2" fill="none"></path></svg>