<svg xmlns="http://www.w3.org/2000/svg" xmlns:xlink="http://www.w3.org/1999/xlink" x="0px" y="0px" width="32px" height="32px" viewBox="0 0 32 32"><path d="M13.9792 17.008C12.5971 20.3595 9.78407 21.9496 7.15936 21.9993C5.31485 22.0342 3.40575 20.8176 3.04616 18.6738C2.95059 18.1041 3.00266 17.5371 3.20941 17.008" stroke="black" stroke-width="2" data-cap="butt" fill="none"></path> <path d="M28.4003 13C27.4899 11.2192 25.6373 10 23.5 10C21.3627 10 19.5101 11.2192 18.5997 13H18" stroke="black" stroke-width="2" stroke-linecap="square" fill="none"></path> <path d="M14 23V17" stroke="black" stroke-width="2" stroke-linecap="square" fill="none"></path> <path d="M18 23L18 17" stroke="black" stroke-width="2" stroke-linecap="square" fill="none"></path> <path d="M29 17V17.5C29 20.5376 26.5376 23 23.5 23C20.4624 23 18 20.5376 18 17.5V17" stroke="black" stroke-width="2" data-cap="butt" fill="none"></path> <path d="M1 17H31" stroke="#000" stroke-width="2" stroke-miterlimit="10" stroke-linecap="square" data-color="color-2" fill="none"></path> <path d="M4 11.3692L4.94861 10.4702C5.94477 9.52619 7.26496 9 8.63739 9C11.1282 9 13.2224 10.6982 13.8254 13" stroke="black" stroke-width="2" stroke-linecap="square" fill="none"></path> <path d="M18 4L18 13" stroke="black" stroke-width="2" stroke-linecap="square" fill="none"></path></svg>