<svg xmlns="http://www.w3.org/2000/svg" xmlns:xlink="http://www.w3.org/1999/xlink" x="0px" y="0px" width="18px" height="18px" viewBox="0 0 18 18"><circle cx="9" cy="2.625" r="1.5" fill="none" stroke="#000" stroke-linecap="round" stroke-linejoin="round" stroke-width="1.5"></circle><line x1="7.25" y1="13.25" x2="7.25" y2="6.315" fill="none" stroke="#000" stroke-linecap="round" stroke-linejoin="round" stroke-width="1.5"></line><line x1="10.75" y1="6.315" x2="10.75" y2="16.875" fill="none" stroke="#000" stroke-linecap="round" stroke-linejoin="round" stroke-width="1.5"></line><path d="M15,7.75c-.572-.099-1.22-.25-1.918-.479-.722-.238-1.355-.514-1.897-.789-.29-.147-.605-.231-.931-.231h-2.509c-.325,0-.641,.084-.931,.231-.542,.275-1.175,.552-1.897,.789-.698,.23-1.346,.38-1.918,.479" fill="none" stroke="#000" stroke-linecap="round" stroke-linejoin="round" stroke-width="1.5"></path><line x1="7.25" y1="11.25" x2="10.75" y2="11.25" fill="none" stroke="#000" stroke-linecap="round" stroke-linejoin="round" stroke-width="1.5"></line><path d="M8.238,16.2c-2.815-.373-4.988-2.783-4.988-5.7v-.5" fill="none" stroke="#000" stroke-linecap="round" stroke-linejoin="round" stroke-width="1.5" data-color="color-2"></path><path d="M14.75,10v.5c0,1.476-.556,2.822-1.47,3.84" fill="none" stroke="#000" stroke-linecap="round" stroke-linejoin="round" stroke-width="1.5" data-color="color-2"></path></svg>