<svg xmlns="http://www.w3.org/2000/svg" xmlns:xlink="http://www.w3.org/1999/xlink" x="0px" y="0px" width="18px" height="18px" viewBox="0 0 18 18"><path d="M7.75,7.75h2.5c.552,0,1,.448,1,1v6.5H6.75v-6.5c0-.552,.448-1,1-1Z" fill="none" stroke="#000" stroke-linecap="round" stroke-linejoin="round" stroke-width="1.5"></path><path d="M3.25,11.75h3.5v3.5H3.25c-.552,0-1-.448-1-1v-1.5c0-.552,.448-1,1-1Z" fill="none" stroke="#000" stroke-linecap="round" stroke-linejoin="round" stroke-width="1.5"></path><path d="M11.25,10.25h3.5c.552,0,1,.448,1,1v3c0,.552-.448,1-1,1h-3.5v-5h0Z" fill="none" stroke="#000" stroke-linecap="round" stroke-linejoin="round" stroke-width="1.5"></path><path d="M11.776,1.994c-.059-.181-.215-.313-.403-.34l-1.329-.193-.595-1.204c-.168-.342-.729-.342-.896,0l-.595,1.204-1.33,.193c-.188,.027-.345,.159-.403,.34-.059,.181-.01,.379,.127,.512l.962,.938-.228,1.324c-.032,.188,.045,.377,.199,.489,.087,.063,.19,.096,.294,.096,.08,0,.159-.019,.232-.058l1.189-.625,1.188,.625c.168,.089,.372,.074,.526-.038,.154-.112,.231-.302,.199-.489l-.228-1.324,.962-.938c.137-.133,.186-.332,.127-.512Z" fill="#000" data-color="color-2" data-stroke="none"></path></svg>