<svg xmlns="http://www.w3.org/2000/svg" xmlns:xlink="http://www.w3.org/1999/xlink" x="0px" y="0px" width="18px" height="18px" viewBox="0 0 18 18"><path d="M7.75,7.75h2.5c.552,0,1,.448,1,1v6.5H6.75v-6.5c0-.552,.448-1,1-1Z" fill="none" stroke="#000" stroke-linecap="round" stroke-linejoin="round" stroke-width="1.5"></path><path d="M3.25,11.75h3.5v3.5H3.25c-.552,0-1-.448-1-1v-1.5c0-.552,.448-1,1-1Z" fill="none" stroke="#000" stroke-linecap="round" stroke-linejoin="round" stroke-width="1.5"></path><path d="M11.25,10.25h3.5c.552,0,1,.448,1,1v3c0,.552-.448,1-1,1h-3.5v-5h0Z" fill="none" stroke="#000" stroke-linecap="round" stroke-linejoin="round" stroke-width="1.5"></path><path d="M9.25,4.75V.75s-.458,.806-1.431,.992" fill="none" stroke="#000" stroke-linecap="round" stroke-linejoin="round" stroke-width="1.5" data-color="color-2"></path></svg>