<svg xmlns="http://www.w3.org/2000/svg" xmlns:xlink="http://www.w3.org/1999/xlink" x="0px" y="0px" width="18px" height="18px" viewBox="0 0 18 18"><path fill-rule="evenodd" clip-rule="evenodd" d="M1.75 4.24999V13.75C4.146 14.824 6.318 14.971 9 13.75C11.682 12.529 13.854 12.5 16.25 13.75V4.24999C13.854 2.99999 11.682 3.02899 9 4.24999C6.318 5.47099 4.146 5.32399 1.75 4.24999ZM11 9C11 10.1046 10.1046 11 9 11C7.89543 11 7 10.1046 7 9C7 7.89543 7.89543 7 9 7C10.1046 7 11 7.89543 11 9Z" fill="#000" fill-opacity="0.3" data-color="color-2" data-stroke="none"></path> <path d="M9 11C10.1046 11 11 10.1046 11 9C11 7.89543 10.1046 7 9 7C7.89543 7 7 7.89543 7 9C7 10.1046 7.89543 11 9 11Z" stroke="black" stroke-width="1.5" stroke-linecap="round" stroke-linejoin="round" fill="none"></path> <path d="M1.75 13.75V4.24999C4.146 5.32399 6.318 5.47099 9 4.24999C11.682 3.02899 13.854 2.99999 16.25 4.24999V13.75C13.854 12.5 11.682 12.529 9 13.75C6.318 14.971 4.146 14.824 1.75 13.75Z" stroke="black" stroke-width="1.5" stroke-linecap="round" stroke-linejoin="round" fill="none"></path></svg>