<svg xmlns="http://www.w3.org/2000/svg" xmlns:xlink="http://www.w3.org/1999/xlink" x="0px" y="0px" width="18px" height="18px" viewBox="0 0 18 18"><path opacity="0.3" fill-rule="evenodd" clip-rule="evenodd" d="M4.04091 7.20587C5.55181 7.05587 7.21181 6.9599 9.00001 6.9599C10.7882 6.9599 12.4477 7.05587 13.9585 7.20587L15.178 11.438C15.716 13.352 14.278 15.25 12.29 15.25H5.71C3.722 15.25 2.284 13.351 2.822 11.438L4.04091 7.20587Z" fill="#000" data-color="color-2" data-stroke="none"></path> <path d="M7.5 3C8.052 3 8.5 2.552 8.5 2C8.5 1.448 8.052 1 7.5 1C6.948 1 6.5 1.448 6.5 2C6.5 2.552 6.948 3 7.5 3Z" fill="black" data-stroke="none"></path> <path d="M10.5 3C11.052 3 11.5 2.552 11.5 2C11.5 1.448 11.052 1 10.5 1C9.948 1 9.5 1.448 9.5 2C9.5 2.552 9.948 3 10.5 3Z" fill="black" data-stroke="none"></path> <path d="M3.81293 7.91528L2.82213 11.438C2.28413 13.3511 3.72212 15.25 5.71012 15.25H12.2901C14.2781 15.25 15.7161 13.3521 15.1781 11.438L14.1872 7.91528" stroke="black" stroke-width="1.5" stroke-linecap="round" stroke-linejoin="round" fill="none"></path> <path d="M2.75 5C4.603 4.777 6.7 4.625 9 4.625C11.3 4.625 13.397 4.777 15.25 5" stroke="black" stroke-width="1.5" stroke-linecap="round" stroke-linejoin="round" fill="none"></path></svg>