<svg xmlns="http://www.w3.org/2000/svg" xmlns:xlink="http://www.w3.org/1999/xlink" x="0px" y="0px" width="18px" height="18px" viewBox="0 0 18 18"><path d="M14.25 12.25H10.75C10.1977 12.25 9.75 12.6977 9.75 13.25V14.25C9.75 14.8023 10.1977 15.25 10.75 15.25H14.25C14.8023 15.25 15.25 14.8023 15.25 14.25V13.25C15.25 12.6977 14.8023 12.25 14.25 12.25Z" fill="#000" fill-opacity="0.3" data-color="color-2" data-stroke="none"></path> <path d="M2.75 15.25H6.25" stroke="black" stroke-width="1.5" stroke-linecap="round" stroke-linejoin="round" fill="none"></path> <path d="M2.75 12.25H4.25" stroke="black" stroke-width="1.5" stroke-linecap="round" stroke-linejoin="round" fill="none"></path> <path d="M2.75 9H6.25" stroke="black" stroke-width="1.5" stroke-linecap="round" stroke-linejoin="round" fill="none"></path> <path d="M2.75 5.75H4.25" stroke="black" stroke-width="1.5" stroke-linecap="round" stroke-linejoin="round" fill="none"></path> <path d="M2.75 2.75H6.25" stroke="black" stroke-width="1.5" stroke-linecap="round" stroke-linejoin="round" fill="none"></path> <path d="M14.25 12.25H10.75C10.1977 12.25 9.75 12.6977 9.75 13.25V14.25C9.75 14.8023 10.1977 15.25 10.75 15.25H14.25C14.8023 15.25 15.25 14.8023 15.25 14.25V13.25C15.25 12.6977 14.8023 12.25 14.25 12.25Z" stroke="black" stroke-width="1.5" stroke-linecap="round" stroke-linejoin="round" fill="none"></path></svg>