<svg xmlns="http://www.w3.org/2000/svg" xmlns:xlink="http://www.w3.org/1999/xlink" x="0px" y="0px" width="18px" height="18px" viewBox="0 0 18 18"><path fill-rule="evenodd" clip-rule="evenodd" d="M13.25 5.25H4.75C3.64543 5.25 2.75 6.14543 2.75 7.25V13.25C2.75 14.3546 3.64543 15.25 4.75 15.25H9.86328C9.86328 15.25 10.0394 15.1719 10.0326 15.1326C9.91317 14.4369 10.1219 13.6961 10.659 13.159C11.162 12.656 11.844 12.4409 12.5 12.5138V12.25C12.5 11.0074 13.5074 10 14.75 10C14.8735 10 14.9948 10.01 15.113 10.0292C15.1591 10.0367 15.25 9.92969 15.25 9.92969V7.25C15.25 6.14543 14.3546 5.25 13.25 5.25Z" fill="#000" fill-opacity="0.3" data-color="color-2" data-stroke="none"></path> <path d="M9 2.25V8.25" stroke="black" stroke-width="1.5" stroke-linecap="round" stroke-linejoin="round" fill="none"></path> <path d="M3 6.284L4.449 3.362C4.787 2.681 5.481 2.25 6.241 2.25H11.759C12.519 2.25 13.213 2.681 13.551 3.362L15 6.285" stroke="black" stroke-width="1.5" stroke-linecap="round" stroke-linejoin="round" fill="none"></path> <path d="M17.25 14.75L14.75 17.25L12.25 14.75" stroke="black" stroke-width="1.5" stroke-linecap="round" stroke-linejoin="round" fill="none"></path> <path d="M14.75 17.25V12.25" stroke="black" stroke-width="1.5" stroke-linecap="round" stroke-linejoin="round" fill="none"></path> <path d="M15.25 9.2959V7.25C15.25 6.146 14.355 5.25 13.25 5.25H4.75C3.645 5.25 2.75 6.146 2.75 7.25V13.25C2.75 14.354 3.645 15.25 4.75 15.25H9.29791" stroke="black" stroke-width="1.5" stroke-linecap="round" stroke-linejoin="round" fill="none"></path></svg>