<svg xmlns="http://www.w3.org/2000/svg" xmlns:xlink="http://www.w3.org/1999/xlink" x="0px" y="0px" width="18px" height="18px" viewBox="0 0 18 18"><path d="M7.75 6.75H3.75C3.19772 6.75 2.75 7.19772 2.75 7.75V11.75C2.75 12.3023 3.19772 12.75 3.75 12.75H7.75C8.30228 12.75 8.75 12.3023 8.75 11.75V7.75C8.75 7.19772 8.30228 6.75 7.75 6.75Z" fill="#000" fill-opacity="0.3" data-color="color-2" data-stroke="none"></path> <path d="M7.75 6.75H3.75C3.19772 6.75 2.75 7.19772 2.75 7.75V11.75C2.75 12.3023 3.19772 12.75 3.75 12.75H7.75C8.30228 12.75 8.75 12.3023 8.75 11.75V7.75C8.75 7.19772 8.30228 6.75 7.75 6.75Z" stroke="black" stroke-width="1.5" stroke-linecap="round" stroke-linejoin="round" fill="none"></path> <path d="M5.75 6.75V9" stroke="black" stroke-width="1.5" stroke-linecap="round" stroke-linejoin="round" fill="none"></path> <path d="M1.75 15.25H16.25" stroke="black" stroke-width="1.5" stroke-linecap="round" stroke-linejoin="round" fill="none"></path> <path d="M16.369 5.342C16.013 6.449 14.975 7.25 13.75 7.25C12.231 7.25 11 6.019 11 4.5C11 2.981 12.231 1.75 13.75 1.75C14.509 1.75 15.196 2.057 15.693 2.554" stroke="black" stroke-width="1.5" stroke-linecap="round" stroke-linejoin="round" fill="none"></path> <path d="M13.75 7.25V15.25" stroke="black" stroke-width="1.5" stroke-linecap="round" stroke-linejoin="round" fill="none"></path> <path d="M13.75 4.5L15.692 2.558" stroke="black" stroke-width="1.5" stroke-linecap="round" stroke-linejoin="round" fill="none"></path></svg>