<svg xmlns="http://www.w3.org/2000/svg" xmlns:xlink="http://www.w3.org/1999/xlink" x="0px" y="0px" width="18px" height="18px" viewBox="0 0 18 18"><path fill-rule="evenodd" clip-rule="evenodd" d="M16.25 9.25H11.25V12.25C12.1316 12.25 12.861 12.9019 12.9823 13.75H14.25C15.3546 13.75 16.25 12.8546 16.25 11.75V9.25Z" fill="#000" fill-opacity="0.3" data-color="color-2" data-stroke="none"></path> <path d="M4 15.75C4.9665 15.75 5.75 14.9665 5.75 14C5.75 13.0335 4.9665 12.25 4 12.25C3.0335 12.25 2.25 13.0335 2.25 14C2.25 14.9665 3.0335 15.75 4 15.75Z" stroke="black" stroke-width="1.5" stroke-linecap="round" stroke-linejoin="round" fill="none"></path> <path d="M11.25 15.75C12.2165 15.75 13 14.9665 13 14C13 13.0335 12.2165 12.25 11.25 12.25C10.2835 12.25 9.5 13.0335 9.5 14C9.5 14.9665 10.2835 15.75 11.25 15.75Z" stroke="black" stroke-width="1.5" stroke-linecap="round" stroke-linejoin="round" fill="none"></path> <path d="M9.519 13.75H5.75" stroke="black" stroke-width="1.5" stroke-linecap="round" stroke-linejoin="round" fill="none"></path> <path d="M4.75 2.75H9.25C10.355 2.75 11.25 3.645 11.25 4.75V12.25" stroke="black" stroke-width="1.5" stroke-linecap="round" stroke-linejoin="round" fill="none"></path> <path d="M11.25 5.75H13.454C13.794 5.75 14.111 5.923 14.295 6.209L16.091 9.003C16.195 9.164 16.25 9.352 16.25 9.544V11.75C16.25 12.855 15.355 13.75 14.25 13.75H13" stroke="black" stroke-width="1.5" stroke-linecap="round" stroke-linejoin="round" fill="none"></path> <path d="M11.25 9.25H16.153" stroke="black" stroke-width="1.5" stroke-linecap="round" stroke-linejoin="round" fill="none"></path> <path d="M2.75 5.75H7" stroke="black" stroke-width="1.5" stroke-linecap="round" stroke-linejoin="round" fill="none"></path> <path d="M0.75 8.75H5" stroke="black" stroke-width="1.5" stroke-linecap="round" stroke-linejoin="round" fill="none"></path></svg>