<svg xmlns="http://www.w3.org/2000/svg" xmlns:xlink="http://www.w3.org/1999/xlink" x="0px" y="0px" width="18px" height="18px" viewBox="0 0 18 18"><path d="M9.406 1.93101L15.75 4.75001L9.406 7.56901C9.147 7.68401 8.852 7.68401 8.594 7.56901L2.25 4.75001L8.594 1.93101C8.853 1.81601 9.148 1.81601 9.406 1.93101Z" fill="#000" fill-opacity="0.3" data-color="color-2" data-stroke="none"></path> <path d="M5.25 9.25001V6.08301L12 3.08301" stroke="black" stroke-width="1.5" stroke-linecap="round" stroke-linejoin="round" fill="none"></path> <path d="M9.406 1.93101L15.75 4.75001L9.406 7.56901C9.147 7.68401 8.852 7.68401 8.594 7.56901L2.25 4.75001L8.594 1.93101C8.853 1.81601 9.148 1.81601 9.406 1.93101Z" stroke="black" stroke-width="1.5" stroke-linecap="round" stroke-linejoin="round" fill="none"></path> <path d="M15.75 9.4225V4.75" stroke="black" stroke-width="1.5" stroke-linecap="round" stroke-linejoin="round" fill="none"></path> <path d="M2.25 4.75V12.6C2.25 12.995 2.483 13.353 2.844 13.514L8.594 16.07C8.7234 16.1274 8.8618 16.1562 9 16.1562" stroke="black" stroke-width="1.5" stroke-linecap="round" stroke-linejoin="round" fill="none"></path> <path d="M9 7.65601V16.1562" stroke="black" stroke-width="1.5" stroke-linecap="round" stroke-linejoin="round" fill="none"></path> <path d="M17.25 14.75L14.75 17.25L12.25 14.75" stroke="black" stroke-width="1.5" stroke-linecap="round" stroke-linejoin="round" fill="none"></path> <path d="M14.75 17V12.25" stroke="black" stroke-width="1.5" stroke-linecap="round" stroke-linejoin="round" fill="none"></path></svg>