<svg xmlns="http://www.w3.org/2000/svg" xmlns:xlink="http://www.w3.org/1999/xlink" x="0px" y="0px" width="24px" height="24px" viewBox="0 0 24 24"> <path d="M6.76389 8C6.28885 7.46924 6 6.76835 6 6C6 4.34315 7.34315 3 9 3H11C13.5 3 15 2.5 15.5 1H16C16 1 18 3 18 5C18 6.11575 17.582 7.2315 16.9247 8" stroke="#000" stroke-width="2" stroke-miterlimit="10" data-color="color-2" data-cap="butt" fill="none"></path> <path d="M19 12V8H5V12" stroke="black" stroke-width="2" stroke-miterlimit="10" stroke-linecap="square" fill="none"></path> <path d="M8 17H16" stroke="#000" stroke-width="2" stroke-linecap="square" data-color="color-2" fill="none"></path> <path d="M20 12H4C2.89543 12 2 12.8954 2 14V19C2 20.1046 2.89543 21 4 21H20C21.1046 21 22 20.1046 22 19V14C22 12.8954 21.1046 12 20 12Z" stroke="black" stroke-width="2" stroke-linecap="square" fill="none"></path> </svg>