<svg xmlns="http://www.w3.org/2000/svg" xmlns:xlink="http://www.w3.org/1999/xlink" x="0px" y="0px" width="24px" height="24px" viewBox="0 0 24 24"> <path d="M15.5 11C16.8807 11 18 9.88071 18 8.5C18 8.32877 17.9828 8.16155 17.95 8H13.05C13.0172 8.16155 13 8.32877 13 8.5C13 9.88071 14.1193 11 15.5 11Z" fill="#000" data-color="color-2" data-cap="butt" data-stroke="none"></path> <path d="M8.5 11C9.88071 11 11 9.88071 11 8.5C11 8.32877 10.9828 8.16155 10.95 8H6.05001C6.01722 8.16155 6 8.32877 6 8.5C6 9.88071 7.11929 11 8.5 11Z" fill="#000" data-color="color-2" data-cap="butt" data-stroke="none"></path> <path d="M3 12V19C3 20.1046 3.89543 21 5 21H19C20.1046 21 21 20.1046 21 19V12" stroke="black" stroke-width="2" stroke-miterlimit="10" stroke-linecap="square" fill="none"></path> <path d="M11 15.5C11 16.8807 9.88071 18 8.5 18C7.11929 18 6 16.8807 6 15.5C6 14.1193 7.11929 13 8.5 13C9.88071 13 11 14.1193 11 15.5Z" fill="#000" data-color="color-2" data-cap="butt" data-stroke="none"></path> <path d="M18 15.5C18 16.8807 16.8807 18 15.5 18C14.1193 18 13 16.8807 13 15.5C13 14.1193 14.1193 13 15.5 13C16.8807 13 18 14.1193 18 15.5Z" fill="#000" data-color="color-2" data-cap="butt" data-stroke="none"></path> <path d="M22.7764 6.55278L21 3H3L1.22361 6.55279C0.891156 7.21769 1.37465 8 2.11803 8H21.882C22.6253 8 23.1088 7.21769 22.7764 6.55278Z" stroke="black" stroke-width="2" stroke-miterlimit="10" data-cap="butt" fill="none"></path> </svg>