<svg xmlns="http://www.w3.org/2000/svg" xmlns:xlink="http://www.w3.org/1999/xlink" x="0px" y="0px" width="24px" height="24px" viewBox="0 0 24 24"> <path d="M11 11V8V8.5" stroke="#000" stroke-width="2" stroke-linecap="square" data-color="color-2" fill="none"></path> <path d="M15 11L18 11L17.5 11" stroke="#000" stroke-width="2" stroke-linecap="square" data-color="color-2" fill="none"></path> <path d="M19 7L22 7L21.5 7" stroke="#000" stroke-width="2" stroke-linecap="square" data-color="color-2" fill="none"></path> <path d="M15 7V4V4.5" stroke="#000" stroke-width="2" stroke-linecap="square" data-color="color-2" fill="none"></path> <path d="M6.5 12.5L11.5 17.5" stroke="black" stroke-width="2" data-cap="butt" fill="none"></path> <path d="M3.03543 16.0209C1.6686 17.3877 1.6686 19.6038 3.03543 20.9706V20.9706C4.40226 22.3375 6.61834 22.3375 7.98518 20.9706L20.9721 7.98364C22.339 6.6168 22.339 4.40073 20.9721 3.03389V3.03389V3.03389C19.6053 1.66706 17.3892 1.66706 16.0224 3.03389L3.03543 16.0209Z" stroke="black" stroke-width="2" stroke-miterlimit="10" stroke-linecap="square" fill="none"></path> <path d="M6.5 18.5C6.5 19.0523 6.05228 19.5 5.5 19.5C4.94772 19.5 4.5 19.0523 4.5 18.5C4.5 17.9477 4.94772 17.5 5.5 17.5C6.05228 17.5 6.5 17.9477 6.5 18.5Z" fill="#000" data-color="color-2" data-cap="butt" data-stroke="none"></path> </svg>