<svg xmlns="http://www.w3.org/2000/svg" xmlns:xlink="http://www.w3.org/1999/xlink" x="0px" y="0px" width="32px" height="32px" viewBox="0 0 32 32"> <path d="M16 7C17.6569 7 19 5.65685 19 4C19 2.34315 17.6569 1 16 1C14.3431 1 13 2.34315 13 4C13 5.65685 14.3431 7 16 7Z" stroke="#000" stroke-width="2" stroke-miterlimit="10" stroke-linecap="square" data-color="color-2" fill="none"></path> <path d="M16 22L13.5 25.0002H9.0952C7.64419 25.0002 7.03865 23.1451 8.21021 22.289L12 19.5198L12.5 10L12.4904 10.172" stroke="black" stroke-width="2" stroke-miterlimit="10" stroke-linecap="square" fill="none"></path> <path d="M18 25.0001H22.9048C24.3558 25.0001 24.9613 23.1451 23.7898 22.289L20 19.5198L19.5 9.99969L19.5113 10.2023" stroke="black" stroke-width="2" stroke-miterlimit="10" stroke-linecap="square" fill="none"></path> <path d="M12 19H20" stroke="black" stroke-width="2" data-cap="butt" fill="none"></path> <path d="M3 10L5.97611 12.551C6.29148 12.8213 6.74111 12.8685 7.10575 12.6696L11.5523 10.2442C11.8461 10.084 12.1754 10 12.51 10H19.49C19.8247 10 20.1539 10.084 20.4477 10.2442L24.8942 12.6696C25.2589 12.8685 25.7085 12.8212 26.0239 12.5509L29 9.99969" stroke="black" stroke-width="2" stroke-miterlimit="10" stroke-linecap="square" fill="none"></path> <path d="M4 29H28" stroke="#000" stroke-width="2" stroke-miterlimit="10" stroke-linecap="square" data-color="color-2" fill="none"></path> </svg>