<svg xmlns="http://www.w3.org/2000/svg" xmlns:xlink="http://www.w3.org/1999/xlink" x="0px" y="0px" width="32px" height="32px" viewBox="0 0 32 32"> <path d="M9 16H15" stroke="black" stroke-width="2" stroke-linecap="square" fill="none"></path> <path d="M11 12H3C1.89543 12 1 12.8954 1 14V18C1 19.1046 1.89543 20 3 20H11" stroke="#000" stroke-width="2" stroke-miterlimit="10" stroke-linecap="square" data-color="color-2" fill="none"></path> <path d="M21 12H29C30.1046 12 31 12.8954 31 14V18C31 19.1046 30.1046 20 29 20H21" stroke="#000" stroke-width="2" stroke-miterlimit="10" stroke-linecap="square" data-color="color-2" fill="none"></path> <path d="M21 11H11V21H21V11Z" stroke="black" stroke-width="2" stroke-miterlimit="10" stroke-linecap="square" fill="none"></path> <path d="M27 17C26.4477 17 26 16.5523 26 16C26 15.4477 26.4477 15 27 15C27.5523 15 28 15.4477 28 16C28 16.5523 27.5523 17 27 17Z" fill="#000" data-color="color-2" data-cap="butt" data-stroke="none"></path> <path d="M5 17C4.44772 17 4 16.5523 4 16C4 15.4477 4.44772 15 5 15C5.55228 15 6 15.4477 6 16C6 16.5523 5.55228 17 5 17Z" fill="#000" data-color="color-2" data-cap="butt" data-stroke="none"></path> </svg>