<svg xmlns="http://www.w3.org/2000/svg" xmlns:xlink="http://www.w3.org/1999/xlink" x="0px" y="0px" width="32px" height="32px" viewBox="0 0 32 32"> <path d="M24.6636 16.4021C18.8737 18.8374 13.3368 18.8706 7.46775 16.4021L7.29462 16.3234" stroke="#000" stroke-width="2" stroke-miterlimit="10" data-color="color-2" data-cap="butt" fill="none"></path> <path d="M24.2934 19.8331C28.3358 20.7288 31 22.2607 31 24C31 26.7614 24.2843 29 16 29C7.71573 29 1 26.7614 1 24C1 22.2607 3.66424 20.7288 7.70657 19.8331" stroke="black" stroke-width="2" data-cap="butt" fill="none"></path> <path d="M6 7L8.05855 22.1889C13.5287 24.5821 18.665 24.5486 24.0585 22.1889L26 7" stroke="black" stroke-width="2" stroke-miterlimit="10" data-cap="butt" fill="none"></path> <path d="M26 7C26 9.20914 21.5228 11 16 11C10.4772 11 6 9.20914 6 7C6 4.79086 10.4772 3 16 3C21.5228 3 26 4.79086 26 7Z" stroke="black" stroke-width="2" data-cap="butt" fill="none"></path> </svg>