<svg xmlns="http://www.w3.org/2000/svg" xmlns:xlink="http://www.w3.org/1999/xlink" x="0px" y="0px" width="32px" height="32px" viewBox="0 0 32 32"> <path d="M6 25H13" stroke="black" stroke-width="2" data-cap="butt" fill="none"></path> <path d="M5.20778 8H19" stroke="#000" stroke-width="2" data-color="color-2" data-cap="butt" fill="none"></path> <path d="M7 16.5463C7 12.4004 5 13.474 5 3H19.5667L18.3967 15.1186C18.1818 17.3455 19.4723 19.4442 21.5566 20.2573L24.817 21.529C26.7363 22.2777 28 24.1269 28 26.1872V28.2132C25.3965 28.9616 23.0345 29.045 20.3333 28.9839C18.1066 28.9839 15 28 13.7667 25H13V29H6.52092C6.16958 27.2971 5.98097 25.5429 6 23.8016C6 21.7286 7 18.6192 7 16.5463Z" stroke="black" stroke-width="2" stroke-miterlimit="10" data-cap="butt" fill="none"></path> </svg>