<svg xmlns="http://www.w3.org/2000/svg" xmlns:xlink="http://www.w3.org/1999/xlink" x="0px" y="0px" width="32px" height="32px" viewBox="0 0 32 32"> <path d="M13.5 16.5C13.5 17.8807 14.6193 19 16 19C17.3807 19 18.5 17.8807 18.5 16.5C18.5 15.1193 17.3807 14 16 14C14.6193 14 13.5 15.1193 13.5 16.5Z" stroke="#000" stroke-width="2" stroke-linecap="square" data-color="color-2" fill="none"></path> <path d="M4 29V16.0617L6.03905 14.501C7.27508 13.5549 8 12.0871 8 10.5305V3H10.5L11.1619 6.08879C11.6507 8.37014 13.6669 10 16 10C18.3331 10 20.3493 8.37014 20.8381 6.08879L21.5 3H24V10.5305C24 12.0871 24.7249 13.5549 25.9609 14.501L28 16.0617V29H4Z" stroke="black" stroke-width="2" stroke-miterlimit="10" stroke-linecap="square" fill="none"></path> <path d="M16 25C14.3431 25 13 23.6569 13 22C13 20.3431 14.3431 19 16 19C17.6569 19 19 20.3431 19 22C19 23.6569 17.6569 25 16 25Z" stroke="#000" stroke-width="2" stroke-linecap="square" data-color="color-2" fill="none"></path> </svg>