<svg xmlns="http://www.w3.org/2000/svg" xmlns:xlink="http://www.w3.org/1999/xlink" x="0px" y="0px" width="48px" height="48px" viewBox="0 0 48 48"> <path d="M25.9997 4L30.2682 8.27118L29.9972 8" stroke="#000" stroke-width="2" stroke-linecap="square" data-color="color-2" fill="none"></path> <path d="M14.5364 27.8424L8.5 21.806C6.06995 19.3759 6.06995 15.436 8.5 13.006V13.006V13.006C10.9313 10.5747 14.8721 10.5713 17.3076 12.9984L22.385 18.0585" stroke="#000" stroke-width="2" data-color="color-2" data-cap="butt" fill="none"></path> <path d="M30.6109 44L20.1364 33.4423L20.5367 33.8458" stroke="#000" stroke-width="2" stroke-linecap="square" data-color="color-2" fill="none"></path> <path d="M4.53637 40.3423L31.4364 6.74234C34.0364 3.44234 38.8364 3.24234 41.8364 6.14234C44.7364 9.04234 44.5364 13.9423 41.2364 16.5423L7.63637 43.4423C5.53637 45.1423 2.83637 42.4423 4.53637 40.3423Z" stroke="black" stroke-width="2" stroke-linecap="square" fill="none"></path> <path d="M35.0364 13.0424L41.6941 19.7C44.1241 22.1301 44.1241 26.0699 41.694 28.5V28.5V28.5C39.2624 30.9317 35.3212 30.9363 32.8839 28.5102L21.654 17.3321" stroke="#000" stroke-width="2" stroke-linecap="square" data-color="color-2" fill="none"></path> <path d="M34 14L36 12" stroke="black" stroke-width="2" stroke-linecap="square" fill="none"></path> </svg>