<svg xmlns="http://www.w3.org/2000/svg" xmlns:xlink="http://www.w3.org/1999/xlink" x="0px" y="0px" width="48px" height="48px" viewBox="0 0 48 48"> <path d="M19 22V20C19 18.8954 19.8954 18 21 18H27C28.1046 18 29 18.8954 29 20V22" stroke="#000" stroke-width="2" stroke-linecap="square" data-color="color-2" fill="none"></path> <path d="M9.5 22H33.4314C36.691 22 39.5192 24.2499 40.2521 27.426L42 35H6L11.1554 11.9104C11.6656 9.6251 13.6936 8 16.0352 8H28.3698V9C28.3698 11.2091 26.5789 13 24.3698 13H11.5" stroke="black" stroke-width="2" stroke-miterlimit="10" stroke-linecap="square" fill="none"></path> <path d="M6 40L42 40" stroke="#000" stroke-width="2" stroke-miterlimit="10" stroke-linecap="square" data-color="color-2" fill="none"></path> <path fill-rule="evenodd" clip-rule="evenodd" d="M13 28.5C13 27.6716 13.6716 27 14.5 27C15.3284 27 16 27.6716 16 28.5C16 29.3284 15.3284 30 14.5 30C13.6716 30 13 29.3284 13 28.5Z" fill="#000" data-color="color-2" data-cap="butt" data-stroke="none"></path> <path fill-rule="evenodd" clip-rule="evenodd" d="M14 28.5C14 28.2239 14.2239 28 14.5 28C14.7761 28 15 28.2239 15 28.5C15 28.7761 14.7761 29 14.5 29C14.2239 29 14 28.7761 14 28.5Z" stroke="#000" stroke-width="2" stroke-linecap="round" stroke-linejoin="round" data-color="color-2" fill="none"></path> </svg>