<svg xmlns="http://www.w3.org/2000/svg" xmlns:xlink="http://www.w3.org/1999/xlink" x="0px" y="0px" width="48px" height="48px" viewBox="0 0 48 48"> <path d="M5 22.5V37.5C5 40.5376 13.5066 43 24 43C34.4934 43 43 40.5376 43 37.5V22.5" stroke="black" stroke-width="2" data-cap="butt" fill="none"></path> <path d="M6 8.01062L6.01061 8.00001" stroke="black" stroke-width="2" stroke-linecap="square" fill="none"></path> <path d="M39 12.0106L39.0106 12" stroke="black" stroke-width="2" stroke-linecap="square" fill="none"></path> <path d="M42 5.01062L42.0106 5.00001" stroke="black" stroke-width="2" stroke-linecap="square" fill="none"></path> <path d="M36 18.2356C40.272 19.2441 43 20.7799 43 22.5C43 25.5376 34.4934 28 24 28C13.5066 28 5 25.5376 5 22.5C5 20.7799 7.72802 19.2441 12 18.2356" stroke="black" stroke-width="2" stroke-linecap="square" fill="none"></path> <path d="M29 19.5963C30.484 18.5561 31.5 16.8863 31.5 14.4187C31.5 9.0077 24 3 24 3L19.5469 9.0077L17.4375 7.85237C17.4375 7.85237 16.5 13.2045 16.5 14.4187C16.5 16.8863 17.516 18.5561 19 19.5963" stroke="#000" stroke-width="2" stroke-miterlimit="10" stroke-linecap="square" data-color="color-2" fill="none"></path> <path d="M24 22V15" stroke="#000" stroke-width="2" stroke-linecap="square" data-color="color-2" fill="none"></path> </svg>