<svg xmlns="http://www.w3.org/2000/svg" xmlns:xlink="http://www.w3.org/1999/xlink" x="0px" y="0px" width="48px" height="48px" viewBox="0 0 48 48"> <path d="M14 13L14 28" stroke="#000" stroke-width="2" data-color="color-2" data-cap="butt" fill="none"></path> <path d="M10 33L10 28H18L18 33" stroke="black" stroke-width="2" stroke-miterlimit="10" stroke-linecap="square" fill="none"></path> <path d="M10 9C10 10.0609 10.4214 11.0783 11.1716 11.8284C11.9217 12.5786 12.9391 13 14 13C15.0609 13 16.0783 12.5786 16.8284 11.8284C17.5786 11.0783 18 10.0609 18 9C18 6.8 16.21 3 14 3C11.79 3 10 6.8 10 9Z" stroke="black" stroke-width="2" stroke-linecap="round" stroke-linejoin="round" fill="none"></path> <path d="M27 36H34" stroke="#000" stroke-width="2" stroke-linecap="square" data-color="color-2" fill="none"></path> <path d="M27 40.5C27 41.8807 28.1193 43 29.5 43H38.5C39.8807 43 41 41.8807 41 40.5L41 20H27L27 40.5Z" stroke="black" stroke-width="2" stroke-miterlimit="10" stroke-linecap="square" fill="none"></path> <path d="M7.00001 40.5C7.00002 41.8807 8.1193 43 9.50001 43H18.5C19.8807 43 21 41.8807 21 40.5L21 33H7L7.00001 40.5Z" stroke="black" stroke-width="2" stroke-miterlimit="10" stroke-linecap="square" fill="none"></path> </svg>