<svg xmlns="http://www.w3.org/2000/svg" xmlns:xlink="http://www.w3.org/1999/xlink" x="0px" y="0px" width="48px" height="48px" viewBox="0 0 48 48"> <path d="M24 2V5V4" stroke="black" stroke-width="2" stroke-linecap="square" fill="none"></path> <path d="M24 46V43V44" stroke="black" stroke-width="2" stroke-linecap="square" fill="none"></path> <path d="M16 22.9999L26 13" stroke="#000" stroke-width="2" data-color="color-2" data-cap="butt" fill="none"></path> <path d="M22 35L32 25" stroke="#000" stroke-width="2" data-color="color-2" data-cap="butt" fill="none"></path> <path d="M16 32L32 16" stroke="#000" stroke-width="2" data-color="color-2" data-cap="butt" fill="none"></path> <path d="M16 13V35" stroke="black" stroke-width="2" stroke-linecap="square" fill="none"></path> <path d="M32 13V35" stroke="black" stroke-width="2" stroke-linecap="square" fill="none"></path> <path d="M15.0549 13C15.5524 8.50005 19.3674 5 24 5C28.6326 5 32.4476 8.50005 32.9451 13" stroke="black" stroke-width="2" data-cap="butt" fill="none"></path> <path d="M15.0549 35C15.5524 39.5 19.3674 43 24 43C28.6326 43 32.4476 39.5 32.9451 35" stroke="black" stroke-width="2" data-cap="butt" fill="none"></path> <path d="M13 13H35" stroke="black" stroke-width="2" stroke-linecap="square" fill="none"></path> <path d="M13 35H35" stroke="black" stroke-width="2" stroke-linecap="square" fill="none"></path> </svg>