<svg xmlns="http://www.w3.org/2000/svg" xmlns:xlink="http://www.w3.org/1999/xlink" x="0px" y="0px" width="48px" height="48px" viewBox="0 0 48 48"> <path d="M41 34L13 34" stroke="#000" stroke-width="2" stroke-miterlimit="10" stroke-linecap="square" data-color="color-2" fill="none"></path> <path d="M13 28L17.6667 23L22.3333 28L27 23L31.6667 28L36.3333 23L41 28" stroke="#000" stroke-width="2" data-color="color-2" data-cap="butt" fill="none"></path> <path d="M41 39V43" stroke="black" stroke-width="2" stroke-linecap="square" fill="none"></path> <path d="M27 39V43" stroke="black" stroke-width="2" stroke-linecap="square" fill="none"></path> <path d="M34 39V43" stroke="black" stroke-width="2" stroke-linecap="square" fill="none"></path> <path d="M20 39V43" stroke="black" stroke-width="2" stroke-linecap="square" fill="none"></path> <path d="M13 39V43" stroke="black" stroke-width="2" stroke-linecap="square" fill="none"></path> <path d="M45 10L41 10" stroke="#000" stroke-width="2" stroke-miterlimit="10" stroke-linecap="square" data-color="color-2" fill="none"></path> <path d="M10 5L36 5C38.7614 5 41 7.23858 41 10L41 39L13 39L13 24" stroke="black" stroke-width="2" stroke-miterlimit="10" data-cap="butt" fill="none"></path> <path d="M12.9528 10L8.5 10" stroke="#000" stroke-width="2" stroke-miterlimit="10" stroke-linecap="square" data-color="color-2" fill="none"></path> <path d="M6 30L13 30L13 8.5C13 6.567 11.433 5 9.5 5C7.567 5 6 6.567 6 8.5L6 30Z" stroke="black" stroke-width="2" stroke-miterlimit="10" stroke-linecap="square" fill="none"></path> <path d="M8.5 10L3 10" stroke="#000" stroke-width="2" stroke-miterlimit="10" stroke-linecap="square" data-color="color-2" fill="none"></path> </svg>