<svg xmlns="http://www.w3.org/2000/svg" xmlns:xlink="http://www.w3.org/1999/xlink" x="0px" y="0px" width="48px" height="48px" viewBox="0 0 48 48"> <path d="M14 23H34" stroke="#000" stroke-width="2" data-color="color-2" data-cap="butt" fill="none"></path> <path d="M14 42.9749V13C14 7.47716 18.4772 3 24 3V3C29.5228 3 34 7.47715 34 13V43" stroke="#000" stroke-width="2" data-color="color-2" data-cap="butt" fill="none"></path> <path d="M38.2797 17C40.1047 17 41.7778 18.0165 42.6188 19.6362V19.6362C45.9924 26.1336 45.9924 33.8664 42.6188 40.3638V40.3638C41.7778 41.9835 40.1047 43 38.2797 43H9.72034C7.89532 43 6.22222 41.9835 5.38122 40.3638V40.3638C2.00757 33.8664 2.00757 26.1336 5.38122 19.6362V19.6362C6.22222 18.0165 7.89532 17 9.72035 17H38.2797Z" stroke="black" stroke-width="2" data-cap="butt" fill="none"></path> <path d="M29 29H19V35H29V29Z" stroke="black" stroke-width="2" stroke-linecap="square" fill="none"></path> </svg>