<svg xmlns="http://www.w3.org/2000/svg" xmlns:xlink="http://www.w3.org/1999/xlink" x="0px" y="0px" width="20px" height="20px" viewBox="0 0 20 20"><path d="m4.3417,7.9999c.2888-.8189.7607-1.5876,1.4157-2.2426s1.4237-1.1269,2.2426-1.4157" fill="none" stroke="#000" stroke-linecap="round" stroke-linejoin="round" stroke-width="2" data-color="color-2"></path><path d="m12.0001,4.3417c.8189.2888,1.5876.7607,2.2426,1.4157s1.1269,1.4237,1.4157,2.2426" fill="none" stroke="#000" stroke-linecap="round" stroke-linejoin="round" stroke-width="2" data-color="color-2"></path><path d="m15.6583,12.0001c-.2888.8189-.7607,1.5876-1.4157,2.2426s-1.4237,1.1269-2.2426,1.4157" fill="none" stroke="#000" stroke-linecap="round" stroke-linejoin="round" stroke-width="2" data-color="color-2"></path><path d="m7.9999,15.6583c-.8189-.2888-1.5876-.7607-2.2426-1.4157s-1.1269-1.4237-1.4157-2.2426" fill="none" stroke="#000" stroke-linecap="round" stroke-linejoin="round" stroke-width="2" data-color="color-2"></path><rect x="8" y="2.5" width="4" height="4" rx="1" ry="1" fill="none" stroke="#000" stroke-linecap="round" stroke-linejoin="round" stroke-width="2"></rect><rect x="13.5" y="8" width="4" height="4" rx="1" ry="1" fill="none" stroke="#000" stroke-linecap="round" stroke-linejoin="round" stroke-width="2"></rect><rect x="8" y="13.5" width="4" height="4" rx="1" ry="1" fill="none" stroke="#000" stroke-linecap="round" stroke-linejoin="round" stroke-width="2"></rect><rect x="2.5" y="8" width="4" height="4" rx="1" ry="1" fill="none" stroke="#000" stroke-linecap="round" stroke-linejoin="round" stroke-width="2"></rect></svg>