<svg xmlns="http://www.w3.org/2000/svg" xmlns:xlink="http://www.w3.org/1999/xlink" x="0px" y="0px" width="20px" height="20px" viewBox="0 0 20 20"><path d="m7,18h6c2.206,0,4-1.794,4-4V6c0-2.206-1.794-4-4-4h-6c-2.206,0-4,1.794-4,4v8c0,2.206,1.794,4,4,4Zm0-8c-.552,0-1-.447-1-1v-3c0-.553.448-1,1-1h3c.552,0,1,.447,1,1,0,.553-.448,1-1,1h-2s0,2,0,2c0,.553-.448,1-1,1Zm3,5c-.552,0-1-.447-1-1s.448-1,1-1h2s0-2,0-2c0-.553.448-1,1-1s1,.447,1,1v3c0,.553-.448,1-1,1h-3Z" stroke-width="0" fill="#000"></path></svg>