<svg xmlns="http://www.w3.org/2000/svg" xmlns:xlink="http://www.w3.org/1999/xlink" x="0px" y="0px" width="20px" height="20px" viewBox="0 0 20 20"><circle cx="10" cy="4" r="1" fill="#000" stroke-width="0" data-color="color-2"></circle><circle cx="10" cy="8" r="1" fill="#000" stroke-width="0" data-color="color-2"></circle><circle cx="10" cy="12" r="1" fill="#000" stroke-width="0" data-color="color-2"></circle><circle cx="10" cy="16" r="1" fill="#000" stroke-width="0" data-color="color-2"></circle><path d="m3,12v-4c0-.412.4704-.6472.8-.4l2.6667,2c.2667.2.2667.6,0,.8l-2.6667,2c-.3296.2472-.8.012-.8-.4Z" stroke="#000" stroke-linecap="round" stroke-linejoin="round" stroke-width="2" fill="#000"></path><path d="m17,12v-4c0-.412-.4704-.6472-.8-.4l-2.6667,2c-.2667.2-.2667.6,0,.8l2.6667,2c.3296.2472.8.012.8-.4Z" stroke="#000" stroke-linecap="round" stroke-linejoin="round" stroke-width="2" fill="#000"></path></svg>