<svg xmlns="http://www.w3.org/2000/svg" xmlns:xlink="http://www.w3.org/1999/xlink" x="0px" y="0px" width="20px" height="20px" viewBox="0 0 20 20"><path d="m7,16h-1c-1.1046,0-2-.8954-2-2v-2c0-1.1046-.8954-2-2-2h0,0c1.1046,0,2-.8954,2-2v-2c0-1.1046.8954-2,2-2h1" fill="none" stroke="#000" stroke-linecap="round" stroke-linejoin="round" stroke-width="2"></path><path d="m13,16h1c1.1046,0,2-.8954,2-2v-2c0-1.1046.8954-2,2-2h0,0c-1.1046,0-2-.8954-2-2v-2c0-1.1046-.8954-2-2-2h-1" fill="none" stroke="#000" stroke-linecap="round" stroke-linejoin="round" stroke-width="2"></path><circle cx="10" cy="13" r="1" fill="#000" stroke-width="0" data-color="color-2"></circle><circle cx="13" cy="13" r="1" fill="#000" stroke-width="0" data-color="color-2"></circle><circle cx="7" cy="13" r="1" fill="#000" stroke-width="0" data-color="color-2"></circle></svg>