<svg xmlns="http://www.w3.org/2000/svg" xmlns:xlink="http://www.w3.org/1999/xlink" x="0px" y="0px" width="20px" height="20px" viewBox="0 0 20 20"><line x1="14" y1="16" x2="15" y2="16" fill="none" stroke="#000" stroke-linecap="round" stroke-linejoin="round" stroke-width="2"></line><path d="m4,14V5c0-1.1046.8954-2,2-2h8c1.1046,0,2,.8954,2,2v7H6c-1.1046,0-2,.8954-2,2h0c0,1.1046.8954,2,2,2h4" fill="none" stroke="#000" stroke-linecap="round" stroke-linejoin="round" stroke-width="2"></path><path d="m11.25,14h-3.5c-.4141,0-.75.3359-.75.75v4.5c0,.3203.2031.6055.5068.709.3037.1025.6387.0039.835-.248l1.1582-1.4893,1.1582,1.4893c.1445.1855.3652.2891.5918.2891.0811,0,.1631-.0137.2432-.041.3037-.1035.5068-.3887.5068-.709v-4.5c0-.4141-.3359-.75-.75-.75Z" fill="#000" stroke-width="0" data-color="color-2"></path><circle cx="8" cy="6" r="1" fill="#000" stroke-width="0" data-color="color-2"></circle><circle cx="8" cy="9" r="1" fill="#000" stroke-width="0" data-color="color-2"></circle></svg>