<svg xmlns="http://www.w3.org/2000/svg" xmlns:xlink="http://www.w3.org/1999/xlink" x="0px" y="0px" width="20px" height="20px" viewBox="0 0 20 20"><circle cx="10" cy="10" r="1" stroke-width="0" fill="#000"></circle><path d="m10.8754,13.3762c1.5068-.3905,2.6246-1.7473,2.6246-3.3762,0-1.933-1.567-3.5-3.5-3.5-1.6288,0-2.9857,1.1179-3.3762,2.6246" fill="none" stroke="#000" stroke-linecap="round" stroke-linejoin="round" stroke-width="2" data-color="color-2"></path><circle cx="7.5" cy="12.5" r="1" fill="#000" stroke-width="0" data-color="color-2"></circle><path d="m11.9677,3.2854c-.6248-.1828-1.2839-.2854-1.9677-.2854-3.866,0-7,3.134-7,7s3.134,7,7,7,7-3.134,7-7c0-.6838-.1026-1.343-.2854-1.9677" fill="none" stroke="#000" stroke-linecap="round" stroke-linejoin="round" stroke-width="2"></path><circle cx="15" cy="5" r="1" stroke-width="0" fill="#000"></circle></svg>