<svg xmlns="http://www.w3.org/2000/svg" xmlns:xlink="http://www.w3.org/1999/xlink" x="0px" y="0px" width="20px" height="20px" viewBox="0 0 20 20"><rect x="1.5147" y="8.2322" width="16.9706" height="3.5355" rx="1.5" ry="1.5" transform="translate(-4.1421 10) rotate(-45)" fill="none" stroke="#000" stroke-linecap="round" stroke-linejoin="round" stroke-width="2"></rect><path d="m6.6526,4.9646l-1.2005-.4503-.4506-1.2005c-.1562-.4185-.8468-.4185-1.0031,0l-.4506,1.2005-1.2005.4503c-.2086.0785-.3474.2783-.3474.5015s.1388.4231.3474.5015l1.2005.4503.4506,1.2005c.0781.2093.2783.3477.5015.3477s.4234-.1385.5015-.3477l.4506-1.2005,1.2005-.4503c.2086-.0785.3474-.2783.3474-.5015s-.1388-.4231-.3474-.5015Z" fill="#000" stroke-width="0" data-color="color-2"></path><path d="m17.5822,14.3629l-1.4438-.5415-.542-1.4438c-.1879-.5034-1.0185-.5034-1.2064,0l-.542,1.4438-1.4438.5415c-.2508.0944-.4178.3347-.4178.6032s.167.5088.4178.6032l1.4438.5415.542,1.4438c.094.2517.3347.4182.6032.4182s.5092-.1665.6032-.4182l.542-1.4438,1.4438-.5415c.2508-.0944.4178-.3347.4178-.6032s-.167-.5088-.4178-.6032Z" fill="#000" stroke-width="0" data-color="color-2"></path><circle cx="9" cy="3" r="1" fill="#000" stroke-width="0" data-color="color-2"></circle><path d="m11.75,5.75l-7.9393,7.9393c-.5858.5858-.5858,1.5355,0,2.1213l.3787.3787c.5858.5858,1.5355.5858,2.1213,0l7.9393-7.9393-2.5-2.5Z" stroke-width="0" fill="#000"></path></svg>