<svg xmlns="http://www.w3.org/2000/svg" xmlns:xlink="http://www.w3.org/1999/xlink" x="0px" y="0px" width="20px" height="20px" viewBox="0 0 20 20"><path d="m14,2.5c1.1046,0,2,.8954,2,2v1" fill="none" stroke="#000" stroke-linecap="round" stroke-linejoin="round" stroke-width="2" data-color="color-2"></path><path d="m6,17.5c-1.1046,0-2-.8954-2-2v-1" fill="none" stroke="#000" stroke-linecap="round" stroke-linejoin="round" stroke-width="2" data-color="color-2"></path><polygon points="17.75 5.5 16 7.5 14.25 5.5 17.75 5.5" fill="#000" stroke="#000" stroke-linecap="round" stroke-linejoin="round" stroke-width="2" data-color="color-2"></polygon><polygon points="2.25 14.5 4 12.5 5.75 14.5 2.25 14.5" fill="#000" stroke="#000" stroke-linecap="round" stroke-linejoin="round" stroke-width="2" data-color="color-2"></polygon><path d="m11,6.5v-2c0-.8284-.6716-1.5-1.5-1.5h-4c-.8284,0-1.5.6716-1.5,1.5v4c0,.8284.6716,1.5,1.5,1.5h.2553" fill="none" stroke="#000" stroke-linecap="round" stroke-linejoin="round" stroke-width="2"></path><rect x="9" y="10" width="7" height="7" rx="1.5" ry="1.5" stroke="#000" stroke-linecap="round" stroke-linejoin="round" stroke-width="2" fill="#000"></rect></svg>