<svg xmlns="http://www.w3.org/2000/svg" xmlns:xlink="http://www.w3.org/1999/xlink" x="0px" y="0px" width="20px" height="20px" viewBox="0 0 20 20"><path d="m8.5,3h2c.276,0,.5.224.5.5v2.5h-3v-2.5c0-.276.224-.5.5-.5Z" fill="#000" stroke="#000" stroke-linecap="round" stroke-linejoin="round" stroke-width="2" data-color="color-2"></path><path d="m9.5,6h1.5s3,0,3,4v6c0,.5523-.4477,1-1,1h-3.5s-3.5,0-3.5,0c-.5523,0-1-.4477-1-1v-6c0-4,3-4,3-4h1.5Z" fill="none" stroke="#000" stroke-linecap="round" stroke-linejoin="round" stroke-width="2"></path><rect x="10" y="10" width="4" height="3" stroke="#000" stroke-linecap="round" stroke-linejoin="round" stroke-width="2" fill="#000"></rect><circle cx="15" cy="4" r="1" fill="#000" stroke-width="0" data-color="color-2"></circle><circle cx="18" cy="2" r="1" fill="#000" stroke-width="0" data-color="color-2"></circle><circle cx="18" cy="6" r="1" fill="#000" stroke-width="0" data-color="color-2"></circle></svg>