<svg xmlns="http://www.w3.org/2000/svg" xmlns:xlink="http://www.w3.org/1999/xlink" x="0px" y="0px" width="20px" height="20px" viewBox="0 0 20 20"><path d="m4.217,5.77l7,1.556c.458.102.783.507.783.976v7.951c0,.64-.592,1.115-1.217.976l-7-1.556c-.458-.102-.783-.507-.783-.976v-7.951c0-.64.592-1.115,1.217-.976Z" stroke="#000" stroke-linecap="round" stroke-linejoin="round" stroke-width="2" fill="#000"></path><path d="m15,14.056l.783.174c.625.139,1.217-.336,1.217-.976v-7.951c0-.469-.326-.875-.783-.976l-7-1.556c-.556-.123-1.084.24-1.193.773" fill="none" stroke="#000" stroke-linecap="round" stroke-linejoin="round" stroke-width="2" data-color="color-2"></path></svg>