<svg xmlns="http://www.w3.org/2000/svg" xmlns:xlink="http://www.w3.org/1999/xlink" x="0px" y="0px" width="20px" height="20px" viewBox="0 0 20 20"><circle cx="16" cy="10" r="1" fill="#000" stroke-width="0" data-color="color-2"></circle><circle cx="12" cy="10" r="1" fill="#000" stroke-width="0" data-color="color-2"></circle><circle cx="8" cy="10" r="1" fill="#000" stroke-width="0" data-color="color-2"></circle><circle cx="4" cy="10" r="1" fill="#000" stroke-width="0" data-color="color-2"></circle><path d="m8,3h4c.412,0,.6472.4704.4.8l-2,2.6667c-.2.2667-.6.2667-.8,0l-2-2.6667c-.2472-.3296-.012-.8.4-.8Z" stroke="#000" stroke-linecap="round" stroke-linejoin="round" stroke-width="2" fill="#000"></path><path d="m8,17h4c.412,0,.6472-.4704.4-.8l-2-2.6667c-.2-.2667-.6-.2667-.8,0l-2,2.6667c-.2472.3296-.012.8.4.8Z" stroke="#000" stroke-linecap="round" stroke-linejoin="round" stroke-width="2" fill="#000"></path></svg>