<svg xmlns="http://www.w3.org/2000/svg" xmlns:xlink="http://www.w3.org/1999/xlink" x="0px" y="0px" width="20px" height="20px" viewBox="0 0 20 20"><ellipse cx="10" cy="5.5" rx="7" ry="2.5" fill="none" stroke="#000" stroke-linecap="round" stroke-linejoin="round" stroke-width="2"></ellipse><path d="m17.7734,4.8662c-.1904-.2319-.4736-.3662-.7734-.3662h-.5864c.3751.3064.5864.6442.5864,1,0,1.3807-3.134,2.5-7,2.5s-7-1.1193-7-2.5c0-.3558.2112-.6936.5864-1h-.5864c-.2998,0-.583.1343-.7734.3662-.1895.2314-.2656.5361-.207.8301l2,10c.002.0096.0082.0172.0104.0267.311,2.1579,5.0013,2.277,5.9701,2.277s5.6591-.1191,5.9701-2.277c.0022-.0095.0084-.017.0104-.0267l2-10c.0586-.2939-.0176-.5986-.207-.8301Z" stroke-width="0" fill="#000"></path></svg>