<svg xmlns="http://www.w3.org/2000/svg" xmlns:xlink="http://www.w3.org/1999/xlink" x="0px" y="0px" width="20px" height="20px" viewBox="0 0 20 20"><path d="m12.6443,6.8018l3.8744-.9954-.4136-1.6678c-.2009-.8036-1.0152-1.2922-1.8188-1.0914l-.9703.2425c-.8038.2008-1.2925,1.0153-1.0916,1.819l.4199,1.6932Z" fill="#000" stroke-width="0" data-color="color-2"></path><path d="m7.3557,6.8018l.4199-1.6932c.2009-.8038-.2878-1.6182-1.0916-1.819l-.9703-.2425c-.8036-.2008-1.618.2878-1.8188,1.0914l-.4136,1.6678,3.8744.9954Z" fill="#000" stroke-width="0" data-color="color-2"></path><path d="m17.0002,7.7481l-3.8744.9954.1973.7955c.2292.9168.1575,1.9102-.3192,2.7262-.6385,1.0934-1.769,1.7349-3.004,1.7349s-2.3654-.6415-3.004-1.7349c-.4766-.816-.5483-1.8094-.3192-2.7262l.1973-.7955-3.8744-.9954-.1896.7648c-.4894,1.9578-.283,4.0637.7476,5.7988,1.3817,2.3262,3.8011,3.6884,6.4423,3.6884s5.0607-1.3622,6.4423-3.6884c1.0306-1.735,1.237-3.841.7476-5.7988l-.1896-.7648Z" stroke-width="0" fill="#000"></path></svg>