<svg xmlns="http://www.w3.org/2000/svg" xmlns:xlink="http://www.w3.org/1999/xlink" x="0px" y="0px" width="20px" height="20px" viewBox="0 0 20 20"><line x1="14" y1="3" x2="6" y2="3" fill="none" stroke="#000" stroke-linecap="round" stroke-linejoin="round" stroke-width="2" data-color="color-2"></line><line x1="14" y1="17" x2="6" y2="17" fill="none" stroke="#000" stroke-linecap="round" stroke-linejoin="round" stroke-width="2" data-color="color-2"></line><path d="m15,6H5c-1.654,0-3,1.346-3,3v2c0,1.654,1.346,3,3,3h10c1.654,0,3-1.346,3-3v-2c0-1.654-1.346-3-3-3Zm-1,5H6c-.553,0-1-.448-1-1s.447-1,1-1h8c.553,0,1,.448,1,1s-.447,1-1,1Z" stroke-width="0" fill="#000"></path></svg>