<svg xmlns="http://www.w3.org/2000/svg" xmlns:xlink="http://www.w3.org/1999/xlink" x="0px" y="0px" width="20px" height="20px" viewBox="0 0 20 20"><path d="m8.2344,17.0225c-.2761-.3066-.4768-.6551-.6039-1.0225h-3.6304c-.5522,0-1,.4478-1,1s.4478,1,1,1h5.114l-.8796-.9775Z" stroke-width="0" fill="#000"></path><path d="m12.25,18c-.2832,0-.5532-.1201-.7432-.3311l-1.7861-1.9844c-.3696-.4106-.3364-1.0425.0742-1.4121.4102-.3696,1.043-.3359,1.4121.0742l.9941,1.104,4.0146-5.0713c.3428-.4341.9731-.5063,1.4048-.1636.4331.3428.5063.9717.1636,1.4048l-4.75,6c-.1831.231-.458.3696-.7524.3789-.0107.0005-.0215.0005-.0317.0005Z" fill="#000" stroke-width="0" data-color="color-2"></path><path d="m11.805,10l.4909-4.9097c.0791-.7886-.1807-1.5776-.7119-2.1655-1.0635-1.1758-3.1045-1.1758-4.168,0-.5312.5879-.791,1.377-.7119,2.165l.4909,4.9102h-3.218c-.6646,0-1.2837.3286-1.6562.8784-.3726.5503-.4478,1.2471-.2007,1.8647l.4517,1.1284c.1519.3794.5195.6284.9282.6284h4.0229c.1111-.6386.416-1.2476.9341-1.7139.5508-.4966,1.2637-.7705,2.0063-.7705.5547,0,1.0942.1548,1.5601.4375l1.9422-2.4531h-2.1606Z" stroke-width="0" fill="#000"></path></svg>