<svg xmlns="http://www.w3.org/2000/svg" xmlns:xlink="http://www.w3.org/1999/xlink" x="0px" y="0px" width="20px" height="20px" viewBox="0 0 20 20"><path d="m7.2495,17.75c-.1128,0-.2275-.0254-.335-.0791-.3706-.1855-.5205-.6357-.3354-1.0063.5181-1.0361.7437-2.0781.8418-2.7695.0586-.4102.4429-.6899.8477-.6377.4102.0581.6958.438.6377.8477-.1138.8022-.377,2.0142-.9854,3.2305-.1313.2627-.3965.4146-.6714.4146Z" fill="#000" stroke-width="0" data-color="color-2"></path><path d="m10.7495,17.75c-.1128,0-.2275-.0254-.335-.0791-.3706-.1855-.5205-.6357-.3354-1.0063.5181-1.0361.7437-2.0781.8418-2.7695.0586-.4102.4395-.6899.8477-.6377.4102.0581.6958.438.6377.8477-.1138.8022-.377,2.0142-.9854,3.2305-.1313.2627-.3965.4146-.6714.4146Z" fill="#000" stroke-width="0" data-color="color-2"></path><line x1="10" y1="3" x2="10" y2="10" fill="none" stroke="#000" stroke-linecap="round" stroke-linejoin="round" stroke-width="2"></line><path d="m8,10h4c1.6569,0,3,1.3431,3,3,0,0,0,2-1,4H4c1-2,1-4,1-4,0-1.6569,1.3431-3,3-3Z" fill="none" stroke="#000" stroke-linecap="round" stroke-linejoin="round" stroke-width="2"></path></svg>