<svg xmlns="http://www.w3.org/2000/svg" xmlns:xlink="http://www.w3.org/1999/xlink" x="0px" y="0px" width="20px" height="20px" viewBox="0 0 20 20"><polygon points="10 4 4.25 13 15.75 13 10 4" fill="none" stroke="#000" stroke-linecap="round" stroke-linejoin="round" stroke-width="2" data-color="color-2"></polygon><path d="m8.9923,3.3378l-4,2.3333c-.6144.3584-.9923,1.0162-.9923,1.7276v5.2025c0,.7113.3778,1.3691.9923,1.7276l4,2.3333c.6227.3633,1.3928.3633,2.0155,0l4-2.3333c.6144-.3584.9923-1.0162.9923-1.7276v-5.2025c0-.7113-.3778-1.3691-.9923-1.7276l-4-2.3333c-.6227-.3633-1.3928-.3633-2.0155,0Z" fill="none" stroke="#000" stroke-linecap="round" stroke-linejoin="round" stroke-width="2"></path></svg>