<svg xmlns="http://www.w3.org/2000/svg" xmlns:xlink="http://www.w3.org/1999/xlink" x="0px" y="0px" width="18px" height="18px" viewBox="0 0 18 18"><path d="M7.398,13.37c.125,.086,.273,.13,.422,.13,.063,0,.126-.008,.188-.024,.113-.029,2.789-.74,4.028-2.559l4.037-5.921c.369-.541,.505-1.193,.383-1.836-.122-.643-.487-1.201-1.028-1.569-.541-.369-1.195-.503-1.836-.383-.644,.122-1.201,.487-1.57,1.028l-4.037,5.921c-1.24,1.818-.924,4.567-.91,4.684,.026,.215,.144,.408,.322,.53Z" fill="#000"></path><path d="M2.25,13.5h2.5c.414,0,.75-.336,.75-.75s-.336-.75-.75-.75H2.25c-.414,0-.75,.336-.75,.75s.336,.75,.75,.75Z" fill="#000" data-color="color-2"></path><path d="M15.75,15.5H2.25c-.414,0-.75,.336-.75,.75s.336,.75,.75,.75H15.75c.414,0,.75-.336,.75-.75s-.336-.75-.75-.75Z" fill="#000" data-color="color-2"></path></svg>