<svg xmlns="http://www.w3.org/2000/svg" xmlns:xlink="http://www.w3.org/1999/xlink" x="0px" y="0px" width="18px" height="18px" viewBox="0 0 18 18"><path d="M4.664,8.336c-.192,0-.384-.073-.53-.22-.293-.293-.293-.768,0-1.061l2.922-2.922c.293-.293,.768-.293,1.061,0s.293,.768,0,1.061l-2.922,2.922c-.146,.146-.338,.22-.53,.22Z" fill="#000" data-color="color-2"></path><path d="M13.336,8.336c-.192,0-.384-.073-.53-.22l-2.922-2.922c-.293-.293-.293-.768,0-1.061s.768-.293,1.061,0l2.922,2.922c.293,.293,.293,.768,0,1.061-.146,.146-.338,.22-.53,.22Z" fill="#000" data-color="color-2"></path><path d="M10.414,14.086c-.192,0-.384-.073-.53-.22-.293-.293-.293-.768,0-1.061l2.922-2.922c.293-.293,.768-.293,1.061,0s.293,.768,0,1.061l-2.922,2.922c-.146,.146-.338,.22-.53,.22Z" fill="#000" data-color="color-2"></path><path d="M7.586,14.086c-.192,0-.384-.073-.53-.22l-2.922-2.922c-.293-.293-.293-.768,0-1.061s.768-.293,1.061,0l2.922,2.922c.293,.293,.293,.768,0,1.061-.146,.146-.338,.22-.53,.22Z" fill="#000" data-color="color-2"></path><circle cx="9" cy="3.25" r="2.75" fill="#000"></circle><circle cx="9" cy="14.75" r="2.75" fill="#000"></circle><circle cx="14.75" cy="9" r="2.75" fill="#000"></circle><circle cx="3.25" cy="9" r="2.75" fill="#000"></circle></svg>