<svg xmlns="http://www.w3.org/2000/svg" xmlns:xlink="http://www.w3.org/1999/xlink" x="0px" y="0px" width="18px" height="18px" viewBox="0 0 18 18"><path d="M8.25,3.5H1.75c-.414,0-.75-.336-.75-.75s.336-.75,.75-.75h6.5c.414,0,.75,.336,.75,.75s-.336,.75-.75,.75Z" fill="#000" data-color="color-2"></path><path d="M4.25,7H1.75c-.414,0-.75-.336-.75-.75s.336-.75,.75-.75h2.5c.414,0,.75,.336,.75,.75s-.336,.75-.75,.75Z" fill="#000" data-color="color-2"></path><path d="M12.414,2.848l-7.809,7.809c-.863,.864-1.401,3.406-1.593,4.459-.044,.242,.034,.491,.208,.665,.142,.142,.333,.22,.53,.22,.044,0,.089-.004,.134-.012,1.053-.191,3.595-.729,4.459-1.593l7.809-7.809c1.03-1.031,1.03-2.707,0-3.738-.998-.998-2.739-.998-3.738,0Z" fill="#000"></path></svg>