<svg xmlns="http://www.w3.org/2000/svg" xmlns:xlink="http://www.w3.org/1999/xlink" x="0px" y="0px" width="24px" height="24px" viewBox="0 0 24 24"> <path d="M13 24V22H11V24H13Z" fill="black"></path> <path d="M13 0V2H11V0H13Z" fill="black"></path> <path d="M12 1.5C15.0376 1.5 17.5 3.96243 17.5 7H6.5C6.5 3.96243 8.96243 1.5 12 1.5Z" fill="black"></path> <path d="M12 22.5C15.0376 22.5 17.5 20.0376 17.5 17H6.5C6.5 20.0376 8.96243 22.5 12 22.5Z" fill="black"></path> <path d="M14.707 7.70703L8.70703 13.707L7.29297 12.293L13.293 6.29297L14.707 7.70703Z" fill="#000" data-color="color-2"></path> <path d="M16.707 11.707L10.707 17.707L9.29297 16.293L15.293 10.293L16.707 11.707Z" fill="#000" data-color="color-2"></path> <path d="M7 6H9V18H7V6Z" fill="black"></path> <path d="M15 6H17V18H15V6Z" fill="black"></path> <path d="M19 6V8H5V6H19Z" fill="black"></path> <path d="M19 18V16H5V18H19Z" fill="black"></path> </svg>