<svg xmlns="http://www.w3.org/2000/svg" xmlns:xlink="http://www.w3.org/1999/xlink" x="0px" y="0px" width="24px" height="24px" viewBox="0 0 24 24"> <path d="M10 2V4H3V2H10Z" fill="#000" data-color="color-2"></path> <path d="M10 6V8H3V6H10Z" fill="#000" data-color="color-2"></path> <path d="M5.5 0H7.5V12H5.5V0Z" fill="#000" data-color="color-2"></path> <path d="M22 17H13V7H22V17Z" fill="black"></path> <path d="M22 20C22 21.1046 21.1046 22 20 22H15C13.8954 22 13 21.1046 13 20V19H22V20Z" fill="black"></path> <path d="M11 20C11 21.1046 10.1046 22 9 22H4C2.89544 22 2 21.1046 2 20V14H11V20Z" fill="black"></path> </svg>