<svg xmlns="http://www.w3.org/2000/svg" xmlns:xlink="http://www.w3.org/1999/xlink" x="0px" y="0px" width="32px" height="32px" viewBox="0 0 32 32"> <path d="M22.6284 19.4212L24.5407 20.007L22.1291 27.8788C21.743 29.1393 20.5791 30 19.2607 30L17.7034 30C15.687 30 14.2447 28.0504 14.8347 26.1222L16.9505 19.2074L22.6284 19.4212Z" fill="#000" data-color="color-2"></path> <path fill-rule="evenodd" clip-rule="evenodd" d="M16.2954 3.63885C18.2834 3.06794 19.9621 3 21.4286 3C26.6486 3 31 6.96557 31 12C31 17.0344 26.6486 21 21.4286 21C19.9621 21 18.2834 20.9321 16.2954 20.3611C14.4576 19.8334 12.3968 18.8883 10 17.2262V6.77378C12.3968 5.1117 14.4576 4.16663 16.2954 3.63885ZM25 12C25 13.6569 23.6569 15 22 15C20.3431 15 19 13.6569 19 12C19 10.3431 20.3431 9 22 9C23.6569 9 25 10.3431 25 12Z" fill="black"></path> <path d="M8.00003 7.10582L4.04729 5.55725C3.06345 5.17181 2.00012 5.89725 2.00012 6.95389V17.0525C2.00012 18.1091 3.06345 18.8345 4.04729 18.4491L8.00003 16.9005V7.10582Z" fill="#000" data-color="color-2"></path> </svg>