<svg xmlns="http://www.w3.org/2000/svg" xmlns:xlink="http://www.w3.org/1999/xlink" x="0px" y="0px" width="32px" height="32px" viewBox="0 0 32 32"> <path d="M16 -3.0598e-07C19.866 -3.97054e-07 23 3.13401 23 7L23 9L21 9L21 7C21 4.23858 18.7615 2 16 2C13.2386 2 11 4.23858 11 7L11 9L9.00003 9L9.00003 7C9.00003 3.13401 12.134 9.55412e-07 16 -3.0598e-07Z" fill="#000" data-color="color-2"></path> <path fill-rule="evenodd" clip-rule="evenodd" d="M9 15H11V9H21V15H23V9H30V23C30 26.866 26.866 30 23 30H9C5.13401 30 2 26.866 2 23V9H9V15ZM10 19V25H22V19H10Z" fill="black"></path> </svg>