<svg xmlns="http://www.w3.org/2000/svg" xmlns:xlink="http://www.w3.org/1999/xlink" x="0px" y="0px" width="32px" height="32px" viewBox="0 0 32 32"> <path fill-rule="evenodd" clip-rule="evenodd" d="M25 13H26.5C27.6046 13 28.5 13.8954 28.5 15V17C28.5 18.1046 27.6046 19 26.5 19H25V17H26.5V15H25V13Z" fill="#000" data-color="color-2"></path> <path d="M23.054 2H8.9458L9.61247 0H22.3873L23.054 2Z" fill="#000" data-color="color-2"></path> <path d="M23.054 30H8.9458L9.61247 32H22.3873L23.054 30Z" fill="#000" data-color="color-2"></path> <path fill-rule="evenodd" clip-rule="evenodd" d="M5 8C5 5.79086 6.79086 4 9 4H23C25.2091 4 27 5.79086 27 8V24C27 26.2091 25.2091 28 23 28H9C6.79086 28 5 26.2091 5 24V8ZM17 10H15V17H23V15H17V10Z" fill="black"></path> </svg>