<svg xmlns="http://www.w3.org/2000/svg" xmlns:xlink="http://www.w3.org/1999/xlink" x="0px" y="0px" width="48px" height="48px" viewBox="0 0 48 48"> <path d="M43.3955 35.9795L35.9795 43.3955L30.7744 34.6387L34.6387 30.7744L43.3955 35.9795Z" fill="#000" data-color="color-2"></path> <path d="M29.1504 16L29.5254 16.3535L16.3535 29.5254L16 29.1494V18.8496L18.8496 16H29.1504Z" fill="black"></path> <path d="M27.499 13H20.501L15.1504 4H32.8496L27.499 13Z" fill="black"></path> <path d="M32.8496 44H15.1504L20.501 35H27.499L32.8496 44Z" fill="black"></path> <path d="M32 18.8496V29.1494L29.1504 32H18.8496L18.4746 31.6465L31.6465 18.4746L32 18.8496Z" fill="#000" data-color="color-2"></path> <path d="M13 20.5V27.499L4 32.8496V15.1494L13 20.5Z" fill="black"></path> <path d="M44 32.8496L35 27.499V20.5L44 15.1494V32.8496Z" fill="black"></path> <path d="M17.2246 13.3604L13.3604 17.2246L4.60352 12.0195L12.0195 4.60352L17.2246 13.3604Z" fill="#000" data-color="color-2"></path> <path d="M17.2246 34.6387L12.0195 43.3955L4.60352 35.9795L13.3604 30.7744L17.2246 34.6387Z" fill="#000" data-color="color-2"></path> <path d="M43.3955 12.0195L34.6387 17.2246L30.7744 13.3604L35.9795 4.60352L43.3955 12.0195Z" fill="#000" data-color="color-2"></path> </svg>