<svg xmlns="http://www.w3.org/2000/svg" xmlns:xlink="http://www.w3.org/1999/xlink" x="0px" y="0px" width="48px" height="48px" viewBox="0 0 48 48"> <path fill-rule="evenodd" clip-rule="evenodd" d="M24 46C31.732 46 38 39.732 38 32L38 14L10 14L10 32C10 39.732 16.268 46 24 46ZM35 24H13V21H35V24ZM27 37C27 38.6569 25.6569 40 24 40C22.3431 40 21 38.6569 21 37C21 35.3431 22.3431 34 24 34C25.6569 34 27 35.3431 27 37Z" fill="black"></path> <path fill-rule="evenodd" clip-rule="evenodd" d="M15.2047 2H13.2953L10.081 11H37.919L34.7047 2H32.7953L30.5 8.42678L28.2047 2H26.2953L24 8.42679L21.7047 2H19.7953L17.5 8.42679L15.2047 2Z" fill="#000" data-color="color-2"></path> </svg>