<svg xmlns="http://www.w3.org/2000/svg" xmlns:xlink="http://www.w3.org/1999/xlink" x="0px" y="0px" width="48px" height="48px" viewBox="0 0 48 48"> <path d="M22.5 15H25.5V9H40V16H37C34.7909 16 33 14.2091 33 12H30C30 15.866 33.134 19 37 19H40V39H28.3789L25.6387 20H22.3613L19.6211 39H8V19H11C14.866 19 18 15.866 18 12H15C15 14.2091 13.2091 16 11 16H8V9H22.5V15Z" fill="black"></path> <path d="M18.6113 46H8V42H19.1885L18.6113 46Z" fill="#000" data-color="color-2"></path> <path d="M40 46H29.3887L28.8115 42H40V46Z" fill="#000" data-color="color-2"></path> <path d="M17 6H8V2H17V6Z" fill="black"></path> <path d="M28 6H20V2H28V6Z" fill="#000" data-color="color-2"></path> <path d="M40 6H31V2H40V6Z" fill="black"></path> </svg>