<svg xmlns="http://www.w3.org/2000/svg" xmlns:xlink="http://www.w3.org/1999/xlink" x="0px" y="0px" width="48px" height="48px" viewBox="0 0 48 48"> <path d="M24 1C29.5228 1 34 5.47715 34 11L34 14L31 14L31 11C31 7.13401 27.866 4 24 4C20.134 4 17 7.13401 17 11L17 14L14 14L14 11C14 5.47715 18.4772 1 24 1Z" fill="#000" data-color="color-2"></path> <path fill-rule="evenodd" clip-rule="evenodd" d="M44 35C44 39.9706 39.9706 44 35 44H13C8.02944 44 4 39.9706 4 35V14H14V24H17V14H31V24H34V14H44V35ZM33 36V29H15V36H33Z" fill="black"></path> </svg>