<svg xmlns="http://www.w3.org/2000/svg" xmlns:xlink="http://www.w3.org/1999/xlink" x="0px" y="0px" width="20px" height="20px" viewBox="0 0 20 20"><path d="m12.5586,4.3389c-.5986-.6226-1.2168-1.2671-1.7803-1.9663-.3789-.4707-1.1777-.4707-1.5566,0-.5635.6992-1.1816,1.3438-1.7803,1.9663-1.8447,1.9224-3.752,3.9102-3.752,7.3345,0,3.4888,2.8311,6.3267,6.3105,6.3267s6.3105-2.8379,6.3105-6.3267c0-3.4243-1.9072-5.4121-3.752-7.3345Zm-2.5586,10.6611c-1.8252,0-3.3105-1.4922-3.3105-3.3267,0-.5522.4473-1,1-1s1,.4478,1,1c0,.7314.5879,1.3267,1.3105,1.3267.5527,0,1,.4478,1,1s-.4473,1-1,1Z" stroke-width="0" fill="#000"></path></svg>