<svg xmlns="http://www.w3.org/2000/svg" xmlns:xlink="http://www.w3.org/1999/xlink" x="0px" y="0px" width="32px" height="32px" viewBox="0 0 32 32"> <path d="M10 20.4812C11.8185 20.1726 13.8528 20 16 20C18.1472 20 20.1815 20.1726 22 20.4812" stroke="#000" stroke-width="2" stroke-miterlimit="10" data-color="color-2" data-cap="butt" fill="none"></path> <path d="M2 8C2 5.23858 8.26801 3 16 3C23.732 3 30 5.23858 30 8M2 8C2 9.99457 5.27011 11.7164 10 12.5188V28.5188C5.27011 27.7164 2 25.9946 2 24V8ZM30 8C30 9.99457 26.7299 11.7164 22 12.5188V28.5188C26.7299 27.7164 30 25.9946 30 24V8Z" stroke="black" stroke-width="2" stroke-miterlimit="10" stroke-linecap="square" fill="none"></path> </svg>