<svg xmlns="http://www.w3.org/2000/svg" xmlns:xlink="http://www.w3.org/1999/xlink" x="0px" y="0px" width="48px" height="48px" viewBox="0 0 48 48"> <path d="M24 28C26.2091 28 28 26.2091 28 24C28 21.7909 26.2091 20 24 20C21.7909 20 20 21.7909 20 24C20 26.2091 21.7909 28 24 28Z" stroke="#000" stroke-width="2" stroke-miterlimit="10" stroke-linecap="square" data-color="color-2" fill="none"></path> <path d="M31.261 38.4395C29.4384 42.4798 26.8593 45 24 45C18.4772 45 14 35.598 14 24C14 12.402 18.4772 3 24 3C29.5228 3 34 12.402 34 24C34 25.2601 33.9472 26.4943 33.8459 27.6933" stroke="black" stroke-width="2" stroke-miterlimit="10" stroke-linecap="square" fill="none"></path> <path d="M9.5443 16.7463C5.51344 18.5685 3 21.1445 3 24C3 29.5228 12.402 34 24 34C35.598 34 45 29.5228 45 24C45 18.4772 35.598 14 24 14C22.7549 14 21.5351 14.0516 20.3495 14.1506" stroke="black" stroke-width="2" stroke-miterlimit="10" stroke-linecap="square" fill="none"></path> </svg>