<svg xmlns="http://www.w3.org/2000/svg" xmlns:xlink="http://www.w3.org/1999/xlink" x="0px" y="0px" width="24px" height="24px" viewBox="0 0 24 24"><path d="M0 23C0 19.7178 2.68302 17 6 17C9.31698 17 12 19.7178 12 23H0Z" fill="black"></path> <path d="M6 16C7.65685 16 9 14.6569 9 13C9 11.3431 7.65685 10 6 10C4.34315 10 3 11.3431 3 13C3 14.6569 4.34315 16 6 16Z" fill="black"></path> <path fill-rule="evenodd" clip-rule="evenodd" d="M13 0.5C11.8954 0.5 11 1.39543 11 2.5V13.635L15.362 10H22C23.1046 10 24 9.10457 24 8V2.5C24 1.39543 23.1046 0.5 22 0.5H13ZM21.4141 3.77763L19.9998 2.36347L16.8889 5.47465L15.5 4.08579L14.0858 5.5L16.8889 8.30313L21.4141 3.77763Z" fill="#000" data-color="color-2"></path></svg>