<svg xmlns="http://www.w3.org/2000/svg" xmlns:xlink="http://www.w3.org/1999/xlink" x="0px" y="0px" width="24px" height="24px" viewBox="0 0 24 24"><path d="m17.24,12.561l.609-3.656c.602-3.614-2.185-6.905-5.849-6.905s-6.452,3.29-5.849,6.905l.609,3.656c.427,2.561,2.643,4.439,5.24,4.439s4.813-1.877,5.24-4.439Z" fill="#000" stroke-width="0" data-color="color-2"></path><path d="m7.999,17.808c-.031.863-.614,1.613-1.449,1.852l-4.099,1.171c-.859.245-1.451,1.03-1.451,1.923v.246h22v-.246c0-.893-.592-1.678-1.451-1.923l-4.099-1.171c-.836-.239-1.419-.989-1.449-1.852-1.156.757-2.535,1.192-4.001,1.192s-2.845-.435-4.001-1.192Z" stroke-width="0" fill="#000"></path></svg>