<svg xmlns="http://www.w3.org/2000/svg" xmlns:xlink="http://www.w3.org/1999/xlink" x="0px" y="0px" width="24px" height="24px" viewBox="0 0 24 24"><circle cx="16.5" cy="4.5" r="3.5" fill="#000" stroke-width="0" data-color="color-2"></circle><circle cx="7.5" cy="10" r="3.5" stroke-width="0" fill="#000"></circle><path d="m16.5,9.5c-1.301,0-2.511.388-3.528,1.049-.132,1.318-.731,2.5-1.629,3.379,1.548.789,2.808,2.046,3.631,3.572h7.914l.083-.909c.018-.195.03-.392.03-.591,0-3.584-2.916-6.5-6.5-6.5Z" fill="#000" stroke-width="0" data-color="color-2"></path><path d="m7.5,15c-3.584,0-6.5,2.916-6.5,6.5,0,.2.012.396.03.591l.083.909h12.774l.083-.909c.018-.195.03-.392.03-.591,0-3.584-2.916-6.5-6.5-6.5Z" stroke-width="0" fill="#000"></path></svg>