<svg xmlns="http://www.w3.org/2000/svg" xmlns:xlink="http://www.w3.org/1999/xlink" x="0px" y="0px" width="24px" height="24px" viewBox="0 0 24 24"><polygon points="17 4 13 4 13 0 11 0 11 4 7 4 7 6 11 6 11 10 13 10 13 6 17 6 17 4" fill="#000" stroke-width="0" data-color="color-2"></polygon><path d="m5.5,17c-3.033,0-5.5,2.467-5.5,5.5v1.5h11v-1.5c0-3.033-2.467-5.5-5.5-5.5Z" stroke-width="0" fill="#000"></path><circle cx="5.5" cy="12.5" r="3" stroke-width="0" fill="#000"></circle><path d="m18.5,17c3.033,0,5.5,2.467,5.5,5.5v1.5h-11v-1.5c0-3.033,2.467-5.5,5.5-5.5Z" stroke-width="0" fill="#000"></path><circle cx="18.5" cy="12.5" r="3" stroke-width="0" fill="#000"></circle></svg>