<svg xmlns="http://www.w3.org/2000/svg" xmlns:xlink="http://www.w3.org/1999/xlink" x="0px" y="0px" width="48px" height="48px" viewBox="0 0 48 48"> <path d="M24 29C26.7614 29 29 26.7614 29 24C29 21.2386 26.7614 19 24 19C21.2386 19 19 21.2386 19 24C19 26.7614 21.2386 29 24 29Z" fill="black"></path> <path fill-rule="evenodd" clip-rule="evenodd" d="M12 41.8336C12 35.824 17.4022 31 24 31C30.5978 31 36 35.824 36 41.8336V42.564L35.2356 42.7361C27.7479 44.4213 20.2521 44.4213 12.7644 42.7361L12 42.564V41.8336Z" fill="black"></path> <path d="M24 11C26.7614 11 29 8.76142 29 6C29 3.23858 26.7614 1 24 1C21.2386 1 19 3.23858 19 6C19 8.76142 21.2386 11 24 11Z" fill="#000" data-color="color-2"></path> <path d="M39 20C41.7614 20 44 17.7614 44 15C44 12.2386 41.7614 10 39 10C36.2386 10 34 12.2386 34 15C34 17.7614 36.2386 20 39 20Z" fill="#000" data-color="color-2"></path> <path d="M9 20C11.7614 20 14 17.7614 14 15C14 12.2386 11.7614 10 9 10C6.23858 10 4 12.2386 4 15C4 17.7614 6.23858 20 9 20Z" fill="#000" data-color="color-2"></path> </svg>