<svg xmlns="http://www.w3.org/2000/svg" xmlns:xlink="http://www.w3.org/1999/xlink" x="0px" y="0px" width="48px" height="48px" viewBox="0 0 48 48"> <path fill-rule="evenodd" clip-rule="evenodd" d="M40 15L37 15L37 38.5L40 38.5L40 15Z" fill="#000" data-color="color-2"></path> <path fill-rule="evenodd" clip-rule="evenodd" d="M32.5 23.1213L38.5 17.1213L44.5 23.1213L46.6213 21L38.5 12.8787L30.3787 21L32.5 23.1213Z" fill="#000" data-color="color-2"></path> <path d="M21.498 47H12.498L10.6368 31.05L6.57462 28.9187L8.24619 18.3904C8.48788 16.8708 9.48108 15.6027 10.8622 15.0805C12.3672 14.5115 14.6338 14 17 14C18.178 14 20.5837 14.1279 23.0616 15.0528C24.4651 15.5771 25.505 16.8495 25.7487 18.3904L27.4203 28.9187L23.3582 31.05L21.498 47Z" fill="black"></path> <path fill-rule="evenodd" clip-rule="evenodd" d="M12 6C12 3.23858 14.2386 1 17 1C19.7614 1 22 3.23858 22 6C22 8.76142 19.7614 11 17 11C14.2386 11 12 8.76142 12 6Z" fill="black"></path> </svg>