<svg xmlns="http://www.w3.org/2000/svg" xmlns:xlink="http://www.w3.org/1999/xlink" x="0px" y="0px" width="24px" height="24px" viewBox="0 0 24 24"><path d="m17,10h-2v-4c0-1.654-1.346-3-3-3s-3,1.346-3,3v4h-2v-4c0-2.757,2.243-5,5-5s5,2.243,5,5v4Z" fill="#000" stroke-width="0" data-color="color-2"></path><path d="m19,9H5c-1.654,0-3,1.346-3,3v8c0,1.654,1.346,3,3,3h14c1.654,0,3-1.346,3-3v-8c0-1.654-1.346-3-3-3Zm-6,7.722v2.278h-2v-2.278c-.595-.347-1-.985-1-1.722,0-1.103.897-2,2-2s2,.897,2,2c0,.737-.405,1.375-1,1.722Z" stroke-width="0" fill="#000"></path></svg>