<svg xmlns="http://www.w3.org/2000/svg" xmlns:xlink="http://www.w3.org/1999/xlink" x="0px" y="0px" width="32px" height="32px" viewBox="0 0 32 32"> <path d="M10 26V6H14V26H10Z" fill="black"></path> <path fill-rule="evenodd" clip-rule="evenodd" d="M16 6V26H18V6H16Z" fill="black"></path> <path fill-rule="evenodd" clip-rule="evenodd" d="M6 6V26H8V6H6Z" fill="black"></path> <path fill-rule="evenodd" clip-rule="evenodd" d="M6 4C4.89543 4 4 4.89543 4 6V11H2V6C2 3.79086 3.79086 2 6 2H11V4H6Z" fill="#000" data-color="color-2"></path> <path fill-rule="evenodd" clip-rule="evenodd" d="M21 2H26C28.2091 2 30 3.79086 30 6V11H28V6C28 4.89543 27.1046 4 26 4H21V2Z" fill="#000" data-color="color-2"></path> <path fill-rule="evenodd" clip-rule="evenodd" d="M30 21V26C30 28.2091 28.2091 30 26 30H21V28H26C27.1046 28 28 27.1046 28 26V21H30Z" fill="#000" data-color="color-2"></path> <path fill-rule="evenodd" clip-rule="evenodd" d="M4 21V26C4 27.1046 4.89543 28 6 28H11V30H6C3.79086 30 2 28.2091 2 26V21H4Z" fill="#000" data-color="color-2"></path> <path d="M22 26V6H26V26H22Z" fill="black"></path> </svg>