<svg xmlns="http://www.w3.org/2000/svg" xmlns:xlink="http://www.w3.org/1999/xlink" x="0px" y="0px" width="32px" height="32px" viewBox="0 0 32 32"><path d="m29.828,15.414L15.414,1H1v14.414l14.414,14.414c.755.755,1.76,1.171,2.828,1.172,1.069,0,2.073-.417,2.829-1.172l8.757-8.757c.756-.755,1.172-1.76,1.172-2.828s-.416-2.073-1.172-2.829Zm-20.328-3.414c-1.381,0-2.5-1.119-2.5-2.5s1.119-2.5,2.5-2.5,2.5,1.119,2.5,2.5-1.119,2.5-2.5,2.5Zm8.5,11.414l-6.414-6.414,1.414-1.414,6.414,6.414-1.414,1.414Zm4-4l-6.414-6.414,1.414-1.414,6.414,6.414-1.414,1.414Z" stroke-width="0" fill="#000"></path></svg>