<svg xmlns="http://www.w3.org/2000/svg" xmlns:xlink="http://www.w3.org/1999/xlink" x="0px" y="0px" width="32px" height="32px" viewBox="0 0 32 32"><polygon points="28.879 14.293 16.586 2 4 2 4 0 17.414 0 30.293 12.879 28.879 14.293" fill="#000" stroke-width="0" data-color="color-2"></polygon><path d="m27.586,16.172L15.414,4H2v13.414l12.172,12.172c.755.755,1.76,1.171,2.828,1.171s2.073-.416,2.828-1.171l7.758-7.758c1.559-1.56,1.559-4.097,0-5.656Zm-17.086-1.172c-1.381,0-2.5-1.119-2.5-2.5s1.119-2.5,2.5-2.5,2.5,1.119,2.5,2.5-1.119,2.5-2.5,2.5Z" stroke-width="0" fill="#000"></path></svg>