<svg xmlns="http://www.w3.org/2000/svg" xmlns:xlink="http://www.w3.org/1999/xlink" x="0px" y="0px" width="32px" height="32px" viewBox="0 0 32 32"> <path fill-rule="evenodd" clip-rule="evenodd" d="M13.7293 1.77302L5.29319 13.4856L3.67032 12.3167L12.1065 0.604126L13.7293 1.77302Z" fill="black"></path> <path fill-rule="evenodd" clip-rule="evenodd" d="M19.8913 0.60376L28.1316 12.0053L26.5107 13.1768L18.2704 1.77529L19.8913 0.60376Z" fill="black"></path> <path d="M31 8H1V14H31V8Z" fill="black"></path> <path fill-rule="evenodd" clip-rule="evenodd" d="M26.5146 20.8574L21.5146 23.8574L20.4856 22.1425L25.4856 19.1425L26.5146 20.8574Z" fill="#000" data-color="color-2"></path> <path fill-rule="evenodd" clip-rule="evenodd" d="M25.4856 28.8574L20.4856 25.8574L21.5146 24.1425L26.5146 27.1425L25.4856 28.8574Z" fill="#000" data-color="color-2"></path> <path fill-rule="evenodd" clip-rule="evenodd" d="M16 24C16 22.3431 17.3431 21 19 21C20.6569 21 22 22.3431 22 24C22 25.6569 20.6569 27 19 27C17.3431 27 16 25.6569 16 24Z" fill="#000" data-color="color-2"></path> <path fill-rule="evenodd" clip-rule="evenodd" d="M25 19C25 17.3431 26.3431 16 28 16C29.6569 16 31 17.3431 31 19C31 20.6569 29.6569 22 28 22C26.3431 22 25 20.6569 25 19Z" fill="#000" data-color="color-2"></path> <path fill-rule="evenodd" clip-rule="evenodd" d="M25 29C25 27.3431 26.3431 26 28 26C29.6569 26 31 27.3431 31 29C31 30.6569 29.6569 32 28 32C26.3431 32 25 30.6569 25 29Z" fill="#000" data-color="color-2"></path> <path fill-rule="evenodd" clip-rule="evenodd" d="M23.0529 29.7302L21.0816 28.5474C20.4478 28.838 19.7428 29 19 29C16.2386 29 14 26.7614 14 24C14 21.2386 16.2386 19 19 19C19.7428 19 20.4478 19.162 21.0815 19.4525L23.053 18.2697C23.1764 17.4264 23.5103 16.6515 23.9996 16H2.91309L3.7741 26.3322C3.94687 28.4054 5.67993 30 7.76028 30H23.1C23.0819 29.9109 23.0662 29.821 23.0529 29.7302ZM10 19H12V26H10V19Z" fill="black"></path> </svg>