<svg xmlns="http://www.w3.org/2000/svg" xmlns:xlink="http://www.w3.org/1999/xlink" x="0px" y="0px" width="32px" height="32px" viewBox="0 0 32 32"> <path fill-rule="evenodd" clip-rule="evenodd" d="M2 2H13V13H2V2ZM4 4V11H11V4H4Z" fill="black"></path> <path fill-rule="evenodd" clip-rule="evenodd" d="M2 19H13V30H2V19ZM4 21V28H11V21H4Z" fill="black"></path> <path fill-rule="evenodd" clip-rule="evenodd" d="M26 19H30V23H26V19Z" fill="#000" data-color="color-2"></path> <path fill-rule="evenodd" clip-rule="evenodd" d="M15 26H19V30H15V26Z" fill="#000" data-color="color-2"></path> <path fill-rule="evenodd" clip-rule="evenodd" d="M19 2H30V13H19V2ZM21 4V11H28V4H21Z" fill="black"></path> <path fill-rule="evenodd" clip-rule="evenodd" d="M2 15H8V17H2V15Z" fill="black"></path> <path fill-rule="evenodd" clip-rule="evenodd" d="M12 15H27V17H23V22H30V24H21V17H19V21H15V19H17V17H12V15Z" fill="#000" data-color="color-2"></path> <path fill-rule="evenodd" clip-rule="evenodd" d="M17 6V11H15V6H17Z" fill="#000" data-color="color-2"></path> <path fill-rule="evenodd" clip-rule="evenodd" d="M17 24V28H22V26H24V30H15V24H17Z" fill="#000" data-color="color-2"></path> <path fill-rule="evenodd" clip-rule="evenodd" d="M28 28H30.01V30H28V28Z" fill="#000" data-color="color-2"></path> <path fill-rule="evenodd" clip-rule="evenodd" d="M23 6H26V9H23V6Z" fill="black"></path> <path fill-rule="evenodd" clip-rule="evenodd" d="M6 6H9V9H6V6Z" fill="black"></path> <path fill-rule="evenodd" clip-rule="evenodd" d="M6 23H9V26H6V23Z" fill="black"></path> </svg>