<svg xmlns="http://www.w3.org/2000/svg" xmlns:xlink="http://www.w3.org/1999/xlink" x="0px" y="0px" width="48px" height="48px" viewBox="0 0 48 48"> <path fill-rule="evenodd" clip-rule="evenodd" d="M36.5 7V12H33.5V7H36.5Z" fill="#000" data-color="color-2"></path> <path d="M24 16L24 6L19.5 7L15 6L15 16L24 16Z" fill="#000" data-color="color-2"></path> <path fill-rule="evenodd" clip-rule="evenodd" d="M31 16H36V18H31V16Z" fill="#000" data-color="color-2"></path> <path fill-rule="evenodd" clip-rule="evenodd" d="M29 1L41 1L41 8L29 8L29 1Z" fill="#000" data-color="color-2"></path> <path d="M46 38C46 41.3137 43.3137 44 40 44H8C4.68629 44 2 41.3137 2 38V35.5H46V38Z" fill="black"></path> <path fill-rule="evenodd" clip-rule="evenodd" d="M7.00001 11H12L12 16H11V18C16.6667 18 22.3333 18 28 18V16H27V11H41V21.8143L45.1099 32.5H2.89014L7.00001 21.8143V11ZM26 26H29V29H26V26ZM33 26V29H36V26H33ZM19 26H22V29H19V26ZM12 26V29H15V26H12Z" fill="black"></path> </svg>