<svg xmlns="http://www.w3.org/2000/svg" xmlns:xlink="http://www.w3.org/1999/xlink" x="0px" y="0px" width="18px" height="18px" viewBox="0 0 18 18"><path d="M11,14c-.414,0-.75-.336-.75-.75v-1c0-.689-.561-1.25-1.25-1.25s-1.25,.561-1.25,1.25v1c0,.414-.336,.75-.75,.75s-.75-.336-.75-.75v-1c0-1.517,1.233-2.75,2.75-2.75s2.75,1.233,2.75,2.75v1c0,.414-.336,.75-.75,.75Z" fill="#000"></path><path d="M13.75,14c-.414,0-.75-.336-.75-.75v-1c0-2.206-1.794-4-4-4s-4,1.794-4,4v1c0,.414-.336,.75-.75,.75s-.75-.336-.75-.75v-1c0-3.033,2.467-5.5,5.5-5.5s5.5,2.467,5.5,5.5v1c0,.414-.336,.75-.75,.75Z" fill="#000" data-color="color-2"></path><path d="M16.5,14c-.414,0-.75-.336-.75-.75v-1c0-3.722-3.028-6.75-6.75-6.75s-6.75,3.028-6.75,6.75v1c0,.414-.336,.75-.75,.75s-.75-.336-.75-.75v-1C.75,7.701,4.451,4,9,4s8.25,3.701,8.25,8.25v1c0,.414-.336,.75-.75,.75Z" fill="#000"></path></svg>