<svg xmlns="http://www.w3.org/2000/svg" xmlns:xlink="http://www.w3.org/1999/xlink" x="0px" y="0px" width="18px" height="18px" viewBox="0 0 18 18"><path d="M5.75,3.5c-.414,0-.75-.336-.75-.75V.75c0-.414,.336-.75,.75-.75s.75,.336,.75,.75V2.75c0,.414-.336,.75-.75,.75Z" fill="#000"></path><path d="M12.25,3.5c-.414,0-.75-.336-.75-.75V.75c0-.414,.336-.75,.75-.75s.75,.336,.75,.75V2.75c0,.414-.336,.75-.75,.75Z" fill="#000"></path><path d="M13.75,2H4.25c-1.517,0-2.75,1.233-2.75,2.75V13.25c0,1.517,1.233,2.75,2.75,2.75H13.75c1.517,0,2.75-1.233,2.75-2.75V4.75c0-1.517-1.233-2.75-2.75-2.75Zm0,12.5H4.25c-.689,0-1.25-.561-1.25-1.25V7H15v6.25c0,.689-.561,1.25-1.25,1.25Z" fill="#000"></path><circle cx="11.25" cy="10.75" r="1" fill="#000" data-color="color-2"></circle><path d="M11.25,12.5c-.965,0-1.75-.785-1.75-1.75s.785-1.75,1.75-1.75,1.75,.785,1.75,1.75-.785,1.75-1.75,1.75Zm0-2c-.138,0-.25,.112-.25,.25,0,.275,.5,.275,.5,0,0-.138-.112-.25-.25-.25Z" fill="#000" data-color="color-2"></path></svg>