<svg xmlns="http://www.w3.org/2000/svg" xmlns:xlink="http://www.w3.org/1999/xlink" x="0px" y="0px" width="24px" height="24px" viewBox="0 0 24 24"> <path fill-rule="evenodd" clip-rule="evenodd" d="M21.4142 4.00003L4 21.4142L2.58578 20L20 2.58582L21.4142 4.00003Z" fill="#000" data-color="color-2"></path> <path fill-rule="evenodd" clip-rule="evenodd" d="M2 6.5C2 4.01472 4.01472 2 6.5 2C8.98528 2 11 4.01472 11 6.5C11 8.98528 8.98528 11 6.5 11C4.01472 11 2 8.98528 2 6.5Z" fill="black"></path> <path fill-rule="evenodd" clip-rule="evenodd" d="M13 17.5C13 15.0147 15.0147 13 17.5 13C19.9853 13 22 15.0147 22 17.5C22 19.9853 19.9853 22 17.5 22C15.0147 22 13 19.9853 13 17.5Z" fill="black"></path> </svg>