<svg xmlns="http://www.w3.org/2000/svg" xmlns:xlink="http://www.w3.org/1999/xlink" x="0px" y="0px" width="24px" height="24px" viewBox="0 0 24 24"> <path fill-rule="evenodd" clip-rule="evenodd" d="M4 12V22H2V12H4Z" fill="black"></path> <path fill-rule="evenodd" clip-rule="evenodd" d="M8 12V22H6V12H8Z" fill="black"></path> <path fill-rule="evenodd" clip-rule="evenodd" d="M10 12V22H8V12H10Z" fill="black"></path> <path fill-rule="evenodd" clip-rule="evenodd" d="M14 12V22H12V12H14Z" fill="black"></path> <path fill-rule="evenodd" clip-rule="evenodd" d="M19 12V22H17V12H19Z" fill="black"></path> <path fill-rule="evenodd" clip-rule="evenodd" d="M22 12V22H20V12H22Z" fill="black"></path> <path fill-rule="evenodd" clip-rule="evenodd" d="M24 14L-8.74228e-08 14L0 12L24 12L24 14Z" fill="#000" data-color="color-2"></path> <path fill-rule="evenodd" clip-rule="evenodd" d="M4 2V10H2V2H4Z" fill="black"></path> <path fill-rule="evenodd" clip-rule="evenodd" d="M8 2V10H6V2H8Z" fill="black"></path> <path fill-rule="evenodd" clip-rule="evenodd" d="M10 2V10H8V2H10Z" fill="black"></path> <path fill-rule="evenodd" clip-rule="evenodd" d="M14 2V10H12V2H14Z" fill="black"></path> <path fill-rule="evenodd" clip-rule="evenodd" d="M19 2V10H17V2H19Z" fill="black"></path> <path fill-rule="evenodd" clip-rule="evenodd" d="M22 2V10H20V2H22Z" fill="black"></path> </svg>