<svg xmlns="http://www.w3.org/2000/svg" xmlns:xlink="http://www.w3.org/1999/xlink" x="0px" y="0px" width="24px" height="24px" viewBox="0 0 24 24"> <path d="M13 8V13H19V8H13Z" fill="#000" data-color="color-2"></path> <path fill-rule="evenodd" clip-rule="evenodd" d="M0 19H6V22H0V19Z" fill="black"></path> <path fill-rule="evenodd" clip-rule="evenodd" d="M9 19H15V22H9V19Z" fill="black"></path> <path fill-rule="evenodd" clip-rule="evenodd" d="M18 19H24V22H18V19Z" fill="black"></path> <path d="M19 6V1H13V6H19Z" fill="#000" data-color="color-2"></path> <path d="M5 1H11V6H5V1Z" fill="#000" data-color="color-2"></path> <path d="M5 8V13H11V8H5Z" fill="#000" data-color="color-2"></path> <path d="M5 15H19C20.1046 15 21 14.1046 21 13V7.59998L24 14.8V17H0V14.8L3 7.59999V13C3 14.1046 3.89543 15 5 15Z" fill="black"></path> </svg>