<svg xmlns="http://www.w3.org/2000/svg" xmlns:xlink="http://www.w3.org/1999/xlink" x="0px" y="0px" width="32px" height="32px" viewBox="0 0 32 32"> <path fill-rule="evenodd" clip-rule="evenodd" d="M17.4478 12.8417L5.44437 6.84649L6.33803 5.05725L18.3414 11.0524L17.4478 12.8417Z" fill="#000" data-color="color-2"></path> <path fill-rule="evenodd" clip-rule="evenodd" d="M17.4479 3.15986L5.3723 9.18929L6.26573 10.9786L18.3414 4.94921L17.4479 3.15986Z" fill="#000" data-color="color-2"></path> <path fill-rule="evenodd" clip-rule="evenodd" d="M29 21.0001L29 16.0001L31 16.0001L31 21.0001L29 21.0001Z" fill="black"></path> <path fill-rule="evenodd" clip-rule="evenodd" d="M1 21.0001L1 17.0001L3 17.0001L3 21.0001L1 21.0001Z" fill="black"></path> <path fill-rule="evenodd" clip-rule="evenodd" d="M22 9L16.9999 9L16.9999 7L22 7L22 9Z" fill="black"></path> <path fill-rule="evenodd" clip-rule="evenodd" d="M22 30L16.9999 30L16.9999 28L22 28L22 30Z" fill="black"></path> <path fill-rule="evenodd" clip-rule="evenodd" d="M15.0001 30L10.0001 30L10.0001 28L15.0001 28L15.0001 30Z" fill="black"></path> <path fill-rule="evenodd" clip-rule="evenodd" d="M24 7H27C29.2091 7 31 8.79086 31 11V14H29V11C29 9.89543 28.1046 9 27 9H24V7Z" fill="black"></path> <path fill-rule="evenodd" clip-rule="evenodd" d="M24 30H27C29.2091 30 31 28.2091 31 26V23H29V26C29 27.1046 28.1046 28 27 28H24V30Z" fill="black"></path> <path fill-rule="evenodd" clip-rule="evenodd" d="M3 23V26C3 27.1046 3.89543 28 5 28H8V30H5C2.79086 30 1 28.2091 1 26V23H3Z" fill="black"></path> <path fill-rule="evenodd" clip-rule="evenodd" d="M8 3.5C8 2.67157 7.32843 2 6.5 2C5.67157 2 5 2.67157 5 3.5C5 4.32843 5.67157 5 6.5 5C7.32843 5 8 4.32843 8 3.5ZM6.5 -1.5299e-07C8.433 -6.84959e-08 10 1.567 10 3.5C10 5.433 8.433 7 6.5 7C4.567 7 3 5.433 3 3.5C3 1.567 4.567 -2.37484e-07 6.5 -1.5299e-07Z" fill="#000" data-color="color-2"></path> <path fill-rule="evenodd" clip-rule="evenodd" d="M8 12.5C8 11.6716 7.32843 11 6.5 11C5.67157 11 5 11.6716 5 12.5C5 13.3284 5.67157 14 6.5 14C7.32843 14 8 13.3284 8 12.5ZM6.5 9C8.433 9 10 10.567 10 12.5C10 14.433 8.433 16 6.5 16C4.567 16 3 14.433 3 12.5C3 10.567 4.567 9 6.5 9Z" fill="#000" data-color="color-2"></path> </svg>