<svg xmlns="http://www.w3.org/2000/svg" xmlns:xlink="http://www.w3.org/1999/xlink" x="0px" y="0px" width="18px" height="18px" viewBox="0 0 18 18"><path d="M11.75,10.5c-1.24,0-2.25-1.009-2.25-2.25s1.01-2.25,2.25-2.25h3.25V3.75c0-1.517-1.233-2.75-2.75-2.75H5.75c-1.517,0-2.75,1.233-2.75,2.75v12.5c0,.276,.152,.531,.396,.661,.244,.131,.54,.117,.77-.037l4.834-3.223,4.834,3.223c.125,.083,.271,.126,.416,.126,.122,0,.243-.029,.354-.089,.244-.13,.396-.385,.396-.661v-5.75h-3.25Z" fill="#000"></path><path d="M16.75,7.5h-5c-.414,0-.75,.336-.75,.75s.336,.75,.75,.75h5c.414,0,.75-.336,.75-.75s-.336-.75-.75-.75Z" fill="#000" data-color="color-2"></path></svg>