<svg xmlns="http://www.w3.org/2000/svg" xmlns:xlink="http://www.w3.org/1999/xlink" x="0px" y="0px" width="18px" height="18px" viewBox="0 0 18 18"><path d="M13.056,9.927l2.968-2.893c.204-.199,.278-.498,.189-.769-.088-.271-.322-.469-.605-.51l-4.101-.596-1.834-3.716c-.254-.512-1.092-.512-1.346,0l-1.834,3.716-4.101,.596c-.283,.041-.518,.239-.605,.51-.089,.271-.015,.57,.189,.769l2.968,2.893-.701,4.084c-.048,.281,.067,.566,.299,.734,.229,.167,.537,.189,.789,.057l3.669-1.929,3.669,1.929c.109,.058,.229,.086,.349,.086,.155,0,.311-.048,.44-.143,.231-.168,.347-.453,.299-.734l-.701-4.084Z" fill="#000"></path><path d="M9,15c-.414,0-.75,.336-.75,.75v1.065c0,.414,.336,.75,.75,.75s.75-.336,.75-.75v-1.065c0-.414-.336-.75-.75-.75Z" fill="#000" data-color="color-2"></path><path d="M17.081,10.289l-1.013-.329c-.393-.127-.816,.087-.944,.481s.087,.817,.481,.945l1.013,.329c.076,.025,.154,.037,.231,.037,.316,0,.61-.201,.713-.518,.128-.394-.087-.817-.481-.945Z" fill="#000" data-color="color-2"></path><path d="M13.225,3.386c.232,0,.461-.107,.607-.309l.626-.862c.244-.335,.17-.804-.166-1.048-.335-.244-.804-.167-1.047,.166l-.626,.862c-.244,.335-.17,.804,.166,1.048,.133,.097,.287,.143,.439,.143Z" fill="#000" data-color="color-2"></path><path d="M4.168,3.077c.146,.202,.375,.309,.607,.309,.152,0,.307-.046,.439-.143,.336-.244,.41-.712,.166-1.048l-.626-.862c-.243-.334-.712-.411-1.047-.166-.336,.244-.41,.712-.166,1.048l.626,.862Z" fill="#000" data-color="color-2"></path><path d="M1.932,9.96l-1.013,.329c-.395,.128-.609,.551-.481,.945,.103,.317,.396,.518,.713,.518,.076,0,.155-.012,.231-.037l1.013-.329c.395-.128,.609-.551,.481-.945-.127-.393-.55-.609-.944-.481Z" fill="#000" data-color="color-2"></path></svg>