<svg xmlns="http://www.w3.org/2000/svg" xmlns:xlink="http://www.w3.org/1999/xlink" x="0px" y="0px" width="24px" height="24px" viewBox="0 0 24 24"> <path d="M6.5 19H4C3.44772 19 3 18.5523 3 18V6C3 4.34315 4.34315 3 6 3H8L8.27239 4.08957C8.70001 5.80005 10.2369 7 12 7V7C13.7631 7 15.3 5.80005 15.7276 4.08957L16 3H18C19.6569 3 21 4.34315 21 6V18C21 18.5523 20.5523 19 20 19H17.5" stroke="black" stroke-width="2" stroke-linecap="square" fill="none"></path> <path d="M7 12V21H17V12" stroke="black" stroke-width="2" stroke-linecap="square" fill="none"></path> <path d="M13 11H13.01" stroke="#000" stroke-width="2" stroke-linecap="square" data-color="color-2" fill="none"></path> </svg>