<svg xmlns="http://www.w3.org/2000/svg" xmlns:xlink="http://www.w3.org/1999/xlink" x="0px" y="0px" width="24px" height="24px" viewBox="0 0 24 24"> <path d="M16 4H20C21.1046 4 22 4.89543 22 6V19C22 19.5523 21.5523 20 21 20H18.574C17.9936 20 17.5352 19.5076 17.5765 18.9288L17.9235 14.0712C17.9648 13.4924 17.5064 13 16.926 13H16" stroke="#000" stroke-width="2" stroke-linecap="square" data-color="color-2" fill="none"></path> <path d="M18 7H16" stroke="#000" stroke-width="2" stroke-linecap="square" data-color="color-2" fill="none"></path> <path d="M18 10H16" stroke="#000" stroke-width="2" stroke-linecap="square" data-color="color-2" fill="none"></path> <path d="M10 3.86603L5 15.5L5.10932 15.2019" stroke="black" stroke-width="2" stroke-linecap="square" fill="none"></path> <path d="M4 4L9 15.634L8.7987 15.1656" stroke="black" stroke-width="2" stroke-linecap="square" fill="none"></path> <path d="M1 16C1 14.8954 1.89543 14 3 14V14C4.10457 14 5 14.8954 5 16V18C5 19.1046 4.10457 20 3 20V20C1.89543 20 1 19.1046 1 18V16Z" stroke="black" stroke-width="2" data-cap="butt" fill="none"></path> <path d="M9 16C9 14.8954 9.89543 14 11 14V14C12.1046 14 13 14.8954 13 16V18C13 19.1046 12.1046 20 11 20V20C9.89543 20 9 19.1046 9 18V16Z" stroke="black" stroke-width="2" data-cap="butt" fill="none"></path> </svg>