<svg xmlns="http://www.w3.org/2000/svg" xmlns:xlink="http://www.w3.org/1999/xlink" x="0px" y="0px" width="24px" height="24px" viewBox="0 0 24 24"> <path d="M18 3.40696C15.431 2.81547 12.8791 3.55713 12.2468 6.1609L12.043 7.00001H11.9588L11.7544 6.15907C11.1213 3.55536 8.56869 2.81472 5.99951 3.40696" stroke="black" stroke-width="2" data-cap="butt" fill="none"></path> <path d="M7.70227 11H16.2064" stroke="#000" stroke-width="2" data-color="color-2" data-cap="butt" fill="none"></path> <path d="M6 2V5.6418C6 7.13506 6.66742 8.55016 7.81966 9.49997L8.55558 10.1066L7.21694 11.5445C5.14946 13.7653 4.00002 16.6869 4.00001 19.7211L4 20.2546C4 20.8872 4.59451 21.3514 5.20823 21.1979L6.15506 20.9612C7.3456 20.6636 8.60333 20.8017 9.70095 21.3505V21.3505C11.1482 22.0741 12.8518 22.0741 14.2991 21.3505V21.3505C15.3967 20.8017 16.6544 20.6636 17.8449 20.9612L18.7918 21.1979C19.4055 21.3514 20 20.8872 20 20.2546L20 19.7212C20 16.6869 18.8506 13.7653 16.7831 11.5445L15.4445 10.1066L16.1804 9.49997C17.3326 8.55016 18 7.13507 18 5.64183V2" stroke="black" stroke-width="2" stroke-linecap="square" fill="none"></path> </svg>