<svg xmlns="http://www.w3.org/2000/svg" xmlns:xlink="http://www.w3.org/1999/xlink" x="0px" y="0px" width="24px" height="24px" viewBox="0 0 24 24"> <path d="M2 22V21.2611C2 19.9225 2.88681 18.7459 4.17361 18.3771L7.34175 17.4693C8.50086 17.1453 9.3 17.0357 9.3 15.8563V14.3901C8.75591 14.0256 8.29101 13.5528 7.9394 13" stroke="black" stroke-width="2" stroke-linecap="square" fill="none"></path> <path d="M14.75 4.11111C18.0258 4.11111 18.58 7.20912 16.5461 9C14.5461 8.55556 14.0461 6.30324 10.7961 6.30324" stroke="#000" stroke-width="2" stroke-miterlimit="10" data-color="color-2" data-cap="butt" fill="none"></path> <path d="M12.0462 1C16.5462 1 16.75 4.55556 16.75 4.55556C16.75 4.55556 15.7961 4.11111 14.5461 4.11111C9.79615 4.11111 12.2126 7.6983 7.54615 9C4.54615 5.88889 7.04614 1 12.0462 1Z" stroke="#000" stroke-width="2" stroke-miterlimit="10" data-color="color-2" data-cap="butt" fill="none"></path> <path d="M22 22V21.2611C22 19.9225 21.1132 18.7459 19.8264 18.3771L16.6583 17.4693C15.4992 17.1453 14.7 17.0357 14.7 15.8563V14.3901C15.2441 14.0256 15.709 13.5528 16.0606 13" stroke="black" stroke-width="2" stroke-linecap="square" fill="none"></path> </svg>