<svg xmlns="http://www.w3.org/2000/svg" xmlns:xlink="http://www.w3.org/1999/xlink" x="0px" y="0px" width="24px" height="24px" viewBox="0 0 24 24"> <path d="M21 12C21 13.6569 16.9706 15 12 15C7.02944 15 3 13.6569 3 12" stroke="#000" stroke-width="2" data-color="color-2" data-cap="butt" fill="none"></path> <path d="M8.5 2L10.5 11L10.3889 10.5" stroke="#000" stroke-width="2" stroke-linecap="square" data-color="color-2" fill="none"></path> <path d="M15.5 2L13.5 11L13.6111 10.5" stroke="#000" stroke-width="2" stroke-linecap="square" data-color="color-2" fill="none"></path> <path d="M18 9.76389C19.8412 10.3132 21 11.1115 21 12V19C21 20.6568 16.9706 22 12 22C7.02944 22 3 20.6568 3 19V12C3 11.1115 4.15875 10.3132 6 9.76389" stroke="black" stroke-width="2" data-cap="butt" fill="none"></path> <path d="M18.3385 7.43771C18.7628 7.76012 19 8.12017 19 8.50001C19 9.88072 15.866 11 12 11C8.13401 11 5 9.88072 5 8.50001C5 8.12017 5.23718 7.76012 5.66154 7.43771" stroke="black" stroke-width="2" stroke-linecap="square" fill="none"></path> </svg>