<svg xmlns="http://www.w3.org/2000/svg" xmlns:xlink="http://www.w3.org/1999/xlink" x="0px" y="0px" width="32px" height="32px" viewBox="0 0 32 32"> <path d="M26 14H27.5V18H26" stroke="#000" stroke-width="2" stroke-miterlimit="10" stroke-linecap="square" data-color="color-2" fill="none"></path> <path d="M9 5L10.3333 1L21.6667 1L23 5" stroke="#000" stroke-width="2" stroke-miterlimit="10" data-color="color-2" data-cap="butt" fill="none"></path> <path d="M9 27L10.3333 31H21.6667L23 27" stroke="#000" stroke-width="2" stroke-miterlimit="10" data-color="color-2" data-cap="butt" fill="none"></path> <path fill-rule="evenodd" clip-rule="evenodd" d="M18 12C18 10.8954 18.8954 10 20 10C21.1046 10 22 10.8954 22 12C22 13.1046 21.1046 14 20 14C18.8954 14 18 13.1046 18 12Z" stroke="black" stroke-width="2" stroke-linecap="round" stroke-linejoin="round" fill="none"></path> <path fill-rule="evenodd" clip-rule="evenodd" d="M10 12C10 10.8954 10.8954 10 12 10C13.1046 10 14 10.8954 14 12C14 13.1046 13.1046 14 12 14C10.8954 14 10 13.1046 10 12Z" stroke="black" stroke-width="2" stroke-linecap="round" stroke-linejoin="round" fill="none"></path> <path fill-rule="evenodd" clip-rule="evenodd" d="M18 20C18 18.8954 18.8954 18 20 18C21.1046 18 22 18.8954 22 20C22 21.1046 21.1046 22 20 22C18.8954 22 18 21.1046 18 20Z" stroke="black" stroke-width="2" stroke-linecap="round" stroke-linejoin="round" fill="none"></path> <path fill-rule="evenodd" clip-rule="evenodd" d="M10 20C10 18.8954 10.8954 18 12 18C13.1046 18 14 18.8954 14 20C14 21.1046 13.1046 22 12 22C10.8954 22 10 21.1046 10 20Z" stroke="black" stroke-width="2" stroke-linecap="round" stroke-linejoin="round" fill="none"></path> <path d="M23 5H9C7.34315 5 6 6.34315 6 8V24C6 25.6569 7.34315 27 9 27H23C24.6569 27 26 25.6569 26 24V8C26 6.34315 24.6569 5 23 5Z" stroke="black" stroke-width="2" stroke-miterlimit="10" stroke-linecap="square" fill="none"></path> </svg>