<svg xmlns="http://www.w3.org/2000/svg" xmlns:xlink="http://www.w3.org/1999/xlink" x="0px" y="0px" width="32px" height="32px" viewBox="0 0 32 32"> <path d="M30 26.4719C30 28.4203 25.3704 30 16.1111 30C7.77778 30 5 28.4203 5 26.4719C5 24.5236 7.77778 22.9439 16.1111 22.9439C25.3704 22.9439 30 24.5236 30 26.4719Z" stroke="black" stroke-width="2" stroke-miterlimit="10" stroke-linecap="square" fill="none"></path> <path d="M2 19C2 21.209 4.76 23 12.0363 23C20.4 23 25 21.209 25 19C25 16.791 20.4 15 12.0363 15C4.76 15 2 16.791 2 19Z" stroke="#000" stroke-width="2" stroke-miterlimit="10" stroke-linecap="square" data-color="color-2" fill="none"></path> <path d="M27 12.0668C27 13.7605 23.1428 15.1335 16.7144 15.1335C11.5712 15.1335 9 13.7605 9 12.0668C9 10.373 11.5712 9 16.7144 9C23.1428 9 27 10.373 27 12.0668Z" stroke="black" stroke-width="2" stroke-miterlimit="10" stroke-linecap="square" fill="none"></path> <path d="M15 9C17.7614 9 20 7.433 20 5.5C20 3.567 17.7614 2 15 2C12.2386 2 10 3.567 10 5.5C10 7.433 12.2386 9 15 9Z" stroke="#000" stroke-width="2" stroke-miterlimit="10" stroke-linecap="square" data-color="color-2" fill="none"></path> </svg>