<svg xmlns="http://www.w3.org/2000/svg" xmlns:xlink="http://www.w3.org/1999/xlink" x="0px" y="0px" width="32px" height="32px" viewBox="0 0 32 32"> <path d="M8.5 16.5L15.5 23.5" stroke="black" stroke-width="2" data-cap="butt" fill="none"></path> <path d="M22 12L27 12L26.3333 12" stroke="#000" stroke-width="2" stroke-linecap="square" data-color="color-2" fill="none"></path> <path d="M26 8L29.5 8L28.8333 8" stroke="#000" stroke-width="2" stroke-linecap="square" data-color="color-2" fill="none"></path> <path d="M18 16L23 16L22.3333 16" stroke="#000" stroke-width="2" stroke-linecap="square" data-color="color-2" fill="none"></path> <path d="M18 12V7V7.66667" stroke="#000" stroke-width="2" stroke-linecap="square" data-color="color-2" fill="none"></path> <path d="M22 8V3.11291V3.77958" stroke="#000" stroke-width="2" stroke-linecap="square" data-color="color-2" fill="none"></path> <path d="M14 16V11V11.6667" stroke="#000" stroke-width="2" stroke-linecap="square" data-color="color-2" fill="none"></path> <path d="M4.00001 20.929C2.0474 22.8816 2.04739 26.0474 4 28V28V28C5.95261 29.9526 9.11842 29.9526 11.071 28L28.0001 11.071C29.9527 9.11843 29.9527 5.95263 28.0001 4.00002V4.00002V4.00002C26.0475 2.04741 22.8817 2.04741 20.929 4.00002L4.00001 20.929Z" stroke="black" stroke-width="2" stroke-miterlimit="10" stroke-linecap="square" fill="none"></path> <path d="M9 24.5C9 25.3284 8.32843 26 7.5 26C6.67157 26 6 25.3284 6 24.5C6 23.6716 6.67157 23 7.5 23C8.32843 23 9 23.6716 9 24.5Z" fill="#000" data-color="color-2" data-cap="butt" data-stroke="none"></path> </svg>