<svg xmlns="http://www.w3.org/2000/svg" xmlns:xlink="http://www.w3.org/1999/xlink" x="0px" y="0px" width="48px" height="48px" viewBox="0 0 48 48"> <path d="M24 20.0092V38" stroke="black" stroke-width="2" data-cap="butt" fill="none"></path> <path d="M32 5H37C37 11 36 21 43 23V38C43 40.7614 40.7614 43 38 43H29.8462L24.6397 38H24H23.368L18.1538 43H10C7.23858 43 5 40.7614 5 38V23C12 20 11 11 11 5H16L23.6166 20H24H24.3856L32 5Z" stroke="black" stroke-width="2" stroke-miterlimit="10" stroke-linecap="square" fill="none"></path> <path d="M30 33.8V29H37V33.8L33.5 35.5L30 33.8Z" stroke="#000" stroke-width="2" data-color="color-2" data-cap="butt" fill="none"></path> <path d="M11 33.8V29H18V33.8L14.5 35.5L11 33.8Z" stroke="#000" stroke-width="2" data-color="color-2" data-cap="butt" fill="none"></path> </svg>