<svg xmlns="http://www.w3.org/2000/svg" xmlns:xlink="http://www.w3.org/1999/xlink" x="0px" y="0px" width="48px" height="48px" viewBox="0 0 48 48"> <path d="M27.7487 9.66833L38.3553 20.2749" stroke="#000" stroke-width="2" data-color="color-2" data-cap="butt" fill="none"></path> <path d="M31.2843 6.13287L24.2132 13.2039" stroke="black" stroke-width="2" data-cap="butt" fill="none"></path> <path d="M41.8909 16.7394L34.8198 23.8105" stroke="black" stroke-width="2" data-cap="butt" fill="none"></path> <path d="M7.94977 33.71L14.3137 40.074" stroke="#000" stroke-width="2" data-color="color-2" data-cap="butt" fill="none"></path> <path d="M4.35006 37.3102L17.8506 23.8119L24.2132 30.1745L10.7126 43.6728C8.95546 45.4297 6.10681 45.4296 4.3498 43.6725C2.59287 41.9156 2.59299 39.067 4.35006 37.3102Z" stroke="black" stroke-width="2" stroke-miterlimit="10" stroke-linecap="square" fill="none"></path> <path d="M29.5164 4.36516C28.5401 3.38885 26.9572 3.38885 25.9809 4.36516L22.4454 7.90065C21.4691 8.87696 21.4691 10.4599 22.4454 11.4362L36.5876 25.5783C37.5639 26.5546 39.1468 26.5546 40.1231 25.5783L43.6586 22.0428C44.6349 21.0665 44.6349 19.4836 43.6586 18.5073L29.5164 4.36516Z" stroke="black" stroke-width="2" stroke-miterlimit="10" stroke-linecap="square" fill="none"></path> <path d="M19.2634 25.2247L21.5606 22.9275C23.2984 21.1898 24.548 19.0253 25.1841 16.6515L25.7075 14.6982" stroke="black" stroke-width="2" data-cap="butt" fill="none"></path> <path d="M22.799 28.7603L25.0962 26.4631C26.8339 24.7254 28.9984 23.4757 31.3722 22.8397L33.3255 22.3163" stroke="black" stroke-width="2" data-cap="butt" fill="none"></path> </svg>