<svg xmlns="http://www.w3.org/2000/svg" xmlns:xlink="http://www.w3.org/1999/xlink" x="0px" y="0px" width="48px" height="48px" viewBox="0 0 48 48"> <path d="M13.9686 19.3315L4.99995 14" stroke="black" stroke-width="2" data-cap="butt" fill="none"></path> <path d="M34.0314 19.3315L43 14" stroke="black" stroke-width="2" data-cap="butt" fill="none"></path> <path d="M13.9686 28.6683L4.99995 33.9999" stroke="black" stroke-width="2" data-cap="butt" fill="none"></path> <path d="M34.0314 28.6683L43 33.9999" stroke="black" stroke-width="2" data-cap="butt" fill="none"></path> <path d="M32 16L16 32" stroke="black" stroke-width="2" data-cap="butt" fill="none"></path> <path d="M28.6684 13.9685L34 4.99989" stroke="black" stroke-width="2" data-cap="butt" fill="none"></path> <path d="M28.6684 34.0314L34 43" stroke="black" stroke-width="2" data-cap="butt" fill="none"></path> <path d="M19.3316 13.9685L14 4.99989" stroke="black" stroke-width="2" data-cap="butt" fill="none"></path> <path d="M19.3316 34.0314L14 43" stroke="black" stroke-width="2" data-cap="butt" fill="none"></path> <path d="M30 14H18L14 18V30L18 33.9999H30L34 30V18L30 14Z" stroke="#000" stroke-width="2" stroke-miterlimit="10" stroke-linecap="square" data-color="color-2" fill="none"></path> <path d="M43 34.9615V13.0385L34.9615 5H24H13.0385L5 13.0385V34.9615L13.0385 43H34.9615L43 34.9615Z" stroke="#000" stroke-width="2" stroke-miterlimit="10" stroke-linecap="square" data-color="color-2" fill="none"></path> </svg>