<svg xmlns="http://www.w3.org/2000/svg" xmlns:xlink="http://www.w3.org/1999/xlink" x="0px" y="0px" width="48px" height="48px" viewBox="0 0 48 48"> <path d="M31.9927 4.57454C29.529 3.55974 26.8299 3 24 3C12.402 3 3 12.402 3 24C3 35.598 12.402 45 24 45C35.598 45 45 35.598 45 24C45 21.1681 44.4395 18.4671 43.4233 16.002" stroke="black" stroke-width="2" stroke-linecap="square" fill="none"></path> <path d="M28.2885 8.58123C26.9237 8.20244 25.4855 8 24 8C15.1634 8 8 15.1634 8 24C8 32.8366 15.1634 40 24 40C32.8366 40 40 32.8366 40 24C40 22.5332 39.8026 21.1125 39.433 19.763" stroke="#000" stroke-width="2" stroke-linecap="square" data-color="color-2" fill="none"></path> <path d="M29.7922 14.1983L39.277 4.07066C40.546 2.71572 42.6837 2.67774 44 3.98676V3.98676V3.98676C45.3141 5.29365 45.2823 7.42986 43.9298 8.69704L33.7889 18.1983" stroke="black" stroke-width="2" data-cap="butt" fill="none"></path> <path d="M19 17.9526C19 21.3709 19.431 23.8399 21.8131 26.257C24.1953 28.6741 26.5189 29 29.8877 29L34.0193 18.4942L29.4933 13.9609L19 17.9526Z" stroke="black" stroke-width="2" stroke-linecap="round" fill="none"></path> </svg>