<svg xmlns="http://www.w3.org/2000/svg" xmlns:xlink="http://www.w3.org/1999/xlink" x="0px" y="0px" width="48px" height="48px" viewBox="0 0 48 48"><path d="M16.5 5H31.5" stroke="#000" stroke-width="2" data-color="color-2" data-cap="butt" fill="none"></path> <path d="M11 26H3V14.089C3 10.3418 5.60093 7.09674 9.25818 6.28088L14.8925 5.02399C14.9639 5.00805 15.037 5 15.1102 5H16.5L16.8943 7.10277C17.5354 10.5222 20.521 13 24 13V13C27.479 13 30.4646 10.5221 31.1057 7.10276L31.5 5H32.8898C32.963 5 33.0361 5.00805 33.1075 5.02399L38.7418 6.28088C42.3991 7.09674 45 10.3418 45 14.089V26H37" stroke="black" stroke-width="2" stroke-linecap="square" fill="none"></path> <path d="M11 18V43H37V18" stroke="black" stroke-width="2" stroke-linecap="square" fill="none"></path></svg>