<svg xmlns="http://www.w3.org/2000/svg" xmlns:xlink="http://www.w3.org/1999/xlink" x="0px" y="0px" width="48px" height="48px" viewBox="0 0 48 48"> <path d="M42.5 19H37.5C36.1193 19 35 20.1193 35 21.5V21.5C35 22.8807 36.1193 24 37.5 24H44.5" stroke="#000" stroke-width="2" data-color="color-2" data-cap="butt" fill="none"></path> <path d="M3 17H19C21.7614 17 24 14.7614 24 12V9" stroke="#000" stroke-width="2" data-color="color-2" data-cap="butt" fill="none"></path> <path d="M25 9H8C5.23857 9 3 11.2386 3 14V22H9C12.866 22 16 25.134 16 29V34H45V29C45 17.9543 36.0457 9 25 9Z" stroke="black" stroke-width="2" data-cap="butt" fill="none"></path> <path d="M16 40L45 40" stroke="#000" stroke-width="2" stroke-linecap="square" data-color="color-2" fill="none"></path> <path d="M45 29H16" stroke="black" stroke-width="2" data-cap="butt" fill="none"></path> </svg>