<svg xmlns="http://www.w3.org/2000/svg" xmlns:xlink="http://www.w3.org/1999/xlink" x="0px" y="0px" width="48px" height="48px" viewBox="0 0 48 48"> <path d="M3 24L11.9378 23.2552C13.9469 23.0878 15.9657 23.4292 17.808 24.248L19.1263 24.8339C22.2291 26.2129 25.7709 26.2129 28.8737 24.8339L30.192 24.248C32.0343 23.4292 34.0531 23.0878 36.0622 23.2552L45 24" stroke="#000" stroke-width="2" data-color="color-2" data-cap="butt" fill="none"></path> <path d="M24 15.4153C25.6836 13.8279 27.8776 12.9655 30.1424 13.0011C32.4072 13.0366 34.5756 13.9674 36.213 15.607L45 24C40.8 28.4 34.5 35 24 35C13.5 35 7.2 28.4 3 24L11.787 15.607C13.4244 13.9674 15.5928 13.0366 17.8576 13.0011C20.1224 12.9655 22.3164 13.8279 24 15.4153Z" stroke="black" stroke-width="2" stroke-miterlimit="10" stroke-linecap="square" fill="none"></path> </svg>