<svg xmlns="http://www.w3.org/2000/svg" xmlns:xlink="http://www.w3.org/1999/xlink" x="0px" y="0px" width="48px" height="48px" viewBox="0 0 48 48"> <path d="M19 27.5C16.5 27.5 13.2975 26.8585 11.7975 24.8585" stroke="#000" stroke-width="2" data-color="color-2" data-cap="butt" fill="none"></path> <path d="M29 27.5C31.5 27.5 34.667 26.7961 36.167 24.7961" stroke="#000" stroke-width="2" data-color="color-2" data-cap="butt" fill="none"></path> <path d="M15 7.5L10 34.5L12.2991 35.4032C19.8199 38.3578 28.1801 38.3578 35.7009 35.4032L38 34.5L33 7.5" stroke="black" stroke-width="2" data-cap="butt" fill="none"></path> <path d="M19 23V32H29V23H19Z" stroke="#000" stroke-width="2" data-color="color-2" data-cap="butt" fill="none"></path> <path d="M37.3867 31.3517C42.6239 32.5388 46 34.4059 46 36.5057C46 40.0924 36.1503 43 24 43C11.8497 43 2 40.0924 2 36.5057C2 34.4057 5.37661 32.5385 10.6146 31.3514" stroke="black" stroke-width="2" stroke-miterlimit="10" data-cap="butt" fill="none"></path> <path d="M24 11C28.9706 11 33 9.433 33 7.5C33 5.567 28.9706 4 24 4C19.0294 4 15 5.567 15 7.5C15 9.433 19.0294 11 24 11Z" stroke="black" stroke-width="2" stroke-miterlimit="10" stroke-linecap="square" fill="none"></path> </svg>