<svg xmlns="http://www.w3.org/2000/svg" xmlns:xlink="http://www.w3.org/1999/xlink" x="0px" y="0px" width="48px" height="48px" viewBox="0 0 48 48"> <path d="M14 8L16 2H32L34 8" stroke="#000" stroke-width="2" stroke-miterlimit="10" data-color="color-2" data-cap="butt" fill="none"></path> <path d="M14 40L16 46H32L34 40" stroke="#000" stroke-width="2" stroke-miterlimit="10" data-color="color-2" data-cap="butt" fill="none"></path> <path d="M39 21L40 21C40.5523 21 41 21.4477 41 22V26C41 26.5523 40.5523 27 40 27H39" stroke="#000" stroke-width="2" stroke-miterlimit="10" stroke-linecap="square" data-color="color-2" fill="none"></path> <path d="M34 8H14C11.2386 8 9 10.2386 9 13V35C9 37.7614 11.2386 40 14 40H34C36.7614 40 39 37.7614 39 35V13C39 10.2386 36.7614 8 34 8Z" stroke="black" stroke-width="2" stroke-miterlimit="10" stroke-linecap="square" fill="none"></path> <path d="M24 15V24H34" stroke="black" stroke-width="2" stroke-linecap="square" fill="none"></path> </svg>