<svg xmlns="http://www.w3.org/2000/svg" xmlns:xlink="http://www.w3.org/1999/xlink" x="0px" y="0px" width="48px" height="48px" viewBox="0 0 48 48"> <path d="M15 3L21 18" stroke="black" stroke-width="2" data-cap="butt" fill="none"></path> <path d="M33 3L27 18H18V43" stroke="black" stroke-width="2" data-cap="butt" fill="none"></path> <path d="M43 39V13.9999C43 11.7908 41.2091 9.99994 39 9.99994H36L33 2.99994H15L12 9.99994H9C6.79086 9.99994 5 11.7908 5 13.9999V39C5 41.2092 6.79086 43 9 43H39C41.2091 43 43 41.2092 43 39Z" stroke="black" stroke-width="2" stroke-miterlimit="10" stroke-linecap="square" fill="none"></path> <path d="M25 36L23 36" stroke="#000" stroke-width="2" stroke-miterlimit="10" stroke-linecap="square" data-color="color-2" fill="none"></path> <path d="M25 30L23 30" stroke="#000" stroke-width="2" stroke-miterlimit="10" stroke-linecap="square" data-color="color-2" fill="none"></path> <path d="M25 24L23 24" stroke="#000" stroke-width="2" stroke-miterlimit="10" stroke-linecap="square" data-color="color-2" fill="none"></path> </svg>