<svg xmlns="http://www.w3.org/2000/svg" xmlns:xlink="http://www.w3.org/1999/xlink" x="0px" y="0px" width="24px" height="24px" viewBox="0 0 24 24"> <path d="M17 2H6C4.89543 2 4 2.89543 4 4V20C4 21.1046 4.89543 22 6 22H17C18.1046 22 19 21.1046 19 20V4C19 2.89543 18.1046 2 17 2Z" stroke="black" stroke-width="2" stroke-miterlimit="10" stroke-linecap="square" fill="none"></path> <path d="M23 4V20" stroke="#000" stroke-width="2" stroke-miterlimit="10" stroke-linecap="square" data-color="color-2" fill="none"></path> <path d="M15 11.2192C15 13.0118 12.2764 14.8387 11.5 15.1919C10.7236 14.8387 8 13.0118 8 11.2192C8 10.1707 8.84408 9.32094 9.88475 9.32094C10.5409 9.32094 11.0394 9.7179 11.4461 10.1789H11.5539C11.9606 9.7179 12.4591 9.32094 13.1152 9.32094C14.1559 9.32094 15 10.1707 15 11.2192Z" stroke="#000" stroke-width="2" data-color="color-2" data-cap="butt" fill="none"></path> <path d="M7.5 5.5L7.50707 5.49293" stroke="black" stroke-width="2" stroke-linecap="square" fill="none"></path> <path d="M15.5 18.5071L15.5071 18.5" stroke="black" stroke-width="2" stroke-linecap="square" fill="none"></path> </svg>