<svg xmlns="http://www.w3.org/2000/svg" xmlns:xlink="http://www.w3.org/1999/xlink" x="0px" y="0px" width="24px" height="24px" viewBox="0 0 24 24"> <path d="M12 6.00461C15.7075 6.05432 18.4085 6.50686 20.9987 7.3622L20.8524 13.3474C20.8161 15.3304 20.1918 17.4671 19 19C16.9514 21.6349 15.1125 21.9843 12 21.9843V18" stroke="black" stroke-width="2" stroke-miterlimit="10" stroke-linecap="square" fill="none"></path> <path d="M8 12C8 13.6569 9.34315 15 11 15V12H8Z" fill="#000" data-color="color-2" data-cap="butt" data-stroke="none"></path> <path d="M12 15.5C13.7731 15.4194 14.7462 15.8755 15.5 17" stroke="#000" stroke-width="2" stroke-miterlimit="10" stroke-linecap="square" data-color="color-2" fill="none"></path> <path d="M3.14629 9.34279L3 3.35759C5.59025 2.50225 8.29127 2.04972 11.9987 2V17.9797C8.88625 17.9797 7.04728 17.6303 4.99872 14.9954C3.80691 13.4625 3.18262 11.3258 3.14629 9.34279Z" stroke="black" stroke-width="2" stroke-miterlimit="10" stroke-linecap="square" fill="none"></path> <path d="M17 12H16" stroke="#000" stroke-width="2" stroke-linecap="square" data-color="color-2" fill="none"></path> <path d="M8 8H7" stroke="#000" stroke-width="2" stroke-linecap="square" data-color="color-2" fill="none"></path> </svg>