<svg xmlns="http://www.w3.org/2000/svg" xmlns:xlink="http://www.w3.org/1999/xlink" x="0px" y="0px" width="32px" height="32px" viewBox="0 0 32 32"> <rect x="3" y="3" width="26" height="26" rx="3" stroke="black" stroke-width="2" data-cap="butt" fill="none"></rect> <path d="M11 13.5C12.3807 13.5 13.5 12.3807 13.5 11C13.5 9.61929 12.3807 8.5 11 8.5C9.61929 8.5 8.5 9.61929 8.5 11C8.5 12.3807 9.61929 13.5 11 13.5Z" stroke="#000" stroke-width="2" stroke-miterlimit="10" stroke-linecap="square" data-color="color-2" fill="none"></path> <path d="M11 23.5C12.3807 23.5 13.5 22.3807 13.5 21C13.5 19.6193 12.3807 18.5 11 18.5C9.61929 18.5 8.5 19.6193 8.5 21C8.5 22.3807 9.61929 23.5 11 23.5Z" stroke="#000" stroke-width="2" stroke-miterlimit="10" stroke-linecap="square" data-color="color-2" fill="none"></path> <path d="M21 13.5C22.3807 13.5 23.5 12.3807 23.5 11C23.5 9.61929 22.3807 8.5 21 8.5C19.6193 8.5 18.5 9.61929 18.5 11C18.5 12.3807 19.6193 13.5 21 13.5Z" stroke="#000" stroke-width="2" stroke-miterlimit="10" stroke-linecap="square" data-color="color-2" fill="none"></path> <path d="M21 23.5C22.3807 23.5 23.5 22.3807 23.5 21C23.5 19.6193 22.3807 18.5 21 18.5C19.6193 18.5 18.5 19.6193 18.5 21C18.5 22.3807 19.6193 23.5 21 23.5Z" stroke="#000" stroke-width="2" stroke-miterlimit="10" stroke-linecap="square" data-color="color-2" fill="none"></path> </svg>