<svg xmlns="http://www.w3.org/2000/svg" xmlns:xlink="http://www.w3.org/1999/xlink" x="0px" y="0px" width="48px" height="48px" viewBox="0 0 48 48"> <rect x="5" y="5" width="38" height="38" rx="5" stroke="black" stroke-width="2" data-cap="butt" fill="none"></rect> <path d="M17 21C19.2091 21 21 19.2091 21 17C21 14.7909 19.2091 13 17 13C14.7909 13 13 14.7909 13 17C13 19.2091 14.7909 21 17 21Z" stroke="#000" stroke-width="2" stroke-miterlimit="10" stroke-linecap="square" data-color="color-2" fill="none"></path> <path d="M17 35C19.2091 35 21 33.2091 21 31C21 28.7909 19.2091 27 17 27C14.7909 27 13 28.7909 13 31C13 33.2091 14.7909 35 17 35Z" stroke="#000" stroke-width="2" stroke-miterlimit="10" stroke-linecap="square" data-color="color-2" fill="none"></path> <path d="M31 21C33.2091 21 35 19.2091 35 17C35 14.7909 33.2091 13 31 13C28.7909 13 27 14.7909 27 17C27 19.2091 28.7909 21 31 21Z" stroke="#000" stroke-width="2" stroke-miterlimit="10" stroke-linecap="square" data-color="color-2" fill="none"></path> <path d="M31 35C33.2091 35 35 33.2091 35 31C35 28.7909 33.2091 27 31 27C28.7909 27 27 28.7909 27 31C27 33.2091 28.7909 35 31 35Z" stroke="#000" stroke-width="2" stroke-miterlimit="10" stroke-linecap="square" data-color="color-2" fill="none"></path> </svg>