<svg xmlns="http://www.w3.org/2000/svg" xmlns:xlink="http://www.w3.org/1999/xlink" x="0px" y="0px" width="32px" height="32px" viewBox="0 0 32 32"><path d="M7 21V21.5L7 13C7 11.8954 7.89543 11 9 11H10.3138C10.7585 11 11.1906 11.1482 11.5417 11.4213L15.5 14.5L15 14.1111" stroke="black" stroke-width="2" stroke-miterlimit="10" stroke-linecap="square" fill="none"></path> <path d="M23 23L23 29L29 29" stroke="#000" stroke-width="2" stroke-miterlimit="10" stroke-linecap="square" data-color="color-2" fill="none"></path> <path d="M29 23L23 29L23.5 28.5" stroke="#000" stroke-width="2" stroke-miterlimit="10" stroke-linecap="square" data-color="color-2" fill="none"></path> <path d="M10 8C11.6569 8 13 6.65685 13 5C13 3.34315 11.6569 2 10 2C8.34315 2 7 3.34315 7 5C7 6.65685 8.34315 8 10 8Z" stroke="#000" stroke-width="2" stroke-miterlimit="10" stroke-linecap="square" data-color="color-2" fill="none"></path> <path d="M8.8556 29H5C2.79086 29 1 27.2091 1 25C1 23.067 2.567 21.5 4.5 21.5H8L20.6374 9.79872C21.1919 9.28525 21.9198 9 22.6756 9H27.25C29.3211 9 31 10.6789 31 12.75C31 14.8211 29.3211 16.5 27.25 16.5H24L10.8536 28.2378C10.3039 28.7287 9.59263 29 8.8556 29Z" stroke="#000" stroke-width="2" stroke-linecap="square" data-color="color-2" fill="none"></path></svg>