<svg xmlns="http://www.w3.org/2000/svg" xmlns:xlink="http://www.w3.org/1999/xlink" x="0px" y="0px" width="48px" height="48px" viewBox="0 0 48 48"> <path d="M40 5H8C5.23858 5 3 7.23858 3 10V30C3 32.7614 5.23858 35 8 35H13.5V43.5L27 35H40C42.7614 35 45 32.7614 45 30V10C45 7.23858 42.7614 5 40 5Z" stroke="black" stroke-width="2" stroke-miterlimit="10" stroke-linecap="square" fill="none"></path> <path d="M11.2 26H11L15 14H18L22 26H21.8" stroke="#000" stroke-width="2" stroke-miterlimit="10" stroke-linecap="square" data-color="color-2" fill="none"></path> <path d="M28 14H33C35.208 14 37 15.792 37 18V22C37 24.208 35.208 26 33 26H28V14Z" stroke="#000" stroke-width="2" stroke-miterlimit="10" stroke-linecap="square" data-color="color-2" fill="none"></path> <path d="M12.334 23H12H21H20.666" stroke="#000" stroke-width="2" stroke-miterlimit="10" stroke-linecap="square" data-color="color-2" fill="none"></path> </svg>