<svg xmlns="http://www.w3.org/2000/svg" xmlns:xlink="http://www.w3.org/1999/xlink" x="0px" y="0px" width="18px" height="18px" viewBox="0 0 18 18"><path d="M10.25 15.75H13.75C14.8546 15.75 15.75 14.8546 15.75 13.75L15.75 4.25C15.75 3.14543 14.8546 2.25 13.75 2.25H10.25C9.14543 2.25 8.25 3.14543 8.25 4.25L8.25 13.75C8.25 14.8546 9.14543 15.75 10.25 15.75Z" fill="#000" fill-opacity="0.3" data-color="color-2" data-stroke="none"></path> <path d="M4.813 12.75H3.75C2.645 12.75 1.75 11.855 1.75 10.75V7.25C1.75 6.145 2.645 5.25 3.75 5.25H4.814" stroke="black" stroke-width="1.5" stroke-linecap="round" stroke-linejoin="round" fill="none"></path> <path d="M8.314 14.25H6.75C5.645 14.25 4.75 13.355 4.75 12.25V5.75C4.75 4.645 5.645 3.75 6.75 3.75H8.314" stroke="black" stroke-width="1.5" stroke-linecap="round" stroke-linejoin="round" fill="none"></path> <path d="M10.25 15.75H13.75C14.8546 15.75 15.75 14.8546 15.75 13.75L15.75 4.25C15.75 3.14543 14.8546 2.25 13.75 2.25H10.25C9.14543 2.25 8.25 3.14543 8.25 4.25L8.25 13.75C8.25 14.8546 9.14543 15.75 10.25 15.75Z" stroke="black" stroke-width="1.5" stroke-linecap="round" stroke-linejoin="round" fill="none"></path></svg>