<svg xmlns="http://www.w3.org/2000/svg" xmlns:xlink="http://www.w3.org/1999/xlink" x="0px" y="0px" width="18px" height="18px" viewBox="0 0 18 18"><path d="m9,1.75C4.996,1.75,1.75,4.9958,1.75,9s3.246,7.25,7.25,7.25,7.25-3.2461,7.25-7.25S13.0041,1.75,9,1.75Zm2.55,9c-.9916,0-1.7708-.875-2.55-1.75-.7792.875-1.5583,1.75-2.55,1.75-.939,0-1.7-.7834-1.7-1.75s.761-1.75,1.7-1.75c.9917,0,1.7708.875,2.55,1.75.7792-.875,1.5583-1.75,2.55-1.75.939,0,1.7.7834,1.7,1.75s-.761,1.75-1.7,1.75Z" fill="#000" opacity=".3" stroke-width="0" data-color="color-2"></path><circle cx="9" cy="9" r="7.25" fill="none" stroke="#000" stroke-linecap="round" stroke-linejoin="round" stroke-width="1.5"></circle><path d="m9,9c-.7792-.875-1.5583-1.75-2.55-1.75-.9389,0-1.7.7835-1.7,1.75s.7611,1.75,1.7,1.75c.9917,0,1.7708-.875,2.55-1.75Z" fill="none" stroke="#000" stroke-linecap="round" stroke-linejoin="round" stroke-width="1.5"></path><path d="m11.55,10.75c.9389,0,1.7-.7835,1.7-1.75s-.7611-1.75-1.7-1.75c-.9917,0-1.7708.875-2.55,1.75.7792.875,1.5583,1.75,2.55,1.75Z" fill="none" stroke="#000" stroke-linecap="round" stroke-linejoin="round" stroke-width="1.5"></path></svg>