<svg xmlns="http://www.w3.org/2000/svg" xmlns:xlink="http://www.w3.org/1999/xlink" x="0px" y="0px" width="18px" height="18px" viewBox="0 0 18 18"><path d="M1.5,4.946c1.446,.872,4.6,2.776,6.011,3.628,.322,.194,.318,.661-.004,.856L1.504,13.052c-.332,.2-.754-.04-.754-.429V5.377c0-.389,.418-.632,.75-.432Z" fill="none" stroke="#000" stroke-linecap="round" stroke-linejoin="round" stroke-width="1.5"></path><path d="M8.5,4.946c1.446,.872,4.6,2.776,6.011,3.628,.322,.194,.318,.661-.004,.856l-6.002,3.623c-.332,.2-.754-.04-.754-.429V5.377c0-.389,.418-.632,.75-.432Z" fill="none" stroke="#000" stroke-linecap="round" stroke-linejoin="round" stroke-width="1.5"></path><line x1="17.25" y1="13.75" x2="17.25" y2="4.25" fill="none" stroke="#000" stroke-linecap="round" stroke-linejoin="round" stroke-width="1.5" data-color="color-2"></line></svg>