<svg xmlns="http://www.w3.org/2000/svg" xmlns:xlink="http://www.w3.org/1999/xlink" x="0px" y="0px" width="32px" height="32px" viewBox="0 0 32 32"> <path d="M3 8H14" stroke="black" stroke-width="2" data-cap="butt" fill="none"></path> <path d="M18.5 18V16.5C18.5 15.1193 19.6193 14 21 14V14C22.3807 14 23.5 15.1193 23.5 16.5V18" stroke="black" stroke-width="2" stroke-linecap="square" fill="none"></path> <path d="M9 21H3H3.66667" stroke="#000" stroke-width="2" stroke-linecap="square" data-color="color-2" fill="none"></path> <path d="M17 29V22H25V29" stroke="#000" stroke-width="2" data-color="color-2" data-cap="butt" fill="none"></path> <path d="M13 22L13 29H29V22" stroke="black" stroke-width="2" stroke-linecap="square" fill="none"></path> <path d="M9 29H3V7.5C3 4.46243 5.46243 2 8.5 2V2C11.5376 2 14 4.46243 14 7.5V12.0091V11.6256" stroke="black" stroke-width="2" stroke-linecap="square" fill="none"></path> <path d="M28.1406 11.9995L21 9L13.8627 12L13 18L21 18L29 18L28.1406 11.9995Z" stroke="#000" stroke-width="2" stroke-miterlimit="10" data-color="color-2" data-cap="butt" fill="none"></path> </svg>