<svg xmlns="http://www.w3.org/2000/svg" xmlns:xlink="http://www.w3.org/1999/xlink" x="0px" y="0px" width="20px" height="20px" viewBox="0 0 20 20"><path d="m6,14.443v.557c0,1.105.895,2,2,2h5.25c.63,0,1.222-.296,1.6-.8l1.95-2.6c.267-.356.267-.844,0-1.2l-.243-.324" fill="none" stroke="#000" stroke-linecap="round" stroke-linejoin="round" stroke-width="2" data-color="color-2"></path><path d="m12,11h-5.25c-.63,0-1.222-.296-1.6-.8l-1.95-2.6c-.267-.356-.267-.844,0-1.2l1.95-2.6c.378-.504.97-.8,1.6-.8h5.25c1.105,0,2,.895,2,2v4c0,1.105-.895,2-2,2Z" stroke="#000" stroke-linecap="round" stroke-linejoin="round" stroke-width="2" fill="#000"></path></svg>