<svg xmlns="http://www.w3.org/2000/svg" xmlns:xlink="http://www.w3.org/1999/xlink" x="0px" y="0px" width="24px" height="24px" viewBox="0 0 24 24"> <path d="M9.68045 3L9.96356 3C9.96359 6 9.49998 8 6.99997 9L7.87874 12.515C7.94033 12.7613 7.754 13 7.50005 13V13" stroke="#000" stroke-width="2" stroke-miterlimit="10" stroke-linecap="square" data-color="color-2" fill="none"></path> <path d="M14.3315 3L14.0484 3C14.0484 6 14.512 8 17.012 9L16.1332 12.515C16.0716 12.7613 16.258 13 16.5119 13V13" stroke="#000" stroke-width="2" stroke-miterlimit="10" stroke-linecap="square" data-color="color-2" fill="none"></path> <path d="M3 3H21V13H3V3Z" stroke="black" stroke-width="2" data-cap="butt" fill="none"></path> <path d="M15 21L14 21" stroke="black" stroke-width="2" stroke-linecap="square" fill="none"></path> <path d="M10 21L9 21" stroke="black" stroke-width="2" stroke-linecap="square" fill="none"></path> <path d="M10 17L9 17" stroke="black" stroke-width="2" stroke-linecap="square" fill="none"></path> <path d="M15 17L14 17" stroke="black" stroke-width="2" stroke-linecap="square" fill="none"></path> <path d="M5 21L4 21" stroke="black" stroke-width="2" stroke-linecap="square" fill="none"></path> <path d="M20 21L19 21" stroke="black" stroke-width="2" stroke-linecap="square" fill="none"></path> </svg>