<svg xmlns="http://www.w3.org/2000/svg" xmlns:xlink="http://www.w3.org/1999/xlink" x="0px" y="0px" width="24px" height="24px" viewBox="0 0 24 24"> <path d="M17 7V5C17 3.89543 16.1046 3 15 3H5C3.89543 3 3 3.89543 3 5V15C3 16.1046 3.89543 17 5 17H7" stroke="#000" stroke-width="2" data-color="color-2" data-cap="butt" fill="none"></path> <rect x="7" y="7" width="14" height="14" rx="2" stroke="black" stroke-width="2" data-cap="butt" fill="none"></rect> <path d="M14 15.25C14.6904 15.25 15.25 14.6904 15.25 14C15.25 13.3096 14.6904 12.75 14 12.75C13.3096 12.75 12.75 13.3096 12.75 14C12.75 14.6904 13.3096 15.25 14 15.25Z" fill="#000" data-color="color-2" data-cap="butt" data-stroke="none"></path> <path d="M11.25 12.5C11.9404 12.5 12.5 11.9404 12.5 11.25C12.5 10.5596 11.9404 10 11.25 10C10.5596 10 10 10.5596 10 11.25C10 11.9404 10.5596 12.5 11.25 12.5Z" fill="#000" data-color="color-2" data-cap="butt" data-stroke="none"></path> <path d="M11.25 18C11.9404 18 12.5 17.4404 12.5 16.75C12.5 16.0596 11.9404 15.5 11.25 15.5C10.5596 15.5 10 16.0596 10 16.75C10 17.4404 10.5596 18 11.25 18Z" fill="#000" data-color="color-2" data-cap="butt" data-stroke="none"></path> <path d="M16.75 12.5C17.4404 12.5 18 11.9404 18 11.25C18 10.5596 17.4404 10 16.75 10C16.0596 10 15.5 10.5596 15.5 11.25C15.5 11.9404 16.0596 12.5 16.75 12.5Z" fill="#000" data-color="color-2" data-cap="butt" data-stroke="none"></path> <path d="M16.75 18C17.4404 18 18 17.4404 18 16.75C18 16.0596 17.4404 15.5 16.75 15.5C16.0596 15.5 15.5 16.0596 15.5 16.75C15.5 17.4404 16.0596 18 16.75 18Z" fill="#000" data-color="color-2" data-cap="butt" data-stroke="none"></path> </svg>