<svg xmlns="http://www.w3.org/2000/svg" xmlns:xlink="http://www.w3.org/1999/xlink" x="0px" y="0px" width="24px" height="24px" viewBox="0 0 24 24"> <path d="M12 13V7V7.3529" stroke="#000" stroke-width="2" stroke-linecap="square" data-color="color-2" fill="none"></path> <path d="M21 17H3" stroke="black" stroke-width="2" data-cap="butt" fill="none"></path> <path d="M12 7C13.6569 7 15 5.65685 15 4C15 2.34315 13.6569 1 12 1C10.3431 1 9 2.34315 9 4C9 5.65685 10.3431 7 12 7Z" stroke="#000" stroke-width="2" stroke-miterlimit="10" stroke-linecap="square" data-color="color-2" fill="none"></path> <path d="M8 11H5L3 17.1621L3 19C3 20.1046 3.89543 21 5 21H19C20.1046 21 21 20.1046 21 19V17.1621L19 11H16" stroke="black" stroke-width="2" stroke-linecap="square" fill="none"></path> </svg>