<svg xmlns="http://www.w3.org/2000/svg" xmlns:xlink="http://www.w3.org/1999/xlink" x="0px" y="0px" width="24px" height="24px" viewBox="0 0 24 24"> <path d="M6 22L18 22C19.1046 22 20 21.1046 20 20L20 4C20 2.89543 19.1046 2 18 2L6 2C4.89543 2 4 2.89543 4 4L4 20C4 21.1046 4.89543 22 6 22Z" stroke="black" stroke-width="2" stroke-miterlimit="10" stroke-linecap="square" fill="none"></path> <path d="M12 18C13.933 18 15.5 16.433 15.5 14.5C15.5 12.567 13.933 11 12 11C10.067 11 8.5 12.567 8.5 14.5C8.5 16.433 10.067 18 12 18Z" stroke="#000" stroke-width="2" stroke-miterlimit="10" data-color="color-2" data-cap="butt" fill="none"></path> <path d="M12 8C12.8284 8 13.5 7.32843 13.5 6.5C13.5 5.67157 12.8284 5 12 5C11.1716 5 10.5 5.67157 10.5 6.5C10.5 7.32843 11.1716 8 12 8Z" fill="#000" data-color="color-2" data-cap="butt" data-stroke="none"></path> </svg>