<svg xmlns="http://www.w3.org/2000/svg" xmlns:xlink="http://www.w3.org/1999/xlink" x="0px" y="0px" width="32px" height="32px" viewBox="0 0 32 32"> <path d="M16 18V10V10.4705" stroke="#000" stroke-width="2" stroke-linecap="square" data-color="color-2" fill="none"></path> <path d="M29 23H3" stroke="black" stroke-width="2" data-cap="butt" fill="none"></path> <path d="M16 10C18.2091 10 20 8.20914 20 6C20 3.79086 18.2091 2 16 2C13.7909 2 12 3.79086 12 6C12 8.20914 13.7909 10 16 10Z" stroke="#000" stroke-width="2" stroke-miterlimit="10" stroke-linecap="square" data-color="color-2" fill="none"></path> <path d="M12 14H5.88889L3 23.2432L3 26C3 27.6569 4.34315 29 6 29H26C27.6569 29 29 27.6569 29 26V23.2432L26.1111 14H20" stroke="black" stroke-width="2" stroke-linecap="square" fill="none"></path> <path d="M22 19H23" stroke="#000" stroke-width="2" stroke-linecap="square" data-color="color-2" fill="none"></path> </svg>