<svg xmlns="http://www.w3.org/2000/svg" xmlns:xlink="http://www.w3.org/1999/xlink" x="0px" y="0px" width="32px" height="32px" viewBox="0 0 32 32"> <path d="M28 8C25.2386 8 23 5.76142 23 3" stroke="black" stroke-width="2" stroke-miterlimit="10" data-cap="butt" fill="none"></path> <path d="M28 13C25.2386 13 23 15.2386 23 18" stroke="black" stroke-width="2" stroke-miterlimit="10" data-cap="butt" fill="none"></path> <path d="M4 8C6.76142 8 9 5.76142 9 3" stroke="black" stroke-width="2" stroke-miterlimit="10" data-cap="butt" fill="none"></path> <path d="M4 13C6.76142 13 9 15.2386 9 18" stroke="black" stroke-width="2" stroke-miterlimit="10" data-cap="butt" fill="none"></path> <path d="M16 22C16 24.2091 13.3137 26 10 26C6.68629 26 4 24.2091 4 22" stroke="#000" stroke-width="2" stroke-linecap="square" data-color="color-2" fill="none"></path> <path d="M28 22C28 24.2091 25.3137 26 22 26C18.6863 26 16 24.2091 16 22" stroke="#000" stroke-width="2" stroke-linecap="square" data-color="color-2" fill="none"></path> <path d="M16 29V22" stroke="#000" stroke-width="2" stroke-linecap="square" data-color="color-2" fill="none"></path> <path d="M28 29V22" stroke="#000" stroke-width="2" stroke-linecap="square" data-color="color-2" fill="none"></path> <path d="M4 29V22" stroke="#000" stroke-width="2" stroke-linecap="square" data-color="color-2" fill="none"></path> <rect x="4" y="3" width="24" height="15" stroke="black" stroke-width="2" data-cap="butt" fill="none"></rect> </svg>