<svg xmlns="http://www.w3.org/2000/svg" xmlns:xlink="http://www.w3.org/1999/xlink" x="0px" y="0px" width="12px" height="12px" viewBox="0 0 12 12"><circle cx="6" cy="6" r="2" fill="#000" stroke-width="0" data-color="color-2"></circle><path d="m9.25,1H2.75C1.233,1,0,2.233,0,3.75v4.5c0,1.517,1.233,2.75,2.75,2.75h6.5c1.517,0,2.75-1.233,2.75-2.75V3.75c0-1.517-1.233-2.75-2.75-2.75Zm-.894,8.5H3.644c-.272-1.051-1.093-1.872-2.144-2.144v-2.712c1.051-.272,1.872-1.093,2.144-2.144h4.712c.272,1.051,1.093,1.872,2.144,2.144v2.712c-1.051.272-1.872,1.093-2.144,2.144Z" stroke-width="0" fill="#000"></path></svg>