<svg xmlns="http://www.w3.org/2000/svg" xmlns:xlink="http://www.w3.org/1999/xlink" x="0px" y="0px" width="18px" height="18px" viewBox="0 0 18 18"><circle cx="9" cy="3.25" r="2.5" fill="#000"></circle><path d="M9,6.5c-2.481,0-4.5,2.019-4.5,4.5,0,.414,.336,.75,.75,.75h7.5c.414,0,.75-.336,.75-.75,0-2.481-2.019-4.5-4.5-4.5Z" fill="#000"></path><path d="M15.25,11H2.75c-.414,0-.75,.336-.75,.75s.336,.75,.75,.75h1.25v4.75c0,.414,.336,.75,.75,.75s.75-.336,.75-.75v-4.75h7v4.75c0,.414,.336,.75,.75,.75s.75-.336,.75-.75v-4.75h1.25c.414,0,.75-.336,.75-.75s-.336-.75-.75-.75Z" fill="#000" data-color="color-2"></path></svg>