<svg xmlns="http://www.w3.org/2000/svg" xmlns:xlink="http://www.w3.org/1999/xlink" x="0px" y="0px" width="18px" height="18px" viewBox="0 0 18 18"><path d="M11.75,5.5c-.414,0-.75-.336-.75-.75V2.25c0-.138-.112-.25-.25-.25h-3.5c-.138,0-.25,.112-.25,.25v2.5c0,.414-.336,.75-.75,.75s-.75-.336-.75-.75V2.25c0-.965,.785-1.75,1.75-1.75h3.5c.965,0,1.75,.785,1.75,1.75v2.5c0,.414-.336,.75-.75,.75Z" fill="#000" data-color="color-2"></path><rect x="1" y="4" width="16" height="12" rx="2.75" ry="2.75" fill="#000"></rect></svg>