<svg xmlns="http://www.w3.org/2000/svg" xmlns:xlink="http://www.w3.org/1999/xlink" x="0px" y="0px" width="18px" height="18px" viewBox="0 0 18 18"><path d="M9,17c-4.411,0-8-3.589-8-8S4.589,1,9,1c.414,0,.75,.336,.75,.75s-.336,.75-.75,.75c-3.584,0-6.5,2.916-6.5,6.5s2.916,6.5,6.5,6.5c.414,0,.75,.336,.75,.75s-.336,.75-.75,.75Z" fill="#000"></path><circle cx="14.127" cy="14.127" r=".75" fill="#000"></circle><circle cx="16.25" cy="9" r=".75" fill="#000"></circle><circle cx="14.127" cy="3.873" r=".75" fill="#000"></circle><circle cx="11.774" cy="15.698" r=".75" fill="#000"></circle><circle cx="15.698" cy="11.774" r=".75" fill="#000"></circle><circle cx="15.698" cy="6.226" r=".75" fill="#000"></circle><circle cx="11.774" cy="2.302" r=".75" fill="#000"></circle><path d="M9.25,13c-.414,0-.75-.336-.75-.75V7.529c-.392,.248-.868,.461-1.434,.569-.398,.073-.8-.189-.877-.596-.078-.407,.188-.8,.596-.878,1.203-.23,1.791-1.208,1.815-1.25,.172-.292,.522-.435,.845-.346,.327,.089,.555,.383,.555,.721v6.5c0,.414-.336,.75-.75,.75Z" fill="#000" data-color="color-2"></path></svg>