<svg xmlns="http://www.w3.org/2000/svg" xmlns:xlink="http://www.w3.org/1999/xlink" x="0px" y="0px" width="18px" height="18px" viewBox="0 0 18 18"><path d="M9,1C4.589,1,1,4.589,1,9s3.589,8,8,8,8-3.589,8-8S13.411,1,9,1Zm2.5,12H6.5c-.414,0-.75-.336-.75-.75s.336-.75,.75-.75h5c.414,0,.75,.336,.75,.75s-.336,.75-.75,.75Zm0-5h-1.75v1.75c0,.414-.336,.75-.75,.75s-.75-.336-.75-.75v-1.75h-1.75c-.414,0-.75-.336-.75-.75s.336-.75,.75-.75h1.75v-1.75c0-.414,.336-.75,.75-.75s.75,.336,.75,.75v1.75h1.75c.414,0,.75,.336,.75,.75s-.336,.75-.75,.75Z" fill="#000"></path></svg>