<svg xmlns="http://www.w3.org/2000/svg" xmlns:xlink="http://www.w3.org/1999/xlink" x="0px" y="0px" width="18px" height="18px" viewBox="0 0 18 18"><circle cx="9" cy="9" r="5" fill="#000"></circle><circle cx="9" cy="1.75" r=".75" fill="#000" data-color="color-2"></circle><path d="M13.596,3.343c-.293,.293-.293,.768,0,1.061,.293,.293,.768,.293,1.061,0s.293-.768,0-1.061c-.293-.293-.768-.293-1.061,0Z" fill="#000" data-color="color-2"></path><circle cx="16.25" cy="9" r=".75" fill="#000" data-color="color-2"></circle><path d="M13.596,13.596c-.293,.293-.293,.768,0,1.061,.293,.293,.768,.293,1.061,0,.293-.293,.293-.768,0-1.061s-.768-.293-1.061,0Z" fill="#000" data-color="color-2"></path><circle cx="9" cy="16.25" r=".75" fill="#000" data-color="color-2"></circle><path d="M3.343,13.596c-.293,.293-.293,.768,0,1.061,.293,.293,.768,.293,1.061,0,.293-.293,.293-.768,0-1.061s-.768-.293-1.061,0Z" fill="#000" data-color="color-2"></path><circle cx="1.75" cy="9" r=".75" fill="#000" data-color="color-2"></circle><path d="M4.404,4.404c.293-.293,.293-.768,0-1.061-.293-.293-.768-.293-1.061,0-.293,.293-.293,.768,0,1.061,.293,.293,.768,.293,1.061,0Z" fill="#000" data-color="color-2"></path><path d="M11.487,2.995c.383,.159,.821-.023,.98-.406,.159-.383-.023-.821-.406-.98-.383-.158-.821,.023-.98,.406-.159,.383,.023,.821,.406,.98Z" fill="#000" data-color="color-2"></path><path d="M15.985,6.918c.383-.158,.564-.597,.406-.98-.159-.383-.597-.564-.98-.406-.383,.158-.564,.597-.406,.98,.159,.383,.597,.564,.98,.406Z" fill="#000" data-color="color-2"></path><path d="M15.985,11.082c-.383-.158-.821,.023-.98,.406-.159,.383,.023,.822,.406,.98,.383,.159,.821-.023,.98-.406,.159-.383-.023-.822-.406-.98Z" fill="#000" data-color="color-2"></path><path d="M11.487,15.005c-.383,.158-.564,.597-.406,.98s.597,.564,.98,.406c.383-.159,.564-.597,.406-.98-.159-.383-.597-.564-.98-.406Z" fill="#000" data-color="color-2"></path><path d="M6.513,15.005c-.383-.158-.821,.023-.98,.406-.159,.383,.023,.821,.406,.98,.383,.158,.821-.023,.98-.406s-.023-.822-.406-.98Z" fill="#000" data-color="color-2"></path><path d="M2.015,11.082c-.383,.158-.564,.597-.406,.98,.159,.383,.597,.564,.98,.406,.383-.158,.564-.597,.406-.98-.159-.383-.597-.564-.98-.406Z" fill="#000" data-color="color-2"></path><path d="M2.589,5.533c-.383-.159-.821,.023-.98,.406-.159,.383,.023,.822,.406,.98s.821-.023,.98-.406c.159-.383-.023-.821-.406-.98Z" fill="#000" data-color="color-2"></path><path d="M6.513,2.995c.383-.158,.564-.597,.406-.98-.159-.383-.597-.564-.98-.406-.383,.159-.564,.597-.406,.98s.597,.564,.98,.406Z" fill="#000" data-color="color-2"></path></svg>