<svg xmlns="http://www.w3.org/2000/svg" xmlns:xlink="http://www.w3.org/1999/xlink" x="0px" y="0px" width="18px" height="18px" viewBox="0 0 18 18"><path d="M8.25,15.5H3.75c-.689,0-1.25-.561-1.25-1.25V3.75c0-.689,.561-1.25,1.25-1.25H12.25c.689,0,1.25,.561,1.25,1.25v2c0,.414,.336,.75,.75,.75s.75-.336,.75-.75V3.75c0-1.517-1.233-2.75-2.75-2.75H3.75c-1.517,0-2.75,1.233-2.75,2.75V14.25c0,1.517,1.233,2.75,2.75,2.75h4.5c.414,0,.75-.336,.75-.75s-.336-.75-.75-.75Z" fill="#000"></path><path d="M5.25,4.5h-.5c-.414,0-.75,.336-.75,.75s.336,.75,.75,.75h.5c.414,0,.75-.336,.75-.75s-.336-.75-.75-.75Z" fill="#000"></path><path d="M11.25,4.5h-3.5c-.414,0-.75,.336-.75,.75s.336,.75,.75,.75h3.5c.414,0,.75-.336,.75-.75s-.336-.75-.75-.75Z" fill="#000"></path><path d="M5.25,7.5h-.5c-.414,0-.75,.336-.75,.75s.336,.75,.75,.75h.5c.414,0,.75-.336,.75-.75s-.336-.75-.75-.75Z" fill="#000"></path><path d="M5.25,10.5h-.5c-.414,0-.75,.336-.75,.75s.336,.75,.75,.75h.5c.414,0,.75-.336,.75-.75s-.336-.75-.75-.75Z" fill="#000"></path><path d="M11.25,7.5h-3.5c-.414,0-.75,.336-.75,.75s.336,.75,.75,.75h3.5c.414,0,.75-.336,.75-.75s-.336-.75-.75-.75Z" fill="#000"></path><path d="M16.875,10.538c-.906-.72-1.879-.529-2.592-.388-.495,.097-.842,.102-1.331-.005-.687-.15-1.625-.354-2.604,.379-1.404,1.05-1.479,3.397-.171,5.46,1.142,1.799,2.496,1.549,3.146,1.428,.209-.038,.352-.038,.559,0,.197,.037,.459,.085,.759,.085,.692,0,1.593-.258,2.389-1.514,1.343-2.121,1.004-4.527-.155-5.446Z" fill="#000" data-color="color-2"></path><path d="M13.5,9.167c0,.184,.149,.333,.333,.333,.92,0,1.667-.746,1.667-1.667,0-.184-.149-.333-.333-.333-.92,0-1.667,.746-1.667,1.667Z" fill="#000" data-color="color-2"></path></svg>