<svg xmlns="http://www.w3.org/2000/svg" xmlns:xlink="http://www.w3.org/1999/xlink" x="0px" y="0px" width="32px" height="32px" viewBox="0 0 32 32"> <path d="M9 11L9 25L9 24" stroke="#000" stroke-width="2" stroke-miterlimit="10" stroke-linecap="square" data-color="color-2" fill="none"></path> <path d="M23 25L23 14" stroke="#000" stroke-width="2" stroke-miterlimit="10" data-color="color-2" data-cap="butt" fill="none"></path> <path d="M14 14L14 8C14 5.23858 11.7614 3 9 3C6.23858 3 4 5.23858 4 8L4 14L14 14Z" stroke="black" stroke-width="2" stroke-miterlimit="10" stroke-linecap="square" fill="none"></path> <path d="M23 4L23 14L23 13.0523" stroke="black" stroke-width="2" stroke-miterlimit="10" stroke-linecap="square" fill="none"></path> <path d="M18 4L18 12C18 13.1046 18.8954 14 20 14L23.3033 14L26 14C27.1046 14 28 13.1046 28 12L28 4" stroke="black" stroke-width="2" stroke-miterlimit="10" stroke-linecap="square" fill="none"></path> <path d="M6 29H12V28C12 26.3431 10.6569 25 9 25C7.34315 25 6 26.3431 6 28V29Z" stroke="#000" stroke-width="2" stroke-linecap="square" data-color="color-2" fill="none"></path> <path d="M20 29H26V28C26 26.3431 24.6569 25 23 25C21.3431 25 20 26.3431 20 28V29Z" stroke="#000" stroke-width="2" stroke-linecap="square" data-color="color-2" fill="none"></path> </svg>