<svg xmlns="http://www.w3.org/2000/svg" xmlns:xlink="http://www.w3.org/1999/xlink" x="0px" y="0px" width="32px" height="32px" viewBox="0 0 32 32"> <path d="M13 23L19 17" stroke="#000" stroke-width="2" data-color="color-2" data-cap="butt" fill="none"></path> <path d="M13 7L12 11" stroke="black" stroke-width="2" data-cap="butt" fill="none"></path> <path d="M19 7L20 11" stroke="black" stroke-width="2" data-cap="butt" fill="none"></path> <path d="M5.77626 24.3424L7.99997 11H24L26.2237 24.3424C26.6301 26.7805 24.7499 29 22.2782 29H9.72183C7.25008 29 5.36991 26.7805 5.77626 24.3424Z" stroke="black" stroke-width="2" stroke-miterlimit="10" stroke-linecap="square" fill="none"></path> <path d="M21 5H25" stroke="#000" stroke-width="2" stroke-linecap="square" data-color="color-2" fill="none"></path> <path d="M11 3H8C5.79086 3 4 4.79086 4 7V8" stroke="#000" stroke-width="2" stroke-linecap="square" data-color="color-2" fill="none"></path> <path d="M11 7V3H21V7H11Z" stroke="black" stroke-width="2" stroke-miterlimit="10" stroke-linecap="square" fill="none"></path> <path d="M16 24.5C18.4853 24.5 20.5 22.4853 20.5 20C20.5 17.5147 18.4853 15.5 16 15.5C13.5147 15.5 11.5 17.5147 11.5 20C11.5 22.4853 13.5147 24.5 16 24.5Z" stroke="#000" stroke-width="2" stroke-miterlimit="10" stroke-linecap="square" data-color="color-2" fill="none"></path> </svg>