<svg xmlns="http://www.w3.org/2000/svg" xmlns:xlink="http://www.w3.org/1999/xlink" x="0px" y="0px" width="32px" height="32px" viewBox="0 0 32 32"> <path d="M18.0587 19.2937L18 19L20 29H19.9494" stroke="black" stroke-width="2" stroke-linecap="square" fill="none"></path> <path d="M13.9469 19.2657L14 19L12 29H12.0545" stroke="black" stroke-width="2" stroke-linecap="square" fill="none"></path> <path d="M22.3333 19.5556L22 19L28 29H27.9537" stroke="black" stroke-width="2" stroke-linecap="square" fill="none"></path> <path d="M9.77771 19.3705L10 19L4 29H4.03986" stroke="black" stroke-width="2" stroke-linecap="square" fill="none"></path> <path d="M3 19H29" stroke="black" stroke-width="2" stroke-linecap="square" fill="none"></path> <path d="M2.99998 15L5 15" stroke="#000" stroke-width="2" stroke-linecap="square" data-color="color-2" fill="none"></path> <path d="M27 15L29 15" stroke="#000" stroke-width="2" stroke-linecap="square" data-color="color-2" fill="none"></path> <path d="M15.995 4.00501L15.995 2.00499" stroke="#000" stroke-width="2" stroke-linecap="square" data-color="color-2" fill="none"></path> <path d="M23.7746 7.2233L25.1888 5.80907" stroke="#000" stroke-width="2" stroke-linecap="square" data-color="color-2" fill="none"></path> <path d="M8.21824 7.22329L6.80402 5.80906" stroke="#000" stroke-width="2" stroke-linecap="square" data-color="color-2" fill="none"></path> <path d="M22 15C22 11.6863 19.3137 9 16 9C12.6863 9 10 11.6863 10 15" stroke="#000" stroke-width="2" stroke-linecap="square" data-color="color-2" fill="none"></path> </svg>