<svg xmlns="http://www.w3.org/2000/svg" xmlns:xlink="http://www.w3.org/1999/xlink" x="0px" y="0px" width="48px" height="48px" viewBox="0 0 48 48"> <path d="M18.5 35.5L29.5 24.5" stroke="#000" stroke-width="2" data-color="color-2" data-cap="butt" fill="none"></path> <path d="M32 5H33L37 6.5V10.5L33 12H32" stroke="#000" stroke-width="2" stroke-linecap="square" data-color="color-2" fill="none"></path> <path d="M19 12L18 17" stroke="black" stroke-width="2" data-cap="butt" fill="none"></path> <path d="M29 12L30 17" stroke="black" stroke-width="2" data-cap="butt" fill="none"></path> <path d="M8.01296 37.1473L11.4999 17H36.5001L39.987 37.1473C40.5161 40.2042 38.1626 43 35.0603 43H12.9397C9.83739 43 7.48389 40.2042 8.01296 37.1473Z" stroke="black" stroke-width="2" stroke-miterlimit="10" stroke-linecap="square" fill="none"></path> <path d="M16 5L13 5C9.68629 5 7 7.68629 7 11V12" stroke="#000" stroke-width="2" stroke-linecap="square" data-color="color-2" fill="none"></path> <path d="M16 12V5H32V12H16Z" stroke="black" stroke-width="2" stroke-miterlimit="10" stroke-linecap="square" fill="none"></path> <path d="M24 38C28.4183 38 32 34.4183 32 30C32 25.5817 28.4183 22 24 22C19.5817 22 16 25.5817 16 30C16 34.4183 19.5817 38 24 38Z" stroke="#000" stroke-width="2" stroke-miterlimit="10" stroke-linecap="square" data-color="color-2" fill="none"></path> <path d="M42.0015 8.50708L42.0085 8.50001" stroke="#000" stroke-width="2" stroke-linecap="square" data-color="color-2" fill="none"></path> <path d="M45 5.00708L45.0071 5.00001" stroke="#000" stroke-width="2" stroke-linecap="square" data-color="color-2" fill="none"></path> <path d="M45 12.0071L45.0071 12" stroke="#000" stroke-width="2" stroke-linecap="square" data-color="color-2" fill="none"></path> </svg>