<svg xmlns="http://www.w3.org/2000/svg" xmlns:xlink="http://www.w3.org/1999/xlink" x="0px" y="0px" width="20px" height="20px" viewBox="0 0 20 20"><path d="m13.816,15.864c-.492-1.652-2.005-2.864-3.816-2.864s-3.324,1.212-3.816,2.864" fill="none" stroke="#000" stroke-linecap="round" stroke-linejoin="round" stroke-width="2" data-color="color-2"></path><circle cx="10" cy="10" r="7" fill="none" stroke="#000" stroke-linecap="round" stroke-linejoin="round" stroke-width="2"></circle><path d="m12.722,8.052l-1.521-.752-.752-1.521c-.168-.341-.729-.341-.896,0l-.752,1.521-1.521.752c-.171.084-.278.258-.278.448s.107.364.278.448l1.521.752.752,1.521c.084.17.258.278.448.278s.364-.108.448-.278l.752-1.521,1.521-.752c.171-.084.278-.258.278-.448s-.107-.364-.278-.448Z" fill="#000" stroke-width="0" data-color="color-2"></path></svg>