<svg xmlns="http://www.w3.org/2000/svg" xmlns:xlink="http://www.w3.org/1999/xlink" x="0px" y="0px" width="20px" height="20px" viewBox="0 0 20 20"><circle cx="11.5" cy="3.5" r="2" fill="#000" stroke-width="0" data-color="color-2"></circle><path d="m9.161,12.269c-.184,0-.37-.029-.554-.09-.917-.306-1.413-1.296-1.107-2.213l.911-2.734c.306-.917,1.299-1.412,2.213-1.107.917.306,1.413,1.296,1.107,2.213l-.911,2.734c-.244.733-.927,1.197-1.66,1.197Z" stroke-width="0" fill="#000"></path><polyline points="10.038 7.032 7 7.25 5.5 9.25" fill="none" stroke="#000" stroke-linecap="round" stroke-linejoin="round" stroke-width="2"></polyline><polyline points="10.635 7.276 12.5 9.75 14.75 10" fill="none" stroke="#000" stroke-linecap="round" stroke-linejoin="round" stroke-width="2"></polyline><polyline points="8.614 11.037 11.25 13.75 11.75 17" fill="none" stroke="#000" stroke-linecap="round" stroke-linejoin="round" stroke-width="2"></polyline><polyline points="6.25 17.25 7.75 15 7.857 14.001" fill="none" stroke="#000" stroke-linecap="round" stroke-linejoin="round" stroke-width="2"></polyline></svg>