<svg xmlns="http://www.w3.org/2000/svg" xmlns:xlink="http://www.w3.org/1999/xlink" x="0px" y="0px" width="20px" height="20px" viewBox="0 0 20 20"><path d="m15,2h-6c-1.654,0-3,1.346-3,3v10c0,1.654,1.346,3,3,3h6c1.654,0,3-1.346,3-3V5c0-1.654-1.346-3-3-3Zm-3,4c1.105,0,2,.895,2,2s-.895,2-2,2-2-.895-2-2,.895-2,2-2Zm2.903,7.745c-.19.171-.429.255-.667.255-.274,0-.547-.112-.745-.333-.76-.848-2.223-.848-2.982,0-.37.413-1.002.447-1.412.078-.411-.368-.446-1-.078-1.412.759-.847,1.846-1.333,2.981-1.333s2.223.486,2.981,1.333c.368.411.333,1.043-.078,1.412Z" stroke-width="0" fill="#000"></path><line x1="3" y1="4" x2="3" y2="15" fill="none" stroke="#000" stroke-linecap="round" stroke-linejoin="round" stroke-width="2" data-color="color-2"></line></svg>