<svg xmlns="http://www.w3.org/2000/svg" xmlns:xlink="http://www.w3.org/1999/xlink" x="0px" y="0px" width="20px" height="20px" viewBox="0 0 20 20"><path d="m12.995,5.95c-.027-1.633-1.355-2.95-2.995-2.95s-2.968,1.317-2.995,2.95c.162.027.325.05.495.05,1.045,0,1.963-.535,2.5-1.345.537.81,1.455,1.345,2.5,1.345.17,0,.333-.023.495-.05Z" fill="#000" stroke-width="0" data-color="color-2"></path><circle cx="10" cy="6" r="3" fill="none" stroke="#000" stroke-linecap="round" stroke-linejoin="round" stroke-width="2" data-color="color-2"></circle><path d="m4,15.393c1.225-2.033,3.454-3.393,6-3.393s4.775,1.36,6,3.393" fill="none" stroke="#000" stroke-linecap="round" stroke-linejoin="round" stroke-width="2"></path><path d="m14,8.5h0c0-.276.224-.5.5-.5h0c1.38,0,2.5,1.12,2.5,2.5h0c0,.276-.224.5-.5.5h0c-1.38,0-2.5-1.12-2.5-2.5Z" fill="#000" stroke-width="0" data-color="color-2"></path></svg>