<svg xmlns="http://www.w3.org/2000/svg" xmlns:xlink="http://www.w3.org/1999/xlink" x="0px" y="0px" width="20px" height="20px" viewBox="0 0 20 20"><path d="m14,14v-1.5c0-.828-.672-1.5-1.5-1.5h0c-.828,0-1.5.672-1.5,1.5v1.5c0,1.657,1.343,3,3,3h0c1.657,0,3-1.343,3-3v-1" fill="none" stroke="#000" stroke-linecap="round" stroke-linejoin="round" stroke-width="2" data-color="color-2"></path><path d="m16.975,9.502c-.257-3.632-3.277-6.502-6.975-6.502-3.866,0-7,3.134-7,7,0,1.376.403,2.655,1.088,3.737l-1.088,3.263,3.263-1.088c.566.358,1.188.634,1.847.821" fill="none" stroke="#000" stroke-linecap="round" stroke-linejoin="round" stroke-width="2"></path></svg>