<svg xmlns="http://www.w3.org/2000/svg" xmlns:xlink="http://www.w3.org/1999/xlink" x="0px" y="0px" width="20px" height="20px" viewBox="0 0 20 20"><path d="m13.475,8.439l-1.414-1.414c-.122-.123-.3-.172-.468-.133-.169.04-.305.164-.359.329l-.707,2.121c-.06.18-.013.378.121.512.095.095.223.146.354.146.053,0,.106-.008.158-.026l2.121-.707c.165-.055.289-.19.329-.359.04-.168-.011-.346-.133-.468Z" fill="#000" stroke-width="0" data-color="color-2"></path><circle cx="6.5" cy="9" r="2" fill="none" stroke="#000" stroke-linecap="round" stroke-linejoin="round" stroke-width="2"></circle><path d="m2.626,17c.444-1.725,2.01-3,3.874-3s3.43,1.275,3.874,3" fill="none" stroke="#000" stroke-linecap="round" stroke-linejoin="round" stroke-width="2"></path><circle cx="14.5" cy="6" r="3" fill="#000" stroke="#000" stroke-linecap="round" stroke-linejoin="round" stroke-width="2" data-color="color-2"></circle></svg>