<svg xmlns="http://www.w3.org/2000/svg" xmlns:xlink="http://www.w3.org/1999/xlink" x="0px" y="0px" width="18px" height="18px" viewBox="0 0 18 18"><path d="M7.25,7.75V3.29c0-.179,.096-.345,.252-.434l2.5-1.429c.333-.19,.748,.05,.748,.434V7.75" fill="none" stroke="#000" stroke-linecap="round" stroke-linejoin="round" stroke-width="1.5" data-color="color-2"></path><path d="M5.75,10.75v-2c0-.552,.448-1,1-1h4.5c.552,0,1,.448,1,1v2" fill="none" stroke="#000" stroke-linecap="round" stroke-linejoin="round" stroke-width="1.5"></path><path d="M5.75,10.75h6.5c.552,0,1,.448,1,1v2.5c0,1.104-.896,2-2,2H6.75c-1.104,0-2-.896-2-2v-2.5c0-.552,.448-1,1-1Z" fill="none" stroke="#000" stroke-linecap="round" stroke-linejoin="round" stroke-width="1.5"></path></svg>