<svg xmlns="http://www.w3.org/2000/svg" xmlns:xlink="http://www.w3.org/1999/xlink" x="0px" y="0px" width="18px" height="18px" viewBox="0 0 18 18"><circle cx="14.25" cy="3.75" r=".75" fill="#000" data-color="color-2" data-stroke="none"></circle><circle cx="16.75" cy="2.25" r=".75" fill="#000" data-color="color-2" data-stroke="none"></circle><circle cx="16.75" cy="5.25" r=".75" fill="#000" data-color="color-2" data-stroke="none"></circle><path d="M7.75,6.969V2.75c0-.552,.448-1,1-1h1.5c.552,0,1,.448,1,1V6.969" fill="none" stroke="#000" stroke-linecap="round" stroke-linejoin="round" stroke-width="1.5" data-color="color-2"></path><path d="M6.439,16.25h6.121c1.321-.953,2.189-2.496,2.189-4.25,0-2.899-2.35-5.25-5.25-5.25s-5.25,2.351-5.25,5.25c0,1.754,.868,3.297,2.189,4.25Z" fill="none" stroke="#000" stroke-linecap="round" stroke-linejoin="round" stroke-width="1.5"></path><line x1="4.25" y1="11.75" x2="14.75" y2="11.75" fill="none" stroke="#000" stroke-linecap="round" stroke-linejoin="round" stroke-width="1.5"></line><path d="M1.815,9c.996-2.542,3.218-4.474,5.935-5.063" fill="none" stroke="#000" stroke-linecap="round" stroke-linejoin="round" stroke-width="1.5" data-color="color-2"></path></svg>