<svg xmlns="http://www.w3.org/2000/svg" xmlns:xlink="http://www.w3.org/1999/xlink" x="0px" y="0px" width="18px" height="18px" viewBox="0 0 18 18"><path d="M1.75 11.5C1.75 12.743 4.101 13.75 7 13.75" stroke="#000" stroke-width="1.5" stroke-linecap="round" stroke-linejoin="round" data-color="color-2" fill="none"></path> <path d="M7 11.25C9.899 11.25 12.25 10.2426 12.25 9C12.25 7.7574 9.899 6.75 7 6.75C4.101 6.75 1.75 7.7574 1.75 9C1.75 10.2426 4.101 11.25 7 11.25Z" stroke="black" stroke-width="1.5" stroke-linecap="round" stroke-linejoin="round" fill="none"></path> <path d="M1.75 9V14C1.75 15.243 4.101 16.25 7 16.25C9.899 16.25 12.25 15.243 12.25 14V9" stroke="black" stroke-width="1.5" stroke-linecap="round" stroke-linejoin="round" fill="none"></path> <path d="M15.2501 10.0751C15.8781 9.2111 16.25 8.1503 16.25 7C16.25 4.101 13.899 1.75 11 1.75C9.33113 1.75 7.85583 2.5358 6.89673 3.7503" stroke="#000" stroke-width="1.5" stroke-linecap="round" stroke-linejoin="round" data-color="color-2" fill="none"></path></svg>