<svg xmlns="http://www.w3.org/2000/svg" xmlns:xlink="http://www.w3.org/1999/xlink" x="0px" y="0px" width="18px" height="18px" viewBox="0 0 18 18"><path d="M7.25 1.75V4.75" stroke="#000" stroke-width="1.5" stroke-linecap="round" stroke-linejoin="round" data-color="color-2" fill="none"></path> <path d="M10.75 1.75V4.75" stroke="#000" stroke-width="1.5" stroke-linecap="round" stroke-linejoin="round" data-color="color-2" fill="none"></path> <path d="M14.25 4.75H3.75" stroke="#000" stroke-width="1.5" stroke-linecap="round" stroke-linejoin="round" data-color="color-2" fill="none"></path> <path d="M14.25 4.25L14.707 15.208C14.731 15.776 14.276 16.25 13.708 16.25H11.33C10.849 16.25 10.436 15.907 10.347 15.434L9.00002 8.25L7.65302 15.434C7.56402 15.907 7.15102 16.25 6.67002 16.25H4.29203C3.72303 16.25 3.26902 15.776 3.29302 15.208L3.75002 4.25V2.75C3.75002 2.198 4.19802 1.75 4.75002 1.75H13.25C13.802 1.75 14.25 2.198 14.25 2.75V4.25Z" stroke="black" stroke-width="1.5" stroke-linecap="round" stroke-linejoin="round" fill="none"></path></svg>