<svg xmlns="http://www.w3.org/2000/svg" xmlns:xlink="http://www.w3.org/1999/xlink" x="0px" y="0px" width="24px" height="24px" viewBox="0 0 24 24"> <path fill-rule="evenodd" clip-rule="evenodd" d="M6 3C6 1.89543 6.89543 1 8 1H12C13.1046 1 14 1.89543 14 3V7H12V3H8V7H6V3Z" fill="#000" data-color="color-2"></path> <path fill-rule="evenodd" clip-rule="evenodd" d="M6 19V23H4V19H6Z" fill="#000" data-color="color-2"></path> <path fill-rule="evenodd" clip-rule="evenodd" d="M18 19V23H16V19H18Z" fill="#000" data-color="color-2"></path> <path fill-rule="evenodd" clip-rule="evenodd" d="M20 2H24V4H22V18C22 19.6569 20.6569 21 19 21H2V19H19C19.5523 19 20 18.5523 20 18V2Z" fill="#000" data-color="color-2"></path> <path d="M11 11H18V14C18 15.6569 16.6569 17 15 17H5C3.34315 17 2 15.6569 2 14V11H9V13H11V11Z" fill="black"></path> <path d="M2 8C2 6.34315 3.34315 5 5 5H15C16.6569 5 18 6.34315 18 8V9H2V8Z" fill="black"></path> </svg>