<svg xmlns="http://www.w3.org/2000/svg" xmlns:xlink="http://www.w3.org/1999/xlink" x="0px" y="0px" width="24px" height="24px" viewBox="0 0 24 24"> <path d="M21 22H19V15H21V22Z" fill="black"></path> <path d="M17 22H15V15H17V22Z" fill="black"></path> <path fill-rule="evenodd" clip-rule="evenodd" d="M12 1V3.78353L8 1.32639L4 3.78353V1H2V13H14V1H12ZM8 10C9.10457 10 10 9.10457 10 8C10 6.89543 9.10457 6 8 6C6.89543 6 6 6.89543 6 8C6 9.10457 6.89543 10 8 10Z" fill="black"></path> <path fill-rule="evenodd" clip-rule="evenodd" d="M19 13V23H17V13H19Z" fill="black"></path> <path fill-rule="evenodd" clip-rule="evenodd" d="M23 13V23H15V21H21V13H23Z" fill="black"></path> <path d="M3 15H13V23H9V19H7V23H3V15Z" fill="#000" data-color="color-2"></path> </svg>