<svg xmlns="http://www.w3.org/2000/svg" xmlns:xlink="http://www.w3.org/1999/xlink" x="0px" y="0px" width="24px" height="24px" viewBox="0 0 24 24"> <path fill-rule="evenodd" clip-rule="evenodd" d="M13 0V4H11V0H13Z" fill="#000" data-color="color-2"></path> <path fill-rule="evenodd" clip-rule="evenodd" d="M20 12H23V23H20V12Z" fill="#000" data-color="color-2"></path> <path fill-rule="evenodd" clip-rule="evenodd" d="M1 12H4V23H1V12Z" fill="#000" data-color="color-2"></path> <path fill-rule="evenodd" clip-rule="evenodd" d="M6 13C6 9.68629 8.68629 7 12 7C15.3137 7 18 9.68629 18 13V23H6V13ZM11 21H13V18H11V21ZM9 16V14H15V16H9ZM15 10H9V12H15V10Z" fill="black"></path> <path d="M7.00616 6.7497C8.37481 5.65475 10.1109 5 12 5C13.8891 5 15.6252 5.65475 16.9938 6.7497C16.8634 4.10456 14.6775 2 12 2C9.32251 2 7.13656 4.10456 7.00616 6.7497Z" fill="#000" data-color="color-2"></path> </svg>