<svg xmlns="http://www.w3.org/2000/svg" xmlns:xlink="http://www.w3.org/1999/xlink" x="0px" y="0px" width="32px" height="32px" viewBox="0 0 32 32"> <path fill-rule="evenodd" clip-rule="evenodd" d="M17 1V4H15V1H17Z" fill="black"></path> <path fill-rule="evenodd" clip-rule="evenodd" d="M22 18V30H20V18H22Z" fill="#000" data-color="color-2"></path> <path d="M5 18H7V30H5V18Z" fill="#000" data-color="color-2"></path> <path fill-rule="evenodd" clip-rule="evenodd" d="M27 18V30H25V18H27Z" fill="#000" data-color="color-2"></path> <path fill-rule="evenodd" clip-rule="evenodd" d="M12 18V30H10V18H12Z" fill="#000" data-color="color-2"></path> <path fill-rule="evenodd" clip-rule="evenodd" d="M17 18V30H15V18H17Z" fill="#000" data-color="color-2"></path> <path fill-rule="evenodd" clip-rule="evenodd" d="M29 28L3 28L3 30L29 30L29 28Z" fill="black"></path> <path fill-rule="evenodd" clip-rule="evenodd" d="M29 14L3 14L3 16L29 16L29 14Z" fill="black"></path> <path d="M4.37805 12C5.71018 6.82432 10.4085 3 16 3C21.5915 3 26.2898 6.82432 27.6219 12L4.37805 12Z" fill="black"></path> </svg>