<svg xmlns="http://www.w3.org/2000/svg" xmlns:xlink="http://www.w3.org/1999/xlink" x="0px" y="0px" width="32px" height="32px" viewBox="0 0 32 32"> <path d="M19 2.32227C22.897 3.17309 26.1873 5.64697 28.127 9H19V2.32227Z" fill="black"></path> <path d="M14 11V16H10V11H14Z" fill="#000" data-color="color-2"></path> <path d="M30 23H26V18H30V23Z" fill="black"></path> <path d="M6 23H2V18H6V23Z" fill="black"></path> <path d="M30 30H28V25H30V30Z" fill="#000" data-color="color-2"></path> <path d="M29.0801 11C29.674 12.5529 30 14.2383 30 16H23V11H29.0801Z" fill="black"></path> <path d="M21 16H16V11H21V16Z" fill="#000" data-color="color-2"></path> <path d="M8 16H2C2 14.2383 2.32597 12.5529 2.91992 11H8V16Z" fill="black"></path> <path d="M11 9H3.87305C5.47078 6.23802 7.98514 4.07308 11 2.91992V9Z" fill="black"></path> <path d="M16 2C16.3363 2 16.6697 2.01282 17 2.03613V9H13V2.32227C13.9665 2.11126 14.9702 2 16 2Z" fill="black"></path> <path d="M24 23H21V22C21 20.3643 20.2143 18.9122 19 18H24V23Z" fill="black"></path> <path d="M26 30H21V25H26V30Z" fill="#000" data-color="color-2"></path> <path d="M11 30H2V25L11 25V30Z" fill="black"></path> <path d="M13 18C11.7857 18.9122 11 20.3643 11 22V23H8V18H13Z" fill="#000" data-color="color-2"></path> <path d="M16 4C22.6274 4 28 9.37258 28 16V28H21V30H30V16C30 8.26801 23.732 2 16 2C8.26801 2 2 8.26801 2 16V30H11V28H4V16C4 9.37258 9.37258 4 16 4Z" fill="black"></path> </svg>