<svg xmlns="http://www.w3.org/2000/svg" xmlns:xlink="http://www.w3.org/1999/xlink" x="0px" y="0px" width="48px" height="48px" viewBox="0 0 48 48"> <path d="M13 13.5V16H7.5H2V13.5L7.5 13L13 13.5Z" fill="black"></path> <path d="M35 13.5V16H40.5H46V13.5L40.5 13L35 13.5Z" fill="black"></path> <path d="M22.5 13H25.5V18H22.5L22.5 13Z" fill="#000" data-color="color-2"></path> <path fill-rule="evenodd" clip-rule="evenodd" d="M36 44H27V38C27 36.3431 25.6569 35 24 35C22.3431 35 21 36.3431 21 38V44H12V30H36V44ZM15 33V37H18V33H15ZM30 37H33V33H30V37Z" fill="black"></path> <path d="M9 27V44H4V27H9Z" fill="black"></path> <path d="M39 27V44H44V27H39Z" fill="black"></path> <path d="M24 17C18.054 17 13.118 21.3246 12.1659 27H35.8341C34.8819 21.3246 29.946 17 24 17Z" fill="#000" data-color="color-2"></path> <path d="M43.4717 7.70801C43.8188 8.40229 44 9.16811 44 9.94434V24H38.5C38.1932 23.1325 37.5 22 37 21.5156V9.94434C37 9.16811 37.1812 8.40228 37.5283 7.70801L40.5 1.76367L43.4717 7.70801Z" fill="black"></path> <path d="M4.52832 7.70801C4.18118 8.40229 4 9.16811 4 9.94434V24H9.5C9.80675 23.1325 10.5 22 11 21.5156V9.94434C11 9.16811 10.8188 8.40228 10.4717 7.70801L7.5 1.76367L4.52832 7.70801Z" fill="black"></path> </svg>