<svg xmlns="http://www.w3.org/2000/svg" xmlns:xlink="http://www.w3.org/1999/xlink" x="0px" y="0px" width="48px" height="48px" viewBox="0 0 48 48"> <path d="M32.2061 35.5L20.3555 43H19V35.5H32.2061Z" fill="#000" data-color="color-2"></path> <path d="M36.9482 36.0488C36.7499 39.4714 35.9579 42.7842 34.752 46H21.2246L36.9482 36.0488Z" fill="#000" data-color="color-2"></path> <path d="M26.3486 16.5L19 22.3789V16.5H26.3486Z" fill="#000" data-color="color-2"></path> <path d="M16 13.5V16.5H10V13.5H16Z" fill="black"></path> <path d="M13 1H16V45H11L13 1Z" fill="black"></path> <path d="M42 43V46H8V43H42Z" fill="black"></path> <path d="M20.4902 6.40723C23.7846 8.2612 26.7038 10.6686 29.1699 13.5H19V5.56836L20.4902 6.40723Z" fill="black"></path> <path d="M30.1152 25.5L19 32.3545V25.5H30.1152Z" fill="#000" data-color="color-2"></path> <path d="M35.7314 25.5605C36.3756 27.8149 36.7761 30.1407 36.9268 32.5H24.4785L35.7314 25.5605Z" fill="#000" data-color="color-2"></path> <path d="M34.6875 22.5H23.6514L31.3779 16.3184C32.7219 18.2307 33.8218 20.331 34.6875 22.5Z" fill="#000" data-color="color-2"></path> </svg>