<svg xmlns="http://www.w3.org/2000/svg" xmlns:xlink="http://www.w3.org/1999/xlink" x="0px" y="0px" width="24px" height="24px" viewBox="0 0 24 24"> <path d="M6.8567 16.0982C5.03778 17.3796 4.13402 19.3531 4.01388 21.5001C3.99845 21.7759 4.22386 22 4.5 22H19.5C19.7761 22 20.0016 21.7759 19.9861 21.5001C19.866 19.3531 18.9622 17.3796 17.1433 16.0982" stroke="#000" stroke-width="2" data-color="color-2" data-cap="butt" fill="none"></path> <path d="M4 10C4 14.4183 7.58172 18 12 18C16.4183 18 20 14.4183 20 10C20 5.58172 16.4183 2 12 2C7.58172 2 4 5.58172 4 10Z" stroke="black" stroke-width="2" stroke-miterlimit="10" stroke-linecap="square" fill="none"></path> <path d="M7 10C7 12.2091 8.79086 14 11 14C13.2091 14 15 12.2091 15 10C15 7.79086 13.2091 6 11 6C8.79086 6 7 7.79086 7 10Z" stroke="#000" stroke-width="2" stroke-miterlimit="10" stroke-linecap="square" data-color="color-2" fill="none"></path> <path d="M10 10C10 10.5523 10.4477 11 11 11C11.5523 11 12 10.5523 12 10C12 9.44772 11.5523 9 11 9C10.4477 9 10 9.44772 10 10Z" fill="black" data-cap="butt" data-stroke="none"></path> </svg>