<svg xmlns="http://www.w3.org/2000/svg" xmlns:xlink="http://www.w3.org/1999/xlink" x="0px" y="0px" width="24px" height="24px" viewBox="0 0 24 24"><path d="M12 22L18 14.5L22 18.5" stroke="black" stroke-width="2" stroke-miterlimit="10" data-cap="butt" fill="none"></path> <path d="M13 9H11C9.89543 9 9 9.89543 9 11L9 20C9 21.1046 9.89543 22 11 22H20C21.1046 22 22 21.1046 22 20V12" stroke="black" stroke-width="2" stroke-miterlimit="10" stroke-linecap="square" fill="none"></path> <path d="M13.5 14C13.7761 14 14 13.7761 14 13.5C14 13.2239 13.7761 13 13.5 13C13.2239 13 13 13.2239 13 13.5C13 13.7761 13.2239 14 13.5 14Z" fill="black" stroke="black" stroke-width="2" stroke-linecap="square"></path> <path d="M5 11V2" stroke="black" stroke-width="2" stroke-linecap="square" fill="none"></path> <path d="M1 2H9" stroke="black" stroke-width="2" stroke-linecap="square" fill="none"></path> <path d="M3.25 15.75L2.5 14L1.75 15.75L0 16.5L1.75 17.25L2.5 19L3.25 17.25L5 16.5L3.25 15.75Z" fill="#000" data-color="color-2" data-cap="butt" data-stroke="none"></path> <path d="M4.95 21.05L4.5 20L4.05 21.05L3 21.5L4.05 21.95L4.5 23L4.95 21.95L6 21.5L4.95 21.05Z" fill="#000" data-color="color-2" data-cap="butt" data-stroke="none"></path> <path d="M13 2H15.5C17.1569 2 18.5 3.34315 18.5 5V9V8.5" stroke="#000" stroke-width="2" stroke-linecap="square" data-color="color-2" fill="none"></path> <path d="M16 6.50001L18.5 9.00001L21 6.50001" stroke="#000" stroke-width="2" stroke-miterlimit="10" stroke-linecap="square" data-color="color-2" fill="none"></path></svg>