<svg xmlns="http://www.w3.org/2000/svg" xmlns:xlink="http://www.w3.org/1999/xlink" x="0px" y="0px" width="24px" height="24px" viewBox="0 0 24 24"> <path d="M10 3L7 3" stroke="black" stroke-width="2" stroke-miterlimit="10" stroke-linecap="square" fill="none"></path> <path d="M14 18L19 18L19 13C19 11.3431 20.3431 10 22 10L23 10L23 6L14 6" stroke="#000" stroke-width="2" stroke-miterlimit="10" stroke-linecap="square" data-color="color-2" fill="none"></path> <path d="M4.5 20L12.5 20C13.3284 20 14 19.3284 14 18.5L14 5.5C14 4.67157 13.3284 4 12.5 4L4.5 4C3.67157 4 3 4.67157 3 5.5L3 18.5C3 19.3284 3.67157 20 4.5 20Z" stroke="black" stroke-width="2" stroke-miterlimit="10" stroke-linecap="square" fill="none"></path> <path d="M7 8L7 16" stroke="#000" stroke-width="2" stroke-miterlimit="10" stroke-linecap="square" data-color="color-2" fill="none"></path> </svg>