<svg xmlns="http://www.w3.org/2000/svg" xmlns:xlink="http://www.w3.org/1999/xlink" x="0px" y="0px" width="24px" height="24px" viewBox="0 0 24 24"> <path d="M15 21V17" stroke="black" stroke-width="2" stroke-linecap="square" fill="none"></path> <path d="M15 7V3" stroke="black" stroke-width="2" stroke-linecap="square" fill="none"></path> <path d="M3 7L21 7" stroke="black" stroke-width="2" stroke-linecap="square" fill="none"></path> <path d="M3 17L21 17" stroke="black" stroke-width="2" stroke-linecap="square" fill="none"></path> <path d="M9 21V17" stroke="black" stroke-width="2" stroke-linecap="square" fill="none"></path> <path d="M9 7V3" stroke="black" stroke-width="2" stroke-linecap="square" fill="none"></path> <path d="M21 19L21 5C21 3.89543 20.1046 3 19 3L5 3C3.89543 3 3 3.89543 3 5L3 19C3 20.1046 3.89543 21 5 21L19 21C20.1046 21 21 20.1046 21 19Z" stroke="black" stroke-width="2" stroke-miterlimit="10" stroke-linecap="square" fill="none"></path> <path d="M10.5 9L15.5 12L10.5 15V9Z" fill="#000" data-color="color-2" data-cap="butt" data-stroke="none"></path> </svg>