<svg xmlns="http://www.w3.org/2000/svg" xmlns:xlink="http://www.w3.org/1999/xlink" x="0px" y="0px" width="32px" height="32px" viewBox="0 0 32 32"><path d="M16 22C19.3137 22 22 19.3137 22 16C22 12.6863 19.3137 10 16 10C12.6863 10 10 12.6863 10 16C10 19.3137 12.6863 22 16 22Z" stroke="#000" stroke-width="2" stroke-miterlimit="10" stroke-linecap="square" data-color="color-2" fill="none"></path> <path d="M8.5 10C9.32843 10 10 9.32843 10 8.5C10 7.67157 9.32843 7 8.5 7C7.67157 7 7 7.67157 7 8.5C7 9.32843 7.67157 10 8.5 10Z" fill="#000" data-color="color-2" data-cap="butt" data-stroke="none"></path> <path d="M26 3L6 3C4.34315 3 3 4.34315 3 6L3 26C3 27.6569 4.34315 29 6 29L26 29C27.6569 29 29 27.6569 29 26L29 6C29 4.34315 27.6569 3 26 3Z" stroke="black" stroke-width="2" stroke-miterlimit="10" stroke-linecap="square" fill="none"></path></svg>