<svg xmlns="http://www.w3.org/2000/svg" xmlns:xlink="http://www.w3.org/1999/xlink" x="0px" y="0px" width="32px" height="32px" viewBox="0 0 32 32"><path d="M7.15997 29C8.04114 24.9982 11.6643 22 16 22C20.3357 22 23.9589 24.9982 24.84 29" stroke="black" stroke-width="2" stroke-miterlimit="10" fill="none" data-cap="butt"></path> <path d="M16 18.5C18.2091 18.5 20 16.7091 20 14.5C20 12.2909 18.2091 10.5 16 10.5C13.7909 10.5 12 12.2909 12 14.5C12 16.7091 13.7909 18.5 16 18.5Z" stroke="black" stroke-width="2" stroke-miterlimit="10" fill="none" data-cap="butt"></path> <path d="M17 3L6 3C4.34315 3 3 4.34315 3 6L3 26C3 27.6569 4.34315 29 6 29L26 29C27.6569 29 29 27.6569 29 26L29 15" stroke="black" stroke-width="2" stroke-miterlimit="10" stroke-linecap="square" fill="none"></path> <path d="M27.4001 4.60005L25.4501 0.0500488L23.5001 4.60005L18.9501 6.55005L23.5001 8.50005L25.4501 13.05L27.4001 8.50005L31.9501 6.55005L27.4001 4.60005Z" fill="#000" data-color="color-2" data-stroke="none" data-cap="butt"></path></svg>