<svg xmlns="http://www.w3.org/2000/svg" xmlns:xlink="http://www.w3.org/1999/xlink" x="0px" y="0px" width="32px" height="32px" viewBox="0 0 32 32"> <path d="M16 17C17.6569 17 19 15.6569 19 14C19 12.3431 17.6569 11 16 11C14.3431 11 13 12.3431 13 14C13 15.6569 14.3431 17 16 17Z" stroke="#000" stroke-width="2" stroke-miterlimit="10" data-color="color-2" data-cap="butt" fill="none"></path> <path d="M9.68139 25C10.7451 22.3515 13.1734 20.5 16 20.5C18.8266 20.5 21.2549 22.3515 22.3186 25" stroke="#000" stroke-width="2" stroke-miterlimit="10" data-color="color-2" data-cap="butt" fill="none"></path> <path d="M5 25L27 25C28.6569 25 30 23.6569 30 22L30 10C30 8.34315 28.6569 7 27 7L5 7C3.34315 7 2 8.34314 2 10L2 22C2 23.6569 3.34315 25 5 25Z" stroke="black" stroke-width="2" stroke-miterlimit="10" stroke-linecap="square" fill="none"></path> <path d="M6.5 14.25L6.5 17.75C6.5 17.8881 6.38807 18 6.25 18C6.11193 18 6 17.8881 6 17.75L6 14.25C6 14.1119 6.11193 14 6.25 14C6.38807 14 6.5 14.1119 6.5 14.25Z" stroke="black" stroke-width="2" stroke-miterlimit="10" stroke-linecap="square" fill="none"></path> <path d="M25.5 12C25.7761 12 26 11.7761 26 11.5C26 11.2239 25.7761 11 25.5 11C25.2239 11 25 11.2239 25 11.5C25 11.7761 25.2239 12 25.5 12Z" fill="#000" stroke="#000" stroke-width="2" data-color="color-2" data-cap="butt"></path> </svg>