<svg xmlns="http://www.w3.org/2000/svg" xmlns:xlink="http://www.w3.org/1999/xlink" x="0px" y="0px" width="32px" height="32px" viewBox="0 0 32 32"> <path d="M22 7L6 7C4.34315 7 3 8.34314 3 10L3 26C3 27.6569 4.34315 29 6 29L22 29C23.6569 29 25 27.6569 25 26L25 10C25 8.34315 23.6569 7 22 7Z" stroke="black" stroke-width="2" stroke-miterlimit="10" stroke-linecap="square" fill="none"></path> <path d="M9 3L23 3C26.3137 3 29 5.68629 29 9L29 23" stroke="#000" stroke-width="2" stroke-miterlimit="10" stroke-linecap="square" data-color="color-2" fill="none"></path> <path d="M7 23L21 23L21 11L7 11L7 23Z" stroke="black" stroke-width="2" stroke-miterlimit="10" stroke-linecap="square" fill="none"></path> </svg>