<svg xmlns="http://www.w3.org/2000/svg" xmlns:xlink="http://www.w3.org/1999/xlink" x="0px" y="0px" width="32px" height="32px" viewBox="0 0 32 32"> <path d="M12 27L12 5" stroke="#000" stroke-width="2" stroke-miterlimit="10" stroke-linecap="square" data-color="color-2" fill="none"></path> <path d="M3 27L29 27L29 21L28.7873 20.9468C26.5615 20.3904 25 18.3905 25 16.0961L25 15.8995C25 13.5498 26.6361 11.5171 28.9315 11.015L29 11L29 5L3 5L3 11L3.55168 11.1238C5.83318 11.636 7.45454 13.6617 7.45454 16C7.45454 18.3383 5.83318 20.364 3.55168 20.8762L3 21L3 27Z" stroke="black" stroke-width="2" stroke-miterlimit="10" stroke-linecap="square" fill="none"></path> <path d="M17 16L19 16" stroke="#000" stroke-width="2" stroke-miterlimit="10" stroke-linecap="square" data-color="color-2" fill="none"></path> <path d="M17 11L20 11" stroke="#000" stroke-width="2" stroke-miterlimit="10" stroke-linecap="square" data-color="color-2" fill="none"></path> <path d="M17 21L20 21" stroke="#000" stroke-width="2" stroke-miterlimit="10" stroke-linecap="square" data-color="color-2" fill="none"></path> </svg>