<svg xmlns="http://www.w3.org/2000/svg" xmlns:xlink="http://www.w3.org/1999/xlink" x="0px" y="0px" width="48px" height="48px" viewBox="0 0 48 48"> <path d="M16 9L16 8L12 8L12 9" stroke="#000" stroke-width="2" stroke-miterlimit="10" stroke-linecap="square" data-color="color-2" fill="none"></path> <path d="M18 9L10 9C7.23858 9 5 11.2386 5 14L5 36C5 38.7614 7.23857 41 10 41L38 41C40.7614 41 43 38.7614 43 36L43 34" stroke="black" stroke-width="2" stroke-miterlimit="10" stroke-linecap="square" fill="none"></path> <path d="M41 7L27 7C24.7909 7 23 8.79086 23 11L23 25C23 27.2091 24.7909 29 27 29L41 29C43.2091 29 45 27.2091 45 25L45 11C45 8.79086 43.2091 7 41 7Z" stroke="black" stroke-width="2" stroke-miterlimit="10" stroke-linecap="square" fill="none"></path> <path d="M18 14L10 14L10 22L18 22L18 14Z" stroke="#000" stroke-width="2" stroke-miterlimit="10" stroke-linecap="square" data-color="color-2" fill="none"></path> <path d="M34 24C37.3137 24 40 21.3137 40 18C40 14.6863 37.3137 12 34 12C30.6863 12 28 14.6863 28 18C28 21.3137 30.6863 24 34 24Z" stroke="#000" stroke-width="2" stroke-miterlimit="10" stroke-linecap="square" data-color="color-2" fill="none"></path> <path d="M34 24C37.3137 24 40 21.3137 40 18C40 14.6863 37.3137 12 34 12C30.6863 12 28 14.6863 28 18C28 21.3137 30.6863 24 34 24Z" stroke="#000" stroke-width="2" stroke-miterlimit="10" stroke-linecap="square" data-color="color-2" fill="none"></path> <path d="M36 18C36 16.8954 35.1046 16 34 16" stroke="black" stroke-width="2" stroke-miterlimit="10" stroke-linecap="square" fill="none"></path> <path d="M18 35L10 35" stroke="#000" stroke-width="2" stroke-miterlimit="10" stroke-linecap="square" data-color="color-2" fill="none"></path> </svg>