<svg xmlns="http://www.w3.org/2000/svg" xmlns:xlink="http://www.w3.org/1999/xlink" x="0px" y="0px" width="48px" height="48px" viewBox="0 0 48 48"> <path d="M45 36L45 12C45 9.23858 42.7614 7 40 7L8 7C5.23858 7 3 9.23858 3 12L3 36C3 38.7614 5.23858 41 8 41L40 41C42.7614 41 45 38.7614 45 36Z" stroke="black" stroke-width="2" stroke-miterlimit="10" stroke-linecap="square" fill="none"></path> <path d="M18.5 22C20.9853 22 23 19.9853 23 17.5C23 15.0147 20.9853 13 18.5 13C16.0147 13 14 15.0147 14 17.5C14 19.9853 16.0147 22 18.5 22Z" stroke="#000" stroke-width="2" stroke-miterlimit="10" stroke-linecap="square" data-color="color-2" fill="none"></path> <path d="M4 39L13 27.5L21 36L33.5 19.5L45 34" stroke="black" stroke-width="2" stroke-miterlimit="10" data-cap="butt" fill="none"></path> </svg>