<svg xmlns="http://www.w3.org/2000/svg" xmlns:xlink="http://www.w3.org/1999/xlink" x="0px" y="0px" width="48px" height="48px" viewBox="0 0 48 48"> <path d="M20.5 18L31 24L20.5 30V18Z" stroke="#000" stroke-width="2" stroke-miterlimit="10" stroke-linecap="square" data-color="color-2" fill="none"></path> <path d="M18 12V5" stroke="black" stroke-width="2" stroke-linecap="square" fill="none"></path> <path d="M36 12V5" stroke="black" stroke-width="2" stroke-linecap="square" fill="none"></path> <path d="M12 12V5" stroke="black" stroke-width="2" stroke-linecap="square" fill="none"></path> <path d="M30 12V5" stroke="black" stroke-width="2" stroke-linecap="square" fill="none"></path> <path d="M18 43V36" stroke="black" stroke-width="2" stroke-linecap="square" fill="none"></path> <path d="M36 43V36" stroke="black" stroke-width="2" stroke-linecap="square" fill="none"></path> <path d="M12 43V36" stroke="black" stroke-width="2" stroke-linecap="square" fill="none"></path> <path d="M30 43V36" stroke="black" stroke-width="2" stroke-linecap="square" fill="none"></path> <path d="M24 12V5" stroke="black" stroke-width="2" stroke-linecap="square" fill="none"></path> <path d="M24 43V36" stroke="black" stroke-width="2" stroke-linecap="square" fill="none"></path> <path d="M5 12H43" stroke="black" stroke-width="2" stroke-linecap="square" fill="none"></path> <path d="M5.00001 36L43 36" stroke="black" stroke-width="2" stroke-linecap="square" fill="none"></path> <path d="M38 5H10C7.23858 5 5 7.23858 5 10V38C5 40.7614 7.23858 43 10 43H38C40.7614 43 43 40.7614 43 38V10C43 7.23858 40.7614 5 38 5Z" stroke="black" stroke-width="2" stroke-miterlimit="10" stroke-linecap="square" fill="none"></path> </svg>