<svg xmlns="http://www.w3.org/2000/svg" xmlns:xlink="http://www.w3.org/1999/xlink" x="0px" y="0px" width="48px" height="48px" viewBox="0 0 48 48"><path d="M29 5L10 5C7.23858 5 5 7.23857 5 10L5 38C5 40.7614 7.23857 43 10 43L38 43C40.7614 43 43 40.7614 43 38L43 19" stroke="black" stroke-width="2" stroke-miterlimit="10" stroke-linecap="square" fill="none"></path> <path d="M24 28C27.3137 28 30 25.3137 30 22C30 18.6863 27.3137 16 24 16C20.6863 16 18 18.6863 18 22C18 25.3137 20.6863 28 24 28Z" stroke="black" stroke-width="2" stroke-miterlimit="10" fill="none" data-cap="butt"></path> <path d="M10.2119 43C12.1052 37.1948 17.5628 33 24 33C30.4373 33 35.8948 37.1948 37.7882 43" stroke="black" stroke-width="2" stroke-miterlimit="10" fill="none" data-cap="butt"></path> <path d="M40.5 7.5L37.5 0.5L34.5 7.5L27.5 10.5L34.5 13.5L37.5 20.5L40.5 13.5L47.5 10.5L40.5 7.5Z" fill="#000" data-color="color-2" data-stroke="none" data-cap="butt"></path></svg>