<svg xmlns="http://www.w3.org/2000/svg" xmlns:xlink="http://www.w3.org/1999/xlink" x="0px" y="0px" width="48px" height="48px" viewBox="0 0 48 48"> <path d="M36 18L43 18" stroke="black" stroke-width="2" stroke-linecap="square" fill="none"></path> <path d="M36 36L43 36" stroke="black" stroke-width="2" stroke-linecap="square" fill="none"></path> <path d="M36 12L43 12" stroke="black" stroke-width="2" stroke-linecap="square" fill="none"></path> <path d="M36 30L43 30" stroke="black" stroke-width="2" stroke-linecap="square" fill="none"></path> <path d="M5 18L12 18" stroke="black" stroke-width="2" stroke-linecap="square" fill="none"></path> <path d="M5 36L12 36" stroke="black" stroke-width="2" stroke-linecap="square" fill="none"></path> <path d="M5 12L12 12" stroke="black" stroke-width="2" stroke-linecap="square" fill="none"></path> <path d="M5 30L12 30" stroke="black" stroke-width="2" stroke-linecap="square" fill="none"></path> <path d="M5 24L43 24" stroke="#000" stroke-width="2" stroke-linecap="square" data-color="color-2" fill="none"></path> <path d="M36 5L36 43" stroke="black" stroke-width="2" stroke-linecap="square" fill="none"></path> <path d="M12 5.00001L12 43" stroke="black" stroke-width="2" stroke-linecap="square" fill="none"></path> <path d="M43 38L43 10C43 7.23858 40.7614 5 38 5L10 5C7.23857 5 5 7.23857 5 10L5 38C5 40.7614 7.23857 43 10 43L38 43C40.7614 43 43 40.7614 43 38Z" stroke="black" stroke-width="2" stroke-miterlimit="10" stroke-linecap="square" fill="none"></path> </svg>