<svg xmlns="http://www.w3.org/2000/svg" xmlns:xlink="http://www.w3.org/1999/xlink" x="0px" y="0px" width="18px" height="18px" viewBox="0 0 18 18"><path d="M9 4.74999L14.984 3.09899C15.621 2.92299 16.25 3.40199 16.25 4.06299V12.489C16.25 12.939 15.95 13.333 15.516 13.453L9 15.25" fill="#000" fill-opacity="0.3" data-color="color-2" data-stroke="none"></path> <path d="M9 4.74999L14.984 3.09899C15.621 2.92299 16.25 3.40199 16.25 4.06299V12.489C16.25 12.939 15.95 13.333 15.516 13.453L9 15.25" stroke="black" stroke-width="1.5" stroke-linecap="round" stroke-linejoin="round" fill="none"></path> <path d="M9 15.25L2.484 13.453C2.05 13.333 1.75 12.939 1.75 12.489V4.06299C1.75 3.40199 2.379 2.92299 3.016 3.09899L9 4.74999V15.25Z" stroke="black" stroke-width="1.5" stroke-linecap="round" stroke-linejoin="round" fill="none"></path></svg>