<svg xmlns="http://www.w3.org/2000/svg" xmlns:xlink="http://www.w3.org/1999/xlink" x="0px" y="0px" width="18px" height="18px" viewBox="0 0 18 18"><path d="M9 11.25C11.7614 11.25 14 9.01142 14 6.25C14 3.48858 11.7614 1.25 9 1.25C6.23858 1.25 4 3.48858 4 6.25C4 9.01142 6.23858 11.25 9 11.25Z" fill="#000" fill-opacity="0.3" data-color="color-2" data-stroke="none"></path> <path d="M12.25 10.049V16.75L9 14.25L5.75 16.75V10.049" stroke="black" stroke-width="1.5" stroke-linecap="round" stroke-linejoin="round" fill="none"></path> <path d="M9 11.25C11.7614 11.25 14 9.01142 14 6.25C14 3.48858 11.7614 1.25 9 1.25C6.23858 1.25 4 3.48858 4 6.25C4 9.01142 6.23858 11.25 9 11.25Z" stroke="black" stroke-width="1.5" stroke-linecap="round" stroke-linejoin="round" fill="none"></path></svg>