<svg xmlns="http://www.w3.org/2000/svg" xmlns:xlink="http://www.w3.org/1999/xlink" x="0px" y="0px" width="18px" height="18px" viewBox="0 0 18 18"><path d="M2.25 4.75H15.75V9.25C15.75 10.3546 14.8546 11.25 13.75 11.25H4.25C3.1454 11.25 2.25 10.3546 2.25 9.25V4.75Z" fill="#000" fill-opacity="0.3" data-color="color-2" data-stroke="none"></path> <path d="M6.75 4.707V2.75C6.75 2.198 7.198 1.75 7.75 1.75H10.25C10.802 1.75 11.25 2.198 11.25 2.75V4.707" stroke="black" stroke-width="1.5" stroke-linecap="round" stroke-linejoin="round" fill="none"></path> <path d="M14.75 11.25V14.25C14.75 15.355 13.855 16.25 12.75 16.25H5.25C4.145 16.25 3.25 15.355 3.25 14.25V11.25" stroke="black" stroke-width="1.5" stroke-linecap="round" stroke-linejoin="round" fill="none"></path> <path d="M2.25 4.75H15.75V9.25C15.75 10.3546 14.8546 11.25 13.75 11.25H4.25C3.1454 11.25 2.25 10.3546 2.25 9.25V4.75Z" stroke="black" stroke-width="1.5" stroke-linecap="round" stroke-linejoin="round" fill="none"></path> <path d="M6.75 12.75V9.75" stroke="black" stroke-width="1.5" stroke-linecap="round" stroke-linejoin="round" fill="none"></path> <path d="M11.25 12.75V9.75" stroke="black" stroke-width="1.5" stroke-linecap="round" stroke-linejoin="round" fill="none"></path></svg>