<svg xmlns="http://www.w3.org/2000/svg" xmlns:xlink="http://www.w3.org/1999/xlink" x="0px" y="0px" width="18px" height="18px" viewBox="0 0 18 18"><path d="M13.75 6.75C14.855 6.75 15.75 7.645 15.75 8.75V9.2373C15.5972 9.14887 15.4195 9.1597 15.2578 9.08594C14.5552 8.65189 13.8128 8.5 13 8.5C9.96251 8.5 7.5 10.9623 7.5 14C7.5 14.3777 7.53873 14.7464 7.61142 15.1027C7.63599 15.2232 7.43297 15.25 7.31005 15.25H4.25C3.145 15.25 2.25 14.355 2.25 13.25V8.75C2.25 7.645 3.145 6.75 4.25 6.75H13.75Z" fill="#000" fill-opacity="0.3" data-color="color-2" data-stroke="none"></path> <path d="M13 17.25C14.7949 17.25 16.25 15.795 16.25 14C16.25 12.205 14.7949 10.75 13 10.75C11.2051 10.75 9.75 12.205 9.75 14C9.75 15.795 11.2051 17.25 13 17.25Z" stroke="black" stroke-width="1.5" stroke-linecap="round" stroke-linejoin="round" fill="none"></path> <path d="M10.702 16.298L15.292 11.708" stroke="black" stroke-width="1.5" stroke-linecap="round" stroke-linejoin="round" fill="none"></path> <path d="M2.25 8.75V4.75C2.25 3.645 3.145 2.75 4.25 2.75H6.201C6.808 2.75 7.381 3.025 7.761 3.498L8.364 4.25H13.75C14.855 4.25 15.75 5.145 15.75 6.25V8.51599" stroke="black" stroke-width="1.5" stroke-linecap="round" stroke-linejoin="round" fill="none"></path> <path d="M15.726 8.51599C15.609 7.52299 14.774 6.75 13.75 6.75H4.25C3.145 6.75 2.25 7.646 2.25 8.75V13.25C2.25 14.354 3.145 15.25 4.25 15.25H6.8766" stroke="black" stroke-width="1.5" stroke-linecap="round" stroke-linejoin="round" fill="none"></path></svg>