<svg xmlns="http://www.w3.org/2000/svg" xmlns:xlink="http://www.w3.org/1999/xlink" x="0px" y="0px" width="18px" height="18px" viewBox="0 0 18 18"><path d="M2.91799 7.75H15.082C15.696 7.75 16.165 8.298 16.07 8.904L15.132 14.904C15.056 15.391 14.637 15.75 14.144 15.75H3.85599C3.36299 15.75 2.94399 15.391 2.86799 14.904L1.92999 8.904C1.83499 8.298 2.30399 7.75 2.91799 7.75Z" fill="#000" fill-opacity="0.3" data-color="color-2" data-stroke="none"></path> <path d="M15.25 5.25C15.25 4.698 14.802 4.25 14.25 4.25H8.25L7.294 2.72C7.111 2.428 6.791 2.25 6.446 2.25H3.75C3.198 2.25 2.75 2.698 2.75 3.25V5.25" stroke="black" stroke-width="1.5" stroke-linecap="round" stroke-linejoin="round" fill="none"></path> <path d="M2.91799 7.75H15.082C15.696 7.75 16.165 8.298 16.07 8.904L15.132 14.904C15.056 15.391 14.637 15.75 14.144 15.75H3.85599C3.36299 15.75 2.94399 15.391 2.86799 14.904L1.92999 8.904C1.83499 8.298 2.30399 7.75 2.91799 7.75Z" stroke="black" stroke-width="1.5" stroke-linecap="round" stroke-linejoin="round" fill="none"></path></svg>