<svg xmlns="http://www.w3.org/2000/svg" xmlns:xlink="http://www.w3.org/1999/xlink" x="0px" y="0px" width="18px" height="18px" viewBox="0 0 18 18"><path fill-rule="evenodd" clip-rule="evenodd" d="M13.75 6.75H4.25C3.145 6.75 2.25 7.645 2.25 8.75V13.25C2.25 14.355 3.145 15.25 4.25 15.25H9.12612C9.36148 15.25 9.58931 15.167 9.7695 15.0155L9.78681 15.001L8.65415 11.9006C7.9085 9.86569 9.8876 7.9276 11.8911 8.65208L15.4711 9.95991C15.6472 9.82097 15.75 9.60899 15.75 9.38465V8.75C15.75 7.645 14.855 6.75 13.75 6.75Z" fill="#000" fill-opacity="0.3" data-color="color-2" data-stroke="none"></path> <path d="M11.126 10.768L17.066 12.938C17.316 13.029 17.309 13.386 17.055 13.467L14.336 14.337L13.466 17.056C13.385 17.31 13.028 17.317 12.937 17.067L10.767 11.127C10.685 10.904 10.902 10.687 11.126 10.768Z" fill="#000" fill-opacity="0.3" data-color="color-2" data-stroke="none"></path> <path d="M11.126 10.768L17.066 12.938C17.316 13.029 17.309 13.386 17.055 13.467L14.336 14.337L13.466 17.056C13.385 17.31 13.028 17.317 12.937 17.067L10.767 11.127C10.685 10.904 10.902 10.687 11.126 10.768Z" stroke="black" stroke-width="1.5" stroke-linecap="round" stroke-linejoin="round" fill="none"></path> <path d="M2.25 8.75V4.75C2.25 3.645 3.145 2.75 4.25 2.75H6.201C6.808 2.75 7.381 3.02499 7.761 3.49799L8.364 4.25H13.75C14.855 4.25 15.75 5.145 15.75 6.25V9.09399" stroke="black" stroke-width="1.5" stroke-linecap="round" stroke-linejoin="round" fill="none"></path> <path d="M15.75 9.2634V8.75C15.75 7.646 14.855 6.75 13.75 6.75H4.25C3.145 6.75 2.25 7.646 2.25 8.75V13.25C2.25 14.354 3.145 15.25 4.25 15.25H9.0793" stroke="black" stroke-width="1.5" stroke-linecap="round" stroke-linejoin="round" fill="none"></path></svg>