<svg xmlns="http://www.w3.org/2000/svg" xmlns:xlink="http://www.w3.org/1999/xlink" x="0px" y="0px" width="18px" height="18px" viewBox="0 0 18 18"><path fill-rule="evenodd" clip-rule="evenodd" d="M6.24475 9.75H1.75V13.25C1.75 14.3546 2.64543 15.25 3.75 15.25H14.25C15.3546 15.25 16.25 14.3546 16.25 13.25V9.75H11.727V10.7329C11.727 11.2852 11.2793 11.7329 10.727 11.7329H7.24475C6.69247 11.7329 6.24475 11.2852 6.24475 10.7329V9.75Z" fill="#000" fill-opacity="0.3" data-color="color-2" data-stroke="none"></path> <path d="M6.51556 5.5L9.01556 3L11.4844 5.5" stroke="black" stroke-width="1.5" stroke-linecap="round" stroke-linejoin="round" fill="none"></path> <path d="M9 3.30591V8.25" stroke="black" stroke-width="1.5" stroke-linecap="round" stroke-linejoin="round" fill="none"></path> <path d="M16.214 9.75H11.75V10.75C11.75 11.302 11.302 11.75 10.75 11.75H7.25C6.698 11.75 6.25 11.302 6.25 10.75V9.75H1.78699" stroke="black" stroke-width="1.5" stroke-linecap="round" stroke-linejoin="round" fill="none"></path> <path d="M12.482 2.78003C13.161 2.89903 13.741 3.36204 13.999 4.01904L16.112 9.39804C16.204 9.63104 16.25 9.87903 16.25 10.129V13.25C16.25 14.355 15.355 15.25 14.25 15.25H3.75C2.645 15.25 1.75 14.355 1.75 13.25V10.129C1.75 9.87903 1.797 9.63104 1.888 9.39804L4.00101 4.01904C4.25901 3.36304 4.83901 2.89903 5.51801 2.78003" stroke="black" stroke-width="1.5" stroke-linecap="round" stroke-linejoin="round" fill="none"></path></svg>