<svg xmlns="http://www.w3.org/2000/svg" xmlns:xlink="http://www.w3.org/1999/xlink" x="0px" y="0px" width="18px" height="18px" viewBox="0 0 18 18"><path fill-rule="evenodd" clip-rule="evenodd" d="M6.74475 10.25H2.75V13.25C2.75 14.3546 3.64543 15.25 4.75 15.25H13.25C14.3546 15.25 15.25 14.3546 15.25 13.25V10.25H11.227V11.2329C11.227 11.7852 10.7793 12.2329 10.227 12.2329H7.74475C7.19247 12.2329 6.74475 11.7852 6.74475 11.2329V10.25Z" fill="#000" fill-opacity="0.3" data-color="color-2" data-stroke="none"></path> <path d="M11.5 5.75L9 8.25L6.5 5.75" stroke="black" stroke-width="1.5" stroke-linecap="round" stroke-linejoin="round" fill="none"></path> <path d="M9 8.25V2.75" stroke="black" stroke-width="1.5" stroke-linecap="round" stroke-linejoin="round" fill="none"></path> <path d="M12 2.75H13.25C14.355 2.75 15.25 3.645 15.25 4.75V13.25C15.25 14.355 14.355 15.25 13.25 15.25H4.75C3.645 15.25 2.75 14.355 2.75 13.25V4.75C2.75 3.645 3.645 2.75 4.75 2.75H6" stroke="black" stroke-width="1.5" stroke-linecap="round" stroke-linejoin="round" fill="none"></path> <path d="M15.25 10.25H11.25V11.25C11.25 11.802 10.802 12.25 10.25 12.25H7.75C7.198 12.25 6.75 11.802 6.75 11.25V10.25H2.75" stroke="black" stroke-width="1.5" stroke-linecap="round" stroke-linejoin="round" fill="none"></path></svg>