<svg xmlns="http://www.w3.org/2000/svg" xmlns:xlink="http://www.w3.org/1999/xlink" x="0px" y="0px" width="24px" height="24px" viewBox="0 0 24 24"><line x1="12" y1="7.001" x2="12" y2="21" fill="none" stroke="#000" stroke-linecap="square" stroke-miterlimit="10" stroke-width="2" data-color="color-2"></line><path d="m4,4.501c.047-1.426,1.241-2.545,2.667-2.5,3.944,0,5.333,5,5.333,5h-5.333c-1.426.045-2.62-1.074-2.667-2.5Z" fill="none" stroke="#000" stroke-linecap="square" stroke-miterlimit="10" stroke-width="2" data-color="color-2"></path><path d="m17.333,7.001h-5.333s1.389-5,5.333-5c1.426-.045,2.62,1.074,2.667,2.5-.047,1.426-1.241,2.545-2.667,2.5Z" fill="none" stroke="#000" stroke-linecap="square" stroke-miterlimit="10" stroke-width="2" data-color="color-2"></path><path d="m20,11v8c0,1.105-.895,2-2,2H6c-1.105,0-2-.895-2-2v-8" fill="none" stroke="#000" stroke-linecap="square" stroke-miterlimit="10" stroke-width="2"></path><line x1="2" y1="7.001" x2="22" y2="7.001" fill="none" stroke="#000" stroke-linecap="square" stroke-miterlimit="10" stroke-width="2"></line></svg>