<svg xmlns="http://www.w3.org/2000/svg" xmlns:xlink="http://www.w3.org/1999/xlink" x="0px" y="0px" width="24px" height="24px" viewBox="0 0 24 24"> <path d="M4 16.5L10.5 10" stroke="#000" stroke-width="2" data-color="color-2" data-cap="butt" fill="none"></path> <path d="M6 22L18 10" stroke="#000" stroke-width="2" data-color="color-2" data-cap="butt" fill="none"></path> <path d="M13.5 22L20 15.5" stroke="#000" stroke-width="2" data-color="color-2" data-cap="butt" fill="none"></path> <path d="M6 4C6 2.89533 6.89533 2 8 2C10.9587 2 12 6 12 6H8C6.89533 6 6 5.10467 6 4Z" stroke="#000" stroke-width="2" stroke-miterlimit="10" stroke-linecap="square" data-color="color-2" fill="none"></path> <path d="M18 4C18 2.89533 17.1047 2 16 2C13.0413 2 12 6 12 6H16C17.1047 6 18 5.10467 18 4Z" stroke="#000" stroke-width="2" stroke-miterlimit="10" stroke-linecap="square" data-color="color-2" fill="none"></path> <path d="M20 14L20 20C20 21.1046 19.1046 22 18 22L6 22C4.89543 22 4 21.1046 4 20L4 14" stroke="black" stroke-width="2" stroke-miterlimit="10" stroke-linecap="square" fill="none"></path> <path d="M22 10L22 6L2 6L2 10L22 10Z" stroke="black" stroke-width="2" stroke-miterlimit="10" stroke-linecap="square" fill="none"></path> </svg>