<svg xmlns="http://www.w3.org/2000/svg" xmlns:xlink="http://www.w3.org/1999/xlink" x="0px" y="0px" width="32px" height="32px" viewBox="0 0 32 32"> <path d="M18.851 20.7557L18.7711 20.5C18.134 18.4714 16.2388 17 14 17C11.2386 17 9 19.2386 9 22C9 24.7614 11.2386 27 14 27C14.7111 27 15.3875 26.8516 16 26.584L16.1079 26.531" stroke="#000" stroke-width="2" data-color="color-2" data-cap="butt" fill="none"></path> <path d="M10.5 29C21.1135 29 31 21.8143 31 10.2799C30.9979 7.47002 30.3704 4.52675 29.0873 2H28.9C24.7266 9.08826 17.7012 9 10.5 9" stroke="black" stroke-width="2" stroke-miterlimit="10" data-cap="butt" fill="none"></path> <path d="M10.5 29C15.1944 29 19 24.5228 19 19C19 13.4772 15.1944 9 10.5 9C5.80558 9 2 13.4772 2 19C2 24.5228 5.80558 29 10.5 29Z" stroke="black" stroke-width="2" stroke-linecap="square" stroke-linejoin="round" fill="none"></path> <path d="M24.5635 14.6667C25.8413 17.8047 25.7427 21.6539 24.0027 24.5642L24.1929 24.2311" stroke="black" stroke-width="2" stroke-linecap="square" fill="none"></path> </svg>