<svg xmlns="http://www.w3.org/2000/svg" xmlns:xlink="http://www.w3.org/1999/xlink" x="0px" y="0px" width="32px" height="32px" viewBox="0 0 32 32"> <path d="M3 10V26C3 27.6569 4.34315 29 6 29H14C15.6569 29 17 27.6569 17 26V10" stroke="black" stroke-width="2" data-cap="butt" fill="none"></path> <path d="M21 18L27 18C28.6569 18 30 16.6569 30 15L30 8C30 6.34315 28.6569 5 27 5L20 5" stroke="black" stroke-width="2" stroke-miterlimit="10" stroke-linecap="square" fill="none"></path> <path d="M10 17C13.866 17 17 13.866 17 10C17 6.13401 13.866 3 10 3C6.13401 3 3 6.13401 3 10C3 13.866 6.13401 17 10 17Z" stroke="#000" stroke-width="2" stroke-miterlimit="10" stroke-linecap="square" data-color="color-2" fill="none"></path> <path d="M13 10C13 11.6569 11.6569 13 10 13" stroke="#000" stroke-width="2" stroke-miterlimit="10" stroke-linecap="square" data-color="color-2" fill="none"></path> <path d="M22 8.5L27 11.5L22 14.5V8.5Z" fill="#000" data-color="color-2" data-cap="butt" data-stroke="none"></path> <path d="M7.5 26C8.32843 26 9 25.3284 9 24.5C9 23.6716 8.32843 23 7.5 23C6.67157 23 6 23.6716 6 24.5C6 25.3284 6.67157 26 7.5 26Z" fill="#000" data-color="color-2" data-cap="butt" data-stroke="none"></path> </svg>