<svg xmlns="http://www.w3.org/2000/svg" xmlns:xlink="http://www.w3.org/1999/xlink" x="0px" y="0px" width="32px" height="32px" viewBox="0 0 32 32"><path d="m13,29h-6c-1.657,0-3-1.343-3-3v-9" fill="none" stroke="#000" stroke-linecap="square" stroke-miterlimit="10" stroke-width="2"></path><path d="m28,17v9c0,1.657-1.343,3-3,3h-6" fill="none" stroke="#000" stroke-linecap="square" stroke-miterlimit="10" stroke-width="2"></path><rect x="2" y="8" width="28" height="5" fill="none" stroke="#000" stroke-linecap="square" stroke-miterlimit="10" stroke-width="2"></rect><path d="m7,5c0-1.657,1.343-3,3-3,4.438,0,6,6,6,6h-6c-1.657,0-3-1.343-3-3Z" fill="none" stroke="#000" stroke-linecap="square" stroke-miterlimit="10" stroke-width="2" data-color="color-2"></path><path d="m25,5c0-1.657-1.343-3-3-3-4.438,0-6,6-6,6h6c1.657,0,3-1.343,3-3Z" fill="none" stroke="#000" stroke-linecap="square" stroke-miterlimit="10" stroke-width="2" data-color="color-2"></path><polyline points="19 8 19 29 13 29 13 8" fill="none" stroke="#000" stroke-linecap="square" stroke-miterlimit="10" stroke-width="2" data-color="color-2"></polyline></svg>