<svg xmlns="http://www.w3.org/2000/svg" xmlns:xlink="http://www.w3.org/1999/xlink" x="0px" y="0px" width="48px" height="48px" viewBox="0 0 48 48"> <path d="M33 8V32" stroke="#000" stroke-width="2" stroke-linecap="square" data-color="color-2" fill="none"></path> <path d="M15 32V8" stroke="#000" stroke-width="2" stroke-linecap="square" data-color="color-2" fill="none"></path> <path d="M19 8L19 3H29V8" stroke="black" stroke-width="2" stroke-linecap="square" fill="none"></path> <path d="M7 12C7 9.79086 8.79086 8 11 8H37C39.2091 8 41 9.79086 41 12V28C41 30.2091 39.2091 32 37 32H11C8.79086 32 7 30.2091 7 28V12Z" stroke="black" stroke-width="2" data-cap="butt" fill="none"></path> <path d="M5 40C5 38.3431 6.34315 37 8 37H40C41.6569 37 43 38.3431 43 40V40C43 41.6569 41.6569 43 40 43H8C6.34315 43 5 41.6569 5 40V40Z" stroke="#000" stroke-width="2" data-color="color-2" data-cap="butt" fill="none"></path> <path d="M20 13H28V18H20V13Z" stroke="#000" stroke-width="2" data-color="color-2" data-cap="butt" fill="none"></path> </svg>