<svg xmlns="http://www.w3.org/2000/svg" xmlns:xlink="http://www.w3.org/1999/xlink" x="0px" y="0px" width="48px" height="48px" viewBox="0 0 48 48"> <path d="M24 32C28.4183 32 32 28.4183 32 24C32 19.5817 28.4183 16 24 16C19.5817 16 16 19.5817 16 24C16 28.4183 19.5817 32 24 32Z" stroke="black" stroke-width="2" stroke-miterlimit="10" stroke-linecap="square" fill="none"></path> <path d="M32 3.99999L24 12L16 4" stroke="#000" stroke-width="2" stroke-linecap="square" data-color="color-2" fill="none"></path> <path d="M32 44L24 36L16 44" stroke="black" stroke-width="2" stroke-linecap="square" fill="none"></path> <path d="M24 3.00002V45" stroke="black" stroke-width="2" stroke-linecap="square" fill="none"></path> <path d="M45.3205 20.9282L34.3923 18L37.3205 7.07179" stroke="black" stroke-width="2" stroke-linecap="square" fill="none"></path> <path d="M10.6795 40.9282L13.6077 30L2.67947 27.0718" stroke="#000" stroke-width="2" stroke-linecap="square" data-color="color-2" fill="none"></path> <path d="M42.1865 13.5L5.81345 34.5" stroke="black" stroke-width="2" stroke-linecap="square" fill="none"></path> <path d="M37.3205 40.9282L34.3923 30L45.3205 27.0718" stroke="#000" stroke-width="2" stroke-linecap="square" data-color="color-2" fill="none"></path> <path d="M2.67946 20.9282L13.6077 18L10.6795 7.07178" stroke="black" stroke-width="2" stroke-linecap="square" fill="none"></path> <path d="M42.1865 34.5L5.81346 13.5" stroke="black" stroke-width="2" stroke-linecap="square" fill="none"></path> </svg>