<svg xmlns="http://www.w3.org/2000/svg" xmlns:xlink="http://www.w3.org/1999/xlink" x="0px" y="0px" width="48px" height="48px" viewBox="0 0 48 48"> <path d="M19.1333 38.9046L19.146 38.85C19.058 39.221 19 39.602 19 40C19 42.761 21.239 45 24 45C26.761 45 29 42.761 29 40C29 39.603 28.942 39.221 28.854 38.85L28.8744 38.9387" stroke="#000" stroke-width="2" stroke-miterlimit="10" stroke-linecap="square" data-color="color-2" fill="none"></path> <path d="M42 37V34C42 34 37 30 37 20V16C37 8.82 31.18 3 24 3C16.82 3 11 8.82 11 16V20C11 30 6 34 6 34V37C18 39.667 30 39.667 42 37Z" stroke="black" stroke-width="2" stroke-miterlimit="10" stroke-linecap="square" fill="none"></path> </svg>