<svg xmlns="http://www.w3.org/2000/svg" xmlns:xlink="http://www.w3.org/1999/xlink" x="0px" y="0px" width="32px" height="32px" viewBox="0 0 32 32"> <path d="M12.5 31H6V28H12.8945L12.5 31Z" fill="#000" data-color="color-2"></path> <path d="M26 31H19.5L19.1055 28H26V31Z" fill="#000" data-color="color-2"></path> <path d="M15 6H17V1H26V8H25C23.3431 8 22 6.65685 22 5V3H20V5C20 7.76142 22.2386 10 25 10H26V26H18.8418L17 12H15L13.1582 26H6V10H7C9.76142 10 12 7.76142 12 5V3H10V5C10 6.65685 8.65685 8 7 8H6V1H15V6Z" fill="black"></path> </svg>