<svg xmlns="http://www.w3.org/2000/svg" xmlns:xlink="http://www.w3.org/1999/xlink" x="0px" y="0px" width="48px" height="48px" viewBox="0 0 48 48"> <path d="M12.5 30H15.5V35H12.5V30Z" fill="#000" data-color="color-2"></path> <path d="M18.5 30H21.5V35H18.5V30Z" fill="#000" data-color="color-2"></path> <path d="M24.5 30H27.5V35H24.5V30Z" fill="#000" data-color="color-2"></path> <path d="M30.5 30H33.5V35H30.5V30Z" fill="#000" data-color="color-2"></path> <path d="M6.5 30H9.5V35H6.5V30Z" fill="#000" data-color="color-2"></path> <path d="M38.5 4C41.5376 4 44 6.46243 44 9.5V44H8V38H41V9.5C41 8.11929 39.8807 7 38.5 7C37.1193 7 36 8.11929 36 9.5V22H4V10C4 6.68629 6.68629 4 10 4H38.5Z" fill="black"></path> <path d="M36 32H4V25H36V32Z" fill="#000" data-color="color-2"></path> </svg>