<svg xmlns="http://www.w3.org/2000/svg" xmlns:xlink="http://www.w3.org/1999/xlink" x="0px" y="0px" width="48px" height="48px" viewBox="0 0 48 48"> <path d="M28 8C28 5.79086 26.2091 4 24 4C21.7909 4 20 5.79086 20 8V11H17V8C17 4.13401 20.134 1 24 1C27.866 1 31 4.13401 31 8V11H28V8Z" fill="#000" data-color="color-2"></path> <path d="M42.8611 34.8799C43.5421 39.6957 39.804 43.9999 34.9402 44H13.0594C8.19571 43.9998 4.45748 39.6956 5.13846 34.8799L8.51541 11H16.9998V19H19.9998V11H27.9998V19H30.9998V11H39.4842L42.8611 34.8799Z" fill="black"></path> </svg>