<svg xmlns="http://www.w3.org/2000/svg" xmlns:xlink="http://www.w3.org/1999/xlink" x="0px" y="0px" width="48px" height="48px" viewBox="0 0 48 48"> <path d="M12.5 2H15.5V29.5H12.5V2Z" fill="#000" data-color="color-2"></path> <path d="M18 4.5V7.5L10 7.5V4.5L18 4.5Z" fill="#000" data-color="color-2"></path> <path d="M19 9.5V12.5L9 12.5V9.5L19 9.5Z" fill="#000" data-color="color-2"></path> <path d="M19 14.5V17.5L9 17.5V14.5L19 14.5Z" fill="#000" data-color="color-2"></path> <path d="M18 19.5V22.5H10V19.5L18 19.5Z" fill="#000" data-color="color-2"></path> <path d="M18 35V28H10V35H18Z" fill="black"></path> <path d="M42 35H26V19H42V35Z" fill="black"></path> <path d="M22 40.5C22 42.433 20.433 44 18.5 44H9.5C7.56701 44 6 42.433 6 40.5V33H22V40.5Z" fill="black"></path> <path d="M42 40.5C42 42.433 40.433 44 38.5 44H29.5C27.567 44 26 42.433 26 40.5V38H42V40.5Z" fill="black"></path> </svg>