<svg xmlns="http://www.w3.org/2000/svg" xmlns:xlink="http://www.w3.org/1999/xlink" x="0px" y="0px" width="24px" height="24px" viewBox="0 0 24 24"> <path d="M14.3735 13.835L18 21.2222C14.3647 23.5926 9.63533 23.5926 6 21.2222L9.62646 13.835" stroke="black" stroke-width="2" stroke-miterlimit="10" data-cap="butt" fill="none"></path> <path d="M11.5832 9.02871L7.10954 2.35939C3.23908 4.32249 0.874406 8.41822 1.10954 12.7517L9.29704 13.3031" stroke="black" stroke-width="2" stroke-miterlimit="10" data-cap="butt" fill="none"></path> <path d="M12.4168 9.02871L16.8904 2.35941C20.7609 4.32251 23.1256 8.41824 22.8904 12.7517L14.7029 13.3032" stroke="black" stroke-width="2" stroke-miterlimit="10" data-cap="butt" fill="none"></path> <path d="M12 15C13.6569 15 15 13.6569 15 12C15 10.3431 13.6569 9 12 9C10.3431 9 9 10.3431 9 12C9 13.6569 10.3431 15 12 15Z" stroke="#000" stroke-width="2" stroke-miterlimit="10" stroke-linecap="square" data-color="color-2" fill="none"></path> </svg>