<svg xmlns="http://www.w3.org/2000/svg" xmlns:xlink="http://www.w3.org/1999/xlink" x="0px" y="0px" width="24px" height="24px" viewBox="0 0 24 24"><path d="m19,21H5c-1.105,0-2-.895-2-2V5c0-1.105.895-2,2-2h14c1.105,0,2,.895,2,2v14c0,1.105-.895,2-2,2Z" fill="none" stroke="#000" stroke-linecap="square" stroke-miterlimit="10" stroke-width="2"></path><line x1="15" y1="16" x2="9" y2="16" fill="none" stroke="#000" stroke-miterlimit="10" stroke-width="2" data-color="color-2" data-cap="butt"></line><polygon points="15 16 14.25 17 9.75 17 9 16 10 12 10 7 14 7 14 12 15 16" fill="none" stroke="#000" stroke-linecap="square" stroke-miterlimit="10" stroke-width="2" data-color="color-2"></polygon><line x1="10" y1="12" x2="14" y2="12" fill="none" stroke="#000" stroke-linecap="square" stroke-miterlimit="10" stroke-width="2" data-color="color-2"></line></svg>