<svg xmlns="http://www.w3.org/2000/svg" xmlns:xlink="http://www.w3.org/1999/xlink" x="0px" y="0px" width="24px" height="24px" viewBox="0 0 24 24"> <path d="M10 15L10 12" stroke="#000" stroke-width="2" stroke-linecap="square" data-color="color-2" fill="none"></path> <path d="M14 15L14 12" stroke="#000" stroke-width="2" stroke-linecap="square" data-color="color-2" fill="none"></path> <path d="M20 18.0021C22.9469 14.0846 22.6372 8.49507 19.0711 4.92892C15.1658 1.02367 8.83418 1.02367 4.92893 4.92892C1.36278 8.49507 1.05313 14.0846 4 18.0021" stroke="black" stroke-width="2" stroke-miterlimit="10" stroke-linecap="square" fill="none"></path> <path d="M7.75736 7.75735C10.1005 5.4142 13.8995 5.4142 16.2426 7.75735" stroke="black" stroke-width="2" stroke-miterlimit="10" stroke-linecap="square" fill="none"></path> <path d="M8 15L8 17C8 19.2091 9.79086 21 12 21C14.2091 21 16 19.2091 16 17L16 15L8 15Z" stroke="#000" stroke-width="2" stroke-miterlimit="10" stroke-linecap="square" data-color="color-2" fill="none"></path> </svg>