<svg xmlns="http://www.w3.org/2000/svg" xmlns:xlink="http://www.w3.org/1999/xlink" x="0px" y="0px" width="24px" height="24px" viewBox="0 0 24 24"> <path d="M19 9L18.1528 19.1661C18.0665 20.2027 17.1999 21 16.1597 21H7.84027C6.8001 21 5.93356 20.2027 5.84718 19.1661L5.00001 9" stroke="black" stroke-width="2" stroke-miterlimit="10" stroke-linecap="square" fill="none"></path> <path d="M8 5V3C8 2.44772 8.44772 2 9 2H15C15.5523 2 16 2.44772 16 3V5" stroke="#000" stroke-width="2" stroke-miterlimit="10" data-color="color-2" data-cap="butt" fill="none"></path> <path d="M3 5H21" stroke="black" stroke-width="2" stroke-miterlimit="10" stroke-linecap="square" fill="none"></path> <path d="M11.5 10C9.84315 10 8.5 11.3431 8.5 13C8.5 14.6569 9.84315 16 11.5 16C13.1569 16 14.5 14.6569 14.5 13V11.5302V11.7361" stroke="#000" stroke-width="2" stroke-linecap="square" data-color="color-2" fill="none"></path> <path d="M13.8811 12.3555L14.3811 11.6911L14.8811 12.3555" stroke="#000" stroke-width="2" stroke-miterlimit="10" stroke-linecap="square" data-color="color-2" fill="none"></path> </svg>