<svg xmlns="http://www.w3.org/2000/svg" xmlns:xlink="http://www.w3.org/1999/xlink" x="0px" y="0px" width="32px" height="32px" viewBox="0 0 32 32"> <path d="M29 9H15" stroke="#000" stroke-width="2" data-color="color-2" data-cap="butt" fill="none"></path> <path d="M21.5 16L20.4763 14.4076C18.3587 11.1135 18.3587 6.8865 20.4763 3.59242L21.5 2" stroke="#000" stroke-width="2" data-color="color-2" data-cap="butt" fill="none"></path> <path d="M22.5 16L23.5237 14.4076C25.6413 11.1135 25.6413 6.8865 23.5237 3.59242L22.5 2" stroke="#000" stroke-width="2" data-color="color-2" data-cap="butt" fill="none"></path> <path d="M22 16C25.866 16 29 12.866 29 9C29 5.13401 25.866 2 22 2C18.134 2 15 5.13401 15 9C15 12.866 18.134 16 22 16Z" stroke="#000" stroke-width="2" stroke-miterlimit="10" stroke-linecap="square" data-color="color-2" fill="none"></path> <path d="M15 24H21V23C21 21.3431 19.6569 20 18 20H16L15.591 19.591C14.5723 18.5723 13.1907 18 11.75 18V18C10.3093 18 8.9277 18.5723 7.90901 19.591L7 20.5L7.30366 20.1963M25 21.5L28.8113 20.8648C29.957 20.6738 31 21.5574 31 22.7189V22.7189C31 23.4918 30.527 24.1858 29.8076 24.4684L18.9309 28.7414C17.68 29.2329 16.3002 29.2901 15.0129 28.9039L7 26.5L7.39074 26.6368" stroke="black" stroke-width="2" stroke-miterlimit="10" stroke-linecap="square" fill="none"></path> <path d="M7 17V29H3V17H7Z" stroke="black" stroke-width="2" stroke-linecap="square" fill="none"></path> </svg>