<svg xmlns="http://www.w3.org/2000/svg" xmlns:xlink="http://www.w3.org/1999/xlink" x="0px" y="0px" width="32px" height="32px" viewBox="0 0 32 32"> <path d="M18.9653 15.5975L16.0111 16.1113L13.3566 15.5975L15.112 17.9095L16 20.3072L16.8531 17.9095L18.9653 15.5975Z" fill="black" data-cap="butt" data-stroke="none"></path> <path d="M16 24C19.866 24 23 20.866 23 17C23 13.134 19.866 10 16 10C12.134 10 9 13.134 9 17C9 20.866 12.134 24 16 24Z" stroke="#000" stroke-width="2" stroke-miterlimit="10" stroke-linecap="square" data-color="color-2" fill="none"></path> <path d="M10.6967 3.1967C7.76777 6.12564 7.76777 10.8744 10.6967 13.8033C13.6256 16.7322 18.3744 16.7322 21.3033 13.8033C24.2322 10.8744 24.2322 6.12564 21.3033 3.1967" stroke="black" stroke-width="2" stroke-miterlimit="10" stroke-linecap="square" fill="none"></path> <path d="M31 21.5C31 17.3579 27.6421 14 23.5 14C19.3579 14 16 17.3579 16 21.5C16 25.6421 19.3579 29 23.5 29" stroke="black" stroke-width="2" stroke-miterlimit="10" stroke-linecap="square" fill="none"></path> <path d="M8.5 29C12.6421 29 16 25.6421 16 21.5C16 17.3579 12.6421 14 8.5 14C4.35786 14 1 17.3579 1 21.5" stroke="black" stroke-width="2" stroke-miterlimit="10" stroke-linecap="square" fill="none"></path> </svg>