<svg xmlns="http://www.w3.org/2000/svg" xmlns:xlink="http://www.w3.org/1999/xlink" x="0px" y="0px" width="32px" height="32px" viewBox="0 0 32 32"> <path d="M16 18V23V22.3333" stroke="#000" stroke-width="2" stroke-linecap="square" data-color="color-2" fill="none"></path> <path d="M16 23C21.5228 23 26 18.5228 26 13C26 7.47715 21.5228 3 16 3C10.4772 3 6 7.47715 6 13C6 18.5228 10.4772 23 16 23Z" stroke="black" stroke-width="2" stroke-miterlimit="10" stroke-linecap="square" fill="none"></path> <path d="M11.5625 22L12.125 28H20L20.5625 22" stroke="black" stroke-width="2" stroke-miterlimit="10" data-cap="butt" fill="none"></path> <path d="M14 30H18" stroke="#000" stroke-width="2" stroke-linecap="square" data-color="color-2" fill="none"></path> <path d="M22 11H21C18.2386 11 16 13.2386 16 16V18H17C19.7614 18 22 15.7614 22 13V11Z" stroke="#000" stroke-width="2" stroke-miterlimit="10" stroke-linecap="square" data-color="color-2" fill="none"></path> <path d="M10 11H11C13.7614 11 16 13.2386 16 16V18H15C12.2386 18 10 15.7614 10 13V11Z" stroke="#000" stroke-width="2" stroke-miterlimit="10" stroke-linecap="square" data-color="color-2" fill="none"></path> </svg>