<svg xmlns="http://www.w3.org/2000/svg" xmlns:xlink="http://www.w3.org/1999/xlink" x="0px" y="0px" width="32px" height="32px" viewBox="0 0 32 32"> <path d="M10.9695 10.3841L14.2857 4.85716C15.0623 3.56275 16.9382 3.56242 17.7153 4.85656L22.6402 13.0582L23.8893 15.1403L23.5447 14.5793" stroke="#000" stroke-width="2" stroke-linecap="square" data-color="color-2" fill="none"></path> <path d="M26.0162 18.6708L29.1888 23.9731C29.9865 25.3062 29.0261 27 27.4726 27H14.9555H15.1605" stroke="#000" stroke-width="2" stroke-linecap="square" data-color="color-2" fill="none"></path> <path d="M10.5859 27H4.53238C2.97779 27 2.01757 25.3041 2.81739 23.971L8.5 14.5L8.29056 14.8491" stroke="#000" stroke-width="2" stroke-linecap="square" data-color="color-2" fill="none"></path> <path d="M3.87631 15.4645L8.70592 14.1704L10 19" stroke="black" stroke-width="2" stroke-miterlimit="10" stroke-linecap="square" fill="none"></path> <path d="M25.0123 10.0444L23.7182 14.8741L18.8885 13.5799" stroke="black" stroke-width="2" stroke-miterlimit="10" stroke-linecap="square" fill="none"></path> <path d="M18.5355 30.5355L15 27L18.5356 23.4645" stroke="black" stroke-width="2" stroke-miterlimit="10" stroke-linecap="square" fill="none"></path> </svg>