<svg xmlns="http://www.w3.org/2000/svg" xmlns:xlink="http://www.w3.org/1999/xlink" x="0px" y="0px" width="20px" height="20px" viewBox="0 0 20 20"><path d="m17,8v-1c0-1.6569-1.3431-3-3-3H6c-1.6569,0-3,1.3431-3,3v1h14Z" stroke-width="0" fill="#000"></path><line x1="6" y1="4" x2="6" y2="2" fill="none" stroke="#000" stroke-linecap="round" stroke-linejoin="round" stroke-width="2"></line><line x1="14" y1="4" x2="14" y2="2" fill="none" stroke="#000" stroke-linecap="round" stroke-linejoin="round" stroke-width="2"></line><path d="m17,8.0127v-1.0127c0-1.6569-1.3431-3-3-3H6c-1.6569,0-3,1.3431-3,3v6c0,1.6569,1.3431,3,3,3h3.309" fill="none" stroke="#000" stroke-linecap="round" stroke-linejoin="round" stroke-width="2"></path><path d="m17.0057,10.9961c-1.3252-1.3262-3.4834-1.3262-4.8086,0-1.3257,1.3252-1.3257,3.4824,0,4.8076.3618.3623,1.3101,1.4561,1.6445,1.8467.1904.2217.4678.3496.7598.3496s.5693-.1279.7598-.3496c.3345-.3906,1.2827-1.4844,1.6445-1.8467,1.3257-1.3252,1.3257-3.4824,0-4.8076Zm-2.4043,3.5039c-.6904,0-1.25-.5596-1.25-1.25s.5596-1.25,1.25-1.25,1.25.5596,1.25,1.25-.5596,1.25-1.25,1.25Z" fill="#000" stroke-width="0" data-color="color-2"></path></svg>