<svg xmlns="http://www.w3.org/2000/svg" xmlns:xlink="http://www.w3.org/1999/xlink" x="0px" y="0px" width="20px" height="20px" viewBox="0 0 20 20"><path d="m17,8v-1c0-1.6569-1.3431-3-3-3H6c-1.6569,0-3,1.3431-3,3v1h14Z" stroke-width="0" fill="#000"></path><line x1="6" y1="4" x2="6" y2="2" fill="none" stroke="#000" stroke-linecap="round" stroke-linejoin="round" stroke-width="2"></line><line x1="14" y1="4" x2="14" y2="2" fill="none" stroke="#000" stroke-linecap="round" stroke-linejoin="round" stroke-width="2"></line><line x1="17" y1="15" x2="11" y2="15" fill="none" stroke="#000" stroke-linecap="round" stroke-linejoin="round" stroke-width="2" data-color="color-2"></line><path d="m17,10.0503v-3.0503c0-1.6569-1.3431-3-3-3H6c-1.6569,0-3,1.3431-3,3v6c0,1.6569,1.3431,3,3,3h1.6626" fill="none" stroke="#000" stroke-linecap="round" stroke-linejoin="round" stroke-width="2"></path><polyline points="14.5 17.5 17 15 14.5 12.5" fill="none" stroke="#000" stroke-linecap="round" stroke-linejoin="round" stroke-width="2" data-color="color-2"></polyline></svg>