<svg xmlns="http://www.w3.org/2000/svg" xmlns:xlink="http://www.w3.org/1999/xlink" x="0px" y="0px" width="18px" height="18px" viewBox="0 0 18 18"><path d="M3.749 9.964C2.554 9.272 1.75 7.98 1.75 6.5C1.75 4.875 2.729 3.337 4 2.75C6.082 6.767 9.485 10.042 12.84 11.902C13.271 12.141 13.758 12.25 14.25 12.25C15.355 12.25 16.25 13.145 16.25 14.25V14.75C16.25 15.026 16.026 15.25 15.75 15.25H12.183C11.499 15.25 10.855 14.909 10.498 14.326C9.841 13.253 8.646 11.748 6.667 10.792C5.564 10.26 4.53 10.048 3.749 9.964Z" fill="#000" fill-opacity="0.3" data-color="color-2" data-stroke="none"></path> <path d="M3.75 15.25V9.96399" stroke="black" stroke-width="1.5" stroke-linecap="round" stroke-linejoin="round" fill="none"></path> <path d="M3.749 9.964C2.554 9.272 1.75 7.98 1.75 6.5C1.75 4.875 2.729 3.337 4 2.75C6.082 6.767 9.485 10.042 12.84 11.902C13.271 12.141 13.758 12.25 14.25 12.25C15.355 12.25 16.25 13.145 16.25 14.25V14.75C16.25 15.026 16.026 15.25 15.75 15.25H12.183C11.499 15.25 10.855 14.909 10.498 14.326C9.841 13.253 8.646 11.748 6.667 10.792C5.564 10.26 4.53 10.048 3.749 9.964Z" stroke="black" stroke-width="1.5" stroke-linecap="round" stroke-linejoin="round" fill="none"></path></svg>