<svg xmlns="http://www.w3.org/2000/svg" xmlns:xlink="http://www.w3.org/1999/xlink" x="0px" y="0px" width="24px" height="24px" viewBox="0 0 24 24"> <path fill-rule="evenodd" clip-rule="evenodd" d="M22.7071 16.7071L16.7071 22.7071L15.2929 21.2929L21.2929 15.2929L22.7071 16.7071Z" fill="#000" data-color="color-2"></path> <path fill-rule="evenodd" clip-rule="evenodd" d="M19 16C17.3431 16 16 17.3431 16 19C16 20.6569 17.3431 22 19 22C20.6569 22 22 20.6569 22 19C22 17.3431 20.6569 16 19 16ZM14 19C14 16.2386 16.2386 14 19 14C21.7614 14 24 16.2386 24 19C24 21.7614 21.7614 24 19 24C16.2386 24 14 21.7614 14 19Z" fill="#000" data-color="color-2"></path> <path fill-rule="evenodd" clip-rule="evenodd" d="M5.20177 1H13.1312L11.6646 8H18.646L6.86137 22.0293L7.48587 14H2.24723L5.20177 1Z" fill="black"></path> </svg>