<svg xmlns="http://www.w3.org/2000/svg" xmlns:xlink="http://www.w3.org/1999/xlink" x="0px" y="0px" width="24px" height="24px" viewBox="0 0 24 24"> <path fill-rule="evenodd" clip-rule="evenodd" d="M16.4544 11.0402L22.7071 17.2929V21.6616H17.5H9.74984L8.25016 20.3384L16.4544 11.0402Z" fill="black"></path> <path fill-rule="evenodd" clip-rule="evenodd" d="M12 0.25L18.6 5.2L17.4 6.8L12 2.75L6.6 6.8L5.4 5.2L12 0.25Z" fill="#000" data-color="color-2"></path> <path fill-rule="evenodd" clip-rule="evenodd" d="M1 22L1 5L23 5L23 22L1 22ZM3 20L21 20L21 7L3 7L3 20Z" fill="black"></path> <path d="M9 14.5C10.3807 14.5 11.5 13.3807 11.5 12C11.5 10.6193 10.3807 9.5 9 9.5C7.61929 9.5 6.5 10.6193 6.5 12C6.5 13.3807 7.61929 14.5 9 14.5Z" fill="#000" data-color="color-2"></path> </svg>