<svg xmlns="http://www.w3.org/2000/svg" xmlns:xlink="http://www.w3.org/1999/xlink" x="0px" y="0px" width="24px" height="24px" viewBox="0 0 24 24"> <path d="M21.0117 16.9219C24.649 14.6486 24.649 9.35139 21.0117 7.07809C20.6088 6.82625 20.4634 6.30935 20.6759 5.88435L22.618 2H14V22H22.618L20.6759 18.1157C20.4634 17.6907 20.6088 17.1737 21.0117 16.9219Z" fill="black"></path> <path fill-rule="evenodd" clip-rule="evenodd" d="M3.5 19C2.11929 19 1 17.8807 1 16.5V7.5C1 6.11929 2.11929 5 3.5 5H12L12 19L3.5 19ZM10 11H4V9H10V11ZM10 15V13H4V15H10Z" fill="#000" data-color="color-2"></path> </svg>