<svg xmlns="http://www.w3.org/2000/svg" xmlns:xlink="http://www.w3.org/1999/xlink" x="0px" y="0px" width="24px" height="24px" viewBox="0 0 24 24"> <path fill-rule="evenodd" clip-rule="evenodd" d="M2 12C2 10.3431 3.34315 9 5 9H15C16.6569 9 18 10.3431 18 12V18C18 19.6569 16.6569 21 15 21H5C3.34315 21 2 19.6569 2 18V12Z" fill="black"></path> <path fill-rule="evenodd" clip-rule="evenodd" d="M3 5C3 3.34315 4.34315 2 6 2C7.65685 2 9 3.34315 9 5C9 6.65685 7.65685 8 6 8C4.34315 8 3 6.65685 3 5Z" fill="#000" data-color="color-2"></path> <path fill-rule="evenodd" clip-rule="evenodd" d="M10 4C10 1.79086 11.7909 0 14 0C16.2091 0 18 1.79086 18 4C18 6.20914 16.2091 8 14 8C11.7909 8 10 6.20914 10 4Z" fill="#000" data-color="color-2"></path> <path d="M23 20.4498V9.55023L20 10.6902L20 19.3098L23 20.4498Z" fill="black"></path> </svg>