<svg xmlns="http://www.w3.org/2000/svg" xmlns:xlink="http://www.w3.org/1999/xlink" x="0px" y="0px" width="32px" height="32px" viewBox="0 0 32 32"> <path fill-rule="evenodd" clip-rule="evenodd" d="M17 0V3H15V0H17Z" fill="#000" data-color="color-2"></path> <path fill-rule="evenodd" clip-rule="evenodd" d="M32 17L29 17L29 15L32 15L32 17Z" fill="#000" data-color="color-2"></path> <path fill-rule="evenodd" clip-rule="evenodd" d="M3 17L-8.74228e-08 17L0 15L3 15L3 17Z" fill="#000" data-color="color-2"></path> <path fill-rule="evenodd" clip-rule="evenodd" d="M28.0208 5.3934L25.8995 7.51472L24.4853 6.10051L26.6066 3.97919L28.0208 5.3934Z" fill="#000" data-color="color-2"></path> <path fill-rule="evenodd" clip-rule="evenodd" d="M6.10051 7.51471L3.97919 5.39339L5.3934 3.97917L7.51472 6.10049L6.10051 7.51471Z" fill="#000" data-color="color-2"></path> <path fill-rule="evenodd" clip-rule="evenodd" d="M6 12C6 9.79086 7.79086 8 10 8H22C24.2091 8 26 9.79086 26 12V19C26 21.2091 24.2091 23 22 23H10C7.79086 23 6 21.2091 6 19V12Z" fill="black"></path> <path d="M9.31152 24.9609L9.85142 30H22.1486L22.6885 24.9609C22.4626 24.9867 22.2328 25 22 25H9.99999C9.76717 25 9.53744 24.9867 9.31152 24.9609Z" fill="#000" data-color="color-2"></path> </svg>