<svg xmlns="http://www.w3.org/2000/svg" xmlns:xlink="http://www.w3.org/1999/xlink" x="0px" y="0px" width="48px" height="48px" viewBox="0 0 48 48"> <path fill-rule="evenodd" clip-rule="evenodd" d="M44.5607 33.5607L33.5607 44.5607L31.4393 42.4393L42.4393 31.4393L44.5607 33.5607Z" fill="#000" data-color="color-2"></path> <path d="M23.9721 4.03461L2.57556 28.9932H16.6732L15.5279 44.4586L36.9245 19.5H22.8268L23.9721 4.03461Z" fill="black"></path> <path fill-rule="evenodd" clip-rule="evenodd" d="M38 32C34.6863 32 32 34.6863 32 38C32 41.3137 34.6863 44 38 44C41.3137 44 44 41.3137 44 38C44 34.6863 41.3137 32 38 32ZM29 38C29 33.0294 33.0294 29 38 29C42.9706 29 47 33.0294 47 38C47 42.9706 42.9706 47 38 47C33.0294 47 29 42.9706 29 38Z" fill="#000" data-color="color-2"></path> </svg>