<svg xmlns="http://www.w3.org/2000/svg" xmlns:xlink="http://www.w3.org/1999/xlink" x="0px" y="0px" width="48px" height="48px" viewBox="0 0 48 48"><path fill-rule="evenodd" clip-rule="evenodd" d="M12 24C12 17.3726 17.3726 12 24 12C30.6274 12 36 17.3726 36 24C36 30.6274 30.6274 36 24 36C17.3726 36 12 30.6274 12 24Z" fill="black"></path> <path fill-rule="evenodd" clip-rule="evenodd" d="M25.5 4V9H22.5V4H25.5Z" fill="#000" data-color="color-2"></path> <path fill-rule="evenodd" clip-rule="evenodd" d="M25.5 39V44H22.5V39H25.5Z" fill="#000" data-color="color-2"></path> <path fill-rule="evenodd" clip-rule="evenodd" d="M44 25.5L39 25.5L39 22.5L44 22.5L44 25.5Z" fill="#000" data-color="color-2"></path> <path fill-rule="evenodd" clip-rule="evenodd" d="M9 25.5L4 25.5L4 22.5L9 22.5L9 25.5Z" fill="#000" data-color="color-2"></path> <path fill-rule="evenodd" clip-rule="evenodd" d="M39.2028 10.9185L35.6673 14.4541L33.5459 12.3327L37.0815 8.79721L39.2028 10.9185Z" fill="#000" data-color="color-2"></path> <path fill-rule="evenodd" clip-rule="evenodd" d="M14.4541 35.6673L10.9186 39.2028L8.79723 37.0815L12.3328 33.546L14.4541 35.6673Z" fill="#000" data-color="color-2"></path> <path fill-rule="evenodd" clip-rule="evenodd" d="M37.0815 39.2028L33.546 35.6673L35.6673 33.5459L39.2028 37.0815L37.0815 39.2028Z" fill="#000" data-color="color-2"></path> <path fill-rule="evenodd" clip-rule="evenodd" d="M12.3327 14.4541L8.79719 10.9185L10.9185 8.7972L14.454 12.3327L12.3327 14.4541Z" fill="#000" data-color="color-2"></path></svg>