<svg xmlns="http://www.w3.org/2000/svg" xmlns:xlink="http://www.w3.org/1999/xlink" x="0px" y="0px" width="24px" height="24px" viewBox="0 0 24 24"> <path fill-rule="evenodd" clip-rule="evenodd" d="M15.5 11H22V13H15.5V11Z" fill="#000" data-color="color-2"></path> <path fill-rule="evenodd" clip-rule="evenodd" d="M18.9999 7.08582L23.9141 12L18.9999 16.9142L17.5857 15.5L21.0857 12L17.5857 8.50003L18.9999 7.08582Z" fill="#000" data-color="color-2"></path> <path d="M4.08301 13C4.55909 15.8377 7.02705 18 10 18C13.3138 18 16 15.3137 16 12C16 8.68629 13.3138 6 10 6C7.02705 6 4.55909 8.16229 4.08301 11H10V13H4.08301Z" fill="black"></path> <path d="M4.08296 11H0V13H4.08296C4.0284 12.6748 4 12.3407 4 12C4 11.6593 4.0284 11.3252 4.08296 11Z" fill="#000" data-color="color-2"></path> </svg>