<svg xmlns="http://www.w3.org/2000/svg" xmlns:xlink="http://www.w3.org/1999/xlink" x="0px" y="0px" width="32px" height="32px" viewBox="0 0 32 32"> <path fill-rule="evenodd" clip-rule="evenodd" d="M16.0001 14C10.8214 14 6.12827 16.0706 2.70013 19.4312L1.98603 20.1313L0.585938 18.7031L1.30004 18.003C5.08689 14.2907 10.277 12 16.0001 12C21.3039 12 26.15 13.9674 29.8457 17.2104L29.8648 17.1907L30.5805 17.8866C30.6205 17.9253 30.6604 17.9641 30.7001 18.003L29.3029 19.434L29.3 19.4312L29.1888 19.3231C25.7707 16.0262 21.123 14 16.0001 14Z" fill="#000" data-color="color-2"></path> <path fill-rule="evenodd" clip-rule="evenodd" d="M28.7071 7.77527L31.8129 19.3664L20.2218 22.4722L19.7042 20.5404L29.3634 17.9522L26.7752 8.29291L28.7071 7.77527Z" fill="black"></path> </svg>