<svg xmlns="http://www.w3.org/2000/svg" xmlns:xlink="http://www.w3.org/1999/xlink" x="0px" y="0px" width="32px" height="32px" viewBox="0 0 32 32"> <path fill-rule="evenodd" clip-rule="evenodd" d="M17 4V12H15V4H17Z" fill="black"></path> <path fill-rule="evenodd" clip-rule="evenodd" d="M17 20V28H15V20H17Z" fill="black"></path> <path fill-rule="evenodd" clip-rule="evenodd" d="M12 17L4 17L4 15L12 15L12 17Z" fill="#000" data-color="color-2"></path> <path fill-rule="evenodd" clip-rule="evenodd" d="M28 17L20 17L20 15L28 15L28 17Z" fill="#000" data-color="color-2"></path> <path fill-rule="evenodd" clip-rule="evenodd" d="M11 7.50024L16.0001 0.833548L21 7.5L11 7.50024Z" fill="black"></path> <path fill-rule="evenodd" clip-rule="evenodd" d="M11 24.5001L16.0001 31.1668L21 24.5004L11 24.5001Z" fill="black"></path> <path fill-rule="evenodd" clip-rule="evenodd" d="M24.4998 11L31.1665 16.0001L24.5 21L24.4998 11Z" fill="#000" data-color="color-2"></path> <path fill-rule="evenodd" clip-rule="evenodd" d="M7.5 11L0.833303 16.0001L7.49976 21L7.5 11Z" fill="#000" data-color="color-2"></path> </svg>