<svg xmlns="http://www.w3.org/2000/svg" xmlns:xlink="http://www.w3.org/1999/xlink" x="0px" y="0px" width="32px" height="32px" viewBox="0 0 32 32"> <path fill-rule="evenodd" clip-rule="evenodd" d="M14 17L2 17L2 15L14 15L14 17Z" fill="black"></path> <path fill-rule="evenodd" clip-rule="evenodd" d="M18 17L30 17L30 15L18 15L18 17Z" fill="black"></path> <path fill-rule="evenodd" clip-rule="evenodd" d="M25.0002 22.4142L31.4144 16L25.0002 9.58579L23.5859 11L28.5859 16L23.5859 21L25.0002 22.4142Z" fill="black"></path> <path fill-rule="evenodd" clip-rule="evenodd" d="M6.99985 22.4142L0.585635 16L6.99985 9.58579L8.41406 11L3.41406 16L8.41406 21L6.99985 22.4142Z" fill="black"></path> <path fill-rule="evenodd" clip-rule="evenodd" d="M14 2V30H12V2H14Z" fill="#000" data-color="color-2"></path> <path fill-rule="evenodd" clip-rule="evenodd" d="M20 2V30H18V2H20Z" fill="#000" data-color="color-2"></path> </svg>