<svg xmlns="http://www.w3.org/2000/svg" xmlns:xlink="http://www.w3.org/1999/xlink" x="0px" y="0px" width="32px" height="32px" viewBox="0 0 32 32"> <path fill-rule="evenodd" clip-rule="evenodd" d="M25.9843 14.8561C25.9806 14.9119 25.9769 14.9678 25.974 15.024C28.789 15.265 31 17.622 31 20.5C31 23.538 28.538 26 25.5 26H7C3.686 26 1 23.314 1 20C1 17.386 2.675 15.168 5.008 14.346C5.091 8.619 9.753 4 15.5 4C21.299 4 26 8.701 26 14.5C26 14.6202 25.9922 14.738 25.9843 14.8561ZM17 25.9866H15V18.9865L9 18.9866L16 11L23 18.9865L17 18.9865V25.9866Z" fill="black"></path> <path d="M15 26H17V30H15V26Z" fill="#000" data-color="color-2"></path> </svg>