<svg xmlns="http://www.w3.org/2000/svg" xmlns:xlink="http://www.w3.org/1999/xlink" x="0px" y="0px" width="32px" height="32px" viewBox="0 0 32 32"> <path fill-rule="evenodd" clip-rule="evenodd" d="M9.08588 24.5L16.0001 31.4142L22.9143 24.5L21.5001 23.0858L16.0001 28.5858L10.5001 23.0858L9.08588 24.5Z" fill="black"></path> <path fill-rule="evenodd" clip-rule="evenodd" d="M21.5001 8.91418L16.0001 3.41418L10.5001 8.91418L9.08588 7.49997L16.0001 0.585757L22.9143 7.49997L21.5001 8.91418Z" fill="black"></path> <path fill-rule="evenodd" clip-rule="evenodd" d="M30 15L2 15L2 17L30 17L30 15Z" fill="#000" data-color="color-2"></path> <path fill-rule="evenodd" clip-rule="evenodd" d="M17 2.00007L15 2L15 12.0001L17 12.0001L17 2.00007Z" fill="black"></path> <path fill-rule="evenodd" clip-rule="evenodd" d="M15 20L15 30L17 30L17 20L15 20Z" fill="black"></path> </svg>