<svg xmlns="http://www.w3.org/2000/svg" xmlns:xlink="http://www.w3.org/1999/xlink" x="0px" y="0px" width="32px" height="32px" viewBox="0 0 32 32"> <path fill-rule="evenodd" clip-rule="evenodd" d="M2 16V11C2 8.79086 3.79086 7 6 7H29.5V9H6C4.89543 9 4 9.89543 4 11V16H2Z" fill="black"></path> <path fill-rule="evenodd" clip-rule="evenodd" d="M22.0857 14L28.0857 7.99997L22.0857 1.99997L23.4999 0.585758L30.9141 7.99997L23.4999 15.4142L22.0857 14Z" fill="black"></path> <path fill-rule="evenodd" clip-rule="evenodd" d="M30 16V21C30 23.2091 28.2091 25 26 25H2.5V23H26C27.1046 23 28 22.1046 28 21V16H30Z" fill="#000" data-color="color-2"></path> <path fill-rule="evenodd" clip-rule="evenodd" d="M9.91431 18L3.91431 24L9.91431 30L8.50009 31.4142L1.08588 24L8.50009 16.5858L9.91431 18Z" fill="#000" data-color="color-2"></path> </svg>