<svg xmlns="http://www.w3.org/2000/svg" xmlns:xlink="http://www.w3.org/1999/xlink" x="0px" y="0px" width="32px" height="32px" viewBox="0 0 32 32"> <path fill-rule="evenodd" clip-rule="evenodd" d="M17 31L17 20L15 20L15 31L17 31Z" fill="#000" data-color="color-2"></path> <path fill-rule="evenodd" clip-rule="evenodd" d="M10.9143 23L3.91431 16L10.9143 8.99997L9.50009 7.58576L1.08588 16L9.50009 24.4142L10.9143 23Z" fill="black"></path> <path fill-rule="evenodd" clip-rule="evenodd" d="M21.0857 23L28.0857 16L21.0857 8.99997L22.4999 7.58576L30.9141 16L22.4999 24.4142L21.0857 23Z" fill="black"></path> <path fill-rule="evenodd" clip-rule="evenodd" d="M17 1L15 1L15 16L17 16L17 1Z" fill="#000" data-color="color-2"></path> <path fill-rule="evenodd" clip-rule="evenodd" d="M2.5 17L29.5 17L29.5 15L2.5 15L2.5 17Z" fill="black"></path> </svg>