<svg xmlns="http://www.w3.org/2000/svg" xmlns:xlink="http://www.w3.org/1999/xlink" x="0px" y="0px" width="32px" height="32px" viewBox="0 0 32 32"> <path fill-rule="evenodd" clip-rule="evenodd" d="M25 2V29H23V2H25Z" fill="#000" data-color="color-2"></path> <path fill-rule="evenodd" clip-rule="evenodd" d="M18 21.5858L24 27.5858L30 21.5858L31.4142 23L24 30.4142L16.5858 23L18 21.5858Z" fill="#000" data-color="color-2"></path> <path fill-rule="evenodd" clip-rule="evenodd" d="M2 27.5C2 28.8807 3.11929 30 4.5 30H11.5C12.8807 30 14 28.8807 14 27.5V20.5C14 19.1193 12.8807 18 11.5 18H4.5C3.11929 18 2 19.1193 2 20.5V27.5Z" fill="black"></path> <path fill-rule="evenodd" clip-rule="evenodd" d="M14 6.5V4.5C14 3.11929 12.8807 2 11.5 2H9.5V4H11.5C11.7761 4 12 4.22386 12 4.5V6.5H14Z" fill="black"></path> <path fill-rule="evenodd" clip-rule="evenodd" d="M4 6.5V4.5C4 4.22386 4.22386 4 4.5 4H6.5V2H4.5C3.11929 2 2 3.11929 2 4.5V6.5H4Z" fill="black"></path> <path fill-rule="evenodd" clip-rule="evenodd" d="M2 11.5C2 12.8807 3.11929 14 4.5 14H6.5V12H4.5C4.22386 12 4 11.7761 4 11.5L4 9.5H2L2 11.5Z" fill="black"></path> <path fill-rule="evenodd" clip-rule="evenodd" d="M9.5 14H11.5C12.8807 14 14 12.8807 14 11.5V9.5H12V11.5C12 11.7761 11.7761 12 11.5 12H9.5V14Z" fill="black"></path> </svg>