<svg xmlns="http://www.w3.org/2000/svg" xmlns:xlink="http://www.w3.org/1999/xlink" x="0px" y="0px" width="48px" height="48px" viewBox="0 0 48 48"> <path fill-rule="evenodd" clip-rule="evenodd" d="M4 24L4 18C4 14.4101 6.91015 11.5 10.5 11.5L43 11.5L43 14.5L10.5 14.5C8.56701 14.5 7 16.067 7 18L7 24L4 24Z" fill="black"></path> <path fill-rule="evenodd" clip-rule="evenodd" d="M44 24V30C44 33.5899 41.0899 36.5 37.5 36.5H5V33.5H37.5C39.433 33.5 41 31.933 41 30V24H44Z" fill="#000" data-color="color-2"></path> <path fill-rule="evenodd" clip-rule="evenodd" d="M31.8787 22L40.8787 13L31.8787 4.00002L34 1.8787L45.1213 13L34 24.1213L31.8787 22Z" fill="black"></path> <path fill-rule="evenodd" clip-rule="evenodd" d="M16.1213 26L7.12134 35L16.1213 44L14 46.1213L2.8787 35L14 23.8787L16.1213 26Z" fill="#000" data-color="color-2"></path> </svg>