<svg xmlns="http://www.w3.org/2000/svg" xmlns:xlink="http://www.w3.org/1999/xlink" x="0px" y="0px" width="48px" height="48px" viewBox="0 0 48 48"> <path fill-rule="evenodd" clip-rule="evenodd" d="M22.5 4H25.5V18H22.5V4Z" fill="black"></path> <path fill-rule="evenodd" clip-rule="evenodd" d="M24 1.87866L33.1213 11L31 13.1213L24 6.1213L17 13.1213L14.8787 11L24 1.87866Z" fill="black"></path> <path fill-rule="evenodd" clip-rule="evenodd" d="M22.5 44H25.5V30H22.5V44Z" fill="black"></path> <path fill-rule="evenodd" clip-rule="evenodd" d="M24 46.1213L33.1213 37L31 34.8787L24 41.8787L17 34.8787L14.8787 37L24 46.1213Z" fill="black"></path> <path fill-rule="evenodd" clip-rule="evenodd" d="M44 22.5L44 25.5L30 25.5L30 22.5L44 22.5Z" fill="#000" data-color="color-2"></path> <path fill-rule="evenodd" clip-rule="evenodd" d="M46.1213 24L36.9999 33.1215L34.8786 31.0001L41.8787 24L34.8787 16.9998L37 14.8785L46.1213 24Z" fill="#000" data-color="color-2"></path> <path fill-rule="evenodd" clip-rule="evenodd" d="M4 22.5L4 25.5L18 25.5L18 22.5L4 22.5Z" fill="#000" data-color="color-2"></path> <path fill-rule="evenodd" clip-rule="evenodd" d="M1.87878 23.9999L11.0002 33.1213L13.1216 31L6.12142 23.9999L13.1213 17L11 14.8787L1.87878 23.9999Z" fill="#000" data-color="color-2"></path> </svg>