<svg xmlns="http://www.w3.org/2000/svg" xmlns:xlink="http://www.w3.org/1999/xlink" x="0px" y="0px" width="48px" height="48px" viewBox="0 0 48 48"> <path fill-rule="evenodd" clip-rule="evenodd" d="M2 12C2 8.68629 4.68629 6 8 6H40C43.3137 6 46 8.68629 46 12V36C46 39.3137 43.3137 42 40 42H8C4.68629 42 2 39.3137 2 36V12ZM40 39C41.6569 39 43 37.6569 43 36V16H5V36C5 37.6569 6.34315 39 8 39H40Z" fill="black"></path> <path fill-rule="evenodd" clip-rule="evenodd" d="M28.5 32.6213L39.0606 22.0607L36.9393 19.9393L26.3787 30.5L28.5 32.6213Z" fill="#000" data-color="color-2"></path> <path fill-rule="evenodd" clip-rule="evenodd" d="M36.5 32L36.5 22.5L27 22.5L27 19.5L39.5 19.5L39.5 32L36.5 32Z" fill="#000" data-color="color-2"></path> </svg>