<svg xmlns="http://www.w3.org/2000/svg" xmlns:xlink="http://www.w3.org/1999/xlink" x="0px" y="0px" width="48px" height="48px" viewBox="0 0 48 48"> <path fill-rule="evenodd" clip-rule="evenodd" d="M17 25.5H3V22.5H17V25.5Z" fill="black"></path> <path fill-rule="evenodd" clip-rule="evenodd" d="M45 25.5H31V22.5H45V25.5Z" fill="black"></path> <path fill-rule="evenodd" clip-rule="evenodd" d="M16 24C16 19.5817 19.5817 16 24 16C28.4183 16 32 19.5817 32 24C32 28.4183 28.4183 32 24 32C19.5817 32 16 28.4183 16 24Z" fill="#000" data-color="color-2"></path> <path fill-rule="evenodd" clip-rule="evenodd" d="M38 14.8787L47.1213 24L38 33.1213L35.8787 31L42.8787 24L35.8787 17L38 14.8787Z" fill="black"></path> <path fill-rule="evenodd" clip-rule="evenodd" d="M10 14.8787L0.878698 24L10 33.1213L12.1213 31L5.12134 24L12.1213 17L10 14.8787Z" fill="black"></path> </svg>