<svg xmlns="http://www.w3.org/2000/svg" xmlns:xlink="http://www.w3.org/1999/xlink" x="0px" y="0px" width="48px" height="48px" viewBox="0 0 48 48"> <path fill-rule="evenodd" clip-rule="evenodd" d="M44 22.5L4 22.5L4 25.5L44 25.5L44 22.5Z" fill="#000" data-color="color-2"></path> <path fill-rule="evenodd" clip-rule="evenodd" d="M32 14.1213L24 6.12134L16 14.1213L13.8787 12L24 1.8787L34.1213 12L32 14.1213Z" fill="black"></path> <path fill-rule="evenodd" clip-rule="evenodd" d="M32 33.8787L24 41.8787L16 33.8787L13.8787 36L24 46.1213L34.1213 36L32 33.8787Z" fill="black"></path> <path fill-rule="evenodd" clip-rule="evenodd" d="M25.5 44L22.5 44L22.5 30L25.5 30L25.5 44Z" fill="black"></path> <path fill-rule="evenodd" clip-rule="evenodd" d="M25.5 4L22.5 4L22.5 18L25.5 18L25.5 4Z" fill="black"></path> </svg>