<svg xmlns="http://www.w3.org/2000/svg" xmlns:xlink="http://www.w3.org/1999/xlink" x="0px" y="0px" width="48px" height="48px" viewBox="0 0 48 48"> <path fill-rule="evenodd" clip-rule="evenodd" d="M4 10C4 6.68629 6.68629 4 10 4H19V25C19 27.2091 20.7909 29 23 29H44V38C44 41.3137 41.3137 44 38 44H10C6.68629 44 4 41.3137 4 38V10Z" fill="black"></path> <path fill-rule="evenodd" clip-rule="evenodd" d="M41.0001 7L41.0001 21L44.0001 21L44.0001 4L27.0001 4L27.0001 7L41.0001 7Z" fill="#000" data-color="color-2"></path> <path fill-rule="evenodd" clip-rule="evenodd" d="M41.4394 4.43933L43.5607 6.56063L42.1972 7.92416L25 25.1214L22.8787 23.0001L41.4394 4.43933Z" fill="#000" data-color="color-2"></path> </svg>