<svg xmlns="http://www.w3.org/2000/svg" xmlns:xlink="http://www.w3.org/1999/xlink" x="0px" y="0px" width="48px" height="48px" viewBox="0 0 48 48"> <path fill-rule="evenodd" clip-rule="evenodd" d="M22.5 44V4H25.5V44H22.5Z" fill="#000" data-color="color-2"></path> <path fill-rule="evenodd" clip-rule="evenodd" d="M44 25.5H4V22.5H44V25.5Z" fill="#000" data-color="color-2"></path> <path fill-rule="evenodd" clip-rule="evenodd" d="M24 1.87866L32.1213 9.99998L30 12.1213L24 6.1213L18 12.1213L15.8787 9.99998L24 1.87866Z" fill="black"></path> <path fill-rule="evenodd" clip-rule="evenodd" d="M24 46.1213L32.1213 38L30 35.8787L24 41.8787L18 35.8787L15.8787 38L24 46.1213Z" fill="black"></path> <path fill-rule="evenodd" clip-rule="evenodd" d="M46.1213 24L38 32.1213L35.8787 30L41.8787 24L35.8787 18L38 15.8787L46.1213 24Z" fill="black"></path> <path fill-rule="evenodd" clip-rule="evenodd" d="M1.87866 24L9.99998 32.1213L12.1213 30L6.1213 24L12.1213 18L9.99998 15.8787L1.87866 24Z" fill="black"></path> </svg>