<svg xmlns="http://www.w3.org/2000/svg" xmlns:xlink="http://www.w3.org/1999/xlink" x="0px" y="0px" width="48px" height="48px" viewBox="0 0 48 48"> <path fill-rule="evenodd" clip-rule="evenodd" d="M28.8787 31L41.4393 43.5606L43.5607 41.4393L31 28.8787L28.8787 31Z" fill="black"></path> <path fill-rule="evenodd" clip-rule="evenodd" d="M19.1213 31L6.56068 43.5607L4.43936 41.4393L17 28.8787L19.1213 31Z" fill="#000" data-color="color-2"></path> <path fill-rule="evenodd" clip-rule="evenodd" d="M44 31L44 44L31 44L31 41L41 41L41 31L44 31Z" fill="black"></path> <path fill-rule="evenodd" clip-rule="evenodd" d="M4 31L4 44L17 44L17 41L7 41L7 31H4Z" fill="#000" data-color="color-2"></path> <path fill-rule="evenodd" clip-rule="evenodd" d="M28.8787 17L41.4393 4.43936L43.5606 6.56068L31 19.1213L28.8787 17Z" fill="#000" data-color="color-2"></path> <path fill-rule="evenodd" clip-rule="evenodd" d="M19.1213 17L6.56068 4.43934L4.43936 6.56066L17 19.1213L19.1213 17Z" fill="black"></path> <path fill-rule="evenodd" clip-rule="evenodd" d="M44 17L44 4L31 4L31 7L41 7L41 17L44 17Z" fill="#000" data-color="color-2"></path> <path fill-rule="evenodd" clip-rule="evenodd" d="M4 17L4 4L17 4L17 7L7 7L7 17H4Z" fill="black"></path> </svg>