<svg xmlns="http://www.w3.org/2000/svg" xmlns:xlink="http://www.w3.org/1999/xlink" x="0px" y="0px" width="24px" height="24px" viewBox="0 0 24 24"> <path d="M8 17V20" stroke="#000" stroke-width="2" stroke-linecap="square" data-color="color-2" fill="none"></path> <path d="M16 17V20" stroke="#000" stroke-width="2" stroke-linecap="square" data-color="color-2" fill="none"></path> <path d="M10 4H14" stroke="black" stroke-width="2" data-cap="butt" fill="none"></path> <path d="M18 4L20 4C21.1046 4 22 4.89543 22 6L22 18C22 19.1046 21.1046 20 20 20L4 20C2.89543 20 2 19.1046 2 18L2 6C2 4.89543 2.89543 4 4 4L6 4" stroke="black" stroke-width="2" stroke-miterlimit="10" stroke-linecap="square" fill="none"></path> <path d="M10 13L10 3L6 3L6 13L10 13Z" stroke="black" stroke-width="2" stroke-miterlimit="10" stroke-linecap="square" fill="none"></path> <path d="M18 13L18 3L14 3L14 13L18 13Z" stroke="black" stroke-width="2" stroke-miterlimit="10" stroke-linecap="square" fill="none"></path> </svg>