<svg xmlns="http://www.w3.org/2000/svg" xmlns:xlink="http://www.w3.org/1999/xlink" x="0px" y="0px" width="24px" height="24px" viewBox="0 0 24 24"> <path d="M12 21C14.2091 21 16 19.433 16 17.5C16 15.567 14.2091 14 12 14C9.79086 14 8 15.567 8 17.5C8 19.433 9.79086 21 12 21Z" stroke="black" stroke-width="2" stroke-miterlimit="10" stroke-linecap="square" fill="none"></path> <path d="M16 16.5714V17.5V4L16.6412 4.47635C17.8483 5.37299 19.3119 5.85714 20.8155 5.85714H21V10H20.1317C19.0583 10 17.9992 9.75313 17.0365 9.27847L16.2392 8.88544" stroke="black" stroke-width="2" stroke-miterlimit="10" stroke-linecap="square" fill="none"></path> <path d="M4 8L11 8" stroke="#000" stroke-width="2" stroke-linecap="square" data-color="color-2" fill="none"></path> <path d="M4 4L7 4" stroke="#000" stroke-width="2" stroke-linecap="square" data-color="color-2" fill="none"></path> </svg>