<svg xmlns="http://www.w3.org/2000/svg" xmlns:xlink="http://www.w3.org/1999/xlink" x="0px" y="0px" width="24px" height="24px" viewBox="0 0 24 24"> <path d="M21 19L21 5C21 3.89543 20.1046 3 19 3L5 3C3.89543 3 3 3.89543 3 5L3 19C3 20.1046 3.89543 21 5 21L19 21C20.1046 21 21 20.1046 21 19Z" stroke="black" stroke-width="2" stroke-miterlimit="10" stroke-linecap="square" fill="none"></path> <path d="M16 9V9C15.0044 8.66815 14.0576 8.20505 13.1844 7.62294L13 7.5V14.5V14" stroke="#000" stroke-width="2" stroke-miterlimit="10" stroke-linecap="square" data-color="color-2" fill="none"></path> <path d="M10.5 17C11.8807 17 13 15.8807 13 14.5C13 13.1193 11.8807 12 10.5 12C9.11929 12 8 13.1193 8 14.5C8 15.8807 9.11929 17 10.5 17Z" stroke="#000" stroke-width="2" stroke-miterlimit="10" stroke-linecap="square" data-color="color-2" fill="none"></path> </svg>