<svg xmlns="http://www.w3.org/2000/svg" xmlns:xlink="http://www.w3.org/1999/xlink" x="0px" y="0px" width="32px" height="32px" viewBox="0 0 32 32"> <path d="M26 3L6 3C4.34315 3 3 4.34315 3 6L3 26C3 27.6569 4.34315 29 6 29L26 29C27.6569 29 29 27.6569 29 26L29 6C29 4.34315 27.6569 3 26 3Z" stroke="black" stroke-width="2" stroke-miterlimit="10" stroke-linecap="square" fill="none"></path> <path d="M13 21.5333V22V10.8L23 8V19V18.5333" stroke="#000" stroke-width="2" stroke-miterlimit="10" stroke-linecap="square" data-color="color-2" fill="none"></path> <path d="M10 25C11.6569 25 13 23.6569 13 22C13 20.3431 11.6569 19 10 19C8.34315 19 7 20.3431 7 22C7 23.6569 8.34315 25 10 25Z" stroke="#000" stroke-width="2" stroke-miterlimit="10" stroke-linecap="square" data-color="color-2" fill="none"></path> <path d="M20 22C21.6569 22 23 20.6569 23 19C23 17.3431 21.6569 16 20 16C18.3431 16 17 17.3431 17 19C17 20.6569 18.3431 22 20 22Z" stroke="#000" stroke-width="2" stroke-miterlimit="10" stroke-linecap="square" data-color="color-2" fill="none"></path> </svg>