<svg xmlns="http://www.w3.org/2000/svg" xmlns:xlink="http://www.w3.org/1999/xlink" x="0px" y="0px" width="32px" height="32px" viewBox="0 0 32 32"><path d="m14.333,23l2.009,6.026c.324.971-.399,1.974-1.423,1.974h-1.838c-.646,0-1.219-.413-1.423-1.026l-3.658-10.974" fill="none" stroke="#000" stroke-linecap="square" stroke-miterlimit="10" stroke-width="2" data-color="color-2"></path><line x1="9" y1="19" x2="9" y2="6" fill="none" stroke="#000" stroke-miterlimit="10" stroke-width="2" data-cap="butt"></line><path d="m28,15.329c1.165-.412,2-1.523,2-2.829s-.835-2.417-2-2.829" fill="none" stroke="#000" stroke-miterlimit="10" stroke-width="2" data-color="color-2" data-cap="butt"></path><path d="m25,23h-2s-1-4-8-4h-6.5c-3.59,0-6.5-2.91-6.5-6.5h0c0-3.59,2.91-6.5,6.5-6.5h6.5c7,0,8-4,8-4h2v21Z" fill="none" stroke="#000" stroke-linecap="square" stroke-miterlimit="10" stroke-width="2"></path></svg>