<svg xmlns="http://www.w3.org/2000/svg" xmlns:xlink="http://www.w3.org/1999/xlink" x="0px" y="0px" width="48px" height="48px" viewBox="0 0 48 48"> <path d="M11 32V41" stroke="black" stroke-width="2" stroke-linecap="square" fill="none"></path> <path d="M24 32V41" stroke="black" stroke-width="2" stroke-linecap="square" fill="none"></path> <path d="M37 32V41" stroke="black" stroke-width="2" stroke-linecap="square" fill="none"></path> <path d="M30.5 36V41" stroke="black" stroke-width="2" stroke-linecap="square" fill="none"></path> <path d="M17.5 36V41" stroke="black" stroke-width="2" stroke-linecap="square" fill="none"></path> <path d="M34.5 23V32H39.5V23" stroke="#000" stroke-width="2" stroke-linecap="square" data-color="color-2" fill="none"></path> <path d="M21.5 23V32H26.5V23" stroke="#000" stroke-width="2" stroke-linecap="square" data-color="color-2" fill="none"></path> <path d="M8.5 23V32H13.5V23" stroke="#000" stroke-width="2" stroke-linecap="square" data-color="color-2" fill="none"></path> <path d="M3 23H45" stroke="black" stroke-width="2" stroke-linecap="square" fill="none"></path> <path d="M33 12H21V18H33V12Z" stroke="black" stroke-width="2" stroke-linecap="square" fill="none"></path> <path d="M45 36L45 12C45 9.23858 42.7614 7 40 7L8 7C5.23858 7 3 9.23858 3 12L3 36C3 38.7614 5.23857 41 8 41L40 41C42.7614 41 45 38.7614 45 36Z" stroke="black" stroke-width="2" stroke-miterlimit="10" stroke-linecap="square" fill="none"></path> <path d="M39 16C39.5523 16 40 15.5523 40 15C40 14.4477 39.5523 14 39 14C38.4477 14 38 14.4477 38 15C38 15.5523 38.4477 16 39 16Z" stroke="#000" stroke-width="2" stroke-miterlimit="10" stroke-linecap="square" data-color="color-2" fill="none"></path> <path d="M9 15H13" stroke="black" stroke-width="2" stroke-linecap="square" fill="none"></path> </svg>