<svg xmlns="http://www.w3.org/2000/svg" xmlns:xlink="http://www.w3.org/1999/xlink" x="0px" y="0px" width="24px" height="24px" viewBox="0 0 24 24"><rect x=".95" y="20" width="22.1" height="2" transform="translate(-2.032 1.3) rotate(-5.716)" fill="#000" stroke-width="0" data-color="color-2"></rect><circle cx="10.5" cy="2.5" r="2.5" fill="#000" stroke-width="0" data-color="color-2"></circle><path d="m11.415,15.627c-1.265.705-2.844.406-3.757-.712-.932-1.141-.889-2.768.101-3.87l.668-.744-1.487-1.337-.668.744c-1.654,1.84-1.723,4.562-.163,6.471.973,1.192,2.398,1.829,3.851,1.828.828,0,1.665-.207,2.432-.635l.873-.487-.975-1.747-.874.488Z" stroke-width="0" fill="#000"></path><path d="m17,6h-5.819c-.589,0-1.146.258-1.527.708-.38.45-.543,1.041-.446,1.622l.667,4c.162.969.992,1.671,1.974,1.671h3.958l1.608,4.288,1.873-.703-1.608-4.287c-.292-.776-1.044-1.298-1.873-1.298h-1.973c-.002-.101,0-.202-.018-.302l-.631-3.698h3.815v-2Z" stroke-width="0" fill="#000"></path></svg>