<svg xmlns="http://www.w3.org/2000/svg" xmlns:xlink="http://www.w3.org/1999/xlink" x="0px" y="0px" width="18px" height="18px" viewBox="0 0 18 18"><path d="m15.25,12.5H2.75c-.9648,0-1.75-.7852-1.75-1.75v-5c0-1.5166,1.2334-2.75,2.75-2.75h10.5c1.5166,0,2.75,1.2334,2.75,2.75v5c0,.9648-.7852,1.75-1.75,1.75Z" fill="#000" opacity=".4" stroke-width="0" data-color="color-2"></path><path d="m6.5,12.5h-3.75c-.2694,0-.5218-.0664-.75-.1755v1.4255c0,.9648.7852,1.75,1.75,1.75h2.75v-3Z" stroke-width="0" fill="#000"></path><path d="m15.25,12.5h-7.25v3h6.25c.9648,0,1.75-.7852,1.75-1.75v-1.4255c-.2282.1091-.4806.1755-.75.1755Z" stroke-width="0" fill="#000"></path><path d="m7.5835,9.5c-.4141,0-.75-.3359-.75-.75v-2c0-.4141.3359-.75.75-.75s.75.3359.75.75v2c0,.4141-.3359.75-.75.75Z" stroke-width="0" fill="#000"></path><path d="m4.75,9.5c-.4141,0-.75-.3359-.75-.75v-2c0-.4141.3359-.75.75-.75s.75.3359.75.75v2c0,.4141-.3359.75-.75.75Z" stroke-width="0" fill="#000"></path><path d="m10.4165,9.5c-.4141,0-.75-.3359-.75-.75v-2c0-.4141.3359-.75.75-.75s.75.3359.75.75v2c0,.4141-.3359.75-.75.75Z" stroke-width="0" fill="#000"></path><path d="m13.25,9.5c-.4141,0-.75-.3359-.75-.75v-2c0-.4141.3359-.75.75-.75s.75.3359.75.75v2c0,.4141-.3359.75-.75.75Z" stroke-width="0" fill="#000"></path></svg>