<svg xmlns="http://www.w3.org/2000/svg" xmlns:xlink="http://www.w3.org/1999/xlink" x="0px" y="0px" width="12px" height="12px" viewBox="0 0 12 12"><path d="m11.78,8.72c-.293-.293-.768-.293-1.061,0l-.72.72v-3.439c0-.414-.336-.75-.75-.75s-.75.336-.75.75v3.439l-.72-.72c-.293-.293-.768-.293-1.061,0s-.293.768,0,1.061l2,2c.069.069.152.124.244.162.092.038.189.058.287.058s.195-.02.287-.058c.092-.038.175-.093.244-.162l2-2c.293-.293.293-.768,0-1.061Z" fill="#000" stroke-width="0" data-color="color-2"></path><path d="m10.25,0H1.75C.785,0,0,.785,0,1.75v.5c0,.695.411,1.292,1,1.574v4.426c0,1.517,1.233,2.75,2.75,2.75h1.25c.414,0,.75-.336.75-.75s-.336-.75-.75-.75h-1.25c-.689,0-1.25-.561-1.25-1.25v-4.25h7.75c.965,0,1.75-.785,1.75-1.75v-.5c0-.965-.785-1.75-1.75-1.75Z" stroke-width="0" fill="#000"></path></svg>