<svg xmlns="http://www.w3.org/2000/svg" xmlns:xlink="http://www.w3.org/1999/xlink" x="0px" y="0px" width="12px" height="12px" viewBox="0 0 12 12"><path d="m10.25.5H1.75c-.965,0-1.75.785-1.75,1.75s.785,1.75,1.75,1.75h8.5c.965,0,1.75-.785,1.75-1.75s-.785-1.75-1.75-1.75Z" fill="#000" stroke-width="0" data-color="color-2"></path><path d="m10.25,5.5H1.75c-.259,0-.508-.038-.75-.096v3.346c0,1.517,1.233,2.75,2.75,2.75h4.5c1.517,0,2.75-1.233,2.75-2.75v-3.346c-.242.058-.491.096-.75.096Zm-3.25,3h-2c-.414,0-.75-.336-.75-.75s.336-.75.75-.75h2c.414,0,.75.336.75.75s-.336.75-.75.75Z" stroke-width="0" fill="#000"></path></svg>