<svg xmlns="http://www.w3.org/2000/svg" xmlns:xlink="http://www.w3.org/1999/xlink" x="0px" y="0px" width="12px" height="12px" viewBox="0 0 12 12"><path d="m8.25,0H3.75C2.233,0,1,1.233,1,2.75v6.5c0,1.517,1.233,2.75,2.75,2.75h4.5c1.517,0,2.75-1.233,2.75-2.75V2.75c0-1.517-1.233-2.75-2.75-2.75Zm-2.25,7h-1.75c-.414,0-.75-.336-.75-.75s.336-.75.75-.75h1.75c.414,0,.75.336.75.75s-.336.75-.75.75Zm1.75-2.5h-3.5c-.414,0-.75-.336-.75-.75s.336-.75.75-.75h3.5c.414,0,.75.336.75.75s-.336.75-.75.75Z" stroke-width="0" fill="#000"></path></svg>