<svg xmlns="http://www.w3.org/2000/svg" xmlns:xlink="http://www.w3.org/1999/xlink" x="0px" y="0px" width="18px" height="18px" viewBox="0 0 18 18"><path d="M9.5,14.5c0-2.757,2.243-5,5-5,.402,0,.797,.047,1.18,.139,.23-.224,.511-.392,.82-.502v-2.887c0-1.516-1.233-2.75-2.75-2.75h-5.026l-.378-.471c-.525-.654-1.307-1.029-2.145-1.029h-1.951c-1.517,0-2.75,1.234-2.75,2.75V13.25c0,1.517,1.233,2.75,2.75,2.75h5.505c-.151-.477-.255-.974-.255-1.5ZM3,6.314v-1.564c0-.689,.561-1.25,1.25-1.25h1.951c.381,0,.737,.17,.975,.467l.603,.752c.142,.177,.357,.281,.585,.281h5.386c.689,0,1.25,.561,1.25,1.25v.064c-.377-.194-.798-.314-1.25-.314H4.25c-.452,0-.873,.12-1.25,.314Z" fill="#000"></path><path d="M17.25,10.5c-.414,0-.75,.336-.75,.75v.374c-.572-.398-1.263-.624-2-.624-1.93,0-3.5,1.57-3.5,3.5s1.57,3.5,3.5,3.5c.959,0,1.887-.4,2.546-1.098,.284-.301,.271-.776-.031-1.06-.3-.284-.775-.271-1.06,.031-.382,.405-.899,.627-1.455,.627-1.103,0-2-.897-2-2s.897-2,2-2c.495,0,.941,.193,1.295,.5h-1.045c-.414,0-.75,.336-.75,.75s.336,.75,.75,.75h2.5c.414,0,.75-.336,.75-.75v-2.5c0-.414-.336-.75-.75-.75Z" fill="#000" data-color="color-2"></path></svg>