<svg xmlns="http://www.w3.org/2000/svg" xmlns:xlink="http://www.w3.org/1999/xlink" x="0px" y="0px" width="18px" height="18px" viewBox="0 0 18 18"><path d="M9 12.25C10.7949 12.25 12.25 10.7949 12.25 9C12.25 7.20507 10.7949 5.75 9 5.75C7.20507 5.75 5.75 7.20507 5.75 9C5.75 10.7949 7.20507 12.25 9 12.25Z" fill="#000" fill-opacity="0.3" data-color="color-2" data-stroke="none"></path> <path d="M2.75 6.75V4.75C2.75 3.645 3.645 2.75 4.75 2.75H6.75" stroke="black" stroke-width="1.5" stroke-linecap="round" stroke-linejoin="round" fill="none"></path> <path d="M11.25 2.75H13.25C14.355 2.75 15.25 3.645 15.25 4.75V6.75" stroke="black" stroke-width="1.5" stroke-linecap="round" stroke-linejoin="round" fill="none"></path> <path d="M6.75 15.25H4.75C3.645 15.25 2.75 14.355 2.75 13.25V11.25" stroke="black" stroke-width="1.5" stroke-linecap="round" stroke-linejoin="round" fill="none"></path> <path d="M9 12.25C10.7949 12.25 12.25 10.7949 12.25 9C12.25 7.20507 10.7949 5.75 9 5.75C7.20507 5.75 5.75 7.20507 5.75 9C5.75 10.7949 7.20507 12.25 9 12.25Z" stroke="black" stroke-width="1.5" stroke-linecap="round" stroke-linejoin="round" fill="none"></path> <path d="M11.296 11.296L14.5 14.5" stroke="black" stroke-width="1.5" stroke-linecap="round" stroke-linejoin="round" fill="none"></path></svg>