<svg xmlns="http://www.w3.org/2000/svg" xmlns:xlink="http://www.w3.org/1999/xlink" x="0px" y="0px" width="18px" height="18px" viewBox="0 0 18 18"><path d="M15.25 4.53516C15.25 4.8301 15.1195 5.10984 14.8936 5.2998L10.5 9V11.0859C9.62657 11.3951 9 12.2707 9 13.25C9 14.2292 9.62673 15.2035 10.5 15.5128V16.25H7.5V9L3.10645 5.2998C2.88049 5.10984 2.75005 4.8301 2.75 4.53516V2.75H15.25V4.53516Z" fill="#000" fill-opacity="0.3" data-color="color-2" data-stroke="none"></path> <path d="M10.5 16.25H7.5V9L3.106 5.3C2.88 5.11 2.75 4.83 2.75 4.535V2.75H15.25V4.535C15.25 4.83 15.12 5.11 14.894 5.3L10.5 9V10.3457" stroke="black" stroke-width="1.5" stroke-linecap="round" stroke-linejoin="round" fill="none"></path> <path d="M16.25 13.25H11.25" stroke="black" stroke-width="1.5" stroke-linecap="round" stroke-linejoin="round" fill="none"></path></svg>