<svg xmlns="http://www.w3.org/2000/svg" xmlns:xlink="http://www.w3.org/1999/xlink" x="0px" y="0px" width="48px" height="48px" viewBox="0 0 48 48"> <path d="M38.6641 41.5039L37 44L24.3359 36.4961L26 34L38.6641 41.5039Z" fill="#000" data-color="color-2"></path> <path fill-rule="evenodd" clip-rule="evenodd" d="M43.4004 16.7881L45.1699 28H17.8301L19.5996 16.7881L31.5 11.9199L43.4004 16.7881ZM31.5 20C29.0147 20 27 22.0147 27 24.5V25H36V24.5C36 22.0147 33.9853 20 31.5 20Z" fill="#000" data-color="color-2"></path> <path d="M17.1904 15C16.944 15.3317 16.766 15.7149 16.6729 16.1279L14.8672 27.5322C14.8426 27.6881 14.8301 27.8444 14.8301 28H4V15H17.1904Z" fill="black"></path> <path d="M44 31V44H37V34H26V44H19V31H44Z" fill="black"></path> <path d="M13 2C17.9706 2 22 6.02944 22 11V12H4V11C4 6.02944 8.02944 2 13 2Z" fill="#000" data-color="color-2"></path> <path d="M16 44H4V31H16.0059C16.0046 33.1006 16 40.3495 16 44Z" fill="black"></path> </svg>