<svg xmlns="http://www.w3.org/2000/svg" xmlns:xlink="http://www.w3.org/1999/xlink" x="0px" y="0px" width="24px" height="24px" viewBox="0 0 24 24"> <path d="M15.5 11V6V6.5" stroke="black" stroke-width="2" stroke-linecap="square" fill="none"></path> <path d="M8.5 2.51807V18" stroke="black" stroke-width="2" data-cap="butt" fill="none"></path> <path d="M22 9V3.5L15.5 6L8.5 2.5L2 5V20.5L8.5 18V17" stroke="black" stroke-width="2" stroke-miterlimit="10" stroke-linecap="square" fill="none"></path> <path d="M14.5 19.5C15.3284 19.5 16 18.8284 16 18C16 17.1716 15.3284 16.5 14.5 16.5C13.6716 16.5 13 17.1716 13 18C13 18.8284 13.6716 19.5 14.5 19.5Z" fill="#000" stroke="#000" stroke-width="2" stroke-miterlimit="10" stroke-linecap="square" data-color="color-2"></path> <path d="M20.5 16C21.3284 16 22 15.3284 22 14.5C22 13.6716 21.3284 13 20.5 13C19.6716 13 19 13.6716 19 14.5C19 15.3284 19.6716 16 20.5 16Z" fill="#000" stroke="#000" stroke-width="2" stroke-miterlimit="10" stroke-linecap="square" data-color="color-2"></path> <path d="M20.5 23C21.3284 23 22 22.3284 22 21.5C22 20.6716 21.3284 20 20.5 20C19.6716 20 19 20.6716 19 21.5C19 22.3284 19.6716 23 20.5 23Z" fill="#000" stroke="#000" stroke-width="2" stroke-miterlimit="10" stroke-linecap="square" data-color="color-2"></path> <path d="M15.794 17.2449L19.209 15.2529" stroke="#000" stroke-width="2" stroke-miterlimit="10" data-color="color-2" data-cap="butt" fill="none"></path> <path d="M15.794 18.7549L19.209 20.7469" stroke="#000" stroke-width="2" stroke-miterlimit="10" data-color="color-2" data-cap="butt" fill="none"></path> </svg>