<svg xmlns="http://www.w3.org/2000/svg" xmlns:xlink="http://www.w3.org/1999/xlink" x="0px" y="0px" width="24px" height="24px" viewBox="0 0 24 24"> <path d="M2 18.5V5C2 3.89543 2.89543 3 4 3H20C21.1046 3 22 3.89543 22 5V18.5" stroke="black" stroke-width="2" data-cap="butt" fill="none"></path> <path d="M6 16.5V21L4.5 21C3.11929 21 2 19.8807 2 18.5V18.5C2 17.1193 3.11929 16 4.5 16H19.5C20.8807 16 22 17.1193 22 18.5V18.5C22 19.8807 20.8807 21 19.5 21L18 21L18 16.5" stroke="black" stroke-width="2" stroke-miterlimit="10" stroke-linecap="square" fill="none"></path> <path d="M9.99 9.5H10" stroke="#000" stroke-width="2" stroke-linecap="square" data-color="color-2" fill="none"></path> <path d="M6.00001 9.5H6.01001" stroke="#000" stroke-width="2" stroke-linecap="square" data-color="color-2" fill="none"></path> <path d="M17.5 8L14.5 11" stroke="#000" stroke-width="2" stroke-miterlimit="10" stroke-linecap="square" data-color="color-2" fill="none"></path> <path d="M14.5 8L17.5 11" stroke="#000" stroke-width="2" stroke-miterlimit="10" stroke-linecap="square" data-color="color-2" fill="none"></path> </svg>