<svg xmlns="http://www.w3.org/2000/svg" xmlns:xlink="http://www.w3.org/1999/xlink" x="0px" y="0px" width="32px" height="32px" viewBox="0 0 32 32"> <path d="M24 16C27.866 16 31 19.134 31 23C31 26.866 27.866 30 24 30C20.134 30 17 26.866 17 23C17 19.134 20.134 16 24 16Z" stroke="#000" stroke-width="2" stroke-miterlimit="10" stroke-linecap="square" data-color="color-2" fill="none"></path> <path d="M24 20V26V25.5" stroke="#000" stroke-width="2" stroke-linecap="square" data-color="color-2" fill="none"></path> <path d="M21 23L24 26L27 23" stroke="#000" stroke-width="2" stroke-miterlimit="10" stroke-linecap="square" data-color="color-2" fill="none"></path> <path d="M11 3V24" stroke="black" stroke-width="2" data-cap="butt" fill="none"></path> <path d="M21 12.5V8V8.5" stroke="black" stroke-width="2" stroke-linecap="square" fill="none"></path> <path d="M30 13.7905V4.5L21 8L11 3L2 6.5V27.5L11 24L13.1902 25.0951" stroke="black" stroke-width="2" stroke-miterlimit="10" stroke-linecap="square" fill="none"></path> </svg>