<svg xmlns="http://www.w3.org/2000/svg" xmlns:xlink="http://www.w3.org/1999/xlink" x="0px" y="0px" width="32px" height="32px" viewBox="0 0 32 32"> <path d="M7 10.9213C7 18.6111 16 25 16 25C16 25 25 18.6111 25 10.9213C25 5.23358 20.3871 2 16 2C11.6129 2 7 5.23358 7 10.9213Z" stroke="black" stroke-width="2" stroke-miterlimit="10" stroke-linecap="square" fill="none"></path> <path d="M16 14C17.6569 14 19 12.6569 19 11C19 9.34315 17.6569 8 16 8C14.3431 8 13 9.34315 13 11C13 12.6569 14.3431 14 16 14Z" stroke="#000" stroke-width="2" stroke-miterlimit="10" stroke-linecap="square" data-color="color-2" fill="none"></path> <path d="M25.5 21.033C28.2672 21.9774 30 23.3292 30 24.8303C30 27.6855 23.732 30.0001 16 30.0001C8.26801 30.0001 2 27.6855 2 24.8303C2 23.3292 3.73275 21.9774 6.5 21.033" stroke="#000" stroke-width="2" stroke-miterlimit="10" stroke-linecap="square" data-color="color-2" fill="none"></path> </svg>