<svg xmlns="http://www.w3.org/2000/svg" xmlns:xlink="http://www.w3.org/1999/xlink" x="0px" y="0px" width="32px" height="32px" viewBox="0 0 32 32"> <path d="M21 13V8V9" stroke="black" stroke-width="2" stroke-linecap="square" fill="none"></path> <path d="M11 3V24" stroke="black" stroke-width="2" data-cap="butt" fill="none"></path> <path d="M16 26.5L11 24L2 27.5V6.5L11 3L21 8L30 4.5V13.5" stroke="black" stroke-width="2" stroke-miterlimit="10" stroke-linecap="square" fill="none"></path> <path d="M25 30C28.492 27.6222 31 24.9155 31 21.7436C31 18.5717 28.3135 16 25 16C21.6865 16 19 18.5717 19 21.7436C19 24.9155 21.508 27.6222 25 30Z" stroke="#000" stroke-width="2" stroke-miterlimit="10" stroke-linecap="square" data-color="color-2" fill="none"></path> <path d="M25.5 22C25.5 22.2761 25.2761 22.5 25 22.5C24.7239 22.5 24.5 22.2761 24.5 22C24.5 21.7239 24.7239 21.5 25 21.5C25.2761 21.5 25.5 21.7239 25.5 22Z" fill="#000" stroke="#000" stroke-width="2" data-color="color-2" data-cap="butt"></path> </svg>