<svg xmlns="http://www.w3.org/2000/svg" xmlns:xlink="http://www.w3.org/1999/xlink" x="0px" y="0px" width="48px" height="48px" viewBox="0 0 48 48"> <path d="M31 27.2503V12V13" stroke="black" stroke-width="2" stroke-linecap="square" fill="none"></path> <path d="M17 5V36" stroke="black" stroke-width="2" data-cap="butt" fill="none"></path> <path d="M21.7095 38.3547L17 36L3 41V10L17 5L31 12L45 7V20.5" stroke="black" stroke-width="2" stroke-miterlimit="10" stroke-linecap="square" fill="none"></path> <path d="M29 38C30.6569 38 32 36.6569 32 35C32 33.3431 30.6569 32 29 32C27.3431 32 26 33.3431 26 35C26 36.6569 27.3431 38 29 38Z" stroke="#000" stroke-width="2" stroke-miterlimit="10" stroke-linecap="square" data-color="color-2" fill="none"></path> <path d="M42 31C43.6569 31 45 29.6569 45 28C45 26.3431 43.6569 25 42 25C40.3431 25 39 26.3431 39 28C39 29.6569 40.3431 31 42 31Z" stroke="#000" stroke-width="2" stroke-miterlimit="10" stroke-linecap="square" data-color="color-2" fill="none"></path> <path d="M42 45C43.6569 45 45 43.6569 45 42C45 40.3431 43.6569 39 42 39C40.3431 39 39 40.3431 39 42C39 43.6569 40.3431 45 42 45Z" stroke="#000" stroke-width="2" stroke-miterlimit="10" stroke-linecap="square" data-color="color-2" fill="none"></path> <path d="M31.5 33L39 29" stroke="#000" stroke-width="2" data-color="color-2" data-cap="butt" fill="none"></path> <path d="M31.5 37L39 41" stroke="#000" stroke-width="2" data-color="color-2" data-cap="butt" fill="none"></path> </svg>