<svg xmlns="http://www.w3.org/2000/svg" xmlns:xlink="http://www.w3.org/1999/xlink" x="0px" y="0px" width="48px" height="48px" viewBox="0 0 48 48"> <path d="M31 24V43V42" stroke="black" stroke-width="2" stroke-linecap="square" fill="none"></path> <path d="M17 24V36V35" stroke="black" stroke-width="2" stroke-linecap="square" fill="none"></path> <path d="M37.4122 9.70991L45 7V38L31 43L17 36L3 41V10L11.1645 7.0841" stroke="black" stroke-width="2" stroke-miterlimit="10" stroke-linecap="square" fill="none"></path> <path d="M24 23C28.947 19.6031 32.5 15.7364 32.5 11.2051C32.5 6.67385 28.6941 3 24 3C19.3059 3 15.5 6.67385 15.5 11.2051C15.5 15.7364 19.053 19.6031 24 23Z" stroke="#000" stroke-width="2" stroke-miterlimit="10" stroke-linecap="square" data-color="color-2" fill="none"></path> <path d="M24 13C24.8284 13 25.5 12.3284 25.5 11.5C25.5 10.6716 24.8284 10 24 10C23.1716 10 22.5 10.6716 22.5 11.5C22.5 12.3284 23.1716 13 24 13Z" fill="#000" stroke="#000" stroke-width="2" stroke-miterlimit="10" data-color="color-2" data-cap="butt"></path> </svg>