<svg xmlns="http://www.w3.org/2000/svg" xmlns:xlink="http://www.w3.org/1999/xlink" x="0px" y="0px" width="48px" height="48px" viewBox="0 0 48 48"> <path d="M44.4592 33.0514L44.5473 33.2105C43.1965 30.7037 40.5472 29 37.5 29C33.4204 29 30.054 32.0537 29.5619 36" stroke="#000" stroke-width="2" stroke-miterlimit="10" stroke-linecap="square" data-color="color-2" fill="none"></path> <path d="M31 26V12V13" stroke="black" stroke-width="2" stroke-linecap="square" fill="none"></path> <path d="M17 5V36" stroke="black" stroke-width="2" data-cap="butt" fill="none"></path> <path d="M45 24V7L31 12L17 5L3 10V41L17 36L25.5 40.25" stroke="black" stroke-width="2" stroke-miterlimit="10" stroke-linecap="square" fill="none"></path> <path d="M44.5 29V33H40.5" stroke="#000" stroke-width="2" stroke-linecap="square" data-color="color-2" fill="none"></path> <path d="M30.5 45V41H34.5" stroke="#000" stroke-width="2" stroke-linecap="square" data-color="color-2" fill="none"></path> <path d="M30.5814 41.0193L30.4527 40.7895C31.8035 43.2963 34.4528 45 37.5 45C41.5796 45 44.946 41.9463 45.4381 38" stroke="#000" stroke-width="2" stroke-miterlimit="10" stroke-linecap="square" data-color="color-2" fill="none"></path> </svg>