<svg xmlns="http://www.w3.org/2000/svg" xmlns:xlink="http://www.w3.org/1999/xlink" x="0px" y="0px" width="48px" height="48px" viewBox="0 0 48 48"> <path d="M41 24H46" stroke="black" stroke-width="2" stroke-linecap="square" fill="none"></path> <path d="M1 24H7" stroke="black" stroke-width="2" stroke-linecap="square" fill="none"></path> <path d="M24 17L24 24" stroke="black" stroke-width="2" stroke-miterlimit="10" stroke-linecap="square" fill="none"></path> <path d="M24 37H11.1947C8.74649 37 7.21034 34.3338 8.42417 32.1926L21.23 9.61975C22.4552 7.46009 25.5458 7.46009 26.7688 9.61975L39.5746 32.1926C40.7907 34.3338 39.2546 37 36.804 37H24Z" stroke="#000" stroke-width="2" stroke-miterlimit="10" stroke-linecap="square" data-color="color-2" fill="none"></path> <path d="M22.5 30.5C22.5 31.3284 23.1716 32 24 32C24.8284 32 25.5 31.3284 25.5 30.5C25.5 29.6716 24.8284 29 24 29C23.1716 29 22.5 29.6716 22.5 30.5Z" fill="black" stroke="black" stroke-width="2" stroke-miterlimit="10" stroke-linecap="square"></path> </svg>