<svg xmlns="http://www.w3.org/2000/svg" xmlns:xlink="http://www.w3.org/1999/xlink" x="0px" y="0px" width="48px" height="48px" viewBox="0 0 48 48"> <path d="M19 12L16 3" stroke="#000" stroke-width="2" data-color="color-2" data-cap="butt" fill="none"></path> <path d="M29 12L32 3" stroke="#000" stroke-width="2" data-color="color-2" data-cap="butt" fill="none"></path> <path d="M24 12V27" stroke="#000" stroke-width="2" data-color="color-2" data-cap="butt" fill="none"></path> <path d="M2.00001 24L2.00003 19C2.00003 18.4477 2.44774 18 3.00003 18H7.00003H5.5" stroke="#000" stroke-width="2" stroke-linecap="square" data-color="color-2" fill="none"></path> <path d="M46 24L46 19C46 18.4477 45.5523 18 45 18H41H42.5" stroke="#000" stroke-width="2" stroke-linecap="square" data-color="color-2" fill="none"></path> <path d="M7 27L41 27" stroke="black" stroke-width="2" stroke-linecap="square" fill="none"></path> <path d="M41 43V17C41 14.2386 38.7614 12 36 12H12C9.23858 12 7 14.2386 7 17V43H41Z" stroke="black" stroke-width="2" data-cap="butt" fill="none"></path> <path d="M17 34.5C17 35.8807 15.8807 37 14.5 37C13.1193 37 12 35.8807 12 34.5C12 33.1193 13.1193 32 14.5 32C15.8807 32 17 33.1193 17 34.5Z" stroke="#000" stroke-width="2" data-color="color-2" data-cap="butt" fill="none"></path> <path d="M36 34.5C36 35.8807 34.8807 37 33.5 37C32.1193 37 31 35.8807 31 34.5C31 33.1193 32.1193 32 33.5 32C34.8807 32 36 33.1193 36 34.5Z" stroke="#000" stroke-width="2" data-color="color-2" data-cap="butt" fill="none"></path> <path d="M9 3L39 3" stroke="#000" stroke-width="2" stroke-linecap="square" data-color="color-2" fill="none"></path> </svg>