<svg xmlns="http://www.w3.org/2000/svg" xmlns:xlink="http://www.w3.org/1999/xlink" x="0px" y="0px" width="18px" height="18px" viewBox="0 0 18 18"><path d="M15.2 9.222L9.71999 14.916C9.32699 15.325 8.67199 15.325 8.27899 14.916L2.79899 9.222C1.34699 7.694 1.40999 5.278 2.93799 3.827C4.46599 2.375 6.88199 2.438 8.33299 3.966C8.60299 4.25 8.82799 4.575 8.99899 4.928C10.073 2.716 13.001 2.008 15.006 3.766C15.541 4.235 15.935 4.867 16.116 5.556C16.479 6.939 16.082 8.294 15.2 9.222Z" fill="#000" fill-opacity="0.3" data-color="color-2" data-stroke="none"></path> <path d="M15.2 9.222L9.71999 14.916C9.32699 15.325 8.67199 15.325 8.27899 14.916L2.79899 9.222C1.34699 7.694 1.40999 5.278 2.93799 3.827C4.46599 2.375 6.88199 2.438 8.33299 3.966C8.60299 4.25 8.82799 4.575 8.99899 4.928C10.073 2.716 13.001 2.008 15.006 3.766C15.541 4.235 15.935 4.867 16.116 5.556C16.479 6.939 16.082 8.294 15.2 9.222Z" stroke="black" stroke-width="1.5" stroke-linecap="round" stroke-linejoin="round" fill="none"></path></svg>