<svg xmlns="http://www.w3.org/2000/svg" xmlns:xlink="http://www.w3.org/1999/xlink" x="0px" y="0px" width="18px" height="18px" viewBox="0 0 18 18"><polygon points="9 2.75 10.3904 5.5481 13.5 5.997 11.2496 8.1746 11.7808 11.25 9 9.7977 6.2192 11.25 6.7504 8.1746 4.5 5.997 7.6096 5.5481 9 2.75" fill="#000" opacity=".3" stroke-width="0" data-color="color-2"></polygon><path d="m15.25,11.75v1.5c0,1.105-.895,2-2,2H4.75c-1.105,0-2-.895-2-2v-1.5" fill="none" stroke="#000" stroke-linecap="round" stroke-linejoin="round" stroke-width="1.5"></path><polygon points="9 2.75 10.3904 5.5481 13.5 5.997 11.2496 8.1746 11.7808 11.25 9 9.7977 6.2192 11.25 6.7504 8.1746 4.5 5.997 7.6096 5.5481 9 2.75" fill="none" stroke="#000" stroke-linecap="round" stroke-linejoin="round" stroke-width="1.5"></polygon></svg>