<svg xmlns="http://www.w3.org/2000/svg" xmlns:xlink="http://www.w3.org/1999/xlink" x="0px" y="0px" width="18px" height="18px" viewBox="0 0 18 18"><path fill-rule="evenodd" clip-rule="evenodd" d="M13.25 2.75H11.75V10.25L9 8.25L6.25 10.25V2.75H4.75C3.645 2.75 2.75 3.645 2.75 4.75V13.25C2.75 14.355 3.645 15.25 4.75 15.25H13.25C14.355 15.25 15.25 14.355 15.25 13.25V4.75C15.25 3.645 14.355 2.75 13.25 2.75Z" fill="#000" fill-opacity="0.3" data-color="color-2" data-stroke="none"></path> <path d="M11.75 2.75H13.25C14.355 2.75 15.25 3.645 15.25 4.75V13.25C15.25 14.355 14.355 15.25 13.25 15.25H4.75C3.645 15.25 2.75 14.355 2.75 13.25V4.75C2.75 3.645 3.645 2.75 4.75 2.75H6.25" stroke="black" stroke-width="1.5" stroke-linecap="round" stroke-linejoin="round" fill="none"></path> <path d="M11.75 10.25L9 8.25L6.25 10.25V2.75H11.75V10.25Z" stroke="black" stroke-width="1.5" stroke-linecap="round" stroke-linejoin="round" fill="none"></path></svg>