<svg xmlns="http://www.w3.org/2000/svg" xmlns:xlink="http://www.w3.org/1999/xlink" x="0px" y="0px" width="18px" height="18px" viewBox="0 0 18 18"><path d="m1.75,4.75c0-1.1046.8954-2,2-2h10.5c1.1046,0,2,.8954,2,2v3H1.75v-3Z" fill="#000" opacity=".3" stroke-width="0" data-color="color-2"></path><path d="m16.25,17.25l-2.25-2.25-2.25,2.25v-5.5c0-.552.448-1,1-1h2.5c.552,0,1,.448,1,1v5.5Z" fill="#000" opacity=".3" stroke-width="0" data-color="color-2"></path><circle cx="4.25" cy="5.25" r=".75" stroke-width="0" fill="#000"></circle><circle cx="6.75" cy="5.25" r=".75" stroke-width="0" fill="#000"></circle><line x1="1.75" y1="7.75" x2="16.25" y2="7.75" fill="none" stroke="#000" stroke-linecap="round" stroke-linejoin="round" stroke-width="1.5"></line><path d="m16.25,7.75v-3c0-1.104-.895-2-2-2H3.75c-1.105,0-2,.896-2,2v8.5c0,1.104.895,2,2,2h5" fill="none" stroke="#000" stroke-linecap="round" stroke-linejoin="round" stroke-width="1.5"></path><path d="m16.25,17.25l-2.25-2.25-2.25,2.25v-5.5c0-.552.448-1,1-1h2.5c.552,0,1,.448,1,1v5.5Z" fill="none" stroke="#000" stroke-linecap="round" stroke-linejoin="round" stroke-width="1.5"></path></svg>