<svg xmlns="http://www.w3.org/2000/svg" xmlns:xlink="http://www.w3.org/1999/xlink" x="0px" y="0px" width="18px" height="18px" viewBox="0 0 18 18"><path d="M4.75 3.75H12.523C12.825 3.75 13.11 3.886 13.3 4.121L17.25 9L13.3 13.879C13.11 14.114 12.825 14.25 12.523 14.25H4.75C3.645 14.25 2.75 13.355 2.75 12.25V5.75C2.75 4.645 3.645 3.75 4.75 3.75Z" fill="#000" fill-opacity="0.3" data-color="color-2" data-stroke="none"></path> <path d="M4.75 3.75H12.523C12.825 3.75 13.11 3.886 13.3 4.121L17.25 9L13.3 13.879C13.11 14.114 12.825 14.25 12.523 14.25H4.75C3.645 14.25 2.75 13.355 2.75 12.25V5.75C2.75 4.645 3.645 3.75 4.75 3.75Z" stroke="black" stroke-width="1.5" stroke-linecap="round" stroke-linejoin="round" fill="none"></path></svg>