<svg xmlns="http://www.w3.org/2000/svg" xmlns:xlink="http://www.w3.org/1999/xlink" x="0px" y="0px" width="18px" height="18px" viewBox="0 0 18 18"><path d="m9,1.75l2.24,4.539,5.01.728-1.25,1.983h-4c-1.2426,0-2.25,1.0074-2.25,2.25,0,.7068.3259,1.3375.8357,1.75l-.9621.7647-4.1045,1.7753.856-4.989-3.625-3.534,5.01-.728,2.24-4.539Z" fill="#000" fill-rule="evenodd" opacity=".3" stroke-width="0" data-color="color-2"></path><line x1="11" y1="14.75" x2="16" y2="14.75" fill="none" stroke="#000" stroke-linecap="round" stroke-linejoin="round" stroke-width="1.5"></line><polyline points="14.9857 8.25 16.25 7.0171 11.24 6.2891 9 1.75 6.76 6.2891 1.75 7.0171 5.375 10.551 4.519 15.54 8.2528 13.5776" fill="none" stroke="#000" stroke-linecap="round" stroke-linejoin="round" stroke-width="1.5"></polyline><line x1="11" y1="11.25" x2="16" y2="11.25" fill="none" stroke="#000" stroke-linecap="round" stroke-linejoin="round" stroke-width="1.5"></line></svg>