<svg xmlns="http://www.w3.org/2000/svg" xmlns:xlink="http://www.w3.org/1999/xlink" x="0px" y="0px" width="18px" height="18px" viewBox="0 0 18 18"><path d="m10,8.25c0-.5784.2254-1.1011.5852-1.5-.3598-.3989-.5852-.9216-.5852-1.5s.2254-1.1011.5852-1.5c-.3598-.3989-.5852-.9216-.5852-1.5h-5.25c-1.105,0-2,.895-2,2v11.5l4.75-3.5,4.75,3.5v-5.25c-1.2407,0-2.25-1.0093-2.25-2.25Z" fill="#000" opacity=".3" stroke-width="0" data-color="color-2"></path><path d="m9.25,2.25h-4.5c-1.105,0-2,.895-2,2v11.5l4.75-3.5,4.75,3.5v-4.5" fill="none" stroke="#000" stroke-linecap="round" stroke-linejoin="round" stroke-width="1.5"></path><line x1="12.25" y1="2.25" x2="16.75" y2="2.25" fill="none" stroke="#000" stroke-linecap="round" stroke-linejoin="round" stroke-width="1.5"></line><line x1="12.25" y1="5.25" x2="16.75" y2="5.25" fill="none" stroke="#000" stroke-linecap="round" stroke-linejoin="round" stroke-width="1.5"></line><line x1="12.25" y1="8.25" x2="16.75" y2="8.25" fill="none" stroke="#000" stroke-linecap="round" stroke-linejoin="round" stroke-width="1.5"></line></svg>