<svg xmlns="http://www.w3.org/2000/svg" xmlns:xlink="http://www.w3.org/1999/xlink" x="0px" y="0px" width="18px" height="18px" viewBox="0 0 18 18"><path d="M9 1.774L11.009 5.844L15.5 6.497L12.25 9.665L13.017 14.138L9 12.026L4.983 14.138L5.75 9.665L2.5 6.497L6.991 5.844L9 1.774Z" fill="#000" fill-opacity="0.3" data-color="color-2" data-stroke="none"></path> <path d="M9 1.774L11.009 5.844L15.5 6.497L12.25 9.665L13.017 14.138L9 12.026L4.983 14.138L5.75 9.665L2.5 6.497L6.991 5.844L9 1.774Z" stroke="black" stroke-width="1.5" stroke-linecap="round" stroke-linejoin="round" fill="none"></path> <path d="M9 15.75V16.815" stroke="black" stroke-width="1.5" stroke-linecap="round" stroke-linejoin="round" fill="none"></path> <path d="M15.837 10.673L16.85 11.002" stroke="black" stroke-width="1.5" stroke-linecap="round" stroke-linejoin="round" fill="none"></path> <path d="M13.225 2.636L13.851 1.774" stroke="black" stroke-width="1.5" stroke-linecap="round" stroke-linejoin="round" fill="none"></path> <path d="M4.775 2.636L4.149 1.774" stroke="black" stroke-width="1.5" stroke-linecap="round" stroke-linejoin="round" fill="none"></path> <path d="M2.163 10.673L1.15 11.002" stroke="black" stroke-width="1.5" stroke-linecap="round" stroke-linejoin="round" fill="none"></path></svg>