<svg xmlns="http://www.w3.org/2000/svg" xmlns:xlink="http://www.w3.org/1999/xlink" x="0px" y="0px" width="18px" height="18px" viewBox="0 0 18 18"><path d="m12.375,5.625l-2.789-2.789c-.375-.375-.884-.586-1.414-.586H3.25c-.552,0-1,.448-1,1v4.922c0,.53.211,1.039.586,1.414l2.789,2.789,6.75-6.75Zm-5.1413,8.3587l1.3523,1.3523c.781.781,2.047.781,2.828,0l3.922-3.922c.781-.781.781-2.047,0-2.828l-1.3523-1.3523-6.75,6.75Z" fill="#000" fill-rule="evenodd" opacity=".3" stroke-width="0" data-color="color-2"></path><path d="m5.625,12.375l-2.789-2.789c-.375-.375-.586-.884-.586-1.414V3.25c0-.552.448-1,1-1h4.922c.53,0,1.039.211,1.414.586l2.789,2.789" fill="none" stroke="#000" stroke-linecap="round" stroke-linejoin="round" stroke-width="1.5"></path><circle cx="6.25" cy="6.25" r="1.25" stroke-width="0" fill="#000"></circle><path d="m7.7476,14.4946l.8394.8394c.781.781,2.047.781,2.828,0l1.976-1.9761,1.976-1.9761c.781-.7808.781-2.0469,0-2.8279l-.8394-.8394" fill="none" stroke="#000" stroke-linecap="round" stroke-linejoin="round" stroke-width="1.5"></path><line x1="2" y1="16" x2="16" y2="2" fill="none" stroke="#000" stroke-linecap="round" stroke-linejoin="round" stroke-width="1.5"></line></svg>