<svg xmlns="http://www.w3.org/2000/svg" xmlns:xlink="http://www.w3.org/1999/xlink" x="0px" y="0px" width="18px" height="18px" viewBox="0 0 18 18"><path fill-rule="evenodd" clip-rule="evenodd" d="M12.523 3.75H5C3.895 3.75 3 4.645 3 5.75V9.51373C3.08208 9.50466 3.1655 9.5 3.25 9.5C4.49264 9.5 5.5 10.5074 5.5 11.75V12H5.75C6.90814 12 7.86191 12.875 7.98627 14H12.523C12.825 14 13.11 13.864 13.3 13.629L17.25 9L13.3 4.121C13.11 3.886 12.825 3.75 12.523 3.75Z" fill="#000" fill-opacity="0.3" data-color="color-2" data-stroke="none"></path> <path d="M3.25 8.75V5.75C3.25 4.645 4.145 3.75 5.25 3.75H12.523C12.825 3.75 13.11 3.886 13.3 4.121L17.25 9L13.3 13.879C13.11 14.114 12.825 14.25 12.523 14.25H8.75" stroke="black" stroke-width="1.5" stroke-linecap="round" stroke-linejoin="round" fill="none"></path> <path d="M3.25 11.75V16.75" stroke="black" stroke-width="1.5" stroke-linecap="round" stroke-linejoin="round" fill="none"></path> <path d="M5.75 14.25H0.75" stroke="black" stroke-width="1.5" stroke-linecap="round" stroke-linejoin="round" fill="none"></path></svg>