<svg xmlns="http://www.w3.org/2000/svg" xmlns:xlink="http://www.w3.org/1999/xlink" x="0px" y="0px" width="18px" height="18px" viewBox="0 0 18 18"><path fill-rule="evenodd" clip-rule="evenodd" d="M8.77715 9.25L11.7495 6.25H10L11.485 2.431C11.612 2.103 11.371 1.75 11.019 1.75H6.849C6.64 1.75 6.452 1.881 6.38 2.078L3.997 8.578C3.877 8.904 4.118 9.25 4.466 9.25H8.77715Z" fill="#000" fill-opacity="0.3" data-color="color-2" data-stroke="none"></path> <path d="M8.75 9.25H4.466C4.118 9.25 3.877 8.904 3.997 8.578L6.38 2.078C6.452 1.881 6.64 1.75 6.849 1.75H11.019C11.371 1.75 11.612 2.103 11.485 2.431L10 6.25H11.75" stroke="black" stroke-width="1.5" stroke-linecap="round" stroke-linejoin="round" fill="none"></path> <path d="M2 16L16 2" stroke="black" stroke-width="1.5" stroke-linecap="round" stroke-linejoin="round" fill="none"></path> <path d="M11.75 10.2493L7.25 16.25L7.7531 14.4891" stroke="black" stroke-width="1.5" stroke-linecap="round" stroke-linejoin="round" fill="none"></path></svg>