<svg xmlns="http://www.w3.org/2000/svg" xmlns:xlink="http://www.w3.org/1999/xlink" x="0px" y="0px" width="18px" height="18px" viewBox="0 0 18 18"><path d="M1.75 11.25C1.75 10.6977 2.19772 10.25 2.75 10.25H9V15.25H2.75C2.19772 15.25 1.75 14.8023 1.75 14.25V11.25Z" fill="#000" fill-opacity="0.3" data-color="color-2" data-stroke="none"></path> <path d="M9.48497 6.975L11.455 3.598C11.673 3.224 11.403 2.754 10.97 2.754H7.02997C6.59697 2.754 6.32697 3.224 6.54497 3.598L8.51497 6.975C8.73197 7.346 9.26797 7.346 9.48497 6.975Z" fill="#000" fill-opacity="0.3" data-color="color-2" data-stroke="none"></path> <path d="M9 10.25V15" stroke="black" stroke-width="1.5" stroke-linecap="round" stroke-linejoin="round" fill="none"></path> <path d="M15.25 10.25H2.75C2.19772 10.25 1.75 10.6977 1.75 11.25V14.25C1.75 14.8023 2.19772 15.25 2.75 15.25H15.25C15.8023 15.25 16.25 14.8023 16.25 14.25V11.25C16.25 10.6977 15.8023 10.25 15.25 10.25Z" stroke="black" stroke-width="1.5" stroke-linecap="round" stroke-linejoin="round" fill="none"></path> <path d="M9.48497 6.975L11.455 3.598C11.673 3.224 11.403 2.754 10.97 2.754H7.02997C6.59697 2.754 6.32697 3.224 6.54497 3.598L8.51497 6.975C8.73197 7.346 9.26797 7.346 9.48497 6.975Z" stroke="black" stroke-width="1.5" stroke-linecap="round" stroke-linejoin="round" fill="none"></path></svg>