<svg xmlns="http://www.w3.org/2000/svg" xmlns:xlink="http://www.w3.org/1999/xlink" x="0px" y="0px" width="18px" height="18px" viewBox="0 0 18 18"><path d="M7.25 16.25L9.25 9.25H4.466C4.118 9.25 3.877 8.904 3.997 8.578L6.38 2.078C6.452 1.881 6.64 1.75 6.849 1.75H11.019C11.371 1.75 11.612 2.103 11.485 2.431L10 6.25H13.75C14.162 6.25 14.397 6.72 14.15 7.05L7.25 16.25Z" fill="#000" fill-opacity="0.3" data-color="color-2" data-stroke="none"></path> <path d="M7.25 16.25L9.25 9.25H4.466C4.118 9.25 3.877 8.904 3.997 8.578L6.38 2.078C6.452 1.881 6.64 1.75 6.849 1.75H11.019C11.371 1.75 11.612 2.103 11.485 2.431L10 6.25H13.75C14.162 6.25 14.397 6.72 14.15 7.05L7.25 16.25Z" stroke="black" stroke-width="1.5" stroke-linecap="round" stroke-linejoin="round" fill="none"></path></svg>