<svg xmlns="http://www.w3.org/2000/svg" xmlns:xlink="http://www.w3.org/1999/xlink" x="0px" y="0px" width="18px" height="18px" viewBox="0 0 18 18"><path fill-rule="evenodd" clip-rule="evenodd" d="M14.7032 6.47875L15.25 7.0736V13.25C15.25 14.3546 14.3546 15.25 13.25 15.25L7.11498 15.25L6.4279 14.7541C9.24159 11.9404 11.8924 9.28961 14.7032 6.47875Z" fill="#000" fill-opacity="0.3" data-color="color-2" data-stroke="none"></path> <path fill-rule="evenodd" clip-rule="evenodd" d="M14.6642 3.33577C14.3023 2.97385 13.8023 2.75 13.25 2.75H4.75C3.64543 2.75 2.75 3.64543 2.75 4.75V13.25C2.75 13.8023 2.97385 14.3023 3.33577 14.6642L7.05544 10.9445C6.5578 10.4469 6.25 9.75938 6.25 9C6.25 7.48122 7.48122 6.25 9 6.25C9.75938 6.25 10.4469 6.5578 10.9445 7.05544L14.6642 3.33577Z" fill="#000" fill-opacity="0.3" data-color="color-2" data-stroke="none"></path> <path d="M3.336 14.664C2.974 14.302 2.75 13.802 2.75 13.25V4.75C2.75 3.645 3.645 2.75 4.75 2.75H13.25C13.802 2.75 14.302 2.974 14.664 3.336" stroke="black" stroke-width="1.5" stroke-linecap="round" stroke-linejoin="round" fill="none"></path> <path d="M15.25 6.9922V13.25C15.25 14.355 14.355 15.25 13.25 15.25H6.9922" stroke="black" stroke-width="1.5" stroke-linecap="round" stroke-linejoin="round" fill="none"></path> <path d="M7.055 10.945C6.557 10.447 6.25 9.76 6.25 9C6.25 7.481 7.481 6.25 9 6.25C9.759 6.25 10.447 6.558 10.945 7.055" stroke="black" stroke-width="1.5" stroke-linecap="round" stroke-linejoin="round" fill="none"></path> <path d="M5.25 6C5.6642 6 6 5.6642 6 5.25C6 4.8358 5.6642 4.5 5.25 4.5C4.8358 4.5 4.5 4.8358 4.5 5.25C4.5 5.6642 4.8358 6 5.25 6Z" fill="black" data-stroke="none"></path> <path d="M2 16L16 2" stroke="black" stroke-width="1.5" stroke-linecap="round" stroke-linejoin="round" fill="none"></path></svg>