<svg xmlns="http://www.w3.org/2000/svg" xmlns:xlink="http://www.w3.org/1999/xlink" x="0px" y="0px" width="18px" height="18px" viewBox="0 0 18 18"><path fill-rule="evenodd" clip-rule="evenodd" d="M16.25 9C16.25 13.0041 13.0041 16.25 9 16.25C4.99594 16.25 1.75 13.0041 1.75 9C1.75 4.99594 4.99594 1.75 9 1.75C13.0041 1.75 16.25 4.99594 16.25 9ZM8.001 6.43901L11.652 8.56801V8.56901C11.983 8.76201 11.983 9.24001 11.652 9.43301L8.001 11.562C7.668 11.756 7.249 11.516 7.249 11.13V6.87101C7.249 6.48501 7.668 6.24501 8.001 6.43901Z" fill="#000" fill-opacity="0.3" data-color="color-2" data-stroke="none"></path> <path d="M11.652 8.56801L8.001 6.43901C7.668 6.24501 7.249 6.48501 7.249 6.87101V11.13C7.249 11.516 7.668 11.756 8.001 11.562L11.652 9.43301C11.983 9.24001 11.983 8.76201 11.652 8.56901V8.56801Z" stroke="black" stroke-width="1.5" stroke-linecap="round" stroke-linejoin="round" fill="none"></path> <path d="M9 16.25C13.0041 16.25 16.25 13.0041 16.25 9C16.25 4.99594 13.0041 1.75 9 1.75C4.99594 1.75 1.75 4.99594 1.75 9C1.75 13.0041 4.99594 16.25 9 16.25Z" stroke="black" stroke-width="1.5" stroke-linecap="round" stroke-linejoin="round" fill="none"></path></svg>