<svg xmlns="http://www.w3.org/2000/svg" xmlns:xlink="http://www.w3.org/1999/xlink" x="0px" y="0px" width="18px" height="18px" viewBox="0 0 18 18"><path d="M14.25 2.75H3.75C3.19772 2.75 2.75 3.19772 2.75 3.75V7.25C2.75 7.80228 3.19772 8.25 3.75 8.25H14.25C14.8023 8.25 15.25 7.80228 15.25 7.25V3.75C15.25 3.19772 14.8023 2.75 14.25 2.75Z" fill="#000" fill-opacity="0.3" data-color="color-2" data-stroke="none"></path> <path d="M14.25 2.75H3.75C3.19772 2.75 2.75 3.19772 2.75 3.75V7.25C2.75 7.80228 3.19772 8.25 3.75 8.25H14.25C14.8023 8.25 15.25 7.80228 15.25 7.25V3.75C15.25 3.19772 14.8023 2.75 14.25 2.75Z" stroke="black" stroke-width="1.5" stroke-linecap="round" stroke-linejoin="round" fill="none"></path> <path d="M2.75 11.75H15.25" stroke="black" stroke-width="1.5" stroke-linecap="round" stroke-linejoin="round" fill="none"></path> <path d="M2.75 15.25H15.25" stroke="black" stroke-width="1.5" stroke-linecap="round" stroke-linejoin="round" fill="none"></path></svg>