<svg xmlns="http://www.w3.org/2000/svg" xmlns:xlink="http://www.w3.org/1999/xlink" x="0px" y="0px" width="18px" height="18px" viewBox="0 0 18 18"><path d="M13.75 5.25C13.554 5.25 13.365 5.278 13.182 5.321C12.855 3.299 11.115 1.75 9 1.75C6.885 1.75 5.145 3.299 4.818 5.321C4.635 5.278 4.446 5.25 4.25 5.25C2.869 5.25 1.75 6.369 1.75 7.75C1.75 9.131 2.869 10.25 4.25 10.25H13.75C15.131 10.25 16.25 9.131 16.25 7.75C16.25 6.369 15.131 5.25 13.75 5.25Z" fill="#000" fill-opacity="0.3" data-color="color-2" data-stroke="none"></path> <path d="M10.704 6.04201L8.396 4.69601C7.999 4.46401 7.5 4.75101 7.5 5.21101V7.90401C7.5 8.36401 7.999 8.65101 8.396 8.41901L10.704 7.07301C11.098 6.84301 11.098 6.27301 10.704 6.04301V6.04201Z" fill="black" data-stroke="none"></path> <path d="M1.75 14.25H8.75" stroke="black" stroke-width="1.5" stroke-linecap="round" stroke-linejoin="round" fill="none"></path> <path d="M13.75 5.25C13.554 5.25 13.365 5.278 13.182 5.321C12.855 3.299 11.115 1.75 9 1.75C6.885 1.75 5.145 3.299 4.818 5.321C4.635 5.278 4.446 5.25 4.25 5.25C2.869 5.25 1.75 6.369 1.75 7.75C1.75 9.131 2.869 10.25 4.25 10.25H13.75C15.131 10.25 16.25 9.131 16.25 7.75C16.25 6.369 15.131 5.25 13.75 5.25Z" stroke="black" stroke-width="1.5" stroke-linecap="round" stroke-linejoin="round" fill="none"></path> <path d="M8.75 16V12.5" stroke="black" stroke-width="1.5" stroke-linecap="round" stroke-linejoin="round" fill="none"></path> <path d="M11.75 14.25H16.25" stroke="black" stroke-width="1.5" stroke-linecap="round" stroke-linejoin="round" fill="none"></path></svg>