<svg xmlns="http://www.w3.org/2000/svg" xmlns:xlink="http://www.w3.org/1999/xlink" x="0px" y="0px" width="18px" height="18px" viewBox="0 0 18 18"><path d="M7.25 15.25H10.75C11.855 15.25 12.75 14.355 12.75 13.25V4.75C12.75 3.645 11.855 2.75 10.75 2.75H7.25C6.145 2.75 5.25 3.645 5.25 4.75V13.25C5.25 14.355 6.145 15.25 7.25 15.25Z" fill="#000" fill-opacity="0.3" data-color="color-2" data-stroke="none"></path> <path d="M10.715 8.482L8.407 7.09701C8.004 6.85501 7.491 7.14501 7.491 7.61501V10.386C7.491 10.856 8.004 11.146 8.407 10.904L10.715 9.519C11.106 9.284 11.106 8.717 10.715 8.482Z" fill="black" data-stroke="none"></path> <path d="M2.75 13.75C1.922 13.75 1.25 13.078 1.25 12.25V5.75C1.25 4.922 1.922 4.25 2.75 4.25" stroke="black" stroke-width="1.5" stroke-linecap="round" stroke-linejoin="round" fill="none"></path> <path d="M15.25 13.75C16.078 13.75 16.75 13.078 16.75 12.25V5.75C16.75 4.922 16.078 4.25 15.25 4.25" stroke="black" stroke-width="1.5" stroke-linecap="round" stroke-linejoin="round" fill="none"></path> <path d="M7.25 15.25H10.75C11.855 15.25 12.75 14.355 12.75 13.25V4.75C12.75 3.645 11.855 2.75 10.75 2.75H7.25C6.145 2.75 5.25 3.645 5.25 4.75V13.25C5.25 14.355 6.145 15.25 7.25 15.25Z" stroke="black" stroke-width="1.5" stroke-linecap="round" stroke-linejoin="round" fill="none"></path></svg>