<svg xmlns="http://www.w3.org/2000/svg" xmlns:xlink="http://www.w3.org/1999/xlink" x="0px" y="0px" width="18px" height="18px" viewBox="0 0 18 18"><path d="M9 12.25C10.7949 12.25 12.25 10.7949 12.25 9C12.25 7.20507 10.7949 5.75 9 5.75C7.20507 5.75 5.75 7.20507 5.75 9C5.75 10.7949 7.20507 12.25 9 12.25Z" fill="#000" fill-opacity="0.3" data-color="color-2" data-stroke="none"></path> <path d="M3.873 14.127C2.561 12.815 1.75 11.003 1.75 9C1.75 6.066 3.493 3.53901 6 2.39801" stroke="black" stroke-width="1.5" stroke-linecap="round" stroke-linejoin="round" fill="none"></path> <path d="M14.127 3.87296C13.516 3.26196 12.797 2.75997 12.001 2.39697" stroke="black" stroke-width="1.5" stroke-linecap="round" stroke-linejoin="round" fill="none"></path> <path d="M12 15.602C14.507 14.461 16.25 11.934 16.25 9C16.25 8.1035 16.087 7.24501 15.7897 6.45251" stroke="black" stroke-width="1.5" stroke-linecap="round" stroke-linejoin="round" fill="none"></path> <path d="M6.702 11.298C6.114 10.71 5.75 9.897 5.75 9C5.75 7.205 7.205 5.75 9 5.75C9.897 5.75 10.71 6.114 11.298 6.702" stroke="black" stroke-width="1.5" stroke-linecap="round" stroke-linejoin="round" fill="none"></path> <path d="M12.0063 10.236C11.6767 11.0371 11.0362 11.6777 10.2349 12.0074" stroke="black" stroke-width="1.5" stroke-linecap="round" stroke-linejoin="round" fill="none"></path> <path d="M2 16L16 2" stroke="black" stroke-width="1.5" stroke-linecap="round" stroke-linejoin="round" fill="none"></path></svg>