<svg xmlns="http://www.w3.org/2000/svg" xmlns:xlink="http://www.w3.org/1999/xlink" x="0px" y="0px" width="18px" height="18px" viewBox="0 0 18 18"><path d="M6.25 6.25H10.75C11.3023 6.25 11.75 6.69772 11.75 7.25V11.75H7.25C6.69772 11.75 6.25 11.3023 6.25 10.75V6.25Z" fill="#000" fill-opacity="0.3" data-color="color-2" data-stroke="none"></path> <path d="M3.25 6.25H10.75C11.302 6.25 11.75 6.698 11.75 7.25V14.75" stroke="black" stroke-width="1.5" stroke-linecap="round" stroke-linejoin="round" fill="none"></path> <path d="M14.75 11.75H7.25C6.698 11.75 6.25 11.302 6.25 10.75V3.25" stroke="black" stroke-width="1.5" stroke-linecap="round" stroke-linejoin="round" fill="none"></path> <path d="M10.5 2.25H11.75C13.959 2.25 15.75 4.041 15.75 6.25V7.75" stroke="black" stroke-width="1.5" stroke-linecap="round" stroke-linejoin="round" fill="none"></path> <path d="M11.75 0.75L10 2.25L11.75 3.75" stroke="black" stroke-width="1.5" stroke-linecap="round" stroke-linejoin="round" fill="none"></path> <path d="M6.25 17.25L8 15.75L6.25 14.25" stroke="black" stroke-width="1.5" stroke-linecap="round" stroke-linejoin="round" fill="none"></path> <path d="M7.5 15.75H6.25C4.041 15.75 2.25 13.959 2.25 11.75V10.25" stroke="black" stroke-width="1.5" stroke-linecap="round" stroke-linejoin="round" fill="none"></path></svg>