<svg xmlns="http://www.w3.org/2000/svg" xmlns:xlink="http://www.w3.org/1999/xlink" x="0px" y="0px" width="18px" height="18px" viewBox="0 0 18 18"><rect x="1.75" y="8.25" width="8" height="8" rx="1.5" ry="1.5" fill="#000" opacity=".3" stroke-width="0" data-color="color-2"></rect><polyline points="11.5 4.75 7 4.75 7 4.2685 9.875 .75 10.25 .75 10.25 6" fill="none" stroke="#000" stroke-linecap="round" stroke-linejoin="round" stroke-width="1.5"></polyline><line x1="13.75" y1=".75" x2="13.75" y2="6" fill="none" stroke="#000" stroke-linecap="round" stroke-linejoin="round" stroke-width="1.5"></line><line x1="17.25" y1=".75" x2="13.75" y2="4.3578" fill="none" stroke="#000" stroke-linecap="round" stroke-linejoin="round" stroke-width="1.5"></line><line x1="17.25" y1="6" x2="15.2098" y2="2.8919" fill="none" stroke="#000" stroke-linecap="round" stroke-linejoin="round" stroke-width="1.5"></line><rect x="1.75" y="8.25" width="8" height="8" rx="1.5" ry="1.5" fill="none" stroke="#000" stroke-linecap="round" stroke-linejoin="round" stroke-width="1.5"></rect><rect x="1.75" y="8.25" width="8" height="8" rx="1.5" ry="1.5" fill="none" stroke="#000" stroke-linecap="round" stroke-linejoin="round" stroke-width="1.5"></rect><path d="m7.4496,16.25c-.2554-2.6614-2.4714-4.75-5.1996-4.75-.1713,0-.3329.0344-.5.0503v3.1997c0,.8284.6716,1.5,1.5,1.5h4.1996Z" stroke-width="0" fill="#000"></path><circle cx="7" cy="11" r="1" stroke-width="0" fill="#000"></circle><path d="m1.75,5.75c0-1.105.895-2,2-2" fill="none" stroke="#000" stroke-linecap="round" stroke-linejoin="round" stroke-width="1.5"></path><path d="m14.25,14.25c0,1.105-.895,2-2,2" fill="none" stroke="#000" stroke-linecap="round" stroke-linejoin="round" stroke-width="1.5"></path><line x1="14.25" y1="8.75" x2="14.25" y2="11.25" fill="none" stroke="#000" stroke-linecap="round" stroke-linejoin="round" stroke-width="1.5"></line></svg>