<svg xmlns="http://www.w3.org/2000/svg" xmlns:xlink="http://www.w3.org/1999/xlink" x="0px" y="0px" width="24px" height="24px" viewBox="0 0 24 24"><circle cx="12" cy="12" r="5" fill="none" stroke="#000" stroke-linecap="square" stroke-miterlimit="10" stroke-width="2"></circle><path d="m2.388,9.231c.948-3.297,3.546-5.895,6.843-6.843" fill="none" stroke="#000" stroke-miterlimit="10" stroke-width="2" data-color="color-2" data-cap="butt"></path><path d="m9.231,21.612c-3.297-.948-5.895-3.546-6.843-6.843" fill="none" stroke="#000" stroke-miterlimit="10" stroke-width="2" data-color="color-2" data-cap="butt"></path><path d="m21.612,14.769c-.948,3.297-3.547,5.896-6.844,6.843" fill="none" stroke="#000" stroke-miterlimit="10" stroke-width="2" data-color="color-2" data-cap="butt"></path><path d="m14.769,2.388c3.297.948,5.896,3.547,6.843,6.844" fill="none" stroke="#000" stroke-miterlimit="10" stroke-width="2" data-color="color-2" data-cap="butt"></path><path d="m10.065,7.389l-.999-5.993c1.956-.528,3.912-.528,5.868,0l-.999,5.993" fill="none" stroke="#000" stroke-miterlimit="10" stroke-width="2" data-cap="butt"></path><path d="m16.611,10.065l5.993-.999c.528,1.956.528,3.912,0,5.868l-5.993-.999" fill="none" stroke="#000" stroke-miterlimit="10" stroke-width="2" data-cap="butt"></path><path d="m13.935,16.611l.999,5.993c-1.956.528-3.912.528-5.868,0l.999-5.993" fill="none" stroke="#000" stroke-miterlimit="10" stroke-width="2" data-cap="butt"></path><path d="m7.389,13.935l-5.993.999c-.528-1.956-.528-3.912,0-5.868l5.993.999" fill="none" stroke="#000" stroke-miterlimit="10" stroke-width="2" data-cap="butt"></path></svg>