<svg xmlns="http://www.w3.org/2000/svg" xmlns:xlink="http://www.w3.org/1999/xlink" x="0px" y="0px" width="24px" height="24px" viewBox="0 0 24 24"><path d="M3.51 12H3.5L4.30232 19.2209C4.41486 20.2337 5.27099 21 6.29009 21H10" stroke="black" stroke-width="2" stroke-linecap="square" fill="none"></path> <path d="M8 13V17" stroke="black" stroke-width="2" stroke-linecap="square" stroke-linejoin="round" fill="none"></path> <path d="M2 8H22" stroke="black" stroke-width="2" stroke-linecap="square" stroke-linejoin="round" fill="none"></path> <path d="M8.75 1.5L5 8H6" stroke="black" stroke-width="2" stroke-linecap="square" stroke-linejoin="round" fill="none"></path> <path d="M15.25 1.5L19 8H18" stroke="black" stroke-width="2" stroke-linecap="square" stroke-linejoin="round" fill="none"></path> <path d="M18 22C20.7614 22 23 19.7614 23 17C23 14.2386 20.7614 12 18 12C15.2386 12 13 14.2386 13 17C13 19.7614 15.2386 22 18 22Z" stroke="#000" stroke-width="2" stroke-miterlimit="10" stroke-linecap="square" data-color="color-2" fill="none"></path> <path d="M18 16V18" stroke="#000" stroke-width="2" stroke-linecap="square" data-color="color-2" fill="none"></path></svg>