<svg xmlns="http://www.w3.org/2000/svg" xmlns:xlink="http://www.w3.org/1999/xlink" x="0px" y="0px" width="24px" height="24px" viewBox="0 0 24 24"><path d="M6 6L12 1.5L18 6" stroke="#000" stroke-width="2" data-color="color-2" data-cap="butt" fill="none"></path> <path d="M22 12L22 6L2 6L2 12" stroke="black" stroke-width="2" stroke-miterlimit="10" stroke-linecap="square" fill="none"></path> <path d="M7.5 22V16H9.5C10.6046 16 11.5 16.8954 11.5 18V18C11.5 19.1046 10.6046 20 9.5 20H8" stroke="#000" stroke-width="2" stroke-linecap="square" data-color="color-2" fill="none"></path> <path d="M19 22V16H19.5L22.5 22H23V16" stroke="#000" stroke-width="2" stroke-linecap="square" data-color="color-2" fill="none"></path> <path d="M5.5 19C5.5 20.6569 4.49264 22 3.25 22C2.00736 22 1 20.6569 1 19C1 17.3431 2.00736 16 3.25 16C4.49264 16 5.5 17.3431 5.5 19Z" stroke="#000" stroke-width="2" data-color="color-2" data-cap="butt" fill="none"></path> <path d="M16.2817 16H13.627V22H16.2817M15 19H14.002" stroke="#000" stroke-width="2" stroke-linecap="square" data-color="color-2" fill="none"></path></svg>