<svg xmlns="http://www.w3.org/2000/svg" xmlns:xlink="http://www.w3.org/1999/xlink" x="0px" y="0px" width="24px" height="24px" viewBox="0 0 24 24"><path d="M9 9V4C9 2.34315 10.3431 1 12 1V1C13.6569 1 15 2.34315 15 4V9" stroke="#000" stroke-width="2" stroke-linecap="square" data-color="color-2" fill="none"></path> <path d="M19 9V6H12H5.00001V12L3.47843 19.6078C3.2309 20.8453 4.17749 22 5.43959 22H8.99997" stroke="black" stroke-width="2" stroke-miterlimit="10" stroke-linecap="square" fill="none"></path> <path d="M23 13V16.5H19.5" stroke="#000" stroke-width="2" stroke-miterlimit="10" stroke-linecap="square" data-color="color-2" fill="none"></path> <path d="M13 22V18.5H16.5" stroke="#000" stroke-width="2" stroke-miterlimit="10" stroke-linecap="square" data-color="color-2" fill="none"></path> <path d="M21.854 16.5H22.242C21.788 14.496 19.996 13 17.854 13C16.5215 13 15.3241 13.5794 14.5001 14.5" stroke="#000" stroke-width="2" stroke-miterlimit="10" stroke-linecap="square" data-color="color-2" fill="none"></path> <path d="M14.146 18.5H13.758C14.212 20.504 16.004 22 18.146 22C19.4785 22 20.6759 21.4206 21.4999 20.5" stroke="#000" stroke-width="2" stroke-miterlimit="10" stroke-linecap="square" data-color="color-2" fill="none"></path></svg>