<svg xmlns="http://www.w3.org/2000/svg" xmlns:xlink="http://www.w3.org/1999/xlink" x="0px" y="0px" width="24px" height="24px" viewBox="0 0 24 24"><path d="M3.51 12H3.5L4.30232 19.2209C4.41486 20.2337 5.27099 21 6.29009 21H9" stroke="black" stroke-width="2" stroke-linecap="square" fill="none"></path> <path d="M8 13V17" stroke="black" stroke-width="2" stroke-linecap="square" stroke-linejoin="round" fill="none"></path> <path d="M2 8H22" stroke="black" stroke-width="2" stroke-linecap="square" stroke-linejoin="round" fill="none"></path> <path d="M8.75 1.5L5 8H6" stroke="black" stroke-width="2" stroke-linecap="square" stroke-linejoin="round" fill="none"></path> <path d="M15.25 1.5L19 8H18" stroke="black" stroke-width="2" stroke-linecap="square" stroke-linejoin="round" fill="none"></path> <path d="M14.4645 16.2929L14.1109 16.6465C12.9393 17.8181 12.9393 19.7176 14.1109 20.8891V20.8891C15.2825 22.0607 17.182 22.0607 18.3536 20.8891L18.7071 20.5356" stroke="#000" stroke-width="2" stroke-linecap="square" data-color="color-2" fill="none"></path> <path d="M17.2929 13.4645L17.6464 13.1109C18.818 11.9394 20.7175 11.9394 21.8891 13.1109V13.1109C23.0607 14.2825 23.0607 16.182 21.8891 17.3536L21.5355 17.7071" stroke="#000" stroke-width="2" stroke-linecap="square" data-color="color-2" fill="none"></path> <path d="M17.2929 17.7072L18.7071 16.2929" stroke="#000" stroke-width="2" stroke-linecap="square" data-color="color-2" fill="none"></path></svg>