<svg xmlns="http://www.w3.org/2000/svg" xmlns:xlink="http://www.w3.org/1999/xlink" x="0px" y="0px" width="32px" height="32px" viewBox="0 0 32 32"><g clip-path="url(#clip0_1827_1231)"> <path d="M8.50003 7.30768L8.00003 8L12.3333 2" stroke="black" stroke-width="2" stroke-miterlimit="10" stroke-linecap="square" fill="none"></path> <path d="M23.5703 7.40497L24 8L19.6667 2" stroke="black" stroke-width="2" stroke-miterlimit="10" stroke-linecap="square" fill="none"></path> <path d="M4 17L4.77076 26.2491C4.90033 27.804 6.20013 29 7.7604 29H13" stroke="black" stroke-width="2" stroke-miterlimit="10" stroke-linecap="square" fill="none"></path> <path d="M11 19V24" stroke="black" stroke-width="2" stroke-miterlimit="10" stroke-linecap="square" fill="none"></path> <path d="M30 8H2V13H30V8Z" stroke="black" stroke-width="2" stroke-miterlimit="10" stroke-linecap="square" fill="none"></path> <path d="M22.5858 19.7574L24 18.3432C25.5621 16.7811 28.0948 16.7811 29.6569 18.3432V18.3432C31.219 19.9053 31.219 22.438 29.6569 24.0001L28.2426 25.4143" stroke="#000" stroke-width="2" stroke-linecap="square" data-color="color-2" fill="none"></path> <path d="M19.7574 22.5857L18.3431 23.9999C16.781 25.562 16.781 28.0947 18.3431 29.6568V29.6568C19.9052 31.2189 22.4379 31.2189 24 29.6568L25.4142 28.2426" stroke="#000" stroke-width="2" stroke-linecap="square" data-color="color-2" fill="none"></path> <path d="M22.5859 25.4143L25.4143 22.5859" stroke="#000" stroke-width="2" stroke-linecap="square" data-color="color-2" fill="none"></path> </g> <defs data-cap="butt" fill="none" data-stroke="none"> <clipPath id="clip0_1827_1231" data-cap="butt" fill="none" data-stroke="none"> <rect width="32" height="32" fill="#000" data-color="color-2" data-cap="butt" data-stroke="none"></rect> </clipPath> </defs></svg>