<svg xmlns="http://www.w3.org/2000/svg" xmlns:xlink="http://www.w3.org/1999/xlink" x="0px" y="0px" width="32px" height="32px" viewBox="0 0 32 32"><path d="M8.50006 7.30768L8.00006 8L12.3333 2" stroke="black" stroke-width="2" stroke-miterlimit="10" stroke-linecap="square" fill="none"></path> <path d="M23.5703 7.40497L24.0001 8L19.6667 2" stroke="black" stroke-width="2" stroke-miterlimit="10" stroke-linecap="square" fill="none"></path> <path d="M4 17L4.77076 26.2491C4.90033 27.804 6.20013 29 7.7604 29H19" stroke="black" stroke-width="2" stroke-miterlimit="10" stroke-linecap="square" fill="none"></path> <path d="M11 19V24" stroke="black" stroke-width="2" stroke-miterlimit="10" stroke-linecap="square" fill="none"></path> <path d="M16 19V24" stroke="black" stroke-width="2" stroke-miterlimit="10" stroke-linecap="square" fill="none"></path> <path d="M30 8H2V13H30V8Z" stroke="black" stroke-width="2" stroke-miterlimit="10" stroke-linecap="square" fill="none"></path> <path d="M26 29V30.5" stroke="#000" stroke-width="2" stroke-linecap="square" data-color="color-2" fill="none"></path> <path d="M26 16.5V18" stroke="#000" stroke-width="2" stroke-linecap="square" data-color="color-2" fill="none"></path> <path d="M28.5 18H24.75C23.2312 18 22 19.2312 22 20.75V20.75C22 22.2688 23.2312 23.5 24.75 23.5H27.25C28.7688 23.5 30 24.7312 30 26.25V26.25C30 27.7688 28.7688 29 27.25 29H23.5" stroke="#000" stroke-width="2" stroke-linecap="square" data-color="color-2" fill="none"></path></svg>