<svg xmlns="http://www.w3.org/2000/svg" xmlns:xlink="http://www.w3.org/1999/xlink" x="0px" y="0px" width="32px" height="32px" viewBox="0 0 32 32"><path d="M11 13V6C11 3.239 13.239 1 16 1C18.761 1 21 3.239 21 6V13" stroke="black" stroke-width="2" stroke-miterlimit="10" stroke-linecap="square" fill="none"></path> <path d="M25.9999 13V9H5.99994V16L3.84792 25.3254C3.41411 27.2053 4.84184 29 6.77109 29H13.9999" stroke="black" stroke-width="2" stroke-miterlimit="10" stroke-linecap="square" fill="none"></path> <path d="M24 22C25.3807 22 26.5 20.8807 26.5 19.5C26.5 18.1193 25.3807 17 24 17C22.6193 17 21.5 18.1193 21.5 19.5C21.5 20.8807 22.6193 22 24 22Z" stroke="#000" stroke-width="2" stroke-miterlimit="10" stroke-linecap="square" data-color="color-2" fill="none"></path> <path d="M24 25C20.6863 25 18 27.6863 18 31H30C30 27.6863 27.3137 25 24 25Z" stroke="#000" stroke-width="2" stroke-miterlimit="10" stroke-linecap="square" data-color="color-2" fill="none"></path></svg>