<svg xmlns="http://www.w3.org/2000/svg" xmlns:xlink="http://www.w3.org/1999/xlink" x="0px" y="0px" width="32px" height="32px" viewBox="0 0 32 32"> <path d="M23 8H3L3 28H26C27.6569 28 29 26.6569 29 25V5V5.65625" stroke="black" stroke-width="2" stroke-miterlimit="10" stroke-linecap="square" fill="none"></path> <path d="M19 20H24" stroke="#000" stroke-width="2" stroke-linecap="square" data-color="color-2" fill="none"></path> <path d="M19 16L21 16" stroke="#000" stroke-width="2" stroke-linecap="square" data-color="color-2" fill="none"></path> <path d="M20.6429 8H26C27.6569 8 29 6.65685 29 5V5C29 3.34315 27.6569 2 26 2H20V8" stroke="black" stroke-width="2" stroke-linecap="square" fill="none"></path> <path d="M11 22V23" stroke="black" stroke-width="2" stroke-linecap="square" fill="none"></path> <path d="M11 13V14" stroke="black" stroke-width="2" stroke-linecap="square" fill="none"></path> <path d="M13 14L10 14C8.89543 14 8 14.8954 8 16V16C8 17.1046 8.89543 18 10 18H12C13.1046 18 14 18.8954 14 20V20C14 21.1046 13.1046 22 12 22H9" stroke="black" stroke-width="2" stroke-linecap="square" fill="none"></path> </svg>