<svg xmlns="http://www.w3.org/2000/svg" xmlns:xlink="http://www.w3.org/1999/xlink" x="0px" y="0px" width="32px" height="32px" viewBox="0 0 32 32"> <rect x="3" y="3" width="9" height="9" stroke="black" stroke-width="2" data-cap="butt" fill="none"></rect> <rect x="3" y="20" width="9" height="9" stroke="black" stroke-width="2" data-cap="butt" fill="none"></rect> <rect x="27" y="20" width="2" height="2" stroke="#000" stroke-width="2" data-color="color-2" data-cap="butt" fill="none"></rect> <rect x="16" y="27" width="2" height="2" stroke="#000" stroke-width="2" data-color="color-2" data-cap="butt" fill="none"></rect> <rect x="20" y="3" width="9" height="9" stroke="black" stroke-width="2" data-cap="butt" fill="none"></rect> <path d="M3 16H7" stroke="black" stroke-width="2" stroke-linecap="square" fill="none"></path> <path d="M13 16H18M22 16V23H29M22 16H26M22 16H18M18 16V20H16" stroke="#000" stroke-width="2" stroke-linecap="square" data-color="color-2" fill="none"></path> <path d="M16 7V10" stroke="#000" stroke-width="2" stroke-linecap="square" data-color="color-2" fill="none"></path> <path d="M16 25V29H23V27" stroke="#000" stroke-width="2" stroke-linecap="square" data-color="color-2" fill="none"></path> <path d="M29.01 29H29" stroke="#000" stroke-width="2" stroke-linecap="square" data-color="color-2" fill="none"></path> <rect x="24" y="7" width="1" height="1" stroke="black" stroke-width="2" data-cap="butt" fill="none"></rect> <rect x="7" y="7" width="1" height="1" stroke="black" stroke-width="2" data-cap="butt" fill="none"></rect> <rect x="7" y="24" width="1" height="1" stroke="black" stroke-width="2" data-cap="butt" fill="none"></rect> </svg>