<svg xmlns="http://www.w3.org/2000/svg" xmlns:xlink="http://www.w3.org/1999/xlink" x="0px" y="0px" width="32px" height="32px" viewBox="0 0 32 32"> <path d="M15 31C15.5523 31 16 30.5523 16 30C16 29.4477 15.5523 29 15 29C14.4477 29 14 29.4477 14 30C14 30.5523 14.4477 31 15 31Z" fill="#000" stroke="#000" stroke-width="2" stroke-miterlimit="10" stroke-linecap="square" data-color="color-2"></path> <path d="M28 31C28.5523 31 29 30.5523 29 30C29 29.4477 28.5523 29 28 29C27.4477 29 27 29.4477 27 30C27 30.5523 27.4477 31 28 31Z" fill="#000" stroke="#000" stroke-width="2" stroke-miterlimit="10" stroke-linecap="square" data-color="color-2"></path> <path d="M15 16H30L28.4309 23.4141C28.2352 24.3386 27.4192 25 26.4742 25H17.4902C16.4976 25 15.6552 24.272 15.5113 23.2899L13.8571 12H11" stroke="#000" stroke-width="2" stroke-miterlimit="10" stroke-linecap="square" data-color="color-2" fill="none"></path> <path d="M25 12L25 4C25 2.34315 23.6569 1 22 1L8 0.999999C6.34315 0.999999 5 2.34315 5 4L5 28C5 29.6569 6.34315 31 8 31L10 31" stroke="black" stroke-width="2" stroke-miterlimit="10" stroke-linecap="square" fill="none"></path> <path d="M12 1V2.5C12 2.77614 12.2239 3 12.5 3H17.5C17.7762 3 18 2.77614 18 2.5L18 1" stroke="black" stroke-width="2" stroke-miterlimit="10" stroke-linecap="square" fill="none"></path> </svg>