<svg xmlns="http://www.w3.org/2000/svg" xmlns:xlink="http://www.w3.org/1999/xlink" x="0px" y="0px" width="32px" height="32px" viewBox="0 0 32 32"><g clip-path="url(#clip0_1827_1193)"> <path d="M11 13V6C11 3.239 13.239 1 16 1C18.761 1 21 3.239 21 6V13" stroke="black" stroke-width="2" stroke-miterlimit="10" stroke-linecap="square" fill="none"></path> <path d="M25.9999 13V9H5.99994V16L3.84792 25.3254C3.41411 27.2053 4.84184 29 6.77109 29H12.4999" stroke="black" stroke-width="2" stroke-miterlimit="10" stroke-linecap="square" fill="none"></path> <path d="M21.5858 19.7574L23 18.3432C24.5621 16.7811 27.0948 16.7811 28.6569 18.3432V18.3432C30.219 19.9053 30.219 22.438 28.6569 24.0001L27.2426 25.4143" stroke="#000" stroke-width="2" stroke-linecap="square" data-color="color-2" fill="none"></path> <path d="M18.7574 22.5857L17.3431 23.9999C15.781 25.562 15.781 28.0947 17.3431 29.6568V29.6568C18.9052 31.2189 21.4379 31.2189 23 29.6568L24.4142 28.2426" stroke="#000" stroke-width="2" stroke-linecap="square" data-color="color-2" fill="none"></path> <path d="M21.5859 25.4143L24.4143 22.5859" stroke="#000" stroke-width="2" stroke-linecap="square" data-color="color-2" fill="none"></path> </g> <defs data-cap="butt" fill="none" data-stroke="none"> <clipPath id="clip0_1827_1193" data-cap="butt" fill="none" data-stroke="none"> <rect width="32" height="32" fill="#000" data-color="color-2" data-cap="butt" data-stroke="none"></rect> </clipPath> </defs></svg>