<svg xmlns="http://www.w3.org/2000/svg" xmlns:xlink="http://www.w3.org/1999/xlink" x="0px" y="0px" width="48px" height="48px" viewBox="0 0 48 48"><path d="M36.5 45C40.865 41.9428 44 38.4628 44 34.3846C44 30.3065 40.6419 27 36.5 27C32.3581 27 29 30.3065 29 34.3846C29 38.4628 32.135 41.9428 36.5 45Z" stroke="#000" stroke-width="2" stroke-miterlimit="10" stroke-linecap="square" data-color="color-2" fill="none"></path> <path d="M36.5 36C37.1904 36 37.75 35.4404 37.75 34.75C37.75 34.0596 37.1904 33.5 36.5 33.5C35.8096 33.5 35.25 34.0596 35.25 34.75C35.25 35.4404 35.8096 36 36.5 36Z" fill="#000" stroke="#000" stroke-width="2" stroke-miterlimit="10" data-color="color-2" data-cap="butt"></path> <path d="M8.5 9H40.0001L37.4016 20.1361C36.8736 22.3991 34.8561 24 32.5324 24H10.5" stroke="black" stroke-width="2" stroke-miterlimit="10" data-cap="butt" fill="none"></path> <path d="M11 44C13.2091 44 15 42.2091 15 40C15 37.7909 13.2091 36 11 36C8.79086 36 7 37.7909 7 40C7 42.2091 8.79086 44 11 44Z" stroke="black" stroke-width="2" stroke-miterlimit="10" stroke-linecap="square" fill="none"></path> <path d="M23.3825 31H9.72863C7.41114 31 6.34098 28.1197 8.09624 26.6065L10.6923 24.3684L7.8183 5.13064C7.63537 3.90619 6.58381 3.00005 5.34577 3.00003L3 3" stroke="black" stroke-width="2" stroke-miterlimit="10" stroke-linecap="square" fill="none"></path> <path d="M24 15V18" stroke="black" stroke-width="2" stroke-miterlimit="10" stroke-linecap="square" fill="none"></path> <path d="M17 15V18" stroke="black" stroke-width="2" stroke-miterlimit="10" stroke-linecap="square" fill="none"></path> <path d="M31 18V15" stroke="black" stroke-width="2" stroke-miterlimit="10" stroke-linecap="square" fill="none"></path></svg>