<svg xmlns="http://www.w3.org/2000/svg" xmlns:xlink="http://www.w3.org/1999/xlink" x="0px" y="0px" width="48px" height="48px" viewBox="0 0 48 48"> <path d="M43 38L43 5L14 5L14 33" stroke="black" stroke-width="2" stroke-miterlimit="10" stroke-linecap="square" fill="none"></path> <path d="M29 39.5V43H5V38C5 35.2386 7.23858 33 10 33H32.5H30.4231" stroke="black" stroke-width="2" stroke-linecap="square" fill="none"></path> <path d="M43 37V39.5C43 41.433 41.433 43 39.5 43V43C37.567 43 36 41.433 36 39.5V37.75" stroke="black" stroke-width="2" stroke-linecap="square" fill="none"></path> <path d="M36 38.25V36.5C36 34.567 34.433 33 32.5 33V33C30.567 33 29 34.567 29 36.5V39" stroke="black" stroke-width="2" stroke-linecap="square" fill="none"></path> <path d="M21 18H36" stroke="#000" stroke-width="2" stroke-miterlimit="10" stroke-linecap="square" data-color="color-2" fill="none"></path> <path d="M21 12L29 12" stroke="#000" stroke-width="2" stroke-miterlimit="10" stroke-linecap="square" data-color="color-2" fill="none"></path> <path d="M34 12L36 12" stroke="#000" stroke-width="2" stroke-miterlimit="10" stroke-linecap="square" data-color="color-2" fill="none"></path> <path d="M21 24L25 24" stroke="#000" stroke-width="2" stroke-miterlimit="10" stroke-linecap="square" data-color="color-2" fill="none"></path> </svg>