<svg xmlns="http://www.w3.org/2000/svg" xmlns:xlink="http://www.w3.org/1999/xlink" x="0px" y="0px" width="48px" height="48px" viewBox="0 0 48 48"> <path d="M42 44.5002L37 33.0002L37.7342 34.689" stroke="black" stroke-width="2" stroke-linecap="square" fill="none"></path> <path d="M25 7L25 16L31 16L31 7" stroke="#000" stroke-width="2" stroke-miterlimit="10" stroke-linecap="square" data-color="color-2" fill="none"></path> <path d="M41 7L15 7L15 25.5C15 26.8807 16.1193 28 17.5 28L38.5 28C39.8807 28 41 26.8807 41 25.5L41 7Z" stroke="black" stroke-width="2" stroke-miterlimit="10" stroke-linecap="square" fill="none"></path> <path d="M4.00037 5H7.00025L10.0001 33H43" stroke="black" stroke-width="2" stroke-linecap="square" fill="none"></path> <path d="M13.5 45C15.433 45 17 43.433 17 41.5C17 39.567 15.433 38 13.5 38C11.567 38 10 39.567 10 41.5C10 43.433 11.567 45 13.5 45Z" stroke="black" stroke-width="2" stroke-miterlimit="10" stroke-linecap="square" fill="none"></path> </svg>