<svg xmlns="http://www.w3.org/2000/svg" xmlns:xlink="http://www.w3.org/1999/xlink" x="0px" y="0px" width="48px" height="48px" viewBox="0 0 48 48"> <path d="M29 18L29 30L35 30" stroke="#000" stroke-width="2" stroke-linecap="square" data-color="color-2" fill="none"></path> <path d="M15.1468 30H15L19 18H20L24 30H23.8402" stroke="#000" stroke-width="2" stroke-linecap="square" data-color="color-2" fill="none"></path> <path d="M9.5 18H6C4.34315 18 3 19.3431 3 21V21C3 22.6569 4.34315 24 6 24H8C9.65685 24 11 25.3431 11 27V27C11 28.6569 9.65685 30 8 30H4.5" stroke="#000" stroke-width="2" stroke-linecap="square" data-color="color-2" fill="none"></path> <path d="M16 27H23" stroke="#000" stroke-width="2" data-color="color-2" data-cap="butt" fill="none"></path> <path d="M46 18L40 18V30H46M43.5 24H40.5" stroke="#000" stroke-width="2" stroke-linecap="square" data-color="color-2" fill="none"></path> <path d="M6 34.8228C9.67469 40.9212 16.361 45 24 45C31.639 45 38.3253 40.9212 42 34.8228" stroke="black" stroke-width="2" stroke-miterlimit="10" stroke-linecap="square" fill="none"></path> <path d="M6 13.1772C9.67469 7.07875 16.361 3 24 3C31.639 3 38.3253 7.07875 42 13.1772" stroke="black" stroke-width="2" stroke-miterlimit="10" stroke-linecap="square" fill="none"></path> </svg>