<svg xmlns="http://www.w3.org/2000/svg" xmlns:xlink="http://www.w3.org/1999/xlink" x="0px" y="0px" width="48px" height="48px" viewBox="0 0 48 48"> <path d="M16.5 20V9.5C16.5 5.35786 19.8579 2 24 2C28.1421 2 31.5 5.35786 31.5 9.5V20" stroke="#000" stroke-width="2" stroke-linecap="square" data-color="color-2" fill="none"></path> <path d="M34 32.5V36L37.5 38.5" stroke="#000" stroke-width="2" stroke-miterlimit="10" stroke-linecap="square" data-color="color-2" fill="none"></path> <path d="M34 45C38.9706 45 43 40.9706 43 36C43 31.0294 38.9706 27 34 27C29.0294 27 25 31.0294 25 36C25 40.9706 29.0294 45 34 45Z" stroke="#000" stroke-width="2" stroke-miterlimit="10" stroke-linecap="square" data-color="color-2" fill="none"></path> <path d="M22 43.0001H12.1622C8.98637 43.0001 6.61522 40.0778 7.26948 36.9701L10 24.0001V14H38V22.5" stroke="black" stroke-width="2" stroke-miterlimit="10" stroke-linecap="square" fill="none"></path> </svg>