<svg xmlns="http://www.w3.org/2000/svg" xmlns:xlink="http://www.w3.org/1999/xlink" x="0px" y="0px" width="48px" height="48px" viewBox="0 0 48 48"> <path d="M8 40L24 24L40 8" stroke="#000" stroke-width="2" stroke-miterlimit="10" stroke-linecap="square" data-color="color-2" fill="none"></path> <path d="M13 20C16.866 20 20 16.866 20 13C20 9.13401 16.866 6 13 6C9.13401 6 6 9.13401 6 13C6 16.866 9.13401 20 13 20Z" stroke="black" stroke-width="2" stroke-miterlimit="10" stroke-linecap="square" fill="none"></path> <path d="M35 42C38.866 42 42 38.866 42 35C42 31.134 38.866 28 35 28C31.134 28 28 31.134 28 35C28 38.866 31.134 42 35 42Z" stroke="black" stroke-width="2" stroke-miterlimit="10" stroke-linecap="square" fill="none"></path> </svg>