<svg xmlns="http://www.w3.org/2000/svg" xmlns:xlink="http://www.w3.org/1999/xlink" x="0px" y="0px" width="48px" height="48px" viewBox="0 0 48 48"> <path d="M16.5 20V9.5C16.5 5.35786 19.8579 2 24 2C28.1421 2 31.5 5.35786 31.5 9.5V20" stroke="#000" stroke-width="2" stroke-linecap="square" data-color="color-2" fill="none"></path> <path d="M20 43.0001H12.1622C8.98637 43.0001 6.61522 40.0778 7.26948 36.9701L10 24.0001V14H38V22.6683" stroke="black" stroke-width="2" stroke-miterlimit="10" stroke-linecap="square" fill="none"></path> <path d="M35 35L35 40" stroke="#000" stroke-width="2" stroke-miterlimit="10" stroke-linecap="square" data-color="color-2" fill="none"></path> <path d="M29 45H26.9967C25.4666 45 24.5065 43.3451 25.2651 42.0161L33.2687 28.0054C34.0345 26.6649 35.9661 26.6649 36.7305 28.0054L44.7341 42.0161C45.4942 43.3451 44.5341 45 43.0025 45H41" stroke="#000" stroke-width="2" stroke-miterlimit="10" stroke-linecap="square" data-color="color-2" fill="none"></path> <path d="M34 45C34 45.5523 34.4477 46 35 46C35.5523 46 36 45.5523 36 45C36 44.4477 35.5523 44 35 44C34.4477 44 34 44.4477 34 45Z" fill="#000" stroke="#000" stroke-width="2" stroke-miterlimit="10" stroke-linecap="square" data-color="color-2"></path> </svg>