<svg xmlns="http://www.w3.org/2000/svg" xmlns:xlink="http://www.w3.org/1999/xlink" x="0px" y="0px" width="48px" height="48px" viewBox="0 0 48 48"><path d="M16.5 20V9.5C16.5 5.35786 19.8579 2 24 2C28.1421 2 31.5 5.35786 31.5 9.5V20" stroke="#000" stroke-width="2" stroke-linecap="square" data-color="color-2" fill="none"></path> <path d="M38 23.2402V14H9.96773V24L7.25758 36.9779C6.60906 40.0835 8.97947 43 12.152 43H20.6404" stroke="black" stroke-width="2" stroke-miterlimit="10" stroke-linecap="square" fill="none"></path> <path d="M31.5251 30.9896L32.5857 29.9289C34.9289 27.5858 38.7279 27.5858 41.071 29.9289V29.9289C43.4142 32.2721 43.4142 36.0711 41.071 38.4142L40.0103 39.4749" stroke="#000" stroke-width="2" stroke-linecap="square" data-color="color-2" fill="none"></path> <path d="M27.9896 34.5251L26.9289 35.5857C24.5858 37.9289 24.5858 41.7279 26.9289 44.071V44.071C29.2721 46.4142 33.0711 46.4142 35.4142 44.071L36.4749 43.0103" stroke="#000" stroke-width="2" stroke-linecap="square" data-color="color-2" fill="none"></path> <path d="M31.879 39.1213L36.1217 34.8787" stroke="#000" stroke-width="2" stroke-linecap="square" data-color="color-2" fill="none"></path></svg>