<svg xmlns="http://www.w3.org/2000/svg" xmlns:xlink="http://www.w3.org/1999/xlink" x="0px" y="0px" width="24px" height="24px" viewBox="0 0 24 24"> <circle cx="22.5" cy="12" r="1.5" fill="black" data-cap="butt" data-stroke="none"></circle> <circle cx="1.5" cy="12" r="1.5" fill="black" data-cap="butt" data-stroke="none"></circle> <path d="M14.2361 7C13.6868 7.61375 12.8885 8 12 8C10.3431 8 9 6.65685 9 5C9 3.34315 10.3431 2 12 2L11.5095 2.0399" stroke="black" stroke-width="2" stroke-miterlimit="10" stroke-linecap="square" fill="none"></path> <path d="M12 19C14.2091 19 16 17.2091 16 15H8C8 17.2091 9.79086 19 12 19Z" fill="#000" data-color="color-2" data-cap="butt" data-stroke="none"></path> <circle cx="8.5" cy="11.5" r="1.5" fill="#000" data-color="color-2" data-cap="butt" data-stroke="none"></circle> <circle cx="15.5" cy="11.5" r="1.5" fill="#000" data-color="color-2" data-cap="butt" data-stroke="none"></circle> <path d="M12 22C17.5228 22 22 17.5228 22 12C22 6.47715 17.5228 2 12 2C6.47715 2 2 6.47715 2 12C2 17.5228 6.47715 22 12 22Z" stroke="black" stroke-width="2" stroke-miterlimit="10" stroke-linecap="square" fill="none"></path> </svg>