<svg xmlns="http://www.w3.org/2000/svg" xmlns:xlink="http://www.w3.org/1999/xlink" x="0px" y="0px" width="32px" height="32px" viewBox="0 0 32 32"> <path d="M6 12H26V13.6814C26 16.1147 24.1195 18.1343 21.6923 18.3077C20.0281 18.4266 18.4283 17.6424 17.5028 16.2541L16.7187 15.078C16.3553 14.5329 15.5745 14.4787 15.1392 14.9684L13.4083 16.9156C12.5218 17.913 11.2174 18.4348 9.88752 18.324C7.69017 18.1408 6 16.304 6 14.099V12Z" stroke="#000" stroke-width="2" data-color="color-2" data-cap="butt" fill="none"></path> <path d="M16 30C23.732 30 30 23.732 30 16C30 8.26801 23.732 2 16 2C8.26801 2 2 8.26801 2 16C2 23.732 8.26801 30 16 30Z" stroke="black" stroke-width="2" stroke-miterlimit="10" stroke-linecap="square" fill="none"></path> <path d="M16 25C18.3787 25 20.4804 23.8135 21.7453 22" stroke="#000" stroke-width="2" stroke-miterlimit="10" stroke-linecap="square" data-color="color-2" fill="none"></path> </svg>