<svg xmlns="http://www.w3.org/2000/svg" xmlns:xlink="http://www.w3.org/1999/xlink" x="0px" y="0px" width="32px" height="32px" viewBox="0 0 32 32"> <path d="M16 1L16 1.01" stroke="#000" stroke-width="2" stroke-linecap="square" data-color="color-2" fill="none"></path> <path d="M16 31L16 31.01" stroke="#000" stroke-width="2" stroke-linecap="square" data-color="color-2" fill="none"></path> <path d="M31.005 16.005L30.995 16.005" stroke="#000" stroke-width="2" stroke-linecap="square" data-color="color-2" fill="none"></path> <path d="M1.005 16.005L0.995005 16.005" stroke="#000" stroke-width="2" stroke-linecap="square" data-color="color-2" fill="none"></path> <path d="M5.38986 5.39487L5.39693 5.40194" stroke="#000" stroke-width="2" stroke-linecap="square" data-color="color-2" fill="none"></path> <path d="M26.6031 26.6081L26.6101 26.6151" stroke="#000" stroke-width="2" stroke-linecap="square" data-color="color-2" fill="none"></path> <path d="M26.6101 5.39487L26.6031 5.40194" stroke="#000" stroke-width="2" stroke-linecap="square" data-color="color-2" fill="none"></path> <path d="M5.39694 26.6081L5.38987 26.6151" stroke="#000" stroke-width="2" stroke-linecap="square" data-color="color-2" fill="none"></path> <path d="M16 27C22.0751 27 27 22.0751 27 16C27 9.92487 22.0751 5 16 5C9.92487 5 5 9.92487 5 16C5 22.0751 9.92487 27 16 27Z" stroke="black" stroke-width="2" stroke-miterlimit="10" stroke-linecap="square" fill="none"></path> <path d="M10.8027 19C11.8401 20.7934 13.7791 22 16 22C18.2208 22 20.1599 20.7934 21.1973 19" stroke="#000" stroke-width="2" stroke-miterlimit="10" stroke-linecap="square" data-color="color-2" fill="none"></path> <path d="M12 15C13.1046 15 14 14.1046 14 13C14 11.8954 13.1046 11 12 11C10.8954 11 10 11.8954 10 13C10 14.1046 10.8954 15 12 15Z" stroke="#000" stroke-width="2" stroke-miterlimit="10" stroke-linecap="square" data-color="color-2" fill="none"></path> <path d="M20 15C21.1046 15 22 14.1046 22 13C22 11.8954 21.1046 11 20 11C18.8954 11 18 11.8954 18 13C18 14.1046 18.8954 15 20 15Z" stroke="#000" stroke-width="2" stroke-miterlimit="10" stroke-linecap="square" data-color="color-2" fill="none"></path> </svg>