<svg xmlns="http://www.w3.org/2000/svg" xmlns:xlink="http://www.w3.org/1999/xlink" x="0px" y="0px" width="32px" height="32px" viewBox="0 0 32 32"> <path d="M10 21L2 18" stroke="#000" stroke-width="2" data-color="color-2" data-cap="butt" fill="none"></path> <path d="M22 21L30 18" stroke="#000" stroke-width="2" data-color="color-2" data-cap="butt" fill="none"></path> <path d="M22 23.5764L22 18.4236C22 18.1791 21.8233 17.9705 21.5822 17.9304L16.0822 17.0137C16.0278 17.0046 15.9722 17.0046 15.9178 17.0137L10.4178 17.9304C10.1767 17.9705 10 18.1791 10 18.4236L10 23.5764C10 23.8209 10.1767 24.0295 10.4178 24.0696L15.9178 24.9863C15.9722 24.9954 16.0278 24.9954 16.0822 24.9863L21.5822 24.0696C21.8233 24.0295 22 23.8209 22 23.5764Z" stroke="#000" stroke-width="2" stroke-miterlimit="10" stroke-linecap="square" data-color="color-2" fill="none"></path> <path d="M19 13H23" stroke="#000" stroke-width="2" stroke-linecap="square" data-color="color-2" fill="none"></path> <path d="M9 13H13" stroke="#000" stroke-width="2" stroke-linecap="square" data-color="color-2" fill="none"></path> <path d="M16 30C23.732 30 30 23.732 30 16C30 8.26801 23.732 2 16 2C8.26801 2 2 8.26801 2 16C2 23.732 8.26801 30 16 30Z" stroke="black" stroke-width="2" stroke-miterlimit="10" stroke-linecap="square" fill="none"></path> </svg>