<svg xmlns="http://www.w3.org/2000/svg" xmlns:xlink="http://www.w3.org/1999/xlink" x="0px" y="0px" width="48px" height="48px" viewBox="0 0 48 48"> <path d="M8 41H40C42.7614 41 45 38.7614 45 36V14C45 11.2386 42.7614 9 40 9H30V3.28517L16 9H8C5.23858 9 3 11.2386 3 14V36C3 38.7614 5.23858 41 8 41Z" stroke="black" stroke-width="2" stroke-miterlimit="10" stroke-linecap="square" fill="none"></path> <path d="M30 34H18" stroke="#000" stroke-width="2" stroke-linecap="square" data-color="color-2" fill="none"></path> <path d="M18 16L18 27L13 27L13 16L18 16Z" stroke="#000" stroke-width="2" stroke-linecap="square" data-color="color-2" fill="none"></path> <path d="M35 16L35 27L30 27L30 16L35 16Z" stroke="#000" stroke-width="2" stroke-linecap="square" data-color="color-2" fill="none"></path> </svg>