<svg xmlns="http://www.w3.org/2000/svg" xmlns:xlink="http://www.w3.org/1999/xlink" x="0px" y="0px" width="18px" height="18px" viewBox="0 0 18 18"><path d="M5.75 2.75V0.75" stroke="black" stroke-width="1.5" stroke-linecap="round" stroke-linejoin="round" fill="none"></path> <path d="M12.25 2.75V0.75" stroke="black" stroke-width="1.5" stroke-linecap="round" stroke-linejoin="round" fill="none"></path> <path d="M2.25 6.25H15.75" stroke="black" stroke-width="1.5" stroke-linecap="round" stroke-linejoin="round" fill="none"></path> <path d="M15.75 7.7827V4.75C15.75 3.646 14.855 2.75 13.75 2.75H4.25C3.145 2.75 2.25 3.646 2.25 4.75V13.25C2.25 14.354 3.145 15.25 4.25 15.25H8.08881" stroke="black" stroke-width="1.5" stroke-linecap="round" stroke-linejoin="round" fill="none"></path> <path d="M13.781 16.447C13.919 16.518 14.08 16.518 14.218 16.447C14.947 16.073 17.249 14.717 17.249 12.513C17.253 11.545 16.458 10.756 15.472 10.75C14.879 10.757 14.328 11.051 13.999 11.536C13.67 11.052 13.118 10.758 12.526 10.75C11.541 10.756 10.746 11.544 10.749 12.513C10.749 14.718 13.052 16.073 13.78 16.447H13.781Z" stroke="#000" stroke-width="1.5" stroke-linecap="round" stroke-linejoin="round" data-color="color-2" fill="none"></path></svg>