<svg xmlns="http://www.w3.org/2000/svg" xmlns:xlink="http://www.w3.org/1999/xlink" x="0px" y="0px" width="18px" height="18px" viewBox="0 0 18 18"><path d="M5.75 2.75V0.75" stroke="black" stroke-width="1.5" stroke-linecap="round" stroke-linejoin="round" fill="none"></path> <path d="M12.25 2.75V0.75" stroke="black" stroke-width="1.5" stroke-linecap="round" stroke-linejoin="round" fill="none"></path> <path d="M2.25 6.25H15.75" stroke="black" stroke-width="1.5" stroke-linecap="round" stroke-linejoin="round" fill="none"></path> <path d="M14.25 13.25H16.75V10.75" stroke="#000" stroke-width="1.5" stroke-linecap="round" stroke-linejoin="round" data-color="color-2" fill="none"></path> <path d="M15.75 7.9312V4.75C15.75 3.646 14.855 2.75 13.75 2.75H4.25C3.145 2.75 2.25 3.646 2.25 4.75V13.25C2.25 14.354 3.145 15.25 4.25 15.25H8.3909" stroke="black" stroke-width="1.5" stroke-linecap="round" stroke-linejoin="round" fill="none"></path> <path d="M16 15.887C15.499 16.418 14.788 16.75 14 16.75C12.481 16.75 11.25 15.519 11.25 14C11.25 12.481 12.481 11.25 14 11.25C15.166 11.25 16.162 11.976 16.563 13" stroke="#000" stroke-width="1.5" stroke-linecap="round" stroke-linejoin="round" data-color="color-2" fill="none"></path></svg>