<svg xmlns="http://www.w3.org/2000/svg" xmlns:xlink="http://www.w3.org/1999/xlink" x="0px" y="0px" width="48px" height="48px" viewBox="0 0 48 48"> <path d="M31 2H17V5H22.5V10H25.5V5H31V2Z" fill="black"></path> <path fill-rule="evenodd" clip-rule="evenodd" d="M38 6.87866L46.1213 15L44 17.1213L35.8787 8.99998L38 6.87866Z" fill="#000" data-color="color-2"></path> <path fill-rule="evenodd" clip-rule="evenodd" d="M10 6.87866L1.8787 15L4.00002 17.1213L12.1213 8.99998L10 6.87866Z" fill="#000" data-color="color-2"></path> <path fill-rule="evenodd" clip-rule="evenodd" d="M24 9C13.7827 9 5.5 17.2827 5.5 27.5C5.5 37.7173 13.7827 46 24 46C34.2173 46 42.5 37.7173 42.5 27.5C42.5 17.2827 34.2173 9 24 9ZM26.1215 27.5L16.0002 17.3787L13.8789 19.5L24.0002 29.6213L26.1215 27.5Z" fill="black"></path> </svg>