<svg xmlns="http://www.w3.org/2000/svg" xmlns:xlink="http://www.w3.org/1999/xlink" x="0px" y="0px" width="18px" height="18px" viewBox="0 0 18 18"><path opacity="0.3" d="M6.3398 9.65521L4.02498 3.75L1.65709 9.6698C1.57799 9.8675 1.6266 10.1036 1.7914 10.2384C3.0771 11.2897 4.76489 11.3043 6.18599 10.2356C6.36179 10.1034 6.4201 9.86011 6.3398 9.65521Z" fill="#000" data-color="color-2" data-stroke="none"></path> <path opacity="0.3" d="M11.6602 9.65521L13.975 3.75L16.3429 9.6698C16.422 9.8675 16.3734 10.1036 16.2086 10.2384C14.9229 11.2897 13.2351 11.3043 11.814 10.2356C11.6382 10.1034 11.5799 9.86011 11.6602 9.65521Z" fill="#000" data-color="color-2" data-stroke="none"></path> <path d="M6.3398 9.65521L4.02498 3.75L1.65709 9.6698C1.57799 9.8675 1.6266 10.1036 1.7914 10.2384C3.0771 11.2897 4.76489 11.3043 6.18599 10.2356C6.36179 10.1034 6.4201 9.86011 6.3398 9.65521Z" stroke="black" stroke-width="1.5" stroke-linecap="round" stroke-linejoin="round" fill="none"></path> <path d="M11.6548 9.66901L13.975 3.75L16.3482 9.68298C16.4241 9.87268 16.3772 10.0995 16.2195 10.2294C14.9289 11.2924 13.2298 11.3073 11.8023 10.2267C11.6339 10.0992 11.5777 9.86561 11.6548 9.66901Z" stroke="black" stroke-width="1.5" stroke-linecap="round" stroke-linejoin="round" fill="none"></path> <path d="M9 1.75V15.75" stroke="black" stroke-width="1.5" stroke-linecap="round" stroke-linejoin="round" fill="none"></path> <path d="M13.25 15.75H4.75" stroke="black" stroke-width="1.5" stroke-linecap="round" stroke-linejoin="round" fill="none"></path> <path d="M13.975 3.75H4.02502" stroke="black" stroke-width="1.5" stroke-linecap="round" stroke-linejoin="round" fill="none"></path> <path d="M9 13.25C9 14.6307 7.8807 15.75 6.5 15.75" stroke="black" stroke-width="1.5" stroke-linecap="round" stroke-linejoin="round" fill="none"></path> <path d="M9 13.25C9 14.6307 10.1193 15.75 11.5 15.75" stroke="black" stroke-width="1.5" stroke-linecap="round" stroke-linejoin="round" fill="none"></path></svg>