<svg xmlns="http://www.w3.org/2000/svg" xmlns:xlink="http://www.w3.org/1999/xlink" x="0px" y="0px" width="18px" height="18px" viewBox="0 0 18 18"><path opacity="0.3" fill-rule="evenodd" clip-rule="evenodd" d="M7.92204 1.86301C11.154 1.18801 14 3.637 14 6.75C14 8.701 12.88 10.387 11.25 11.211V11.25H6.75004V11.211C4.85904 10.255 3.65405 8.13999 4.08805 5.79599C4.44705 3.85599 5.99004 2.26601 7.92204 1.86301Z" fill="#000" data-color="color-2" data-stroke="none"></path> <path d="M9 11.25V8.25L7 6.25" stroke="black" stroke-width="1.5" stroke-linecap="round" stroke-linejoin="round" fill="none"></path> <path d="M9 8.25L11 6.25" stroke="black" stroke-width="1.5" stroke-linecap="round" stroke-linejoin="round" fill="none"></path> <path d="M14 6.75C14 3.637 11.154 1.18801 7.92204 1.86301C5.99004 2.26601 4.44705 3.85599 4.08805 5.79599C3.65405 8.13999 4.85904 10.255 6.75004 11.211V14.25C6.75004 15.355 7.64504 16.25 8.75004 16.25H9.25004C10.355 16.25 11.25 15.355 11.25 14.25V11.211C12.88 10.387 14 8.701 14 6.75Z" stroke="black" stroke-width="1.5" stroke-linecap="round" stroke-linejoin="round" fill="none"></path> <path d="M6.75 11.25H11.25" stroke="black" stroke-width="1.5" stroke-linecap="round" stroke-linejoin="round" fill="none"></path></svg>