<svg xmlns="http://www.w3.org/2000/svg" xmlns:xlink="http://www.w3.org/1999/xlink" x="0px" y="0px" width="18px" height="18px" viewBox="0 0 18 18"><path opacity="0.3" fill-rule="evenodd" clip-rule="evenodd" d="M4.75 2.75H13.25C14.3546 2.75 15.25 3.645 15.25 4.75V13.25C15.25 14.355 14.3546 15.25 13.25 15.25H4.75C3.6454 15.25 2.75 14.355 2.75 13.25V4.75C2.75 3.645 3.6454 2.75 4.75 2.75ZM11 9C11 10.105 10.1046 11 9 11C7.8954 11 7 10.105 7 9C7 7.895 7.8954 7 9 7C10.1046 7 11 7.895 11 9Z" fill="#000" data-color="color-2" data-stroke="none"></path> <path d="M13.25 2.75H4.75C3.645 2.75 2.75 3.645 2.75 4.75V13.25C2.75 14.355 3.645 15.25 4.75 15.25H13.25C14.355 15.25 15.25 14.355 15.25 13.25V4.75C15.25 3.645 14.355 2.75 13.25 2.75Z" stroke="black" stroke-width="1.5" stroke-linecap="round" stroke-linejoin="round" fill="none"></path> <path d="M4.75 15.25V16.75" stroke="black" stroke-width="1.5" stroke-linecap="round" stroke-linejoin="round" fill="none"></path> <path d="M13.25 15.25V16.75" stroke="black" stroke-width="1.5" stroke-linecap="round" stroke-linejoin="round" fill="none"></path> <path d="M9 11C10.105 11 11 10.105 11 9C11 7.895 10.105 7 9 7C7.895 7 7 7.895 7 9C7 10.105 7.895 11 9 11Z" stroke="black" stroke-width="1.5" stroke-linecap="round" stroke-linejoin="round" fill="none"></path> <path d="M10.4141 7.586L11.7501 6.25" stroke="black" stroke-width="1.5" stroke-linecap="round" stroke-linejoin="round" fill="none"></path> <path d="M10.4141 10.414L11.7501 11.75" stroke="black" stroke-width="1.5" stroke-linecap="round" stroke-linejoin="round" fill="none"></path> <path d="M7.586 10.414L6.25 11.75" stroke="black" stroke-width="1.5" stroke-linecap="round" stroke-linejoin="round" fill="none"></path> <path d="M7.586 7.586L6.25 6.25" stroke="black" stroke-width="1.5" stroke-linecap="round" stroke-linejoin="round" fill="none"></path></svg>