<svg xmlns="http://www.w3.org/2000/svg" xmlns:xlink="http://www.w3.org/1999/xlink" x="0px" y="0px" width="18px" height="18px" viewBox="0 0 18 18"><path opacity="0.3" fill-rule="evenodd" clip-rule="evenodd" d="M7.97299 4.358C11.045 3.714 13.75 6.041 13.75 9C13.75 10.867 12.6695 12.475 11.1028 13.25H6.89719C5.11109 12.367 3.95699 10.399 4.31499 8.202C4.62299 6.315 6.10099 4.75 7.97299 4.358Z" fill="#000" data-color="color-2" data-stroke="none"></path> <path d="M9 0.75V1.75" stroke="black" stroke-width="1.5" stroke-linecap="round" stroke-linejoin="round" fill="none"></path> <path d="M14.834 3.16599L14.127 3.87299" stroke="black" stroke-width="1.5" stroke-linecap="round" stroke-linejoin="round" fill="none"></path> <path d="M17.25 9H16.25" stroke="black" stroke-width="1.5" stroke-linecap="round" stroke-linejoin="round" fill="none"></path> <path d="M3.16602 3.16599L3.87302 3.87299" stroke="black" stroke-width="1.5" stroke-linecap="round" stroke-linejoin="round" fill="none"></path> <path d="M0.75 9H1.75" stroke="black" stroke-width="1.5" stroke-linecap="round" stroke-linejoin="round" fill="none"></path> <path d="M13.75 8.99999C13.75 6.04069 11.0445 3.71348 7.97199 4.35818C6.09979 4.75108 4.62099 6.31669 4.31449 8.20489C3.93509 10.5427 5.26679 12.6193 7.24999 13.407V15.25C7.24999 16.0784 7.92159 16.75 8.74999 16.75H9.24999C10.0784 16.75 10.75 16.0784 10.75 15.25V13.407C12.505 12.71 13.75 11.004 13.75 8.99999Z" stroke="black" stroke-width="1.5" stroke-linecap="round" stroke-linejoin="round" fill="none"></path> <path d="M6.89697 13.25H11.103" stroke="black" stroke-width="1.5" stroke-linecap="round" stroke-linejoin="round" fill="none"></path></svg>