<svg xmlns="http://www.w3.org/2000/svg" xmlns:xlink="http://www.w3.org/1999/xlink" x="0px" y="0px" width="18px" height="18px" viewBox="0 0 18 18"><path opacity="0.3" d="M11.6602 10.9052L13.975 5L16.3429 10.9198C16.422 11.1175 16.3734 11.3536 16.2086 11.4884C14.9229 12.5397 13.2351 12.5543 11.814 11.4856C11.6382 11.3534 11.5799 11.1101 11.6602 10.9052Z" fill="#000" data-color="color-2" data-stroke="none"></path> <path opacity="0.3" d="M6.33979 8.40521L4.02499 2.5L1.65709 8.4198C1.57799 8.6175 1.62659 8.8536 1.79139 8.9884C3.07709 10.0397 4.76489 10.0543 6.18599 8.9856C6.36179 8.8534 6.42009 8.61011 6.33979 8.40521Z" fill="#000" data-color="color-2" data-stroke="none"></path> <path d="M11.6602 10.9052L13.975 5L16.3429 10.9198C16.422 11.1175 16.3734 11.3536 16.2086 11.4884C14.9229 12.5397 13.2351 12.5543 11.814 11.4856C11.6382 11.3534 11.5799 11.1101 11.6602 10.9052Z" stroke="black" stroke-width="1.5" stroke-linecap="round" stroke-linejoin="round" fill="none"></path> <path d="M6.33979 8.40521L4.02499 2.5L1.65709 8.4198C1.57799 8.6175 1.62659 8.8536 1.79139 8.9884C3.07709 10.0397 4.76489 10.0543 6.18599 8.9856C6.36179 8.8534 6.42009 8.61011 6.33979 8.40521Z" stroke="black" stroke-width="1.5" stroke-linecap="round" stroke-linejoin="round" fill="none"></path> <path d="M9 1.75V15.75" stroke="black" stroke-width="1.5" stroke-linecap="round" stroke-linejoin="round" fill="none"></path> <path d="M4.75 15.75H13.25" stroke="black" stroke-width="1.5" stroke-linecap="round" stroke-linejoin="round" fill="none"></path> <path d="M4.02502 2.5L13.975 5" stroke="black" stroke-width="1.5" stroke-linecap="round" stroke-linejoin="round" fill="none"></path> <path d="M9 13.25C9 14.6307 10.1193 15.75 11.5 15.75" stroke="black" stroke-width="1.5" stroke-linecap="round" stroke-linejoin="round" fill="none"></path> <path d="M9 13.25C9 14.6307 7.8807 15.75 6.5 15.75" stroke="black" stroke-width="1.5" stroke-linecap="round" stroke-linejoin="round" fill="none"></path></svg>