<svg xmlns="http://www.w3.org/2000/svg" xmlns:xlink="http://www.w3.org/1999/xlink" x="0px" y="0px" width="18px" height="18px" viewBox="0 0 18 18"><path d="M6.25 8.75H11.25C12.6307 8.75 13.75 9.86929 13.75 11.25C13.75 12.6307 12.6307 13.75 11.25 13.75H6.25V8.75Z" fill="#000" fill-opacity="0.3" data-color="color-2" data-stroke="none"></path> <path d="M9.25 1.75V4.25" stroke="black" stroke-width="1.5" stroke-linecap="round" stroke-linejoin="round" fill="none"></path> <path d="M9.25 13.75V16.25" stroke="black" stroke-width="1.5" stroke-linecap="round" stroke-linejoin="round" fill="none"></path> <path d="M3.75 4.25H10.5C11.743 4.25 12.75 5.257 12.75 6.5C12.75 7.743 11.743 8.75 10.5 8.75H6.25" stroke="black" stroke-width="1.5" stroke-linecap="round" stroke-linejoin="round" fill="none"></path> <path d="M6.25 8.75H11.25C12.631 8.75 13.75 9.869 13.75 11.25C13.75 12.631 12.631 13.75 11.25 13.75H3.75" stroke="black" stroke-width="1.5" stroke-linecap="round" stroke-linejoin="round" fill="none"></path> <path d="M6.25 1.75V16.25" stroke="black" stroke-width="1.5" stroke-linecap="round" stroke-linejoin="round" fill="none"></path></svg>