<svg xmlns="http://www.w3.org/2000/svg" xmlns:xlink="http://www.w3.org/1999/xlink" x="0px" y="0px" width="12px" height="12px" viewBox="0 0 12 12"><ellipse cx="6" cy="2.75" rx="5" ry="2.75" stroke-width="0" fill="#000"></ellipse><path d="m6,12c-2.851,0-5-1.182-5-2.75,0-.414.336-.75.75-.75s.75.336.75.75c0,.441,1.329,1.25,3.5,1.25s3.5-.809,3.5-1.25c0-.414.336-.75.75-.75s.75.336.75.75c0,1.568-2.149,2.75-5,2.75Z" fill="#000" stroke-width="0" data-color="color-2"></path><path d="m6,8.75c-2.851,0-5-1.182-5-2.75,0-.414.336-.75.75-.75s.75.336.75.75c0,.441,1.329,1.25,3.5,1.25s3.5-.809,3.5-1.25c0-.414.336-.75.75-.75s.75.336.75.75c0,1.568-2.149,2.75-5,2.75Z" fill="#000" stroke-width="0" data-color="color-2"></path></svg>