<svg xmlns="http://www.w3.org/2000/svg" xmlns:xlink="http://www.w3.org/1999/xlink" x="0px" y="0px" width="12px" height="12px" viewBox="0 0 12 12"><path d="m9.25,12c-.414,0-.75-.336-.75-.75V3.75c0-.138-.112-.25-.25-.25h-3c-.414,0-.75-.336-.75-.75s.336-.75.75-.75h3c.965,0,1.75.785,1.75,1.75v7.5c0,.414-.336.75-.75.75Z" fill="#000" stroke-width="0" data-color="color-2"></path><path d="m2.75,3.5H.75c-.414,0-.75-.336-.75-.75s.336-.75.75-.75h2c.414,0,.75.336.75.75s-.336.75-.75.75Z" fill="#000" stroke-width="0" data-color="color-2"></path><path d="m11.25,10H3.75c-.965,0-1.75-.785-1.75-1.75V.75c0-.414.336-.75.75-.75s.75.336.75.75v7.5c0,.138.112.25.25.25h7.5c.414,0,.75.336.75.75s-.336.75-.75.75Z" stroke-width="0" fill="#000"></path></svg>