<svg xmlns="http://www.w3.org/2000/svg" xmlns:xlink="http://www.w3.org/1999/xlink" x="0px" y="0px" width="18px" height="18px" viewBox="0 0 18 18"><path d="M15.25,10c-.192,0-.384-.073-.53-.22l-5.72-5.72L3.28,9.78c-.293,.293-.768,.293-1.061,0s-.293-.768,0-1.061L8.47,2.47c.293-.293,.768-.293,1.061,0l6.25,6.25c.293,.293,.293,.768,0,1.061-.146,.146-.338,.22-.53,.22Z" fill="#000"></path><path d="M15.25,15c-.192,0-.384-.073-.53-.22l-5.72-5.72L3.28,14.78c-.293,.293-.768,.293-1.061,0s-.293-.768,0-1.061l6.25-6.25c.293-.293,.768-.293,1.061,0l6.25,6.25c.293,.293,.293,.768,0,1.061-.146,.146-.338,.22-.53,.22Z" fill="#000" data-color="color-2"></path></svg>