<svg xmlns="http://www.w3.org/2000/svg" xmlns:xlink="http://www.w3.org/1999/xlink" x="0px" y="0px" width="18px" height="18px" viewBox="0 0 18 18"><path d="M12.75,8h-3v-2.75c0-.414-.336-.75-.75-.75s-.75,.336-.75,.75v2.75h-3c-1.517,0-2.75,1.233-2.75,2.75v1.5c0,.414,.336,.75,.75,.75s.75-.336,.75-.75v-1.5c0-.689,.561-1.25,1.25-1.25h3v2.75c0,.414,.336,.75,.75,.75s.75-.336,.75-.75v-2.75h3c.689,0,1.25,.561,1.25,1.25v1.5c0,.414,.336,.75,.75,.75s.75-.336,.75-.75v-1.5c0-1.517-1.233-2.75-2.75-2.75Z" fill="#000" data-color="color-2"></path><rect x="6.5" y="1" width="5" height="5" rx="1.75" ry="1.75" fill="#000"></rect><rect x=".75" y="11.5" width="5" height="5" rx="1.75" ry="1.75" fill="#000"></rect><rect x="6.5" y="11.5" width="5" height="5" rx="1.75" ry="1.75" fill="#000"></rect><rect x="12.25" y="11.5" width="5" height="5" rx="1.75" ry="1.75" fill="#000"></rect></svg>