<svg xmlns="http://www.w3.org/2000/svg" xmlns:xlink="http://www.w3.org/1999/xlink" x="0px" y="0px" width="18px" height="18px" viewBox="0 0 18 18"><rect x="2" y="2" width="6" height="6" rx="1.75" ry="1.75" fill="#000"></rect><circle cx="5" cy="13" r="3.25" fill="#000" data-color="color-2"></circle><path d="M15.5,12.25h-1.75v-1.75c0-.414-.336-.75-.75-.75s-.75,.336-.75,.75v1.75h-1.75c-.414,0-.75,.336-.75,.75s.336,.75,.75,.75h1.75v1.75c0,.414,.336,.75,.75,.75s.75-.336,.75-.75v-1.75h1.75c.414,0,.75-.336,.75-.75s-.336-.75-.75-.75Z" fill="#000"></path><path d="M14.083,2.201c-.451-.782-1.714-.783-2.165,0l-2.266,3.924c-.226,.392-.226,.859,0,1.25,.226,.392,.631,.625,1.083,.625h4.531c.452,0,.856-.233,1.083-.625,.226-.391,.226-.858,0-1.25l-2.266-3.924Z" fill="#000" data-color="color-2"></path></svg>