<svg xmlns="http://www.w3.org/2000/svg" xmlns:xlink="http://www.w3.org/1999/xlink" x="0px" y="0px" width="18px" height="18px" viewBox="0 0 18 18"><path d="M6.514,2.454c.586,.551,1.677,1.77,2.339,3.546h2.767c-.281-1.09-.672-1.986-1.029-2.641-.246-.451-.555-.91-.895-1.359h-3.714c.186,.152,.374,.305,.532,.454Z" fill="#000" data-color="color-2"></path><path d="M7.906,9c0-.539-.074-1.031-.175-1.5H1v3H7.731c.102-.469,.175-.961,.175-1.5Z" fill="#000"></path><path d="M17,10.5v-3h-3.588c.053,.479,.091,.975,.091,1.5s-.038,1.021-.091,1.5h3.588Z" fill="#000"></path><path d="M11.904,7.5h-2.642c.084,.475,.144,.968,.144,1.5s-.06,1.025-.144,1.5h2.642c.059-.476,.099-.972,.099-1.5s-.04-1.024-.099-1.5Z" fill="#000" data-color="color-2"></path><path d="M8.853,12c-.661,1.776-1.752,2.994-2.334,3.542-.159,.15-.348,.304-.536,.458h3.714c.34-.449,.65-.908,.895-1.359,.357-.656,.748-1.551,1.029-2.641h-2.767Z" fill="#000" data-color="color-2"></path><path d="M11.909,2.641c.444,.816,.939,1.954,1.258,3.359h3.834v-1.25c0-1.517-1.233-2.75-2.75-2.75h-2.726c.137,.213,.268,.427,.385,.641Z" fill="#000"></path><path d="M3.43,15.968c.84-.522,1.547-1.036,2.056-1.514,.433-.407,1.196-1.248,1.751-2.454H1v1.25c0,1.407,1.066,2.557,2.43,2.718Z" fill="#000"></path><path d="M13.166,12c-.319,1.405-.813,2.543-1.258,3.359-.116,.214-.248,.428-.385,.641h2.726c1.517,0,2.75-1.233,2.75-2.75v-1.25h-3.834Z" fill="#000"></path><path d="M7.237,6c-.555-1.205-1.317-2.045-1.747-2.449-.512-.481-1.22-.996-2.061-1.519-1.364,.161-2.43,1.311-2.43,2.718v1.25H7.237Z" fill="#000"></path></svg>