<svg xmlns="http://www.w3.org/2000/svg" xmlns:xlink="http://www.w3.org/1999/xlink" x="0px" y="0px" width="18px" height="18px" viewBox="0 0 18 18"><path d="M15.25,17H4.5c-1.379,0-2.5-1.122-2.5-2.5,0-.414,.336-.75,.75-.75s.75,.336,.75,.75c0,.551,.448,1,1,1H14.092c-.277-1.147-.017-2.443,.561-3.204,.25-.329,.72-.394,1.051-.144,.33,.25,.395,.721,.145,1.051-.438,.576-.526,1.91-.004,2.589,.175,.226,.205,.532,.079,.789s-.387,.419-.673,.419Z" fill="#000" data-color="color-2"></path><path d="M15.25,1H4.75c-1.517,0-2.75,1.233-2.75,2.75V14.5c0,.414,.336,.75,.75,.75s.75-.336,.75-.75c0-.551,.448-1,1-1H15.25c.414,0,.75-.336,.75-.75V1.75c0-.414-.336-.75-.75-.75Zm-5.25,6.756v2.244c0,.552-.448,1-1,1s-1-.448-1-1v-2.244c-.738-.369-1.25-1.124-1.25-2.006,0-.978,.628-1.802,1.5-2.112v1.862c0,.276,.224,.5,.5,.5h.5c.276,0,.5-.224,.5-.5v-1.862c.872,.31,1.5,1.134,1.5,2.112,0,.882-.512,1.637-1.25,2.006Z" fill="#000"></path></svg>