<svg xmlns="http://www.w3.org/2000/svg" xmlns:xlink="http://www.w3.org/1999/xlink" x="0px" y="0px" width="18px" height="18px" viewBox="0 0 18 18"><path d="M2.75,8.5c-.414,0-.75-.336-.75-.75V2.75c0-.414,.336-.75,.75-.75s.75,.336,.75,.75V7.75c0,.414-.336,.75-.75,.75Z" fill="#000"></path><path d="M5.25,8.5c-.414,0-.75-.336-.75-.75V2.75c0-.414,.336-.75,.75-.75s.75,.336,.75,.75V7.75c0,.414-.336,.75-.75,.75Z" fill="#000"></path><path d="M7.75,8.5c-.414,0-.75-.336-.75-.75V2.75c0-.414,.336-.75,.75-.75s.75,.336,.75,.75V7.75c0,.414-.336,.75-.75,.75Z" fill="#000"></path><path d="M15.25,3.5h-5c-.414,0-.75-.336-.75-.75s.336-.75,.75-.75h5c.414,0,.75,.336,.75,.75s-.336,.75-.75,.75Z" fill="#000" data-color="color-2"></path><path d="M15.25,6h-5c-.414,0-.75-.336-.75-.75s.336-.75,.75-.75h5c.414,0,.75,.336,.75,.75s-.336,.75-.75,.75Z" fill="#000" data-color="color-2"></path><path d="M15.25,8.5h-5c-.414,0-.75-.336-.75-.75s.336-.75,.75-.75h5c.414,0,.75,.336,.75,.75s-.336,.75-.75,.75Z" fill="#000" data-color="color-2"></path><path d="M15.25,16c-.414,0-.75-.336-.75-.75v-5c0-.414,.336-.75,.75-.75s.75,.336,.75,.75v5c0,.414-.336,.75-.75,.75Z" fill="#000"></path><path d="M12.75,16c-.414,0-.75-.336-.75-.75v-5c0-.414,.336-.75,.75-.75s.75,.336,.75,.75v5c0,.414-.336,.75-.75,.75Z" fill="#000"></path><path d="M10.25,16c-.414,0-.75-.336-.75-.75v-5c0-.414,.336-.75,.75-.75s.75,.336,.75,.75v5c0,.414-.336,.75-.75,.75Z" fill="#000"></path><path d="M7.75,11H2.75c-.414,0-.75-.336-.75-.75s.336-.75,.75-.75H7.75c.414,0,.75,.336,.75,.75s-.336,.75-.75,.75Z" fill="#000" data-color="color-2"></path><path d="M7.75,13.5H2.75c-.414,0-.75-.336-.75-.75s.336-.75,.75-.75H7.75c.414,0,.75,.336,.75,.75s-.336,.75-.75,.75Z" fill="#000" data-color="color-2"></path><path d="M7.75,16H2.75c-.414,0-.75-.336-.75-.75s.336-.75,.75-.75H7.75c.414,0,.75,.336,.75,.75s-.336,.75-.75,.75Z" fill="#000" data-color="color-2"></path></svg>