<svg xmlns="http://www.w3.org/2000/svg" xmlns:xlink="http://www.w3.org/1999/xlink" x="0px" y="0px" width="18px" height="18px" viewBox="0 0 18 18"><path d="M5.25,14c-.216,0-.431-.093-.579-.273L1.171,9.477c-.228-.277-.228-.676,0-.953l3.5-4.25c.264-.32,.736-.365,1.056-.103,.32,.264,.365,.736,.103,1.056l-3.107,3.773,3.107,3.773c.263,.319,.218,.792-.103,1.056-.14,.115-.309,.171-.477,.171Z" fill="#000"></path><path d="M12.75,14c-.168,0-.337-.056-.477-.171-.32-.264-.365-.736-.103-1.056l3.107-3.773-3.107-3.773c-.263-.319-.218-.792,.103-1.056,.319-.262,.792-.218,1.056,.103l3.5,4.25c.228,.277,.228,.676,0,.953l-3.5,4.25c-.148,.18-.363,.273-.579,.273Z" fill="#000"></path><path d="M7.75,14c-.069,0-.141-.01-.212-.03-.397-.117-.624-.534-.508-.931l2.5-8.5c.117-.397,.527-.625,.932-.508,.397,.117,.624,.534,.508,.931l-2.5,8.5c-.097,.327-.396,.539-.72,.539Z" fill="#000" data-color="color-2"></path></svg>