<svg xmlns="http://www.w3.org/2000/svg" xmlns:xlink="http://www.w3.org/1999/xlink" x="0px" y="0px" width="18px" height="18px" viewBox="0 0 18 18"><rect x="1.5" y="1.5" width="6" height="6" rx="1.75" ry="1.75" fill="#000"></rect><rect x="10.5" y="10.5" width="6" height="6" rx="1.75" ry="1.75" fill="#000"></rect><path d="M13,6.25v2c0,.414,.336,.75,.75,.75s.75-.336,.75-.75v-2c0-1.517-1.233-2.75-2.75-2.75h-2c-.414,0-.75,.336-.75,.75s.336,.75,.75,.75h2c.689,0,1.25,.561,1.25,1.25Z" fill="#000" data-color="color-2"></path><path d="M8.25,13h-2c-.689,0-1.25-.561-1.25-1.25v-2c0-.414-.336-.75-.75-.75s-.75,.336-.75,.75v2c0,1.517,1.233,2.75,2.75,2.75h2c.414,0,.75-.336,.75-.75s-.336-.75-.75-.75Z" fill="#000" data-color="color-2"></path></svg>