<svg xmlns="http://www.w3.org/2000/svg" xmlns:xlink="http://www.w3.org/1999/xlink" x="0px" y="0px" width="18px" height="18px" viewBox="0 0 18 18"><path d="M9,15.5c-3.584,0-6.5-2.916-6.5-6.5,0-.414-.336-.75-.75-.75s-.75,.336-.75,.75c0,4.411,3.589,8,8,8,.414,0,.75-.336,.75-.75s-.336-.75-.75-.75Z" fill="#000" data-color="color-2"></path><path d="M9,1c-.414,0-.75,.336-.75,.75s.336,.75,.75,.75c3.584,0,6.5,2.916,6.5,6.5,0,.414,.336,.75,.75,.75s.75-.336,.75-.75c0-4.411-3.589-8-8-8Z" fill="#000" data-color="color-2"></path><circle cx="9" cy="9" r="5" fill="#000"></circle></svg>