<svg xmlns="http://www.w3.org/2000/svg" xmlns:xlink="http://www.w3.org/1999/xlink" x="0px" y="0px" width="18px" height="18px" viewBox="0 0 18 18"><path d="M15.86,5.542L10.055,1.341c-.631-.456-1.479-.457-2.109,0L2.14,5.542c-.466,.337-.745,.882-.745,1.458s.279,1.121,.745,1.458l5.805,4.201c.315,.228,.685,.342,1.055,.342s.739-.114,1.055-.343l5.805-4.2c.466-.337,.745-.882,.745-1.458s-.279-1.121-.745-1.458Z" fill="#000"></path><path d="M15.414,9.861c-.372,.184-.523,.634-.34,1.005,.056,.113,.042,.279-.093,.377l-5.805,4.2c-.13,.095-.222,.094-.352,0L3.02,11.243c-.135-.098-.149-.264-.093-.377,.184-.371,.032-.821-.34-1.005-.371-.182-.82-.032-1.005,.34-.391,.79-.156,1.74,.559,2.257l5.805,4.201c.309,.223,.673,.341,1.055,.341s.746-.118,1.055-.342l5.806-4.2c.714-.518,.949-1.467,.558-2.257-.184-.372-.634-.522-1.005-.34Z" fill="#000" data-color="color-2"></path></svg>