<svg xmlns="http://www.w3.org/2000/svg" xmlns:xlink="http://www.w3.org/1999/xlink" x="0px" y="0px" width="18px" height="18px" viewBox="0 0 18 18"><path d="M9,1C4.589,1,1,4.589,1,9s3.589,8,8,8c.108,0,.323-.015,.323-.015,.077-.005,.15-.023,.223-.052,1.679-.671,3.178-1.658,4.453-2.934,1.26-1.26,2.274-2.8,2.934-4.454,.028-.071,.046-.144,.052-.22,0,0,.016-.215,.016-.325,0-4.411-3.589-8-8-8Zm3.938,11.938c-.946,.947-2.039,1.702-3.24,2.276-.118-.401-.199-.806-.199-1.215,0-2.481,2.019-4.5,4.5-4.5,.408,0,.812,.081,1.213,.198-.573,1.194-1.341,2.306-2.275,3.24Z" fill="#000"></path></svg>