<svg xmlns="http://www.w3.org/2000/svg" xmlns:xlink="http://www.w3.org/1999/xlink" x="0px" y="0px" width="18px" height="18px" viewBox="0 0 18 18"><path d="M17.25,2.5h-1.75V.75c0-.414-.336-.75-.75-.75s-.75,.336-.75,.75v1.75h-1.75c-.414,0-.75,.336-.75,.75s.336,.75,.75,.75h1.75v1.75c0,.414,.336,.75,.75,.75s.75-.336,.75-.75v-1.75h1.75c.414,0,.75-.336,.75-.75s-.336-.75-.75-.75Z" fill="#000" data-color="color-2"></path><path d="M2.25,6c.414,0,.75-.336,.75-.75,0-.689,.561-1.25,1.25-1.25,.414,0,.75-.336,.75-.75s-.336-.75-.75-.75c-1.517,0-2.75,1.233-2.75,2.75,0,.414,.336,.75,.75,.75Z" fill="#000"></path><path d="M12.75,15c-.414,0-.75,.336-.75,.75s.336,.75,.75,.75c1.517,0,2.75-1.233,2.75-2.75,0-.414-.336-.75-.75-.75s-.75,.336-.75,.75c0,.689-.561,1.25-1.25,1.25Z" fill="#000"></path><path d="M4.25,16.5c.414,0,.75-.336,.75-.75s-.336-.75-.75-.75c-.689,0-1.25-.561-1.25-1.25,0-.414-.336-.75-.75-.75s-.75,.336-.75,.75c0,1.517,1.233,2.75,2.75,2.75Z" fill="#000"></path><path d="M7.25,4h2c.414,0,.75-.336,.75-.75s-.336-.75-.75-.75h-2c-.414,0-.75,.336-.75,.75s.336,.75,.75,.75Z" fill="#000"></path><path d="M7.25,16.5h2.5c.414,0,.75-.336,.75-.75s-.336-.75-.75-.75h-2.5c-.414,0-.75,.336-.75,.75s.336,.75,.75,.75Z" fill="#000"></path><path d="M14.75,11.5c.414,0,.75-.336,.75-.75v-2c0-.414-.336-.75-.75-.75s-.75,.336-.75,.75v2c0,.414,.336,.75,.75,.75Z" fill="#000"></path><path d="M2.25,11.5c.414,0,.75-.336,.75-.75v-2.5c0-.414-.336-.75-.75-.75s-.75,.336-.75,.75v2.5c0,.414,.336,.75,.75,.75Z" fill="#000"></path></svg>