<svg xmlns="http://www.w3.org/2000/svg" xmlns:xlink="http://www.w3.org/1999/xlink" x="0px" y="0px" width="18px" height="18px" viewBox="0 0 18 18"><path d="M7.657,7.006l-1.262-.424-.421-1.272c-.137-.411-.812-.411-.949,0l-.421,1.272-1.262,.424c-.204,.068-.342,.261-.342,.477s.138,.409,.342,.477l1.262,.424,.421,1.272c.068,.205,.26,.344,.475,.344s.406-.139,.475-.344l.421-1.272,1.262-.424c.204-.068,.342-.261,.342-.477s-.138-.409-.342-.477h0Z" fill="#000" data-color="color-2"></path><path d="M9.417,8.01c-.173,.633-.638,1.156-1.281,1.372l-.552,.185-.186,.56c-.276,.824-1.039,1.373-1.898,1.373s-1.627-.552-1.898-1.373l-.186-.56-.552-.185s-.001,0-.002,0c-1.17,.692-1.863,1.599-1.863,2.619,0,2.28,3.439,4,8,4s8-1.72,8-4c0-2.21-3.233-3.888-7.583-3.99Zm.583,4.99c-.552,0-1-.448-1-1s.448-1,1-1,1,.448,1,1-.448,1-1,1Z" fill="#000"></path><path d="M14.589,3.406l-1.515-.51-.505-1.526c-.164-.493-.975-.493-1.139,0l-.505,1.526-1.515,.51c-.245,.082-.41,.313-.41,.573s.165,.491,.41,.573l1.515,.51,.505,1.526c.082,.247,.312,.413,.57,.413s.487-.166,.57-.413l.505-1.526,1.515-.51c.245-.082,.41-.313,.41-.573s-.165-.49-.41-.573h0Z" fill="#000" data-color="color-2"></path></svg>