<svg xmlns="http://www.w3.org/2000/svg" xmlns:xlink="http://www.w3.org/1999/xlink" x="0px" y="0px" width="18px" height="18px" viewBox="0 0 18 18"><path d="M2.75,17c-.414,0-.75-.336-.75-.75V1.75c0-.414,.336-.75,.75-.75s.75,.336,.75,.75v14.5c0,.414-.336,.75-.75,.75Z" fill="#000" data-color="color-2"></path><path d="M15.25,17c-.414,0-.75-.336-.75-.75V1.75c0-.414,.336-.75,.75-.75s.75,.336,.75,.75v14.5c0,.414-.336,.75-.75,.75Z" fill="#000" data-color="color-2"></path><rect x="6" y="3" width="6" height="12" rx="1.75" ry="1.75" fill="#000"></rect></svg>