<svg xmlns="http://www.w3.org/2000/svg" xmlns:xlink="http://www.w3.org/1999/xlink" x="0px" y="0px" width="20px" height="20px" viewBox="0 0 20 20"><path d="m8.666,12h2.667c.368,0,.667.299.667.667h0c0,1.104-.896,2-2,2h0c-1.104,0-2-.896-2-2h0c0-.368.299-.667.667-.667h0Z" fill="#000" stroke-width="0" data-color="color-2"></path><circle cx="10" cy="10" r="7" fill="none" stroke="#000" stroke-linecap="round" stroke-linejoin="round" stroke-width="2"></circle><path d="m12,7c-.456.607-1.182,1-2,1-1.381,0-2.5-1.119-2.5-2.5s1.119-2.5,2.5-2.5" fill="none" stroke="#000" stroke-linecap="round" stroke-linejoin="round" stroke-width="2"></path><circle cx="7" cy="10.5" r="1" fill="#000" stroke-width="0" data-color="color-2"></circle><circle cx="13" cy="10.5" r="1" fill="#000" stroke-width="0" data-color="color-2"></circle></svg>