<svg xmlns="http://www.w3.org/2000/svg" xmlns:xlink="http://www.w3.org/1999/xlink" x="0px" y="0px" width="20px" height="20px" viewBox="0 0 20 20"><path d="m17.7812,10.8755l-1.8022-2.2528c-.1055-1.9736-1.0209-3.8015-2.5669-5.0577-1.6445-1.3364-3.7979-1.8481-5.9111-1.4082-2.6719.5581-4.8252,2.7339-5.3584,5.4141-.6445,3.2358.96,6.3833,3.8574,7.749v1.6802c0,.5522.4473,1,1,1h4c.5527,0,1-.4478,1-1v-1h1c1.6543,0,3-1.3457,3-3v-.2192l1.2422-.3105c.3311-.0825.5967-.3276.7051-.6504.1094-.3228.0459-.6787-.166-.9443Zm-4.5312-1.3755c-.6904,0-1.25-.5596-1.25-1.25s.5596-1.25,1.25-1.25,1.25.5596,1.25,1.25-.5596,1.25-1.25,1.25Z" stroke-width="0" fill="#000"></path></svg>