<svg xmlns="http://www.w3.org/2000/svg" xmlns:xlink="http://www.w3.org/1999/xlink" x="0px" y="0px" width="20px" height="20px" viewBox="0 0 20 20"><path d="m16.316,4.051l-6-2c-.205-.068-.428-.068-.633,0l-6,2c-.408.136-.684.518-.684.949v7c0,4.792,6.557,5.94,6.836,5.986.054.009.109.014.164.014s.11-.004.164-.014c.279-.046,6.836-1.194,6.836-5.986v-7c0-.431-.275-.812-.684-.949Zm-6.316,1.949c1.379,0,2.5,1.122,2.5,2.5s-1.121,2.5-2.5,2.5-2.5-1.122-2.5-2.5,1.121-2.5,2.5-2.5Zm0,9.981c-.577-.121-2.522-.598-3.809-1.684.923-1.113,2.29-1.798,3.809-1.798s2.886.685,3.809,1.798c-1.287,1.085-3.232,1.562-3.809,1.684Z" stroke-width="0" fill="#000"></path></svg>