<svg xmlns="http://www.w3.org/2000/svg" xmlns:xlink="http://www.w3.org/1999/xlink" x="0px" y="0px" width="20px" height="20px" viewBox="0 0 20 20"><circle cx="13" cy="3.5" r="2" fill="#000" stroke-width="0" data-color="color-2"></circle><path d="m10.661,12.269c-.184,0-.37-.029-.554-.09-.917-.306-1.413-1.296-1.107-2.213l.911-2.734c.306-.917,1.299-1.412,2.213-1.107.917.306,1.413,1.296,1.107,2.213l-.911,2.734c-.244.733-.927,1.197-1.66,1.197Z" stroke-width="0" fill="#000"></path><polyline points="11.538 7.032 8.5 7.25 7 9.25" fill="none" stroke="#000" stroke-linecap="round" stroke-linejoin="round" stroke-width="2"></polyline><path d="m4.73,11.207c-.457.65-.73,1.438-.73,2.293,0,2.209,1.791,4,4,4,1.707,0,3.154-1.074,3.728-2.579" fill="none" stroke="#000" stroke-linecap="round" stroke-linejoin="round" stroke-width="2" data-color="color-2"></path><polyline points="10.5 11.25 14 12.25 15.25 16" fill="none" stroke="#000" stroke-linecap="round" stroke-linejoin="round" stroke-width="2"></polyline></svg>