<svg xmlns="http://www.w3.org/2000/svg" xmlns:xlink="http://www.w3.org/1999/xlink" x="0px" y="0px" width="20px" height="20px" viewBox="0 0 20 20"><circle cx="10" cy="3" r="1" fill="#000" stroke-width="0" data-color="color-2"></circle><circle cx="13.5" cy="3.938" r="1" fill="#000" stroke-width="0" data-color="color-2"></circle><circle cx="16.062" cy="6.5" r="1" fill="#000" stroke-width="0" data-color="color-2"></circle><circle cx="17" cy="10" r="1" fill="#000" stroke-width="0" data-color="color-2"></circle><circle cx="16.062" cy="13.5" r="1" fill="#000" stroke-width="0" data-color="color-2"></circle><circle cx="13.5" cy="16.062" r="1" stroke-width="0" fill="#000"></circle><circle cx="10" cy="17" r="1" stroke-width="0" fill="#000"></circle><circle cx="6.5" cy="16.062" r="1" stroke-width="0" fill="#000"></circle><circle cx="3.938" cy="13.5" r="1" fill="#000" stroke-width="0" data-color="color-2"></circle><circle cx="3" cy="10" r="1" fill="#000" stroke-width="0" data-color="color-2"></circle><circle cx="3.938" cy="6.5" r="1" fill="#000" stroke-width="0" data-color="color-2"></circle><circle cx="6.5" cy="3.938" r="1" fill="#000" stroke-width="0" data-color="color-2"></circle><path d="m10,17c1.409,0,2.718-.42,3.816-1.136-.492-1.652-2.005-2.864-3.816-2.864s-3.324,1.212-3.816,2.864c1.098.716,2.407,1.136,3.816,1.136Z" stroke="#000" stroke-linecap="round" stroke-linejoin="round" stroke-width="2" fill="#000"></path><circle cx="10" cy="8.5" r="1.5" stroke="#000" stroke-linecap="round" stroke-linejoin="round" stroke-width="2" fill="#000"></circle></svg>