<svg xmlns="http://www.w3.org/2000/svg" xmlns:xlink="http://www.w3.org/1999/xlink" x="0px" y="0px" width="20px" height="20px" viewBox="0 0 20 20"><path d="m11.3536,6.1464l-1,1c-.1953.1953-.5118.1953-.7071,0l-1-1c-.0938-.0938-.1464-.2209-.1464-.3536v-1.7929c0-.5523.4477-1,1-1h1c.5523,0,1,.4477,1,1v1.7929c0,.1326-.0527.2598-.1464.3536Z" stroke="#000" stroke-linecap="round" stroke-linejoin="round" stroke-width="2" fill="#000"></path><path d="m13.8536,11.3536l-1-1c-.1953-.1953-.1953-.5118,0-.7071l1-1c.0938-.0938.2209-.1464.3536-.1464h1.7929c.5523,0,1,.4477,1,1v1c0,.5523-.4477,1-1,1h-1.7929c-.1326,0-.2598-.0527-.3536-.1464Z" fill="#000" stroke="#000" stroke-linecap="round" stroke-linejoin="round" stroke-width="2" data-color="color-2"></path><path d="m8.6464,13.8536l1-1c.1953-.1953.5118-.1953.7071,0l1,1c.0938.0938.1464.2209.1464.3536v1.7929c0,.5523-.4477,1-1,1h-1c-.5523,0-1-.4477-1-1v-1.7929c0-.1326.0527-.2598.1464-.3536Z" stroke="#000" stroke-linecap="round" stroke-linejoin="round" stroke-width="2" fill="#000"></path><path d="m6.1464,8.6464l1,1c.1953.1953.1953.5118,0,.7071l-1,1c-.0938.0938-.2209.1464-.3536.1464h-1.7929c-.5523,0-1-.4477-1-1v-1c0-.5523.4477-1,1-1h1.7929c.1326,0,.2598.0527.3536.1464Z" fill="#000" stroke="#000" stroke-linecap="round" stroke-linejoin="round" stroke-width="2" data-color="color-2"></path></svg>