<svg xmlns="http://www.w3.org/2000/svg" xmlns:xlink="http://www.w3.org/1999/xlink" x="0px" y="0px" width="18px" height="18px" viewBox="0 0 18 18"><path d="M5.75 2.75V0.75" stroke="black" stroke-width="1.5" stroke-linecap="round" stroke-linejoin="round" fill="none"></path> <path d="M12.25 2.75V0.75" stroke="black" stroke-width="1.5" stroke-linecap="round" stroke-linejoin="round" fill="none"></path> <path d="M2.25 6.25H15.75" stroke="black" stroke-width="1.5" stroke-linecap="round" stroke-linejoin="round" fill="none"></path> <path d="M9 12.5V9.75" stroke="#000" stroke-width="1.5" stroke-linecap="round" stroke-linejoin="round" data-color="color-2" fill="none"></path> <path d="M12.2247 15.25H13.75C14.855 15.25 15.75 14.355 15.75 13.25V4.75C15.75 3.645 14.855 2.75 13.75 2.75H4.25C3.145 2.75 2.25 3.645 2.25 4.75V13.25C2.25 14.355 3.145 15.25 4.25 15.25H5.7753" stroke="black" stroke-width="1.5" stroke-linecap="round" stroke-linejoin="round" fill="none"></path> <path d="M9 16.5C9.552 16.5 10 16.052 10 15.5C10 14.948 9.552 14.5 9 14.5C8.448 14.5 8 14.948 8 15.5C8 16.052 8.448 16.5 9 16.5Z" fill="#000" data-color="color-2" data-stroke="none"></path></svg>