<svg xmlns="http://www.w3.org/2000/svg" xmlns:xlink="http://www.w3.org/1999/xlink" x="0px" y="0px" width="32px" height="32px" viewBox="0 0 32 32"> <path d="M31.4999 1.00008L25.5 7" stroke="#000" stroke-width="2" data-color="color-2" data-cap="butt" fill="none"></path> <path d="M31.5001 0.999956L31.5001 4L29.0001 3.49996L28.5001 0.999956L31.5001 0.999956Z" stroke="#000" stroke-width="2" stroke-linecap="square" data-color="color-2" fill="none"></path> <path d="M16 29C18.9943 27.6471 29.5 20.1491 29.5 13.2761C29.5 9.25788 26.2438 6 22.2316 6C19.5856 6 17.6092 7.66141 16 9.52577C14.3935 7.65871 12.4144 6 9.7684 6C5.7535 6 2.5 9.25788 2.5 13.2761C2.5 20.1491 13.0057 27.6471 16 29Z" stroke="black" stroke-width="2" stroke-miterlimit="10" stroke-linecap="square" fill="none"></path> <path d="M5.5 27L16.5 16" stroke="#000" stroke-width="2" data-color="color-2" data-cap="butt" fill="none"></path> <path d="M1.50003 27H5.50009V31" stroke="#000" stroke-width="2" stroke-linecap="square" data-color="color-2" fill="none"></path> <path d="M17.3292 19C17.7014 17.9447 17.4654 16.7228 16.6214 15.8787C15.7773 15.0346 14.5554 14.7987 13.5 15.1708" stroke="black" stroke-width="2" stroke-linecap="square" fill="none"></path> </svg>