<svg xmlns="http://www.w3.org/2000/svg" xmlns:xlink="http://www.w3.org/1999/xlink" x="0px" y="0px" width="48px" height="48px" viewBox="0 0 48 48"> <path d="M27 40.8833L24 43.0234L17.2921 38.2381C14.9221 36.5562 6.94507 30.4696 3.82957 22.7356C1.45957 16.8535 4.34107 10.1779 10.2646 7.82356C15.3286 5.81051 20.9896 7.61333 24.0001 11.864C27.0106 7.61333 32.6714 5.81051 37.7354 7.82356C42.5179 9.72435 45.3174 14.4419 44.9712 19.2846" stroke="black" stroke-width="2" stroke-miterlimit="10" stroke-linecap="square" fill="none"></path> <path d="M36 39C40.9706 39 45 34.9706 45 30C45 25.0294 40.9706 21 36 21C31.0294 21 27 25.0294 27 30C27 34.9706 31.0294 39 36 39Z" stroke="#000" stroke-width="2" stroke-miterlimit="10" stroke-linecap="square" data-color="color-2" fill="none"></path> <path d="M32 30H40" stroke="#000" stroke-width="2" stroke-miterlimit="10" stroke-linecap="square" data-color="color-2" fill="none"></path> </svg>