<svg xmlns="http://www.w3.org/2000/svg" xmlns:xlink="http://www.w3.org/1999/xlink" x="0px" y="0px" width="48px" height="48px" viewBox="0 0 48 48"> <path d="M34.6988 14.0464C30.0938 14.6963 27.6526 12.3052 27 11H26C22.1548 16.7677 15.2294 14.8348 13.2185 13.196" stroke="#000" stroke-width="2" data-color="color-2" data-cap="butt" fill="none"></path> <path d="M3 45V44.1463C3 41.0846 4.98975 38.3782 7.91207 37.465L14.7896 35.3157C17.2945 34.533 19 32.2132 19 29.5889V28.5214C16.4306 26.9464 14.3604 24.2438 14.0061 21.055L13.3252 14.9266C12.6183 8.56429 17.5985 3 24 3C30.4015 3 35.3817 8.56429 34.6748 14.9266L33.9939 21.055C33.6396 24.2438 31.5694 26.9464 29 28.5214V29.5889C29 32.2132 30.7055 34.533 33.2104 35.3157L40.0879 37.465C43.0103 38.3782 45 41.0846 45 44.1463V45" stroke="black" stroke-width="2" stroke-linecap="square" fill="none"></path> <path d="M29 39H28.6429L24 41.1429L19.3571 39H19V44H19.3571L24 41.1429L28.6429 44H29V39Z" fill="black" data-cap="butt" data-stroke="none"></path> <path d="M24 41.1429L19.3571 39H19V44H19.3571L24 41.1429ZM24 41.1429L28.6429 39H29V44H28.6429L24 41.1429Z" stroke="black" stroke-width="2" stroke-miterlimit="10" data-cap="butt" fill="none"></path> </svg>