<svg xmlns="http://www.w3.org/2000/svg" xmlns:xlink="http://www.w3.org/1999/xlink" x="0px" y="0px" width="12px" height="12px" viewBox="0 0 12 12"><path d="m10,5.25h-3.567l-1.784-3.089c-.206-.358-.665-.483-1.024-.274-.358.207-.481.666-.274,1.024l1.784,3.089-1.784,3.089c-.207.359-.084.817.274,1.024.118.068.247.101.374.101.26,0,.512-.134.65-.375l1.784-3.089h3.567c.414,0,.75-.336.75-.75s-.336-.75-.75-.75Z" fill="#000" stroke-width="0" data-color="color-2"></path><path d="m11.25,6.75c.414,0,.75-.336.75-.75s-.336-.75-.75-.75h-.576c-.052-.325-.134-.639-.249-.939l.497-.287c.358-.207.481-.666.274-1.024-.206-.358-.664-.483-1.024-.274l-.506.292c-.205-.251-.432-.479-.684-.684l.292-.506c.207-.359.084-.817-.274-1.024-.36-.208-.818-.083-1.024.274l-.287.497c-.3-.115-.614-.197-.939-.249v-.576c0-.414-.336-.75-.75-.75s-.75.336-.75.75v.576c-.325.052-.639.134-.939.249l-.287-.497c-.207-.358-.665-.483-1.024-.274-.358.207-.481.666-.274,1.024l.292.506c-.251.205-.479.432-.684.684l-.506-.292c-.36-.208-.818-.083-1.024.274-.207.359-.084.817.274,1.024l.497.287c-.115.3-.197.614-.249.939h-.576c-.414,0-.75.336-.75.75s.336.75.75.75h.576c.052.325.134.639.249.939l-.497.287c-.358.207-.481.666-.274,1.024.139.241.391.375.65.375.127,0,.256-.032.374-.101l.506-.292c.205.251.432.479.684.684l-.292.506c-.207.359-.084.817.274,1.024.118.068.247.101.374.101.26,0,.512-.134.65-.375l.287-.497c.3.115.614.197.939.249v.576c0,.414.336.75.75.75s.75-.336.75-.75v-.576c.325-.052.639-.134.939-.249l.287.497c.139.241.391.375.65.375.127,0,.256-.032.374-.101.358-.207.481-.666.274-1.024l-.292-.506c.251-.205.479-.432.684-.684l.506.292c.118.068.247.101.374.101.26,0,.512-.134.65-.375.207-.359.084-.817-.274-1.024l-.497-.287c.115-.3.197-.614.249-.939h.576Zm-5.25,2.5c-1.792,0-3.25-1.458-3.25-3.25s1.458-3.25,3.25-3.25,3.25,1.458,3.25,3.25-1.458,3.25-3.25,3.25Z" stroke-width="0" fill="#000"></path></svg>