<svg xmlns="http://www.w3.org/2000/svg" xmlns:xlink="http://www.w3.org/1999/xlink" x="0px" y="0px" width="12px" height="12px" viewBox="0 0 12 12"><path d="m1.339,7.25c-.249,0-.492-.123-.635-.349-.461-.728-.704-1.558-.704-2.401C0,2.019,2.019,0,4.5,0c.844,0,1.675.244,2.401.705.35.222.454.685.232,1.035-.222.35-.686.455-1.035.232-.486-.308-1.039-.471-1.599-.471-1.654,0-3,1.346-3,3,0,.559.163,1.111.472,1.598.222.35.117.813-.232,1.035-.124.079-.264.116-.4.116Z" fill="#000" stroke-width="0" data-color="color-2"></path><circle cx="7.5" cy="7.5" r="4.5" stroke-width="0" fill="#000"></circle></svg>