<svg xmlns="http://www.w3.org/2000/svg" xmlns:xlink="http://www.w3.org/1999/xlink" x="0px" y="0px" width="12px" height="12px" viewBox="0 0 12 12"><path d="m2.75,1.75h1.75v8.5h-1.75c-1.104,0-2-.896-2-2V3.75c0-1.104.896-2,2-2Z" fill="#000" stroke-width="0" data-color="color-2"></path><path d="m9.25,11H2.75c-1.517,0-2.75-1.233-2.75-2.75V3.75C0,2.233,1.233,1,2.75,1h6.5c1.517,0,2.75,1.233,2.75,2.75v4.5c0,1.517-1.233,2.75-2.75,2.75ZM2.75,2.5c-.689,0-1.25.561-1.25,1.25v4.5c0,.689.561,1.25,1.25,1.25h6.5c.689,0,1.25-.561,1.25-1.25V3.75c0-.689-.561-1.25-1.25-1.25H2.75Z" stroke-width="0" fill="#000"></path></svg>