<svg xmlns="http://www.w3.org/2000/svg" xmlns:xlink="http://www.w3.org/1999/xlink" x="0px" y="0px" width="12px" height="12px" viewBox="0 0 12 12"><path d="m6,12c-.414,0-.75-.336-.75-.75s.336-.75.75-.75c2.481,0,4.5-2.019,4.5-4.5S8.481,1.5,6,1.5c-.414,0-.75-.336-.75-.75s.336-.75.75-.75c3.309,0,6,2.691,6,6s-2.691,6-6,6Z" stroke-width="0" fill="#000"></path><path d="m5.25,8.75c-.198,0-.389-.078-.53-.219l-1.503-1.5c-.293-.292-.294-.767,0-1.061.292-.294.767-.294,1.061,0l.892.89,2.485-3.31c.248-.331.72-.399,1.05-.149.332.249.398.719.149,1.05l-3.003,4c-.13.174-.33.282-.546.298-.018.001-.036.002-.053.002Z" fill="#000" stroke-width="0" data-color="color-2"></path><path d="m3.75,2.103c.359-.207.482-.666.275-1.024-.207-.359-.666-.482-1.025-.275s-.482.666-.275,1.025c.207.359.666.482,1.025.274Z" fill="#000" stroke-width="0" data-color="color-2"></path><path d="m1.828,2.725c-.359-.207-.817-.084-1.025.275-.207.359-.084.817.275,1.024.359.207.817.084,1.025-.274.207-.359.084-.817-.275-1.025Z" fill="#000" stroke-width="0" data-color="color-2"></path><circle cx=".75" cy="6" r=".75" fill="#000" stroke-width="0" data-color="color-2"></circle><path d="m1.078,7.975c-.359.207-.482.666-.275,1.025.207.359.666.482,1.025.274.359-.207.482-.666.275-1.024-.207-.359-.666-.482-1.025-.275Z" fill="#000" stroke-width="0" data-color="color-2"></path><path d="m3.75,9.897c-.359-.207-.817-.084-1.025.275-.207.359-.084.817.275,1.025.359.207.817.084,1.025-.275.207-.359.084-.817-.275-1.025Z" fill="#000" stroke-width="0" data-color="color-2"></path></svg>