<svg xmlns="http://www.w3.org/2000/svg" xmlns:xlink="http://www.w3.org/1999/xlink" x="0px" y="0px" width="12px" height="12px" viewBox="0 0 12 12"><rect x="3" y="1" width="6" height="10" rx="1.75" ry="1.75" stroke-width="0" fill="#000"></rect><path d="m11.25,11c-.414,0-.75-.336-.75-.75V1.75c0-.414.336-.75.75-.75s.75.336.75.75v8.5c0,.414-.336.75-.75.75Z" fill="#000" stroke-width="0" data-color="color-2"></path><path d="m.75,11c-.414,0-.75-.336-.75-.75V1.75c0-.414.336-.75.75-.75s.75.336.75.75v8.5c0,.414-.336.75-.75.75Z" fill="#000" stroke-width="0" data-color="color-2"></path></svg>