<svg xmlns="http://www.w3.org/2000/svg" xmlns:xlink="http://www.w3.org/1999/xlink" x="0px" y="0px" width="18px" height="18px" viewBox="0 0 18 18"><rect x="2" y="1" width="14" height="7" rx="2.75" ry="2.75" fill="#000"></rect><path d="M2.75,13c.414,0,.75-.336,.75-.75s.336-.75,.75-.75h.75c.414,0,.75-.336,.75-.75s-.336-.75-.75-.75h-.75c-1.241,0-2.25,1.009-2.25,2.25,0,.414,.336,.75,.75,.75Z" fill="#000" data-color="color-2"></path><path d="M7.75,11.5h2.5c.414,0,.75-.336,.75-.75s-.336-.75-.75-.75h-2.5c-.414,0-.75,.336-.75,.75s.336,.75,.75,.75Z" fill="#000" data-color="color-2"></path><path d="M13.75,10h-.75c-.414,0-.75,.336-.75,.75s.336,.75,.75,.75h.75c.414,0,.75,.336,.75,.75s.336,.75,.75,.75,.75-.336,.75-.75c0-1.241-1.009-2.25-2.25-2.25Z" fill="#000" data-color="color-2"></path><path d="M4.25,17h.75c.414,0,.75-.336,.75-.75s-.336-.75-.75-.75h-.75c-.414,0-.75-.336-.75-.75s-.336-.75-.75-.75-.75,.336-.75,.75c0,1.241,1.009,2.25,2.25,2.25Z" fill="#000" data-color="color-2"></path><path d="M7.75,17h2.5c.414,0,.75-.336,.75-.75s-.336-.75-.75-.75h-2.5c-.414,0-.75,.336-.75,.75s.336,.75,.75,.75Z" fill="#000" data-color="color-2"></path><path d="M15.25,14c-.414,0-.75,.336-.75,.75s-.336,.75-.75,.75h-.75c-.414,0-.75,.336-.75,.75s.336,.75,.75,.75h.75c1.241,0,2.25-1.009,2.25-2.25,0-.414-.336-.75-.75-.75Z" fill="#000" data-color="color-2"></path></svg>