<svg xmlns="http://www.w3.org/2000/svg" xmlns:xlink="http://www.w3.org/1999/xlink" x="0px" y="0px" width="18px" height="18px" viewBox="0 0 18 18"><path d="M15.75,9.75H2.25c-.414,0-.75-.336-.75-.75s.336-.75,.75-.75H15.75c.414,0,.75,.336,.75,.75s-.336,.75-.75,.75Z" fill="#000" data-color="color-2"></path><path d="M15.75,4.5h-6c-.414,0-.75-.336-.75-.75s.336-.75,.75-.75h6c.414,0,.75,.336,.75,.75s-.336,.75-.75,.75Z" fill="#000"></path><path d="M8.25,15H2.25c-.414,0-.75-.336-.75-.75s.336-.75,.75-.75h6c.414,0,.75,.336,.75,.75s-.336,.75-.75,.75Z" fill="#000"></path></svg>