<svg xmlns="http://www.w3.org/2000/svg" xmlns:xlink="http://www.w3.org/1999/xlink" x="0px" y="0px" width="18px" height="18px" viewBox="0 0 18 18"><path d="M4.75,15.25h4.25v-4.5c0-.965-.785-1.75-1.75-1.75H2.75v4.25c0,1.105,.896,2,2,2Z" fill="#000" data-color="color-2"></path><path d="M13.25,16H4.75c-1.517,0-2.75-1.233-2.75-2.75V4.75c0-1.517,1.233-2.75,2.75-2.75H13.25c1.517,0,2.75,1.233,2.75,2.75V13.25c0,1.517-1.233,2.75-2.75,2.75ZM4.75,3.5c-.689,0-1.25,.561-1.25,1.25V13.25c0,.689,.561,1.25,1.25,1.25H13.25c.689,0,1.25-.561,1.25-1.25V4.75c0-.689-.561-1.25-1.25-1.25H4.75Z" fill="#000"></path></svg>