<svg xmlns="http://www.w3.org/2000/svg" xmlns:xlink="http://www.w3.org/1999/xlink" x="0px" y="0px" width="18px" height="18px" viewBox="0 0 18 18"><path d="M15.162,2.042l-2.877,3.74-1.005-1.005c-.293-.293-.768-.293-1.061,0s-.293,.768,0,1.061l1.609,1.609c.141,.141,.332,.22,.53,.22,.016,0,.032,0,.049-.001,.215-.014,.414-.12,.545-.291l3.397-4.417c.253-.329,.191-.799-.137-1.052-.33-.253-.799-.191-1.052,.137Z" fill="#000" data-color="color-2"></path><rect x="2" y="10" width="6" height="6" rx="1.75" ry="1.75" fill="#000"></rect><rect x="10" y="10" width="6" height="6" rx="1.75" ry="1.75" fill="#000"></rect><rect x="2" y="2" width="6" height="6" rx="1.75" ry="1.75" fill="#000"></rect></svg>