<svg xmlns="http://www.w3.org/2000/svg" xmlns:xlink="http://www.w3.org/1999/xlink" x="0px" y="0px" width="18px" height="18px" viewBox="0 0 18 18"><rect x="7" y="2" width="4" height="3.5" fill="#000" data-color="color-2"></rect><rect x="2" y="7" width="3.5" height="4" fill="#000" data-color="color-2"></rect><rect x="12.5" y="7" width="3.5" height="4" fill="#000" data-color="color-2"></rect><rect x="7" y="12.5" width="4" height="3.5" fill="#000" data-color="color-2"></rect><rect x="7" y="7" width="4" height="4" fill="#000"></rect><path d="M5.5,12.5H2v.75c0,1.517,1.233,2.75,2.75,2.75h.75v-3.5Z" fill="#000"></path><path d="M12.5,5.5h3.5v-.75c0-1.517-1.233-2.75-2.75-2.75h-.75v3.5Z" fill="#000"></path><path d="M12.5,12.5v3.5h.75c1.517,0,2.75-1.233,2.75-2.75v-.75h-3.5Z" fill="#000"></path><path d="M5.5,5.5V2h-.75c-1.517,0-2.75,1.233-2.75,2.75v.75h3.5Z" fill="#000"></path></svg>