<svg xmlns="http://www.w3.org/2000/svg" xmlns:xlink="http://www.w3.org/1999/xlink" x="0px" y="0px" width="18px" height="18px" viewBox="0 0 18 18"><path d="m13.25,2H4.75c-1.517,0-2.75,1.233-2.75,2.75v8.5c0,1.517,1.233,2.75,2.75,2.75h8.5c1.517,0,2.75-1.233,2.75-2.75V4.75c0-1.517-1.233-2.75-2.75-2.75Zm-5.25,10.75c0,.414-.336.75-.75.75h-2c-.414,0-.75-.336-.75-.75v-2c0-.414.336-.75.75-.75h2c.414,0,.75.336.75.75v2Zm0-5.5c0,.414-.336.75-.75.75h-2c-.414,0-.75-.336-.75-.75v-2c0-.414.336-.75.75-.75h2c.414,0,.75.336.75.75v2Zm5.5,5.5c0,.414-.336.75-.75.75h-2c-.414,0-.75-.336-.75-.75v-2c0-.414.336-.75.75-.75h2c.414,0,.75.336.75.75v2Zm0-5.5c0,.414-.336.75-.75.75h-2c-.414,0-.75-.336-.75-.75v-2c0-.414.336-.75.75-.75h2c.414,0,.75.336.75.75v2Z" stroke-width="0" fill="#000"></path></svg>