<svg xmlns="http://www.w3.org/2000/svg" xmlns:xlink="http://www.w3.org/1999/xlink" x="0px" y="0px" width="18px" height="18px" viewBox="0 0 18 18"><path d="M16.25,8.25H5.75c-.414,0-.75,.336-.75,.75s.336,.75,.75,.75h10.5c.414,0,.75-.336,.75-.75s-.336-.75-.75-.75Z" fill="#000"></path><path d="M1.75,9.75h1c.414,0,.75-.336,.75-.75s-.336-.75-.75-.75H1.75c-.414,0-.75,.336-.75,.75s.336,.75,.75,.75Z" fill="#000" data-color="color-2"></path><path d="M16.25,3h-1c-.414,0-.75,.336-.75,.75s.336,.75,.75,.75h1c.414,0,.75-.336,.75-.75s-.336-.75-.75-.75Z" fill="#000" data-color="color-2"></path><path d="M1.75,4.5H12.25c.414,0,.75-.336,.75-.75s-.336-.75-.75-.75H1.75c-.414,0-.75,.336-.75,.75s.336,.75,.75,.75Z" fill="#000"></path><path d="M16.25,13.5h-1c-.414,0-.75,.336-.75,.75s.336,.75,.75,.75h1c.414,0,.75-.336,.75-.75s-.336-.75-.75-.75Z" fill="#000" data-color="color-2"></path><path d="M12.25,13.5H1.75c-.414,0-.75,.336-.75,.75s.336,.75,.75,.75H12.25c.414,0,.75-.336,.75-.75s-.336-.75-.75-.75Z" fill="#000"></path></svg>