<svg xmlns="http://www.w3.org/2000/svg" xmlns:xlink="http://www.w3.org/1999/xlink" x="0px" y="0px" width="18px" height="18px" viewBox="0 0 18 18"><path d="M6.108,10.5l-.356,5.703c-.013,.207,.06,.41,.202,.561,.142,.151,.339,.236,.546,.236h5c.207,0,.405-.085,.546-.236,.142-.151,.215-.354,.202-.561l-.356-5.703H6.108Z" fill="#000" data-color="color-2"></path><path d="M16.715,5.911l-4.75-3.75c-.132-.104-.296-.161-.465-.161H2.75c-.965,0-1.75,.785-1.75,1.75v3.5c0,.965,.785,1.75,1.75,1.75h13.5c.414,0,.75-.336,.75-.75v-1.75c0-.229-.105-.446-.285-.589Z" fill="#000"></path></svg>