<svg xmlns="http://www.w3.org/2000/svg" xmlns:xlink="http://www.w3.org/1999/xlink" x="0px" y="0px" width="18px" height="18px" viewBox="0 0 18 18"><rect x="5" y="5" width="8" height="8" rx="2.25" ry="2.25" fill="#000"></rect><path d="M14.75,1.5h-3c-.414,0-.75,.336-.75,.75s.336,.75,.75,.75h3c.138,0,.25,.112,.25,.25v3c0,.414,.336,.75,.75,.75s.75-.336,.75-.75V3.25c0-.965-.785-1.75-1.75-1.75Z" fill="#000" data-color="color-2"></path><path d="M6.25,15H3.25c-.138,0-.25-.112-.25-.25v-3c0-.414-.336-.75-.75-.75s-.75,.336-.75,.75v3c0,.965,.785,1.75,1.75,1.75h3c.414,0,.75-.336,.75-.75s-.336-.75-.75-.75Z" fill="#000" data-color="color-2"></path></svg>