<svg xmlns="http://www.w3.org/2000/svg" xmlns:xlink="http://www.w3.org/1999/xlink" x="0px" y="0px" width="18px" height="18px" viewBox="0 0 18 18"><path d="M3.5 12.8828V7.75C3.5 5.4067 5.4067 3.5 7.75 3.5H12.8829C12.554 2.3494 11.5048 1.5 10.25 1.5H4.25C2.7334 1.5 1.5 2.7334 1.5 4.25V10.25C1.5 11.5049 2.3494 12.5542 3.5 12.8828Z" fill="#000" data-color="color-2"></path> <path d="M7.75 16.5H13.75C15.2666 16.5 16.5 15.2666 16.5 13.75V7.75C16.5 6.2334 15.2666 5 13.75 5H7.75C6.2334 5 5 6.2334 5 7.75V13.75C5 15.2666 6.2334 16.5 7.75 16.5ZM8.5 10H10V8.5C10 8.0859 10.3359 7.75 10.75 7.75C11.1641 7.75 11.5 8.0859 11.5 8.5V10H13C13.4141 10 13.75 10.3359 13.75 10.75C13.75 11.1641 13.4141 11.5 13 11.5H11.5V13C11.5 13.4141 11.1641 13.75 10.75 13.75C10.3359 13.75 10 13.4141 10 13V11.5H8.5C8.0859 11.5 7.75 11.1641 7.75 10.75C7.75 10.3359 8.0859 10 8.5 10Z" fill="black"></path></svg>