<svg xmlns="http://www.w3.org/2000/svg" xmlns:xlink="http://www.w3.org/1999/xlink" x="0px" y="0px" width="18px" height="18px" viewBox="0 0 18 18"><path d="M8.5,12c0-2.481,2.019-4.5,4.5-4.5,1.752,0,3.257,1.017,4,2.482v-3.232c0-1.517-1.233-2.75-2.75-2.75H3.75c-1.517,0-2.75,1.233-2.75,2.75v4.5c0,1.517,1.233,2.75,2.75,2.75h5.24c-.303-.605-.49-1.278-.49-2Z" fill="#000"></path><path d="M16.78,14.72l-1.205-1.205c.263-.446,.425-.96,.425-1.514,0-1.654-1.346-3-3-3s-3,1.346-3,3,1.346,3,3,3c.555,0,1.068-.162,1.514-.425l1.205,1.205c.146,.146,.338,.22,.53,.22s.384-.073,.53-.22c.293-.293,.293-.768,0-1.061Zm-5.28-2.72c0-.827,.673-1.5,1.5-1.5s1.5,.673,1.5,1.5c0,.413-.168,.787-.438,1.058,0,0-.002,0-.002,.002s0,.002-.002,.002c-.271,.271-.645,.438-1.058,.438-.827,0-1.5-.673-1.5-1.5Z" fill="#000" data-color="color-2"></path></svg>