<svg xmlns="http://www.w3.org/2000/svg" xmlns:xlink="http://www.w3.org/1999/xlink" x="0px" y="0px" width="18px" height="18px" viewBox="0 0 18 18"><circle cx="5.875" cy="9" r=".75" fill="#000"></circle><circle cx="12.125" cy="9" r=".75" fill="#000"></circle><circle cx="9" cy="9" r=".75" fill="#000"></circle><path d="M2.75,2c-.414,0-.75,.336-.75,.75V15.25c0,.414,.336,.75,.75,.75s.75-.336,.75-.75V2.75c0-.414-.336-.75-.75-.75Z" fill="#000" data-color="color-2"></path><path d="M15.25,2c-.414,0-.75,.336-.75,.75V15.25c0,.414,.336,.75,.75,.75s.75-.336,.75-.75V2.75c0-.414-.336-.75-.75-.75Z" fill="#000" data-color="color-2"></path></svg>