<svg xmlns="http://www.w3.org/2000/svg" xmlns:xlink="http://www.w3.org/1999/xlink" x="0px" y="0px" width="18px" height="18px" viewBox="0 0 18 18"><path d="M15.25,8.25H2.75c-.414,0-.75,.336-.75,.75s.336,.75,.75,.75H15.25c.414,0,.75-.336,.75-.75s-.336-.75-.75-.75Z" fill="#000" data-color="color-2"></path><circle cx="15.25" cy="2.75" r=".75" fill="#000"></circle><circle cx="12.125" cy="2.75" r=".75" fill="#000"></circle><circle cx="9" cy="2.75" r=".75" fill="#000"></circle><circle cx="5.875" cy="2.75" r=".75" fill="#000"></circle><circle cx="2.75" cy="2.75" r=".75" fill="#000"></circle><circle cx="9" cy="5.875" r=".75" fill="#000"></circle><circle cx="9" cy="12.125" r=".75" fill="#000"></circle><circle cx="9" cy="15.25" r=".75" fill="#000"></circle><circle cx="2.75" cy="5.875" r=".75" fill="#000"></circle><circle cx="2.75" cy="12.125" r=".75" fill="#000"></circle><circle cx="2.75" cy="15.25" r=".75" fill="#000"></circle><circle cx="15.25" cy="5.875" r=".75" fill="#000"></circle><circle cx="15.25" cy="12.125" r=".75" fill="#000"></circle><circle cx="15.25" cy="15.25" r=".75" fill="#000"></circle><circle cx="12.125" cy="15.25" r=".75" fill="#000"></circle><circle cx="5.875" cy="15.25" r=".75" fill="#000"></circle></svg>