<svg xmlns="http://www.w3.org/2000/svg" xmlns:xlink="http://www.w3.org/1999/xlink" x="0px" y="0px" width="18px" height="18px" viewBox="0 0 18 18"><rect x="2" y="2" width="6" height="6" rx="1.75" ry="1.75" fill="#000"></rect><rect x="2" y="10" width="6" height="6" rx="1.75" ry="1.75" fill="#000"></rect><path d="M10.25,6h5c.414,0,.75-.336,.75-.75s-.336-.75-.75-.75h-5c-.414,0-.75,.336-.75,.75s.336,.75,.75,.75Z" fill="#000" data-color="color-2"></path><path d="M15.25,12h-5c-.414,0-.75,.336-.75,.75s.336,.75,.75,.75h5c.414,0,.75-.336,.75-.75s-.336-.75-.75-.75Z" fill="#000" data-color="color-2"></path></svg>