<svg xmlns="http://www.w3.org/2000/svg" xmlns:xlink="http://www.w3.org/1999/xlink" x="0px" y="0px" width="18px" height="18px" viewBox="0 0 18 18"><path d="M9,1C4.589,1,1,4.589,1,9s3.589,8,8,8,8-3.589,8-8S13.411,1,9,1Zm3.28,10.22c.293,.293,.293,.768,0,1.061-.146,.146-.338,.22-.53,.22s-.384-.073-.53-.22l-2.22-2.22-2.22,2.22c-.146,.146-.338,.22-.53,.22s-.384-.073-.53-.22c-.293-.293-.293-.768,0-1.061l2.22-2.22-2.22-2.22c-.293-.293-.293-.768,0-1.061s.768-.293,1.061,0l2.22,2.22,2.22-2.22c.293-.293,.768-.293,1.061,0s.293,.768,0,1.061l-2.22,2.22,2.22,2.22Z" fill="#000"></path></svg>