<svg xmlns="http://www.w3.org/2000/svg" xmlns:xlink="http://www.w3.org/1999/xlink" x="0px" y="0px" width="24px" height="24px" viewBox="0 0 24 24"> <path d="M12 2H12.4751C15.4332 2 17.7446 4.55409 17.4502 7.49752V7.49752C17.1946 10.0535 15.0438 12 12.4751 12H11.5249C8.56683 12 6.25541 14.5541 6.54975 17.4975V17.4975C6.80535 20.0535 8.95618 22 11.5249 22H12" stroke="#000" stroke-width="2" data-color="color-2" data-cap="butt" fill="none"></path> <path d="M2 12C2 17.5228 6.47715 22 12 22C17.5228 22 22 17.5228 22 12C22 6.47715 17.5228 2 12 2C6.47715 2 2 6.47715 2 12Z" stroke="black" stroke-width="2" stroke-linecap="square" fill="none"></path> <path d="M13.5 7C13.5 7.82843 12.8284 8.5 12 8.5C11.1716 8.5 10.5 7.82843 10.5 7C10.5 6.17157 11.1716 5.5 12 5.5C12.8284 5.5 13.5 6.17157 13.5 7Z" fill="black" data-cap="butt" data-stroke="none"></path> <path d="M13.5 17C13.5 17.8284 12.8284 18.5 12 18.5C11.1716 18.5 10.5 17.8284 10.5 17C10.5 16.1715 11.1716 15.5 12 15.5C12.8284 15.5 13.5 16.1715 13.5 17Z" fill="black" data-cap="butt" data-stroke="none"></path> </svg>