<svg xmlns="http://www.w3.org/2000/svg" xmlns:xlink="http://www.w3.org/1999/xlink" x="0px" y="0px" width="18px" height="18px" viewBox="0 0 18 18"><path d="M4.14529 2.6558L11.6453 1.8663C12.2357 1.8041 12.75 2.2671 12.75 2.8608V15.1392C12.75 15.7329 12.2358 16.1959 11.6453 16.1337L4.14529 15.3442C3.63639 15.2906 3.25 14.8615 3.25 14.3497V3.6503C3.25 3.1385 3.63639 2.7094 4.14529 2.6558Z" fill="#000" fill-opacity="0.3" data-color="color-2" data-stroke="none"></path> <path d="M8 7C8.828 7 9.5 6.3284 9.5 5.5C9.5 4.6716 8.828 4 8 4C7.172 4 6.5 4.6716 6.5 5.5C6.5 6.3284 7.172 7 8 7Z" fill="black" data-stroke="none"></path> <path d="M4.14529 2.6558L11.6453 1.8663C12.2357 1.8041 12.75 2.2671 12.75 2.8608V15.1392C12.75 15.7329 12.2358 16.1959 11.6453 16.1337L4.14529 15.3442C3.63639 15.2906 3.25 14.8615 3.25 14.3497V3.6503C3.25 3.1385 3.63639 2.7094 4.14529 2.6558Z" stroke="black" stroke-width="1.5" stroke-linecap="round" stroke-linejoin="round" fill="none"></path> <path d="M15.75 2.75V15.25" stroke="black" stroke-width="1.5" stroke-linecap="round" stroke-linejoin="round" fill="none"></path> <path d="M6 9.25H10" stroke="black" stroke-width="1.5" stroke-linecap="round" stroke-linejoin="round" fill="none"></path> <path d="M6 12.25L10 12.5" stroke="black" stroke-width="1.5" stroke-linecap="round" stroke-linejoin="round" fill="none"></path></svg>