<svg xmlns="http://www.w3.org/2000/svg" xmlns:xlink="http://www.w3.org/1999/xlink" x="0px" y="0px" width="18px" height="18px" viewBox="0 0 18 18"><path d="M7.55 8.122L13.086 2.586C13.729 1.943 14.771 1.943 15.414 2.586C16.057 3.229 16.057 4.271 15.414 4.914L9.862 10.466" fill="#000" fill-opacity="0.3" data-color="color-2" data-stroke="none"></path> <path d="M7.696 13.543C7.444 14.802 6.332 15.75 5 15.75C3.481 15.75 2.25 14.519 2.25 13C2.25 11.481 3.481 10.25 5 10.25C5.759 10.25 6.447 10.558 6.945 11.055" stroke="black" stroke-width="1.5" stroke-linecap="round" stroke-linejoin="round" fill="none"></path> <path d="M5 13L8.889 9.111" stroke="black" stroke-width="1.5" stroke-linecap="round" stroke-linejoin="round" fill="none"></path> <path d="M5 7.5C8.038 7.5 10.5 9.962 10.5 13" stroke="black" stroke-width="1.5" stroke-linecap="round" stroke-linejoin="round" fill="none"></path> <path d="M7.55 8.122L13.086 2.586C13.729 1.943 14.771 1.943 15.414 2.586C16.057 3.229 16.057 4.271 15.414 4.914L9.862 10.466" stroke="black" stroke-width="1.5" stroke-linecap="round" stroke-linejoin="round" fill="none"></path></svg>