<svg xmlns="http://www.w3.org/2000/svg" xmlns:xlink="http://www.w3.org/1999/xlink" x="0px" y="0px" width="18px" height="18px" viewBox="0 0 18 18"><path d="M12.25 9C13.7 9 14.875 7.489 14.875 5.625C14.875 3.761 13.7 2.25 12.25 2.25C10.8 2.25 9.625 3.761 9.625 5.625C9.625 7.489 10.8 9 12.25 9Z" fill="#000" fill-opacity="0.3" data-color="color-2" data-stroke="none"></path> <path d="M6.25 2.25C5.767 2.968 5.25101 3.871 4.81201 4.958C3.99501 6.987 3.784 8.824 3.75 10.105L6.25 12.25V2.25Z" fill="black" data-stroke="none"></path> <path d="M12.25 9V15.75" stroke="black" stroke-width="1.5" stroke-linecap="round" stroke-linejoin="round" fill="none"></path> <path d="M12.25 9C13.7 9 14.875 7.489 14.875 5.625C14.875 3.761 13.7 2.25 12.25 2.25C10.8 2.25 9.625 3.761 9.625 5.625C9.625 7.489 10.8 9 12.25 9Z" stroke="black" stroke-width="1.5" stroke-linecap="round" stroke-linejoin="round" fill="none"></path> <path d="M6.25 15.75V2.25C5.767 2.968 5.25101 3.871 4.81201 4.958C3.99501 6.987 3.784 8.824 3.75 10.105L6.25 12.25" stroke="black" stroke-width="1.5" stroke-linecap="round" stroke-linejoin="round" fill="none"></path></svg>