<svg xmlns="http://www.w3.org/2000/svg" xmlns:xlink="http://www.w3.org/1999/xlink" x="0px" y="0px" width="18px" height="18px" viewBox="0 0 18 18"><path d="M3.20001 10.977C3.20001 5.705 5.778 1.75 9 1.75C12.195 1.75 14.8 5.705 14.8 10.977C14.8 14.272 11.847 16.25 9 16.25C6.153 16.25 3.20001 14.273 3.20001 10.977Z" fill="#000" fill-opacity="0.3" data-color="color-2" data-stroke="none"></path> <path d="M3.20001 10.977C3.20001 5.705 5.778 1.75 9 1.75C12.195 1.75 14.8 5.705 14.8 10.977C14.8 14.272 11.847 16.25 9 16.25C6.153 16.25 3.20001 14.273 3.20001 10.977Z" stroke="black" stroke-width="1.5" stroke-linecap="round" stroke-linejoin="round" fill="none"></path> <path d="M6.23767 10C6.41477 7.72841 7.19216 6.05831 7.99976 5.26511" stroke="black" stroke-width="1.5" stroke-linecap="round" stroke-linejoin="round" fill="none"></path></svg>