<svg xmlns="http://www.w3.org/2000/svg" xmlns:xlink="http://www.w3.org/1999/xlink" x="0px" y="0px" width="18px" height="18px" viewBox="0 0 18 18"><path d="M6.75 5.75H11.25C12.354 5.75 13.25 6.646 13.25 7.75V11C13.25 13.346 11.346 15.25 9 15.25C6.654 15.25 4.75 13.346 4.75 11V7.75C4.75 6.646 5.646 5.75 6.75 5.75Z" fill="#000" fill-opacity="0.3" data-color="color-2" data-stroke="none"></path> <path d="M9 15.25V10.75" stroke="black" stroke-width="1.5" stroke-linecap="round" stroke-linejoin="round" fill="none"></path> <path d="M6.75 5.75V4.5C6.75 3.257 7.757 2.25 9 2.25C10.243 2.25 11.25 3.257 11.25 4.5V5.75" stroke="black" stroke-width="1.5" stroke-linecap="round" stroke-linejoin="round" fill="none"></path> <path d="M4.75 9.75H1.75" stroke="black" stroke-width="1.5" stroke-linecap="round" stroke-linejoin="round" fill="none"></path> <path d="M4.75 7.25C3.231 7.25 2 6.019 2 4.5" stroke="black" stroke-width="1.5" stroke-linecap="round" stroke-linejoin="round" fill="none"></path> <path d="M4.75 12.25C3.231 12.25 2 13.481 2 15" stroke="black" stroke-width="1.5" stroke-linecap="round" stroke-linejoin="round" fill="none"></path> <path d="M13.25 9.75H16.25" stroke="black" stroke-width="1.5" stroke-linecap="round" stroke-linejoin="round" fill="none"></path> <path d="M13.25 7.25C14.769 7.25 16 6.019 16 4.5" stroke="black" stroke-width="1.5" stroke-linecap="round" stroke-linejoin="round" fill="none"></path> <path d="M13.25 12.25C14.769 12.25 16 13.481 16 15" stroke="black" stroke-width="1.5" stroke-linecap="round" stroke-linejoin="round" fill="none"></path> <path d="M6.75 5.75H11.25C12.354 5.75 13.25 6.646 13.25 7.75V11C13.25 13.346 11.346 15.25 9 15.25C6.654 15.25 4.75 13.346 4.75 11V7.75C4.75 6.646 5.646 5.75 6.75 5.75Z" stroke="black" stroke-width="1.5" stroke-linecap="round" stroke-linejoin="round" fill="none"></path></svg>