<svg xmlns="http://www.w3.org/2000/svg" xmlns:xlink="http://www.w3.org/1999/xlink" x="0px" y="0px" width="18px" height="18px" viewBox="0 0 18 18"><path d="m9,8.25h-1.25c-2.761,0-5-2.239-5-5v-.5h2.25c2.209,0,4,1.791,4,4v1.5Z" fill="#000" opacity=".3" stroke-width="0" data-color="color-2"></path><path d="m9,8.25h-1.25c-2.761,0-5-2.239-5-5v-.5h2.25c2.209,0,4,1.791,4,4v1.5Z" fill="none" stroke="#000" stroke-linecap="round" stroke-linejoin="round" stroke-width="1.5"></path><path d="m9,15.25v-5.25" fill="none" stroke="#000" stroke-linecap="round" stroke-linejoin="round" stroke-width="1.5"></path><path d="m11.999,9.935c1.8984-.7091,3.251-2.5397,3.251-4.685h0v-.5h-2.25c-2.209,0-4,1.791-4,4v1.5" fill="none" stroke="#000" stroke-linecap="round" stroke-linejoin="round" stroke-width="1.5"></path></svg>