<svg xmlns="http://www.w3.org/2000/svg" xmlns:xlink="http://www.w3.org/1999/xlink" x="0px" y="0px" width="18px" height="18px" viewBox="0 0 18 18"><path d="m10.25,16v-4h-.3494c-1.3987,0-2.7624-.437-3.9006-1.25h0s-.75,2.5-.75,2.5v2.75h-3v-7.25c0-1.1046.8954-2,2-2h6.75l1.5-5,1.5,2.25,3.25.75-.2391,1.5541c-.1501.9757-.9896,1.6959-1.9767,1.6959h-.7842l-1,5v3h-3Z" fill="#000" opacity=".3" stroke-width="0" data-color="color-2"></path><path d="m1.25,4.75h0c0,1.1046.8954,2,2,2h.75" fill="none" stroke="#000" stroke-linecap="round" stroke-linejoin="round" stroke-width="1.5"></path><path d="m10.25,16v-4h-.3494c-1.3987,0-2.7624-.437-3.9006-1.25h0s-.75,2.5-.75,2.5v2.75" fill="none" stroke="#000" stroke-linecap="round" stroke-linejoin="round" stroke-width="1.5"></path><path d="m2.25,16v-7.25c0-1.1046.8954-2,2-2h6.75l1.5-5,1.5,2.25,3.25.75-.2391,1.5541c-.1501.9757-.9896,1.6959-1.9767,1.6959h-.7842l-1,5v3" fill="none" stroke="#000" stroke-linecap="round" stroke-linejoin="round" stroke-width="1.5"></path></svg>