<svg xmlns="http://www.w3.org/2000/svg" xmlns:xlink="http://www.w3.org/1999/xlink" x="0px" y="0px" width="18px" height="18px" viewBox="0 0 18 18"><path d="M6.25 4.75V2.25C6.25 1.698 6.698 1.25 7.25 1.25H10.75C11.302 1.25 11.75 1.698 11.75 2.25V4.75" stroke="black" stroke-width="1.5" stroke-linecap="round" stroke-linejoin="round" fill="none"></path> <path d="M16.25 8.86133V6.75C16.25 5.646 15.355 4.75 14.25 4.75H3.75C2.645 4.75 1.75 5.646 1.75 6.75V13.25C1.75 14.354 2.645 15.25 3.75 15.25H8.6188" stroke="black" stroke-width="1.5" stroke-linecap="round" stroke-linejoin="round" fill="none"></path> <path d="M13.5 10.068L14.504 12.103L16.75 12.429L15.125 14.013L15.509 16.25L13.5 15.194L11.491 16.25L11.875 14.013L10.25 12.429L12.496 12.103L13.5 10.068Z" stroke="#000" stroke-width="1.5" stroke-linecap="round" stroke-linejoin="round" data-color="color-2" fill="none"></path></svg>