<svg xmlns="http://www.w3.org/2000/svg" xmlns:xlink="http://www.w3.org/1999/xlink" x="0px" y="0px" width="18px" height="18px" viewBox="0 0 18 18"><rect x="5.75" y="2.25" width="6.5" height="13.5" rx="1" ry="1" fill="none" stroke="#000" stroke-linecap="round" stroke-linejoin="round" stroke-width="1.5"></rect><path d="M2.25,10.25c-.689,0-1.25-.561-1.25-1.25s.561-1.25,1.25-1.25,1.25,.561,1.25,1.25-.561,1.25-1.25,1.25Z" fill="#000" data-color="color-2" data-stroke="none"></path><path d="M2.25,5.5c-.689,0-1.25-.561-1.25-1.25s.561-1.25,1.25-1.25,1.25,.561,1.25,1.25-.561,1.25-1.25,1.25Z" fill="#000" data-color="color-2" data-stroke="none"></path><path d="M2.25,15c-.689,0-1.25-.561-1.25-1.25s.561-1.25,1.25-1.25,1.25,.561,1.25,1.25-.561,1.25-1.25,1.25Z" fill="#000" data-color="color-2" data-stroke="none"></path><path d="M14.5,9c0-.689,.561-1.25,1.25-1.25s1.25,.561,1.25,1.25-.561,1.25-1.25,1.25-1.25-.561-1.25-1.25Z" fill="#000" data-color="color-2" data-stroke="none"></path><path d="M14.5,4.25c0-.689,.561-1.25,1.25-1.25s1.25,.561,1.25,1.25-.561,1.25-1.25,1.25-1.25-.561-1.25-1.25Z" fill="#000" data-color="color-2" data-stroke="none"></path><path d="M14.5,13.75c0-.689,.561-1.25,1.25-1.25s1.25,.561,1.25,1.25-.561,1.25-1.25,1.25-1.25-.561-1.25-1.25Z" fill="#000" data-color="color-2" data-stroke="none"></path></svg>