<svg xmlns="http://www.w3.org/2000/svg" xmlns:xlink="http://www.w3.org/1999/xlink" x="0px" y="0px" width="18px" height="18px" viewBox="0 0 18 18"><path d="M6.33979 9.65521L4.02499 3.75L1.65709 9.6698C1.57799 9.8675 1.62659 10.1036 1.79139 10.2384C3.07709 11.2897 4.76489 11.3043 6.18599 10.2356C6.36179 10.1034 6.42009 9.86011 6.33979 9.65521Z" stroke="#000" stroke-width="1.5" stroke-linecap="round" stroke-linejoin="round" data-color="color-2" fill="none"></path> <path d="M11.6602 9.65521L13.975 3.75L16.3429 9.6698C16.422 9.8675 16.3734 10.1036 16.2086 10.2384C14.9229 11.2897 13.2351 11.3043 11.814 10.2356C11.6382 10.1034 11.5799 9.86011 11.6602 9.65521Z" stroke="#000" stroke-width="1.5" stroke-linecap="round" stroke-linejoin="round" data-color="color-2" fill="none"></path> <path d="M9 1.75V15.75" stroke="black" stroke-width="1.5" stroke-linecap="round" stroke-linejoin="round" fill="none"></path> <path d="M13.25 15.75H4.75" stroke="black" stroke-width="1.5" stroke-linecap="round" stroke-linejoin="round" fill="none"></path> <path d="M13.975 3.75H4.02499" stroke="black" stroke-width="1.5" stroke-linecap="round" stroke-linejoin="round" fill="none"></path> <path d="M9 13.25C9 14.6307 7.8807 15.75 6.5 15.75" stroke="black" stroke-width="1.5" stroke-linecap="round" stroke-linejoin="round" fill="none"></path> <path d="M9 13.25C9 14.6307 10.1193 15.75 11.5 15.75" stroke="black" stroke-width="1.5" stroke-linecap="round" stroke-linejoin="round" fill="none"></path></svg>