<svg xmlns="http://www.w3.org/2000/svg" xmlns:xlink="http://www.w3.org/1999/xlink" x="0px" y="0px" width="18px" height="18px" viewBox="0 0 18 18"><path d="M6.25 4.75V2.25C6.25 1.698 6.698 1.25 7.25 1.25H10.75C11.302 1.25 11.75 1.698 11.75 2.25V4.75" stroke="black" stroke-width="1.5" stroke-linecap="round" stroke-linejoin="round" fill="none"></path> <path d="M16.25 8.02441V6.75C16.25 5.646 15.355 4.75 14.25 4.75H3.75C2.645 4.75 1.75 5.646 1.75 6.75V13.25C1.75 14.354 2.645 15.25 3.75 15.25H6.8259" stroke="black" stroke-width="1.5" stroke-linecap="round" stroke-linejoin="round" fill="none"></path> <path d="M14.5 10.75C13.2297 10.75 12.1711 11.616 11.8553 12.7864C11.7405 12.7627 11.6217 12.75 11.5 12.75C10.5335 12.75 9.75 13.5335 9.75 14.5C9.75 15.4665 10.5335 16.25 11.5 16.25H14.5C16.0188 16.25 17.25 15.0187 17.25 13.5C17.25 11.9813 16.0188 10.75 14.5 10.75Z" stroke="#000" stroke-width="1.5" stroke-linecap="round" stroke-linejoin="round" data-color="color-2" fill="none"></path></svg>