<svg xmlns="http://www.w3.org/2000/svg" xmlns:xlink="http://www.w3.org/1999/xlink" x="0px" y="0px" width="18px" height="18px" viewBox="0 0 18 18"><path d="M12.5 12C13.052 12 13.5 11.552 13.5 11C13.5 10.448 13.052 10 12.5 10C11.948 10 11.5 10.448 11.5 11C11.5 11.552 11.948 12 12.5 12Z" fill="#000" data-color="color-2" data-stroke="none"></path> <path d="M12.0781 15.25H14.75C15.302 15.25 15.75 14.802 15.75 14.25V7.75C15.75 7.198 15.302 6.75 14.75 6.75H4.25C3.145 6.75 2.25 5.855 2.25 4.75V9.35059" stroke="black" stroke-width="1.5" stroke-linecap="round" stroke-linejoin="round" fill="none"></path> <path d="M2.25 4.75C2.25 3.645 3.145 2.75 4.25 2.75H12.75C13.302 2.75 13.75 3.198 13.75 3.75V4.25" stroke="black" stroke-width="1.5" stroke-linecap="round" stroke-linejoin="round" fill="none"></path> <path d="M3.25 16.25C4.35457 16.25 5.25 15.3546 5.25 14.25C5.25 13.1454 4.35457 12.25 3.25 12.25C2.14543 12.25 1.25 13.1454 1.25 14.25C1.25 15.3546 2.14543 16.25 3.25 16.25Z" stroke="#000" stroke-width="1.5" stroke-linecap="round" stroke-linejoin="round" data-color="color-2" fill="none"></path> <path d="M5.25 14.25H9.25" stroke="#000" stroke-width="1.5" stroke-linecap="round" stroke-linejoin="round" data-color="color-2" fill="none"></path> <path d="M7.75 14.25V15.75" stroke="#000" stroke-width="1.5" stroke-linecap="round" stroke-linejoin="round" data-color="color-2" fill="none"></path></svg>