<svg xmlns="http://www.w3.org/2000/svg" xmlns:xlink="http://www.w3.org/1999/xlink" x="0px" y="0px" width="24px" height="24px" viewBox="0 0 24 24"> <path d="M16.4471 4.20444L18 10" stroke="#000" stroke-width="2" stroke-miterlimit="10" data-color="color-2" data-cap="butt" fill="none"></path> <path d="M9.91181 12.1072L6.8515 12.9367L5.29858 7.1411L20.7534 3L22.3063 8.79556L13.18 11.241" stroke="black" stroke-width="2" stroke-miterlimit="10" data-cap="butt" fill="none"></path> <path d="M13.6167 15.6834L13.5 15.5L17 21H16.962" stroke="black" stroke-width="2" stroke-linecap="square" fill="none"></path> <path d="M10.3883 15.6755L10.5 15.5L7 21H7.05761" stroke="black" stroke-width="2" stroke-linecap="square" fill="none"></path> <path d="M12 16C13.3807 16 14.5 14.8807 14.5 13.5C14.5 12.1193 13.3807 11 12 11C10.6193 11 9.5 12.1193 9.5 13.5C9.5 14.8807 10.6193 16 12 16Z" stroke="#000" stroke-width="2" stroke-miterlimit="10" stroke-linecap="square" data-color="color-2" fill="none"></path> <path d="M4.5 4C5.32843 4 6 3.32843 6 2.5C6 1.67157 5.32843 1 4.5 1C3.67157 1 3 1.67157 3 2.5C3 3.32843 3.67157 4 4.5 4Z" fill="#000" data-color="color-2" data-cap="butt" data-stroke="none"></path> <path d="M1.95251 10.1082L2.21133 11.0741L2.47015 12.0401" stroke="black" stroke-width="2" stroke-linecap="square" fill="none"></path> </svg>