<svg xmlns="http://www.w3.org/2000/svg" xmlns:xlink="http://www.w3.org/1999/xlink" x="0px" y="0px" width="32px" height="32px" viewBox="0 0 32 32"> <path d="M2 16H3.5C4.88071 16 6 17.1193 6 18.5C6 19.8807 4.88071 21 3.5 21H2" stroke="#000" stroke-width="2" stroke-miterlimit="10" stroke-linecap="square" data-color="color-2" fill="none"></path> <path d="M30 16H28.5C27.1193 16 26 17.1193 26 18.5C26 19.8807 27.1193 21 28.5 21H30" stroke="#000" stroke-width="2" stroke-miterlimit="10" stroke-linecap="square" data-color="color-2" fill="none"></path> <path d="M2 9L16 12.2855L30 9V26.7145L16 30L2 26.7145V9Z" stroke="black" stroke-width="2" stroke-miterlimit="10" stroke-linecap="square" fill="none"></path> <path d="M16 12V30" stroke="black" stroke-width="2" data-cap="butt" fill="none"></path> <path d="M21 7C21 4.23858 18.7614 2 16 2C13.2386 2 11 4.23858 11 7" stroke="#000" stroke-width="2" stroke-miterlimit="10" stroke-linecap="square" data-color="color-2" fill="none"></path> </svg>