<svg xmlns="http://www.w3.org/2000/svg" xmlns:xlink="http://www.w3.org/1999/xlink" x="0px" y="0px" width="32px" height="32px" viewBox="0 0 32 32"> <path d="M24.3745 13.6177L18.9807 15.0616" stroke="black" stroke-width="2" stroke-miterlimit="10" data-cap="butt" fill="none"></path> <path d="M22.3039 5.89031L24.3745 13.6177" stroke="#000" stroke-width="2" stroke-miterlimit="10" data-color="color-2" data-cap="butt" fill="none"></path> <path d="M22.3039 5.89031L7.81501 9.7726L9.88556 17.5L13.1692 16.6202" stroke="black" stroke-width="2" stroke-miterlimit="10" data-cap="butt" fill="none"></path> <path d="M4.46893 12.7397L2.53708 13.2574L3.57236 17.1211L5.50421 16.6034" stroke="black" stroke-width="2" stroke-linecap="square" fill="none"></path> <path d="M29.4629 13.2895L26.8747 3.63029L22.0451 4.92438L24.6333 14.5836L29.4629 13.2895Z" stroke="#000" stroke-width="2" stroke-miterlimit="10" data-color="color-2" data-cap="butt" fill="none"></path> <path d="M18.6152 20.7177L18.5 20.5L23 29H22.8902" stroke="black" stroke-width="2" stroke-linecap="square" fill="none"></path> <path d="M14.2353 21L14.5 20.5L10 29H10.114" stroke="black" stroke-width="2" stroke-linecap="square" fill="none"></path> <path d="M16.5 21C18.433 21 20 19.433 20 17.5C20 15.567 18.433 14 16.5 14C14.567 14 13 15.567 13 17.5C13 19.433 14.567 21 16.5 21Z" stroke="#000" stroke-width="2" stroke-miterlimit="10" stroke-linecap="square" data-color="color-2" fill="none"></path> <path d="M7 5C8.10457 5 9 4.10457 9 3C9 1.89543 8.10457 1 7 1C5.89543 1 5 1.89543 5 3C5 4.10457 5.89543 5 7 5Z" fill="#000" data-color="color-2" data-cap="butt" data-stroke="none"></path> </svg>