<svg xmlns="http://www.w3.org/2000/svg" xmlns:xlink="http://www.w3.org/1999/xlink" x="0px" y="0px" width="32px" height="32px" viewBox="0 0 32 32"> <path d="M4.99561 27L2.99561 29" stroke="black" stroke-width="2" stroke-linecap="square" fill="none"></path> <path d="M25 13.5955L28.4045 17L23 22.4045" stroke="#000" stroke-width="2" stroke-linecap="square" data-color="color-2" fill="none"></path> <path d="M21.8488 6.35531L24.2043 3.99984C25.2524 2.95172 26.9517 2.95172 27.9998 3.99984V3.99984V3.99984C29.048 5.04796 29.048 6.74729 27.9998 7.79541L25.6413 10.154" stroke="#000" stroke-width="2" data-color="color-2" data-cap="butt" fill="none"></path> <path d="M11.1431 16.1385L13.5001 18.4955L15.8571 20.8526L9.71412 26.9957C8.41239 28.2974 6.30184 28.2974 5.00009 26.9957V26.9957V26.9957C3.69834 25.6939 3.69833 23.5834 5.00007 22.2816L11.1431 16.1385Z" stroke="#000" stroke-width="2" data-color="color-2" data-cap="butt" fill="none"></path> <path d="M20.5288 4.8672L27.1285 11.4669L16.7998 21.7955L13.5 18.4957L10.2002 15.1958L20.5288 4.8672Z" stroke="black" stroke-width="2" data-cap="butt" fill="none"></path> </svg>