<svg xmlns="http://www.w3.org/2000/svg" xmlns:xlink="http://www.w3.org/1999/xlink" x="0px" y="0px" width="48px" height="48px" viewBox="0 0 48 48"> <path d="M35 36V31H28V36" stroke="black" stroke-width="2" stroke-linecap="square" fill="none"></path> <path d="M33 10H32L25 2H23L16 10H15" stroke="black" stroke-width="2" stroke-linecap="square" fill="none"></path> <path d="M45 10L45 36C45 38.7614 42.7614 41 40 41L8 41C5.23858 41 3 38.7614 3 36L3 10L45 10Z" stroke="black" stroke-width="2" data-cap="butt" fill="none"></path> <path d="M40 15L40 36L8 36L8 15L40 15Z" stroke="#000" stroke-width="2" data-color="color-2" data-cap="butt" fill="none"></path> <path d="M13 27C15.7678 21.5773 18.6687 19.6168 20.3642 20.0606C22.0157 20.4929 21.5359 25.1347 23.2852 25.4059C24.6244 25.6005 25.7172 23.2213 27.1048 23.5188C28.1906 23.7515 28.1565 25.4539 29.426 25.7823C29.9882 25.9278 30.4852 25.7823 31 25.5406" stroke="black" stroke-width="2" stroke-linecap="square" stroke-linejoin="round" fill="none"></path> </svg>