<svg xmlns="http://www.w3.org/2000/svg" xmlns:xlink="http://www.w3.org/1999/xlink" x="0px" y="0px" width="48px" height="48px" viewBox="0 0 48 48"> <path d="M46 33.5L46 17.5C46 16.1193 44.8807 15 43.5 15L28.5 15C27.1193 15 26 16.1193 26 17.5L26 31L22 35L22 36L43.5 36C44.8807 36 46 34.8807 46 33.5Z" stroke="#000" stroke-width="2" stroke-miterlimit="10" stroke-linecap="square" data-color="color-2" fill="none"></path> <path d="M3 5C11.8215 5 16.7778 13.0397 16.7778 21.8421L20.0135 28.2957C20.4874 29.2408 19.861 30.3664 18.8081 30.4619L15.1944 30.7895L14.9162 34.951C14.7758 37.0519 13.0307 38.6842 10.9251 38.6842L5.11111 38.6842V45" stroke="black" stroke-width="2" stroke-miterlimit="10" stroke-linecap="square" fill="none"></path> <path d="M31 20H41" stroke="black" stroke-width="2" stroke-linecap="square" fill="none"></path> <path d="M31 30H36" stroke="black" stroke-width="2" stroke-linecap="square" fill="none"></path> <path d="M31 25H41" stroke="black" stroke-width="2" stroke-linecap="square" fill="none"></path> </svg>