<svg xmlns="http://www.w3.org/2000/svg" xmlns:xlink="http://www.w3.org/1999/xlink" x="0px" y="0px" width="48px" height="48px" viewBox="0 0 48 48"> <path d="M39 25L40.1562 25.0361C42.8555 25.1205 45 27.3331 45 30.0337L45 43L39 43" stroke="black" stroke-width="2" data-cap="butt" fill="none"></path> <path d="M9 25L7.84383 25.0361C5.14453 25.1205 3 27.3331 3 30.0337L3 43L9 43" stroke="black" stroke-width="2" data-cap="butt" fill="none"></path> <path d="M14 43V32C14 29.2386 16.2386 27 19 27H29C31.7614 27 34 29.2386 34 32V43" stroke="#000" stroke-width="2" stroke-linecap="square" data-color="color-2" fill="none"></path> <path d="M32 10L32 6.99999C32 4.79086 30.2091 3 28 3L20 3C17.7909 3 16 4.79086 16 7.00001L16 10" stroke="#000" stroke-width="2" data-color="color-2" data-cap="butt" fill="none"></path> <path d="M39 21L39 43L9 43L9 21C9 14.3726 14.3726 9 21 9L27 9C33.6274 9 39 14.3726 39 21Z" stroke="black" stroke-width="2" data-cap="butt" fill="none"></path> <path d="M20 33H28" stroke="black" stroke-width="2" stroke-linecap="square" fill="none"></path> <path d="M30 20L30 15L18 15L18 20L30 20Z" stroke="#000" stroke-width="2" data-color="color-2" data-cap="butt" fill="none"></path> </svg>