<svg xmlns="http://www.w3.org/2000/svg" xmlns:xlink="http://www.w3.org/1999/xlink" x="0px" y="0px" width="48px" height="48px" viewBox="0 0 48 48"> <path d="M27 19L27 45.9999" stroke="black" stroke-width="2" data-cap="butt" fill="none"></path> <path d="M21 19V46" stroke="black" stroke-width="2" data-cap="butt" fill="none"></path> <path d="M3 26H5.25C7.32107 26 9 27.6789 9 29.75C9 31.8211 7.32107 33.5 5.25 33.5H3" stroke="#000" stroke-width="2" stroke-miterlimit="10" stroke-linecap="square" data-color="color-2" fill="none"></path> <path d="M45 26H42.75C40.6789 26 39 27.6789 39 29.75C39 31.8211 40.6789 33.5 42.75 33.5H45" stroke="#000" stroke-width="2" stroke-miterlimit="10" stroke-linecap="square" data-color="color-2" fill="none"></path> <path d="M3 15L21 19H27L45 15V41.9935L27 46H21L3 41.9935V15Z" stroke="black" stroke-width="2" stroke-miterlimit="10" stroke-linecap="square" fill="none"></path> <path d="M15.1496 12.6429C15.0514 12.1102 15 11.5611 15 11C15 6.02944 19.0294 2 24 2C28.9706 2 33 6.02944 33 11C33 11.5611 32.9486 12.1102 32.8504 12.6429" stroke="#000" stroke-width="2" stroke-miterlimit="10" stroke-linecap="square" data-color="color-2" fill="none"></path> </svg>