<svg xmlns="http://www.w3.org/2000/svg" xmlns:xlink="http://www.w3.org/1999/xlink" x="0px" y="0px" width="48px" height="48px" viewBox="0 0 48 48"> <path d="M29 33C28.3314 30.6779 26.4041 29 24.1309 29H23.9785C21.6766 29 19.7193 30.6707 19 33" stroke="black" stroke-width="2" data-cap="butt" fill="none"></path> <path d="M10 7V7C6.68629 7 4 9.68628 4 13V28.9604V27.5" stroke="#000" stroke-width="2" stroke-linecap="square" data-color="color-2" fill="none"></path> <path d="M38 7V7C41.3137 7 44 9.68628 44 13V28.9604V27.5" stroke="#000" stroke-width="2" stroke-linecap="square" data-color="color-2" fill="none"></path> <path d="M37 41C41.4183 41 45 37.4183 45 33C45 28.5817 41.4183 25 37 25C32.5817 25 29 28.5817 29 33C29 37.4183 32.5817 41 37 41Z" stroke="black" stroke-width="2" stroke-miterlimit="10" stroke-linecap="square" fill="none"></path> <path d="M11 41C15.4183 41 19 37.4183 19 33C19 28.5817 15.4183 25 11 25C6.58172 25 3 28.5817 3 33C3 37.4183 6.58172 41 11 41Z" stroke="black" stroke-width="2" stroke-miterlimit="10" stroke-linecap="square" fill="none"></path> </svg>