<svg xmlns="http://www.w3.org/2000/svg" xmlns:xlink="http://www.w3.org/1999/xlink" x="0px" y="0px" width="18px" height="18px" viewBox="0 0 18 18"><path d="m5.2469,11.2351l.0175-.009c-.6239-.7397-1.0145-1.6826-1.0145-2.7261,0-2.3472,1.9028-4.25,4.25-4.25,1.9797,0,3.6287,1.3599,4.1011,3.1919l.0143-.0073,3.073.1653c-.4441-3.5784-3.4897-6.3499-7.1884-6.3499C4.496,1.25,1.25,4.4958,1.25,8.5c0,1.8811.7225,3.5894,1.8975,4.8777l2.0995-2.1426Z" fill="#000" opacity=".3" stroke-width="0" data-color="color-2"></path><path d="m17.25,15.225c0-2.059-.236-3.639-1-4.223-.875-.669-3.152-.838-5.295-.232l-1.33-2.827c-.293-.626-1.037-.896-1.663-.603h0c-.625.292-.896,1.036-.604,1.661l2.561,5.456-2.724-.501c-.587-.108-1.167.224-1.371.785h0c-.232.637.098,1.34.736,1.569l2.616.941" fill="none" stroke="#000" stroke-linecap="round" stroke-linejoin="round" stroke-width="1.5"></path><path d="m5.2469,11.2351c-.6221-.7392-.9969-1.6934-.9969-2.7351,0-2.3472,1.9028-4.25,4.25-4.25,1.9793,0,3.6426,1.353,4.1154,3.1846" fill="none" stroke="#000" stroke-linecap="round" stroke-linejoin="round" stroke-width="1.5"></path><path d="m15.6947,7.6003c-.443-3.5795-3.4953-6.3503-7.1947-6.3503C4.4959,1.25,1.25,4.4959,1.25,8.5c0,1.8813.7165,3.5952,1.8916,4.8837" fill="none" stroke="#000" stroke-linecap="round" stroke-linejoin="round" stroke-width="1.5"></path></svg>