<svg xmlns="http://www.w3.org/2000/svg" xmlns:xlink="http://www.w3.org/1999/xlink" x="0px" y="0px" width="18px" height="18px" viewBox="0 0 18 18"><path d="M7 12.25C9.899 12.25 12.25 9.899 12.25 7C12.25 4.101 9.899 1.75 7 1.75C4.101 1.75 1.75 4.101 1.75 7C1.75 9.899 4.101 12.25 7 12.25Z" fill="#000" fill-opacity="0.3" data-color="color-2" data-stroke="none"></path> <path d="M5.87701 12.123C6.39201 14.482 8.48702 16.25 11 16.25C13.9 16.25 16.25 13.899 16.25 11C16.25 8.487 14.482 6.39201 12.123 5.87701" stroke="black" stroke-width="1.5" stroke-linecap="round" stroke-linejoin="round" fill="none"></path> <path d="M11.7056 9.33008L15.7057 13.3303" stroke="black" stroke-width="1.5" stroke-linecap="round" stroke-linejoin="round" fill="none"></path> <path d="M9.33069 11.7053L13.3309 15.7055" stroke="black" stroke-width="1.5" stroke-linecap="round" stroke-linejoin="round" fill="none"></path> <path d="M7 12.25C9.899 12.25 12.25 9.899 12.25 7C12.25 4.101 9.899 1.75 7 1.75C4.101 1.75 1.75 4.101 1.75 7C1.75 9.899 4.101 12.25 7 12.25Z" stroke="black" stroke-width="1.5" stroke-linecap="round" stroke-linejoin="round" fill="none"></path></svg>