<svg xmlns="http://www.w3.org/2000/svg" xmlns:xlink="http://www.w3.org/1999/xlink" x="0px" y="0px" width="18px" height="18px" viewBox="0 0 18 18"><path d="m13.75,9.25c-1.2402,0-2.25-1.0093-2.25-2.25v-.5h-.5c-1.2402,0-2.25-1.0093-2.25-2.25,0-.4624.1408-.8921.381-1.25h-4.211c-1.0604,0-1.92.8596-1.92,1.9199v8.1602c0,1.0603.8596,1.9199,1.92,1.9199h8.16c1.0604,0,1.92-.8596,1.92-1.9199v-4.2109c-.3578.24-.7877.3809-1.25.3809Z" fill="#000" opacity=".3" stroke-width="0" data-color="color-2"></path><path d="m2.75,6.25v-1.5c0-1.105.895-2,2-2h2" fill="none" stroke="#000" stroke-linecap="round" stroke-linejoin="round" stroke-width="1.5"></path><path d="m15.25,11.75v1.5c0,1.105-.895,2-2,2h-2" fill="none" stroke="#000" stroke-linecap="round" stroke-linejoin="round" stroke-width="1.5"></path><path d="m6.75,15.25h-2c-1.105,0-2-.895-2-2v-1.5" fill="none" stroke="#000" stroke-linecap="round" stroke-linejoin="round" stroke-width="1.5"></path><path d="m13.75,1.5v5.5" fill="none" stroke="#000" stroke-linecap="round" stroke-linejoin="round" stroke-width="1.5"></path><path d="m16.5,4.25h-5.5" fill="none" stroke="#000" stroke-linecap="round" stroke-linejoin="round" stroke-width="1.5"></path></svg>