<svg xmlns="http://www.w3.org/2000/svg" xmlns:xlink="http://www.w3.org/1999/xlink" x="0px" y="0px" width="18px" height="18px" viewBox="0 0 18 18"><path d="M6.25 2.75H4.75C4.19772 2.75 3.75 3.19772 3.75 3.75V11.25C3.75 11.8023 4.19772 12.25 4.75 12.25H6.25C6.80228 12.25 7.25 11.8023 7.25 11.25V3.75C7.25 3.19772 6.80228 2.75 6.25 2.75Z" fill="#000" fill-opacity="0.3" data-color="color-2" data-stroke="none"></path> <path d="M13.25 6.75H11.75C11.1977 6.75 10.75 7.19772 10.75 7.75V11.25C10.75 11.8023 11.1977 12.25 11.75 12.25H13.25C13.8023 12.25 14.25 11.8023 14.25 11.25V7.75C14.25 7.19772 13.8023 6.75 13.25 6.75Z" fill="#000" fill-opacity="0.3" data-color="color-2" data-stroke="none"></path> <path d="M1.75 15.25H16.25" stroke="black" stroke-width="1.5" stroke-linecap="round" stroke-linejoin="round" fill="none"></path> <path d="M6.25 2.75H4.75C4.19772 2.75 3.75 3.19772 3.75 3.75V11.25C3.75 11.8023 4.19772 12.25 4.75 12.25H6.25C6.80228 12.25 7.25 11.8023 7.25 11.25V3.75C7.25 3.19772 6.80228 2.75 6.25 2.75Z" stroke="black" stroke-width="1.5" stroke-linecap="round" stroke-linejoin="round" fill="none"></path> <path d="M13.25 6.75H11.75C11.1977 6.75 10.75 7.19772 10.75 7.75V11.25C10.75 11.8023 11.1977 12.25 11.75 12.25H13.25C13.8023 12.25 14.25 11.8023 14.25 11.25V7.75C14.25 7.19772 13.8023 6.75 13.25 6.75Z" stroke="black" stroke-width="1.5" stroke-linecap="round" stroke-linejoin="round" fill="none"></path></svg>