<svg xmlns="http://www.w3.org/2000/svg" xmlns:xlink="http://www.w3.org/1999/xlink" x="0px" y="0px" width="18px" height="18px" viewBox="0 0 18 18"><path d="M9.75 5.25H5.25V9.75H9.75V5.25Z" fill="#000" fill-opacity="0.3" data-color="color-2" data-stroke="none"></path> <path d="M8.127 9.75C8.052 9.988 8 10.237 8 10.5C8 11.881 9.119 13 10.5 13C11.881 13 13 11.881 13 10.5C13 9.119 11.881 8 10.5 8C10.237 8 9.988 8.052 9.75 8.127" stroke="black" stroke-width="1.5" stroke-linecap="round" stroke-linejoin="round" fill="none"></path> <path d="M2.75 6.25V4.75C2.75 3.645 3.645 2.75 4.75 2.75H6.75" stroke="black" stroke-width="1.5" stroke-linecap="round" stroke-linejoin="round" fill="none"></path> <path d="M11.25 2.75H13.25C14.355 2.75 15.25 3.645 15.25 4.75V6.25" stroke="black" stroke-width="1.5" stroke-linecap="round" stroke-linejoin="round" fill="none"></path> <path d="M15.25 11.75V13.25C15.25 14.355 14.355 15.25 13.25 15.25H11.25" stroke="black" stroke-width="1.5" stroke-linecap="round" stroke-linejoin="round" fill="none"></path> <path d="M6.75 15.25H4.75C3.645 15.25 2.75 14.355 2.75 13.25V11.75" stroke="black" stroke-width="1.5" stroke-linecap="round" stroke-linejoin="round" fill="none"></path> <path d="M9.75 5.25H5.25V9.75H9.75V5.25Z" stroke="black" stroke-width="1.5" stroke-linecap="round" stroke-linejoin="round" fill="none"></path></svg>