<svg xmlns="http://www.w3.org/2000/svg" xmlns:xlink="http://www.w3.org/1999/xlink" x="0px" y="0px" width="18px" height="18px" viewBox="0 0 18 18"><path d="M9.75 5.25H8.25C6.317 5.25 4.75 6.817 4.75 8.75V13.75C4.75 15.683 6.317 17.25 8.25 17.25H9.75C11.683 17.25 13.25 15.683 13.25 13.75V8.75C13.25 6.817 11.683 5.25 9.75 5.25Z" fill="#000" fill-opacity="0.3" data-color="color-2" data-stroke="none"></path> <path d="M9 5.25V4.5C9 3.534 9.784 2.75 10.75 2.75H12.5C13.466 2.75 14.25 1.966 14.25 1" stroke="black" stroke-width="1.5" stroke-linecap="round" stroke-linejoin="round" fill="none"></path> <path d="M9.75 5.25H8.25C6.317 5.25 4.75 6.817 4.75 8.75V13.75C4.75 15.683 6.317 17.25 8.25 17.25H9.75C11.683 17.25 13.25 15.683 13.25 13.75V8.75C13.25 6.817 11.683 5.25 9.75 5.25Z" stroke="black" stroke-width="1.5" stroke-linecap="round" stroke-linejoin="round" fill="none"></path> <path d="M9 8.75V11.25" stroke="black" stroke-width="1.5" stroke-linecap="round" stroke-linejoin="round" fill="none"></path></svg>