<svg xmlns="http://www.w3.org/2000/svg" xmlns:xlink="http://www.w3.org/1999/xlink" x="0px" y="0px" width="18px" height="18px" viewBox="0 0 18 18"><path opacity="0.3" d="M15.25 2.75H13.25C12.698 2.75 12.25 3.198 12.25 3.75V5.75C12.25 6.302 12.698 6.75 13.25 6.75H15.25C15.802 6.75 16.25 6.302 16.25 5.75V3.75C16.25 3.198 15.802 2.75 15.25 2.75Z" fill="#000" data-color="color-2" data-stroke="none"></path> <path opacity="0.3" d="M1.75 8V10C1.75 10.552 2.198 11 2.75 11H4.75C5.302 11 5.75 10.552 5.75 10V8C5.75 7.448 5.302 7 4.75 7H2.75C2.198 7 1.75 7.448 1.75 8Z" fill="#000" data-color="color-2" data-stroke="none"></path> <path opacity="0.3" d="M15.25 11.25H13.25C12.698 11.25 12.25 11.698 12.25 12.25V14.25C12.25 14.802 12.698 15.25 13.25 15.25H15.25C15.802 15.25 16.25 14.802 16.25 14.25V12.25C16.25 11.698 15.802 11.25 15.25 11.25Z" fill="#000" data-color="color-2" data-stroke="none"></path> <path d="M15.25 2.75H13.25C12.698 2.75 12.25 3.198 12.25 3.75V5.75C12.25 6.302 12.698 6.75 13.25 6.75H15.25C15.802 6.75 16.25 6.302 16.25 5.75V3.75C16.25 3.198 15.802 2.75 15.25 2.75Z" stroke="black" stroke-width="1.5" stroke-linecap="round" stroke-linejoin="round" fill="none"></path> <path d="M9 1.75V16.25" stroke="black" stroke-width="1.5" stroke-linecap="round" stroke-linejoin="round" fill="none"></path> <path d="M12.25 4.75H9" stroke="black" stroke-width="1.5" stroke-linecap="round" stroke-linejoin="round" fill="none"></path> <path d="M1.75 8V10C1.75 10.552 2.198 11 2.75 11H4.75C5.302 11 5.75 10.552 5.75 10V8C5.75 7.448 5.302 7 4.75 7H2.75C2.198 7 1.75 7.448 1.75 8Z" stroke="black" stroke-width="1.5" stroke-linecap="round" stroke-linejoin="round" fill="none"></path> <path d="M9 9H5.75" stroke="black" stroke-width="1.5" stroke-linecap="round" stroke-linejoin="round" fill="none"></path> <path d="M15.25 11.25H13.25C12.698 11.25 12.25 11.698 12.25 12.25V14.25C12.25 14.802 12.698 15.25 13.25 15.25H15.25C15.802 15.25 16.25 14.802 16.25 14.25V12.25C16.25 11.698 15.802 11.25 15.25 11.25Z" stroke="black" stroke-width="1.5" stroke-linecap="round" stroke-linejoin="round" fill="none"></path> <path d="M12.25 13.25H9" stroke="black" stroke-width="1.5" stroke-linecap="round" stroke-linejoin="round" fill="none"></path></svg>