<svg xmlns="http://www.w3.org/2000/svg" xmlns:xlink="http://www.w3.org/1999/xlink" x="0px" y="0px" width="18px" height="18px" viewBox="0 0 18 18"><path d="M2.665 6.711L8.535 3.62C8.827 3.466 9.175 3.466 9.467 3.62L15.337 6.711C15.871 6.992 15.871 7.757 15.337 8.038L9.467 11.129C9.175 11.283 8.827 11.283 8.535 11.129L2.665 8.038C2.131 7.757 2.131 6.992 2.665 6.711Z" fill="#000" fill-opacity="0.3" data-color="color-2" data-stroke="none"></path> <path d="M2.665 6.711L8.535 3.62C8.827 3.466 9.175 3.466 9.467 3.62L15.337 6.711C15.871 6.992 15.871 7.757 15.337 8.038L9.467 11.129C9.175 11.283 8.827 11.283 8.535 11.129L2.665 8.038C2.131 7.757 2.131 6.992 2.665 6.711Z" stroke="black" stroke-width="1.5" stroke-linecap="round" stroke-linejoin="round" fill="none"></path> <path d="M15.736 10.625C15.736 10.886 15.602 11.148 15.335 11.289L9.46499 14.38C9.17299 14.534 8.82499 14.534 8.53299 14.38L2.66299 11.289C2.39599 11.148 2.26199 10.887 2.26199 10.625" stroke="black" stroke-width="1.5" stroke-linecap="round" stroke-linejoin="round" fill="none"></path></svg>