<svg xmlns="http://www.w3.org/2000/svg" xmlns:xlink="http://www.w3.org/1999/xlink" x="0px" y="0px" width="18px" height="18px" viewBox="0 0 18 18"><path opacity="0.3" d="M11.126 10.768L17.066 12.938C17.316 13.029 17.309 13.386 17.055 13.467L14.336 14.337L13.466 17.056C13.385 17.31 13.028 17.317 12.937 17.067L10.767 11.127C10.685 10.904 10.902 10.687 11.126 10.768Z" fill="#000" data-color="color-2" data-stroke="none"></path> <path d="M11.126 10.768L17.066 12.938C17.316 13.029 17.309 13.386 17.055 13.467L14.336 14.337L13.466 17.056C13.385 17.31 13.028 17.317 12.937 17.067L10.767 11.127C10.685 10.904 10.902 10.687 11.126 10.768Z" stroke="black" stroke-width="1.5" stroke-linecap="round" stroke-linejoin="round" fill="none"></path> <path d="M5.75 8.25H8.75" stroke="black" stroke-width="1.5" stroke-linecap="round" stroke-linejoin="round" fill="none"></path> <path d="M5.75 5.25H11.75" stroke="black" stroke-width="1.5" stroke-linecap="round" stroke-linejoin="round" fill="none"></path> <path d="M14.75 8.8981V3.75C14.75 2.646 13.855 1.75 12.75 1.75H4.75C3.645 1.75 2.75 2.646 2.75 3.75V12.75C2.75 13.854 3.645 14.75 4.75 14.75H8.8967" stroke="black" stroke-width="1.5" stroke-linecap="round" stroke-linejoin="round" fill="none"></path></svg>