<svg xmlns="http://www.w3.org/2000/svg" xmlns:xlink="http://www.w3.org/1999/xlink" x="0px" y="0px" width="18px" height="18px" viewBox="0 0 18 18"><line x1="9" y1="6.75" x2="9" y2="11.25" fill="none" stroke="#000" stroke-linecap="round" stroke-linejoin="round" stroke-width="1.5"></line><line x1="11.25" y1="9" x2="6.75" y2="9" fill="none" stroke="#000" stroke-linecap="round" stroke-linejoin="round" stroke-width="1.5"></line><path d="m6.25,2v1.75c0,1.1046-.8954,2-2,2h-2.25v-2.75c0-.5523.4477-1,1-1h3.25Z" fill="#000" opacity=".3" stroke-width="0" data-color="color-2"></path><path d="m11.75,2v1.75c0,1.1046.8954,2,2,2h2.25s0-2.75,0-2.75c0-.5523-.4477-1-1-1h-3.25Z" fill="#000" opacity=".3" stroke-width="0" data-color="color-2"></path><path d="m6.25,16v-1.75c0-1.1046-.8954-2-2-2h-2.25v2.75c0,.5523.4477,1,1,1h3.25Z" fill="#000" opacity=".3" stroke-width="0" data-color="color-2"></path><path d="m11.75,16v-1.75c0-1.1046.8954-2,2-2h2.25s0,2.75,0,2.75c0,.5523-.4477,1-1,1h-3.25Z" fill="#000" opacity=".3" stroke-width="0" data-color="color-2"></path><path d="m2.25,5.75h2c1.105,0,2-.895,2-2v-1.5" fill="none" stroke="#000" stroke-linecap="round" stroke-linejoin="round" stroke-width="1.5"></path><path d="m15.75,5.75h-2c-1.105,0-2-.895-2-2v-1.5" fill="none" stroke="#000" stroke-linecap="round" stroke-linejoin="round" stroke-width="1.5"></path><path d="m2.25,12.25h2c1.105,0,2,.895,2,2v1.5" fill="none" stroke="#000" stroke-linecap="round" stroke-linejoin="round" stroke-width="1.5"></path><path d="m15.75,12.25h-2c-1.105,0-2,.895-2,2v1.5" fill="none" stroke="#000" stroke-linecap="round" stroke-linejoin="round" stroke-width="1.5"></path></svg>