<svg xmlns="http://www.w3.org/2000/svg" xmlns:xlink="http://www.w3.org/1999/xlink" x="0px" y="0px" width="18px" height="18px" viewBox="0 0 18 18"><path d="M7.75 12.25H10.25C10.8023 12.25 11.25 11.8023 11.25 11.25L11.25 3.75C11.25 3.19771 10.8023 2.75 10.25 2.75H7.75C7.19772 2.75 6.75 3.19771 6.75 3.75L6.75 11.25C6.75 11.8023 7.19772 12.25 7.75 12.25Z" fill="#000" fill-opacity="0.3" data-color="color-2" data-stroke="none"></path> <path d="M16.25 15.25H1.75" stroke="black" stroke-width="1.5" stroke-linecap="round" stroke-linejoin="round" fill="none"></path> <path d="M7.75 12.25H10.25C10.8023 12.25 11.25 11.8023 11.25 11.25L11.25 3.75C11.25 3.19771 10.8023 2.75 10.25 2.75H7.75C7.19772 2.75 6.75 3.19771 6.75 3.75L6.75 11.25C6.75 11.8023 7.19772 12.25 7.75 12.25Z" stroke="black" stroke-width="1.5" stroke-linecap="round" stroke-linejoin="round" fill="none"></path></svg>