<svg xmlns="http://www.w3.org/2000/svg" xmlns:xlink="http://www.w3.org/1999/xlink" x="0px" y="0px" width="18px" height="18px" viewBox="0 0 18 18"><path d="M13.25 2.75H4.75C3.64543 2.75 2.75 3.64543 2.75 4.75V13.25C2.75 14.3546 3.64543 15.25 4.75 15.25H13.25C14.3546 15.25 15.25 14.3546 15.25 13.25V4.75C15.25 3.64543 14.3546 2.75 13.25 2.75Z" fill="#000" fill-opacity="0.3" data-color="color-2" data-stroke="none"></path> <path d="M13.25 2.75H4.75C3.64543 2.75 2.75 3.64543 2.75 4.75V13.25C2.75 14.3546 3.64543 15.25 4.75 15.25H13.25C14.3546 15.25 15.25 14.3546 15.25 13.25V4.75C15.25 3.64543 14.3546 2.75 13.25 2.75Z" stroke="black" stroke-width="1.5" stroke-linecap="round" stroke-linejoin="round" fill="none"></path> <path d="M10.25 7.75H7.75V10.25H10.25V7.75Z" stroke="black" stroke-width="1.5" stroke-linecap="round" stroke-linejoin="round" fill="none"></path> <path d="M6.5 5.25C5.81 5.25 5.25 5.81 5.25 6.5C5.25 7.19 5.81 7.75 6.5 7.75H7.75V6.5C7.75 5.81 7.19 5.25 6.5 5.25Z" stroke="black" stroke-width="1.5" stroke-linecap="round" stroke-linejoin="round" fill="none"></path> <path d="M12.75 6.5C12.75 5.81 12.19 5.25 11.5 5.25C10.81 5.25 10.25 5.81 10.25 6.5V7.75H11.5C12.19 7.75 12.75 7.19 12.75 6.5Z" stroke="black" stroke-width="1.5" stroke-linecap="round" stroke-linejoin="round" fill="none"></path> <path d="M11.5 12.75C12.19 12.75 12.75 12.19 12.75 11.5C12.75 10.81 12.19 10.25 11.5 10.25H10.25V11.5C10.25 12.19 10.81 12.75 11.5 12.75Z" stroke="black" stroke-width="1.5" stroke-linecap="round" stroke-linejoin="round" fill="none"></path> <path d="M5.25 11.5C5.25 12.19 5.81 12.75 6.5 12.75C7.19 12.75 7.75 12.19 7.75 11.5V10.25H6.5C5.81 10.25 5.25 10.81 5.25 11.5Z" stroke="black" stroke-width="1.5" stroke-linecap="round" stroke-linejoin="round" fill="none"></path></svg>