<svg xmlns="http://www.w3.org/2000/svg" xmlns:xlink="http://www.w3.org/1999/xlink" x="0px" y="0px" width="18px" height="18px" viewBox="0 0 18 18"><path d="M4.75 16.25C5.99264 16.25 7 15.2426 7 14C7 12.7574 5.99264 11.75 4.75 11.75C3.50736 11.75 2.5 12.7574 2.5 14C2.5 15.2426 3.50736 16.25 4.75 16.25Z" fill="#000" fill-opacity="0.3" data-color="color-2" data-stroke="none"></path> <path d="M13.25 16.25C14.4926 16.25 15.5 15.2426 15.5 14C15.5 12.7574 14.4926 11.75 13.25 11.75C12.0074 11.75 11 12.7574 11 14C11 15.2426 12.0074 16.25 13.25 16.25Z" fill="#000" fill-opacity="0.3" data-color="color-2" data-stroke="none"></path> <path d="M13.25 11.75V10.75C13.25 9.645 12.355 8.75 11.25 8.75H9H6.75C5.645 8.75 4.75 9.645 4.75 10.75V11.75" stroke="black" stroke-width="1.5" stroke-linecap="round" stroke-linejoin="round" fill="none"></path> <path d="M9 6.25V8.75" stroke="black" stroke-width="1.5" stroke-linecap="round" stroke-linejoin="round" fill="none"></path> <path d="M4.75 16.25C5.99264 16.25 7 15.2426 7 14C7 12.7574 5.99264 11.75 4.75 11.75C3.50736 11.75 2.5 12.7574 2.5 14C2.5 15.2426 3.50736 16.25 4.75 16.25Z" stroke="black" stroke-width="1.5" stroke-linecap="round" stroke-linejoin="round" fill="none"></path> <path d="M9 6.25C10.2426 6.25 11.25 5.24264 11.25 4C11.25 2.75736 10.2426 1.75 9 1.75C7.75736 1.75 6.75 2.75736 6.75 4C6.75 5.24264 7.75736 6.25 9 6.25Z" stroke="black" stroke-width="1.5" stroke-linecap="round" stroke-linejoin="round" fill="none"></path> <path d="M13.25 16.25C14.4926 16.25 15.5 15.2426 15.5 14C15.5 12.7574 14.4926 11.75 13.25 11.75C12.0074 11.75 11 12.7574 11 14C11 15.2426 12.0074 16.25 13.25 16.25Z" stroke="black" stroke-width="1.5" stroke-linecap="round" stroke-linejoin="round" fill="none"></path></svg>