<svg xmlns="http://www.w3.org/2000/svg" xmlns:xlink="http://www.w3.org/1999/xlink" x="0px" y="0px" width="18px" height="18px" viewBox="0 0 18 18"><path d="M7.25 2.75H5.25C3.59315 2.75 2.25 4.09315 2.25 5.75V12.25C2.25 13.9069 3.59315 15.25 5.25 15.25H7.25C8.90685 15.25 10.25 13.9069 10.25 12.25V5.75C10.25 4.09315 8.90685 2.75 7.25 2.75Z" fill="#000" fill-opacity="0.3" data-color="color-2" data-stroke="none"></path> <path d="M15.25 3.75V14.25" stroke="black" stroke-width="1.5" stroke-linecap="round" stroke-linejoin="round" fill="none"></path> <path d="M13.25 12.25L15.25 14.25L17.25 12.25" stroke="black" stroke-width="1.5" stroke-linecap="round" stroke-linejoin="round" fill="none"></path> <path d="M7.25 2.75H5.25C3.59315 2.75 2.25 4.09315 2.25 5.75V12.25C2.25 13.9069 3.59315 15.25 5.25 15.25H7.25C8.90685 15.25 10.25 13.9069 10.25 12.25V5.75C10.25 4.09315 8.90685 2.75 7.25 2.75Z" stroke="black" stroke-width="1.5" stroke-linecap="round" stroke-linejoin="round" fill="none"></path> <path d="M6.25 6.25V8.75" stroke="black" stroke-width="1.5" stroke-linecap="round" stroke-linejoin="round" fill="none"></path></svg>