<svg xmlns="http://www.w3.org/2000/svg" xmlns:xlink="http://www.w3.org/1999/xlink" x="0px" y="0px" width="18px" height="18px" viewBox="0 0 18 18"><path d="M5.106 1.82001L13.606 5.05801C13.994 5.20601 14.25 5.57801 14.25 5.99201V12.012C14.25 12.427 13.994 12.799 13.606 12.946L5.106 16.184C4.451 16.433 3.75 15.95 3.75 15.25V2.75401C3.75 2.05401 4.451 1.57001 5.106 1.82001Z" fill="#000" fill-opacity="0.3" data-color="color-2" data-stroke="none"></path> <path d="M5.106 1.82001L13.606 5.05801C13.994 5.20601 14.25 5.57801 14.25 5.99201V12.012C14.25 12.427 13.994 12.799 13.606 12.946L5.106 16.184C4.451 16.433 3.75 15.95 3.75 15.25V2.75401C3.75 2.05401 4.451 1.57001 5.106 1.82001Z" stroke="black" stroke-width="1.5" stroke-linecap="round" stroke-linejoin="round" fill="none"></path></svg>