<svg xmlns="http://www.w3.org/2000/svg" xmlns:xlink="http://www.w3.org/1999/xlink" x="0px" y="0px" width="18px" height="18px" viewBox="0 0 18 18"><path d="M9 13.75C12.1756 13.75 14.75 11.1756 14.75 8C14.75 4.82436 12.1756 2.25 9 2.25C5.82436 2.25 3.25 4.82436 3.25 8C3.25 11.1756 5.82436 13.75 9 13.75Z" fill="#000" fill-opacity="0.3" data-color="color-2" data-stroke="none"></path> <path d="M5.54 12.585C3.859 12.943 2.75 13.555 2.75 14.25C2.75 15.354 5.548 16.25 9 16.25C12.452 16.25 15.25 15.354 15.25 14.25C15.25 13.555 14.141 12.943 12.46 12.585" stroke="black" stroke-width="1.5" stroke-linecap="round" stroke-linejoin="round" fill="none"></path> <path d="M9 13.75C12.1756 13.75 14.75 11.1756 14.75 8C14.75 4.82436 12.1756 2.25 9 2.25C5.82436 2.25 3.25 4.82436 3.25 8C3.25 11.1756 5.82436 13.75 9 13.75Z" stroke="black" stroke-width="1.5" stroke-linecap="round" stroke-linejoin="round" fill="none"></path></svg>