<svg xmlns="http://www.w3.org/2000/svg" xmlns:xlink="http://www.w3.org/1999/xlink" x="0px" y="0px" width="18px" height="18px" viewBox="0 0 18 18"><path d="M9 13.75C12.7279 13.75 15.75 11.1756 15.75 8C15.75 4.82436 12.7279 2.25 9 2.25C5.27208 2.25 2.25 4.82436 2.25 8C2.25 11.1756 5.27208 13.75 9 13.75Z" fill="#000" fill-opacity="0.3" data-color="color-2" data-stroke="none"></path> <path d="M9 13.75C6.941 13.75 6.788 12.159 7.039 11.553C7.353 10.794 8.243 10.105 10.219 10.281C13.045 10.533 14.683 14.687 9.75 16.75" stroke="black" stroke-width="1.5" stroke-linecap="round" stroke-linejoin="round" fill="none"></path> <path d="M9 13.75C12.7279 13.75 15.75 11.1756 15.75 8C15.75 4.82436 12.7279 2.25 9 2.25C5.27208 2.25 2.25 4.82436 2.25 8C2.25 11.1756 5.27208 13.75 9 13.75Z" stroke="black" stroke-width="1.5" stroke-linecap="round" stroke-linejoin="round" fill="none"></path></svg>