<svg xmlns="http://www.w3.org/2000/svg" xmlns:xlink="http://www.w3.org/1999/xlink" x="0px" y="0px" width="24px" height="24px" viewBox="0 0 24 24"> <path d="M7 16V14.5C7 13.1193 8.11929 12 9.5 12C10.8807 12 12 13.1193 12 14.5V16" stroke="#000" stroke-width="2" stroke-miterlimit="10" stroke-linecap="square" data-color="color-2" fill="none"></path> <path d="M17 16V14.5C17 13.1193 15.8807 12 14.5 12C13.1193 12 12 13.1193 12 14.5V16" stroke="#000" stroke-width="2" stroke-miterlimit="10" stroke-linecap="square" data-color="color-2" fill="none"></path> <path d="M3 20H21" stroke="black" stroke-width="2" data-cap="butt" fill="none"></path> <path d="M3 16H21" stroke="black" stroke-width="2" data-cap="butt" fill="none"></path> <path d="M21 8L21 21" stroke="black" stroke-width="2" stroke-linecap="square" fill="none"></path> <path d="M3 8V21" stroke="black" stroke-width="2" stroke-linecap="square" fill="none"></path> <path d="M12 8V3" stroke="#000" stroke-width="2" data-color="color-2" data-cap="butt" fill="none"></path> <path d="M17 8L16 3" stroke="#000" stroke-width="2" data-color="color-2" data-cap="butt" fill="none"></path> <path d="M7 8L8 3" stroke="#000" stroke-width="2" data-color="color-2" data-cap="butt" fill="none"></path> <path d="M22 8H2L3.78571 3H20.2143L22 8Z" stroke="#000" stroke-width="2" stroke-miterlimit="10" stroke-linecap="square" data-color="color-2" fill="none"></path> </svg>