<svg xmlns="http://www.w3.org/2000/svg" xmlns:xlink="http://www.w3.org/1999/xlink" x="0px" y="0px" width="24px" height="24px" viewBox="0 0 24 24"> <path d="M21 10C21 11.6569 16.9706 13 12 13" stroke="black" stroke-width="2" data-cap="butt" fill="none"></path> <path d="M3 10C3 11.1737 5.02202 12.19 7.96824 12.6829" stroke="black" stroke-width="2" data-cap="butt" fill="none"></path> <path d="M21 14C21 15.6569 16.9706 17 12 17C7.02944 17 3 15.6569 3 14" stroke="black" stroke-width="2" stroke-linecap="square" fill="none"></path> <path d="M21 6V18C21 19.6569 16.9706 21 12 21C7.02944 21 3 19.6569 3 18V6" stroke="black" stroke-width="2" data-cap="butt" fill="none"></path> <path d="M12 9C16.9706 9 21 7.65685 21 6C21 4.34315 16.9706 3 12 3C7.02944 3 3 4.34315 3 6C3 7.17791 5.03656 8.19726 8 8.68816L7.99067 14.9154C7.98901 16.0195 8.88358 16.9154 9.98767 16.9154C11.0927 16.9154 11.9891 16.0205 11.9908 14.9154L12 9Z" stroke="#000" stroke-width="2" stroke-linecap="square" data-color="color-2" fill="none"></path> </svg>