<svg xmlns="http://www.w3.org/2000/svg" xmlns:xlink="http://www.w3.org/1999/xlink" x="0px" y="0px" width="24px" height="24px" viewBox="0 0 24 24"> <path d="M12 7V9" stroke="black" stroke-width="2" stroke-linecap="square" fill="none"></path> <path d="M12 21V13" stroke="#000" stroke-width="2" stroke-linecap="square" data-color="color-2" fill="none"></path> <path d="M21 21V12" stroke="black" stroke-width="2" stroke-linecap="square" fill="none"></path> <path d="M3 21V12" stroke="black" stroke-width="2" stroke-linecap="square" fill="none"></path> <path d="M7 13H17" stroke="#000" stroke-width="2" stroke-linecap="square" data-color="color-2" fill="none"></path> <path d="M21 17H17C16.4477 17 16 17.4477 16 18V21" stroke="black" stroke-width="2" stroke-linecap="square" fill="none"></path> <path d="M3 17H7C7.55228 17 8 17.4477 8 18V21" stroke="black" stroke-width="2" stroke-linecap="square" fill="none"></path> <path d="M15.8353 3.78429C17.0417 4.3013 18.1202 5.05638 19 6V7H5V6C5.87983 5.05638 6.9583 4.3013 8.16466 3.78429C9.37103 3.26727 10.678 3 12 3C13.322 3 14.629 3.26727 15.8353 3.78429Z" stroke="black" stroke-width="2" stroke-miterlimit="10" stroke-linecap="square" fill="none"></path> </svg>