<svg xmlns="http://www.w3.org/2000/svg" xmlns:xlink="http://www.w3.org/1999/xlink" x="0px" y="0px" width="24px" height="24px" viewBox="0 0 24 24"> <path d="M17.5 5H20.426C21.0064 5 21.4648 5.49238 21.4235 6.07125L21.0663 11.0712C21.029 11.5946 20.5935 12 20.0689 12H17" stroke="black" stroke-width="2" data-cap="butt" fill="none"></path> <path d="M9 3V2H15V3" stroke="black" stroke-width="2" data-cap="butt" fill="none"></path> <path d="M12 15V17" stroke="#000" stroke-width="2" stroke-linecap="square" data-color="color-2" fill="none"></path> <path d="M12 11V11.01" stroke="#000" stroke-width="2" stroke-linecap="square" data-color="color-2" fill="none"></path> <path d="M12 7V7.01" stroke="#000" stroke-width="2" stroke-linecap="square" data-color="color-2" fill="none"></path> <path d="M7.49463 15L6.67601 5L5 3.5V3H6.50934H16.4225C17.0076 3 17.4677 3.50003 17.4191 4.08305L16.5093 15" stroke="black" stroke-width="2" stroke-linecap="square" fill="none"></path> <path d="M6.5 22H12H17.5C17.9135 19.5188 17.7721 17.3316 16.8977 15H7.10214C6.22781 17.3316 6.08647 19.5188 6.5 22Z" stroke="#000" stroke-width="2" stroke-miterlimit="10" stroke-linecap="square" data-color="color-2" fill="none"></path> </svg>