<svg xmlns="http://www.w3.org/2000/svg" xmlns:xlink="http://www.w3.org/1999/xlink" x="0px" y="0px" width="24px" height="24px" viewBox="0 0 24 24"> <path d="M12 17V15" stroke="#000" stroke-width="2" stroke-linecap="square" data-color="color-2" fill="none"></path> <path d="M6 17H18" stroke="#000" stroke-width="2" stroke-linecap="square" data-color="color-2" fill="none"></path> <path d="M16.884 6.01779C17.0671 6 17.2459 6 17.4545 6C20 6 22 8.07059 22 10.7059C22 13.5 20 15 18 15.4118V21H6V15.4118C4 15 2 13.5 2 10.7059C2 8.07059 4 6 6.54545 6C6.75414 6 6.93288 6 7.11604 6.01779" stroke="black" stroke-width="2" data-cap="butt" fill="none"></path> <path d="M7.4 9C7.1 8.4 7 7.7 7 7C7 4.2 9.2 2 12 2C14.8 2 17 4.2 17 7C17 7.7 16.9 8.4 16.6 9" stroke="black" stroke-width="2" stroke-linecap="square" fill="none"></path> </svg>