<svg xmlns="http://www.w3.org/2000/svg" xmlns:xlink="http://www.w3.org/1999/xlink" x="0px" y="0px" width="32px" height="32px" viewBox="0 0 32 32"> <path d="M28 21L4 21" stroke="#000" stroke-width="2" data-color="color-2" data-cap="butt" fill="none"></path> <path d="M4 17V18.8462C4 24.7357 6.51029 26.7793 10.4615 29H16H21.5385C25.4897 26.7793 28 24.7357 28 18.8462V17H4Z" stroke="black" stroke-width="2" stroke-linecap="square" fill="none"></path> <path d="M15.6596 3C13.9784 4.19571 14.1539 6.51522 16 7.5C17.8461 8.48478 18.0216 10.8043 16.3405 12" stroke="#000" stroke-width="2" stroke-linecap="square" data-color="color-2" fill="none"></path> <path d="M9.34045 12C11.0216 10.8043 10.8461 8.48478 9 7.5" stroke="#000" stroke-width="2" stroke-linecap="square" data-color="color-2" fill="none"></path> <path d="M22.6596 3C20.9784 4.19571 21.1539 6.51522 23 7.5C24.8461 8.48478 25.0216 10.8043 23.3405 12" stroke="#000" stroke-width="2" stroke-linecap="square" data-color="color-2" fill="none"></path> </svg>