<svg xmlns="http://www.w3.org/2000/svg" xmlns:xlink="http://www.w3.org/1999/xlink" x="0px" y="0px" width="32px" height="32px" viewBox="0 0 32 32"> <path d="M16 11C17.6569 11 19 9.65685 19 8C19 6.34315 17.6569 5 16 5C14.3431 5 13 6.34315 13 8C13 9.65685 14.3431 11 16 11Z" stroke="black" stroke-width="2" stroke-miterlimit="10" data-cap="butt" fill="none"></path> <path d="M16 15C13.0389 15 10.4535 16.6088 9.07025 19" stroke="#000" stroke-width="2" stroke-miterlimit="10" stroke-linecap="square" data-color="color-2" fill="none"></path> <path d="M4 24V22.7C4 16.2383 9.37258 11 16 11C22.6274 11 28 16.2383 28 22.7V24" stroke="black" stroke-width="2" stroke-miterlimit="10" stroke-linecap="square" fill="none"></path> <path d="M30 24H2V28H30V24Z" stroke="black" stroke-width="2" stroke-linecap="square" fill="none"></path> <path d="M26.1596 2C24.4784 3.19571 24.6539 5.51522 26.5 6.5C28.3461 7.48478 28.5216 9.80429 26.8405 11" stroke="#000" stroke-width="2" stroke-linecap="square" data-color="color-2" fill="none"></path> <path d="M5.84045 2C7.52158 3.19571 7.3461 5.51522 5.5 6.5C3.65391 7.48478 3.47842 9.80429 5.15955 11" stroke="#000" stroke-width="2" stroke-linecap="square" data-color="color-2" fill="none"></path> </svg>