<svg xmlns="http://www.w3.org/2000/svg" xmlns:xlink="http://www.w3.org/1999/xlink" x="0px" y="0px" width="32px" height="32px" viewBox="0 0 32 32"> <path d="M3 11.2525L3.5 11.5C4.80196 12.151 7.71573 12.5782 9.34375 10L9.5 10C10.1667 11.1667 12.2 13.1 15 11.5L15.4587 11.2132" stroke="#000" stroke-width="2" data-color="color-2" data-cap="butt" fill="none"></path> <path d="M6 1H6.5C8.15685 1 9.5 2.34315 9.5 4V5.5V5" stroke="#000" stroke-width="2" stroke-linecap="square" data-color="color-2" fill="none"></path> <path d="M15.5 11.5C15.5 27.7353 27.0714 20.6934 30 18L30.5714 18.6476C28.8571 34.1907 3 33.1281 3 12C3 7 5.55511 5.5 9.5 5.5C13.3001 5.5 15.5 6.96739 15.5 11.5Z" stroke="black" stroke-width="2" data-cap="butt" fill="none"></path> <path d="M25 7L26.5 5.5" stroke="#000" stroke-width="2" stroke-linecap="square" data-color="color-2" fill="none"></path> <path d="M20 5V3" stroke="#000" stroke-width="2" stroke-linecap="square" data-color="color-2" fill="none"></path> <path d="M27 12H29" stroke="#000" stroke-width="2" stroke-linecap="square" data-color="color-2" fill="none"></path> </svg>