<svg xmlns="http://www.w3.org/2000/svg" xmlns:xlink="http://www.w3.org/1999/xlink" x="0px" y="0px" width="32px" height="32px" viewBox="0 0 32 32"> <path d="M7 10L8.10523 27.1925C8.20673 28.7713 9.51692 30 11.099 30H20.9009C22.4831 30 23.7933 28.7713 23.8948 27.1925L25 10" stroke="black" stroke-width="2" data-cap="butt" fill="none"></path> <path d="M23 5L21.7764 2.55279C21.607 2.214 21.2607 2 20.882 2H11.118C10.7393 2 10.393 2.214 10.2236 2.55279L9 5H7C5.89543 5 5 5.89543 5 7V10H27V7C27 5.89543 26.1046 5 25 5H23Z" stroke="#000" stroke-width="2" stroke-linecap="round" data-color="color-2" fill="none"></path> <path d="M16 24C13.7909 24 12 22.2091 12 20C12 17.7909 13.7909 16 16 16C18.2091 16 20 17.7909 20 20C20 22.2091 18.2091 24 16 24Z" stroke="#000" stroke-width="2" stroke-miterlimit="10" stroke-linecap="square" data-color="color-2" fill="none"></path> </svg>