<svg xmlns="http://www.w3.org/2000/svg" xmlns:xlink="http://www.w3.org/1999/xlink" x="0px" y="0px" width="32px" height="32px" viewBox="0 0 32 32"> <path d="M20.5 18C21.5356 20.2442 23.903 21.7012 26.5042 21.4596C27.4159 21.3749 28.2609 21.0905 29 20.6536" stroke="#000" stroke-width="2" data-color="color-2" data-cap="butt" fill="none"></path> <path d="M11.5 18C10.4644 20.2442 8.09702 21.7012 5.49577 21.4596C4.58412 21.3749 3.73912 21.0905 3 20.6536" stroke="#000" stroke-width="2" data-color="color-2" data-cap="butt" fill="none"></path> <path d="M16 30C23.732 30 30 23.732 30 16C30 8.26801 23.732 2 16 2C8.26801 2 2 8.26801 2 16C2 23.732 8.26801 30 16 30Z" stroke="black" stroke-width="2" stroke-linecap="square" fill="none"></path> <path d="M16 21C18.7614 21 21 18.7614 21 16C21 13.2386 18.7614 11 16 11C13.2386 11 11 13.2386 11 16C11 18.7614 13.2386 21 16 21Z" stroke="black" stroke-width="2" stroke-linecap="square" fill="none"></path> <path d="M6.5 14.5L6.51333 14.4953" stroke="#000" stroke-width="2" stroke-linecap="square" data-color="color-2" fill="none"></path> <path d="M20.8927 8.46299L22.3481 8.31256" stroke="#000" stroke-width="2" stroke-linecap="square" data-color="color-2" fill="none"></path> <path d="M25.75 16.25C26.4404 16.25 27 15.6904 27 15C27 14.3096 26.4404 13.75 25.75 13.75C25.0596 13.75 24.5 14.3096 24.5 15C24.5 15.6904 25.0596 16.25 25.75 16.25Z" fill="#000" data-color="color-2" data-cap="butt" data-stroke="none"></path> <path d="M11.25 8.5C11.9404 8.5 12.5 7.94036 12.5 7.25C12.5 6.55964 11.9404 6 11.25 6C10.5596 6 10 6.55964 10 7.25C10 7.94036 10.5596 8.5 11.25 8.5Z" fill="#000" data-color="color-2" data-cap="butt" data-stroke="none"></path> </svg>