<svg xmlns="http://www.w3.org/2000/svg" xmlns:xlink="http://www.w3.org/1999/xlink" x="0px" y="0px" width="32px" height="32px" viewBox="0 0 32 32"> <path d="M12.9926 8H18.976" stroke="#000" stroke-width="2" data-color="color-2" data-cap="butt" fill="none"></path> <path d="M14 29H7V13.6032C7 12.0206 7.93314 10.5867 9.38022 9.94585L13 8.34272V3C13 2.44772 13.4477 2 14 2H18C18.5523 2 19 2.44772 19 3V8.34272L22.6198 9.94585C24.0669 10.5867 25 12.0206 25 13.6032V15" stroke="black" stroke-width="2" stroke-miterlimit="10" stroke-linecap="square" fill="none"></path> <path d="M22.5 19C25.119 20.8683 27 22.995 27 25.4872C27 27.9794 24.9851 30 22.5 30C20.0149 30 18 27.9794 18 25.4872C18 22.995 19.881 20.8683 22.5 19Z" stroke="#000" stroke-width="2" stroke-miterlimit="10" stroke-linecap="square" data-color="color-2" fill="none"></path> <path d="M21 15H11V25H14" stroke="black" stroke-width="2" stroke-miterlimit="10" stroke-linecap="square" fill="none"></path> </svg>