<svg xmlns="http://www.w3.org/2000/svg" xmlns:xlink="http://www.w3.org/1999/xlink" x="0px" y="0px" width="32px" height="32px" viewBox="0 0 32 32"> <path d="M10.2836 21H21.8914" stroke="black" stroke-width="2" data-cap="butt" fill="none"></path> <path d="M16 6V4" stroke="black" stroke-width="2" stroke-linecap="square" fill="none"></path> <path d="M20 6V4" stroke="black" stroke-width="2" stroke-linecap="square" fill="none"></path> <path d="M24 6V4" stroke="black" stroke-width="2" stroke-linecap="square" fill="none"></path> <path d="M12 6V4" stroke="black" stroke-width="2" stroke-linecap="square" fill="none"></path> <path d="M8 6V4" stroke="black" stroke-width="2" stroke-linecap="square" fill="none"></path> <path d="M3 6H6" stroke="black" stroke-width="2" stroke-linecap="square" fill="none"></path> <path d="M12.0433 16.7425L12.2485 16.2425L7 29H7.05208" stroke="black" stroke-width="2" stroke-linecap="square" fill="none"></path> <path d="M20.2428 16.6218L20.0555 16.1223L23 24" stroke="black" stroke-width="2" data-cap="butt" fill="none"></path> <path d="M27 27C27 28.6569 25.6569 30 24 30C22.3431 30 21 28.6569 21 27C21 25.3431 22.3431 24 24 24C25.6569 24 27 25.3431 27 27Z" stroke="#000" stroke-width="2" data-color="color-2" data-cap="butt" fill="none"></path> <path d="M16 17C21.5228 17 26 12.5228 26 7V6H6V7C6 12.5228 10.4772 17 16 17Z" stroke="#000" stroke-width="2" data-color="color-2" data-cap="butt" fill="none"></path> </svg>