<svg xmlns="http://www.w3.org/2000/svg" xmlns:xlink="http://www.w3.org/1999/xlink" x="0px" y="0px" width="32px" height="32px" viewBox="0 0 32 32"> <path d="M18 12H21L27.5 6" stroke="#000" stroke-width="2" stroke-linecap="square" data-color="color-2" fill="none"></path> <path d="M14 12H11L4.5 6" stroke="#000" stroke-width="2" stroke-linecap="square" data-color="color-2" fill="none"></path> <path d="M4 17V26C4 27.6569 5.34315 29 7 29H25C26.6569 29 28 27.6569 28 26V17" stroke="black" stroke-width="2" stroke-miterlimit="10" stroke-linecap="square" fill="none"></path> <path d="M12 17H2V15C2 13.3431 3.34315 12 5 12H14" stroke="black" stroke-width="2" stroke-miterlimit="10" stroke-linecap="square" fill="none"></path> <path d="M20 17H30V15C30 13.3431 28.6569 12 27 12H18" stroke="black" stroke-width="2" stroke-miterlimit="10" stroke-linecap="square" fill="none"></path> <path d="M14 4V15H18V4C18 2.89543 17.1046 2 16 2C14.8954 2 14 2.89543 14 4Z" stroke="#000" stroke-width="2" data-color="color-2" data-cap="butt" fill="none"></path> <path d="M16 21V25" stroke="black" stroke-width="2" stroke-linecap="square" fill="none"></path> <path d="M22 21V25" stroke="black" stroke-width="2" stroke-linecap="square" fill="none"></path> <path d="M10 21V25" stroke="black" stroke-width="2" stroke-linecap="square" fill="none"></path> </svg>