<svg xmlns="http://www.w3.org/2000/svg" xmlns:xlink="http://www.w3.org/1999/xlink" x="0px" y="0px" width="32px" height="32px" viewBox="0 0 32 32"> <path d="M16 29V18" stroke="black" stroke-width="2" stroke-linecap="square" fill="none"></path> <path d="M29 23H22C21.4477 23 21 23.4477 21 24V29" stroke="black" stroke-width="2" stroke-linecap="square" fill="none"></path> <path d="M3 23H10C10.5523 23 11 23.4477 11 24V29" stroke="black" stroke-width="2" stroke-linecap="square" fill="none"></path> <path d="M9 18H23" stroke="black" stroke-width="2" stroke-linecap="square" fill="none"></path> <path d="M29 15V29" stroke="black" stroke-width="2" stroke-linecap="square" fill="none"></path> <path d="M3 15V29" stroke="black" stroke-width="2" stroke-linecap="square" fill="none"></path> <path d="M16 14C17.5526 13.2941 23 9.38212 23 5.79624C23 3.69977 21.3116 2 19.2312 2C17.8592 2 16.8344 2.86682 16 3.83953C15.167 2.86541 14.1408 2 12.7688 2C10.687 2 9 3.69977 9 5.79624C9 9.38212 14.4474 13.2941 16 14Z" stroke="#000" stroke-width="2" stroke-miterlimit="10" stroke-linecap="square" data-color="color-2" fill="none"></path> </svg>