<svg xmlns="http://www.w3.org/2000/svg" xmlns:xlink="http://www.w3.org/1999/xlink" x="0px" y="0px" width="32px" height="32px" viewBox="0 0 32 32"> <path d="M23.5 20.7595C20.3571 22.3756 18.6578 22.3667 16 21C13.3422 19.6333 11.6429 19.6244 8.5 21.2405" stroke="#000" stroke-width="2" data-color="color-2" data-cap="butt" fill="none"></path> <path d="M8 11V10C8 5.58172 11.5817 2 16 2C16.8148 2 17.6011 2.1218 18.3418 2.34819" stroke="black" stroke-width="2" stroke-linecap="square" fill="none"></path> <path d="M24 11V10C24 7.86958 23.1259 5.91678 21.7681 4.48311L21.9355 4.29688" stroke="black" stroke-width="2" stroke-linecap="square" fill="none"></path> <path d="M13.244 11H15.9107L24 2" stroke="#000" stroke-width="2" stroke-linecap="square" data-color="color-2" fill="none"></path> <path d="M8.66667 15H8L9.33333 30H22.6667L24 15H23.3333" stroke="black" stroke-width="2" stroke-miterlimit="10" stroke-linecap="square" fill="none"></path> <path d="M26 11H6V15H26V11Z" stroke="#000" stroke-width="2" stroke-miterlimit="10" stroke-linecap="square" data-color="color-2" fill="none"></path> <path d="M12 23V24.3333C12 25.0406 12.4214 25.7189 13.1716 26.219C13.9217 26.719 14.9391 27 16 27V25.6667C16 24.9594 15.5786 24.2811 14.8284 23.781C14.0783 23.281 13.0609 23 12 23Z" fill="#000" data-color="color-2" data-cap="butt" data-stroke="none"></path> </svg>