<svg xmlns="http://www.w3.org/2000/svg" xmlns:xlink="http://www.w3.org/1999/xlink" x="0px" y="0px" width="32px" height="32px" viewBox="0 0 32 32"> <path d="M16 28C23.732 28 30 22.6274 30 16C30 9.37258 23.732 4 16 4C8.26801 4 2 9.37258 2 16C2 22.6274 8.26801 28 16 28Z" stroke="black" stroke-width="2" stroke-linecap="square" fill="none"></path> <path d="M16 19C18.2091 19 20 17.6569 20 16C20 14.3431 18.2091 13 16 13C13.7909 13 12 14.3431 12 16C12 17.6569 13.7909 19 16 19Z" stroke="black" stroke-width="2" stroke-linecap="square" fill="none"></path> <path d="M16 8V9" stroke="#000" stroke-width="2" stroke-linecap="square" data-color="color-2" fill="none"></path> <path d="M16 23V24" stroke="#000" stroke-width="2" stroke-linecap="square" data-color="color-2" fill="none"></path> <path d="M9.3446 10.3467L10.0517 11.0538" stroke="#000" stroke-width="2" stroke-linecap="square" data-color="color-2" fill="none"></path> <path d="M21.9512 20.9533L22.6583 21.6604" stroke="#000" stroke-width="2" stroke-linecap="square" data-color="color-2" fill="none"></path> <path d="M22.6583 10.3396L21.9512 11.0467" stroke="#000" stroke-width="2" stroke-linecap="square" data-color="color-2" fill="none"></path> <path d="M10.0517 20.9462L9.34459 21.6533" stroke="#000" stroke-width="2" stroke-linecap="square" data-color="color-2" fill="none"></path> <path d="M26.005 15.995L25.005 15.995" stroke="#000" stroke-width="2" stroke-linecap="square" data-color="color-2" fill="none"></path> <path d="M7.005 15.995L6.005 15.995" stroke="#000" stroke-width="2" stroke-linecap="square" data-color="color-2" fill="none"></path> </svg>