<svg xmlns="http://www.w3.org/2000/svg" xmlns:xlink="http://www.w3.org/1999/xlink" x="0px" y="0px" width="32px" height="32px" viewBox="0 0 32 32"> <path d="M16 26V29V28.5539" stroke="black" stroke-width="2" stroke-linecap="square" fill="none"></path> <path d="M16 6V3V3.44605" stroke="black" stroke-width="2" stroke-linecap="square" fill="none"></path> <path d="M6 15.9933L3.00667 15.9933L3.45273 15.9933" stroke="black" stroke-width="2" stroke-linecap="square" fill="none"></path> <path d="M26 15.9933L29.0067 15.9933L28.5606 15.9933" stroke="black" stroke-width="2" stroke-linecap="square" fill="none"></path> <path d="M29 26V6C29 4.34315 27.6569 3 26 3H6C4.34315 3 3 4.34315 3 6V26C3 27.6569 4.34315 29 6 29H26C27.6569 29 29 27.6569 29 26Z" stroke="black" stroke-width="2" stroke-linecap="square" fill="none"></path> <path d="M8.49998 8.5L14 14L13.5982 13.5982" stroke="#000" stroke-width="2" stroke-linecap="square" data-color="color-2" fill="none"></path> <path d="M20.5 20.5L18 18L18.3665 18.3665" stroke="#000" stroke-width="2" stroke-linecap="square" data-color="color-2" fill="none"></path> <path d="M16 19C17.6569 19 19 17.6569 19 16C19 14.3431 17.6569 13 16 13C14.3431 13 13 14.3431 13 16C13 17.6569 14.3431 19 16 19Z" stroke="#000" stroke-width="2" stroke-linecap="square" data-color="color-2" fill="none"></path> </svg>