<svg xmlns="http://www.w3.org/2000/svg" xmlns:xlink="http://www.w3.org/1999/xlink" x="0px" y="0px" width="32px" height="32px" viewBox="0 0 32 32"> <path d="M11 21L21 21" stroke="#000" stroke-width="2" data-color="color-2" data-cap="butt" fill="none"></path> <path d="M5 8L27 8" stroke="black" stroke-width="2" stroke-linecap="square" fill="none"></path> <path d="M24 2H8C6.34315 2 5 3.34315 5 5V27C5 28.6569 6.34315 30 8 30H24C25.6569 30 27 28.6569 27 27V5C27 3.34315 25.6569 2 24 2Z" stroke="black" stroke-width="2" stroke-miterlimit="10" stroke-linecap="square" fill="none"></path> <path d="M18.7947 14.0284C18.9143 14.0168 19.894 14.0052 20.0303 14.0052C21.6933 14.0052 23 15.3575 23 17.0786C23 18.9034 21.6 21.0362 20.2 21.2767H20V25H11.9697V21.2767H11.8C10.4 21.0362 9 18.9034 9 17.0786C9 15.3575 10.3067 14.0052 11.9697 14.0052C12.106 14.0052 13.034 13.9935 13.1537 14.0052" stroke="#000" stroke-width="2" data-color="color-2" data-cap="butt" fill="none"></path> <path d="M13 16L13 15C13 13.3431 14.3431 12 16 12V12C17.6569 12 19 13.3431 19 15V16" stroke="#000" stroke-width="2" stroke-linecap="square" data-color="color-2" fill="none"></path> </svg>