<svg xmlns="http://www.w3.org/2000/svg" xmlns:xlink="http://www.w3.org/1999/xlink" x="0px" y="0px" width="48px" height="48px" viewBox="0 0 48 48"> <path d="M23.9348 23L25.5619 36.5259" stroke="black" stroke-width="2" data-cap="butt" fill="none"></path> <path d="M14.2745 37.1015C18.2688 38.5481 20.5348 38.0494 24 37C27.4688 35.9495 29.7359 35.4508 33.738 36.9031" stroke="#000" stroke-width="2" data-color="color-2" data-cap="butt" fill="none"></path> <path d="M16.6676 7.5C13.8284 9.69464 12 13.1338 12 17V18H12.5" stroke="black" stroke-width="2" stroke-linecap="square" fill="none"></path> <path d="M14 2H21L23.1522 18H23.9348" stroke="black" stroke-width="2" stroke-linecap="square" fill="none"></path> <path d="M14 23H13L15 45H33L35 23H34" stroke="black" stroke-width="2" stroke-miterlimit="10" stroke-linecap="square" fill="none"></path> <path d="M26.5 5.2608C31.9275 6.41097 36 11.2299 36 17V18H35.5" stroke="black" stroke-width="2" stroke-linecap="square" fill="none"></path> <path d="M39 18H9V23H39V18Z" stroke="#000" stroke-width="2" stroke-miterlimit="10" stroke-linecap="square" data-color="color-2" fill="none"></path> </svg>