<svg xmlns="http://www.w3.org/2000/svg" xmlns:xlink="http://www.w3.org/1999/xlink" x="0px" y="0px" width="48px" height="48px" viewBox="0 0 48 48"> <path d="M27 18V11" stroke="#000" stroke-width="2" stroke-linecap="square" data-color="color-2" fill="none"></path> <path d="M34 18V11" stroke="#000" stroke-width="2" stroke-linecap="square" data-color="color-2" fill="none"></path> <path d="M9 43V15V16.5" stroke="#000" stroke-width="2" stroke-linecap="square" data-color="color-2" fill="none"></path> <path d="M13 8.96825C13 11.1603 11.2096 15 9 15C6.7904 15 5 11.1603 5 8.96825C5 6.77619 6.7904 5 9 5C11.2096 5 13 6.77619 13 8.96825Z" stroke="black" stroke-width="2" stroke-linecap="square" fill="none"></path> <path d="M42 18H19V43H42V18Z" stroke="black" stroke-width="2" stroke-miterlimit="10" stroke-linecap="square" fill="none"></path> <path d="M40 13V5H21V13" stroke="black" stroke-width="2" stroke-miterlimit="10" stroke-linecap="square" fill="none"></path> <path d="M25.5 32.2319C25.5 31.4629 26.0556 28 26.0556 28L27.7222 28.5L30.5 25C30.5 25 35.5 28.8049 35.5 32.2319C35.5 35.2718 32.9373 37 30.5 37C28.0627 37 25.5 35.2718 25.5 32.2319Z" stroke="#000" stroke-width="2" stroke-miterlimit="10" stroke-linecap="square" data-color="color-2" fill="none"></path> </svg>