<svg xmlns="http://www.w3.org/2000/svg" xmlns:xlink="http://www.w3.org/1999/xlink" x="0px" y="0px" width="48px" height="48px" viewBox="0 0 48 48"> <path d="M24 46V42V42.7934" stroke="#000" stroke-width="2" stroke-linecap="square" data-color="color-2" fill="none"></path> <path d="M20 45L23 42L22.5867 42.4133" stroke="#000" stroke-width="2" stroke-linecap="square" data-color="color-2" fill="none"></path> <path d="M28 45L25 42L25.2623 42.2623" stroke="#000" stroke-width="2" stroke-linecap="square" data-color="color-2" fill="none"></path> <path d="M29.5 40C37.8738 39.7831 43.7027 36.391 42.9304 28.3057C42.3835 21.8714 35.5799 19.9315 31.5914 15.6014C29.0942 12.672 27.0756 8.92496 26.9212 3H21.0788C20.9243 8.92496 18.9058 12.672 16.4086 15.6014C12.4201 19.9315 5.61652 21.8714 5.06957 28.3057C4.29728 36.391 10.1262 39.7831 18.5 40" stroke="black" stroke-width="2" data-cap="butt" fill="none"></path> <path d="M16.0669 24C15.2307 27.0704 14.4916 31.3754 15.4563 35.1586C16.1693 38.4287 19.2356 42 24 42C28.7644 42 31.8307 38.4287 32.5437 35.1586C33.5084 31.3754 32.7693 27.0704 31.9331 24" stroke="black" stroke-width="2" stroke-linecap="square" fill="none"></path> </svg>