<svg xmlns="http://www.w3.org/2000/svg" xmlns:xlink="http://www.w3.org/1999/xlink" x="0px" y="0px" width="48px" height="48px" viewBox="0 0 48 48"> <path d="M13 30L13 21" stroke="black" stroke-width="2" data-cap="butt" fill="none"></path> <path d="M34 30V5" stroke="black" stroke-width="2" data-cap="butt" fill="none"></path> <path d="M41 5H27V21H41V5Z" stroke="black" stroke-width="2" stroke-linecap="square" fill="none"></path> <path d="M30 30H38V40C38 42.2091 36.2091 44 34 44C31.7909 44 30 42.2091 30 40V30Z" stroke="#000" stroke-width="2" stroke-linecap="square" data-color="color-2" fill="none"></path> <path d="M9 30H17V40C17 42.2091 15.2091 44 13 44C10.7909 44 9 42.2091 9 40V30Z" stroke="#000" stroke-width="2" stroke-linecap="square" data-color="color-2" fill="none"></path> <path d="M19 5V15C19 18.3137 16.3137 21 13 21V21C9.68629 21 7 18.3137 7 15V5" stroke="black" stroke-width="2" stroke-linecap="square" fill="none"></path> </svg>