<svg xmlns="http://www.w3.org/2000/svg" xmlns:xlink="http://www.w3.org/1999/xlink" x="0px" y="0px" width="48px" height="48px" viewBox="0 0 48 48"> <path d="M39 17V15.8284C39 15.298 38.7893 14.7893 38.4142 14.4142L38.1213 14.1213C36.9497 12.9497 36.9497 11.0503 38.1213 9.87868L38.4142 9.58579C38.7893 9.21071 39 8.70201 39 8.17157V7.5C39 6.11929 37.8807 5 36.5 5H12.5C11.1193 5 10 6.11929 10 7.5V7.92328C10 8.59127 10.3505 9.21029 10.9233 9.55397V9.55397C12.7698 10.6619 12.7698 13.3381 10.9233 14.446V14.446C10.3505 14.7897 10 15.4087 10 16.0767L10 17" stroke="#000" stroke-width="2" stroke-miterlimit="10" stroke-linecap="square" data-color="color-2" fill="none"></path> <path d="M39 42V45" stroke="#000" stroke-width="2" stroke-linecap="square" data-color="color-2" fill="none"></path> <path d="M9 42V45" stroke="#000" stroke-width="2" stroke-linecap="square" data-color="color-2" fill="none"></path> <path d="M33 28V31" stroke="black" stroke-width="2" stroke-linecap="square" fill="none"></path> <path d="M38 22L10 22C7.23858 22 5 24.2386 5 27L5 42L43 42L43 27C43 24.2386 40.7614 22 38 22Z" stroke="black" stroke-width="2" stroke-miterlimit="10" stroke-linecap="square" fill="none"></path> <path fill-rule="evenodd" clip-rule="evenodd" d="M12 32.5C12 30.567 13.567 29 15.5 29C17.433 29 19 30.567 19 32.5C19 34.433 17.433 36 15.5 36C13.567 36 12 34.433 12 32.5Z" stroke="#000" stroke-width="2" stroke-linecap="round" stroke-linejoin="round" data-color="color-2" fill="none"></path> <path d="M33 37V35" stroke="black" stroke-width="2" stroke-linecap="square" fill="none"></path> <path d="M30 31H36" stroke="black" stroke-width="2" stroke-linecap="square" fill="none"></path> </svg>