<svg xmlns="http://www.w3.org/2000/svg" xmlns:xlink="http://www.w3.org/1999/xlink" x="0px" y="0px" width="48px" height="48px" viewBox="0 0 48 48"> <path d="M12 16V15C12 8.37258 17.3726 3 24 3C25.3568 3 26.661 3.22518 27.8773 3.64021" stroke="black" stroke-width="2" stroke-linecap="square" fill="none"></path> <path d="M36 16V15C36 13.436 35.7008 11.9419 35.1566 10.5718" stroke="black" stroke-width="2" stroke-linecap="square" fill="none"></path> <path d="M35.25 29.1393C30.5357 31.5634 27.9868 31.5501 24 29.5C20.0132 27.45 17.4643 27.4365 12.75 29.8607" stroke="#000" stroke-width="2" data-color="color-2" data-cap="butt" fill="none"></path> <path d="M23 16H24L35 3" stroke="#000" stroke-width="2" stroke-linecap="square" data-color="color-2" fill="none"></path> <path d="M13 21H12L14.1818 45H33.8182L36 21H35" stroke="black" stroke-width="2" stroke-miterlimit="10" stroke-linecap="square" fill="none"></path> <path d="M39 16H9V21H39V16Z" stroke="#000" stroke-width="2" stroke-miterlimit="10" stroke-linecap="square" data-color="color-2" fill="none"></path> <path d="M24.7702 39.9964C25.7837 35.7511 23.3662 33.628 19.0762 34.0536C18.5717 37.5569 20.5834 40.1087 24.7702 39.9964Z" stroke="#000" stroke-width="2" stroke-linecap="square" data-color="color-2" fill="none"></path> </svg>