<svg xmlns="http://www.w3.org/2000/svg" xmlns:xlink="http://www.w3.org/1999/xlink" x="0px" y="0px" width="48px" height="48px" viewBox="0 0 48 48"> <path d="M5 30C8.31371 30 11 27.3137 11 24C11 20.6863 8.31371 18 5 18" stroke="#000" stroke-width="2" stroke-miterlimit="10" data-color="color-2" data-cap="butt" fill="none"></path> <path d="M10 43L43 43L43 32.0385L41.9017 31.8103C39.6292 31.3384 38 29.3361 38 27.0151C38 24.6805 39.6478 22.6704 41.9371 22.2126L43 22L43 5L31 5L30.7442 7.04633C30.3191 10.4476 27.4277 13 24 13C20.5723 13 17.6809 10.4476 17.2558 7.04633L17 5L5 5L5 38C5 40.7614 7.23857 43 10 43Z" stroke="black" stroke-width="2" stroke-miterlimit="10" stroke-linecap="square" fill="none"></path> <path d="M24.5 37C26.9853 37 29 34.9853 29 32.5C29 30.0147 26.9853 28 24.5 28C22.0147 28 20 30.0147 20 32.5C20 34.9853 22.0147 37 24.5 37Z" stroke="#000" stroke-width="2" stroke-miterlimit="10" data-color="color-2" data-cap="butt" fill="none"></path> <path d="M30.5 23C31.8807 23 33 21.8807 33 20.5C33 19.1193 31.8807 18 30.5 18C29.1193 18 28 19.1193 28 20.5C28 21.8807 29.1193 23 30.5 23Z" stroke="#000" stroke-width="2" stroke-miterlimit="10" data-color="color-2" data-cap="butt" fill="none"></path> </svg>