<svg xmlns="http://www.w3.org/2000/svg" xmlns:xlink="http://www.w3.org/1999/xlink" x="0px" y="0px" width="48px" height="48px" viewBox="0 0 48 48"> <path d="M5.5 31H14V35.5C14 36.8807 15.1193 38 16.5 38V38C17.8807 38 19 36.8807 19 35.5V31L29 31V33.5C29 34.8807 30.1193 36 31.5 36V36C32.8807 36 34 34.8807 34 33.5V31H42.5" stroke="#000" stroke-width="2" data-color="color-2" data-cap="butt" fill="none"></path> <path d="M6 26H42" stroke="#000" stroke-width="2" data-color="color-2" data-cap="butt" fill="none"></path> <path d="M24 18V13" stroke="black" stroke-width="2" data-cap="butt" fill="none"></path> <path d="M5 43L43 43L42.1292 22.7848C42.0139 20.1096 39.8116 18 37.1338 18L10.8662 18C8.18844 18 5.98605 20.1096 5.87081 22.7848L5 43Z" stroke="black" stroke-width="2" stroke-miterlimit="10" stroke-linecap="square" fill="none"></path> <path d="M20 9.02655C20 8.38572 20.4444 5.5 20.4444 5.5L21.7778 5.91667L24 3C24 3 28 6.17073 28 9.02655C28 11.5598 25.9498 13 24 13C22.0502 13 20 11.5598 20 9.02655Z" stroke="#000" stroke-width="2" stroke-miterlimit="10" stroke-linecap="square" data-color="color-2" fill="none"></path> </svg>