<svg xmlns="http://www.w3.org/2000/svg" xmlns:xlink="http://www.w3.org/1999/xlink" x="0px" y="0px" width="48px" height="48px" viewBox="0 0 48 48"> <path d="M21 13L23.5 9H24.5L27 13" stroke="#000" stroke-width="2" stroke-linecap="square" data-color="color-2" fill="none"></path> <path d="M10 9L7 18H41L38 9" stroke="#000" stroke-width="2" stroke-miterlimit="10" data-color="color-2" data-cap="butt" fill="none"></path> <path d="M9 23V40C9 42.7614 11.2386 45 14 45H34C36.7614 45 39 42.7614 39 40V23" stroke="black" stroke-width="2" stroke-miterlimit="10" stroke-linecap="square" fill="none"></path> <path d="M37 3H10C8.34315 3 7 4.34315 7 6C7 7.65685 8.34314 9 10 9H37C38.6569 9 40 7.65685 40 6C40 4.34315 38.6569 3 37 3Z" stroke="#000" stroke-width="2" stroke-miterlimit="10" stroke-linecap="square" data-color="color-2" fill="none"></path> <path d="M33 27H15V39H33V27Z" stroke="black" stroke-width="2" stroke-miterlimit="10" stroke-linecap="square" fill="none"></path> </svg>