<svg xmlns="http://www.w3.org/2000/svg" xmlns:xlink="http://www.w3.org/1999/xlink" x="0px" y="0px" width="48px" height="48px" viewBox="0 0 48 48"> <path d="M7 13L41 13" stroke="black" stroke-width="2" stroke-linecap="square" fill="none"></path> <path d="M14 8L34 8" stroke="#000" stroke-width="2" stroke-linecap="square" data-color="color-2" fill="none"></path> <path d="M36 3H12C9.23858 3 7 5.23858 7 8V40C7 42.7614 9.23858 45 12 45H36C38.7614 45 41 42.7614 41 40V8C41 5.23858 38.7614 3 36 3Z" stroke="black" stroke-width="2" stroke-miterlimit="10" stroke-linecap="square" fill="none"></path> <path d="M18.5 32H29.5" stroke="#000" stroke-width="2" data-color="color-2" data-cap="butt" fill="none"></path> <path d="M28.5455 22H29.0272C31.7736 22 34 24.2264 34 26.9729V26.9729C34 29.3353 32.3379 31.3716 30.0234 31.8449L29.4545 31.9612V37H18.5455V31.9612L17.9766 31.8449C15.6621 31.3716 14 29.3353 14 26.9729V26.9729C14 24.2264 16.2264 22 18.9728 22L19.4545 22" stroke="#000" stroke-width="2" data-color="color-2" data-cap="butt" fill="none"></path> <path d="M19 26L19 24C19 21.2386 21.2386 19 24 19V19C26.7614 19 29 21.2386 29 24V26" stroke="#000" stroke-width="2" stroke-linecap="square" data-color="color-2" fill="none"></path> </svg>