<svg xmlns="http://www.w3.org/2000/svg" xmlns:xlink="http://www.w3.org/1999/xlink" x="0px" y="0px" width="48px" height="48px" viewBox="0 0 48 48"> <path d="M38.9531 45L39 45L36.5 39L36.637 39.3289" stroke="black" stroke-width="2" stroke-linecap="square" fill="none"></path> <path d="M9.04686 45L8.99998 45L11.5 39L11.363 39.3289" stroke="black" stroke-width="2" stroke-linecap="square" fill="none"></path> <path d="M18 9V5.5C18 4.11929 19.1193 3 20.5 3H27.5C28.8807 3 30 4.11929 30 5.5V9" stroke="black" stroke-width="2" data-cap="butt" fill="none"></path> <path d="M29 30V28H19V30" stroke="#000" stroke-width="2" stroke-linecap="square" data-color="color-2" fill="none"></path> <path d="M41.8901 28C40.8953 36.9999 33.2651 44 24 44C14.7349 44 7.10475 36.9999 6.10986 28" stroke="black" stroke-width="2" stroke-linecap="square" fill="none"></path> <path d="M24 18C26.2091 18 28 16.8807 28 15.5C28 14.1193 26.2091 13 24 13C21.7909 13 20 14.1193 20 15.5C20 16.8807 21.7909 18 24 18Z" stroke="#000" stroke-width="2" stroke-linecap="square" data-color="color-2" fill="none"></path> <path d="M6.24887 23C7.67711 14.4869 15.081 8 24 8C32.919 8 40.3229 14.4869 41.7511 23" stroke="black" stroke-width="2" data-cap="butt" fill="none"></path> <path d="M4 23H44" stroke="black" stroke-width="2" stroke-linecap="square" fill="none"></path> </svg>