<svg xmlns="http://www.w3.org/2000/svg" xmlns:xlink="http://www.w3.org/1999/xlink" x="0px" y="0px" width="48px" height="48px" viewBox="0 0 48 48"> <path d="M12.5 30.5L9.5 33.5L9.7644 33.2356" stroke="black" stroke-width="2" stroke-linecap="square" fill="none"></path> <path d="M17.5 35.5L14.5 38.5L14.7644 38.2356" stroke="black" stroke-width="2" stroke-linecap="square" fill="none"></path> <path d="M5 43.02L5.02 43" stroke="#000" stroke-width="2" stroke-linecap="square" data-color="color-2" fill="none"></path> <path d="M4 37.02L4.02 37" stroke="#000" stroke-width="2" stroke-linecap="square" data-color="color-2" fill="none"></path> <path d="M11 44.02L11.02 44" stroke="#000" stroke-width="2" stroke-linecap="square" data-color="color-2" fill="none"></path> <path d="M12.7027 22.449L23.2386 6.66916C24.9899 4.04628 28.7024 3.67999 30.9325 5.91006L36.5224 11.5L42.1037 17.0813C44.3366 19.3142 43.966 23.0322 41.3364 24.7806L25.5148 35.2994" stroke="#000" stroke-width="2" stroke-linecap="square" data-color="color-2" fill="none"></path> <path d="M12.4216 22.2795L25.7268 35.5847L22.4567 39.979C20.9999 41.9366 18.1448 42.1448 16.4193 40.4193L12 36L7.58699 31.587C5.8615 29.8615 6.06975 27.0064 8.02737 25.5496L12.4216 22.2795Z" stroke="black" stroke-width="2" stroke-linecap="square" fill="none"></path> </svg>