<svg xmlns="http://www.w3.org/2000/svg" xmlns:xlink="http://www.w3.org/1999/xlink" x="0px" y="0px" width="48px" height="48px" viewBox="0 0 48 48"> <path d="M34.8216 13.1784L28.7567 19.2433" stroke="#000" stroke-width="2" data-color="color-2" data-cap="butt" fill="none"></path> <path d="M29.8152 29.5305L34.4363 24.8805L28.7966 19.2054L23.1568 13.5304L18.4363 18.2805" stroke="black" stroke-width="2" stroke-linecap="square" fill="none"></path> <path d="M4.99809 43.0019L11.4988 36.5012L11.0812 36.9187" stroke="#000" stroke-width="2" stroke-linecap="square" data-color="color-2" fill="none"></path> <path d="M36.0254 4.81484C37.7324 3.12175 40.1223 3.9683 42 6C43.8777 8.0317 45.0727 10.2327 43.3656 11.9258C41.3172 13.9575 36.1961 14.4654 34.8305 13.2803C33.6355 11.9258 34.1476 6.84654 36.0254 4.81484Z" stroke="black" stroke-width="2" stroke-linecap="square" fill="none"></path> <path d="M15 38C17.7614 38 20 35.7614 20 33C20 30.2386 17.7614 28 15 28C12.2386 28 10 30.2386 10 33C10 35.7614 12.2386 38 15 38Z" stroke="black" stroke-width="2" stroke-linecap="square" fill="none"></path> <path d="M26.8322 37.7078L32.2835 32.0618L15.7348 15.7078L10.2835 21.1592L18.5579 29.4335L26.8322 37.7078Z" stroke="black" stroke-width="2" stroke-linecap="square" fill="none"></path> </svg>