<svg xmlns="http://www.w3.org/2000/svg" xmlns:xlink="http://www.w3.org/1999/xlink" x="0px" y="0px" width="48px" height="48px" viewBox="0 0 48 48"> <path d="M24 2V5" stroke="#000" stroke-width="2" stroke-miterlimit="10" stroke-linecap="square" data-color="color-2" fill="none"></path> <path d="M30.5 4L29 6" stroke="#000" stroke-width="2" stroke-miterlimit="10" stroke-linecap="square" data-color="color-2" fill="none"></path> <path d="M17.5 4L19 6" stroke="#000" stroke-width="2" stroke-miterlimit="10" stroke-linecap="square" data-color="color-2" fill="none"></path> <path d="M39.1677 42.4721L36.3207 31.8469" stroke="black" stroke-width="2" data-cap="butt" fill="none"></path> <path d="M26.9017 19.8768L38.5283 16.7615" stroke="#000" stroke-width="2" data-color="color-2" data-cap="butt" fill="none"></path> <path d="M25.09 13.1154L28.9723 27.6042C29.8299 30.805 33.12 32.7045 36.3208 31.8469C39.5215 30.9892 41.421 27.6992 40.5634 24.4984L36.6811 10.0095L25.09 13.1154Z" stroke="black" stroke-width="2" stroke-linecap="square" fill="none"></path> <path d="M34.3381 43.7661L43.9974 41.1779" stroke="black" stroke-width="2" stroke-linecap="square" fill="none"></path> <path d="M8.831 42.4721L11.678 31.8469" stroke="black" stroke-width="2" data-cap="butt" fill="none"></path> <path d="M21.097 19.8768L9.47046 16.7615" stroke="#000" stroke-width="2" data-color="color-2" data-cap="butt" fill="none"></path> <path d="M22.9088 13.1154L19.0265 27.6042C18.1688 30.805 14.8788 32.7045 11.678 31.8469C8.4772 30.9892 6.57771 27.6992 7.43536 24.4984L11.3176 10.0095L22.9088 13.1154Z" stroke="black" stroke-width="2" stroke-linecap="square" fill="none"></path> <path d="M13.6606 43.7661L4.00136 41.1779" stroke="black" stroke-width="2" stroke-linecap="square" fill="none"></path> </svg>