<svg xmlns="http://www.w3.org/2000/svg" xmlns:xlink="http://www.w3.org/1999/xlink" x="0px" y="0px" width="48px" height="48px" viewBox="0 0 48 48"> <path d="M21 10V4L27 3V10" stroke="#000" stroke-width="2" stroke-linecap="square" data-color="color-2" fill="none"></path> <path d="M12 33L23.7415 24.3896C25.6423 22.9957 28.2584 23.1186 30.0201 24.6846L36 30" stroke="#000" stroke-width="2" data-color="color-2" data-cap="butt" fill="none"></path> <path d="M12 21V40C12 42.7614 14.2386 45 17 45H31C33.7614 45 36 42.7614 36 40V21" stroke="black" stroke-width="2" stroke-linecap="square" fill="none"></path> <path d="M38 16H10L9.97033 15.822C9.46239 12.7743 11.8126 10 14.9023 10H33.0977C36.1874 10 38.5376 12.7743 38.0297 15.822L38 16Z" stroke="black" stroke-width="2" stroke-linecap="square" fill="none"></path> <path d="M18 37L18.0141 37.0141" stroke="#000" stroke-width="2" stroke-miterlimit="10" stroke-linecap="square" data-color="color-2" fill="none"></path> <path d="M26 31L26.0141 31.0141" stroke="#000" stroke-width="2" stroke-miterlimit="10" stroke-linecap="square" data-color="color-2" fill="none"></path> <path d="M31 37L31.0141 37.0141" stroke="#000" stroke-width="2" stroke-miterlimit="10" stroke-linecap="square" data-color="color-2" fill="none"></path> <path d="M26 40L26.0141 40.0141" stroke="#000" stroke-width="2" stroke-miterlimit="10" stroke-linecap="square" data-color="color-2" fill="none"></path> </svg>