<svg xmlns="http://www.w3.org/2000/svg" xmlns:xlink="http://www.w3.org/1999/xlink" x="0px" y="0px" width="48px" height="48px" viewBox="0 0 48 48"> <path d="M21 39V43C21 44.6569 22.3431 46 24 46V46C25.6569 46 27 44.6569 27 43V39" stroke="#000" stroke-width="2" stroke-linecap="square" data-color="color-2" fill="none"></path> <path d="M27 34V15.5C27 14.1193 28.1193 13 29.5 13V13C30.8807 13 32 14.1193 32 15.5V34" stroke="#000" stroke-width="2" data-color="color-2" data-cap="butt" fill="none"></path> <path d="M16 34V15.5C16 14.1193 17.1193 13 18.5 13V13C19.8807 13 21 14.1193 21 15.5V34" stroke="#000" stroke-width="2" data-color="color-2" data-cap="butt" fill="none"></path> <path d="M11 34V16C11 8.8203 16.8203 3 24 3C31.1797 3 37 8.8203 37 16V34H11Z" stroke="black" stroke-width="2" data-cap="butt" fill="none"></path> </svg>