<svg xmlns="http://www.w3.org/2000/svg" xmlns:xlink="http://www.w3.org/1999/xlink" x="0px" y="0px" width="48px" height="48px" viewBox="0 0 48 48"> <path d="M31.0625 13L29.9375 19" stroke="black" stroke-width="2" stroke-linecap="square" fill="none"></path> <path d="M25 8C26.6569 8 28 6.65685 28 5C28 3.34315 26.6569 2 25 2C23.3431 2 22 3.34315 22 5C22 6.65685 23.3431 8 25 8Z" stroke="#000" stroke-width="2" data-color="color-2" data-cap="butt" fill="none"></path> <path d="M37.5 8H44L43.3821 15.4152C43.1661 18.0067 40.9998 20 38.3993 20H35.5" stroke="#000" stroke-width="2" data-color="color-2" data-cap="butt" fill="none"></path> <path d="M17 25V30" stroke="black" stroke-width="2" data-cap="butt" fill="none"></path> <path d="M33 25V30" stroke="black" stroke-width="2" data-cap="butt" fill="none"></path> <path d="M38 8H9V11L14 15L15.5 25H34.5L38 8Z" stroke="black" stroke-width="2" stroke-linecap="square" fill="none"></path> <path d="M12 45H38V44L34.5 30H15.5L12 44V45Z" stroke="black" stroke-width="2" stroke-linecap="square" fill="none"></path> <path d="M21.5 39C20.1193 39 19 38.1046 19 37C19 35.8954 20.1193 35 21.5 35C22.8807 35 24 35.8954 24 37C24 38.1046 22.8807 39 21.5 39Z" stroke="#000" stroke-width="2" data-color="color-2" data-cap="butt" fill="none"></path> </svg>