<svg xmlns="http://www.w3.org/2000/svg" xmlns:xlink="http://www.w3.org/1999/xlink" x="0px" y="0px" width="18px" height="18px" viewBox="0 0 18 18"><path d="M3.75 4.75H14.25C14.802 4.75 15.25 5.198 15.25 5.75V7.5C15.25 10.949 12.449 13.75 9 13.75C5.551 13.75 2.75 10.949 2.75 7.5V5.75C2.75 5.198 3.198 4.75 3.75 4.75Z" fill="#000" fill-opacity="0.3" data-color="color-2" data-stroke="none"></path> <path d="M6.25 4.75V1.75" stroke="black" stroke-width="1.5" stroke-linecap="round" stroke-linejoin="round" fill="none"></path> <path d="M11.75 4.75V1.75" stroke="black" stroke-width="1.5" stroke-linecap="round" stroke-linejoin="round" fill="none"></path> <path d="M3.75 4.75H14.25C14.802 4.75 15.25 5.198 15.25 5.75V7.5C15.25 10.949 12.449 13.75 9 13.75C5.551 13.75 2.75 10.949 2.75 7.5V5.75C2.75 5.198 3.198 4.75 3.75 4.75Z" stroke="black" stroke-width="1.5" stroke-linecap="round" stroke-linejoin="round" fill="none"></path> <path d="M9 16.25V13.75" stroke="black" stroke-width="1.5" stroke-linecap="round" stroke-linejoin="round" fill="none"></path></svg>