<svg xmlns="http://www.w3.org/2000/svg" xmlns:xlink="http://www.w3.org/1999/xlink" x="0px" y="0px" width="18px" height="18px" viewBox="0 0 18 18"><path d="M1.829 8.70899L5.523 10.674C6.065 10.963 6.717 10.958 7.255 10.662L16.179 5.75599C16.611 5.51899 16.607 4.89699 16.172 4.66499L12.478 2.69999C11.936 2.41099 11.284 2.41599 10.746 2.71199L1.821 7.61799C1.389 7.85499 1.393 8.47699 1.828 8.70899H1.829Z" fill="#000" fill-opacity="0.3" data-color="color-2" data-stroke="none"></path> <path d="M1.829 8.70899L5.523 10.674C6.065 10.963 6.717 10.958 7.255 10.662L16.179 5.75599C16.611 5.51899 16.607 4.89699 16.172 4.66499L12.478 2.69999C11.936 2.41099 11.284 2.41599 10.746 2.71199L1.821 7.61799C1.389 7.85499 1.393 8.47699 1.828 8.70899H1.829Z" stroke="black" stroke-width="1.5" stroke-linecap="round" stroke-linejoin="round" fill="none"></path> <path d="M2.462 11.878L1.821 12.23C1.389 12.467 1.393 13.089 1.828 13.321L5.522 15.286C6.064 15.575 6.716 15.57 7.254 15.274L16.178 10.368C16.61 10.131 16.606 9.50901 16.171 9.27701L15.557 8.95001" stroke="black" stroke-width="1.5" stroke-linecap="round" stroke-linejoin="round" fill="none"></path></svg>