<svg xmlns="http://www.w3.org/2000/svg" xmlns:xlink="http://www.w3.org/1999/xlink" x="0px" y="0px" width="18px" height="18px" viewBox="0 0 18 18"><path d="M4.75 15.25V13.25H13.25V15.25C13.25 15.8023 12.8023 16.25 12.25 16.25H5.75C5.19772 16.25 4.75 15.8023 4.75 15.25Z" fill="#000" fill-opacity="0.3" data-color="color-2" data-stroke="none"></path> <path fill-rule="evenodd" clip-rule="evenodd" d="M5.75 1.75H12.25C12.8023 1.75 13.25 2.19772 13.25 2.75V4.75057H4.75V2.75C4.75 2.19772 5.19772 1.75 5.75 1.75Z" fill="#000" fill-opacity="0.3" data-color="color-2" data-stroke="none"></path> <path d="M4.75 13.25H13.25" stroke="black" stroke-width="1.5" stroke-linecap="round" stroke-linejoin="round" fill="none"></path> <path d="M4.75 4.75H13.25" stroke="black" stroke-width="1.5" stroke-linecap="round" stroke-linejoin="round" fill="none"></path> <path d="M12.25 1.75H5.75C5.198 1.75 4.75 2.198 4.75 2.75V15.25C4.75 15.802 5.198 16.25 5.75 16.25H12.25C12.802 16.25 13.25 15.802 13.25 15.25V2.75C13.25 2.198 12.802 1.75 12.25 1.75Z" stroke="black" stroke-width="1.5" stroke-linecap="round" stroke-linejoin="round" fill="none"></path></svg>