<svg xmlns="http://www.w3.org/2000/svg" xmlns:xlink="http://www.w3.org/1999/xlink" x="0px" y="0px" width="18px" height="18px" viewBox="0 0 18 18"><path d="M16.25 14.75V9.25C16.25 8.422 15.578 7.75 14.75 7.75H12.25C11.422 7.75 10.75 8.422 10.75 9.25V14.75C10.75 15.578 11.422 16.25 12.25 16.25H14.75C15.578 16.25 16.25 15.578 16.25 14.75Z" fill="#000" fill-opacity="0.3" data-color="color-2" data-stroke="none"></path> <path d="M16.25 14.75V9.25C16.25 8.422 15.578 7.75 14.75 7.75H12.25C11.422 7.75 10.75 8.422 10.75 9.25V14.75C10.75 15.578 11.422 16.25 12.25 16.25H14.75C15.578 16.25 16.25 15.578 16.25 14.75Z" stroke="black" stroke-width="1.5" stroke-linecap="round" stroke-linejoin="round" fill="none"></path> <path d="M1.75 13.25H7.75" stroke="black" stroke-width="1.5" stroke-linecap="round" stroke-linejoin="round" fill="none"></path> <path d="M15.25 4.75C15.25 3.645 14.355 2.75 13.25 2.75H4.75C3.645 2.75 2.75 3.645 2.75 4.75V11.375C2.75 12.411 3.589 13.25 4.625 13.25" stroke="black" stroke-width="1.5" stroke-linecap="round" stroke-linejoin="round" fill="none"></path></svg>