<svg xmlns="http://www.w3.org/2000/svg" xmlns:xlink="http://www.w3.org/1999/xlink" x="0px" y="0px" width="18px" height="18px" viewBox="0 0 18 18"><path d="M2.75 12.75V14.25" stroke="black" stroke-width="1.5" stroke-linecap="round" stroke-linejoin="round" fill="none"></path> <path d="M5.75 10.25V14.25" stroke="black" stroke-width="1.5" stroke-linecap="round" stroke-linejoin="round" fill="none"></path> <path d="M9 7.75V14.25" stroke="black" stroke-width="1.5" stroke-linecap="round" stroke-linejoin="round" fill="none"></path> <path d="M12.25 15C12.6642 15 13 14.6642 13 14.25C13 13.8358 12.6642 13.5 12.25 13.5C11.8358 13.5 11.5 13.8358 11.5 14.25C11.5 14.6642 11.8358 15 12.25 15Z" fill="black" data-stroke="none"></path> <path d="M15.25 15C15.6642 15 16 14.6642 16 14.25C16 13.8358 15.6642 13.5 15.25 13.5C14.8358 13.5 14.5 13.8358 14.5 14.25C14.5 14.6642 14.8358 15 15.25 15Z" fill="black" data-stroke="none"></path> <path d="M12 2.75L16 6.75" stroke="black" stroke-width="1.5" stroke-linecap="round" stroke-linejoin="round" fill="none"></path> <path d="M16 2.75L12 6.75" stroke="black" stroke-width="1.5" stroke-linecap="round" stroke-linejoin="round" fill="none"></path></svg>