<svg xmlns="http://www.w3.org/2000/svg" xmlns:xlink="http://www.w3.org/1999/xlink" x="0px" y="0px" width="24px" height="24px" viewBox="0 0 24 24"> <path d="M22 11V8H18V6H24V11C24 12.6569 22.6569 14 21 14H18V12H21C21.5523 12 22 11.5523 22 11Z" fill="black"></path> <path d="M10 0H12V4H10V0Z" fill="#000" data-color="color-2"></path> <path d="M14 1H16V4H14V1Z" fill="#000" data-color="color-2"></path> <path d="M6 1H8V4H6V1Z" fill="#000" data-color="color-2"></path> <path d="M11 12H9V17H15V12H13V10V6H20V13C20 17.9706 15.9706 22 11 22C6.02944 22 2 17.9706 2 13V6H11V12Z" fill="black"></path> </svg>