<svg xmlns="http://www.w3.org/2000/svg" xmlns:xlink="http://www.w3.org/1999/xlink" x="0px" y="0px" width="24px" height="24px" viewBox="0 0 24 24"> <path d="M19.9316 9H4.07031L4.2878 12H19.7171L19.9316 9Z" fill="black"></path> <path d="M21.0869 11H2.91309L3.41333 17H20.5867L21.0869 11Z" fill="#000" data-color="color-2"></path> <path d="M19.2168 19L19.1299 20.2139C19.0177 21.7837 17.7116 23 16.1377 23H7.8623C6.38679 23 5.14601 21.9311 4.9043 20.5039L4.79492 19H19.2168Z" fill="black"></path> <path d="M22 7H2V5C2 3.89543 2.89543 3 4 3H6.38184L6.8291 2.10547L6.89648 1.98145C7.25448 1.37607 7.90793 1 8.61816 1H15.3818C16.1394 1 16.8321 1.42793 17.1709 2.10547L17.6182 3H20C21.1046 3 22 3.89543 22 5V7Z" fill="#000" data-color="color-2"></path> </svg>