<svg xmlns="http://www.w3.org/2000/svg" xmlns:xlink="http://www.w3.org/1999/xlink" x="0px" y="0px" width="24px" height="24px" viewBox="0 0 24 24"> <path d="M10 1.46875V7H14V0.46875L10 1.46875Z" fill="black"></path> <path d="M21 6V8H3V6H21Z" fill="black"></path> <path fill-rule="evenodd" clip-rule="evenodd" d="M19 20C19 21.6569 17.6569 23 16 23H8C6.34315 23 5 21.6569 5 20V10H19V20ZM8.5791 19.4932L10 20.9141L11.4141 19.5L9.99316 18.0791L8.5791 19.4932ZM13.5859 17L15.0068 18.4209L16.4209 17.0068L15 15.5859L13.5859 17ZM9.58594 13.5L11.0068 14.9209L12.4209 13.5068L11 12.0859L9.58594 13.5Z" fill="#000" data-color="color-2"></path> </svg>