<svg xmlns="http://www.w3.org/2000/svg" xmlns:xlink="http://www.w3.org/1999/xlink" x="0px" y="0px" width="24px" height="24px" viewBox="0 0 24 24"> <path d="M22.3965 6.2207L15.8252 11H13V9H15.1758L21.2207 4.60352L22.3965 6.2207Z" fill="#000" data-color="color-2"></path> <path d="M1.60352 6.2207L8.1748 11H11V9H8.82422L2.7793 4.60352L1.60352 6.2207Z" fill="#000" data-color="color-2"></path> <path d="M21 19C21 20.6569 19.6569 22 18 22H6C4.34315 22 3 20.6569 3 19V15H21V19Z" fill="black"></path> <path d="M23 13H1V12C1 10.3431 2.34315 9 4 9H20C21.6569 9 23 10.3431 23 12V13Z" fill="black"></path> <path d="M14 13H10V3C10 1.89543 10.8954 1 12 1C13.1046 1 14 1.89543 14 3V13Z" fill="#000" data-color="color-2"></path> </svg>