<svg xmlns="http://www.w3.org/2000/svg" xmlns:xlink="http://www.w3.org/1999/xlink" x="0px" y="0px" width="24px" height="24px" viewBox="0 0 24 24"> <path d="M16 10L16.3008 14.8129C16.4087 16.54 15.0371 18 13.3066 18H10.6934C8.96289 18 7.59125 16.54 7.6992 14.8129L8 10H16Z" fill="#000" data-color="color-2"></path> <path d="M13 18V23H11V18H13Z" fill="black"></path> <path d="M16.9395 1L17.6865 12.9473C17.8915 16.2272 15.2863 19 12 19C8.7137 19 6.10848 16.2272 6.31348 12.9473L7.06055 1H16.9395ZM8.30957 13.0723C8.17664 15.2007 9.8674 17 12 17C14.1326 17 15.8234 15.2007 15.6904 13.0723L15.0605 3H8.93945L8.30957 13.0723Z" fill="black"></path> <path d="M16 22V24H8V22H16Z" fill="black"></path> </svg>