<svg xmlns="http://www.w3.org/2000/svg" xmlns:xlink="http://www.w3.org/1999/xlink" x="0px" y="0px" width="32px" height="32px" viewBox="0 0 32 32"> <path d="M10.3447 4C8.30501 5.64994 7 8.17216 7 11H12.4041L11.3994 4H10.3447Z" fill="black"></path> <path d="M14.8672 0L16.3018 10H16.9561V12H14.5684L13.1328 2H8V0H14.8672Z" fill="#000" data-color="color-2"></path> <path d="M17.1855 2.08008C21.5956 2.66057 25 6.43144 25 11V12H18.9375L18.5 11L18.2617 9.58105L17.1855 2.08008Z" fill="black"></path> <path d="M27 10V14H5V10H27Z" fill="#000" data-color="color-2"></path> <path d="M23.582 31H8.41797L7.08496 16H15.0654L16.1221 25.1084L18.1084 24.8779L17.0781 16H24.915L23.582 31Z" fill="black"></path> </svg>