<svg xmlns="http://www.w3.org/2000/svg" xmlns:xlink="http://www.w3.org/1999/xlink" x="0px" y="0px" width="32px" height="32px" viewBox="0 0 32 32"> <path d="M26 22H18V10C18 5.58173 21.5817 2 26 2H28V31H26V22Z" fill="#000" data-color="color-2"></path> <path d="M8 3H10V31H8V3Z" fill="black"></path> <path d="M3 11.5V3H5V11.5L5.0127 11.7559C5.14082 13.0164 6.20566 14 7.5 14H10.5C11.8807 14 13 12.8807 13 11.5V3H15V11.5C15 13.9853 12.9853 16 10.5 16H7.5C5.09234 16 3.12632 14.1092 3.00586 11.7314L3 11.5Z" fill="black"></path> </svg>