<svg xmlns="http://www.w3.org/2000/svg" xmlns:xlink="http://www.w3.org/1999/xlink" x="0px" y="0px" width="32px" height="32px" viewBox="0 0 32 32"> <path fill-rule="evenodd" clip-rule="evenodd" d="M27 8H5V2H27V8ZM9 4V6H11V4H9ZM13 6H15V4H13V6ZM17 6H19V4H17V6ZM21 6H23V4H21V6Z" fill="#000" data-color="color-2"></path> <path fill-rule="evenodd" clip-rule="evenodd" d="M26.9707 12.376C27.6414 13.3682 28 14.5387 28 15.7363V26C28 28.2091 26.2091 30 24 30H8C5.79086 30 4 28.2091 4 26V15.7363C4 14.5387 4.35857 13.3682 5.0293 12.376L6.63574 10H25.3643L26.9707 12.376ZM8 16V24H24V16H8Z" fill="black"></path> </svg>