<svg xmlns="http://www.w3.org/2000/svg" xmlns:xlink="http://www.w3.org/1999/xlink" x="0px" y="0px" width="48px" height="48px" viewBox="0 0 48 48"> <path d="M43 15.4971V7H35.5V4H46V15.4971C46 17.9648 44.1997 20.064 41.7607 20.4395L36.7451 21.2109L36.2891 18.2451L41.3037 17.4736C42.2794 17.3235 43 16.4842 43 15.4971Z" fill="#000" data-color="color-2"></path> <path fill-rule="evenodd" clip-rule="evenodd" d="M39 38C39 41.3137 36.3137 44 33 44H15.0107C11.692 43.9998 9.00341 41.3051 9.01074 37.9863L9.06055 15.3037L4.1709 8.05957L4 7.80566V4H39V38ZM26 36V39H33V36H26ZM29 31V34H33V31H29ZM26 26V29H33V26H26ZM29 21V24H33V21H29ZM26 16V19H33V16H26ZM29 11V14H33V11H29Z" fill="black"></path> </svg>