<svg xmlns="http://www.w3.org/2000/svg" xmlns:xlink="http://www.w3.org/1999/xlink" x="0px" y="0px" width="18px" height="18px" viewBox="0 0 18 18"><circle cx="2" cy="6" r="1" fill="#000" data-color="color-2"></circle><circle cx="16" cy="6" r="1" fill="#000" data-color="color-2"></circle><path d="M9,17c-.414,0-.75-.336-.75-.75,0-7.107-3.634-8.742-3.788-8.808-.379-.162-.56-.6-.401-.979,.158-.379,.589-.565,.972-.408,.144,.058,2.673,1.138,3.968,5.038,1.295-3.9,3.824-4.98,3.968-5.038,.384-.156,.82,.028,.977,.413,.155,.382-.026,.817-.406,.975-.162,.07-3.788,1.708-3.788,8.808,0,.414-.336,.75-.75,.75Z" fill="#000" data-color="color-2"></path><path d="M11.158,2.99l-1.263-.421-.421-1.263c-.137-.408-.812-.408-.949,0l-.421,1.263-1.263,.421c-.204,.068-.342,.259-.342,.474s.138,.406,.342,.474l1.263,.421,.421,1.263c.068,.204,.26,.342,.475,.342s.406-.138,.475-.342l.421-1.263,1.263-.421c.204-.068,.342-.259,.342-.474s-.138-.406-.342-.474Z" fill="#000"></path><path d="M5.658,12.026l-1.263-.421-.421-1.263c-.137-.408-.812-.408-.949,0l-.421,1.263-1.263,.421c-.204,.068-.342,.259-.342,.474s.138,.406,.342,.474l1.263,.421,.421,1.263c.068,.204,.26,.342,.475,.342s.406-.138,.475-.342l.421-1.263,1.263-.421c.204-.068,.342-.259,.342-.474s-.138-.406-.342-.474Z" fill="#000"></path><path d="M12.342,12.026l1.263-.421,.421-1.263c.137-.408,.813-.408,.949,0l.421,1.263,1.263,.421c.204,.068,.342,.259,.342,.474s-.138,.406-.342,.474l-1.263,.421-.421,1.263c-.068,.204-.26,.342-.475,.342s-.406-.138-.475-.342l-.421-1.263-1.263-.421c-.204-.068-.342-.259-.342-.474s.138-.406,.342-.474Z" fill="#000"></path></svg>