<svg xmlns="http://www.w3.org/2000/svg" xmlns:xlink="http://www.w3.org/1999/xlink" x="0px" y="0px" width="18px" height="18px" viewBox="0 0 18 18"><path d="M3.75 14.25H2.75C2.198 14.25 1.75 13.802 1.75 13.25V11.75C1.75 11.198 2.198 10.75 2.75 10.75H7.25" stroke="black" stroke-width="1.5" stroke-linecap="round" stroke-linejoin="round" fill="none"></path> <path d="M11.4922 10.75H15.25C15.802 10.75 16.25 11.198 16.25 11.75V13.25C16.25 13.802 15.802 14.25 15.25 14.25H7.99219" stroke="black" stroke-width="1.5" stroke-linecap="round" stroke-linejoin="round" fill="none"></path> <path d="M12.25 10.75V14.25" stroke="black" stroke-width="1.5" stroke-linecap="round" stroke-linejoin="round" fill="none"></path> <path d="M7.25 2.25V2.5C7.25 4.019 8.481 5.25 10 5.25C10.759 5.25 11.447 5.558 11.945 6.055" stroke="#000" stroke-width="1.5" stroke-linecap="round" stroke-linejoin="round" data-color="color-2" fill="none"></path> <path d="M15.632 6.61029C15.7094 6.97789 15.75 7.35889 15.75 7.74999V8.24999" stroke="#000" stroke-width="1.5" stroke-linecap="round" stroke-linejoin="round" data-color="color-2" fill="none"></path> <path d="M10.25 2.25C11.769 2.25 13.144 2.866 14.139 3.861" stroke="#000" stroke-width="1.5" stroke-linecap="round" stroke-linejoin="round" data-color="color-2" fill="none"></path> <path d="M2 16L16 2" stroke="#000" stroke-width="1.5" stroke-linecap="round" stroke-linejoin="round" data-color="color-2" fill="none"></path></svg>