<svg xmlns="http://www.w3.org/2000/svg" xmlns:xlink="http://www.w3.org/1999/xlink" x="0px" y="0px" width="18px" height="18px" viewBox="0 0 18 18"><path d="M7.5 15.25C10.1234 15.25 12.25 13.1234 12.25 10.5C12.25 7.87665 10.1234 5.75 7.5 5.75C4.87665 5.75 2.75 7.87665 2.75 10.5C2.75 13.1234 4.87665 15.25 7.5 15.25Z" fill="#000" fill-opacity="0.3" data-color="color-2" data-stroke="none"></path> <path d="M11.25 2.75H15.25V6.75" stroke="black" stroke-width="1.5" stroke-linecap="round" stroke-linejoin="round" fill="none"></path> <path d="M15.25 2.75L10.859 7.141" stroke="black" stroke-width="1.5" stroke-linecap="round" stroke-linejoin="round" fill="none"></path> <path d="M7.5 15.25C10.1234 15.25 12.25 13.1234 12.25 10.5C12.25 7.87665 10.1234 5.75 7.5 5.75C4.87665 5.75 2.75 7.87665 2.75 10.5C2.75 13.1234 4.87665 15.25 7.5 15.25Z" stroke="black" stroke-width="1.5" stroke-linecap="round" stroke-linejoin="round" fill="none"></path></svg>