<svg xmlns="http://www.w3.org/2000/svg" xmlns:xlink="http://www.w3.org/1999/xlink" x="0px" y="0px" width="12px" height="12px" viewBox="0 0 12 12"><path d="m8.25,0H3.75C2.233,0,1,1.233,1,2.75v6.5c0,1.517,1.233,2.75,2.75,2.75h4.5c1.517,0,2.75-1.233,2.75-2.75V2.75c0-1.517-1.233-2.75-2.75-2.75Zm1.25,9.25c0,.689-.561,1.25-1.25,1.25H3.75c-.689,0-1.25-.561-1.25-1.25V2.75c0-.689.561-1.25,1.25-1.25h.25v.25c0,.414.336.75.75.75h2.5c.414,0,.75-.336.75-.75v-.25h.25c.689,0,1.25.561,1.25,1.25v6.5Z" stroke-width="0" fill="#000"></path><circle cx="6" cy="8.5" r="1" fill="#000" stroke-width="0" data-color="color-2"></circle></svg>