<svg xmlns="http://www.w3.org/2000/svg" xmlns:xlink="http://www.w3.org/1999/xlink" x="0px" y="0px" width="12px" height="12px" viewBox="0 0 12 12"><path d="m6,12c-.414,0-.75-.336-.75-.75v-2c0-.414.336-.75.75-.75s.75.336.75.75v2c0,.414-.336.75-.75.75Z" fill="#000" stroke-width="0" data-color="color-2"></path><path d="m3.75,3.5c-.414,0-.75-.336-.75-.75V.75c0-.414.336-.75.75-.75s.75.336.75.75v2c0,.414-.336.75-.75.75Z" fill="#000" stroke-width="0" data-color="color-2"></path><path d="m8.25,3.5c-.414,0-.75-.336-.75-.75V.75c0-.414.336-.75.75-.75s.75.336.75.75v2c0,.414-.336.75-.75.75Z" fill="#000" stroke-width="0" data-color="color-2"></path><path d="m9.25,2H2.75c-.965,0-1.75.785-1.75,1.75v1.25c0,2.757,2.243,5,5,5s5-2.243,5-5v-1.25c0-.965-.785-1.75-1.75-1.75Z" stroke-width="0" fill="#000"></path></svg>