<svg xmlns="http://www.w3.org/2000/svg" xmlns:xlink="http://www.w3.org/1999/xlink" x="0px" y="0px" width="12px" height="12px" viewBox="0 0 12 12"><path d="m9.237,10.539c-.826-.275-1.656-.442-2.487-.506v-1.783c0-.414-.336-.75-.75-.75s-.75.336-.75.75v1.783c-.831.064-1.661.231-2.487.506-.393.131-.605.556-.475.949.132.392.551.606.949.474,1.832-.61,3.693-.61,5.525,0,.079.026.159.039.237.039.314,0,.606-.199.712-.513.131-.393-.082-.818-.475-.949Z" fill="#000" stroke-width="0" data-color="color-2"></path><rect y="0" width="12" height="9" rx="2.75" ry="2.75" stroke-width="0" fill="#000"></rect></svg>