<svg xmlns="http://www.w3.org/2000/svg" xmlns:xlink="http://www.w3.org/1999/xlink" x="0px" y="0px" width="18px" height="18px" viewBox="0 0 18 18"><path d="M14.75,2H3.25c-1.241,0-2.25,1.009-2.25,2.25v2c0,1.241,1.009,2.25,2.25,2.25H14.75c1.241,0,2.25-1.009,2.25-2.25v-2c0-1.241-1.009-2.25-2.25-2.25ZM4.25,6c-.414,0-.75-.336-.75-.75s.336-.75,.75-.75,.75,.336,.75,.75-.336,.75-.75,.75Zm2.5,0c-.414,0-.75-.336-.75-.75s.336-.75,.75-.75,.75,.336,.75,.75-.336,.75-.75,.75Z" fill="#000"></path><path d="M14.75,9.5H3.25c-1.241,0-2.25,1.009-2.25,2.25v2c0,1.241,1.009,2.25,2.25,2.25H14.75c1.241,0,2.25-1.009,2.25-2.25v-2c0-1.241-1.009-2.25-2.25-2.25ZM4.25,13.5c-.414,0-.75-.336-.75-.75s.336-.75,.75-.75,.75,.336,.75,.75-.336,.75-.75,.75Zm2.5,0c-.414,0-.75-.336-.75-.75s.336-.75,.75-.75,.75,.336,.75,.75-.336,.75-.75,.75Z" fill="#000" data-color="color-2"></path></svg>