<svg xmlns="http://www.w3.org/2000/svg" xmlns:xlink="http://www.w3.org/1999/xlink" x="0px" y="0px" width="18px" height="18px" viewBox="0 0 18 18"><path d="m16.9082,4.3906c-.1318-.2407-.3838-.3906-.6582-.3906h-1.6533l.6201-2.0308c.1104-.3584-.0615-.7422-.4014-.8999-.3369-.1558-.7432-.0405-.9463.2749l-2.25,3.5c-.1484.231-.1592.5244-.0273.7651s.3838.3906.6582.3906h1.6533l-.6201,2.0308c-.1104.3584.0615.7422.4014.8999.1016.0469.209.0693.3154.0693.248,0,.4893-.1235.6309-.3442l2.25-3.5c.1484-.231.1592-.5244.0273-.7651Z" fill="#000" stroke-width="0" data-color="color-2"></path><path d="m1.75,17c-.1924,0-.3838-.0732-.5303-.2197-.293-.293-.293-.7676,0-1.0605l2.0234-2.0234c.293-.293.7676-.293,1.0605,0s.293.7676,0,1.0605l-2.0234,2.0234c-.1465.1465-.3379.2197-.5303.2197Z" stroke-width="0" fill="#000"></path><path d="m10.9697,11.7739l-4.7441-4.7432c-.7119-.7129-1.9541-.7119-2.6641,0l-.3174.3174c-.9893.9893-1.5342,2.3047-1.5342,3.7041s.5449,2.7148,1.5342,3.7041,2.3047,1.5342,3.7031,1.5342c1.3994,0,2.7148-.5449,3.7041-1.5337l.3184-.3184c.7344-.7344.7344-1.9292,0-2.6646Z" stroke-width="0" fill="#000"></path><path d="m6.6494,9.2646c-.1924,0-.3838-.0732-.5303-.2197-.293-.293-.293-.7676,0-1.0605l1.7646-1.7646c.293-.293.7676-.293,1.0605,0s.293.7676,0,1.0605l-1.7646,1.7646c-.1465.1465-.3379.2197-.5303.2197Z" stroke-width="0" fill="#000"></path><path d="m9.4854,12.1006c-.1924,0-.3838-.0732-.5303-.2197-.293-.293-.293-.7676,0-1.0605l1.7646-1.7646c.293-.293.7676-.293,1.0605,0s.293.7676,0,1.0605l-1.7646,1.7646c-.1465.1465-.3379.2197-.5303.2197Z" stroke-width="0" fill="#000"></path></svg>