<svg xmlns="http://www.w3.org/2000/svg" xmlns:xlink="http://www.w3.org/1999/xlink" x="0px" y="0px" width="18px" height="18px" viewBox="0 0 18 18"><rect x="6" y="6" width="6" height="6" rx=".75" ry=".75" fill="#000" data-color="color-2"></rect><path d="M16.25,9.75c.414,0,.75-.336,.75-.75s-.336-.75-.75-.75h-1.25v-1.75h1.25c.414,0,.75-.336,.75-.75s-.336-.75-.75-.75h-1.367c-.26-.911-.972-1.623-1.883-1.883V1.75c0-.414-.336-.75-.75-.75s-.75,.336-.75,.75v1.25h-1.75V1.75c0-.414-.336-.75-.75-.75s-.75,.336-.75,.75v1.25h-1.75V1.75c0-.414-.336-.75-.75-.75s-.75,.336-.75,.75v1.367c-.911,.26-1.623,.972-1.883,1.883H1.75c-.414,0-.75,.336-.75,.75s.336,.75,.75,.75h1.25v1.75H1.75c-.414,0-.75,.336-.75,.75s.336,.75,.75,.75h1.25v1.75H1.75c-.414,0-.75,.336-.75,.75s.336,.75,.75,.75h1.367c.26,.911,.972,1.623,1.883,1.883v1.367c0,.414,.336,.75,.75,.75s.75-.336,.75-.75v-1.25h1.75v1.25c0,.414,.336,.75,.75,.75s.75-.336,.75-.75v-1.25h1.75v1.25c0,.414,.336,.75,.75,.75s.75-.336,.75-.75v-1.367c.911-.26,1.623-.972,1.883-1.883h1.367c.414,0,.75-.336,.75-.75s-.336-.75-.75-.75h-1.25v-1.75h1.25Zm-4,3.75H5.75c-.689,0-1.25-.561-1.25-1.25V5.75c0-.689,.561-1.25,1.25-1.25h6.5c.689,0,1.25,.561,1.25,1.25v6.5c0,.689-.561,1.25-1.25,1.25Z" fill="#000"></path></svg>