<svg xmlns="http://www.w3.org/2000/svg" xmlns:xlink="http://www.w3.org/1999/xlink" x="0px" y="0px" width="20px" height="20px" viewBox="0 0 20 20"><path d="m14,2H6c-2.2056,0-4,1.7944-4,4v8c0,2.2056,1.7944,4,4,4h8c2.2056,0,4-1.7944,4-4V6c0-2.2056-1.7944-4-4-4Zm-6,3.75c0-.2715.147-.522.3843-.6548.2373-.1318.5278-.127.7588.0161l3.25,2c.2217.1362.3569.3784.3569.6387s-.1353.5024-.3569.6387l-3.25,2c-.1201.0742-.2568.1113-.3931.1113-.126,0-.252-.0317-.3657-.0952-.2373-.1328-.3843-.3833-.3843-.6548v-4Zm2,9.5c0,.5522-.4478,1-1,1s-1-.4478-1-1v-.25h-2c-.5522,0-1-.4478-1-1s.4478-1,1-1h2v-.25c0-.5522.4478-1,1-1s1,.4478,1,1v2.5Zm4-.25h-1.5c-.5522,0-1-.4478-1-1s.4478-1,1-1h1.5c.5522,0,1,.4478,1,1s-.4478,1-1,1Z" stroke-width="0" fill="#000"></path></svg>