<svg xmlns="http://www.w3.org/2000/svg" xmlns:xlink="http://www.w3.org/1999/xlink" x="0px" y="0px" width="20px" height="20px" viewBox="0 0 20 20"><circle cx="6.75" cy="10.25" r="1.25" stroke-width="0" fill="#000"></circle><circle cx="13.25" cy="10.25" r="1.25" stroke-width="0" fill="#000"></circle><path d="m8.667,12h2.667c.368,0,.667.299.667.667h0c0,1.104-.896,2-2,2h0c-1.104,0-2-.896-2-2h0c0-.368.299-.667.667-.667Z" stroke-width="0" fill="#000"></path><line x1="15" y1="7.5" x2="15" y2="2.5" fill="none" stroke="#000" stroke-linecap="round" stroke-linejoin="round" stroke-width="2" data-color="color-2"></line><path d="m9.633,3.018c-3.694.192-6.633,3.239-6.633,6.982,0,3.866,3.134,7,7,7,3.742,0,6.79-2.939,6.982-6.633" fill="none" stroke="#000" stroke-linecap="round" stroke-linejoin="round" stroke-width="2"></path><line x1="12.5" y1="5" x2="17.5" y2="5" fill="none" stroke="#000" stroke-linecap="round" stroke-linejoin="round" stroke-width="2" data-color="color-2"></line></svg>