<svg xmlns="http://www.w3.org/2000/svg" xmlns:xlink="http://www.w3.org/1999/xlink" x="0px" y="0px" width="20px" height="20px" viewBox="0 0 20 20"><path d="m14,2H6c-2.206,0-4,1.794-4,4v8c0,2.206,1.794,4,4,4h8c2.206,0,4-1.794,4-4V6c0-2.206-1.794-4-4-4Zm-2,11c.552,0,1,.447,1,1s-.448,1-1,1c-.771,0-1.468-.301-2-.78-.532.48-1.229.78-2,.78-.552,0-1-.447-1-1s.448-1,1-1,1-.448,1-1v-4c0-.552-.449-1-1-1s-1-.447-1-1,.448-1,1-1c.771,0,1.468.301,2,.78.532-.48,1.229-.78,2-.78.552,0,1,.447,1,1s-.448,1-1,1-1,.448-1,1v4c0,.552.449,1,1,1Z" stroke-width="0" fill="#000"></path></svg>