<svg xmlns="http://www.w3.org/2000/svg" xmlns:xlink="http://www.w3.org/1999/xlink" x="0px" y="0px" width="18px" height="18px" viewBox="0 0 18 18"><path opacity="0.4" d="M14.2501 2H3.75012C2.23134 2 1.00012 3.23122 1.00012 4.75V13.25C1.00012 14.7688 2.23134 16 3.75012 16H14.2501C15.7689 16 17.0001 14.7688 17.0001 13.25V4.75C17.0001 3.23122 15.7689 2 14.2501 2Z" fill="#000" data-color="color-2"></path> <path d="M13.2501 13C12.836 13 12.5001 12.6641 12.5001 12.25V5.75C12.5001 5.3359 12.836 5 13.2501 5C13.6642 5 14.0001 5.3359 14.0001 5.75V12.25C14.0001 12.6641 13.6642 13 13.2501 13Z" fill="black"></path></svg>