<svg xmlns="http://www.w3.org/2000/svg" xmlns:xlink="http://www.w3.org/1999/xlink" x="0px" y="0px" width="18px" height="18px" viewBox="0 0 18 18"><path opacity="0.4" d="M14.2501 15.5H3.75012C2.23352 15.5 1.00012 14.2666 1.00012 12.75V5.25C1.00012 3.7334 2.23352 2.5 3.75012 2.5H14.2501C15.7667 2.5 17.0001 3.7334 17.0001 5.25V12.75C17.0001 14.2666 15.7667 15.5 14.2501 15.5Z" fill="#000" data-color="color-2"></path> <path d="M14.2501 10H3.75012C3.33591 10 3.00012 10.3358 3.00012 10.75V12.75C3.00012 13.1642 3.33591 13.5 3.75012 13.5H14.2501C14.6643 13.5 15.0001 13.1642 15.0001 12.75V10.75C15.0001 10.3358 14.6643 10 14.2501 10Z" fill="black"></path></svg>