<svg xmlns="http://www.w3.org/2000/svg" xmlns:xlink="http://www.w3.org/1999/xlink" x="0px" y="0px" width="18px" height="18px" viewBox="0 0 18 18"><path d="M17 9C17 4.58172 13.4183 1 9 1V2.5C12.5899 2.5 15.5 5.41015 15.5 9C15.5 12.5899 12.5899 15.5 9 15.5V17C13.4183 17 17 13.4183 17 9Z" fill="url(#nc-loader-2-fill-duo-gradient-1)"></path> <path d="M2.5 9C2.5 5.41015 5.41015 2.5 9 2.5V1C4.58172 1 1 4.58172 1 9C1 13.4183 4.58172 17 9 17V15.5C5.41015 15.5 2.5 12.5899 2.5 9Z" fill="url(#nc-loader-2-fill-duo-gradient-2)"></path> <circle cx="9" cy="16.25" r="0.75" fill="#000" data-color="color-2"></circle> <circle cx="9" cy="9" r="5" fill="#000" fill-opacity="0.4" data-color="color-2"></circle> <defs fill="none"> <linearGradient id="nc-loader-2-fill-duo-gradient-1" x1="9" y1="2.5" x2="9" y2="16.25" gradientUnits="userSpaceOnUse" fill="none"> <stop stop-opacity="0.5" fill="none"></stop> <stop offset="1" fill="none"></stop> </linearGradient> <linearGradient id="nc-loader-2-fill-duo-gradient-2" x1="9" y1="2.5" x2="9" y2="16.25" gradientUnits="userSpaceOnUse" fill="none"> <stop stop-color="#000" stop-opacity="0.5" fill="none"></stop> <stop stop-color="#000" offset="1" stop-opacity="0" fill="none"></stop> </linearGradient> </defs></svg>