<svg xmlns="http://www.w3.org/2000/svg" xmlns:xlink="http://www.w3.org/1999/xlink" x="0px" y="0px" width="20px" height="20px" viewBox="0 0 20 20"><polygon points="14 10.8204 14.7082 13 17 13 15.1459 14.3471 15.8541 16.5267 14 15.1796 12.1459 16.5267 12.8541 14.3471 11 13 13.2918 13 14 10.8204" fill="#000" stroke="#000" stroke-linecap="round" stroke-linejoin="round" stroke-width="2" data-color="color-2"></polygon><path d="m17,9.0197v-3.6323c0-.6826-.6687-1.1646-1.3162-.9487l-2.8362.9454c-.2244.0748-.468.0676-.6876-.0202l-4.3198-1.7279c-.2196-.0878-.4632-.095-.6876-.0202l-3.4687,1.1562c-.4083.1361-.6838.5182-.6838.9487v8.8918c0,.6826.6687,1.1646,1.3162.9487l2.8362-.9454c.2244-.0748.468-.0676.6876.0202" fill="none" stroke="#000" stroke-linecap="round" stroke-linejoin="round" stroke-width="2"></path></svg>