<svg xmlns="http://www.w3.org/2000/svg" xmlns:xlink="http://www.w3.org/1999/xlink" x="0px" y="0px" width="20px" height="20px" viewBox="0 0 20 20"><circle cx="10" cy="10" r="7" fill="none" stroke="#000" stroke-linecap="round" stroke-linejoin="round" stroke-width="2"></circle><path d="m13.0303,6.9697c-.2168-.2168-.543-.2788-.8262-.1592l-3.5,1.5c-.1768.0762-.3174.2168-.3936.394l-1.5,3.5c-.1211.2817-.0576.6089.1592.8257.1436.1436.335.2197.5303.2197.0996,0,.2002-.02.2959-.0605l3.5-1.5c.1768-.0762.3174-.2168.3936-.394l1.5-3.5c.1211-.2817.0576-.6089-.1592-.8257Z" fill="#000" stroke-width="0" data-color="color-2"></path><line x1="10" y1="3" x2="10" y2="4.75" fill="none" stroke="#000" stroke-linecap="round" stroke-linejoin="round" stroke-width="2"></line><line x1="17" y1="10" x2="15.25" y2="10" fill="none" stroke="#000" stroke-linecap="round" stroke-linejoin="round" stroke-width="2"></line><line x1="10" y1="17" x2="10" y2="15.25" fill="none" stroke="#000" stroke-linecap="round" stroke-linejoin="round" stroke-width="2"></line><line x1="3" y1="10" x2="4.75" y2="10" fill="none" stroke="#000" stroke-linecap="round" stroke-linejoin="round" stroke-width="2"></line></svg>