<svg xmlns="http://www.w3.org/2000/svg" xmlns:xlink="http://www.w3.org/1999/xlink" x="0px" y="0px" width="20px" height="20px" viewBox="0 0 20 20"><path d="m17,8.0111v-2.6237c0-.6826-.6687-1.1646-1.3162-.9487l-2.8362.9454c-.2244.0748-.468.0676-.6876-.0202l-4.3198-1.7279c-.2196-.0878-.4632-.095-.6876-.0202l-3.4687,1.1562c-.4083.1361-.6838.5182-.6838.9487v8.8918c0,.6826.6687,1.1646,1.3162.9487l2.8362-.9454c.2244-.0748.468-.0676.6876.0202l1.1058.4423" fill="none" stroke="#000" stroke-linecap="round" stroke-linejoin="round" stroke-width="2"></path><path d="m17.0057,10.9946c-1.3252-1.3262-3.4834-1.3262-4.8086,0-1.3257,1.3252-1.3257,3.4824,0,4.8076.3618.3623,1.3101,1.4561,1.6445,1.8467.1904.2217.4678.3496.7598.3496s.5693-.1279.7598-.3496c.3345-.3906,1.2827-1.4844,1.6445-1.8467,1.3257-1.3252,1.3257-3.4824,0-4.8076Zm-2.4043,3.5039c-.6904,0-1.25-.5596-1.25-1.25s.5596-1.25,1.25-1.25,1.25.5596,1.25,1.25-.5596,1.25-1.25,1.25Z" fill="#000" stroke-width="0" data-color="color-2"></path></svg>