<svg xmlns="http://www.w3.org/2000/svg" xmlns:xlink="http://www.w3.org/1999/xlink" x="0px" y="0px" width="20px" height="20px" viewBox="0 0 20 20"><line x1="7.5" y1="3.5683" x2="7.5" y2="14.5" fill="none" stroke="#000" stroke-linecap="round" stroke-linejoin="round" stroke-width="2" data-color="color-2"></line><line x1="12.5" y1="5.5" x2="12.5" y2="16.4315" fill="none" stroke="#000" stroke-linecap="round" stroke-linejoin="round" stroke-width="2" data-color="color-2"></line><path d="m3.6838,4.7721l3.4687-1.1562c.2244-.0748.468-.0676.6876.0202l4.3198,1.7279c.2196.0878.4632.095.6876.0202l2.8363-.9454c.6475-.2158,1.3162.2661,1.3162.9487v8.8918c0,.4304-.2754.8126-.6838.9487l-3.4687,1.1562c-.2244.0748-.468.0676-.6876-.0202l-4.3198-1.7279c-.2196-.0878-.4632-.095-.6876-.0202l-2.8363.9454c-.6475.2158-1.3162-.2661-1.3162-.9487V5.7208c0-.4304.2754-.8126.6838-.9487Z" fill="none" stroke="#000" stroke-linecap="round" stroke-linejoin="round" stroke-width="2"></path></svg>