<svg xmlns="http://www.w3.org/2000/svg" xmlns:xlink="http://www.w3.org/1999/xlink" x="0px" y="0px" width="20px" height="20px" viewBox="0 0 20 20"><line x1="11.5" y1="17" x2="17" y2="11.5" fill="none" stroke="#000" stroke-linecap="round" stroke-linejoin="round" stroke-width="2" data-color="color-2"></line><path d="m17,8.0002v-2.6128c0-.6826-.6687-1.1646-1.3162-.9487l-2.8362.9454c-.2244.0748-.468.0676-.6876-.0202l-4.3198-1.7279c-.2196-.0878-.4632-.095-.6876-.0202l-3.4687,1.1562c-.4083.1361-.6838.5182-.6838.9487v8.8918c0,.6826.6687,1.1646,1.3162.9487l2.8362-.9454c.2244-.0748.468-.0676.6876.0202l.825.33" fill="none" stroke="#000" stroke-linecap="round" stroke-linejoin="round" stroke-width="2"></path><line x1="11.5" y1="11.5" x2="17" y2="17" fill="none" stroke="#000" stroke-linecap="round" stroke-linejoin="round" stroke-width="2" data-color="color-2"></line></svg>