<svg xmlns="http://www.w3.org/2000/svg" xmlns:xlink="http://www.w3.org/1999/xlink" x="0px" y="0px" width="20px" height="20px" viewBox="0 0 20 20"><path d="m16.7631,8.1875c.1545.5781.2369,1.1857.2369,1.8125,0,3.866-3.134,7-7,7-.6268,0-1.2344-.0824-1.8124-.2369" fill="none" stroke="#000" stroke-linecap="round" stroke-linejoin="round" stroke-width="2"></path><line x1="10" y1="3" x2="10" y2="6" fill="none" stroke="#000" stroke-linecap="round" stroke-linejoin="round" stroke-width="2"></line><line x1="17" y1="10" x2="14" y2="10" fill="none" stroke="#000" stroke-linecap="round" stroke-linejoin="round" stroke-width="2"></line><line x1="10" y1="17" x2="10" y2="14" fill="none" stroke="#000" stroke-linecap="round" stroke-linejoin="round" stroke-width="2"></line><line x1="3" y1="10" x2="6" y2="10" fill="none" stroke="#000" stroke-linecap="round" stroke-linejoin="round" stroke-width="2"></line><path d="m5.0503,14.9498c-1.2668-1.2668-2.0503-3.0168-2.0503-4.9498,0-3.866,3.134-7,7-7,1.933,0,3.683.7835,4.9497,2.0502" fill="none" stroke="#000" stroke-linecap="round" stroke-linejoin="round" stroke-width="2"></path><line x1="3" y1="17" x2="17" y2="3" fill="none" stroke="#000" stroke-linecap="round" stroke-linejoin="round" stroke-width="2" data-color="color-2"></line></svg>