<svg xmlns="http://www.w3.org/2000/svg" xmlns:xlink="http://www.w3.org/1999/xlink" x="0px" y="0px" width="20px" height="20px" viewBox="0 0 20 20"><line x1="15" y1="17" x2="15" y2="11" fill="none" stroke="#000" stroke-linecap="round" stroke-linejoin="round" stroke-width="2" data-color="color-2"></line><path d="m17,8.1334v-2.746c0-.6826-.6687-1.1646-1.3162-.9487l-2.8362.9454c-.2244.0748-.468.0676-.6876-.0202l-4.3198-1.7279c-.2196-.0878-.4632-.095-.6876-.0202l-3.4687,1.1562c-.4083.1361-.6838.5182-.6838.9487v8.8918c0,.6826.6687,1.1646,1.3162.9487l2.8362-.9454c.2244-.0748.468-.0676.6876.0202l1.2197.4879" fill="none" stroke="#000" stroke-linecap="round" stroke-linejoin="round" stroke-width="2"></path><polyline points="12.5 14.5 15 17 17.5 14.5" fill="none" stroke="#000" stroke-linecap="round" stroke-linejoin="round" stroke-width="2" data-color="color-2"></polyline></svg>