<svg xmlns="http://www.w3.org/2000/svg" xmlns:xlink="http://www.w3.org/1999/xlink" x="0px" y="0px" width="20px" height="20px" viewBox="0 0 20 20"><path d="m10,2C5.589,2,2,5.589,2,10s3.589,8,8,8,8-3.589,8-8S14.411,2,10,2Zm-3.25,8.5c-.69,0-1.25-.56-1.25-1.25s.56-1.25,1.25-1.25,1.25.56,1.25,1.25-.56,1.25-1.25,1.25Zm3.25,5c-.552,0-1-.448-1-1s.448-1,1-1c.276,0,.5-.224.5-.5s-.224-.5-.5-.5c-.552,0-1-.448-1-1s.448-1,1-1c1.378,0,2.5,1.122,2.5,2.5s-1.122,2.5-2.5,2.5Zm3.25-5c-.69,0-1.25-.56-1.25-1.25s.56-1.25,1.25-1.25,1.25.56,1.25,1.25-.56,1.25-1.25,1.25Z" stroke-width="0" fill="#000"></path></svg>