<svg xmlns="http://www.w3.org/2000/svg" xmlns:xlink="http://www.w3.org/1999/xlink" x="0px" y="0px" width="20px" height="20px" viewBox="0 0 20 20"><path d="m10,2C5.589,2,2,5.589,2,10s3.589,8,8,8,8-3.589,8-8S14.411,2,10,2Zm-5.873,7.554c-.205-.764.242-1.539,1.006-1.744.458-.123.978-.017,1.31.304.2-.456.512-.784.958-.912.716-.206,1.422.112,1.702.802.529,1.302-.684,3.109-1.266,3.867-.173.225-.469.312-.735.213-.899-.333-2.538-1.155-2.975-2.532Zm8.54,5.191c-.734.657-1.681,1.019-2.667,1.019s-1.933-.362-2.667-1.019c-.412-.368-.446-1-.078-1.412.368-.411,1-.447,1.412-.078.733.657,1.933.657,2.666,0,.412-.369,1.043-.333,1.412.078.368.412.333,1.044-.078,1.412Zm.231-2.66c-.266.099-.562.012-.735-.213-.582-.759-1.795-2.566-1.266-3.867.28-.69.986-1.008,1.702-.802.445.128.758.456.958.912.332-.32.851-.427,1.31-.304.764.205,1.211.98,1.006,1.744-.437,1.376-2.076,2.198-2.975,2.532Z" stroke-width="0" fill="#000"></path></svg>