<svg xmlns="http://www.w3.org/2000/svg" xmlns:xlink="http://www.w3.org/1999/xlink" x="0px" y="0px" width="20px" height="20px" viewBox="0 0 20 20"><path d="m15.764,9.134c.71-.922,1.236-2.05,1.236-3.377.006-1.515-1.217-2.748-2.733-2.757-.912.011-1.76.471-2.267,1.229-.507-.757-1.355-1.217-2.267-1.229-1.319.008-2.413.943-2.673,2.182" fill="none" stroke="#000" stroke-linecap="round" stroke-linejoin="round" stroke-width="2" data-color="color-2"></path><path d="m7.664,16.917c.212.111.46.111.672,0,1.122-.585,4.664-2.705,4.664-6.153.006-1.514-1.217-2.748-2.733-2.757-.912.011-1.76.471-2.267,1.229-.507-.757-1.355-1.217-2.267-1.229-1.517.009-2.739,1.242-2.733,2.757,0,3.448,3.543,5.568,4.664,6.153h0Z" stroke="#000" stroke-linecap="round" stroke-linejoin="round" stroke-width="2" fill="#000"></path></svg>