<svg xmlns="http://www.w3.org/2000/svg" xmlns:xlink="http://www.w3.org/1999/xlink" x="0px" y="0px" width="20px" height="20px" viewBox="0 0 20 20"><path d="m17,8.6749v-3.2874c0-.6826-.6687-1.1646-1.3162-.9487l-2.8362.9454c-.2244.0748-.468.0676-.6876-.0202l-4.3198-1.7279c-.2196-.0878-.4632-.095-.6876-.0202l-3.4687,1.1562c-.4083.1361-.6838.5182-.6838.9487v8.8918c0,.6826.6687,1.1646,1.3162.9487l2.8362-.9454c.1804-.0601.3705-.0528.5532-.0078" fill="none" stroke="#000" stroke-linecap="round" stroke-linejoin="round" stroke-width="2"></path><path d="m17.9804,12.8632c-.1409-1.1327-1.0593-1.883-2.2006-1.8628-.7103.0126-1.3035.374-1.7798.9694-.3636-.6061-1.0909-.9697-1.8182-.9697-1.2121,0-2.1818.9697-2.1818,2.1818.1005,2.2108,2.2005,4.078,3.3991,4.928.3547.2515.8271.2402,1.1721-.0244,1.1631-.8919,3.675-3.086,3.4092-5.2223Z" fill="#000" stroke-width="0" data-color="color-2"></path></svg>