<svg xmlns="http://www.w3.org/2000/svg" xmlns:xlink="http://www.w3.org/1999/xlink" x="0px" y="0px" width="20px" height="20px" viewBox="0 0 20 20"><path d="m16.9,8.975c.059-.361.1-.73.1-1.116.008-2.12-1.704-3.847-3.827-3.86-1.277.016-2.464.66-3.173,1.72-.71-1.06-1.897-1.704-3.173-1.72-2.123.013-3.835,1.739-3.827,3.86,0,3.282,2.293,5.703,4.254,7.175" fill="none" stroke="#000" stroke-linecap="round" stroke-linejoin="round" stroke-width="2"></path><polygon points="13.75 10.5 14.5 13 17 13.75 14.5 14.5 13.75 17 13 14.5 10.5 13.75 13 13 13.75 10.5" fill="#000" stroke="#000" stroke-linecap="round" stroke-linejoin="round" stroke-width="2" data-color="color-2"></polygon><circle cx="8.25" cy="9.25" r="1.25" fill="#000" stroke-width="0" data-color="color-2"></circle></svg>