<svg xmlns="http://www.w3.org/2000/svg" xmlns:xlink="http://www.w3.org/1999/xlink" x="0px" y="0px" width="24px" height="24px" viewBox="0 0 24 24"><path d="m10,19h-3c-3.859,0-7-3.14-7-7s3.141-7,7-7h3v2h-3c-2.757,0-5,2.243-5,5s2.243,5,5,5h3v2Z" stroke-width="0" fill="#000"></path><path d="m17,19h-3v-2h3c2.757,0,5-2.243,5-5s-2.243-5-5-5h-3v-2h3c3.859,0,7,3.14,7,7s-3.141,7-7,7Z" stroke-width="0" fill="#000"></path><rect x="7" y="11" width="10" height="2" fill="#000" stroke-width="0" data-color="color-2"></rect></svg>