<svg xmlns="http://www.w3.org/2000/svg" xmlns:xlink="http://www.w3.org/1999/xlink" x="0px" y="0px" width="48px" height="48px" viewBox="0 0 48 48"> <path fill-rule="evenodd" clip-rule="evenodd" d="M5 10C5 7.23858 7.23858 5 10 5C12.7614 5 15 7.23858 15 10C15 12.7614 12.7614 15 10 15C7.23858 15 5 12.7614 5 10Z" fill="#000" data-color="color-2"></path> <path fill-rule="evenodd" clip-rule="evenodd" d="M5 24C5 21.2386 7.23858 19 10 19C12.7614 19 15 21.2386 15 24C15 26.7614 12.7614 29 10 29C7.23858 29 5 26.7614 5 24Z" fill="#000" data-color="color-2"></path> <path fill-rule="evenodd" clip-rule="evenodd" d="M5 38C5 35.2386 7.23858 33 10 33C12.7614 33 15 35.2386 15 38C15 40.7614 12.7614 43 10 43C7.23858 43 5 40.7614 5 38Z" fill="#000" data-color="color-2"></path> <path fill-rule="evenodd" clip-rule="evenodd" d="M19 22.5L44 22.5V25.5L19 25.5V22.5Z" fill="black"></path> <path fill-rule="evenodd" clip-rule="evenodd" d="M19 8.5H44V11.5H19V8.5Z" fill="black"></path> <path fill-rule="evenodd" clip-rule="evenodd" d="M19 36.5H44V39.5H19V36.5Z" fill="black"></path> </svg>