<svg xmlns="http://www.w3.org/2000/svg" xmlns:xlink="http://www.w3.org/1999/xlink" x="0px" y="0px" width="18px" height="18px" viewBox="0 0 18 18"><path d="M14.75 11.75H12.75C12.1977 11.75 11.75 12.1977 11.75 12.75V14.75C11.75 15.3023 12.1977 15.75 12.75 15.75H14.75C15.3023 15.75 15.75 15.3023 15.75 14.75V12.75C15.75 12.1977 15.3023 11.75 14.75 11.75Z" fill="#000" fill-opacity="0.3" data-color="color-2" data-stroke="none"></path> <path d="M4.25 6.25C5.35457 6.25 6.25 5.35457 6.25 4.25C6.25 3.14543 5.35457 2.25 4.25 2.25C3.14543 2.25 2.25 3.14543 2.25 4.25C2.25 5.35457 3.14543 6.25 4.25 6.25Z" fill="#000" fill-opacity="0.3" data-color="color-2" data-stroke="none"></path> <path d="M14.75 11.75H12.75C12.1977 11.75 11.75 12.1977 11.75 12.75V14.75C11.75 15.3023 12.1977 15.75 12.75 15.75H14.75C15.3023 15.75 15.75 15.3023 15.75 14.75V12.75C15.75 12.1977 15.3023 11.75 14.75 11.75Z" stroke="black" stroke-width="1.5" stroke-linecap="round" stroke-linejoin="round" fill="none"></path> <path d="M4.25 6.25C5.35457 6.25 6.25 5.35457 6.25 4.25C6.25 3.14543 5.35457 2.25 4.25 2.25C3.14543 2.25 2.25 3.14543 2.25 4.25C2.25 5.35457 3.14543 6.25 4.25 6.25Z" stroke="black" stroke-width="1.5" stroke-linecap="round" stroke-linejoin="round" fill="none"></path> <path d="M4.25 8.75V11.75C4.25 12.855 5.145 13.75 6.25 13.75H9.25" stroke="black" stroke-width="1.5" stroke-linecap="round" stroke-linejoin="round" fill="none"></path></svg>