<svg xmlns="http://www.w3.org/2000/svg" xmlns:xlink="http://www.w3.org/1999/xlink" x="0px" y="0px" width="18px" height="18px" viewBox="0 0 18 18"><path d="M9 16.25C10.5833 15.75 15 12.25 15 7.75C15 4.438 12.3137 1.75 9 1.75C5.6863 1.75 3 4.438 3 7.75C3 12.25 7.4167 15.75 9 16.25Z" fill="#000" fill-opacity="0.3" data-color="color-2" data-stroke="none"></path> <path d="M9 5.25V10.25" stroke="black" stroke-width="1.5" stroke-linecap="round" stroke-linejoin="round" fill="none"></path> <path d="M11.5 7.75H6.5" stroke="black" stroke-width="1.5" stroke-linecap="round" stroke-linejoin="round" fill="none"></path> <path d="M9 16.25C10.5833 15.75 15 12.25 15 7.75C15 4.438 12.3137 1.75 9 1.75C5.6863 1.75 3 4.438 3 7.75C3 12.25 7.4167 15.75 9 16.25Z" stroke="black" stroke-width="1.5" stroke-linecap="round" stroke-linejoin="round" fill="none"></path></svg>