<svg xmlns="http://www.w3.org/2000/svg" xmlns:xlink="http://www.w3.org/1999/xlink" x="0px" y="0px" width="18px" height="18px" viewBox="0 0 18 18"><path fill-rule="evenodd" clip-rule="evenodd" d="M9 1.75C13.004 1.75 16.25 4.9959 16.25 9C16.25 13.0041 13.004 16.25 9 16.25C4.996 16.25 1.75 13.0041 1.75 9C1.75 4.9959 4.996 1.75 9 1.75ZM7.58691 7.58496L5.71582 12.2842L10.415 10.4131L12.2861 5.71387L7.58691 7.58496Z" fill="#000" fill-opacity="0.3" data-color="color-2" data-stroke="none"></path> <path d="M12.286 5.71399L10.415 10.413L5.716 12.284L7.587 7.58499L12.286 5.71399Z" stroke="black" stroke-width="1.5" stroke-linecap="round" stroke-linejoin="round" fill="none"></path> <path d="M9 16.25C13.004 16.25 16.25 13.0041 16.25 9C16.25 4.9959 13.004 1.75 9 1.75C4.996 1.75 1.75 4.9959 1.75 9C1.75 13.0041 4.996 16.25 9 16.25Z" stroke="black" stroke-width="1.5" stroke-linecap="round" stroke-linejoin="round" fill="none"></path></svg>