<svg xmlns="http://www.w3.org/2000/svg" xmlns:xlink="http://www.w3.org/1999/xlink" x="0px" y="0px" width="18px" height="18px" viewBox="0 0 18 18"><path d="M3.47399 2.78401L14.897 6.95801C15.378 7.13401 15.364 7.81901 14.876 7.97601L9.64799 9.64901L7.97499 14.877C7.81899 15.365 7.13299 15.379 6.95699 14.898L2.78399 3.47401C2.62699 3.04401 3.04399 2.62701 3.47399 2.78401Z" fill="#000" fill-opacity="0.3" data-color="color-2" data-stroke="none"></path> <path d="M3.47399 2.78401L14.897 6.95801C15.378 7.13401 15.364 7.81901 14.876 7.97601L9.64799 9.64901L7.97499 14.877C7.81899 15.365 7.13299 15.379 6.95699 14.898L2.78399 3.47401C2.62699 3.04401 3.04399 2.62701 3.47399 2.78401Z" stroke="black" stroke-width="1.5" stroke-linecap="round" stroke-linejoin="round" fill="none"></path></svg>