<svg xmlns="http://www.w3.org/2000/svg" xmlns:xlink="http://www.w3.org/1999/xlink" x="0px" y="0px" width="18px" height="18px" viewBox="0 0 18 18"><path fill-rule="evenodd" clip-rule="evenodd" d="M12.5938 9.47835C13.5956 8.98761 14.2854 7.95796 14.2854 6.7672C14.2854 5.10085 12.9346 3.75 11.2682 3.75C9.60185 3.75 8.25101 5.10085 8.25101 6.7672C8.25101 6.78657 8.25119 6.8059 8.25155 6.82518C8.49315 6.77589 8.74342 6.75 9.00001 6.75C10.7147 6.75 12.1465 7.90712 12.5938 9.47835Z" fill="#000" fill-opacity="0.3" data-color="color-2" data-stroke="none"></path> <path d="M8.25101 6.826C8.25101 6.801 8.25101 6.776 8.25101 6.75C8.25101 5.093 9.59401 3.75 11.251 3.75C12.908 3.75 14.251 5.093 14.251 6.75C14.251 6.834 14.248 6.918 14.241 7" stroke="black" stroke-width="1.5" stroke-linecap="round" stroke-linejoin="round" fill="none"></path> <path d="M11.25 0.75V1.25" stroke="black" stroke-width="1.5" stroke-linecap="round" stroke-linejoin="round" fill="none"></path> <path d="M15.493 2.507L15.139 2.861" stroke="black" stroke-width="1.5" stroke-linecap="round" stroke-linejoin="round" fill="none"></path> <path d="M7.00699 2.507L7.36099 2.861" stroke="black" stroke-width="1.5" stroke-linecap="round" stroke-linejoin="round" fill="none"></path> <path d="M17.25 6.75H16.75" stroke="black" stroke-width="1.5" stroke-linecap="round" stroke-linejoin="round" fill="none"></path> <path d="M1.75 14.25H11.25" stroke="black" stroke-width="1.5" stroke-linecap="round" stroke-linejoin="round" fill="none"></path> <path d="M8.75 17.25H14.25" stroke="black" stroke-width="1.5" stroke-linecap="round" stroke-linejoin="round" fill="none"></path> <path d="M14.25 14.25H16.25" stroke="black" stroke-width="1.5" stroke-linecap="round" stroke-linejoin="round" fill="none"></path> <path d="M3.75 17.25H5.75" stroke="black" stroke-width="1.5" stroke-linecap="round" stroke-linejoin="round" fill="none"></path> <path d="M16.25 11.75C16.25 10.369 15.131 9.25 13.75 9.25C13.337 9.25 12.953 9.36 12.61 9.537C12.183 7.935 10.736 6.75 9 6.75C7.264 6.75 5.818 7.936 5.39 9.537C5.047 9.36 4.663 9.25 4.25 9.25C2.869 9.25 1.75 10.369 1.75 11.75" stroke="black" stroke-width="1.5" stroke-linecap="round" stroke-linejoin="round" fill="none"></path> <path d="M11.585 10.499C11.824 10.086 12.179 9.747 12.605 9.527" stroke="black" stroke-width="1.5" stroke-linecap="round" stroke-linejoin="round" fill="none"></path></svg>