<svg xmlns="http://www.w3.org/2000/svg" xmlns:xlink="http://www.w3.org/1999/xlink" x="0px" y="0px" width="18px" height="18px" viewBox="0 0 18 18"><path d="M6.75 4L9 1.75L11.25 4" stroke="black" stroke-width="1.5" stroke-linecap="round" stroke-linejoin="round" fill="none"></path> <path d="M9 1.75V7.25" stroke="black" stroke-width="1.5" stroke-linecap="round" stroke-linejoin="round" fill="none"></path> <path d="M1.75 15.25C3.15 15.254 4.479 14.634 5.375 13.558C7.053 15.56 10.036 15.823 12.038 14.145C12.25 13.967 12.447 13.771 12.625 13.558C13.519 14.636 14.849 15.257 16.25 15.25" stroke="black" stroke-width="1.5" stroke-linecap="round" stroke-linejoin="round" fill="none"></path> <path d="M1.75 10.846C3.15 10.85 4.479 10.23 5.375 9.154C7.053 11.156 10.036 11.419 12.038 9.741C12.25 9.563 12.447 9.367 12.625 9.154C13.519 10.232 14.849 10.853 16.25 10.846" stroke="black" stroke-width="1.5" stroke-linecap="round" stroke-linejoin="round" fill="none"></path></svg>