<svg xmlns="http://www.w3.org/2000/svg" xmlns:xlink="http://www.w3.org/1999/xlink" x="0px" y="0px" width="18px" height="18px" viewBox="0 0 18 18"><path d="M9 17.25C10.036 17.25 10.875 16.398 10.875 15.347C10.875 13.902 9.824 13.284 9 12.25C8.176 13.284 7.125 13.902 7.125 15.347C7.125 16.398 7.964 17.25 9 17.25Z" fill="#000" fill-opacity="0.3" data-color="color-2" data-stroke="none"></path> <path fill-rule="evenodd" clip-rule="evenodd" d="M12.5938 9.47835C13.5956 8.98761 14.2854 7.95796 14.2854 6.7672C14.2854 5.10085 12.9346 3.75 11.2682 3.75C9.60186 3.75 8.25101 5.10085 8.25101 6.7672C8.25101 6.78657 8.25119 6.8059 8.25156 6.82518C8.49315 6.77589 8.74343 6.75 9.00001 6.75C10.7147 6.75 12.1465 7.90712 12.5938 9.47835Z" fill="#000" fill-opacity="0.3" data-color="color-2" data-stroke="none"></path> <path d="M17.25 6.75H16.75" stroke="black" stroke-width="1.5" stroke-linecap="round" stroke-linejoin="round" fill="none"></path> <path d="M8.25101 6.826C8.25101 6.801 8.25101 6.776 8.25101 6.75C8.25101 5.093 9.59401 3.75 11.251 3.75C12.908 3.75 14.251 5.093 14.251 6.75C14.251 6.834 14.248 6.918 14.241 7" stroke="black" stroke-width="1.5" stroke-linecap="round" stroke-linejoin="round" fill="none"></path> <path d="M11.25 0.75V1.25" stroke="black" stroke-width="1.5" stroke-linecap="round" stroke-linejoin="round" fill="none"></path> <path d="M15.493 2.507L15.139 2.861" stroke="black" stroke-width="1.5" stroke-linecap="round" stroke-linejoin="round" fill="none"></path> <path d="M7.00699 2.507L7.36099 2.861" stroke="black" stroke-width="1.5" stroke-linecap="round" stroke-linejoin="round" fill="none"></path> <path d="M9 17.25C10.036 17.25 10.875 16.398 10.875 15.347C10.875 13.902 9.824 13.284 9 12.25C8.176 13.284 7.125 13.902 7.125 15.347C7.125 16.398 7.964 17.25 9 17.25Z" stroke="black" stroke-width="1.5" stroke-linecap="round" stroke-linejoin="round" fill="none"></path> <path d="M11.585 10.499C11.824 10.086 12.179 9.74701 12.605 9.52701" stroke="black" stroke-width="1.5" stroke-linecap="round" stroke-linejoin="round" fill="none"></path> <path d="M13.757 14.2493C15.1346 14.2454 16.25 13.1285 16.25 11.75C16.25 10.3691 15.131 9.25 13.75 9.25C13.337 9.25 12.953 9.3599 12.61 9.5371C12.182 7.936 10.736 6.75 9 6.75C7.264 6.75 5.817 7.9351 5.39 9.5371C5.047 9.3599 4.663 9.25 4.25 9.25C2.869 9.25 1.75 10.3691 1.75 11.75C1.75 13.1284 2.8654 14.2454 4.243 14.2493" stroke="black" stroke-width="1.5" stroke-linecap="round" stroke-linejoin="round" fill="none"></path></svg>