<svg xmlns="http://www.w3.org/2000/svg" xmlns:xlink="http://www.w3.org/1999/xlink" x="0px" y="0px" width="18px" height="18px" viewBox="0 0 18 18"><path d="m9,1.75c4.004,0,7.25,3.246,7.25,7.25s-3.246,7.25-7.25,7.25" fill="none" stroke="#000" stroke-linecap="round" stroke-linejoin="round" stroke-width="1.5"></path><circle cx="3.873" cy="14.127" r=".75" stroke-width="0" fill="#000"></circle><circle cx="1.75" cy="9" r=".75" stroke-width="0" fill="#000"></circle><circle cx="3.873" cy="3.873" r=".75" stroke-width="0" fill="#000"></circle><circle cx="6.226" cy="15.698" r=".75" stroke-width="0" fill="#000"></circle><circle cx="2.302" cy="11.774" r=".75" stroke-width="0" fill="#000"></circle><circle cx="2.302" cy="6.226" r=".75" stroke-width="0" fill="#000"></circle><circle cx="6.226" cy="2.302" r=".75" stroke-width="0" fill="#000"></circle><path d="m9.5,5.75h2.25c.276,0,.5.224.5.5v6h-3.25v-6c0-.276.224-.5.5-.5Z" fill="none" stroke="#000" stroke-linecap="round" stroke-linejoin="round" stroke-width="1.5" data-color="color-2"></path><path d="m6.25,8.75h2.25c.276,0,.5.224.5.5v3h-3.25v-3c0-.276.224-.5.5-.5Z" fill="none" stroke="#000" stroke-linecap="round" stroke-linejoin="round" stroke-width="1.5" data-color="color-2"></path></svg>