<svg xmlns="http://www.w3.org/2000/svg" xmlns:xlink="http://www.w3.org/1999/xlink" x="0px" y="0px" width="18px" height="18px" viewBox="0 0 18 18"><path d="M15.25 8.75H12.809C12.6196 8.75 12.4465 8.857 12.3618 9.0264L11.1808 11.3885C10.9996 11.7508 10.4854 11.7586 10.2934 11.4019L7.70671 6.5981C7.51471 6.2414 7.00042 6.2492 6.81932 6.6115L5.63832 8.9736C5.55362 9.143 5.38052 9.25 5.19112 9.25H2.75012" stroke="#000" stroke-width="1.5" stroke-linecap="round" stroke-linejoin="round" data-color="color-2" fill="none"></path> <path d="M15.25 4.75C15.25 3.645 14.355 2.75 13.25 2.75H4.75C3.645 2.75 2.75 3.645 2.75 4.75V13.25C2.75 14.355 3.645 15.25 4.75 15.25H13.25C14.355 15.25 15.25 14.355 15.25 13.25V4.75Z" stroke="black" stroke-width="1.5" stroke-linecap="round" stroke-linejoin="round" fill="none"></path></svg>