<svg xmlns="http://www.w3.org/2000/svg" xmlns:xlink="http://www.w3.org/1999/xlink" x="0px" y="0px" width="18px" height="18px" viewBox="0 0 18 18"><path d="M1.75 4.75C1.75 3.64543 2.64543 2.75 3.75 2.75H14.25C15.3546 2.75 16.25 3.64543 16.25 4.75V7.75H1.75V4.75Z" fill="#000" fill-opacity="0.3" data-color="color-2" data-stroke="none"></path> <path d="M4.25 6C4.6642 6 5 5.66 5 5.25C5 4.84 4.6642 4.5 4.25 4.5C3.8358 4.5 3.5 4.84 3.5 5.25C3.5 5.66 3.8358 6 4.25 6Z" fill="black" data-stroke="none"></path> <path d="M6.75 6C7.1642 6 7.5 5.66 7.5 5.25C7.5 4.84 7.1642 4.5 6.75 4.5C6.3358 4.5 6 4.84 6 5.25C6 5.66 6.3358 6 6.75 6Z" fill="black" data-stroke="none"></path> <path d="M1.75 7.75H16.25" stroke="black" stroke-width="1.5" stroke-linecap="round" stroke-linejoin="round" fill="none"></path> <path d="M16.25 11.25V4.75C16.25 3.65 15.355 2.75 14.25 2.75H3.75C2.645 2.75 1.75 3.65 1.75 4.75V13.25C1.75 14.35 2.645 15.25 3.75 15.25H6.25" stroke="black" stroke-width="1.5" stroke-linecap="round" stroke-linejoin="round" fill="none"></path> <path d="M11.25 16.25C12.3546 16.25 13.25 15.3546 13.25 14.25C13.25 13.1454 12.3546 12.25 11.25 12.25C10.1454 12.25 9.25 13.1454 9.25 14.25C9.25 15.3546 10.1454 16.25 11.25 16.25Z" stroke="black" stroke-width="1.5" stroke-linecap="round" stroke-linejoin="round" fill="none"></path> <path d="M13.25 14.25H17.25" stroke="black" stroke-width="1.5" stroke-linecap="round" stroke-linejoin="round" fill="none"></path> <path d="M15.75 14.25V15.75" stroke="black" stroke-width="1.5" stroke-linecap="round" stroke-linejoin="round" fill="none"></path></svg>