<svg xmlns="http://www.w3.org/2000/svg" xmlns:xlink="http://www.w3.org/1999/xlink" x="0px" y="0px" width="18px" height="18px" viewBox="0 0 18 18"><path d="M5.25 8.25V5C5.25 3.205 6.705 1.75 8.5 1.75C10.295 1.75 11.75 3.205 11.75 5V8.25" stroke="black" stroke-width="1.5" stroke-linecap="round" stroke-linejoin="round" fill="none"></path> <path d="M11 16.75C12.1046 16.75 13 15.8546 13 14.75C13 13.6454 12.1046 12.75 11 12.75C9.89543 12.75 9 13.6454 9 14.75C9 15.8546 9.89543 16.75 11 16.75Z" stroke="#000" stroke-width="1.5" stroke-linecap="round" stroke-linejoin="round" data-color="color-2" fill="none"></path> <path d="M13 14.75H17" stroke="#000" stroke-width="1.5" stroke-linecap="round" stroke-linejoin="round" data-color="color-2" fill="none"></path> <path d="M14.25 10.9785V10.25C14.25 9.145 13.355 8.25 12.25 8.25H4.75C3.645 8.25 2.75 9.145 2.75 10.25V14.25C2.75 15.355 3.645 16.25 4.75 16.25H6.25529" stroke="black" stroke-width="1.5" stroke-linecap="round" stroke-linejoin="round" fill="none"></path> <path d="M15.5 14.75V16.25" stroke="#000" stroke-width="1.5" stroke-linecap="round" stroke-linejoin="round" data-color="color-2" fill="none"></path></svg>