<svg xmlns="http://www.w3.org/2000/svg" xmlns:xlink="http://www.w3.org/1999/xlink" x="0px" y="0px" width="18px" height="18px" viewBox="0 0 18 18"><path d="m5.25,12.75h-1c-1.1046,0-2-.8954-2-2v-6.5c0-1.1046.8954-2,2-2h6.5c1.1046,0,2,.8954,2,2v1" fill="none" stroke="#000" stroke-linecap="round" stroke-linejoin="round" stroke-width="1.5"></path><path d="m13.75,5.25h-6.5c-1.1046,0-2,.8954-2,2v6.5c0,1.1046.8954,2,2,2h6.5c1.1046,0,2-.8954,2-2v-6.5c0-1.1046-.8954-2-2-2Z" fill="none" stroke="#000" stroke-linecap="round" stroke-linejoin="round" stroke-width="1.5"></path><path d="m10.7513,8.75h1.0549c.7966,0,1.4434.6468,1.4434,1.4434v1.1132c0,.7966-.6468,1.4434-1.4434,1.4434h-1.0549v-4h0Z" fill="none" stroke="#000" stroke-linecap="round" stroke-linejoin="round" stroke-width="1.5" data-color="color-2"></path><line x1="8.25" y1="8.75" x2="8.25" y2="12.75" fill="none" stroke="#000" stroke-linecap="round" stroke-linejoin="round" stroke-width="1.5" data-color="color-2"></line></svg>