<svg xmlns="http://www.w3.org/2000/svg" xmlns:xlink="http://www.w3.org/1999/xlink" x="0px" y="0px" width="12px" height="12px" viewBox="0 0 12 12"><path d="m6.75,4.25h3.5c0-.321-.127-.627-.353-.853l-2.295-2.295c-.226-.226-.532-.353-.851-.353v3.5Z" fill="#000" stroke-width="0" data-color="color-2"></path><polyline points="6.75 .75 6.75 4.25 10.25 4.25" fill="none" stroke="#000" stroke-linecap="round" stroke-linejoin="round" stroke-width="1.5" data-color="color-2"></polyline><path d="m6.236,11.25h2.014c1.105,0,2-.895,2-2v-5.001c0-.32-.127-.626-.353-.852l-2.294-2.294c-.226-.226-.532-.353-.852-.353h-3.001c-1.105,0-2,.895-2,2v4" fill="none" stroke="#000" stroke-linecap="round" stroke-linejoin="round" stroke-width="1.5"></path><line x1="4.75" y1="9.25" x2=".75" y2="9.25" fill="none" stroke="#000" stroke-linecap="round" stroke-linejoin="round" stroke-width="1.5" data-color="color-2"></line></svg>