<svg xmlns="http://www.w3.org/2000/svg" xmlns:xlink="http://www.w3.org/1999/xlink" x="0px" y="0px" width="18px" height="18px" viewBox="0 0 18 18"><path d="M5.75 6.75H7.75" stroke="black" stroke-width="1.5" stroke-linecap="round" stroke-linejoin="round" fill="none"></path> <path d="M5.75 9.75H10.25" stroke="black" stroke-width="1.5" stroke-linecap="round" stroke-linejoin="round" fill="none"></path> <path d="M15.16 6.24999H11.75C11.198 6.24999 10.75 5.80199 10.75 5.24999V1.85199" stroke="black" stroke-width="1.5" stroke-linecap="round" stroke-linejoin="round" fill="none"></path> <path d="M16.25 13.75H12.25C11.698 13.75 11.25 14.198 11.25 14.75V16.25C11.25 16.802 11.698 17.25 12.25 17.25H16.25C16.802 17.25 17.25 16.802 17.25 16.25V14.75C17.25 14.198 16.802 13.75 16.25 13.75Z" stroke="#000" stroke-width="1.5" stroke-linecap="round" stroke-linejoin="round" data-color="color-2" fill="none"></path> <path d="M15.25 7.8757V6.665C15.25 6.3999 15.145 6.145 14.957 5.958L11.043 2.0439C10.855 1.8559 10.601 1.7509 10.336 1.7509H4.75C3.645 1.7509 2.75 2.6469 2.75 3.7509V14.2499C2.75 15.3539 3.645 16.2499 4.75 16.2499H8.25" stroke="black" stroke-width="1.5" stroke-linecap="round" stroke-linejoin="round" fill="none"></path> <path d="M12.75 13.75V12.25C12.75 11.422 13.422 10.75 14.25 10.75C15.078 10.75 15.75 11.422 15.75 12.25V13.75" stroke="#000" stroke-width="1.5" stroke-linecap="round" stroke-linejoin="round" data-color="color-2" fill="none"></path></svg>