<svg xmlns="http://www.w3.org/2000/svg" xmlns:xlink="http://www.w3.org/1999/xlink" x="0px" y="0px" width="18px" height="18px" viewBox="0 0 18 18"><path d="M11.25 10.25V11.25C11.25 11.802 10.802 12.25 10.25 12.25H7.75C7.198 12.25 6.75 11.802 6.75 11.25V10.25H2.75V13.25C2.75 14.354 3.645 15.25 4.75 15.25H13.25C14.355 15.25 15.25 14.354 15.25 13.25V10.25H11.25Z" stroke="black" stroke-width="1.5" stroke-linecap="round" stroke-linejoin="round" fill="none"></path> <path d="M13 6.25C14.2426 6.25 15.25 5.2426 15.25 4C15.25 2.7574 14.2426 1.75 13 1.75C11.7574 1.75 10.75 2.7574 10.75 4C10.75 5.2426 11.7574 6.25 13 6.25Z" stroke="#000" stroke-width="1.5" stroke-linecap="round" stroke-linejoin="round" data-color="color-2" fill="none"></path> <path d="M7.9016 2.75H4.75C3.645 2.75 2.75 3.646 2.75 4.75V10.25" stroke="black" stroke-width="1.5" stroke-linecap="round" stroke-linejoin="round" fill="none"></path> <path d="M14.5896 5.5896L16.25 7.25" stroke="#000" stroke-width="1.5" stroke-linecap="round" stroke-linejoin="round" data-color="color-2" fill="none"></path></svg>