<svg xmlns="http://www.w3.org/2000/svg" xmlns:xlink="http://www.w3.org/1999/xlink" x="0px" y="0px" width="18px" height="18px" viewBox="0 0 18 18"><path d="M2.75,14.25V3.75c0-1.105,.895-2,2-2h5.586c.265,0,.52,.105,.707,.293l3.914,3.914c.188,.188,.293,.442,.293,.707v7.586c0,1.105-.895,2-2,2H4.75c-1.105,0-2-.895-2-2Z" fill="none" stroke="#000" stroke-linecap="round" stroke-linejoin="round" stroke-width="1.5"></path><path d="M15.16,6.25h-3.41c-.552,0-1-.448-1-1V1.852" fill="none" stroke="#000" stroke-linecap="round" stroke-linejoin="round" stroke-width="1.5"></path><rect x="5" y="2.5" width="2" height="1.5" fill="#000" data-color="color-2" data-stroke="none"></rect><rect x="7" y="4" width="2" height="1.5" fill="#000" data-color="color-2" data-stroke="none"></rect><rect x="5" y="5.5" width="2" height="1.5" fill="#000" data-color="color-2" data-stroke="none"></rect><rect x="7" y="7" width="2" height="1.5" fill="#000" data-color="color-2" data-stroke="none"></rect><path d="M7,9.75h0c.69,0,1.25,.56,1.25,1.25v2.25h-2.5v-2.25c0-.69,.56-1.25,1.25-1.25Z" fill="none" stroke="#000" stroke-linecap="round" stroke-linejoin="round" stroke-width="1.5" data-color="color-2"></path></svg>