<svg xmlns="http://www.w3.org/2000/svg" xmlns:xlink="http://www.w3.org/1999/xlink" x="0px" y="0px" width="18px" height="18px" viewBox="0 0 18 18"><path d="M6.5 5.25L9 2.75L11.5 5.25" stroke="#000" stroke-width="1.5" stroke-linecap="round" stroke-linejoin="round" data-color="color-2" fill="none"></path> <path d="M9 2.75V8.25" stroke="#000" stroke-width="1.5" stroke-linecap="round" stroke-linejoin="round" data-color="color-2" fill="none"></path> <path d="M13.25 2.75C14.355 2.75 15.25 3.645 15.25 4.75V13.25C15.25 14.355 14.355 15.25 13.25 15.25H4.75C3.645 15.25 2.75 14.355 2.75 13.25V4.75C2.75 3.645 3.645 2.75 4.75 2.75" stroke="black" stroke-width="1.5" stroke-linecap="round" stroke-linejoin="round" fill="none"></path> <path d="M15.25 10.25H11.25V11.25C11.25 11.802 10.802 12.25 10.25 12.25H7.75C7.198 12.25 6.75 11.802 6.75 11.25V10.25H2.75" stroke="black" stroke-width="1.5" stroke-linecap="round" stroke-linejoin="round" fill="none"></path></svg>