<svg xmlns="http://www.w3.org/2000/svg" xmlns:xlink="http://www.w3.org/1999/xlink" x="0px" y="0px" width="24px" height="24px" viewBox="0 0 24 24"> <path d="M9.70703 1.70703L1.70703 9.70703L0.292969 8.29297L8.29297 0.292969L9.70703 1.70703Z" fill="#000" data-color="color-2"></path> <path d="M9.99944 0.000137352L10.0001 6.00019H8.00034L7.99965 1.99992H4.00008V0.000137352H9.99944Z" fill="#000" data-color="color-2"></path> <path d="M0.000503615 9.99986L-0.000186413 3.99981L1.9996 3.99981L2.00029 8.00008L5.99986 8.00008L5.99986 9.99986L0.000503615 9.99986Z" fill="#000" data-color="color-2"></path> <path d="M6.64658 14.371L10.9077 18.5106C11.3517 19.0845 11.5917 19.7826 11.5917 20.5V24H22.4215L23.9551 14.8777C24.2429 13.1655 23.1209 11.5277 21.3815 11.121L15.0117 9.63154V4.50583C15.0117 3.67418 14.3375 3 13.5058 3C12.6742 3 12 3.67418 12 4.50582L12 14.0526L8.35108 12.0917C7.71797 11.7515 6.93125 11.925 6.5 12.5C6.0712 13.0717 6.13398 13.873 6.64658 14.371Z" fill="black"></path> </svg>