<svg xmlns="http://www.w3.org/2000/svg" xmlns:xlink="http://www.w3.org/1999/xlink" x="0px" y="0px" width="24px" height="24px" viewBox="0 0 24 24"> <path d="M11 1.5H13V9H11V1.5Z" fill="#000" data-color="color-2"></path> <path d="M12 0.0859373L16.4141 4.5L15 5.91406L12 2.91406L9 5.91406L7.58594 4.5L12 0.0859373Z" fill="#000" data-color="color-2"></path> <path d="M12.5 15.298V22L17 22V15.298C17 14.0554 15.9926 13.048 14.75 13.048C13.5074 13.048 12.5 14.0554 12.5 15.298Z" fill="black"></path> <path d="M18 17.5057V22H22.5V17.5057C22.5 16.2631 21.4926 15.2557 20.25 15.2557C19.0074 15.2557 18 16.2631 18 17.5057Z" fill="black"></path> <path d="M1.45789 15.5524L1.49997 22L5.99998 22L5.95771 15.523C5.94964 14.2862 4.94469 13.2878 3.7078 13.2878C2.45945 13.2878 1.44975 14.3041 1.45789 15.5524Z" fill="black"></path> <path d="M7 13.5V22L11.5 22V13C11.5 11.8954 10.6046 11 9.5 11C8.11929 11 7 12.1193 7 13.5Z" fill="black"></path> </svg>