<svg xmlns="http://www.w3.org/2000/svg" xmlns:xlink="http://www.w3.org/1999/xlink" x="0px" y="0px" width="32px" height="32px" viewBox="0 0 32 32"> <path d="M15 2H17V13H15V2Z" fill="#000" data-color="color-2"></path> <path d="M15.9999 0.585968L10.0859 6.50003L11.4999 7.91409L15.9999 3.41409L20.4999 7.91409L21.914 6.50003L15.9999 0.585968Z" fill="#000" data-color="color-2"></path> <path d="M13 18V30H19V18C19 16.3431 17.6569 15 16 15C14.3431 15 13 16.3431 13 18Z" fill="black"></path> <path d="M20.5 21V30H26.5V21C26.5 19.3431 25.1569 18 23.5 18C21.8431 18 20.5 19.3431 20.5 21Z" fill="black"></path> <path d="M5.5 21V30H11.5V21C11.5 19.3431 10.1569 18 8.5 18C6.84315 18 5.5 19.3431 5.5 21Z" fill="black"></path> </svg>