<svg xmlns="http://www.w3.org/2000/svg" xmlns:xlink="http://www.w3.org/1999/xlink" x="0px" y="0px" width="32px" height="32px" viewBox="0 0 32 32"> <path d="M15.0002 1.49969L17 1.49969L17 11.5L15.0002 11.5L15.0002 1.49969Z" fill="#000" data-color="color-2"></path> <path d="M15.0002 30.5003L17 30.5003L17 20.5L15.0002 20.5L15.0002 30.5003Z" fill="#000" data-color="color-2"></path> <path d="M16 0.0859522L11.0859 5.00001L12.5 6.41408L16 2.91408L19.5 6.41408L20.9141 5.00002L16 0.0859522Z" fill="#000" data-color="color-2"></path> <path d="M16 31.914L11.0859 27L12.5 25.5859L16 29.0859L19.5 25.5859L20.9141 27L16 31.914Z" fill="#000" data-color="color-2"></path> <path d="M30.5003 15.0001L30.5003 16.9999L20.5 16.9999L20.5 15.0001L30.5003 15.0001Z" fill="#000" data-color="color-2"></path> <path d="M1.49967 15.0001V16.9999H11.5V15.0001H1.49967Z" fill="#000" data-color="color-2"></path> <path d="M31.9142 15.9999L27.0001 11.0858L25.5861 12.4999L29.0861 15.9999L25.5861 19.4999L27.0001 20.9139L31.9142 15.9999Z" fill="#000" data-color="color-2"></path> <path d="M0.0860593 15.9999L5.00012 11.0858L6.41418 12.4999L2.91418 15.9999L6.41418 19.4999L5.00012 20.9139L0.0860593 15.9999Z" fill="#000" data-color="color-2"></path> <path d="M11 11H21V21H11V11Z" fill="black"></path> </svg>