<svg xmlns="http://www.w3.org/2000/svg" xmlns:xlink="http://www.w3.org/1999/xlink" x="0px" y="0px" width="48px" height="48px" viewBox="0 0 48 48"> <path d="M42 12.5L4.99979 12.5L4.99979 9.50028L42 9.50028L42 12.5Z" fill="#000" data-color="color-2"></path> <path d="M2.87903 11L11.6827 2.19629L13.8038 4.31738L7.12122 11L13.8038 17.6826L11.6827 19.8037L2.87903 11Z" fill="#000" data-color="color-2"></path> <path d="M15 25.1129V44.0001H23V25.1129C23 22.9038 21.2091 21.1129 19 21.1129C16.7909 21.1129 15 22.9038 15 25.1129Z" fill="black"></path> <path d="M25 29.0806L25 44H33L33 29.0806C33 26.8714 31.2091 25.0806 29 25.0806C26.7909 25.0806 25 26.8714 25 29.0806Z" fill="black"></path> <path d="M35 34.5V44H43L43 34.5C43 32.2909 41.2091 30.5 39 30.5C36.7909 30.5 35 32.2909 35 34.5Z" fill="black"></path> <path d="M5 30.5V44H13L13 30.5C13 28.2909 11.2091 26.5 9 26.5C6.79086 26.5 5 28.2909 5 30.5Z" fill="black"></path> </svg>