<svg xmlns="http://www.w3.org/2000/svg" xmlns:xlink="http://www.w3.org/1999/xlink" x="0px" y="0px" width="48px" height="48px" viewBox="0 0 48 48"> <path d="M17.5771 22.5C17.5265 22.9931 17.5 23.4935 17.5 24C17.5 24.5065 17.5265 25.0069 17.5771 25.5H3V22.5H17.5771Z" fill="#000" data-color="color-2"></path> <path d="M11.6612 34.7822L0.878967 24L11.6465 13.2324L13.7676 15.3535L5.12115 24L13.7823 32.6611L11.6612 34.7822Z" fill="#000" data-color="color-2"></path> <path d="M32 35.5C25.6487 35.5 20.5 30.3513 20.5 24C20.5 17.6487 25.6487 12.5 32 12.5C38.3513 12.5 43.5 17.6487 43.5 24C43.5 30.3513 38.3513 35.5 32 35.5Z" fill="black"></path> </svg>