<svg xmlns="http://www.w3.org/2000/svg" xmlns:xlink="http://www.w3.org/1999/xlink" x="0px" y="0px" width="20px" height="20px" viewBox="0 0 20 20"><line x1="6" y1="15" x2="6" y2="17" fill="none" stroke="#000" stroke-linecap="round" stroke-linejoin="round" stroke-width="2"></line><line x1="14" y1="15" x2="14" y2="17" fill="none" stroke="#000" stroke-linecap="round" stroke-linejoin="round" stroke-width="2"></line><rect x="6" y="13" width="8" height="2" stroke="#000" stroke-linecap="round" stroke-linejoin="round" stroke-width="2" fill="#000"></rect><circle cx="4.5" cy="10.5" r="1.5" stroke="#000" stroke-linecap="round" stroke-linejoin="round" stroke-width="2" fill="#000"></circle><path d="m4,10.5h2v4.5h0c-1.104,0-2-.896-2-2v-2.5h0Z" stroke="#000" stroke-linecap="round" stroke-linejoin="round" stroke-width="2" fill="#000"></path><circle cx="15.5" cy="10.5" r="1.5" stroke="#000" stroke-linecap="round" stroke-linejoin="round" stroke-width="2" fill="#000"></circle><path d="m16,10.5h0v4.5h-2v-2.5c0-1.104.896-2,2-2Z" transform="translate(30 25.5) rotate(180)" stroke="#000" stroke-linecap="round" stroke-linejoin="round" stroke-width="2" fill="#000"></path><path d="m5,6v-1c0-1.105.895-2,2-2h6c1.105,0,2,.895,2,2v1" fill="none" stroke="#000" stroke-linecap="round" stroke-linejoin="round" stroke-width="2" data-color="color-2"></path></svg>