<svg xmlns="http://www.w3.org/2000/svg" xmlns:xlink="http://www.w3.org/1999/xlink" x="0px" y="0px" width="20px" height="20px" viewBox="0 0 20 20"><path d="m4.378,6.114l5.082-3.267c.329-.212.752-.212,1.082,0l5.082,3.267c.859.552,1.378,1.503,1.378,2.524v5.362c0,1.657-1.343,3-3,3H6c-1.657,0-3-1.343-3-3v-5.362c0-1.021.519-1.972,1.378-2.524Z" fill="none" stroke="#000" stroke-linecap="round" stroke-linejoin="round" stroke-width="2"></path><circle cx="6.75" cy="10.25" r="1.25" fill="#000" stroke-width="0" data-color="color-2"></circle><circle cx="13.25" cy="10.25" r="1.25" fill="#000" stroke-width="0" data-color="color-2"></circle><path d="m8.667,12h2.667c.368,0,.667.299.667.667h0c0,1.104-.896,2-2,2h0c-1.104,0-2-.896-2-2h0c0-.368.299-.667.667-.667Z" fill="#000" stroke-width="0" data-color="color-2"></path></svg>