<svg xmlns="http://www.w3.org/2000/svg" xmlns:xlink="http://www.w3.org/1999/xlink" x="0px" y="0px" width="20px" height="20px" viewBox="0 0 20 20"><rect x="10" y="2" width="3" height="1" fill="#000" stroke="#000" stroke-linecap="round" stroke-linejoin="round" stroke-width="2" data-color="color-2"></rect><line x1="10" y1="3" x2="10" y2="6" fill="none" stroke="#000" stroke-linecap="round" stroke-linejoin="round" stroke-width="2" data-color="color-2"></line><path d="m16,12v-2.434c0-.698-.372-1.355-.971-1.715l-4.515-2.708c-.317-.19-.712-.19-1.029,0l-4.515,2.709c-.599.36-.97,1.017-.97,1.715v2.434c-1.103,0-2,.897-2,2v2c0,1.103.897,2,2,2h4v-3c0-1.105.895-2,2-2s2,.895,2,2v3h4c1.103,0,2-.897,2-2v-2c0-1.103-.897-2-2-2Z" stroke-width="0" fill="#000"></path></svg>