<svg xmlns="http://www.w3.org/2000/svg" xmlns:xlink="http://www.w3.org/1999/xlink" x="0px" y="0px" width="20px" height="20px" viewBox="0 0 20 20"><path d="m16.916,7.971c-.173-.756-.626-1.428-1.293-1.857l-5.081-3.267c-.329-.212-.752-.212-1.082,0l-5.081,3.267c-.859.552-1.378,1.503-1.378,2.524v5.362c0,1.657,1.343,3,3,3h3.935" fill="none" stroke="#000" stroke-linecap="round" stroke-linejoin="round" stroke-width="2"></path><path d="m17.006,10.995c-1.325-1.326-3.483-1.326-4.809,0-1.326,1.325-1.326,3.482,0,4.808.362.362,1.31,1.456,1.645,1.847.19.222.468.35.76.35s.569-.128.76-.35c.334-.391,1.283-1.484,1.645-1.847,1.326-1.325,1.326-3.482,0-4.808Zm-2.404,3.504c-.69,0-1.25-.56-1.25-1.25s.56-1.25,1.25-1.25,1.25.56,1.25,1.25-.56,1.25-1.25,1.25Z" fill="#000" stroke-width="0" data-color="color-2"></path></svg>