<svg xmlns="http://www.w3.org/2000/svg" xmlns:xlink="http://www.w3.org/1999/xlink" x="0px" y="0px" width="18px" height="18px" viewBox="0 0 18 18"><line x1="7" y1="12.75" x2="11" y2="12.75" fill="none" stroke="#000" stroke-linecap="round" stroke-linejoin="round" stroke-width="1.5" data-color="color-2"></line><line x1="13.25" y1="12.75" x2="17.25" y2="12.75" fill="none" stroke="#000" stroke-linecap="round" stroke-linejoin="round" stroke-width="1.5" data-color="color-2"></line><line x1=".75" y1="12.75" x2="4.75" y2="12.75" fill="none" stroke="#000" stroke-linecap="round" stroke-linejoin="round" stroke-width="1.5" data-color="color-2"></line><line x1=".759" y1="6.853" x2="2.75" y2="7.5" fill="none" stroke="#000" stroke-linecap="round" stroke-linejoin="round" stroke-width="1.5"></line><line x1="1.519" y1="9.194" x2="2.75" y2="7.5" fill="none" stroke="#000" stroke-linecap="round" stroke-linejoin="round" stroke-width="1.5"></line><line x1="3.981" y1="9.194" x2="2.75" y2="7.5" fill="none" stroke="#000" stroke-linecap="round" stroke-linejoin="round" stroke-width="1.5"></line><line x1="4.741" y1="6.853" x2="2.75" y2="7.5" fill="none" stroke="#000" stroke-linecap="round" stroke-linejoin="round" stroke-width="1.5"></line><line x1="2.75" y1="5.406" x2="2.75" y2="7.5" fill="none" stroke="#000" stroke-linecap="round" stroke-linejoin="round" stroke-width="1.5"></line><line x1="7.009" y1="6.853" x2="9" y2="7.5" fill="none" stroke="#000" stroke-linecap="round" stroke-linejoin="round" stroke-width="1.5"></line><line x1="7.769" y1="9.194" x2="9" y2="7.5" fill="none" stroke="#000" stroke-linecap="round" stroke-linejoin="round" stroke-width="1.5"></line><line x1="10.231" y1="9.194" x2="9" y2="7.5" fill="none" stroke="#000" stroke-linecap="round" stroke-linejoin="round" stroke-width="1.5"></line><line x1="10.991" y1="6.853" x2="9" y2="7.5" fill="none" stroke="#000" stroke-linecap="round" stroke-linejoin="round" stroke-width="1.5"></line><line x1="9" y1="5.406" x2="9" y2="7.5" fill="none" stroke="#000" stroke-linecap="round" stroke-linejoin="round" stroke-width="1.5"></line><line x1="13.259" y1="6.853" x2="15.25" y2="7.5" fill="none" stroke="#000" stroke-linecap="round" stroke-linejoin="round" stroke-width="1.5"></line><line x1="14.019" y1="9.194" x2="15.25" y2="7.5" fill="none" stroke="#000" stroke-linecap="round" stroke-linejoin="round" stroke-width="1.5"></line><line x1="16.481" y1="9.194" x2="15.25" y2="7.5" fill="none" stroke="#000" stroke-linecap="round" stroke-linejoin="round" stroke-width="1.5"></line><line x1="17.241" y1="6.853" x2="15.25" y2="7.5" fill="none" stroke="#000" stroke-linecap="round" stroke-linejoin="round" stroke-width="1.5"></line><line x1="15.25" y1="5.406" x2="15.25" y2="7.5" fill="none" stroke="#000" stroke-linecap="round" stroke-linejoin="round" stroke-width="1.5"></line></svg>