<svg xmlns="http://www.w3.org/2000/svg" xmlns:xlink="http://www.w3.org/1999/xlink" x="0px" y="0px" width="18px" height="18px" viewBox="0 0 18 18"><path d="M9 11.25C11.623 11.25 13.75 9.123 13.75 6.5C13.75 3.877 11.623 1.75 9 1.75C6.377 1.75 4.25 3.877 4.25 6.5C4.25 9.123 6.377 11.25 9 11.25Z" fill="#000" fill-opacity="0.3" data-color="color-2" data-stroke="none"></path> <path d="M11.25 14.25H6.75" stroke="black" stroke-width="1.5" stroke-linecap="round" stroke-linejoin="round" fill="none"></path> <path d="M9 11.25V16.25" stroke="black" stroke-width="1.5" stroke-linecap="round" stroke-linejoin="round" fill="none"></path> <path d="M9 11.25C11.623 11.25 13.75 9.123 13.75 6.5C13.75 3.877 11.623 1.75 9 1.75C6.377 1.75 4.25 3.877 4.25 6.5C4.25 9.123 6.377 11.25 9 11.25Z" stroke="black" stroke-width="1.5" stroke-linecap="round" stroke-linejoin="round" fill="none"></path></svg>