<svg xmlns="http://www.w3.org/2000/svg" xmlns:xlink="http://www.w3.org/1999/xlink" x="0px" y="0px" width="24px" height="24px" viewBox="0 0 24 24"> <path d="M12 12H7C4.23858 12 2 14.2386 2 17V17C2 19.7614 4.23858 22 7 22V22C9.76142 22 12 19.7614 12 17V15V15.5556" stroke="#000" stroke-width="2" stroke-linecap="square" data-color="color-2" fill="none"></path> <path d="M12 12H17C19.7614 12 22 9.76142 22 7V7C22 4.23858 19.7614 2 17 2V2C14.2386 2 12 4.23858 12 7V9V8.5" stroke="#000" stroke-width="2" stroke-linecap="square" data-color="color-2" fill="none"></path> <path d="M15 6L12 9L9 6" stroke="black" stroke-width="2" stroke-miterlimit="10" stroke-linecap="square" fill="none"></path> <path d="M9 18L12 15L15 18" stroke="black" stroke-width="2" stroke-miterlimit="10" stroke-linecap="square" fill="none"></path> </svg>