<svg xmlns="http://www.w3.org/2000/svg" xmlns:xlink="http://www.w3.org/1999/xlink" x="0px" y="0px" width="24px" height="24px" viewBox="0 0 24 24"> <path d="M12 14C13.1046 14 14 13.1046 14 12C14 10.8954 13.1046 10 12 10C10.8954 10 10 10.8954 10 12C10 13.1046 10.8954 14 12 14Z" stroke="#000" stroke-width="2" stroke-miterlimit="10" stroke-linecap="square" data-color="color-2" fill="none"></path> <path d="M20.5 2.5V7.5H15.5" stroke="black" stroke-width="2" stroke-linecap="square" fill="none"></path> <path d="M3.5 21.5V16.5H8.5" stroke="black" stroke-width="2" stroke-linecap="square" fill="none"></path> <path d="M21.5 12C21.5 17.2467 17.2467 21.5 12 21.5C8.38143 21.5 5.23538 19.4769 3.63131 16.5L3.78422 16.7729M2.5 12C2.5 6.75329 6.7533 2.5 12 2.5C15.6186 2.5 18.7646 4.52314 20.3687 7.5L20.2641 7.311" stroke="black" stroke-width="2" stroke-miterlimit="10" stroke-linecap="square" fill="none"></path> </svg>