<svg xmlns="http://www.w3.org/2000/svg" xmlns:xlink="http://www.w3.org/1999/xlink" x="0px" y="0px" width="24px" height="24px" viewBox="0 0 24 24"> <path d="M19.0001 10L19 14L21.5 12L19.0001 10Z" fill="black" stroke="black" stroke-width="2" stroke-miterlimit="10" stroke-linecap="square"></path> <path d="M4.99991 10L5 14L2.5 12L4.99991 10Z" fill="black" stroke="black" stroke-width="2" stroke-miterlimit="10" stroke-linecap="square"></path> <path d="M14 19.0001L10 19L12 21.5L14 19.0001Z" fill="black" stroke="black" stroke-width="2" stroke-miterlimit="10" stroke-linecap="square"></path> <path d="M14 4.99991L10 5L12 2.5L14 4.99991Z" fill="black" stroke="black" stroke-width="2" stroke-miterlimit="10" stroke-linecap="square"></path> <path d="M12 15C13.6569 15 15 13.6569 15 12C15 10.3431 13.6569 9 12 9C10.3431 9 9 10.3431 9 12C9 13.6569 10.3431 15 12 15Z" stroke="#000" stroke-width="2" stroke-miterlimit="10" stroke-linecap="square" data-color="color-2" fill="none"></path> </svg>