<svg xmlns="http://www.w3.org/2000/svg" xmlns:xlink="http://www.w3.org/1999/xlink" x="0px" y="0px" width="32px" height="32px" viewBox="0 0 32 32"> <path d="M8 4L7.02821 4C5.57636 4 4.33286 5.03965 4.07566 6.46854L2 18L2 25C2 26.6569 3.34315 28 5 28L27 28C28.6569 28 30 26.6569 30 25L30 18L27.9243 6.46854C27.6671 5.03965 26.4236 4 24.9718 4L24 4" stroke="black" stroke-width="2" stroke-miterlimit="10" stroke-linecap="square" fill="none"></path> <path d="M2 18H10V23H22V18H30" stroke="black" stroke-width="2" stroke-miterlimit="10" fill="none" data-cap="butt"></path> <path d="M16 3V14V13.5" stroke="#000" stroke-width="2" stroke-linecap="square" data-color="color-2" fill="none"></path> <path d="M10 8L16 14L22 8" stroke="#000" stroke-width="2" stroke-miterlimit="10" stroke-linecap="square" data-color="color-2" fill="none"></path> </svg>