<svg xmlns="http://www.w3.org/2000/svg" xmlns:xlink="http://www.w3.org/1999/xlink" x="0px" y="0px" width="32px" height="32px" viewBox="0 0 32 32"> <path d="M9.5 2L17 12L12.5 12L12.5 29L6.5 29L6.5 12L2 12L9.5 2Z" stroke="black" stroke-width="2" stroke-miterlimit="10" stroke-linecap="square" fill="none"></path> <path d="M19.5 21C20.8807 21 22 19.8807 22 18.5C22 17.1193 20.8807 16 19.5 16C18.1193 16 17 17.1193 17 18.5C17 19.8807 18.1193 21 19.5 21Z" stroke="#000" stroke-width="2" stroke-miterlimit="10" stroke-linecap="square" data-color="color-2" fill="none"></path> <path d="M27.5 29C28.8807 29 30 27.8807 30 26.5C30 25.1193 28.8807 24 27.5 24C26.1193 24 25 25.1193 25 26.5C25 27.8807 26.1193 29 27.5 29Z" stroke="#000" stroke-width="2" stroke-miterlimit="10" stroke-linecap="square" data-color="color-2" fill="none"></path> <path d="M18 28L29 17" stroke="#000" stroke-width="2" stroke-miterlimit="10" stroke-linecap="square" data-color="color-2" fill="none"></path> </svg>