<svg xmlns="http://www.w3.org/2000/svg" xmlns:xlink="http://www.w3.org/1999/xlink" x="0px" y="0px" width="32px" height="32px" viewBox="0 0 32 32"><rect x="30" y="30" width="16" height="16" rx="3" transform="rotate(-180 30 30)" stroke="black" stroke-width="2" fill="none" data-cap="butt"></rect> <path d="M10 18.9855C5.53831 18.7267 2 15.0266 2 10.5C2 5.80558 5.80558 2 10.5 2C15.0266 2 18.7267 5.53831 18.9855 10" stroke="black" stroke-width="2" stroke-miterlimit="10" stroke-linecap="square" fill="none"></path> <path d="M24 7.99997L27 11L30 7.99997" stroke="#000" stroke-width="2" stroke-miterlimit="10" stroke-linecap="square" data-color="color-2" fill="none"></path> <path d="M8 24L5 21L2 24" stroke="#000" stroke-width="2" stroke-miterlimit="10" stroke-linecap="square" data-color="color-2" fill="none"></path> <path d="M22.5 2H24C25.6569 2 27 3.34315 27 5V11V9.5" stroke="#000" stroke-width="2" stroke-miterlimit="10" stroke-linecap="square" data-color="color-2" fill="none"></path> <path d="M9.5 30L8 30C6.34315 30 5 28.6569 5 27L5 21L5 22.5" stroke="#000" stroke-width="2" stroke-miterlimit="10" stroke-linecap="square" data-color="color-2" fill="none"></path></svg>