<svg xmlns="http://www.w3.org/2000/svg" xmlns:xlink="http://www.w3.org/1999/xlink" x="0px" y="0px" width="32px" height="32px" viewBox="0 0 32 32"> <path d="M25 8L27 8C28.6569 8 30 9.34315 30 11L30 21C30 22.6569 28.6569 24 27 24L12 24L12.5 24" stroke="#000" stroke-width="2" stroke-miterlimit="10" stroke-linecap="square" data-color="color-2" fill="none"></path> <path d="M15 13L20 8L15 3" stroke="black" stroke-width="2" stroke-miterlimit="10" stroke-linecap="square" fill="none"></path> <path d="M17 29L12 24L17 19" stroke="#000" stroke-width="2" stroke-miterlimit="10" stroke-linecap="square" data-color="color-2" fill="none"></path> <path d="M19.5 8L20 8L5 8C3.34315 8 2 9.34314 2 11L2 21C2 22.6569 3.34315 24 5 24L7 24" stroke="black" stroke-width="2" stroke-miterlimit="10" stroke-linecap="square" fill="none"></path> </svg>