<svg xmlns="http://www.w3.org/2000/svg" xmlns:xlink="http://www.w3.org/1999/xlink" x="0px" y="0px" width="48px" height="48px" viewBox="0 0 48 48"> <path d="M36 12L40 12C42.7614 12 45 14.2386 45 17L45 31C45 33.7614 42.7614 36 40 36L19 36L19.5 36" stroke="#000" stroke-width="2" stroke-miterlimit="10" stroke-linecap="square" data-color="color-2" fill="none"></path> <path d="M21.5 19.5L29 12L21.5 4.5" stroke="black" stroke-width="2" stroke-miterlimit="10" stroke-linecap="square" fill="none"></path> <path d="M26.5 28.5L19 36L26.5 43.5" stroke="#000" stroke-width="2" stroke-miterlimit="10" stroke-linecap="square" data-color="color-2" fill="none"></path> <path d="M28.5 12L29 12L8 12C5.23858 12 3 14.2386 3 17L3 31C3 33.7614 5.23858 36 8 36L12 36" stroke="black" stroke-width="2" stroke-miterlimit="10" stroke-linecap="square" fill="none"></path> </svg>