<svg xmlns="http://www.w3.org/2000/svg" xmlns:xlink="http://www.w3.org/1999/xlink" x="0px" y="0px" width="48px" height="48px" viewBox="0 0 48 48"> <path d="M44 24C44 12.9543 35.0457 4 24 4C15.7987 4 8.7504 8.93638 5.66417 16L5.81703 15.6589" stroke="black" stroke-width="2" stroke-miterlimit="10" stroke-linecap="square" fill="none"></path> <path d="M5 4V16H17" stroke="black" stroke-width="2" stroke-linecap="square" fill="none"></path> <path d="M4 24C4 35.0457 12.9543 44 24 44C32.2013 44 39.2496 39.0636 42.3358 32L42.183 32.3411" stroke="black" stroke-width="2" stroke-miterlimit="10" stroke-linecap="square" fill="none"></path> <path d="M43 44V32H31" stroke="black" stroke-width="2" stroke-linecap="square" fill="none"></path> <path d="M24 28.5C26.4853 28.5 28.5 26.4853 28.5 24C28.5 21.5147 26.4853 19.5 24 19.5C21.5147 19.5 19.5 21.5147 19.5 24C19.5 26.4853 21.5147 28.5 24 28.5Z" stroke="#000" stroke-width="2" stroke-miterlimit="10" stroke-linecap="square" data-color="color-2" fill="none"></path> </svg>