<svg xmlns="http://www.w3.org/2000/svg" xmlns:xlink="http://www.w3.org/1999/xlink" x="0px" y="0px" width="48px" height="48px" viewBox="0 0 48 48"> <path d="M15.9999 44L4.49988 29L11.9999 29L11.9999 5L20 5L20 29L27.4999 29L15.9999 44Z" stroke="black" stroke-width="2" stroke-miterlimit="10" stroke-linecap="square" fill="none"></path> <path d="M40 16C37.7909 16 36 17.7909 36 20C36 22.2091 37.7909 24 40 24C42.2091 24 44 22.2091 44 20C44 17.7909 42.2091 16 40 16Z" stroke="#000" stroke-width="2" stroke-miterlimit="10" stroke-linecap="square" data-color="color-2" fill="none"></path> <path d="M29 5C26.7909 5 25 6.79086 25 9C25 11.2091 26.7909 13 29 13C31.2091 13 33 11.2091 33 9C33 6.79086 31.2091 5 29 5Z" stroke="#000" stroke-width="2" stroke-miterlimit="10" stroke-linecap="square" data-color="color-2" fill="none"></path> <path d="M43 6L26 23" stroke="#000" stroke-width="2" stroke-miterlimit="10" stroke-linecap="square" data-color="color-2" fill="none"></path> </svg>