<svg xmlns="http://www.w3.org/2000/svg" xmlns:xlink="http://www.w3.org/1999/xlink" x="0px" y="0px" width="18px" height="18px" viewBox="0 0 18 18"><path d="m10,1.75c-3.452,0-6.25,2.798-6.25,6.25s2.798,6.25,6.25,6.25,6.25-2.798,6.25-6.25S13.452,1.75,10,1.75Zm-.424,9.178l-2.505-2.505,1.557-3.105,3.5.554.553,3.499-3.105,1.557Z" fill="#000" opacity=".3" stroke-width="0" data-color="color-2"></path><path d="m5.581,12.419c-2.441-2.441-2.441-6.398,0-8.839s6.398-2.441,8.839,0,2.441,6.398,0,8.839c-1.807,1.807-4.444,2.276-6.683,1.408" fill="none" stroke="#000" stroke-linecap="round" stroke-linejoin="round" stroke-width="1.5"></path><polyline points="13.383 2.744 13.497 4.503 15.256 4.617" fill="none" stroke="#000" stroke-linecap="round" stroke-linejoin="round" stroke-width="1.5"></polyline><polyline points="6.046 3.159 7.754 3.594 8.407 1.955" fill="none" stroke="#000" stroke-linecap="round" stroke-linejoin="round" stroke-width="1.5"></polyline><polyline points="4.174 10.264 5.115 8.774 3.759 7.648" fill="none" stroke="#000" stroke-linecap="round" stroke-linejoin="round" stroke-width="1.5"></polyline><polyline points="10.352 14.241 9.226 12.885 7.737 13.827" fill="none" stroke="#000" stroke-linecap="round" stroke-linejoin="round" stroke-width="1.5"></polyline><polyline points="16.044 9.593 14.407 10.245 14.842 11.953" fill="none" stroke="#000" stroke-linecap="round" stroke-linejoin="round" stroke-width="1.5"></polyline><polygon points="12.127 5.873 8.628 5.318 7.071 8.424 9.576 10.928 12.681 9.372 12.127 5.873" fill="none" stroke="#000" stroke-linecap="round" stroke-linejoin="round" stroke-width="1.5"></polygon><line x1="13.497" y1="4.503" x2="12.127" y2="5.873" fill="none" stroke="#000" stroke-linecap="round" stroke-linejoin="round" stroke-width="1.5"></line><line x1="7.754" y1="3.594" x2="8.628" y2="5.318" fill="none" stroke="#000" stroke-linecap="round" stroke-linejoin="round" stroke-width="1.5"></line><line x1="12.681" y1="9.372" x2="14.407" y2="10.245" fill="none" stroke="#000" stroke-linecap="round" stroke-linejoin="round" stroke-width="1.5"></line><line x1="5.115" y1="8.774" x2="7.071" y2="8.424" fill="none" stroke="#000" stroke-linecap="round" stroke-linejoin="round" stroke-width="1.5"></line><line x1="9.576" y1="10.928" x2="9.226" y2="12.885" fill="none" stroke="#000" stroke-linecap="round" stroke-linejoin="round" stroke-width="1.5"></line><line x1="1.75" y1="16.25" x2="6.5" y2="11.5" fill="none" stroke="#000" stroke-linecap="round" stroke-linejoin="round" stroke-width="1.5"></line><circle cx="1.75" cy="11.75" r=".75" stroke-width="0" fill="#000"></circle><path d="m7.992,15.741l-.946-.315-.316-.947c-.102-.306-.609-.306-.711,0l-.316.947-.946.315c-.153.051-.257.194-.257.356s.104.305.257.356l.946.315.316.947c.051.153.194.256.355.256s.305-.104.355-.256l.316-.947.946-.315c.153-.051.257-.194.257-.356s-.104-.305-.257-.356h.001Z" stroke-width="0" fill="#000"></path></svg>