<svg xmlns="http://www.w3.org/2000/svg" xmlns:xlink="http://www.w3.org/1999/xlink" x="0px" y="0px" width="18px" height="18px" viewBox="0 0 18 18"><path d="M3.75 3.24C4.911 2.432 6.006 2.098 7.031 2.256C8.721 2.515 9.276 3.965 10.969 4.225C11.982 4.38 13.075 4.058 14.25 3.241V9.804C13.075 10.622 11.982 10.944 10.969 10.788C9.277 10.528 8.721 9.078 7.031 8.819C6.005 8.662 4.911 8.996 3.75 9.803" fill="#000" fill-opacity="0.3" data-color="color-2" data-stroke="none"></path> <path d="M3.75 3.24C4.911 2.432 6.006 2.098 7.031 2.256C8.721 2.515 9.276 3.965 10.969 4.225C11.982 4.38 13.075 4.058 14.25 3.241V9.804C13.075 10.622 11.982 10.944 10.969 10.788C9.277 10.528 8.721 9.078 7.031 8.819C6.005 8.662 4.911 8.996 3.75 9.803" stroke="black" stroke-width="1.5" stroke-linecap="round" stroke-linejoin="round" fill="none"></path> <path d="M3.75 2V16" stroke="black" stroke-width="1.5" stroke-linecap="round" stroke-linejoin="round" fill="none"></path></svg>