<svg xmlns="http://www.w3.org/2000/svg" xmlns:xlink="http://www.w3.org/1999/xlink" x="0px" y="0px" width="18px" height="18px" viewBox="0 0 18 18"><path fill-rule="evenodd" clip-rule="evenodd" d="M13.25 2.75C14.3546 2.75 15.25 3.64543 15.25 4.75V13.25C15.25 14.3546 14.3546 15.25 13.25 15.25H4.75C3.64543 15.25 2.75 14.3546 2.75 13.25V4.75C2.75 3.64543 3.64543 2.75 4.75 2.75H13.25ZM9 4.5C6.51479 4.5 4.5 6.51479 4.5 9V9.25C4.5 9.66421 4.83579 10 5.25 10H12.75C13.1642 10 13.5 9.66421 13.5 9.25V9C13.5 6.51479 11.4852 4.5 9 4.5Z" fill="#000" fill-opacity="0.3" data-color="color-2" data-stroke="none"></path> <path d="M13.25 2.75H4.75C3.64543 2.75 2.75 3.64543 2.75 4.75V13.25C2.75 14.3546 3.64543 15.25 4.75 15.25H13.25C14.3546 15.25 15.25 14.3546 15.25 13.25V4.75C15.25 3.64543 14.3546 2.75 13.25 2.75Z" stroke="black" stroke-width="1.5" stroke-linecap="round" stroke-linejoin="round" fill="none"></path> <path d="M5.25 9.25V9C5.25 6.929 6.929 5.25 9 5.25C11.071 5.25 12.75 6.929 12.75 9V9.25" stroke="black" stroke-width="1.5" stroke-linecap="round" stroke-linejoin="round" fill="none"></path> <path d="M9.743 7.75L9 9.25" stroke="black" stroke-width="1.5" stroke-linecap="round" stroke-linejoin="round" fill="none"></path></svg>