<svg xmlns="http://www.w3.org/2000/svg" xmlns:xlink="http://www.w3.org/1999/xlink" x="0px" y="0px" width="24px" height="24px" viewBox="0 0 24 24"> <path d="M9 10L20 7" stroke="#000" stroke-width="2" stroke-miterlimit="10" data-color="color-2" data-cap="butt" fill="none"></path> <path d="M9 19.5V6L20 3V16.5" stroke="black" stroke-width="2" stroke-miterlimit="10" data-cap="butt" fill="none"></path> <path d="M6 22C7.65685 22 9 20.8807 9 19.5C9 18.1193 7.65685 17 6 17C4.34315 17 3 18.1193 3 19.5C3 20.8807 4.34315 22 6 22Z" stroke="black" stroke-width="2" stroke-miterlimit="10" stroke-linecap="square" fill="none"></path> <path d="M17 19C18.6569 19 20 17.8807 20 16.5C20 15.1193 18.6569 14 17 14C15.3431 14 14 15.1193 14 16.5C14 17.8807 15.3431 19 17 19Z" stroke="black" stroke-width="2" stroke-miterlimit="10" stroke-linecap="square" fill="none"></path> </svg>