<svg xmlns="http://www.w3.org/2000/svg" xmlns:xlink="http://www.w3.org/1999/xlink" x="0px" y="0px" width="24px" height="24px" viewBox="0 0 24 24"> <path d="M20 8V10.763V10.263" stroke="#000" stroke-width="2" stroke-linecap="square" data-color="color-2" fill="none"></path> <path d="M4 8V10.8183V10.3183" stroke="#000" stroke-width="2" stroke-linecap="square" data-color="color-2" fill="none"></path> <path d="M22 9L17.5 13L17.7666 12.763" stroke="#000" stroke-width="2" stroke-linecap="square" data-color="color-2" fill="none"></path> <path d="M2 9L6.5 13L6.2334 12.763" stroke="#000" stroke-width="2" stroke-linecap="square" data-color="color-2" fill="none"></path> <path d="M18.5 16.5C18.5 20.0899 15.5899 23 12 23C8.41015 23 5.5 20.0899 5.5 16.5C5.5 12.9101 8.41015 10 12 10C15.5899 10 18.5 12.9101 18.5 16.5Z" stroke="black" stroke-width="2" data-cap="butt" fill="none"></path> <path d="M9.76097 5.00319C8.70852 6.18118 8.74775 7.9904 9.87868 9.12132C11.0503 10.2929 12.9497 10.2929 14.1213 9.12132C15.2522 7.9904 15.2915 6.18118 14.239 5.00319" stroke="black" stroke-width="2" data-cap="butt" fill="none"></path> <path d="M8 5H16" stroke="black" stroke-width="2" stroke-linecap="square" fill="none"></path> <path d="M10 5V1H14V5" stroke="black" stroke-width="2" stroke-linecap="square" fill="none"></path> <path d="M12 18.5V19" stroke="#000" stroke-width="2" stroke-linecap="square" data-color="color-2" fill="none"></path> <path d="M12 14V14.5" stroke="#000" stroke-width="2" stroke-linecap="square" data-color="color-2" fill="none"></path> </svg>