<svg xmlns="http://www.w3.org/2000/svg" xmlns:xlink="http://www.w3.org/1999/xlink" x="0px" y="0px" width="24px" height="24px" viewBox="0 0 24 24"> <path d="M5.03979 10.7961V7.38756L1.92694 8.79617L5.03979 10.7961Z" fill="black" data-cap="butt" data-stroke="none"></path> <path d="M18.8871 10.7961V7.38756L22 8.79617L18.8871 10.7961Z" fill="black" data-cap="butt" data-stroke="none"></path> <path d="M5 6.5L2 8.18936L2 19C2 20.1046 2.89543 21 4 21L20 21C21.1046 21 22 20.1046 22 19L22 8.18936L19 6.5" stroke="black" stroke-width="2" stroke-miterlimit="10" data-cap="butt" fill="none"></path> <path d="M5 11V2H19V11" stroke="#000" stroke-width="2" data-color="color-2" data-cap="butt" fill="none"></path> <path d="M2 9.5L12 14.5001L22 9.5" stroke="black" stroke-width="2" data-cap="butt" fill="none"></path> <path d="M15.5 6.94001C15.5 8.77199 12.7764 10.6391 12 11C11.2236 10.6391 8.5 8.77199 8.5 6.94001C8.5 5.8684 9.34408 5 10.3847 5C11.0409 5 11.5932 5.40569 12 5.87685C12.4068 5.40569 12.9591 5 13.6152 5C14.6559 5 15.5 5.8684 15.5 6.94001Z" fill="#000" data-color="color-2" data-cap="butt" data-stroke="none"></path> </svg>