<svg xmlns="http://www.w3.org/2000/svg" xmlns:xlink="http://www.w3.org/1999/xlink" x="0px" y="0px" width="32px" height="32px" viewBox="0 0 32 32"> <path d="M12 21V3.5C12 2.67157 12.6716 2 13.5 2H18.5C19.3284 2 20 2.67157 20 3.5V21" stroke="#000" stroke-width="2" stroke-linecap="square" data-color="color-2" fill="none"></path> <path d="M6 9C6 7.34315 7.34315 6 9 6H23C24.6569 6 26 7.34315 26 9V18C26 19.6569 24.6569 21 23 21H9C7.34315 21 6 19.6569 6 18V9Z" stroke="black" stroke-width="2" data-cap="butt" fill="none"></path> <path d="M3 27C3 25.8954 3.89543 25 5 25H27C28.1046 25 29 25.8954 29 27V27C29 28.1046 28.1046 29 27 29H5C3.89543 29 3 28.1046 3 27V27Z" stroke="#000" stroke-width="2" data-color="color-2" data-cap="butt" fill="none"></path> </svg>