<svg xmlns="http://www.w3.org/2000/svg" xmlns:xlink="http://www.w3.org/1999/xlink" x="0px" y="0px" width="32px" height="32px" viewBox="0 0 32 32"> <path d="M4 9H28" stroke="black" stroke-width="2" data-cap="butt" fill="none"></path> <path d="M22 7V11" stroke="black" stroke-width="2" stroke-linecap="square" fill="none"></path> <path d="M10 7V11" stroke="black" stroke-width="2" stroke-linecap="square" fill="none"></path> <path d="M16 7V11" stroke="black" stroke-width="2" stroke-linecap="square" fill="none"></path> <path d="M28 15H31" stroke="#000" stroke-width="2" stroke-linecap="square" data-color="color-2" fill="none"></path> <path d="M1 15H4.00001" stroke="#000" stroke-width="2" stroke-linecap="square" data-color="color-2" fill="none"></path> <path d="M4 3L4 18C4 24.6274 9.37258 30 16 30C22.6274 30 28 24.6274 28 18V3H4Z" stroke="black" stroke-width="2" stroke-miterlimit="10" stroke-linecap="square" fill="none"></path> <path d="M14 17.5C14 18.8807 12.8807 20 11.5 20C10.1193 20 9 18.8807 9 17.5C9 16.1193 10.1193 15 11.5 15C12.8807 15 14 16.1193 14 17.5Z" stroke="#000" stroke-width="2" data-color="color-2" data-cap="butt" fill="none"></path> <path d="M23 17.5C23 18.8807 21.8807 20 20.5 20C19.1193 20 18 18.8807 18 17.5C18 16.1193 19.1193 15 20.5 15C21.8807 15 23 16.1193 23 17.5Z" stroke="#000" stroke-width="2" data-color="color-2" data-cap="butt" fill="none"></path> <path d="M14 24L18 24" stroke="#000" stroke-width="2" stroke-linecap="square" data-color="color-2" fill="none"></path> </svg>