<svg xmlns="http://www.w3.org/2000/svg" xmlns:xlink="http://www.w3.org/1999/xlink" x="0px" y="0px" width="32px" height="32px" viewBox="0 0 32 32"> <path d="M12.5 6L13.5 1H18.5L19.5 6" stroke="black" stroke-width="2" data-cap="butt" fill="none"></path> <path d="M26 9V13.6667V13" stroke="#000" stroke-width="2" stroke-linecap="square" data-color="color-2" fill="none"></path> <path d="M6 9V13.6667V13" stroke="#000" stroke-width="2" stroke-linecap="square" data-color="color-2" fill="none"></path> <path d="M19.4649 6C19.8052 6.58835 20 7.27143 20 8C20 10.2091 18.2091 12 16 12C13.7909 12 12 10.2091 12 8C12 7.27143 12.1948 6.58835 12.5351 6" stroke="black" stroke-width="2" data-cap="butt" fill="none"></path> <path d="M30 10L23.5 16L23.7289 15.7887" stroke="#000" stroke-width="2" stroke-linecap="square" data-color="color-2" fill="none"></path> <path d="M2 10L8.5 16L8.27106 15.7887" stroke="#000" stroke-width="2" stroke-linecap="square" data-color="color-2" fill="none"></path> <path d="M25 21C25 25.9706 20.9706 30 16 30C11.0294 30 7 25.9706 7 21C7 16.0294 11.0294 12 16 12C20.9706 12 25 16.0294 25 21Z" stroke="black" stroke-width="2" data-cap="butt" fill="none"></path> <path d="M17.5 17.5C17.5 18.3284 16.8284 19 16 19C15.1716 19 14.5 18.3284 14.5 17.5C14.5 16.6716 15.1716 16 16 16C16.8284 16 17.5 16.6716 17.5 17.5Z" fill="#000" data-color="color-2" data-cap="butt" data-stroke="none"></path> <path d="M17.5 22.5C17.5 23.3284 16.8284 24 16 24C15.1716 24 14.5 23.3284 14.5 22.5C14.5 21.6716 15.1716 21 16 21C16.8284 21 17.5 21.6716 17.5 22.5Z" fill="#000" data-color="color-2" data-cap="butt" data-stroke="none"></path> <path d="M11 6H21" stroke="black" stroke-width="2" stroke-linecap="square" fill="none"></path> </svg>