<svg xmlns="http://www.w3.org/2000/svg" xmlns:xlink="http://www.w3.org/1999/xlink" x="0px" y="0px" width="32px" height="32px" viewBox="0 0 32 32"> <path d="M6 8.71423L2 10.9999L2 13M26 8.71423L30 10.9999V13" stroke="black" stroke-width="2" stroke-miterlimit="10" data-cap="butt" fill="none"></path> <path d="M6 14.5V3H26V14.5" stroke="#000" stroke-width="2" data-color="color-2" data-cap="butt" fill="none"></path> <path d="M30 12.1946L16 20.1946L2 12.1946" stroke="black" stroke-width="2" stroke-miterlimit="10" data-cap="butt" fill="none"></path> <path d="M2 10.9999L2 25.9999C2 27.6568 3.34315 28.9999 5 28.9999H27C28.6569 28.9999 30 27.6568 30 25.9999V10.9999" stroke="black" stroke-width="2" stroke-miterlimit="10" data-cap="butt" fill="none"></path> <path d="M16 15C17.109 14.5294 21 11.9214 21 9.53083C21 8.13318 19.794 7 18.308 7C17.328 7 16.596 7.57788 16 8.22635C15.405 7.57694 14.672 7 13.692 7C12.205 7 11 8.13318 11 9.53083C11 11.9214 14.891 14.5294 16 15Z" stroke="#000" stroke-width="2" stroke-miterlimit="10" stroke-linecap="square" data-color="color-2" fill="none"></path> </svg>