<svg xmlns="http://www.w3.org/2000/svg" xmlns:xlink="http://www.w3.org/1999/xlink" x="0px" y="0px" width="48px" height="48px" viewBox="0 0 48 48"> <path d="M5 22.7218V41C5 42.6568 6.34315 44 8 44H22C23.6569 44 25 42.6568 25 41V22.7218" stroke="black" stroke-width="2" data-cap="butt" fill="none"></path> <path d="M30 27L42 27C43.6569 27 45 25.6569 45 24L45 11C45 9.34315 43.6569 8 42 8L30 8" stroke="black" stroke-width="2" stroke-miterlimit="10" stroke-linecap="square" fill="none"></path> <path d="M15 28C21.6274 28 27 22.6274 27 16C27 9.37258 21.6274 4 15 4C8.37258 4 3 9.37258 3 16C3 22.6274 8.37258 28 15 28Z" stroke="#000" stroke-width="2" stroke-miterlimit="10" stroke-linecap="square" data-color="color-2" fill="none"></path> <path d="M15 23C18.866 23 22 19.866 22 16C22 12.134 18.866 9 15 9C11.134 9 8 12.134 8 16C8 19.866 11.134 23 15 23Z" stroke="black" stroke-width="2" stroke-miterlimit="10" stroke-linecap="square" fill="none"></path> <path d="M15 28C21.6274 28 27 22.6274 27 16C27 9.37258 21.6274 4 15 4C8.37258 4 3 9.37258 3 16C3 22.6274 8.37258 28 15 28Z" stroke="#000" stroke-width="2" stroke-miterlimit="10" stroke-linecap="square" data-color="color-2" fill="none"></path> <path d="M17 16C17 17.1046 16.1046 18 15 18" stroke="#000" stroke-width="2" stroke-miterlimit="10" stroke-linecap="square" data-color="color-2" fill="none"></path> <path d="M33.5 14L39 17.5L33.5 21V14Z" stroke="#000" stroke-width="2" stroke-miterlimit="10" stroke-linecap="square" data-color="color-2" fill="none"></path> <path d="M11 39C11.5523 39 12 38.5523 12 38C12 37.4477 11.5523 37 11 37C10.4477 37 10 37.4477 10 38C10 38.5523 10.4477 39 11 39Z" fill="#000" stroke="#000" stroke-width="2" data-color="color-2" data-cap="butt"></path> </svg>