<svg xmlns="http://www.w3.org/2000/svg" xmlns:xlink="http://www.w3.org/1999/xlink" x="0px" y="0px" width="48px" height="48px" viewBox="0 0 48 48"> <path d="M18 20L41 14" stroke="#000" stroke-width="2" stroke-miterlimit="10" data-color="color-2" data-cap="butt" fill="none"></path> <path d="M18 38V12L41 6V32" stroke="black" stroke-width="2" stroke-miterlimit="10" data-cap="butt" fill="none"></path> <path d="M11.5 44C15.0899 44 18 41.3137 18 38C18 34.6863 15.0899 32 11.5 32C7.91015 32 5 34.6863 5 38C5 41.3137 7.91015 44 11.5 44Z" stroke="black" stroke-width="2" stroke-miterlimit="10" stroke-linecap="square" fill="none"></path> <path d="M34.5 38C38.0899 38 41 35.3137 41 32C41 28.6863 38.0899 26 34.5 26C30.9101 26 28 28.6863 28 32C28 35.3137 30.9101 38 34.5 38Z" stroke="black" stroke-width="2" stroke-miterlimit="10" stroke-linecap="square" fill="none"></path> </svg>