<svg xmlns="http://www.w3.org/2000/svg" xmlns:xlink="http://www.w3.org/1999/xlink" x="0px" y="0px" width="48px" height="48px" viewBox="0 0 48 48"> <path d="M18.5 33H40" stroke="black" stroke-width="2" data-cap="butt" fill="none"></path> <path d="M18.5 10H22H21.5" stroke="#000" stroke-width="2" stroke-linecap="square" data-color="color-2" fill="none"></path> <path d="M19 15H22.4042H22" stroke="#000" stroke-width="2" stroke-linecap="square" data-color="color-2" fill="none"></path> <path d="M20.5 20L23.5 19L22.705 19.265" stroke="#000" stroke-width="2" stroke-linecap="square" data-color="color-2" fill="none"></path> <path d="M23.5 24.5L26.5 22.5L26 22.8333" stroke="#000" stroke-width="2" stroke-linecap="square" data-color="color-2" fill="none"></path> <path d="M28 27.5L30.5 25L30.1224 25.3776" stroke="#000" stroke-width="2" stroke-linecap="square" data-color="color-2" fill="none"></path> <path d="M7 26H9C14.5228 26 19 30.4772 19 36V38" stroke="black" stroke-width="2" stroke-linecap="square" fill="none"></path> <path d="M16 38V43" stroke="#000" stroke-width="2" stroke-linecap="square" data-color="color-2" fill="none"></path> <path d="M31 38V43" stroke="#000" stroke-width="2" stroke-linecap="square" data-color="color-2" fill="none"></path> <path d="M5 43L38 43C41.866 43 45 39.866 45 36V36" stroke="#000" stroke-width="2" stroke-linecap="square" data-color="color-2" fill="none"></path> <path d="M12 38H38.6817C39.4098 38 40 37.4098 40 36.6817V34.6527C40 30.2212 36.8308 26.4238 32.4708 25.6311C27.1254 24.6592 23.0193 20.3467 22.3105 14.9601L21 5H7V33C7 35.7614 9.23858 38 12 38Z" stroke="black" stroke-width="2" stroke-miterlimit="10" stroke-linecap="square" fill="none"></path> </svg>