<svg xmlns="http://www.w3.org/2000/svg" xmlns:xlink="http://www.w3.org/1999/xlink" x="0px" y="0px" width="20px" height="20px" viewBox="0 0 20 20"><path d="m7.5,15.781l-1.058.556c-.624.328-1.354-.202-1.235-.897l.68-3.962-2.879-2.806c-.505-.492-.226-1.35.472-1.452l3.979-.578,1.779-3.604c.312-.633,1.214-.633,1.526,0l1.779,3.604,3.979.578" fill="none" stroke="#000" stroke-linecap="round" stroke-linejoin="round" stroke-width="2"></path><path d="m12,14v-2c0-1.105.895-2,2-2h0c1.105,0,2,.895,2,2v2" fill="none" stroke="#000" stroke-linecap="round" stroke-linejoin="round" stroke-width="2" data-color="color-2"></path><rect x="11" y="14" width="6" height="3" rx=".5" ry=".5" fill="#000" stroke="#000" stroke-linecap="round" stroke-linejoin="round" stroke-width="2" data-color="color-2"></rect></svg>