<svg xmlns="http://www.w3.org/2000/svg" xmlns:xlink="http://www.w3.org/1999/xlink" x="0px" y="0px" width="20px" height="20px" viewBox="0 0 20 20"><path d="m6.906,15.531l3.607.86c.304.072.615.109.927.109h1.372" fill="none" stroke="#000" stroke-linecap="round" stroke-linejoin="round" stroke-width="3"></path><line x1="11.093" y1="14.906" x2="7.906" y2="8.531" stroke="#000" stroke-linecap="round" stroke-linejoin="round" stroke-width="2.5" fill="#000"></line><path d="m4.999,9.985c-.801-1.604-.148-3.559,1.454-4.361.451-.225.952-.342,1.451-.342,1.241,0,2.356.688,2.909,1.797l.01.019,1.45-1.716c.382-.452.429-1.093.117-1.596-.311-.502-.904-.746-1.48-.604l-2.429.596-1.318-2.126h0c-.312-.503-.911-.747-1.48-.604-.573.141-.988.63-1.033,1.221l-.185,2.495-2.428.596c-.574.141-.99.631-1.034,1.22-.044.59.295,1.137.843,1.361l2.315.946-.184,2.496c-.043.59.296,1.136.843,1.359.168.068.343.102.516.102.335,0,.658-.131.911-.363l-1.248-2.496Z" fill="#000" stroke-width="0" data-color="color-2"></path><path d="m9.743,12.206c1.781-.903,3.755-1.25,5.914-1.064.411.035.762.334.864.734.235.926.409,1.938.475,2.991.072,1.154-.845,2.134-2.002,2.134h-2.868c-.541,0-.983-.43-1-.97l-.033-1.124" stroke="#000" stroke-linecap="round" stroke-linejoin="round" stroke-width="2" fill="#000"></path></svg>