<svg xmlns="http://www.w3.org/2000/svg" xmlns:xlink="http://www.w3.org/1999/xlink" x="0px" y="0px" width="20px" height="20px" viewBox="0 0 20 20"><polygon points="13.75 10.5 14.5 13 17 13.75 14.5 14.5 13.75 17 13 14.5 10.5 13.75 13 13 13.75 10.5" fill="#000" stroke="#000" stroke-linecap="round" stroke-linejoin="round" stroke-width="2" data-color="color-2"></polygon><circle cx="8.75" cy="9.75" r="1.25" fill="#000" stroke-width="0" data-color="color-2"></circle><path d="m16.821,8.838l.171-.167c.505-.492.226-1.35-.472-1.452l-3.979-.578-1.779-3.604c-.312-.633-1.214-.633-1.526,0l-1.779,3.604-3.979.578c-.698.101-.977.959-.472,1.452l2.879,2.806-.68,3.962c-.119.695.61,1.225,1.235.897l1.175-.618" fill="none" stroke="#000" stroke-linecap="round" stroke-linejoin="round" stroke-width="2"></path></svg>