<svg xmlns="http://www.w3.org/2000/svg" xmlns:xlink="http://www.w3.org/1999/xlink" x="0px" y="0px" width="20px" height="20px" viewBox="0 0 20 20"><path d="m4.812,11.827l-.591,3.444c-.03.176-.034.352-.015.523L14.137,5.863l-.931-.135-1.546-3.132c-.314-.637-.95-1.032-1.66-1.032s-1.346.396-1.659,1.031l-1.547,3.133-3.458.502c-.702.102-1.274.584-1.494,1.259-.22.675-.04,1.402.468,1.897l2.503,2.44Z" stroke-width="0" fill="#000"></path><path d="m17.594,6.648l-10.448,10.448,2.854-1.5,3.093,1.625c.628.33,1.375.275,1.949-.141.574-.417.856-1.111.736-1.81l-.591-3.444,2.503-2.44c.508-.495.688-1.223.468-1.897-.109-.336-.307-.625-.564-.842Z" stroke-width="0" fill="#000"></path><path d="m3,18c-.256,0-.512-.098-.707-.293-.391-.391-.391-1.023,0-1.414L16.293,2.293c.391-.391,1.023-.391,1.414,0s.391,1.023,0,1.414L3.707,17.707c-.195.195-.451.293-.707.293Z" fill="#000" stroke-width="0" data-color="color-2"></path></svg>