<svg xmlns="http://www.w3.org/2000/svg" xmlns:xlink="http://www.w3.org/1999/xlink" x="0px" y="0px" width="18px" height="18px" viewBox="0 0 18 18"><path d="M14.657,3.343C11.538,.224,6.462,.224,3.343,3.343S.224,11.538,3.343,14.657c1.56,1.56,3.608,2.339,5.657,2.339s4.098-.78,5.657-2.339c3.119-3.119,3.119-8.194,0-11.313ZM5.5,8c-.552,0-1-.448-1-1s.448-1,1-1,1,.448,1,1-.448,1-1,1Zm3,2c-.552,0-1-.448-1-1s.448-1,1-1,1,.448,1,1-.448,1-1,1Zm0-4c-.552,0-1-.448-1-1s.448-1,1-1,1,.448,1,1-.448,1-1,1Z" fill="#000"></path></svg>