<svg xmlns="http://www.w3.org/2000/svg" xmlns:xlink="http://www.w3.org/1999/xlink" x="0px" y="0px" width="18px" height="18px" viewBox="0 0 18 18"><path d="M15.25,9.75v-.75c0-3.452-2.798-6.25-6.25-6.25h0c-3.452,0-6.25,2.798-6.25,6.25v.75" fill="none" stroke="#000" stroke-linecap="round" stroke-linejoin="round" stroke-width="1.5"></path><path d="M2.75,9.75v4.5c0,.552,.448,1,1,1h1.5c.552,0,1-.448,1-1v-3.5c0-.552-.448-1-1-1h-1.547s-.953,0-.953,0Z" fill="none" stroke="#000" stroke-linecap="round" stroke-linejoin="round" stroke-width="1.5" data-color="color-2"></path><path d="M15.25,9.75v4.5c0,.552-.448,1-1,1h-1.5c-.552,0-1-.448-1-1v-3.5c0-.552,.448-1,1-1h1.547s.953,0,.953,0Z" fill="none" stroke="#000" stroke-linecap="round" stroke-linejoin="round" stroke-width="1.5" data-color="color-2"></path></svg>