<svg xmlns="http://www.w3.org/2000/svg" xmlns:xlink="http://www.w3.org/1999/xlink" x="0px" y="0px" width="20px" height="20px" viewBox="0 0 20 20"><line x1="15" y1="3" x2="5" y2="3" fill="none" stroke="#000" stroke-linecap="round" stroke-linejoin="round" stroke-width="2" data-color="color-2"></line><path d="m16.8535,6.915c-.4766-.5815-1.1812-.915-1.9331-.915H5.0796c-.752,0-1.4565.3335-1.9331.915s-.6655,1.3379-.5181,2.0752l1.3999,6.9995c.2324,1.165,1.2637,2.0103,2.4512,2.0103h7.041c1.1875,0,2.2188-.8452,2.4512-2.0098l1.3999-7c.1475-.7373-.0415-1.4937-.5181-2.0752Zm-6.8535,7.085c-1.1046,0-2-.8954-2-2s.8954-2,2-2,2,.8954,2,2-.8954,2-2,2Z" stroke-width="0" fill="#000"></path></svg>