<svg xmlns="http://www.w3.org/2000/svg" xmlns:xlink="http://www.w3.org/1999/xlink" x="0px" y="0px" width="20px" height="20px" viewBox="0 0 20 20"><circle cx="10" cy="9" r="2" stroke-width="0" fill="#000"></circle><path d="m15.1287,12.1021c.5493-.906.8713-1.9651.8713-3.1021,0-3.3137-2.6863-6-6-6s-6,2.6863-6,6c0,1.1369.322,2.196.8713,3.1021" fill="none" stroke="#000" stroke-linecap="round" stroke-linejoin="round" stroke-width="2" data-color="color-2"></path><path d="m11.1327,17h-2.2654c-.4977,0-.9196-.3659-.9899-.8586l-.2143-1.5c-.0861-.6024.3814-1.1414.9899-1.1414h2.694c.6085,0,1.076.539.9899,1.1414l-.2143,1.5c-.0704.4926-.4923.8586-.9899.8586Z" stroke="#000" stroke-linecap="round" stroke-linejoin="round" stroke-width="2" fill="#000"></path></svg>