<svg xmlns="http://www.w3.org/2000/svg" xmlns:xlink="http://www.w3.org/1999/xlink" x="0px" y="0px" width="18px" height="18px" viewBox="0 0 18 18"><path d="M8.25,1.5h-2.009c-1.052,0-1.996,.586-2.464,1.529l-.348,.703c.418-.138,.857-.231,1.321-.231h3.5V1.5Z" fill="#000" data-color="color-2"></path><path d="M14.223,3.028c-.468-.942-1.412-1.528-2.464-1.528h-2.009V3.5h3.5c.464,0,.903,.093,1.322,.231l-.348-.703Z" fill="#000" data-color="color-2"></path><path d="M10,14.75c0-1.241,1.009-2.25,2.25-2.25h.25v-.25c0-1.241,1.009-2.25,2.25-2.25,.462,0,.892,.141,1.25,.381v-2.631c0-1.517-1.233-2.75-2.75-2.75h-3.5v2.75c0,.414-.336,.75-.75,.75s-.75-.336-.75-.75v-2.75h-3.5c-1.517,0-2.75,1.233-2.75,2.75v5.5c0,1.517,1.233,2.75,2.75,2.75h5.631c-.24-.358-.381-.788-.381-1.25Z" fill="#000"></path><path d="M17.25,14h-1.75v-1.75c0-.414-.336-.75-.75-.75s-.75,.336-.75,.75v1.75h-1.75c-.414,0-.75,.336-.75,.75s.336,.75,.75,.75h1.75v1.75c0,.414,.336,.75,.75,.75s.75-.336,.75-.75v-1.75h1.75c.414,0,.75-.336,.75-.75s-.336-.75-.75-.75Z" fill="#000" data-color="color-2"></path></svg>