<svg xmlns="http://www.w3.org/2000/svg" xmlns:xlink="http://www.w3.org/1999/xlink" x="0px" y="0px" width="18px" height="18px" viewBox="0 0 18 18"><path d="M6.25,14.5H2.75c-.414,0-.75,.336-.75,.75s.336,.75,.75,.75h3.5c.414,0,.75-.336,.75-.75s-.336-.75-.75-.75Z" fill="#000" data-color="color-2"></path><path d="M2.75,13h1.5c.414,0,.75-.336,.75-.75s-.336-.75-.75-.75h-1.5c-.414,0-.75,.336-.75,.75s.336,.75,.75,.75Z" fill="#000" data-color="color-2"></path><path d="M6.25,8.25H2.75c-.414,0-.75,.336-.75,.75s.336,.75,.75,.75h3.5c.414,0,.75-.336,.75-.75s-.336-.75-.75-.75Z" fill="#000" data-color="color-2"></path><path d="M2.75,6.5h1.5c.414,0,.75-.336,.75-.75s-.336-.75-.75-.75h-1.5c-.414,0-.75,.336-.75,.75s.336,.75,.75,.75Z" fill="#000" data-color="color-2"></path><path d="M6.25,2H2.75c-.414,0-.75,.336-.75,.75s.336,.75,.75,.75h3.5c.414,0,.75-.336,.75-.75s-.336-.75-.75-.75Z" fill="#000" data-color="color-2"></path><rect x="9" y="11.5" width="7" height="4.5" rx="1.75" ry="1.75" fill="#000"></rect></svg>