<svg xmlns="http://www.w3.org/2000/svg" xmlns:xlink="http://www.w3.org/1999/xlink" x="0px" y="0px" width="18px" height="18px" viewBox="0 0 18 18"><circle cx="7.5" cy="2" r="1" fill="#000" data-color="color-2"></circle><circle cx="10.5" cy="2" r="1" fill="#000" data-color="color-2"></circle><path d="M14.769,7.215c-1.91-.221-3.844-.338-5.769-.338-1.939,0-3.887,.118-5.797,.34l-1.103,4.018c-.32,1.14-.094,2.335,.621,3.28,.715,.944,1.805,1.485,2.989,1.485h6.58c1.184,0,2.273-.542,2.989-1.485,.715-.944,.941-2.14,.621-3.28l-1.131-4.02Z" fill="#000"></path><path d="M15.251,5.75c-.03,0-.06-.002-.091-.005-4.074-.49-8.246-.49-12.32,0-.418,.049-.785-.244-.834-.655-.049-.412,.244-.785,.655-.834,4.193-.505,8.486-.505,12.68,0,.411,.049,.704,.423,.655,.834-.046,.38-.37,.66-.744,.66Z" fill="#000" data-color="color-2"></path></svg>