<svg xmlns="http://www.w3.org/2000/svg" xmlns:xlink="http://www.w3.org/1999/xlink" x="0px" y="0px" width="24px" height="24px" viewBox="0 0 24 24"> <path fill-rule="evenodd" clip-rule="evenodd" d="M21 10L3 10L3 5.88196L12 1.38197L21 5.88197L21 10Z" fill="black"></path> <path fill-rule="evenodd" clip-rule="evenodd" d="M9 12V22H7V12H9Z" fill="#000" data-color="color-2"></path> <path fill-rule="evenodd" clip-rule="evenodd" d="M13 12V22H11V12H13Z" fill="#000" data-color="color-2"></path> <path fill-rule="evenodd" clip-rule="evenodd" d="M17 12V22H15V12H17Z" fill="#000" data-color="color-2"></path> <path fill-rule="evenodd" clip-rule="evenodd" d="M13 0V2.5H11V0H13Z" fill="black"></path> <path fill-rule="evenodd" clip-rule="evenodd" d="M15 0H18V2H15V0Z" fill="#000" data-color="color-2"></path> <path fill-rule="evenodd" clip-rule="evenodd" d="M19 20L19 12L23 12L23 22L1 22L1 12L5 12L5 20L19 20Z" fill="black"></path> </svg>