<svg xmlns="http://www.w3.org/2000/svg" xmlns:xlink="http://www.w3.org/1999/xlink" x="0px" y="0px" width="24px" height="24px" viewBox="0 0 24 24"> <path fill-rule="evenodd" clip-rule="evenodd" d="M13 0V4H11V0H13Z" fill="#000" data-color="color-2"></path> <path fill-rule="evenodd" clip-rule="evenodd" d="M19 7V2H5V7H19Z" fill="black"></path> <path fill-rule="evenodd" clip-rule="evenodd" d="M5 14V22H3V14H5Z" fill="black"></path> <path fill-rule="evenodd" clip-rule="evenodd" d="M9 14V22H7V14H9Z" fill="black"></path> <path fill-rule="evenodd" clip-rule="evenodd" d="M13 14V22H11V14H13Z" fill="black"></path> <path fill-rule="evenodd" clip-rule="evenodd" d="M17 14V22H15V14H17Z" fill="black"></path> <path fill-rule="evenodd" clip-rule="evenodd" d="M21 14V22H19V14H21Z" fill="black"></path> <path fill-rule="evenodd" clip-rule="evenodd" d="M21 11V6H3V11H21Z" fill="black"></path> <path fill-rule="evenodd" clip-rule="evenodd" d="M23 20H1V22H23V20Z" fill="#000" data-color="color-2"></path> <path fill-rule="evenodd" clip-rule="evenodd" d="M23 10H1V12H23V10Z" fill="#000" data-color="color-2"></path> </svg>