<svg xmlns="http://www.w3.org/2000/svg" xmlns:xlink="http://www.w3.org/1999/xlink" x="0px" y="0px" width="32px" height="32px" viewBox="0 0 32 32"> <path fill-rule="evenodd" clip-rule="evenodd" d="M28 14L4 14L4 9.35608L16 3.90154L28 9.35609L28 14Z" fill="black"></path> <path fill-rule="evenodd" clip-rule="evenodd" d="M20 16V29H18V16H20Z" fill="#000" data-color="color-2"></path> <path fill-rule="evenodd" clip-rule="evenodd" d="M9 16V29H7V16H9Z" fill="#000" data-color="color-2"></path> <path fill-rule="evenodd" clip-rule="evenodd" d="M25 16V29H23V16H25Z" fill="#000" data-color="color-2"></path> <path fill-rule="evenodd" clip-rule="evenodd" d="M14 16V29H12V16H14Z" fill="#000" data-color="color-2"></path> <path fill-rule="evenodd" clip-rule="evenodd" d="M17 2V5.33333H15V2H17Z" fill="black"></path> <path fill-rule="evenodd" clip-rule="evenodd" d="M19 2H22.3333V4H19V2Z" fill="#000" data-color="color-2"></path> <path fill-rule="evenodd" clip-rule="evenodd" d="M27 28L27 18L31 18L31 30L1 30L1 18L5 18L5 28L27 28Z" fill="black"></path> </svg>