<svg xmlns="http://www.w3.org/2000/svg" xmlns:xlink="http://www.w3.org/1999/xlink" x="0px" y="0px" width="32px" height="32px" viewBox="0 0 32 32"> <path fill-rule="evenodd" clip-rule="evenodd" d="M17 1V8H15V1H17Z" fill="#000" data-color="color-2"></path> <path fill-rule="evenodd" clip-rule="evenodd" d="M22.0042 3.20634L21.2015 3.80271C20.4571 4.35576 20 5.23661 20 6.19258V7.66667H18V6.19258C18 4.59343 18.765 3.12138 20.0088 2.19729L20.8115 1.60092L22.0042 3.20634Z" fill="#000" data-color="color-2"></path> <path fill-rule="evenodd" clip-rule="evenodd" d="M9.99577 3.20633L10.7985 3.8027C11.5429 4.35575 12 5.2366 12 6.19258V7.66666H14V6.19258C14 4.59342 13.235 3.12137 11.9912 2.19729L11.1885 1.60091L9.99577 3.20633Z" fill="#000" data-color="color-2"></path> <path d="M26 10V6H6V10H26Z" fill="black"></path> <path d="M3 16H29V12H3V16Z" fill="#000" data-color="color-2"></path> <path fill-rule="evenodd" clip-rule="evenodd" d="M15 19V30H13V19H15Z" fill="black"></path> <path fill-rule="evenodd" clip-rule="evenodd" d="M19 19V30H17V19H19Z" fill="black"></path> <path fill-rule="evenodd" clip-rule="evenodd" d="M11 19V30H9V19H11Z" fill="black"></path> <path fill-rule="evenodd" clip-rule="evenodd" d="M7 19V30H5V19H7Z" fill="black"></path> <path fill-rule="evenodd" clip-rule="evenodd" d="M23 19V30H21V19H23Z" fill="black"></path> <path fill-rule="evenodd" clip-rule="evenodd" d="M27 19V30H25V19H27Z" fill="black"></path> <path fill-rule="evenodd" clip-rule="evenodd" d="M30 30L2 30V28L30 28V30Z" fill="#000" data-color="color-2"></path> <path fill-rule="evenodd" clip-rule="evenodd" d="M30 17L2 17V15L30 15V17Z" fill="#000" data-color="color-2"></path> </svg>