<svg xmlns="http://www.w3.org/2000/svg" xmlns:xlink="http://www.w3.org/1999/xlink" x="0px" y="0px" width="32px" height="32px" viewBox="0 0 32 32"> <path d="M26 2H28V5H26V2Z" fill="black"></path> <path d="M4 2H6V5H4V2Z" fill="black"></path> <path d="M9 19V30H13V26C13 24.3431 14.3431 23 16 23C17.6569 23 19 24.3431 19 26V30H23V19H9Z" fill="black"></path> <path d="M15 7H17V12H15V7Z" fill="#000" data-color="color-2"></path> <path d="M9 17H23C22.9225 13.1521 19.8362 10 16 10C12.164 10 9.07768 13.1523 9 17Z" fill="#000" data-color="color-2"></path> <path d="M8 12.9658C7.38644 14.1738 7.02883 15.5317 7 16.96V30H2V11H8V12.9658Z" fill="black"></path> <path d="M30 30H25V16.96C24.9712 15.5317 24.6135 14.1738 24 12.9658V11H30V30Z" fill="black"></path> <path d="M27.1543 4.00391C28.7394 4.08421 30 5.39489 30 7V9H24V7C24 5.34315 25.3431 4 27 4L27.1543 4.00391Z" fill="black"></path> <path d="M5.1543 4.00391C6.73945 4.08421 8 5.39489 8 7V9H2V7C2 5.34315 3.34315 4 5 4L5.1543 4.00391Z" fill="black"></path> </svg>