<svg xmlns="http://www.w3.org/2000/svg" xmlns:xlink="http://www.w3.org/1999/xlink" x="0px" y="0px" width="24px" height="24px" viewBox="0 0 24 24"> <path d="M12 12.5V17V16.5" stroke="#000" stroke-width="2" stroke-linecap="square" data-color="color-2" fill="none"></path> <path d="M11 23H13" stroke="#000" stroke-width="2" stroke-linecap="square" data-color="color-2" fill="none"></path> <path d="M8 15.9297L8.5 22H15.5L16 15.9297" stroke="black" stroke-width="2" stroke-miterlimit="10" data-cap="butt" fill="none"></path> <path d="M12 17C16.4183 17 20 13.4183 20 9C20 4.58172 16.4183 1 12 1C7.58172 1 4 4.58172 4 9C4 13.4183 7.58172 17 12 17Z" stroke="black" stroke-width="2" stroke-miterlimit="10" stroke-linecap="square" fill="none"></path> <path d="M17 7H16.1667C13.8655 7 12 8.91878 12 11.2857V13H12.8333C15.1345 13 17 11.0812 17 8.71429V7Z" fill="#000" data-color="color-2" data-cap="butt" data-stroke="none"></path> <path d="M7 7H7.83333C10.1345 7 12 8.91878 12 11.2857V13H11.1667C8.86548 13 7 11.0812 7 8.71429V7Z" fill="#000" data-color="color-2" data-cap="butt" data-stroke="none"></path> </svg>