<svg xmlns="http://www.w3.org/2000/svg" xmlns:xlink="http://www.w3.org/1999/xlink" x="0px" y="0px" width="24px" height="24px" viewBox="0 0 24 24"> <path d="M4 8L4 6.5C4 4.01472 6.01472 2 8.5 2V2C10.9853 2 13 4.01472 13 6.5L13 8" stroke="#000" stroke-width="2" data-color="color-2" data-cap="butt" fill="none"></path> <path d="M20 21L20 20" stroke="#000" stroke-width="2" stroke-linecap="square" data-color="color-2" fill="none"></path> <path d="M23 18L23 17" stroke="#000" stroke-width="2" stroke-linecap="square" data-color="color-2" fill="none"></path> <path d="M23 23L23 22" stroke="#000" stroke-width="2" stroke-linecap="square" data-color="color-2" fill="none"></path> <path d="M4 21L13.9021 21C14.5859 21 15.2223 20.6506 15.5894 20.0738L22 10L21 9L15 14L15 8L2 8L2 19C2 20.1046 2.89543 21 4 21Z" stroke="black" stroke-width="2" stroke-miterlimit="10" stroke-linecap="square" fill="none"></path> </svg>