<svg xmlns="http://www.w3.org/2000/svg" xmlns:xlink="http://www.w3.org/1999/xlink" x="0px" y="0px" width="24px" height="24px" viewBox="0 0 24 24"> <path d="M12 18C12.5523 18 13 17.5523 13 17C13 16.4477 12.5523 16 12 16C11.4477 16 11 16.4477 11 17C11 17.5523 11.4477 18 12 18Z" fill="#000" stroke="#000" stroke-width="2" stroke-miterlimit="10" stroke-linecap="square" data-color="color-2"></path> <path d="M1 2L5 2" stroke="#000" stroke-width="2" stroke-linecap="square" data-color="color-2" fill="none"></path> <path d="M4 6H5" stroke="#000" stroke-width="2" stroke-linecap="square" data-color="color-2" fill="none"></path> <path d="M1 10L5 10" stroke="#000" stroke-width="2" stroke-linecap="square" data-color="color-2" fill="none"></path> <path d="M12 22C14.7614 22 17 19.7614 17 17C17 15.3644 16.2147 13.9122 15.0005 13V5.00049C15.0005 3.34336 13.6571 2 12 2C10.3429 2 8.99951 3.34336 8.99951 5.00049V13C7.78534 13.9122 7 15.3644 7 17C7 19.7614 9.23858 22 12 22Z" stroke="black" stroke-width="2" data-cap="butt" fill="none"></path> </svg>