<svg xmlns="http://www.w3.org/2000/svg" xmlns:xlink="http://www.w3.org/1999/xlink" x="0px" y="0px" width="32px" height="32px" viewBox="0 0 32 32"> <path d="M4.5 7.5L6.5 5.5L8.5 3.5" stroke="#000" stroke-width="2" stroke-linecap="square" data-color="color-2" fill="none"></path> <path d="M27 26L27 6C27 4.34315 25.6569 3 24 3L16.3094 3C15.5112 3 14.746 3.31806 14.183 3.8838L5.87357 12.2333C5.31409 12.7955 5 13.5564 5 14.3495L5 26C5 27.6569 6.34315 29 8 29L24 29C25.6569 29 27 27.6569 27 26Z" stroke="black" stroke-width="2" stroke-miterlimit="10" stroke-linecap="square" fill="none"></path> <path d="M21 7L23 7" stroke="#000" stroke-width="2" stroke-linecap="square" data-color="color-2" fill="none"></path> <path d="M16 13C17.9477 14.6667 19.75 17.1667 19.75 19.3141C19.75 21.5797 18.0709 23 16 23C13.9291 23 12.25 21.5797 12.25 19.3141C12.25 17.1667 14.0723 14.6667 16 13Z" stroke="#000" stroke-width="2" stroke-miterlimit="10" stroke-linecap="square" data-color="color-2" fill="none"></path> </svg>