<svg xmlns="http://www.w3.org/2000/svg" xmlns:xlink="http://www.w3.org/1999/xlink" x="0px" y="0px" width="32px" height="32px" viewBox="0 0 32 32"> <path d="M6 10L7.2818 26.2361C7.40499 27.7965 8.7072 29 10.2725 29H21.7275C23.2928 29 24.595 27.7965 24.7182 26.2361L26 10" stroke="black" stroke-width="2" stroke-miterlimit="10" data-cap="butt" fill="none"></path> <path d="M12 6V4.00001C12 2.89544 12.8954 2.00001 14 2.00001L18 2C19.1046 2 20 2.89543 20 4V6" stroke="#000" stroke-width="2" stroke-miterlimit="10" data-color="color-2" data-cap="butt" fill="none"></path> <path d="M25 6H7C5.34315 6 4 7.34315 4 9V10H28V9C28 7.34315 26.6569 6 25 6Z" stroke="black" stroke-width="2" stroke-miterlimit="10" stroke-linecap="square" fill="none"></path> <path d="M16 15C13.7909 15 12 16.7909 12 19C12 21.2091 13.7909 23 16 23C18.2091 23 20 21.2091 20 19V17.0403V17.3148" stroke="#000" stroke-width="2" stroke-linecap="square" data-color="color-2" fill="none"></path> <path d="M19.105 18.1232L19.9364 16.9973L20.7483 18.1233" stroke="#000" stroke-width="2" stroke-miterlimit="10" stroke-linecap="square" data-color="color-2" fill="none"></path> </svg>