<svg xmlns="http://www.w3.org/2000/svg" xmlns:xlink="http://www.w3.org/1999/xlink" x="0px" y="0px" width="48px" height="48px" viewBox="0 0 48 48"> <path d="M44.5 29C41.5 25 37.5754 19.2674 31.7078 21.46C25.7214 23.6969 34.1156 31.08 26.8802 36.4062C22.2595 39.8077 23.3621 43.0889 25 45" stroke="#000" stroke-width="2" data-color="color-2" data-cap="butt" fill="none"></path> <path d="M12.3426 6.64526L16.8324 10.7926C18.1904 12.0737 18.8353 13.9384 18.5592 15.7849C18.3107 17.4461 17.3426 18.9134 15.913 19.7953L15.4776 20.064C12.4043 21.96 11.3471 25.9265 13.0691 29.1006L13.3294 29.5804C14.661 32.0351 14.4063 35.0463 12.6813 37.2424L10.5152 40" stroke="#000" stroke-width="2" stroke-miterlimit="10" data-color="color-2" data-cap="butt" fill="none"></path> <path d="M23.8511 3.18823C22.8238 10.3183 30.4604 18.4562 40.0106 10.4862" stroke="#000" stroke-width="2" data-color="color-2" data-cap="butt" fill="none"></path> <path d="M24 45C35.598 45 45 35.598 45 24C45 12.402 35.598 3 24 3C12.402 3 3 12.402 3 24C3 35.598 12.402 45 24 45Z" stroke="black" stroke-width="2" stroke-miterlimit="10" stroke-linecap="square" fill="none"></path> </svg>