<svg xmlns="http://www.w3.org/2000/svg" xmlns:xlink="http://www.w3.org/1999/xlink" x="0px" y="0px" width="48px" height="48px" viewBox="0 0 48 48"> <path d="M19 8V3H29V8" stroke="black" stroke-width="2" data-cap="butt" fill="none"></path> <path d="M17 45H31C33.7614 45 36 42.7614 36 40V13C36 10.2386 33.7614 8 31 8L17 8C14.2386 8 12 10.2386 12 13L12 40C12 42.7614 14.2386 45 17 45Z" stroke="black" stroke-width="2" stroke-miterlimit="10" stroke-linecap="square" fill="none"></path> <path d="M17 39H31V34H17L17 39Z" stroke="#000" stroke-width="2" stroke-miterlimit="10" stroke-linecap="square" data-color="color-2" fill="none"></path> <path d="M17 29L31 29V24L17 24L17 29Z" stroke="#000" stroke-width="2" stroke-miterlimit="10" stroke-linecap="square" data-color="color-2" fill="none"></path> <path d="M17 19L31 19V14L17 14L17 19Z" stroke="#000" stroke-width="2" stroke-miterlimit="10" stroke-linecap="square" data-color="color-2" fill="none"></path> </svg>