<svg xmlns="http://www.w3.org/2000/svg" xmlns:xlink="http://www.w3.org/1999/xlink" x="0px" y="0px" width="48px" height="48px" viewBox="0 0 48 48"> <path d="M20.1802 27.181L14 42.0355C16.9082 43.9155 20.3334 45 24 45C27.6666 45 31.0918 43.9155 34 42.0355L27.8198 27.181" stroke="#000" stroke-width="2" stroke-miterlimit="10" data-color="color-2" data-cap="butt" fill="none"></path> <path d="M24.9225 19L34.6192 6.32202C37.7014 7.90063 40.3532 10.3246 42.1865 13.5C44.0198 16.6754 44.7932 20.1839 44.6192 23.6425L28.5 25.7389" stroke="#000" stroke-width="2" stroke-miterlimit="10" data-color="color-2" data-cap="butt" fill="none"></path> <path d="M19.338 25.7179L3.38083 23.6426C3.20682 20.1839 3.98017 16.6754 5.81346 13.5C7.64675 10.3247 10.2986 7.90067 13.3808 6.32206L23.1233 19.06" stroke="#000" stroke-width="2" stroke-miterlimit="10" data-color="color-2" data-cap="butt" fill="none"></path> <path d="M24 29C26.7614 29 29 26.7614 29 24C29 21.2386 26.7614 19 24 19C21.2386 19 19 21.2386 19 24C19 26.7614 21.2386 29 24 29Z" stroke="black" stroke-width="2" stroke-miterlimit="10" stroke-linecap="square" fill="none"></path> </svg>