<svg xmlns="http://www.w3.org/2000/svg" xmlns:xlink="http://www.w3.org/1999/xlink" x="0px" y="0px" width="18px" height="18px" viewBox="0 0 18 18"><path d="m8.398,4.999l-2.55,1.479c-.37.215-.598.61-.598,1.038v2.968c0,.428.228.823.598,1.038l2.55,1.479c.372.216.832.216,1.204,0l2.55-1.479c.37-.215.598-.61.598-1.038v-2.968c0-.428-.228-.823-.598-1.038l-2.55-1.479c-.372-.216-.832-.216-1.204,0Z" fill="#000" opacity=".3" stroke-width="0" data-color="color-2"></path><path d="m8.398,4.999l-2.55,1.479c-.37.215-.598.61-.598,1.038v2.968c0,.428.228.823.598,1.038l2.55,1.479c.372.216.832.216,1.204,0l2.55-1.479c.37-.215.598-.61.598-1.038v-2.968c0-.428-.228-.823-.598-1.038l-2.55-1.479c-.372-.216-.832-.216-1.204,0Z" fill="none" stroke="#000" stroke-linecap="round" stroke-linejoin="round" stroke-width="1.5"></path><path d="m12.59,6.918l-3.59,2.082-3.59-2.082" fill="none" stroke="#000" stroke-linecap="round" stroke-linejoin="round" stroke-width="1.5"></path><path d="m9,13.163v-4.163" fill="none" stroke="#000" stroke-linecap="round" stroke-linejoin="round" stroke-width="1.5"></path><path d="m1.7527,3.2549l.5353,2.9951h.002C3.373,3.61,5.969,1.75,9,1.75c3.9366,0,7.1405,3.1377,7.2473,7.0485" fill="none" stroke="#000" stroke-linecap="round" stroke-linejoin="round" stroke-width="1.5"></path><path d="m16.2473,14.7451l-.5353-2.9951h-.002c-1.083,2.64-3.679,4.5-6.71,4.5-3.9366,0-7.1405-3.1377-7.2473-7.0485" fill="none" stroke="#000" stroke-linecap="round" stroke-linejoin="round" stroke-width="1.5"></path></svg>