<svg xmlns="http://www.w3.org/2000/svg" xmlns:xlink="http://www.w3.org/1999/xlink" x="0px" y="0px" width="18px" height="18px" viewBox="0 0 18 18"><path d="m8.0367,2.2724l-4.0797,2.487c-.5923.3612-.957,1.0261-.957,1.7455v4.9902c0,.7194.3648,1.3843.957,1.7455l4.0797,2.487c.5961.3632,1.3305.3632,1.9266,0l4.0797-2.487c.5922-.3612.957-1.0261.957-1.7455v-4.9902c0-.7194-.3648-1.3843-.957-1.7455l-4.0797-2.487c-.5961-.3632-1.3305-.3632-1.9266,0Z" fill="#000" opacity=".3" stroke-width="0" data-color="color-2"></path><path d="m15.254,10.541l-.002.932c0,.357-.096.699-.269.998-.172.299-.421.553-.73.732l-.7984.4628" fill="none" stroke="#000" stroke-linecap="round" stroke-linejoin="round" stroke-width="1.5"></path><line x1="12.973" y1="11.305" x2="14.983" y2="12.47" fill="none" stroke="#000" stroke-linecap="round" stroke-linejoin="round" stroke-width="1.5"></line><path d="m2.746,10.541l.002.932c0,.357.096.699.269.998.172.299.421.553.73.732l.7984.4628" fill="none" stroke="#000" stroke-linecap="round" stroke-linejoin="round" stroke-width="1.5"></path><line x1="5.027" y1="11.305" x2="3.017" y2="12.47" fill="none" stroke="#000" stroke-linecap="round" stroke-linejoin="round" stroke-width="1.5"></line><path d="m15.254,7.459l-.002-.932c0-.357-.096-.699-.269-.998-.172-.299-.421-.553-.73-.732l-.7984-.4628" fill="none" stroke="#000" stroke-linecap="round" stroke-linejoin="round" stroke-width="1.5"></path><line x1="12.973" y1="6.695" x2="14.983" y2="5.53" fill="none" stroke="#000" stroke-linecap="round" stroke-linejoin="round" stroke-width="1.5"></line><path d="m2.746,7.459l.002-.932c0-.357.096-.699.269-.998.172-.299.421-.553.73-.732l.7984-.4628" fill="none" stroke="#000" stroke-linecap="round" stroke-linejoin="round" stroke-width="1.5"></path><line x1="5.027" y1="6.695" x2="3.017" y2="5.53" fill="none" stroke="#000" stroke-linecap="round" stroke-linejoin="round" stroke-width="1.5"></line><path d="m10.7992,2.793l-.7952-.461c-.3106-.1801-.6573-.2701-1.004-.27-.3467,0-.6934.0899-1.004.27l-.7952.461" fill="none" stroke="#000" stroke-linecap="round" stroke-linejoin="round" stroke-width="1.5"></path><polyline points="10.5589 8.0958 9 9 7.4411 8.0958" fill="none" stroke="#000" stroke-linecap="round" stroke-linejoin="round" stroke-width="1.5"></polyline><line x1="9" y1="2.645" x2="9" y2="4.25" fill="none" stroke="#000" stroke-linecap="round" stroke-linejoin="round" stroke-width="1.5"></line><path d="m10.7992,15.207l-.7952.461c-.3106.1801-.6573.2701-1.004.27-.3467,0-.6934-.0899-1.004-.27l-.7952-.461" fill="none" stroke="#000" stroke-linecap="round" stroke-linejoin="round" stroke-width="1.5"></path><line x1="9" y1="15.355" x2="9" y2="13.75" fill="none" stroke="#000" stroke-linecap="round" stroke-linejoin="round" stroke-width="1.5"></line><line x1="9" y1="9" x2="9" y2="10.8" fill="none" stroke="#000" stroke-linecap="round" stroke-linejoin="round" stroke-width="1.5"></line></svg>