<svg xmlns="http://www.w3.org/2000/svg" xmlns:xlink="http://www.w3.org/1999/xlink" x="0px" y="0px" width="18px" height="18px" viewBox="0 0 18 18"><rect x="4.75" y="4.75" width="8.5" height="8" fill="#000" opacity=".3" stroke-width="0" data-color="color-2"></rect><path d="m13.25,4.75H4.75l-2.6113-1.7409c-.1661-.1108-.3887.0083-.3887.208v11.0657c0,.1997.2225.3188.3887.208l2.6113-1.7409h8.5l2.6113,1.7409c.1661.1108.3887-.0083.3887-.208V3.2171c0-.1997-.2225-.3188-.3887-.208l-2.6113,1.7409Z" fill="none" stroke="#000" stroke-linecap="round" stroke-linejoin="round" stroke-width="1.5"></path><line x1="4.75" y1="4.75" x2="4.75" y2="12.75" fill="none" stroke="#000" stroke-linecap="round" stroke-linejoin="round" stroke-width="1.5"></line><line x1="13.25" y1="4.75" x2="13.25" y2="12.75" fill="none" stroke="#000" stroke-linecap="round" stroke-linejoin="round" stroke-width="1.5"></line><line x1="8.75" y1="15.75" x2="12.25" y2="15.75" fill="none" stroke="#000" stroke-linecap="round" stroke-linejoin="round" stroke-width="1.5"></line><circle cx="5.75" cy="15.75" r=".75" stroke-width="0" fill="#000"></circle></svg>