<svg xmlns="http://www.w3.org/2000/svg" xmlns:xlink="http://www.w3.org/1999/xlink" x="0px" y="0px" width="18px" height="18px" viewBox="0 0 18 18"><path d="m7.997,2.332l-4.25,2.465c-.617.358-.997,1.017-.997,1.73v4.946c0,.713.38,1.372.997,1.73l4.25,2.465c.621.36,1.386.36,2.007,0l4.25-2.465c.617-.358.997-1.017.997-1.73v-4.946c0-.713-.38-1.372-.997-1.73l-4.25-2.465c-.621-.36-1.386-.36-2.007,0Z" fill="#000" opacity=".3" stroke-width="0" data-color="color-2"></path><path d="m7.997,2.332l-4.25,2.465c-.617.358-.997,1.017-.997,1.73v4.946c0,.713.38,1.372.997,1.73l4.25,2.465c.621.36,1.386.36,2.007,0l4.25-2.465c.617-.358.997-1.017.997-1.73v-4.946c0-.713-.38-1.372-.997-1.73l-4.25-2.465c-.621-.36-1.386-.36-2.007,0Z" fill="none" stroke="#000" stroke-linecap="round" stroke-linejoin="round" stroke-width="1.5"></path><polyline points="12.251 7.1035 9 9 5.75 7.1035" fill="none" stroke="#000" stroke-linecap="round" stroke-linejoin="round" stroke-width="1.5"></polyline><line x1="9.0005" y1="12.7817" x2="9" y2="9" fill="none" stroke="#000" stroke-linecap="round" stroke-linejoin="round" stroke-width="1.5"></line></svg>