<svg xmlns="http://www.w3.org/2000/svg" xmlns:xlink="http://www.w3.org/1999/xlink" x="0px" y="0px" width="18px" height="18px" viewBox="0 0 18 18"><path fill-rule="evenodd" clip-rule="evenodd" d="M14.25 4.25C14.25 5.35457 11.8995 6.25 9 6.25C6.10051 6.25 3.75 5.35457 3.75 4.25V13.75C3.75 14.8546 6.10051 15.75 9 15.75C11.8995 15.75 14.25 14.8546 14.25 13.75V4.25Z" fill="#000" fill-opacity="0.3" data-color="color-2" data-stroke="none"></path> <path d="M9 15.75C11.8995 15.75 14.25 14.8546 14.25 13.75C14.25 12.6454 11.8995 11.75 9 11.75C6.10051 11.75 3.75 12.6454 3.75 13.75C3.75 14.8546 6.10051 15.75 9 15.75Z" stroke="black" stroke-width="1.5" stroke-linecap="round" stroke-linejoin="round" fill="none"></path> <path d="M3.75 13.75V4.25" stroke="black" stroke-width="1.5" stroke-linecap="round" stroke-linejoin="round" fill="none"></path> <path d="M14.25 4.25V13.75" stroke="black" stroke-width="1.5" stroke-linecap="round" stroke-linejoin="round" fill="none"></path> <path d="M9 6.25C11.8995 6.25 14.25 5.35457 14.25 4.25C14.25 3.14543 11.8995 2.25 9 2.25C6.10051 2.25 3.75 3.14543 3.75 4.25C3.75 5.35457 6.10051 6.25 9 6.25Z" stroke="black" stroke-width="1.5" stroke-linecap="round" stroke-linejoin="round" fill="none"></path></svg>