<svg xmlns="http://www.w3.org/2000/svg" xmlns:xlink="http://www.w3.org/1999/xlink" x="0px" y="0px" width="20px" height="20px" viewBox="0 0 20 20"><path d="m10,2C5.589,2,2,5.589,2,10s3.589,8,8,8,8-3.589,8-8S14.411,2,10,2Zm-2.543,5.77l1.967-2.359c.287-.345.865-.344,1.152,0h0s1.966,2.36,1.966,2.36c.188.226.228.532.104.798-.125.266-.386.432-.68.432h-3.932c-.294,0-.555-.166-.68-.432-.124-.267-.085-.572.103-.798Zm5.086,4.46l-1.967,2.359h0c-.144.172-.354.27-.576.27s-.433-.098-.576-.269l-1.966-2.36c-.188-.226-.228-.532-.104-.798.125-.266.386-.432.68-.432h3.932c.294,0,.555.166.68.432.124.267.085.572-.103.798Z" stroke-width="0" fill="#000"></path></svg>