<svg xmlns="http://www.w3.org/2000/svg" xmlns:xlink="http://www.w3.org/1999/xlink" x="0px" y="0px" width="18px" height="18px" viewBox="0 0 18 18"><circle cx="4.25" cy="5.25" r=".75" fill="#000" stroke-width="0" data-color="color-2"></circle><circle cx="6.75" cy="5.25" r=".75" fill="#000" stroke-width="0" data-color="color-2"></circle><line x1="1.75" y1="7.75" x2="16.25" y2="7.75" fill="none" stroke="#000" stroke-linecap="round" stroke-linejoin="round" stroke-width="1.5"></line><path d="m16.25,7.75v-3c0-1.104-.895-2-2-2H3.75c-1.105,0-2,.896-2,2v8.5c0,1.104.895,2,2,2h4.3357" fill="none" stroke="#000" stroke-linecap="round" stroke-linejoin="round" stroke-width="1.5"></path><path d="m13.781,16.447c.138.071.299.071.437,0,.729-.374,3.031-1.73,3.031-3.934.004-.968-.791-1.757-1.777-1.763-.593.007-1.144.301-1.473.786-.329-.484-.881-.778-1.473-.786-.985.006-1.78.794-1.777,1.763,0,2.205,2.303,3.56,3.031,3.934h.001Z" fill="none" stroke="#000" stroke-linecap="round" stroke-linejoin="round" stroke-width="1.5" data-color="color-2"></path></svg>