<svg xmlns="http://www.w3.org/2000/svg" xmlns:xlink="http://www.w3.org/1999/xlink" x="0px" y="0px" width="18px" height="18px" viewBox="0 0 18 18"><polyline points="9 13.185 4.519 15.54 5.375 10.551 1.75 7.017 6.76 6.289 9 1.75 11.24 6.289 16.25 7.017 15.35 7.8948" fill="none" stroke="#000" stroke-linecap="round" stroke-linejoin="round" stroke-width="1.5"></polyline><circle cx="13.25" cy="11" r="1.5" fill="#000" stroke-width="0" data-color="color-2"></circle><path d="m15.3511,17.5h-4.2021c-.4067,0-.7905-.1987-1.0273-.5317-.2324-.3276-.293-.7476-.1621-1.123.4883-1.4023,1.8105-2.3452,3.2905-2.3452s2.8022.9429,3.291,2.3457c.1304.375.0698.7949-.1626,1.1226-.2368.333-.6206.5317-1.0273.5317Z" fill="#000" stroke-width="0" data-color="color-2"></path></svg>