<svg xmlns="http://www.w3.org/2000/svg" xmlns:xlink="http://www.w3.org/1999/xlink" x="0px" y="0px" width="18px" height="18px" viewBox="0 0 18 18"><rect x="10.25" y="12.75" width="6" height="3.5" rx="1" ry="1" fill="none" stroke="#000" stroke-linecap="round" stroke-linejoin="round" stroke-width="1.5" data-color="color-2"></rect><path d="m16.0664,7.7437c.2167-.6765.2498-1.427.0497-2.1878-.181-.688-.575-1.3201-1.11-1.7898-2.005-1.7581-4.933-1.05-6.007,1.1619-.171-.353-.396-.677-.666-.9619-1.452-1.5281-3.867-1.5911-5.395-.1392-1.528,1.4512-1.591,3.8669-.139,5.395l4.451,4.6247" fill="none" stroke="#000" stroke-linecap="round" stroke-linejoin="round" stroke-width="1.5"></path><path d="m11.75,12.75v-1.5c0-.828.672-1.5,1.5-1.5h0c.828,0,1.5.672,1.5,1.5v1.5" fill="none" stroke="#000" stroke-linecap="round" stroke-linejoin="round" stroke-width="1.5" data-color="color-2"></path></svg>