<svg xmlns="http://www.w3.org/2000/svg" xmlns:xlink="http://www.w3.org/1999/xlink" x="0px" y="0px" width="24px" height="24px" viewBox="0 0 24 24"><path d="m7.413,22H2.587l-.54-5.933-1.63-1.087.752-5.013c.116-.776.666-1.412,1.4-1.622,1.612-.46,3.249-.46,4.862,0,.734.209,1.284.845,1.4,1.621l.752,5.013-1.63,1.087-.54,5.933Z" stroke-width="0" fill="#000"></path><circle cx="5" cy="4.5" r="2.5" stroke-width="0" fill="#000"></circle><circle cx="19" cy="4.5" r="2.5" stroke-width="0" fill="#000"></circle><path d="m21.413,22h-4.826l-.54-5.933-1.63-1.087.752-5.013c.116-.776.666-1.412,1.4-1.622,1.612-.46,3.249-.46,4.862,0,.734.209,1.284.845,1.4,1.621l.752,5.013-1.63,1.087-.54,5.933Z" stroke-width="0" fill="#000"></path><rect x="11" y="1" width="2" height="22" fill="#000" stroke-width="0" data-color="color-2"></rect></svg>