<svg xmlns="http://www.w3.org/2000/svg" xmlns:xlink="http://www.w3.org/1999/xlink" x="0px" y="0px" width="48px" height="48px" viewBox="0 0 48 48"> <path d="M25.5 3V9H22.5V3L25.5 3Z" fill="#000" data-color="color-2"></path> <path d="M15 8V12H33V8H15Z" fill="black"></path> <path d="M7 8C7 4.68629 9.68629 2 13 2H35V5H13C11.3431 5 10 6.34315 10 8V10H7V8Z" fill="#000" data-color="color-2"></path> <path fill-rule="evenodd" clip-rule="evenodd" d="M35 15C38.3137 15 41 17.6863 41 21V40C41 43.3137 38.3137 46 35 46H13C9.68629 46 7 43.3137 7 40V21C7 17.6863 9.68629 15 13 15H35ZM21 22V28H15V34H21V40H27V34H33V28H27V22H21Z" fill="black"></path> </svg>