<svg xmlns="http://www.w3.org/2000/svg" xmlns:xlink="http://www.w3.org/1999/xlink" x="0px" y="0px" width="48px" height="48px" viewBox="0 0 48 48"> <path fill-rule="evenodd" clip-rule="evenodd" d="M46.0815 4.06066L36.0815 14.0607L33.9602 11.9393L43.9602 1.93935L46.0815 4.06066Z" fill="#000" data-color="color-2"></path> <path fill-rule="evenodd" clip-rule="evenodd" d="M11.5 32H14.5V45.5H11.5V32Z" fill="black"></path> <path fill-rule="evenodd" clip-rule="evenodd" d="M1 21C1 14.3726 6.37258 9 13 9C19.6274 9 25 14.3726 25 21C25 27.6274 19.6274 33 13 33C6.37258 33 1 27.6274 1 21Z" fill="black"></path> <path d="M23.1978 32.0005C24.6683 32.6433 26.2925 33 28.0001 33C34.6275 33 40.0001 27.6274 40.0001 21C40.0001 14.3726 34.6275 9 28.0001 9C26.2926 9 24.6683 9.35666 23.1978 9.99954C26.1516 12.739 28.0001 16.6536 28.0001 21C28.0001 25.3464 26.1516 29.261 23.1978 32.0005Z" fill="#000" data-color="color-2"></path> <path fill-rule="evenodd" clip-rule="evenodd" d="M34 1.02081H47V14.0208H44V4.02081H34V1.02081Z" fill="#000" data-color="color-2"></path> <path fill-rule="evenodd" clip-rule="evenodd" d="M22.1924 38.429L13 47.6213L3.80761 38.429L5.92893 36.3076L13 43.3787L20.0711 36.3076L22.1924 38.429Z" fill="black"></path> </svg>