<svg xmlns="http://www.w3.org/2000/svg" xmlns:xlink="http://www.w3.org/1999/xlink" x="0px" y="0px" width="24px" height="24px" viewBox="0 0 24 24"><path d="m4,13v7c0,1.105.895,2,2,2h12c1.105,0,2-.895,2-2v-7" fill="none" stroke="#000" stroke-linecap="square" stroke-miterlimit="10" stroke-width="2"></path><polyline points="10 22 10 16 14 16 14 22" fill="none" stroke="#000" stroke-miterlimit="10" stroke-width="2" data-cap="butt"></polyline><path d="m21.874,7l-2.874-5H5l-2.874,5c.444,1.725,2.01,3,3.874,3,1.202,0,2.267-.541,3-1.38.733.839,1.798,1.38,3,1.38s2.267-.541,3-1.38c.733.839,1.798,1.38,3,1.38,1.864,0,3.43-1.275,3.874-3Z" fill="none" stroke="#000" stroke-linecap="square" stroke-miterlimit="10" stroke-width="2" data-color="color-2"></path></svg>