<svg xmlns="http://www.w3.org/2000/svg" xmlns:xlink="http://www.w3.org/1999/xlink" x="0px" y="0px" width="24px" height="24px" viewBox="0 0 24 24"> <path d="M12 16C12 18.2091 10.2091 20 8 20C5.79086 20 4 18.2091 4 16" stroke="black" stroke-width="2" stroke-miterlimit="10" data-cap="butt" fill="none"></path> <path d="M20 16C20 18.2091 18.2091 20 16 20C13.7909 20 12 18.2091 12 16" stroke="black" stroke-width="2" stroke-miterlimit="10" data-cap="butt" fill="none"></path> <path d="M12 16C13.1046 16 14 15.1046 14 14C14 12.8954 13.1046 12 12 12C10.8954 12 10 12.8954 10 14C10 15.1046 10.8954 16 12 16Z" stroke="#000" stroke-width="2" stroke-miterlimit="10" stroke-linecap="square" data-color="color-2" fill="none"></path> <path d="M20 16C21.1046 16 22 15.1046 22 14C22 12.8954 21.1046 12 20 12C18.8954 12 18 12.8954 18 14C18 15.1046 18.8954 16 20 16Z" stroke="#000" stroke-width="2" stroke-miterlimit="10" stroke-linecap="square" data-color="color-2" fill="none"></path> <path d="M4 16C5.10457 16 6 15.1046 6 14C6 12.8954 5.10457 12 4 12C2.89543 12 2 12.8954 2 14C2 15.1046 2.89543 16 4 16Z" stroke="#000" stroke-width="2" stroke-miterlimit="10" stroke-linecap="square" data-color="color-2" fill="none"></path> <path d="M12 6C13.6569 6 15 4.65685 15 3H9C9 4.65685 10.3431 6 12 6Z" stroke="black" stroke-width="2" stroke-miterlimit="10" stroke-linecap="square" fill="none"></path> <path d="M12.0035 21.5L11.9965 21.4929" stroke="black" stroke-width="2" stroke-linecap="square" fill="none"></path> <path d="M12 6V8" stroke="black" stroke-width="2" stroke-linecap="square" fill="none"></path> </svg>