<svg xmlns="http://www.w3.org/2000/svg" xmlns:xlink="http://www.w3.org/1999/xlink" x="0px" y="0px" width="24px" height="24px" viewBox="0 0 24 24"> <path d="M6 16.5V17H8V16.5" stroke="#000" stroke-width="2" stroke-linecap="square" data-color="color-2" fill="none"></path> <path d="M16 16.5V17H18V16.5" stroke="#000" stroke-width="2" stroke-linecap="square" data-color="color-2" fill="none"></path> <path d="M12 22V16" stroke="black" stroke-width="2" stroke-linecap="square" fill="none"></path> <path d="M21 16H3C2.44772 16 2 16.4477 2 17V21C2 21.5523 2.44772 22 3 22H21C21.5523 22 22 21.5523 22 21V17C22 16.4477 21.5523 16 21 16Z" stroke="black" stroke-width="2" stroke-miterlimit="10" stroke-linecap="square" fill="none"></path> <path d="M18.5 2H5.5C4.67157 2 4 2.67157 4 3.5V10.5C4 11.3284 4.67157 12 5.5 12H18.5C19.3284 12 20 11.3284 20 10.5V3.5C20 2.67157 19.3284 2 18.5 2Z" stroke="black" stroke-width="2" stroke-miterlimit="10" stroke-linecap="square" fill="none"></path> </svg>