<svg xmlns="http://www.w3.org/2000/svg" xmlns:xlink="http://www.w3.org/1999/xlink" x="0px" y="0px" width="32px" height="32px" viewBox="0 0 32 32"> <path d="M16 21V21.5C16 24.5376 18.4624 27 21.5 27V27C24.5376 27 27 24.5376 27 21.5V21" stroke="black" stroke-width="2" data-cap="butt" fill="none"></path> <path d="M5 21V21.5C5 24.5376 7.46243 27 10.5 27V27C13.5376 27 16 24.5376 16 21.5V21" stroke="black" stroke-width="2" data-cap="butt" fill="none"></path> <path d="M16 7V11" stroke="black" stroke-width="2" stroke-linecap="square" fill="none"></path> <path d="M16 21C17.6569 21 19 19.6569 19 18C19 16.3431 17.6569 15 16 15C14.3431 15 13 16.3431 13 18C13 19.6569 14.3431 21 16 21Z" stroke="#000" stroke-width="2" stroke-miterlimit="10" stroke-linecap="square" data-color="color-2" fill="none"></path> <path d="M5 21C6.65685 21 8 19.6569 8 18C8 16.3431 6.65685 15 5 15C3.34315 15 2 16.3431 2 18C2 19.6569 3.34315 21 5 21Z" stroke="#000" stroke-width="2" stroke-miterlimit="10" stroke-linecap="square" data-color="color-2" fill="none"></path> <path d="M27 21C28.6569 21 30 19.6569 30 18C30 16.3431 28.6569 15 27 15C25.3431 15 24 16.3431 24 18C24 19.6569 25.3431 21 27 21Z" stroke="#000" stroke-width="2" stroke-miterlimit="10" stroke-linecap="square" data-color="color-2" fill="none"></path> <path d="M16 7C18.2091 7 20 5.20914 20 3H12C12 5.20914 13.7909 7 16 7Z" stroke="black" stroke-width="2" stroke-miterlimit="10" stroke-linecap="square" fill="none"></path> <path d="M16.0047 28.6667L15.9952 28.6572" stroke="black" stroke-width="2" stroke-linecap="square" fill="none"></path> </svg>