<svg xmlns="http://www.w3.org/2000/svg" xmlns:xlink="http://www.w3.org/1999/xlink" x="0px" y="0px" width="32px" height="32px" viewBox="0 0 32 32"> <path d="M11 10V17C11 18.6569 9.65685 20 8 20H3" stroke="black" stroke-width="2" data-cap="butt" fill="none"></path> <path d="M12.5 28L6 28C4.34315 28 3 26.6569 3 25L3 20C3 14.4772 7.47715 10 13 10L14 10C15.1046 10 16 10.8954 16 12L16 23" stroke="black" stroke-width="2" stroke-miterlimit="10" data-cap="butt" fill="none"></path> <path d="M15.5 30C17.433 30 19 28.433 19 26.5C19 24.567 17.433 23 15.5 23C13.567 23 12 24.567 12 26.5C12 28.433 13.567 30 15.5 30Z" stroke="#000" stroke-width="2" stroke-miterlimit="10" stroke-linecap="square" data-color="color-2" fill="none"></path> <path d="M16 12.3333V6.5C16 3.46243 18.4624 1 21.5 1V1C24.5376 1 27 3.46243 27 6.5V10" stroke="black" stroke-width="2" stroke-linecap="square" fill="none"></path> <path d="M27 15V25" stroke="#000" stroke-width="2" stroke-linecap="square" data-color="color-2" fill="none"></path> <path d="M31 28L27 25L22.999 28V29H31V28Z" stroke="#000" stroke-width="2" stroke-miterlimit="10" stroke-linecap="square" data-color="color-2" fill="none"></path> <path d="M7.01331 24L6.99997 24" stroke="#000" stroke-width="2" stroke-miterlimit="10" stroke-linecap="square" data-color="color-2" fill="none"></path> </svg>