<svg xmlns="http://www.w3.org/2000/svg" xmlns:xlink="http://www.w3.org/1999/xlink" x="0px" y="0px" width="32px" height="32px" viewBox="0 0 32 32"> <path d="M13 10L10 10C9.44772 10 9 10.4477 9 11L9 13C9 13.5523 9.44771 14 10 14L13 14C13.5523 14 14 13.5523 14 13L14 11C14 10.4477 13.5523 10 13 10Z" stroke="#000" stroke-width="2" stroke-miterlimit="10" stroke-linecap="square" data-color="color-2" fill="none"></path> <path d="M22 10L19 10C18.4477 10 18 10.4477 18 11L18 13C18 13.5523 18.4477 14 19 14L22 14C22.5523 14 23 13.5523 23 13L23 11C23 10.4477 22.5523 10 22 10Z" stroke="#000" stroke-width="2" stroke-miterlimit="10" stroke-linecap="square" data-color="color-2" fill="none"></path> <path d="M3 24H29" stroke="#000" stroke-width="2" data-color="color-2" data-cap="butt" fill="none"></path> <path d="M5 14L5 8C5 6.34315 6.34315 5 8 5L24 5C25.6569 5 27 6.34315 27 8L27 14" stroke="black" stroke-width="2" stroke-miterlimit="10" stroke-linecap="square" fill="none"></path> <path d="M3 27L3 21C3 19.3431 4.34315 18 6 18L26 18C27.6569 18 29 19.3431 29 21L29 27" stroke="black" stroke-width="2" stroke-miterlimit="10" stroke-linecap="square" fill="none"></path> </svg>