<svg xmlns="http://www.w3.org/2000/svg" xmlns:xlink="http://www.w3.org/1999/xlink" x="0px" y="0px" width="32px" height="32px" viewBox="0 0 32 32"> <path d="M13 24V29H19V24" stroke="black" stroke-width="2" data-cap="butt" fill="none"></path> <path d="M16 9H19" stroke="black" stroke-width="2" stroke-linecap="square" fill="none"></path> <path d="M16 13V4.49998C16 3.11928 14.8807 2 13.5 2V2C12.1193 2 11 3.11928 11 4.49998V7" stroke="#000" stroke-width="2" stroke-miterlimit="10" stroke-linecap="square" data-color="color-2" fill="none"></path> <path d="M14.9293 24L17.0707 24C22.933 24 28.0701 20.0763 29.6126 14.4205L29.6555 14.2631C29.829 13.627 29.3501 13 28.6907 13L3.30925 13C2.64988 13 2.17099 13.627 2.34449 14.2631L2.38742 14.4205C3.92991 20.0763 9.06698 24 14.9293 24Z" stroke="black" stroke-width="2" stroke-miterlimit="10" stroke-linecap="square" fill="none"></path> </svg>