<svg xmlns="http://www.w3.org/2000/svg" xmlns:xlink="http://www.w3.org/1999/xlink" x="0px" y="0px" width="32px" height="32px" viewBox="0 0 32 32"> <path d="M5 16L27 16" stroke="black" stroke-width="2" stroke-miterlimit="10" stroke-linecap="square" fill="none"></path> <path d="M9 28V30" stroke="#000" stroke-width="2" stroke-linecap="square" data-color="color-2" fill="none"></path> <path d="M23 28V30" stroke="#000" stroke-width="2" stroke-linecap="square" data-color="color-2" fill="none"></path> <path d="M5 4L5 25C5 26.6569 6.34315 28 8 28L24 28C25.6569 28 27 26.6569 27 25L27 4" stroke="black" stroke-width="2" stroke-miterlimit="10" stroke-linecap="square" fill="none"></path> <path fill-rule="evenodd" clip-rule="evenodd" d="M14.5 10C14.5 9.17157 15.1716 8.5 16 8.5C16.8284 8.5 17.5 9.17157 17.5 10C17.5 10.8284 16.8284 11.5 16 11.5C15.1716 11.5 14.5 10.8284 14.5 10Z" fill="#000" data-color="color-2" data-cap="butt" data-stroke="none"></path> <path fill-rule="evenodd" clip-rule="evenodd" d="M14.5 22C14.5 21.1716 15.1716 20.5 16 20.5C16.8284 20.5 17.5 21.1716 17.5 22C17.5 22.8284 16.8284 23.5 16 23.5C15.1716 23.5 14.5 22.8284 14.5 22Z" fill="#000" data-color="color-2" data-cap="butt" data-stroke="none"></path> <path d="M3 4L29 4" stroke="black" stroke-width="2" stroke-miterlimit="10" stroke-linecap="square" fill="none"></path> </svg>