<svg xmlns="http://www.w3.org/2000/svg" xmlns:xlink="http://www.w3.org/1999/xlink" x="0px" y="0px" width="32px" height="32px" viewBox="0 0 32 32"> <path d="M16 11.5V8" stroke="#000" stroke-width="2" data-color="color-2" data-cap="butt" fill="none"></path> <path d="M16 22V30" stroke="black" stroke-width="2" stroke-linecap="square" fill="none"></path> <path d="M5 8H27" stroke="black" stroke-width="2" stroke-linecap="square" fill="none"></path> <path d="M5 22H27" stroke="black" stroke-width="2" stroke-linecap="square" fill="none"></path> <path d="M24 2L8.00002 2C6.34316 2 5.00002 3.34315 5.00002 5L5.00001 27C5.00001 28.6569 6.34316 30 8.00001 30L24 30C25.6569 30 27 28.6569 27 27L27 5C27 3.34315 25.6569 2 24 2Z" stroke="black" stroke-width="2" stroke-miterlimit="10" stroke-linecap="square" fill="none"></path> <path d="M11 26L10 26" stroke="#000" stroke-width="2" stroke-linecap="square" data-color="color-2" fill="none"></path> <path d="M22 26L21 26" stroke="#000" stroke-width="2" stroke-linecap="square" data-color="color-2" fill="none"></path> <path d="M16 11L22 14.75V16H10V14.75L16 11Z" stroke="#000" stroke-width="2" stroke-miterlimit="10" stroke-linecap="square" data-color="color-2" fill="none"></path> </svg>