<svg xmlns="http://www.w3.org/2000/svg" xmlns:xlink="http://www.w3.org/1999/xlink" x="0px" y="0px" width="32px" height="32px" viewBox="0 0 32 32"> <path d="M3 8H7" stroke="#000" stroke-width="2" stroke-linecap="square" data-color="color-2" fill="none"></path> <path d="M25 8H29" stroke="#000" stroke-width="2" stroke-linecap="square" data-color="color-2" fill="none"></path> <path d="M12 25.0266C12 24.3857 12.5 21.561 12.5 21.561L13.625 22.1707L16 19C16 19 20 22.1707 20 25.0266C20 27.5598 17.9498 29 16 29C14.0502 29 12 27.5598 12 25.0266Z" stroke="#000" stroke-width="2" stroke-miterlimit="10" stroke-linecap="square" data-color="color-2" fill="none"></path> <path d="M26 3L6 3C4.34315 3 3 4.34315 3 6L3 29L29 29L29 6C29 4.34315 27.6569 3 26 3Z" stroke="black" stroke-width="2" stroke-miterlimit="10" stroke-linecap="square" fill="none"></path> <path d="M25 29L25 19C25 14.0294 20.9706 10 16 10V10C11.0294 10 7 14.0294 7 19L7 29" stroke="black" stroke-width="2" stroke-miterlimit="10" stroke-linecap="square" fill="none"></path> <path d="M19.0071 16.007L19 16" stroke="#000" stroke-width="2" stroke-linecap="square" data-color="color-2" fill="none"></path> </svg>