<svg xmlns="http://www.w3.org/2000/svg" xmlns:xlink="http://www.w3.org/1999/xlink" x="0px" y="0px" width="48px" height="48px" viewBox="0 0 48 48"> <path d="M14 40H34" stroke="black" stroke-width="2" data-cap="butt" fill="none"></path> <path d="M29 8.17858C29 5.31853 26.6719 3 23.8 3C20.9281 3 18.6 5.31853 18.6 8.17858C18.6 9.84517 19.563 11.3279 20.8652 12.2751C21.509 12.7434 22 13.4411 22 14.2371V16.4141L3 23.7143V27.5C3 28.8807 4.11929 30 5.5 30H9" stroke="black" stroke-width="2" stroke-miterlimit="10" stroke-linecap="square" fill="none"></path> <path d="M34 26H14V42.5C14 43.8807 15.1193 45 16.5 45H31.5C32.8807 45 34 43.8807 34 42.5V26Z" stroke="#000" stroke-width="2" stroke-miterlimit="10" stroke-linecap="square" data-color="color-2" fill="none"></path> <path d="M28.3707 17.3153L45.0001 23.6029L45.0001 27.4934C45 28.8741 43.8808 29.9934 42.5001 29.9934H39" stroke="black" stroke-width="2" stroke-miterlimit="10" stroke-linecap="square" fill="none"></path> </svg>