<svg xmlns="http://www.w3.org/2000/svg" xmlns:xlink="http://www.w3.org/1999/xlink" x="0px" y="0px" width="48px" height="48px" viewBox="0 0 48 48"> <path d="M25 22L24.2785 26.3288C24.1178 27.2932 23.2834 28 22.3057 28H19.5" stroke="#000" stroke-width="2" data-color="color-2" data-cap="butt" fill="none"></path> <path d="M29 5V22" stroke="#000" stroke-width="2" data-color="color-2" data-cap="butt" fill="none"></path> <path d="M20.6667 22L18.9802 32.7833L27.4028 33.6359C29.4455 33.8427 31 35.5624 31 37.6156L31 43H7V36.9339C7 35.0251 8.34874 33.3822 10.221 33.0105L11.3651 32.7833L13.5476 22" stroke="black" stroke-width="2" stroke-miterlimit="10" data-cap="butt" fill="none"></path> <path d="M43 13.5H46" stroke="black" stroke-width="2" stroke-linecap="square" fill="none"></path> <path d="M10 22H30.2209L38 18.625V8.375L30.2209 5H10C7.23858 5 5 7.23858 5 10V17C5 19.7614 7.23857 22 10 22Z" stroke="black" stroke-width="2" stroke-miterlimit="10" stroke-linecap="square" fill="none"></path> <path d="M10 11H14" stroke="#000" stroke-width="2" stroke-linecap="square" data-color="color-2" fill="none"></path> <path d="M10 16H14" stroke="#000" stroke-width="2" stroke-linecap="square" data-color="color-2" fill="none"></path> <path d="M38 10.5L43 11V16L38 16.5" stroke="black" stroke-width="2" data-cap="butt" fill="none"></path> <path d="M7 38H31" stroke="black" stroke-width="2" data-cap="butt" fill="none"></path> </svg>