<svg xmlns="http://www.w3.org/2000/svg" xmlns:xlink="http://www.w3.org/1999/xlink" x="0px" y="0px" width="48px" height="48px" viewBox="0 0 48 48"> <path d="M7 11H2" stroke="#000" stroke-width="2" stroke-linecap="square" data-color="color-2" fill="none"></path> <path d="M2 13L2 9" stroke="#000" stroke-width="2" stroke-linecap="square" data-color="color-2" fill="none"></path> <path d="M20 11H15" stroke="#000" stroke-width="2" stroke-linecap="square" data-color="color-2" fill="none"></path> <path d="M20 37H15" stroke="#000" stroke-width="2" stroke-linecap="square" data-color="color-2" fill="none"></path> <path d="M33 11H28" stroke="#000" stroke-width="2" stroke-linecap="square" data-color="color-2" fill="none"></path> <path d="M33 37H28" stroke="#000" stroke-width="2" stroke-linecap="square" data-color="color-2" fill="none"></path> <path d="M40.9374 32H46V37H40.9374" stroke="#000" stroke-width="2" data-color="color-2" data-cap="butt" fill="none"></path> <path d="M20 9L20 39C20 41.2091 21.7909 43 24 43C26.2091 43 28 41.2091 28 39L28 9C28 6.79086 26.2091 5 24 5C21.7909 5 20 6.79086 20 9Z" stroke="black" stroke-width="2" stroke-miterlimit="10" stroke-linecap="square" fill="none"></path> <path d="M33 9L33 39C33 41.2091 34.7909 43 37 43C39.2091 43 41 41.2091 41 39L41 9C41 6.79086 39.2091 5 37 5C34.7909 5 33 6.79086 33 9Z" stroke="black" stroke-width="2" stroke-miterlimit="10" stroke-linecap="square" fill="none"></path> <path d="M7 9L7 39C7 41.2091 8.79086 43 11 43C13.2091 43 15 41.2091 15 39L15 9C15 6.79086 13.2091 5 11 5C8.79086 5 7 6.79086 7 9Z" stroke="black" stroke-width="2" stroke-miterlimit="10" stroke-linecap="square" fill="none"></path> </svg>