<svg xmlns="http://www.w3.org/2000/svg" xmlns:xlink="http://www.w3.org/1999/xlink" x="0px" y="0px" width="48px" height="48px" viewBox="0 0 48 48"> <path d="M44 16L42 16" stroke="#000" stroke-width="2" stroke-linecap="square" data-color="color-2" fill="none"></path> <path d="M32 4L32 6" stroke="#000" stroke-width="2" stroke-linecap="square" data-color="color-2" fill="none"></path> <path d="M41 6.98663L39 8.98663" stroke="#000" stroke-width="2" stroke-linecap="square" data-color="color-2" fill="none"></path> <path d="M20.8363 9.078L29.8363 18.078L38.8363 27.078" stroke="black" stroke-width="2" data-cap="butt" fill="none"></path> <path d="M16.8363 31.0817L14.8399 33.0781" stroke="black" stroke-width="2" stroke-linecap="square" fill="none"></path> <path d="M19.8204 19.9142L5.70425 34.0517C4.14419 35.6141 4.14513 38.1451 5.70637 39.7064L6.99994 41L8.31943 42.3195C9.88236 43.8825 12.4167 43.8815 13.9785 42.3174L28 28.2744" stroke="#000" stroke-width="2" stroke-miterlimit="10" data-color="color-2" data-cap="butt" fill="none"></path> <path d="M23.1669 6.42258L22.8133 6.77613C17.7365 11.8529 17.7365 20.0841 22.8133 25.1609C27.8902 30.2377 36.1213 30.2377 41.1981 25.1609L41.5517 24.8074C42.1375 24.2216 42.1375 23.2718 41.5517 22.686L25.2882 6.42258C24.7024 5.83679 23.7527 5.83679 23.1669 6.42258Z" stroke="black" stroke-width="2" stroke-miterlimit="10" stroke-linecap="square" fill="none"></path> </svg>