<svg xmlns="http://www.w3.org/2000/svg" xmlns:xlink="http://www.w3.org/1999/xlink" x="0px" y="0px" width="18px" height="18px" viewBox="0 0 18 18"><path d="M16.225,15c-1.343,0-2.617-.49-3.603-1.368-.034,.03-.068,.059-.102,.088-2.101,1.761-5.147,1.672-7.144-.089-.991,.878-2.27,1.369-3.615,1.369h-.014c-.414,0-.749-.337-.748-.752,0-.414,.336-.748,.75-.748h.012c1.177,0,2.283-.518,3.037-1.422,.143-.17,.353-.269,.575-.27,.221-.041,.433,.098,.576,.268,1.41,1.682,3.926,1.903,5.606,.494,.178-.149,.345-.316,.494-.494,.143-.17,.353-.268,.575-.268h.002c.222,0,.433,.1,.575,.271,.749,.903,1.85,1.42,3.022,1.42h.025c.413,0,.748,.333,.75,.746,.002,.414-.332,.752-.746,.754h-.029Z" fill="#000"></path><path d="M16.225,10.596c-1.343,0-2.617-.49-3.603-1.368-.034,.03-.068,.059-.103,.088-2.101,1.761-5.147,1.673-7.143-.089-.99,.878-2.269,1.369-3.613,1.369-.452,.003-.765-.333-.763-.752,0-.414,.337-.748,.75-.748,.005-.001,.009,0,.013,0,1.176,0,2.282-.518,3.036-1.422,.143-.17,.353-.269,.575-.27h0c.222,0,.432,.098,.575,.268,1.41,1.682,3.925,1.902,5.606,.494,.178-.149,.344-.315,.494-.494,.143-.17,.353-.268,.575-.268h.002c.223,0,.434,.1,.575,.271,.753,.908,1.885,1.384,3.044,1.42h.004c.413,0,.748,.333,.75,.746,.002,.414-.332,.752-.746,.754h-.029Z" fill="#000" data-color="color-2"></path><path d="M16.225,6.192c-1.341,0-2.614-.489-3.6-1.366-.993,.883-2.296,1.353-3.629,1.366h-.012c-1.341,0-2.619-.491-3.609-1.368-.99,.877-2.269,1.368-3.613,1.368h-.014c-.414,0-.749-.337-.748-.752,0-.414,.336-.748,.75-.748,.002,0,.007,0,.012,0,1.177,0,2.283-.518,3.037-1.422,.285-.341,.867-.342,1.152,0,.754,.904,1.861,1.422,3.039,1.422h.029c1.178,0,2.279-.517,3.028-1.42,.284-.344,.87-.344,1.154,0,.75,.903,1.851,1.42,3.023,1.42,.009,0,.02,0,.025,0,.413,0,.748,.333,.75,.746,.002,.414-.332,.752-.746,.754h-.029Z" fill="#000"></path></svg>