<svg xmlns="http://www.w3.org/2000/svg" xmlns:xlink="http://www.w3.org/1999/xlink" x="0px" y="0px" width="24px" height="24px" viewBox="0 0 24 24"> <path d="M12.0001 13.0001V3.5C12.0001 2.67157 12.6716 2 13.5001 2C14.3285 2 15.0001 2.67157 15.0001 3.5V9L20.5877 10.3476C22.1135 10.7156 23.0978 12.1974 22.8453 13.7466L21.5 22.0001H12V20.0001C12 19.351 11.7895 18.7194 11.4 18.2001L9.40003 15.5333C9.1404 15.1871 9.00006 14.7661 9.00006 14.3334V11.0001C9.00006 9.89555 9.89549 9.00011 11.0001 9.00011H11.5001" stroke="black" stroke-width="2" stroke-miterlimit="2" stroke-linecap="square" fill="none"></path> <path d="M4.5 10L4.5 2L4.5 2.5" stroke="#000" stroke-width="2" stroke-miterlimit="10" stroke-linecap="square" data-color="color-2" fill="none"></path> <path d="M1.49999 4.99996L4.49998 2L7.5 5" stroke="#000" stroke-width="2" stroke-miterlimit="10" stroke-linecap="square" data-color="color-2" fill="none"></path> </svg>