<svg xmlns="http://www.w3.org/2000/svg" xmlns:xlink="http://www.w3.org/1999/xlink" x="0px" y="0px" width="24px" height="24px" viewBox="0 0 24 24"> <path d="M9.5 16.0001V6.5C9.5 5.67157 10.1716 5 11 5C11.8284 5 12.5 5.67157 12.5 6.5V12L17.9592 13.3166C19.5372 13.6972 20.5263 15.2638 20.1913 16.8521L19 22.5M9.49994 23.0001C9.49994 22.351 9.28943 21.7194 8.89998 21.2001L6.89997 18.5333C6.64035 18.1871 6.5 17.7661 6.5 17.3334V14.0001C6.5 12.8955 7.39543 12.0001 8.5 12.0001H9" stroke="black" stroke-width="2" stroke-miterlimit="2" stroke-linecap="square" fill="none"></path> <path d="M11 1V1.01" stroke="#000" stroke-width="2" stroke-linecap="square" data-color="color-2" fill="none"></path> <path d="M18 7L16.5 7" stroke="#000" stroke-width="2" stroke-linecap="square" data-color="color-2" fill="none"></path> <path d="M4 7L5.49999 7" stroke="#000" stroke-width="2" stroke-linecap="square" data-color="color-2" fill="none"></path> <path d="M6 2L6.76234 2.76943" stroke="#000" stroke-width="2" stroke-linecap="square" data-color="color-2" fill="none"></path> <path d="M16 2L15.2406 2.76236" stroke="#000" stroke-width="2" stroke-linecap="square" data-color="color-2" fill="none"></path> </svg>