<svg xmlns="http://www.w3.org/2000/svg" xmlns:xlink="http://www.w3.org/1999/xlink" x="0px" y="0px" width="32px" height="32px" viewBox="0 0 32 32"> <path d="M19.1816 14.1994L24.9426 4.22082C25.4993 3.25667 26.7361 2.93265 27.694 3.50003C28.6368 4.05852 28.9547 5.27176 28.4067 6.2208L24.79 12.4852L29.4235 17.0801C31.1891 18.8311 31.3998 21.6135 29.9178 23.6103L24.701 30.6394L13.8756 24.3894L14.3291 23.604C14.6754 23.0042 14.8035 22.3032 14.6917 21.6197L13.9479 17.0726C13.7989 16.1613 13.9697 15.2265 14.4313 14.4269L16.1452 11.4584C16.8816 10.183 18.5125 9.74596 19.7879 10.4823L20.771 11.0265" stroke="black" stroke-width="2" stroke-miterlimit="2" stroke-linecap="square" fill="none"></path> <path d="M2.70372 8.60508L2.58818 8.71744C6.19568 5.18094 11.1373 3.00031 16.5882 3.00031C18.0211 3.00031 19.4189 3.15101 20.7665 3.43742" stroke="#000" stroke-width="2" stroke-miterlimit="10" stroke-linecap="square" data-color="color-2" fill="none"></path> <path d="M3.61763 2.62231L3.2941 3.82972L2 8.65936L6.82964 9.95344L8.03704 10.277" stroke="#000" stroke-width="2" stroke-miterlimit="10" stroke-linecap="square" data-color="color-2" fill="none"></path> </svg>