<svg xmlns="http://www.w3.org/2000/svg" xmlns:xlink="http://www.w3.org/1999/xlink" x="0px" y="0px" width="32px" height="32px" viewBox="0 0 32 32"> <path d="M24.0001 15C27.8661 15 31.0001 11.866 31.0001 8C31.0001 4.13401 27.8661 1 24.0001 1C22.0928 1 20.3636 1.76281 19.1011 3" stroke="black" stroke-width="2" stroke-linecap="square" fill="none"></path> <path d="M8.00006 20.9914L8.00001 8.99989C8.00001 7.88659 8.9091 6.98757 10.0223 7C11.1181 7.01223 12 7.90401 12 8.99986L12.0001 15.7028L19.2698 17.4512C21.7359 18.0443 23.3671 20.39 23.0649 22.9083L22.0949 30.9914H8.09497V30.5623C8.09497 29.8698 7.85538 29.1986 7.41684 28.6626L4.90417 25.0965C4.35167 24.3464 4 23.487 4 22.5636V19.3249C4 17.8522 5.19391 16.6583 6.66667 16.6583H7.5" stroke="black" stroke-width="2" stroke-miterlimit="2" stroke-linecap="square" fill="none"></path> <path d="M16 12.6076C16.6348 11.554 17 10.3197 17 9C17 5.13401 13.866 2 10 2C6.13401 2 3 5.13401 3 9C3 10.3197 3.36518 11.554 4 12.6076" stroke="#000" stroke-width="2" stroke-linecap="square" data-color="color-2" fill="none"></path> <path d="M24 5V8L27 10" stroke="black" stroke-width="2" stroke-miterlimit="10" stroke-linecap="square" fill="none"></path> </svg>