<svg xmlns="http://www.w3.org/2000/svg" xmlns:xlink="http://www.w3.org/1999/xlink" x="0px" y="0px" width="32px" height="32px" viewBox="0 0 32 32"> <path d="M24 13L24 29" stroke="#000" stroke-width="2" stroke-miterlimit="10" data-color="color-2" data-cap="butt" fill="none"></path> <path d="M8 13L8 29" stroke="#000" stroke-width="2" stroke-miterlimit="10" data-color="color-2" data-cap="butt" fill="none"></path> <path d="M18.9999 24L24 29L29 24" stroke="#000" stroke-width="2" stroke-miterlimit="10" stroke-linecap="square" data-color="color-2" fill="none"></path> <path d="M2.99994 24L7.99999 29L13 24" stroke="#000" stroke-width="2" stroke-miterlimit="10" stroke-linecap="square" data-color="color-2" fill="none"></path> <path d="M8 13C5.23858 13 3 10.7614 3 8C3 5.23858 5.23858 3 8 3C10.7614 3 13 5.23858 13 8C13 10.7614 10.7614 13 8 13Z" stroke="black" stroke-width="2" data-cap="butt" fill="none"></path> <path d="M24 13C21.2386 13 19 10.7614 19 8C19 5.23858 21.2386 3 24 3C26.7614 3 29 5.23858 29 8C29 10.7614 26.7614 13 24 13Z" stroke="black" stroke-width="2" data-cap="butt" fill="none"></path> </svg>