<svg xmlns="http://www.w3.org/2000/svg" xmlns:xlink="http://www.w3.org/1999/xlink" x="0px" y="0px" width="18px" height="18px" viewBox="0 0 18 18"><path d="M9 1.75C4.996 1.75 1.75 4.996 1.75 9C1.75 10.319 2.108 11.552 2.723 12.617C3.153 13.423 2.67 15.329 1.75 16.25C3 16.318 4.647 15.753 5.383 15.277C5.872 15.559 6.647 15.933 7.662 16.125C8.095 16.207 8.543 16.25 9 16.25C13.004 16.25 16.25 13.004 16.25 9C16.25 4.996 13.004 1.75 9 1.75Z" fill="#000" fill-opacity="0.3" data-color="color-2" data-stroke="none"></path> <path d="M9 1.75C4.996 1.75 1.75 4.996 1.75 9C1.75 10.319 2.108 11.552 2.723 12.617C3.153 13.423 2.67 15.329 1.75 16.25C3 16.318 4.647 15.753 5.383 15.277C5.872 15.559 6.647 15.933 7.662 16.125C8.095 16.207 8.543 16.25 9 16.25C13.004 16.25 16.25 13.004 16.25 9C16.25 4.996 13.004 1.75 9 1.75Z" stroke="black" stroke-width="1.5" stroke-linecap="round" stroke-linejoin="round" fill="none"></path> <path d="M6 10C6.55228 10 7 9.55228 7 9C7 8.44772 6.55228 8 6 8C5.44772 8 5 8.44772 5 9C5 9.55228 5.44772 10 6 10Z" fill="black" data-stroke="none"></path> <path d="M12 10C12.5523 10 13 9.55228 13 9C13 8.44772 12.5523 8 12 8C11.4477 8 11 8.44772 11 9C11 9.55228 11.4477 10 12 10Z" fill="black" data-stroke="none"></path> <path d="M10.871 10.905C10.772 10.806 10.635 10.762 10.495 10.783C9.50599 10.937 8.48499 10.937 7.49999 10.783C7.36199 10.762 7.22799 10.806 7.13099 10.902C7.03199 11.001 6.98399 11.145 7.00599 11.288C7.15499 12.264 8.01199 13 9.00099 13C9.98999 13 10.848 12.263 10.996 11.286C11.017 11.147 10.971 11.004 10.872 10.906L10.871 10.905Z" fill="black" data-stroke="none"></path></svg>