<svg xmlns="http://www.w3.org/2000/svg" xmlns:xlink="http://www.w3.org/1999/xlink" x="0px" y="0px" width="18px" height="18px" viewBox="0 0 18 18"><path fill-rule="evenodd" clip-rule="evenodd" d="M2 4.25C2 3.00726 3.00792 2 4.25 2H5.75C6.99208 2 8 3.00726 8 4.25V13.75C8 14.9927 6.99208 16 5.75 16H4.25C3.00792 16 2 14.9927 2 13.75V4.25Z" fill="black"></path> <path fill-rule="evenodd" clip-rule="evenodd" d="M10 10.25C10 9.00726 11.0079 8 12.25 8H13.75C14.9921 8 16 9.00726 16 10.25V13.75C16 14.9927 14.9921 16 13.75 16H12.25C11.0079 16 10 14.9927 10 13.75V10.25Z" fill="#000" fill-opacity="0.4" data-color="color-2"></path></svg>