<svg xmlns="http://www.w3.org/2000/svg" xmlns:xlink="http://www.w3.org/1999/xlink" x="0px" y="0px" width="24px" height="24px" viewBox="0 0 24 24"> <path fill-rule="evenodd" clip-rule="evenodd" d="M2 18.5H1V5C1 3.34315 2.34315 2 4 2H20C21.6569 2 23 3.34315 23 5V18.5H22L20 16H3L2 18.5ZM8.99 8.5H11V10.5H8.99V8.5ZM5.00001 8.5V10.5H7.01001V8.5H5.00001ZM18.9142 8L17.4142 9.5L18.9142 11L17.5 12.4142L16 10.9142L14.5 12.4142L13.0858 11L14.5858 9.5L13.0858 8L14.5 6.58579L16 8.08579L17.5 6.58579L18.9142 8Z" fill="black"></path> <path fill-rule="evenodd" clip-rule="evenodd" d="M4.5 17C3.67157 17 3 17.6716 3 18.5C3 19.3284 3.67157 20 4.5 20H5V17H4.5ZM7 17V22H4.5C2.567 22 1 20.433 1 18.5C1 16.567 2.567 15 4.5 15H19.5C21.433 15 23 16.567 23 18.5C23 20.433 21.433 22 19.5 22H17L17 17H7ZM19 17L19 20H19.5C20.3284 20 21 19.3284 21 18.5C21 17.6716 20.3284 17 19.5 17H19Z" fill="black"></path> </svg>