<svg xmlns="http://www.w3.org/2000/svg" xmlns:xlink="http://www.w3.org/1999/xlink" x="0px" y="0px" width="24px" height="24px" viewBox="0 0 24 24"><path d="M16.5117 18.8837L20.0943 20.0943L18.8837 16.5117L17.2608 17.2608L16.5117 18.8837Z" fill="black"></path> <path fill-rule="evenodd" clip-rule="evenodd" d="M8.2465 8.2465L12.0001 0.11377L15.7536 8.2465L23.8864 12.0001L15.7536 15.7536L12.0001 23.8864L8.2465 15.7536L0.11377 12.0001L8.2465 8.2465ZM12.0001 10.0001C10.8955 10.0001 10.0001 10.8955 10.0001 12.0001C10.0001 13.1046 10.8955 14.0001 12.0001 14.0001C13.1046 14.0001 14.0001 13.1046 14.0001 12.0001C14.0001 10.8955 13.1046 10.0001 12.0001 10.0001Z" fill="#000" data-color="color-2"></path> <path d="M18.8838 7.48834L20.0943 3.90576L16.5117 5.11626L17.2608 6.73929L18.8838 7.48834Z" fill="black"></path> <path d="M7.48841 5.1163L3.90576 3.90576L5.11632 7.48838L6.73933 6.7393L7.48841 5.1163Z" fill="black"></path> <path d="M5.11632 16.5117L3.90576 20.0944L7.48842 18.8838L6.73936 17.2608L5.11632 16.5117Z" fill="black"></path> </svg>