<svg xmlns="http://www.w3.org/2000/svg" xmlns:xlink="http://www.w3.org/1999/xlink" x="0px" y="0px" width="24px" height="24px" viewBox="0 0 24 24"> <path fill-rule="evenodd" clip-rule="evenodd" d="M16 0.233887L23.9437 5.00008L16 9.76627V0.233887Z" fill="black"></path> <path fill-rule="evenodd" clip-rule="evenodd" d="M1 19C1 16.7909 2.79086 15 5 15C7.20914 15 9 16.7909 9 19C9 21.2091 7.20914 23 5 23C2.79086 23 1 21.2091 1 19Z" fill="black"></path> <path d="M8.67426 4H14V6H11.3257L15.3257 20H10.917C10.9716 19.6748 11 19.3407 11 19C11 18.6593 10.9716 18.3252 10.917 18H12.6743L8.67426 4Z" fill="#000" data-color="color-2"></path> </svg>