<svg xmlns="http://www.w3.org/2000/svg" xmlns:xlink="http://www.w3.org/1999/xlink" x="0px" y="0px" width="24px" height="24px" viewBox="0 0 24 24"> <path fill-rule="evenodd" clip-rule="evenodd" d="M1 15H9V23H1V15Z" fill="black"></path> <path fill-rule="evenodd" clip-rule="evenodd" d="M0.5 5C0.5 2.51472 2.51472 0.5 5 0.5C7.48528 0.5 9.5 2.51472 9.5 5C9.5 7.48528 7.48528 9.5 5 9.5C2.51472 9.5 0.5 7.48528 0.5 5Z" fill="black"></path> <path fill-rule="evenodd" clip-rule="evenodd" d="M11.5 4H20C21.6569 4 23 5.34315 23 7V17C23 18.6569 21.6569 20 20 20H11V18H20C20.5523 18 21 17.5523 21 17V7C21 6.44772 20.5523 6 20 6H11.5V4Z" fill="#000" data-color="color-2"></path> </svg>