<svg xmlns="http://www.w3.org/2000/svg" xmlns:xlink="http://www.w3.org/1999/xlink" x="0px" y="0px" width="24px" height="24px" viewBox="0 0 24 24"> <path fill-rule="evenodd" clip-rule="evenodd" d="M7 16V21H5V16H7Z" fill="black"></path> <path fill-rule="evenodd" clip-rule="evenodd" d="M7 2V3H5V2H7Z" fill="black"></path> <path fill-rule="evenodd" clip-rule="evenodd" d="M19 16V21H17V16H19Z" fill="black"></path> <path fill-rule="evenodd" clip-rule="evenodd" d="M19 2V3H17V2H19Z" fill="black"></path> <path fill-rule="evenodd" clip-rule="evenodd" d="M2 20H10V22H2V20Z" fill="black"></path> <path fill-rule="evenodd" clip-rule="evenodd" d="M14 20H22V22H14V20Z" fill="black"></path> <path fill-rule="evenodd" clip-rule="evenodd" d="M1 4V15H23V4H1ZM7.30049 13H9.58841L5.6995 6H3.41158L7.30049 13ZM8.91157 6L12.8005 13H15.0884L11.1995 6H8.91157ZM14.5587 6L18.4476 13H20.7355L16.8466 6H14.5587Z" fill="#000" data-color="color-2"></path> </svg>