<svg xmlns="http://www.w3.org/2000/svg" xmlns:xlink="http://www.w3.org/1999/xlink" x="0px" y="0px" width="32px" height="32px" viewBox="0 0 32 32"> <path fill-rule="evenodd" clip-rule="evenodd" d="M15 30H17V26H15V30Z" fill="black"></path> <path fill-rule="evenodd" clip-rule="evenodd" d="M15 2H17V6H15V2Z" fill="black"></path> <path fill-rule="evenodd" clip-rule="evenodd" d="M2 15L2 17L6 17L6 15L2 15Z" fill="black"></path> <path fill-rule="evenodd" clip-rule="evenodd" d="M30 15L30 17L26 17L26 15L30 15Z" fill="black"></path> <path d="M19.1991 20.6133L8.59668 23.4034L11.3868 12.801L19.1991 20.6133Z" fill="#000" data-color="color-2"></path> <path fill-rule="evenodd" clip-rule="evenodd" d="M16 3C8.8203 3 3 8.8203 3 16C3 23.1797 8.8203 29 16 29C23.1797 29 29 23.1797 29 16C29 8.8203 23.1797 3 16 3ZM1 16C1 7.71573 7.71573 1 16 1C24.2843 1 31 7.71573 31 16C31 24.2843 24.2843 31 16 31C7.71573 31 1 24.2843 1 16Z" fill="black"></path> <path d="M20.6132 19.1991L23.4034 8.59668L12.801 11.3868L20.6132 19.1991Z" fill="#000" data-color="color-2"></path> </svg>