<svg xmlns="http://www.w3.org/2000/svg" xmlns:xlink="http://www.w3.org/1999/xlink" x="0px" y="0px" width="32px" height="32px" viewBox="0 0 32 32"> <path fill-rule="evenodd" clip-rule="evenodd" d="M1 16C1 7.71573 7.71573 1 16 1C24.2843 1 31 7.71573 31 16C31 24.2843 24.2843 31 16 31C7.71573 31 1 24.2843 1 16ZM23 19V17H9V19H13V22C13 23.6569 14.3431 25 16 25C17.6569 25 19 23.6569 19 22V19H23ZM23 12H18V14H23V12ZM11 11C9.89543 11 9 11.8954 9 13C9 14.1046 9.89543 15 11 15C12.1046 15 13 14.1046 13 13C13 11.8954 12.1046 11 11 11Z" fill="black"></path> </svg>