<svg xmlns="http://www.w3.org/2000/svg" xmlns:xlink="http://www.w3.org/1999/xlink" x="0px" y="0px" width="48px" height="48px" viewBox="0 0 48 48"> <path fill-rule="evenodd" clip-rule="evenodd" d="M24 2C11.8497 2 2 11.8497 2 24C2 36.1503 11.8497 46 24 46C36.1503 46 46 36.1503 46 24C46 11.8497 36.1503 2 24 2ZM32 15C30.3431 15 29 16.3431 29 18C29 19.6569 30.3431 21 32 21C33.6569 21 35 19.6569 35 18C35 16.3431 33.6569 15 32 15ZM13 18C13 16.3431 14.3431 15 16 15C17.6569 15 19 16.3431 19 18C19 19.6569 17.6569 21 16 21C14.3431 21 13 19.6569 13 18ZM14.6567 35.271L11.7061 34.729C12.775 28.9096 17.871 24.5 24 24.5C30.1291 24.5 35.225 28.9096 36.294 34.729L33.3433 35.271C32.5312 30.8499 28.6553 27.5 24 27.5C19.3448 27.5 15.4688 30.8499 14.6567 35.271Z" fill="black"></path> </svg>