<svg xmlns="http://www.w3.org/2000/svg" xmlns:xlink="http://www.w3.org/1999/xlink" x="0px" y="0px" width="24px" height="24px" viewBox="0 0 24 24"> <path fill-rule="evenodd" clip-rule="evenodd" d="M10 6H18V11H10V6Z" fill="#000" data-color="color-2"></path> <path fill-rule="evenodd" clip-rule="evenodd" d="M6 14H14V19H6V14Z" fill="#000" data-color="color-2"></path> <path fill-rule="evenodd" clip-rule="evenodd" d="M21 12H3V10H21V12Z" fill="black"></path> <path fill-rule="evenodd" clip-rule="evenodd" d="M21 20H3V18H21V20Z" fill="black"></path> <path fill-rule="evenodd" clip-rule="evenodd" d="M2 22L2 5C2 3.34315 3.34315 2 5 2L19 2C20.6569 2 22 3.34315 22 5L22 22L20 22L20 5C20 4.44772 19.5523 4 19 4L5 4C4.44772 4 4 4.44772 4 5L4 22L2 22Z" fill="black"></path> </svg>