<svg xmlns="http://www.w3.org/2000/svg" xmlns:xlink="http://www.w3.org/1999/xlink" x="0px" y="0px" width="24px" height="24px" viewBox="0 0 24 24"> <path fill-rule="evenodd" clip-rule="evenodd" d="M13 2V19H11V2H13Z" fill="#000" data-color="color-2"></path> <path fill-rule="evenodd" clip-rule="evenodd" d="M20 14H4V12H20V14Z" fill="black"></path> <path fill-rule="evenodd" clip-rule="evenodd" d="M20 19H4V17H20V19Z" fill="black"></path> <path fill-rule="evenodd" clip-rule="evenodd" d="M20 9H4V7H20V9Z" fill="black"></path> <path fill-rule="evenodd" clip-rule="evenodd" d="M3 22L3 5C3 3.34315 4.34315 2 6 2L18 2C19.6569 2 21 3.34315 21 5L21 22L19 22L19 5C19 4.44772 18.5523 4 18 4L6 4C5.44772 4 5 4.44771 5 5L5 22L3 22Z" fill="black"></path> </svg>