<svg xmlns="http://www.w3.org/2000/svg" xmlns:xlink="http://www.w3.org/1999/xlink" x="0px" y="0px" width="32px" height="32px" viewBox="0 0 32 32"> <path fill-rule="evenodd" clip-rule="evenodd" d="M17 8V11.5H15V8H17Z" fill="#000" data-color="color-2"></path> <path fill-rule="evenodd" clip-rule="evenodd" d="M4 21H6L6 8H26L26 21H28L28 5C28 2.79086 26.2091 1 24 1H8C5.79086 1 4 2.79086 4 5L4 21Z" fill="black"></path> <path fill-rule="evenodd" clip-rule="evenodd" d="M4 23H15V31L8.00001 31C5.79087 31 4.00001 29.2091 4.00001 27L4 23ZM11 27V25H8V27H11Z" fill="#000" data-color="color-2"></path> <path fill-rule="evenodd" clip-rule="evenodd" d="M24 31L17 31V23H28L28 27C28 29.2091 26.2091 31 24 31ZM24 27V25H21V27H24Z" fill="#000" data-color="color-2"></path> <path fill-rule="evenodd" clip-rule="evenodd" d="M16 9.82076L23 14.1958V16H9V14.1958L16 9.82076Z" fill="#000" data-color="color-2"></path> </svg>