<svg xmlns="http://www.w3.org/2000/svg" xmlns:xlink="http://www.w3.org/1999/xlink" x="0px" y="0px" width="32px" height="32px" viewBox="0 0 32 32"> <path fill-rule="evenodd" clip-rule="evenodd" d="M9 2C11.2091 2 13 3.79086 13 6L13 26C13 28.2091 11.2091 30 9 30L6 30C3.79086 30 2 28.2091 2 26L2 6C2 3.79086 3.79086 2 6 2L9 2Z" fill="black"></path> <path fill-rule="evenodd" clip-rule="evenodd" d="M13.4722 29H26C28.2091 29 30 27.2091 30 25L30 7C30 4.79086 28.2091 3 26 3H13.4722C14.4222 4.06151 15 5.46329 15 7L15 25C15 26.5367 14.4222 27.9385 13.4722 29ZM27 7V14H18L18 7L27 7ZM27 20V18H23V20H27ZM27 24H23V22H27V24ZM19.5 17.5C18.6716 17.5 18 18.1716 18 19C18 19.8284 18.6716 20.5 19.5 20.5C20.3284 20.5 21 19.8284 21 19C21 18.1716 20.3284 17.5 19.5 17.5Z" fill="#000" data-color="color-2"></path> </svg>