<svg xmlns="http://www.w3.org/2000/svg" xmlns:xlink="http://www.w3.org/1999/xlink" x="0px" y="0px" width="32px" height="32px" viewBox="0 0 32 32"> <path fill-rule="evenodd" clip-rule="evenodd" d="M24 10V14H22V10H24Z" fill="black"></path> <path d="M14 13H2V15H6V17H2V19H6V21H2V23H6V25H2V30H14V13Z" fill="black"></path> <path fill-rule="evenodd" clip-rule="evenodd" d="M30 18L30 20C30 23.866 26.866 27 23 27C19.134 27 16 23.866 16 20L16 18C16 16.8954 16.8954 16 18 16L28 16C29.1046 16 30 16.8954 30 18Z" fill="#000" data-color="color-2"></path> <path fill-rule="evenodd" clip-rule="evenodd" d="M16 28H30V30H16V28Z" fill="#000" data-color="color-2"></path> <path fill-rule="evenodd" clip-rule="evenodd" d="M2 2H24C27.3137 2 30 4.68629 30 8V11H2V2Z" fill="black"></path> </svg>