<svg xmlns="http://www.w3.org/2000/svg" xmlns:xlink="http://www.w3.org/1999/xlink" x="0px" y="0px" width="32px" height="32px" viewBox="0 0 32 32"> <path fill-rule="evenodd" clip-rule="evenodd" d="M3 15L3 29L0.999999 29L1 15L3 15Z" fill="black"></path> <path fill-rule="evenodd" clip-rule="evenodd" d="M31 15L31 29L29 29L29 15L31 15Z" fill="black"></path> <path d="M27 3C29.2091 3 31 4.79086 31 7L31 9L1 9L1 7C1 4.79086 2.79086 3 5 3L27 3Z" fill="#000" data-color="color-2"></path> <path fill-rule="evenodd" clip-rule="evenodd" d="M1 11L15 11V19L1 19V11ZM10 16V14H6V16H10Z" fill="black"></path> <path fill-rule="evenodd" clip-rule="evenodd" d="M17 11L31 11V19L17 19V11ZM26 16V14H22V16H26Z" fill="black"></path> </svg>