<svg xmlns="http://www.w3.org/2000/svg" xmlns:xlink="http://www.w3.org/1999/xlink" x="0px" y="0px" width="48px" height="48px" viewBox="0 0 48 48"> <path d="M26 34V40L39 40L39 34H26Z" fill="#000" data-color="color-2"></path> <path d="M26 27L35 27V31H26V27Z" fill="#000" data-color="color-2"></path> <path d="M22 17V23L9 23L9 17H22Z" fill="#000" data-color="color-2"></path> <path d="M22 10L13 10V14H22V10Z" fill="#000" data-color="color-2"></path> <path d="M30.5 10H25V23H39V10H33.5V15H30.5V10Z" fill="#000" data-color="color-2"></path> <path d="M17.5 27H23V40H9V27H14.5V32H17.5V27Z" fill="#000" data-color="color-2"></path> <path fill-rule="evenodd" clip-rule="evenodd" d="M43 24H5V21H43V24Z" fill="black"></path> <path fill-rule="evenodd" clip-rule="evenodd" d="M43 41H5V38H43V41Z" fill="black"></path> <path fill-rule="evenodd" clip-rule="evenodd" d="M41 44L41 10C41 8.34314 39.6569 7 38 7L10 6.99999C8.34315 6.99999 7 8.34314 7 9.99999L7 44L4 44L4 9.99999C4 6.68628 6.68629 3.99999 10 3.99999L38 4C41.3137 4 44 6.68629 44 10L44 44L41 44Z" fill="black"></path> </svg>