<svg xmlns="http://www.w3.org/2000/svg" xmlns:xlink="http://www.w3.org/1999/xlink" x="0px" y="0px" width="48px" height="48px" viewBox="0 0 48 48"> <path fill-rule="evenodd" clip-rule="evenodd" d="M36.4886 40.325L39.0991 45.5733L41.7852 44.2373L39.1747 38.989L36.4886 40.325Z" fill="#000" data-color="color-2"></path> <path fill-rule="evenodd" clip-rule="evenodd" d="M11.504 40.3047L8.94418 45.5842L6.24475 44.2754L8.80459 38.9958L11.504 40.3047Z" fill="#000" data-color="color-2"></path> <path fill-rule="evenodd" clip-rule="evenodd" d="M17.5 7C15.567 7 14 8.567 14 10.5V24.5H11V10.5C11 6.91015 13.9101 4 17.5 4C21.0899 4 24 6.91015 24 10.5V11H21V10.5C21 8.567 19.433 7 17.5 7Z" fill="#000" data-color="color-2"></path> <path fill-rule="evenodd" clip-rule="evenodd" d="M46 27L46 29C46 37.2843 39.2843 44 31 44L17 44C8.71573 44 2 37.2843 2 29L2 27C2 25.3431 3.34315 24 5 24L43 24C44.6569 24 46 25.3432 46 27Z" fill="black"></path> <path fill-rule="evenodd" clip-rule="evenodd" d="M23.4545 9C26.5172 9 29 11.4828 29 14.5455C29 15.3488 28.3488 16 27.5455 16L18.4545 16C17.6512 16 17 15.3488 17 14.5455C17 11.4828 19.4828 9 22.5455 9L23.4545 9Z" fill="black"></path> </svg>