<svg xmlns="http://www.w3.org/2000/svg" xmlns:xlink="http://www.w3.org/1999/xlink" x="0px" y="0px" width="18px" height="18px" viewBox="0 0 18 18"><path d="M15.75 15.75L11.6386 11.6386" stroke="black" stroke-width="1.5" stroke-linecap="round" stroke-linejoin="round" fill="none"></path> <path d="M7.75 2.25C4.7125 2.25 2.25 4.7125 2.25 7.75C2.25 10.7875 4.7125 13.25 7.75 13.25C9.2685 13.25 10.6434 12.6346 11.6386 11.6395" stroke="black" stroke-width="1.5" stroke-linecap="round" stroke-linejoin="round" fill="none"></path> <path d="M14.75 8.25H15.183C15.9711 8.25 16.4495 7.3808 16.0278 6.7149L13.0948 2.0839C12.7022 1.464 11.7978 1.464 11.4052 2.0839L8.47223 6.7149C8.05053 7.3807 8.52894 8.25 9.31704 8.25H9.75003" stroke="#000" stroke-width="1.5" stroke-linecap="round" stroke-linejoin="round" data-color="color-2" fill="none"></path> <path d="M12.25 4.75V6.75" stroke="#000" stroke-width="1.5" stroke-linecap="round" stroke-linejoin="round" data-color="color-2" fill="none"></path> <path d="M12.25 9.5C12.6642 9.5 13 9.16421 13 8.75C13 8.33579 12.6642 8 12.25 8C11.8358 8 11.5 8.33579 11.5 8.75C11.5 9.16421 11.8358 9.5 12.25 9.5Z" fill="#000" data-color="color-2" data-stroke="none"></path></svg>