<svg xmlns="http://www.w3.org/2000/svg" xmlns:xlink="http://www.w3.org/1999/xlink" x="0px" y="0px" width="18px" height="18px" viewBox="0 0 18 18"><path d="M15.25,10.5c-.414,0-.75-.336-.75-.75v-.75c0-3.033-2.467-5.5-5.5-5.5S3.5,5.967,3.5,9v.75c0,.414-.336,.75-.75,.75s-.75-.336-.75-.75v-.75c0-3.86,3.14-7,7-7s7,3.14,7,7v.75c0,.414-.336,.75-.75,.75Z" fill="#000" data-color="color-2"></path><path d="M5.25,16h-1.5c-.965,0-1.75-.785-1.75-1.75v-4.5c0-.414,.336-.75,.75-.75h2.5c.965,0,1.75,.785,1.75,1.75v3.5c0,.965-.785,1.75-1.75,1.75Z" fill="#000"></path><path d="M14.25,16h-1.5c-.965,0-1.75-.785-1.75-1.75v-3.5c0-.965,.785-1.75,1.75-1.75h2.5c.414,0,.75,.336,.75,.75v4.5c0,.965-.785,1.75-1.75,1.75Z" fill="#000"></path></svg>