<svg xmlns="http://www.w3.org/2000/svg" xmlns:xlink="http://www.w3.org/1999/xlink" x="0px" y="0px" width="24px" height="24px" viewBox="0 0 24 24"> <path d="M4.20596 9C4.98062 5.42689 7.86068 2.63873 11.4819 2C10.7589 3.30225 10.3472 4.80122 10.3472 6.39637C10.3472 11.4051 14.4068 15.4655 19.4145 15.4655C19.9554 15.4655 20.4852 15.4181 21 15.3273C20.0916 16.9635 18.6918 18.2892 17 19.1049" stroke="black" stroke-width="2" stroke-miterlimit="10" stroke-linecap="square" stroke-linejoin="bevel" fill="none"></path> <path d="M19.85 5.15L18.5 2L17.15 5.15L14 6.5L17.15 7.85L18.5 11L19.85 7.85L23 6.5L19.85 5.15Z" fill="#000" data-color="color-2" data-cap="butt" data-stroke="none"></path> <path d="M1 17L9 17" stroke="#000" stroke-width="2" stroke-linecap="square" data-color="color-2" fill="none"></path> <path d="M9 21H13" stroke="#000" stroke-width="2" stroke-linecap="square" data-color="color-2" fill="none"></path> <path d="M3 13L5 13" stroke="#000" stroke-width="2" stroke-linecap="square" data-color="color-2" fill="none"></path> <path d="M4 21H5" stroke="#000" stroke-width="2" stroke-linecap="square" data-color="color-2" fill="none"></path> </svg>