<svg xmlns="http://www.w3.org/2000/svg" xmlns:xlink="http://www.w3.org/1999/xlink" x="0px" y="0px" width="24px" height="24px" viewBox="0 0 24 24"> <path d="M5.5 21H5C2.5 21 1 19.2091 1 17C1 15.2267 2.18182 13.7333 3.72727 13.36C3.90909 9.72 6.83732 7 10.4737 7C14.1101 7 17.0909 9.62667 17.3636 13.2667C19.3636 13.2667 21 14.9467 21 17C21 19.0533 19.5 21 17 21H16" stroke="black" stroke-width="2" stroke-miterlimit="10" stroke-linecap="square" fill="none"></path> <path d="M11.5 14L9 18H13L10.5 22" stroke="#000" stroke-width="2" stroke-linecap="square" data-color="color-2" fill="none"></path> <path d="M17 3V1" stroke="#000" stroke-width="2" stroke-linecap="square" data-color="color-2" fill="none"></path> <path d="M21 7L23 7" stroke="#000" stroke-width="2" stroke-linecap="square" data-color="color-2" fill="none"></path> <path d="M19.8284 4.1716L21.2426 2.75739" stroke="#000" stroke-width="2" stroke-linecap="square" data-color="color-2" fill="none"></path> <path d="M12.7574 2.75739L14.1716 4.1716L14.6199 3.78485C15.285 3.29171 16.1084 3.00003 17 3.00003C19.2091 3.00003 21 4.79089 21 7.00003C21 7.85088 20.7343 8.63969 20.2814 9.28803L19.8284 9.82845L21.2426 11.2427" stroke="#000" stroke-width="2" stroke-linecap="square" data-color="color-2" fill="none"></path> </svg>