<svg xmlns="http://www.w3.org/2000/svg" xmlns:xlink="http://www.w3.org/1999/xlink" x="0px" y="0px" width="48px" height="48px" viewBox="0 0 48 48"> <path d="M39.8665 29.8102C41.7609 31.1195 43 33.2904 43 35.75C43 39.7546 39.7173 43 35.6667 43H11C6.58133 43 3 39.4594 3 35.0909C3 31.6452 5.23333 28.7215 8.344 27.6379C8.45337 20.1773 14.5256 14.1432 22.0641 14.0025" stroke="black" stroke-width="2" stroke-miterlimit="10" stroke-linecap="square" fill="none"></path> <path d="M24 26C24 14.9543 32.9543 6 44 6" stroke="#000" stroke-width="2" stroke-miterlimit="10" stroke-linecap="square" data-color="color-2" fill="none"></path> <path d="M30 26C30 18.268 36.268 12 44 12" stroke="#000" stroke-width="2" stroke-miterlimit="10" stroke-linecap="square" data-color="color-2" fill="none"></path> <path d="M36 26C36 21.5817 39.5817 18 44 18" stroke="#000" stroke-width="2" stroke-miterlimit="10" stroke-linecap="square" data-color="color-2" fill="none"></path> </svg>