<svg xmlns="http://www.w3.org/2000/svg" xmlns:xlink="http://www.w3.org/1999/xlink" x="0px" y="0px" width="48px" height="48px" viewBox="0 0 48 48"> <path d="M33.253 43H35.6667C39.7173 43 43 39.7546 43 35.75C43 31.9563 40.052 28.8493 36.2987 28.5316C36.3107 28.301 36.3333 28.0742 36.3333 27.8409C36.3333 20.1968 30.0653 14 22.3333 14C14.6707 14 8.45467 20.0887 8.344 27.6379C5.23333 28.7215 3 31.6452 3 35.0909C3 39.4594 6.58133 43 11 43H12.7421" stroke="black" stroke-width="2" stroke-miterlimit="10" stroke-linecap="square" fill="none"></path> <path d="M23 29C26.492 31.7175 29 35.6667 29 38.8462C29 42.4712 26.3135 45 23 45C19.6865 45 17 42.4712 17 38.8462C17 35.6667 19.508 31.7175 23 29Z" stroke="#000" stroke-width="2" stroke-miterlimit="10" stroke-linecap="square" data-color="color-2" fill="none"></path> <path d="M34 3V2" stroke="#000" stroke-width="2" stroke-linecap="square" data-color="color-2" fill="none"></path> <path d="M45 14L46 14" stroke="#000" stroke-width="2" stroke-linecap="square" data-color="color-2" fill="none"></path> <path d="M26.2218 6.22183L25.5147 5.51472" stroke="#000" stroke-width="2" stroke-linecap="square" data-color="color-2" fill="none"></path> <path d="M42.4853 22.4853L41.7782 21.7782" stroke="#000" stroke-width="2" stroke-linecap="square" data-color="color-2" fill="none"></path> <path d="M41.7782 6.22183L42.4853 5.51472" stroke="#000" stroke-width="2" stroke-linecap="square" data-color="color-2" fill="none"></path> <path d="M38.9497 18.9498C41.6834 16.2161 41.6834 11.7839 38.9497 9.05026C36.2161 6.31659 31.7839 6.31659 29.0503 9.05026" stroke="#000" stroke-width="2" stroke-miterlimit="10" stroke-linecap="square" data-color="color-2" fill="none"></path> </svg>