<svg xmlns="http://www.w3.org/2000/svg" xmlns:xlink="http://www.w3.org/1999/xlink" x="0px" y="0px" width="48px" height="48px" viewBox="0 0 48 48"> <path d="M11.5315 27.6913C11.1856 26.5212 11 25.2823 11 24C11 16.8203 16.8203 11 24 11C31.1797 11 37 16.8203 37 24C37 25.2823 36.8144 26.5212 36.4685 27.6913" stroke="black" stroke-width="2" stroke-miterlimit="10" stroke-linecap="square" fill="none"></path> <path d="M24 26C30.1162 26 34.1701 31.2126 34.1701 36.6615H36.308C38.6106 36.6615 40.4772 38.5282 40.4772 40.8308C40.4772 43.1334 38.6106 45 36.308 45H11.6464C9.34383 45 7.4772 43.1334 7.4772 40.8308C7.4772 38.5282 9.34383 36.6615 11.6464 36.6615H13.7842C13.7842 31.2126 17.8838 26 24 26Z" stroke="#000" stroke-width="2" stroke-miterlimit="10" stroke-linecap="square" data-color="color-2" fill="none"></path> <path d="M24 2V5" stroke="black" stroke-width="2" stroke-linecap="square" fill="none"></path> <path d="M46 24L43 24" stroke="black" stroke-width="2" stroke-linecap="square" fill="none"></path> <path d="M5 24L2 24" stroke="black" stroke-width="2" stroke-linecap="square" fill="none"></path> <path d="M8.44366 8.44366L10.565 10.565" stroke="black" stroke-width="2" stroke-linecap="square" fill="none"></path> <path d="M39.5563 8.44366L37.435 10.565" stroke="black" stroke-width="2" stroke-linecap="square" fill="none"></path> </svg>