<svg xmlns="http://www.w3.org/2000/svg" xmlns:xlink="http://www.w3.org/1999/xlink" x="0px" y="0px" width="48px" height="48px" viewBox="0 0 48 48"> <path d="M36.3333 27.8409C36.3333 28.0742 36.3107 28.301 36.2987 28.5316C40.052 28.8493 43 31.9563 43 35.75C43 39.7546 39.7173 43 35.6667 43H11C6.58133 43 3 39.4594 3 35.0909C3 31.6452 5.23333 28.7215 8.344 27.6379C8.45467 20.0887 14.6707 14 22.3333 14C30.0653 14 36.3333 20.1968 36.3333 27.8409Z" stroke="black" stroke-width="2" stroke-miterlimit="10" stroke-linecap="square" fill="none"></path> <path d="M26.204 9.5C27.7602 6.80989 30.6687 5 34 5C38.9706 5 43 9.02944 43 14C43 16.6655 41.8412 19.0604 40 20.7083" stroke="#000" stroke-width="2" stroke-miterlimit="10" stroke-linecap="square" data-color="color-2" fill="none"></path> <path d="M13 38C13 36.4554 14.005 35.1447 15.4048 34.659C15.4546 31.2749 18.2518 28.5455 21.7 28.5455C24.1963 28.5455 26.3535 29.8089 27.3732 32" stroke="black" stroke-width="2" stroke-miterlimit="10" stroke-linecap="square" fill="none"></path> </svg>