<svg xmlns="http://www.w3.org/2000/svg" xmlns:xlink="http://www.w3.org/1999/xlink" x="0px" y="0px" width="48px" height="48px" viewBox="0 0 48 48"> <path d="M26 36.8471C32.2302 35.8851 37 30.4996 37 24C37 16.8203 31.1797 11 24 11C16.8203 11 11 16.8203 11 24C11 25.3956 11.2199 26.7399 11.627 28" stroke="black" stroke-width="2" stroke-miterlimit="10" stroke-linecap="square" fill="none"></path> <path d="M24 2V5" stroke="black" stroke-width="2" stroke-linecap="square" fill="none"></path> <path d="M46 24L43 24" stroke="black" stroke-width="2" stroke-linecap="square" fill="none"></path> <path d="M5 24L2 24" stroke="black" stroke-width="2" stroke-linecap="square" fill="none"></path> <path d="M8.44366 8.44366L10.565 10.565" stroke="black" stroke-width="2" stroke-linecap="square" fill="none"></path> <path d="M37.4351 37.4351L39.5564 39.5564" stroke="black" stroke-width="2" stroke-linecap="square" fill="none"></path> <path d="M39.5563 8.44366L37.435 10.565" stroke="black" stroke-width="2" stroke-linecap="square" fill="none"></path> <path d="M16 39H21" stroke="#000" stroke-width="2" stroke-linecap="square" data-color="color-2" fill="none"></path> <path d="M25 45H28" stroke="#000" stroke-width="2" stroke-linecap="square" data-color="color-2" fill="none"></path> <path d="M2 39H11" stroke="#000" stroke-width="2" stroke-linecap="square" data-color="color-2" fill="none"></path> <path d="M7 33H18" stroke="#000" stroke-width="2" stroke-linecap="square" data-color="color-2" fill="none"></path> <path d="M10 45H20" stroke="#000" stroke-width="2" stroke-linecap="square" data-color="color-2" fill="none"></path> </svg>