<svg xmlns="http://www.w3.org/2000/svg" xmlns:xlink="http://www.w3.org/1999/xlink" x="0px" y="0px" width="18px" height="18px" viewBox="0 0 18 18"><path d="M9.45799 2.528L15.412 13.994C15.622 14.398 15.244 14.857 14.807 14.727L8.99999 13.006L3.19299 14.727C2.75599 14.856 2.37799 14.398 2.58799 13.994L8.54199 2.528C8.73499 2.157 9.26499 2.157 9.45799 2.528Z" fill="#000" fill-opacity="0.3" data-color="color-2" data-stroke="none"></path> <path d="M9 8.614V13.007" stroke="black" stroke-width="1.5" stroke-linecap="round" stroke-linejoin="round" fill="none"></path> <path d="M9.45799 2.528L15.412 13.994C15.622 14.398 15.244 14.857 14.807 14.727L8.99999 13.006L3.19299 14.727C2.75599 14.856 2.37799 14.398 2.58799 13.994L8.54199 2.528C8.73499 2.157 9.26499 2.157 9.45799 2.528Z" stroke="black" stroke-width="1.5" stroke-linecap="round" stroke-linejoin="round" fill="none"></path></svg>