<svg xmlns="http://www.w3.org/2000/svg" xmlns:xlink="http://www.w3.org/1999/xlink" x="0px" y="0px" width="18px" height="18px" viewBox="0 0 18 18"><path d="M2.88299 6.935L15.182 2.542C15.545 2.412 15.912 2.725 15.842 3.104L13.646 14.964C13.579 15.327 13.154 15.495 12.857 15.275L2.75399 7.807C2.43199 7.569 2.50599 7.07 2.88299 6.935Z" fill="#000" fill-opacity="0.3" data-color="color-2" data-stroke="none"></path> <path d="M5.75 10.022V14.268C5.75 14.677 6.214 14.913 6.544 14.672L7.284 14.133" stroke="black" stroke-width="1.5" stroke-linecap="round" stroke-linejoin="round" fill="none"></path> <path d="M15.58 2.569L5.75 10.022" stroke="black" stroke-width="1.5" stroke-linecap="round" stroke-linejoin="round" fill="none"></path> <path d="M2.88299 6.935L15.182 2.542C15.545 2.412 15.912 2.725 15.842 3.104L13.646 14.964C13.579 15.327 13.154 15.495 12.857 15.275L2.75399 7.807C2.43199 7.569 2.50599 7.07 2.88299 6.935Z" stroke="black" stroke-width="1.5" stroke-linecap="round" stroke-linejoin="round" fill="none"></path></svg>