<svg xmlns="http://www.w3.org/2000/svg" xmlns:xlink="http://www.w3.org/1999/xlink" x="0px" y="0px" width="18px" height="18px" viewBox="0 0 18 18"><path d="M15.472 9.458L4.00499 15.412C3.60099 15.622 3.14199 15.244 3.27199 14.807L4.99299 9L3.27199 3.193C3.14299 2.756 3.60099 2.378 4.00499 2.588L15.471 8.542C15.842 8.735 15.842 9.266 15.471 9.459L15.472 9.458Z" fill="#000" fill-opacity="0.3" data-color="color-2" data-stroke="none"></path> <path d="M9.38601 9H4.99301" stroke="black" stroke-width="1.5" stroke-linecap="round" stroke-linejoin="round" fill="none"></path> <path d="M15.472 9.458L4.00499 15.412C3.60099 15.622 3.14199 15.244 3.27199 14.807L4.99299 9L3.27199 3.193C3.14299 2.756 3.60099 2.378 4.00499 2.588L15.471 8.542C15.842 8.735 15.842 9.266 15.471 9.459L15.472 9.458Z" stroke="black" stroke-width="1.5" stroke-linecap="round" stroke-linejoin="round" fill="none"></path></svg>