<svg xmlns="http://www.w3.org/2000/svg" xmlns:xlink="http://www.w3.org/1999/xlink" x="0px" y="0px" width="18px" height="18px" viewBox="0 0 18 18"><path d="M3.75 15.25C3.75 15.25 7.349 14.682 8.296 13.735C9.243 12.788 15.623 6.408 15.623 6.408C16.46 5.571 16.46 4.214 15.623 3.378C14.786 2.541 13.429 2.541 12.593 3.378C12.593 3.378 6.213 9.758 5.266 10.705C4.319 11.652 3.751 15.251 3.751 15.251L3.75 15.25Z" fill="#000" fill-opacity="0.3" data-color="color-2" data-stroke="none"></path> <path d="M3.75 15.25C3.75 15.25 7.349 14.682 8.296 13.735C9.243 12.788 15.623 6.408 15.623 6.408C16.46 5.571 16.46 4.214 15.623 3.378C14.786 2.541 13.429 2.541 12.593 3.378C12.593 3.378 6.213 9.758 5.266 10.705C4.319 11.652 3.751 15.251 3.751 15.251L3.75 15.25Z" stroke="black" stroke-width="1.5" stroke-linecap="round" stroke-linejoin="round" fill="none"></path> <path d="M8.25 2.75H1.75" stroke="black" stroke-width="1.5" stroke-linecap="round" stroke-linejoin="round" fill="none"></path> <path d="M4.25 6.25H1.75" stroke="black" stroke-width="1.5" stroke-linecap="round" stroke-linejoin="round" fill="none"></path></svg>