<svg xmlns="http://www.w3.org/2000/svg" xmlns:xlink="http://www.w3.org/1999/xlink" x="0px" y="0px" width="18px" height="18px" viewBox="0 0 18 18"><path d="M13.75 2.75H4.25C3.145 2.75 2.25 3.645 2.25 4.75V16.25L6 13.25H13.75C14.855 13.25 15.75 12.355 15.75 11.25V4.75C15.75 3.645 14.855 2.75 13.75 2.75Z" fill="#000" fill-opacity="0.3" data-color="color-2" data-stroke="none"></path> <path d="M13.75 2.75H4.25C3.145 2.75 2.25 3.645 2.25 4.75V16.25L6 13.25H13.75C14.855 13.25 15.75 12.355 15.75 11.25V4.75C15.75 3.645 14.855 2.75 13.75 2.75Z" stroke="black" stroke-width="1.5" stroke-linecap="round" stroke-linejoin="round" fill="none"></path> <path d="M5.75 8.75H7.75V10.25H5.75V8.75ZM5.75 8.75C5.75 6.957 6.348 6.168 7.424 5.75" stroke="black" stroke-width="1.5" stroke-linecap="round" stroke-linejoin="round" fill="none"></path> <path d="M10.25 8.75H12.25V10.25H10.25V8.75ZM10.25 8.75C10.25 6.957 10.848 6.168 11.924 5.75" stroke="black" stroke-width="1.5" stroke-linecap="round" stroke-linejoin="round" fill="none"></path></svg>