<svg xmlns="http://www.w3.org/2000/svg" xmlns:xlink="http://www.w3.org/1999/xlink" x="0px" y="0px" width="18px" height="18px" viewBox="0 0 18 18"><path d="M13.7959 15.2042L16.9571 12.043C17.3476 11.6525 17.3476 11.0193 16.9571 10.6288L16.3713 10.043C15.9808 9.6525 15.3476 9.6525 14.9571 10.043L11.7959 13.2042L11.0001 16.0001L13.7959 15.2042Z" fill="#000" fill-opacity="0.3" data-color="color-2" data-stroke="none"></path> <path d="M13.7959 15.2042L16.9571 12.043C17.3476 11.6525 17.3476 11.0193 16.9571 10.6288L16.3713 10.043C15.9808 9.6525 15.3476 9.6525 14.9571 10.043L11.7959 13.2042L11.0001 16.0001L13.7959 15.2042Z" stroke="black" stroke-width="1.5" stroke-linecap="round" stroke-linejoin="round" fill="none"></path> <path d="M4.25 2.75H13.75C14.855 2.75 15.75 3.645 15.75 4.75V7.50125C14.8899 7.47867 14.0225 7.79559 13.3661 8.45201L10.2049 11.6132C9.93398 11.8841 9.73672 12.2197 9.63184 12.5882L9.40234 13.25H6L2.25 16.25V4.75C2.25 3.645 3.145 2.75 4.25 2.75Z" fill="#000" fill-opacity="0.3" data-color="color-2" data-stroke="none"></path> <path d="M15.75 6.751V4.75C15.75 3.646 14.855 2.75 13.75 2.75H4.25C3.145 2.75 2.25 3.646 2.25 4.75V16.25L6 13.25H8.6638" stroke="black" stroke-width="1.5" stroke-linecap="round" stroke-linejoin="round" fill="none"></path></svg>