<svg xmlns="http://www.w3.org/2000/svg" xmlns:xlink="http://www.w3.org/1999/xlink" x="0px" y="0px" width="18px" height="18px" viewBox="0 0 18 18"><path fill-rule="evenodd" clip-rule="evenodd" d="M7.74997 14.25H15.25C15.8023 14.25 16.25 13.8023 16.25 13.25V8C16.25 6.34315 14.9069 5 13.25 5H6.55078C7.83926 5.51663 8.74997 6.77761 8.74997 8.25V13.25C8.74997 13.802 8.30197 14.25 7.74997 14.25Z" fill="#000" fill-opacity="0.3" data-color="color-2" data-stroke="none"></path> <path d="M14.374 5.14899C15.489 5.73399 16.25 6.90299 16.25 8.24999V13.25C16.25 13.802 15.802 14.25 15.25 14.25H7.75" stroke="black" stroke-width="1.5" stroke-linecap="round" stroke-linejoin="round" fill="none"></path> <path d="M5.25 4.75H11.25" stroke="black" stroke-width="1.5" stroke-linecap="round" stroke-linejoin="round" fill="none"></path> <path d="M5.25 4.75C7.182 4.75 8.75 6.318 8.75 8.25V13.25C8.75 13.802 8.302 14.25 7.75 14.25H2.75C2.198 14.25 1.75 13.802 1.75 13.25V8.25C1.75 6.318 3.318 4.75 5.25 4.75Z" stroke="black" stroke-width="1.5" stroke-linecap="round" stroke-linejoin="round" fill="none"></path> <path d="M8.75 14V16.25" stroke="black" stroke-width="1.5" stroke-linecap="round" stroke-linejoin="round" fill="none"></path> <path d="M5.25 8.25V9.75" stroke="black" stroke-width="1.5" stroke-linecap="round" stroke-linejoin="round" fill="none"></path> <path d="M14.25 0.75H11.25V2.25H14.25V0.75Z" fill="black" stroke="black" stroke-width="1.5" stroke-linecap="round" stroke-linejoin="round"></path> <path d="M11.25 6.25V2" stroke="black" stroke-width="1.5" stroke-linecap="round" stroke-linejoin="round" fill="none"></path></svg>