<svg xmlns="http://www.w3.org/2000/svg" xmlns:xlink="http://www.w3.org/1999/xlink" x="0px" y="0px" width="32px" height="32px" viewBox="0 0 32 32"> <path d="M17.1176 3C14.0388 3 10.3051 4.16307 7.32684 6.32741C4.33386 8.50241 2 11.7736 2 16C2 20.2264 4.33386 23.4976 7.32684 25.6726C10.3051 27.8369 14.0388 29 17.1176 29H17.8491L18.0707 28.3029C19.3232 24.3616 19.9755 20.2011 20 16.0058C20 11.8452 19.3303 7.66043 18.0707 3.69712L17.8491 3H17.1176Z" fill="black"></path> <path fill-rule="evenodd" clip-rule="evenodd" d="M23 15H30V17H23V15Z" fill="#000" data-color="color-2"></path> <path fill-rule="evenodd" clip-rule="evenodd" d="M23 7H30V9H23V7Z" fill="#000" data-color="color-2"></path> <path fill-rule="evenodd" clip-rule="evenodd" d="M23 23H30V25H23V23Z" fill="#000" data-color="color-2"></path> </svg>