<svg xmlns="http://www.w3.org/2000/svg" xmlns:xlink="http://www.w3.org/1999/xlink" x="0px" y="0px" width="48px" height="48px" viewBox="0 0 48 48"><path d="M24.1206 4.70245L22.823 6.00003H29.991V9.00003H15.5808L21.9995 2.58136L24.1206 4.70245Z" fill="#000" data-color="color-2"></path> <path d="M22.8593 16.2976L24.1569 15H16.9889V12H31.3991L24.9804 18.4187L22.8593 16.2976Z" fill="#000" data-color="color-2"></path> <path fill-rule="evenodd" clip-rule="evenodd" d="M2 9V38H11V39C11 40.6569 12.3431 42 14 42H18C19.6569 42 21 40.6569 21 39V26.084C21 23.5844 19.4502 21.346 17.1104 20.4668L15.8271 19.9844L13.7793 12.6553C13.1759 10.4945 11.2073 9 8.96387 9H2ZM17 26V28.8672C17 29.4687 16.4728 29.934 15.876 29.8594L11.6279 29.3281C10.1266 29.1405 9 27.8645 9 26.3516V26H17Z" fill="black"></path> <path fill-rule="evenodd" clip-rule="evenodd" d="M46 9V38H37V39C37 40.6569 35.6569 42 34 42H30C28.3431 42 27 40.6569 27 39V26.084C27 23.5844 28.5498 21.346 30.8896 20.4668L32.1729 19.9844L34.2207 12.6553C34.8241 10.4945 36.7927 9 39.0361 9H46ZM31 26V28.8672C31 29.4687 31.5272 29.934 32.124 29.8594L36.3721 29.3281C37.8734 29.1405 39 27.8645 39 26.3516V26H31Z" fill="black"></path></svg>