<svg xmlns="http://www.w3.org/2000/svg" xmlns:xlink="http://www.w3.org/1999/xlink" x="0px" y="0px" width="18px" height="18px" viewBox="0 0 18 18"><path d="m8.398.912l-2.55,1.479c-.37.215-.598.61-.598,1.038v2.968c0,.428.228.823.598,1.038l2.55,1.479c.372.216.832.216,1.204,0l2.55-1.479c.37-.215.598-.61.598-1.038v-2.968c0-.428-.228-.823-.598-1.038l-2.55-1.479c-.372-.216-.832-.216-1.204,0Z" fill="#000" opacity=".3" stroke-width="0" data-color="color-2"></path><path d="m8.398.912l-2.55,1.479c-.37.215-.598.61-.598,1.038v2.968c0,.428.228.823.598,1.038l2.55,1.479c.372.216.832.216,1.204,0l2.55-1.479c.37-.215.598-.61.598-1.038v-2.968c0-.428-.228-.823-.598-1.038l-2.55-1.479c-.372-.216-.832-.216-1.204,0Z" fill="none" stroke="#000" stroke-linecap="round" stroke-linejoin="round" stroke-width="1.5"></path><polyline points="12.59 2.831 9 4.913 5.41 2.831" fill="none" stroke="#000" stroke-linecap="round" stroke-linejoin="round" stroke-width="1.5"></polyline><line x1="9" y1="9.076" x2="9" y2="4.913" fill="none" stroke="#000" stroke-linecap="round" stroke-linejoin="round" stroke-width="1.5"></line><line x1="9" y1="16.904" x2="9" y2="13.654" fill="none" stroke="#000" stroke-linecap="round" stroke-linejoin="round" stroke-width="1.5"></line><path d="m16.072,10.58l-6.663,2.987c-.26.117-.558.117-.818,0l-6.664-2.987" fill="none" stroke="#000" stroke-linecap="round" stroke-linejoin="round" stroke-width="1.5"></path><path d="m3.948,9.5144l-1.607.7205c-.36.1621-.591.519-.591.9131v1.9551c0,.395.231.752.591.9131l6.25,2.8018c.26.1172.558.1172.818,0l6.25-2.8018c.36-.1621.591-.519.591-.9131v-1.9551c0-.395-.231-.752-.591-.9131l-1.6071-.7205" fill="none" stroke="#000" stroke-linecap="round" stroke-linejoin="round" stroke-width="1.5"></path></svg>