<svg xmlns="http://www.w3.org/2000/svg" xmlns:xlink="http://www.w3.org/1999/xlink" x="0px" y="0px" width="18px" height="18px" viewBox="0 0 18 18"><path d="m4.5856,4.3607l8.5-1.4167c.6095-.1016,1.1644.3685,1.1644.9864v10.1391c0,.6179-.5549,1.088-1.1644.9864l-8.5-1.4167c-.4822-.0804-.8356-.4976-.8356-.9864v-7.3057c0-.4888.3534-.906.8356-.9864Z" fill="#000" opacity=".3" stroke-width="0" data-color="color-2"></path><line x1="8.25" y1="16.25" x2="8.25" y2="1.75" fill="none" stroke="#000" stroke-linecap="round" stroke-linejoin="round" stroke-width="1.5"></line><line x1="2.25" y1="9" x2="15.75" y2="9" fill="none" stroke="#000" stroke-linecap="round" stroke-linejoin="round" stroke-width="1.5"></line><path d="m4.5856,4.3607l8.5-1.4167c.6095-.1016,1.1644.3685,1.1644.9864v10.1391c0,.6179-.5549,1.088-1.1644.9864l-8.5-1.4167c-.4822-.0804-.8356-.4976-.8356-.9864v-7.3057c0-.4888.3534-.906.8356-.9864Z" fill="none" stroke="#000" stroke-linecap="round" stroke-linejoin="round" stroke-width="1.5"></path></svg>