<svg xmlns="http://www.w3.org/2000/svg" xmlns:xlink="http://www.w3.org/1999/xlink" x="0px" y="0px" width="20px" height="20px" viewBox="0 0 20 20"><polygon points="8.5 17 7.5 17 6.5 13 9.5 13 8.5 17" stroke="#000" stroke-linecap="round" stroke-linejoin="round" stroke-width="2" fill="#000"></polygon><polygon points="12.5 17 13.5 17 14.5 13 11.5 13 12.5 17" stroke="#000" stroke-linecap="round" stroke-linejoin="round" stroke-width="2" fill="#000"></polygon><polyline points="4.5993 7.9002 2.5 8.5 2.5 11.5 4.5993 12.0998" stroke="#000" stroke-linecap="round" stroke-linejoin="round" stroke-width="2" fill="#000"></polyline><path d="m10.5,4c-4.1357,0-7.5,2.6914-7.5,6s3.3643,6,7.5,6,7.5-2.6914,7.5-6-3.3643-6-7.5-6Zm-4,5.5c-.5523,0-1-.4477-1-1s.4477-1,1-1,1,.4477,1,1-.4477,1-1,1Z" stroke-width="0" fill="#000"></path><path d="m9.1055,5.6025c-1.3789-2.7686-3.5225-2.8115-4.4668-2.4448-.2617.1016-.4688.3091-.5703.5713s-.0879.5547.0371.8066l1.2324,2.4761,3.7676-1.4092Z" stroke-width="0" fill="#000"></path><path d="m18.0001,5.0854c.5825.2059.9999.7615.9999,1.4146,0,.8284-.6716,1.5-1.5,1.5-.1754,0-.3437-.0301-.5001-.0854,0,0-.4999-.1256-1.3593-.9029" fill="none" stroke="#000" stroke-linecap="round" stroke-linejoin="round" stroke-width="2"></path><path d="m12.9269,2.5297c-.2119-.8754-.9862-1.5297-1.9269-1.5297-.8748,0-1.613.5641-1.8843,1.3465" fill="none" stroke="#000" stroke-linecap="round" stroke-linejoin="round" stroke-width="2" data-color="color-2"></path></svg>