<svg xmlns="http://www.w3.org/2000/svg" xmlns:xlink="http://www.w3.org/1999/xlink" x="0px" y="0px" width="20px" height="20px" viewBox="0 0 20 20"><path d="m7,7v-3c0-.5523.4477-1,1-1h4c.5523,0,1,.4477,1,1v3" fill="none" stroke="#000" stroke-linecap="round" stroke-linejoin="round" stroke-width="2"></path><path d="m16.9216,8.9073c-.2672-1.0932-1.2462-1.9073-2.4216-1.9073H5.5c-1.3807,0-2.5,1.1193-2.5,2.5v4c0,1.3807,1.1193,2.5,2.5,2.5h3.1949" fill="none" stroke="#000" stroke-linecap="round" stroke-linejoin="round" stroke-width="2"></path><polygon points="14 10.8204 14.7082 13 17 13 15.1459 14.3471 15.8541 16.5267 14 15.1796 12.1459 16.5267 12.8541 14.3471 11 13 13.2918 13 14 10.8204" fill="#000" stroke="#000" stroke-linecap="round" stroke-linejoin="round" stroke-width="2" data-color="color-2"></polygon></svg>