<svg xmlns="http://www.w3.org/2000/svg" xmlns:xlink="http://www.w3.org/1999/xlink" x="0px" y="0px" width="20px" height="20px" viewBox="0 0 20 20"><path d="m15.5,8.5c0-3.0375-2.4625-5.5-5.5-5.5s-5.5,2.4625-5.5,5.5c0,2.3311,1.4526,4.3187,3.5,5.1193v2.3807c0,.5523.4477,1,1,1h2c.5523,0,1-.4477,1-1v-2.3807c2.0474-.8007,3.5-2.7883,3.5-5.1193Z" fill="none" stroke="#000" stroke-linecap="round" stroke-linejoin="round" stroke-width="2"></path><path d="m8,15h4v1c0,.5519-.4481,1-1,1h-2c-.5519,0-1-.4481-1-1v-1h0Z" stroke-width="0" fill="#000"></path></svg>