<svg xmlns="http://www.w3.org/2000/svg" xmlns:xlink="http://www.w3.org/1999/xlink" x="0px" y="0px" width="20px" height="20px" viewBox="0 0 20 20"><path d="m7,7v-3c0-.5523.4477-1,1-1h4c.5523,0,1,.4477,1,1v3" fill="none" stroke="#000" stroke-linecap="round" stroke-linejoin="round" stroke-width="2"></path><path d="m15,12c-1.3109,0-2.4136.8462-2.8218,2.0179-.0596-.0054-.1171-.0179-.1782-.0179-1.1046,0-2,.8954-2,2s.8954,2,2,2h3c1.6569,0,3-1.3431,3-3s-1.3431-3-3-3Z" fill="#000" stroke-width="0" data-color="color-2"></path><path d="m17,9.8821v-.3821c0-1.3807-1.1193-2.5-2.5-2.5H5.5c-1.3807,0-2.5,1.1193-2.5,2.5v4c0,1.3807,1.1193,2.5,2.5,2.5h2" fill="none" stroke="#000" stroke-linecap="round" stroke-linejoin="round" stroke-width="2"></path></svg>