<svg xmlns="http://www.w3.org/2000/svg" xmlns:xlink="http://www.w3.org/1999/xlink" x="0px" y="0px" width="20px" height="20px" viewBox="0 0 20 20"><path d="m7,7v-3c0-.5523.4477-1,1-1h4c.5523,0,1,.4477,1,1v3" fill="none" stroke="#000" stroke-linecap="round" stroke-linejoin="round" stroke-width="2"></path><path d="m16.0001,16.236c-.5308.4751-1.2317.764-2.0001.764-1.6569,0-3-1.3431-3-3s1.3431-3,3-3c.8884,0,1.6867.3862,2.236.9999" fill="none" stroke="#000" stroke-linecap="round" stroke-linejoin="round" stroke-width="2" data-color="color-2"></path><path d="m16.219,7.692c-.4484-.4264-1.0514-.692-1.719-.692H5.5c-1.3807,0-2.5,1.1193-2.5,2.5v4c0,1.3807,1.1193,2.5,2.5,2.5h2.3181" fill="none" stroke="#000" stroke-linecap="round" stroke-linejoin="round" stroke-width="2"></path><path d="m17.25,10c.0967,0,.1943.0186.2871.0571.2803.1162.4629.3896.4629.6929v2.5c0,.4141-.3359.75-.75.75h-2.5c-.3032,0-.5767-.1826-.6929-.4629s-.0518-.603.1626-.8174l2.5-2.5c.1436-.1436.3354-.2197.5303-.2197Z" fill="#000" stroke-width="0" data-color="color-2"></path></svg>