<svg xmlns="http://www.w3.org/2000/svg" xmlns:xlink="http://www.w3.org/1999/xlink" x="0px" y="0px" width="20px" height="20px" viewBox="0 0 20 20"><path d="m10,2C5.5886,2,2,5.5886,2,10s3.5886,8,8,8,8-3.5886,8-8S14.4114,2,10,2Zm-2.5,4c.8284,0,1.5.6716,1.5,1.5s-.6716,1.5-1.5,1.5-1.5-.6716-1.5-1.5.6716-1.5,1.5-1.5Zm5,8c-.8284,0-1.5-.6716-1.5-1.5s.6716-1.5,1.5-1.5,1.5.6716,1.5,1.5-.6716,1.5-1.5,1.5Zm1.207-6.293l-6,6c-.1953.1953-.4512.293-.707.293s-.5117-.0977-.707-.293c-.3906-.3906-.3906-1.0234,0-1.4141l6-6c.3906-.3906,1.0234-.3906,1.4141,0s.3906,1.0234,0,1.4141Z" stroke-width="0" fill="#000"></path></svg>