<svg xmlns="http://www.w3.org/2000/svg" xmlns:xlink="http://www.w3.org/1999/xlink" x="0px" y="0px" width="20px" height="20px" viewBox="0 0 20 20"><line x1="10" y1="4" x2="10" y2="3" fill="none" stroke="#000" stroke-linecap="round" stroke-linejoin="round" stroke-width="2"></line><line x1="8" y1="14" x2="7" y2="17" fill="none" stroke="#000" stroke-linecap="round" stroke-linejoin="round" stroke-width="2"></line><line x1="12" y1="14" x2="13" y2="17" fill="none" stroke="#000" stroke-linecap="round" stroke-linejoin="round" stroke-width="2"></line><path d="m10,11.5c-.4141,0-.75-.3359-.75-.75v-3.75c0-.4141.3359-.75.75-.75s.75.3359.75.75v3.75c0,.4141-.3359.75-.75.75Z" fill="#000" stroke-width="0" data-color="color-2"></path><path d="m7.25,11.5c-.4141,0-.75-.3359-.75-.75v-1c0-.4141.3359-.75.75-.75s.75.3359.75.75v1c0,.4141-.3359.75-.75.75Z" fill="#000" stroke-width="0" data-color="color-2"></path><path d="m12.75,11.5c-.4141,0-.75-.3359-.75-.75v-2c0-.4141.3359-.75.75-.75s.75.3359.75.75v2c0,.4141-.3359.75-.75.75Z" fill="#000" stroke-width="0" data-color="color-2"></path><rect x="3" y="4" width="14" height="10" rx="3" ry="3" fill="none" stroke="#000" stroke-linecap="round" stroke-linejoin="round" stroke-width="2"></rect></svg>