<svg xmlns="http://www.w3.org/2000/svg" xmlns:xlink="http://www.w3.org/1999/xlink" x="0px" y="0px" width="20px" height="20px" viewBox="0 0 20 20"><path d="m12.25,3h-3.5c-.4141,0-.75.3359-.75.75v4.5c0,.3203.2031.6055.5068.709.3037.1025.6387.0039.835-.248l1.1582-1.4893,1.1582,1.4893c.1445.1855.3652.2891.5918.2891.0811,0,.1631-.0137.2432-.041.3037-.1035.5068-.3887.5068-.709V3.75c0-.4141-.3359-.75-.75-.75Z" fill="#000" stroke-width="0" data-color="color-2"></path><path d="m6,4h8c1.6557,0,3,1.3443,3,3v9H3V7c0-1.6557,1.3443-3,3-3Z" transform="translate(20) rotate(90)" fill="none" stroke="#000" stroke-linecap="round" stroke-linejoin="round" stroke-width="2"></path><rect x="4" y="3" width="2" height="14" stroke-width="0" fill="#000"></rect></svg>