<svg xmlns="http://www.w3.org/2000/svg" xmlns:xlink="http://www.w3.org/1999/xlink" x="0px" y="0px" width="20px" height="20px" viewBox="0 0 20 20"><path d="m18,12.5c0-1.9297-1.5703-3.5-3.5-3.5s-3.5,1.5703-3.5,3.5c0,.95.3834,1.8104,1,2.4417v3.3083c0,.3203.2031.6055.5068.709.3037.1025.6387.0039.835-.248l1.1582-1.4893,1.1582,1.4893c.1445.1855.3652.2891.5918.2891.0811,0,.1631-.0137.2432-.041.3037-.1035.5068-.3887.5068-.709v-3.3083c.6166-.6313,1-1.4918,1-2.4417Z" fill="#000" stroke-width="0" data-color="color-2"></path><line x1="11" y1="8" x2="7" y2="8" fill="none" stroke="#000" stroke-linecap="round" stroke-linejoin="round" stroke-width="2"></line><line x1="8.5" y1="12" x2="7" y2="12" fill="none" stroke="#000" stroke-linecap="round" stroke-linejoin="round" stroke-width="2"></line><path d="m17,7c0-1.6569-1.3431-3-3-3H6c-1.6569,0-3,1.3431-3,3v6c0,1.6569,1.3431,3,3,3h3.5" fill="none" stroke="#000" stroke-linecap="round" stroke-linejoin="round" stroke-width="2"></path></svg>