<svg xmlns="http://www.w3.org/2000/svg" xmlns:xlink="http://www.w3.org/1999/xlink" x="0px" y="0px" width="20px" height="20px" viewBox="0 0 20 20"><circle cx="3.75" cy="11" r="1.25" stroke="#000" stroke-linecap="round" stroke-linejoin="round" stroke-width="2" fill="#000"></circle><circle cx="10.5" cy="4.25" r="1.25" stroke="#000" stroke-linecap="round" stroke-linejoin="round" stroke-width="2" fill="#000"></circle><path d="m16.5,13c-1.103,0-2-.897-2-2s.897-2,2-2c.1736,0,.3392.0292.5.071v-1.071c0-1.9297-1.5703-3.5-3.5-3.5h-6c-1.9297,0-3.5,1.5703-3.5,3.5v6c0,1.9297,1.5703,3.5,3.5,3.5h1.071c-.0417-.1608-.071-.3264-.071-.5,0-1.103.897-2,2-2s2,.897,2,2c0,.1736-.0292.3392-.071.5h1.071c1.9297,0,3.5-1.5703,3.5-3.5v-1.071c-.1608.0417-.3264.071-.5.071Z" stroke-width="0" fill="#000"></path></svg>