<svg xmlns="http://www.w3.org/2000/svg" xmlns:xlink="http://www.w3.org/1999/xlink" x="0px" y="0px" width="20px" height="20px" viewBox="0 0 20 20"><path d="m8,5h5c.5523,0,1,.4477,1,1v1" fill="none" stroke="#000" stroke-linecap="round" stroke-linejoin="round" stroke-width="2" data-color="color-2"></path><path d="m8,15h5c.5523,0,1-.4477,1-1v-1" fill="none" stroke="#000" stroke-linecap="round" stroke-linejoin="round" stroke-width="2" data-color="color-2"></path><line x1="5.5" y1="7" x2="5.5" y2="13" fill="none" stroke="#000" stroke-linecap="round" stroke-linejoin="round" stroke-width="2" data-color="color-2"></line><rect x="3" y="3" width="5" height="4" rx="1" ry="1" fill="none" stroke="#000" stroke-linecap="round" stroke-linejoin="round" stroke-width="2"></rect><rect x="3" y="13" width="5" height="4" rx="1" ry="1" fill="none" stroke="#000" stroke-linecap="round" stroke-linejoin="round" stroke-width="2"></rect><path d="m10.5333,9.6l3.1667-2.375c.1778-.1333.4222-.1333.6,0l3.1667,2.375c.2667.2.2667.6,0,.8l-3.1667,2.375c-.1778.1333-.4222.1333-.6,0l-3.1667-2.375c-.2667-.2-.2667-.6,0-.8Z" stroke="#000" stroke-linecap="round" stroke-linejoin="round" stroke-width="2" fill="#000"></path></svg>