<svg xmlns="http://www.w3.org/2000/svg" xmlns:xlink="http://www.w3.org/1999/xlink" x="0px" y="0px" width="20px" height="20px" viewBox="0 0 20 20"><path d="m12,14v-2c0-1.1046.8954-2,2-2h0c1.1046,0,2,.8954,2,2v2" fill="none" stroke="#000" stroke-linecap="round" stroke-linejoin="round" stroke-width="2" data-color="color-2"></path><rect x="11" y="14" width="6" height="3" rx=".5" ry=".5" fill="#000" stroke="#000" stroke-linecap="round" stroke-linejoin="round" stroke-width="2" data-color="color-2"></rect><path d="m7.7564,13.0916c-.1642-.9323-.2564-1.9818-.2564-3.0916,0-3.866,1.1193-7,2.5-7,.9682,0,1.8078,1.541,2.2231,3.7947" fill="none" stroke="#000" stroke-linecap="round" stroke-linejoin="round" stroke-width="2"></path><path d="m7.4999,16.5403c-2.6313-1.0065-4.4999-3.5552-4.4999-6.5403,0-3.866,3.134-7,7-7,2.8008,0,5.2174,1.6449,6.3365,4.0214" fill="none" stroke="#000" stroke-linecap="round" stroke-linejoin="round" stroke-width="2"></path><line x1="3" y1="10" x2="9" y2="10" fill="none" stroke="#000" stroke-linecap="round" stroke-linejoin="round" stroke-width="2"></line></svg>