<svg xmlns="http://www.w3.org/2000/svg" xmlns:xlink="http://www.w3.org/1999/xlink" x="0px" y="0px" width="20px" height="20px" viewBox="0 0 20 20"><path d="m3,9h1.7c.528,0,1.051.105,1.538.308l3.889,1.621c.768.32,1.148,1.187.864,1.969h0c-.278.764-1.096,1.185-1.879.968l-3.113-.865" fill="none" stroke="#000" stroke-linecap="round" stroke-linejoin="round" stroke-width="2"></path><path d="m10.992,12.897l4.392-1.74c.875-.356,1.869.101,2.167.997h0c.257.772-.092,1.616-.82,1.979l-5.34,2.67c-.895.448-1.925.543-2.888.268l-5.504-1.573" fill="none" stroke="#000" stroke-linecap="round" stroke-linejoin="round" stroke-width="2"></path><circle cx="9" cy="5" r="2" fill="none" stroke="#000" stroke-linecap="round" stroke-linejoin="round" stroke-width="2" data-color="color-2"></circle><line x1="17" y1="5" x2="11" y2="5" fill="none" stroke="#000" stroke-linecap="round" stroke-linejoin="round" stroke-width="2" data-color="color-2"></line><line x1="15" y1="7" x2="15" y2="5" fill="none" stroke="#000" stroke-linecap="round" stroke-linejoin="round" stroke-width="2" data-color="color-2"></line></svg>