<svg xmlns="http://www.w3.org/2000/svg" xmlns:xlink="http://www.w3.org/1999/xlink" x="0px" y="0px" width="24px" height="24px" viewBox="0 0 24 24"> <path d="M15.5 13.5V21.5V21" stroke="black" stroke-width="2" stroke-linecap="square" fill="none"></path> <path d="M8.5 13.5V18V17.5" stroke="black" stroke-width="2" stroke-linecap="square" fill="none"></path> <path d="M19.9648 4.28277L22 3.5V19L15.5 21.5L8.5 18L2 20.5V5L4.04224 4.21452" stroke="black" stroke-width="2" stroke-miterlimit="10" stroke-linecap="square" fill="none"></path> <path d="M12 10.75C14.328 9.094 16 7.209 16 5C16 2.791 14.209 1 12 1C9.791 1 8 2.791 8 5C8 7.209 9.672 9.094 12 10.75Z" stroke="#000" stroke-width="2" stroke-miterlimit="10" stroke-linecap="square" data-color="color-2" fill="none"></path> <path d="M12 6.25C12.6904 6.25 13.25 5.69036 13.25 5C13.25 4.30964 12.6904 3.75 12 3.75C11.3096 3.75 10.75 4.30964 10.75 5C10.75 5.69036 11.3096 6.25 12 6.25Z" fill="#000" data-color="color-2" data-cap="butt" data-stroke="none"></path> </svg>