<svg xmlns="http://www.w3.org/2000/svg" xmlns:xlink="http://www.w3.org/1999/xlink" x="0px" y="0px" width="24px" height="24px" viewBox="0 0 24 24"> <path d="M23 13V16.5H19.5" stroke="#000" stroke-width="2" stroke-miterlimit="10" stroke-linecap="square" data-color="color-2" fill="none"></path> <path d="M13 22V18.5H16.5" stroke="#000" stroke-width="2" stroke-miterlimit="10" stroke-linecap="square" data-color="color-2" fill="none"></path> <path d="M21.854 16.5H22.242C21.788 14.496 19.996 13 17.854 13C16.5215 13 15.3241 13.5794 14.5001 14.5" stroke="#000" stroke-width="2" stroke-miterlimit="10" stroke-linecap="square" data-color="color-2" fill="none"></path> <path d="M14.146 18.5H13.758C14.212 20.504 16.004 22 18.146 22C19.4785 22 20.6759 21.4206 21.4999 20.5" stroke="#000" stroke-width="2" stroke-miterlimit="10" stroke-linecap="square" data-color="color-2" fill="none"></path> <path d="M15.5 9V6V7" stroke="black" stroke-width="2" stroke-linecap="square" fill="none"></path> <path d="M8.5 2.51807V18" stroke="black" stroke-width="2" data-cap="butt" fill="none"></path> <path d="M22 9V3.5L15.5 6L8.5 2.5L2 5V20.5L8.5 18V16.5" stroke="black" stroke-width="2" stroke-miterlimit="10" stroke-linecap="square" fill="none"></path> </svg>