<svg xmlns="http://www.w3.org/2000/svg" xmlns:xlink="http://www.w3.org/1999/xlink" x="0px" y="0px" width="24px" height="24px" viewBox="0 0 24 24"> <path d="M20 4H4C2.89543 4 2 4.89543 2 6V16C2 17.1046 2.89543 18 4 18H9L12 22L15 18H20C21.1046 18 22 17.1046 22 16V6C22 4.89543 21.1046 4 20 4Z" stroke="black" stroke-width="2" stroke-miterlimit="10" stroke-linecap="square" fill="none"></path> <path d="M12 11C13.3807 11 14.5 9.88071 14.5 8.5C14.5 7.11929 13.3807 6 12 6C10.6193 6 9.5 7.11929 9.5 8.5C9.5 9.88071 10.6193 11 12 11Z" fill="#000" data-color="color-2" data-cap="butt" data-stroke="none"></path> <path d="M12 12C9.47799 12 7.38076 13.6986 6.73029 16H17.2697C16.6192 13.6986 14.522 12 12 12Z" fill="#000" data-color="color-2" data-cap="butt" data-stroke="none"></path> </svg>