<svg xmlns="http://www.w3.org/2000/svg" xmlns:xlink="http://www.w3.org/1999/xlink" x="0px" y="0px" width="24px" height="24px" viewBox="0 0 24 24"> <path d="M12 1V4" stroke="black" stroke-width="2" stroke-linecap="square" fill="none"></path> <path d="M12 20V23" stroke="black" stroke-width="2" stroke-linecap="square" fill="none"></path> <path d="M23 12L20 12" stroke="black" stroke-width="2" stroke-linecap="square" fill="none"></path> <path d="M4 12L1 12" stroke="black" stroke-width="2" stroke-linecap="square" fill="none"></path> <path d="M12 22C17.5228 22 22 17.5228 22 12C22 6.47715 17.5228 2 12 2C6.47715 2 2 6.47715 2 12C2 17.5228 6.47715 22 12 22Z" stroke="black" stroke-width="2" stroke-miterlimit="10" stroke-linecap="square" fill="none"></path> <path d="M12 14C13.1046 14 14 13.1046 14 12C14 10.8954 13.1046 10 12 10C10.8954 10 10 10.8954 10 12C10 13.1046 10.8954 14 12 14Z" stroke="#000" stroke-width="2" stroke-miterlimit="10" stroke-linecap="square" data-color="color-2" fill="none"></path> </svg>