<svg xmlns="http://www.w3.org/2000/svg" xmlns:xlink="http://www.w3.org/1999/xlink" x="0px" y="0px" width="32px" height="32px" viewBox="0 0 32 32"> <path d="M13 9L10 2" stroke="#000" stroke-width="2" data-color="color-2" data-cap="butt" fill="none"></path> <path d="M19 9L22 2" stroke="#000" stroke-width="2" data-color="color-2" data-cap="butt" fill="none"></path> <path d="M5 19H27" stroke="black" stroke-width="2" stroke-linecap="square" fill="none"></path> <path d="M31 19V16C31 14.8954 30.1046 14 29 14H27" stroke="#000" stroke-width="2" stroke-linecap="square" data-color="color-2" fill="none"></path> <path d="M1 19V16C1 14.8954 1.89543 14 3 14H5" stroke="#000" stroke-width="2" stroke-linecap="square" data-color="color-2" fill="none"></path> <path d="M27 30V12C27 10.3431 25.6569 9 24 9H8C6.34315 9 5 10.3431 5 12V30H27Z" stroke="black" stroke-width="2" data-cap="butt" fill="none"></path> <path d="M7 2H25" stroke="#000" stroke-width="2" stroke-linecap="square" data-color="color-2" fill="none"></path> <path d="M24 24C24 25.1046 23.1046 26 22 26C20.8954 26 20 25.1046 20 24C20 22.8954 20.8954 22 22 22C23.1046 22 24 22.8954 24 24Z" fill="black" data-cap="butt" data-stroke="none"></path> <path d="M12 24C12 25.1046 11.1046 26 10 26C8.89543 26 8 25.1046 8 24C8 22.8954 8.89543 22 10 22C11.1046 22 12 22.8954 12 24Z" fill="black" data-cap="butt" data-stroke="none"></path> </svg>