<svg xmlns="http://www.w3.org/2000/svg" xmlns:xlink="http://www.w3.org/1999/xlink" x="0px" y="0px" width="32px" height="32px" viewBox="0 0 32 32"> <path d="M16 16V25" stroke="black" stroke-width="2" stroke-miterlimit="10" stroke-linecap="square" fill="none"></path> <path d="M16 16C19.866 16 23 12.866 23 9C23 5.13401 19.866 2 16 2C12.134 2 9 5.13401 9 9C9 12.866 12.134 16 16 16Z" stroke="black" stroke-width="2" stroke-miterlimit="10" stroke-linecap="square" fill="none"></path> <path d="M21 20C26.2627 20.7433 30 22.6256 30 24.8303C30 27.6854 23.732 30 16 30C8.26801 30 2 27.6854 2 24.8303C2 22.6256 5.73726 20.7433 11 20" stroke="#000" stroke-width="2" stroke-miterlimit="10" stroke-linecap="square" data-color="color-2" fill="none"></path> <path d="M13 9C13 7.34315 14.3431 6 16 6" stroke="black" stroke-width="2" stroke-miterlimit="10" stroke-linecap="square" fill="none"></path> </svg>