<svg xmlns="http://www.w3.org/2000/svg" xmlns:xlink="http://www.w3.org/1999/xlink" x="0px" y="0px" width="32px" height="32px" viewBox="0 0 32 32"> <path d="M2 24.5V7C2 5.34315 3.34315 4 5 4H27C28.6569 4 30 5.34315 30 7V24.5" stroke="black" stroke-width="2" data-cap="butt" fill="none"></path> <path d="M7.6 21.5V28L5.5 28C3.567 28 2 26.433 2 24.5V24.5C2 22.567 3.567 21 5.5 21H26.5C28.433 21 30 22.567 30 24.5V24.5C30 26.433 28.433 28 26.5 28L24.4 28V21.5" stroke="black" stroke-width="2" stroke-miterlimit="10" stroke-linecap="square" fill="none"></path> <path d="M13 12.5H15" stroke="#000" stroke-width="2" stroke-linecap="square" data-color="color-2" fill="none"></path> <path d="M7 12.5H9" stroke="#000" stroke-width="2" stroke-linecap="square" data-color="color-2" fill="none"></path> <path d="M19.5 10L22 12.5L24.5 15" stroke="#000" stroke-width="2" stroke-miterlimit="10" stroke-linecap="square" data-color="color-2" fill="none"></path> <path d="M19.5 15L22 12.5L24.5 10" stroke="#000" stroke-width="2" stroke-miterlimit="10" stroke-linecap="square" data-color="color-2" fill="none"></path> </svg>