<svg xmlns="http://www.w3.org/2000/svg" xmlns:xlink="http://www.w3.org/1999/xlink" x="0px" y="0px" width="32px" height="32px" viewBox="0 0 32 32"> <path d="M21 13.5L21 8V9" stroke="black" stroke-width="2" stroke-linecap="square" fill="none"></path> <path d="M11 3V24" stroke="black" stroke-width="2" data-cap="butt" fill="none"></path> <path d="M30 14.5V4.5L21 8L11 3L2 6.5V27.5L11 24V22.5" stroke="black" stroke-width="2" stroke-miterlimit="10" stroke-linecap="square" fill="none"></path> <path d="M17.7322 20.5C18.8162 18.4201 20.9923 17 23.5 17C26.7498 17 29.4425 19.3849 29.9235 22.5H29" stroke="#000" stroke-width="2" stroke-miterlimit="10" stroke-linecap="square" data-color="color-2" fill="none"></path> <path d="M29.2678 26.5C28.1837 28.5799 26.0077 30 23.5 30C20.2502 30 17.5574 27.6151 17.0764 24.5H18" stroke="#000" stroke-width="2" stroke-miterlimit="10" stroke-linecap="square" data-color="color-2" fill="none"></path> <path d="M31 18.5V22.5H27" stroke="#000" stroke-width="2" stroke-miterlimit="10" stroke-linecap="square" data-color="color-2" fill="none"></path> <path d="M16 28.5V24.5H20" stroke="#000" stroke-width="2" stroke-miterlimit="10" stroke-linecap="square" data-color="color-2" fill="none"></path> </svg>