<svg xmlns="http://www.w3.org/2000/svg" xmlns:xlink="http://www.w3.org/1999/xlink" x="0px" y="0px" width="32px" height="32px" viewBox="0 0 32 32"> <path d="M21 15.2277V8V9" stroke="black" stroke-width="2" stroke-linecap="square" fill="none"></path> <path d="M11 3V24" stroke="black" stroke-width="2" data-cap="butt" fill="none"></path> <path d="M14.7208 25.8604L11 24L2 27.5V6.5L11 3L21 8L30 4.5V13" stroke="black" stroke-width="2" stroke-miterlimit="10" stroke-linecap="square" fill="none"></path> <path d="M24 24.3334C24.7364 24.3334 25.3334 23.7365 25.3334 23.0001C25.3334 22.2637 24.7364 21.6667 24 21.6667C23.2636 21.6667 22.6667 22.2637 22.6667 23.0001C22.6667 23.7365 23.2636 24.3334 24 24.3334Z" fill="#000" data-color="color-2" data-cap="butt" data-stroke="none"></path> <path d="M30 17L27.5 26.5L18 29L20.5 19.5L30 17Z" stroke="#000" stroke-width="2" stroke-miterlimit="10" stroke-linecap="square" data-color="color-2" fill="none"></path> </svg>