<svg xmlns="http://www.w3.org/2000/svg" xmlns:xlink="http://www.w3.org/1999/xlink" x="0px" y="0px" width="48px" height="48px" viewBox="0 0 48 48"> <path d="M24 2V9" stroke="black" stroke-width="2" stroke-linecap="square" fill="none"></path> <path d="M24 46V39" stroke="black" stroke-width="2" stroke-linecap="square" fill="none"></path> <path d="M46 24L39 24" stroke="black" stroke-width="2" stroke-linecap="square" fill="none"></path> <path d="M2 24L9 24" stroke="black" stroke-width="2" stroke-linecap="square" fill="none"></path> <path d="M24 29C26.7614 29 29 26.7614 29 24C29 21.2386 26.7614 19 24 19C21.2386 19 19 21.2386 19 24C19 26.7614 21.2386 29 24 29Z" stroke="#000" stroke-width="2" stroke-miterlimit="10" stroke-linecap="square" data-color="color-2" fill="none"></path> <path d="M24 43C34.4934 43 43 34.4934 43 24C43 13.5066 34.4934 5 24 5C13.5066 5 5 13.5066 5 24C5 34.4934 13.5066 43 24 43Z" stroke="black" stroke-width="2" stroke-miterlimit="10" stroke-linecap="square" fill="none"></path> </svg>