<svg xmlns="http://www.w3.org/2000/svg" xmlns:xlink="http://www.w3.org/1999/xlink" x="0px" y="0px" width="18px" height="18px" viewBox="0 0 18 18"><path opacity="0.3" d="M9 16.25C13.0041 16.25 16.25 13.004 16.25 9C16.25 4.996 13.0041 1.75 9 1.75C4.9959 1.75 1.75 4.996 1.75 9C1.75 13.004 4.9959 16.25 9 16.25Z" fill="#000" data-color="color-2" data-stroke="none"></path> <path d="M9 8V12.25" stroke="black" stroke-width="1.5" stroke-linecap="round" stroke-linejoin="round" fill="none"></path> <path d="M5.75 10.25V12.25" stroke="black" stroke-width="1.5" stroke-linecap="round" stroke-linejoin="round" fill="none"></path> <path d="M12.25 5.75V12.25" stroke="black" stroke-width="1.5" stroke-linecap="round" stroke-linejoin="round" fill="none"></path> <path d="M1.75281 9.2021C1.85991 13.1127 5.06361 16.25 9.00001 16.25C13.004 16.25 16.25 13.004 16.25 9C16.25 4.996 13.004 1.75 9.00001 1.75C5.99951 1.75 3.42531 3.5727 2.32321 6.1704" stroke="black" stroke-width="1.5" stroke-linecap="round" stroke-linejoin="round" fill="none"></path> <path d="M1.88 3.30499L2.288 6.24999L5.232 5.84299" stroke="black" stroke-width="1.5" stroke-linecap="round" stroke-linejoin="round" fill="none"></path></svg>