<svg xmlns="http://www.w3.org/2000/svg" xmlns:xlink="http://www.w3.org/1999/xlink" x="0px" y="0px" width="18px" height="18px" viewBox="0 0 18 18"><path opacity="0.3" d="M17.25 7.25L15 5L12.75 7.25V1.75C12.75 1.198 13.198 0.75 13.75 0.75H16.25C16.802 0.75 17.25 1.198 17.25 1.75V7.25Z" fill="#000" data-color="color-2" data-stroke="none"></path> <path opacity="0.3" fill-rule="evenodd" clip-rule="evenodd" d="M10.5 3.25H3.75C2.645 3.25 1.75 4.145 1.75 5.25V13.75C1.75 14.855 2.645 15.75 3.75 15.75H12.25C13.355 15.75 14.25 14.855 14.25 13.75V9.5C14.1235 9.2941 14.0094 9.12081 13.8779 9.19701C13.2812 9.54271 12.5462 9.60099 11.889 9.32899C11.048 8.97999 10.5 8.16 10.5 7.25V3.25Z" fill="#000" data-color="color-2" data-stroke="none"></path> <path d="M4.75 8.5V12.75" stroke="black" stroke-width="1.5" stroke-linecap="round" stroke-linejoin="round" fill="none"></path> <path d="M11.25 10.75V12.75" stroke="black" stroke-width="1.5" stroke-linecap="round" stroke-linejoin="round" fill="none"></path> <path d="M8 6.25V12.75" stroke="black" stroke-width="1.5" stroke-linecap="round" stroke-linejoin="round" fill="none"></path> <path d="M9.75 3.25H3.75C2.645 3.25 1.75 4.145 1.75 5.25V13.75C1.75 14.855 2.645 15.75 3.75 15.75H12.25C13.355 15.75 14.25 14.855 14.25 13.75V9.834" stroke="black" stroke-width="1.5" stroke-linecap="round" stroke-linejoin="round" fill="none"></path> <path d="M17.25 7.25L15 5L12.75 7.25V1.75C12.75 1.198 13.198 0.75 13.75 0.75H16.25C16.802 0.75 17.25 1.198 17.25 1.75V7.25Z" stroke="black" stroke-width="1.5" stroke-linecap="round" stroke-linejoin="round" fill="none"></path></svg>