<svg xmlns="http://www.w3.org/2000/svg" xmlns:xlink="http://www.w3.org/1999/xlink" x="0px" y="0px" width="18px" height="18px" viewBox="0 0 18 18"><path fill-rule="evenodd" clip-rule="evenodd" d="M9 1.75C4.99594 1.75 1.75 4.99594 1.75 9C1.75 13.0041 4.99594 16.25 9 16.25C13.0041 16.25 16.25 13.0041 16.25 9H12.75C12.75 11.0711 11.0711 12.75 9 12.75C6.92893 12.75 5.25 11.0711 5.25 9C5.25 6.92893 6.92893 5.25 9 5.25V1.75Z" fill="#000" fill-opacity="0.3" data-color="color-2" data-stroke="none"></path> <path d="M9 5.25V1.75" stroke="black" stroke-width="1.5" stroke-linecap="round" stroke-linejoin="round" fill="none"></path> <path d="M12.75 9H16.25" stroke="black" stroke-width="1.5" stroke-linecap="round" stroke-linejoin="round" fill="none"></path> <path d="M6.348 11.652L3.875 14.125" stroke="black" stroke-width="1.5" stroke-linecap="round" stroke-linejoin="round" fill="none"></path> <path d="M9 16.25C13.0041 16.25 16.25 13.0041 16.25 9C16.25 4.99594 13.0041 1.75 9 1.75C4.99594 1.75 1.75 4.99594 1.75 9C1.75 13.0041 4.99594 16.25 9 16.25Z" stroke="black" stroke-width="1.5" stroke-linecap="round" stroke-linejoin="round" fill="none"></path> <path d="M9 12.75C11.0711 12.75 12.75 11.0711 12.75 9C12.75 6.92893 11.0711 5.25 9 5.25C6.92893 5.25 5.25 6.92893 5.25 9C5.25 11.0711 6.92893 12.75 9 12.75Z" stroke="black" stroke-width="1.5" stroke-linecap="round" stroke-linejoin="round" fill="none"></path></svg>