<svg xmlns="http://www.w3.org/2000/svg" xmlns:xlink="http://www.w3.org/1999/xlink" x="0px" y="0px" width="24px" height="24px" viewBox="0 0 24 24"> <path fill-rule="evenodd" clip-rule="evenodd" d="M9 15V21H4V19H7V15H9Z" fill="#000" data-color="color-2"></path> <path d="M9.99964 3H4C2.34315 3 1 4.34315 1 6V14C1 15.6569 2.34315 17 4 17L9 17L9.00001 6C9.00001 4.87439 9.37195 3.83566 9.99964 3Z" fill="black"></path> <path fill-rule="evenodd" clip-rule="evenodd" d="M20 21H14C12.3431 21 11 19.6569 11 18V6C11 4.34314 12.3431 3 14 3H20C21.6569 3 23 4.34315 23 6L23 18C23 19.6569 21.6568 21 20 21ZM17 17C17.6903 17 18.25 16.4404 18.25 15.75C18.25 15.0596 17.6903 14.5 17 14.5C16.3096 14.5 15.75 15.0596 15.75 15.75C15.75 16.4404 16.3096 17 17 17ZM15 7V9H19V7H15Z" fill="black"></path> </svg>