<svg xmlns="http://www.w3.org/2000/svg" xmlns:xlink="http://www.w3.org/1999/xlink" x="0px" y="0px" width="24px" height="24px" viewBox="0 0 24 24"> <path d="M12 20H4V20.5C4 20.6712 4.01721 20.8384 4.05001 21C4.28164 22.1411 5.29052 23 6.5 23L17.5 23C18.7095 23 19.7184 22.1411 19.95 21C19.9828 20.8384 20 20.6712 20 20.5V20H16.01V21H12V20Z" fill="#000" data-color="color-2"></path> <path fill-rule="evenodd" clip-rule="evenodd" d="M22 5C22 3.34315 20.6569 2 19 2H5C3.34315 2 2 3.34315 2 5V16C2 17.6569 3.34314 19 5 19H19C20.6569 19 22 17.6569 22 16V5ZM18 15V6L6 6L6 15L18 15Z" fill="black"></path> </svg>