<svg xmlns="http://www.w3.org/2000/svg" xmlns:xlink="http://www.w3.org/1999/xlink" x="0px" y="0px" width="32px" height="32px" viewBox="0 0 32 32"> <path fill-rule="evenodd" clip-rule="evenodd" d="M8 1V13H6V1H8Z" fill="black"></path> <path fill-rule="evenodd" clip-rule="evenodd" d="M24 1L24 5L22 5L22 1L24 1Z" fill="#000" data-color="color-2"></path> <path fill-rule="evenodd" clip-rule="evenodd" d="M30.1224 4.29184L27.294 7.12027L25.8798 5.70605L28.7082 2.87762L30.1224 4.29184Z" fill="#000" data-color="color-2"></path> <path fill-rule="evenodd" clip-rule="evenodd" d="M22 30L10 30C7.79086 30 6 28.2091 6 26L6 7H22C24.2091 7 26 8.79086 26 11L26 26C26 28.2091 24.2091 30 22 30ZM23 11V20H9L9 11L23 11ZM17 23H15V27H17V23ZM20 24L20 26.01L18 26.01L18 24L20 24ZM14 24L12 24L12 26.01L14 26.01L14 24Z" fill="black"></path> </svg>