<svg xmlns="http://www.w3.org/2000/svg" xmlns:xlink="http://www.w3.org/1999/xlink" x="0px" y="0px" width="32px" height="32px" viewBox="0 0 32 32"> <path fill-rule="evenodd" clip-rule="evenodd" d="M17 24V31H15V24H17Z" fill="black"></path> <path d="M24 21C24 23.7614 21.7614 26 19 26H13C10.2386 26 8 23.7614 8 21V20H13V18H8V15H13V13H8V10H13V8H8V7C8 4.23858 10.2386 2 13 2H19C21.7614 2 24 4.23858 24 7V8H19V10H24V13H19V15H24V18H19V20H24L24 21Z" fill="black"></path> <path fill-rule="evenodd" clip-rule="evenodd" d="M28.1991 6.59885L28.8001 7.39808C31.7333 11.2986 31.7333 16.7014 28.8001 20.6019L28.1991 21.4012L26.6006 20.1991L27.2017 19.3999C29.5994 16.2113 29.5994 11.7887 27.2017 8.60012L26.6006 7.80088L28.1991 6.59885Z" fill="#000" data-color="color-2"></path> <path fill-rule="evenodd" clip-rule="evenodd" d="M3.80088 6.59885L3.19986 7.39808C0.266716 11.2986 0.266716 16.7014 3.19986 20.6019L3.80088 21.4012L5.39935 20.1991L4.79833 19.3999C2.40056 16.2113 2.40056 11.7887 4.79833 8.60012L5.39935 7.80088L3.80088 6.59885Z" fill="#000" data-color="color-2"></path> </svg>