<svg xmlns="http://www.w3.org/2000/svg" xmlns:xlink="http://www.w3.org/1999/xlink" x="0px" y="0px" width="48px" height="48px" viewBox="0 0 48 48"> <path fill-rule="evenodd" clip-rule="evenodd" d="M25.5 2V12.5H22.5V2H25.5Z" fill="#000" data-color="color-2"></path> <path fill-rule="evenodd" clip-rule="evenodd" d="M15 37C7.8203 37 2 31.1797 2 24C2 16.8203 7.8203 11 15 11H33C40.1797 11 46 16.8203 46 24C46 31.1797 40.1797 37 33 37L15 37ZM16.5 21.5V18H13.5V21.5H10V24.5H13.5V28H16.5V24.5H20V21.5H16.5ZM32.5 20C32.5 21.3807 31.3807 22.5 30 22.5C28.6193 22.5 27.5 21.3807 27.5 20C27.5 18.6193 28.6193 17.5 30 17.5C31.3807 17.5 32.5 18.6193 32.5 20ZM36 28.5C37.3807 28.5 38.5 27.3807 38.5 26C38.5 24.6193 37.3807 23.5 36 23.5C34.6193 23.5 33.5 24.6193 33.5 26C33.5 27.3807 34.6193 28.5 36 28.5ZM27 30V33H21V30H27Z" fill="black"></path> </svg>