<svg xmlns="http://www.w3.org/2000/svg" xmlns:xlink="http://www.w3.org/1999/xlink" x="0px" y="0px" width="20px" height="20px" viewBox="0 0 20 20"><path d="m18,10c0-.5-.0158-1.4133-3.6669-1.8082.1611-.2007.3265-.4041.4672-.5917.8525-1.1372,1.6929-2.4209.8564-3.2568-.834-.8364-2.1191.0039-3.2568.8564-.1875.1407-.391.3062-.5917.4673-.3949-3.6512-1.3082-3.667-1.8082-3.667s-1.4133.0158-1.8082,3.6669c-.2007-.1611-.4041-.3265-.5917-.4672-1.1377-.853-2.4224-1.6943-3.2568-.8564-.8364.8359.0039,2.1196.8564,3.2568.1407.1875.3062.391.4673.5917-3.6512.3949-3.667,1.3082-3.667,1.8082s.0158,1.4133,3.667,1.8082c-.1611.2007-.3266.4042-.4673.5917-.8525,1.1372-1.6929,2.4209-.8564,3.2568.2437.2441.5259.3452.8311.3452.7412,0,1.6201-.5977,2.4258-1.2017.1876-.1407.391-.3061.5917-.4672.3949,3.6511,1.3082,3.6669,1.8082,3.6669s1.4133-.0158,1.8082-3.667c.2007.1611.4042.3266.5917.4673.8057.604,1.6846,1.2017,2.4258,1.2017.3052,0,.5874-.1011.8311-.3452.8364-.8359-.0039-2.1196-.8564-3.2568-.1407-.1876-.3061-.391-.4672-.5917,3.6511-.3949,3.6669-1.3082,3.6669-1.8082Zm-8,2c-1.1046,0-2-.8954-2-2s.8954-2,2-2,2,.8954,2,2-.8954,2-2,2Z" stroke-width="0" fill="#000"></path></svg>