<svg xmlns="http://www.w3.org/2000/svg" xmlns:xlink="http://www.w3.org/1999/xlink" x="0px" y="0px" width="48px" height="48px" viewBox="0 0 48 48"> <path d="M13 17H11L13.4634 6.32542C13.7775 4.96423 14.9896 4 16.3865 4H31.6135C33.0104 4 34.2225 4.96423 34.5366 6.32542L37 17H35" stroke="black" stroke-width="2" stroke-miterlimit="10" stroke-linecap="square" fill="none"></path> <path d="M36 45C39.866 45 43 41.866 43 38C43 34.134 39.866 31 36 31C32.134 31 29 34.134 29 38C29 41.866 32.134 45 36 45Z" stroke="#000" stroke-width="2" stroke-miterlimit="10" stroke-linecap="square" data-color="color-2" fill="none"></path> <path d="M19.0001 36.101L18.7359 36.3858C20.0189 34.9233 21.9016 34 24 34C26.0984 34 27.9811 34.9233 29.2641 36.3858L29.088 36.1925" stroke="#000" stroke-width="2" stroke-miterlimit="10" stroke-linecap="square" data-color="color-2" fill="none"></path> <path d="M12 45C15.866 45 19 41.866 19 38C19 34.134 15.866 31 12 31C8.13401 31 5 34.134 5 38C5 41.866 8.13401 45 12 45Z" stroke="#000" stroke-width="2" stroke-miterlimit="10" stroke-linecap="square" data-color="color-2" fill="none"></path> <path d="M5 24H43L37 17H11L5 24Z" stroke="black" stroke-width="2" stroke-miterlimit="10" stroke-linecap="square" fill="none"></path> </svg>