<svg xmlns="http://www.w3.org/2000/svg" xmlns:xlink="http://www.w3.org/1999/xlink" x="0px" y="0px" width="48px" height="48px" viewBox="0 0 48 48"> <path d="M38.5836 32.772L24 40.7068L9.39358 32.7847L10.8252 30.148L24 37.2927L37.152 30.1353L38.5836 32.772Z" fill="#000" data-color="color-2"></path> <path d="M38.5966 38.7691L24 46.7068L9.38019 38.8127L10.8118 36.176L24 43.2927L37.165 36.1324L38.5966 38.7691Z" fill="#000" data-color="color-2"></path> <path d="M38 2V5L10 5L10 2L38 2Z" fill="#000" data-color="color-2"></path> <path fill-rule="evenodd" clip-rule="evenodd" d="M38 26.5361L24 34.1377L10 26.5361V8H38V26.5361ZM21.584 16.3672L15.957 17.1162L20.0381 20.7529L19.0977 25.7568L23.999 23.4014L28.9004 25.7568L27.9609 20.7529L32.043 17.1162L26.4131 16.3672L24 11.8945L21.584 16.3672Z" fill="black"></path> </svg>