<svg xmlns="http://www.w3.org/2000/svg" xmlns:xlink="http://www.w3.org/1999/xlink" x="0px" y="0px" width="48px" height="48px" viewBox="0 0 48 48"> <path fill-rule="evenodd" clip-rule="evenodd" d="M43 18.3234L38.1947 15.2655L39.8053 12.7345L46 16.6766V19.4999H43V18.3234ZM4.99988 18.3234L9.80519 15.2655L8.19456 12.7345L1.99988 16.6766V19.4999H4.99988V18.3234Z" fill="black"></path> <path d="M24 30.0334L44.5039 18.3169L46 18V38C46 41.3137 43.3137 44 40 44H8C4.68629 44 2 41.3137 2 38V18H3L24 30.0334Z" fill="black"></path> <path d="M8 4V20.8905L11 22.6048V7H37V22.6048L40 20.8906V4H8Z" fill="#000" data-color="color-2"></path> <path fill-rule="evenodd" clip-rule="evenodd" d="M25 14L15 14L15 11L25 11L25 14Z" fill="black"></path> <path fill-rule="evenodd" clip-rule="evenodd" d="M33 14L28 14L28 11L33 11L33 14Z" fill="black"></path> <path fill-rule="evenodd" clip-rule="evenodd" d="M33 20L15 20L15 17L33 17L33 20Z" fill="black"></path> </svg>