<svg xmlns="http://www.w3.org/2000/svg" xmlns:xlink="http://www.w3.org/1999/xlink" x="0px" y="0px" width="18px" height="18px" viewBox="0 0 18 18"><path opacity="0.3" d="M11.9792 11.25H14.25C15.0784 11.25 15.75 10.578 15.75 9.75V3.75C15.75 2.922 15.0784 2.25 14.25 2.25H3.75C2.9216 2.25 2.25 2.922 2.25 3.75V9.75C2.25 10.578 2.9216 11.25 3.75 11.25H11.9792Z" fill="#000" data-color="color-2" data-stroke="none"></path> <path d="M11.9792 11.25H14.25C15.0784 11.25 15.75 10.578 15.75 9.75V3.75C15.75 2.922 15.0784 2.25 14.25 2.25H3.75C2.9216 2.25 2.25 2.922 2.25 3.75V9.75C2.25 10.578 2.9216 11.25 3.75 11.25H6" stroke="black" stroke-width="1.5" stroke-linecap="round" stroke-linejoin="round" fill="none"></path> <path d="M5 15.75H13" stroke="black" stroke-width="1.5" stroke-linecap="round" stroke-linejoin="round" fill="none"></path> <path d="M9 11.25V15.75" stroke="black" stroke-width="1.5" stroke-linecap="round" stroke-linejoin="round" fill="none"></path> <path d="M5.25 6.75H9" stroke="black" stroke-width="1.5" stroke-linecap="round" stroke-linejoin="round" fill="none"></path> <path d="M12 6.75H12.75" stroke="black" stroke-width="1.5" stroke-linecap="round" stroke-linejoin="round" fill="none"></path></svg>