<svg xmlns="http://www.w3.org/2000/svg" xmlns:xlink="http://www.w3.org/1999/xlink" x="0px" y="0px" width="18px" height="18px" viewBox="0 0 18 18"><path opacity="0.3" d="M14.902 9.21503L9 11.25L3.098 9.21503C2.291 8.93703 1.75 8.17801 1.75 7.32391V4.74988H16.25V7.32391C16.25 8.17691 15.709 8.93693 14.902 9.21503Z" fill="#000" data-color="color-2" data-stroke="none"></path> <path d="M9 9.5C9.414 9.5 9.75 9.164 9.75 8.75C9.75 8.336 9.414 8 9 8C8.586 8 8.25 8.336 8.25 8.75C8.25 9.164 8.586 9.5 9 9.5Z" fill="black" data-stroke="none"></path> <path d="M15.75 12.0957V13.25C15.75 14.355 14.855 15.25 13.75 15.25H4.25C3.145 15.25 2.25 14.355 2.25 13.25V12.0956" stroke="black" stroke-width="1.5" stroke-linecap="round" stroke-linejoin="round" fill="none"></path> <path d="M6.25 4.75V2.25C6.25 1.698 6.698 1.25 7.25 1.25H10.75C11.302 1.25 11.75 1.698 11.75 2.25V4.75" stroke="black" stroke-width="1.5" stroke-linecap="round" stroke-linejoin="round" fill="none"></path> <path d="M14.902 9.21503L9 11.25L3.098 9.21503C2.291 8.93703 1.75 8.17801 1.75 7.32391V4.74988H16.25V7.32391C16.25 8.17691 15.709 8.93693 14.902 9.21503Z" stroke="black" stroke-width="1.5" stroke-linecap="round" stroke-linejoin="round" fill="none"></path></svg>