<svg xmlns="http://www.w3.org/2000/svg" xmlns:xlink="http://www.w3.org/1999/xlink" x="0px" y="0px" width="18px" height="18px" viewBox="0 0 18 18"><path d="M9 4.75C10.1046 4.75 11 3.85457 11 2.75C11 1.64543 10.1046 0.75 9 0.75C7.89543 0.75 7 1.64543 7 2.75C7 3.85457 7.89543 4.75 9 4.75Z" fill="#000" fill-opacity="0.3" data-color="color-2" data-stroke="none"></path> <path d="M5.25 11C5.25 8.929 6.929 7.25 9 7.25C11.071 7.25 12.75 8.929 12.75 11" fill="#000" fill-opacity="0.3" data-color="color-2" data-stroke="none"></path> <path d="M9 4.75C10.1046 4.75 11 3.85457 11 2.75C11 1.64543 10.1046 0.75 9 0.75C7.89543 0.75 7 1.64543 7 2.75C7 3.85457 7.89543 4.75 9 4.75Z" stroke="black" stroke-width="1.5" stroke-linecap="round" stroke-linejoin="round" fill="none"></path> <path d="M5.25 11C5.25 8.929 6.929 7.25 9 7.25C11.071 7.25 12.75 8.929 12.75 11" stroke="black" stroke-width="1.5" stroke-linecap="round" stroke-linejoin="round" fill="none"></path> <path d="M2.75 11.75H15.25" stroke="black" stroke-width="1.5" stroke-linecap="round" stroke-linejoin="round" fill="none"></path> <path d="M4.75 11.75V17.25" stroke="black" stroke-width="1.5" stroke-linecap="round" stroke-linejoin="round" fill="none"></path> <path d="M13.25 11.75V17.25" stroke="black" stroke-width="1.5" stroke-linecap="round" stroke-linejoin="round" fill="none"></path></svg>