<svg xmlns="http://www.w3.org/2000/svg" xmlns:xlink="http://www.w3.org/1999/xlink" x="0px" y="0px" width="18px" height="18px" viewBox="0 0 18 18"><path fill-rule="evenodd" clip-rule="evenodd" d="M4.75 2.75H13.25C14.3546 2.75 15.25 3.64543 15.25 4.75V13.25C15.25 14.3546 14.3546 15.25 13.25 15.25H4.75C3.64543 15.25 2.75 14.3546 2.75 13.25V4.75C2.75 3.64543 3.64543 2.75 4.75 2.75ZM10.75 8.25C10.75 9.2165 9.9665 10 9 10C8.0335 10 7.25 9.2165 7.25 8.25C7.25 7.2835 8.0335 6.5 9 6.5C9.9665 6.5 10.75 7.2835 10.75 8.25Z" fill="#000" fill-opacity="0.3" data-color="color-2" data-stroke="none"></path> <path d="M13.25 2.75H4.75C3.64543 2.75 2.75 3.64543 2.75 4.75V13.25C2.75 14.3546 3.64543 15.25 4.75 15.25H13.25C14.3546 15.25 15.25 14.3546 15.25 13.25V4.75C15.25 3.64543 14.3546 2.75 13.25 2.75Z" stroke="black" stroke-width="1.5" stroke-linecap="round" stroke-linejoin="round" fill="none"></path> <path d="M4.75 15.25V16.75" stroke="black" stroke-width="1.5" stroke-linecap="round" stroke-linejoin="round" fill="none"></path> <path d="M13.25 15.25V16.75" stroke="black" stroke-width="1.5" stroke-linecap="round" stroke-linejoin="round" fill="none"></path> <path d="M1.75 9H3.75" stroke="black" stroke-width="1.5" stroke-linecap="round" stroke-linejoin="round" fill="none"></path> <path d="M1.75 5.75H3.75" stroke="black" stroke-width="1.5" stroke-linecap="round" stroke-linejoin="round" fill="none"></path> <path d="M1.75 12.25H3.75" stroke="black" stroke-width="1.5" stroke-linecap="round" stroke-linejoin="round" fill="none"></path> <path d="M9 10C9.9665 10 10.75 9.2165 10.75 8.25C10.75 7.2835 9.9665 6.5 9 6.5C8.0335 6.5 7.25 7.2835 7.25 8.25C7.25 9.2165 8.0335 10 9 10Z" stroke="black" stroke-width="1.5" stroke-linecap="round" stroke-linejoin="round" fill="none"></path> <path d="M9 11.75V10" stroke="black" stroke-width="1.5" stroke-linecap="round" stroke-linejoin="round" fill="none"></path></svg>