<svg xmlns="http://www.w3.org/2000/svg" xmlns:xlink="http://www.w3.org/1999/xlink" x="0px" y="0px" width="18px" height="18px" viewBox="0 0 18 18"><path d="m9,7.75l6.2905.0009c.5299,0,.9595-.4295.9595-.9594h0c0-.3408-.1808-.656-.475-.8281l-5.9513-3.4814c-.5088-.2977-1.1386-.2977-1.6475,0l-5.9513,3.4814c-.2942.1721-.475.4873-.475.8281h0c0,.5299.4296.9595.9595.9594l6.2905-.0009Z" fill="#000" opacity=".3" stroke-width="0" data-color="color-2"></path><path d="m2.25,15.75h13.5" fill="none" stroke="#000" stroke-linecap="round" stroke-linejoin="round" stroke-width="1.5"></path><path d="m2.75,12.75h12.5" fill="none" stroke="#000" stroke-linecap="round" stroke-linejoin="round" stroke-width="1.5"></path><path d="m9,7.75l6.2905.0009c.5299,0,.9595-.4295.9595-.9594h0c0-.3408-.1808-.656-.475-.8281l-5.9513-3.4814c-.5088-.2977-1.1386-.2977-1.6475,0l-5.9513,3.4814c-.2942.1721-.475.4873-.475.8281h0c0,.5299.4296.9595.9595.9594l6.2905-.0009Z" fill="none" stroke="#000" stroke-linecap="round" stroke-linejoin="round" stroke-width="1.5"></path><path d="m7.25,12.75v-4.5" fill="none" stroke="#000" stroke-linecap="round" stroke-linejoin="round" stroke-width="1.5"></path><path d="m3.75,12.75v-4.5" fill="none" stroke="#000" stroke-linecap="round" stroke-linejoin="round" stroke-width="1.5"></path><path d="m10.75,12.75v-4.5" fill="none" stroke="#000" stroke-linecap="round" stroke-linejoin="round" stroke-width="1.5"></path><path d="m14.25,12.75v-4.5" fill="none" stroke="#000" stroke-linecap="round" stroke-linejoin="round" stroke-width="1.5"></path><path d="m9,6.25c.552,0,1-.448,1-1s-.448-1-1-1-1,.448-1,1,.448,1,1,1Z" stroke-width="0" fill="#000"></path></svg>