<svg xmlns="http://www.w3.org/2000/svg" xmlns:xlink="http://www.w3.org/1999/xlink" x="0px" y="0px" width="18px" height="18px" viewBox="0 0 18 18"><path opacity="0.3" d="M9 16.25C13.004 16.25 16.25 13.004 16.25 9C16.25 4.996 13.004 1.75 9 1.75C4.996 1.75 1.75 4.996 1.75 9C1.75 13.004 4.996 16.25 9 16.25Z" fill="#000" data-color="color-2" data-stroke="none"></path> <path d="M9 16.25C13.0041 16.25 16.25 13.004 16.25 9C16.25 4.996 13.0041 1.75 9 1.75C4.9959 1.75 1.75 4.996 1.75 9C1.75 13.004 4.9959 16.25 9 16.25Z" stroke="black" stroke-width="1.5" stroke-linecap="round" stroke-linejoin="round" fill="none"></path> <path d="M10.75 6.25011H8.3748C7.6155 6.25011 7 6.86561 7 7.62491C7 8.38421 7.6155 9.00011 8.3748 9.00011H9.62511C10.3844 9.00011 10.9999 9.61561 10.9999 10.3749C10.9999 11.1342 10.3844 11.7498 9.62511 11.7498H7.24989M8.99989 5.24991V6.25011M8.99989 12.7499V11.7499" stroke="black" stroke-width="1.5" stroke-linecap="round" stroke-linejoin="round" fill="none"></path></svg>