<svg xmlns="http://www.w3.org/2000/svg" xmlns:xlink="http://www.w3.org/1999/xlink" x="0px" y="0px" width="18px" height="18px" viewBox="0 0 18 18"><path fill-rule="evenodd" clip-rule="evenodd" d="M4.16729 10.75H13.8332C13.7988 10.0883 13.7801 9.40033 13.781 8.68798C13.784 6.91898 13.908 5.30198 14.091 3.86698C14.167 3.27198 13.7 2.75098 13.1 2.75098H9H4.9C4.3 2.75098 3.833 3.27198 3.909 3.86698C4.092 5.30298 4.216 6.91998 4.219 8.68798C4.22024 9.40026 4.20164 10.0883 4.16729 10.75Z" fill="#000" fill-opacity="0.3" data-color="color-2" data-stroke="none"></path> <path d="M14.25 14.75C13.979 13.025 13.778 10.983 13.781 8.68798C13.784 6.91898 13.908 5.30198 14.091 3.86698C14.167 3.27198 13.7 2.75098 13.1 2.75098H9H4.9C4.3 2.75098 3.833 3.27198 3.909 3.86698C4.092 5.30298 4.216 6.91998 4.219 8.68798C4.223 10.983 4.021 13.026 3.75 14.75" stroke="black" stroke-width="1.5" stroke-linecap="round" stroke-linejoin="round" fill="none"></path> <path d="M4.16699 10.75H13.833" stroke="black" stroke-width="1.5" stroke-linecap="round" stroke-linejoin="round" fill="none"></path> <path d="M16.75 12.75C16.75 13.855 15.855 14.75 14.75 14.75H9H3.25C2.145 14.75 1.25 13.855 1.25 12.75" stroke="black" stroke-width="1.5" stroke-linecap="round" stroke-linejoin="round" fill="none"></path></svg>