<svg xmlns="http://www.w3.org/2000/svg" xmlns:xlink="http://www.w3.org/1999/xlink" x="0px" y="0px" width="18px" height="18px" viewBox="0 0 18 18"><path d="M16.25 12.25V5.75C15.145 5.75 14.25 4.854 14.25 3.75H3.75C3.75 4.854 2.855 5.75 1.75 5.75V12.25C2.855 12.25 3.75 13.146 3.75 14.25H14.25C14.25 13.146 15.145 12.25 16.25 12.25Z" fill="#000" fill-opacity="0.3" data-color="color-2" data-stroke="none"></path> <path d="M16.25 12.25V5.75C15.145 5.75 14.25 4.854 14.25 3.75H3.75C3.75 4.854 2.855 5.75 1.75 5.75V12.25C2.855 12.25 3.75 13.146 3.75 14.25H14.25C14.25 13.146 15.145 12.25 16.25 12.25Z" stroke="black" stroke-width="1.5" stroke-linecap="round" stroke-linejoin="round" fill="none"></path> <path d="M5.75 7.75H12.25" stroke="black" stroke-width="1.5" stroke-linecap="round" stroke-linejoin="round" fill="none"></path> <path d="M5.75 10.75H12.25" stroke="black" stroke-width="1.5" stroke-linecap="round" stroke-linejoin="round" fill="none"></path></svg>