<svg xmlns="http://www.w3.org/2000/svg" xmlns:xlink="http://www.w3.org/1999/xlink" x="0px" y="0px" width="20px" height="20px" viewBox="0 0 20 20"><path d="m16.828,8.414l-5.535-5.535c-.566-.567-1.32-.879-2.121-.879h-5.172c-1.103,0-2,.897-2,2v5.171c0,.801.312,1.555.879,2.122l5.535,5.535c.78.78,1.804,1.17,2.828,1.17s2.05-.39,2.829-1.17l2.757-2.757c.756-.755,1.172-1.76,1.172-2.828s-.416-2.073-1.172-2.829Zm-9.578.086c-.69,0-1.25-.56-1.25-1.25s.56-1.25,1.25-1.25,1.25.56,1.25,1.25-.56,1.25-1.25,1.25Z" stroke-width="0" fill="#000"></path></svg>