<svg xmlns="http://www.w3.org/2000/svg" xmlns:xlink="http://www.w3.org/1999/xlink" x="0px" y="0px" width="20px" height="20px" viewBox="0 0 20 20"><path d="m12.5,6.5c0,1.3807-1.1193,2.5-2.5,2.5s-2.5-1.1193-2.5-2.5" fill="none" stroke="#000" stroke-linecap="round" stroke-linejoin="round" stroke-width="2"></path><path d="m16.0001,17.236c-.5308.4751-1.2317.764-2.0001.764-1.6569,0-3-1.3431-3-3s1.3431-3,3-3c.8884,0,1.6867.3862,2.236.9999" fill="none" stroke="#000" stroke-linecap="round" stroke-linejoin="round" stroke-width="2" data-color="color-2"></path><path d="m16.2686,8.6754l-.4428-3.0996c-.2111-1.478-1.4769-2.5757-2.9698-2.5757h-5.7079c-1.493,0-2.7587,1.0978-2.9698,2.5757l-1.1429,8c-.2582,1.8073,1.1442,3.4243,2.9698,3.4243h1.813" fill="none" stroke="#000" stroke-linecap="round" stroke-linejoin="round" stroke-width="2"></path><path d="m17.25,11c.0967,0,.1943.0186.2871.0571.2803.1162.4629.3896.4629.6929v2.5c0,.4141-.3359.75-.75.75h-2.5c-.3032,0-.5767-.1826-.6929-.4629s-.0518-.603.1626-.8174l2.5-2.5c.1436-.1436.3354-.2197.5303-.2197Z" fill="#000" stroke-width="0" data-color="color-2"></path></svg>