<svg xmlns="http://www.w3.org/2000/svg" xmlns:xlink="http://www.w3.org/1999/xlink" x="0px" y="0px" width="20px" height="20px" viewBox="0 0 20 20"><path d="m13.5586,14h-5.7686c-1.5312,0-2.8125-1.1475-2.9814-2.6689l-.7422-6.6802-1.5137-.7563c-.4941-.2471-.6943-.8477-.4473-1.3418.248-.4941.8486-.6934,1.3418-.4473l1.5137.7568c.6084.3042,1.0166.8896,1.0938,1.5659l.1738,1.5718h9.3838c.6416,0,1.248.3105,1.623.8306s.4775,1.1938.2754,1.8018l-1.1064,3.3164c-.4092,1.2271-1.5527,2.0513-2.8457,2.0513Z" stroke-width="0" fill="#000"></path><circle cx="6.5" cy="16.5" r="1.5" fill="#000" stroke-width="0" data-color="color-2"></circle><circle cx="14.5" cy="16.5" r="1.5" fill="#000" stroke-width="0" data-color="color-2"></circle></svg>