<svg xmlns="http://www.w3.org/2000/svg" xmlns:xlink="http://www.w3.org/1999/xlink" x="0px" y="0px" width="20px" height="20px" viewBox="0 0 20 20"><path d="m17.5,8c.1736,0,.3392.0292.5.071v-1.571c0-1.9297-1.5703-3.5-3.5-3.5H5.5c-1.9297,0-3.5,1.5703-3.5,3.5v1.571c.1608-.0418.3264-.071.5-.071,1.103,0,2,.897,2,2s-.897,2-2,2c-.1736,0-.3392-.0293-.5-.071v1.571c0,1.9297,1.5703,3.5,3.5,3.5h9c1.9297,0,3.5-1.5703,3.5-3.5v-1.571c-.1608.0417-.3264.071-.5.071-1.103,0-2-.897-2-2s.897-2,2-2Zm-9.375,7c-.6213,0-1.125-.5037-1.125-1.125s.5037-1.125,1.125-1.125,1.125.5037,1.125,1.125-.5037,1.125-1.125,1.125Zm0-3.875c-.6213,0-1.125-.5037-1.125-1.125s.5037-1.125,1.125-1.125,1.125.5037,1.125,1.125-.5037,1.125-1.125,1.125Zm0-3.875c-.6213,0-1.125-.5037-1.125-1.125s.5037-1.125,1.125-1.125,1.125.5037,1.125,1.125-.5037,1.125-1.125,1.125Z" stroke-width="0" fill="#000"></path></svg>