<svg xmlns="http://www.w3.org/2000/svg" xmlns:xlink="http://www.w3.org/1999/xlink" x="0px" y="0px" width="20px" height="20px" viewBox="0 0 20 20"><path d="m7.0965,17.1457c1.3868.6011,2.6215.8211,2.739.8406.0547.0093.1094.0137.1646.0137s.1099-.0044.1646-.0137c.2788-.0464,6.8354-1.1943,6.8354-5.9863v-4.7578l-9.9035,9.9035Z" stroke-width="0" fill="#000"></path><path d="m16.0406,3.9594l-5.7242-1.9081c-.2061-.0684-.4268-.0684-.6328,0l-6,2c-.4082.1362-.6836.5181-.6836.9487v7c0,1.4885.6336,2.6243,1.5142,3.4858L16.0406,3.9594Z" stroke-width="0" fill="#000"></path><path d="m3,18c-.2559,0-.5117-.0977-.707-.293-.3906-.3906-.3906-1.0234,0-1.4141L16.293,2.293c.3906-.3906,1.0234-.3906,1.4141,0s.3906,1.0234,0,1.4141L3.707,17.707c-.1953.1953-.4512.293-.707.293Z" fill="#000" stroke-width="0" data-color="color-2"></path></svg>