<svg xmlns="http://www.w3.org/2000/svg" xmlns:xlink="http://www.w3.org/1999/xlink" x="0px" y="0px" width="20px" height="20px" viewBox="0 0 20 20"><path d="m5,5c0-1.104.8958-2,2-2,2.4657,0,3,4,3,4h-3c-1.0417,0-2-.896-2-2Z" fill="none" stroke="#000" stroke-linecap="round" stroke-linejoin="round" stroke-width="2" data-color="color-2"></path><path d="m13,7h-3s.5343-4,3-4c1.1042,0,2,.896,2,2,0,1.104-.9583,2-2,2Z" fill="none" stroke="#000" stroke-linecap="round" stroke-linejoin="round" stroke-width="2" data-color="color-2"></path><line x1="17" y1="7" x2="3" y2="7" fill="none" stroke="#000" stroke-linecap="round" stroke-linejoin="round" stroke-width="2" data-color="color-2"></line><path d="m15.5,10.5v4c0,1.3807-1.1193,2.5-2.5,2.5h-6c-1.3807,0-2.5-1.1193-2.5-2.5v-4" fill="none" stroke="#000" stroke-linecap="round" stroke-linejoin="round" stroke-width="2"></path><line x1="10" y1="10.5" x2="10" y2="17" fill="none" stroke="#000" stroke-linecap="round" stroke-linejoin="round" stroke-width="2"></line></svg>