<svg xmlns="http://www.w3.org/2000/svg" xmlns:xlink="http://www.w3.org/1999/xlink" x="0px" y="0px" width="20px" height="20px" viewBox="0 0 20 20"><path d="m10,16h4c1.6569,0,3-1.3431,3-3v-1c-1.1046,0-2-.8954-2-2,0-1.1046.8954-2,2-2v-1c0-1.6569-1.3431-3-3-3h-4s-4,0-4,0c-1.6569,0-3,1.3431-3,3v1c1.1046,0,2,.8954,2,2s-.8954,2-2,2v1c0,1.6569,1.3431,3,3,3,0,0,4,0,4,0Z" fill="none" stroke="#000" stroke-linecap="round" stroke-linejoin="round" stroke-width="2"></path><circle cx="9" cy="7" r="1" fill="#000" stroke-width="0" data-color="color-2"></circle><circle cx="9" cy="10" r="1" fill="#000" stroke-width="0" data-color="color-2"></circle><circle cx="9" cy="13" r="1" fill="#000" stroke-width="0" data-color="color-2"></circle></svg>