<svg xmlns="http://www.w3.org/2000/svg" xmlns:xlink="http://www.w3.org/1999/xlink" x="0px" y="0px" width="20px" height="20px" viewBox="0 0 20 20"><path d="m12.5,6.5c0,1.3807-1.1193,2.5-2.5,2.5s-2.5-1.1193-2.5-2.5" fill="none" stroke="#000" stroke-linecap="round" stroke-linejoin="round" stroke-width="2"></path><path d="m16.1542,7.8746l-.3284-2.2989c-.2111-1.478-1.4769-2.5757-2.9698-2.5757h-5.7079c-1.493,0-2.7587,1.0978-2.9698,2.5757l-1.1429,8c-.2582,1.8073,1.1442,3.4243,2.9698,3.4243h2.2344" fill="none" stroke="#000" stroke-linecap="round" stroke-linejoin="round" stroke-width="2"></path><path d="m14,10c-2.2092,0-4,1.7908-4,4s1.7908,4,4,4,4-1.7909,4-4-1.7908-4-4-4Zm2.0312,5.6245c-.1982.2471-.4883.3755-.7822.3755-.2188,0-.4395-.0718-.624-.2192l-1.25-1c-.2373-.1895-.375-.4771-.375-.7808v-1.5c0-.5522.4473-1,1-1s1,.4478,1,1v1.0195l.875.6997c.4307.3447.501.9741.1562,1.4053Z" fill="#000" stroke-width="0" data-color="color-2"></path></svg>