<svg xmlns="http://www.w3.org/2000/svg" xmlns:xlink="http://www.w3.org/1999/xlink" x="0px" y="0px" width="18px" height="18px" viewBox="0 0 18 18"><path d="M9.25 9.75L6.5 13.25H8.905L7.75 16.25L10.5 12.75H8.095L9.25 9.75Z" fill="#000" stroke="#000" stroke-width="1.5" stroke-linecap="round" stroke-linejoin="round" data-color="color-2"></path> <path d="M9.70502 7C10.392 6.233 11.389 5.75 12.5 5.75C12.833 5.75 13.157 5.809 13.464 5.891" stroke="black" stroke-width="1.5" stroke-linecap="round" stroke-linejoin="round" fill="none"></path> <path d="M13.476 13.1086C15.0717 12.6779 16.25 11.2321 16.25 9.5C16.25 7.7639 15.065 6.3179 13.464 5.8911C13.278 3.5769 11.362 1.75 9 1.75C6.515 1.75 4.5 3.7651 4.5 6.25C4.5 6.6001 4.549 6.936 4.624 7.2629C3.027 7.33 1.75 8.6369 1.75 10.25C1.75 11.4666 2.4745 12.5122 3.5151 12.9829" stroke="black" stroke-width="1.5" stroke-linecap="round" stroke-linejoin="round" fill="none"></path></svg>