<svg xmlns="http://www.w3.org/2000/svg" xmlns:xlink="http://www.w3.org/1999/xlink" x="0px" y="0px" width="18px" height="18px" viewBox="0 0 18 18"><line x1="1.75" y1="13.25" x2="11.25" y2="13.25" fill="none" stroke="#000" stroke-linecap="round" stroke-linejoin="round" stroke-width="1.5"></line><line x1="8.75" y1="16.25" x2="14.25" y2="16.25" fill="none" stroke="#000" stroke-linecap="round" stroke-linejoin="round" stroke-width="1.5"></line><line x1="14.25" y1="13.25" x2="16.25" y2="13.25" fill="none" stroke="#000" stroke-linecap="round" stroke-linejoin="round" stroke-width="1.5"></line><line x1="3.75" y1="16.25" x2="5.75" y2="16.25" fill="none" stroke="#000" stroke-linecap="round" stroke-linejoin="round" stroke-width="1.5"></line><path d="M5,10.189c-.162-.449-.25-.934-.25-1.439,0-2.347,1.903-4.25,4.25-4.25s4.25,1.903,4.25,4.25c0,.505-.088,.99-.25,1.439" fill="none" stroke="#000" stroke-linecap="round" stroke-linejoin="round" stroke-width="1.5" data-color="color-2"></path><line x1="9" y1="1.25" x2="9" y2="2.25" fill="none" stroke="#000" stroke-linecap="round" stroke-linejoin="round" stroke-width="1.5" data-color="color-2"></line><line x1="14.48" y1="3.27" x2="13.773" y2="3.977" fill="none" stroke="#000" stroke-linecap="round" stroke-linejoin="round" stroke-width="1.5" data-color="color-2"></line><line x1="16.75" y1="8.75" x2="15.75" y2="8.75" fill="none" stroke="#000" stroke-linecap="round" stroke-linejoin="round" stroke-width="1.5" data-color="color-2"></line><line x1="3.52" y1="3.27" x2="4.227" y2="3.977" fill="none" stroke="#000" stroke-linecap="round" stroke-linejoin="round" stroke-width="1.5" data-color="color-2"></line><line x1="1.25" y1="8.75" x2="2.25" y2="8.75" fill="none" stroke="#000" stroke-linecap="round" stroke-linejoin="round" stroke-width="1.5" data-color="color-2"></line></svg>