<svg xmlns="http://www.w3.org/2000/svg" xmlns:xlink="http://www.w3.org/1999/xlink" x="0px" y="0px" width="18px" height="18px" viewBox="0 0 18 18"><path d="M8.25098 6.826V6.75C8.25098 5.093 9.59398 3.75 11.251 3.75C12.908 3.75 14.251 5.093 14.251 6.75C14.251 6.834 14.248 6.918 14.241 7" stroke="#000" stroke-width="1.5" stroke-linecap="round" stroke-linejoin="round" data-color="color-2" fill="none"></path> <path d="M11.25 0.75V1.25" stroke="#000" stroke-width="1.5" stroke-linecap="round" stroke-linejoin="round" data-color="color-2" fill="none"></path> <path d="M15.493 2.507L15.139 2.861" stroke="#000" stroke-width="1.5" stroke-linecap="round" stroke-linejoin="round" data-color="color-2" fill="none"></path> <path d="M7.00696 2.507L7.36096 2.861" stroke="#000" stroke-width="1.5" stroke-linecap="round" stroke-linejoin="round" data-color="color-2" fill="none"></path> <path d="M17.25 6.75H16.75" stroke="#000" stroke-width="1.5" stroke-linecap="round" stroke-linejoin="round" data-color="color-2" fill="none"></path> <path d="M11.585 10.499C11.824 10.086 12.179 9.74701 12.605 9.52701" stroke="black" stroke-width="1.5" stroke-linecap="round" stroke-linejoin="round" fill="none"></path> <path d="M8.75 12.25V17.25" stroke="#000" stroke-width="1.5" stroke-linecap="round" stroke-linejoin="round" data-color="color-2" fill="none"></path> <path d="M6.58496 13.5L10.915 16" stroke="#000" stroke-width="1.5" stroke-linecap="round" stroke-linejoin="round" data-color="color-2" fill="none"></path> <path d="M6.58496 16L10.915 13.5" stroke="#000" stroke-width="1.5" stroke-linecap="round" stroke-linejoin="round" data-color="color-2" fill="none"></path> <path d="M13.8002 14.2449C15.1575 14.2176 16.25 13.1138 16.25 11.75C16.25 10.3691 15.131 9.25 13.75 9.25C13.337 9.25 12.953 9.3599 12.61 9.5371C12.1831 7.935 10.736 6.75 9 6.75C7.264 6.75 5.81801 7.936 5.39001 9.5371C5.04701 9.3599 4.663 9.25 4.25 9.25C2.869 9.25 1.75 10.3691 1.75 11.75C1.75 12.9333 2.574 13.9187 3.6781 14.1782" stroke="black" stroke-width="1.5" stroke-linecap="round" stroke-linejoin="round" fill="none"></path></svg>