<svg xmlns="http://www.w3.org/2000/svg" xmlns:xlink="http://www.w3.org/1999/xlink" x="0px" y="0px" width="18px" height="18px" viewBox="0 0 18 18"><path d="M2.75,9H13.25c1.105,0,2,.895,2,2s-.895,2-2,2c-.895,0-1.653-.588-1.908-1.399" fill="none" stroke="#000" stroke-linecap="round" stroke-linejoin="round" stroke-width="1.5" data-color="color-2"></path><path d="M2.75,12.25H7c1.105,0,2,.895,2,2s-.895,2-2,2c-.895,0-1.653-.588-1.908-1.399" fill="none" stroke="#000" stroke-linecap="round" stroke-linejoin="round" stroke-width="1.5"></path><path d="M2.75,5.75H10.75c1.105,0,2-.895,2-2s-.895-2-2-2c-.895,0-1.653,.588-1.908,1.399" fill="none" stroke="#000" stroke-linecap="round" stroke-linejoin="round" stroke-width="1.5"></path></svg>