<svg xmlns="http://www.w3.org/2000/svg" xmlns:xlink="http://www.w3.org/1999/xlink" x="0px" y="0px" width="18px" height="18px" viewBox="0 0 18 18"><path d="M3.5,7.25c.966,0,1.75-.767,1.75-1.712,0-1.301-.981-1.857-1.75-2.788-.769,.931-1.75,1.487-1.75,2.788,0,.946,.784,1.712,1.75,1.712Z" fill="none" stroke="#000" stroke-linecap="round" stroke-linejoin="round" stroke-width="1.5" data-color="color-2"></path><path d="M14.5,7.25c-.966,0-1.75-.767-1.75-1.712,0-1.301,.981-1.857,1.75-2.788,.769,.931,1.75,1.487,1.75,2.788,0,.946-.784,1.712-1.75,1.712Z" fill="none" stroke="#000" stroke-linecap="round" stroke-linejoin="round" stroke-width="1.5" data-color="color-2"></path><path d="M9,15.25c1.795,0,3.25-1.533,3.25-3.425,0-2.601-1.822-3.713-3.25-5.575-1.428,1.862-3.25,2.974-3.25,5.575,0,1.891,1.455,3.425,3.25,3.425Z" fill="none" stroke="#000" stroke-linecap="round" stroke-linejoin="round" stroke-width="1.5"></path></svg>