<svg xmlns="http://www.w3.org/2000/svg" xmlns:xlink="http://www.w3.org/1999/xlink" x="0px" y="0px" width="18px" height="18px" viewBox="0 0 18 18"><path d="M17.25 6.75H16.75" stroke="#000" stroke-width="1.5" stroke-linecap="round" stroke-linejoin="round" data-color="color-2" fill="none"></path> <path d="M8.25098 6.826V6.75C8.25098 5.093 9.59398 3.75 11.251 3.75C12.908 3.75 14.251 5.093 14.251 6.75C14.251 6.834 14.248 6.918 14.241 7" stroke="#000" stroke-width="1.5" stroke-linecap="round" stroke-linejoin="round" data-color="color-2" fill="none"></path> <path d="M11.25 0.75V1.25" stroke="#000" stroke-width="1.5" stroke-linecap="round" stroke-linejoin="round" data-color="color-2" fill="none"></path> <path d="M15.493 2.507L15.139 2.861" stroke="#000" stroke-width="1.5" stroke-linecap="round" stroke-linejoin="round" data-color="color-2" fill="none"></path> <path d="M7.00702 2.507L7.36101 2.861" stroke="#000" stroke-width="1.5" stroke-linecap="round" stroke-linejoin="round" data-color="color-2" fill="none"></path> <path d="M11.585 10.499C11.824 10.086 12.179 9.74701 12.605 9.52701" stroke="black" stroke-width="1.5" stroke-linecap="round" stroke-linejoin="round" fill="none"></path> <path d="M9 17.25C10.036 17.25 10.875 16.398 10.875 15.347C10.875 13.902 9.824 13.284 9 12.25C8.176 13.284 7.125 13.902 7.125 15.347C7.125 16.398 7.964 17.25 9 17.25Z" stroke="#000" stroke-width="1.5" stroke-linecap="round" stroke-linejoin="round" data-color="color-2" fill="none"></path> <path d="M13.757 14.2493C15.1346 14.2454 16.25 13.1285 16.25 11.75C16.25 10.3691 15.131 9.25 13.75 9.25C13.337 9.25 12.953 9.3599 12.61 9.5371C12.182 7.936 10.736 6.75 9 6.75C7.264 6.75 5.817 7.9351 5.39 9.5371C5.047 9.3599 4.663 9.25 4.25 9.25C2.869 9.25 1.75 10.3691 1.75 11.75C1.75 13.1284 2.8654 14.2454 4.243 14.2493" stroke="black" stroke-width="1.5" stroke-linecap="round" stroke-linejoin="round" fill="none"></path></svg>