<svg xmlns="http://www.w3.org/2000/svg" xmlns:xlink="http://www.w3.org/1999/xlink" x="0px" y="0px" width="48px" height="48px" viewBox="0 0 48 48"> <path d="M19.1333 38.9046L19.146 38.85C19.058 39.221 19 39.602 19 40C19 42.761 21.239 45 24 45C26.761 45 29 42.761 29 40C29 39.603 28.942 39.221 28.854 38.85L28.8744 38.9387" stroke="#000" stroke-width="2" stroke-miterlimit="10" stroke-linecap="square" data-color="color-2" fill="none"></path> <path d="M16.421 38.645C24.947 39.443 33.473 38.894 42 37V34C42 34 37 30 37 20V18.071" stroke="black" stroke-width="2" stroke-miterlimit="10" stroke-linecap="square" fill="none"></path> <path d="M10.493 37.5L10.173 37.82C8.782 37.582 7.391 37.309 6 37V34C6 34 11 30 11 20V16C11 8.82 16.82 3 24 3C29.68 3 34.51 6.643 36.279 11.721L35.5 12.5" stroke="black" stroke-width="2" stroke-miterlimit="10" stroke-linecap="square" fill="none"></path> <path d="M4 44L44 4" stroke="#000" stroke-width="2" stroke-miterlimit="10" stroke-linecap="square" data-color="color-2" fill="none"></path> </svg>