<svg xmlns="http://www.w3.org/2000/svg" xmlns:xlink="http://www.w3.org/1999/xlink" x="0px" y="0px" width="24px" height="24px" viewBox="0 0 24 24"> <path d="M3 16H2V15H3" stroke="#000" stroke-width="2" stroke-linecap="square" data-color="color-2" fill="none"></path> <path d="M21 19H14" stroke="black" stroke-width="2" stroke-linecap="square" fill="none"></path> <path d="M4 5H6L9.5 10L8.8 9" stroke="#000" stroke-width="2" stroke-linecap="square" data-color="color-2" fill="none"></path> <path d="M21 4H15.5038C14.8168 4 14.1778 4.35261 13.8116 4.93386L10.6 10.0312L4.87688 10.3842C3.82212 10.4493 3 11.3237 3 12.3804V17C3 18.1046 3.89543 19 5 19H8" stroke="black" stroke-width="2" stroke-linecap="square" fill="none"></path> <path d="M11 22C12.6569 22 14 20.6569 14 19C14 17.3431 12.6569 16 11 16C9.34315 16 8 17.3431 8 19C8 20.6569 9.34315 22 11 22Z" stroke="#000" stroke-width="2" stroke-miterlimit="10" stroke-linecap="square" data-color="color-2" fill="none"></path> </svg>