<svg xmlns="http://www.w3.org/2000/svg" xmlns:xlink="http://www.w3.org/1999/xlink" x="0px" y="0px" width="24px" height="24px" viewBox="0 0 24 24"><path d="M12 5H7.48806C6.60484 5 5.8262 5.57934 5.57241 6.4253L4.5 10L3.25722 10.4971C2.4979 10.8008 2 11.5363 2 12.3541V19C2 19.5523 2.44772 20 3 20H5C5.55228 20 6 19.5523 6 19V18H10" stroke="black" stroke-width="2" stroke-linecap="square" fill="none"></path> <path d="M1.00999 8H0.999995" stroke="black" stroke-width="2" stroke-linecap="square" fill="none"></path> <path fill-rule="evenodd" clip-rule="evenodd" d="M4 13H8.01C8.01 14.1046 7.11457 15 6.01 15H4V13Z" fill="black" data-cap="butt" data-stroke="none"></path> <path d="M17.5 4C16.671 4 16 3.329 16 2.5C16 1.671 16.671 1 17.5 1C18.329 1 19 1.671 19 2.5C19 3.329 18.329 4 17.5 4Z" fill="#000" stroke="#000" stroke-width="2" stroke-miterlimit="10" stroke-linecap="square" data-color="color-2"></path> <path d="M19.5 21H17.5H15.5L15 15L13 14L13.83 9.019C13.942 8.347 14.383 7.76 15.015 7.504C16.672 6.832 18.328 6.832 19.985 7.504C20.616 7.76 21.058 8.347 21.17 9.019L22 14L20 15L19.5 21Z" stroke="#000" stroke-width="2" stroke-miterlimit="10" stroke-linecap="square" data-color="color-2" fill="none"></path></svg>