<svg xmlns="http://www.w3.org/2000/svg" xmlns:xlink="http://www.w3.org/1999/xlink" x="0px" y="0px" width="24px" height="24px" viewBox="0 0 24 24"><path d="M22 13V10.3541C22 9.53626 21.5021 8.80084 20.7428 8.49711L19.5 8L18.4276 4.4253C18.1738 3.57934 17.3952 3 16.5119 3H7.48806C6.60484 3 5.8262 3.57934 5.57241 4.4253L4.5 8L3.25722 8.49711C2.4979 8.80084 2 9.53626 2 10.3541V13" stroke="black" stroke-width="2" stroke-linecap="square" fill="none"></path> <path d="M23 6H22.99" stroke="black" stroke-width="2" stroke-linecap="square" fill="none"></path> <path d="M1.00999 6H0.999995" stroke="black" stroke-width="2" stroke-linecap="square" fill="none"></path> <path fill-rule="evenodd" clip-rule="evenodd" d="M4 11H8.01C8.01 12.1046 7.11457 13 6.01 13H4V11Z" fill="black" data-cap="butt" data-stroke="none"></path> <path fill-rule="evenodd" clip-rule="evenodd" d="M20.01 11H16C16 12.1046 16.8954 13 18 13H20.01V11Z" fill="black" data-cap="butt" data-stroke="none"></path> <path d="M12 21V17" stroke="#000" stroke-width="2" stroke-linecap="square" data-color="color-2" fill="none"></path> <path d="M16 21V20" stroke="#000" stroke-width="2" stroke-linecap="square" data-color="color-2" fill="none"></path> <path d="M4 21V20" stroke="#000" stroke-width="2" stroke-linecap="square" data-color="color-2" fill="none"></path> <path d="M20 21V18" stroke="#000" stroke-width="2" stroke-linecap="square" data-color="color-2" fill="none"></path> <path d="M8 21V19" stroke="#000" stroke-width="2" stroke-linecap="square" data-color="color-2" fill="none"></path></svg>