<svg xmlns="http://www.w3.org/2000/svg" xmlns:xlink="http://www.w3.org/1999/xlink" x="0px" y="0px" width="32px" height="32px" viewBox="0 0 32 32"> <path d="M29.5 18H25V19H29.5" stroke="black" stroke-width="2" data-cap="butt" fill="none"></path> <path d="M5.00003 5H13.1679L18 13L30 15.5L28.868 23.4243C28.6568 24.9022 27.3911 26 25.8981 26H22H22.6667" stroke="black" stroke-width="2" stroke-miterlimit="10" stroke-linecap="square" fill="none"></path> <path d="M2 26H13H12.3333" stroke="black" stroke-width="2" stroke-miterlimit="10" stroke-linecap="square" fill="none"></path> <path d="M1 21H6" stroke="#000" stroke-width="2" stroke-miterlimit="10" stroke-linecap="square" data-color="color-2" fill="none"></path> <path d="M8 17H13" stroke="#000" stroke-width="2" stroke-miterlimit="10" stroke-linecap="square" data-color="color-2" fill="none"></path> <path d="M10 21H10.0133" stroke="#000" stroke-width="2" stroke-miterlimit="10" stroke-linecap="square" data-color="color-2" fill="none"></path> <path d="M17.5 30.5C19.9853 30.5 22 28.4853 22 26C22 23.5147 19.9853 21.5 17.5 21.5C15.0147 21.5 13 23.5147 13 26C13 28.4853 15.0147 30.5 17.5 30.5Z" stroke="#000" stroke-width="2" stroke-miterlimit="10" stroke-linecap="square" data-color="color-2" fill="none"></path> <path d="M17.5 27.5C18.3284 27.5 19 26.8284 19 26C19 25.1716 18.3284 24.5 17.5 24.5C16.6716 24.5 16 25.1716 16 26C16 26.8284 16.6716 27.5 17.5 27.5Z" fill="black" data-cap="butt" data-stroke="none"></path> </svg>