<svg xmlns="http://www.w3.org/2000/svg" xmlns:xlink="http://www.w3.org/1999/xlink" x="0px" y="0px" width="32px" height="32px" viewBox="0 0 32 32"><path d="M31 9H30" stroke="black" stroke-width="2" stroke-linecap="square" fill="none"></path> <path d="M2 9H1" stroke="black" stroke-width="2" stroke-linecap="square" fill="none"></path> <path d="M30 19V14.5451C30 13.5982 29.465 12.7325 28.618 12.309L27 11.5L25.5939 6.22701C25.2437 4.91375 24.0543 4 22.6952 4H9.30483C7.94568 4 6.75633 4.91375 6.40613 6.22701L5 11.5L3.38197 12.309C2.53501 12.7325 2 13.5982 2 14.5451V19" stroke="black" stroke-width="2" stroke-linecap="square" fill="none"></path> <path d="M24.5 17.5L27 17.5L27 15L22 15C22 16.3807 23.1193 17.5 24.5 17.5Z" fill="black" data-cap="butt" data-stroke="none"></path> <path d="M7.5 17.5L5 17.5L5 15L10 15C10 16.3807 8.88071 17.5 7.5 17.5Z" fill="black" data-cap="butt" data-stroke="none"></path> <path d="M16 8L14 12H16H18L16 16" stroke="#000" stroke-width="2" stroke-linecap="square" data-color="color-2" fill="none"></path> <path d="M16 28V23" stroke="#000" stroke-width="2" stroke-linecap="square" data-color="color-2" fill="none"></path> <path d="M20 28V27" stroke="#000" stroke-width="2" stroke-linecap="square" data-color="color-2" fill="none"></path> <path d="M28 28V25" stroke="#000" stroke-width="2" stroke-linecap="square" data-color="color-2" fill="none"></path> <path d="M8 28V24" stroke="#000" stroke-width="2" stroke-linecap="square" data-color="color-2" fill="none"></path> <path d="M4 28V27" stroke="#000" stroke-width="2" stroke-linecap="square" data-color="color-2" fill="none"></path> <path d="M24 28V24" stroke="#000" stroke-width="2" stroke-linecap="square" data-color="color-2" fill="none"></path> <path d="M12 28V25" stroke="#000" stroke-width="2" stroke-linecap="square" data-color="color-2" fill="none"></path></svg>