<svg xmlns="http://www.w3.org/2000/svg" xmlns:xlink="http://www.w3.org/1999/xlink" x="0px" y="0px" width="32px" height="32px" viewBox="0 0 32 32"> <path d="M23.5 19V13H25C26.1046 13 27 13.8954 27 15V15C27 16.1046 26.1046 17 25 17H24" stroke="#000" stroke-width="2" stroke-linecap="square" data-color="color-2" fill="none"></path> <path d="M12.5 19V13M12.5 13H14M12.5 13H11" stroke="#000" stroke-width="2" stroke-linecap="square" data-color="color-2" fill="none"></path> <path d="M8 13H6.5C5.67157 13 5 13.6716 5 14.5V14.5C5 15.3284 5.67157 16 6.5 16H7.5C8.32843 16 9 16.6716 9 17.5V17.5C9 18.3284 8.32843 19 7.5 19H6" stroke="#000" stroke-width="2" stroke-linecap="square" data-color="color-2" fill="none"></path> <path d="M20.75 16C20.75 17.6569 19.7426 19 18.5 19C17.2574 19 16.25 17.6569 16.25 16C16.25 14.3431 17.2574 13 18.5 13C19.7426 13 20.75 14.3431 20.75 16Z" stroke="#000" stroke-width="2" data-color="color-2" data-cap="butt" fill="none"></path> <path d="M21.6 2L30 10.3746V21.6L21.6 30H10.4L2 21.6V10.4L10.4 2H21.6Z" stroke="black" stroke-width="2" data-cap="butt" fill="none"></path> </svg>