<svg xmlns="http://www.w3.org/2000/svg" xmlns:xlink="http://www.w3.org/1999/xlink" x="0px" y="0px" width="32px" height="32px" viewBox="0 0 32 32"><path d="M9.61255 23H23.2397" stroke="black" stroke-width="2" data-cap="butt" fill="none"></path> <path d="M4 29C5.65685 29 7 27.6569 7 26C7 24.3431 5.65685 23 4 23C2.34315 23 1 24.3431 1 26C1 27.6569 2.34315 29 4 29Z" stroke="black" stroke-width="2" stroke-miterlimit="10" stroke-linecap="square" fill="none"></path> <path d="M28 29C29.6569 29 31 27.6569 31 26C31 24.3431 29.6569 23 28 23C26.3431 23 25 24.3431 25 26C25 27.6569 26.3431 29 28 29Z" stroke="black" stroke-width="2" stroke-miterlimit="10" stroke-linecap="square" fill="none"></path> <path d="M4 19V19C7.31371 19 10 21.6863 10 25V27H21L25 20L23.3914 9.54383C23.1662 8.08033 21.907 7 20.4262 7H20" stroke="black" stroke-width="2" stroke-linecap="square" fill="none"></path> <path d="M16 13.5L16 2.5C16 1.67157 15.3284 1 14.5 1L3.5 0.999999C2.67157 0.999999 2 1.67157 2 2.5L2 13.5C2 14.3284 2.67157 15 3.5 15L14.5 15C15.3284 15 16 14.3284 16 13.5Z" stroke="#000" stroke-width="2" stroke-miterlimit="10" stroke-linecap="square" data-color="color-2" fill="none"></path> <path d="M7 11V5H9.5C10.6046 5 11.5 5.89543 11.5 7V7C11.5 8.10457 10.6046 9 9.5 9H7.35714" stroke="#000" stroke-width="2" stroke-linecap="square" data-color="color-2" fill="none"></path></svg>