<svg xmlns="http://www.w3.org/2000/svg" xmlns:xlink="http://www.w3.org/1999/xlink" x="0px" y="0px" width="48px" height="48px" viewBox="0 0 48 48"> <path d="M28 42V36" stroke="#000" stroke-width="2" stroke-linecap="square" data-color="color-2" fill="none"></path> <path d="M36 42V36" stroke="#000" stroke-width="2" stroke-linecap="square" data-color="color-2" fill="none"></path> <path d="M30 16L35 26H45" stroke="#000" stroke-width="2" stroke-miterlimit="10" data-color="color-2" data-cap="butt" fill="none"></path> <path d="M10 7H40" stroke="#000" stroke-width="2" stroke-linecap="square" data-color="color-2" fill="none"></path> <path d="M19 42H42C42.9443 42 43.8334 41.5554 44.4 40.8L45 40" stroke="black" stroke-width="2" stroke-linecap="square" fill="none"></path> <path d="M25 31L28 31C28.5523 31 29 30.5523 29 30L29 24C29 23.4477 28.5523 23 28 23L25 23C24.4477 23 24 23.4477 24 24L24 30C24 30.5523 24.4477 31 25 31Z" stroke="#000" stroke-width="2" stroke-miterlimit="10" stroke-linecap="square" data-color="color-2" fill="none"></path> <path d="M2.5 13L3.5 21H14L20.5882 33.3529C21.4572 34.9823 23.1534 36 25 36H42C44.2091 36 46 34.2091 46 32V31C46 22.7157 39.2843 16 31 16H30L28 12H22L20 16H6.5L5.5 13H2.5Z" stroke="black" stroke-width="2" data-cap="butt" fill="none"></path> </svg>