<svg xmlns="http://www.w3.org/2000/svg" xmlns:xlink="http://www.w3.org/1999/xlink" x="0px" y="0px" width="48px" height="48px" viewBox="0 0 48 48"> <path d="M22.654 27.232L19 17" stroke="#000" stroke-width="2" stroke-miterlimit="10" data-color="color-2" fill="none" data-cap="butt"></path> <path d="M24 35C26.2091 35 28 33.2091 28 31C28 28.7909 26.2091 27 24 27C21.7909 27 20 28.7909 20 31C20 33.2091 21.7909 35 24 35Z" stroke="#000" stroke-width="2" stroke-miterlimit="10" stroke-linecap="square" data-color="color-2" fill="none"></path> <path d="M24 45C35.598 45 45 35.598 45 24C45 12.402 35.598 3 24 3C12.402 3 3 12.402 3 24C3 35.598 12.402 45 24 45Z" stroke="black" stroke-width="2" stroke-miterlimit="10" stroke-linecap="square" fill="none"></path> <path d="M15 31H10.7301C9.62546 28.9103 9 26.5282 9 24C9 15.7157 15.7157 9 24 9C32.2843 9 39 15.7157 39 24C39 26.5282 38.3745 28.9103 37.2699 31H33" stroke="black" stroke-width="2" stroke-miterlimit="10" stroke-linecap="square" fill="none"></path> </svg>