<svg xmlns="http://www.w3.org/2000/svg" xmlns:xlink="http://www.w3.org/1999/xlink" x="0px" y="0px" width="48px" height="48px" viewBox="0 0 48 48"> <path d="M24 12L24.998 12.0434C30.9464 12.302 35.7168 17.0527 36 23V23" stroke="#000" stroke-width="2" stroke-miterlimit="10" stroke-linecap="square" data-color="color-2" fill="none"></path> <path d="M20 6.15881C10.4111 7.38598 3 15.5775 3 25.5001C3 36.2696 11.7304 45 22.5 45C32.4225 45 40.6141 37.5889 41.8412 28.0001" stroke="black" stroke-width="2" stroke-miterlimit="10" stroke-linecap="square" fill="none"></path> <path d="M24 12V4C24 2.89543 24.8986 1.99081 25.9994 2.08147C36.4535 2.94251 44.0575 10.5465 44.9185 21.0006C45.0092 22.1014 44.1046 23 43 23H36" stroke="#000" stroke-width="2" stroke-miterlimit="10" stroke-linecap="square" data-color="color-2" fill="none"></path> <path d="M22.5 34C27.1944 34 31 30.1944 31 25.5C31 20.8056 27.1944 17 22.5 17C17.8056 17 14 20.8056 14 25.5C14 30.1944 17.8056 34 22.5 34Z" stroke="black" stroke-width="2" stroke-miterlimit="10" stroke-linecap="square" fill="none"></path> <path d="M22.5 28C23.8807 28 25 26.8807 25 25.5C25 24.1193 23.8807 23 22.5 23C21.1193 23 20 24.1193 20 25.5C20 26.8807 21.1193 28 22.5 28Z" stroke="black" stroke-width="2" stroke-miterlimit="10" stroke-linecap="square" fill="none"></path> </svg>