<svg xmlns="http://www.w3.org/2000/svg" xmlns:xlink="http://www.w3.org/1999/xlink" x="0px" y="0px" width="48px" height="48px" viewBox="0 0 48 48"> <path d="M32.9965 7.98267C39.0679 5.8221 43.653 5.44025 44.7649 7.36618C46.5516 10.4608 38.6944 18.3421 27.2154 24.9696C15.7364 31.597 4.98237 34.4608 3.19567 31.3662C2.08373 29.4403 4.70695 25.6604 9.61378 21.4827" stroke="black" stroke-width="2" stroke-miterlimit="10" data-cap="butt" fill="none"></path> <path d="M16.2154 5.91699C9.5193 9.78299 7.27218 18.4269 11.1963 25.2237L11.349 25.1832C20.4299 22.7747 28.7074 17.9957 35.3336 11.3356L35.445 11.2237C31.5209 4.42688 22.9115 2.051 16.2154 5.91699Z" stroke="#000" stroke-width="2" stroke-miterlimit="10" stroke-linecap="square" data-color="color-2" fill="none"></path> <path d="M18.7154 10.2471C16.6722 11.4267 15.4575 13.496 15.2669 15.7022" stroke="#000" stroke-width="2" stroke-miterlimit="10" stroke-linecap="square" data-color="color-2" fill="none"></path> <path d="M36 42.0001L30 32.0001" stroke="#000" stroke-width="2" stroke-linecap="square" data-color="color-2" fill="none"></path> <path d="M27 39L26.5 37" stroke="#000" stroke-width="2" stroke-linecap="square" data-color="color-2" fill="none"></path> <path d="M44 27L39 25" stroke="#000" stroke-width="2" stroke-linecap="square" data-color="color-2" fill="none"></path> <path d="M19 36.9999L19 42.9999" stroke="#000" stroke-width="2" stroke-linecap="square" data-color="color-2" fill="none"></path> </svg>