<svg xmlns="http://www.w3.org/2000/svg" xmlns:xlink="http://www.w3.org/1999/xlink" x="0px" y="0px" width="48px" height="48px" viewBox="0 0 48 48"> <path d="M11.6594 19L38.9412 19C42.8397 19 46 22.1603 46 26.0588C46 27.6832 44.6832 29 43.0588 29L30 29L20.9633 42.9021C20.4672 43.6654 19.5183 43.9973 18.6546 43.7097L16 42.8258L21 29L10.9408 29C9.19122 29 7.64469 27.863 7.12284 26.1931L3 13L7.15166 13L11.6594 19Z" stroke="black" stroke-width="2" stroke-miterlimit="10" stroke-linecap="square" fill="none"></path> <path d="M19.1918 14L16 5.17419L18.6546 4.29028C19.5183 4.0027 20.4672 4.33463 20.9633 5.09786L26.7499 14" stroke="#000" stroke-width="2" stroke-miterlimit="10" stroke-linecap="square" data-color="color-2" fill="none"></path> <path d="M37 24H37.02" stroke="black" stroke-width="2" stroke-linecap="square" fill="none"></path> <path d="M31 24H31.02" stroke="black" stroke-width="2" stroke-linecap="square" fill="none"></path> <path d="M25 24H25.02" stroke="black" stroke-width="2" stroke-linecap="square" fill="none"></path> <path d="M19 24H19.02" stroke="black" stroke-width="2" stroke-linecap="square" fill="none"></path> </svg>