<svg xmlns="http://www.w3.org/2000/svg" xmlns:xlink="http://www.w3.org/1999/xlink" x="0px" y="0px" width="48px" height="48px" viewBox="0 0 48 48"> <path d="M24 21V15V15.9999" stroke="#000" stroke-width="2" stroke-linecap="square" data-color="color-2" fill="none"></path> <path d="M21 8V3H27V8" stroke="black" stroke-width="2" stroke-linecap="square" fill="none"></path> <path d="M38.4538 22.7552L35.6667 8H12.3333L9.54148 22.7804" stroke="#000" stroke-width="2" stroke-miterlimit="10" data-color="color-2" data-cap="butt" fill="none"></path> <path d="M6.64198 34L4.7625 28.1447C4.32059 26.768 4.92357 25.2719 6.19665 24.5864L24 15L41.8033 24.5864C43.0764 25.2719 43.6794 26.768 43.2375 28.1447L41.358 34" stroke="black" stroke-width="2" stroke-miterlimit="10" stroke-linecap="square" fill="none"></path> <path d="M43.9 39C43.4367 41.2822 41.419 43 39 43C36.2386 43 34 40.7614 34 38C34 40.7614 31.7614 43 29 43C26.2386 43 24 40.7614 24 38C24 40.7614 21.7614 43 19 43C16.2386 43 14 40.7614 14 38C14 40.7614 11.7614 43 9 43C6.58104 43 4.56329 41.2822 4.10002 39" stroke="#000" stroke-width="2" stroke-linecap="square" data-color="color-2" fill="none"></path> </svg>