<svg xmlns="http://www.w3.org/2000/svg" xmlns:xlink="http://www.w3.org/1999/xlink" x="0px" y="0px" width="48px" height="48px" viewBox="0 0 48 48"> <path d="M39 17V17C37.3431 17 36 18.3431 36 20V24.5V23.5" stroke="#000" stroke-width="2" stroke-linecap="square" data-color="color-2" fill="none"></path> <path d="M9 7H5" stroke="#000" stroke-width="2" stroke-linecap="square" data-color="color-2" fill="none"></path> <path d="M9 20.9332V7H25L30.5 24" stroke="#000" stroke-width="2" stroke-miterlimit="10" data-color="color-2" data-cap="butt" fill="none"></path> <path d="M18 23L39.2491 24.7708C40.804 24.9003 42 26.2001 42 27.7604V34.2662" stroke="black" stroke-width="2" data-cap="butt" fill="none"></path> <path d="M35.5 38H36H24V34C24 26.8203 18.1797 21 11 21H4" stroke="black" stroke-width="2" stroke-miterlimit="10" stroke-linecap="square" fill="none"></path> <path d="M40.5 43C42.9853 43 45 40.9853 45 38.5C45 36.0147 42.9853 34 40.5 34C38.0147 34 36 36.0147 36 38.5C36 40.9853 38.0147 43 40.5 43Z" stroke="black" stroke-width="2" stroke-miterlimit="10" stroke-linecap="square" fill="none"></path> <path d="M10.5 43C15.1944 43 19 39.1944 19 34.5C19 29.8056 15.1944 26 10.5 26C5.80558 26 2 29.8056 2 34.5C2 39.1944 5.80558 43 10.5 43Z" stroke="black" stroke-width="2" stroke-miterlimit="10" stroke-linecap="square" fill="none"></path> <path d="M10.5 37C11.8807 37 13 35.8807 13 34.5C13 33.1193 11.8807 32 10.5 32C9.11929 32 8 33.1193 8 34.5C8 35.8807 9.11929 37 10.5 37Z" stroke="black" stroke-width="2" stroke-miterlimit="10" stroke-linecap="square" fill="none"></path> <path d="M29 32V29" stroke="#000" stroke-width="2" stroke-linecap="square" data-color="color-2" fill="none"></path> <path d="M34 32V29" stroke="#000" stroke-width="2" stroke-linecap="square" data-color="color-2" fill="none"></path> </svg>