<svg xmlns="http://www.w3.org/2000/svg" xmlns:xlink="http://www.w3.org/1999/xlink" x="0px" y="0px" width="48px" height="48px" viewBox="0 0 48 48"><path d="M21.5 9.5L19.5 2.5" stroke="#000" stroke-width="2" data-color="color-2" data-cap="butt" fill="none"></path> <path d="M46 28H44" stroke="black" stroke-width="2" stroke-linecap="square" fill="none"></path> <path d="M4.00001 28H2" stroke="black" stroke-width="2" stroke-linecap="square" fill="none"></path> <path d="M45 41V36.0838C45 34.0008 43.7086 32.136 41.7587 31.4033L40 30.7424L37.8166 22.9241C37.3339 21.1955 35.7588 20 33.964 20H14.036C12.2412 20 10.6661 21.1955 10.1834 22.9241L8 30.7424L6.24127 31.4033C4.29138 32.136 3 34.0008 3 36.0838V41" stroke="black" stroke-width="2" stroke-linecap="square" fill="none"></path> <path d="M12.3721 39.3285L8.12404 39.8595C7.52718 39.9341 7 39.4687 7 38.8672L7 36L15 36L15 36.3517C15 37.8646 13.8734 39.1408 12.3721 39.3285Z" stroke="black" stroke-width="2" stroke-linecap="square" fill="none"></path> <path d="M35.6279 39.3285L39.876 39.8595C40.4728 39.9341 41 39.4687 41 38.8672L41 36L33 36L33 36.3517C33 37.8646 34.1266 39.1408 35.6279 39.3285Z" stroke="black" stroke-width="2" stroke-linecap="square" fill="none"></path> <path d="M24 2C16.9706 2 11.0706 6.8352 9.4444 13.3611L16.237 15.0593C17.1043 11.5788 20.251 9 24 9C27.749 9 30.8956 11.5788 31.7629 15.0593L38.5555 13.3611C36.9293 6.8352 31.0293 2 24 2Z" stroke="#000" stroke-width="2" data-color="color-2" data-cap="butt" fill="none"></path> <path d="M24 25L21.5 30H24H26.5L24 35" stroke="#000" stroke-width="2" stroke-linecap="square" data-color="color-2" fill="none"></path></svg>