<svg xmlns="http://www.w3.org/2000/svg" xmlns:xlink="http://www.w3.org/1999/xlink" x="0px" y="0px" width="48px" height="48px" viewBox="0 0 48 48"> <path d="M27 9L20 25H4" stroke="#000" stroke-width="2" stroke-miterlimit="10" data-color="color-2" data-cap="butt" fill="none"></path> <path d="M43 9L25.1154 9C12.9014 9 3 18.9014 3 31.1154V31.1154C3 32.7085 4.29149 34 5.88462 34L43 34" stroke="black" stroke-width="2" stroke-miterlimit="10" stroke-linecap="square" fill="none"></path> <path d="M34 29H34.02" stroke="black" stroke-width="2" stroke-linecap="square" fill="none"></path> <path d="M5 39H43" stroke="black" stroke-width="2" stroke-linecap="square" fill="none"></path> <path d="M46 29H39" stroke="black" stroke-width="2" stroke-linecap="square" fill="none"></path> <path d="M7 29L3 29H4" stroke="black" stroke-width="2" stroke-linecap="square" fill="none"></path> <path d="M40 15H31C30.4477 15 30 15.4477 30 16V22C30 22.5523 30.4477 23 31 23H40C40.5523 23 41 22.5523 41 22V16C41 15.4477 40.5523 15 40 15Z" stroke="#000" stroke-width="2" stroke-miterlimit="10" stroke-linecap="square" data-color="color-2" fill="none"></path> </svg>