<svg xmlns="http://www.w3.org/2000/svg" xmlns:xlink="http://www.w3.org/1999/xlink" x="0px" y="0px" width="18px" height="18px" viewBox="0 0 18 18"><path d="M10.25 3.75H3.75C2.64543 3.75 1.75 4.64543 1.75 5.75V12.25C1.75 13.3546 2.64543 14.25 3.75 14.25H10.25C11.3546 14.25 12.25 13.3546 12.25 12.25V5.75C12.25 4.64543 11.3546 3.75 10.25 3.75Z" fill="#000" fill-opacity="0.3" data-color="color-2" data-stroke="none"></path> <path d="M12.25 8L16.509 5.658C16.842 5.475 17.25 5.716 17.25 6.096V11.905C17.25 12.285 16.842 12.526 16.509 12.343L12.25 10.001" stroke="black" stroke-width="1.5" stroke-linecap="round" stroke-linejoin="round" fill="none"></path> <path d="M10.25 3.75H3.75C2.64543 3.75 1.75 4.64543 1.75 5.75V12.25C1.75 13.3546 2.64543 14.25 3.75 14.25H10.25C11.3546 14.25 12.25 13.3546 12.25 12.25V5.75C12.25 4.64543 11.3546 3.75 10.25 3.75Z" stroke="black" stroke-width="1.5" stroke-linecap="round" stroke-linejoin="round" fill="none"></path> <path d="M4.75 7.5C5.16421 7.5 5.5 7.16421 5.5 6.75C5.5 6.33579 5.16421 6 4.75 6C4.33579 6 4 6.33579 4 6.75C4 7.16421 4.33579 7.5 4.75 7.5Z" fill="black" data-stroke="none"></path></svg>