<svg xmlns="http://www.w3.org/2000/svg" xmlns:xlink="http://www.w3.org/1999/xlink" x="0px" y="0px" width="18px" height="18px" viewBox="0 0 18 18"><path d="M12.738,6.75l2.582-3.012c.191-.223,.234-.536,.112-.802-.122-.266-.388-.437-.681-.437H4V11H14.75c.293,0,.559-.17,.681-.437,.123-.266,.079-.579-.112-.802l-2.582-3.012Z" fill="#000"></path><path d="M3.75,17c-.414,0-.75-.336-.75-.75V1.75c0-.414,.336-.75,.75-.75s.75,.336,.75,.75v14.5c0,.414-.336,.75-.75,.75Z" fill="#000" data-color="color-2"></path></svg>