<svg xmlns="http://www.w3.org/2000/svg" xmlns:xlink="http://www.w3.org/1999/xlink" x="0px" y="0px" width="18px" height="18px" viewBox="0 0 18 18"><rect x="10.5" y="10" width="5.5" height="5.5" rx="1.75" ry="1.75" fill="#000"></rect><path d="M12.875,2.5H5.25c-.414,0-.75,.336-.75,.75s.336,.75,.75,.75h7.625c.896,0,1.625,.729,1.625,1.625s-.729,1.625-1.625,1.625H5.125c-1.723,0-3.125,1.402-3.125,3.125s1.402,3.125,3.125,3.125h3.625c.414,0,.75-.336,.75-.75s-.336-.75-.75-.75h-3.625c-.896,0-1.625-.729-1.625-1.625s.729-1.625,1.625-1.625h7.75c1.723,0,3.125-1.402,3.125-3.125s-1.402-3.125-3.125-3.125Z" fill="#000" data-color="color-2"></path></svg>