<svg xmlns="http://www.w3.org/2000/svg" xmlns:xlink="http://www.w3.org/1999/xlink" x="0px" y="0px" width="18px" height="18px" viewBox="0 0 18 18"><path d="M13.5,9h-2.25c-.414,0-.75-.336-.75-.75s.336-.75,.75-.75h2.25c1.103,0,2-.897,2-2s-.897-2-2-2H6.25c-.414,0-.75-.336-.75-.75s.336-.75,.75-.75h7.25c1.93,0,3.5,1.57,3.5,3.5s-1.57,3.5-3.5,3.5Z" fill="#000"></path><path d="M16.28,13.22l-2.475-2.475c-.293-.293-.768-.293-1.061,0s-.293,.768,0,1.061l1.195,1.195H4.5c-1.103,0-2-.897-2-2s.897-2,2-2h2.25c.414,0,.75-.336,.75-.75s-.336-.75-.75-.75h-2.25c-1.93,0-3.5,1.57-3.5,3.5s1.57,3.5,3.5,3.5H13.939l-1.195,1.195c-.293,.293-.293,.768,0,1.061,.146,.146,.338,.22,.53,.22s.384-.073,.53-.22l2.475-2.475c.293-.293,.293-.768,0-1.061Z" fill="#000"></path><circle cx="3.25" cy="2.75" r=".75" fill="#000" data-color="color-2"></circle><circle cx="9" cy="8.25" r="3" fill="#000" data-color="color-2"></circle></svg>