<svg xmlns="http://www.w3.org/2000/svg" xmlns:xlink="http://www.w3.org/1999/xlink" x="0px" y="0px" width="24px" height="24px" viewBox="0 0 24 24"> <path fill-rule="evenodd" clip-rule="evenodd" d="M13 1V5H11V1H13Z" fill="black"></path> <path d="M3 10C3 7.95782 4.10601 6.18521 5.74315 4.95736C7.37998 3.72973 9.59541 3 12 3C14.4046 3 16.62 3.72973 18.2569 4.95736C19.894 6.18521 21 7.95782 21 10V11H3V10Z" fill="#000" data-color="color-2"></path> <path fill-rule="evenodd" clip-rule="evenodd" d="M6.99999 17L7.00002 14L9.00002 14L8.99999 17L6.99999 17Z" fill="#000" data-color="color-2"></path> <path fill-rule="evenodd" clip-rule="evenodd" d="M15 17L15 14L17 14L17 17L15 17Z" fill="#000" data-color="color-2"></path> <path fill-rule="evenodd" clip-rule="evenodd" d="M6.99999 22L7.00002 19L9.00002 19L8.99999 22L6.99999 22Z" fill="#000" data-color="color-2"></path> <path fill-rule="evenodd" clip-rule="evenodd" d="M15 22L15 19L17 19L17 22L15 22Z" fill="#000" data-color="color-2"></path> <path fill-rule="evenodd" clip-rule="evenodd" d="M11 19L11 16L13 16L13 19L11 19Z" fill="#000" data-color="color-2"></path> <path fill-rule="evenodd" clip-rule="evenodd" d="M11 24L11 21L13 21L13 24L11 24Z" fill="#000" data-color="color-2"></path> <path fill-rule="evenodd" clip-rule="evenodd" d="M1 10H23V12H1V10Z" fill="black"></path> </svg>