<svg xmlns="http://www.w3.org/2000/svg" xmlns:xlink="http://www.w3.org/1999/xlink" x="0px" y="0px" width="48px" height="48px" viewBox="0 0 48 48"> <path fill-rule="evenodd" clip-rule="evenodd" d="M10 24C10 16.268 16.268 10 24 10C31.732 10 38 16.268 38 24C38 31.732 31.732 38 24 38C16.268 38 10 31.732 10 24Z" fill="black"></path> <path fill-rule="evenodd" clip-rule="evenodd" d="M47 25.5L42 25.5L42 22.5L47 22.5L47 25.5Z" fill="#000" data-color="color-2"></path> <path fill-rule="evenodd" clip-rule="evenodd" d="M6 25.5L1 25.5L1 22.5L6 22.5L6 25.5Z" fill="#000" data-color="color-2"></path> <path fill-rule="evenodd" clip-rule="evenodd" d="M25.5 1L25.5 6L22.5 6L22.5 1L25.5 1Z" fill="#000" data-color="color-2"></path> <path fill-rule="evenodd" clip-rule="evenodd" d="M25.5 42L25.5 47L22.5 47L22.5 42L25.5 42Z" fill="#000" data-color="color-2"></path> <path fill-rule="evenodd" clip-rule="evenodd" d="M41.3241 8.79722L37.7886 12.3328L35.6673 10.2114L39.2028 6.6759L41.3241 8.79722Z" fill="#000" data-color="color-2"></path> <path fill-rule="evenodd" clip-rule="evenodd" d="M12.3327 37.7886L8.79721 41.3241L6.67589 39.2028L10.2114 35.6672L12.3327 37.7886Z" fill="#000" data-color="color-2"></path> <path fill-rule="evenodd" clip-rule="evenodd" d="M8.79722 6.67592L12.3328 10.2115L10.2114 12.3328L6.6759 8.79724L8.79722 6.67592Z" fill="#000" data-color="color-2"></path> <path fill-rule="evenodd" clip-rule="evenodd" d="M37.7886 35.6673L41.3241 39.2028L39.2028 41.3241L35.6672 37.7886L37.7886 35.6673Z" fill="#000" data-color="color-2"></path> </svg>