<svg xmlns="http://www.w3.org/2000/svg" xmlns:xlink="http://www.w3.org/1999/xlink" x="0px" y="0px" width="24px" height="24px" viewBox="0 0 24 24"> <path d="M16 9.23065C18.0235 9.46477 20.0313 9.87712 22 10.4677V22.4677C15.4769 20.5108 8.52306 20.5108 2 22.4677V10.4677C3.96865 9.87712 5.97655 9.46477 8 9.23065" stroke="black" stroke-width="2" stroke-linecap="square" fill="none"></path> <path d="M12 3V14" stroke="#000" stroke-width="2" stroke-linecap="square" data-color="color-2" fill="none"></path> <path d="M6 5V4C6 2.34315 7.34315 1 9 1V1C10.6569 1 12 2.34315 12 4V4" stroke="#000" stroke-width="2" stroke-linecap="square" data-color="color-2" fill="none"></path> <path d="M12 4V4C12 2.34315 13.3431 1 15 1V1C16.6569 1 18 2.34315 18 4V5" stroke="#000" stroke-width="2" stroke-linecap="square" data-color="color-2" fill="none"></path> </svg>