<svg xmlns="http://www.w3.org/2000/svg" xmlns:xlink="http://www.w3.org/1999/xlink" x="0px" y="0px" width="32px" height="32px" viewBox="0 0 32 32"> <path d="M15 3.00903C7.7758 3.27206 2 9.2115 2 16.4999C2 23.9558 8.04416 29.9999 15.5 29.9999C22.7884 29.9999 28.7279 24.2241 28.9909 16.9999" stroke="black" stroke-width="2" stroke-miterlimit="10" data-cap="butt" fill="none"></path> <path d="M24 17C24 11.5 20.5 8 15 8V2C15 1.44772 15.4488 0.997305 16.0004 1.02358C25.1757 1.46053 30.565 7.91849 30.9748 15.9996C31.0028 16.5511 30.5523 17 30 17H24Z" stroke="#000" stroke-width="2" stroke-miterlimit="10" stroke-linecap="square" data-color="color-2" fill="none"></path> <path d="M15.5 21C17.9853 21 20 18.9853 20 16.5C20 14.0147 17.9853 12 15.5 12C13.0147 12 11 14.0147 11 16.5C11 18.9853 13.0147 21 15.5 21Z" stroke="black" stroke-width="2" stroke-miterlimit="10" stroke-linecap="square" fill="none"></path> </svg>