<svg xmlns="http://www.w3.org/2000/svg" xmlns:xlink="http://www.w3.org/1999/xlink" x="0px" y="0px" width="32px" height="32px" viewBox="0 0 32 32"> <path d="M7.3 13.8259L6.51873 14.5099C2.75323 17.5581 0.669992 20.3403 1.45082 21.6927C2.64195 23.7558 10.047 21.7105 17.9904 17.1243C25.9338 12.5382 31.4076 7.14794 30.2165 5.08483C29.4356 3.7324 25.9846 4.14545 21.462 5.88238L20.5502 6.27295" stroke="black" stroke-width="2" stroke-miterlimit="10" data-cap="butt" fill="none"></path> <path d="M10.9904 5C14.8167 2.79086 19.7654 4.19879 22.0436 8.14471L21.0035 9.33998C18.0787 12.701 14.1155 14.9892 9.74237 15.8416L8.18718 16.1447C5.90901 12.1988 7.16404 7.20914 10.9904 5Z" stroke="#000" stroke-width="2" stroke-miterlimit="10" stroke-linecap="square" data-color="color-2" fill="none"></path> <path d="M20.4904 21.4545L25.1152 29.4801" stroke="#000" stroke-width="2" stroke-linecap="square" data-color="color-2" fill="none"></path> <path d="M29.7846 19.5526L25.1865 17.5885" stroke="#000" stroke-width="2" stroke-linecap="square" data-color="color-2" fill="none"></path> <path d="M13.7631 28.8026L14.3612 23.8385" stroke="#000" stroke-width="2" stroke-linecap="square" data-color="color-2" fill="none"></path> </svg>