<svg xmlns="http://www.w3.org/2000/svg" xmlns:xlink="http://www.w3.org/1999/xlink" x="0px" y="0px" width="32px" height="32px" viewBox="0 0 32 32"><path d="M31 21H29" stroke="#000" stroke-width="2" stroke-linecap="square" data-color="color-2" fill="none"></path> <path d="M21 16H27.5H26.8333" stroke="black" stroke-width="2" stroke-linecap="square" fill="none"></path> <path d="M11 26H21" stroke="black" stroke-width="2" data-cap="butt" fill="none"></path> <path d="M3 4H8.33333L13.3071 18L12.9129 18.0046" stroke="#000" stroke-width="2" stroke-miterlimit="10" stroke-linecap="square" data-color="color-2" fill="none"></path> <path d="M27 26H31V20.4654C31 18.9538 30.1479 17.5714 28.7976 16.8921L27.5524 16.2657L24.5411 9H16V18H1.00003V24C1.00003 25.1046 1.89546 26 3.00003 26H5.00003" stroke="black" stroke-width="2" data-cap="butt" fill="none"></path> <path d="M24 29C22.3431 29 21 27.6569 21 26C21 24.3431 22.3431 23 24 23C25.6569 23 27 24.3431 27 26C27 27.6569 25.6569 29 24 29Z" stroke="#000" stroke-width="2" stroke-miterlimit="10" stroke-linecap="square" data-color="color-2" fill="none"></path> <path d="M8 29C6.34315 29 5 27.6569 5 26C5 24.3431 6.34315 23 8 23C9.65685 23 11 24.3431 11 26C11 27.6569 9.65685 29 8 29Z" stroke="#000" stroke-width="2" stroke-miterlimit="10" stroke-linecap="square" data-color="color-2" fill="none"></path> <path d="M3 8C3 9 5 10 5 12C5 13.1046 4.10457 14 3 14V14C1.89543 14 1 13.1046 1 12V12" stroke="#000" stroke-width="2" stroke-miterlimit="10" stroke-linecap="square" data-color="color-2" fill="none"></path></svg>