<svg xmlns="http://www.w3.org/2000/svg" xmlns:xlink="http://www.w3.org/1999/xlink" x="0px" y="0px" width="32px" height="32px" viewBox="0 0 32 32"><path d="M2 12H1" stroke="black" stroke-width="2" stroke-linecap="square" fill="none"></path> <path d="M13 7H9.30483C7.94568 7 6.75633 7.91375 6.40613 9.22701L5 14.5L3.38197 15.309C2.53501 15.7325 2 16.5982 2 17.5451V26.5C2 27.3284 2.67157 28 3.5 28H6.5C7.32843 28 8 27.3284 8 26.5V25H24V26.5C24 27.3284 24.6716 28 25.5 28H28.5C29.3284 28 30 27.3284 30 26.5V18" stroke="black" stroke-width="2" stroke-linecap="square" fill="none"></path> <path d="M24.5 20.5L27 20.5L27 18L22 18C22 19.3807 23.1193 20.5 24.5 20.5Z" fill="black" data-cap="butt" data-stroke="none"></path> <path d="M7.5 20.5L5 20.5L5 18L10 18C10 19.3807 8.88071 20.5 7.5 20.5Z" fill="black" data-cap="butt" data-stroke="none"></path> <rect x="17" y="2" width="4" height="4" stroke="#000" stroke-width="2" data-color="color-2" data-cap="butt" fill="none"></rect> <rect x="17" y="10" width="4" height="4" stroke="#000" stroke-width="2" data-color="color-2" data-cap="butt" fill="none"></rect> <rect x="25" y="2" width="4" height="4" stroke="#000" stroke-width="2" data-color="color-2" data-cap="butt" fill="none"></rect> <rect x="25" y="10" width="4" height="4" stroke="#000" stroke-width="2" data-color="color-2" data-cap="butt" fill="none"></rect></svg>