<svg xmlns="http://www.w3.org/2000/svg" xmlns:xlink="http://www.w3.org/1999/xlink" x="0px" y="0px" width="32px" height="32px" viewBox="0 0 32 32"><path d="M31 12H30" stroke="black" stroke-width="2" stroke-linecap="square" fill="none"></path> <path d="M2 12H1" stroke="black" stroke-width="2" stroke-linecap="square" fill="none"></path> <path d="M30 26.5V17.5451C30 16.5982 29.465 15.7325 28.618 15.309L27 14.5L25.5939 9.22701C25.2437 7.91375 24.0543 7 22.6952 7H9.30483C7.94568 7 6.75633 7.91375 6.40613 9.22701L5 14.5L3.38197 15.309C2.53501 15.7325 2 16.5982 2 17.5451V26.5C2 27.3284 2.67157 28 3.5 28H6.5C7.32843 28 8 27.3284 8 26.5V25H24V26.5C24 27.3284 24.6716 28 25.5 28H28.5C29.3284 28 30 27.3284 30 26.5Z" stroke="black" stroke-width="2" data-cap="butt" fill="none"></path> <path d="M24.5 20.5L27 20.5L27 18L22 18C22 19.3807 23.1193 20.5 24.5 20.5Z" fill="black" data-cap="butt" data-stroke="none"></path> <path d="M7.5 20.5L5 20.5L5 18L10 18C10 19.3807 8.88071 20.5 7.5 20.5Z" fill="black" data-cap="butt" data-stroke="none"></path> <path d="M10.3432 13.3431C11.9053 11.7811 13.9526 11 16 11C18.0474 11 20.0948 11.781 21.6569 13.3431" stroke="#000" stroke-width="2" stroke-miterlimit="10" stroke-linecap="square" data-color="color-2" fill="none"></path> <path d="M18.8435 16.1415L16 18.985L13.1565 16.1415C13.8842 15.4138 14.8895 14.9637 16 14.9637C17.1104 14.9637 18.1158 15.4138 18.8435 16.1415Z" stroke="#000" stroke-width="2" stroke-miterlimit="10" stroke-linecap="square" data-color="color-2" fill="none"></path></svg>