<svg xmlns="http://www.w3.org/2000/svg" xmlns:xlink="http://www.w3.org/1999/xlink" x="0px" y="0px" width="48px" height="48px" viewBox="0 0 48 48"><path d="M36 13C38.2091 13 40 11.2091 40 9C40 6.79086 38.2091 5 36 5C33.7909 5 32 6.79086 32 9C32 11.2091 33.7909 13 36 13Z" stroke="#000" stroke-width="2" stroke-miterlimit="10" stroke-linecap="square" data-color="color-2" fill="none"></path> <path d="M40.1545 43H31.8464L30.3236 31L27 29.375L28.3676 20.3475C28.9153 17.1387 33.4987 17 36.0017 17C38.5286 17 43.0848 17.1214 43.6324 20.3475L45 29.375L41.6764 31L40.1545 43Z" stroke="#000" stroke-width="2" stroke-miterlimit="10" stroke-linecap="square" data-color="color-2" fill="none"></path> <path d="M27 10H14.036C12.2412 10 10.6661 11.1955 10.1834 12.9241L8 20.7424L6.24127 21.4033C4.29138 22.136 3 24.0007 3 26.0838V39C3 40.1046 3.89543 41 5 41H10C11.1046 41 12 40.1046 12 39V37H26" stroke="black" stroke-width="2" stroke-linecap="square" fill="none"></path> <path d="M4.00001 18H2" stroke="black" stroke-width="2" stroke-linecap="square" fill="none"></path> <path d="M12.3721 29.3285L8.12404 29.8595C7.52718 29.9341 7 29.4687 7 28.8672L7 26L15 26L15 26.3517C15 27.8646 13.8734 29.1408 12.3721 29.3285Z" stroke="black" stroke-width="2" stroke-linecap="square" fill="none"></path></svg>