<svg xmlns="http://www.w3.org/2000/svg" xmlns:xlink="http://www.w3.org/1999/xlink" x="0px" y="0px" width="48px" height="48px" viewBox="0 0 48 48"> <path d="M29 3.5L25 18H23L19 3.5" stroke="#000" stroke-width="2" data-color="color-2" data-cap="butt" fill="none"></path> <path d="M29 44.5L25 30H23L19 44.5" stroke="black" stroke-width="2" data-cap="butt" fill="none"></path> <path d="M44.2535 18.0802L29.6961 21.8661L28.6961 20.134L39.2535 9.41992" stroke="black" stroke-width="2" data-cap="butt" fill="none"></path> <path d="M8.74649 38.5802L19.3039 27.8661L18.3039 26.134L3.74649 29.9199" stroke="#000" stroke-width="2" data-color="color-2" data-cap="butt" fill="none"></path> <path d="M39.2535 38.5802L28.6961 27.8661L29.6961 26.134L44.2535 29.9199" stroke="#000" stroke-width="2" data-color="color-2" data-cap="butt" fill="none"></path> <path d="M3.74649 18.0802L18.3039 21.8661L19.3039 20.134L8.74649 9.41992" stroke="black" stroke-width="2" data-cap="butt" fill="none"></path> <path d="M24 30C27.3137 30 30 27.3137 30 24C30 20.6863 27.3137 18 24 18C20.6863 18 18 20.6863 18 24C18 27.3137 20.6863 30 24 30Z" stroke="black" stroke-width="2" stroke-miterlimit="10" stroke-linecap="square" fill="none"></path> <path d="M24 45C35.598 45 45 35.598 45 24C45 12.402 35.598 3 24 3C12.402 3 3 12.402 3 24C3 35.598 12.402 45 24 45Z" stroke="black" stroke-width="2" stroke-miterlimit="10" stroke-linecap="square" fill="none"></path> <path d="M25 24C25 24.5523 24.5523 25 24 25C23.4477 25 23 24.5523 23 24C23 23.4477 23.4477 23 24 23C24.5523 23 25 23.4477 25 24Z" fill="black" stroke="black" stroke-width="2" data-cap="butt"></path> </svg>