<svg xmlns="http://www.w3.org/2000/svg" xmlns:xlink="http://www.w3.org/1999/xlink" x="0px" y="0px" width="48px" height="48px" viewBox="0 0 48 48"> <path d="M38 30L45 30" stroke="#000" stroke-width="2" stroke-miterlimit="10" stroke-linecap="square" data-color="color-2" fill="none"></path> <path d="M20 12V5" stroke="#000" stroke-width="2" stroke-miterlimit="10" stroke-linecap="square" data-color="color-2" fill="none"></path> <path d="M45 22L45 38" stroke="#000" stroke-width="2" stroke-miterlimit="10" stroke-linecap="square" data-color="color-2" fill="none"></path> <path d="M33 20L28 12H12L7 20H3V32H7L11.12 41H38V20H33Z" stroke="black" stroke-width="2" stroke-miterlimit="10" stroke-linecap="square" fill="none"></path> <path d="M12 5H28" stroke="#000" stroke-width="2" stroke-miterlimit="10" stroke-linecap="square" data-color="color-2" fill="none"></path> <path d="M27.0641 25.3687L29 26.1429V27.8571L27.0641 28.6313C26.9213 29.1644 26.7116 29.6684 26.4419 30.1358L27.2624 32.0505L26.0505 33.2624L24.1358 32.4419C23.669 32.7116 23.1644 32.9207 22.6313 33.0641L21.8571 35H20.1429L19.3687 33.0641C18.8356 32.9213 18.3316 32.7116 17.8642 32.4419L15.9495 33.2624L14.7376 32.0505L15.5581 30.1358C15.2884 29.669 15.0793 29.1644 14.9359 28.6313L13 27.8571V26.1429L14.9359 25.3687C15.0793 24.8356 15.2884 24.331 15.5581 23.8642L14.7376 21.9495L15.9495 20.7376L17.8642 21.5581C18.3316 21.2884 18.8356 21.0787 19.3687 20.9359L20.1429 19H21.8571L22.6313 20.9359C23.1644 21.0793 23.669 21.2884 24.1358 21.5581L26.0505 20.7376L27.2624 21.9495L26.4419 23.8642C26.7116 24.3316 26.9213 24.8356 27.0641 25.3687Z" stroke="#000" stroke-width="2" stroke-miterlimit="10" stroke-linecap="square" data-color="color-2" fill="none"></path> <path d="M22 27C22 27.5523 21.5523 28 21 28C20.4477 28 20 27.5523 20 27C20 26.4477 20.4477 26 21 26C21.5523 26 22 26.4477 22 27Z" fill="black" stroke="black" stroke-width="2" data-cap="butt"></path> </svg>