<svg xmlns="http://www.w3.org/2000/svg" xmlns:xlink="http://www.w3.org/1999/xlink" x="0px" y="0px" width="18px" height="18px" viewBox="0 0 18 18"><path d="m15.4283,2.5716h0c-.7966-.7966-2.0985-.7616-2.8512.0765l-6.8271,7.6019h-2.5l-2,2.5h4v4l2.5-2v-2.5l7.6018-6.8271c.8382-.7527.8731-2.0546.0765-2.8512Z" fill="#000" opacity=".3" stroke-width="0" data-color="color-2"></path><path d="m15.4283,2.5716h0c-.7966-.7966-2.0985-.7616-2.8512.0765l-6.8271,7.6019h-2.5l-2,2.5h4v4l2.5-2v-2.5l7.6018-6.8271c.8382-.7527.8731-2.0546.0765-2.8512Z" fill="none" stroke="#000" stroke-linecap="round" stroke-linejoin="round" stroke-width="1.5"></path><polyline points="10.485 4.9777 2.5 4 1.5 5.25 7.747 8.0264" fill="none" stroke="#000" stroke-linecap="round" stroke-linejoin="round" stroke-width="1.5"></polyline><polyline points="13.0223 7.515 14 15.5 12.75 16.5 9.9736 10.253" fill="none" stroke="#000" stroke-linecap="round" stroke-linejoin="round" stroke-width="1.5"></polyline></svg>