<svg xmlns="http://www.w3.org/2000/svg" xmlns:xlink="http://www.w3.org/1999/xlink" x="0px" y="0px" width="18px" height="18px" viewBox="0 0 18 18"><path d="M3.75 7.75H9.662C10.025 7.75 10.36 7.947 10.536 8.264L11.5 10L17.25 7.75L12.349 13.542C11.969 13.991 11.411 14.25 10.822 14.25H5.75C4.645 14.25 3.75 13.355 3.75 12.25V7.75Z" fill="#000" fill-opacity="0.3" data-color="color-2" data-stroke="none"></path> <path d="M3.75 7.75H9.662C10.025 7.75 10.36 7.947 10.536 8.264L11.5 10L17.25 7.75L12.349 13.542C11.969 13.991 11.411 14.25 10.822 14.25H5.75C4.645 14.25 3.75 13.355 3.75 12.25V7.75Z" stroke="black" stroke-width="1.5" stroke-linecap="round" stroke-linejoin="round" fill="none"></path> <path d="M4.25 3.75H9.25" stroke="black" stroke-width="1.5" stroke-linecap="round" stroke-linejoin="round" fill="none"></path> <path d="M6.75 3.75V5.25" stroke="black" stroke-width="1.5" stroke-linecap="round" stroke-linejoin="round" fill="none"></path> <path d="M3.75 11.75H2.75C1.645 11.75 0.75 10.855 0.75 9.75V8.75C0.75 8.198 1.198 7.75 1.75 7.75H3.75" stroke="black" stroke-width="1.5" stroke-linecap="round" stroke-linejoin="round" fill="none"></path></svg>