<svg xmlns="http://www.w3.org/2000/svg" xmlns:xlink="http://www.w3.org/1999/xlink" x="0px" y="0px" width="18px" height="18px" viewBox="0 0 18 18"><path fill-rule="evenodd" clip-rule="evenodd" d="M4.68725 9.75L4.601 10.44C4.415 11.932 5.578 13.25 7.082 13.25H10.918C12.422 13.25 13.586 11.932 13.399 10.44L13.3127 9.75H4.68725Z" fill="#000" fill-opacity="0.3" data-color="color-2" data-stroke="none"></path> <path d="M1.75 2.25H16.25" stroke="black" stroke-width="1.5" stroke-linecap="round" stroke-linejoin="round" fill="none"></path> <path d="M9 5.25V1" stroke="black" stroke-width="1.5" stroke-linecap="round" stroke-linejoin="round" fill="none"></path> <path d="M9 5.25V9.75" stroke="black" stroke-width="1.5" stroke-linecap="round" stroke-linejoin="round" fill="none"></path> <path d="M7.457 5.25H10.543C11.804 5.25 12.867 6.189 13.024 7.44L13.399 10.44C13.586 11.932 12.422 13.25 10.918 13.25H7.082C5.578 13.25 4.415 11.932 4.601 10.44L4.976 7.44C5.132 6.189 6.196 5.25 7.457 5.25Z" stroke="black" stroke-width="1.5" stroke-linecap="round" stroke-linejoin="round" fill="none"></path> <path d="M3.75 16.25C3.75 14.593 5.093 13.25 6.75 13.25H11.25C12.907 13.25 14.25 14.593 14.25 16.25" stroke="black" stroke-width="1.5" stroke-linecap="round" stroke-linejoin="round" fill="none"></path> <path d="M13.312 9.75H4.688" stroke="black" stroke-width="1.5" stroke-linecap="round" stroke-linejoin="round" fill="none"></path></svg>