<svg xmlns="http://www.w3.org/2000/svg" xmlns:xlink="http://www.w3.org/1999/xlink" x="0px" y="0px" width="18px" height="18px" viewBox="0 0 18 18"><path d="m3.145,5.95l5.25-3.99c.358-.272.853-.272,1.21,0l5.25,3.99c.249.189.395.484.395.796v7.504c0,1.105-.895,2-2,2H4.75c-1.105,0-2-.895-2-2v-7.504c0-.313.146-.607.395-.796Z" fill="#000" opacity=".3" stroke-width="0" data-color="color-2"></path><rect x="6.25" y="7.75" width="1.5" height="1.5" rx=".25" ry=".25" stroke="#000" stroke-linecap="round" stroke-linejoin="round" stroke-width="1.5" fill="#000"></rect><rect x="10.25" y="7.75" width="1.5" height="1.5" rx=".25" ry=".25" stroke="#000" stroke-linecap="round" stroke-linejoin="round" stroke-width="1.5" fill="#000"></rect><rect x="6.25" y="11.75" width="1.5" height="1.5" rx=".25" ry=".25" stroke="#000" stroke-linecap="round" stroke-linejoin="round" stroke-width="1.5" fill="#000"></rect><rect x="10.25" y="11.75" width="1.5" height="1.5" rx=".25" ry=".25" stroke="#000" stroke-linecap="round" stroke-linejoin="round" stroke-width="1.5" fill="#000"></rect><path d="m3.145,5.95l5.25-3.99c.358-.272.853-.272,1.21,0l5.25,3.99c.249.189.395.484.395.796v7.504c0,1.105-.895,2-2,2H4.75c-1.105,0-2-.895-2-2v-7.504c0-.313.146-.607.395-.796Z" fill="none" stroke="#000" stroke-linecap="round" stroke-linejoin="round" stroke-width="1.5"></path></svg>