<svg xmlns="http://www.w3.org/2000/svg" xmlns:xlink="http://www.w3.org/1999/xlink" x="0px" y="0px" width="18px" height="18px" viewBox="0 0 18 18"><path fill-rule="evenodd" clip-rule="evenodd" d="M3.75 2.75C3.19772 2.75 2.75 3.19772 2.75 3.75V8.75H5.75V5.75H12.25V8.75H15.25V3.75C15.25 3.19772 14.8023 2.75 14.25 2.75H3.75Z" fill="#000" fill-opacity="0.3" data-color="color-2" data-stroke="none"></path> <path d="M1.75 10.75C1.75 9.64543 2.64543 8.75 3.75 8.75H14.25C15.3546 8.75 16.25 9.64543 16.25 10.75V13.25H1.75V10.75Z" fill="#000" fill-opacity="0.3" data-color="color-2" data-stroke="none"></path> <path d="M5.75 8.75V5.75H12.25V8.75" stroke="black" stroke-width="1.5" stroke-linecap="round" stroke-linejoin="round" fill="none"></path> <path d="M9 5.75V8.75" stroke="black" stroke-width="1.5" stroke-linecap="round" stroke-linejoin="round" fill="none"></path> <path d="M16.25 13.25H1.75" stroke="black" stroke-width="1.5" stroke-linecap="round" stroke-linejoin="round" fill="none"></path> <path d="M1.75 15.25V10.75C1.75 9.645 2.645 8.75 3.75 8.75H14.25C15.355 8.75 16.25 9.645 16.25 10.75V15.25" stroke="black" stroke-width="1.5" stroke-linecap="round" stroke-linejoin="round" fill="none"></path> <path d="M2.75 8.75V3.75C2.75 3.198 3.198 2.75 3.75 2.75H14.25C14.802 2.75 15.25 3.198 15.25 3.75V8.75" stroke="black" stroke-width="1.5" stroke-linecap="round" stroke-linejoin="round" fill="none"></path></svg>