<svg xmlns="http://www.w3.org/2000/svg" xmlns:xlink="http://www.w3.org/1999/xlink" x="0px" y="0px" width="20px" height="20px" viewBox="0 0 20 20"><path d="m10,2c-3.859,0-7,3.14-7,7v8c0,.388.225.741.576.906.349.163.766.112,1.064-.138l2.359-1.966,2.359,1.966c.371.31.91.31,1.281,0l2.359-1.966,2.359,1.966c.184.153.411.232.641.232.144,0,.289-.031.424-.094.352-.165.576-.518.576-.906v-8c0-3.86-3.141-7-7-7Zm-1.168,8.412c-.719.646-1.801.79-2.684.28s-1.3-1.518-1.099-2.464c.077-.365.517-.524.839-.338l2.816,1.626c.323.186.404.646.128.896Zm5.019.28c-.883.51-1.965.366-2.684-.28-.277-.249-.195-.71.128-.896l2.816-1.626c.323-.186.762-.028.839.338.201.946-.216,1.954-1.099,2.464Z" stroke-width="0" fill="#000"></path></svg>