<svg xmlns="http://www.w3.org/2000/svg" xmlns:xlink="http://www.w3.org/1999/xlink" x="0px" y="0px" width="24px" height="24px" viewBox="0 0 24 24"> <path d="M20.9999 21L16.5 21L16.5 19.3167C16.5 18.1321 16.8506 16.9741 17.5077 15.9885L18.5 14.5C16 13.5 13.4999 9.5 13.9999 3L14.4999 3" stroke="#000" stroke-width="2" stroke-miterlimit="10" stroke-linecap="square" data-color="color-2" fill="none"></path> <path d="M2.99998 21L7.5 21L7.5 19.3167C7.5 18.1321 7.14937 16.9741 6.4923 15.9885L5.5 14.5C8 13.5 10.5 9.5 9.99998 3L9.49998 3" stroke="#000" stroke-width="2" stroke-miterlimit="10" stroke-linecap="square" data-color="color-2" fill="none"></path> <path d="M21 21L21 5C21 3.89543 20.1046 3 19 3L5 3C3.89543 3 3 3.89543 3 5L3 21" stroke="black" stroke-width="2" stroke-miterlimit="10" stroke-linecap="square" fill="none"></path> </svg>