<svg xmlns="http://www.w3.org/2000/svg" xmlns:xlink="http://www.w3.org/1999/xlink" x="0px" y="0px" width="24px" height="24px" viewBox="0 0 24 24"> <path d="M13 9H11L12 7L13 9Z" fill="black" data-cap="butt" data-stroke="none"></path> <path d="M12 1C9.58106 1 7.56331 2.71776 7.10004 5H3V19C3 20.1046 3.89543 21 5 21H9V20C9 18.3431 10.3431 17 12 17C13.6569 17 15 18.3431 15 20V21H19C20.1046 21 21 20.1046 21 19V5H16.9C16.4367 2.71776 14.419 1 12 1Z" stroke="black" stroke-width="2" stroke-miterlimit="10" stroke-linecap="square" fill="none"></path> <path d="M7 13V13.01" stroke="#000" stroke-width="2" stroke-miterlimit="10" stroke-linecap="square" data-color="color-2" fill="none"></path> <path d="M12 13V13.01" stroke="#000" stroke-width="2" stroke-miterlimit="10" stroke-linecap="square" data-color="color-2" fill="none"></path> <path d="M7 9V9.01" stroke="#000" stroke-width="2" stroke-miterlimit="10" stroke-linecap="square" data-color="color-2" fill="none"></path> <path d="M17 13V13.01" stroke="#000" stroke-width="2" stroke-miterlimit="10" stroke-linecap="square" data-color="color-2" fill="none"></path> <path d="M17 9V9.01" stroke="#000" stroke-width="2" stroke-miterlimit="10" stroke-linecap="square" data-color="color-2" fill="none"></path> <path d="M12 4C12.5546 4.23543 14.5 5.53943 14.5 6.73448C14.5 7.43352 13.8971 8 13.1537 8C12.6642 8 12.2975 7.71124 12 7.38667C11.7025 7.71124 11.3358 8 10.8462 8C10.1029 8 9.5 7.43352 9.5 6.73448C9.5 5.53943 11.4454 4.23543 12 4Z" fill="black" data-cap="butt" data-stroke="none"></path> </svg>