<svg xmlns="http://www.w3.org/2000/svg" xmlns:xlink="http://www.w3.org/1999/xlink" x="0px" y="0px" width="32px" height="32px" viewBox="0 0 32 32"> <path d="M22 8L10 8" stroke="#000" stroke-width="2" data-color="color-2" data-cap="butt" fill="none"></path> <path d="M16 12L16 19" stroke="black" stroke-width="2" stroke-linecap="square" fill="none"></path> <path d="M6 27V30" stroke="black" stroke-width="2" stroke-linecap="square" fill="none"></path> <path d="M26 27V30" stroke="black" stroke-width="2" stroke-linecap="square" fill="none"></path> <path d="M18 23L14 23" stroke="#000" stroke-width="2" stroke-linecap="square" data-color="color-2" fill="none"></path> <path d="M4 27L28 27C29.1046 27 30 26.1046 30 25L30 21C30 19.8954 29.1046 19 28 19L4 19C2.89543 19 2 19.8954 2 21L2 25C2 26.1046 2.89543 27 4 27Z" stroke="black" stroke-width="2" stroke-miterlimit="10" stroke-linecap="square" fill="none"></path> <path d="M22.6445 10.7304L20.2 2L16 2L11.8 2L9.3555 10.7304C9.17695 11.368 9.65628 12 10.3185 12L21.6815 12C22.3437 12 22.823 11.368 22.6445 10.7304Z" stroke="#000" stroke-width="2" stroke-miterlimit="10" stroke-linecap="square" data-color="color-2" fill="none"></path> </svg>