<svg xmlns="http://www.w3.org/2000/svg" xmlns:xlink="http://www.w3.org/1999/xlink" x="0px" y="0px" width="32px" height="32px" viewBox="0 0 32 32"> <path d="M3 8H1" stroke="#000" stroke-width="2" stroke-linecap="square" data-color="color-2" fill="none"></path> <path d="M13 8H9" stroke="#000" stroke-width="2" stroke-linecap="square" data-color="color-2" fill="none"></path> <path d="M23 8H19" stroke="#000" stroke-width="2" stroke-linecap="square" data-color="color-2" fill="none"></path> <path d="M13 24H9" stroke="#000" stroke-width="2" stroke-linecap="square" data-color="color-2" fill="none"></path> <path d="M23 24H19" stroke="#000" stroke-width="2" stroke-linecap="square" data-color="color-2" fill="none"></path> <path d="M29 22H30L30 24H29" stroke="#000" stroke-width="2" data-color="color-2" data-cap="butt" fill="none"></path> <path d="M23 7L23 25C23 26.6569 24.3431 28 26 28C27.6569 28 29 26.6569 29 25L29 7C29 5.34315 27.6569 4 26 4C24.3431 4 23 5.34315 23 7Z" stroke="black" stroke-width="2" stroke-miterlimit="10" stroke-linecap="square" fill="none"></path> <path d="M3 7L3 25C3 26.6569 4.34315 28 6 28C7.65685 28 9 26.6569 9 25L9 7C9 5.34315 7.65685 4 6 4C4.34315 4 3 5.34315 3 7Z" stroke="black" stroke-width="2" stroke-miterlimit="10" stroke-linecap="square" fill="none"></path> <path d="M13 7L13 25C13 26.6569 14.3431 28 16 28C17.6569 28 19 26.6569 19 25L19 7C19 5.34315 17.6569 4 16 4C14.3431 4 13 5.34315 13 7Z" stroke="black" stroke-width="2" stroke-miterlimit="10" stroke-linecap="square" fill="none"></path> </svg>