<svg xmlns="http://www.w3.org/2000/svg" xmlns:xlink="http://www.w3.org/1999/xlink" x="0px" y="0px" width="32px" height="32px" viewBox="0 0 32 32"> <path d="M9 28V26H12V28" stroke="#000" stroke-width="2" stroke-linecap="square" data-color="color-2" fill="none"></path> <path d="M19 4V14" stroke="#000" stroke-width="2" data-color="color-2" data-cap="butt" fill="none"></path> <path d="M15 14L14 22L20.3686 23.1941C21.3145 23.3715 22 24.1974 22 25.1599V28H5V25.1623C5 23.871 5.82629 22.7246 7.05132 22.3162L8 22L9.52381 14" stroke="black" stroke-width="2" stroke-miterlimit="10" data-cap="butt" fill="none"></path> <path d="M7 14H20.1214L24 13V5L20.1214 4H7C5.34315 4 4 5.34315 4 7V11C4 12.6569 5.34314 14 7 14Z" stroke="black" stroke-width="2" stroke-miterlimit="10" stroke-linecap="square" fill="none"></path> <path d="M9 9H11" stroke="#000" stroke-width="2" stroke-linecap="square" data-color="color-2" fill="none"></path> <path d="M24 6.5L28 7.5V10.5L24 11.5" stroke="black" stroke-width="2" data-cap="butt" fill="none"></path> <path d="M28 9L30 9" stroke="black" stroke-width="2" stroke-linecap="square" fill="none"></path> </svg>