<svg xmlns="http://www.w3.org/2000/svg" xmlns:xlink="http://www.w3.org/1999/xlink" x="0px" y="0px" width="48px" height="48px" viewBox="0 0 48 48"> <path d="M33 15L38.5 20.5" stroke="black" stroke-width="2" stroke-linecap="square" fill="none"></path> <path d="M11.5 36.5L17 42" stroke="black" stroke-width="2" stroke-linecap="square" fill="none"></path> <path d="M19 6L24.5 11.5" stroke="black" stroke-width="2" stroke-linecap="square" fill="none"></path> <path d="M32.5 26.5L38.5 32.5" stroke="black" stroke-width="2" stroke-linecap="square" fill="none"></path> <path d="M21.5 15.5L27 21" stroke="#000" stroke-width="2" stroke-linecap="square" data-color="color-2" fill="none"></path> <path d="M6 8L8 6" stroke="#000" stroke-width="2" stroke-linecap="square" data-color="color-2" fill="none"></path> <path d="M40 42L42 40" stroke="#000" stroke-width="2" stroke-linecap="square" data-color="color-2" fill="none"></path> <path d="M21 27L26.5 32.5" stroke="#000" stroke-width="2" stroke-linecap="square" data-color="color-2" fill="none"></path> <path d="M10 27L15.5 32.5" stroke="#000" stroke-width="2" stroke-linecap="square" data-color="color-2" fill="none"></path> <path d="M31 6L36.5 11.5" stroke="#000" stroke-width="2" stroke-linecap="square" data-color="color-2" fill="none"></path> <path d="M10 16L15.5 21.5" stroke="#000" stroke-width="2" stroke-linecap="square" data-color="color-2" fill="none"></path> <path d="M23 36L29 42" stroke="#000" stroke-width="2" stroke-linecap="square" data-color="color-2" fill="none"></path> <path d="M8 6L13.5 11.5" stroke="#000" stroke-width="2" stroke-linecap="square" data-color="color-2" fill="none"></path> <path d="M34.5 36.5L40 42" stroke="#000" stroke-width="2" stroke-linecap="square" data-color="color-2" fill="none"></path> <path d="M6 42L42 6" stroke="black" stroke-width="2" stroke-linecap="square" fill="none"></path> <path d="M6 31L31 6" stroke="black" stroke-width="2" stroke-linecap="square" fill="none"></path> <path d="M17 42L42 17" stroke="black" stroke-width="2" stroke-linecap="square" fill="none"></path> <path d="M6 19L19 6" stroke="black" stroke-width="2" stroke-linecap="square" fill="none"></path> <path d="M29 42L42 29" stroke="black" stroke-width="2" stroke-linecap="square" fill="none"></path> </svg>