<svg xmlns="http://www.w3.org/2000/svg" xmlns:xlink="http://www.w3.org/1999/xlink" x="0px" y="0px" width="48px" height="48px" viewBox="0 0 48 48"> <path d="M3 31H45" stroke="#000" stroke-width="2" data-color="color-2" data-cap="butt" fill="none"></path> <path d="M7 20L7 11C7 8.23857 9.23858 6 12 6L36 6C38.7614 6 41 8.23858 41 11L41 20" stroke="black" stroke-width="2" stroke-miterlimit="10" stroke-linecap="square" fill="none"></path> <path d="M19 13L15.5 13C14.1193 13 13 14.1193 13 15.5L13 17.5C13 18.8807 14.1193 20 15.5 20L19 20C20.3807 20 21.5 18.8807 21.5 17.5L21.5 15.5C21.5 14.1193 20.3807 13 19 13Z" stroke="#000" stroke-width="2" stroke-miterlimit="10" stroke-linecap="square" data-color="color-2" fill="none"></path> <path d="M32.5 13L29 13C27.6193 13 26.5 14.1193 26.5 15.5L26.5 17.5C26.5 18.8807 27.6193 20 29 20L32.5 20C33.8807 20 35 18.8807 35 17.5L35 15.5C35 14.1193 33.8807 13 32.5 13Z" stroke="#000" stroke-width="2" stroke-miterlimit="10" stroke-linecap="square" data-color="color-2" fill="none"></path> <path d="M40 25L8 25C5.23857 25 3 27.2386 3 30L3 41L7 41L9 36L39 36L41 41L45 41L45 30C45 27.2386 42.7614 25 40 25Z" stroke="black" stroke-width="2" stroke-miterlimit="10" data-cap="butt" fill="none"></path> </svg>