<svg xmlns="http://www.w3.org/2000/svg" xmlns:xlink="http://www.w3.org/1999/xlink" x="0px" y="0px" width="48px" height="48px" viewBox="0 0 48 48"> <path d="M23 20H26" stroke="#000" stroke-width="2" stroke-linecap="square" data-color="color-2" fill="none"></path> <path d="M31 20H35" stroke="#000" stroke-width="2" stroke-linecap="square" data-color="color-2" fill="none"></path> <path d="M40 20H43" stroke="#000" stroke-width="2" stroke-linecap="square" data-color="color-2" fill="none"></path> <path d="M25 35V45H5V20" stroke="#000" stroke-width="2" stroke-miterlimit="10" data-color="color-2" data-cap="butt" fill="none"></path> <path d="M14 5H34C38.9706 5 43 11.7157 43 20C43 28.2843 38.9706 35 34 35H14" stroke="black" stroke-width="2" stroke-miterlimit="10" data-cap="butt" fill="none"></path> <path d="M14 35C18.9706 35 23 28.2843 23 20C23 11.7157 18.9706 5 14 5C9.02944 5 5 11.7157 5 20C5 28.2843 9.02944 35 14 35Z" stroke="black" stroke-width="2" stroke-miterlimit="10" stroke-linecap="square" fill="none"></path> <path d="M13.5 25C14.8807 25 16 22.7614 16 20C16 17.2386 14.8807 15 13.5 15C12.1193 15 11 17.2386 11 20C11 22.7614 12.1193 25 13.5 25Z" stroke="black" stroke-width="2" stroke-miterlimit="10" stroke-linecap="square" fill="none"></path> </svg>