<svg xmlns="http://www.w3.org/2000/svg" xmlns:xlink="http://www.w3.org/1999/xlink" x="0px" y="0px" width="48px" height="48px" viewBox="0 0 48 48"> <path d="M20 34V38" stroke="black" stroke-width="2" stroke-linecap="square" fill="none"></path> <path d="M30 14L30 8C30 5.23858 27.7614 3 25 3L15 3C12.2386 3 10 5.23858 10 8L10 40C10 42.7614 12.2386 45 15 45L25 45C27.7614 45 30 42.7614 30 40L30 22" stroke="black" stroke-width="2" stroke-miterlimit="10" stroke-linecap="square" fill="none"></path> <path d="M19.5 22L43.5 22C44.8807 22 46 20.8807 46 19.5L46 16.5C46 15.1193 44.8807 14 43.5 14L19.5 14C18.1193 14 17 15.1193 17 16.5L17 19.5C17 20.8807 18.1193 22 19.5 22Z" stroke="#000" stroke-width="2" stroke-miterlimit="10" stroke-linecap="square" data-color="color-2" fill="none"></path> <path fill-rule="evenodd" clip-rule="evenodd" d="M17 31C17 29.3431 18.3431 28 20 28C21.6569 28 23 29.3431 23 31C23 32.6569 21.6569 34 20 34C18.3431 34 17 32.6569 17 31Z" stroke="black" stroke-width="2" stroke-linecap="round" stroke-linejoin="round" fill="none"></path> </svg>