<svg xmlns="http://www.w3.org/2000/svg" xmlns:xlink="http://www.w3.org/1999/xlink" x="0px" y="0px" width="48px" height="48px" viewBox="0 0 48 48"> <path d="M19.5 18V12" stroke="#000" stroke-width="2" stroke-linecap="square" data-color="color-2" fill="none"></path> <path d="M32 25H36V23.25L28.5 18V12" stroke="#000" stroke-width="2" stroke-miterlimit="10" stroke-linecap="square" data-color="color-2" fill="none"></path> <path d="M24 33V45" stroke="black" stroke-width="2" stroke-linecap="square" fill="none"></path> <path d="M7 33H41" stroke="black" stroke-width="2" stroke-linecap="square" fill="none"></path> <path d="M7 12H41" stroke="black" stroke-width="2" stroke-linecap="square" fill="none"></path> <path d="M36 3.00001L12 3.00001C9.2386 3 7.00002 5.23858 7.00002 8L7.00002 40C7.00002 42.7614 9.2386 45 12 45L36 45C38.7614 45 41 42.7614 41 40L41 8.00001C41 5.23858 38.7614 3.00001 36 3.00001Z" stroke="black" stroke-width="2" stroke-miterlimit="10" stroke-linecap="square" fill="none"></path> <path d="M17 39L14 39" stroke="#000" stroke-width="2" stroke-linecap="square" data-color="color-2" fill="none"></path> <path d="M34 39L31 39" stroke="#000" stroke-width="2" stroke-linecap="square" data-color="color-2" fill="none"></path> <path d="M19.5 18L27 23.25V25H12V23.25L19.5 18Z" stroke="#000" stroke-width="2" stroke-miterlimit="10" stroke-linecap="square" data-color="color-2" fill="none"></path> </svg>