<svg xmlns="http://www.w3.org/2000/svg" xmlns:xlink="http://www.w3.org/1999/xlink" x="0px" y="0px" width="24px" height="24px" viewBox="0 0 24 24"> <path d="M6 13.5C6 12.1193 4.88071 11 3.5 11H2.5C2.22386 11 2 10.7761 2 10.5C2 10.2239 2.22386 10 2.5 10H5V8H2.5C1.11929 8 0 9.11929 0 10.5C0 11.8807 1.11929 13 2.5 13H3.5C3.77614 13 4 13.2239 4 13.5C4 13.7761 3.77614 14 3.5 14H1V16H3.5C4.88071 16 6 14.8807 6 13.5Z" fill="#000" data-color="color-2"></path> <path d="M11 12.5V14.5H8V12.5H11Z" fill="#000" data-color="color-2"></path> <path d="M10.7812 8L10.9697 8.75781L12.7812 16H10.415V14.7812L9.5 11.1211L8.57812 14.8086V16H6.21875L8.03027 8.75781L8.21875 8H10.7812Z" fill="#000" data-color="color-2"></path> <path d="M13.5 16H18V14H15.5V8H13.5V16Z" fill="#000" data-color="color-2"></path> <path d="M23.5713 8V10H21V11H22.5V13H21V14H23.5V16H19V8H23.5713Z" fill="#000" data-color="color-2"></path> <path d="M0 6L1.74846e-07 4L24 4L24 6L0 6Z" fill="black"></path> <path d="M0 20L1.74846e-07 18L24 18L24 20L0 20Z" fill="black"></path> </svg>