<svg xmlns="http://www.w3.org/2000/svg" xmlns:xlink="http://www.w3.org/1999/xlink" x="0px" y="0px" width="24px" height="24px" viewBox="0 0 24 24"> <path d="M16 20V22H13V20H16Z" fill="#000" data-color="color-2"></path> <path d="M11 20V22H8V20H11Z" fill="#000" data-color="color-2"></path> <path d="M11 16V18H8V16H11Z" fill="#000" data-color="color-2"></path> <path d="M16 16V18H13V16H16Z" fill="#000" data-color="color-2"></path> <path d="M6 20V22H3V20H6Z" fill="#000" data-color="color-2"></path> <path d="M21 20V22H18V20H21Z" fill="#000" data-color="color-2"></path> <path d="M22 16H20.7266L18 14.624V3.375L20.7266 2H22V16Z" fill="black"></path> <path d="M6 3.375V14.624L3.27539 16H2V2H3.27539L6 3.375Z" fill="black"></path> <path fill-rule="evenodd" clip-rule="evenodd" d="M16 14H8V4H16V14ZM11 10.832L14 9L11 7.16797V10.832Z" fill="black"></path> </svg>