<svg xmlns="http://www.w3.org/2000/svg" xmlns:xlink="http://www.w3.org/1999/xlink" x="0px" y="0px" width="48px" height="48px" viewBox="0 0 48 48"> <path d="M26 44V42C26 40.8954 26.8954 40 28 40H31C32.1046 40 33 40.8954 33 42V44H26Z" fill="#000" data-color="color-2"></path> <path d="M20.5 36V34C20.5 32.8954 21.3954 32 22.5 32H25.5C26.6046 32 27.5 32.8954 27.5 34V36H20.5Z" fill="#000" data-color="color-2"></path> <path d="M9.5 36V34C9.5 32.8954 10.3954 32 11.5 32H14.5C15.6046 32 16.5 32.8954 16.5 34V36H9.5Z" fill="#000" data-color="color-2"></path> <path d="M31.5 36V34C31.5 32.8954 32.3954 32 33.5 32H36.5C37.6046 32 38.5 32.8954 38.5 34V36H31.5Z" fill="#000" data-color="color-2"></path> <path d="M37 44V42C37 40.8954 37.8954 40 39 40H42C43.1046 40 44 40.8954 44 42V44H37Z" fill="#000" data-color="color-2"></path> <path d="M15 44V42C15 40.8954 15.8954 40 17 40H20C21.1046 40 22 40.8954 22 42V44H15Z" fill="#000" data-color="color-2"></path> <path d="M4 44V42C4 40.8954 4.89543 40 6 40H9C10.1046 40 11 40.8954 11 42V44H4Z" fill="#000" data-color="color-2"></path> <path fill-rule="evenodd" clip-rule="evenodd" d="M35 27H13V7.03027L35 7V27ZM20 22.1738L29.6094 17L20 11.8262V22.1738Z" fill="black"></path> <path d="M44 31H42.6553L38 28.3105V5.68848L42.6553 3H44V31Z" fill="black"></path> <path d="M10 5.70898V28.3105L5.34863 31H4V3H5.35059L10 5.70898Z" fill="black"></path> </svg>