<svg xmlns="http://www.w3.org/2000/svg" xmlns:xlink="http://www.w3.org/1999/xlink" x="0px" y="0px" width="18px" height="18px" viewBox="0 0 18 18"><path d="M13.25,1H4.75c-1.517,0-2.75,1.233-2.75,2.75V14.25c0,1.517,1.233,2.75,2.75,2.75H13.25c1.517,0,2.75-1.233,2.75-2.75V3.75c0-1.517-1.233-2.75-2.75-2.75Zm-4,8h-3.5c-.414,0-.75-.336-.75-.75s.336-.75,.75-.75h3.5c.414,0,.75,.336,.75,.75s-.336,.75-.75,.75Zm2.25,5c-.828,0-1.5-.672-1.5-1.5s.672-1.5,1.5-1.5,1.5,.672,1.5,1.5-.672,1.5-1.5,1.5Zm.75-8H5.75c-.414,0-.75-.336-.75-.75s.336-.75,.75-.75h6.5c.414,0,.75,.336,.75,.75s-.336,.75-.75,.75Z" fill="#000"></path></svg>