<svg xmlns="http://www.w3.org/2000/svg" xmlns:xlink="http://www.w3.org/1999/xlink" x="0px" y="0px" width="18px" height="18px" viewBox="0 0 18 18"><path d="M13.75,2H6.75c-.414,0-.75,.336-.75,.75s.336,.75,.75,.75h3.75v2.75c0,.414,.336,.75,.75,.75s.75-.336,.75-.75V3.5h1.75c.689,0,1.25,.561,1.25,1.25v1.5c0,.414,.336,.75,.75,.75s.75-.336,.75-.75v-1.5c0-1.517-1.233-2.75-2.75-2.75Z" fill="#000" data-color="color-2"></path><path d="M15.75,5.5H7.5V2.75c0-.414-.336-.75-.75-.75h-2.5c-1.517,0-2.75,1.233-2.75,2.75V13.25c0,1.517,1.233,2.75,2.75,2.75H13.75c1.517,0,2.75-1.233,2.75-2.75V6.25c0-.414-.336-.75-.75-.75Z" fill="#000"></path></svg>