<svg xmlns="http://www.w3.org/2000/svg" xmlns:xlink="http://www.w3.org/1999/xlink" x="0px" y="0px" width="20px" height="20px" viewBox="0 0 20 20"><rect x="3" y="14" width="1" height="2" fill="#000" stroke="#000" stroke-linecap="round" stroke-linejoin="round" stroke-width="2" data-color="color-2"></rect><rect x="16" y="14" width="1" height="2" fill="#000" stroke="#000" stroke-linecap="round" stroke-linejoin="round" stroke-width="2" data-color="color-2"></rect><path d="m17.9619,13.2251l-1-3.5c-.123-.4292-.5156-.7251-.9619-.7251H4c-.4463,0-.8389.2959-.9619.7251l-1,3.5c-.0859.3018-.0254.6265.1631.877.1895.2505.4854.3979.7988.3979h14c.3135,0,.6094-.1475.7988-.3979.1885-.2505.249-.5752.1631-.877Zm-12.7119-.2251c-.6904,0-1.25-.5596-1.25-1.25s.5596-1.25,1.25-1.25,1.25.5596,1.25,1.25-.5596,1.25-1.25,1.25Zm9.5,0c-.6904,0-1.25-.5596-1.25-1.25s.5596-1.25,1.25-1.25,1.25.5596,1.25,1.25-.5596,1.25-1.25,1.25Z" stroke-width="0" fill="#000"></path><path d="m17,13.5v-3.5l-1.5442-4.6325c-.2722-.8167-1.0365-1.3675-1.8974-1.3675h-7.117c-.8609,0-1.6251.5509-1.8974,1.3675l-1.3902,4.1706c-.102.3059-.154.6262-.154.9487v3.0132" fill="none" stroke="#000" stroke-linecap="round" stroke-linejoin="round" stroke-width="2"></path></svg>