<svg xmlns="http://www.w3.org/2000/svg" xmlns:xlink="http://www.w3.org/1999/xlink" x="0px" y="0px" width="20px" height="20px" viewBox="0 0 20 20"><rect x="4" y="15" width="1" height="2" fill="#000" stroke="#000" stroke-linecap="round" stroke-linejoin="round" stroke-width="2" data-color="color-2"></rect><rect x="15" y="15" width="1" height="2" fill="#000" stroke="#000" stroke-linecap="round" stroke-linejoin="round" stroke-width="2" data-color="color-2"></rect><path d="m1.25,10.75c-.4141,0-.75-.3359-.75-.75v-1.75c0-1.2407,1.0098-2.25,2.25-2.25h1.25c.4141,0,.75.3359.75.75s-.3359.75-.75.75h-1.25c-.4131,0-.75.3364-.75.75v1.75c0,.4141-.3359.75-.75.75Z" stroke-width="0" fill="#000"></path><path d="m18.75,10.75c.4141,0,.75-.3359.75-.75v-1.75c0-1.2407-1.0098-2.25-2.25-2.25h-1.25c-.4141,0-.75.3359-.75.75s.3359.75.75.75h1.25c.4131,0,.75.3364.75.75v1.75c0,.4141.3359.75.75.75Z" stroke-width="0" fill="#000"></path><path d="m4,10v6h12v-6H4Zm2.25,4.25c-.6904,0-1.25-.5596-1.25-1.25s.5596-1.25,1.25-1.25,1.25.5596,1.25,1.25-.5596,1.25-1.25,1.25Zm7.5,0c-.6904,0-1.25-.5596-1.25-1.25s.5596-1.25,1.25-1.25,1.25.5596,1.25,1.25-.5596,1.25-1.25,1.25Z" stroke-width="0" fill="#000"></path><path d="m4,15V6c0-1.6569,1.3431-3,3-3h6c1.6569,0,3,1.3431,3,3v9" fill="none" stroke="#000" stroke-linecap="round" stroke-linejoin="round" stroke-width="2"></path></svg>