<svg xmlns="http://www.w3.org/2000/svg" xmlns:xlink="http://www.w3.org/1999/xlink" x="0px" y="0px" width="24px" height="24px" viewBox="0 0 24 24"> <path d="M9.5 22L6.99999 22C5.89542 22 4.99999 21.1046 4.99999 20L4.99999 4C4.99999 2.89543 5.89542 2 6.99999 2L17 2C18.1046 2 19 2.89543 19 4L19 8.20271" stroke="black" stroke-width="2" stroke-miterlimit="10" stroke-linecap="square" fill="none"></path> <path d="M13.4397 5.12062L10.5603 5.12062C10.527 5.12062 10.5 5.09362 10.5 5.06031C10.5 5.027 10.527 5 10.5603 5L13.4397 5C13.473 5 13.5 5.027 13.5 5.06031C13.5 5.09362 13.473 5.12062 13.4397 5.12062Z" stroke="black" stroke-width="2" stroke-miterlimit="10" stroke-linecap="square" fill="none"></path> <path d="M17 20.75C19.0711 20.75 20.75 19.0711 20.75 17C20.75 14.9289 19.0711 13.25 17 13.25C14.9289 13.25 13.25 14.9289 13.25 17C13.25 19.0711 14.9289 20.75 17 20.75Z" stroke="#000" stroke-width="2" stroke-miterlimit="10" stroke-linecap="square" data-color="color-2" fill="none"></path> <path d="M16.449 13.29L16.813 12H17.188L17.551 13.29" stroke="#000" stroke-width="2" stroke-miterlimit="10" data-color="color-2" data-cap="butt" fill="none"></path> <path d="M19.234 13.987L20.403 13.332L20.668 13.597L20.013 14.766" stroke="#000" stroke-width="2" stroke-miterlimit="10" data-color="color-2" data-cap="butt" fill="none"></path> <path d="M20.71 16.449L22 16.812V17.187L20.71 17.551" stroke="#000" stroke-width="2" stroke-miterlimit="10" data-color="color-2" data-cap="butt" fill="none"></path> <path d="M20.013 19.234L20.668 20.403L20.403 20.668L19.234 20.013" stroke="#000" stroke-width="2" stroke-miterlimit="10" data-color="color-2" data-cap="butt" fill="none"></path> <path d="M17.551 20.71L17.188 22H16.813L16.449 20.71" stroke="#000" stroke-width="2" stroke-miterlimit="10" data-color="color-2" data-cap="butt" fill="none"></path> <path d="M14.766 20.013L13.597 20.668L13.332 20.403L13.987 19.234" stroke="#000" stroke-width="2" stroke-miterlimit="10" data-color="color-2" data-cap="butt" fill="none"></path> <path d="M13.29 17.551L12 17.188V16.813L13.29 16.449" stroke="#000" stroke-width="2" stroke-miterlimit="10" data-color="color-2" data-cap="butt" fill="none"></path> <path d="M13.987 14.766L13.332 13.597L13.597 13.332L14.766 13.987" stroke="#000" stroke-width="2" stroke-miterlimit="10" data-color="color-2" data-cap="butt" fill="none"></path> </svg>