<svg xmlns="http://www.w3.org/2000/svg" xmlns:xlink="http://www.w3.org/1999/xlink" x="0px" y="0px" width="24px" height="24px" viewBox="0 0 24 24"> <path d="M18 2H6C4.89543 2 4 2.89543 4 4V20C4 21.1046 4.89543 22 6 22H18C19.1046 22 20 21.1046 20 20V4C20 2.89543 19.1046 2 18 2Z" stroke="black" stroke-width="2" stroke-miterlimit="10" stroke-linecap="square" fill="none"></path> <path d="M8 12H16" stroke="#000" stroke-width="2" stroke-miterlimit="10" stroke-linecap="square" data-color="color-2" fill="none"></path> <path d="M14 8L16 8" stroke="#000" stroke-width="2" stroke-miterlimit="10" stroke-linecap="square" data-color="color-2" fill="none"></path> <path d="M11 9L11 5L7 5L7 9L11 9Z" fill="#000" data-color="color-2" data-cap="butt" data-stroke="none"></path> <path d="M12 20C12.6904 20 13.25 19.4404 13.25 18.75C13.25 18.0596 12.6904 17.5 12 17.5C11.3096 17.5 10.75 18.0596 10.75 18.75C10.75 19.4404 11.3096 20 12 20Z" fill="black" data-cap="butt" data-stroke="none"></path> </svg>