<svg xmlns="http://www.w3.org/2000/svg" xmlns:xlink="http://www.w3.org/1999/xlink" x="0px" y="0px" width="24px" height="24px" viewBox="0 0 24 24"> <path d="M13 22L6.99999 22C5.89542 22 4.99999 21.1046 4.99999 20L4.99999 4C4.99999 2.89543 5.89542 2 6.99999 2L17 2C18.1046 2 19 2.89543 19 4L19 13" stroke="black" stroke-width="2" stroke-miterlimit="10" stroke-linecap="square" fill="none"></path> <path d="M13.4397 5.12062L10.5603 5.12062C10.527 5.12062 10.5 5.09362 10.5 5.06031C10.5 5.027 10.527 5 10.5603 5L13.4397 5C13.473 5 13.5 5.027 13.5 5.06031C13.5 5.09362 13.473 5.12062 13.4397 5.12062Z" stroke="black" stroke-width="2" stroke-miterlimit="10" stroke-linecap="square" fill="none"></path> <path d="M15 18H23" stroke="#000" stroke-width="2" stroke-miterlimit="10" stroke-linecap="square" data-color="color-2" fill="none"></path> </svg>