<svg xmlns="http://www.w3.org/2000/svg" xmlns:xlink="http://www.w3.org/1999/xlink" x="0px" y="0px" width="24px" height="24px" viewBox="0 0 24 24"> <path d="M3.61755 6.31049C1.4071 10.1348 1.65711 15.7993 4.92893 19.0711C8.20075 22.3429 13.822 22.61 17.6463 20.3995" stroke="black" stroke-width="2" stroke-miterlimit="10" data-cap="butt" fill="none"></path> <path d="M13 1C18.5228 1 23 5.47715 23 11" stroke="#000" stroke-width="2" stroke-miterlimit="10" stroke-linecap="square" data-color="color-2" fill="none"></path> <path d="M13 5C16.3137 5 19 7.68629 19 11" stroke="#000" stroke-width="2" stroke-miterlimit="10" stroke-linecap="square" data-color="color-2" fill="none"></path> <path d="M15.6481 14C17.8208 16.8267 18.8201 19.322 17.9497 20.1924C16.7782 21.3639 12.6626 19.1479 8.75734 15.2426C4.8521 11.3374 2.63602 7.22181 3.8076 6.05024C4.67798 5.17985 7.17324 6.17921 9.99998 8.35187" stroke="black" stroke-width="2" stroke-miterlimit="10" stroke-linecap="square" fill="none"></path> <path d="M11.5 12.5L14 10" stroke="black" stroke-width="2" stroke-linecap="square" fill="none"></path> </svg>