<svg xmlns="http://www.w3.org/2000/svg" xmlns:xlink="http://www.w3.org/1999/xlink" x="0px" y="0px" width="32px" height="32px" viewBox="0 0 32 32"> <path d="M11.5 2L15.5 6H16.8333" stroke="#000" stroke-width="2" stroke-linecap="square" data-color="color-2" fill="none"></path> <path d="M20.5 2L16.5 6H15.1667" stroke="#000" stroke-width="2" stroke-linecap="square" data-color="color-2" fill="none"></path> <path d="M30 9L30 25C30 26.6569 28.6569 28 27 28L5 28C3.34315 28 2 26.6569 2 25L2 9C2 7.34315 3.34315 6 5 6L27 6C28.6569 6 30 7.34315 30 9Z" stroke="black" stroke-width="2" stroke-miterlimit="10" stroke-linecap="square" fill="none"></path> <path d="M22 24L22 10L6 10L6 24L22 24Z" stroke="#000" stroke-width="2" stroke-miterlimit="10" stroke-linecap="square" data-color="color-2" fill="none"></path> <path d="M26 11.0133V11" stroke="black" stroke-width="2" stroke-linecap="square" fill="none"></path> <path d="M26 15.0133V15" stroke="black" stroke-width="2" stroke-linecap="square" fill="none"></path> <path d="M26 19.0133V19" stroke="black" stroke-width="2" stroke-linecap="square" fill="none"></path> </svg>