<svg xmlns="http://www.w3.org/2000/svg" xmlns:xlink="http://www.w3.org/1999/xlink" x="0px" y="0px" width="32px" height="32px" viewBox="0 0 32 32"> <path d="M24 2L8 2C6.34315 2 5 3.34315 5 5L5 27C5 28.6569 6.34315 30 8 30L24 30C25.6569 30 27 28.6569 27 27L27 5C27 3.34315 25.6569 2 24 2Z" stroke="black" stroke-width="2" stroke-miterlimit="10" stroke-linecap="square" fill="none"></path> <path d="M10 16H14" stroke="#000" stroke-width="2" stroke-miterlimit="10" stroke-linecap="square" data-color="color-2" fill="none"></path> <path d="M20 12H22" stroke="#000" stroke-width="2" stroke-miterlimit="10" stroke-linecap="square" data-color="color-2" fill="none"></path> <path d="M10 12H16" stroke="#000" stroke-width="2" stroke-miterlimit="10" stroke-linecap="square" data-color="color-2" fill="none"></path> <path d="M22 8H16" stroke="#000" stroke-width="2" stroke-miterlimit="10" stroke-linecap="square" data-color="color-2" fill="none"></path> <path d="M12 8H10" stroke="#000" stroke-width="2" stroke-miterlimit="10" stroke-linecap="square" data-color="color-2" fill="none"></path> <path d="M16 27C16.9665 27 17.75 26.2165 17.75 25.25C17.75 24.2835 16.9665 23.5 16 23.5C15.0335 23.5 14.25 24.2835 14.25 25.25C14.25 26.2165 15.0335 27 16 27Z" fill="#000" data-color="color-2" data-cap="butt" data-stroke="none"></path> </svg>