<svg xmlns="http://www.w3.org/2000/svg" xmlns:xlink="http://www.w3.org/1999/xlink" x="0px" y="0px" width="32px" height="32px" viewBox="0 0 32 32"> <path d="M2 10L2 22C2 23.6569 3.34315 25 5 25L27 25C28.6569 25 30 23.6569 30 22L30 10C30 8.34315 28.6569 7 27 7L5 7C3.34315 7 2 8.34315 2 10Z" stroke="black" stroke-width="2" stroke-miterlimit="10" stroke-linecap="square" fill="none"></path> <path d="M6.5 14.25L6.5 17.75C6.5 17.8881 6.38807 18 6.25 18C6.11193 18 6 17.8881 6 17.75L6 14.25C6 14.1119 6.11193 14 6.25 14C6.38807 14 6.5 14.1119 6.5 14.25Z" stroke="#000" stroke-width="2" stroke-miterlimit="10" stroke-linecap="square" data-color="color-2" fill="none"></path> </svg>