<svg xmlns="http://www.w3.org/2000/svg" xmlns:xlink="http://www.w3.org/1999/xlink" x="0px" y="0px" width="32px" height="32px" viewBox="0 0 32 32"> <path d="M18 27L27 27C28.6569 27 30 25.6569 30 24L30 8C30 6.34315 28.6569 5 27 5L5 5C3.34315 5 2 6.34314 2 8L2 11" stroke="black" stroke-width="2" stroke-miterlimit="10" stroke-linecap="square" fill="none"></path> <path d="M6.03189 26.9894L2.01063 26.9894L2.01063 22.9681C3.03976 22.9681 4.06889 23.3607 4.85409 24.1459C5.63929 24.9311 6.03189 25.9602 6.03189 26.9894Z" stroke="#000" stroke-width="2" stroke-linecap="square" data-color="color-2" fill="none"></path> <path d="M10 27C10 22.5817 6.41828 19 2 19" stroke="#000" stroke-width="2" stroke-miterlimit="10" stroke-linecap="square" data-color="color-2" fill="none"></path> <path d="M14 27C14 20.3726 8.62742 15 2 15" stroke="#000" stroke-width="2" stroke-miterlimit="10" stroke-linecap="square" data-color="color-2" fill="none"></path> </svg>