<svg xmlns="http://www.w3.org/2000/svg" xmlns:xlink="http://www.w3.org/1999/xlink" x="0px" y="0px" width="48px" height="48px" viewBox="0 0 48 48"> <path d="M43.9592 10.0514L44.0473 10.2105C42.6965 7.7037 40.0472 6 37 6C32.9204 6 29.554 9.05369 29.0619 13" stroke="#000" stroke-width="2" stroke-miterlimit="10" stroke-linecap="square" data-color="color-2" fill="none"></path> <path d="M3 34V38C3 39.6569 4.34315 41 6 41H42C43.6569 41 45 39.6569 45 38V34H32V35C32 36.1046 31.1046 37 30 37H18C16.8954 37 16 36.1046 16 35V34H3Z" stroke="black" stroke-width="2" stroke-miterlimit="10" stroke-linecap="square" fill="none"></path> <path d="M5 29V12C5 9.23858 7.23858 7 10 7H25" stroke="black" stroke-width="2" stroke-miterlimit="10" stroke-linecap="square" fill="none"></path> <path d="M44 6V10H40" stroke="#000" stroke-width="2" stroke-linecap="square" data-color="color-2" fill="none"></path> <path d="M30 22V18H34" stroke="#000" stroke-width="2" stroke-linecap="square" data-color="color-2" fill="none"></path> <path d="M30.0815 18.0193L29.9527 17.7895C31.3035 20.2963 33.9528 22 37 22C41.0796 22 44.446 18.9463 44.9381 15" stroke="#000" stroke-width="2" stroke-miterlimit="10" stroke-linecap="square" data-color="color-2" fill="none"></path> <path d="M43 28.9999L43 26" stroke="black" stroke-width="2" stroke-miterlimit="10" stroke-linecap="square" fill="none"></path> </svg>