<svg xmlns="http://www.w3.org/2000/svg" xmlns:xlink="http://www.w3.org/1999/xlink" x="0px" y="0px" width="48px" height="48px" viewBox="0 0 48 48"> <path d="M24 38V45" stroke="#000" stroke-width="2" stroke-linecap="square" data-color="color-2" fill="none"></path> <path d="M19 45L16 45C13.2386 45 11 42.7614 11 40L11 8C11 5.23858 13.2386 3 16 3L32 3C34.7614 3 37 5.23858 37 8L37 40C37 42.7614 34.7614 45 32 45L29 45" stroke="black" stroke-width="2" stroke-miterlimit="10" stroke-linecap="square" fill="none"></path> <path d="M26.5 9L21.5 9C21.2239 9 21 8.77614 21 8.5C21 8.22386 21.2239 8 21.5 8L26.5 8C26.7761 8 27 8.22386 27 8.5C27 8.77614 26.7761 9 26.5 9Z" stroke="black" stroke-width="2" stroke-miterlimit="10" stroke-linecap="square" fill="none"></path> <path d="M20 25L20 19" stroke="#000" stroke-width="2" stroke-linecap="square" data-color="color-2" fill="none"></path> <path d="M28 25L28 19" stroke="#000" stroke-width="2" stroke-linecap="square" data-color="color-2" fill="none"></path> <path d="M16 25L16 30C16 34.4183 19.5817 38 24 38C28.4183 38 32 34.4183 32 30L32 25L16 25Z" stroke="#000" stroke-width="2" stroke-miterlimit="10" stroke-linecap="square" data-color="color-2" fill="none"></path> <path d="M23.25 30.75C23.25 31.1642 23.5858 31.5 24 31.5C24.4142 31.5 24.75 31.1642 24.75 30.75C24.75 30.3358 24.4142 30 24 30C23.5858 30 23.25 30.3358 23.25 30.75Z" fill="black" stroke="black" stroke-width="2" stroke-miterlimit="10" stroke-linecap="square"></path> </svg>