<svg xmlns="http://www.w3.org/2000/svg" xmlns:xlink="http://www.w3.org/1999/xlink" x="0px" y="0px" width="48px" height="48px" viewBox="0 0 48 48"> <path d="M11 14H37" stroke="black" stroke-width="2" stroke-miterlimit="10" stroke-linecap="square" fill="none"></path> <path d="M30 9H31" stroke="#000" stroke-width="2" stroke-miterlimit="10" stroke-linecap="square" data-color="color-2" fill="none"></path> <path d="M30 19H31" stroke="#000" stroke-width="2" stroke-miterlimit="10" stroke-linecap="square" data-color="color-2" fill="none"></path> <path d="M11 24H37" stroke="black" stroke-width="2" stroke-miterlimit="10" stroke-linecap="square" fill="none"></path> <path d="M32 4L16 4C13.2386 4 11 6.23858 11 9L11 39C11 41.7614 13.2386 44 16 44L32 44C34.7614 44 37 41.7614 37 39L37 9C37 6.23858 34.7614 4 32 4Z" stroke="black" stroke-width="2" stroke-miterlimit="10" stroke-linecap="square" fill="none"></path> <path d="M24 39C25.6569 39 27 37.6569 27 36C27 34.3431 25.6569 33 24 33C22.3431 33 21 34.3431 21 36C21 37.6569 22.3431 39 24 39Z" stroke="#000" stroke-width="2" stroke-miterlimit="10" stroke-linecap="square" data-color="color-2" fill="none"></path> </svg>