<svg xmlns="http://www.w3.org/2000/svg" xmlns:xlink="http://www.w3.org/1999/xlink" x="0px" y="0px" width="48px" height="48px" viewBox="0 0 48 48"> <path d="M24 35V43" stroke="black" stroke-width="2" data-cap="butt" fill="none"></path> <path d="M35 35V43" stroke="black" stroke-width="2" data-cap="butt" fill="none"></path> <path d="M13 35V43" stroke="black" stroke-width="2" data-cap="butt" fill="none"></path> <path d="M9.00009 18.5L16.2246 34.9912" stroke="#000" stroke-width="2" data-color="color-2" data-cap="butt" fill="none"></path> <path d="M14.4999 18L22.0001 35.0001" stroke="#000" stroke-width="2" data-color="color-2" data-cap="butt" fill="none"></path> <path d="M29.5 15.5H16.5" stroke="#000" stroke-width="2" data-color="color-2" data-cap="butt" fill="none"></path> <path d="M29.5 10.5H16.5" stroke="#000" stroke-width="2" data-color="color-2" data-cap="butt" fill="none"></path> <path d="M11 19C14.3137 19 17 16.3137 17 13C17 9.68629 14.3137 7 11 7C7.68629 7 5 9.68629 5 13C5 16.3137 7.68629 19 11 19Z" stroke="black" stroke-width="2" stroke-miterlimit="10" stroke-linecap="square" fill="none"></path> <path d="M43 19L35.1961 21.4155C34.0893 21.7581 32.8921 21.2953 32.3035 20.2972L28.749 14.27C28.2868 13.4864 28.2868 12.5136 28.749 11.73L32.3035 5.70277C32.8921 4.70474 34.0893 4.24192 35.1961 4.58451L43 7" stroke="black" stroke-width="2" stroke-miterlimit="10" stroke-linecap="square" fill="none"></path> <path d="M41 35H7C4.79086 35 3 36.7909 3 39C3 41.2091 4.79086 43 7 43H41C43.2091 43 45 41.2091 45 39C45 36.7909 43.2091 35 41 35Z" stroke="black" stroke-width="2" stroke-miterlimit="10" stroke-linecap="square" fill="none"></path> </svg>