<svg xmlns="http://www.w3.org/2000/svg" xmlns:xlink="http://www.w3.org/1999/xlink" x="0px" y="0px" width="48px" height="48px" viewBox="0 0 48 48"> <path d="M5 26H12C14.2091 26 16 24.2091 16 22V21C16 18.7909 17.7909 17 20 17V17C22.2091 17 24 18.7909 24 21V31C24 33.2091 25.7909 35 28 35V35C30.2091 35 32 33.2091 32 31V30C32 27.7909 33.7909 26 36 26H43" stroke="#000" stroke-width="2" stroke-linecap="square" data-color="color-2" fill="none"></path> <path d="M11 16L11 8C11 5.23857 13.2386 3 16 3L32 3C34.7614 3 37 5.23858 37 8L37 21" stroke="black" stroke-width="2" stroke-miterlimit="10" stroke-linecap="square" fill="none"></path> <path d="M26.5 9L21.5 9C21.2239 9 21 8.77614 21 8.5C21 8.22386 21.2239 8 21.5 8L26.5 8C26.7761 8 27 8.22386 27 8.5C27 8.77614 26.7761 9 26.5 9Z" stroke="black" stroke-width="2" stroke-miterlimit="10" stroke-linecap="square" fill="none"></path> <path d="M11 31L11 40C11 42.7614 13.2386 45 16 45L32 45C34.7614 45 37 42.7614 37 40L37 36" stroke="black" stroke-width="2" stroke-miterlimit="10" stroke-linecap="square" fill="none"></path> </svg>