<svg xmlns="http://www.w3.org/2000/svg" xmlns:xlink="http://www.w3.org/1999/xlink" x="0px" y="0px" width="48px" height="48px" viewBox="0 0 48 48"> <path d="M35.3378 12.6071L35.3813 12.66C32.5618 9.21359 28.1833 7 23.2667 7C14.8377 7 8.00013 13.5086 7.8784 21.5785C4.45667 22.7367 2 25.8621 2 29.5455C2 33.8765 5.72801 37.8939 10.1226 37.8939H10.0305" stroke="black" stroke-width="2" stroke-miterlimit="10" stroke-linecap="square" fill="none"></path> <path d="M44 4L4 44" stroke="#000" stroke-width="2" stroke-miterlimit="10" stroke-linecap="square" data-color="color-2" fill="none"></path> <path d="M17 38.0002H37.9333C42.3891 38.0002 46 34.531 46 30.2502C46 26.1948 42.7572 22.8736 38.6285 22.534C38.6417 22.2874 38.6667 22.045 38.6667 21.7956C38.6667 20.1977 38.403 18.6589 37.9152 17.2173" stroke="black" stroke-width="2" stroke-miterlimit="10" stroke-linecap="square" fill="none"></path> </svg>