<svg xmlns="http://www.w3.org/2000/svg" xmlns:xlink="http://www.w3.org/1999/xlink" x="0px" y="0px" width="18px" height="18px" viewBox="0 0 18 18"><path d="M9 3.75C9.82843 3.75 10.5 3.07843 10.5 2.25C10.5 1.42157 9.82843 0.75 9 0.75C8.17157 0.75 7.5 1.42157 7.5 2.25C7.5 3.07843 8.17157 3.75 9 3.75Z" fill="#000" fill-opacity="0.3" data-color="color-2" data-stroke="none"></path> <path d="M9 3.75C9.82843 3.75 10.5 3.07843 10.5 2.25C10.5 1.42157 9.82843 0.75 9 0.75C8.17157 0.75 7.5 1.42157 7.5 2.25C7.5 3.07843 8.17157 3.75 9 3.75Z" stroke="black" stroke-width="1.5" stroke-linecap="round" stroke-linejoin="round" fill="none"></path> <path d="M7.25 16.5V6.24001" stroke="black" stroke-width="1.5" stroke-linecap="round" stroke-linejoin="round" fill="none"></path> <path d="M10.75 6.24001V16.5" stroke="black" stroke-width="1.5" stroke-linecap="round" stroke-linejoin="round" fill="none"></path> <path d="M2.75 5.75C4.501 6.05 6.61 6.281 9 6.281C10.777 6.281 12.894 6.153 15.25 5.75" stroke="black" stroke-width="1.5" stroke-linecap="round" stroke-linejoin="round" fill="none"></path> <path d="M7.25 11.25H10.75" stroke="black" stroke-width="1.5" stroke-linecap="round" stroke-linejoin="round" fill="none"></path></svg>