<svg xmlns="http://www.w3.org/2000/svg" xmlns:xlink="http://www.w3.org/1999/xlink" x="0px" y="0px" width="18px" height="18px" viewBox="0 0 18 18"><path d="M14.25 6.7083V4.25C14.25 3.145 13.355 2.25 12.25 2.25H4.75C3.645 2.25 2.75 3.145 2.75 4.25V13.25C2.75 14.355 3.645 15.25 4.75 15.25" stroke="black" stroke-width="1.5" stroke-linecap="round" stroke-linejoin="round" fill="none"></path> <path opacity="0.3" d="M8.25 11.75H10.25L13.25 9.5V17L10.25 14.75H8.25C7.698 14.75 7.25 14.302 7.25 13.75V12.75C7.25 12.198 7.698 11.75 8.25 11.75Z" fill="#000" data-color="color-2" data-stroke="none"></path> <path d="M8.25 11.75H10.25L13.25 9.5V17L10.25 14.75H8.25C7.698 14.75 7.25 14.302 7.25 13.75V12.75C7.25 12.198 7.698 11.75 8.25 11.75Z" stroke="black" stroke-width="1.5" stroke-linecap="round" stroke-linejoin="round" fill="none"></path> <path d="M15.75 10.813C16.507 11.358 17 12.246 17 13.25C17 14.254 16.507 15.142 15.75 15.687" stroke="black" stroke-width="1.5" stroke-linecap="round" stroke-linejoin="round" fill="none"></path> <path d="M5.75 5.25H11.25" stroke="black" stroke-width="1.5" stroke-linecap="round" stroke-linejoin="round" fill="none"></path> <path d="M5.75 8.25H9" stroke="black" stroke-width="1.5" stroke-linecap="round" stroke-linejoin="round" fill="none"></path></svg>