<svg xmlns="http://www.w3.org/2000/svg" xmlns:xlink="http://www.w3.org/1999/xlink" x="0px" y="0px" width="18px" height="18px" viewBox="0 0 18 18"><path d="m15.3096,5.353l-5.25-3.9897c-.624-.4746-1.4951-.4731-2.1191-.0005l-5.25,3.9902v.0005c-.4326.3291-.6904.8496-.6904,1.3926v7.5039c0,1.5166,1.2334,2.75,2.75,2.75h8.5c1.5166,0,2.75-1.2334,2.75-2.75v-7.5039c0-.543-.2578-1.0635-.6904-1.3931Zm-5.5137,7.897h-.0459c0,.4141-.3359.75-.75.75s-.75-.3359-.75-.75h-1.0684c-.4141,0-.75-.3359-.75-.75s.3359-.75.75-.75h2.6143c.2754,0,.5-.2241.5-.5,0-.2754-.2246-.4995-.5-.4995h-1.5918c-1.1025,0-2-.8975-2-2.0005s.8975-2,2-2h.0459c0-.4141.3359-.75.75-.75s.75.3359.75.75h1.0684c.4141,0,.75.3359.75.75s-.3359.75-.75.75h-2.6143c-.2754,0-.5.2241-.5.5s.2246.5005.5.5005h1.5918c1.1025,0,2,.897,2,1.9995s-.8975,2-2,2Z" stroke-width="0" fill="#000"></path></svg>