<svg xmlns="http://www.w3.org/2000/svg" xmlns:xlink="http://www.w3.org/1999/xlink" x="0px" y="0px" width="24px" height="24px" viewBox="0 0 24 24"><path d="m12,6.5h0c1.87,0,3.326,1.621,3.127,3.48l-.084.786c-.167,1.555-1.479,2.734-3.043,2.734h0c-1.564,0-2.876-1.179-3.043-2.734l-.084-.786c-.199-1.859,1.258-3.48,3.127-3.48Z" fill="none" stroke="#000" stroke-linecap="square" stroke-miterlimit="10" stroke-width="2" data-color="color-2"></path><path d="m5.824,19.864l.531-1.857c.091-.317.332-.577.645-.681,3.333-1.102,6.666-1.102,9.999,0,.313.104.555.363.645.681l.531,1.857" fill="none" stroke="#000" stroke-miterlimit="10" stroke-width="2" data-color="color-2" data-cap="butt"></path><circle cx="12" cy="12" r="10" fill="none" stroke="#000" stroke-linecap="square" stroke-miterlimit="10" stroke-width="2"></circle></svg>