<svg xmlns="http://www.w3.org/2000/svg" xmlns:xlink="http://www.w3.org/1999/xlink" x="0px" y="0px" width="24px" height="24px" viewBox="0 0 24 24"><path d="M6.08289 21C6.55889 18.1621 9.02666 16 11.9999 16C14.9732 16 17.441 18.1621 17.917 21" stroke="black" stroke-width="2" stroke-miterlimit="10" fill="none" data-cap="butt"></path> <path d="M13.5 8.5L12 5L10.5 8.5L7 10L10.5 11.5L12 15L13.5 11.5L17 10L13.5 8.5Z" fill="#000" data-color="color-2" data-stroke="none" data-cap="butt"></path> <path d="M5 21H19C20.1046 21 21 20.1046 21 19V5C21 3.89543 20.1046 3 19 3H5C3.89543 3 3 3.89543 3 5V19C3 20.1046 3.89543 21 5 21Z" stroke="black" stroke-width="2" stroke-miterlimit="10" stroke-linecap="square" fill="none"></path></svg>