<svg xmlns="http://www.w3.org/2000/svg" xmlns:xlink="http://www.w3.org/1999/xlink" x="0px" y="0px" width="24px" height="24px" viewBox="0 0 24 24"> <path d="M11 10C13.2091 10 15 8.20914 15 6C15 3.79086 13.2091 2 11 2C8.79086 2 7 3.79086 7 6C7 8.20914 8.79086 10 11 10Z" stroke="black" stroke-width="2" stroke-miterlimit="10" stroke-linecap="square" fill="none"></path> <path d="M8 21.847C6.33333 21.6954 4.66667 21.4167 3 21C3 16.582 6.582 13 11 13C11.7153 13 12.407 13.0966 13.0653 13.2749" stroke="black" stroke-width="2" stroke-miterlimit="10" stroke-linecap="square" fill="none"></path> <path d="M15 23L21.5 16.5C22.3284 15.6716 22.3284 14.3284 21.5 13.5C20.6716 12.6716 19.3284 12.6716 18.5 13.5L12 20V23H15Z" stroke="#000" stroke-width="2" stroke-miterlimit="10" stroke-linecap="square" data-color="color-2" fill="none"></path> </svg>