<svg xmlns="http://www.w3.org/2000/svg" xmlns:xlink="http://www.w3.org/1999/xlink" x="0px" y="0px" width="24px" height="24px" viewBox="0 0 24 24"><circle cx="6.5" cy="3.5" r="2.5" fill="none" stroke="#000" stroke-linecap="square" stroke-miterlimit="10" stroke-width="2"></circle><circle cx="17.5" cy="3.5" r="2.5" fill="none" stroke="#000" stroke-linecap="square" stroke-miterlimit="10" stroke-width="2"></circle><circle cx="12" cy="15" r="2" fill="none" stroke="#000" stroke-linecap="square" stroke-miterlimit="10" stroke-width="2" data-color="color-2"></circle><polyline points="9 23 9 20 15 20 15 23" fill="none" stroke="#000" stroke-linecap="square" stroke-miterlimit="10" stroke-width="2" data-color="color-2"></polyline><line x1="5" y1="17" x2="9" y2="20" fill="none" stroke="#000" stroke-linecap="square" stroke-miterlimit="10" stroke-width="2" data-color="color-2"></line><line x1="19" y1="17" x2="15" y2="20" fill="none" stroke="#000" stroke-linecap="square" stroke-miterlimit="10" stroke-width="2" data-color="color-2"></line><path d="m1,20v-5.5c0-3.038,2.462-5.5,5.5-5.5h0c.945-.001,1.87.241,2.688.701" fill="none" stroke="#000" stroke-linecap="square" stroke-miterlimit="10" stroke-width="2"></path><path d="m23,20v-5.5c0-3.038-2.462-5.5-5.5-5.5h0c-.945-.001-1.87.241-2.688.701" fill="none" stroke="#000" stroke-linecap="square" stroke-miterlimit="10" stroke-width="2"></path></svg>