<svg xmlns="http://www.w3.org/2000/svg" xmlns:xlink="http://www.w3.org/1999/xlink" x="0px" y="0px" width="32px" height="32px" viewBox="0 0 32 32"> <path d="M15 18V22.5C15 23.328 14.2832 24 13.4 24H11H8.6C7.7168 24 7 23.328 7 22.5V18" stroke="#000" stroke-width="2" stroke-miterlimit="10" data-color="color-2" fill="none" data-cap="butt"></path> <path d="M18.9999 26.9994V29.0417H2.99988V22.3259C2.99988 20.879 3.74527 19.5341 4.97226 18.7673C8.18491 16.7593 12.1711 16.5795 15.5146 18.2012C16.4566 18.6581 17.209 19.412 17.8519 20.2384L19.6996 22.6134C19.8891 22.857 20.1803 22.9994 20.4889 22.9994H26H25.5" stroke="black" stroke-width="2" stroke-miterlimit="10" stroke-linecap="square" fill="none"></path> <path d="M26 16V30" stroke="#000" stroke-width="2" stroke-linecap="square" data-color="color-2" fill="none"></path> <path d="M17.1215 2.87837L15.0001 4.99969L15.2017 4.79788" stroke="#000" stroke-width="2" stroke-miterlimit="10" stroke-linecap="square" data-color="color-2" fill="none"></path> <path d="M4 8H18" stroke="black" stroke-width="2" stroke-miterlimit="10" stroke-linecap="square" fill="none"></path> <path d="M9.28571 3H12.7143C13.976 3 15 4.12 15 5.5V8H7V5.5C7 4.12 8.024 3 9.28571 3Z" stroke="black" stroke-width="2" stroke-miterlimit="10" stroke-linecap="square" fill="none"></path> <path d="M7 8V9.8C7 12.1196 8.79086 14 11 14C13.2091 14 15 12.1196 15 9.8V8" stroke="black" stroke-width="2" stroke-miterlimit="10" fill="none" data-cap="butt"></path> <path d="M30 8V13.3333C30 14.8067 28.8067 16 27.3333 16H24.6667C23.1933 16 22 14.8067 22 13.3333V8" stroke="#000" stroke-width="2" stroke-miterlimit="10" stroke-linecap="square" data-color="color-2" fill="none"></path> <path d="M26 8V16" stroke="#000" stroke-width="2" stroke-miterlimit="10" stroke-linecap="square" data-color="color-2" fill="none"></path> </svg>