<svg xmlns="http://www.w3.org/2000/svg" xmlns:xlink="http://www.w3.org/1999/xlink" x="0px" y="0px" width="32px" height="32px" viewBox="0 0 32 32"> <path d="M26.5 23C28.433 23 30 21.433 30 19.5C30 17.567 28.433 16 26.5 16C24.567 16 23 17.567 23 19.5C23 21.433 24.567 23 26.5 23Z" stroke="black" stroke-width="2" stroke-miterlimit="10" stroke-linecap="square" fill="none"></path> <path d="M4 7L9.19206 10.4614C9.64207 10.7614 9.772 11.3648 9.48536 11.8234L5.4725 18.244C5.16372 18.738 5 19.3089 5 19.8915V19.8915C5 21.6083 6.39172 23 8.10849 23H14.087H16.5C18.433 23 20 21.433 20 19.5V19.5C20 17.567 18.433 16 16.5 16H7H7.29547" stroke="black" stroke-width="2" stroke-miterlimit="10" stroke-linecap="square" fill="none"></path> <path d="M2 28H30" stroke="#000" stroke-width="2" stroke-miterlimit="10" stroke-linecap="square" data-color="color-2" fill="none"></path> <path d="M20 8L20 19.5L20 19" stroke="black" stroke-width="2" stroke-miterlimit="10" stroke-linecap="square" fill="none"></path> </svg>