<svg xmlns="http://www.w3.org/2000/svg" xmlns:xlink="http://www.w3.org/1999/xlink" x="0px" y="0px" width="48px" height="48px" viewBox="0 0 48 48"> <path d="M24 19C28.4183 19 32 15.4183 32 11C32 6.58172 28.4183 3 24 3C19.5817 3 16 6.58172 16 11C16 15.4183 19.5817 19 24 19Z" stroke="black" stroke-width="2" stroke-miterlimit="10" stroke-linecap="square" fill="none"></path> <path d="M26 24.1031C25.3433 24.035 24.676 24 24 24C14.0595 24 6 31.5622 6 40.8894C12.6662 42.4528 19.3332 43.1477 26 42.9739" stroke="black" stroke-width="2" stroke-miterlimit="10" stroke-linecap="square" fill="none"></path> <path d="M34.5 41C38.6421 41 42 37.6421 42 33.5C42 29.3579 38.6421 26 34.5 26C30.3579 26 27 29.3579 27 33.5C27 37.6421 30.3579 41 34.5 41Z" stroke="#000" stroke-width="2" stroke-miterlimit="10" stroke-linecap="square" data-color="color-2" fill="none"></path> <path d="M44.5 43.5L40 39L40.5 39.5" stroke="#000" stroke-width="2" stroke-miterlimit="10" stroke-linecap="square" data-color="color-2" fill="none"></path> </svg>