<svg xmlns="http://www.w3.org/2000/svg" xmlns:xlink="http://www.w3.org/1999/xlink" x="0px" y="0px" width="18px" height="18px" viewBox="0 0 18 18"><path d="M9 1.75C8.838 1.75 8.674 1.756 8.51 1.769C5.311 2.011 2.768 4.554 2.526 7.753L2.055 13.138C2.022 13.512 2.21 13.871 2.535 14.059L6.249 16.251V10.911L4.749 10.363V7.828L8.574 8.66C8.854 8.721 9.144 8.721 9.424 8.66L13.249 7.828V10.363L11.749 10.911V16.251L15.463 14.059C15.789 13.872 15.976 13.512 15.943 13.138L15.472 7.753C15.23 4.554 12.687 2.011 9.488 1.769C9.324 1.757 9.16 1.75 8.998 1.75H9Z" fill="#000" fill-opacity="0.3" data-color="color-2" data-stroke="none"></path> <path d="M9 1.75C8.838 1.75 8.674 1.756 8.51 1.769C5.311 2.011 2.768 4.554 2.526 7.753L2.055 13.138C2.022 13.512 2.21 13.871 2.535 14.059L6.249 16.251V10.911L4.749 10.363V7.828L8.574 8.66C8.854 8.721 9.144 8.721 9.424 8.66L13.249 7.828V10.363L11.749 10.911V16.251L15.463 14.059C15.789 13.872 15.976 13.512 15.943 13.138L15.472 7.753C15.23 4.554 12.687 2.011 9.488 1.769C9.324 1.757 9.16 1.75 8.998 1.75H9Z" stroke="black" stroke-width="1.5" stroke-linecap="round" stroke-linejoin="round" fill="none"></path></svg>