<svg xmlns="http://www.w3.org/2000/svg" xmlns:xlink="http://www.w3.org/1999/xlink" x="0px" y="0px" width="18px" height="18px" viewBox="0 0 18 18"><path fill-rule="evenodd" clip-rule="evenodd" d="M3.80222 10.2597C4.21887 10.6851 5.17544 11.4426 6.1849 11.5649C7.52198 11.727 8.49442 11.3218 8.96037 11.0382C9.42633 10.7546 10.3988 10.2278 11.7561 10.4709C12.7664 10.6519 13.642 11.2032 14.1908 11.7908C13.8094 14.3147 11.6302 16.25 9 16.25C6.101 16.25 3.75 13.899 3.75 11C3.75 10.7485 3.76781 10.5013 3.80222 10.2597Z" fill="#000" fill-opacity="0.3" data-color="color-2" data-stroke="none"></path> <path d="M7.25 9.5C7.66421 9.5 8 9.16421 8 8.75C8 8.33579 7.66421 8 7.25 8C6.83579 8 6.5 8.33579 6.5 8.75C6.5 9.16421 6.83579 9.5 7.25 9.5Z" fill="black" data-stroke="none"></path> <path d="M14.19 11.794C12.868 10.325 10.688 9.988 8.98102 11C7.28802 12.004 5.12902 11.68 3.80402 10.241" stroke="black" stroke-width="1.5" stroke-linecap="round" stroke-linejoin="round" fill="none"></path> <path d="M5.75 1.75H12.25" stroke="black" stroke-width="1.5" stroke-linecap="round" stroke-linejoin="round" fill="none"></path> <path d="M7.25 1.75V6.072C5.216 6.795 3.75 8.718 3.75 11C3.75 13.899 6.101 16.25 9 16.25C11.899 16.25 14.25 13.899 14.25 11C14.25 8.717 12.784 6.795 10.75 6.071V1.75" stroke="black" stroke-width="1.5" stroke-linecap="round" stroke-linejoin="round" fill="none"></path></svg>