<svg xmlns="http://www.w3.org/2000/svg" xmlns:xlink="http://www.w3.org/1999/xlink" x="0px" y="0px" width="18px" height="18px" viewBox="0 0 18 18"><path d="m4.6703,13.25l-1.4434-1.4998c-1.3518-1.4226-1.2932-3.6719.1294-5.0228,1.4226-1.3518,3.6719-1.2932,5.0228.1294.2514.2644.4609.567.6201.8956.9999-2.0594,3.7259-2.7186,5.5926-1.0818.4981.4366.8649,1.025,1.0334,1.6665.338,1.2876-.0317,2.5491-.8528,3.4131l-1.4434,1.4998H4.6703Z" fill="#000" opacity=".3" stroke-width="0" data-color="color-2"></path><line x1="9" y1=".75" x2="9" y2="7.7524" fill="none" stroke="#000" stroke-linecap="round" stroke-linejoin="round" stroke-width="1.5"></line><line x1="11" y1="2.75" x2="7" y2="2.75" fill="none" stroke="#000" stroke-linecap="round" stroke-linejoin="round" stroke-width="1.5"></line><path d="m3.5633,14.6221l1.107-1.3721h8.6587l1.1072,1.372c.5278.6541.0623,1.628-.7782,1.628H4.3416c-.8404,0-1.306-.9738-.7783-1.6279Z" fill="none" stroke="#000" stroke-linecap="round" stroke-linejoin="round" stroke-width="1.5"></path><path d="m4.6703,13.25l-1.4434-1.4998c-1.3518-1.4226-1.2932-3.6719.1294-5.0228,1.4226-1.3518,3.6719-1.2932,5.0228.1294.2514.2644.4609.567.6201.8956.9999-2.0594,3.7259-2.7186,5.5926-1.0818.4981.4366.8649,1.025,1.0334,1.6665.338,1.2876-.0317,2.5491-.8528,3.4131l-1.4434,1.4998" fill="none" stroke="#000" stroke-linecap="round" stroke-linejoin="round" stroke-width="1.5"></path></svg>