<svg xmlns="http://www.w3.org/2000/svg" xmlns:xlink="http://www.w3.org/1999/xlink" x="0px" y="0px" width="24px" height="24px" viewBox="0 0 24 24"> <path fill-rule="evenodd" clip-rule="evenodd" d="M10.5 17.5C10.5 16.6716 11.1716 16 12 16C12.8284 16 13.5 16.6716 13.5 17.5C13.5 18.3284 12.8284 19 12 19C11.1716 19 10.5 18.3284 10.5 17.5Z" fill="#000" data-color="color-2" data-cap="butt" data-stroke="none"></path> <path d="M19 2H5C3.89543 2 3 2.89543 3 4V20C3 21.1046 3.89543 22 5 22H19C20.1046 22 21 21.1046 21 20V4C21 2.89543 20.1046 2 19 2Z" stroke="black" stroke-width="2" stroke-miterlimit="10" stroke-linecap="square" fill="none"></path> </svg>