<svg xmlns="http://www.w3.org/2000/svg" xmlns:xlink="http://www.w3.org/1999/xlink" x="0px" y="0px" width="24px" height="24px" viewBox="0 0 24 24"> <path d="M18 15L22 15L22 20C22 21.1046 21.1046 22 20 22L4 22C2.89543 22 2 21.1046 2 20L2 15L6 15" stroke="#000" stroke-width="2" stroke-miterlimit="10" stroke-linecap="square" data-color="color-2" fill="none"></path> <path d="M16 1L8.00001 1C6.89544 1 6.00001 1.89543 6.00001 3L6.00001 16C6.00001 17.1046 6.89544 18 8.00001 18L16 18C17.1046 18 18 17.1046 18 16L18 3C18 1.89543 17.1046 1 16 1Z" stroke="black" stroke-width="2" stroke-miterlimit="10" stroke-linecap="square" fill="none"></path> <path d="M13.4397 4.12062L10.5603 4.12062C10.527 4.12062 10.5 4.09362 10.5 4.06031C10.5 4.027 10.527 4 10.5603 4L13.4397 4C13.473 4 13.5 4.027 13.5 4.06031C13.5 4.09362 13.473 4.12062 13.4397 4.12062Z" stroke="black" stroke-width="2" stroke-miterlimit="10" stroke-linecap="square" fill="none"></path> </svg>