<svg xmlns="http://www.w3.org/2000/svg" xmlns:xlink="http://www.w3.org/1999/xlink" x="0px" y="0px" width="24px" height="24px" viewBox="0 0 24 24"> <path d="M4.92892 10.9289C6.73857 9.11929 9.23857 8 12 8C13.744 8 15.3838 8.44647 16.8112 9.23134" stroke="black" stroke-width="2" stroke-linecap="square" fill="none"></path> <path d="M12 13C10.6207 13 9.37191 13.5585 8.46732 14.4616L10.6294 16.6237" stroke="black" stroke-width="2" stroke-linecap="square" fill="none"></path> <path d="M22.591 7.37779C19.8777 4.6725 16.1342 3 12 3C7.87377 3 4.13667 4.66606 1.42471 7.36218" stroke="black" stroke-width="2" stroke-linecap="square" fill="none"></path> <path d="M22 18H15C14.4477 18 14 18.4477 14 19V22C14 22.5523 14.4477 23 15 23H22C22.5523 23 23 22.5523 23 22V19C23 18.4477 22.5523 18 22 18Z" stroke="#000" stroke-width="2" stroke-miterlimit="10" stroke-linecap="square" data-color="color-2" fill="none"></path> <path d="M16 18V15.5C16 14.119 17.119 13 18.5 13C19.881 13 21 14.119 21 15.5V18" stroke="#000" stroke-width="2" stroke-miterlimit="10" stroke-linecap="square" data-color="color-2" fill="none"></path> </svg>