<svg xmlns="http://www.w3.org/2000/svg" xmlns:xlink="http://www.w3.org/1999/xlink" x="0px" y="0px" width="24px" height="24px" viewBox="0 0 24 24"> <path d="M12 12C17.157 12 20 17 20 17C20 17 17.157 22 12 22C6.84299 22 4 17 4 17C4 17 6.84299 12 12 12Z" stroke="black" stroke-width="2" stroke-miterlimit="10" stroke-linecap="square" fill="none"></path> <path d="M12 19C13.1046 19 14 18.1046 14 17C14 15.8954 13.1046 15 12 15C10.8954 15 10 15.8954 10 17C10 18.1046 10.8954 19 12 19Z" fill="#000" data-color="color-2" data-cap="butt" data-stroke="none"></path> <path d="M5.00001 5.07107C8.90525 1.16582 15.2369 1.16582 19.1421 5.07107" stroke="#000" stroke-width="2" stroke-miterlimit="10" stroke-linecap="square" data-color="color-2" fill="none"></path> <path d="M7.82843 7.8995C10.1716 5.55636 13.9706 5.55636 16.3137 7.8995" stroke="#000" stroke-width="2" stroke-miterlimit="10" stroke-linecap="square" data-color="color-2" fill="none"></path> </svg>