<svg xmlns="http://www.w3.org/2000/svg" xmlns:xlink="http://www.w3.org/1999/xlink" x="0px" y="0px" width="24px" height="24px" viewBox="0 0 24 24"> <path d="M11.5 3.5L10 2L6.8787 5.12132L11.1213 9.36396L10.7574 9.00002" stroke="#000" stroke-width="2" stroke-miterlimit="10" stroke-linecap="square" data-color="color-2" fill="none"></path> <path d="M17.3787 15.6213L18.8787 17.1213L22 14L17.7574 9.75736L18.1213 10.1213" stroke="#000" stroke-width="2" stroke-miterlimit="10" stroke-linecap="square" data-color="color-2" fill="none"></path> <path d="M17.3638 3.10093L9.23223 11.233L11 13.0007L12.7677 14.7684L20.8992 6.63635C21.8755 5.66003 21.8754 4.07717 20.8992 3.10089C19.9229 2.12462 18.34 2.12464 17.3638 3.10093Z" stroke="black" stroke-width="2" stroke-miterlimit="10" stroke-linecap="square" fill="none"></path> <path d="M11 23C5.47715 23 1 18.5228 1 13" stroke="#000" stroke-width="2" stroke-miterlimit="10" stroke-linecap="square" data-color="color-2" fill="none"></path> <path d="M11 19C7.68629 19 5 16.3137 5 13" stroke="#000" stroke-width="2" stroke-miterlimit="10" stroke-linecap="square" data-color="color-2" fill="none"></path> </svg>