<svg xmlns="http://www.w3.org/2000/svg" xmlns:xlink="http://www.w3.org/1999/xlink" x="0px" y="0px" width="24px" height="24px" viewBox="0 0 24 24"><path d="M10.2322 11.2678L12 9.5L13.7678 7.73223" stroke="#000" stroke-width="2" stroke-miterlimit="10" stroke-linecap="square" data-color="color-2" fill="none"></path> <path d="M10.2322 7.73224L12 9.50001L13.7678 11.2678" stroke="#000" stroke-width="2" stroke-miterlimit="10" stroke-linecap="square" data-color="color-2" fill="none"></path> <path d="M6 13.5V13.5C7.10457 13.5 8 14.3954 8 15.5V21H7C4.79086 21 3 19.2091 3 17V12C3 7.02944 7.02944 3 12 3V3C16.9706 3 21 7.02944 21 12V17C21 19.2091 19.2091 21 17 21H16V15.5C16 14.3954 16.8954 13.5 18 13.5V13.5" stroke="black" stroke-width="2" stroke-miterlimit="10" stroke-linecap="square" fill="none"></path></svg>