<svg xmlns="http://www.w3.org/2000/svg" xmlns:xlink="http://www.w3.org/1999/xlink" x="0px" y="0px" width="32px" height="32px" viewBox="0 0 32 32"> <path d="M7 11L6 11C4.34315 11 3 12.3431 3 14L3 26C3 27.6569 4.34315 29 6 29L26 29C27.6569 29 29 27.6569 29 26L29 14C29 12.3431 27.6569 11 26 11L25 11" stroke="black" stroke-width="2" stroke-miterlimit="10" stroke-linecap="square" fill="none"></path> <path d="M7.15082 5.15084C9.5626 3.1813 12.6433 2 16 2C19.3566 2 22.4374 3.18129 24.8491 5.15083" stroke="#000" stroke-width="2" stroke-linecap="square" data-color="color-2" fill="none"></path> <path d="M10.7146 8.71464C12.1987 7.63612 14.025 7 16 7C17.9749 7 19.8013 7.63612 21.2853 8.71464" stroke="#000" stroke-width="2" stroke-linecap="square" data-color="color-2" fill="none"></path> <path d="M13.5 16L20.5 20L13.5 24V16Z" stroke="#000" stroke-width="2" stroke-miterlimit="10" stroke-linecap="square" data-color="color-2" fill="none"></path> </svg>