<svg xmlns="http://www.w3.org/2000/svg" xmlns:xlink="http://www.w3.org/1999/xlink" x="0px" y="0px" width="32px" height="32px" viewBox="0 0 32 32"> <path d="M25 12.2994L25 5C25 3.34315 23.6569 2 22 2L10 2C8.34315 2 7 3.34315 7 5L7 27C7 28.6569 8.34315 30 10 30L19 30" stroke="black" stroke-width="2" stroke-miterlimit="10" stroke-linecap="square" fill="none"></path> <path d="M17.75 6.5L14.25 6.5C14.1119 6.5 14 6.38807 14 6.25C14 6.11193 14.1119 6 14.25 6L17.75 6C17.8881 6 18 6.11193 18 6.25C18 6.38807 17.8881 6.5 17.75 6.5Z" stroke="black" stroke-width="2" stroke-miterlimit="10" stroke-linecap="square" fill="none"></path> <path d="M20 22L25 19" stroke="#000" stroke-width="2" stroke-miterlimit="10" data-color="color-2" data-cap="butt" fill="none"></path> <path d="M20 24L25 27" stroke="#000" stroke-width="2" stroke-miterlimit="10" data-color="color-2" data-cap="butt" fill="none"></path> <path d="M18 25C19.1046 25 20 24.1046 20 23C20 21.8954 19.1046 21 18 21C16.8954 21 16 21.8954 16 23C16 24.1046 16.8954 25 18 25Z" stroke="#000" stroke-width="2" stroke-miterlimit="10" stroke-linecap="square" data-color="color-2" fill="none"></path> <path d="M27 20C28.1046 20 29 19.1046 29 18C29 16.8954 28.1046 16 27 16C25.8954 16 25 16.8954 25 18C25 19.1046 25.8954 20 27 20Z" stroke="#000" stroke-width="2" stroke-miterlimit="10" stroke-linecap="square" data-color="color-2" fill="none"></path> <path d="M27 30C28.1046 30 29 29.1046 29 28C29 26.8954 28.1046 26 27 26C25.8954 26 25 26.8954 25 28C25 29.1046 25.8954 30 27 30Z" stroke="#000" stroke-width="2" stroke-miterlimit="10" stroke-linecap="square" data-color="color-2" fill="none"></path> </svg>