<svg xmlns="http://www.w3.org/2000/svg" xmlns:xlink="http://www.w3.org/1999/xlink" x="0px" y="0px" width="32px" height="32px" viewBox="0 0 32 32"> <path d="M9 21V26C9 27.6569 10.3431 29 12 29H21C22.6569 29 24 27.6569 24 26V22" stroke="#000" stroke-width="2" data-color="color-2" data-cap="butt" fill="none"></path> <path d="M6 10L6 5" stroke="#000" stroke-width="2" stroke-linecap="square" data-color="color-2" fill="none"></path> <path d="M12 10L12 5" stroke="#000" stroke-width="2" stroke-linecap="square" data-color="color-2" fill="none"></path> <path d="M3 10L3 15C3 18.3137 5.68629 21 9 21C12.3137 21 15 18.3137 15 15L15 10L3 10Z" stroke="black" stroke-width="2" stroke-miterlimit="10" stroke-linecap="square" fill="none"></path> <path d="M21 10L21 5L27 5V10" stroke="#000" stroke-width="2" data-color="color-2" data-cap="butt" fill="none"></path> <path d="M29 10L19 10L19 19C19 20.6569 20.3431 22 22 22L26 22C27.6569 22 29 20.6569 29 19L29 10Z" stroke="black" stroke-width="2" stroke-miterlimit="10" stroke-linecap="square" fill="none"></path> <path d="M9 16.5C9.9665 16.5 10.75 15.7165 10.75 14.75C10.75 13.7835 9.9665 13 9 13C8.0335 13 7.25 13.7835 7.25 14.75C7.25 15.7165 8.0335 16.5 9 16.5Z" fill="#000" data-color="color-2" data-cap="butt" data-stroke="none"></path> <path d="M23 14H25" stroke="#000" stroke-width="2" stroke-miterlimit="10" stroke-linecap="square" data-color="color-2" fill="none"></path> </svg>