<svg xmlns="http://www.w3.org/2000/svg" xmlns:xlink="http://www.w3.org/1999/xlink" x="0px" y="0px" width="32px" height="32px" viewBox="0 0 32 32"> <path d="M9 3V29" stroke="#000" stroke-width="2" stroke-linecap="square" data-color="color-2" fill="none"></path> <path d="M23 3V29" stroke="#000" stroke-width="2" stroke-linecap="square" data-color="color-2" fill="none"></path> <path fill-rule="evenodd" clip-rule="evenodd" d="M14.25 9.25C14.25 8.2835 15.0335 7.5 16 7.5C16.9665 7.5 17.75 8.2835 17.75 9.25C17.75 10.2165 16.9665 11 16 11C15.0335 11 14.25 10.2165 14.25 9.25Z" fill="black" data-cap="butt" data-stroke="none"></path> <path fill-rule="evenodd" clip-rule="evenodd" d="M14.25 16C14.25 15.0335 15.0335 14.25 16 14.25C16.9665 14.25 17.75 15.0335 17.75 16C17.75 16.9665 16.9665 17.75 16 17.75C15.0335 17.75 14.25 16.9665 14.25 16Z" fill="black" data-cap="butt" data-stroke="none"></path> <path fill-rule="evenodd" clip-rule="evenodd" d="M14.25 22.75C14.25 21.7835 15.0335 21 16 21C16.9665 21 17.75 21.7835 17.75 22.75C17.75 23.7165 16.9665 24.5 16 24.5C15.0335 24.5 14.25 23.7165 14.25 22.75Z" fill="black" data-cap="butt" data-stroke="none"></path> <path d="M29 26L29 6C29 4.34315 27.6569 3 26 3L6 3C4.34315 3 3 4.34315 3 6L3 26C3 27.6569 4.34315 29 6 29L26 29C27.6569 29 29 27.6569 29 26Z" stroke="black" stroke-width="2" stroke-miterlimit="10" stroke-linecap="square" fill="none"></path> </svg>