<svg xmlns="http://www.w3.org/2000/svg" xmlns:xlink="http://www.w3.org/1999/xlink" x="0px" y="0px" width="32px" height="32px" viewBox="0 0 32 32"> <path d="M4 19V7C4 5.34315 5.34315 4 7 4H15.261" stroke="black" stroke-width="2" stroke-miterlimit="10" stroke-linecap="square" fill="none"></path> <path d="M17.7322 7.5C18.8162 5.42011 20.9923 4 23.5 4C26.7498 4 29.4425 6.38491 29.9235 9.5H29" stroke="#000" stroke-width="2" stroke-miterlimit="10" stroke-linecap="square" data-color="color-2" fill="none"></path> <path d="M29.2678 13.5C28.1837 15.5799 26.0077 17 23.5 17C20.2502 17 17.5574 14.6151 17.0764 11.5H18" stroke="#000" stroke-width="2" stroke-miterlimit="10" stroke-linecap="square" data-color="color-2" fill="none"></path> <path d="M31 5.5V9.5H27" stroke="#000" stroke-width="2" stroke-miterlimit="10" stroke-linecap="square" data-color="color-2" fill="none"></path> <path d="M16 15.5V11.5H20" stroke="#000" stroke-width="2" stroke-miterlimit="10" stroke-linecap="square" data-color="color-2" fill="none"></path> <path d="M2 23V26C2 27.1046 2.89543 28 4 28H28C29.1046 28 30 27.1046 30 26V23H21C21 23.5523 20.5523 24 20 24H12C11.4477 24 11 23.5523 11 23H2Z" stroke="black" stroke-width="2" stroke-miterlimit="10" stroke-linecap="square" fill="none"></path> </svg>