<svg xmlns="http://www.w3.org/2000/svg" xmlns:xlink="http://www.w3.org/1999/xlink" x="0px" y="0px" width="32px" height="32px" viewBox="0 0 32 32"> <path d="M14.3301 3.10767L5.66986 8.10767C4.23498 8.93609 3.74336 10.7709 4.57179 12.2057L13.5718 27.7942C14.4002 29.2291 16.235 29.7207 17.6699 28.8923L26.3301 23.8923C27.765 23.0638 28.2566 21.2291 27.4282 19.7942L18.4282 4.20574C17.5998 2.77086 15.765 2.27924 14.3301 3.10767Z" stroke="black" stroke-width="2" stroke-miterlimit="10" stroke-linecap="square" fill="none"></path> <path d="M13.2656 7.7638L10.2344 9.51382C10.1149 9.58286 9.96198 9.54189 9.89294 9.42232C9.82391 9.30274 9.86488 9.14985 9.98445 9.08081L13.0156 7.33079C13.1351 7.26176 13.288 7.30273 13.3571 7.4223C13.4261 7.54187 13.3851 7.69477 13.2656 7.7638Z" stroke="black" stroke-width="2" stroke-miterlimit="10" stroke-linecap="square" fill="none"></path> <path d="M29 9.99999C29 7.96107 27.983 6.15968 26.4286 5.07544" stroke="#000" stroke-width="2" stroke-miterlimit="10" stroke-linecap="square" data-color="color-2" fill="none"></path> <path d="M3.00001 22C3.00001 24.0389 4.01703 25.8403 5.57144 26.9246" stroke="#000" stroke-width="2" stroke-miterlimit="10" stroke-linecap="square" data-color="color-2" fill="none"></path> </svg>