<svg xmlns="http://www.w3.org/2000/svg" xmlns:xlink="http://www.w3.org/1999/xlink" x="0px" y="0px" width="32px" height="32px" viewBox="0 0 32 32"> <path d="M10 21V11" stroke="black" stroke-width="2" stroke-linecap="square" fill="none"></path> <path d="M10 10.5C11.3807 10.5 12.5 9.38071 12.5 8C12.5 6.61929 11.3807 5.5 10 5.5C8.61929 5.5 7.5 6.61929 7.5 8C7.5 9.38071 8.61929 10.5 10 10.5Z" stroke="#000" stroke-width="2" stroke-miterlimit="10" stroke-linecap="square" data-color="color-2" fill="none"></path> <path d="M27 21H5C3.89543 21 3 21.8954 3 23V27C3 28.1046 3.89543 29 5 29H27C28.1046 29 29 28.1046 29 27V23C29 21.8954 28.1046 21 27 21Z" stroke="black" stroke-width="2" stroke-miterlimit="10" stroke-linecap="square" fill="none"></path> <path d="M5.05025 12.9498C2.31658 10.2161 2.31658 5.78394 5.05025 3.05027M14.9497 12.9498C17.6834 10.2161 17.6834 5.78394 14.9497 3.05027" stroke="#000" stroke-width="2" stroke-miterlimit="10" stroke-linecap="square" data-color="color-2" fill="none"></path> <path d="M24.75 26.25C25.4404 26.25 26 25.6904 26 25C26 24.3096 25.4404 23.75 24.75 23.75C24.0596 23.75 23.5 24.3096 23.5 25C23.5 25.6904 24.0596 26.25 24.75 26.25Z" fill="#000" data-color="color-2" data-cap="butt" data-stroke="none"></path> <path d="M20.25 26.25C20.9404 26.25 21.5 25.6904 21.5 25C21.5 24.3096 20.9404 23.75 20.25 23.75C19.5596 23.75 19 24.3096 19 25C19 25.6904 19.5596 26.25 20.25 26.25Z" fill="#000" data-color="color-2" data-cap="butt" data-stroke="none"></path> </svg>