<svg xmlns="http://www.w3.org/2000/svg" xmlns:xlink="http://www.w3.org/1999/xlink" x="0px" y="0px" width="32px" height="32px" viewBox="0 0 32 32"> <path d="M20.25 7.5C20.9404 7.5 21.5 6.94036 21.5 6.25C21.5 5.55964 20.9404 5 20.25 5C19.5596 5 19 5.55964 19 6.25C19 6.94036 19.5596 7.5 20.25 7.5Z" fill="#000" data-color="color-2" data-cap="butt" data-stroke="none"></path> <path d="M22 2L10 2C8.34315 2 7 3.34315 7 5L7 27C7 28.6569 8.34315 30 10 30L22 30C23.6569 30 25 28.6569 25 27L25 5C25 3.34315 23.6569 2 22 2Z" stroke="black" stroke-width="2" stroke-miterlimit="10" stroke-linecap="square" fill="none"></path> <path d="M16.75 6.5L13.2499 6.5C13.1119 6.5 12.9999 6.38807 12.9999 6.25C12.9999 6.11193 13.1119 6 13.2499 6L16.75 6C16.888 6 17 6.11193 17 6.25C17 6.38807 16.888 6.5 16.75 6.5Z" stroke="black" stroke-width="2" stroke-miterlimit="10" stroke-linecap="square" fill="none"></path> </svg>