<svg xmlns="http://www.w3.org/2000/svg" xmlns:xlink="http://www.w3.org/1999/xlink" x="0px" y="0px" width="32px" height="32px" viewBox="0 0 32 32"> <path d="M10 9L10 13L14 17V29" stroke="black" stroke-width="2" stroke-linecap="square" fill="none"></path> <path d="M22 9L22 13L18 17V29" stroke="black" stroke-width="2" stroke-linecap="square" fill="none"></path> <path d="M23 29V24L25 22L24.684 22.316" stroke="black" stroke-width="2" stroke-linecap="square" fill="none"></path> <path d="M9 29V24L7 22L7.31603 22.316" stroke="black" stroke-width="2" stroke-linecap="square" fill="none"></path> <path d="M10 9C11.6569 9 13 7.65685 13 6C13 4.34315 11.6569 3 10 3C8.34315 3 7 4.34315 7 6C7 7.65685 8.34315 9 10 9Z" stroke="#000" stroke-width="2" stroke-miterlimit="10" stroke-linecap="square" data-color="color-2" fill="none"></path> <path d="M22 9C20.3431 9 19 7.65685 19 6C19 4.34315 20.3431 3 22 3C23.6569 3 25 4.34315 25 6C25 7.65685 23.6569 9 22 9Z" stroke="#000" stroke-width="2" stroke-miterlimit="10" stroke-linecap="square" data-color="color-2" fill="none"></path> <path d="M27 23C28.6569 23 30 21.6569 30 20C30 18.3431 28.6569 17 27 17C25.3431 17 24 18.3431 24 20C24 21.6569 25.3431 23 27 23Z" stroke="#000" stroke-width="2" stroke-miterlimit="10" stroke-linecap="square" data-color="color-2" fill="none"></path> <path d="M5 23C3.34315 23 2 21.6569 2 20C2 18.3431 3.34315 17 5 17C6.65685 17 8 18.3431 8 20C8 21.6569 6.65685 23 5 23Z" stroke="#000" stroke-width="2" stroke-miterlimit="10" stroke-linecap="square" data-color="color-2" fill="none"></path> </svg>