<svg xmlns="http://www.w3.org/2000/svg" xmlns:xlink="http://www.w3.org/1999/xlink" x="0px" y="0px" width="32px" height="32px" viewBox="0 0 32 32"> <path d="M21 29V22" stroke="#000" stroke-width="2" stroke-linecap="square" data-color="color-2" fill="none"></path> <path d="M11 29L11 22" stroke="#000" stroke-width="2" stroke-linecap="square" data-color="color-2" fill="none"></path> <path d="M7 11L15 22" stroke="#000" stroke-width="2" data-color="color-2" data-cap="butt" fill="none"></path> <path d="M20.0567 8H9" stroke="#000" stroke-width="2" data-color="color-2" data-cap="butt" fill="none"></path> <path d="M6 11C7.65685 11 9 9.65685 9 8C9 6.34315 7.65685 5 6 5C4.34315 5 3 6.34315 3 8C3 9.65685 4.34315 11 6 11Z" stroke="black" stroke-width="2" stroke-miterlimit="10" stroke-linecap="square" fill="none"></path> <path d="M28 11.3333L22.8308 13L20 8L22.8308 3L28 4.66667" stroke="black" stroke-width="2" stroke-miterlimit="10" stroke-linecap="square" fill="none"></path> <path d="M27 22H5C3.89543 22 3 22.8954 3 24V27C3 28.1046 3.89543 29 5 29H27C28.1046 29 29 28.1046 29 27V24C29 22.8954 28.1046 22 27 22Z" stroke="black" stroke-width="2" stroke-miterlimit="10" stroke-linecap="square" fill="none"></path> </svg>