<svg xmlns="http://www.w3.org/2000/svg" xmlns:xlink="http://www.w3.org/1999/xlink" x="0px" y="0px" width="32px" height="32px" viewBox="0 0 32 32"> <path d="M2 23V26C2 27.1046 2.89543 28 4 28H28C29.1046 28 30 27.1046 30 26V23H21C21 23.5523 20.5523 24 20 24H12C11.4477 24 11 23.5523 11 23H2Z" stroke="black" stroke-width="2" stroke-miterlimit="10" stroke-linecap="square" fill="none"></path> <path d="M23 18C26.866 18 30 14.866 30 11C30 7.13401 26.866 4 23 4C19.134 4 16 7.13401 16 11C16 14.866 19.134 18 23 18Z" stroke="#000" stroke-width="2" stroke-miterlimit="10" stroke-linecap="square" data-color="color-2" fill="none"></path> <path d="M23 8V11L26 13" stroke="#000" stroke-width="2" stroke-miterlimit="10" stroke-linecap="square" data-color="color-2" fill="none"></path> <path d="M4 19V7C4 5.34315 5.34315 4 7 4H14.5" stroke="black" stroke-width="2" stroke-miterlimit="10" stroke-linecap="square" fill="none"></path> </svg>