<svg xmlns="http://www.w3.org/2000/svg" xmlns:xlink="http://www.w3.org/1999/xlink" x="0px" y="0px" width="32px" height="32px" viewBox="0 0 32 32"> <path d="M2 23V26C2 27.1046 2.89543 28 4 28H28C29.1046 28 30 27.1046 30 26V23H21C21 23.5523 20.5523 24 20 24H12C11.4477 24 11 23.5523 11 23H2Z" stroke="black" stroke-width="2" stroke-miterlimit="10" stroke-linecap="square" fill="none"></path> <path d="M4 19V7C4 5.34315 5.34315 4 7 4H17.8125" stroke="black" stroke-width="2" stroke-miterlimit="10" stroke-linecap="square" fill="none"></path> <path d="M19 17H17.398C16.327 17 15.655 15.842 16.186 14.912L21.788 5.10804C22.324 4.17004 23.676 4.17004 24.211 5.10804L29.813 14.912C30.345 15.842 29.673 17 28.601 17H26.999" stroke="#000" stroke-width="2" stroke-miterlimit="10" stroke-linecap="square" data-color="color-2" fill="none"></path> <path d="M23 10V13" stroke="#000" stroke-width="2" stroke-miterlimit="10" stroke-linecap="square" data-color="color-2" fill="none"></path> <path d="M23 18C23.6904 18 24.25 17.4404 24.25 16.75C24.25 16.0596 23.6904 15.5 23 15.5C22.3096 15.5 21.75 16.0596 21.75 16.75C21.75 17.4404 22.3096 18 23 18Z" fill="#000" data-color="color-2" data-cap="butt" data-stroke="none"></path> </svg>