<svg xmlns="http://www.w3.org/2000/svg" xmlns:xlink="http://www.w3.org/1999/xlink" x="0px" y="0px" width="32px" height="32px" viewBox="0 0 32 32"> <path d="M16 30L10 30C8.34315 30 7 28.6569 7 27L7 5C7 3.34315 8.34315 2 10 2L22 2C23.6569 2 25 3.34315 25 5L25 12" stroke="black" stroke-width="2" stroke-miterlimit="10" stroke-linecap="square" fill="none"></path> <path d="M17.75 6.5L14.25 6.5C14.1119 6.5 14 6.38807 14 6.25C14 6.11193 14.1119 6 14.25 6L17.75 6C17.8881 6 18 6.11193 18 6.25C18 6.38807 17.8881 6.5 17.75 6.5Z" stroke="black" stroke-width="2" stroke-miterlimit="10" stroke-linecap="square" fill="none"></path> <path d="M22 28L22 31" stroke="#000" stroke-width="2" stroke-linecap="square" data-color="color-2" fill="none"></path> <path d="M19 20L19 16" stroke="#000" stroke-width="2" stroke-linecap="square" data-color="color-2" fill="none"></path> <path d="M25 20L25 16" stroke="#000" stroke-width="2" stroke-linecap="square" data-color="color-2" fill="none"></path> <path d="M17 20L17 23C17 25.7614 19.2386 28 22 28C24.7614 28 27 25.7614 27 23L27 20L17 20Z" stroke="#000" stroke-width="2" stroke-miterlimit="10" stroke-linecap="square" data-color="color-2" fill="none"></path> </svg>