<svg xmlns="http://www.w3.org/2000/svg" xmlns:xlink="http://www.w3.org/1999/xlink" x="0px" y="0px" width="32px" height="32px" viewBox="0 0 32 32"> <path d="M16 17V29" stroke="black" stroke-width="2" data-cap="butt" fill="none"></path> <path d="M16 17C18.2091 17 20 15.2091 20 13C20 10.7909 18.2091 9 16 9C13.7909 9 12 10.7909 12 13C12 15.2091 13.7909 17 16 17Z" stroke="black" stroke-width="2" stroke-miterlimit="10" stroke-linecap="square" fill="none"></path> <path d="M22 29H10" stroke="black" stroke-width="2" stroke-linecap="square" fill="none"></path> <path d="M6.10051 3.10049C3.567 5.634 2 9.134 2 13C2 16.866 3.567 20.366 6.1005 22.8995" stroke="#000" stroke-width="2" stroke-miterlimit="10" stroke-linecap="square" data-color="color-2" fill="none"></path> <path d="M22.364 6.63602C23.9926 8.2647 25 10.5147 25 13C25 15.4853 23.9926 17.7353 22.364 19.3639" stroke="#000" stroke-width="2" stroke-miterlimit="10" stroke-linecap="square" data-color="color-2" fill="none"></path> <path d="M9.63604 6.63602C8.00736 8.2647 7 10.5147 7 13C7 15.4853 8.00736 17.7353 9.63604 19.3639" stroke="#000" stroke-width="2" stroke-miterlimit="10" stroke-linecap="square" data-color="color-2" fill="none"></path> <path d="M25.8995 3.10049C28.433 5.634 30 9.134 30 13C30 16.866 28.433 20.366 25.8995 22.8995" stroke="#000" stroke-width="2" stroke-miterlimit="10" stroke-linecap="square" data-color="color-2" fill="none"></path> </svg>