<svg xmlns="http://www.w3.org/2000/svg" xmlns:xlink="http://www.w3.org/1999/xlink" x="0px" y="0px" width="32px" height="32px" viewBox="0 0 32 32"> <path d="M2 23V26C2 27.1046 2.89543 28 4 28H28C29.1046 28 30 27.1046 30 26V23H21C21 23.5523 20.5523 24 20 24H12C11.4477 24 11 23.5523 11 23H2Z" stroke="black" stroke-width="2" stroke-miterlimit="10" stroke-linecap="square" fill="none"></path> <path d="M4 19V7C4 5.34315 5.34315 4 7 4H22" stroke="black" stroke-width="2" stroke-miterlimit="10" stroke-linecap="square" fill="none"></path> <path d="M21 10L26 7" stroke="#000" stroke-width="2" stroke-miterlimit="10" data-color="color-2" data-cap="butt" fill="none"></path> <path d="M21 12L26 15" stroke="#000" stroke-width="2" stroke-miterlimit="10" data-color="color-2" data-cap="butt" fill="none"></path> <path d="M19 13C20.1046 13 21 12.1046 21 11C21 9.89543 20.1046 9 19 9C17.8954 9 17 9.89543 17 11C17 12.1046 17.8954 13 19 13Z" stroke="#000" stroke-width="2" stroke-miterlimit="10" stroke-linecap="square" data-color="color-2" fill="none"></path> <path d="M28 8C29.1046 8 30 7.10457 30 6C30 4.89543 29.1046 4 28 4C26.8954 4 26 4.89543 26 6C26 7.10457 26.8954 8 28 8Z" stroke="#000" stroke-width="2" stroke-miterlimit="10" stroke-linecap="square" data-color="color-2" fill="none"></path> <path d="M28 18C29.1046 18 30 17.1046 30 16C30 14.8954 29.1046 14 28 14C26.8954 14 26 14.8954 26 16C26 17.1046 26.8954 18 28 18Z" stroke="#000" stroke-width="2" stroke-miterlimit="10" stroke-linecap="square" data-color="color-2" fill="none"></path> </svg>