<svg xmlns="http://www.w3.org/2000/svg" xmlns:xlink="http://www.w3.org/1999/xlink" x="0px" y="0px" width="48px" height="48px" viewBox="0 0 48 48"> <path d="M10 24C10 31.732 16.268 38 24 38C31.732 38 38 31.732 38 24C38 16.268 31.732 10 24 10C16.268 10 10 16.268 10 24Z" stroke="#000" stroke-width="2" stroke-miterlimit="10" stroke-linecap="square" data-color="color-2" fill="none"></path> <path d="M27 24C27 25.6569 28.3431 27 30 27C31.6569 27 33 25.6569 33 24C33 22.3431 31.6569 21 30 21C28.3431 21 27 22.3431 27 24Z" stroke="black" stroke-width="2" stroke-miterlimit="10" stroke-linecap="square" fill="none"></path> <path d="M15 24C15 25.6569 16.3431 27 18 27C19.6569 27 21 25.6569 21 24C21 22.3431 19.6569 21 18 21C16.3431 21 15 22.3431 15 24Z" stroke="black" stroke-width="2" stroke-miterlimit="10" stroke-linecap="square" fill="none"></path> <path d="M43 38L43 10C43 7.23858 40.7614 5 38 5L10 5C7.23858 5 5 7.23857 5 10L5 38C5 40.7614 7.23857 43 10 43L38 43C40.7614 43 43 40.7614 43 38Z" stroke="black" stroke-width="2" stroke-miterlimit="10" stroke-linecap="square" fill="none"></path> </svg>