<svg xmlns="http://www.w3.org/2000/svg" xmlns:xlink="http://www.w3.org/1999/xlink" x="0px" y="0px" width="48px" height="48px" viewBox="0 0 48 48"> <path d="M20 45L16 45C13.2386 45 11 42.7614 11 40L11 8C11 5.23857 13.2386 3 16 3L32 3C34.7614 3 37 5.23858 37 8L37 22" stroke="black" stroke-width="2" stroke-miterlimit="10" stroke-linecap="square" fill="none"></path> <path d="M26.5 9L21.5 9C21.2239 9 21 8.77614 21 8.5C21 8.22386 21.2239 8 21.5 8L26.5 8C26.7761 8 27 8.22386 27 8.5C27 8.77614 26.7761 9 26.5 9Z" stroke="black" stroke-width="2" stroke-miterlimit="10" stroke-linecap="square" fill="none"></path> <path d="M30.6139 44.5233L42.4315 32.7056C43.85 31.287 43.85 28.9871 42.4315 27.5685C41.0129 26.15 38.713 26.15 37.2944 27.5685L25.4768 39.3861L25 45L30.6139 44.5233Z" stroke="#000" stroke-width="2" stroke-miterlimit="10" stroke-linecap="square" data-color="color-2" fill="none"></path> </svg>