<svg xmlns="http://www.w3.org/2000/svg" xmlns:xlink="http://www.w3.org/1999/xlink" x="0px" y="0px" width="48px" height="48px" viewBox="0 0 48 48"> <path d="M33 43V46" stroke="#000" stroke-width="2" stroke-linecap="square" data-color="color-2" fill="none"></path> <path d="M29 30L29 24" stroke="#000" stroke-width="2" stroke-linecap="square" data-color="color-2" fill="none"></path> <path d="M37 30L37 24" stroke="#000" stroke-width="2" stroke-linecap="square" data-color="color-2" fill="none"></path> <path d="M25 30L25 35C25 39.4183 28.5817 43 33 43C37.4183 43 41 39.4183 41 35L41 30L25 30Z" stroke="#000" stroke-width="2" stroke-miterlimit="10" stroke-linecap="square" data-color="color-2" fill="none"></path> <path d="M32.25 35.75C32.25 36.1642 32.5858 36.5 33 36.5C33.4142 36.5 33.75 36.1642 33.75 35.75C33.75 35.3358 33.4142 35 33 35C32.5858 35 32.25 35.3358 32.25 35.75Z" fill="black" stroke="black" stroke-width="2" stroke-miterlimit="10" stroke-linecap="square"></path> <path d="M24.5 45L16 45C13.2386 45 11 42.7614 11 40L11 8C11 5.23858 13.2386 3 16 3L32 3C34.7614 3 37 5.23858 37 8L37 19" stroke="black" stroke-width="2" stroke-miterlimit="10" stroke-linecap="square" fill="none"></path> <path d="M26.5 9L21.5 9C21.2239 9 21 8.77614 21 8.5C21 8.22386 21.2239 8 21.5 8L26.5 8C26.7761 8 27 8.22386 27 8.5C27 8.77614 26.7761 9 26.5 9Z" stroke="black" stroke-width="2" stroke-miterlimit="10" stroke-linecap="square" fill="none"></path> </svg>