<svg xmlns="http://www.w3.org/2000/svg" xmlns:xlink="http://www.w3.org/1999/xlink" x="0px" y="0px" width="48px" height="48px" viewBox="0 0 48 48"> <path d="M24 17H45" stroke="black" stroke-width="2" stroke-miterlimit="10" stroke-linecap="square" fill="none"></path> <path d="M13 41H19V34" stroke="#000" stroke-width="2" stroke-miterlimit="10" stroke-linecap="square" data-color="color-2" fill="none"></path> <path d="M19 34L7 34C4.79086 34 3 32.2091 3 30L3 11C3 8.79086 4.79086 7 7 7L19 7" stroke="black" stroke-width="2" stroke-miterlimit="10" stroke-linecap="square" fill="none"></path> <path d="M41 7L28 7C25.7909 7 24 8.79086 24 11L24 37C24 39.2091 25.7909 41 28 41L41 41C43.2091 41 45 39.2091 45 37L45 11C45 8.79086 43.2091 7 41 7Z" stroke="black" stroke-width="2" stroke-miterlimit="10" stroke-linecap="square" fill="none"></path> <path d="M34.5 36C35.8807 36 37 34.8807 37 33.5C37 32.1193 35.8807 31 34.5 31C33.1193 31 32 32.1193 32 33.5C32 34.8807 33.1193 36 34.5 36Z" stroke="#000" stroke-width="2" stroke-miterlimit="10" stroke-linecap="square" data-color="color-2" fill="none"></path> <path d="M39 12H40" stroke="#000" stroke-width="2" stroke-miterlimit="10" stroke-linecap="square" data-color="color-2" fill="none"></path> </svg>