<svg xmlns="http://www.w3.org/2000/svg" xmlns:xlink="http://www.w3.org/1999/xlink" x="0px" y="0px" width="48px" height="48px" viewBox="0 0 48 48"> <path d="M24 25V43" stroke="black" stroke-width="2" data-cap="butt" fill="none"></path> <path d="M24 25C26.7614 25 29 22.7614 29 20C29 17.2386 26.7614 15 24 15C21.2386 15 19 17.2386 19 20C19 22.7614 21.2386 25 24 25Z" stroke="black" stroke-width="2" stroke-miterlimit="10" stroke-linecap="square" fill="none"></path> <path d="M32 43H16" stroke="black" stroke-width="2" stroke-linecap="square" fill="none"></path> <path d="M38.8492 5.15076C42.6495 8.95101 45 14.201 45 20C45 25.799 42.6495 31.049 38.8492 34.8492" stroke="#000" stroke-width="2" stroke-linecap="square" data-color="color-2" fill="none"></path> <path d="M9.15076 34.8492C5.3505 31.049 3 25.799 3 20C3 14.201 5.3505 8.95101 9.15076 5.15076" stroke="#000" stroke-width="2" stroke-linecap="square" data-color="color-2" fill="none"></path> <path d="M16.2218 27.7782C14.2312 25.7876 13 23.0376 13 20C13 16.9624 14.2312 14.2124 16.2218 12.2218" stroke="#000" stroke-width="2" stroke-linecap="square" data-color="color-2" fill="none"></path> <path d="M12.6863 31.3137C9.79086 28.4183 8 24.4183 8 20C8 15.5817 9.79086 11.5817 12.6863 8.68629" stroke="#000" stroke-width="2" stroke-linecap="square" data-color="color-2" fill="none"></path> <path d="M31.7782 12.2218C33.7688 14.2124 35 16.9624 35 20C35 23.0376 33.7688 25.7876 31.7782 27.7782" stroke="#000" stroke-width="2" stroke-linecap="square" data-color="color-2" fill="none"></path> <path d="M35.3137 8.68629C38.2092 11.5817 40 15.5817 40 20C40 24.4183 38.2092 28.4183 35.3137 31.3137" stroke="#000" stroke-width="2" stroke-linecap="square" data-color="color-2" fill="none"></path> </svg>