<svg xmlns="http://www.w3.org/2000/svg" xmlns:xlink="http://www.w3.org/1999/xlink" x="0px" y="0px" width="48px" height="48px" viewBox="0 0 48 48"> <path d="M32 37L32 36C32 31.5817 28.4183 28 24 28C19.5817 28 16 31.5817 16 36L16 37L32 37Z" stroke="#000" stroke-width="2" stroke-miterlimit="10" stroke-linecap="square" data-color="color-2" fill="none"></path> <path d="M43 38L43 10C43 7.23858 40.7614 5 38 5L10 5C7.23858 5 5 7.23857 5 10L5 38C5 40.7614 7.23857 43 10 43L38 43C40.7614 43 43 40.7614 43 38Z" stroke="black" stroke-width="2" stroke-miterlimit="10" stroke-linecap="square" fill="none"></path> <path d="M33 23L33 13L28 13L28 23L33 23Z" stroke="#000" stroke-width="2" stroke-miterlimit="10" stroke-linecap="square" data-color="color-2" fill="none"></path> <path d="M20 23L20 13L15 13L15 23L20 23Z" stroke="#000" stroke-width="2" stroke-miterlimit="10" stroke-linecap="square" data-color="color-2" fill="none"></path> </svg>