<svg xmlns="http://www.w3.org/2000/svg" xmlns:xlink="http://www.w3.org/1999/xlink" x="0px" y="0px" width="48px" height="48px" viewBox="0 0 48 48"> <path d="M3 34V38C3 39.6569 4.34315 41 6 41H42C43.6569 41 45 39.6569 45 38V34H32V35C32 36.1046 31.1046 37 30 37H18C16.8954 37 16 36.1046 16 35V34H3Z" stroke="black" stroke-width="2" stroke-miterlimit="10" stroke-linecap="square" fill="none"></path> <path d="M5 29V12C5 9.23858 7.23858 7 10 7H25" stroke="black" stroke-width="2" stroke-miterlimit="10" stroke-linecap="square" fill="none"></path> <path d="M36.5 20C40.6421 20 44 16.6421 44 12.5C44 8.35786 40.6421 5 36.5 5C32.3579 5 29 8.35786 29 12.5C29 16.6421 32.3579 20 36.5 20Z" stroke="#000" stroke-width="2" stroke-miterlimit="10" stroke-linecap="square" data-color="color-2" fill="none"></path> <path d="M45.5 21.5L42 18L42.5 18.5" stroke="#000" stroke-width="2" stroke-miterlimit="10" stroke-linecap="square" data-color="color-2" fill="none"></path> <path d="M43 29.0001L43 26" stroke="black" stroke-width="2" stroke-miterlimit="10" stroke-linecap="square" fill="none"></path> </svg>