<svg xmlns="http://www.w3.org/2000/svg" xmlns:xlink="http://www.w3.org/1999/xlink" x="0px" y="0px" width="48px" height="48px" viewBox="0 0 48 48"> <path d="M36 33L45 33L45 40C45 42.7614 42.7614 45 40 45L8 45C5.23858 45 3 42.7614 3 40L3 33L12 33" stroke="#000" stroke-width="2" stroke-miterlimit="10" stroke-linecap="square" data-color="color-2" fill="none"></path> <path d="M17 39L31 39C33.7614 39 36 36.7614 36 34L36 8C36 5.23858 33.7614 3 31 3L17 3C14.2386 3 12 5.23858 12 8L12 34C12 36.7614 14.2386 39 17 39Z" stroke="black" stroke-width="2" stroke-miterlimit="10" stroke-linecap="square" fill="none"></path> <path d="M26.5 9L21.5 9C21.2239 9 21 8.77614 21 8.5C21 8.22386 21.2239 8 21.5 8L26.5 8C26.7761 8 27 8.22386 27 8.5C27 8.77614 26.7761 9 26.5 9Z" stroke="black" stroke-width="2" stroke-miterlimit="10" stroke-linecap="square" fill="none"></path> </svg>