<svg xmlns="http://www.w3.org/2000/svg" xmlns:xlink="http://www.w3.org/1999/xlink" x="0px" y="0px" width="24px" height="24px" viewBox="0 0 24 24"><path d="m16,7.5c-4.5242,0-6,4-7,8.5h-.1c-1.0132-5.0662-1.4-9-6.9-12" fill="none" stroke="#000" stroke-linecap="square" stroke-miterlimit="10" stroke-width="2"></path><path d="m19.5,11c1.933,0,3.5-1.567,3.5-3.5s-1.567-3.5-3.5-3.5-3.5,1.567-3.5,3.5,1.567,3.5,3.5,3.5Z" fill="none" stroke="#000" stroke-linecap="square" stroke-miterlimit="10" stroke-width="2"></path><path d="m3,21c.2761,0,.5-.2239.5-.5s-.2239-.5-.5-.5-.5.2239-.5.5.2239.5.5.5Z" fill="#000" stroke="#000" stroke-linecap="square" stroke-miterlimit="10" stroke-width="2" data-color="color-2"></path><path d="m15,21c.2761,0,.5-.2239.5-.5s-.2239-.5-.5-.5-.5.2239-.5.5.2239.5.5.5Z" fill="#000" stroke="#000" stroke-linecap="square" stroke-miterlimit="10" stroke-width="2" data-color="color-2"></path><path d="m9,21c.2761,0,.5-.2239.5-.5s-.2239-.5-.5-.5-.5.2239-.5.5.2239.5.5.5Z" fill="#000" stroke="#000" stroke-linecap="square" stroke-miterlimit="10" stroke-width="2" data-color="color-2"></path><path d="m21,21c.2761,0,.5-.2239.5-.5s-.2239-.5-.5-.5-.5.2239-.5.5.2239.5.5.5Z" fill="#000" stroke="#000" stroke-linecap="square" stroke-miterlimit="10" stroke-width="2" data-color="color-2"></path></svg>