<svg xmlns="http://www.w3.org/2000/svg" xmlns:xlink="http://www.w3.org/1999/xlink" x="0px" y="0px" width="24px" height="24px" viewBox="0 0 24 24"><path d="M1.14101 15.0001H1.08333L1.5 21.0001H1.91667L3.58333 17.5716L5.25 21.0001H5.66667L6.08333 15.0001H6.05753" stroke="#000" stroke-width="2" stroke-linecap="square" data-color="color-2" fill="none"></path> <path d="M4 11L4 4C4 2.89543 4.89543 2 6 2L13 2L20 9L20 11" stroke="black" stroke-width="2" stroke-miterlimit="10" stroke-linecap="square" fill="none"></path> <path d="M13 2V9H20" stroke="black" stroke-width="2" data-cap="butt" fill="none"></path> <path d="M12.5 18C12.5 19.6569 11.4926 21 10.25 21C9.00736 21 8 19.6569 8 18C8 16.3431 9.00736 15 10.25 15C11.4926 15 12.5 16.3431 12.5 18Z" stroke="#000" stroke-width="2" data-color="color-2" data-cap="butt" fill="none"></path> <path d="M14.7679 21L14.7679 15L17.7679 15M16.7679 18.5H15.2679" stroke="#000" stroke-width="2" stroke-linecap="square" data-color="color-2" fill="none"></path> <path d="M20 21L20 15L23 15M22 18.5H20.5" stroke="#000" stroke-width="2" stroke-linecap="square" data-color="color-2" fill="none"></path></svg>