<svg xmlns="http://www.w3.org/2000/svg" xmlns:xlink="http://www.w3.org/1999/xlink" x="0px" y="0px" width="24px" height="24px" viewBox="0 0 24 24"><path d="M8.5 21V15M8.5 15H10M8.5 15L7 15" stroke="#000" stroke-width="2" stroke-linecap="square" data-color="color-2" fill="none"></path> <path d="M1 15V18M1 21V18M4.5 15V18M4.5 21V18M1 18H4.5" stroke="#000" stroke-width="2" stroke-linecap="square" data-color="color-2" fill="none"></path> <path d="M12.5 21V15H13.5L15 18.5L16.5 15H17.5V21" stroke="#000" stroke-width="2" stroke-linecap="square" data-color="color-2" fill="none"></path> <path d="M20.5 15L20.5 21H23" stroke="#000" stroke-width="2" stroke-linecap="square" data-color="color-2" fill="none"></path> <path d="M4 9H11V2" stroke="black" stroke-width="2" stroke-miterlimit="10" data-cap="butt" fill="none"></path> <path d="M4 11V9.07843C4 8.54799 4.21071 8.03929 4.58579 7.66421L9.66421 2.58579C10.0393 2.21071 10.548 2 11.0784 2H18C19.1046 2 20 2.89543 20 4V11" stroke="black" stroke-width="2" stroke-miterlimit="10" stroke-linecap="square" fill="none"></path></svg>