<svg xmlns="http://www.w3.org/2000/svg" xmlns:xlink="http://www.w3.org/1999/xlink" x="0px" y="0px" width="24px" height="24px" viewBox="0 0 24 24"> <path d="M18.5 21C16.567 21 15 19.433 15 17.5C15 15.567 16.567 14 18.5 14C20.433 14 22 15.567 22 17.5C22 19.433 20.433 21 18.5 21Z" stroke="#000" stroke-width="2" stroke-miterlimit="10" stroke-linecap="square" data-color="color-2" fill="none"></path> <path d="M4.9999 3L15.0957 18.3548L14.6727 17.7114" stroke="#000" stroke-width="2" stroke-linecap="square" data-color="color-2" fill="none"></path> <path d="M5.5 21C7.433 21 9 19.433 9 17.5C9 15.567 7.433 14 5.5 14C3.567 14 2 15.567 2 17.5C2 19.433 3.567 21 5.5 21Z" stroke="black" stroke-width="2" stroke-miterlimit="10" stroke-linecap="square" fill="none"></path> <path d="M18.9999 3L8.88916 18.3609L9.12668 18" stroke="black" stroke-width="2" stroke-linecap="square" fill="none"></path> </svg>