<svg xmlns="http://www.w3.org/2000/svg" xmlns:xlink="http://www.w3.org/1999/xlink" x="0px" y="0px" width="32px" height="32px" viewBox="0 0 32 32"> <path d="M12 30.0001V23.0001C12 20.791 13.7909 19.0001 16 19.0001V19.0001C18.2091 19.0001 20 20.791 20 23.0001V30.0001" stroke="#000" stroke-width="2" data-color="color-2" data-cap="butt" fill="none"></path> <path d="M4 30L28 30L28 21L27.4633 20.8791C25.1826 20.3651 23.5625 18.3379 23.5625 16C23.5625 13.6621 25.1826 11.6349 27.4633 11.1209L28 11L28 2L4 2L4 11L4.59525 11.1323C6.87675 11.6393 8.5 13.6629 8.5 16C8.5 18.3371 6.87675 20.3607 4.59525 20.8677L4 21L4 30Z" stroke="black" stroke-width="2" stroke-miterlimit="10" stroke-linecap="square" fill="none"></path> </svg>