<svg xmlns="http://www.w3.org/2000/svg" xmlns:xlink="http://www.w3.org/1999/xlink" x="0px" y="0px" width="32px" height="32px" viewBox="0 0 32 32"> <path d="M8 29V20H11C12.6569 20 14 21.3431 14 23V23C14 24.6569 12.6569 26 11 26H8.6" stroke="#000" stroke-width="2" stroke-linecap="square" data-color="color-2" fill="none"></path> <path d="M20.5 25.1429V29M20.5 25.1429L17 20H17.075M20.5 25.1429L24 20H23.9346" stroke="#000" stroke-width="2" stroke-linecap="square" data-color="color-2" fill="none"></path> <path d="M13 2V11H4" stroke="black" stroke-width="2" stroke-miterlimit="10" data-cap="butt" fill="none"></path> <path d="M4 16V11.2426C4 10.447 4.31607 9.68393 4.87868 9.12132L11.1213 2.87868C11.6839 2.31607 12.447 2 13.2426 2H25C26.6569 2 28 3.34315 28 5V16" stroke="black" stroke-width="2" stroke-miterlimit="10" stroke-linecap="square" fill="none"></path> </svg>