<svg xmlns="http://www.w3.org/2000/svg" xmlns:xlink="http://www.w3.org/1999/xlink" x="0px" y="0px" width="32px" height="32px" viewBox="0 0 32 32"><path d="M23 20H19.75C18.5074 20 17.5 21.0074 17.5 22.25V22.25C17.5 23.4926 18.5074 24.5 19.75 24.5H22.25C23.4926 24.5 24.5 25.5074 24.5 26.75V26.75C24.5 27.9926 23.4926 29 22.25 29H19" stroke="#000" stroke-width="2" stroke-linecap="square" data-color="color-2" fill="none"></path> <path d="M6 16L6 6C6 4.34315 7.34315 3 9 3L17 3L26 11L26 16" stroke="black" stroke-width="2" stroke-miterlimit="10" stroke-linecap="square" fill="none"></path> <path d="M16 3V12.0001H26" stroke="black" stroke-width="2" data-cap="butt" fill="none"></path> <path d="M11 29V20M11 20H14M11 20L8 20" stroke="#000" stroke-width="2" stroke-linecap="square" data-color="color-2" fill="none"></path></svg>