<svg xmlns="http://www.w3.org/2000/svg" xmlns:xlink="http://www.w3.org/1999/xlink" x="0px" y="0px" width="32px" height="32px" viewBox="0 0 32 32"> <path d="M2 13H30" stroke="black" stroke-width="2" stroke-miterlimit="10" data-cap="butt" fill="none"></path> <path d="M10 28H5C3.34315 28 2 26.6569 2 25V7C2 5.34315 3.34315 4 5 4H27C28.6569 4 30 5.34315 30 7V17" stroke="black" stroke-width="2" stroke-miterlimit="10" stroke-linecap="square" fill="none"></path> <path d="M6.5 9C6.77614 9 7 8.77614 7 8.5C7 8.22386 6.77614 8 6.5 8C6.22386 8 6 8.22386 6 8.5C6 8.77614 6.22386 9 6.5 9Z" fill="black" stroke="black" stroke-width="2" stroke-miterlimit="10" stroke-linecap="square"></path> <path d="M11.5 9C11.7761 9 12 8.77614 12 8.5C12 8.22386 11.7761 8 11.5 8C11.2239 8 11 8.22386 11 8.5C11 8.77614 11.2239 9 11.5 9Z" fill="black" stroke="black" stroke-width="2" stroke-miterlimit="10" stroke-linecap="square"></path> <path d="M27 29C24.7909 29 23 27.2091 23 25C23 22.7909 24.7909 21 27 21C29.2091 21 31 22.7909 31 25C31 27.2091 29.2091 29 27 29Z" stroke="#000" stroke-width="2" stroke-miterlimit="10" stroke-linecap="square" data-color="color-2" fill="none"></path> <path d="M23 25L14 25" stroke="#000" stroke-width="2" stroke-linecap="square" data-color="color-2" fill="none"></path> <path d="M15 25V28H18.5V25" stroke="#000" stroke-width="2" stroke-linecap="square" data-color="color-2" fill="none"></path> </svg>