<svg xmlns="http://www.w3.org/2000/svg" xmlns:xlink="http://www.w3.org/1999/xlink" x="0px" y="0px" width="32px" height="32px" viewBox="0 0 32 32"> <path d="M15.3237 7.03949L10.2368 8.92752C7.65766 9.88477 5.87836 12.264 5.68908 15.0085L4.99999 25L14.9915 24.3109C17.736 24.1217 20.1152 22.3423 21.0725 19.7632L22.9605 14.6762" stroke="black" stroke-width="2" stroke-miterlimit="10" fill="none" data-cap="butt"></path> <path d="M3 29H29" stroke="#000" stroke-width="2" stroke-miterlimit="10" stroke-linecap="square" data-color="color-2" fill="none"></path> <path d="M11 19L5 25" stroke="black" stroke-width="2" fill="none" data-cap="butt"></path> <path d="M16.8995 1.80761L13.364 5.34314L19.0209 11L24.6777 16.6568L28.2133 13.1213L16.8995 1.80761Z" stroke="black" stroke-width="2" stroke-miterlimit="10" stroke-linecap="square" fill="none"></path> <path d="M11.0001 14.7279C9.82849 15.8995 9.82849 17.799 11.0001 18.9706C12.1716 20.1421 14.0711 20.1421 15.2427 18.9706C16.4143 17.799 16.4143 15.8995 15.2427 14.7279C14.0711 13.5564 12.1716 13.5564 11.0001 14.7279Z" stroke="black" stroke-width="2" stroke-miterlimit="10" stroke-linecap="square" fill="none"></path> </svg>