<svg xmlns="http://www.w3.org/2000/svg" xmlns:xlink="http://www.w3.org/1999/xlink" x="0px" y="0px" width="32px" height="32px" viewBox="0 0 32 32"> <path d="M6.10441 3.89571L5.00012 5L3.89575 6.10437" stroke="#000" stroke-width="2" stroke-miterlimit="10" stroke-linecap="square" data-color="color-2" fill="none"></path> <path d="M8.92896 16L11.0503 18.1213" stroke="#000" stroke-width="2" stroke-linecap="square" data-color="color-2" fill="none"></path> <path d="M16 8.92896L18.1213 11.0503" stroke="#000" stroke-width="2" stroke-linecap="square" data-color="color-2" fill="none"></path> <path d="M5.39331 19.5355L8.92884 23.0711" stroke="#000" stroke-width="2" stroke-linecap="square" data-color="color-2" fill="none"></path> <path d="M12.4644 12.4645L15.9999 16" stroke="#000" stroke-width="2" stroke-linecap="square" data-color="color-2" fill="none"></path> <path d="M19.5354 5.39343L23.0709 8.92897" stroke="#000" stroke-width="2" stroke-linecap="square" data-color="color-2" fill="none"></path> <path d="M8.92898 30.1421L30.1422 8.92891L23.0711 1.85784L1.85791 23.071L8.92898 30.1421Z" stroke="black" stroke-width="2" stroke-miterlimit="10" stroke-linecap="square" fill="none"></path> <path d="M27.5425 21L21.0425 27.5" stroke="black" stroke-width="2" data-cap="butt" fill="none"></path> <path d="M6.35637 12.8564L2.49996 8.99996L8.99996 2.49996L12.8743 6.37427" stroke="black" stroke-width="2" stroke-miterlimit="10" stroke-linecap="square" fill="none"></path> <path d="M25.6184 19.1184L28 21.5L29 28.9575L21.5 28L19.1363 25.6363" stroke="black" stroke-width="2" stroke-miterlimit="10" stroke-linecap="square" fill="none"></path> </svg>