<svg xmlns="http://www.w3.org/2000/svg" xmlns:xlink="http://www.w3.org/1999/xlink" x="0px" y="0px" width="32px" height="32px" viewBox="0 0 32 32"> <path d="M8 29V20H11.5C12.8807 20 14 21.1193 14 22.5V22.5C14 23.8807 12.8807 25 11.5 25H8.66667" stroke="#000" stroke-width="2" stroke-linecap="square" data-color="color-2" fill="none"></path> <path d="M11.3333 25L12.1654 24.4453L11.8685 24H11.3333V25ZM14 29V30H15.8685L14.8321 28.4453L14 29ZM13.7872 28H12.7872V30H13.7872V28ZM10 26H11.3333V24H10V26ZM10.5013 25.5547L13.1679 29.5547L14.8321 28.4453L12.1654 24.4453L10.5013 25.5547ZM14 28H13.7872V30H14V28Z" fill="#000" data-color="color-2" data-cap="butt" data-stroke="none"></path> <path d="M18 29V20H20.75C21.9926 20 23 21.0074 23 22.25C23 23.4926 21.9926 24.5 20.75 24.5H18.6428H22.25C23.4926 24.5 24.5 25.5074 24.5 26.75C24.5 27.9926 23.4926 29 22.25 29H18Z" stroke="#000" stroke-width="2" data-color="color-2" data-cap="butt" fill="none"></path> <path d="M13 2V11H4" stroke="black" stroke-width="2" stroke-miterlimit="10" data-cap="butt" fill="none"></path> <path d="M4 16V11.2426C4 10.447 4.31607 9.68393 4.87868 9.12132L11.1213 2.87868C11.6839 2.31607 12.447 2 13.2426 2H25C26.6569 2 28 3.34315 28 5V16" stroke="black" stroke-width="2" stroke-miterlimit="10" stroke-linecap="square" fill="none"></path> </svg>