<svg xmlns="http://www.w3.org/2000/svg" xmlns:xlink="http://www.w3.org/1999/xlink" x="0px" y="0px" width="32px" height="32px" viewBox="0 0 32 32"> <path d="M7 10L16.5 2L18.902 4.40211L18 9L22.7453 8.2454L30 15.5L22 25" stroke="#000" stroke-width="2" data-color="color-2" data-cap="butt" fill="none"></path> <path d="M5.32125 11.4727L7 10L22.0001 24.9998L20.5274 26.6787C19.8499 27.4511 18.6974 27.5845 17.8614 26.9873L12.6083 23.2351L8.38521 28.6648C7.0563 30.3734 4.53062 30.5306 3.00006 29.0001C1.46949 27.4695 1.62673 24.9438 3.33532 23.6149L8.76499 19.3918L5.01271 14.1386C4.41557 13.3026 4.54895 12.1502 5.32125 11.4727Z" stroke="black" stroke-width="2" stroke-linecap="square" fill="none"></path> <path fill-rule="evenodd" clip-rule="evenodd" d="M4.5 26.5C4.5 25.9477 4.94772 25.5 5.5 25.5C6.05228 25.5 6.5 25.9477 6.5 26.5C6.5 27.0523 6.05228 27.5 5.5 27.5C4.94772 27.5 4.5 27.0523 4.5 26.5Z" fill="#000" data-color="color-2" data-cap="butt" data-stroke="none"></path> </svg>