<svg xmlns="http://www.w3.org/2000/svg" xmlns:xlink="http://www.w3.org/1999/xlink" x="0px" y="0px" width="32px" height="32px" viewBox="0 0 32 32"><path d="M17.75 6.5L14.25 6.5C14.1119 6.5 14 6.38807 14 6.25C14 6.11193 14.1119 6 14.25 6L17.75 6C17.8881 6 18 6.11193 18 6.25C18 6.38807 17.8881 6.5 17.75 6.5Z" stroke="black" stroke-width="2" stroke-miterlimit="10" stroke-linecap="square" fill="none"></path> <path d="M11 30L10 30C8.34315 30 7 28.6569 7 27L7 5C7 3.34315 8.34315 2 10 2L22 2C23.6569 2 25 3.34315 25 5L25 12" stroke="black" stroke-width="2" stroke-miterlimit="10" stroke-linecap="square" fill="none"></path> <path d="M26.5 21C27.8807 21 29 19.8807 29 18.5C29 17.1193 27.8807 16 26.5 16C25.1193 16 24 17.1193 24 18.5C24 19.8807 25.1193 21 26.5 21Z" stroke="#000" stroke-width="2" stroke-miterlimit="10" stroke-linecap="square" data-color="color-2" fill="none"></path> <path d="M26.5 30C27.8807 30 29 28.8807 29 27.5C29 26.1193 27.8807 25 26.5 25C25.1193 25 24 26.1193 24 27.5C24 28.8807 25.1193 30 26.5 30Z" stroke="#000" stroke-width="2" stroke-miterlimit="10" stroke-linecap="square" data-color="color-2" fill="none"></path> <path d="M17.5 21C18.8807 21 20 19.8807 20 18.5C20 17.1193 18.8807 16 17.5 16C16.1193 16 15 17.1193 15 18.5C15 19.8807 16.1193 21 17.5 21Z" stroke="#000" stroke-width="2" stroke-miterlimit="10" stroke-linecap="square" data-color="color-2" fill="none"></path> <path d="M17.5 30C18.8807 30 20 28.8807 20 27.5C20 26.1193 18.8807 25 17.5 25C16.1193 25 15 26.1193 15 27.5C15 28.8807 16.1193 30 17.5 30Z" stroke="#000" stroke-width="2" stroke-miterlimit="10" stroke-linecap="square" data-color="color-2" fill="none"></path></svg>