<svg xmlns="http://www.w3.org/2000/svg" xmlns:xlink="http://www.w3.org/1999/xlink" x="0px" y="0px" width="32px" height="32px" viewBox="0 0 32 32"><path d="m21,10c-5,0-8,4-8.9999,11.3333h-.1c-1.0001-7.3333-2.4001-13.3333-9.9001-16.3333" fill="none" stroke="#000" stroke-linecap="square" stroke-miterlimit="10" stroke-width="2"></path><path d="m26,15c2.7614,0,5-2.2386,5-5s-2.2386-5-5-5-5,2.2386-5,5,2.2386,5,5,5Z" fill="none" stroke="#000" stroke-linecap="square" stroke-miterlimit="10" stroke-width="2"></path><path d="m4,28c.5523,0,1-.4477,1-1s-.4477-1-1-1-1,.4477-1,1,.4477,1,1,1Z" fill="#000" stroke="#000" stroke-linecap="square" stroke-miterlimit="10" stroke-width="2" data-color="color-2"></path><path d="m20,28c.5523,0,1-.4477,1-1s-.4477-1-1-1-1,.4477-1,1,.4477,1,1,1Z" fill="#000" stroke="#000" stroke-linecap="square" stroke-miterlimit="10" stroke-width="2" data-color="color-2"></path><path d="m12,28c.5523,0,1-.4477,1-1s-.4477-1-1-1-1,.4477-1,1,.4477,1,1,1Z" fill="#000" stroke="#000" stroke-linecap="square" stroke-miterlimit="10" stroke-width="2" data-color="color-2"></path><path d="m28,28c.5523,0,1-.4477,1-1s-.4477-1-1-1-1,.4477-1,1,.4477,1,1,1Z" fill="#000" stroke="#000" stroke-linecap="square" stroke-miterlimit="10" stroke-width="2" data-color="color-2"></path></svg>