<svg xmlns="http://www.w3.org/2000/svg" xmlns:xlink="http://www.w3.org/1999/xlink" x="0px" y="0px" width="32px" height="32px" viewBox="0 0 32 32"> <path d="M10 6.5H15" stroke="black" stroke-width="2" stroke-linecap="square" fill="none"></path> <path d="M10 25.5H15" stroke="black" stroke-width="2" stroke-linecap="square" fill="none"></path> <path d="M6.5 10.0001L6.5 22.0001" stroke="black" stroke-width="2" stroke-linecap="square" fill="none"></path> <path d="M10 3H3V10H10V3Z" stroke="black" stroke-width="2" stroke-miterlimit="10" stroke-linecap="square" fill="none"></path> <path d="M10 21.9998H3V28.9998H10V21.9998Z" stroke="black" stroke-width="2" stroke-miterlimit="10" stroke-linecap="square" fill="none"></path> <path d="M19 19H29" stroke="#000" stroke-width="2" stroke-linecap="square" data-color="color-2" fill="none"></path> <path d="M19 3V3C21.7614 3 24 5.23858 24 8L24 24C24 26.7614 21.7614 29 19 29V29" stroke="#000" stroke-width="2" stroke-miterlimit="10" stroke-linecap="square" data-color="color-2" fill="none"></path> <path d="M29 3V3C26.2386 3 24 5.23858 24 8L24 24C24 26.7614 26.2386 29 29 29V29" stroke="#000" stroke-width="2" stroke-miterlimit="10" stroke-linecap="square" data-color="color-2" fill="none"></path> </svg>