<svg xmlns="http://www.w3.org/2000/svg" xmlns:xlink="http://www.w3.org/1999/xlink" x="0px" y="0px" width="32px" height="32px" viewBox="0 0 32 32"> <path d="M30 9V25.4377C30 28.5097 27.4575 31 24.3855 31V31C22.3299 31 20.4193 29.8386 19.5 28V28" stroke="#000" stroke-width="2" stroke-linecap="square" data-color="color-2" fill="none"></path> <path d="M3.63544 18L14.3618 18" stroke="black" stroke-width="2" data-cap="butt" fill="none"></path> <path d="M19 14.5V17.5C19 20.5376 21.4624 23 24.5 23C27.5376 23 30 20.5376 30 17.5V14.5C30 11.4624 27.5376 9 24.5 9C21.4624 9 19 11.4624 19 14.5Z" stroke="#000" stroke-width="2" stroke-linecap="square" data-color="color-2" fill="none"></path> <path d="M2.09243 23H2L8.22222 4H9.77778L16 23H15.9178" stroke="black" stroke-width="2" stroke-linecap="square" fill="none"></path> </svg>