<svg xmlns="http://www.w3.org/2000/svg" xmlns:xlink="http://www.w3.org/1999/xlink" x="0px" y="0px" width="32px" height="32px" viewBox="0 0 32 32"> <path d="M9 20.7074C8.39382 20.2596 7.67319 20 6.9 20C4.74609 20 3 22.0147 3 24.5C3 26.9853 4.74609 29 6.9 29C7.67319 29 8.39382 28.7404 9 28.2926" stroke="#000" stroke-width="2" stroke-linecap="square" data-color="color-2" fill="none"></path> <path d="M22 20V29H24.5C26.9853 29 29 26.9853 29 24.5C29 22.0147 26.9853 20 24.5 20H22Z" stroke="#000" stroke-width="2" stroke-linecap="square" data-color="color-2" fill="none"></path> <path d="M13 26.5H18" stroke="#000" stroke-width="2" data-color="color-2" data-cap="butt" fill="none"></path> <path d="M18.906 29H19L16 20H15L12 29H12.1023" stroke="#000" stroke-width="2" stroke-linecap="square" data-color="color-2" fill="none"></path> <path d="M13 2V11H4" stroke="black" stroke-width="2" stroke-miterlimit="10" data-cap="butt" fill="none"></path> <path d="M4 16V11.2426C4 10.447 4.31607 9.68393 4.87868 9.12132L11.1213 2.87868C11.6839 2.31607 12.447 2 13.2426 2H25C26.6569 2 28 3.34315 28 5V16" stroke="black" stroke-width="2" stroke-miterlimit="10" stroke-linecap="square" fill="none"></path> </svg>