<svg xmlns="http://www.w3.org/2000/svg" xmlns:xlink="http://www.w3.org/1999/xlink" x="0px" y="0px" width="48px" height="48px" viewBox="0 0 48 48"> <path d="M36.5001 11.5L35.793 12.2071L36.5001 11.5ZM24.293 11.6862L23.5859 12.3933L25.0001 13.8075L25.7072 13.1004L24.293 11.6862ZM32.2574 8.67153L35.793 12.2071L37.2072 10.7928L33.6717 7.25732L32.2574 8.67153ZM35.793 12.2071L39.3248 15.7388L40.739 14.3246L37.2072 10.7928L35.793 12.2071ZM39.3225 17.8624L17.8195 39.2744L19.2307 40.6916L40.7337 19.2796L39.3225 17.8624ZM25.7072 13.1004L30.1361 8.67153L28.7219 7.25731L24.293 11.6862L25.7072 13.1004ZM39.3248 15.7388C39.9114 16.3255 39.9104 17.277 39.3225 17.8624L40.7337 19.2796C42.1055 17.9136 42.1078 15.6935 40.739 14.3246L39.3248 15.7388ZM33.6717 7.25732C32.3048 5.89048 30.0887 5.89048 28.7219 7.25731L30.1361 8.67153C30.7219 8.08574 31.6717 8.08574 32.2574 8.67153L33.6717 7.25732Z" fill="black" data-cap="butt" data-stroke="none"></path> <path d="M5 28H20" stroke="black" stroke-width="2" data-cap="butt" fill="none"></path> <path d="M37.5 28L40.5 28C41.8807 28 43 29.1193 43 30.5L43 40.5C43 41.8807 41.8807 43 40.5 43L12.5 43L13 43" stroke="black" stroke-width="2" stroke-miterlimit="10" stroke-linecap="square" fill="none"></path> <path d="M5 35.5C5 39.6421 8.35786 43 12.5 43V43C16.6421 43 20 39.6421 20 35.5L20 7.5C20 6.11929 18.8807 5 17.5 5L7.5 5C6.11929 5 5 6.11929 5 7.5L5 35.5Z" stroke="black" stroke-width="2" stroke-miterlimit="10" stroke-linecap="square" fill="none"></path> <path d="M12.5 37C13.3284 37 14 36.3284 14 35.5C14 34.6716 13.3284 34 12.5 34C11.6716 34 11 34.6716 11 35.5C11 36.3284 11.6716 37 12.5 37Z" fill="black" stroke="black" stroke-width="2" stroke-miterlimit="10" stroke-linecap="square"></path> <rect x="10" y="10" width="5" height="5" stroke="#000" stroke-width="2" data-color="color-2" data-cap="butt" fill="none"></rect> <rect x="33" y="33" width="5" height="5" stroke="#000" stroke-width="2" data-color="color-2" data-cap="butt" fill="none"></rect> <path d="M30.7322 13.7322L32.5 15.5L34.2678 17.2678L30.7322 20.8033L27.1967 17.2678L30.7322 13.7322Z" stroke="#000" stroke-width="2" data-color="color-2" data-cap="butt" fill="none"></path> </svg>