<svg xmlns="http://www.w3.org/2000/svg" xmlns:xlink="http://www.w3.org/1999/xlink" x="0px" y="0px" width="48px" height="48px" viewBox="0 0 48 48"> <path d="M32.5002 18L32.5001 19.5C32.5001 19.7761 32.724 20 33.0001 20H36C36.2762 20 36.5 19.7762 36.5 19.5L36.5001 18" stroke="black" stroke-width="2" stroke-miterlimit="10" stroke-linecap="square" fill="none"></path> <path d="M20.0002 6L20.0001 7C20 7.55227 20.4477 8 21 8V8C21.5522 8 21.9999 7.55238 21.9999 7.00018L22 6" stroke="black" stroke-width="2" stroke-miterlimit="10" stroke-linecap="square" fill="none"></path> <path d="M21 31V39" stroke="#000" stroke-width="2" stroke-miterlimit="10" data-color="color-2" data-cap="butt" fill="none"></path> <path d="M13 39.0001H20.9999" stroke="#000" stroke-width="2" stroke-miterlimit="10" stroke-linecap="square" data-color="color-2" fill="none"></path> <path d="M21 31L8 31C5.23858 31 3 28.7614 3 26L3 11C3 8.23857 5.23858 5.99999 8 5.99999L34 6C36.7614 6 39 8.23858 39 11L39 13" stroke="black" stroke-width="2" stroke-miterlimit="10" stroke-linecap="square" fill="none"></path> <path d="M39 18L30 18C27.7909 18 26 19.7909 26 22L26 40C26 42.2091 27.7909 44 30 44L39 44C41.2091 44 43 42.2091 43 40L43 22C43 19.7909 41.2091 18 39 18Z" stroke="black" stroke-width="2" stroke-miterlimit="10" stroke-linecap="square" fill="none"></path> </svg>