<svg xmlns="http://www.w3.org/2000/svg" xmlns:xlink="http://www.w3.org/1999/xlink" x="0px" y="0px" width="48px" height="48px" viewBox="0 0 48 48"> <path d="M20 3V16H7" stroke="black" stroke-width="2" stroke-miterlimit="10" data-cap="butt" fill="none"></path> <path d="M18 43V30" stroke="#000" stroke-width="2" stroke-linecap="square" data-color="color-2" fill="none"></path> <path d="M9 43V30M9 30H13M9 30H5" stroke="#000" stroke-width="2" stroke-linecap="square" data-color="color-2" fill="none"></path> <path d="M24 43L24 30H31M28.375 36.5H24.5" stroke="#000" stroke-width="2" stroke-linecap="square" data-color="color-2" fill="none"></path> <path d="M36 43L36 30H43M40.375 36.5H36.5" stroke="#000" stroke-width="2" stroke-linecap="square" data-color="color-2" fill="none"></path> <path d="M7 24C7 21.7277 7 18.7293 7 16.2422C7 15.4466 7.31607 14.6839 7.87868 14.1213L18.1213 3.87868C18.6839 3.31607 19.447 3 20.2426 3H36C38.7614 3 41 5.23768 41 7.9991C41 13.0203 41 18.769 41 24" stroke="black" stroke-width="2" stroke-miterlimit="10" stroke-linecap="square" fill="none"></path> </svg>