<svg xmlns="http://www.w3.org/2000/svg" xmlns:xlink="http://www.w3.org/1999/xlink" x="0px" y="0px" width="48px" height="48px" viewBox="0 0 48 48"> <path d="M22.001 18.2057L7.001 44.1865L27.4902 38.6954L25.2941 30.4993L29.7941 22.705" stroke="black" stroke-width="2" data-cap="butt" fill="none"></path> <path d="M22.0001 18.2051L29.5107 5.19631C31.1676 2.32657 34.8371 1.34332 37.7068 3.00017C40.5766 4.65702 41.5598 8.32654 39.903 11.1963L32.3923 24.2051L22.0001 18.2051Z" stroke="#000" stroke-width="2" data-color="color-2" data-cap="butt" fill="none"></path> <path d="M35.5621 8.71454C35.8383 8.23625 35.6744 7.62466 35.1961 7.34852C34.7178 7.07237 34.1062 7.23625 33.8301 7.71454C33.5539 8.19283 33.7178 8.80442 34.1961 9.08057C34.6744 9.35671 35.286 9.19283 35.5621 8.71454Z" fill="#000" stroke="#000" stroke-width="2" stroke-miterlimit="10" stroke-linecap="square" data-color="color-2"></path> </svg>