<svg xmlns="http://www.w3.org/2000/svg" xmlns:xlink="http://www.w3.org/1999/xlink" x="0px" y="0px" width="48px" height="48px" viewBox="0 0 48 48"> <path d="M20 3V16H7" stroke="black" stroke-width="2" stroke-miterlimit="10" data-cap="butt" fill="none"></path> <path d="M30 37H33.0002V43H29.1629C25.2072 43 22 39.866 22 36C22 32.134 25.2072 29 29.1629 29H29.9304" stroke="#000" stroke-width="2" stroke-linecap="square" data-color="color-2" fill="none"></path> <path d="M39 29L39 43" stroke="#000" stroke-width="2" stroke-linecap="square" data-color="color-2" fill="none"></path> <path d="M17 30.1004C15.9897 29.4038 14.7886 29 13.5 29C9.91015 29 7 32.134 7 36C7 39.866 9.91015 43 13.5 43C14.7886 43 15.9897 42.5962 17 41.8996" stroke="#000" stroke-width="2" stroke-linecap="square" data-color="color-2" fill="none"></path> <path d="M7 24C7 21.7277 7 18.7293 7 16.2422C7 15.4466 7.31607 14.6839 7.87868 14.1213L18.1213 3.87868C18.6839 3.31607 19.447 3 20.2426 3H36C38.7614 3 41 5.23768 41 7.9991C41 13.0203 41 18.769 41 24" stroke="black" stroke-width="2" stroke-miterlimit="10" stroke-linecap="square" fill="none"></path> </svg>