<svg xmlns="http://www.w3.org/2000/svg" xmlns:xlink="http://www.w3.org/1999/xlink" x="0px" y="0px" width="48px" height="48px" viewBox="0 0 48 48"> <path d="M28 32L34 26L28 20" stroke="#000" stroke-width="2" stroke-miterlimit="10" stroke-linecap="square" data-color="color-2" fill="none"></path> <path d="M20 32L14 26L20 20" stroke="#000" stroke-width="2" stroke-miterlimit="10" stroke-linecap="square" data-color="color-2" fill="none"></path> <path d="M16 5H12C9.23858 5 7 7.23858 7 10V40C7 42.7614 9.23858 45 12 45H36C38.7614 45 41 42.7614 41 40V10C41 7.23858 38.7614 5 36 5H32" stroke="black" stroke-width="2" stroke-miterlimit="10" stroke-linecap="square" fill="none"></path> <path d="M16 8V4.5C16 3.11929 17.1193 2 18.5 2H29.5C30.8807 2 32 3.11929 32 4.5V8H16Z" stroke="#000" stroke-width="2" stroke-miterlimit="10" stroke-linecap="square" data-color="color-2" fill="none"></path> </svg>