<svg xmlns="http://www.w3.org/2000/svg" xmlns:xlink="http://www.w3.org/1999/xlink" x="0px" y="0px" width="48px" height="48px" viewBox="0 0 48 48"> <path d="M28.0198 13L38.5 13" stroke="black" stroke-width="2" data-cap="butt" fill="none"></path> <path d="M9.5 13H19.9154" stroke="black" stroke-width="2" data-cap="butt" fill="none"></path> <path d="M40.4999 30.9999C40.4999 20.9999 34.4211 16.2087 28.5 14.5001L27.9585 14.3543" stroke="black" stroke-width="2" stroke-miterlimit="10" data-cap="butt" fill="none"></path> <path d="M7.5 30.9999C7.5 20.9999 13.5789 16.2086 19.5 14.5L20.0362 14.3544" stroke="black" stroke-width="2" stroke-miterlimit="10" data-cap="butt" fill="none"></path> <path fill-rule="evenodd" clip-rule="evenodd" d="M2 13C2 10.9289 3.67893 9.25 5.75 9.25C7.82107 9.25 9.5 10.9289 9.5 13C9.5 15.0711 7.82107 16.75 5.75 16.75C3.67893 16.75 2 15.0711 2 13Z" stroke="#000" stroke-width="2" stroke-miterlimit="10" stroke-linecap="square" data-color="color-2" fill="none"></path> <path fill-rule="evenodd" clip-rule="evenodd" d="M38.5 13C38.5 10.9289 40.1789 9.25 42.25 9.25C44.3211 9.25 46 10.9289 46 13C46 15.0711 44.3211 16.75 42.25 16.75C40.1789 16.75 38.5 15.0711 38.5 13Z" stroke="#000" stroke-width="2" stroke-miterlimit="10" stroke-linecap="square" data-color="color-2" fill="none"></path> <path d="M28 17L28 9L20 9L20 17L28 17Z" stroke="black" stroke-width="2" stroke-miterlimit="10" stroke-linecap="square" fill="none"></path> <path d="M11 39L11 31L3 31L3 39L11 39Z" stroke="black" stroke-width="2" stroke-miterlimit="10" stroke-linecap="square" fill="none"></path> <path d="M45 39L45 31L37 31L37 39L45 39Z" stroke="black" stroke-width="2" stroke-miterlimit="10" stroke-linecap="square" fill="none"></path> </svg>