<svg xmlns="http://www.w3.org/2000/svg" xmlns:xlink="http://www.w3.org/1999/xlink" x="0px" y="0px" width="48px" height="48px" viewBox="0 0 48 48"> <path d="M15 10H23" stroke="black" stroke-width="2" stroke-linecap="square" fill="none"></path> <path d="M15 38H23" stroke="black" stroke-width="2" stroke-linecap="square" fill="none"></path> <path d="M10 15L10 33" stroke="black" stroke-width="2" stroke-linecap="square" fill="none"></path> <path d="M15 5H5V15H15V5Z" stroke="black" stroke-width="2" stroke-miterlimit="10" stroke-linecap="square" fill="none"></path> <path d="M15 33H5V43H15V33Z" stroke="black" stroke-width="2" stroke-miterlimit="10" stroke-linecap="square" fill="none"></path> <path d="M29 28H43" stroke="#000" stroke-width="2" stroke-linecap="square" data-color="color-2" fill="none"></path> <path d="M29 5L30 5C33.3137 5 36 7.68629 36 11L36 37C36 40.3137 33.3137 43 30 43L29 43" stroke="#000" stroke-width="2" stroke-miterlimit="10" stroke-linecap="square" data-color="color-2" fill="none"></path> <path d="M43 5L42 5C38.6863 5 36 7.68629 36 11L36 37C36 40.3137 38.6863 43 42 43L43 43" stroke="#000" stroke-width="2" stroke-miterlimit="10" stroke-linecap="square" data-color="color-2" fill="none"></path> </svg>