<svg xmlns="http://www.w3.org/2000/svg" xmlns:xlink="http://www.w3.org/1999/xlink" x="0px" y="0px" width="48px" height="48px" viewBox="0 0 48 48"><path d="m24,39l.0002,6.0002" fill="none" stroke="#000" stroke-linecap="square" stroke-width="2" data-color="color-2"></path><path d="m33,3v9" fill="none" stroke="#000" stroke-linecap="square" stroke-miterlimit="10" stroke-width="2"></path><path d="m15,3v9" fill="none" stroke="#000" stroke-linecap="square" stroke-miterlimit="10" stroke-width="2"></path><path d="m24,29c1.6569,0,3-1.3431,3-3s-1.3431-3-3-3-3,1.3431-3,3,1.3431,3,3,3Z" fill="none" stroke="#000" stroke-linecap="square" stroke-miterlimit="10" stroke-width="2"></path><path d="m5,12v6h4v2.625c.0026,2.8477.8693,5.6247,2.4809,7.9491s3.889,4.0821,6.5191,5.0313v5.3946h12v-5.3946c2.6301-.9492,4.9075-2.7069,6.5191-5.0313s2.4783-5.1014,2.4809-7.9491v-2.625h4v-6H5Z" fill="none" stroke="#000" stroke-linecap="square" stroke-miterlimit="10" stroke-width="2"></path></svg>