<svg xmlns="http://www.w3.org/2000/svg" xmlns:xlink="http://www.w3.org/1999/xlink" x="0px" y="0px" width="48px" height="48px" viewBox="0 0 48 48"><path d="m31,15c-7.5,0-11.5,6-12.9999,16.9999h-.1c-1.5001-10.9999-3.6501-19.9999-14.9001-24.4999" fill="none" stroke="#000" stroke-linecap="square" stroke-miterlimit="10" stroke-width="2"></path><path d="m38.5,22.5c4.1421,0,7.5-3.3579,7.5-7.5s-3.3579-7.5-7.5-7.5-7.5,3.3579-7.5,7.5,3.3579,7.5,7.5,7.5Z" fill="none" stroke="#000" stroke-linecap="square" stroke-miterlimit="10" stroke-width="2"></path><path d="m6,42c.8284,0,1.5-.6716,1.5-1.5s-.6716-1.5-1.5-1.5-1.5.6716-1.5,1.5.6716,1.5,1.5,1.5Z" fill="#000" stroke="#000" stroke-linecap="square" stroke-miterlimit="10" stroke-width="2" data-color="color-2"></path><path d="m30,42c.8284,0,1.5-.6716,1.5-1.5s-.6716-1.5-1.5-1.5-1.5.6716-1.5,1.5.6716,1.5,1.5,1.5Z" fill="#000" stroke="#000" stroke-linecap="square" stroke-miterlimit="10" stroke-width="2" data-color="color-2"></path><path d="m18,42c.8284,0,1.5-.6716,1.5-1.5s-.6716-1.5-1.5-1.5-1.5.6716-1.5,1.5.6716,1.5,1.5,1.5Z" fill="#000" stroke="#000" stroke-linecap="square" stroke-miterlimit="10" stroke-width="2" data-color="color-2"></path><path d="m42,42c.8284,0,1.5-.6716,1.5-1.5s-.6716-1.5-1.5-1.5-1.5.6716-1.5,1.5.6716,1.5,1.5,1.5Z" fill="#000" stroke="#000" stroke-linecap="square" stroke-miterlimit="10" stroke-width="2" data-color="color-2"></path></svg>