<svg xmlns="http://www.w3.org/2000/svg" xmlns:xlink="http://www.w3.org/1999/xlink" x="0px" y="0px" width="12px" height="12px" viewBox="0 0 12 12"><path d="m9.28,1.47c-.293-.293-.768-.293-1.061,0l-1.47,1.47V.75c0-.414-.336-.75-.75-.75s-.75.336-.75.75v2.189l-1.47-1.47c-.293-.293-.768-.293-1.061,0s-.293.768,0,1.061l2.75,2.75c.146.146.338.22.53.22s.384-.073.53-.22l2.75-2.75c.293-.293.293-.768,0-1.061Z" stroke-width="0" fill="#000"></path><path d="m9.28,9.47l-2.75-2.75c-.293-.293-.768-.293-1.061,0l-2.75,2.75c-.293.293-.293.768,0,1.061s.768.293,1.061,0l1.47-1.47v2.189c0,.414.336.75.75.75s.75-.336.75-.75v-2.189l1.47,1.47c.146.146.338.22.53.22s.384-.073.53-.22c.293-.293.293-.768,0-1.061Z" fill="#000" stroke-width="0" data-color="color-2"></path></svg>