<svg xmlns="http://www.w3.org/2000/svg" xmlns:xlink="http://www.w3.org/1999/xlink" x="0px" y="0px" width="12px" height="12px" viewBox="0 0 12 12"><path d="m10.75,5.75c-.414,0-.75.336-.75.75v2.439l-4.72-4.72c-.293-.293-.768-.293-1.061,0s-.293.768,0,1.061l4.72,4.72h-2.439c-.414,0-.75.336-.75.75s.336.75.75.75h4.25c.414,0,.75-.336.75-.75v-4.25c0-.414-.336-.75-.75-.75Z" fill="#000" stroke-width="0" data-color="color-2"></path><path d="m1.25,10.25c-.414,0-.75-.336-.75-.75V3.25C.5,1.733,1.733.5,3.25.5h6.25c.414,0,.75.336.75.75s-.336.75-.75.75H3.25c-.689,0-1.25.561-1.25,1.25v6.25c0,.414-.336.75-.75.75Z" stroke-width="0" fill="#000"></path></svg>