<svg xmlns="http://www.w3.org/2000/svg" xmlns:xlink="http://www.w3.org/1999/xlink" x="0px" y="0px" width="12px" height="12px" viewBox="0 0 12 12"><path d="m4.25,11.75c-.192,0-.384-.073-.53-.22L.47,8.28c-.214-.214-.279-.537-.163-.817s.39-.463.693-.463h10c.414,0,.75.336.75.75s-.336.75-.75.75H2.811l1.97,1.97c.293.293.293.768,0,1.061-.146.146-.338.22-.53.22Z" fill="#000" stroke-width="0" data-color="color-2"></path><path d="m11,5H1c-.414,0-.75-.336-.75-.75s.336-.75.75-.75h8.189l-1.97-1.97c-.293-.293-.293-.768,0-1.061s.768-.293,1.061,0l3.25,3.25c.214.214.279.537.163.817s-.39.463-.693.463Z" stroke-width="0" fill="#000"></path></svg>