<svg xmlns="http://www.w3.org/2000/svg" xmlns:xlink="http://www.w3.org/1999/xlink" x="0px" y="0px" width="12px" height="12px" viewBox="0 0 12 12"><path d="m8.561,7.5h1.939c.414,0,.75-.336.75-.75s-.336-.75-.75-.75h-3.75c-.414,0-.75.336-.75.75v3.75c0,.414.336.75.75.75s.75-.336.75-.75v-1.939l2.952,2.952c.146.146.338.22.53.22s.384-.073.53-.22c.293-.293.293-.768,0-1.061l-2.952-2.952Z" fill="#000" stroke-width="0" data-color="color-2"></path><rect y="0" width="6" height="6" rx="1.75" ry="1.75" stroke-width="0" fill="#000"></rect></svg>