<svg xmlns="http://www.w3.org/2000/svg" xmlns:xlink="http://www.w3.org/1999/xlink" x="0px" y="0px" width="12px" height="12px" viewBox="0 0 12 12"><path d="m9.25,0h-.75c-.414,0-.75.336-.75.75s.336.75.75.75h.75c.689,0,1.25.561,1.25,1.25v3.5c0,.689-.561,1.25-1.25,1.25H2.75c-.689,0-1.25-.561-1.25-1.25v-3.5c0-.689.561-1.25,1.25-1.25h.75c.414,0,.75-.336.75-.75s-.336-.75-.75-.75h-.75C1.233,0,0,1.233,0,2.75v3.5c0,1.517,1.233,2.75,2.75,2.75h2.5v1.033c-.831.064-1.661.231-2.487.506-.393.131-.605.556-.474.949s.556.606.949.474c1.833-.61,3.692-.61,5.525,0,.079.026.159.039.237.039.314,0,.607-.199.711-.513.131-.393-.082-.818-.474-.949-.826-.275-1.656-.442-2.487-.506v-1.033h2.5c1.517,0,2.75-1.233,2.75-2.75v-3.5c0-1.517-1.233-2.75-2.75-2.75Z" stroke-width="0" fill="#000"></path><path d="m8.78,2.72c-.293-.293-.768-.293-1.061,0l-.97.97V.75c0-.414-.336-.75-.75-.75s-.75.336-.75.75v2.939l-.97-.97c-.293-.293-.768-.293-1.061,0s-.293.768,0,1.061l2.25,2.25c.146.146.338.22.53.22s.384-.073.53-.22l2.25-2.25c.293-.293.293-.768,0-1.061Z" fill="#000" stroke-width="0" data-color="color-2"></path></svg>