<svg xmlns="http://www.w3.org/2000/svg" xmlns:xlink="http://www.w3.org/1999/xlink" x="0px" y="0px" width="12px" height="12px" viewBox="0 0 12 12"><path d="m9.25,5h-2.5v3.75c0,.414-.336.75-.75.75s-.75-.336-.75-.75v-3.75h-2.5c-1.517,0-2.75,1.233-2.75,2.75v1.5c0,1.517,1.233,2.75,2.75,2.75h6.5c1.517,0,2.75-1.233,2.75-2.75v-1.5c0-1.517-1.233-2.75-2.75-2.75Z" stroke-width="0" fill="#000"></path><path d="m4.28,3.53l.97-.97v2.439h1.5v-2.439l.97.97c.146.146.338.22.53.22s.384-.073.53-.22c.293-.293.293-.768,0-1.061L6.53.22c-.293-.293-.768-.293-1.061,0l-2.25,2.25c-.293.293-.293.768,0,1.061s.768.293,1.061,0Z" fill="#000" stroke-width="0" data-color="color-2"></path></svg>