<svg xmlns="http://www.w3.org/2000/svg" xmlns:xlink="http://www.w3.org/1999/xlink" x="0px" y="0px" width="12px" height="12px" viewBox="0 0 12 12"><path d="m6,11.75c-.192,0-.384-.073-.53-.22l-2.75-2.75c-.293-.293-.293-.768,0-1.061s.768-.293,1.061,0l2.22,2.22,2.22-2.22c.293-.293.768-.293,1.061,0s.293.768,0,1.061l-2.75,2.75c-.146.146-.338.22-.53.22Z" fill="#000" stroke-width="0" data-color="color-2"></path><path d="m8.75,4.5c-.192,0-.384-.073-.53-.22l-2.22-2.22-2.22,2.22c-.293.293-.768.293-1.061,0s-.293-.768,0-1.061L5.47.47c.293-.293.768-.293,1.061,0l2.75,2.75c.293.293.293.768,0,1.061-.146.146-.338.22-.53.22Z" stroke-width="0" fill="#000"></path></svg>