<svg xmlns="http://www.w3.org/2000/svg" xmlns:xlink="http://www.w3.org/1999/xlink" x="0px" y="0px" width="12px" height="12px" viewBox="0 0 12 12"><path d="m5.25,5.25h-2.689l.97-.97c.293-.293.293-.768,0-1.061s-.768-.293-1.061,0L.22,5.47c-.293.293-.293.768,0,1.061l2.25,2.25c.146.146.338.22.53.22s.384-.073.53-.22c.293-.293.293-.768,0-1.061l-.97-.97h2.689c.414,0,.75-.336.75-.75s-.336-.75-.75-.75Z" fill="#000" stroke-width="0" data-color="color-2"></path><path d="m9.75,0h-3.5c-1.095,0-2.025.784-2.213,1.864-.071.408.202.796.61.867.405.07.797-.203.867-.61.062-.36.372-.621.735-.621h2.929l-1.049.874c-.4.333-.63.823-.63,1.344v4.563c0,.521.229,1.011.63,1.344l1.049.874h-2.929c-.363,0-.673-.261-.735-.621-.07-.408-.458-.681-.867-.61-.408.071-.682.459-.61.867.188,1.08,1.118,1.864,2.213,1.864h3.5c1.241,0,2.25-1.009,2.25-2.25V2.25c0-1.241-1.009-2.25-2.25-2.25Z" stroke-width="0" fill="#000"></path></svg>