<svg xmlns="http://www.w3.org/2000/svg" xmlns:xlink="http://www.w3.org/1999/xlink" x="0px" y="0px" width="12px" height="12px" viewBox="0 0 12 12"><path d="m10.383,4.93c-.375-.155-.803-.07-1.09.217l-4.146,4.146c-.287.287-.372.715-.217,1.09s.518.617.924.617h4.146c.551,0,1-.449,1-1v-4.146c0-.406-.242-.769-.617-.924Z" fill="#000" stroke-width="0" data-color="color-2"></path><path d="m6.146,1H2c-.551,0-1,.449-1,1v4.146c0,.406.242.769.617.924.125.052.255.077.384.077.26,0,.514-.102.706-.293L6.854,2.707c.287-.287.372-.715.217-1.09s-.518-.617-.924-.617Z" stroke-width="0" fill="#000"></path></svg>