<svg xmlns="http://www.w3.org/2000/svg" xmlns:xlink="http://www.w3.org/1999/xlink" x="0px" y="0px" width="12px" height="12px" viewBox="0 0 12 12"><path d="m11.78,10.72l-3.72-3.72h2.189c.414,0,.75-.336.75-.75s-.336-.75-.75-.75h-4c-.414,0-.75.336-.75.75v4c0,.414.336.75.75.75s.75-.336.75-.75v-2.189l3.72,3.72c.146.146.338.22.53.22s.384-.073.53-.22c.293-.293.293-.768,0-1.061Z" fill="#000" stroke-width="0" data-color="color-2"></path><path d="m3.75,11h-1c-1.517,0-2.75-1.233-2.75-2.75V2.75C0,1.233,1.233,0,2.75,0h5.5c1.517,0,2.75,1.233,2.75,2.75v1c0,.414-.336.75-.75.75s-.75-.336-.75-.75v-1c0-.689-.561-1.25-1.25-1.25H2.75c-.689,0-1.25.561-1.25,1.25v5.5c0,.689.561,1.25,1.25,1.25h1c.414,0,.75.336.75.75s-.336.75-.75.75Z" stroke-width="0" fill="#000"></path></svg>