<svg xmlns="http://www.w3.org/2000/svg" xmlns:xlink="http://www.w3.org/1999/xlink" x="0px" y="0px" width="12px" height="12px" viewBox="0 0 12 12"><path d="m11,6.75h-5.75c-.414,0-.75-.336-.75-.75s.336-.75.75-.75h5.75c.414,0,.75.336.75.75s-.336.75-.75.75Z" fill="#000" stroke-width="0" data-color="color-2"></path><path d="m5.299,2.399c-.432-.21-.936-.159-1.317.136h0S.797,5.014.797,5.014c-.307.238-.482.598-.482.986s.176.748.482.986l3.186,2.479c.225.175.494.264.766.264.187,0,.375-.042.551-.128.432-.211.701-.642.701-1.123V3.522c0-.481-.269-.912-.701-1.123Z" stroke-width="0" fill="#000"></path></svg>