<svg xmlns="http://www.w3.org/2000/svg" xmlns:xlink="http://www.w3.org/1999/xlink" x="0px" y="0px" width="12px" height="12px" viewBox="0 0 12 12"><path d="m11.25,5.5h-4c-.414,0-.75-.336-.75-.75V.75c0-.414.336-.75.75-.75s.75.336.75.75v3.25h3.25c.414,0,.75.336.75.75s-.336.75-.75.75Z" stroke-width="0" fill="#000"></path><path d="m4.75,12c-.414,0-.75-.336-.75-.75v-3.25H.75c-.414,0-.75-.336-.75-.75s.336-.75.75-.75h4c.414,0,.75.336.75.75v4c0,.414-.336.75-.75.75Z" fill="#000" stroke-width="0" data-color="color-2"></path></svg>