<svg xmlns="http://www.w3.org/2000/svg" xmlns:xlink="http://www.w3.org/1999/xlink" x="0px" y="0px" width="12px" height="12px" viewBox="0 0 12 12"><path d="m9,3.5L7,.833c-.477-.636-1.523-.636-2,0l-2.001,2.667c-.285.381-.33.882-.117,1.309s.642.691,1.118.691h4c.477,0,.905-.265,1.118-.691s.168-.928-.118-1.309Z" stroke-width="0" fill="#000"></path><path d="m9.118,7.191c-.213-.426-.642-.691-1.118-.691h-4c-.477,0-.905.265-1.118.691s-.168.928.118,1.309l2,2.667c.238.318.603.5,1,.5s.762-.182,1-.5l2.001-2.667c.285-.381.33-.882.117-1.309Z" fill="#000" stroke-width="0" data-color="color-2"></path></svg>