<svg xmlns="http://www.w3.org/2000/svg" xmlns:xlink="http://www.w3.org/1999/xlink" x="0px" y="0px" width="12px" height="12px" viewBox="0 0 12 12"><path d="m4.732.232c-.414,0-.75.336-.75.75v1.939L1.78.72c-.293-.293-.768-.293-1.061,0s-.293.768,0,1.061l2.202,2.202H.982c-.414,0-.75.336-.75.75s.336.75.75.75h3.75c.414,0,.75-.336.75-.75V.982c0-.414-.336-.75-.75-.75Z" stroke-width="0" fill="#000"></path><path d="m11.018,6.518h-3.75c-.414,0-.75.336-.75.75v3.75c0,.414.336.75.75.75s.75-.336.75-.75v-1.939l2.202,2.202c.146.146.338.22.53.22s.384-.073.53-.22c.293-.293.293-.768,0-1.061l-2.202-2.202h1.939c.414,0,.75-.336.75-.75s-.336-.75-.75-.75Z" fill="#000" stroke-width="0" data-color="color-2"></path></svg>