<svg xmlns="http://www.w3.org/2000/svg" xmlns:xlink="http://www.w3.org/1999/xlink" x="0px" y="0px" width="12px" height="12px" viewBox="0 0 12 12"><path d="m5.25,6H1.5c-.414,0-.75.336-.75.75s.336.75.75.75h1.939L.487,10.452c-.293.293-.293.768,0,1.061.146.146.338.22.53.22s.384-.073.53-.22l2.952-2.952v1.939c0,.414.336.75.75.75s.75-.336.75-.75v-3.75c0-.414-.336-.75-.75-.75Z" fill="#000" stroke-width="0" data-color="color-2"></path><rect x="6" y="0" width="6" height="6" rx="1.75" ry="1.75" stroke-width="0" fill="#000"></rect></svg>