<svg xmlns="http://www.w3.org/2000/svg" xmlns:xlink="http://www.w3.org/1999/xlink" x="0px" y="0px" width="12px" height="12px" viewBox="0 0 12 12"><path d="m5.75,10.75c-.192,0-.384-.073-.53-.22L1.22,6.53c-.293-.293-.293-.768,0-1.061L5.22,1.47c.293-.293.768-.293,1.061,0s.293.768,0,1.061l-3.47,3.47,3.47,3.47c.293.293.293.768,0,1.061-.146.146-.338.22-.53.22Z" stroke-width="0" fill="#000"></path><path d="m10.25,10.75c-.192,0-.384-.073-.53-.22l-4-4c-.293-.293-.293-.768,0-1.061L9.72,1.47c.293-.293.768-.293,1.061,0s.293.768,0,1.061l-3.47,3.47,3.47,3.47c.293.293.293.768,0,1.061-.146.146-.338.22-.53.22Z" fill="#000" stroke-width="0" data-color="color-2"></path></svg>