<svg xmlns="http://www.w3.org/2000/svg" xmlns:xlink="http://www.w3.org/1999/xlink" x="0px" y="0px" width="18px" height="18px" viewBox="0 0 18 18"><path d="m14.25,2.5H3.75c-1.5166,0-2.75,1.2334-2.75,2.75v7.5c0,1.5166,1.2334,2.75,2.75,2.75h10.5c1.5166,0,2.75-1.2334,2.75-2.75v-7.5c0-1.5166-1.2334-2.75-2.75-2.75Zm-2.2197,7.2803l-2.5,2.5c-.1465.1465-.3379.2197-.5303.2197s-.3838-.0732-.5303-.2197l-2.5-2.5c-.293-.293-.293-.7676,0-1.0605s.7676-.293,1.0605,0l1.2197,1.2197v-3.9395c0-.4141.3359-.75.75-.75s.75.3359.75.75v3.9395l1.2197-1.2197c.293-.293.7676-.293,1.0605,0s.293.7676,0,1.0605Z" stroke-width="0" fill="#000"></path></svg>