<svg xmlns="http://www.w3.org/2000/svg" xmlns:xlink="http://www.w3.org/1999/xlink" x="0px" y="0px" width="18px" height="18px" viewBox="0 0 18 18"><rect x=".161" y="8.25" width="17.678" height="1.5" transform="translate(-3.728 9) rotate(-45)" fill="#000" data-color="color-2"></rect><path d="M15.25,8c-.414,0-.75-.336-.75-.75V3.5h-3.75c-.414,0-.75-.336-.75-.75s.336-.75,.75-.75h4.5c.414,0,.75,.336,.75,.75V7.25c0,.414-.336,.75-.75,.75Z" fill="#000"></path><path d="M7.25,16H2.75c-.414,0-.75-.336-.75-.75v-4.5c0-.414,.336-.75,.75-.75s.75,.336,.75,.75v3.75h3.75c.414,0,.75,.336,.75,.75s-.336,.75-.75,.75Z" fill="#000"></path></svg>