<svg xmlns="http://www.w3.org/2000/svg" xmlns:xlink="http://www.w3.org/1999/xlink" x="0px" y="0px" width="18px" height="18px" viewBox="0 0 18 18"><path d="M14.75,7h-3.75V3.25c0-.414-.336-.75-.75-.75s-.75,.336-.75,.75V7.75c0,.414,.336,.75,.75,.75h4.5c.414,0,.75-.336,.75-.75s-.336-.75-.75-.75Z" fill="#000"></path><path d="M7.75,9.5H3.25c-.414,0-.75,.336-.75,.75s.336,.75,.75,.75h3.75v3.75c0,.414,.336,.75,.75,.75s.75-.336,.75-.75v-4.5c0-.414-.336-.75-.75-.75Z" fill="#000" data-color="color-2"></path></svg>