<svg xmlns="http://www.w3.org/2000/svg" xmlns:xlink="http://www.w3.org/1999/xlink" x="0px" y="0px" width="18px" height="18px" viewBox="0 0 18 18"><path d="M9,15.75c-.414,0-.75-.336-.75-.75V2.75c0-.414,.336-.75,.75-.75s.75,.336,.75,.75V15c0,.414-.336,.75-.75,.75Z" fill="#000" data-color="color-2"></path><path d="M9,16c-.192,0-.384-.073-.53-.22l-4.25-4.25c-.293-.293-.293-.768,0-1.061s.768-.293,1.061,0l3.72,3.72,3.72-3.72c.293-.293,.768-.293,1.061,0s.293,.768,0,1.061l-4.25,4.25c-.146,.146-.338,.22-.53,.22Z" fill="#000"></path></svg>