<svg xmlns="http://www.w3.org/2000/svg" xmlns:xlink="http://www.w3.org/1999/xlink" x="0px" y="0px" width="18px" height="18px" viewBox="0 0 18 18"><path d="M15.25,2h-4.75c-.414,0-.75,.336-.75,.75s.336,.75,.75,.75h2.939l-4.97,4.97c-.293,.293-.293,.768,0,1.061,.146,.146,.338,.22,.53,.22s.384-.073,.53-.22l4.97-4.97v2.939c0,.414,.336,.75,.75,.75s.75-.336,.75-.75V2.75c0-.414-.336-.75-.75-.75Z" fill="#000" data-color="color-2"></path><path d="M13.25,9.75c-.414,0-.75,.336-.75,.75v2.75c0,.689-.561,1.25-1.25,1.25H4.75c-.689,0-1.25-.561-1.25-1.25V6.75c0-.689,.561-1.25,1.25-1.25h2.75c.414,0,.75-.336,.75-.75s-.336-.75-.75-.75h-2.75c-1.517,0-2.75,1.233-2.75,2.75v6.5c0,1.517,1.233,2.75,2.75,2.75h6.5c1.517,0,2.75-1.233,2.75-2.75v-2.75c0-.414-.336-.75-.75-.75Z" fill="#000"></path></svg>