<svg xmlns="http://www.w3.org/2000/svg" xmlns:xlink="http://www.w3.org/1999/xlink" x="0px" y="0px" width="18px" height="18px" viewBox="0 0 18 18"><path d="M9,5.772V2.75c0-.294-.172-.561-.439-.683-.268-.121-.582-.077-.803,.117L1.257,7.851c-.162,.141-.256,.345-.257,.56s.089,.42,.249,.563l6.5,5.833c.221,.198,.537,.247,.807,.127,.27-.121,.444-.389,.444-.685v-2.973c4.296,.318,6.547,3.285,6.645,3.416,.144,.196,.371,.307,.605,.307,.078,0,.157-.012,.233-.037,.308-.101,.517-.389,.517-.713,0-.083-.095-8.006-8-8.478Z" fill="#000"></path></svg>