<svg xmlns="http://www.w3.org/2000/svg" xmlns:xlink="http://www.w3.org/1999/xlink" x="0px" y="0px" width="18px" height="18px" viewBox="0 0 18 18"><path d="m12.534,14.457c-1.052.683-2.273,1.043-3.534,1.043-3.584,0-6.5-2.916-6.5-6.5s2.916-6.5,6.5-6.5c1.309,0,2.57.387,3.649,1.12.342.232.81.142,1.041-.199.233-.343.144-.809-.199-1.042-1.328-.902-2.881-1.379-4.491-1.379C4.589,1,1,4.589,1,9s3.589,8,8,8c1.551,0,3.056-.444,4.351-1.286.348-.226.446-.69.221-1.037-.225-.348-.689-.448-1.037-.221l-.001.001Z" stroke-width="0" fill="#000"></path><path d="m17.78,10.72c-.293-.293-.768-.293-1.061,0l-.72.72v-6.69c0-.414-.336-.75-.75-.75s-.75.336-.75.75v6.689l-.72-.72c-.293-.293-.768-.293-1.061,0s-.293.768,0,1.061l2,2c.146.146.338.22.53.22s.384-.073.53-.22l2-2c.293-.293.293-.768,0-1.061l.002.001Z" fill="#000" stroke-width="0" data-color="color-2"></path><path d="m9,13.5c-.4141,0-.75-.3359-.75-.75v-.25h-1c-.4141,0-.75-.3359-.75-.75s.3359-.75.75-.75h2.375c.3447,0,.625-.2803.625-.625s-.2803-.625-.625-.625h-1.25c-1.1719,0-2.125-.9531-2.125-2.1245,0-1.1299.8862-2.0571,2-2.1221v-.2534c0-.4141.3359-.75.75-.75s.75.3359.75.75v.25h1c.4141,0,.75.3359.75.75s-.3359.75-.75.75h-2.375c-.3447,0-.625.2803-.625.625s.2803.625.625.625h1.25c1.1719,0,2.125.9531,2.125,2.125,0,1.1299-.8862,2.0566-2,2.1216v.2534c0,.4141-.3359.75-.75.75Z" stroke-width="0" fill="#000"></path></svg>