<svg xmlns="http://www.w3.org/2000/svg" xmlns:xlink="http://www.w3.org/1999/xlink" x="0px" y="0px" width="18px" height="18px" viewBox="0 0 18 18"><rect x="6.5" y="7" width="10.5" height="4" rx="1.75" ry="1.75" fill="#000"></rect><rect x="6.5" y="1.5" width="10.5" height="4" rx="1.75" ry="1.75" fill="#000"></rect><rect x="6.5" y="12.5" width="10.5" height="4" rx="1.75" ry="1.75" fill="#000"></rect><path d="M4.78,5.97c-.293-.293-.768-.293-1.061,0l-2.5,2.5c-.293,.293-.293,.768,0,1.061l2.5,2.5c.146,.146,.338,.22,.53,.22s.384-.073,.53-.22c.293-.293,.293-.768,0-1.061l-1.97-1.97,1.97-1.97c.293-.293,.293-.768,0-1.061Z" fill="#000" data-color="color-2"></path></svg>