<svg xmlns="http://www.w3.org/2000/svg" xmlns:xlink="http://www.w3.org/1999/xlink" x="0px" y="0px" width="18px" height="18px" viewBox="0 0 18 18"><path d="M4.74,9.5c-.414,0-.75,.336-.75,.75s.336,.75,.75,.75h5.51c.414,0,.75-.336,.75-.75V4.74c0-.414-.336-.75-.75-.75s-.75,.336-.75,.75v3.7L3.28,2.22c-.293-.293-.768-.293-1.061,0s-.293,.768,0,1.061l6.22,6.22h-3.7Z" fill="#000" data-color="color-2"></path><path d="M15.25,3c-.414,0-.75,.336-.75,.75V13.25c0,.689-.561,1.25-1.25,1.25H3.75c-.414,0-.75,.336-.75,.75s.336,.75,.75,.75H13.25c1.517,0,2.75-1.233,2.75-2.75V3.75c0-.414-.336-.75-.75-.75Z" fill="#000"></path></svg>