<svg xmlns="http://www.w3.org/2000/svg" xmlns:xlink="http://www.w3.org/1999/xlink" x="0px" y="0px" width="18px" height="18px" viewBox="0 0 18 18"><path d="M11.207,2.146c-.287-.287-.714-.373-1.09-.217-.375,.155-.617,.518-.617,.924V7.5c0,.551,.449,1,1,1h4.646c.406,0,.769-.242,.924-.617s.07-.803-.217-1.09L11.207,2.146Z" fill="#000"></path><path d="M7.5,9.5H2.854c-.406,0-.769,.242-.924,.617s-.07,.803,.217,1.09l4.646,4.646c.192,.192,.446,.293,.706,.293,.129,0,.259-.025,.384-.077,.375-.155,.617-.518,.617-.924v-4.646c0-.551-.449-1-1-1Z" fill="#000" data-color="color-2"></path></svg>