<svg xmlns="http://www.w3.org/2000/svg" xmlns:xlink="http://www.w3.org/1999/xlink" x="0px" y="0px" width="18px" height="18px" viewBox="0 0 18 18"><path d="M15.03,14.97l-3.75-3.75c-.293-.293-.768-.293-1.061,0s-.293,.768,0,1.061l3.75,3.75c.146,.146,.338,.22,.53,.22s.384-.073,.53-.22c.293-.293,.293-.768,0-1.061Z" fill="#000" data-color="color-2"></path><path d="M11.72,5.53c.146,.146,.338,.22,.53,.22s.384-.073,.53-.22c.293-.293,.293-.768,0-1.061l-3.25-3.25c-.293-.293-.768-.293-1.061,0l-3.25,3.25c-.293,.293-.293,.768,0,1.061s.768,.293,1.061,0l1.97-1.97v5.611c0,.334-.13,.648-.366,.884L2.97,14.97c-.293,.293-.293,.768,0,1.061,.146,.146,.338,.22,.53,.22s.384-.073,.53-.22l4.914-4.914c.52-.52,.806-1.21,.806-1.945V3.561l1.97,1.97Z" fill="#000"></path></svg>