<svg xmlns="http://www.w3.org/2000/svg" xmlns:xlink="http://www.w3.org/1999/xlink" x="0px" y="0px" width="18px" height="18px" viewBox="0 0 18 18"><path d="M14.25,7H7.75c-1.517,0-2.75,1.233-2.75,2.75v4.5c0,1.517,1.233,2.75,2.75,2.75h6.5c1.517,0,2.75-1.233,2.75-2.75v-4.5c0-1.517-1.233-2.75-2.75-2.75Zm-7.75,7.25v-4.5c0-.689,.561-1.25,1.25-1.25h6.5c.689,0,1.25,.561,1.25,1.25v3.025l-1.263-1.263c-.661-.661-1.813-.661-2.475,0l-3.987,3.987h-.025c-.689,0-1.25-.561-1.25-1.25Z" fill="#000"></path><circle cx="9" cy="11" r="1" fill="#000"></circle><path d="M6.277,4l-.776,.689c-.31,.275-.338,.749-.062,1.059,.148,.167,.354,.252,.561,.252,.177,0,.355-.062,.498-.189l2.25-2c.16-.142,.252-.346,.252-.561s-.092-.418-.252-.561L6.498,.689c-.309-.275-.784-.247-1.059,.062-.275,.31-.247,.783,.062,1.059l.776,.689h-1.027C2.631,2.5,.5,4.631,.5,7.25v1c0,.414,.336,.75,.75,.75s.75-.336,.75-.75v-1c0-1.792,1.458-3.25,3.25-3.25h1.027Z" fill="#000" data-color="color-2"></path></svg>