<svg xmlns="http://www.w3.org/2000/svg" xmlns:xlink="http://www.w3.org/1999/xlink" x="0px" y="0px" width="18px" height="18px" viewBox="0 0 18 18"><circle cx="9" cy="9" r="2.75" fill="#000" data-color="color-2"></circle><path d="M9.53,1.22c-.293-.293-.768-.293-1.061,0l-2.25,2.25c-.293,.293-.293,.768,0,1.061s.768,.293,1.061,0l1.72-1.72,1.72,1.72c.146,.146,.338,.22,.53,.22s.384-.073,.53-.22c.293-.293,.293-.768,0-1.061l-2.25-2.25Z" fill="#000"></path><path d="M10.72,13.47l-1.72,1.72-1.72-1.72c-.293-.293-.768-.293-1.061,0s-.293,.768,0,1.061l2.25,2.25c.146,.146,.338,.22,.53,.22s.384-.073,.53-.22l2.25-2.25c.293-.293,.293-.768,0-1.061s-.768-.293-1.061,0Z" fill="#000"></path><path d="M4.53,6.22c-.293-.293-.768-.293-1.061,0l-2.25,2.25c-.293,.293-.293,.768,0,1.061l2.25,2.25c.146,.146,.338,.22,.53,.22s.384-.073,.53-.22c.293-.293,.293-.768,0-1.061l-1.72-1.72,1.72-1.72c.293-.293,.293-.768,0-1.061Z" fill="#000"></path><path d="M14.53,6.22c-.293-.293-.768-.293-1.061,0s-.293,.768,0,1.061l1.72,1.72-1.72,1.72c-.293,.293-.293,.768,0,1.061,.146,.146,.338,.22,.53,.22s.384-.073,.53-.22l2.25-2.25c.293-.293,.293-.768,0-1.061l-2.25-2.25Z" fill="#000"></path></svg>