<svg xmlns="http://www.w3.org/2000/svg" xmlns:xlink="http://www.w3.org/1999/xlink" x="0px" y="0px" width="18px" height="18px" viewBox="0 0 18 18"><path d="m15.3086,5.353l-5.249-3.9897c-.623-.4746-1.4941-.4741-2.1182-.0005l-5.25,3.9897c-.4326.3286-.6914.8496-.6914,1.3936v1.7539h3.0137c-.0093-.0825-.0137-.166-.0137-.25,0-.6011.2339-1.166.6592-1.5908.4248-.4253.9897-.6592,1.5908-.6592s1.166.2339,1.5908.6592l2.5,2.5c.4253.4248.6592.9897.6592,1.5908s-.2339,1.166-.6592,1.5908l-2.5,2.5c-.4248.4253-.9897.6592-1.5908.6592s-1.166-.2339-1.5908-.6592c-.4253-.4248-.6592-.9897-.6592-1.5908,0-.084.0044-.1675.0137-.25h-3.0137v1.25c0,1.5166,1.2334,2.75,2.75,2.75h8.5c1.5166,0,2.75-1.2334,2.75-2.75v-7.5039c0-.5439-.2588-1.0649-.6914-1.3931Z" stroke-width="0" fill="#000"></path><path d="m10.2803,10.2197l-2.5-2.5c-.293-.293-.7676-.293-1.0605,0s-.293.7676,0,1.0605l1.2197,1.2197H2c-.4141,0-.75.3359-.75.75s.3359.75.75.75h5.9395l-1.2197,1.2197c-.293.293-.293.7676,0,1.0605.1465.1465.3384.2197.5303.2197s.3838-.0732.5303-.2197l2.5-2.5c.293-.293.293-.7676,0-1.0605Z" fill="#000" stroke-width="0" data-color="color-2"></path></svg>