<svg xmlns="http://www.w3.org/2000/svg" xmlns:xlink="http://www.w3.org/1999/xlink" x="0px" y="0px" width="24px" height="24px" viewBox="0 0 24 24"><path d="m12,17c-2.757,0-5-2.243-5-5s2.243-5,5-5,5,2.243,5,5-2.243,5-5,5Zm0-8c-1.654,0-3,1.346-3,3s1.346,3,3,3,3-1.346,3-3-1.346-3-3-3Z" fill="#000" stroke-width="0" data-color="color-2"></path><path d="m12,23c-6.065,0-11-4.935-11-11S5.935,1,12,1s11,4.935,11,11c0,3.69-2.29,5-4.25,5-2.173,0-3.75-1.682-3.75-4v-6h2v6c0,1.215.687,2,1.75,2,1.472,0,2.25-1.038,2.25-3,0-4.962-4.038-9-9-9S3,7.038,3,12s4.038,9,9,9c.923,0,1.831-.139,2.7-.412l.954-.3.6,1.908-.954.3c-1.063.334-2.174.504-3.3.504Z" stroke-width="0" fill="#000"></path></svg>