<svg xmlns="http://www.w3.org/2000/svg" xmlns:xlink="http://www.w3.org/1999/xlink" x="0px" y="0px" width="32px" height="32px" viewBox="0 0 32 32"><path d="m27,30.943l-8.32-5.943h-4.68v-2h5.32l5.68,4.057v-4.057h3c.552,0,1-.449,1-1v-11c0-.551-.448-1-1-1h-1v-2h1c1.654,0,3,1.346,3,3v11c0,1.654-1.346,3-3,3h-1v5.943Z" fill="#000" stroke-width="0" data-color="color-2"></path><path d="m22,2H4c-1.654,0-3,1.346-3,3v12c0,1.654,1.346,3,3,3h2v7l9.333-7h6.667c1.654,0,3-1.346,3-3V5c0-1.654-1.346-3-3-3Z" stroke-width="0" fill="#000"></path></svg>