<svg xmlns="http://www.w3.org/2000/svg" xmlns:xlink="http://www.w3.org/1999/xlink" x="0px" y="0px" width="18px" height="18px" viewBox="0 0 18 18"><path d="M11.59,7.16l-1.515-.506-.505-1.515c-.164-.49-.975-.49-1.139,0l-.505,1.515-1.515,.506c-.245,.081-.41,.311-.41,.569s.165,.488,.41,.569l1.515,.506,.505,1.515c.082,.245,.312,.41,.57,.41s.487-.165,.57-.41l.505-1.515,1.515-.506c.245-.081,.41-.311,.41-.569s-.165-.487-.41-.569Z" fill="#000" data-color="color-2"></path><path d="M9,11.5c-2.027,0-3.828,1.313-4.476,3.196,1.233,.97,2.785,1.554,4.476,1.554s3.242-.583,4.475-1.553c-.657-1.891-2.453-3.197-4.475-3.197Z" fill="#000" data-color="color-2"></path><path d="M9,17c-4.411,0-8-3.589-8-8S4.589,1,9,1s8,3.589,8,8-3.589,8-8,8Zm0-14.5c-3.584,0-6.5,2.916-6.5,6.5s2.916,6.5,6.5,6.5,6.5-2.916,6.5-6.5-2.916-6.5-6.5-6.5Z" fill="#000"></path></svg>