<svg xmlns="http://www.w3.org/2000/svg" xmlns:xlink="http://www.w3.org/1999/xlink" x="0px" y="0px" width="24px" height="24px" viewBox="0 0 24 24"><path d="m12,1C5.935,1,1,5.935,1,12s4.935,11,11,11,11-4.935,11-11S18.065,1,12,1Zm-1,4h2v7h-2v-7Zm1,13.5c-3.584,0-6.5-2.916-6.5-6.5,0-1.782.743-3.504,2.039-4.728l.728-.686,1.373,1.455-.728.687c-.911.859-1.412,2.021-1.412,3.272,0,2.481,2.019,4.5,4.5,4.5s4.5-2.019,4.5-4.5c0-1.251-.501-2.414-1.412-3.272l-.728-.687,1.373-1.455.728.686c1.296,1.223,2.039,2.946,2.039,4.728,0,3.584-2.916,6.5-6.5,6.5Z" stroke-width="0" fill="#000"></path></svg>