<svg xmlns="http://www.w3.org/2000/svg" xmlns:xlink="http://www.w3.org/1999/xlink" x="0px" y="0px" width="32px" height="32px" viewBox="0 0 32 32"> <path fill-rule="evenodd" clip-rule="evenodd" d="M17 24V31H15V24H17Z" fill="black"></path> <path fill-rule="evenodd" clip-rule="evenodd" d="M25 15L25 13L27 13L27 15C27 21.0751 22.0751 26 16 26C9.92487 26 5 21.0751 5 15L5 13L7 13L7 15C7 19.9706 11.0294 24 16 24C20.9706 24 25 19.9706 25 15Z" fill="black"></path> <path fill-rule="evenodd" clip-rule="evenodd" d="M23 8L23 15C23 18.866 19.866 22 16 22C12.134 22 9 18.866 9 15L9 8C9 4.13401 12.134 1 16 1C19.866 1 23 4.13401 23 8Z" fill="#000" data-color="color-2"></path> </svg>