<svg xmlns="http://www.w3.org/2000/svg" xmlns:xlink="http://www.w3.org/1999/xlink" x="0px" y="0px" width="48px" height="48px" viewBox="0 0 48 48"> <path fill-rule="evenodd" clip-rule="evenodd" d="M42 35H6V40.5C6 42.433 7.567 44 9.5 44L38.5 44C40.433 44 42 42.433 42 40.5V35ZM25 38V41H37V38H25ZM10.99 38H14V41H10.99V38ZM16.99 38V41H20V38H16.99Z" fill="#000" data-color="color-2"></path> <path fill-rule="evenodd" clip-rule="evenodd" d="M38 4C41.3137 4 44 6.68629 44 10V29.5C44 31.433 42.433 33 40.5 33L7.5 33C5.567 33 4 31.433 4 29.5V10C4 6.68629 6.68629 4 10 4H38ZM39 28V9L9 9L9 28L39 28Z" fill="black"></path> </svg>