<svg xmlns="http://www.w3.org/2000/svg" xmlns:xlink="http://www.w3.org/1999/xlink" x="0px" y="0px" width="24px" height="24px" viewBox="0 0 24 24"> <path d="M15.2573 20.9142L3.08578 8.74263C2.30474 7.96159 2.30474 6.69526 3.08579 5.91421L4.5 4.49999L5.91421 3.08578C6.69526 2.30473 7.96159 2.30473 8.74264 3.08578L20.9142 15.2574C21.6953 16.0384 21.6953 17.3047 20.9142 18.0858L19.5 19.5L18.0858 20.9142C17.3047 21.6953 16.0384 21.6953 15.2573 20.9142Z" stroke="#000" stroke-width="2" stroke-miterlimit="10" stroke-linecap="square" data-color="color-2" fill="none"></path> <path d="M8.74267 20.9142L20.9142 8.74263C21.6953 7.96159 21.6953 6.69526 20.9142 5.91421L19.5 4.49999L18.0858 3.08578C17.3047 2.30473 16.0384 2.30473 15.2574 3.08578L3.0858 15.2574C2.30475 16.0384 2.30475 17.3047 3.0858 18.0858L4.50002 19.5L5.91424 20.9142C6.69529 21.6953 7.96162 21.6953 8.74267 20.9142Z" stroke="black" stroke-width="2" stroke-miterlimit="10" stroke-linecap="square" fill="none"></path> </svg>