<svg xmlns="http://www.w3.org/2000/svg" xmlns:xlink="http://www.w3.org/1999/xlink" x="0px" y="0px" width="24px" height="24px" viewBox="0 0 24 24"><path d="m6,5h0c-.829,0-1.5-.671-1.5-1.5h0c0-.829.671-1.5,1.5-1.5h0c.829,0,1.5.671,1.5,1.5h0c0,.829-.671,1.5-1.5,1.5Z" fill="#000" stroke="#000" stroke-linecap="square" stroke-miterlimit="10" stroke-width="2" data-color="color-2"></path><path d="m3.75,22l-.25-6-2-1,.83-4.981c.112-.672.553-1.259,1.185-1.515,1.657-.672,3.313-.672,4.97,0,.631.256,1.073.843,1.185,1.515l.497,2.981" fill="none" stroke="#000" stroke-linecap="square" stroke-miterlimit="10" stroke-width="2"></path><path d="m20.25,22l.25-6,2-1-.83-4.981c-.112-.672-.553-1.259-1.185-1.515-1.657-.672-3.313-.672-4.97,0-.631.256-1.073.843-1.185,1.515l-.497,2.981" fill="none" stroke="#000" stroke-linecap="square" stroke-miterlimit="10" stroke-width="2"></path><path d="m18,5h0c.829,0,1.5-.671,1.5-1.5h0c0-.829-.671-1.5-1.5-1.5h0c-.829,0-1.5.671-1.5,1.5h0c0,.829.671,1.5,1.5,1.5Z" fill="#000" stroke="#000" stroke-linecap="square" stroke-miterlimit="10" stroke-width="2" data-color="color-2"></path><line x1="7" y1="20" x2="17" y2="20" fill="none" stroke="#000" stroke-miterlimit="10" stroke-width="2" data-color="color-2" data-cap="butt"></line><polyline points="14.498 22.5 16.998 20 14.498 17.5" fill="none" stroke="#000" stroke-linecap="square" stroke-miterlimit="10" stroke-width="2" data-color="color-2"></polyline><polyline points="9.5 22.5 7 20 9.5 17.5" fill="none" stroke="#000" stroke-linecap="square" stroke-miterlimit="10" stroke-width="2" data-color="color-2"></polyline></svg>