<svg xmlns="http://www.w3.org/2000/svg" xmlns:xlink="http://www.w3.org/1999/xlink" x="0px" y="0px" width="24px" height="24px" viewBox="0 0 24 24"> <path d="M19 8V7C19 5.89543 18.1046 5 17 5H7C5.89543 5 5 5.89543 5 7V8" stroke="black" stroke-width="2" stroke-miterlimit="10" stroke-linecap="square" fill="none"></path> <path d="M7.5 5L8.5 1L15.5 1L16.5 5" stroke="black" stroke-width="2" stroke-miterlimit="10" data-cap="butt" fill="none"></path> <path d="M7.5 19L8.5 23H15.5L16.5 19" stroke="black" stroke-width="2" stroke-miterlimit="10" data-cap="butt" fill="none"></path> <path d="M3 12H8L10 9L14 14.5L16 12H21" stroke="#000" stroke-width="2" stroke-linecap="square" data-color="color-2" fill="none"></path> <path d="M5 16L5 17C5 18.1046 5.89543 19 7 19H17C18.1046 19 19 18.1046 19 17L19 16" stroke="black" stroke-width="2" stroke-miterlimit="10" stroke-linecap="square" fill="none"></path> </svg>