<svg xmlns="http://www.w3.org/2000/svg" xmlns:xlink="http://www.w3.org/1999/xlink" x="0px" y="0px" width="24px" height="24px" viewBox="0 0 24 24"> <path d="M11.1285 13.8715C9.89669 13.4981 9 12.3538 9 11C9 9.34315 10.3431 8 12 8C13.3538 8 14.4981 8.89669 14.8715 10.1285" stroke="#000" stroke-width="2" stroke-miterlimit="10" data-color="color-2" data-cap="butt" fill="none"></path> <path d="M15.3188 17.3531C14.3173 17.7535 13.2096 18 12 18C5.55373 18 2 11 2 11C2 11 5.55373 4 12 4C18.4463 4 22 11 22 11C22 11 20.9337 13.1003 18.9098 15" stroke="black" stroke-width="2" stroke-miterlimit="10" data-cap="butt" fill="none"></path> <path d="M19.0001 20.8284L15.5001 17.3284C14.719 16.5474 14.719 15.281 15.5001 14.5V14.5V14.5C16.2811 13.7189 17.5474 13.7189 18.3285 14.5L21.8285 18" stroke="#000" stroke-width="2" stroke-linecap="square" data-color="color-2" fill="none"></path> <path d="M4 21L22 3" stroke="black" stroke-width="2" stroke-linecap="square" fill="none"></path> </svg>