<svg xmlns="http://www.w3.org/2000/svg" xmlns:xlink="http://www.w3.org/1999/xlink" x="0px" y="0px" width="32px" height="32px" viewBox="0 0 32 32"> <path d="M9 8C7.342 8 6 6.658 6 5C6 3.342 7.342 2 9 2C10.658 2 12 3.342 12 5C12 6.658 10.658 8 9 8Z" stroke="#000" stroke-width="2" stroke-miterlimit="10" stroke-linecap="square" data-color="color-2" fill="none"></path> <path d="M12 30H6L4.90035 21.5L2.5 20.1875L3.48775 13.7038C3.63057 12.7679 4.21745 11.987 5.03357 11.6654C5.9229 11.315 7.60299 11 9.0012 11C9.6973 11 11.4602 11.0787 12.9244 11.6484C13.7537 11.9712 14.3682 12.7548 14.5123 13.7038L15.5 20.1875L13.0996 21.5L12 30Z" stroke="black" stroke-width="2" stroke-miterlimit="10" stroke-linecap="square" fill="none"></path> <path d="M20 11.5L21 11.5" stroke="#000" stroke-width="2" stroke-linecap="square" data-color="color-2" fill="none"></path> <path d="M20 20.5L21 20.5" stroke="#000" stroke-width="2" stroke-linecap="square" data-color="color-2" fill="none"></path> <path d="M20 7L23 7" stroke="#000" stroke-width="2" stroke-linecap="square" data-color="color-2" fill="none"></path> <path d="M20 16L23 16" stroke="#000" stroke-width="2" stroke-linecap="square" data-color="color-2" fill="none"></path> <path d="M20 25L23 25" stroke="#000" stroke-width="2" stroke-linecap="square" data-color="color-2" fill="none"></path> <path d="M20 30L28 30L28 2L20 2" stroke="black" stroke-width="2" stroke-miterlimit="10" stroke-linecap="square" fill="none"></path> </svg>