<svg xmlns="http://www.w3.org/2000/svg" xmlns:xlink="http://www.w3.org/1999/xlink" x="0px" y="0px" width="32px" height="32px" viewBox="0 0 32 32"> <path d="M14 24H20V23C20 21.3431 18.6569 20 17 20H15L14.591 19.591C13.5723 18.5723 12.1907 18 10.75 18V18C9.30935 18 7.9277 18.5723 6.90901 19.591L6 20.5L6.30366 20.1963M24 21.5L27.8113 20.8648C28.957 20.6738 30 21.5574 30 22.7189V22.7189C30 23.4918 29.527 24.1858 28.8076 24.4684L17.9309 28.7414C16.68 29.2329 15.3002 29.2901 14.0129 28.9039L6 26.5L6.39074 26.6368" stroke="black" stroke-width="2" stroke-miterlimit="10" stroke-linecap="square" fill="none"></path> <path d="M6 17V29H2V17H6Z" stroke="black" stroke-width="2" stroke-linecap="square" fill="none"></path> <path d="M24 9V4" stroke="#000" stroke-width="2" data-color="color-2" data-cap="butt" fill="none"></path> <path d="M20 16V9H28V16.5" stroke="black" stroke-width="2" stroke-linecap="square" fill="none"></path> <path d="M28 4L18 4C16.3431 4 15 5.34315 15 7V7" stroke="#000" stroke-width="2" stroke-linecap="square" data-color="color-2" fill="none"></path> <path d="M15 15.5C16.1046 15.5 17 14.5766 17 13.4375C17 12.2984 15 10 15 10C15 10 13 12.2984 13 13.4375C13 14.5766 13.8954 15.5 15 15.5Z" fill="#000" data-color="color-2" data-cap="butt" data-stroke="none"></path> </svg>