<svg xmlns="http://www.w3.org/2000/svg" xmlns:xlink="http://www.w3.org/1999/xlink" x="0px" y="0px" width="48px" height="48px" viewBox="0 0 48 48"> <path d="M24 45C35.598 45 45 35.598 45 24C45 12.402 35.598 3 24 3C12.402 3 3 12.402 3 24C3 35.598 12.402 45 24 45Z" stroke="black" stroke-width="2" stroke-miterlimit="10" stroke-linecap="square" fill="none"></path> <path d="M13.3934 17.6361L30.364 34.6066C31.5355 35.7782 33.435 35.7782 34.6066 34.6066C35.7782 33.4351 35.7782 31.5356 34.6066 30.364L17.636 13.3935C16.4645 12.2219 14.565 12.2219 13.3934 13.3935C12.2218 14.565 12.2218 16.4645 13.3934 17.6361Z" stroke="#000" stroke-width="2" stroke-miterlimit="10" stroke-linecap="square" data-color="color-2" fill="none"></path> </svg>