<svg xmlns="http://www.w3.org/2000/svg" xmlns:xlink="http://www.w3.org/1999/xlink" x="0px" y="0px" width="20px" height="20px" viewBox="0 0 20 20"><path d="m11,14V3c1.088,1.8431,2.6489,3.2918,5,4" fill="none" stroke="#000" stroke-linecap="round" stroke-linejoin="round" stroke-width="2"></path><circle cx="8" cy="14" r="3" stroke="#000" stroke-linecap="round" stroke-linejoin="round" stroke-width="2" fill="#000"></circle><path d="m5.6527,6.9985l-1.2005-.4503-.4506-1.2005c-.1562-.4185-.8468-.4185-1.0031,0l-.4506,1.2005-1.2005.4503c-.2086.0785-.3474.2783-.3474.5015s.1388.4231.3474.5015l1.2005.4503.4506,1.2005c.0781.2093.2783.3477.5015.3477s.4234-.1385.5015-.3477l.4506-1.2005,1.2005-.4503c.2086-.0785.3474-.2783.3474-.5015s-.1388-.4231-.3474-.5015h0Z" fill="#000" stroke-width="0" data-color="color-2"></path><path d="m18.5958,14.3628l-1.4438-.5415-.542-1.4438c-.1879-.5034-1.0185-.5034-1.2064,0l-.542,1.4438-1.4438.5415c-.2508.0944-.4178.3347-.4178.6032s.167.5088.4178.6032l1.4438.5415.542,1.4438c.094.2517.3347.4182.6032.4182s.5092-.1665.6032-.4182l.542-1.4438,1.4438-.5415c.2508-.0944.4178-.3347.4178-.6032s-.167-.5088-.4178-.6032Z" fill="#000" stroke-width="0" data-color="color-2"></path><circle cx="7" cy="3" r="1" fill="#000" stroke-width="0" data-color="color-2"></circle></svg>