<svg xmlns="http://www.w3.org/2000/svg" xmlns:xlink="http://www.w3.org/1999/xlink" x="0px" y="0px" width="20px" height="20px" viewBox="0 0 20 20"><path d="m10,2C5.5889,2,2,5.5889,2,10s3.5889,8,8,8,8-3.5889,8-8S14.4111,2,10,2Zm3.8574,6.0146c-.2847.4731-.8989.626-1.3721.3428l-.9854-.5913v4.7339c0,1.3807-1.1193,2.5-2.5,2.5s-2.5-1.1193-2.5-2.5,1.1193-2.5,2.5-2.5c.1713,0,.3384.0176.5.0504v-4.0504c0-.3604.1938-.6929.5073-.8701.313-.1782.6982-.1733,1.0073.0127l2.5,1.5c.4736.2842.627.8984.3428,1.3721Z" stroke-width="0" fill="#000"></path></svg>