<svg xmlns="http://www.w3.org/2000/svg" xmlns:xlink="http://www.w3.org/1999/xlink" x="0px" y="0px" width="20px" height="20px" viewBox="0 0 20 20"><path d="m10.3063,18h-.9459c-.2152,0-.4063-.1377-.4743-.3419l-1.886-5.6581h2l1.7806,5.3419c.1079.3238-.1331.6581-.4743.6581Z" stroke="#000" stroke-linecap="round" stroke-linejoin="round" stroke-width="2" fill="#000"></path><line x1="7" y1="5" x2="7" y2="12" fill="none" stroke="#000" stroke-linecap="round" stroke-linejoin="round" stroke-width="2" data-color="color-2"></line><path d="m14.5,14c0-1.1046-.8954-2-2-2h-6c-1.933,0-3.5-1.567-3.5-3.5h0c0-1.933,1.567-3.5,3.5-3.5h6c1.1046,0,2-.8954,2-2v11Z" fill="none" stroke="#000" stroke-linecap="round" stroke-linejoin="round" stroke-width="2"></path><path d="m17,10.9496c1.1411-.2317,2-1.2401,2-2.4496s-.8589-2.2179-2-2.4496v4.8992Z" fill="#000" stroke-width="0" data-color="color-2"></path></svg>