<svg xmlns="http://www.w3.org/2000/svg" xmlns:xlink="http://www.w3.org/1999/xlink" x="0px" y="0px" width="20px" height="20px" viewBox="0 0 20 20"><path d="m4,7h3c.552,0,1-.448,1-1v-3" stroke="#000" stroke-linejoin="round" stroke-width="2" fill="#000"></path><path d="m16,7.818v-1.818c0-1.657-1.343-3-3-3h-4.586c-.265,0-.52.105-.707.293l-3.414,3.414c-.188.188-.293.442-.293.707v6.586c0,1.657,1.343,3,3,3h1.24" fill="none" stroke="#000" stroke-linecap="round" stroke-linejoin="round" stroke-width="2"></path><path d="m14,10c-2.209,0-4,1.791-4,4s1.791,4,4,4,4-1.791,4-4-1.791-4-4-4Zm2.031,5.625c-.198.247-.488.375-.782.375-.219,0-.439-.072-.624-.219l-1.25-1c-.237-.189-.375-.477-.375-.781v-1.5c0-.552.447-1,1-1s1,.448,1,1v1.02l.875.7c.431.345.501.974.156,1.405Z" fill="#000" stroke-width="0" data-color="color-2"></path></svg>