<svg xmlns="http://www.w3.org/2000/svg" xmlns:xlink="http://www.w3.org/1999/xlink" x="0px" y="0px" width="20px" height="20px" viewBox="0 0 20 20"><path d="m14,2H6c-2.206,0-4,1.794-4,4v8c0,2.206,1.794,4,4,4h8c2.206,0,4-1.794,4-4V6c0-2.206-1.794-4-4-4Zm2,11c0,.552-.448,1-1,1h-1.719c-.459,0-.859.312-.97.757l-.121.485c-.111.445-.511.757-.97.757h-2.438c-.459,0-.859-.312-.97-.757l-.121-.485c-.111-.445-.511-.757-.97-.757h-1.719c-.552,0-1-.448-1-1v-7c0-1.105.895-2,2-2h8c1.105,0,2,.895,2,2v7Z" stroke-width="0" fill="#000"></path><line x1="13" y1="7" x2="7" y2="7" fill="none" stroke="#000" stroke-linecap="round" stroke-linejoin="round" stroke-width="2" data-color="color-2"></line><line x1="13" y1="11" x2="7" y2="11" fill="none" stroke="#000" stroke-linecap="round" stroke-linejoin="round" stroke-width="2" data-color="color-2"></line></svg>