<svg xmlns="http://www.w3.org/2000/svg" xmlns:xlink="http://www.w3.org/1999/xlink" x="0px" y="0px" width="20px" height="20px" viewBox="0 0 20 20"><line x1="10" y1="3" x2="10" y2="8" fill="none" stroke="#000" stroke-linecap="round" stroke-linejoin="round" stroke-width="2" data-color="color-2"></line><path d="m6,3l-2,4v7c0,1.657,1.343,3,3,3h6c1.657,0,3-1.343,3-3v-7l-2-4H6Z" fill="none" stroke="#000" stroke-linecap="round" stroke-linejoin="round" stroke-width="2"></path><line x1="4" y1="8" x2="16" y2="8" fill="none" stroke="#000" stroke-linecap="round" stroke-linejoin="round" stroke-width="2"></line><path d="m4,8v6c0,1.657,1.343,3,3,3h6c1.657,0,3-1.343,3-3v-6H4Zm8.543,5.23l-1.967,2.359c-.144.172-.354.27-.576.27s-.433-.098-.576-.269l-1.966-2.36h0c-.188-.226-.227-.532-.103-.798.125-.266.386-.432.68-.432h.966v-2c0-.552.447-1,1-1s1,.448,1,1v2h.966c.294,0,.555.166.68.432.124.267.085.572-.103.798Z" stroke-width="0" fill="#000"></path></svg>