<svg xmlns="http://www.w3.org/2000/svg" xmlns:xlink="http://www.w3.org/1999/xlink" x="0px" y="0px" width="20px" height="20px" viewBox="0 0 20 20"><path d="m13.5,6h-3.5l-1.703-2.555c-.185-.278-.498-.445-.832-.445h-2.965c-.828,0-1.5.672-1.5,1.5v9.5c0,.781.299,1.491.789,2.025-.254-.42-.365-.931-.248-1.459l1.111-5c.203-.915,1.015-1.566,1.952-1.566h8.396v-.5c0-.828-.672-1.5-1.5-1.5Z" fill="#000" stroke="#000" stroke-linecap="round" stroke-linejoin="round" stroke-width="2" data-color="color-2"></path><path d="m14.041,17H5.493c-1.279,0-2.23-1.185-1.952-2.434l1.111-5c.203-.915,1.015-1.566,1.952-1.566h8.548c1.279,0,2.23,1.185,1.952,2.434l-1.111,5c-.203.915-1.015,1.566-1.952,1.566Z" fill="none" stroke="#000" stroke-linecap="round" stroke-linejoin="round" stroke-width="2"></path></svg>