<svg xmlns="http://www.w3.org/2000/svg" xmlns:xlink="http://www.w3.org/1999/xlink" x="0px" y="0px" width="20px" height="20px" viewBox="0 0 20 20"><path d="m16,10h-3.586l-1.707-1.707c-.188-.188-.442-.293-.707-.293h-2c-.552,0-1,.448-1,1v6c0,1.105.895,2,2,2h6c1.105,0,2-.895,2-2v-4c0-.552-.448-1-1-1Z" stroke="#000" stroke-linecap="round" stroke-linejoin="round" stroke-width="2" fill="#000"></path><path d="m13,6h0c0-.552-.448-1-1-1h-3.586l-1.707-1.707c-.188-.188-.442-.293-.707-.293h-2c-.552,0-1,.448-1,1v6c0,.74.402,1.386,1,1.732" fill="none" stroke="#000" stroke-linecap="round" stroke-linejoin="round" stroke-width="2" data-color="color-2"></path></svg>