<svg xmlns="http://www.w3.org/2000/svg" xmlns:xlink="http://www.w3.org/1999/xlink" x="0px" y="0px" width="20px" height="20px" viewBox="0 0 20 20"><path d="m4,7h3c.552,0,1-.448,1-1v-3" stroke="#000" stroke-linejoin="round" stroke-width="2" fill="#000"></path><path d="m16,6.888v-.888c0-1.657-1.343-3-3-3h-4.586c-.265,0-.52.105-.707.293l-3.414,3.414c-.188.188-.293.442-.293.707v6.586c0,1.657,1.343,3,3,3h.551" fill="none" stroke="#000" stroke-linecap="round" stroke-linejoin="round" stroke-width="2"></path><path d="m12,14v-2c0-1.105.895-2,2-2h0c1.105,0,2,.895,2,2v2" fill="none" stroke="#000" stroke-linecap="round" stroke-linejoin="round" stroke-width="2" data-color="color-2"></path><rect x="11" y="14" width="6" height="3" rx=".5" ry=".5" fill="#000" stroke="#000" stroke-linecap="round" stroke-linejoin="round" stroke-width="2" data-color="color-2"></rect></svg>