<svg xmlns="http://www.w3.org/2000/svg" xmlns:xlink="http://www.w3.org/1999/xlink" x="0px" y="0px" width="20px" height="20px" viewBox="0 0 20 20"><path d="m10,6H3v-1.5c0-.828.672-1.5,1.5-1.5h2.965c.334,0,.647.167.832.445l1.703,2.555Z" stroke="#000" stroke-linecap="round" stroke-linejoin="round" stroke-width="2" fill="#000"></path><path d="m12,11.764c.531-.475,1.232-.764,2-.764,1.657,0,3,1.343,3,3s-1.343,3-3,3c-.888,0-1.687-.386-2.236-1" fill="none" stroke="#000" stroke-linecap="round" stroke-linejoin="round" stroke-width="2" data-color="color-2"></path><path d="m10.75,18c-.097,0-.194-.019-.287-.057-.28-.116-.463-.39-.463-.693v-2.5c0-.414.336-.75.75-.75h2.5c.303,0,.577.183.693.463s.052.603-.163.817l-2.5,2.5c-.144.144-.335.22-.53.22Z" fill="#000" stroke-width="0" data-color="color-2"></path><path d="m17,8.24v-.74c0-.828-.672-1.5-1.5-1.5H3v8c0,1.657,1.343,3,3,3h1.5" fill="none" stroke="#000" stroke-linecap="round" stroke-linejoin="round" stroke-width="2"></path></svg>