<svg xmlns="http://www.w3.org/2000/svg" xmlns:xlink="http://www.w3.org/1999/xlink" x="0px" y="0px" width="20px" height="20px" viewBox="0 0 20 20"><rect x="4" y="3" width="12" height="14" rx="3" ry="3" transform="translate(20 20) rotate(180)" fill="none" stroke="#000" stroke-linecap="round" stroke-linejoin="round" stroke-width="2"></rect><rect x="7" y="6" width="2" height="2" fill="#000" stroke="#000" stroke-linecap="round" stroke-linejoin="round" stroke-width="2" data-color="color-2"></rect><path d="m13.25,9h-1.5c-.4141,0-.75-.3359-.75-.75s.3359-.75.75-.75h1.5c.4141,0,.75.3359.75.75s-.3359.75-.75.75Z" fill="#000" stroke-width="0" data-color="color-2"></path><path d="m13.25,11.5h-6.5c-.4141,0-.75-.3359-.75-.75s.3359-.75.75-.75h6.5c.4141,0,.75.3359.75.75s-.3359.75-.75.75Z" fill="#000" stroke-width="0" data-color="color-2"></path><path d="m11.25,14h-4.5c-.4141,0-.75-.3359-.75-.75s.3359-.75.75-.75h4.5c.4141,0,.75.3359.75.75s-.3359.75-.75.75Z" fill="#000" stroke-width="0" data-color="color-2"></path></svg>