<svg xmlns="http://www.w3.org/2000/svg" xmlns:xlink="http://www.w3.org/1999/xlink" x="0px" y="0px" width="32px" height="32px" viewBox="0 0 32 32"> <path d="M1.5 16C1.5 7.99187 7.99187 1.5 16 1.5C19.654 1.5 22.9943 2.85316 25.5439 5.08398L26.3486 5.78711L24.5 7.63574L23.0859 6.22168L23.3896 5.91699C21.3196 4.39703 18.7655 3.5 16 3.5C9.09644 3.5 3.5 9.09644 3.5 16C3.5 22.9036 9.09644 28.5 16 28.5C22.2733 28.5 27.4684 23.8778 28.3633 17.8535L28.5107 16.8643L30.4893 17.1582L30.3418 18.1465C29.3037 25.1368 23.2791 30.5 16 30.5C7.99187 30.5 1.5 24.0081 1.5 16Z" fill="#000" data-color="color-2"></path> <path d="M29.8168 11.3168L20.1411 9.16651L27.6665 1.64107L29.8168 11.3168Z" fill="black"></path> </svg>