<svg xmlns="http://www.w3.org/2000/svg" xmlns:xlink="http://www.w3.org/1999/xlink" x="0px" y="0px" width="12px" height="12px" viewBox="0 0 12 12"><path d="m6.854.819c-.278-.045-.563-.069-.854-.069s-.576.024-.854.069" fill="none" stroke="#000" stroke-linecap="round" stroke-linejoin="round" stroke-width="1.5"></path><path d="m10.267,2.94c-.164-.229-.349-.447-.555-.652s-.424-.39-.652-.555" fill="none" stroke="#000" stroke-linecap="round" stroke-linejoin="round" stroke-width="1.5" data-color="color-2"></path><path d="m11.181,6.854c.045-.278.069-.563.069-.854,0-.291-.024-.576-.069-.854" fill="none" stroke="#000" stroke-linecap="round" stroke-linejoin="round" stroke-width="1.5"></path><path d="m9.06,10.267c.229-.164.447-.349.652-.555s.39-.424.555-.652" fill="none" stroke="#000" stroke-linecap="round" stroke-linejoin="round" stroke-width="1.5" data-color="color-2"></path><path d="m5.146,11.181c.278.045.563.069.854.069s.576-.024.854-.069" fill="none" stroke="#000" stroke-linecap="round" stroke-linejoin="round" stroke-width="1.5"></path><path d="m1.733,9.06c.164.229.349.447.555.652s.424.39.652.555" fill="none" stroke="#000" stroke-linecap="round" stroke-linejoin="round" stroke-width="1.5" data-color="color-2"></path><path d="m.819,5.146c-.045.278-.069.563-.069.854,0,.291.024.576.069.854" fill="none" stroke="#000" stroke-linecap="round" stroke-linejoin="round" stroke-width="1.5"></path><path d="m2.94,1.733c-.229.164-.447.349-.652.555s-.39.424-.555.652" fill="none" stroke="#000" stroke-linecap="round" stroke-linejoin="round" stroke-width="1.5" data-color="color-2"></path></svg>