<svg xmlns="http://www.w3.org/2000/svg" xmlns:xlink="http://www.w3.org/1999/xlink" x="0px" y="0px" width="18px" height="18px" viewBox="0 0 18 18"><path d="M9 14.25C9.966 14.25 10.75 13.466 10.75 12.5C10.75 11.534 9.966 10.75 9 10.75C8.034 10.75 7.25 11.534 7.25 12.5C7.25 13.466 8.034 14.25 9 14.25Z" stroke="#000" stroke-width="1.5" stroke-linecap="round" stroke-linejoin="round" data-color="color-2" fill="none"></path> <path d="M13.75 12.25H16.237C16.24 12.167 16.25 12.084 16.25 12C16.25 7.996 13.004 4.75 9 4.75C4.996 4.75 1.75 7.996 1.75 12C1.75 12.084 1.76 12.167 1.763 12.25H4.25" stroke="black" stroke-width="1.5" stroke-linecap="round" stroke-linejoin="round" fill="none"></path> <path d="M8.11661 10.9908L6.55701 8.327" stroke="#000" stroke-width="1.5" stroke-linecap="round" stroke-linejoin="round" data-color="color-2" fill="none"></path></svg>