<svg xmlns="http://www.w3.org/2000/svg" xmlns:xlink="http://www.w3.org/1999/xlink" x="0px" y="0px" width="18px" height="18px" viewBox="0 0 18 18"><polyline points="5.75 9.25 8 11.75 12.25 6.25" fill="none" stroke="#000" stroke-linecap="round" stroke-linejoin="round" stroke-width="1.5" data-color="color-2"></polyline><path d="M10.968,2.25h-3.935c-.53,0-1.039,.211-1.414,.586l-2.782,2.782c-.375,.375-.586,.884-.586,1.414v3.935c0,.53,.211,1.039,.586,1.414l2.782,2.782c.375,.375,.884,.586,1.414,.586h3.935c.53,0,1.039-.211,1.414-.586l2.782-2.782c.375-.375,.586-.884,.586-1.414v-3.935c0-.53-.211-1.039-.586-1.414l-2.782-2.782c-.375-.375-.884-.586-1.414-.586Z" fill="none" stroke="#000" stroke-linecap="round" stroke-linejoin="round" stroke-width="1.5"></path></svg>