<svg xmlns="http://www.w3.org/2000/svg" xmlns:xlink="http://www.w3.org/1999/xlink" x="0px" y="0px" width="18px" height="18px" viewBox="0 0 18 18"><path d="M6.75 2.75V15.25" stroke="black" stroke-width="1.5" stroke-linecap="round" stroke-linejoin="round" fill="none"></path> <path d="M15.25 6.75H2.75" stroke="black" stroke-width="1.5" stroke-linecap="round" stroke-linejoin="round" fill="none"></path> <path d="M13 15.25C14.2426 15.25 15.25 14.24 15.25 13C15.25 11.76 14.2426 10.75 13 10.75C11.7574 10.75 10.75 11.76 10.75 13C10.75 14.24 11.7574 15.25 13 15.25Z" stroke="#000" stroke-width="1.5" stroke-linecap="round" stroke-linejoin="round" data-color="color-2" fill="none"></path> <path d="M15.25 8.25757V4.75C15.25 3.65 14.355 2.75 13.25 2.75H4.75C3.645 2.75 2.75 3.65 2.75 4.75V13.25C2.75 14.35 3.645 15.25 4.75 15.25H8.2576" stroke="black" stroke-width="1.5" stroke-linecap="round" stroke-linejoin="round" fill="none"></path> <path d="M14.59 14.59L16.25 16.25" stroke="#000" stroke-width="1.5" stroke-linecap="round" stroke-linejoin="round" data-color="color-2" fill="none"></path></svg>