<svg xmlns="http://www.w3.org/2000/svg" xmlns:xlink="http://www.w3.org/1999/xlink" x="0px" y="0px" width="18px" height="18px" viewBox="0 0 18 18"><rect x="9.75" y="2.75" width="5.5" height="5.5" rx="1" ry="1" transform="translate(18 -7) rotate(90)" fill="none" stroke="#000" stroke-linecap="round" stroke-linejoin="round" stroke-width="1.5" data-color="color-2"></rect><path d="M2.75,3.5c.414,0,.75-.336,.75-.75s-.336-.75-.75-.75-.75,.336-.75,.75,.336,.75,.75,.75Z" fill="#000" data-stroke="none"></path><path d="M2.75,6.625c.414,0,.75-.336,.75-.75s-.336-.75-.75-.75-.75,.336-.75,.75c0,.414,.336,.75,.75,.75Z" fill="#000" data-stroke="none"></path><path d="M2.75,9.75c.414,0,.75-.336,.75-.75s-.336-.75-.75-.75-.75,.336-.75,.75c0,.414,.336,.75,.75,.75Z" fill="#000" data-stroke="none"></path><path d="M2.75,12.875c.414,0,.75-.336,.75-.75s-.336-.75-.75-.75-.75,.336-.75,.75,.336,.75,.75,.75Z" fill="#000" data-stroke="none"></path><path d="M15.25,12.875c.414,0,.75-.336,.75-.75s-.336-.75-.75-.75-.75,.336-.75,.75,.336,.75,.75,.75Z" fill="#000" data-stroke="none"></path><path d="M2.75,16c.414,0,.75-.336,.75-.75s-.336-.75-.75-.75-.75,.336-.75,.75,.336,.75,.75,.75Z" fill="#000" data-stroke="none"></path><path d="M5.875,16c.414,0,.75-.336,.75-.75s-.336-.75-.75-.75-.75,.336-.75,.75,.336,.75,.75,.75Z" fill="#000" data-stroke="none"></path><path d="M5.875,3.5c.414,0,.75-.336,.75-.75s-.336-.75-.75-.75-.75,.336-.75,.75,.336,.75,.75,.75Z" fill="#000" data-stroke="none"></path><path d="M9,16c.414,0,.75-.336,.75-.75s-.336-.75-.75-.75-.75,.336-.75,.75,.336,.75,.75,.75Z" fill="#000" data-stroke="none"></path><circle cx="12.125" cy="15.25" r=".75" fill="#000" data-stroke="none"></circle><path d="M15.25,16c.414,0,.75-.336,.75-.75s-.336-.75-.75-.75-.75,.336-.75,.75,.336,.75,.75,.75Z" fill="#000" data-stroke="none"></path></svg>