<svg xmlns="http://www.w3.org/2000/svg" xmlns:xlink="http://www.w3.org/1999/xlink" x="0px" y="0px" width="24px" height="24px" viewBox="0 0 24 24"> <path d="M19 3.5V11" stroke="#000" stroke-width="2" data-color="color-2" data-cap="butt" fill="none"></path> <path d="M8 8L14 14V21" stroke="black" stroke-width="2" data-cap="butt" fill="none"></path> <path d="M6 21V17L7 16L8 15L10 17V21" stroke="#000" stroke-width="2" stroke-linecap="square" data-color="color-2" fill="none"></path> <path d="M8 8H16L22 14V21H2V14L8 8Z" stroke="black" stroke-width="2" data-cap="butt" fill="none"></path> <path d="M7.82928 4C7.41745 2.83481 6.30621 2 4.99999 2C3.34314 2 1.99999 3.34315 1.99999 5C1.99999 5.8885 2.38624 6.68679 2.99999 7.23611" stroke="#000" stroke-width="2" stroke-miterlimit="10" stroke-linecap="square" data-color="color-2" fill="none"></path> <path d="M19 1V1C19 2.65685 17.6569 4 16 4V4" stroke="#000" stroke-width="2" stroke-linecap="square" data-color="color-2" fill="none"></path> <path d="M19 1.78964V5C19 6.65686 20.3431 8 22 8V8" stroke="#000" stroke-width="2" stroke-linecap="square" data-color="color-2" fill="none"></path> <path d="M19 1V1C19 2.65685 20.3431 4 22 4V4" stroke="#000" stroke-width="2" stroke-linecap="square" data-color="color-2" fill="none"></path> </svg>