<svg xmlns="http://www.w3.org/2000/svg" xmlns:xlink="http://www.w3.org/1999/xlink" x="0px" y="0px" width="24px" height="24px" viewBox="0 0 24 24"> <path d="M9 21V19" stroke="#000" stroke-width="2" stroke-linecap="square" data-color="color-2" fill="none"></path> <path d="M15 21V19" stroke="#000" stroke-width="2" stroke-linecap="square" data-color="color-2" fill="none"></path> <path d="M9 15V13" stroke="#000" stroke-width="2" stroke-linecap="square" data-color="color-2" fill="none"></path> <path d="M15 15V13" stroke="#000" stroke-width="2" stroke-linecap="square" data-color="color-2" fill="none"></path> <path d="M4 8.5L4 21H20V8.5" stroke="black" stroke-width="2" data-cap="butt" fill="none"></path> <path d="M18 9H6C4.70178 9 3.43858 8.57893 2.4 7.8L2 7.5V6L2.95353 5.82663C5.95179 5.28149 8.80411 4.11939 11.3297 2.414L11.9428 2H12.0633L12.666 2.4075C15.1943 4.11712 18.0507 5.28195 21.0536 5.82793L22 6V7.5L21.6 7.8C20.5614 8.57893 19.2982 9 18 9Z" stroke="black" stroke-width="2" data-cap="butt" fill="none"></path> <path d="M2 13.5V13.7144L2.4 14.0144C3.43858 14.7934 4.70178 15.2144 6 15.2144H18C19.2982 15.2144 20.5614 14.7934 21.6 14.0144L22 13.7144V13.5" stroke="black" stroke-width="2" stroke-linecap="square" fill="none"></path> </svg>