<svg xmlns="http://www.w3.org/2000/svg" xmlns:xlink="http://www.w3.org/1999/xlink" x="0px" y="0px" width="24px" height="24px" viewBox="0 0 24 24"> <path d="M12.0469 21H12L15 17L14.8478 17.203" stroke="#000" stroke-width="2" stroke-linecap="square" data-color="color-2" fill="none"></path> <path d="M11.8787 7.87869L10 6.00002" stroke="black" stroke-width="2" stroke-linecap="square" fill="none"></path> <path d="M16.1213 7.87868L18 6" stroke="black" stroke-width="2" stroke-linecap="square" fill="none"></path> <path d="M17 10L19.5 10" stroke="black" stroke-width="2" stroke-linecap="square" fill="none"></path> <path d="M8.5 10L11 10" stroke="black" stroke-width="2" stroke-linecap="square" fill="none"></path> <path d="M5 2.50002C5 3.38367 4.32843 4.00002 3.5 4.00002C2.67157 4.00002 2 3.38367 2 2.50002C2 1.30002 3.5 0.0243615 3.5 0.0243615C3.5 0.0243615 5 1.30002 5 2.50002Z" fill="#000" data-color="color-2" data-cap="butt" data-stroke="none"></path> <path d="M2 6H5" stroke="black" stroke-width="2" stroke-linecap="square" fill="none"></path> <path d="M4.05145 6H3.5L4.5 12L7.2936 15.1927C7.75037 15.7147 8.37392 16.0623 9.05814 16.1764L17.4932 17.5822C18.9398 17.8233 20 19.0749 20 20.5414V21" stroke="black" stroke-width="2" stroke-linecap="square" fill="none"></path> <path d="M14 7V4" stroke="black" stroke-width="2" stroke-linecap="square" fill="none"></path> <path d="M14 13C15.6569 13 17 11.6569 17 10C17 8.34315 15.6569 7 14 7C12.3431 7 11 8.34315 11 10C11 11.6569 12.3431 13 14 13Z" stroke="black" stroke-width="2" stroke-miterlimit="10" data-cap="butt" fill="none"></path> <path d="M6 21V20L5 17.5" stroke="black" stroke-width="2" stroke-linecap="square" fill="none"></path> </svg>