<svg xmlns="http://www.w3.org/2000/svg" xmlns:xlink="http://www.w3.org/1999/xlink" x="0px" y="0px" width="24px" height="24px" viewBox="0 0 24 24"> <path d="M22 16L16 16" stroke="#000" stroke-width="2" stroke-linecap="square" data-color="color-2" fill="none"></path> <path d="M8 22V18" stroke="#000" stroke-width="2" stroke-linecap="square" data-color="color-2" fill="none"></path> <path d="M13 6V5.57143L8 2.5L3 5.57143V6" stroke="black" stroke-width="2" stroke-linecap="square" fill="none"></path> <path d="M13 2V14H3V2" stroke="black" stroke-width="2" stroke-linecap="square" fill="none"></path> <path d="M12 14V22H4V14" stroke="black" stroke-width="2" data-cap="butt" fill="none"></path> <path d="M10 9C10 10.1046 9.10457 11 8 11C6.89543 11 6 10.1046 6 9C6 7.89543 6.89543 7 8 7C9.10457 7 10 7.89543 10 9Z" fill="#000" data-color="color-2" data-cap="butt" data-stroke="none"></path> <path d="M12 22H22V14" stroke="black" stroke-width="2" stroke-linecap="square" fill="none"></path> <path d="M18 22V14" stroke="black" stroke-width="2" stroke-linecap="square" fill="none"></path> </svg>