<svg xmlns="http://www.w3.org/2000/svg" xmlns:xlink="http://www.w3.org/1999/xlink" x="0px" y="0px" width="24px" height="24px" viewBox="0 0 24 24"> <path d="M7 21V19" stroke="#000" stroke-width="2" stroke-linecap="square" data-color="color-2" fill="none"></path> <path d="M7 13.5V15.5V15" stroke="#000" stroke-width="2" stroke-linecap="square" data-color="color-2" fill="none"></path> <path d="M7 7.5V9.5V9" stroke="#000" stroke-width="2" stroke-linecap="square" data-color="color-2" fill="none"></path> <path d="M17 14.5V15.7007V15.2007" stroke="#000" stroke-width="2" stroke-linecap="square" data-color="color-2" fill="none"></path> <path d="M12 21V19" stroke="#000" stroke-width="2" stroke-linecap="square" data-color="color-2" fill="none"></path> <path d="M17 21V19" stroke="#000" stroke-width="2" stroke-linecap="square" data-color="color-2" fill="none"></path> <path d="M12 13L12 15.2998V15.0343" stroke="#000" stroke-width="2" stroke-linecap="square" data-color="color-2" fill="none"></path> <path d="M3 11.5C5.60922 9.32566 8.78835 9.10487 12 9H13" stroke="black" stroke-width="2" data-cap="butt" fill="none"></path> <path d="M3 16.5V16.5C8.88852 14.8643 15.1115 14.8643 21 16.5V16.5" stroke="black" stroke-width="2" data-cap="butt" fill="none"></path> <path d="M3 6V21H21V15L17 9H13L8.99763 3.06165C5.84516 3.75126 4.01033 5.24129 3 6Z" stroke="black" stroke-width="2" stroke-linecap="square" fill="none"></path> </svg>