<svg xmlns="http://www.w3.org/2000/svg" xmlns:xlink="http://www.w3.org/1999/xlink" x="0px" y="0px" width="32px" height="32px" viewBox="0 0 32 32"> <path d="M12 7L12 4C12 3.44772 12.4477 3 13 3H19C19.5523 3 20 3.44772 20 4V7" stroke="#000" stroke-width="2" stroke-linecap="square" data-color="color-2" fill="none"></path> <path d="M12 14V22" stroke="black" stroke-width="2" stroke-linecap="square" fill="none"></path> <path d="M20 14V14.8944" stroke="black" stroke-width="2" stroke-linecap="square" fill="none"></path> <path d="M15.2899 29L9 29C7.34315 29 6 27.6569 6 26L6 10C6 8.34314 7.34315 7 9 7L23 7C24.6569 7 26 8.34315 26 10L26 14.9141" stroke="black" stroke-width="2" stroke-linecap="square" fill="none"></path> <path d="M22 28C24.7614 28 27 25.7614 27 23C27 20.2386 24.7614 18 22 18C19.2386 18 17 20.2386 17 23C17 25.7614 19.2386 28 22 28Z" stroke="#000" stroke-width="2" stroke-miterlimit="10" stroke-linecap="square" data-color="color-2" fill="none"></path> <path d="M28.5 29.5L25.5 26.5L26 27" stroke="#000" stroke-width="2" stroke-miterlimit="10" stroke-linecap="square" data-color="color-2" fill="none"></path> </svg>