<svg xmlns="http://www.w3.org/2000/svg" xmlns:xlink="http://www.w3.org/1999/xlink" x="0px" y="0px" width="32px" height="32px" viewBox="0 0 32 32"> <path d="M4 3V1" stroke="black" stroke-width="2" stroke-linecap="square" fill="none"></path> <path d="M8 3V1" stroke="black" stroke-width="2" stroke-linecap="square" fill="none"></path> <path d="M12 3V1" stroke="black" stroke-width="2" stroke-linecap="square" fill="none"></path> <path d="M8 8V12.8131V12.1786" stroke="#000" stroke-width="2" stroke-linecap="square" data-color="color-2" fill="none"></path> <path d="M18.5 12.5701L19 12.8701L13 9.27009L12.1289 3H3.88687L3.0951 9.85875L12.6282 15.5831" stroke="black" stroke-width="2" stroke-linecap="square" fill="none"></path> <path d="M8.03399 30V26" stroke="#000" stroke-width="2" stroke-linecap="square" data-color="color-2" fill="none"></path> <path d="M19 19.8333V20.5V11L24 8L29 11V21L14 30H11.3333" stroke="#000" stroke-width="2" stroke-linecap="square" data-color="color-2" fill="none"></path> <path d="M24 15V17.4701L12.5 24.3701L12.8154 24.1809" stroke="black" stroke-width="2" stroke-linecap="square" fill="none"></path> <path d="M3.90625 21H12.0918L13 30H3L3.90625 21Z" stroke="black" stroke-width="2" stroke-linecap="square" fill="none"></path> <path d="M4 21V19" stroke="black" stroke-width="2" stroke-linecap="square" fill="none"></path> <path d="M8 21V19" stroke="black" stroke-width="2" stroke-linecap="square" fill="none"></path> <path d="M12 21V19" stroke="black" stroke-width="2" stroke-linecap="square" fill="none"></path> </svg>