<svg xmlns="http://www.w3.org/2000/svg" xmlns:xlink="http://www.w3.org/1999/xlink" x="0px" y="0px" width="32px" height="32px" viewBox="0 0 32 32"> <path d="M16 7V2" stroke="#000" stroke-width="2" stroke-linecap="square" data-color="color-2" fill="none"></path> <path d="M19 6.66667V6.19258C19 4.91502 19.6111 3.73857 20.6051 3" stroke="#000" stroke-width="2" stroke-linecap="square" data-color="color-2" fill="none"></path> <path d="M13 6.66667V6.19258C13 4.91502 12.3889 3.73857 11.3949 3" stroke="#000" stroke-width="2" stroke-linecap="square" data-color="color-2" fill="none"></path> <path d="M14 29V20" stroke="black" stroke-width="2" stroke-linecap="square" fill="none"></path> <path d="M18 29V20" stroke="black" stroke-width="2" stroke-linecap="square" fill="none"></path> <path d="M10 29V20" stroke="black" stroke-width="2" stroke-linecap="square" fill="none"></path> <path d="M6 29V20" stroke="black" stroke-width="2" stroke-linecap="square" fill="none"></path> <path d="M22 29V20" stroke="black" stroke-width="2" stroke-linecap="square" fill="none"></path> <path d="M26 29V20" stroke="black" stroke-width="2" stroke-linecap="square" fill="none"></path> <path d="M7 11V7H25V11" stroke="black" stroke-width="2" stroke-linecap="square" fill="none"></path> <path d="M4 16V11H28V16" stroke="black" stroke-width="2" data-cap="butt" fill="none"></path> <path d="M29 29L3 29" stroke="#000" stroke-width="2" stroke-linecap="square" data-color="color-2" fill="none"></path> <path d="M29 16L3 16" stroke="#000" stroke-width="2" stroke-linecap="square" data-color="color-2" fill="none"></path> </svg>