<svg xmlns="http://www.w3.org/2000/svg" xmlns:xlink="http://www.w3.org/1999/xlink" x="0px" y="0px" width="32px" height="32px" viewBox="0 0 32 32"> <path d="M8 28V29.8C8 29.9105 8.08954 30 8.2 30H8.8C8.91046 30 9 29.9105 9 29.8V28" stroke="#000" stroke-width="2" stroke-linecap="square" data-color="color-2" fill="none"></path> <path d="M23 28V29.8C23 29.9105 23.0895 30 23.2 30H23.8C23.9105 30 24 29.9105 24 29.8V28" stroke="#000" stroke-width="2" stroke-linecap="square" data-color="color-2" fill="none"></path> <path d="M6 14H26" stroke="#000" stroke-width="2" stroke-linecap="square" data-color="color-2" fill="none"></path> <path d="M12 6V4C12 2.89543 12.8954 2 14 2H18C19.1046 2 20 2.89543 20 4V6" stroke="#000" stroke-width="2" stroke-linecap="square" data-color="color-2" fill="none"></path> <path d="M6 9C6 7.34315 7.34315 6 9 6H23C24.6569 6 26 7.34315 26 9V28H6V9Z" stroke="black" stroke-width="2" data-cap="butt" fill="none"></path> <path d="M19 19H13V23H19V19Z" stroke="black" stroke-width="2" stroke-linecap="square" fill="none"></path> </svg>