<svg xmlns="http://www.w3.org/2000/svg" xmlns:xlink="http://www.w3.org/1999/xlink" x="0px" y="0px" width="32px" height="32px" viewBox="0 0 32 32"> <path d="M15 18V19H17V18H15ZM16 15H15V18H16H17V15H16ZM16 15H15V15.6667H16H17V15H16Z" fill="#000" data-color="color-2" data-cap="butt" data-stroke="none"></path> <path d="M15 5V6H17V5H15ZM16 2H15V5H16H17V2H16ZM16 2H15V2.66667H16H17V2H16Z" fill="#000" data-color="color-2" data-cap="butt" data-stroke="none"></path> <path d="M10 20V19.4139C10 17.3697 9.21752 15.4031 7.81317 13.9178L6 12L9.76623 3.76923L11.9402 2.80347C14.525 1.65525 17.475 1.65525 20.0598 2.80347L22.2338 3.76923L26 12L24.1868 13.9178C22.7825 15.4031 22 17.3697 22 19.4139V20" stroke="black" stroke-width="2" stroke-miterlimit="10" stroke-linecap="square" fill="none"></path> <path d="M11 10V8H21V10C21 12.7614 18.7614 15 16 15C13.2386 15 11 12.7614 11 10Z" stroke="black" stroke-width="2" data-cap="butt" fill="none"></path> <path d="M10 28H22" stroke="black" stroke-width="2" data-cap="butt" fill="none"></path> <path d="M22.3803 17H24.2676C25.262 17 26.1053 17.7305 26.2472 18.7147L27.03 24.1466" stroke="black" stroke-width="2" data-cap="butt" fill="none"></path> <path d="M9.64327 17H7.73056C6.73702 17 5.89412 17.7293 5.75132 18.7126L4.96216 24.1466" stroke="black" stroke-width="2" data-cap="butt" fill="none"></path> <path d="M3 27V29H10V27C10 25.3431 8.65685 24 7 24H6C4.34315 24 3 25.3431 3 27Z" stroke="#000" stroke-width="2" data-color="color-2" data-cap="butt" fill="none"></path> <path d="M22 27V29H29V27C29 25.3431 27.6569 24 26 24H25C23.3431 24 22 25.3431 22 27Z" stroke="#000" stroke-width="2" data-color="color-2" data-cap="butt" fill="none"></path> <path d="M14 24H18" stroke="black" stroke-width="2" stroke-linecap="square" fill="none"></path> </svg>