<svg xmlns="http://www.w3.org/2000/svg" xmlns:xlink="http://www.w3.org/1999/xlink" x="0px" y="0px" width="32px" height="32px" viewBox="0 0 32 32"> <path d="M11 11L19 19V29" stroke="black" stroke-width="2" data-cap="butt" fill="none"></path> <path d="M25 6V15" stroke="#000" stroke-width="2" data-color="color-2" data-cap="butt" fill="none"></path> <path d="M8 29V24L11 21L14 24V29" stroke="#000" stroke-width="2" stroke-linecap="square" data-color="color-2" fill="none"></path> <path d="M11 11H21L29 19V29H3V19L11 11Z" stroke="black" stroke-width="2" data-cap="butt" fill="none"></path> <path d="M25 3V3C25 5.20914 23.2091 7 21 7V7" stroke="#000" stroke-width="2" stroke-linecap="square" data-color="color-2" fill="none"></path> <path d="M25 5V7C25 9.20914 26.7909 11 29 11V11" stroke="#000" stroke-width="2" stroke-linecap="square" data-color="color-2" fill="none"></path> <path d="M25 3V3C25 5.20914 26.7909 7 29 7V7" stroke="#000" stroke-width="2" stroke-linecap="square" data-color="color-2" fill="none"></path> <path d="M11 7C11 4.79086 9.20914 3 7 3C4.79086 3 3 4.79086 3 7C3 8.72852 4.09639 10.201 5.63167 10.7598" stroke="#000" stroke-width="2" stroke-linecap="square" data-color="color-2" fill="none"></path> </svg>