<svg xmlns="http://www.w3.org/2000/svg" xmlns:xlink="http://www.w3.org/1999/xlink" x="0px" y="0px" width="32px" height="32px" viewBox="0 0 32 32"> <path d="M5 29V1H27V29" stroke="#000" stroke-width="2" stroke-miterlimit="10" stroke-linecap="square" data-color="color-2" fill="none"></path> <path d="M16 10C14.6183 10 13.5 8.88167 13.5 7.5C13.5 6.11833 14.6183 5 16 5C17.3817 5 18.5 6.11833 18.5 7.5C18.5 8.88167 17.3817 10 16 10Z" stroke="black" stroke-width="2" stroke-miterlimit="10" stroke-linecap="square" fill="none"></path> <path d="M18.7688 31H13.23L12.2146 22L9.9989 20.875L10.9107 15.3175C11.0425 14.5154 11.5842 13.846 12.3376 13.5704C13.1585 13.27 14.7093 13 16 13C16.6426 13 18.2699 13.0675 19.6214 13.5557C20.387 13.8325 20.9542 14.5041 21.0871 15.3175L21.9989 20.875L19.7832 22L18.7688 31Z" stroke="black" stroke-width="2" stroke-miterlimit="10" stroke-linecap="square" fill="none"></path> </svg>