<svg xmlns="http://www.w3.org/2000/svg" xmlns:xlink="http://www.w3.org/1999/xlink" x="0px" y="0px" width="48px" height="48px" viewBox="0 0 48 48"> <path d="M13 29V29C13 22.9249 17.9249 18 24 18V18C30.0751 18 35 22.9249 35 29V29" stroke="black" stroke-width="2" data-cap="butt" fill="none"></path> <path d="M20 43L20 38C20 35.7909 21.7909 34 24 34V34C26.2091 34 28 35.7909 28 38V43" stroke="#000" stroke-width="2" data-color="color-2" data-cap="butt" fill="none"></path> <path d="M36 15H45" stroke="black" stroke-width="2" stroke-linecap="square" fill="none"></path> <path d="M3 15H12" stroke="black" stroke-width="2" stroke-linecap="square" fill="none"></path> <path d="M3 24L10 24" stroke="black" stroke-width="2" stroke-linecap="square" fill="none"></path> <path d="M38 24H45" stroke="black" stroke-width="2" stroke-linecap="square" fill="none"></path> <path d="M24 18V14" stroke="black" stroke-width="2" stroke-linecap="square" fill="none"></path> <path d="M33 36V34" stroke="#000" stroke-width="2" stroke-linecap="square" data-color="color-2" fill="none"></path> <path d="M15 36V34" stroke="#000" stroke-width="2" stroke-linecap="square" data-color="color-2" fill="none"></path> <path d="M10 43H38" stroke="black" stroke-width="2" data-cap="butt" fill="none"></path> <path d="M10 29H38" stroke="black" stroke-width="2" data-cap="butt" fill="none"></path> <path d="M38 43H43V9.94427C43 9.32329 42.8554 8.71084 42.5777 8.15542L40.5 4L38.4223 8.15542C38.1446 8.71084 38 9.32329 38 9.94427V43Z" stroke="black" stroke-width="2" data-cap="butt" fill="none"></path> <path d="M5 43H10V9.94427C10 9.32329 9.85542 8.71084 9.57771 8.15542L7.5 4L5.42229 8.15542C5.14458 8.71084 5 9.32329 5 9.94427V43Z" stroke="black" stroke-width="2" data-cap="butt" fill="none"></path> </svg>