<svg xmlns="http://www.w3.org/2000/svg" xmlns:xlink="http://www.w3.org/1999/xlink" x="0px" y="0px" width="48px" height="48px" viewBox="0 0 48 48"> <path d="M18 8V3H30V8" stroke="#000" stroke-width="2" stroke-linecap="square" data-color="color-2" fill="none"></path> <path d="M21 35V31H27V35" stroke="black" stroke-width="2" stroke-linecap="square" fill="none"></path> <path d="M18 40V35" stroke="black" stroke-width="2" stroke-linecap="square" fill="none"></path> <path d="M30 40V35" stroke="black" stroke-width="2" stroke-linecap="square" fill="none"></path> <path d="M12 13V30C12 32.7614 14.2386 35 17 35H31C33.7614 35 36 32.7614 36 30V13" stroke="black" stroke-width="2" stroke-linecap="square" fill="none"></path> <path d="M10 8H38" stroke="#000" stroke-width="2" stroke-linecap="square" data-color="color-2" fill="none"></path> <path d="M14 45V43C14 41.3431 15.3431 40 17 40H31C32.6569 40 34 41.3431 34 43V45H14Z" stroke="black" stroke-width="2" stroke-miterlimit="10" stroke-linecap="square" fill="none"></path> <path d="M18 21.4372C18 20.54 18.75 16.5854 18.75 16.5854L20.4375 17.439L24 13C24 13 30 17.439 30 21.4372C30 24.9837 26.9247 27 24 27C21.0753 27 18 24.9837 18 21.4372Z" stroke="#000" stroke-width="2" stroke-miterlimit="10" stroke-linecap="square" data-color="color-2" fill="none"></path> </svg>