<svg xmlns="http://www.w3.org/2000/svg" xmlns:xlink="http://www.w3.org/1999/xlink" x="0px" y="0px" width="48px" height="48px" viewBox="0 0 48 48"> <path d="M33 30C29.729 24.7588 27 18.8911 27 13.8986V12" stroke="black" stroke-width="2" data-cap="butt" fill="none"></path> <path d="M21 12V13.8947C21 18.8571 18.2651 24.7412 15 30" stroke="black" stroke-width="2" data-cap="butt" fill="none"></path> <path d="M12.9952 34C10.6634 37.3304 7.73085 39.9604 5 43L5 44H16L16.5448 41.8209C17.4 38.3999 20.4738 36 24 36V36C27.5262 36 30.6 38.3999 31.4552 41.8209L32 44H43C43 44 43 44 43 43.5C40.4481 40.633 37.1674 37.1281 34.9744 34" stroke="black" stroke-width="2" stroke-linecap="square" fill="none"></path> <path d="M24 6V3" stroke="black" stroke-width="2" stroke-linecap="square" fill="none"></path> <path d="M17 20H31" stroke="#000" stroke-width="2" stroke-linecap="square" data-color="color-2" fill="none"></path> <path d="M29 6H19V12H29V6Z" stroke="black" stroke-width="2" stroke-linecap="square" fill="none"></path> <path d="M24 30V26" stroke="black" stroke-width="2" stroke-linecap="square" fill="none"></path> <path d="M12 30H36" stroke="#000" stroke-width="2" stroke-linecap="square" data-color="color-2" fill="none"></path> </svg>