<svg xmlns="http://www.w3.org/2000/svg" xmlns:xlink="http://www.w3.org/1999/xlink" x="0px" y="0px" width="48px" height="48px" viewBox="0 0 48 48"> <path d="M24 8V14V13.5" stroke="#000" stroke-width="2" stroke-linecap="square" data-color="color-2" fill="none"></path> <path d="M24 42L31.5 34.5" stroke="black" stroke-width="2" data-cap="butt" fill="none"></path> <path d="M24 45V42L16.5 34.5L16.6851 34.6851" stroke="black" stroke-width="2" stroke-linecap="square" fill="none"></path> <path d="M14 14H24.25H34" stroke="#000" stroke-width="2" data-color="color-2" data-cap="butt" fill="none"></path> <path d="M32 40.9556L33.6036 40.6634C34.1963 40.5553 34.8037 40.5553 35.3964 40.6634L37 40.9556V42.8585C37 43.558 36.6346 44.2066 36.0364 44.569L34.5 45.5L32.9636 44.569C32.3654 44.2066 32 43.558 32 42.8585V40.9556Z" stroke="#000" stroke-width="2" data-color="color-2" data-cap="butt" fill="none"></path> <path d="M34 16.5406V17.5217C33.5065 22.2966 33.5637 25.724 29 28.5214V31.7944C29 33.1066 29.8527 34.2665 31.1052 34.6579L40.0879 37.465C43.0103 38.3782 45 41.0846 45 44.1463V45" stroke="black" stroke-width="2" stroke-linecap="square" fill="none"></path> <path d="M14 16.5857V17.4979C14.4938 22.2714 14.438 25.725 19 28.5214V31.7944C19 33.1066 18.1473 34.2665 16.8948 34.6579L7.91207 37.465C4.98975 38.3782 3 41.0846 3 44.1463V45" stroke="black" stroke-width="2" stroke-linecap="square" fill="none"></path> <path d="M34 16.8676V14L36.8715 10.6216C37.6185 9.7428 37.4693 8.41597 36.5458 7.72499L30.2307 3H17.7692L11.454 7.72496C10.5305 8.41595 10.3813 9.74282 11.1283 10.6217L14 14V16.8676L16.1475 17.6477C21.2203 19.4903 26.7796 19.4903 31.8524 17.6477L34 16.8676Z" stroke="#000" stroke-width="2" stroke-miterlimit="10" stroke-linecap="square" data-color="color-2" fill="none"></path> </svg>