<svg xmlns="http://www.w3.org/2000/svg" xmlns:xlink="http://www.w3.org/1999/xlink" x="0px" y="0px" width="48px" height="48px" viewBox="0 0 48 48"> <path d="M9.5 19.8603V15.5C9.5 14.1193 10.6193 13 12 13V13C13.3807 13 14.5 14.1193 14.5 15.5V21.6139" stroke="#000" stroke-width="2" data-color="color-2" data-cap="butt" fill="none"></path> <path d="M6 6V4" stroke="black" stroke-width="2" stroke-linecap="square" fill="none"></path> <path d="M18 6V4" stroke="black" stroke-width="2" stroke-linecap="square" fill="none"></path> <path d="M12 6V4" stroke="black" stroke-width="2" stroke-linecap="square" fill="none"></path> <path d="M29.9814 19.3335L19.2499 15.25L17.9999 9V6H5.99995V9L4.37048 18.0788L28.6864 26.7609" stroke="black" stroke-width="2" data-cap="butt" fill="none"></path> <path d="M36 15.5222V9H40V10.5L36.0915 11.0953" stroke="#000" stroke-width="2" data-color="color-2" data-cap="butt" fill="none"></path> <path d="M27.5 32L30 21V17L36 15.5L42 17V21L44 32.5L24 44H19.7666" stroke="black" stroke-width="2" data-cap="butt" fill="none"></path> <path d="M19.5 41.6069L38.5 30.6069V25.5C38.5 24.1193 37.3807 23 36 23C34.6193 23 33.5 24.1193 33.5 25.5V28.5L18.7239 36.9975" stroke="#000" stroke-width="2" data-color="color-2" data-cap="butt" fill="none"></path> <path d="M6 30V28" stroke="black" stroke-width="2" stroke-linecap="square" fill="none"></path> <path d="M18 30V28" stroke="black" stroke-width="2" stroke-linecap="square" fill="none"></path> <path d="M12 30V28" stroke="black" stroke-width="2" stroke-linecap="square" fill="none"></path> <path d="M9.5 44L9.5 38.5C9.5 37.1193 10.6193 36 12 36V36C13.3807 36 14.5 37.1193 14.5 38.5V44" stroke="black" stroke-width="2" stroke-linecap="square" fill="none"></path> <path d="M20 44H4L6 33V30H18V33L20 44Z" stroke="black" stroke-width="2" stroke-linecap="square" fill="none"></path> </svg>