<svg xmlns="http://www.w3.org/2000/svg" xmlns:xlink="http://www.w3.org/1999/xlink" x="0px" y="0px" width="48px" height="48px" viewBox="0 0 48 48"> <path d="M25 37.5L28.5334 20.2748C29.1632 17.2042 31.8655 15 35 15C38.1345 15 40.8368 17.2042 41.4666 20.2748L45 37.5L40.5 39L39.5 46L30.5 46L29.5 39L25 37.5Z" stroke="#000" stroke-width="2" stroke-miterlimit="10" stroke-linecap="square" data-color="color-2" fill="none"></path> <path d="M35 11C37.4853 11 39.5 8.98528 39.5 6.5C39.5 4.01472 37.4853 2 35 2C32.5147 2 30.5 4.01472 30.5 6.5C30.5 8.98528 32.5147 11 35 11Z" stroke="#000" stroke-width="2" stroke-miterlimit="10" stroke-linecap="square" data-color="color-2" fill="none"></path> <path d="M17.5 46L8.5 46L6.5 31.569L3 29.5L4.51961 18.9913C4.73933 17.6098 5.64223 16.457 6.8978 15.9823C8.266 15.465 10.8508 15 13.0018 15C14.0728 15 16.7849 15.1163 19.0376 15.9571C20.3134 16.4337 21.2588 17.5904 21.4804 18.9913L23 29.5L19.5 31.569L17.5 46Z" stroke="black" stroke-width="2" stroke-miterlimit="10" stroke-linecap="square" fill="none"></path> <path d="M13 11C15.4853 11 17.5 8.98528 17.5 6.5C17.5 4.01472 15.4853 2 13 2C10.5147 2 8.5 4.01472 8.5 6.5C8.5 8.98528 10.5147 11 13 11Z" stroke="black" stroke-width="2" stroke-miterlimit="10" stroke-linecap="square" fill="none"></path> </svg>