<svg xmlns="http://www.w3.org/2000/svg" xmlns:xlink="http://www.w3.org/1999/xlink" x="0px" y="0px" width="48px" height="48px" viewBox="0 0 48 48"> <path d="M21 28L21 27" stroke="#000" stroke-width="2" stroke-miterlimit="10" stroke-linecap="square" data-color="color-2" fill="none"></path> <path d="M27 28L27 27" stroke="#000" stroke-width="2" stroke-miterlimit="10" stroke-linecap="square" data-color="color-2" fill="none"></path> <path d="M21 34L21 33" stroke="#000" stroke-width="2" stroke-miterlimit="10" stroke-linecap="square" data-color="color-2" fill="none"></path> <path d="M27 34L27 33" stroke="#000" stroke-width="2" stroke-miterlimit="10" stroke-linecap="square" data-color="color-2" fill="none"></path> <path d="M21 40L21 39" stroke="#000" stroke-width="2" stroke-miterlimit="10" stroke-linecap="square" data-color="color-2" fill="none"></path> <path d="M27 40L27 39" stroke="#000" stroke-width="2" stroke-miterlimit="10" stroke-linecap="square" data-color="color-2" fill="none"></path> <path d="M24 2V5V4" stroke="black" stroke-width="2" stroke-linecap="square" fill="none"></path> <path d="M16 13.6471V13C16 8.58172 19.5817 5 24 5V5C28.4183 5 32 8.58172 32 13V13.6471" stroke="black" stroke-width="2" data-cap="butt" fill="none"></path> <path d="M37 45V23.8691C37 16.638 31.0992 10.7966 23.8685 10.8698V10.8698C16.7404 10.9419 11 16.7407 11 23.8691V45" stroke="black" stroke-width="2" data-cap="butt" fill="none"></path> <path d="M42 38L32 35V24C32 19.5817 28.4183 16 24 16C19.5817 16 16 19.5817 16 24V35L6 38V45H11H42V38Z" stroke="black" stroke-width="2" data-cap="butt" fill="none"></path> <path d="M24 16V11" stroke="black" stroke-width="2" data-cap="butt" fill="none"></path> <path d="M30.5 19L34 15.5" stroke="black" stroke-width="2" data-cap="butt" fill="none"></path> <path d="M17.5 19L14 15.5" stroke="black" stroke-width="2" data-cap="butt" fill="none"></path> </svg>