<svg xmlns="http://www.w3.org/2000/svg" xmlns:xlink="http://www.w3.org/1999/xlink" x="0px" y="0px" width="18px" height="18px" viewBox="0 0 18 18"><path d="m16.005,5.995c-1.66-1.66-4.351-1.66-6.01,0-1.66,1.66-1.66,4.351,0,6.01s4.351,1.66,6.01,0,1.66-4.351,0-6.01Zm-3.294,4.997l-1.703-1.703,1.059-2.112,2.38.377.376,2.379-2.112,1.059Z" fill="#000" opacity=".3" stroke-width="0" data-color="color-2"></path><polyline points="15.301 5.426 15.378 6.622 16.574 6.699" fill="none" stroke="#000" stroke-linecap="round" stroke-linejoin="round" stroke-width="1.5"></polyline><polyline points="10.311 5.708 11.473 6.004 11.916 4.89" fill="none" stroke="#000" stroke-linecap="round" stroke-linejoin="round" stroke-width="1.5"></polyline><polyline points="9.038 10.539 9.679 9.526 8.756 8.76" fill="none" stroke="#000" stroke-linecap="round" stroke-linejoin="round" stroke-width="1.5"></polyline><polyline points="13.24 13.244 12.474 12.321 11.461 12.962" fill="none" stroke="#000" stroke-linecap="round" stroke-linejoin="round" stroke-width="1.5"></polyline><polyline points="17.11 10.083 15.996 10.527 16.292 11.688" fill="none" stroke="#000" stroke-linecap="round" stroke-linejoin="round" stroke-width="1.5"></polyline><polygon points="14.447 7.553 12.067 7.177 11.008 9.288 12.712 10.991 14.823 9.933 14.447 7.553" fill="none" stroke="#000" stroke-linecap="round" stroke-linejoin="round" stroke-width="1.5"></polygon><line x1="15.378" y1="6.622" x2="14.447" y2="7.553" fill="none" stroke="#000" stroke-linecap="round" stroke-linejoin="round" stroke-width="1.5"></line><line x1="11.473" y1="6.004" x2="12.067" y2="7.177" fill="none" stroke="#000" stroke-linecap="round" stroke-linejoin="round" stroke-width="1.5"></line><line x1="14.823" y1="9.933" x2="15.996" y2="10.527" fill="none" stroke="#000" stroke-linecap="round" stroke-linejoin="round" stroke-width="1.5"></line><line x1="9.679" y1="9.526" x2="11.008" y2="9.288" fill="none" stroke="#000" stroke-linecap="round" stroke-linejoin="round" stroke-width="1.5"></line><line x1="12.712" y1="10.991" x2="12.474" y2="12.321" fill="none" stroke="#000" stroke-linecap="round" stroke-linejoin="round" stroke-width="1.5"></line><circle cx="13" cy="9" r="4.25" fill="none" stroke="#000" stroke-linecap="round" stroke-linejoin="round" stroke-width="1.5"></circle><path d="m17.744,1.491l-.946-.315-.316-.947c-.102-.306-.609-.306-.711,0l-.316.947-.946.315c-.153.051-.257.194-.257.356s.104.305.257.356l.946.315.316.947c.051.153.194.256.355.256s.305-.104.355-.256l.316-.947.946-.315c.153-.051.257-.194.257-.356s-.104-.305-.257-.356h.001Z" stroke-width="0" fill="#000"></path><circle cx="15.25" cy="15.75" r=".75" stroke-width="0" fill="#000"></circle><line x1="1.75" y1="1.75" x2="9" y2="3.611" fill="none" stroke="#000" stroke-linecap="round" stroke-linejoin="round" stroke-width="1.5"></line><line x1="1.75" y1="16.25" x2="9" y2="14.389" fill="none" stroke="#000" stroke-linecap="round" stroke-linejoin="round" stroke-width="1.5"></line><line x1=".75" y1="9" x2="6.25" y2="9" fill="none" stroke="#000" stroke-linecap="round" stroke-linejoin="round" stroke-width="1.5"></line><path d="m5.407,11.5c-.427,1.47-1.229,2.942-2.407,4.413" fill="none" stroke="#000" stroke-linecap="round" stroke-linejoin="round" stroke-width="1.5"></path><path d="m3,2.087c1.848,2.301,2.771,4.604,2.771,6.908" fill="none" stroke="#000" stroke-linecap="round" stroke-linejoin="round" stroke-width="1.5"></path></svg>