<svg xmlns="http://www.w3.org/2000/svg" xmlns:xlink="http://www.w3.org/1999/xlink" x="0px" y="0px" width="18px" height="18px" viewBox="0 0 18 18"><path d="M13.5 2.75C12.534 2.75 11.75 3.534 11.75 4.5V11.25C11.75 11.802 11.302 12.25 10.75 12.25H3.75C3.198 12.25 2.75 11.802 2.75 11.25V4.5C2.75 3.534 3.534 2.75 4.5 2.75H13.5Z" fill="#000" fill-opacity="0.3" data-color="color-2" data-stroke="none"></path> <path d="M4.75 14.75C4.75 15.302 5.198 15.75 5.75 15.75H14.25C14.802 15.75 15.25 15.302 15.25 14.75V4.5C15.25 3.534 14.466 2.75 13.5 2.75" stroke="black" stroke-width="1.5" stroke-linecap="round" stroke-linejoin="round" fill="none"></path> <path d="M13.5 2.75C12.534 2.75 11.75 3.534 11.75 4.5V11.25C11.75 11.802 11.302 12.25 10.75 12.25H3.75C3.198 12.25 2.75 11.802 2.75 11.25V4.5C2.75 3.534 3.534 2.75 4.5 2.75H13.5Z" stroke="black" stroke-width="1.5" stroke-linecap="round" stroke-linejoin="round" fill="none"></path></svg>