<svg xmlns="http://www.w3.org/2000/svg" xmlns:xlink="http://www.w3.org/1999/xlink" x="0px" y="0px" width="18px" height="18px" viewBox="0 0 18 18"><path d="M14.25 4.75H3.75C2.64543 4.75 1.75 5.64543 1.75 6.75V13.25C1.75 14.3546 2.64543 15.25 3.75 15.25H14.25C15.3546 15.25 16.25 14.3546 16.25 13.25V6.75C16.25 5.64543 15.3546 4.75 14.25 4.75Z" fill="#000" fill-opacity="0.3" data-color="color-2" data-stroke="none"></path> <path d="M14.25 4.75H3.75C2.64543 4.75 1.75 5.64543 1.75 6.75V13.25C1.75 14.3546 2.64543 15.25 3.75 15.25H14.25C15.3546 15.25 16.25 14.3546 16.25 13.25V6.75C16.25 5.64543 15.3546 4.75 14.25 4.75Z" stroke="black" stroke-width="1.5" stroke-linecap="round" stroke-linejoin="round" fill="none"></path> <path d="M6.25 4.75V2.25C6.25 1.698 6.698 1.25 7.25 1.25H10.75C11.302 1.25 11.75 1.698 11.75 2.25V4.75" stroke="black" stroke-width="1.5" stroke-linecap="round" stroke-linejoin="round" fill="none"></path> <path d="M9 12.25V7.75" stroke="black" stroke-width="1.5" stroke-linecap="round" stroke-linejoin="round" fill="none"></path> <path d="M11.25 10H6.75" stroke="black" stroke-width="1.5" stroke-linecap="round" stroke-linejoin="round" fill="none"></path></svg>