<svg xmlns="http://www.w3.org/2000/svg" xmlns:xlink="http://www.w3.org/1999/xlink" x="0px" y="0px" width="18px" height="18px" viewBox="0 0 18 18"><path d="M14.25,1.5H3.75c-1.517,0-2.75,1.233-2.75,2.75v7c0,1.517,1.233,2.75,2.75,2.75h1.25v2.25c0,.288,.165,.551,.425,.676,.104,.05,.215,.074,.325,.074,.167,0,.333-.056,.469-.165l3.544-2.835h4.487c1.517,0,2.75-1.233,2.75-2.75V4.25c0-1.517-1.233-2.75-2.75-2.75Zm-4.5,8.5H4.75c-.414,0-.75-.336-.75-.75s.336-.75,.75-.75h5c.414,0,.75,.336,.75,.75s-.336,.75-.75,.75Zm3.5,0h-1c-.414,0-.75-.336-.75-.75s.336-.75,.75-.75h1c.414,0,.75,.336,.75,.75s-.336,.75-.75,.75Z" fill="#000"></path></svg>