<svg xmlns="http://www.w3.org/2000/svg" xmlns:xlink="http://www.w3.org/1999/xlink" x="0px" y="0px" width="18px" height="18px" viewBox="0 0 18 18"><line x1="5.25" y1="9.896" x2="5.25" y2="5.5" fill="none" stroke="#000" stroke-linecap="round" stroke-linejoin="round" stroke-width="1.5"></line><polyline points="8.83 3.83 5.25 5.5 1.67 3.829" fill="none" stroke="#000" stroke-linecap="round" stroke-linejoin="round" stroke-width="1.5"></polyline><path d="M9,4.387v3.226c0,.389-.225,.742-.577,.906l-2.75,1.283c-.268,.125-.578,.125-.846,0l-2.75-1.283c-.352-.164-.577-.518-.577-.906v-3.226c0-.389,.225-.742,.577-.906l2.75-1.283c.268-.125,.578-.125,.846,0l2.75,1.283c.352,.164,.577,.518,.577,.906Z" fill="none" stroke="#000" stroke-linecap="round" stroke-linejoin="round" stroke-width="1.5"></path><line x1="12.75" y1="9.896" x2="12.75" y2="5.5" fill="none" stroke="#000" stroke-linecap="round" stroke-linejoin="round" stroke-width="1.5"></line><polyline points="9.17 3.83 12.75 5.5 16.33 3.829" fill="none" stroke="#000" stroke-linecap="round" stroke-linejoin="round" stroke-width="1.5"></polyline><path d="M9,4.387v3.226c0,.389,.225,.742,.577,.906l2.75,1.283c.268,.125,.578,.125,.846,0l2.75-1.283c.352-.164,.577-.518,.577-.906v-3.226c0-.389-.225-.742-.577-.906l-2.75-1.283c-.268-.125-.578-.125-.846,0l-2.75,1.283c-.352,.164-.577,.518-.577,.906Z" fill="none" stroke="#000" stroke-linecap="round" stroke-linejoin="round" stroke-width="1.5"></path><line x1="9" y1="16.146" x2="9" y2="11.75" fill="none" stroke="#000" stroke-linecap="round" stroke-linejoin="round" stroke-width="1.5" data-color="color-2"></line><polyline points="12.58 10.08 9 11.75 5.42 10.079" fill="none" stroke="#000" stroke-linecap="round" stroke-linejoin="round" stroke-width="1.5" data-color="color-2"></polyline><path d="M12.75,10.637v3.226c0,.389-.225,.742-.577,.906l-2.75,1.283c-.268,.125-.578,.125-.846,0l-2.75-1.283c-.352-.164-.577-.518-.577-.906v-3.226c0-.389,.225-.742,.577-.906l2.75-1.283c.268-.125,.578-.125,.846,0l2.75,1.283c.352,.164,.577,.518,.577,.906Z" fill="none" stroke="#000" stroke-linecap="round" stroke-linejoin="round" stroke-width="1.5" data-color="color-2"></path></svg>