<svg xmlns="http://www.w3.org/2000/svg" xmlns:xlink="http://www.w3.org/1999/xlink" x="0px" y="0px" width="18px" height="18px" viewBox="0 0 18 18"><path d="M10.194,6.846l-4.273,5.812c-.486,.66-.014,1.592,.806,1.592H15.273c.82,0,1.291-.932,.806-1.592l-4.273-5.812c-.4-.543-1.212-.543-1.611,0Z" fill="none" stroke="#000" stroke-linecap="round" stroke-linejoin="round" stroke-width="1.5"></path><path d="M7.731,10.195l-2.128-2.879c-.3-.406-.906-.406-1.206,0l-2.763,3.738c-.366,.495-.012,1.196,.603,1.196h3.984" fill="none" stroke="#000" stroke-linecap="round" stroke-linejoin="round" stroke-width="1.5"></path><path d="M9.908,3.008l-1.263-.421-.421-1.263c-.137-.408-.812-.408-.949,0l-.421,1.263-1.263,.421c-.204,.068-.342,.259-.342,.474s.138,.406,.342,.474l1.263,.421,.421,1.263c.068,.204,.26,.342,.475,.342s.406-.138,.475-.342l.421-1.263,1.263-.421c.204-.068,.342-.259,.342-.474s-.138-.406-.342-.474Z" fill="#000" data-color="color-2" data-stroke="none"></path></svg>