<svg xmlns="http://www.w3.org/2000/svg" xmlns:xlink="http://www.w3.org/1999/xlink" x="0px" y="0px" width="18px" height="18px" viewBox="0 0 18 18"><polyline points="1.75 12.75 1.75 16.25 5.25 16.25" fill="none" stroke="#000" stroke-linecap="round" stroke-linejoin="round" stroke-width="1.5"></polyline><line x1="1.75" y1="16.25" x2="7.25" y2="10.75" fill="none" stroke="#000" stroke-linecap="round" stroke-linejoin="round" stroke-width="1.5"></line><path d="M7.25,2.5c.414,0,.75-.336,.75-.75s-.336-.75-.75-.75-.75,.336-.75,.75,.336,.75,.75,.75Z" fill="#000" data-color="color-2" data-stroke="none"></path><path d="M7.25,5.5c.414,0,.75-.336,.75-.75s-.336-.75-.75-.75-.75,.336-.75,.75,.336,.75,.75,.75Z" fill="#000" data-color="color-2" data-stroke="none"></path><path d="M7.25,8.5c.414,0,.75-.336,.75-.75s-.336-.75-.75-.75-.75,.336-.75,.75,.336,.75,.75,.75Z" fill="#000" data-color="color-2" data-stroke="none"></path><circle cx="16.25" cy="10.75" r=".75" fill="#000" data-color="color-2" data-stroke="none"></circle><circle cx="13.25" cy="10.75" r=".75" fill="#000" data-color="color-2" data-stroke="none"></circle><circle cx="10.25" cy="10.75" r=".75" fill="#000" data-color="color-2" data-stroke="none"></circle></svg>