<svg xmlns="http://www.w3.org/2000/svg" xmlns:xlink="http://www.w3.org/1999/xlink" x="0px" y="0px" width="18px" height="18px" viewBox="0 0 18 18"><polygon points="9 5.23 9 9 5.75 10.885 9 12.77 12.25 10.885 12.25 7.115 9 5.23" fill="#000" stroke-width="0" data-color="color-2"></polygon><line x1="5.75" y1="7.115" x2="3.017" y2="5.53" fill="none" stroke="#000" stroke-linecap="round" stroke-linejoin="round" stroke-width="1.5"></line><line x1="14.983" y1="5.53" x2="12.25" y2="7.115" fill="none" stroke="#000" stroke-linecap="round" stroke-linejoin="round" stroke-width="1.5"></line><line x1="9" y1="15.938" x2="9" y2="12.77" fill="none" stroke="#000" stroke-linecap="round" stroke-linejoin="round" stroke-width="1.5"></line><path d="m7.997,2.332l-4.25,2.465c-.617.358-.997,1.017-.997,1.73v4.946c0,.713.38,1.372.997,1.73l4.25,2.465c.621.36,1.386.36,2.007,0l4.25-2.465c.617-.358.997-1.017.997-1.73v-4.946c0-.713-.38-1.372-.997-1.73l-4.25-2.465c-.621-.36-1.386-.36-2.007,0Z" fill="none" stroke="#000" stroke-linecap="round" stroke-linejoin="round" stroke-width="1.5"></path><polygon points="9 5.23 5.75 7.115 5.75 10.885 9 12.77 12.25 10.885 12.25 7.115 9 5.23" fill="none" stroke="#000" stroke-linecap="round" stroke-linejoin="round" stroke-width="1.5"></polygon></svg>