<svg xmlns="http://www.w3.org/2000/svg" xmlns:xlink="http://www.w3.org/1999/xlink" x="0px" y="0px" width="48px" height="48px" viewBox="0 0 48 48"> <path d="M15 13C17.2091 13 19 11.2091 19 9C19 6.79086 17.2091 5 15 5C12.7909 5 11 6.79086 11 9C11 11.2091 12.7909 13 15 13Z" stroke="#000" stroke-width="2" stroke-miterlimit="10" stroke-linecap="square" data-color="color-2" fill="none"></path> <path d="M14.0681 43H7.5C5.01472 43 3 40.9853 3 38.5C3.00001 36.0147 5.01473 34 7.50001 34H12.2667L31.2122 17.0319C31.7624 16.5391 32.4751 16.2667 33.2137 16.2667H40.6667C43.0599 16.2667 45 18.2068 45 20.6C45 22.9932 43.0599 24.9333 40.6667 24.9333H35.7333L16.0498 42.2523C15.5021 42.7342 14.7976 43 14.0681 43Z" stroke="black" stroke-width="2" stroke-linecap="square" fill="none"></path> <path d="M17.0002 24.9996L20.5001 26.4998L20.1247 26.3389" stroke="black" stroke-width="2" stroke-linecap="square" fill="none"></path> <path d="M10 33.1905V34V21C10 18.7909 11.7909 17 14 17H14.6529C15.5987 17 16.5139 17.3351 17.236 17.9459L24 23.6667L23.5 23.2438" stroke="black" stroke-width="2" stroke-miterlimit="10" stroke-linecap="square" fill="none"></path> <path d="M34 34.2L34 43L42.8 43" stroke="#000" stroke-width="2" stroke-miterlimit="10" stroke-linecap="square" data-color="color-2" fill="none"></path> <path d="M43 33.9998L34.033 42.9671L35 42" stroke="#000" stroke-width="2" stroke-miterlimit="10" stroke-linecap="square" data-color="color-2" fill="none"></path> </svg>