<svg xmlns="http://www.w3.org/2000/svg" xmlns:xlink="http://www.w3.org/1999/xlink" x="0px" y="0px" width="18px" height="18px" viewBox="0 0 18 18"><path d="m5.3824,4.0205c-.9364-.4922-2.0022-.7705-3.1324-.7705v3.5c0,2.208,1.792,4,4,4h0c-1.45,0-2.5,1.175-2.5,2.625s1.175,2.625,2.625,2.625,2.625-1.175,2.625-2.625v-.375" fill="none" stroke="#000" stroke-linecap="round" stroke-linejoin="round" stroke-width="1.5"></path><path d="m12.6176,4.0205c.9364-.4922,2.0022-.7705,3.1324-.7705v3.5c0,2.208-1.792,4-4,4h0c1.45,0,2.5,1.175,2.5,2.625s-1.175,2.625-2.625,2.625-2.625-1.175-2.625-2.625v-.375" fill="none" stroke="#000" stroke-linecap="round" stroke-linejoin="round" stroke-width="1.5"></path><circle cx="5.5" cy="7" r="1" fill="#000" stroke-width="0" data-color="color-2"></circle><circle cx="12.5" cy="7" r="1" fill="#000" stroke-width="0" data-color="color-2"></circle><path d="m9,13V5c0-1.875-2-3-2-3" fill="none" stroke="#000" stroke-linecap="round" stroke-linejoin="round" stroke-width="1.5" data-color="color-2"></path><path d="m9,5c0-1.875-2-3-2-3" fill="none" stroke="#000" stroke-linecap="round" stroke-linejoin="round" stroke-width="1.5" data-color="color-2"></path><path d="m9,5c0-1.875,2-3,2-3" fill="none" stroke="#000" stroke-linecap="round" stroke-linejoin="round" stroke-width="1.5" data-color="color-2"></path></svg>