<svg xmlns="http://www.w3.org/2000/svg" xmlns:xlink="http://www.w3.org/1999/xlink" x="0px" y="0px" width="18px" height="18px" viewBox="0 0 18 18"><path d="m10.75,6.75c.3103,1.3474,1.4227,2.2378,3.2,2.75" fill="none" stroke="#000" stroke-linecap="round" stroke-linejoin="round" stroke-width="1.5"></path><path d="m6.7733,11.2268c-.2671-.1407-.5255-.2998-.7733-.4768h0s-.5357,1.7857-.5357,1.7857" fill="none" stroke="#000" stroke-linecap="round" stroke-linejoin="round" stroke-width="1.5"></path><line x1="10.25" y1="15.75" x2="10.25" y2="12" fill="none" stroke="#000" stroke-linecap="round" stroke-linejoin="round" stroke-width="1.5"></line><path d="m17.206,5.0362l-.1951,1.2679c-.1501.9757-.9896,1.6959-1.9767,1.6959h-.7842l-1,5v2.75" fill="none" stroke="#000" stroke-linecap="round" stroke-linejoin="round" stroke-width="1.5"></path><path d="m2.25,15.75v-7c0-1.1046.8954-2,2-2h6.5l1.5-5,1.5,2.25.2059.0441" fill="none" stroke="#000" stroke-linecap="round" stroke-linejoin="round" stroke-width="1.5"></path><path d="m1.25,4.75h0c0,1.1046.8954,2,2,2h.75" fill="none" stroke="#000" stroke-linecap="round" stroke-linejoin="round" stroke-width="1.5"></path><path d="m8.75,4.25c-1.6569,0-3-1.3431-3-3" fill="none" stroke="#000" stroke-linecap="round" stroke-linejoin="round" stroke-width="1.5"></path><line x1="2" y1="16" x2="16" y2="2" fill="none" stroke="#000" stroke-linecap="round" stroke-linejoin="round" stroke-width="1.5" data-color="color-2"></line></svg>