<svg xmlns="http://www.w3.org/2000/svg" xmlns:xlink="http://www.w3.org/1999/xlink" x="0px" y="0px" width="18px" height="18px" viewBox="0 0 18 18"><path d="M2.533,3.576l3.432-.763c.186-.041,.38-.029,.559,.036l4.952,1.801c.179,.065,.373,.078,.559,.036l2.998-.666c.625-.139,1.217,.336,1.217,.976V13.448c0,.469-.326,.875-.783,.976l-3.432,.763c-.186,.041-.38,.029-.559-.036l-4.952-1.801c-.179-.065-.373-.078-.559-.036l-2.998,.666c-.625,.139-1.217-.336-1.217-.976V4.552c0-.469,.326-.875,.783-.976Z" fill="none" stroke="#000" stroke-linecap="round" stroke-linejoin="round" stroke-width="1.5"></path><line x1="10.75" y1="7.75" x2="13.75" y2="10.75" fill="none" stroke="#000" stroke-linecap="round" stroke-linejoin="round" stroke-width="1.5" data-color="color-2"></line><line x1="13.75" y1="7.75" x2="10.75" y2="10.75" fill="none" stroke="#000" stroke-linecap="round" stroke-linejoin="round" stroke-width="1.5" data-color="color-2"></line><line x1="7.75" y1="9.25" x2="8.75" y2="9.25" fill="none" stroke="#000" stroke-linecap="round" stroke-linejoin="round" stroke-width="1.5" data-color="color-2"></line><line x1="4.25" y1="9.25" x2="5.25" y2="9.25" fill="none" stroke="#000" stroke-linecap="round" stroke-linejoin="round" stroke-width="1.5" data-color="color-2"></line></svg>