<svg xmlns="http://www.w3.org/2000/svg" xmlns:xlink="http://www.w3.org/1999/xlink" x="0px" y="0px" width="18px" height="18px" viewBox="0 0 18 18"><path fill-rule="evenodd" clip-rule="evenodd" d="M10.2431 7.76821L7.76821 10.2431C7.4482 9.92593 7.25 9.48611 7.25 9C7.25 8.0335 8.0335 7.25 9 7.25C9.48611 7.25 9.92593 7.4482 10.2431 7.76821Z" fill="#000" fill-opacity="0.3" data-color="color-2" data-stroke="none"></path> <path d="M7.763 10.237C7.446 9.92 7.25 9.483 7.25 9C7.25 8.034 8.034 7.25 9 7.25C9.483 7.25 9.921 7.446 10.237 7.763" stroke="black" stroke-width="1.5" stroke-linecap="round" stroke-linejoin="round" fill="none"></path> <path d="M5.64101 12.359C3.78601 10.504 3.78601 7.496 5.64101 5.641" stroke="black" stroke-width="1.5" stroke-linecap="round" stroke-linejoin="round" fill="none"></path> <path d="M3.52001 14.48C0.493006 11.454 0.493006 6.546 3.52001 3.52" stroke="black" stroke-width="1.5" stroke-linecap="round" stroke-linejoin="round" fill="none"></path> <path d="M12.359 12.359C13.565 11.153 13.987 9.459 13.624 7.911" stroke="black" stroke-width="1.5" stroke-linecap="round" stroke-linejoin="round" fill="none"></path> <path d="M14.48 14.48C16.888 12.072 17.38 8.473 15.956 5.579" stroke="black" stroke-width="1.5" stroke-linecap="round" stroke-linejoin="round" fill="none"></path> <path d="M2 16L16 2" stroke="black" stroke-width="1.5" stroke-linecap="round" stroke-linejoin="round" fill="none"></path></svg>