<svg xmlns="http://www.w3.org/2000/svg" xmlns:xlink="http://www.w3.org/1999/xlink" x="0px" y="0px" width="18px" height="18px" viewBox="0 0 18 18"><path fill-rule="evenodd" clip-rule="evenodd" d="M12.25 4.75V5.74997L7.10751 10.8925C6.2855 10.3027 5.75 9.33889 5.75 8.25V4.75C5.75 2.95507 7.20507 1.5 9 1.5C10.7949 1.5 12.25 2.95507 12.25 4.75Z" fill="#000" fill-opacity="0.3" data-color="color-2" data-stroke="none"></path> <path d="M12.25 5.75V5C12.25 3.2051 10.795 1.75 9 1.75C7.205 1.75 5.75 3.2051 5.75 5V8C5.75 9.1534 6.35079 10.1665 7.25659 10.7433" stroke="black" stroke-width="1.5" stroke-linecap="round" stroke-linejoin="round" fill="none"></path> <path d="M5.10901 12.891C3.67201 11.746 2.75 9.98 2.75 8" stroke="black" stroke-width="1.5" stroke-linecap="round" stroke-linejoin="round" fill="none"></path> <path d="M15.25 8C15.25 11.452 12.452 14.25 9 14.25C8.6811 14.25 8.36809 14.2262 8.06229 14.1802" stroke="black" stroke-width="1.5" stroke-linecap="round" stroke-linejoin="round" fill="none"></path> <path d="M9 14.25V16.25" stroke="black" stroke-width="1.5" stroke-linecap="round" stroke-linejoin="round" fill="none"></path> <path d="M2 16L16 2" stroke="black" stroke-width="1.5" stroke-linecap="round" stroke-linejoin="round" fill="none"></path></svg>