<svg xmlns="http://www.w3.org/2000/svg" xmlns:xlink="http://www.w3.org/1999/xlink" x="0px" y="0px" width="18px" height="18px" viewBox="0 0 18 18"><path d="M6.75 16.25C8.40685 16.25 9.75 14.9069 9.75 13.25C9.75 11.5931 8.40685 10.25 6.75 10.25C5.09315 10.25 3.75 11.5931 3.75 13.25C3.75 14.9069 5.09315 16.25 6.75 16.25Z" fill="#000" fill-opacity="0.3" data-color="color-2" data-stroke="none"></path> <path d="M9.75 13.25V1.75C9.75 1.75 11.5 4.5 14.25 6" stroke="black" stroke-width="1.5" stroke-linecap="round" stroke-linejoin="round" fill="none"></path> <path d="M6.75 16.25C8.40685 16.25 9.75 14.9069 9.75 13.25C9.75 11.5931 8.40685 10.25 6.75 10.25C5.09315 10.25 3.75 11.5931 3.75 13.25C3.75 14.9069 5.09315 16.25 6.75 16.25Z" stroke="black" stroke-width="1.5" stroke-linecap="round" stroke-linejoin="round" fill="none"></path></svg>