<svg xmlns="http://www.w3.org/2000/svg" xmlns:xlink="http://www.w3.org/1999/xlink" x="0px" y="0px" width="18px" height="18px" viewBox="0 0 18 18"><path d="M6.586 3.361L13.586 2.194C14.196 2.092 14.75 2.562 14.75 3.18V5.75L5.75 7.25V4.347C5.75 3.858 6.103 3.441 6.586 3.361Z" fill="#000" fill-opacity="0.3" data-color="color-2" data-stroke="none"></path> <path d="M3.75 15.75C4.85457 15.75 5.75 14.8546 5.75 13.75C5.75 12.6454 4.85457 11.75 3.75 11.75C2.64543 11.75 1.75 12.6454 1.75 13.75C1.75 14.8546 2.64543 15.75 3.75 15.75Z" fill="#000" fill-opacity="0.3" data-color="color-2" data-stroke="none"></path> <path d="M12.75 14.25C13.8546 14.25 14.75 13.3546 14.75 12.25C14.75 11.1454 13.8546 10.25 12.75 10.25C11.6454 10.25 10.75 11.1454 10.75 12.25C10.75 13.3546 11.6454 14.25 12.75 14.25Z" fill="#000" fill-opacity="0.3" data-color="color-2" data-stroke="none"></path> <path d="M5.75 7.25V13.75" stroke="black" stroke-width="1.5" stroke-linecap="round" stroke-linejoin="round" fill="none"></path> <path d="M14.75 5.75V12.25" stroke="black" stroke-width="1.5" stroke-linecap="round" stroke-linejoin="round" fill="none"></path> <path d="M6.586 3.361L13.586 2.194C14.196 2.092 14.75 2.562 14.75 3.18V5.75L5.75 7.25V4.347C5.75 3.858 6.103 3.441 6.586 3.361Z" stroke="black" stroke-width="1.5" stroke-linecap="round" stroke-linejoin="round" fill="none"></path> <path d="M3.75 15.75C4.85457 15.75 5.75 14.8546 5.75 13.75C5.75 12.6454 4.85457 11.75 3.75 11.75C2.64543 11.75 1.75 12.6454 1.75 13.75C1.75 14.8546 2.64543 15.75 3.75 15.75Z" stroke="black" stroke-width="1.5" stroke-linecap="round" stroke-linejoin="round" fill="none"></path> <path d="M12.75 14.25C13.8546 14.25 14.75 13.3546 14.75 12.25C14.75 11.1454 13.8546 10.25 12.75 10.25C11.6454 10.25 10.75 11.1454 10.75 12.25C10.75 13.3546 11.6454 14.25 12.75 14.25Z" stroke="black" stroke-width="1.5" stroke-linecap="round" stroke-linejoin="round" fill="none"></path></svg>