<svg xmlns="http://www.w3.org/2000/svg" xmlns:xlink="http://www.w3.org/1999/xlink" x="0px" y="0px" width="18px" height="18px" viewBox="0 0 18 18"><path d="m4.987,2.961c.778-.518,1.662-.89,2.612-1.075" fill="none" stroke="#000" stroke-linecap="round" stroke-linejoin="round" stroke-width="1.5"></path><path d="m1.879,7.631c.185-.968.562-1.867,1.091-2.657" fill="none" stroke="#000" stroke-linecap="round" stroke-linejoin="round" stroke-width="1.5"></path><path d="m4.987,15.039c.778.518,1.662.89,2.612,1.075" fill="none" stroke="#000" stroke-linecap="round" stroke-linejoin="round" stroke-width="1.5"></path><path d="m1.879,10.369c.185.968.562,1.867,1.091,2.657" fill="none" stroke="#000" stroke-linecap="round" stroke-linejoin="round" stroke-width="1.5"></path><path d="m10.435,1.892c3.317.666,5.815,3.595,5.815,7.108s-2.499,6.443-5.817,7.108" fill="none" stroke="#000" stroke-linecap="round" stroke-linejoin="round" stroke-width="1.5"></path><rect x="6.25" y="6.25" width="5.5" height="5.5" rx="1" ry="1" fill="#000" opacity=".3" stroke-width="0" data-color="color-2"></rect><rect x="6.25" y="6.25" width="5.5" height="5.5" rx="1" ry="1" fill="none" stroke="#000" stroke-linecap="round" stroke-linejoin="round" stroke-width="1.5"></rect></svg>