<svg xmlns="http://www.w3.org/2000/svg" xmlns:xlink="http://www.w3.org/1999/xlink" x="0px" y="0px" width="18px" height="18px" viewBox="0 0 18 18"><path d="M9.492 4.407L16.993 8.563C17.337 8.753 17.337 9.248 16.993 9.438L9.492 13.594C9.159 13.779 8.75 13.538 8.75 13.157V4.844C8.75 4.463 9.159 4.222 9.492 4.407Z" fill="#000" fill-opacity="0.3" data-color="color-2" data-stroke="none"></path> <path d="M8.75 9.572L1.492 13.593C1.159 13.778 0.75 13.537 0.75 13.156V4.844C0.75 4.463 1.159 4.222 1.492 4.407L8.75 8.428" stroke="black" stroke-width="1.5" stroke-linecap="round" stroke-linejoin="round" fill="none"></path> <path d="M9.492 4.407L16.993 8.563C17.337 8.753 17.337 9.248 16.993 9.438L9.492 13.594C9.159 13.779 8.75 13.538 8.75 13.157V4.844C8.75 4.463 9.159 4.222 9.492 4.407Z" stroke="black" stroke-width="1.5" stroke-linecap="round" stroke-linejoin="round" fill="none"></path></svg>