<svg xmlns="http://www.w3.org/2000/svg" xmlns:xlink="http://www.w3.org/1999/xlink" x="0px" y="0px" width="18px" height="18px" viewBox="0 0 18 18"><path d="M12.25 4C12.25 2.20507 10.7949 0.75 9 0.75C7.20507 0.75 5.75 2.20507 5.75 4V7.5C5.75 9.29493 7.20507 10.75 9 10.75C10.7949 10.75 12.25 9.29493 12.25 7.5V4Z" fill="#000" fill-opacity="0.3" data-color="color-2" data-stroke="none"></path> <path d="M9.75 5.75H12.25" stroke="black" stroke-width="1.5" stroke-linecap="round" stroke-linejoin="round" fill="none"></path> <path d="M15.25 7.5C15.25 10.946 12.446 13.75 9 13.75C5.554 13.75 2.75 10.946 2.75 7.5" stroke="black" stroke-width="1.5" stroke-linecap="round" stroke-linejoin="round" fill="none"></path> <path d="M12.25 4C12.25 2.20507 10.7949 0.75 9 0.75C7.20507 0.75 5.75 2.20507 5.75 4V7.5C5.75 9.29493 7.20507 10.75 9 10.75C10.7949 10.75 12.25 9.29493 12.25 7.5V4Z" stroke="black" stroke-width="1.5" stroke-linecap="round" stroke-linejoin="round" fill="none"></path> <path d="M9 13.75V17.25" stroke="black" stroke-width="1.5" stroke-linecap="round" stroke-linejoin="round" fill="none"></path> <path d="M5.75 17.25H12.25" stroke="black" stroke-width="1.5" stroke-linecap="round" stroke-linejoin="round" fill="none"></path></svg>