<svg xmlns="http://www.w3.org/2000/svg" xmlns:xlink="http://www.w3.org/1999/xlink" x="0px" y="0px" width="18px" height="18px" viewBox="0 0 18 18"><path d="m2.25,12.75h0c0,1.6569,1.3431,3,3,3h0c.5523,0,1-.4477,1-1v-4c0-.5523-.4477-1-1-1h0c-1.6569,0-3,1.3431-3,3Z" fill="#000" opacity=".3" stroke-width="0" data-color="color-2"></path><path d="m12.75,9.75h0c-.5523,0-1,.4477-1,1v4c0,.5523.4477,1,1,1h0c1.6569,0,3-1.3431,3-3h0c0-1.6569-1.3431-3-3-3Z" fill="#000" opacity=".3" stroke-width="0" data-color="color-2"></path><path d="m15.75,12.75v-3.75c0-3.7279-3.0221-6.75-6.75-6.75h0c-3.7279,0-6.75,3.0221-6.75,6.75v3.75" fill="none" stroke="#000" stroke-linecap="round" stroke-linejoin="round" stroke-width="1.5"></path><path d="m2.25,12.75h0c0,1.6569,1.3431,3,3,3h0c.5523,0,1-.4477,1-1v-4c0-.5523-.4477-1-1-1h0c-1.6569,0-3,1.3431-3,3Z" fill="none" stroke="#000" stroke-linecap="round" stroke-linejoin="round" stroke-width="1.5"></path><path d="m12.75,9.75h0c-.5523,0-1,.4477-1,1v4c0,.5523.4477,1,1,1h0c1.6569,0,3-1.3431,3-3h0c0-1.6569-1.3431-3-3-3Z" fill="none" stroke="#000" stroke-linecap="round" stroke-linejoin="round" stroke-width="1.5"></path></svg>