<svg xmlns="http://www.w3.org/2000/svg" xmlns:xlink="http://www.w3.org/1999/xlink" x="0px" y="0px" width="18px" height="18px" viewBox="0 0 18 18"><path d="M8 5.75H4.25C3.422 5.75 2.75 6.422 2.75 7.25V10.75C2.75 11.578 3.422 12.25 4.25 12.25H8L13.48 15.758C13.813 15.971 14.25 15.732 14.25 15.337V2.664C14.25 2.269 13.813 2.03 13.48 2.243L8 5.75Z" fill="#000" fill-opacity="0.3" data-color="color-2" data-stroke="none"></path> <path d="M8 5.75H4.25C3.422 5.75 2.75 6.422 2.75 7.25V10.75C2.75 11.578 3.422 12.25 4.25 12.25H8L13.48 15.758C13.813 15.971 14.25 15.732 14.25 15.337V2.664C14.25 2.269 13.813 2.03 13.48 2.243L8 5.75Z" stroke="black" stroke-width="1.5" stroke-linecap="round" stroke-linejoin="round" fill="none"></path></svg>