<svg xmlns="http://www.w3.org/2000/svg" xmlns:xlink="http://www.w3.org/1999/xlink" x="0px" y="0px" width="32px" height="32px" viewBox="0 0 32 32"> <path fill-rule="evenodd" clip-rule="evenodd" d="M1 16C1 7.71573 7.71573 1 16 1C24.2843 1 31 7.71573 31 16C31 24.2843 24.2843 31 16 31C7.71573 31 1 24.2843 1 16ZM19.5528 14.8417L24.3417 12.4472L23.4472 10.6584L18.6584 13.0528L19.5528 14.8417ZM7.65833 12.4472L12.4472 14.8417L13.3416 13.0528L8.55276 10.6584L7.65833 12.4472ZM24 18H8C8 22.4183 11.5817 26 16 26C20.4183 26 24 22.4183 24 18Z" fill="black"></path> </svg>