<svg xmlns="http://www.w3.org/2000/svg" xmlns:xlink="http://www.w3.org/1999/xlink" x="0px" y="0px" width="48px" height="48px" viewBox="0 0 48 48"> <path fill-rule="evenodd" clip-rule="evenodd" d="M22.5 41V32H25.5V41H22.5Z" fill="#000" data-color="color-2"></path> <path fill-rule="evenodd" clip-rule="evenodd" d="M30 40.5V32.5H33V40.5H30Z" fill="#000" data-color="color-2"></path> <path fill-rule="evenodd" clip-rule="evenodd" d="M15 40.5V32.5H18V40.5H15Z" fill="#000" data-color="color-2"></path> <path fill-rule="evenodd" clip-rule="evenodd" d="M25.5 1V8H22.5V1H25.5Z" fill="#000" data-color="color-2"></path> <path fill-rule="evenodd" clip-rule="evenodd" d="M47 19L47 29L45 29L45 19L47 19Z" fill="#000" data-color="color-2"></path> <path fill-rule="evenodd" clip-rule="evenodd" d="M1 19L1 29L3 29L3 19L1 19Z" fill="#000" data-color="color-2"></path> <path fill-rule="evenodd" clip-rule="evenodd" d="M40 6C43.3137 6 46 8.68629 46 12V36C46 39.3137 43.3137 42 40 42H8C4.68629 42 2 39.3137 2 36V12C2 8.68629 4.68629 6 8 6H40ZM20 22C20 24.7614 17.7614 27 15 27C12.2386 27 10 24.7614 10 22C10 19.2386 12.2386 17 15 17C17.7614 17 20 19.2386 20 22ZM33 27C35.7614 27 38 24.7614 38 22C38 19.2386 35.7614 17 33 17C30.2386 17 28 19.2386 28 22C28 24.7614 30.2386 27 33 27ZM11 33L11 39H37V33H11Z" fill="black"></path> </svg>