<svg xmlns="http://www.w3.org/2000/svg" xmlns:xlink="http://www.w3.org/1999/xlink" x="0px" y="0px" width="20px" height="20px" viewBox="0 0 20 20"><path d="m11,6.1414c1.41.3652,2.5115,1.4716,2.8669,2.8854.0455-.0063.0859-.0269.1331-.0269h3.9309c-.4521-3.6169-3.314-6.4788-6.9309-6.9309v4.0723Z" fill="#000" stroke-width="0" data-color="color-2"></path><path d="m14,11c-.0472,0-.0876-.0205-.1331-.0269-.4365,1.7362-1.9953,3.0269-3.8669,3.0269-.7405,0-1.4254-.215-2.0202-.5657l-2.8799,2.8799c1.3546,1.0528,3.0517,1.6858,4.9001,1.6858,4.0789,0,7.4378-3.0547,7.9309-7h-3.9309Z" stroke-width="0" fill="#000"></path><path d="m6.5657,12.0202c-.3508-.5948-.5657-1.2797-.5657-2.0202,0-1.8618,1.2778-3.4125,3-3.8586V2.0691c-3.9453.4931-7,3.8521-7,7.9309,0,1.8484.633,3.5455,1.6858,4.9001l2.8799-2.8799Z" stroke-width="0" fill="#000"></path></svg>