<svg xmlns="http://www.w3.org/2000/svg" xmlns:xlink="http://www.w3.org/1999/xlink" x="0px" y="0px" width="24px" height="24px" viewBox="0 0 24 24"> <path fill-rule="evenodd" clip-rule="evenodd" d="M3.0665 8.35256C3.62627 4.24736 7.20427 1 11.5 1C15.7459 1 19.1859 4.0787 19.8907 8.07982C22.2211 8.50238 24 10.5515 24 13V14H0V13C0 10.9104 1.26852 9.09035 3.0665 8.35256Z" fill="black"></path> <path fill-rule="evenodd" clip-rule="evenodd" d="M2 16L15 16V18L2 18L2 16Z" fill="#000" data-color="color-2"></path> <path fill-rule="evenodd" clip-rule="evenodd" d="M9 20L20 20V22L9 22V20Z" fill="#000" data-color="color-2"></path> <path fill-rule="evenodd" clip-rule="evenodd" d="M17 16H22V18H17V16Z" fill="#000" data-color="color-2"></path> <path fill-rule="evenodd" clip-rule="evenodd" d="M4 20H7V22H4V20Z" fill="#000" data-color="color-2"></path> </svg>