<svg xmlns="http://www.w3.org/2000/svg" xmlns:xlink="http://www.w3.org/1999/xlink" x="0px" y="0px" width="32px" height="32px" viewBox="0 0 32 32"> <path fill-rule="evenodd" clip-rule="evenodd" d="M0 24L13 24V26L0 26L0 24Z" fill="#000" data-color="color-2"></path> <path fill-rule="evenodd" clip-rule="evenodd" d="M11 28H18V30H11V28Z" fill="#000" data-color="color-2"></path> <path fill-rule="evenodd" clip-rule="evenodd" d="M7 20H16V22H7L7 20Z" fill="#000" data-color="color-2"></path> <path d="M7 16C7 11.0294 11.0294 7 16 7C20.9706 7 25 11.0294 25 16C25 20.9706 20.9706 25 16 25C15.662 25 15.3283 24.9814 15 24.9451V24H16C17.1046 24 18 23.1046 18 22V20C18 18.8954 17.1046 18 16 18H7.22302C7.07706 17.3568 7 16.6874 7 16Z" fill="black"></path> <path fill-rule="evenodd" clip-rule="evenodd" d="M5 28H9V30H5V28Z" fill="#000" data-color="color-2"></path> <path fill-rule="evenodd" clip-rule="evenodd" d="M17 0V4H15V0H17Z" fill="black"></path> <path fill-rule="evenodd" clip-rule="evenodd" d="M32 17L28 17L28 15L32 15L32 17Z" fill="black"></path> <path fill-rule="evenodd" clip-rule="evenodd" d="M5 17L1 17L1 15L5 15L5 17Z" fill="black"></path> <path fill-rule="evenodd" clip-rule="evenodd" d="M25.1924 23.7782L28.0208 26.6066L26.6066 28.0208L23.7782 25.1924L25.1924 23.7782Z" fill="black"></path> <path fill-rule="evenodd" clip-rule="evenodd" d="M5.3934 3.97919L8.22183 6.80762L6.80761 8.22183L3.97919 5.3934L5.3934 3.97919Z" fill="black"></path> <path fill-rule="evenodd" clip-rule="evenodd" d="M28.0208 5.3934L25.1924 8.22183L23.7781 6.80761L26.6066 3.97919L28.0208 5.3934Z" fill="black"></path> </svg>