<svg xmlns="http://www.w3.org/2000/svg" xmlns:xlink="http://www.w3.org/1999/xlink" x="0px" y="0px" width="32px" height="32px" viewBox="0 0 32 32"> <path fill-rule="evenodd" clip-rule="evenodd" d="M0 24L13 24V26L0 26L0 24Z" fill="#000" data-color="color-2"></path> <path fill-rule="evenodd" clip-rule="evenodd" d="M11 28H18V30H11V28Z" fill="#000" data-color="color-2"></path> <path fill-rule="evenodd" clip-rule="evenodd" d="M7 20H16V22H7L7 20Z" fill="#000" data-color="color-2"></path> <path fill-rule="evenodd" clip-rule="evenodd" d="M5 28H9V30H5V28Z" fill="#000" data-color="color-2"></path> <path d="M4.03687 14.6641C4.46532 8.70468 9.42946 4 15.5 4C21.7433 4 26.8245 8.97508 26.9956 15.177C29.8635 15.8525 32 18.4236 32 21.5C32 25.0903 29.0903 28 25.5 28H20C20 26.8954 19.1046 26 18 26H15V24H16C17.1046 24 18 23.1046 18 22V20C18 18.8954 17.1046 18 16 18H7C5.89543 18 5 18.8954 5 20V22H0.0708736C0.0241666 21.6734 0 21.3395 0 21C0 18.1916 1.65567 15.7785 4.03687 14.6641Z" fill="black"></path> </svg>