<svg xmlns="http://www.w3.org/2000/svg" xmlns:xlink="http://www.w3.org/1999/xlink" x="0px" y="0px" width="18px" height="18px" viewBox="0 0 18 18"><path d="M15.25,7.5h-1.036l-1.49-2.98c-.47-.938-1.412-1.52-2.46-1.52H4.236c-1.048,0-1.99,.583-2.46,1.52L.29,7.493c-.189,.38-.29,.805-.29,1.229v3.528c0,.965,.785,1.75,1.75,1.75h.581c-.048-.159-.081-.325-.081-.5,0-.967,.784-1.75,1.75-1.75s1.75,.783,1.75,1.75c0,.175-.034,.341-.081,.5h6.163c-.048-.159-.081-.325-.081-.5,0-.967,.784-1.75,1.75-1.75s1.75,.783,1.75,1.75c0,.175-.034,.341-.081,.5h1.081c.965,0,1.75-.785,1.75-1.75v-2c0-1.517-1.233-2.75-2.75-2.75Zm-8.75,0H1.963l1.155-2.309c.213-.426,.642-.691,1.118-.691h2.264v3Zm1.5,0v-3h2.264c.477,0,.905,.265,1.118,.691l1.155,2.309h-4.536Z" fill="#000"></path><path d="M4,16c-1.379,0-2.5-1.122-2.5-2.5s1.121-2.5,2.5-2.5,2.5,1.122,2.5,2.5-1.121,2.5-2.5,2.5Zm0-3.5c-.552,0-1,.449-1,1s.448,1,1,1,1-.449,1-1-.448-1-1-1Z" fill="#000" data-color="color-2"></path><path d="M13.5,16c-1.379,0-2.5-1.122-2.5-2.5s1.121-2.5,2.5-2.5,2.5,1.122,2.5,2.5-1.121,2.5-2.5,2.5Zm0-3.5c-.552,0-1,.449-1,1s.448,1,1,1,1-.449,1-1-.448-1-1-1Z" fill="#000" data-color="color-2"></path></svg>