<svg xmlns="http://www.w3.org/2000/svg" xmlns:xlink="http://www.w3.org/1999/xlink" x="0px" y="0px" width="24px" height="24px" viewBox="0 0 24 24"><path d="m4.207,9l.464,11.125c.067,1.612,1.384,2.875,2.997,2.875h8.664c1.613,0,2.93-1.263,2.997-2.875l.464-11.125H4.207Zm11.707,9l-1.414,1.414-2.5-2.5-2.5,2.5-1.414-1.414,2.5-2.5-2.5-2.5,1.414-1.414,2.5,2.5,2.5-2.5,1.414,1.414-2.5,2.5,2.5,2.5Z" stroke-width="0" fill="#000"></path><path d="m16,5V1h-8v4H2v2h20v-2h-6Zm-6-2h4v2h-4v-2Z" fill="#000" stroke-width="0" data-color="color-2"></path></svg>