<svg xmlns="http://www.w3.org/2000/svg" xmlns:xlink="http://www.w3.org/1999/xlink" x="0px" y="0px" width="24px" height="24px" viewBox="0 0 24 24"> <path fill-rule="evenodd" clip-rule="evenodd" d="M11 14L6 14L6 12L11 12L11 14Z" fill="#000" data-color="color-2"></path> <path fill-rule="evenodd" clip-rule="evenodd" d="M11 18L6 18L6 16L11 16L11 18Z" fill="#000" data-color="color-2"></path> <path fill-rule="evenodd" clip-rule="evenodd" d="M18 14L13 14L13 12L18 12L18 14Z" fill="#000" data-color="color-2"></path> <path fill-rule="evenodd" clip-rule="evenodd" d="M18 18L13 18L13 16L18 16L18 18Z" fill="#000" data-color="color-2"></path> <path fill-rule="evenodd" clip-rule="evenodd" d="M3 10L21 10L21 4L3 4L3 10Z" fill="black"></path> <path fill-rule="evenodd" clip-rule="evenodd" d="M2 2H22V22H2V2ZM4 4V20H20V4H4Z" fill="black"></path> </svg>