<svg xmlns="http://www.w3.org/2000/svg" xmlns:xlink="http://www.w3.org/1999/xlink" x="0px" y="0px" width="24px" height="24px" viewBox="0 0 24 24"><path d="m22,4h-10.142c-.447-1.72-1.999-3-3.858-3s-3.411,1.28-3.858,3h-2.142v2h2.142c.447,1.72,1.999,3,3.858,3s3.411-1.28,3.858-3h10.142v-2Z" stroke-width="0" fill="#000"></path><path d="m22,11h-2.142c-.447-1.72-1.999-3-3.858-3s-3.411,1.28-3.858,3H2v2h10.142c.447,1.72,1.999,3,3.858,3s3.411-1.28,3.858-3h2.142v-2Z" fill="#000" stroke-width="0" data-color="color-2"></path><path d="m22,18h-10.142c-.447-1.72-1.999-3-3.858-3s-3.411,1.28-3.858,3h-2.142v2h2.142c.447,1.72,1.999,3,3.858,3s3.411-1.28,3.858-3h10.142v-2Z" stroke-width="0" fill="#000"></path></svg>