<svg xmlns="http://www.w3.org/2000/svg" xmlns:xlink="http://www.w3.org/1999/xlink" x="0px" y="0px" width="24px" height="24px" viewBox="0 0 24 24"><path d="m10.539,9.607l-8.438,7.593c-.685.617-1.075,1.464-1.1,2.386-.023.921.322,1.788.974,2.439.623.623,1.476.975,2.354.975.036,0,.072,0,.109-.002.916-.03,1.787-.443,2.391-1.133l7.413-8.465-3.703-3.792Z" fill="#000" stroke-width="0" data-color="color-2"></path><path d="m22.379,4.723l-2.995,2.996c-.391.391-1.024.391-1.414,0l-1.783-1.783c-.391-.391-.391-1.024,0-1.414l2.958-2.958-.035-.015c-1.119-.491-2.326-.656-3.562-.481-2.646.374-4.85,2.416-5.4,5.031-.978,4.654,3.062,8.711,7.712,7.762,2.623-.535,4.681-2.732,5.068-5.38.182-1.243.018-2.46-.476-3.589l-.074-.168Z" stroke-width="0" fill="#000"></path></svg>