<svg xmlns="http://www.w3.org/2000/svg" xmlns:xlink="http://www.w3.org/1999/xlink" x="0px" y="0px" width="32px" height="32px" viewBox="0 0 32 32"><path fill-rule="evenodd" clip-rule="evenodd" d="M22 10L22 6C22 4.89543 21.1046 4 20 4L18 4L18 2L20 2C22.2091 2 24 3.79086 24 6L24 10L22 10Z" fill="#000" data-color="color-2"></path> <path fill-rule="evenodd" clip-rule="evenodd" d="M10 24L6 24C3.79086 24 2 22.2091 2 20L2 18L4 18L4 20C4 21.1046 4.89543 22 6 22L10 22L10 24Z" fill="#000" data-color="color-2"></path> <path fill-rule="evenodd" clip-rule="evenodd" d="M2 16L2 10L4 10L4 16L2 16Z" fill="#000" data-color="color-2"></path> <path fill-rule="evenodd" clip-rule="evenodd" d="M2 8L2 6C2 3.79086 3.79086 2 6 2L8 2L8 4L6 4C4.89543 4 4 4.89543 4 6L4 8L2 8Z" fill="#000" data-color="color-2"></path> <path fill-rule="evenodd" clip-rule="evenodd" d="M16 4L10 4L10 2L16 2L16 4Z" fill="#000" data-color="color-2"></path> <path fill-rule="evenodd" clip-rule="evenodd" d="M8 11.8261C8 9.713 9.713 8 11.8261 8H26.1739C28.287 8 30 9.713 30 11.8261V26.1739C30 28.287 28.287 30 26.1739 30H11.8261C9.713 30 8 28.287 8 26.1739V11.8261Z" fill="black"></path></svg>