<svg xmlns="http://www.w3.org/2000/svg" xmlns:xlink="http://www.w3.org/1999/xlink" x="0px" y="0px" width="32px" height="32px" viewBox="0 0 32 32"><path fill-rule="evenodd" clip-rule="evenodd" d="M2 24C2 20.6863 4.68629 18 8 18C11.3137 18 14 20.6863 14 24C14 27.3137 11.3137 30 8 30C4.68629 30 2 27.3137 2 24Z" fill="#000" data-color="color-2"></path> <path fill-rule="evenodd" clip-rule="evenodd" d="M18 8C18 4.68629 20.6863 2 24 2C27.3137 2 30 4.68629 30 8C30 11.3137 27.3137 14 24 14C20.6863 14 18 11.3137 18 8Z" fill="#000" data-color="color-2"></path> <path fill-rule="evenodd" clip-rule="evenodd" d="M2 4.5C2 3.11929 3.11929 2 4.5 2H11.5C12.8807 2 14 3.11929 14 4.5V11.5C14 12.8807 12.8807 14 11.5 14H4.5C3.11929 14 2 12.8807 2 11.5V4.5Z" fill="black"></path> <path fill-rule="evenodd" clip-rule="evenodd" d="M18 20.5C18 19.1193 19.1193 18 20.5 18H27.5C28.8807 18 30 19.1193 30 20.5V27.5C30 28.8807 28.8807 30 27.5 30H20.5C19.1193 30 18 28.8807 18 27.5V20.5Z" fill="black"></path></svg>