<svg xmlns="http://www.w3.org/2000/svg" xmlns:xlink="http://www.w3.org/1999/xlink" x="0px" y="0px" width="32px" height="32px" viewBox="0 0 32 32"> <path fill-rule="evenodd" clip-rule="evenodd" d="M3 12L29 12L29 3L3 3L3 12Z" fill="black"></path> <path fill-rule="evenodd" clip-rule="evenodd" d="M2 2H30V30H2V2ZM4 4V28H28V4H4Z" fill="black"></path> <path fill-rule="evenodd" clip-rule="evenodd" d="M11 15L7 15L7 17L11 17L11 15Z" fill="#000" data-color="color-2"></path> <path fill-rule="evenodd" clip-rule="evenodd" d="M25 15L21 15L21 17L25 17L25 15Z" fill="#000" data-color="color-2"></path> <path fill-rule="evenodd" clip-rule="evenodd" d="M18 15L14 15L14 17L18 17L18 15Z" fill="#000" data-color="color-2"></path> <path fill-rule="evenodd" clip-rule="evenodd" d="M11 19L7 19L7 21L11 21L11 19Z" fill="#000" data-color="color-2"></path> <path fill-rule="evenodd" clip-rule="evenodd" d="M25 19L21 19L21 21L25 21L25 19Z" fill="#000" data-color="color-2"></path> <path fill-rule="evenodd" clip-rule="evenodd" d="M18 19L14 19L14 21L18 21L18 19Z" fill="#000" data-color="color-2"></path> <path fill-rule="evenodd" clip-rule="evenodd" d="M11 23L7 23L7 25L11 25L11 23Z" fill="#000" data-color="color-2"></path> <path fill-rule="evenodd" clip-rule="evenodd" d="M25 23L21 23L21 25L25 25L25 23Z" fill="#000" data-color="color-2"></path> <path fill-rule="evenodd" clip-rule="evenodd" d="M18 23L14 23L14 25L18 25L18 23Z" fill="#000" data-color="color-2"></path> </svg>