<svg xmlns="http://www.w3.org/2000/svg" xmlns:xlink="http://www.w3.org/1999/xlink" x="0px" y="0px" width="32px" height="32px" viewBox="0 0 32 32"><path fill-rule="evenodd" clip-rule="evenodd" d="M8 24L24 24L24 8L8 8L8 24Z" fill="#000" data-color="color-2"></path> <circle cx="3.5" cy="28.5" r="1.5" transform="rotate(-90 3.5 28.5)" fill="black"></circle> <circle cx="9.75" cy="28.5" r="1.5" transform="rotate(-90 9.75 28.5)" fill="black"></circle> <circle cx="3.5" cy="22.25" r="1.5" transform="rotate(-90 3.5 22.25)" fill="black"></circle> <path d="M3.5 14.5C4.32843 14.5 5 15.1716 5 16C5 16.8284 4.32843 17.5 3.5 17.5C2.67157 17.5 2 16.8284 2 16C2 15.1716 2.67157 14.5 3.5 14.5Z" fill="black"></path> <circle cx="3.5" cy="9.75" r="1.5" transform="rotate(-90 3.5 9.75)" fill="black"></circle> <circle cx="1.5" cy="1.5" r="1.5" transform="matrix(-4.37114e-08 -1 -1 4.37114e-08 30 11)" fill="black"></circle> <circle cx="3.5" cy="3.5" r="1.5" transform="rotate(-90 3.5 3.5)" fill="black"></circle> <circle cx="9.75" cy="3.5" r="1.5" fill="black"></circle> <path d="M17.5 3.5C17.5 4.32843 16.8284 5 16 5C15.1716 5 14.5 4.32843 14.5 3.5C14.5 2.67157 15.1716 2 16 2C16.8284 2 17.5 2.67157 17.5 3.5Z" fill="black"></path> <path d="M28.5 17.5C27.6716 17.5 27 16.8284 27 16C27 15.1716 27.6716 14.5 28.5 14.5C29.3284 14.5 30 15.1716 30 16C30 16.8284 29.3284 17.5 28.5 17.5Z" fill="black"></path> <circle cx="28.5" cy="22.25" r="1.5" transform="rotate(90 28.5 22.25)" fill="black"></circle> <circle cx="28.5" cy="28.5" r="1.5" transform="rotate(90 28.5 28.5)" fill="black"></circle> <circle cx="22.25" cy="28.5" r="1.5" transform="rotate(-180 22.25 28.5)" fill="black"></circle> <path d="M14.5 28.5C14.5 27.6716 15.1716 27 16 27C16.8284 27 17.5 27.6716 17.5 28.5C17.5 29.3284 16.8284 30 16 30C15.1716 30 14.5 29.3284 14.5 28.5Z" fill="black"></path> <circle cx="22.25" cy="3.5" r="1.5" fill="black"></circle> <circle cx="28.5" cy="3.5" r="1.5" fill="black"></circle></svg>