<svg xmlns="http://www.w3.org/2000/svg" xmlns:xlink="http://www.w3.org/1999/xlink" x="0px" y="0px" width="48px" height="48px" viewBox="0 0 48 48"><path fill-rule="evenodd" clip-rule="evenodd" d="M9 8H39V11H9V8Z" fill="#000" data-color="color-2"></path> <path fill-rule="evenodd" clip-rule="evenodd" d="M15 2H33V5H15V2Z" fill="#000" data-color="color-2"></path> <path d="M46 14H2V44H26.0436C24.75 41.9794 24 39.5773 24 37C24 29.8203 29.8203 24 37 24C40.493 24 43.6642 25.3776 46 27.6191V14Z" fill="black"></path> <path fill-rule="evenodd" clip-rule="evenodd" d="M47 37C47 42.5228 42.5228 47 37 47C31.4772 47 27 42.5228 27 37C27 31.4772 31.4772 27 37 27C42.5228 27 47 31.4772 47 37ZM38.5 31.5V35.5H42.5V38.5H38.5V42.5H35.5V38.5H31.5V35.5H35.5V31.5H38.5Z" fill="#000" data-color="color-2"></path></svg>