<svg xmlns="http://www.w3.org/2000/svg" xmlns:xlink="http://www.w3.org/1999/xlink" x="0px" y="0px" width="48px" height="48px" viewBox="0 0 48 48"> <path fill-rule="evenodd" clip-rule="evenodd" d="M25.5 4L25.5 9L22.5 9L22.5 4L25.5 4Z" fill="#000" data-color="color-2"></path> <path fill-rule="evenodd" clip-rule="evenodd" d="M25.5 18.5L25.5 44H22.5L22.5 18.5L25.5 18.5Z" fill="#000" data-color="color-2"></path> <path fill-rule="evenodd" clip-rule="evenodd" d="M39.5 33.5L39.5 44L36.5 44L36.5 33.5L39.5 33.5Z" fill="black"></path> <path fill-rule="evenodd" clip-rule="evenodd" d="M11.5 33.5L11.5 44L8.5 44L8.5 33.5L11.5 33.5Z" fill="black"></path> <path fill-rule="evenodd" clip-rule="evenodd" d="M39.5 4L39.5 24L36.5 24L36.5 4L39.5 4Z" fill="black"></path> <path fill-rule="evenodd" clip-rule="evenodd" d="M11.5 4L11.5 24L8.5 24L8.5 4L11.5 4Z" fill="black"></path> <path fill-rule="evenodd" clip-rule="evenodd" d="M3 36L3 27L17 27L17 36L3 36Z" fill="black"></path> <path fill-rule="evenodd" clip-rule="evenodd" d="M31 36L31 27L45 27L45 36L31 36Z" fill="black"></path> <path fill-rule="evenodd" clip-rule="evenodd" d="M17 21L17 12L31 12L31 21L17 21Z" fill="#000" data-color="color-2"></path> </svg>