<svg xmlns="http://www.w3.org/2000/svg" xmlns:xlink="http://www.w3.org/1999/xlink" x="0px" y="0px" width="24px" height="24px" viewBox="0 0 24 24"> <path d="M7 23V23C5.89543 23 5 22.1046 5 21L5 3C5 1.89543 5.89543 1 7 1L17 1C18.1046 1 19 1.89543 19 3V8.5" stroke="black" stroke-width="2" stroke-miterlimit="10" stroke-linecap="square" fill="none"></path> <path d="M13.4397 4.12062L10.5603 4.12062C10.527 4.12062 10.5 4.09362 10.5 4.06031C10.5 4.027 10.527 4 10.5603 4H12L13.4397 4C13.473 4 13.5 4.027 13.5 4.06031C13.5 4.09362 13.473 4.12062 13.4397 4.12062Z" stroke="black" stroke-width="2" stroke-miterlimit="10" stroke-linecap="square" fill="none"></path> <path d="M20 16L20 22" stroke="#000" stroke-width="2" stroke-linecap="square" data-color="color-2" fill="none"></path> <path d="M16 16L16 22" stroke="#000" stroke-width="2" stroke-linecap="square" data-color="color-2" fill="none"></path> <path d="M12 16L12 22" stroke="#000" stroke-width="2" stroke-linecap="square" data-color="color-2" fill="none"></path> <path d="M16 12L11 14.0987V16H21V14.0987L16 12Z" stroke="#000" stroke-width="2" stroke-miterlimit="10" stroke-linecap="square" data-color="color-2" fill="none"></path> <path d="M11 22H21" stroke="#000" stroke-width="2" stroke-linecap="square" data-color="color-2" fill="none"></path> </svg>