<svg xmlns="http://www.w3.org/2000/svg" xmlns:xlink="http://www.w3.org/1999/xlink" x="0px" y="0px" width="24px" height="24px" viewBox="0 0 24 24"><path d="m12,6h0c-1.381,0-2.5-1.119-2.5-2.5h0c0-1.381,1.119-2.5,2.5-2.5h0c1.381,0,2.5,1.119,2.5,2.5h0c0,1.381-1.119,2.5-2.5,2.5Z" fill="none" stroke="#000" stroke-linecap="square" stroke-miterlimit="10" stroke-width="2" data-color="color-2"></path><path d="m8,14v-1c0-2.209,1.791-4,4-4h0c2.209,0,4,1.791,4,4v1" fill="none" stroke="#000" stroke-linecap="square" stroke-miterlimit="10" stroke-width="2" data-color="color-2"></path><line x1="4" y1="14" x2="20" y2="14" fill="none" stroke="#000" stroke-linecap="square" stroke-miterlimit="10" stroke-width="2"></line><polyline points="18 14 18 23 6 23 6 14" fill="none" stroke="#000" stroke-linecap="square" stroke-miterlimit="10" stroke-width="2"></polyline></svg>