<svg xmlns="http://www.w3.org/2000/svg" xmlns:xlink="http://www.w3.org/1999/xlink" x="0px" y="0px" width="24px" height="24px" viewBox="0 0 24 24"> <path d="M1 17V19C1 20.1046 1.89543 21 3 21H21C22.1046 21 23 20.1046 23 19V17H16C16 17.5523 15.5523 18 15 18H9C8.44772 18 8 17.5523 8 17H1Z" stroke="black" stroke-width="2" stroke-miterlimit="10" stroke-linecap="square" fill="none"></path> <path d="M10.5 8L12 6L13.5 8" stroke="#000" stroke-width="2" stroke-miterlimit="10" stroke-linecap="square" data-color="color-2" fill="none"></path> <path d="M3 13H8C10.2091 13 12 11.2091 12 9V8V8.5" stroke="#000" stroke-width="2" stroke-linecap="square" data-color="color-2" fill="none"></path> <path d="M3 13V5C3 3.89543 3.89543 3 5 3H19C20.1046 3 21 3.89543 21 5V13" stroke="black" stroke-width="2" stroke-miterlimit="10" stroke-linecap="square" fill="none"></path> </svg>