<svg xmlns="http://www.w3.org/2000/svg" xmlns:xlink="http://www.w3.org/1999/xlink" x="0px" y="0px" width="32px" height="32px" viewBox="0 0 32 32"> <path d="M22 2L10 2C8.34315 2 7 3.34315 7 5L7 27C7 28.6569 8.34315 30 10 30L22 30C23.6569 30 25 28.6569 25 27L25 5C25 3.34315 23.6569 2 22 2Z" stroke="black" stroke-width="2" stroke-miterlimit="10" stroke-linecap="square" fill="none"></path> <path d="M18.6667 13L14.75 13C13.2312 13 12 14.2312 12 15.75V15.75C12 17.2688 13.2312 18.5 14.75 18.5H17.25C18.7688 18.5 20 19.7312 20 21.25V21.25C20 22.7688 18.7688 24 17.25 24H13.3333" stroke="#000" stroke-width="2" stroke-linecap="square" data-color="color-2" fill="none"></path> <path d="M16 13V11" stroke="#000" stroke-width="2" stroke-linecap="square" data-color="color-2" fill="none"></path> <path d="M16 26V24" stroke="#000" stroke-width="2" stroke-linecap="square" data-color="color-2" fill="none"></path> <path d="M17.75 6.5L14.25 6.5C14.1119 6.5 14 6.38807 14 6.25C14 6.11193 14.1119 6 14.25 6L17.75 6C17.8881 6 18 6.11193 18 6.25C18 6.38807 17.8881 6.5 17.75 6.5Z" stroke="black" stroke-width="2" stroke-miterlimit="10" stroke-linecap="square" fill="none"></path> </svg>