<svg xmlns="http://www.w3.org/2000/svg" xmlns:xlink="http://www.w3.org/1999/xlink" x="0px" y="0px" width="32px" height="32px" viewBox="0 0 32 32"> <path d="M2 11H30" stroke="black" stroke-width="2" stroke-miterlimit="10" stroke-linecap="square" fill="none"></path> <path d="M15 27H5C3.34315 27 2 25.6569 2 24V8C2 6.34315 3.34315 5 5 5H27C28.6569 5 30 6.34315 30 8V15" stroke="black" stroke-width="2" stroke-miterlimit="10" stroke-linecap="square" fill="none"></path> <path d="M7 22H10" stroke="black" stroke-width="2" stroke-miterlimit="10" stroke-linecap="square" fill="none"></path> <path d="M29.5 23H20.5C19.6716 23 19 23.6716 19 24.5V28.5C19 29.3284 19.6716 30 20.5 30H29.5C30.3284 30 31 29.3284 31 28.5V24.5C31 23.6716 30.3284 23 29.5 23Z" stroke="#000" stroke-width="2" stroke-miterlimit="10" stroke-linecap="square" data-color="color-2" fill="none"></path> <path d="M22 23V20C22 18.3431 23.3431 17 25 17V17C26.6569 17 28 18.3431 28 20V23" stroke="#000" stroke-width="2" stroke-miterlimit="10" stroke-linecap="square" data-color="color-2" fill="none"></path> </svg>