<svg xmlns="http://www.w3.org/2000/svg" xmlns:xlink="http://www.w3.org/1999/xlink" x="0px" y="0px" width="32px" height="32px" viewBox="0 0 32 32"> <path d="M7 12V12C12.7298 14.5466 19.2702 14.5466 25 12V12" stroke="#000" stroke-width="2" data-color="color-2" fill="none" data-cap="butt"></path> <path d="M7.5 16H4.20026C2.4328 16 1 17.4328 1 19.2003V19.2003C1 20.603 1.2784 22.0255 2.14143 23.1314C3.73623 25.1751 6.05874 26.7427 8.59126 27.8794C13.2694 29.979 18.7308 29.979 23.4089 27.8794C25.9414 26.7427 28.2638 25.175 29.8586 23.1314C30.7216 22.0255 31 20.603 31 19.2002V19.2002C31 17.4328 29.5672 16 27.7997 16L24.5 16" stroke="black" stroke-width="2" stroke-miterlimit="10" fill="none" data-cap="butt"></path> <path d="M6 3.99998L8 21L10.7893 22.2203C14.1111 23.6736 17.8888 23.6736 21.2106 22.2203L24 21L26 3.99998L23.0335 3.25837C18.4156 2.10388 13.5844 2.10388 8.96647 3.25837L6 3.99998Z" stroke="black" stroke-width="2" stroke-linecap="square" fill="none"></path> </svg>