<svg xmlns="http://www.w3.org/2000/svg" xmlns:xlink="http://www.w3.org/1999/xlink" x="0px" y="0px" width="32px" height="32px" viewBox="0 0 32 32"> <path d="M23 10.5V18" stroke="#000" stroke-width="2" data-color="color-2" fill="none" data-cap="butt"></path> <path d="M9 10.5L9 18" stroke="#000" stroke-width="2" data-color="color-2" fill="none" data-cap="butt"></path> <path d="M16 21.5V29.1211" stroke="#000" stroke-width="2" data-color="color-2" fill="none" data-cap="butt"></path> <path d="M16 7L8.99998 10.75L2 7" stroke="#000" stroke-width="2" data-color="color-2" fill="none" data-cap="butt"></path> <path d="M30 7L23 10.75L16 7" stroke="#000" stroke-width="2" data-color="color-2" fill="none" data-cap="butt"></path> <path d="M23 18L16 21.75L9 18" stroke="#000" stroke-width="2" data-color="color-2" fill="none" data-cap="butt"></path> <path d="M8.99998 3L16 6.75V14.25L8.99998 18L2 14.25V6.75L8.99998 3Z" stroke="black" stroke-width="2" fill="none" data-cap="butt"></path> <path d="M23 3L30 6.75V14.25L23 18L16 14.25V6.75L23 3Z" stroke="black" stroke-width="2" fill="none" data-cap="butt"></path> <path d="M16 14.25L23 18V25.5L16 29.25L9 25.5V18L16 14.25Z" stroke="black" stroke-width="2" fill="none" data-cap="butt"></path> </svg>