<svg xmlns="http://www.w3.org/2000/svg" xmlns:xlink="http://www.w3.org/1999/xlink" x="0px" y="0px" width="32px" height="32px" viewBox="0 0 32 32"><path d="M20 7H30" stroke="#000" stroke-width="2" stroke-miterlimit="10" stroke-linecap="square" data-color="color-2" fill="none"></path> <path d="M16 19.5V24.5C16 26.433 12.866 28 9 28C5.13401 28 2 26.433 2 24.5V19.5" stroke="black" stroke-width="2" stroke-miterlimit="10" stroke-linecap="square" fill="none"></path> <path d="M30 19.5V24.5C30 26.433 26.866 28 23 28C19.134 28 16 26.433 16 24.5V19.5" stroke="black" stroke-width="2" stroke-miterlimit="10" fill="none" data-cap="butt"></path> <path d="M23 23C26.866 23 30 21.433 30 19.5C30 17.567 26.866 16 23 16C19.134 16 16 17.567 16 19.5C16 21.433 19.134 23 23 23Z" stroke="black" stroke-width="2" stroke-miterlimit="10" stroke-linecap="square" fill="none"></path> <path d="M9 18C12.866 18 16 16.433 16 14.5C16 12.567 12.866 11 9 11C5.13401 11 2 12.567 2 14.5C2 16.433 5.13401 18 9 18Z" stroke="black" stroke-width="2" stroke-miterlimit="10" stroke-linecap="square" fill="none"></path> <path d="M16 14.5V19.5C16 21.433 12.866 23 9 23C5.13401 23 2 21.433 2 19.5V14.5" stroke="black" stroke-width="2" stroke-miterlimit="10" fill="none" data-cap="butt"></path></svg>