<svg xmlns="http://www.w3.org/2000/svg" xmlns:xlink="http://www.w3.org/1999/xlink" x="0px" y="0px" width="32px" height="32px" viewBox="0 0 32 32"> <path d="M15 25H9.93787H10.5" stroke="#000" stroke-width="2" stroke-linecap="square" data-color="color-2" fill="none"></path> <path d="M10.2879 14.1711L13.5 9L13.3287 9.27577" stroke="#000" stroke-width="2" stroke-linecap="square" data-color="color-2" fill="none"></path> <path d="M22.5 16L25.5 21L25.2219 20.5365" stroke="#000" stroke-width="2" stroke-linecap="square" data-color="color-2" fill="none"></path> <path d="M16 10C18.2091 10 20 8.20914 20 6C20 3.79086 18.2091 2 16 2C13.7909 2 12 3.79086 12 6C12 8.20914 13.7909 10 16 10Z" stroke="black" stroke-width="2" stroke-miterlimit="10" stroke-linecap="square" fill="none"></path> <path d="M26 29C28.2091 29 30 27.2091 30 25C30 22.7909 28.2091 21 26 21C23.7909 21 22 22.7909 22 25C22 27.2091 23.7909 29 26 29Z" stroke="black" stroke-width="2" stroke-miterlimit="10" stroke-linecap="square" fill="none"></path> <path d="M6 29C8.20914 29 10 27.2091 10 25C10 22.7909 8.20914 21 6 21C3.79086 21 2 22.7909 2 25C2 27.2091 3.79086 29 6 29Z" stroke="black" stroke-width="2" stroke-miterlimit="10" stroke-linecap="square" fill="none"></path> </svg>