<svg xmlns="http://www.w3.org/2000/svg" xmlns:xlink="http://www.w3.org/1999/xlink" x="0px" y="0px" width="32px" height="32px" viewBox="0 0 32 32"> <path d="M24 30L8 30C6.34315 30 5 28.6569 5 27L5 3L10.5 6.85714L16 3L21.5 6.85714L27 3L27 27C27 28.6569 25.6569 30 24 30Z" stroke="black" stroke-width="2" stroke-miterlimit="10" stroke-linecap="square" fill="none"></path> <path d="M16 23.5V25" stroke="#000" stroke-width="2" stroke-linecap="square" data-color="color-2" fill="none"></path> <path d="M16 11V12.5" stroke="#000" stroke-width="2" stroke-linecap="square" data-color="color-2" fill="none"></path> <path d="M18.5 12.5H14.75C13.2312 12.5 12 13.7312 12 15.25V15.25C12 16.7688 13.2312 18 14.75 18H17.25C18.7688 18 20 19.2312 20 20.75V20.75C20 22.2688 18.7688 23.5 17.25 23.5H13.5" stroke="#000" stroke-width="2" stroke-linecap="square" data-color="color-2" fill="none"></path> </svg>