<svg xmlns="http://www.w3.org/2000/svg" xmlns:xlink="http://www.w3.org/1999/xlink" x="0px" y="0px" width="48px" height="48px" viewBox="0 0 48 48"> <path d="M13.5 42L5 42L5 5.5L10.6655 5.5L10.5 5.5M34.5 42L43 42L43 5.5L37.5 5.5L38 5.5" stroke="black" stroke-width="2" stroke-miterlimit="10" stroke-linecap="square" fill="none"></path> <path d="M21 19L20 14M28 14L27 19" stroke="#000" stroke-width="2" stroke-miterlimit="10" data-color="color-2" fill="none" data-cap="butt"></path> <path d="M21 18.75L15.5 36L24.0001 45L32.5 36L27 18.75H21Z" stroke="#000" stroke-width="2" stroke-miterlimit="10" stroke-linecap="square" data-color="color-2" fill="none"></path> <path d="M24 13L33 15.25L37.5 5.5L34.9657 4.37366C27.9845 1.27088 20.0155 1.27088 13.0343 4.37366L10.5 5.5L15 15.25L24 13ZM24 13L10.6211 5.52344L10.7754 5.60916M24 13L37.3645 5.5536L37.2534 5.61532" stroke="black" stroke-width="2" stroke-linecap="square" fill="none"></path> </svg>