<svg xmlns="http://www.w3.org/2000/svg" xmlns:xlink="http://www.w3.org/1999/xlink" x="0px" y="0px" width="48px" height="48px" viewBox="0 0 48 48"> <path d="M43 34H34.7857C31.5901 34 29 31.314 29 28C29 24.686 31.5901 22 34.7857 22H43" stroke="#000" stroke-width="2" stroke-miterlimit="10" stroke-linecap="square" data-color="color-2" fill="none"></path> <path d="M24 13.0001H38C40.7614 13.0001 43 15.2386 43 18.0001V38C43 40.7615 40.7614 43 38 43H10C7.23858 43 5 40.7615 5 38V9V9.5" stroke="black" stroke-width="2" stroke-miterlimit="10" stroke-linecap="square" fill="none"></path> <path d="M23.6522 13H9C6.79086 13 5 11.2091 5 9V9C5 6.79086 6.79086 5 9 5H33C35.7614 5 38 7.23858 38 10V13" stroke="black" stroke-width="2" stroke-linecap="square" fill="none"></path> </svg>