<svg xmlns="http://www.w3.org/2000/svg" xmlns:xlink="http://www.w3.org/1999/xlink" x="0px" y="0px" width="48px" height="48px" viewBox="0 0 48 48"> <path d="M29 18L21.5 18C19.0147 18 17 20.0147 17 22.5V22.5C17 24.9853 19.0147 27 21.5 27H26.5C28.9853 27 31 29.0147 31 31.5V31.5C31 33.9853 28.9853 36 26.5 36H19" stroke="#000" stroke-width="2" stroke-linecap="square" data-color="color-2" fill="none"></path> <path d="M24 39V15" stroke="#000" stroke-width="2" stroke-linecap="square" data-color="color-2" fill="none"></path> <path d="M11 8L11 40C11 42.7614 13.2386 45 16 45L32 45C34.7614 45 37 42.7614 37 40L37 8C37 5.23857 34.7614 3 32 3L16 3C13.2386 3 11 5.23858 11 8Z" stroke="black" stroke-width="2" stroke-miterlimit="10" stroke-linecap="square" fill="none"></path> <path d="M26.5 9L21.5 9C21.2239 9 21 8.77614 21 8.5C21 8.22386 21.2239 8 21.5 8L26.5 8C26.7761 8 27 8.22386 27 8.5C27 8.77614 26.7761 9 26.5 9Z" stroke="black" stroke-width="2" stroke-miterlimit="10" stroke-linecap="square" fill="none"></path> </svg>