<svg xmlns="http://www.w3.org/2000/svg" xmlns:xlink="http://www.w3.org/1999/xlink" x="0px" y="0px" width="48px" height="48px" viewBox="0 0 48 48"> <path d="M35 3H7V45H35C37.7614 45 40 42.7614 40 40V8C40 5.23858 37.7614 3 35 3Z" stroke="black" stroke-width="2" stroke-miterlimit="10" stroke-linecap="square" fill="none"></path> <path d="M45 10V16" stroke="#000" stroke-width="2" stroke-miterlimit="10" stroke-linecap="square" data-color="color-2" fill="none"></path> <path d="M45 22V28" stroke="#000" stroke-width="2" stroke-miterlimit="10" stroke-linecap="square" data-color="color-2" fill="none"></path> <path d="M23.5 21C26.2614 21 28.5 18.7614 28.5 16C28.5 13.2386 26.2614 11 23.5 11C20.7386 11 18.5 13.2386 18.5 16C18.5 18.7614 20.7386 21 23.5 21Z" stroke="#000" stroke-width="2" stroke-miterlimit="10" data-color="color-2" fill="none" data-cap="butt"></path> <path d="M23.5 26C17.7014 26 13 30.3781 13 35.778C19.9996 37.4073 27.0004 37.4073 34 35.778C34 30.3781 29.2986 26 23.5 26Z" stroke="#000" stroke-width="2" stroke-miterlimit="10" stroke-linecap="square" data-color="color-2" fill="none"></path> </svg>