<svg xmlns="http://www.w3.org/2000/svg" xmlns:xlink="http://www.w3.org/1999/xlink" x="0px" y="0px" width="48px" height="48px" viewBox="0 0 48 48"> <path d="M40 4L40 40C40 42.7614 37.7614 45 35 45L13 45C10.2386 45 8 42.7614 8 40L8 4L12 7L16 4L20 7L24 4L28 7L32 4L36 7L40 4Z" stroke="black" stroke-width="2" stroke-miterlimit="10" stroke-linecap="square" fill="none"></path> <path d="M29 17L21.5 17C19.0147 17 17 19.0147 17 21.5V21.5C17 23.9853 19.0147 26 21.5 26H26.5C28.9853 26 31 28.0147 31 30.5V30.5C31 32.9853 28.9853 35 26.5 35H19" stroke="#000" stroke-width="2" stroke-linecap="square" data-color="color-2" fill="none"></path> <path d="M24 38V14" stroke="#000" stroke-width="2" stroke-linecap="square" data-color="color-2" fill="none"></path> </svg>