<svg xmlns="http://www.w3.org/2000/svg" xmlns:xlink="http://www.w3.org/1999/xlink" x="0px" y="0px" width="48px" height="48px" viewBox="0 0 48 48"> <path d="M15.7499 37H14.9067H24" stroke="#000" stroke-width="2" stroke-linecap="square" data-color="color-2" fill="none"></path> <path d="M19.7348 13.9597L20 13.5L15.0781 22.0312" stroke="#000" stroke-width="2" stroke-linecap="square" data-color="color-2" fill="none"></path> <path d="M33.0781 22.6406L37.8185 31.1733L37.7533 31.0559" stroke="#000" stroke-width="2" stroke-linecap="square" data-color="color-2" fill="none"></path> <path d="M24 15C27.3137 15 30 12.3137 30 9C30 5.68629 27.3137 3 24 3C20.6863 3 18 5.68629 18 9C18 12.3137 20.6863 15 24 15Z" stroke="black" stroke-width="2" stroke-miterlimit="10" stroke-linecap="square" fill="none"></path> <path d="M39 43C42.3137 43 45 40.3137 45 37C45 33.6863 42.3137 31 39 31C35.6863 31 33 33.6863 33 37C33 40.3137 35.6863 43 39 43Z" stroke="black" stroke-width="2" stroke-miterlimit="10" stroke-linecap="square" fill="none"></path> <path d="M9 43C12.3137 43 15 40.3137 15 37C15 33.6863 12.3137 31 9 31C5.68629 31 3 33.6863 3 37C3 40.3137 5.68629 43 9 43Z" stroke="black" stroke-width="2" stroke-miterlimit="10" stroke-linecap="square" fill="none"></path> </svg>