<svg xmlns="http://www.w3.org/2000/svg" xmlns:xlink="http://www.w3.org/1999/xlink" x="0px" y="0px" width="48px" height="48px" viewBox="0 0 48 48"><path d="M12.5 28C15.2614 28 17.5 25.7614 17.5 23C17.5 20.2386 15.2614 18 12.5 18C9.73858 18 7.5 20.2386 7.5 23C7.5 25.7614 9.73858 28 12.5 28Z" stroke="black" stroke-width="2" stroke-miterlimit="10" fill="none" data-cap="butt"></path> <path d="M12.5 32C6.70137 32 2 36.3781 2 41.778C8.99956 43.4073 16.0004 43.4073 23 41.778C23 36.3781 18.2986 32 12.5 32Z" stroke="black" stroke-width="2" stroke-miterlimit="10" stroke-linecap="square" fill="none"></path> <path d="M33.5 28C40.4036 28 46 22.4036 46 15.5C46 8.59644 40.4036 3 33.5 3C26.5964 3 21 8.59644 21 15.5C21 22.4036 26.5964 28 33.5 28Z" stroke="#000" stroke-width="2" stroke-miterlimit="10" stroke-linecap="square" data-color="color-2" fill="none"></path> <path d="M46 16H21" stroke="#000" stroke-width="2" data-color="color-2" fill="none" data-cap="butt"></path> <path d="M33 28L31.1519 25.4332C26.88 19.5 26.88 11.5 31.1519 5.56682L33 3" stroke="#000" stroke-width="2" data-color="color-2" fill="none" data-cap="butt"></path> <path d="M34 28L35.8481 25.4332C40.12 19.5 40.12 11.5 35.8481 5.56682L34 3" stroke="#000" stroke-width="2" data-color="color-2" fill="none" data-cap="butt"></path></svg>