<svg xmlns="http://www.w3.org/2000/svg" xmlns:xlink="http://www.w3.org/1999/xlink" x="0px" y="0px" width="48px" height="48px" viewBox="0 0 48 48"> <path d="M10 45V36.5V37" stroke="#000" stroke-width="2" stroke-linecap="square" data-color="color-2" fill="none"></path> <path d="M38 45V36.5V37" stroke="#000" stroke-width="2" stroke-linecap="square" data-color="color-2" fill="none"></path> <path d="M15 35.5V45H33V35.5" stroke="#000" stroke-width="2" data-color="color-2" data-cap="butt" fill="none"></path> <path d="M34 17V17.9811C33.5065 22.756 33.5637 25.724 29 28.5214V31.7944C29 33.1066 29.8527 34.2665 31.1052 34.6579L40.0879 37.465C43.0103 38.3782 45 41.0846 45 44.1463V45" stroke="black" stroke-width="2" stroke-linecap="square" fill="none"></path> <path d="M13.9907 17V17.9122C14.4845 22.6857 14.438 25.7249 19 28.5214V31.7944C19 33.1065 18.1473 34.2664 16.8948 34.6578L7.91207 37.4649C4.98975 38.3782 3 41.0846 3 44.1463V45" stroke="black" stroke-width="2" stroke-linecap="square" fill="none"></path> <path d="M20.5 13.5C20.5 11.567 22.067 10 24 10C25.933 10 27.5 11.567 27.5 13.5C27.5 15.433 25.933 17 24 17C22.067 17 20.5 15.433 20.5 13.5Z" stroke="#000" stroke-width="2" stroke-miterlimit="10" data-color="color-2" data-cap="butt" fill="none"></path> <path d="M36 17V14C36 7.37258 30.6274 2 24 2V2C17.3726 2 12 7.37258 12 14V17" stroke="#000" stroke-width="2" stroke-miterlimit="10" data-color="color-2" data-cap="butt" fill="none"></path> <path d="M9 17H39" stroke="#000" stroke-width="2" stroke-linecap="square" data-color="color-2" fill="none"></path> <path d="M24 5V2V2.11081" stroke="#000" stroke-width="2" stroke-linecap="square" data-color="color-2" fill="none"></path> </svg>