<svg xmlns="http://www.w3.org/2000/svg" xmlns:xlink="http://www.w3.org/1999/xlink" x="0px" y="0px" width="48px" height="48px" viewBox="0 0 48 48"> <path d="M21 18.4C19.9554 17.5209 18.6568 17 17.2496 17C13.798 17 11 20.134 11 24C11 27.866 13.798 31 17.2496 31C18.6568 31 19.9554 30.4791 21 29.6" stroke="#000" stroke-width="2" stroke-miterlimit="10" stroke-linecap="square" data-color="color-2" fill="none"></path> <path d="M36 18.4C34.9554 17.5209 33.6568 17 32.2496 17C28.798 17 26 20.134 26 24C26 27.866 28.798 31 32.2496 31C33.6568 31 34.9554 30.4791 36 29.6" stroke="#000" stroke-width="2" stroke-miterlimit="10" stroke-linecap="square" data-color="color-2" fill="none"></path> <path d="M24 45C35.598 45 45 35.598 45 24C45 12.402 35.598 3 24 3C12.402 3 3 12.402 3 24C3 35.598 12.402 45 24 45Z" stroke="black" stroke-width="2" stroke-miterlimit="10" stroke-linecap="square" fill="none"></path> </svg>