<svg xmlns="http://www.w3.org/2000/svg" xmlns:xlink="http://www.w3.org/1999/xlink" x="0px" y="0px" width="48px" height="48px" viewBox="0 0 48 48"> <path d="M24 43C24 43 26.6581 36.8715 31.9929 33.7915C37.3276 30.7115 43.0526 32 43.0526 32C43.0526 32 41.7765 39.6899 36.5371 42.7149C31.2024 45.7949 24 43 24 43Z" stroke="black" stroke-width="2" stroke-miterlimit="10" stroke-linecap="square" fill="none"></path> <path d="M24 42.5V31" stroke="black" stroke-width="2" fill="none" data-cap="butt"></path> <path d="M24 43C24 43 21.3419 36.8715 16.0071 33.7915C10.6724 30.7115 4.94744 32 4.94744 32C4.94744 32 6.22346 39.6899 11.4629 42.7149C16.7976 45.7949 24 43 24 43Z" stroke="black" stroke-width="2" stroke-miterlimit="10" stroke-linecap="square" fill="none"></path> <path d="M24 31C31.732 31 38 24.732 38 17C38 9.26801 31.732 3 24 3C16.268 3 10 9.26801 10 17C10 24.732 16.268 31 24 31Z" stroke="#000" stroke-width="2" stroke-miterlimit="10" stroke-linecap="square" data-color="color-2" fill="none"></path> <path d="M27 11H23C21.3431 11 20 12.3431 20 14V14C20 15.6569 21.3431 17 23 17H25C26.6569 17 28 18.3431 28 20V20C28 21.6569 26.6569 23 25 23H21" stroke="#000" stroke-width="2" stroke-linecap="square" data-color="color-2" fill="none"></path> <path d="M24 9V11" stroke="#000" stroke-width="2" stroke-linecap="square" data-color="color-2" fill="none"></path> <path d="M24 25V23" stroke="#000" stroke-width="2" stroke-linecap="square" data-color="color-2" fill="none"></path> </svg>