<svg xmlns="http://www.w3.org/2000/svg" xmlns:xlink="http://www.w3.org/1999/xlink" x="0px" y="0px" width="48px" height="48px" viewBox="0 0 48 48"> <path d="M30 9L16 9C13.7909 9 12 10.7909 12 13L12 39C12 41.2091 13.7909 43 16 43L32 43C34.2091 43 36 41.2091 36 39L36 18" stroke="black" stroke-width="2" stroke-miterlimit="10" stroke-linecap="square" fill="none"></path> <path d="M30 15H18V27H30V15Z" stroke="#000" stroke-width="2" stroke-miterlimit="10" stroke-linecap="square" data-color="color-2" fill="none"></path> <path d="M35.0002 2C41.0754 2 46.0002 6.92487 46.0002 13" stroke="#000" stroke-width="2" stroke-miterlimit="10" stroke-linecap="square" data-color="color-2" fill="none"></path> <path d="M35 7C38.3137 7 41 9.68629 41 13" stroke="#000" stroke-width="2" stroke-miterlimit="10" stroke-linecap="square" data-color="color-2" fill="none"></path> <path d="M36.0002 12.9998C36.0002 12.4475 35.5525 11.9998 35.0002 11.9998L35.0002 12.9998L36.0002 12.9998Z" stroke="#000" stroke-width="2" stroke-miterlimit="10" stroke-linecap="square" data-color="color-2" fill="none"></path> </svg>