<svg xmlns="http://www.w3.org/2000/svg" xmlns:xlink="http://www.w3.org/1999/xlink" x="0px" y="0px" width="48px" height="48px" viewBox="0 0 48 48"> <path d="M6 13H3V39H45V13H33.75" stroke="black" stroke-width="2" stroke-miterlimit="10" stroke-linecap="square" fill="none"></path> <path d="M9 34H20" stroke="black" stroke-width="2" stroke-linecap="square" fill="none"></path> <path d="M25 34H27" stroke="black" stroke-width="2" stroke-linecap="square" fill="none"></path> <path d="M9 29H14" stroke="black" stroke-width="2" stroke-linecap="square" fill="none"></path> <path d="M17.6139 20.5233L29.4315 8.70558C30.85 7.28702 30.85 4.98709 29.4315 3.56854C28.0129 2.14997 25.713 2.14997 24.2944 3.56853L12.4768 15.3861L12 21L17.6139 20.5233Z" stroke="#000" stroke-width="2" stroke-miterlimit="10" stroke-linecap="square" data-color="color-2" fill="none"></path> <path d="M39 23.5H36.25C35.0074 23.5 34 24.5074 34 25.75V25.75C34 26.9926 35.0074 28 36.25 28H37.75C38.9926 28 40 29.0074 40 30.25V30.25C40 31.4926 38.9926 32.5 37.75 32.5H35" stroke="#000" stroke-width="2" stroke-linecap="square" data-color="color-2" fill="none"></path> <path d="M37 23.5V22" stroke="#000" stroke-width="2" stroke-linecap="square" data-color="color-2" fill="none"></path> <path d="M37 34V32.5" stroke="#000" stroke-width="2" stroke-linecap="square" data-color="color-2" fill="none"></path> </svg>