<svg xmlns="http://www.w3.org/2000/svg" xmlns:xlink="http://www.w3.org/1999/xlink" x="0px" y="0px" width="24px" height="24px" viewBox="0 0 24 24"><circle cx="12" cy="5.5" r="4.5" stroke-width="0" fill="#000"></circle><path d="m15.354,21h-2.354c-1.104,0-2-.896-2-2v-2c0-1.104.896-2,2-2h2.354c-.411-.711-.327-1.611.21-2.261-1.094-.474-2.297-.739-3.563-.739-4.962,0-9,4.038-9,9v.781l.757.189c2.735.684,5.489,1.025,8.243,1.025,1.09,0,2.18-.069,3.269-.176-.262-.582-.239-1.261.084-1.819Z" stroke-width="0" fill="#000"></path><polygon points="18.5 12.586 17.086 14 20.086 17 13 17 13 19 20.086 19 17.086 22 18.5 23.414 23.914 18 18.5 12.586" fill="#000" stroke-width="0" data-color="color-2"></polygon></svg>