<svg xmlns="http://www.w3.org/2000/svg" xmlns:xlink="http://www.w3.org/1999/xlink" x="0px" y="0px" width="24px" height="24px" viewBox="0 0 24 24"><path d="m11.037,20.498c.917.32,1.915.502,2.963.502.951,0,1.859-.153,2.704-.419l5.296,1.419-1.17-4.368c.639-.918,1.03-1.976,1.128-3.107" fill="none" stroke="#000" stroke-linecap="square" stroke-miterlimit="10" stroke-width="2" data-color="color-2"></path><path d="m11,1C6.029,1,2,4.582,2,9c0,1.522.487,2.94,1.317,4.151l-1.317,4.915,5.87-1.573c.976.322,2.028.507,3.13.507,4.971,0,9-3.582,9-8S15.971,1,11,1Z" fill="none" stroke="#000" stroke-linecap="square" stroke-miterlimit="10" stroke-width="2"></path></svg>