<svg xmlns="http://www.w3.org/2000/svg" xmlns:xlink="http://www.w3.org/1999/xlink" x="0px" y="0px" width="32px" height="32px" viewBox="0 0 32 32"> <path d="M13.5 4.1908C6.96085 5.20123 2 10.1044 2 16C2 18.421 2.844 20.671 4.282 22.556L3 28L9.271 26.523C11.268 27.463 13.56 28 16 28C23.0645 28 28.9069 23.5146 29.863 17.6855" stroke="black" stroke-width="2" stroke-miterlimit="10" stroke-linecap="square" fill="none"></path> <path d="M23 15C26.3137 15 29 12.3137 29 9C29 5.68629 26.3137 3 23 3C19.6863 3 17 5.68629 17 9C17 12.3137 19.6863 15 23 15Z" stroke="#000" stroke-width="2" stroke-miterlimit="10" stroke-linecap="square" data-color="color-2" fill="none"></path> <path d="M22 3L22.5 2H23.5L24 3" stroke="#000" stroke-width="2" stroke-miterlimit="10" data-color="color-2" data-cap="butt" fill="none"></path> <path d="M26.536 4.05002L27.596 3.69702L28.303 4.40402L27.95 5.46402" stroke="#000" stroke-width="2" stroke-miterlimit="10" data-color="color-2" data-cap="butt" fill="none"></path> <path d="M29 8L30 8.5V9.5L29 10" stroke="#000" stroke-width="2" stroke-miterlimit="10" data-color="color-2" data-cap="butt" fill="none"></path> <path d="M27.95 12.536L28.303 13.596L27.596 14.303L26.536 13.95" stroke="#000" stroke-width="2" stroke-miterlimit="10" data-color="color-2" data-cap="butt" fill="none"></path> <path d="M24 15L23.5 16H22.5L22 15" stroke="#000" stroke-width="2" stroke-miterlimit="10" data-color="color-2" data-cap="butt" fill="none"></path> <path d="M19.464 13.95L18.404 14.303L17.697 13.596L18.05 12.536" stroke="#000" stroke-width="2" stroke-miterlimit="10" data-color="color-2" data-cap="butt" fill="none"></path> <path d="M17 10L16 9.5V8.5L17 8" stroke="#000" stroke-width="2" stroke-miterlimit="10" data-color="color-2" data-cap="butt" fill="none"></path> <path d="M18.05 5.46402L17.697 4.40402L18.404 3.69702L19.464 4.05002" stroke="#000" stroke-width="2" stroke-miterlimit="10" data-color="color-2" data-cap="butt" fill="none"></path> </svg>