<svg xmlns="http://www.w3.org/2000/svg" xmlns:xlink="http://www.w3.org/1999/xlink" x="0px" y="0px" width="18px" height="18px" viewBox="0 0 18 18"><path d="M6.25 11.75H11.75" stroke="#000" stroke-width="1.5" stroke-linecap="round" stroke-linejoin="round" data-color="color-2" fill="none"></path> <path d="M6.75 3.75V3C6.75 1.757 7.757 0.75 9 0.75C10.243 0.75 11.25 1.757 11.25 3V3.75" stroke="#000" stroke-width="1.5" stroke-linecap="round" stroke-linejoin="round" data-color="color-2" fill="none"></path> <path d="M6.25 16.25V10.75C6.25 9.645 7.145 8.75 8.25 8.75H9.75C10.855 8.75 11.75 9.645 11.75 10.75V16.25" stroke="#000" stroke-width="1.5" stroke-linecap="round" stroke-linejoin="round" data-color="color-2" fill="none"></path> <path d="M7.25 3.75H10.75C12.959 3.75 14.75 5.541 14.75 7.75V14.25C14.75 15.355 13.855 16.25 12.75 16.25H5.25C4.145 16.25 3.25 15.355 3.25 14.25V7.75C3.25 5.541 5.041 3.75 7.25 3.75Z" stroke="black" stroke-width="1.5" stroke-linecap="round" stroke-linejoin="round" fill="none"></path></svg>