<svg xmlns="http://www.w3.org/2000/svg" xmlns:xlink="http://www.w3.org/1999/xlink" x="0px" y="0px" width="20px" height="20px" viewBox="0 0 20 20"><path d="m15.4307,6.8166c-1.3852-1.0985-2.879-.8031-4.0795-.5654-.9336.1841-1.6526.1875-2.5598-.0112-1.155-.251-2.5921-.5654-4.1044.5639-2.1864,1.6336-2.2563,5.4999-.1593,8.8019,1.7953,2.8298,3.7608,2.4675,4.9334,2.2483.4604-.0859.7229-.085,1.1834,0,.3558.0659.784.1455,1.2581.1455,1.091,0,2.4244-.4209,3.6752-2.3938,2.1595-3.4035,1.6555-7.3635-.1471-8.7892Z" stroke-width="0" fill="#000"></path><path d="m13.3333,1.5h0c.368,0,.6667.2987.6667.6667h0c0,1.84-1.4933,3.3333-3.3333,3.3333h0c-.368,0-.6667-.2987-.6667-.6667h0c0-1.84,1.4933-3.3333,3.3333-3.3333Z" fill="#000" stroke-width="0" data-color="color-2"></path></svg>