<svg xmlns="http://www.w3.org/2000/svg" xmlns:xlink="http://www.w3.org/1999/xlink" x="0px" y="0px" width="20px" height="20px" viewBox="0 0 20 20"><path d="m10.6309,2.2236c-.2129-.1724-.4932-.248-.7588-.2153-.2725.0352-.5176.1802-.6797.4019l-2.7227,3.7256-.7646-.4243c-.2822-.1572-.624-.1675-.917-.0278-.292.1396-.499.4121-.5537.7314-.1162.6748-.6982,4.0864-.6982,5.022,0,4.1079,3.2861,6.563,6.4639,6.563s6.4639-2.4551,6.4639-6.563c0-4.4233-5.5947-9.0195-5.833-9.2134Zm-.6309,13.7764c-1.1953,0-2.167-.9717-2.167-2.1665,0-1.8247,1.7363-3.6094,1.8105-3.6841.1875-.1914.5254-.1914.7129,0,.0742.0747,1.8105,1.8594,1.8105,3.6841,0,1.1948-.9717,2.1665-2.167,2.1665Z" stroke-width="0" fill="#000"></path></svg>