<svg xmlns="http://www.w3.org/2000/svg" xmlns:xlink="http://www.w3.org/1999/xlink" x="0px" y="0px" width="20px" height="20px" viewBox="0 0 20 20"><path d="m5.309,14.691L16.029,3.971c-.803-.597-1.788-.964-2.868-.971-1.18.015-2.297.455-3.161,1.215-.866-.761-1.987-1.2-3.18-1.215-2.668.017-4.83,2.198-4.82,4.859,0,2.923,1.59,5.208,3.309,6.832Z" stroke-width="0" fill="#000"></path><path d="m7.69,16.552c.559.362,1.044.634,1.376.807.293.153.613.229.935.229s.641-.077.932-.229c1.658-.865,7.068-4.105,7.068-9.497.002-.488-.091-.951-.225-1.396l-10.085,10.085Z" stroke-width="0" fill="#000"></path><path d="m3,18c-.256,0-.512-.098-.707-.293-.391-.391-.391-1.023,0-1.414L16.293,2.293c.391-.391,1.023-.391,1.414,0s.391,1.023,0,1.414L3.707,17.707c-.195.195-.451.293-.707.293Z" fill="#000" stroke-width="0" data-color="color-2"></path></svg>