<svg xmlns="http://www.w3.org/2000/svg" xmlns:xlink="http://www.w3.org/1999/xlink" x="0px" y="0px" width="18px" height="18px" viewBox="0 0 18 18"><path d="m2.762,15.989l6.074-6.075c.781-.781,2.047-.781,2.828,0l2.586,2.586" fill="none" stroke="#000" stroke-linecap="round" stroke-linejoin="round" stroke-width="1.5"></path><path d="m5.25,9.5c.69,0,1.25-.5596,1.25-1.25s-.56-1.25-1.25-1.25-1.25.5596-1.25,1.25.56,1.25,1.25,1.25Z" stroke-width="0" fill="#000"></path><path d="m4.0452,3.75h-.2952c-1.105,0-2,.8955-2,2v8.5c0,1.1045.895,2,2,2h8.5c1.105,0,2-.8955,2-2v-5.2931" fill="none" stroke="#000" stroke-linecap="round" stroke-linejoin="round" stroke-width="1.5"></path><polyline points="11.5 4.75 7 4.75 7 4.2685 9.875 .75 10.25 .75 10.25 6" fill="none" stroke="#000" stroke-linecap="round" stroke-linejoin="round" stroke-width="1.5" data-color="color-2"></polyline><line x1="13.75" y1=".75" x2="13.75" y2="6" fill="none" stroke="#000" stroke-linecap="round" stroke-linejoin="round" stroke-width="1.5" data-color="color-2"></line><line x1="17.25" y1=".75" x2="13.75" y2="4.3578" fill="none" stroke="#000" stroke-linecap="round" stroke-linejoin="round" stroke-width="1.5" data-color="color-2"></line><line x1="17.25" y1="6" x2="15.2098" y2="2.8919" fill="none" stroke="#000" stroke-linecap="round" stroke-linejoin="round" stroke-width="1.5" data-color="color-2"></line></svg>