<svg xmlns="http://www.w3.org/2000/svg" xmlns:xlink="http://www.w3.org/1999/xlink" x="0px" y="0px" width="18px" height="18px" viewBox="0 0 18 18"><path d="M7.5 6H6V7.5H7.5V6Z" fill="#000" data-color="color-2" data-stroke="none"></path> <path d="M10.5 6H9V7.5H10.5V6Z" fill="#000" data-color="color-2" data-stroke="none"></path> <path d="M12 7.5H10.5V9H12V7.5Z" fill="#000" data-color="color-2" data-stroke="none"></path> <path d="M9 7.5H7.5V9H9V7.5Z" fill="#000" data-color="color-2" data-stroke="none"></path> <path d="M7.5 9H6V10.5H7.5V9Z" fill="#000" data-color="color-2" data-stroke="none"></path> <path d="M10.5 9H9V10.5H10.5V9Z" fill="#000" data-color="color-2" data-stroke="none"></path> <path d="M12 10.5H10.5V12H12V10.5Z" fill="#000" data-color="color-2" data-stroke="none"></path> <path d="M9 10.5H7.5V12H9V10.5Z" fill="#000" data-color="color-2" data-stroke="none"></path> <path d="M6.75 3.75H12.25C13.3546 3.75 14.25 4.6454 14.25 5.75V16.25" stroke="black" stroke-width="1.5" stroke-linecap="round" stroke-linejoin="round" fill="none"></path> <path d="M1.75 3.75H3.75" stroke="black" stroke-width="1.5" stroke-linecap="round" stroke-linejoin="round" fill="none"></path> <path d="M16.25 14.25H5.75C4.6454 14.25 3.75 13.3546 3.75 12.25V1.75" stroke="black" stroke-width="1.5" stroke-linecap="round" stroke-linejoin="round" fill="none"></path></svg>