<svg xmlns="http://www.w3.org/2000/svg" xmlns:xlink="http://www.w3.org/1999/xlink" x="0px" y="0px" width="18px" height="18px" viewBox="0 0 18 18"><path d="M10.704 6.042L8.396 4.696C7.999 4.464 7.5 4.751 7.5 5.211V7.904C7.5 8.364 7.999 8.651 8.396 8.419L10.704 7.073C11.098 6.843 11.098 6.272 10.704 6.042Z" fill="#000" data-color="color-2" data-stroke="none"></path> <path d="M11.75 14.25H16.25" stroke="#000" stroke-width="1.5" stroke-linecap="round" stroke-linejoin="round" data-color="color-2" fill="none"></path> <path d="M1.75 14.25H8.75" stroke="#000" stroke-width="1.5" stroke-linecap="round" stroke-linejoin="round" data-color="color-2" fill="none"></path> <path d="M13.75 5.25C13.554 5.25 13.365 5.278 13.182 5.321C12.855 3.299 11.115 1.75 9 1.75C6.885 1.75 5.145 3.299 4.818 5.321C4.635 5.278 4.446 5.25 4.25 5.25C2.869 5.25 1.75 6.369 1.75 7.75C1.75 9.131 2.869 10.25 4.25 10.25H13.75C15.131 10.25 16.25 9.131 16.25 7.75C16.25 6.369 15.131 5.25 13.75 5.25Z" stroke="black" stroke-width="1.5" stroke-linecap="round" stroke-linejoin="round" fill="none"></path> <path d="M8.75 16V12.5" stroke="#000" stroke-width="1.5" stroke-linecap="round" stroke-linejoin="round" data-color="color-2" fill="none"></path></svg>