<svg xmlns="http://www.w3.org/2000/svg" xmlns:xlink="http://www.w3.org/1999/xlink" x="0px" y="0px" width="18px" height="18px" viewBox="0 0 18 18"><path d="M9,13.25H2.75c-.552,0-1-.448-1-1v-2.5c0-.552,.448-1,1-1h6.25" fill="none" stroke="#000" stroke-linecap="round" stroke-linejoin="round" stroke-width="1.5"></path><path d="M11.75,8.75h3.5c.552,0,1,.448,1,1v2.5c0,.552-.448,1-1,1h-3.5" fill="none" stroke="#000" stroke-linecap="round" stroke-linejoin="round" stroke-width="1.5" data-color="color-2"></path><path d="M10.75,4.25l-1.75,2-1.75-2v-1.5c0-.552,.448-1,1-1h1.5c.552,0,1,.448,1,1v1.5Z" fill="none" stroke="#000" stroke-linecap="round" stroke-linejoin="round" stroke-width="1.5"></path><line x1="9" y1="6.25" x2="9" y2="16.25" fill="none" stroke="#000" stroke-linecap="round" stroke-linejoin="round" stroke-width="1.5"></line></svg>