<svg xmlns="http://www.w3.org/2000/svg" xmlns:xlink="http://www.w3.org/1999/xlink" x="0px" y="0px" width="18px" height="18px" viewBox="0 0 18 18"><path d="M11.221,3.638c.879-.635,2.114-.556,2.906,.235h0c.792,.792,.87,2.026,.235,2.906" fill="none" stroke="#000" stroke-linecap="round" stroke-linejoin="round" stroke-width="1.5" data-color="color-2"></path><path d="M14.362,11.221c.635,.879,.556,2.114-.235,2.906h0c-.792,.792-2.026,.87-2.906,.235" fill="none" stroke="#000" stroke-linecap="round" stroke-linejoin="round" stroke-width="1.5" data-color="color-2"></path><path d="M6.779,14.362c-.879,.635-2.114,.556-2.906-.235h0c-.792-.792-.87-2.026-.235-2.906" fill="none" stroke="#000" stroke-linecap="round" stroke-linejoin="round" stroke-width="1.5" data-color="color-2"></path><path d="M3.638,6.779c-.635-.879-.556-2.114,.235-2.906h0c.792-.792,2.026-.87,2.906-.235" fill="none" stroke="#000" stroke-linecap="round" stroke-linejoin="round" stroke-width="1.5" data-color="color-2"></path><rect x="6.75" y="1.75" width="4.5" height="6" rx="2.25" ry="2.25" fill="none" stroke="#000" stroke-linecap="round" stroke-linejoin="round" stroke-width="1.5"></rect><rect x="11" y="6" width="4.5" height="6" rx="2.25" ry="2.25" transform="translate(22.25 -4.25) rotate(90)" fill="none" stroke="#000" stroke-linecap="round" stroke-linejoin="round" stroke-width="1.5"></rect><rect x="6.75" y="10.25" width="4.5" height="6" rx="2.25" ry="2.25" transform="translate(18 26.5) rotate(180)" fill="none" stroke="#000" stroke-linecap="round" stroke-linejoin="round" stroke-width="1.5"></rect><rect x="2.5" y="6" width="4.5" height="6" rx="2.25" ry="2.25" transform="translate(-4.25 13.75) rotate(-90)" fill="none" stroke="#000" stroke-linecap="round" stroke-linejoin="round" stroke-width="1.5"></rect></svg>