<svg xmlns="http://www.w3.org/2000/svg" xmlns:xlink="http://www.w3.org/1999/xlink" x="0px" y="0px" width="18px" height="18px" viewBox="0 0 18 18"><path d="M4.75 8.5V12.75" stroke="black" stroke-width="1.5" stroke-linecap="round" stroke-linejoin="round" fill="none"></path> <path d="M11.25 10.75V12.75" stroke="black" stroke-width="1.5" stroke-linecap="round" stroke-linejoin="round" fill="none"></path> <path d="M8 6.25V12.75" stroke="black" stroke-width="1.5" stroke-linecap="round" stroke-linejoin="round" fill="none"></path> <path d="M14.25 9.19389V13.75C14.25 14.855 13.355 15.75 12.25 15.75H3.75C2.645 15.75 1.75 14.855 1.75 13.75V5.25C1.75 4.145 2.645 3.25 3.75 3.25H8.95151" stroke="black" stroke-width="1.5" stroke-linecap="round" stroke-linejoin="round" fill="none"></path> <path d="M13.7959 6.20419L16.9571 3.043C17.3476 2.6525 17.3476 2.0193 16.9571 1.6288L16.3713 1.043C15.9808 0.652497 15.3476 0.652497 14.9571 1.043L11.7959 4.20419L11.0001 7.0001L13.7959 6.20419Z" stroke="#000" stroke-width="1.5" stroke-linecap="round" stroke-linejoin="round" data-color="color-2" fill="none"></path></svg>