<svg xmlns="http://www.w3.org/2000/svg" xmlns:xlink="http://www.w3.org/1999/xlink" x="0px" y="0px" width="18px" height="18px" viewBox="0 0 18 18"><path d="M15.25,7.75c-.414,0-.75-.336-.75-.75V3.75c0-.138-.112-.25-.25-.25H3.75c-.138,0-.25,.112-.25,.25v3.25c0,.414-.336,.75-.75,.75s-.75-.336-.75-.75V3.75c0-.965,.785-1.75,1.75-1.75H14.25c.965,0,1.75,.785,1.75,1.75v3.25c0,.414-.336,.75-.75,.75Z" fill="#000"></path><path d="M14.25,9H3.75c-1.517,0-2.75,1.233-2.75,2.75v3.5c0,.414,.336,.75,.75,.75s.75-.336,.75-.75v-1.25H15.5v1.25c0,.414,.336,.75,.75,.75s.75-.336,.75-.75v-3.5c0-1.517-1.233-2.75-2.75-2.75Z" fill="#000"></path><path d="M8.25,5h-2.5c-.414,0-.75,.336-.75,.75v1.75h3.25v-2.5Z" fill="#000" data-color="color-2"></path><path d="M12.25,5h-2.5v2.5h3.25v-1.75c0-.414-.336-.75-.75-.75Z" fill="#000" data-color="color-2"></path></svg>