<svg xmlns="http://www.w3.org/2000/svg" xmlns:xlink="http://www.w3.org/1999/xlink" x="0px" y="0px" width="18px" height="18px" viewBox="0 0 18 18"><path d="M17,7.75v-1.5c0-.965-.785-1.75-1.75-1.75h-.775c.012-.082,.025-.165,.025-.25v-1.5c0-.965-.785-1.75-1.75-1.75h-4c-.372,0-.716,.119-1,.318-.284-.199-.628-.318-1-.318H2.75c-.965,0-1.75,.785-1.75,1.75v1.5c0,.965,.785,1.75,1.75,1.75h.775c-.012,.082-.025,.165-.025,.25v1.5c0,.085,.013,.168,.025,.25h-.775c-.965,0-1.75,.785-1.75,1.75v1.5c0,.965,.785,1.75,1.75,1.75h.775c-.012,.082-.025,.165-.025,.25v1.5c0,.965,.785,1.75,1.75,1.75h4c.372,0,.716-.119,1-.318,.284,.199,.628,.318,1,.318h4c.965,0,1.75-.785,1.75-1.75v-1.5c0-.965-.785-1.75-1.75-1.75h-.775c.012-.082,.025-.165,.025-.25v-1.5c0-.085-.013-.168-.025-.25h.775c.965,0,1.75-.785,1.75-1.75ZM8.75,2.5h4c.138,0,.25,.112,.25,.25v1.5c0,.138-.112,.25-.25,.25h-4c-.138,0-.25-.112-.25-.25v-1.5c0-.138,.112-.25,.25-.25Zm-3.75,5.25v-1.5c0-.138,.112-.25,.25-.25h4c.138,0,.25,.112,.25,.25v1.5c0,.138-.112,.25-.25,.25H5.25c-.138,0-.25-.112-.25-.25Zm4.25,7.25H5.25c-.138,0-.25-.112-.25-.25v-1.5c0-.138,.112-.25,.25-.25h4c.138,0,.25,.112,.25,.25v1.5c0,.138-.112,.25-.25,.25Zm3.75-5.25v1.5c0,.138-.112,.25-.25,.25h-4c-.138,0-.25-.112-.25-.25v-1.5c0-.138,.112-.25,.25-.25h4c.138,0,.25,.112,.25,.25Z" fill="#000"></path></svg>