<svg xmlns="http://www.w3.org/2000/svg" xmlns:xlink="http://www.w3.org/1999/xlink" x="0px" y="0px" width="18px" height="18px" viewBox="0 0 18 18"><path d="M9 7.2505C10.5188 7.2505 11.75 6.0195 11.75 4.5005C11.75 2.9815 10.5188 1.7505 9 1.7505C7.4812 1.7505 6.25 2.9815 6.25 4.5005C6.25 6.0195 7.4812 7.2505 9 7.2505Z" stroke="black" stroke-width="1.5" stroke-linecap="round" stroke-linejoin="round" fill="none"></path> <path d="M17.25 17.2505L15 15.0005L12.75 17.2505V11.7505C12.75 11.1985 13.198 10.7505 13.75 10.7505H16.25C16.802 10.7505 17.25 11.1985 17.25 11.7505V17.2505Z" stroke="#000" stroke-width="1.5" stroke-linecap="round" stroke-linejoin="round" data-color="color-2" fill="none"></path> <path d="M10.2301 9.8909C9.83089 9.8089 9.42329 9.7505 8.99999 9.7505C6.44899 9.7505 4.26099 11.2805 3.29099 13.4705C2.92599 14.2955 3.37799 15.2444 4.23799 15.5154C5.46299 15.9014 7.08389 16.2495 8.99999 16.2495C9.26039 16.2495 9.50229 16.23 9.74999 16.2163" stroke="black" stroke-width="1.5" stroke-linecap="round" stroke-linejoin="round" fill="none"></path></svg>