<svg xmlns="http://www.w3.org/2000/svg" xmlns:xlink="http://www.w3.org/1999/xlink" x="0px" y="0px" width="18px" height="18px" viewBox="0 0 18 18"><path d="M14.5,9h0c1.38,0,2.5,1.12,2.5,2.5h0c0,.276-.224,.5-.5,.5h0c-1.38,0-2.5-1.12-2.5-2.5h0c0-.276,.224-.5,.5-.5Z" fill="#000" data-stroke="none"></path><circle cx="9" cy="6.5" r="3.75" fill="none" stroke="#000" stroke-linecap="round" stroke-linejoin="round" stroke-width="1.5"></circle><path d="M12.75,6.5c0-2.071-1.679-3.75-3.75-3.75s-3.75,1.679-3.75,3.75c0,.085,.019,.165,.025,.249,1.555-.009,2.923-.811,3.725-2.02,.802,1.21,2.17,2.011,3.725,2.02,.006-.084,.025-.164,.025-.249Z" fill="#000" data-stroke="none"></path><path d="M2.953,16c1.298-1.958,3.522-3.25,6.047-3.25s4.749,1.291,6.047,3.25" fill="none" stroke="#000" stroke-linecap="round" stroke-linejoin="round" stroke-width="1.5" data-color="color-2"></path><path d="M9.447,16.105l1.536-3.072c-.631-.179-1.294-.283-1.983-.283s-1.352,.104-1.983,.283l1.536,3.072c.184,.369,.71,.369,.894,0Z" fill="#000" data-color="color-2" data-stroke="none"></path></svg>