<svg xmlns="http://www.w3.org/2000/svg" xmlns:xlink="http://www.w3.org/1999/xlink" x="0px" y="0px" width="18px" height="18px" viewBox="0 0 18 18"><path d="M9 7.25049C10.519 7.25049 11.75 6.01949 11.75 4.50049C11.75 2.98149 10.519 1.7505 9 1.7505C7.481 1.7505 6.25 2.98149 6.25 4.50049C6.25 6.01949 7.481 7.25049 9 7.25049Z" stroke="black" stroke-width="1.5" stroke-linecap="round" stroke-linejoin="round" fill="none"></path> <path d="M12.75 17.2505C13.578 17.2505 14.25 16.5785 14.25 15.7505C14.25 14.9225 13.578 14.2505 12.75 14.2505C11.922 14.2505 11.25 14.9225 11.25 15.7505C11.25 16.5785 11.922 17.2505 12.75 17.2505Z" stroke="#000" stroke-width="1.5" stroke-linecap="round" stroke-linejoin="round" data-color="color-2" fill="none"></path> <path d="M14.25 15.7505V10.7505C14.567 11.0735 14.98 11.4425 15.5 11.7975C15.95 12.1045 16.379 12.3325 16.75 12.5005" stroke="#000" stroke-width="1.5" stroke-linecap="round" stroke-linejoin="round" data-color="color-2" fill="none"></path> <path d="M11.3055 10.2056C10.5916 9.9185 9.81799 9.75049 8.99999 9.75049C6.44899 9.75049 4.26099 11.2805 3.29099 13.4705C2.92599 14.2955 3.37799 15.2444 4.23799 15.5157C5.30549 15.8521 6.69308 16.1419 8.29678 16.2144" stroke="black" stroke-width="1.5" stroke-linecap="round" stroke-linejoin="round" fill="none"></path></svg>