<svg xmlns="http://www.w3.org/2000/svg" xmlns:xlink="http://www.w3.org/1999/xlink" x="0px" y="0px" width="18px" height="18px" viewBox="0 0 18 18"><circle cx="9" cy="7" r="2" fill="none" stroke="#000" stroke-linecap="round" stroke-linejoin="round" stroke-width="1.5" data-color="color-2"></circle><path d="M5.801,15.776c-.489-.148-.818-.635-.709-1.135,.393-1.797,1.993-3.142,3.908-3.142s3.515,1.345,3.908,3.142c.109,.499-.219,.987-.709,1.135-.821,.248-1.911,.474-3.199,.474s-2.378-.225-3.199-.474Z" fill="none" stroke="#000" stroke-linecap="round" stroke-linejoin="round" stroke-width="1.5" data-color="color-2"></path><circle cx="13.75" cy="3.25" r="1.5" fill="none" stroke="#000" stroke-linecap="round" stroke-linejoin="round" stroke-width="1.5"></circle><path d="M13.584,7.248c.055-.002,.11-.004,.166-.004,1.673,0,3.079,1.147,3.473,2.697,.13,.511-.211,1.02-.718,1.167-.643,.186-1.457,.352-2.403,.385" fill="none" stroke="#000" stroke-linecap="round" stroke-linejoin="round" stroke-width="1.5"></path><circle cx="4.25" cy="3.25" r="1.5" fill="none" stroke="#000" stroke-linecap="round" stroke-linejoin="round" stroke-width="1.5"></circle><path d="M4.416,7.248c-.055-.002-.11-.004-.166-.004-1.673,0-3.079,1.147-3.473,2.697-.13,.511,.211,1.02,.718,1.167,.643,.186,1.457,.352,2.403,.385" fill="none" stroke="#000" stroke-linecap="round" stroke-linejoin="round" stroke-width="1.5"></path></svg>