<svg xmlns="http://www.w3.org/2000/svg" xmlns:xlink="http://www.w3.org/1999/xlink" x="0px" y="0px" width="18px" height="18px" viewBox="0 0 18 18"><polyline points="10.75 6.75 12.25 8.25 14.5 4.75" fill="none" stroke="#000" stroke-linecap="round" stroke-linejoin="round" stroke-width="1.5" data-color="color-2"></polyline><path d="M12.75,1.75c-2.485,0-4.5,2.014-4.5,4.498,0,.819,.222,1.583,.604,2.245,.267,.5-.033,1.682-.604,2.254,.776,.042,1.798-.308,2.254-.604,.304,.175,.785,.407,1.415,.526,.269,.051,.547,.078,.83,.078,2.485,0,4.5-2.014,4.5-4.498S15.235,1.75,12.75,1.75Z" fill="none" stroke="#000" stroke-linecap="round" stroke-linejoin="round" stroke-width="1.5" data-color="color-2"></path><circle cx="3.75" cy="8.25" r="2" fill="none" stroke="#000" stroke-linecap="round" stroke-linejoin="round" stroke-width="1.5"></circle><path d="M.75,15.5c0-1.657,1.343-3,3-3h0c1.657,0,3,1.343,3,3" fill="none" stroke="#000" stroke-linecap="round" stroke-linejoin="round" stroke-width="1.5"></path></svg>