<svg xmlns="http://www.w3.org/2000/svg" xmlns:xlink="http://www.w3.org/1999/xlink" x="0px" y="0px" width="18px" height="18px" viewBox="0 0 18 18"><path d="M9 9.75049C10.1046 9.75049 11 8.85549 11 7.75049C11 6.64549 10.1046 5.75049 9 5.75049C7.8954 5.75049 7 6.64549 7 7.75049C7 8.85549 7.8954 9.75049 9 9.75049Z" stroke="#000" stroke-width="1.5" stroke-linecap="round" stroke-linejoin="round" data-color="color-2" fill="none"></path> <path d="M5.15399 15.1475C5.63299 13.4745 7.17299 12.2505 8.99999 12.2505C10.827 12.2505 12.367 13.4745 12.846 15.1475" stroke="#000" stroke-width="1.5" stroke-linecap="round" stroke-linejoin="round" data-color="color-2" fill="none"></path> <path d="M1.75 3.25L2.29 6.25C3.373 3.61 5.969 1.75 9 1.75C13.004 1.75 16.25 5 16.25 9C16.25 13 13.004 16.25 9 16.25C5.0635 16.25 1.8596 13.1086 1.7528 9.2016" stroke="black" stroke-width="1.5" stroke-linecap="round" stroke-linejoin="round" fill="none"></path></svg>