<svg xmlns="http://www.w3.org/2000/svg" xmlns:xlink="http://www.w3.org/1999/xlink" x="0px" y="0px" width="18px" height="18px" viewBox="0 0 18 18"><circle cx="9" cy="7.75" r="2" fill="none" stroke="#000" stroke-linecap="round" stroke-linejoin="round" stroke-width="1.5" data-color="color-2"></circle><path d="M9,16.25c1.407,0,2.716-.407,3.827-1.101-.481-1.67-2.003-2.899-3.827-2.899s-3.347,1.229-3.827,2.899c1.112,.694,2.42,1.101,3.827,1.101Z" fill="none" stroke="#000" stroke-linecap="round" stroke-linejoin="round" stroke-width="1.5" data-color="color-2"></path><circle cx="1.889" cy="10.414" r=".75" fill="#000" data-stroke="none"></circle><circle cx="2.971" cy="4.972" r=".75" fill="#000" data-stroke="none"></circle><circle cx="2.972" cy="13.027" r=".75" fill="#000" data-stroke="none"></circle><circle cx="1.89" cy="7.586" r=".75" fill="#000" data-stroke="none"></circle><circle cx="4.973" cy="2.972" r=".75" fill="#000" data-stroke="none"></circle><circle cx="7.586" cy="1.889" r=".75" fill="#000" data-stroke="none"></circle><circle cx="15.029" cy="13.028" r=".75" fill="#000" data-stroke="none"></circle><circle cx="16.111" cy="7.586" r=".75" fill="#000" data-stroke="none"></circle><circle cx="13.028" cy="2.971" r=".75" fill="#000" data-stroke="none"></circle><circle cx="16.11" cy="10.414" r=".75" fill="#000" data-stroke="none"></circle><circle cx="15.028" cy="4.973" r=".75" fill="#000" data-stroke="none"></circle><circle cx="10.414" cy="1.89" r=".75" fill="#000" data-stroke="none"></circle></svg>