<svg xmlns="http://www.w3.org/2000/svg" xmlns:xlink="http://www.w3.org/1999/xlink" x="0px" y="0px" width="18px" height="18px" viewBox="0 0 18 18"><path d="M9 5.25C10.243 5.25 11.25 4.243 11.25 3C11.25 1.757 10.243 0.75 9 0.75C7.757 0.75 6.75 1.757 6.75 3C6.75 4.243 7.757 5.25 9 5.25Z" stroke="#000" stroke-width="1.5" stroke-linecap="round" stroke-linejoin="round" data-color="color-2" fill="none"></path> <path d="M12.75 14.5L14.9302 12.32C15.2629 11.9874 15.3187 11.4679 15.0643 11.0722L13.7053 8.958C13.4143 8.5053 12.9548 8.17531 12.4261 8.07501C10.142 7.64191 7.8579 7.64191 5.5738 8.07501C5.0451 8.17521 4.5855 8.5053 4.2946 8.958L2.93562 11.0722C2.68122 11.4679 2.73711 11.9874 3.06971 12.32L5.24992 14.5" stroke="black" stroke-width="1.5" stroke-linecap="round" stroke-linejoin="round" fill="none"></path> <path d="M11.5 16.75L12 10.75" stroke="black" stroke-width="1.5" stroke-linecap="round" stroke-linejoin="round" fill="none"></path> <path d="M6.5 16.75L6 10.75" stroke="black" stroke-width="1.5" stroke-linecap="round" stroke-linejoin="round" fill="none"></path> <path d="M10 10.75H12" stroke="black" stroke-width="1.5" stroke-linecap="round" stroke-linejoin="round" fill="none"></path></svg>