<svg xmlns="http://www.w3.org/2000/svg" xmlns:xlink="http://www.w3.org/1999/xlink" x="0px" y="0px" width="18px" height="18px" viewBox="0 0 18 18"><circle cx="8" cy="5" r="3.25" fill="none" stroke="#000" stroke-linecap="round" stroke-linejoin="round" stroke-width="1.5"></circle><path d="M11.179,4.324c-1.013,.278-2.079,.426-3.179,.426-1.883,0-3.664-.434-5.25-1.206" fill="none" stroke="#000" stroke-linecap="round" stroke-linejoin="round" stroke-width="1.5"></path><path d="M1.953,14c1.298-1.958,3.522-3.25,6.047-3.25" fill="none" stroke="#000" stroke-linecap="round" stroke-linejoin="round" stroke-width="1.5"></path><path d="M14.925,16.25h-6.175l1.868-4.203c.08-.181,.259-.297,.457-.297h5.406c.362,0,.604,.372,.457,.703l-1.556,3.5c-.08,.181-.259,.297-.457,.297Z" fill="none" stroke="#000" stroke-linecap="round" stroke-linejoin="round" stroke-width="1.5"></path><line x1="8.75" y1="16.25" x2="5.75" y2="16.25" fill="none" stroke="#000" stroke-linecap="round" stroke-linejoin="round" stroke-width="1.5"></line><path d="M3.493,8.519l-.946-.315-.316-.947c-.102-.306-.609-.306-.711,0l-.316,.947-.946,.315c-.153,.051-.257,.194-.257,.356s.104,.305,.257,.356l.946,.315,.316,.947c.051,.153,.194,.256,.355,.256s.305-.104,.355-.256l.316-.947,.946-.315c.153-.051,.257-.194,.257-.356s-.104-.305-.257-.356Z" fill="#000" data-color="color-2" data-stroke="none"></path><path d="M17.658,6.526l-1.263-.421-.421-1.263c-.137-.408-.812-.408-.949,0l-.421,1.263-1.263,.421c-.204,.068-.342,.259-.342,.474s.138,.406,.342,.474l1.263,.421,.421,1.263c.068,.204,.26,.342,.475,.342s.406-.138,.475-.342l.421-1.263,1.263-.421c.204-.068,.342-.259,.342-.474s-.138-.406-.342-.474Z" fill="#000" data-color="color-2" data-stroke="none"></path><circle cx="14.25" cy="2.25" r=".75" fill="#000" data-color="color-2" data-stroke="none"></circle></svg>