<svg xmlns="http://www.w3.org/2000/svg" xmlns:xlink="http://www.w3.org/1999/xlink" x="0px" y="0px" width="12px" height="12px" viewBox="0 0 12 12"><path d="m4,6.75H.75c-.414,0-.75-.336-.75-.75s.336-.75.75-.75h3.25c.414,0,.75.336.75.75s-.336.75-.75.75Z" fill="#000" stroke-width="0" data-color="color-2"></path><path d="m11.25,6.75h-3.25c-.414,0-.75-.336-.75-.75s.336-.75.75-.75h3.25c.414,0,.75.336.75.75s-.336.75-.75.75Z" fill="#000" stroke-width="0" data-color="color-2"></path><path d="m6,3c-1.655,0-3,1.346-3,3s1.345,3,3,3,3-1.346,3-3-1.345-3-3-3Zm0,4c-.552,0-1-.448-1-1s.448-1,1-1,1,.448,1,1-.448,1-1,1Z" stroke-width="0" fill="#000"></path></svg>