<svg xmlns="http://www.w3.org/2000/svg" xmlns:xlink="http://www.w3.org/1999/xlink" x="0px" y="0px" width="12px" height="12px" viewBox="0 0 12 12"><circle cx="10.25" cy="6" r=".75" fill="#000" stroke-width="0" data-color="color-2"></circle><circle cx="7.417" cy="6" r=".75" fill="#000" stroke-width="0" data-color="color-2"></circle><circle cx="4.583" cy="6" r=".75" fill="#000" stroke-width="0" data-color="color-2"></circle><circle cx="1.75" cy="6" r=".75" fill="#000" stroke-width="0" data-color="color-2"></circle><path d="m11.405,1.938c.058-.225.009-.464-.133-.647-.142-.184-.361-.291-.593-.291H1.321c-.232,0-.451.107-.593.291-.103.133-.157.295-.157.459,0,.062.008.126.024.188.314,1.214,1.406,2.062,2.655,2.062h5.5c1.249,0,2.341-.848,2.655-2.062Z" stroke-width="0" fill="#000"></path><path d="m11.272,10.709c.142-.184.192-.421.133-.647-.314-1.214-1.406-2.062-2.655-2.062H3.25c-1.249,0-2.341.848-2.655,2.062-.016.062-.024.126-.024.188,0,.164.054.326.157.459.142.184.361.291.593.291h9.358c.232,0,.451-.107.593-.291Z" stroke-width="0" fill="#000"></path></svg>