<svg xmlns="http://www.w3.org/2000/svg" xmlns:xlink="http://www.w3.org/1999/xlink" x="0px" y="0px" width="18px" height="18px" viewBox="0 0 18 18"><rect x="10" y="10" width="6.5" height="6.5" rx="1.75" ry="1.75" fill="#000" data-color="color-2"></rect><path d="M15.75,5.25c-.414,0-.75,.336-.75,.75v.25c0,.138-.112,.25-.25,.25h-.25c-.414,0-.75,.336-.75,.75s.336,.75,.75,.75h.25c.965,0,1.75-.785,1.75-1.75v-.25c0-.414-.336-.75-.75-.75Z" fill="#000"></path><path d="M14.75,1.5h-.25c-.414,0-.75,.336-.75,.75s.336,.75,.75,.75h.25c.138,0,.25,.112,.25,.25v.25c0,.414,.336,.75,.75,.75s.75-.336,.75-.75v-.25c0-.965-.785-1.75-1.75-1.75Z" fill="#000"></path><path d="M10.75,4.25c.414,0,.75-.336,.75-.75v-.25c0-.138,.112-.25,.25-.25h.25c.414,0,.75-.336,.75-.75s-.336-.75-.75-.75h-.25c-.965,0-1.75,.785-1.75,1.75v.25c0,.414,.336,.75,.75,.75Z" fill="#000"></path><path d="M11.75,8h.25c.414,0,.75-.336,.75-.75s-.336-.75-.75-.75h-.25c-.138,0-.25-.112-.25-.25v-.25c0-.414-.336-.75-.75-.75s-.75,.336-.75,.75v.25c0,.965,.785,1.75,1.75,1.75Z" fill="#000"></path><path d="M6,8h.25c.965,0,1.75-.785,1.75-1.75v-.25c0-.414-.336-.75-.75-.75s-.75,.336-.75,.75v.25c0,.138-.112,.25-.25,.25h-.25c-.414,0-.75,.336-.75,.75s.336,.75,.75,.75Z" fill="#000"></path><path d="M6,3h.25c.138,0,.25,.112,.25,.25v.25c0,.414,.336,.75,.75,.75s.75-.336,.75-.75v-.25c0-.965-.785-1.75-1.75-1.75h-.25c-.414,0-.75,.336-.75,.75s.336,.75,.75,.75Z" fill="#000"></path><path d="M2.25,4.25c.414,0,.75-.336,.75-.75v-.25c0-.138,.112-.25,.25-.25h.25c.414,0,.75-.336,.75-.75s-.336-.75-.75-.75h-.25c-.965,0-1.75,.785-1.75,1.75v.25c0,.414,.336,.75,.75,.75Z" fill="#000"></path><path d="M3.25,8h.25c.414,0,.75-.336,.75-.75s-.336-.75-.75-.75h-.25c-.138,0-.25-.112-.25-.25v-.25c0-.414-.336-.75-.75-.75s-.75,.336-.75,.75v.25c0,.965,.785,1.75,1.75,1.75Z" fill="#000"></path><path d="M6,16.5h.25c.965,0,1.75-.785,1.75-1.75v-.25c0-.414-.336-.75-.75-.75s-.75,.336-.75,.75v.25c0,.138-.112,.25-.25,.25h-.25c-.414,0-.75,.336-.75,.75s.336,.75,.75,.75Z" fill="#000"></path><path d="M6,11.5h.25c.138,0,.25,.112,.25,.25v.25c0,.414,.336,.75,.75,.75s.75-.336,.75-.75v-.25c0-.965-.785-1.75-1.75-1.75h-.25c-.414,0-.75,.336-.75,.75s.336,.75,.75,.75Z" fill="#000"></path><path d="M2.25,12.75c.414,0,.75-.336,.75-.75v-.25c0-.138,.112-.25,.25-.25h.25c.414,0,.75-.336,.75-.75s-.336-.75-.75-.75h-.25c-.965,0-1.75,.785-1.75,1.75v.25c0,.414,.336,.75,.75,.75Z" fill="#000"></path><path d="M3.25,16.5h.25c.414,0,.75-.336,.75-.75s-.336-.75-.75-.75h-.25c-.138,0-.25-.112-.25-.25v-.25c0-.414-.336-.75-.75-.75s-.75,.336-.75,.75v.25c0,.965,.785,1.75,1.75,1.75Z" fill="#000"></path></svg>