<svg xmlns="http://www.w3.org/2000/svg" xmlns:xlink="http://www.w3.org/1999/xlink" x="0px" y="0px" width="18px" height="18px" viewBox="0 0 18 18"><path d="M16.585,7.579l-.839-.419c-.157-.576-.384-1.122-.675-1.629l.297-.89c.09-.27,.02-.567-.181-.768l-1.061-1.061c-.202-.202-.5-.271-.768-.181l-.89,.297c-.507-.291-1.053-.517-1.629-.675l-.42-.839c-.127-.254-.387-.415-.671-.415h-1.5c-.284,0-.544,.161-.671,.415l-.42,.839c-.576,.157-1.122,.384-1.629,.675l-.89-.297c-.27-.09-.566-.021-.768,.181l-1.061,1.061c-.201,.201-.271,.498-.181,.768l.297,.89c-.291,.507-.517,1.053-.675,1.629l-.839,.419c-.254,.127-.415,.387-.415,.671v1.5c0,.284,.161,.544,.415,.671l.839,.419c.157,.576,.384,1.122,.675,1.629l-.297,.89c-.09,.27-.02,.567,.181,.768l1.061,1.061c.143,.143,.334,.22,.53,.22,.08,0,.16-.013,.237-.039l.89-.297c.507,.291,1.053,.517,1.629,.675l.42,.839c.127,.254,.387,.415,.671,.415h1.5c.284,0,.544-.161,.671-.415l.42-.839c.576-.157,1.122-.384,1.629-.675l.89,.297c.078,.026,.158,.039,.237,.039,.196,0,.387-.077,.53-.22l1.061-1.061c.201-.201,.271-.498,.181-.768l-.297-.89c.291-.507,.517-1.053,.675-1.629l.839-.419c.254-.127,.415-.387,.415-.671v-1.5c0-.284-.161-.544-.415-.671Zm-7.585,6.921c-3.033,0-5.5-2.467-5.5-5.5S5.967,3.5,9,3.5s5.5,2.467,5.5,5.5-2.467,5.5-5.5,5.5Z" fill="#000"></path></svg>