<svg xmlns="http://www.w3.org/2000/svg" xmlns:xlink="http://www.w3.org/1999/xlink" x="0px" y="0px" width="18px" height="18px" viewBox="0 0 18 18"><path d="M16.25,4.5h-6c-.414,0-.75,.336-.75,.75s.336,.75,.75,.75h6c.414,0,.75-.336,.75-.75s-.336-.75-.75-.75Z" fill="#000"></path><path d="M16.25,12h-6c-.414,0-.75,.336-.75,.75s.336,.75,.75,.75h6c.414,0,.75-.336,.75-.75s-.336-.75-.75-.75Z" fill="#000" data-color="color-2"></path><path d="M7.28,9.97c-.293-.293-.768-.293-1.061,0l-1.72,1.72-1.72-1.72c-.293-.293-.768-.293-1.061,0s-.293,.768,0,1.061l1.72,1.72-1.72,1.72c-.293,.293-.293,.768,0,1.061,.146,.146,.338,.22,.53,.22s.384-.073,.53-.22l1.72-1.72,1.72,1.72c.146,.146,.338,.22,.53,.22s.384-.073,.53-.22c.293-.293,.293-.768,0-1.061l-1.72-1.72,1.72-1.72c.293-.293,.293-.768,0-1.061Z" fill="#000" data-color="color-2"></path><rect x="1.5" y="2" width="6" height="6" rx="1.75" ry="1.75" fill="#000"></rect></svg>