<svg xmlns="http://www.w3.org/2000/svg" xmlns:xlink="http://www.w3.org/1999/xlink" x="0px" y="0px" width="18px" height="18px" viewBox="0 0 18 18"><path d="M7.5,4.5h-1.5v-1.5c0-.414-.336-.75-.75-.75s-.75,.336-.75,.75v1.5h-1.5c-.414,0-.75,.336-.75,.75s.336,.75,.75,.75h1.5v1.5c0,.414,.336,.75,.75,.75s.75-.336,.75-.75v-1.5h1.5c.414,0,.75-.336,.75-.75s-.336-.75-.75-.75Z" fill="#000"></path><path d="M15,4.5h-1.5v-1.5c0-.414-.336-.75-.75-.75s-.75,.336-.75,.75v1.5h-1.5c-.414,0-.75,.336-.75,.75s.336,.75,.75,.75h1.5v1.5c0,.414,.336,.75,.75,.75s.75-.336,.75-.75v-1.5h1.5c.414,0,.75-.336,.75-.75s-.336-.75-.75-.75Z" fill="#000" data-color="color-2"></path><path d="M7.5,12h-1.5v-1.5c0-.414-.336-.75-.75-.75s-.75,.336-.75,.75v1.5h-1.5c-.414,0-.75,.336-.75,.75s.336,.75,.75,.75h1.5v1.5c0,.414,.336,.75,.75,.75s.75-.336,.75-.75v-1.5h1.5c.414,0,.75-.336,.75-.75s-.336-.75-.75-.75Z" fill="#000" data-color="color-2"></path><path d="M15,12h-1.5v-1.5c0-.414-.336-.75-.75-.75s-.75,.336-.75,.75v1.5h-1.5c-.414,0-.75,.336-.75,.75s.336,.75,.75,.75h1.5v1.5c0,.414,.336,.75,.75,.75s.75-.336,.75-.75v-1.5h1.5c.414,0,.75-.336,.75-.75s-.336-.75-.75-.75Z" fill="#000"></path></svg>