<svg xmlns="http://www.w3.org/2000/svg" xmlns:xlink="http://www.w3.org/1999/xlink" x="0px" y="0px" width="18px" height="18px" viewBox="0 0 18 18"><path d="M8,6h8v-1.25c0-1.517-1.233-2.75-2.75-2.75h-5.25V6Z" fill="#000"></path><rect x="8" y="7.5" width="8" height="3" fill="#000"></rect><rect x="2" y="7.5" width="4.5" height="3" fill="#000" data-color="color-2"></rect><path d="M6.5,12H2v1.25c0,1.517,1.233,2.75,2.75,2.75h1.75v-4Z" fill="#000" data-color="color-2"></path><path d="M8,12v4h5.25c1.517,0,2.75-1.233,2.75-2.75v-1.25H8Z" fill="#000"></path><path d="M6.5,6V2h-1.75c-1.517,0-2.75,1.233-2.75,2.75v1.25H6.5Z" fill="#000" data-color="color-2"></path></svg>