<svg xmlns="http://www.w3.org/2000/svg" xmlns:xlink="http://www.w3.org/1999/xlink" x="0px" y="0px" width="18px" height="18px" viewBox="0 0 18 18"><path d="M6.5 5.75H17V4.75C17 3.23 15.767 2 14.25 2H6.5V5.75Z" fill="black"></path> <path d="M5 7.25H1V10.75H5V7.25Z" fill="#000" data-color="color-2"></path> <path d="M17 7.25H6.5V10.75H17V7.25Z" fill="black"></path> <path d="M6.5 12.25V16H14.25C15.767 16 17 14.77 17 13.25V12.25H6.5Z" fill="black"></path> <path d="M5 12.25H1V13.25C1 14.77 2.233 16 3.75 16H5V12.25Z" fill="#000" data-color="color-2"></path> <path d="M5 5.75V2H3.75C2.233 2 1 3.23 1 4.75V5.75H5Z" fill="#000" data-color="color-2"></path></svg>