<svg xmlns="http://www.w3.org/2000/svg" xmlns:xlink="http://www.w3.org/1999/xlink" x="0px" y="0px" width="18px" height="18px" viewBox="0 0 18 18"><rect x="2" y="10" width="6" height="6" rx="1.75" ry="1.75" fill="#000"></rect><rect x="10" y="10" width="6" height="6" rx="1.75" ry="1.75" fill="#000"></rect><path d="M16.005,3.763l-1.769-1.769c-.681-.68-1.791-.681-2.474,0l-1.769,1.769c-.681,.682-.681,1.792,0,2.474l1.769,1.769c.341,.34,.789,.511,1.237,.511s.896-.17,1.237-.511l1.769-1.769c.681-.682,.681-1.792,0-2.474,0,0,0,0,0,0Z" fill="#000" data-color="color-2"></path><rect x="2" y="2" width="6" height="6" rx="1.75" ry="1.75" fill="#000"></rect></svg>