<svg xmlns="http://www.w3.org/2000/svg" xmlns:xlink="http://www.w3.org/1999/xlink" x="0px" y="0px" width="18px" height="18px" viewBox="0 0 18 18"><path d="m9,1C4.5889,1,1,4.5889,1,9c0,2.2075.8848,4.2651,2.4922,5.7935.1387.1328.3242.2065.5166.2065h9.9824c.1924,0,.3779-.0737.5166-.2065,1.6074-1.5283,2.4922-3.5859,2.4922-5.7935,0-4.4111-3.5889-8-8-8Zm.5303,8.5303c-.1465.1465-.3379.2197-.5303.2197s-.3838-.0732-.5303-.2197l-3-3c-.293-.293-.293-.7676,0-1.0605s.7676-.293,1.0605,0l3,3c.293.293.293.7676,0,1.0605Z" stroke-width="0" fill="#000"></path></svg>