<svg xmlns="http://www.w3.org/2000/svg" xmlns:xlink="http://www.w3.org/1999/xlink" x="0px" y="0px" width="24px" height="24px" viewBox="0 0 24 24"><rect x="16" y="3" width="7" height="7" rx="2" ry="2" stroke-width="0" fill="#000"></rect><rect x="16" y="14" width="7" height="7" rx="2" ry="2" stroke-width="0" fill="#000"></rect><rect x="1" y="8" width="7" height="7" rx="2" ry="2" stroke-width="0" fill="#000"></rect><polygon points="13 11 13 8 15 8 15 6 13 6 13 1 11 1 11 6 11 8 11 11 9 11 9 13 11 13 11 16 11 18 11 23 13 23 13 18 15 18 15 16 13 16 13 13 13 11" fill="#000" stroke-width="0" data-color="color-2"></polygon></svg>