<svg xmlns="http://www.w3.org/2000/svg" xmlns:xlink="http://www.w3.org/1999/xlink" x="0px" y="0px" width="24px" height="24px" viewBox="0 0 24 24"> <path fill-rule="evenodd" clip-rule="evenodd" d="M19 14V24H17V14H19Z" fill="#000" data-color="color-2"></path> <path fill-rule="evenodd" clip-rule="evenodd" d="M13 18H23V20H13V18Z" fill="#000" data-color="color-2"></path> <path fill-rule="evenodd" clip-rule="evenodd" d="M1 10V18C1 19.6569 2.34315 21 4 21H11V18C11 16.8954 11.8954 16 13 16H15V14C15 12.8954 15.8954 12 17 12H19C20.1046 12 21 12.8954 21 14V16H23V10H1ZM4 17V15H8V17H4Z" fill="black"></path> <path d="M1 6C1 4.34315 2.34315 3 4 3H20C21.6569 3 23 4.34315 23 6V7H1V6Z" fill="black"></path> </svg>