<svg xmlns="http://www.w3.org/2000/svg" xmlns:xlink="http://www.w3.org/1999/xlink" x="0px" y="0px" width="32px" height="32px" viewBox="0 0 32 32"> <path d="M14.1745 6.30777L7.99998 3L1.82549 6.30777L7.99998 9.61554L14.1745 6.30777Z" fill="black"></path> <path d="M1 8.13446V14.25L7 17.4643V11.3488L1 8.13446Z" fill="black"></path> <path d="M9 11.3487V17.4643L15 14.25V8.13446L9 11.3487Z" fill="black"></path> <path d="M30.1745 6.30777L24 3L17.8255 6.30777L24 9.61554L30.1745 6.30777Z" fill="black"></path> <path d="M17 8.13446V14.25L23 17.4643V11.3488L17 8.13446Z" fill="black"></path> <path d="M25 11.3487V17.4643L31 14.25V8.13446L25 11.3487Z" fill="black"></path> <path d="M22.1745 19.3078L16 16L9.82549 19.3078L16 22.6155L22.1745 19.3078Z" fill="#000" data-color="color-2"></path> <path d="M9 21.1345V27.25L15 30.4643V24.3488L9 21.1345Z" fill="#000" data-color="color-2"></path> <path d="M17 24.3487V30.4643L23 27.25V21.1345L17 24.3487Z" fill="#000" data-color="color-2"></path> </svg>