<svg xmlns="http://www.w3.org/2000/svg" xmlns:xlink="http://www.w3.org/1999/xlink" x="0px" y="0px" width="32px" height="32px" viewBox="0 0 32 32"> <path fill-rule="evenodd" clip-rule="evenodd" d="M26 17.5L22.4 14.8L23.6 13.2L28 16.5V21H26V17.5Z" fill="#000" data-color="color-2"></path> <path fill-rule="evenodd" clip-rule="evenodd" d="M6 17.5L9.6 14.8L8.4 13.2L4 16.5V21H6V17.5Z" fill="#000" data-color="color-2"></path> <path fill-rule="evenodd" clip-rule="evenodd" d="M15 24V18H17V24H15Z" fill="#000" data-color="color-2"></path> <path fill-rule="evenodd" clip-rule="evenodd" d="M16 1C11.0294 1 7 5.02944 7 10C7 14.9706 11.0294 19 16 19C20.9706 19 25 14.9706 25 10C25 5.02944 20.9706 1 16 1ZM16 6C13.7909 6 12 7.79086 12 10C12 12.2091 13.7909 14 16 14C18.2091 14 20 12.2091 20 10C20 7.79086 18.2091 6 16 6Z" fill="black"></path> <path fill-rule="evenodd" clip-rule="evenodd" d="M27 20.5C28.933 20.5 30.5 22.067 30.5 24C30.5 25.933 28.933 27.5 27 27.5C25.067 27.5 23.5 25.933 23.5 24C23.5 22.067 25.067 20.5 27 20.5Z" fill="black"></path> <path fill-rule="evenodd" clip-rule="evenodd" d="M5 20.5C6.933 20.5 8.5 22.067 8.5 24C8.5 25.933 6.93299 27.5 5 27.5C3.067 27.5 1.5 25.933 1.5 24C1.5 22.067 3.067 20.5 5 20.5Z" fill="black"></path> <path fill-rule="evenodd" clip-rule="evenodd" d="M16 23.5C17.933 23.5 19.5 25.067 19.5 27C19.5 28.933 17.933 30.5 16 30.5C14.067 30.5 12.5 28.933 12.5 27C12.5 25.067 14.067 23.5 16 23.5Z" fill="black"></path> </svg>