<svg xmlns="http://www.w3.org/2000/svg" xmlns:xlink="http://www.w3.org/1999/xlink" x="0px" y="0px" width="32px" height="32px" viewBox="0 0 32 32"><path d="m16,8c-4.411,0-8,3.589-8,8s3.589,8,8,8,8-3.589,8-8-3.589-8-8-8Zm0,11c-1.654,0-3-1.346-3-3s1.346-3,3-3,3,1.346,3,3-1.346,3-3,3Z" fill="#000" stroke-width="0" data-color="color-2"></path><path d="m16,1C7.729,1,1,7.729,1,16s6.729,15,15,15,15-6.729,15-15S24.271,1,16,1Zm0,25c-5.514,0-10-4.486-10-10s4.486-10,10-10,10,4.486,10,10-4.486,10-10,10Z" stroke-width="0" fill="#000"></path></svg>