<svg xmlns="http://www.w3.org/2000/svg" xmlns:xlink="http://www.w3.org/1999/xlink" x="0px" y="0px" width="48px" height="48px" viewBox="0 0 48 48"> <path fill-rule="evenodd" clip-rule="evenodd" d="M10.5 25.5V44H7.5L7.5 25.5H10.5Z" fill="#000" data-color="color-2"></path> <path fill-rule="evenodd" clip-rule="evenodd" d="M40.5 38.5V44H37.5V38.5H40.5Z" fill="#000" data-color="color-2"></path> <path fill-rule="evenodd" clip-rule="evenodd" d="M25.5 31.5V44H22.5V31.5H25.5Z" fill="#000" data-color="color-2"></path> <path fill-rule="evenodd" clip-rule="evenodd" d="M40.5 4V15.5H37.5V4H40.5Z" fill="#000" data-color="color-2"></path> <path fill-rule="evenodd" clip-rule="evenodd" d="M25.5 4V25.5H22.5V4H25.5Z" fill="#000" data-color="color-2"></path> <path fill-rule="evenodd" clip-rule="evenodd" d="M10.5 4V10.5H7.50002L7.50002 4H10.5Z" fill="#000" data-color="color-2"></path> <path d="M29 23H19V34H29V23Z" fill="black"></path> <path d="M14 8H4V28H14V8Z" fill="black"></path> <path d="M44 13H34V41H44V13Z" fill="black"></path> </svg>