<svg xmlns="http://www.w3.org/2000/svg" xmlns:xlink="http://www.w3.org/1999/xlink" x="0px" y="0px" width="48px" height="48px" viewBox="0 0 48 48"> <path fill-rule="evenodd" clip-rule="evenodd" d="M36.9393 8.93933L39.0607 11.0607L24 26.1213L21.8787 24L36.9393 8.93933Z" fill="#000" data-color="color-2"></path> <path d="M36.9202 1.10718L29.9116 7.80444L31.6256 16.3744L40.1955 18.0884L46.8931 11.0801L39.7693 8.2307L36.9202 1.10718Z" fill="#000" data-color="color-2"></path> <path fill-rule="evenodd" clip-rule="evenodd" d="M24 5C13.5066 5 5 13.5066 5 24C5 34.4934 13.5066 43 24 43C34.4934 43 43 34.4934 43 24V22.5H46V24C46 36.1503 36.1503 46 24 46C11.8497 46 2 36.1503 2 24C2 11.8497 11.8497 2 24 2H25.5V5H24Z" fill="black"></path> <path fill-rule="evenodd" clip-rule="evenodd" d="M24 12C17.3726 12 12 17.3726 12 24C12 30.6274 17.3726 36 24 36C30.6274 36 36 30.6274 36 24V22.5H39V24C39 32.2843 32.2843 39 24 39C15.7157 39 9 32.2843 9 24C9 15.7157 15.7157 9 24 9H25.5V12H24Z" fill="black"></path> <path d="M24 30C27.3137 30 30 27.3137 30 24C30 20.6863 27.3137 18 24 18C20.6863 18 18 20.6863 18 24C18 27.3137 20.6863 30 24 30Z" fill="#000" data-color="color-2"></path> </svg>