<svg xmlns="http://www.w3.org/2000/svg" xmlns:xlink="http://www.w3.org/1999/xlink" x="0px" y="0px" width="48px" height="48px" viewBox="0 0 48 48"><path fill-rule="evenodd" clip-rule="evenodd" d="M47 2L47 19.5L42 19.5L42 16.5L44 16.5L44 5L4 5L4 16.5L6 16.5L6 19.5L0.999999 19.5L1 2L47 2Z" fill="#000" data-color="color-2"></path> <path fill-rule="evenodd" clip-rule="evenodd" d="M9 7L9 36C9 38.7614 11.2386 41 14 41L27 41L27 7H9ZM14 7.00001H17V14H14L14 7.00001Z" fill="black"></path> <path d="M33 7L33 41H34C36.7614 41 39 38.7614 39 36L39 7H33Z" fill="black"></path></svg>