<svg xmlns="http://www.w3.org/2000/svg" xmlns:xlink="http://www.w3.org/1999/xlink" x="0px" y="0px" width="20px" height="20px" viewBox="0 0 20 20"><path d="m3,11l2.2071,2.2071c.1875.1875.2929.4419.2929.7071v3.0858" fill="none" stroke="#000" stroke-linecap="round" stroke-linejoin="round" stroke-width="2" data-color="color-2"></path><circle cx="3" cy="11" r="2" fill="#000" stroke-width="0" data-color="color-2"></circle><path d="m7,4v5.0858c0,.2652.1054.5196.2929.7071l.9142.9142c.1875.1875.2929.4419.2929.7071v5.5858" fill="none" stroke="#000" stroke-linecap="round" stroke-linejoin="round" stroke-width="2"></path><circle cx="7" cy="4" r="2" stroke-width="0" fill="#000"></circle><path d="m14.5,17v-3.0858c0-.2652.1054-.5196.2929-.7071l2.2071-2.2071" fill="none" stroke="#000" stroke-linecap="round" stroke-linejoin="round" stroke-width="2" data-color="color-2"></path><circle cx="17" cy="11" r="2" fill="#000" stroke-width="0" data-color="color-2"></circle><path d="m11.5,17v-5.5858c0-.2652.1054-.5196.2929-.7071l.9142-.9142c.1875-.1875.2929-.4419.2929-.7071V4" fill="none" stroke="#000" stroke-linecap="round" stroke-linejoin="round" stroke-width="2"></path><circle cx="13" cy="4" r="2" stroke-width="0" fill="#000"></circle></svg>