<svg xmlns="http://www.w3.org/2000/svg" xmlns:xlink="http://www.w3.org/1999/xlink" x="0px" y="0px" width="20px" height="20px" viewBox="0 0 20 20"><path d="m18,13h-4.7192c-.4589,0-.8588.3123-.9702.7574l-.1212.4851c-.1113.4451-.5113.7574-.9702.7574h-2.4385c-.4589,0-.8588-.3123-.9702-.7574l-.1212-.4851c-.1113-.4451-.5113-.7574-.9702-.7574H2c-.5522,0-1,.4478-1,1,0,.1226.0566,3,5,3h8c4.9434,0,5-2.8774,5-3,0-.5522-.4478-1-1-1Z" stroke-width="0" fill="#000"></path><path d="m6,14c-1.1046,0-2-.8954-2-2v-6c0-1.1046.8954-2,2-2h8c1.1046,0,2,.8954,2,2v6c0,1.1046-.8954,2-2,2" fill="none" stroke="#000" stroke-linecap="round" stroke-linejoin="round" stroke-width="2"></path><path d="m10,11.5c-.4141,0-.75-.3359-.75-.75v-3.75c0-.4141.3359-.75.75-.75s.75.3359.75.75v3.75c0,.4141-.3359.75-.75.75Z" fill="#000" stroke-width="0" data-color="color-2"></path><path d="m7.25,11.5c-.4141,0-.75-.3359-.75-.75v-1c0-.4141.3359-.75.75-.75s.75.3359.75.75v1c0,.4141-.3359.75-.75.75Z" fill="#000" stroke-width="0" data-color="color-2"></path><path d="m12.75,11.5c-.4141,0-.75-.3359-.75-.75v-2c0-.4141.3359-.75.75-.75s.75.3359.75.75v2c0,.4141-.3359.75-.75.75Z" fill="#000" stroke-width="0" data-color="color-2"></path></svg>