<svg xmlns="http://www.w3.org/2000/svg" xmlns:xlink="http://www.w3.org/1999/xlink" x="0px" y="0px" width="32px" height="32px" viewBox="0 0 32 32"> <path fill-rule="evenodd" clip-rule="evenodd" d="M16 0.728251L31.4042 12.8315L30.1685 14.4041L16 3.27175L1.83153 14.4041L0.595886 12.8315L16 0.728251Z" fill="#000" data-color="color-2"></path> <path fill-rule="evenodd" clip-rule="evenodd" d="M28 15.2441V26C28 28.2093 26.2093 30 24 30H8C5.79072 30 4 28.2093 4 26V15.2441L16 5.81543L28 15.2441ZM18.7686 15C17.6441 15.0002 16.7899 15.7099 16.0928 16.5342H15.9072C15.2101 15.7099 14.3559 15.0002 13.2314 15C11.4474 15 10 16.5202 10 18.3955C10.0005 21.6013 14.6691 24.8684 16 25.5C17.3309 24.8684 21.9995 21.6013 22 18.3955C22 16.5202 20.5526 15 18.7686 15Z" fill="black"></path> </svg>