<svg xmlns="http://www.w3.org/2000/svg" xmlns:xlink="http://www.w3.org/1999/xlink" x="0px" y="0px" width="24px" height="24px" viewBox="0 0 24 24"> <path d="M4 9.00001V6.26828V6.94828" stroke="black" stroke-width="2" stroke-linecap="square" fill="none"></path> <path d="M20 9.00001V6.29549V6.97549" stroke="black" stroke-width="2" stroke-linecap="square" fill="none"></path> <path d="M12 2V12" stroke="black" stroke-width="2" stroke-linecap="square" fill="none"></path> <path d="M2 7C5.19982 5.78501 8.57901 5.10917 12 5C15.4209 5.11027 18.7999 5.78608 22 7" stroke="#000" stroke-width="2" stroke-linecap="square" data-color="color-2" fill="none"></path> <path d="M4 17C5.10457 17 6 16.1046 6 15C6 13.8954 5.10457 13 4 13C2.89543 13 2 13.8954 2 15C2 16.1046 2.89543 17 4 17Z" stroke="#000" stroke-width="2" stroke-linecap="round" data-color="color-2" fill="none"></path> <path d="M20 17C21.1046 17 22 16.1046 22 15C22 13.8954 21.1046 13 20 13C18.8954 13 18 13.8954 18 15C18 16.1046 18.8954 17 20 17Z" stroke="#000" stroke-width="2" stroke-linecap="round" data-color="color-2" fill="none"></path> <path d="M12 14.4876L13.5064 17.469L16.877 17.9474L14.4385 20.2682L15.014 23.5448L12 21.9976L8.98496 23.5448L9.56152 20.2682L7.12305 17.9474L10.4925 17.469L12 14.4876Z" fill="black" data-cap="butt" data-stroke="none"></path> </svg>