<svg xmlns="http://www.w3.org/2000/svg" xmlns:xlink="http://www.w3.org/1999/xlink" x="0px" y="0px" width="24px" height="24px" viewBox="0 0 24 24"><path fill-rule="evenodd" clip-rule="evenodd" d="M13 3V21H11V3H13Z" fill="black"></path> <path fill-rule="evenodd" clip-rule="evenodd" d="M4 3H20V5H4V3Z" fill="black"></path> <path d="M19.9 12.1L19 10L18.1 12.1L16 13L18.1 13.9L19 16L19.9 13.9L22 13L19.9 12.1Z" fill="#000" data-color="color-2"></path> <path d="M5.25 9.75L4.5 8L3.75 9.75L2 10.5L3.75 11.25L4.5 13L5.25 11.25L7 10.5L5.25 9.75Z" fill="#000" data-color="color-2"></path> <path d="M7.95 17.05L7.5 16L7.05 17.05L6 17.5L7.05 17.95L7.5 19L7.95 17.95L9 17.5L7.95 17.05Z" fill="#000" data-color="color-2"></path></svg>