<svg xmlns="http://www.w3.org/2000/svg" xmlns:xlink="http://www.w3.org/1999/xlink" x="0px" y="0px" width="24px" height="24px" viewBox="0 0 24 24"> <path fill-rule="evenodd" clip-rule="evenodd" d="M7 1H23V17H19V7C19 5.89543 18.1046 5 17 5H7V1Z" fill="black"></path> <path fill-rule="evenodd" clip-rule="evenodd" d="M1 11L1 7L5 7L5 9L3 9L3 11L1 11Z" fill="#000" data-color="color-2"></path> <path fill-rule="evenodd" clip-rule="evenodd" d="M1 17L1 13L3 13L3 17L1 17Z" fill="#000" data-color="color-2"></path> <path fill-rule="evenodd" clip-rule="evenodd" d="M15 17L15 13L17 13L17 17L15 17Z" fill="#000" data-color="color-2"></path> <path fill-rule="evenodd" clip-rule="evenodd" d="M1 23L1 19L3 19L3 21L5 21L5 23L1 23Z" fill="#000" data-color="color-2"></path> <path fill-rule="evenodd" clip-rule="evenodd" d="M7 21L11 21L11 23L7 23L7 21Z" fill="#000" data-color="color-2"></path> <path fill-rule="evenodd" clip-rule="evenodd" d="M7 7L11 7L11 9L7 9L7 7Z" fill="#000" data-color="color-2"></path> <path fill-rule="evenodd" clip-rule="evenodd" d="M13 21L15 21L15 19L17 19L17 23L13 23L13 21Z" fill="#000" data-color="color-2"></path> <path fill-rule="evenodd" clip-rule="evenodd" d="M15 11L15 9L13 9L13 7L17 7L17 11L15 11Z" fill="#000" data-color="color-2"></path> </svg>