<svg xmlns="http://www.w3.org/2000/svg" xmlns:xlink="http://www.w3.org/1999/xlink" x="0px" y="0px" width="24px" height="24px" viewBox="0 0 24 24"> <path fill-rule="evenodd" clip-rule="evenodd" d="M13 10V18H11V10H13Z" fill="#000" data-color="color-2"></path> <path fill-rule="evenodd" clip-rule="evenodd" d="M4.33329 13.9999L8.99996 10.4999V17.4999L4.33329 13.9999Z" fill="#000" data-color="color-2"></path> <path fill-rule="evenodd" clip-rule="evenodd" d="M19.6667 13.9999L15 10.4999L15 17.4999L19.6667 13.9999Z" fill="#000" data-color="color-2"></path> <path fill-rule="evenodd" clip-rule="evenodd" d="M23 6C23 4.34315 21.6569 3 20 3H4C2.34315 3 1 4.34315 1 6V18C1 19.6569 2.34314 21 4 21H20C21.6569 21 23 19.6569 23 18V6ZM3 9L3 18C3 18.5523 3.44771 19 4 19H20C20.5523 19 21 18.5523 21 18V9H3Z" fill="black"></path> </svg>