<svg xmlns="http://www.w3.org/2000/svg" xmlns:xlink="http://www.w3.org/1999/xlink" x="0px" y="0px" width="24px" height="24px" viewBox="0 0 24 24"> <path fill-rule="evenodd" clip-rule="evenodd" d="M4.00003 18.5857L7 21.9999H1L4.00003 18.5857Z" fill="#000" data-color="color-2"></path> <path fill-rule="evenodd" clip-rule="evenodd" d="M12 18.5857L15 21.9999H9L12 18.5857Z" fill="#000" data-color="color-2"></path> <path fill-rule="evenodd" clip-rule="evenodd" d="M20 18.5857L23 21.9999H17L20 18.5857Z" fill="#000" data-color="color-2"></path> <path fill-rule="evenodd" clip-rule="evenodd" d="M11 1V16H9V1H11Z" fill="black"></path> <path fill-rule="evenodd" clip-rule="evenodd" d="M15 9V16H13V9H15Z" fill="black"></path> <path fill-rule="evenodd" clip-rule="evenodd" d="M19 5V16H17V5H19Z" fill="black"></path> <path fill-rule="evenodd" clip-rule="evenodd" d="M3 5V16H1V5H3Z" fill="black"></path> <path fill-rule="evenodd" clip-rule="evenodd" d="M23 2V16H21V2H23Z" fill="black"></path> <path fill-rule="evenodd" clip-rule="evenodd" d="M7 11V16H5V11H7Z" fill="black"></path> </svg>