<svg xmlns="http://www.w3.org/2000/svg" xmlns:xlink="http://www.w3.org/1999/xlink" x="0px" y="0px" width="32px" height="32px" viewBox="0 0 32 32"> <path fill-rule="evenodd" clip-rule="evenodd" d="M7.5 21C5.567 21 4 22.567 4 24.5C4 26.433 5.567 28 7.5 28C9.433 28 11 26.433 11 24.5C11 22.567 9.433 21 7.5 21ZM2 24.5C2 21.4624 4.46243 19 7.5 19C10.5376 19 13 21.4624 13 24.5C13 27.5376 10.5376 30 7.5 30C4.46243 30 2 27.5376 2 24.5Z" fill="black"></path> <path fill-rule="evenodd" clip-rule="evenodd" d="M24.5 21C26.433 21 28 22.567 28 24.5C28 26.433 26.433 28 24.5 28C22.567 28 21 26.433 21 24.5C21 22.567 22.567 21 24.5 21ZM30 24.5C30 21.4624 27.5376 19 24.5 19C21.4624 19 19 21.4624 19 24.5C19 27.5376 21.4624 30 24.5 30C27.5376 30 30 27.5376 30 24.5Z" fill="black"></path> <path d="M16 19.236L19.1056 25.4472L20.0015 24.9003L20.8975 24.3533L16.6816 16.3913L16.2007 15.2744L9.37769 2.59741L8.58082 3.08179C5.59383 4.76838 4.7282 8.02043 6.62612 10.551L15.5 20L16 19.236Z" fill="black"></path> <path d="M16.0073 19.236L12.9018 25.4472L12.0058 24.9003L11.1098 24.3533L15.3258 16.3913L15.8067 15.2744L22.6296 2.59741L23.4265 3.08179C26.4135 4.76838 27.2791 8.02043 25.3812 10.551L16.5073 20L16.0073 19.236Z" fill="black"></path> <path fill-rule="evenodd" clip-rule="evenodd" d="M17 1V4H15V1H17Z" fill="#000" data-color="color-2"></path> <path fill-rule="evenodd" clip-rule="evenodd" d="M17 25V28H15V25H17Z" fill="#000" data-color="color-2"></path> <path fill-rule="evenodd" clip-rule="evenodd" d="M17 6V9H15V6H17Z" fill="#000" data-color="color-2"></path> </svg>