<svg xmlns="http://www.w3.org/2000/svg" xmlns:xlink="http://www.w3.org/1999/xlink" x="0px" y="0px" width="32px" height="32px" viewBox="0 0 32 32"><path fill="#444444" d="M25,6H7C6.447,6,6,6.448,6,7v18c0,0.552,0.447,1,1,1h18c0.553,0,1-0.448,1-1V7C26,6.448,25.553,6,25,6z"></path> <rect data-color="color-2" y="6" fill="#444444" width="4" height="2"></rect> <rect data-color="color-2" x="6" fill="#444444" width="2" height="4"></rect> <rect data-color="color-2" x="28" y="6" transform="matrix(-1 4.479249e-11 -4.479249e-11 -1 60 14)" fill="#444444" width="4" height="2"></rect> <rect data-color="color-2" x="24" y="0" transform="matrix(-1 4.501987e-11 -4.501987e-11 -1 50 4)" fill="#444444" width="2" height="4"></rect> <rect data-color="color-2" y="24" fill="#444444" width="4" height="2"></rect> <rect data-color="color-2" x="6" y="28" fill="#444444" width="2" height="4"></rect> <rect data-color="color-2" x="28" y="24" transform="matrix(-1 -4.479274e-11 4.479274e-11 -1 60 50)" fill="#444444" width="4" height="2"></rect> <rect data-color="color-2" x="24" y="28" transform="matrix(-1 -4.502011e-11 4.502011e-11 -1 50 60)" fill="#444444" width="2" height="4"></rect></svg>