<svg xmlns="http://www.w3.org/2000/svg" xmlns:xlink="http://www.w3.org/1999/xlink" x="0px" y="0px" width="32px" height="32px" viewBox="0 0 32 32"> <path fill-rule="evenodd" clip-rule="evenodd" d="M2 15L2 9.99993L4 9.99993L4 15L2 15Z" fill="#000" data-color="color-2"></path> <path fill-rule="evenodd" clip-rule="evenodd" d="M28 15L28 9.99993L30 9.99993L30 15L28 15Z" fill="#000" data-color="color-2"></path> <path fill-rule="evenodd" clip-rule="evenodd" d="M2 22L2 16.9999L4 16.9999L4 22L2 22Z" fill="#000" data-color="color-2"></path> <path fill-rule="evenodd" clip-rule="evenodd" d="M15 4L9.99993 4L9.99993 2L15 2L15 4Z" fill="#000" data-color="color-2"></path> <path fill-rule="evenodd" clip-rule="evenodd" d="M22 4L16.9999 4L16.9999 2L22 2L22 4Z" fill="#000" data-color="color-2"></path> <path fill-rule="evenodd" clip-rule="evenodd" d="M15 30L9.99993 30L9.99993 28L15 28L15 30Z" fill="#000" data-color="color-2"></path> <path d="M18.5055 28.4088L14.5439 14.5439L28.4089 18.5053L18.5055 28.4088Z" fill="black"></path> <path fill-rule="evenodd" clip-rule="evenodd" d="M22.2927 23.7069L23.7069 22.2927L29.914 28.4998L28.4998 29.914L22.2927 23.7069Z" fill="black"></path> <path fill-rule="evenodd" clip-rule="evenodd" d="M6 4C4.89543 4 4 4.89543 4 6V8H2V6C2 3.79086 3.79086 2 6 2H8V4H6Z" fill="#000" data-color="color-2"></path> <path fill-rule="evenodd" clip-rule="evenodd" d="M24 2H26C28.2091 2 30 3.79086 30 6V8H28V6C28 4.89543 27.1046 4 26 4H24V2Z" fill="#000" data-color="color-2"></path> <path fill-rule="evenodd" clip-rule="evenodd" d="M4 24V26C4 27.1046 4.89543 28 6 28H8V30H6C3.79086 30 2 28.2091 2 26V24H4Z" fill="#000" data-color="color-2"></path> </svg>