<svg xmlns="http://www.w3.org/2000/svg" xmlns:xlink="http://www.w3.org/1999/xlink" x="0px" y="0px" width="32px" height="32px" viewBox="0 0 32 32"> <path fill-rule="evenodd" clip-rule="evenodd" d="M2.29287 29.7072C0.659797 28.0741 0.827573 25.3793 2.65059 23.9614L7.98929 19.809L4.17812 14.6447C3.29686 13.4505 3.42123 11.7914 4.47067 10.742L6.84326 8.36938L23.6306 25.1568L21.2581 27.5293C20.2086 28.5788 18.5495 28.7032 17.3554 27.8219L12.1907 24.0105L8.03819 29.3494C6.62041 31.1723 3.92582 31.3401 2.29287 29.7072ZM5.00001 25.5C4.17158 25.5 3.50001 26.1716 3.50001 27C3.50001 27.8284 4.17158 28.5 5.00001 28.5C5.82843 28.5 6.50001 27.8284 6.50001 27C6.50001 26.1716 5.82843 25.5 5.00001 25.5Z" fill="black"></path> <path d="M8.59106 7.28883L24.7109 23.4087L31.3528 15.4385L23.0917 7.17757L18.5 8.5L19.9858 4.07162L16.5613 0.646973L8.59106 7.28883Z" fill="#000" data-color="color-2"></path> </svg>