<svg xmlns="http://www.w3.org/2000/svg" xmlns:xlink="http://www.w3.org/1999/xlink" x="0px" y="0px" width="32px" height="32px" viewBox="0 0 32 32"> <path fill-rule="evenodd" clip-rule="evenodd" d="M30 2L30 20L14 20L14 2L30 2Z" fill="black"></path> <path fill-rule="evenodd" clip-rule="evenodd" d="M8 6L8 15.3333L6 15.3333L6 6L8 6Z" fill="black"></path> <path fill-rule="evenodd" clip-rule="evenodd" d="M4 8L4 13.3333L2 13.3333L2 8L4 8Z" fill="black"></path> <path fill-rule="evenodd" clip-rule="evenodd" d="M12 18L10 18L10 4L12 4L12 18Z" fill="black"></path> <path d="M11 30C12.6569 30 14 28.6569 14 27C14 25.3431 12.6569 24 11 24C9.34315 24 8 25.3431 8 27C8 28.6569 9.34315 30 11 30Z" fill="#000" data-color="color-2"></path> <path d="M6.10002 26H2V28H6.10002C6.03443 27.6769 6 27.3425 6 27C6 26.6575 6.03443 26.3231 6.10002 26Z" fill="#000" data-color="color-2"></path> <path d="M15.8999 28C15.9655 27.6769 15.9999 27.3425 15.9999 27C15.9999 26.6575 15.9655 26.3231 15.8999 26H29.9999V28H15.8999Z" fill="#000" data-color="color-2"></path> </svg>