<svg xmlns="http://www.w3.org/2000/svg" xmlns:xlink="http://www.w3.org/1999/xlink" x="0px" y="0px" width="32px" height="32px" viewBox="0 0 32 32"> <path fill-rule="evenodd" clip-rule="evenodd" d="M16 27.5H11V25.5H16V27.5Z" fill="#000" data-color="color-2"></path> <path fill-rule="evenodd" clip-rule="evenodd" d="M14.7208 19H12.2793L8.6126 30H11.1023V28.8554L13.5 21.6623L15.906 28.8803V30H18.3875L14.7208 19Z" fill="#000" data-color="color-2"></path> <path fill-rule="evenodd" clip-rule="evenodd" d="M22 19V30H20V19H22Z" fill="#000" data-color="color-2"></path> <path fill-rule="evenodd" clip-rule="evenodd" d="M13.2426 1C12.1818 1 11.1644 1.42143 10.4142 2.17157L4.17157 8.41421C3.42143 9.16436 3 10.1818 3 11.2426V17H29V5C29 2.79086 27.2091 1 25 1H13.2426ZM13 11V3L5 11H13Z" fill="black"></path> </svg>