<svg xmlns="http://www.w3.org/2000/svg" xmlns:xlink="http://www.w3.org/1999/xlink" x="0px" y="0px" width="32px" height="32px" viewBox="0 0 32 32"> <path fill-rule="evenodd" clip-rule="evenodd" d="M25 13H28.5V19H25V17H26.5V15H25V13Z" fill="#000" data-color="color-2"></path> <path d="M23.054 2H8.9458L9.61247 0H22.3873L23.054 2Z" fill="#000" data-color="color-2"></path> <path d="M23.054 30H8.9458L9.61247 32H22.3873L23.054 30Z" fill="#000" data-color="color-2"></path> <path fill-rule="evenodd" clip-rule="evenodd" d="M9 4C6.79086 4 5 5.79086 5 8V24C5 26.2091 6.79086 28 9 28H23C25.2091 28 27 26.2091 27 24V8C27 5.79086 25.2091 4 23 4H9ZM19 20.9142L23.9142 16L19 11.0858L17.5858 12.5L21.0858 16L17.5858 19.5L19 20.9142ZM13 20.9142L14.4142 19.5L10.9142 16L14.4142 12.5L13 11.0858L8.08579 16L13 20.9142Z" fill="black"></path> </svg>