<svg xmlns="http://www.w3.org/2000/svg" xmlns:xlink="http://www.w3.org/1999/xlink" x="0px" y="0px" width="48px" height="48px" viewBox="0 0 48 48"> <path fill-rule="evenodd" clip-rule="evenodd" d="M27 9H43V11.8435L33.2275 21H36C40.9706 21 45 25.0294 45 30C45 34.9706 40.9706 39 36 39H27V36H36C39.3137 36 42 33.3137 42 30C42 26.6863 39.3137 24 36 24H29V20.8499L38.4453 12H27V9Z" fill="#000" data-color="color-2"></path> <path fill-rule="evenodd" clip-rule="evenodd" d="M4 22.5H23V25.5H4V22.5Z" fill="black"></path> <path fill-rule="evenodd" clip-rule="evenodd" d="M7 9V39H4V9H7Z" fill="black"></path> <path fill-rule="evenodd" clip-rule="evenodd" d="M23 9V39H20V9H23Z" fill="black"></path> </svg>