<svg xmlns="http://www.w3.org/2000/svg" xmlns:xlink="http://www.w3.org/1999/xlink" x="0px" y="0px" width="48px" height="48px" viewBox="0 0 48 48"> <path fill-rule="evenodd" clip-rule="evenodd" d="M4 4H14V14H4V4Z" fill="black"></path> <path fill-rule="evenodd" clip-rule="evenodd" d="M34 4H44V14H34V4Z" fill="black"></path> <path fill-rule="evenodd" clip-rule="evenodd" d="M4 24H14V34H4V24Z" fill="black"></path> <path fill-rule="evenodd" clip-rule="evenodd" d="M34 24H44V34H34V24Z" fill="black"></path> <path fill-rule="evenodd" clip-rule="evenodd" d="M14 24H24V34H14V24Z" fill="black"></path> <path fill-rule="evenodd" clip-rule="evenodd" d="M14 14H24V24H14V14Z" fill="black"></path> <path fill-rule="evenodd" clip-rule="evenodd" d="M24 14H34V24H24V14Z" fill="black"></path> <path fill-rule="evenodd" clip-rule="evenodd" d="M34 14H44V24H34V14Z" fill="black"></path> <path fill-rule="evenodd" clip-rule="evenodd" d="M4 34H14V44H4V34Z" fill="black"></path> <path fill-rule="evenodd" clip-rule="evenodd" d="M34 34H44V44H34V34Z" fill="black"></path> </svg>