<svg xmlns="http://www.w3.org/2000/svg" xmlns:xlink="http://www.w3.org/1999/xlink" x="0px" y="0px" width="48px" height="48px" viewBox="0 0 48 48"> <path fill-rule="evenodd" clip-rule="evenodd" d="M12.5 7.5H35.5V10.5H12.5V7.5Z" fill="black"></path> <path fill-rule="evenodd" clip-rule="evenodd" d="M12.5 37.5H35.5V40.5H12.5V37.5Z" fill="black"></path> <path fill-rule="evenodd" clip-rule="evenodd" d="M37.5 12.5L40.5 12.5L40.5 35.5L37.5 35.5L37.5 12.5Z" fill="black"></path> <path fill-rule="evenodd" clip-rule="evenodd" d="M7.5 12.5L10.5 12.5L10.5 35.5L7.5 35.5L7.5 12.5Z" fill="black"></path> <path d="M14 4H4V14H14V4Z" fill="#000" data-color="color-2"></path> <path d="M14 34H4V44H14V34Z" fill="#000" data-color="color-2"></path> <path d="M44 4H34V14H44V4Z" fill="#000" data-color="color-2"></path> <path d="M44 34H34V44H44V34Z" fill="#000" data-color="color-2"></path> </svg>