<svg xmlns="http://www.w3.org/2000/svg" xmlns:xlink="http://www.w3.org/1999/xlink" x="0px" y="0px" width="48px" height="48px" viewBox="0 0 48 48"> <path fill-rule="evenodd" clip-rule="evenodd" d="M22 41H15V38H22V41Z" fill="#000" data-color="color-2"></path> <path fill-rule="evenodd" clip-rule="evenodd" d="M44 41H37V38H44V41Z" fill="#000" data-color="color-2"></path> <path fill-rule="evenodd" clip-rule="evenodd" d="M6.5 41C7.32843 41 8 40.3284 8 39.5V29H11V39.5C11 41.9853 8.98528 44 6.5 44C4.01472 44 2 41.9853 2 39.5V37H5V39.5C5 40.3284 5.67157 41 6.5 41Z" fill="#000" data-color="color-2"></path> <path fill-rule="evenodd" clip-rule="evenodd" d="M16.8879 29H20.1248L24.5002 44H20.8404V42.1664L18.4807 34.0769L16.0003 42.2396V44H12.33L16.8879 29Z" fill="#000" data-color="color-2"></path> <path fill-rule="evenodd" clip-rule="evenodd" d="M38.8875 29H42.1244L46.4999 44H42.84V42.1664L40.4803 34.0769L37.9999 42.2396V44H34.3296L38.8875 29Z" fill="#000" data-color="color-2"></path> <path fill-rule="evenodd" clip-rule="evenodd" d="M27.888 44H31.1106L35.6854 29H31.9999V30.8004L29.5015 38.9921L26.9998 30.7603V29H23.3293L27.888 44Z" fill="#000" data-color="color-2"></path> <path fill-rule="evenodd" clip-rule="evenodd" d="M20.2426 2C19.1818 2 18.1644 2.42143 17.4142 3.17157L7.17157 13.4142C6.42153 14.1643 6 15.1812 6 16.2422V25H42V7.9991C42 4.68516 39.3135 2 36 2H20.2426ZM20 16V5L9 16H20Z" fill="black"></path> </svg>