<svg xmlns="http://www.w3.org/2000/svg" xmlns:xlink="http://www.w3.org/1999/xlink" x="0px" y="0px" width="48px" height="48px" viewBox="0 0 48 48"> <path fill-rule="evenodd" clip-rule="evenodd" d="M19 4L44 4L44 44L19 44L19 4Z" fill="black"></path> <path fill-rule="evenodd" clip-rule="evenodd" d="M4 25.5L11.5 25.5L11.5 22.5L4 22.5L4 25.5Z" fill="#000" data-color="color-2"></path> <path fill-rule="evenodd" clip-rule="evenodd" d="M4 13L11.5 13L11.5 10L4 10L4 13Z" fill="#000" data-color="color-2"></path> <path fill-rule="evenodd" clip-rule="evenodd" d="M4 38L11.5 38L11.5 35L4 35L4 38Z" fill="#000" data-color="color-2"></path> <path fill-rule="evenodd" clip-rule="evenodd" d="M4 19L16 19L16 16L4 16L4 19Z" fill="#000" data-color="color-2"></path> <path fill-rule="evenodd" clip-rule="evenodd" d="M4 44L16 44L16 41L4 41L4 44Z" fill="#000" data-color="color-2"></path> <path fill-rule="evenodd" clip-rule="evenodd" d="M4 7L16 7L16 4L4 4L4 7Z" fill="#000" data-color="color-2"></path> <path fill-rule="evenodd" clip-rule="evenodd" d="M4 32L16 32L16 29L4 29L4 32Z" fill="#000" data-color="color-2"></path> </svg>