<svg xmlns="http://www.w3.org/2000/svg" xmlns:xlink="http://www.w3.org/1999/xlink" x="0px" y="0px" width="48px" height="48px" viewBox="0 0 48 48"> <path fill-rule="evenodd" clip-rule="evenodd" d="M10.5 43C7.73858 43 5.5 40.7614 5.5 38V10C5.5 7.23858 7.73858 5 10.5 5H15V43H10.5Z" fill="black"></path> <path fill-rule="evenodd" clip-rule="evenodd" d="M20 12H27V15H20V12Z" fill="#000" data-color="color-2"></path> <path fill-rule="evenodd" clip-rule="evenodd" d="M28 21H36V24H28V21Z" fill="#000" data-color="color-2"></path> <path fill-rule="evenodd" clip-rule="evenodd" d="M24 33H30V36H24V33Z" fill="#000" data-color="color-2"></path> <path fill-rule="evenodd" clip-rule="evenodd" d="M24 27H36V30H24V27Z" fill="#000" data-color="color-2"></path> <path fill-rule="evenodd" clip-rule="evenodd" d="M41 38L41 10C41 8.34315 39.6569 7 38 7L10 7C8.34315 7 7 8.34315 7 10L7 38C7 39.6569 8.34315 41 10 41L38 41C39.6569 41 41 39.6569 41 38ZM44 10L44 38C44 41.3137 41.3137 44 38 44L10 44C6.68629 44 4 41.3137 4 38L4 10C4 6.68629 6.68629 4 10 4L38 4C41.3137 4 44 6.68629 44 10Z" fill="black"></path> </svg>