<svg xmlns="http://www.w3.org/2000/svg" xmlns:xlink="http://www.w3.org/1999/xlink" x="0px" y="0px" width="48px" height="48px" viewBox="0 0 48 48"> <path fill-rule="evenodd" clip-rule="evenodd" d="M32 9C32 5.13401 35.134 2 39 2C42.866 2 46 5.13401 46 9C46 12.866 42.866 16 39 16C35.134 16 32 12.866 32 9Z" fill="#000" data-color="color-2"></path> <path d="M30.3378 4C29.487 5.47087 29 7.17856 29 9C29 14.5228 33.4772 19 39 19C40.8214 19 42.5291 18.513 44 17.6622V38C44 41.3137 41.3137 44 38 44H10C6.68629 44 4 41.3137 4 38V10C4 6.68629 6.68629 4 10 4H30.3378Z" fill="black"></path> </svg>