<svg xmlns="http://www.w3.org/2000/svg" xmlns:xlink="http://www.w3.org/1999/xlink" x="0px" y="0px" width="18px" height="18px" viewBox="0 0 18 18"><path opacity="0.3" d="M7.25 5.25C4.859 6.531 3 9.766 3 12.5C3 15.814 5.686 16.75 9 16.75C12.314 16.75 15 15.814 15 12.5C15 9.766 13.141 6.531 10.75 5.25" fill="#000" data-color="color-2" data-stroke="none"></path> <path d="M10.75 5.25L12.75 2.25C12.75 1.698 12.302 1.25 11.75 1.25H6.25C5.698 1.25 5.25 1.698 5.25 2.25L7.25 5.25H10.75Z" stroke="black" stroke-width="1.5" stroke-linecap="round" stroke-linejoin="round" fill="none"></path> <path d="M9 5.25V3.75" stroke="black" stroke-width="1.5" stroke-linecap="round" stroke-linejoin="round" fill="none"></path> <path d="M7.25 5.25C4.859 6.531 3 9.766 3 12.5C3 15.814 5.686 16.75 9 16.75C12.314 16.75 15 15.814 15 12.5C15 9.766 13.141 6.531 10.75 5.25" stroke="black" stroke-width="1.5" stroke-linecap="round" stroke-linejoin="round" fill="none"></path> <path d="M10.8181 8.50018H8.20444C7.51404 8.50018 6.95445 9.05982 6.95435 9.75012C6.95435 10.4406 7.51394 11.0004 8.20444 11.0004H9.79562C10.4858 11.0004 11.0455 11.5599 11.0455 12.2502C11.0455 12.9406 10.4859 13.5002 9.79562 13.5002H7.18164" stroke="black" stroke-width="1.5" stroke-linecap="round" stroke-linejoin="round" fill="none"></path> <path d="M9 7.75V8.50018" stroke="black" stroke-width="1.5" stroke-linecap="round" stroke-linejoin="round" fill="none"></path> <path d="M9 13.5V14.2502" stroke="black" stroke-width="1.5" stroke-linecap="round" stroke-linejoin="round" fill="none"></path></svg>