<svg xmlns="http://www.w3.org/2000/svg" xmlns:xlink="http://www.w3.org/1999/xlink" x="0px" y="0px" width="18px" height="18px" viewBox="0 0 18 18"><path d="m9.75,3.282h-1.5c-1.6569,0-3,1.3433-3,3v8.468h7.5V6.282c0-1.6567-1.3431-3-3-3Z" fill="#000" opacity=".3" stroke-width="0" data-color="color-2"></path><path d="m12.25,3.25h-6.5c-2.2091,0-4,1.7909-4,4v5.5c0,1.1046.8954,2,2,2h10.5c1.1046,0,2-.8954,2-2v-5.5c0-2.2091-1.7909-4-4-4Z" fill="none" stroke="#000" stroke-linecap="round" stroke-linejoin="round" stroke-width="1.5"></path><line x1="16.25" y1="8.25" x2="1.75" y2="8.25" fill="none" stroke="#000" stroke-linecap="round" stroke-linejoin="round" stroke-width="1.5"></line><path d="m5.25,14.75V6.25c0-1.6569,1.3431-3,3-3h.75" fill="none" stroke="#000" stroke-linecap="round" stroke-linejoin="round" stroke-width="1.5"></path><path d="m12.75,14.75V6.25c0-1.6569-1.3431-3-3-3h-.75" fill="none" stroke="#000" stroke-linecap="round" stroke-linejoin="round" stroke-width="1.5"></path><line x1="9" y1="8.25" x2="9" y2="10.25" fill="none" stroke="#000" stroke-linecap="round" stroke-linejoin="round" stroke-width="1.5"></line></svg>