<svg xmlns="http://www.w3.org/2000/svg" xmlns:xlink="http://www.w3.org/1999/xlink" x="0px" y="0px" width="18px" height="18px" viewBox="0 0 18 18"><path opacity="0.3" d="M7.25 5.25C4.859 6.531 3 9.766 3 12.5C3 15.814 5.686 16.75 9 16.75C12.314 16.75 15 15.814 15 12.5C15 9.766 13.141 6.531 10.75 5.25" fill="#000" data-color="color-2" data-stroke="none"></path> <path d="M7.25 5.25C4.859 6.531 3 9.766 3 12.5C3 15.814 5.686 16.75 9 16.75C12.314 16.75 15 15.814 15 12.5C15 9.766 13.141 6.531 10.75 5.25" stroke="black" stroke-width="1.5" stroke-linecap="round" stroke-linejoin="round" fill="none"></path> <path d="M10.75 5.25L12.75 2.25C12.75 1.698 12.302 1.25 11.75 1.25H6.25C5.698 1.25 5.25 1.698 5.25 2.25L7.25 5.25H10.75Z" stroke="black" stroke-width="1.5" stroke-linecap="round" stroke-linejoin="round" fill="none"></path> <path d="M9 5.25V3.75" stroke="black" stroke-width="1.5" stroke-linecap="round" stroke-linejoin="round" fill="none"></path></svg>