<svg xmlns="http://www.w3.org/2000/svg" xmlns:xlink="http://www.w3.org/1999/xlink" x="0px" y="0px" width="18px" height="18px" viewBox="0 0 18 18"><path d="M8.25 11.75L14.673 7.23C14.883 7.082 15.028 6.86 15.078 6.608L16 2L11.392 2.922C11.14 2.972 10.918 3.117 10.77 3.327L6.25 9.75" fill="#000" fill-opacity="0.3" data-color="color-2" data-stroke="none"></path> <path d="M8.25 11.75L14.673 7.23C14.883 7.082 15.028 6.86 15.078 6.608L16 2L11.392 2.922C11.14 2.972 10.918 3.117 10.77 3.327L6.25 9.75" stroke="black" stroke-width="1.5" stroke-linecap="round" stroke-linejoin="round" fill="none"></path> <path d="M4.75 8.25L9.75 13.25" stroke="black" stroke-width="1.5" stroke-linecap="round" stroke-linejoin="round" fill="none"></path> <path d="M4.75 15.25L8.25 11.75" stroke="black" stroke-width="1.5" stroke-linecap="round" stroke-linejoin="round" fill="none"></path> <path d="M6.25 9.75L2.75 13.25" stroke="black" stroke-width="1.5" stroke-linecap="round" stroke-linejoin="round" fill="none"></path> <path d="M2 12.5L5.5 16" stroke="black" stroke-width="1.5" stroke-linecap="round" stroke-linejoin="round" fill="none"></path></svg>