<svg xmlns="http://www.w3.org/2000/svg" xmlns:xlink="http://www.w3.org/1999/xlink" x="0px" y="0px" width="18px" height="18px" viewBox="0 0 18 18"><path d="M3.75 6.25H9V11.75H4.75C4.198 11.75 3.75 11.302 3.75 10.75V6.25Z" fill="#000" fill-opacity="0.3" data-color="color-2" data-stroke="none"></path> <path d="M9 6.25H13.25C13.802 6.25 14.25 6.698 14.25 7.25V11.75H9V6.25Z" fill="#000" fill-opacity="0.3" data-color="color-2" data-stroke="none"></path> <path d="M4.75 1.25H8C8.552 1.25 9 1.698 9 2.25V6.25H3.75V2.25C3.75 1.698 4.198 1.25 4.75 1.25Z" stroke="black" stroke-width="1.5" stroke-linecap="round" stroke-linejoin="round" fill="none"></path> <path d="M9 11.75H14.25V15.75C14.25 16.302 13.802 16.75 13.25 16.75H10C9.448 16.75 9 16.302 9 15.75V11.75Z" stroke="black" stroke-width="1.5" stroke-linecap="round" stroke-linejoin="round" fill="none"></path> <path d="M3.75 6.25H9V11.75H4.75C4.198 11.75 3.75 11.302 3.75 10.75V6.25Z" stroke="black" stroke-width="1.5" stroke-linecap="round" stroke-linejoin="round" fill="none"></path> <path d="M9 6.25H13.25C13.802 6.25 14.25 6.698 14.25 7.25V11.75H9V6.25Z" stroke="black" stroke-width="1.5" stroke-linecap="round" stroke-linejoin="round" fill="none"></path></svg>