<svg xmlns="http://www.w3.org/2000/svg" xmlns:xlink="http://www.w3.org/1999/xlink" x="0px" y="0px" width="18px" height="18px" viewBox="0 0 18 18"><line x1="15.976" y1="6.75" x2="2.024" y2="6.75" fill="none" stroke="#000" stroke-linecap="round" stroke-linejoin="round" stroke-width="1.5" data-color="color-2"></line><path d="M6.688,6.75c.065,.467,.161,1.62-.438,2.875-.46,.965-1.121,1.55-1.492,1.833" fill="none" stroke="#000" stroke-linecap="round" stroke-linejoin="round" stroke-width="1.5" data-color="color-2"></path><path d="M11.312,6.75c-.065,.467-.161,1.62,.438,2.875,.46,.965,1.121,1.55,1.492,1.833" fill="none" stroke="#000" stroke-linecap="round" stroke-linejoin="round" stroke-width="1.5" data-color="color-2"></path><path d="M14.822,3.75H3.178c-.523,0-.958,.403-.997,.925l-.43,5.725c2.577,.205,4.715,1.967,5.463,4.35h3.574c.748-2.383,2.886-4.145,5.463-4.35l-.43-5.725c-.039-.522-.474-.925-.997-.925Z" fill="none" stroke="#000" stroke-linecap="round" stroke-linejoin="round" stroke-width="1.5"></path></svg>