<svg xmlns="http://www.w3.org/2000/svg" xmlns:xlink="http://www.w3.org/1999/xlink" x="0px" y="0px" width="18px" height="18px" viewBox="0 0 18 18"><line x1="2.25" y1="3" x2="2.25" y2="8.243" fill="none" stroke="#000" stroke-linecap="round" stroke-linejoin="round" stroke-width="1.5" data-color="color-2"></line><line x1="15.75" y1="3" x2="15.75" y2="8.243" fill="none" stroke="#000" stroke-linecap="round" stroke-linejoin="round" stroke-width="1.5" data-color="color-2"></line><path d="M2.25,8.243c-.718,1.361-.668,3.031,.117,4.283,.065,.103,1.103,1.851,3.214,1.709s3.263-1.579,3.419-1.985v.002c-.682-1.009-1.375-1.918-2.788-2.852-1.516-1.002-3.153-1.157-3.962-1.157Z" fill="none" stroke="#000" stroke-linecap="round" stroke-linejoin="round" stroke-width="1.5"></path><path d="M15.75,8.243c.718,1.361,.668,3.031-.117,4.283-.065,.103-1.103,1.851-3.214,1.709s-3.263-1.579-3.419-1.985v.002c.682-1.009,1.375-1.918,2.788-2.852,1.516-1.002,3.153-1.157,3.962-1.157Z" fill="none" stroke="#000" stroke-linecap="round" stroke-linejoin="round" stroke-width="1.5"></path></svg>