<svg xmlns="http://www.w3.org/2000/svg" xmlns:xlink="http://www.w3.org/1999/xlink" x="0px" y="0px" width="18px" height="18px" viewBox="0 0 18 18"><path d="M10.75 14.25H7.25" stroke="black" stroke-width="1.5" stroke-linecap="round" stroke-linejoin="round" fill="none"></path> <path d="M11.253 3.567C12.74 4.37 13.75 5.942 13.75 7.75V15.75" stroke="black" stroke-width="1.5" stroke-linecap="round" stroke-linejoin="round" fill="none"></path> <path d="M4.25 15.75V7.75C4.25 5.946 5.255 4.378 6.736 3.573" stroke="black" stroke-width="1.5" stroke-linecap="round" stroke-linejoin="round" fill="none"></path> <path d="M6.75 2.552C6.75 2.191 6.939 1.848 7.259 1.681C7.663 1.47 8.259 1.25101 9 1.25101C9.258 1.25101 9.96 1.27801 10.723 1.67101C11.05 1.84001 11.25 2.188 11.25 2.556V8C11.25 9.105 10.355 10 9.25 10H8.75C7.645 10 6.75 9.105 6.75 8V2.552Z" stroke="#000" stroke-width="1.5" stroke-linecap="round" stroke-linejoin="round" data-color="color-2" fill="none"></path></svg>