<svg xmlns="http://www.w3.org/2000/svg" xmlns:xlink="http://www.w3.org/1999/xlink" x="0px" y="0px" width="18px" height="18px" viewBox="0 0 18 18"><path d="M1.332,9.723l1.614-4.647c.446-1.243,1.953-1.721,3.034-.961" fill="none" stroke="#000" stroke-linecap="round" stroke-linejoin="round" stroke-width="1.5" data-color="color-2"></path><path d="M16.668,9.723l-1.614-4.647c-.446-1.243-1.953-1.721-3.034-.961" fill="none" stroke="#000" stroke-linecap="round" stroke-linejoin="round" stroke-width="1.5" data-color="color-2"></path><path d="M10.29,10.763c-.108-.587-.643-1.013-1.29-1.013-.647,0-1.183,.426-1.29,1.013" fill="none" stroke="#000" stroke-linecap="round" stroke-linejoin="round" stroke-width="1.5" data-color="color-2"></path><path d="M4.281,14.197c.138,.071,.299,.071,.437,0,.729-.374,3.031-1.73,3.031-3.934,.004-.968-.791-1.757-1.777-1.763-.593,.007-1.144,.301-1.473,.786-.329-.484-.881-.778-1.473-.786-.985,.006-1.78,.794-1.777,1.763,0,2.205,2.303,3.56,3.031,3.934Z" fill="none" stroke="#000" stroke-linecap="round" stroke-linejoin="round" stroke-width="1.5"></path><path d="M13.719,14.197c-.138,.071-.299,.071-.437,0-.729-.374-3.031-1.73-3.031-3.934-.004-.968,.791-1.757,1.777-1.763,.593,.007,1.144,.301,1.473,.786,.329-.484,.881-.778,1.473-.786,.985,.006,1.78,.794,1.777,1.763,0,2.205-2.303,3.56-3.031,3.934Z" fill="none" stroke="#000" stroke-linecap="round" stroke-linejoin="round" stroke-width="1.5"></path></svg>