<svg xmlns="http://www.w3.org/2000/svg" xmlns:xlink="http://www.w3.org/1999/xlink" x="0px" y="0px" width="18px" height="18px" viewBox="0 0 18 18"><line x1="5.75" y1="4.75" x2="11.75" y2="4.75" fill="none" stroke="#000" stroke-linecap="round" stroke-linejoin="round" stroke-width="1.5" data-color="color-2"></line><path d="M11.75,7.743c-1.795,0-3.25,1.455-3.25,3.25,0,.897,.364,1.71,.952,2.298" fill="none" stroke="#000" stroke-linecap="round" stroke-linejoin="round" stroke-width="1.5" data-color="color-2"></path><path d="M10.057,16.221c.662-.068,1.307-.342,1.814-.85l3.793-3.793c.375-.375,.586-.884,.586-1.414V3.75c0-.552-.448-1-1-1h-1.163" fill="none" stroke="#000" stroke-linecap="round" stroke-linejoin="round" stroke-width="1.5" data-color="color-2"></path><path d="M11.75,10.164V2.75c0-.552-.448-1-1-1H6.75c-.552,0-1,.448-1,1v5.757l-2.501,2.501c-1.149,1.149-1.318,3.039-.231,4.246,1.159,1.287,3.144,1.326,4.354,.117l3.793-3.793c.375-.375,.586-.884,.586-1.414Z" fill="none" stroke="#000" stroke-linecap="round" stroke-linejoin="round" stroke-width="1.5"></path></svg>