<svg xmlns="http://www.w3.org/2000/svg" xmlns:xlink="http://www.w3.org/1999/xlink" x="0px" y="0px" width="18px" height="18px" viewBox="0 0 18 18"><path d="M10.75,10.25c.415,.508,1.118,1.241,2.191,1.875,.804,.475,1.584,.757,2.232,.927,.544,.143,1.096-.216,1.217-.765,.284-1.282,.36-2.409,.36-3.286s-.076-2.005-.36-3.286c-.122-.549-.673-.908-1.217-.765-.647,.17-1.427,.451-2.232,.927-1.073,.634-1.776,1.367-2.191,1.875" fill="none" stroke="#000" stroke-linecap="round" stroke-linejoin="round" stroke-width="1.5"></path><path d="M7.25,10.25c-.415,.508-1.118,1.241-2.191,1.875-.804,.475-1.584,.757-2.232,.927-.544,.143-1.096-.216-1.217-.765-.284-1.282-.36-2.409-.36-3.286s.076-2.005,.36-3.286c.122-.549,.673-.908,1.217-.765,.647,.17,1.427,.451,2.232,.927,1.073,.634,1.776,1.367,2.191,1.875" fill="none" stroke="#000" stroke-linecap="round" stroke-linejoin="round" stroke-width="1.5"></path><rect x="7.25" y="6.25" width="3.5" height="5.5" rx="1" ry="1" fill="none" stroke="#000" stroke-linecap="round" stroke-linejoin="round" stroke-width="1.5" data-color="color-2"></rect><line x1="10.75" y1="9" x2="13.25" y2="9" fill="none" stroke="#000" stroke-linecap="round" stroke-linejoin="round" stroke-width="1.5" data-color="color-2"></line><line x1="7.25" y1="9" x2="4.75" y2="9" fill="none" stroke="#000" stroke-linecap="round" stroke-linejoin="round" stroke-width="1.5" data-color="color-2"></line></svg>