<svg xmlns="http://www.w3.org/2000/svg" xmlns:xlink="http://www.w3.org/1999/xlink" x="0px" y="0px" width="18px" height="18px" viewBox="0 0 18 18"><line x1="3.421" y1="4.75" x2="9.583" y2="4.75" fill="none" stroke="#000" stroke-linecap="round" stroke-linejoin="round" stroke-width="1.5" data-color="color-2"></line><line x1="7.75" y1="7.75" x2="9.417" y2="7.75" fill="none" stroke="#000" stroke-linecap="round" stroke-linejoin="round" stroke-width="1.5" data-color="color-2"></line><path d="M3.722,10.016L3.25,1.75h6.5l-.347,6.253c-.086,1.554,1.03,2.916,2.571,3.136l2.559,.365c.985,.141,1.717,.985,1.717,1.98v1.499c0,.47-.326,.872-.784,.978-1.063,.246-2.553,.428-4.27,.133-1.096-.188-2.004-.522-2.696-.844-.083,.333-.167,.667-.25,1H4l-.25-1c-.211-.42-.532-1.197-.562-2.219-.027-.908,.187-1.648,.386-2.142,.113-.279,.166-.573,.149-.874Z" fill="none" stroke="#000" stroke-linecap="round" stroke-linejoin="round" stroke-width="1.5"></path></svg>