<svg xmlns="http://www.w3.org/2000/svg" xmlns:xlink="http://www.w3.org/1999/xlink" x="0px" y="0px" width="24px" height="24px" viewBox="0 0 24 24"> <path d="M17.778 9.2693L18.6255 5.69153C19.0719 3.80726 17.6427 2 15.7063 2H8.27997C6.34791 2 4.91962 3.79964 5.35834 5.68123L6.18946 9.24569" stroke="black" stroke-width="2" data-cap="butt" fill="none"></path> <path d="M12 7C7.30558 7 3.5 10.7776 3.5 15.4375C3.5 18.0881 4.73124 20.4532 6.65696 22H17.343C19.2688 20.4532 20.5 18.0881 20.5 15.4375C20.5 10.7776 16.6944 7 12 7Z" stroke="black" stroke-width="2" stroke-miterlimit="10" stroke-linecap="square" fill="none"></path> <path d="M12 18C13.6569 18 15 16.6569 15 15C15 13.3431 13.6569 12 12 12C10.3431 12 9 13.3431 9 15C9 16.6569 10.3431 18 12 18Z" stroke="#000" stroke-width="2" stroke-miterlimit="10" stroke-linecap="square" data-color="color-2" fill="none"></path> </svg>