<svg xmlns="http://www.w3.org/2000/svg" xmlns:xlink="http://www.w3.org/1999/xlink" x="0px" y="0px" width="24px" height="24px" viewBox="0 0 24 24"> <path d="M11.5 11L12 9L12.5 11H11.5Z" stroke="#000" stroke-width="2" stroke-linecap="square" data-color="color-2" fill="none"></path> <path d="M16 2H18V3L16 4.5" stroke="#000" stroke-width="2" data-color="color-2" data-cap="butt" fill="none"></path> <path d="M8 2H6V3L8 4.5" stroke="#000" stroke-width="2" data-color="color-2" data-cap="butt" fill="none"></path> <path d="M19.0149 12.792L19 13L19.394 7.4845C19.4537 6.64806 20.1497 6 20.9883 6V6C21.8365 6 22.537 6.66251 22.5842 7.50937L23 14.9644C23.0002 15.6807 22.7441 16.3735 22.278 16.9174L18 22H18.0552" stroke="black" stroke-width="2" stroke-miterlimit="10" stroke-linecap="square" fill="none"></path> <path d="M5.92218 22H6L1.722 16.9174C1.25589 16.3735 0.999787 15.6807 1 14.9644L1.41581 7.50937C1.46305 6.66251 2.16354 6 3.01172 6V6C3.85029 6 4.54629 6.64806 4.60604 7.4845L5 13L4.97487 12.6482" stroke="black" stroke-width="2" stroke-miterlimit="10" stroke-linecap="square" fill="none"></path> <path d="M12 22L12 19.3419C12 17.858 11.3409 16.4507 10.2009 15.5008L7.07886 12.899C6.46784 12.3899 5.56938 12.4306 5.00697 12.993V12.993C4.43876 13.5612 4.40382 14.4711 4.92677 15.0812L7 17.5" stroke="black" stroke-width="2" stroke-miterlimit="10" stroke-linecap="square" fill="none"></path> <path d="M12 22L12 19.3419C12 17.858 12.6591 16.4507 13.7991 15.5008L16.9211 12.899C17.5322 12.3899 18.4306 12.4306 18.993 12.993V12.993C19.5612 13.5612 19.5962 14.4711 19.0732 15.0812L17 17.5" stroke="black" stroke-width="2" stroke-miterlimit="10" stroke-linecap="square" fill="none"></path> <path d="M8 1V4C8 6.20914 9.79086 8 12 8C14.2091 8 16 6.20914 16 4V1H8Z" stroke="#000" stroke-width="2" stroke-miterlimit="10" stroke-linecap="square" data-color="color-2" fill="none"></path> </svg>