<svg xmlns="http://www.w3.org/2000/svg" xmlns:xlink="http://www.w3.org/1999/xlink" x="0px" y="0px" width="24px" height="24px" viewBox="0 0 24 24"> <path d="M2.50159 21.5014L4.47608 19.527L4.33852 19.6645" stroke="#000" stroke-width="2" stroke-linecap="square" data-color="color-2" fill="none"></path> <path d="M21.5017 2.50157L19.5453 4.45798L19.658 4.34527" stroke="#000" stroke-width="2" stroke-linecap="square" data-color="color-2" fill="none"></path> <path d="M13.9481 10.055L10.0712 13.9319" stroke="black" stroke-width="2" stroke-linecap="square" fill="none"></path> <path d="M4.42975 13.9303L2.30843 16.0516C1.9179 16.4422 1.9179 17.0753 2.30843 17.4659L4.42975 19.5872L6.55107 21.7085C6.94159 22.099 7.57476 22.099 7.96528 21.7085L10.0866 19.5872" stroke="black" stroke-width="2" data-cap="butt" fill="none"></path> <path d="M13.9276 4.41881L16.0489 2.29749C16.4394 1.90696 17.0726 1.90696 17.4631 2.29749L21.7057 6.54013C22.0963 6.93065 22.0963 7.56382 21.7057 7.95434L19.5844 10.0757" stroke="black" stroke-width="2" data-cap="butt" fill="none"></path> <path d="M3.01556 12.5161L11.1473 20.6478" stroke="black" stroke-width="2" stroke-linecap="square" fill="none"></path> <path d="M12.5134 3.00456L20.6451 11.1363" stroke="black" stroke-width="2" stroke-linecap="square" fill="none"></path> </svg>