<svg xmlns="http://www.w3.org/2000/svg" xmlns:xlink="http://www.w3.org/1999/xlink" x="0px" y="0px" width="24px" height="24px" viewBox="0 0 24 24"> <path d="M12 8V16.5C12 18.9853 14.0147 21 16.5 21V21C18.9853 21 21 18.9853 21 16.5V12L18 14" stroke="black" stroke-width="2" stroke-linecap="square" fill="none"></path> <path d="M12 8V16.5C12 18.9853 9.98528 21 7.5 21V21C5.01472 21 3 18.9853 3 16.5V12L6 14" stroke="black" stroke-width="2" stroke-linecap="square" fill="none"></path> <path d="M12 8C13.6569 8 15 6.65685 15 5C15 3.34315 13.6569 2 12 2C10.3431 2 9 3.34315 9 5C9 6.65685 10.3431 8 12 8Z" stroke="#000" stroke-width="2" stroke-linecap="round" stroke-linejoin="round" data-color="color-2" fill="none"></path> </svg>