<svg xmlns="http://www.w3.org/2000/svg" xmlns:xlink="http://www.w3.org/1999/xlink" x="0px" y="0px" width="24px" height="24px" viewBox="0 0 24 24"> <path d="M1.46971 17H1.50003C1.26606 14.5273 0.629853 9.20388 1.46329 7.51474C2.49661 5.42103 4.06768 5.20983 5.27585 4.92457C6.39301 4.68389 7.37269 3.99169 7.99974 3L7.97266 3" stroke="black" stroke-width="2" stroke-linecap="square" fill="none"></path> <path d="M22.53 17H22.4997C22.7337 14.5273 23.3699 9.20388 22.5365 7.51474C21.5031 5.42103 19.9321 5.20983 18.7239 4.92457C17.6068 4.68389 16.6271 3.99169 16 3H16.0352" stroke="black" stroke-width="2" stroke-linecap="square" fill="none"></path> <path d="M18.8868 14C17 17.5 18.0018 21 18.0018 21H17.9457" stroke="black" stroke-width="2" stroke-linecap="square" fill="none"></path> <path d="M5.00002 14C6.88685 17.5 5.88505 21 5.88505 21H5.9246" stroke="black" stroke-width="2" stroke-linecap="square" fill="none"></path> <path d="M11.9997 15V19" stroke="#000" stroke-width="2" stroke-linecap="square" data-color="color-2" fill="none"></path> <path d="M13.9997 7C13.9997 7 13.7885 10.045 15.6263 11.6465" stroke="#000" stroke-width="2" stroke-linecap="square" data-color="color-2" fill="none"></path> <path d="M9.88709 7C9.88709 7 10.0983 10.045 8.26051 11.6465" stroke="#000" stroke-width="2" stroke-linecap="square" data-color="color-2" fill="none"></path> </svg>