<svg xmlns="http://www.w3.org/2000/svg" xmlns:xlink="http://www.w3.org/1999/xlink" x="0px" y="0px" width="32px" height="32px" viewBox="0 0 32 32"> <path d="M1 19L3 19H2.5" stroke="black" stroke-width="2" stroke-linecap="square" fill="none"></path> <path d="M12 23C14.2091 23 16 21.2091 16 19C16 16.7909 14.2091 15 12 15C9.79086 15 8 16.7909 8 19C8 21.2091 9.79086 23 12 23Z" stroke="#000" stroke-width="2" stroke-linecap="round" stroke-linejoin="round" data-color="color-2" fill="none"></path> <path d="M30 16L30.2029 16.9792L31 16.8141V16H30ZM30 10H31V9H30V10ZM20.9308 17.8788L20.728 16.8996L19.8247 17.0867L19.9385 18.0021L20.9308 17.8788ZM21 19H20C20 23.4183 16.4183 27 12 27V28V29C17.5228 29 22 24.5228 22 19H21ZM12 28V27C7.58172 27 4 23.4183 4 19H3H2C2 24.5228 6.47715 29 12 29V28ZM3 19H4C4 14.5817 7.58172 11 12 11V10V9C6.47715 9 2 13.4772 2 19H3ZM30 16H31V10H30H29V16H30ZM30 10V9H12V10V11H30V10ZM20.9308 17.8788L21.1337 18.858L30.2029 16.9792L30 16L29.7971 15.0208L20.728 16.8996L20.9308 17.8788ZM20.9308 17.8788L19.9385 18.0021C19.979 18.3286 20 18.6616 20 19H21H22C22 18.579 21.9739 18.1636 21.9232 17.7555L20.9308 17.8788Z" fill="black" data-cap="butt" data-stroke="none"></path> <path d="M12 5V2" stroke="#000" stroke-width="2" stroke-linecap="square" data-color="color-2" fill="none"></path> <path d="M17 6L19 4" stroke="#000" stroke-width="2" stroke-linecap="square" data-color="color-2" fill="none"></path> <path d="M7 6L5 4" stroke="#000" stroke-width="2" stroke-linecap="square" data-color="color-2" fill="none"></path> </svg>