<svg xmlns="http://www.w3.org/2000/svg" xmlns:xlink="http://www.w3.org/1999/xlink" x="0px" y="0px" width="32px" height="32px" viewBox="0 0 32 32"> <path d="M13 29V23H19V29" stroke="#000" stroke-width="2" data-color="color-2" data-cap="butt" fill="none"></path> <path d="M2.02734 11.8945L4.00001 25.8499C6.4498 27.7375 10.9074 29 16 29C21.0927 29 25.5502 27.7375 28 25.8499L29.957 11.9922" stroke="black" stroke-width="2" stroke-miterlimit="10" data-cap="butt" fill="none"></path> <path d="M24 6V6.24595V2H25.5L24.2286 3" stroke="#000" stroke-width="2" data-color="color-2" data-cap="butt" fill="none"></path> <path d="M8 6V6.24595V2H9.5L8.22864 3" stroke="#000" stroke-width="2" data-color="color-2" data-cap="butt" fill="none"></path> <path d="M16 4.75405V5V1H17.5L16.2286 2" stroke="#000" stroke-width="2" data-color="color-2" data-cap="butt" fill="none"></path> <path d="M25.3173 11.8626C23.862 10.1869 20.239 9 16 9C11.7609 9 8.13791 10.1869 6.68262 11.8626" stroke="black" stroke-width="2" stroke-miterlimit="10" stroke-linecap="square" fill="none"></path> <path d="M12 13.6366C13.0615 13.2407 14.4633 13 16 13C17.5367 13 18.9385 13.2407 20 13.6366" stroke="black" stroke-width="2" stroke-miterlimit="10" stroke-linecap="square" fill="none"></path> <path d="M16 18C23.732 18 30 15.0899 30 11.5C30 7.91015 23.732 5 16 5C8.26801 5 2 7.91015 2 11.5C2 15.0899 8.26801 18 16 18Z" stroke="black" stroke-width="2" stroke-miterlimit="10" stroke-linecap="square" fill="none"></path> </svg>