<svg xmlns="http://www.w3.org/2000/svg" xmlns:xlink="http://www.w3.org/1999/xlink" x="0px" y="0px" width="32px" height="32px" viewBox="0 0 32 32"> <path d="M12.5 15L12 19H12.5" stroke="black" stroke-width="2" stroke-linecap="square" fill="none"></path> <path d="M19.5 15L20 19H19.5" stroke="black" stroke-width="2" stroke-linecap="square" fill="none"></path> <path d="M8 19L10.7562 11.9127C11.2046 10.7595 12.315 10 13.5522 10H18.4478C19.685 10 20.7954 10.7595 21.2438 11.9127L24 19" stroke="black" stroke-width="2" data-cap="butt" fill="none"></path> <path d="M5 19L27 19" stroke="#000" stroke-width="2" data-color="color-2" data-cap="butt" fill="none"></path> <path d="M31 23L31 15C31 14.4477 30.5523 14 30 14L28 14C27.4477 14 27 14.4477 27 15L27 23C27 23.5523 27.4477 24 28 24L30 24C30.5523 24 31 23.5523 31 23Z" stroke="#000" stroke-width="2" stroke-linecap="square" data-color="color-2" fill="none"></path> <path d="M1 23L1 15C1 14.4477 1.44772 14 2 14L4 14C4.55228 14 5 14.4477 5 15L5 23C5 23.5523 4.55228 24 4 24L2 24C1.44772 24 1 23.5523 1 23Z" stroke="#000" stroke-width="2" stroke-linecap="square" data-color="color-2" fill="none"></path> <path d="M14.8125 23H14.8425L13.5 30.0002H11L11.5258 23H11.5" stroke="black" stroke-width="2" stroke-miterlimit="10" stroke-linecap="square" fill="none"></path> <path d="M17.2026 22.9999H17.1653L18.5 30.0001L21 30.0002L20.482 23.0001H20.5" stroke="black" stroke-width="2" stroke-miterlimit="10" stroke-linecap="square" fill="none"></path> <path d="M16 7C17.3807 7 18.5 5.88071 18.5 4.5C18.5 3.11929 17.3807 2 16 2C14.6193 2 13.5 3.11929 13.5 4.5C13.5 5.88071 14.6193 7 16 7Z" stroke="#000" stroke-width="2" stroke-miterlimit="10" stroke-linecap="square" data-color="color-2" fill="none"></path> </svg>