<svg xmlns="http://www.w3.org/2000/svg" xmlns:xlink="http://www.w3.org/1999/xlink" x="0px" y="0px" width="32px" height="32px" viewBox="0 0 32 32"> <path d="M21.8643 20.8644L22 21.0001L18.8315 17.8316" stroke="#000" stroke-width="2" stroke-linecap="square" data-color="color-2" fill="none"></path> <path d="M4 3.00013L13.1799 12.1801" stroke="#000" stroke-width="2" stroke-linecap="square" data-color="color-2" fill="none"></path> <path d="M29.5 28.5L26 25L26.1357 25.1357" stroke="#000" stroke-width="2" stroke-linecap="square" data-color="color-2" fill="none"></path> <path d="M22 21C20.0474 22.9526 20.0474 26.0474 22 28L23 28L29 22L29 21C27.0474 19.0474 23.9526 19.0474 22 21Z" stroke="#000" stroke-width="2" stroke-miterlimit="10" stroke-linecap="square" data-color="color-2" fill="none"></path> <path d="M28 3.00012L10 21.0001L10.1357 20.8644" stroke="black" stroke-width="2" stroke-linecap="square" fill="none"></path> <path d="M2.5 28.5L6 25L5.86425 25.1357" stroke="black" stroke-width="2" stroke-linecap="square" fill="none"></path> <path d="M10 21C11.9526 22.9526 11.9526 26.0474 9.99999 28L8.99999 28L2.99998 22L3 21C4.95262 19.0474 8.04738 19.0474 10 21Z" stroke="black" stroke-width="2" stroke-miterlimit="10" stroke-linecap="square" fill="none"></path> </svg>