<svg xmlns="http://www.w3.org/2000/svg" xmlns:xlink="http://www.w3.org/1999/xlink" x="0px" y="0px" width="32px" height="32px" viewBox="0 0 32 32"> <path d="M14 29L14 23C14 21.3432 12.6568 20 11 20L9.33331 20" stroke="black" stroke-width="2" stroke-linecap="square" stroke-linejoin="round" fill="none"></path> <path d="M18 29L18 23C18 21.3432 19.3432 20 21 20L22.6667 20" stroke="black" stroke-width="2" stroke-linecap="square" stroke-linejoin="round" fill="none"></path> <path d="M6.5 4.99997H25.5" stroke="#000" stroke-width="2" stroke-linejoin="round" data-color="color-2" data-cap="butt" fill="none"></path> <path d="M7 3C7 7.10526 2 8.47368 2 16.6842C2.15697 21.2508 3.76446 24.682 4.32115 29H4.24019" stroke="black" stroke-width="2" stroke-linecap="square" fill="none"></path> <path d="M25 3C25 7.10526 30 8.47368 30 16.6842C29.843 21.2508 28.2355 24.682 27.6788 29H27.7598" stroke="black" stroke-width="2" stroke-linecap="square" fill="none"></path> <path d="M9 20V20C12.866 20 16 16.866 16 13V13" stroke="black" stroke-width="2" stroke-linecap="square" stroke-linejoin="round" fill="none"></path> <path d="M23 20V20C19.134 20 16 16.866 16 13V13" stroke="black" stroke-width="2" stroke-linecap="square" stroke-linejoin="round" fill="none"></path> </svg>