<svg xmlns="http://www.w3.org/2000/svg" xmlns:xlink="http://www.w3.org/1999/xlink" x="0px" y="0px" width="32px" height="32px" viewBox="0 0 32 32"> <path d="M20 29V26.3333L26.5988 24.9891C27.9961 24.7045 29 23.4755 29 22.0495V20H3V22.0495C3 23.4755 4.00385 24.7045 5.40119 24.9891L12 26.3333V29" stroke="black" stroke-width="2" stroke-miterlimit="10" stroke-linecap="square" fill="none"></path> <path d="M22.5 11.2481C22.5 6.86569 16 2 16 2L12.1406 6.86569L10.3125 5.92998C10.3125 5.92998 9.5 10.2647 9.5 11.2481C9.5 13.7691 10.901 15.2619 12.75 16L16 12.9338L19.25 16C21.099 15.2619 22.5 13.7691 22.5 11.2481Z" stroke="#000" stroke-width="2" stroke-miterlimit="10" stroke-linecap="square" data-color="color-2" fill="none"></path> </svg>