<svg xmlns="http://www.w3.org/2000/svg" xmlns:xlink="http://www.w3.org/1999/xlink" x="0px" y="0px" width="32px" height="32px" viewBox="0 0 32 32"> <path d="M6 11H26" stroke="black" stroke-width="2" stroke-linecap="square" fill="none"></path> <path d="M10 7V3" stroke="#000" stroke-width="2" stroke-linecap="square" data-color="color-2" fill="none"></path> <path d="M22 7V3" stroke="#000" stroke-width="2" stroke-linecap="square" data-color="color-2" fill="none"></path> <path d="M22 15V29" stroke="#000" stroke-width="2" stroke-linecap="square" data-color="color-2" fill="none"></path> <path d="M10 15V29" stroke="#000" stroke-width="2" stroke-linecap="square" data-color="color-2" fill="none"></path> <path d="M20 29H24" stroke="#000" stroke-width="2" stroke-linecap="square" data-color="color-2" fill="none"></path> <path d="M8 29H12" stroke="#000" stroke-width="2" stroke-linecap="square" data-color="color-2" fill="none"></path> <path d="M26 16.5L26 5.5C26 4.67157 26.6716 4 27.5 4L28.5 4C29.3284 4 30 4.67157 30 5.5L30 16.5C30 17.3284 29.3284 18 28.5 18L27.5 18C26.6716 18 26 17.3284 26 16.5Z" stroke="black" stroke-width="2" stroke-linecap="square" fill="none"></path> <path d="M2 16.5L2 5.5C2 4.67157 2.67157 4 3.5 4L4.5 4C5.32843 4 6 4.67157 6 5.5L6 16.5C6 17.3284 5.32843 18 4.5 18L3.5 18C2.67157 18 2 17.3284 2 16.5Z" stroke="black" stroke-width="2" stroke-linecap="square" fill="none"></path> </svg>