<svg xmlns="http://www.w3.org/2000/svg" xmlns:xlink="http://www.w3.org/1999/xlink" x="0px" y="0px" width="32px" height="32px" viewBox="0 0 32 32"> <path d="M7.5 22C8.88071 22 10 20.8807 10 19.5C10 18.1193 8.88071 17 7.5 17C6.11929 17 5 18.1193 5 19.5C5 20.8807 6.11929 22 7.5 22Z" stroke="#000" stroke-width="2" stroke-miterlimit="10" stroke-linecap="square" data-color="color-2" fill="none"></path> <path d="M24.5 22C25.8807 22 27 20.8807 27 19.5C27 18.1193 25.8807 17 24.5 17C23.1193 17 22 18.1193 22 19.5C22 20.8807 23.1193 22 24.5 22Z" stroke="#000" stroke-width="2" stroke-miterlimit="10" stroke-linecap="square" data-color="color-2" fill="none"></path> <path d="M30.5 11V11C29.5557 12.259 28.0738 13 26.5 13H5.49996C3.92619 13 2.44427 12.259 1.5 11V11" stroke="black" stroke-width="2" stroke-linecap="square" fill="none"></path> </svg>