<svg xmlns="http://www.w3.org/2000/svg" xmlns:xlink="http://www.w3.org/1999/xlink" x="0px" y="0px" width="48px" height="48px" viewBox="0 0 48 48"> <path d="M33.9042 14.1154L38.3704 8.66016" stroke="#000" stroke-width="2" data-color="color-2" data-cap="butt" fill="none"></path> <path d="M33.8996 33.862L38.3731 39.3588" stroke="#000" stroke-width="2" data-color="color-2" data-cap="butt" fill="none"></path> <path d="M14.0736 14.1085L9.63714 8.66364" stroke="#000" stroke-width="2" data-color="color-2" data-cap="butt" fill="none"></path> <path d="M14.1018 33.8902L9.60954 39.3578" stroke="#000" stroke-width="2" data-color="color-2" data-cap="butt" fill="none"></path> <path d="M24 45C35.598 45 45 35.598 45 24C45 12.402 35.598 3 24 3C12.402 3 3 12.402 3 24C3 35.598 12.402 45 24 45Z" stroke="black" stroke-width="2" stroke-miterlimit="10" stroke-linecap="square" fill="none"></path> <path d="M14.0143 33.8471C20.8691 35.381 27.1612 35.3876 34.0153 33.8471C39.3282 28.6658 39.3282 19.3342 34.0153 14.1528C30.583 13.3882 27.4765 13.0014 24.0195 13C20.572 12.9986 17.4364 13.3804 14.0143 14.1528C8.65659 19.3779 8.6672 28.6324 14.0143 33.8471Z" stroke="black" stroke-width="2" stroke-miterlimit="10" stroke-linecap="square" fill="none"></path> <path d="M15 24H33" stroke="black" stroke-width="2" stroke-linecap="square" fill="none"></path> <path d="M24 22V26" stroke="black" stroke-width="2" stroke-linecap="square" fill="none"></path> <path d="M29 22V26" stroke="black" stroke-width="2" stroke-linecap="square" fill="none"></path> <path d="M19 22V26" stroke="black" stroke-width="2" stroke-linecap="square" fill="none"></path> </svg>