<svg xmlns="http://www.w3.org/2000/svg" xmlns:xlink="http://www.w3.org/1999/xlink" x="0px" y="0px" width="48px" height="48px" viewBox="0 0 48 48"> <path d="M32 8C33.5 11.1667 33.8 17.2 23 20C16.3221 21.7313 14.8265 26.5271 15.1437 29.9998" stroke="black" stroke-width="2" data-cap="butt" fill="none"></path> <path d="M23.4924 38.5843C26.9652 38.9015 30.7687 38.3389 32.5001 31.661C35.3001 20.861 42.3334 20.161 45.5001 21.6611L45.8375 21.8338" stroke="black" stroke-width="2" data-cap="butt" fill="none"></path> <path d="M46 24C46 15.1634 38.8366 8 30 8C21.1634 8 14 15.1634 14 24C14 32.8366 21.1634 40 30 40C38.8366 40 46 32.8366 46 24Z" stroke="black" stroke-width="2" stroke-miterlimit="10" stroke-linecap="square" fill="none"></path> <path d="M7.99994 24H1.99994" stroke="#000" stroke-width="2" stroke-linecap="square" data-color="color-2" fill="none"></path> <path d="M13 12H7" stroke="#000" stroke-width="2" stroke-linecap="square" data-color="color-2" fill="none"></path> <path d="M10 30H7" stroke="#000" stroke-width="2" stroke-linecap="square" data-color="color-2" fill="none"></path> </svg>