<svg xmlns="http://www.w3.org/2000/svg" xmlns:xlink="http://www.w3.org/1999/xlink" x="0px" y="0px" width="18px" height="18px" viewBox="0 0 18 18"><path d="M14.75 14.5C13.928 14.5 13.206 14.098 12.75 13.486V17.5C12.75 17.702 12.872 17.885 13.059 17.962C13.246 18.041 13.46 17.997 13.604 17.854L14.75 16.708L15.896 17.854C15.992 17.95 16.12 18 16.25 18C16.314 18 16.38 17.988 16.441 17.962C16.628 17.885 16.75 17.702 16.75 17.5V13.486C16.294 14.098 15.572 14.5 14.75 14.5Z" fill="#000" data-color="color-2" data-stroke="none"></path> <path d="M5.75 7.25H11" stroke="black" stroke-width="1.5" stroke-linecap="round" stroke-linejoin="round" fill="none"></path> <path d="M5.75 10.25H8.25" stroke="black" stroke-width="1.5" stroke-linecap="round" stroke-linejoin="round" fill="none"></path> <path d="M14.75 14.5C16.131 14.5 17.25 13.3807 17.25 12C17.25 10.6193 16.131 9.5 14.75 9.5C13.369 9.5 12.25 10.6193 12.25 12C12.25 13.3807 13.369 14.5 14.75 14.5Z" stroke="#000" stroke-width="1.5" stroke-linecap="round" stroke-linejoin="round" data-color="color-2" fill="none"></path> <path d="M16.25 6.7134V5.25C16.25 4.145 15.355 3.25 14.25 3.25H3.75C2.645 3.25 1.75 4.145 1.75 5.25V12.25C1.75 13.355 2.645 14.25 3.75 14.25H9.7533" stroke="black" stroke-width="1.5" stroke-linecap="round" stroke-linejoin="round" fill="none"></path></svg>