<svg xmlns="http://www.w3.org/2000/svg" xmlns:xlink="http://www.w3.org/1999/xlink" x="0px" y="0px" width="18px" height="18px" viewBox="0 0 18 18"><path d="m8.3034,16.217c-3.7776-.3601-6.7098-3.619-6.5469-7.5271.157-3.7659,3.3501-6.8755,7.1188-6.9388,4.0612-.0683,7.3747,3.2034,7.3747,7.2489h0c0,1.5188-1.2312,2.75-2.75,2.75h-2.963c-1.0336,0-1.6928,1.1036-1.2027,2.0137l.2374.4409c.2597.4823.2062,1.0732-.1361,1.501h0c-.2736.342-.6962.553-1.1322.5115Z" fill="none" stroke="#000" stroke-linecap="round" stroke-linejoin="round" stroke-width="1.5"></path><circle cx="9" cy="5" r="1" fill="#000" stroke-width="0" data-color="color-2"></circle><circle cx="6.1716" cy="6.1716" r="1" fill="#000" stroke-width="0" data-color="color-2"></circle><circle cx="11.8284" cy="6.1716" r="1" fill="#000" stroke-width="0" data-color="color-2"></circle><circle cx="5" cy="9" r="1" fill="#000" stroke-width="0" data-color="color-2"></circle></svg>