<svg xmlns="http://www.w3.org/2000/svg" xmlns:xlink="http://www.w3.org/1999/xlink" x="0px" y="0px" width="24px" height="24px" viewBox="0 0 24 24"><path d="m14,16c0,1.105.895,2,2,2h5c1.105,0,2-.895,2-2v-8c0-.384-.108-.743-.296-1.047" fill="none" stroke="#000" stroke-linecap="square" stroke-miterlimit="10" stroke-width="2"></path><path d="m14,8c0-1.105.895-2,2-2h2s-1,0-1,0" fill="none" stroke="#000" stroke-linecap="square" stroke-miterlimit="10" stroke-width="2"></path><polyline points="7 12 12 12 11 12" fill="none" stroke="#000" stroke-linecap="square" stroke-miterlimit="10" stroke-width="2" data-color="color-2"></polyline><path d="m10,8c0-1.105-.895-2-2-2H3c-1.105,0-2,.895-2,2v8c0,1.105.895,2,2,2h3-1" fill="none" stroke="#000" stroke-linecap="square" stroke-miterlimit="10" stroke-width="2"></path><line x1="22" y1="2" x2="2" y2="22" fill="none" stroke="#000" stroke-linecap="square" stroke-miterlimit="10" stroke-width="2" data-color="color-2"></line></svg>