<svg xmlns="http://www.w3.org/2000/svg" xmlns:xlink="http://www.w3.org/1999/xlink" x="0px" y="0px" width="32px" height="32px" viewBox="0 0 32 32"><path d="m3.999,19.829c-1.164-.412-1.999-1.523-1.999-2.829V7c0-1.657,1.343-3,3-3h16c1.657,0,3,1.343,3,3v10c0,1.657-1.343,3-3,3h-9" fill="none" stroke="#000" stroke-linecap="square" stroke-miterlimit="10" stroke-width="2"></path><path d="m28.002,12.171c1.164.412,1.998,1.523,1.998,2.829v10c0,1.657-1.343,3-3,3H11c-1.657,0-3-1.343-3-3v-10c0-1.657,1.343-3,3-3h9" fill="none" stroke="#000" stroke-linecap="square" stroke-miterlimit="10" stroke-width="2" data-color="color-2"></path></svg>