<svg xmlns="http://www.w3.org/2000/svg" xmlns:xlink="http://www.w3.org/1999/xlink" x="0px" y="0px" width="32px" height="32px" viewBox="0 0 32 32"><path d="m18,12v-1c0-1.657,1.343-3,3-3h7c1.657,0,3,1.343,3,3v10c0,1.657-1.343,3-3,3h-7c-1.657,0-3-1.343-3-3v-1" fill="none" stroke="#000" stroke-linecap="square" stroke-miterlimit="10" stroke-width="2"></path><path d="m14,12v-1c0-1.657-1.343-3-3-3h-7c-1.657,0-3,1.343-3,3v10c0,1.657,1.343,3,3,3h7c1.657,0,3-1.343,3-3v-1" fill="none" stroke="#000" stroke-linecap="square" stroke-miterlimit="10" stroke-width="2"></path><line x1="10" y1="16" x2="22" y2="16" fill="none" stroke="#000" stroke-linecap="square" stroke-miterlimit="10" stroke-width="2" data-color="color-2"></line></svg>