<svg xmlns="http://www.w3.org/2000/svg" xmlns:xlink="http://www.w3.org/1999/xlink" x="0px" y="0px" width="48px" height="48px" viewBox="0 0 48 48"><path d="M42.5 13.5L41 10L39.5 13.5L36 15L39.5 16.5L41 20L42.5 16.5L46 15L42.5 13.5Z" fill="#000" data-color="color-2" data-cap="butt" data-stroke="none"></path> <path d="M9.9 8.1L9 6L8.1 8.1L6 9L8.1 9.9L9 12L9.9 9.9L12 9L9.9 8.1Z" fill="#000" data-color="color-2" data-cap="butt" data-stroke="none"></path> <path d="M37.8839 42H38L24.5 5H24H23.5L14.7432 29H33.0044" stroke="black" stroke-width="2" stroke-linecap="square" fill="none"></path> <path d="M12.3 35.7L10.5 32L8.7 35.7L5 37.5L8.7 39.3L10.5 43L12.3 39.3L16 37.5L12.3 35.7Z" stroke="#000" stroke-width="2" data-color="color-2" data-cap="butt" fill="none"></path></svg>