<svg xmlns="http://www.w3.org/2000/svg" xmlns:xlink="http://www.w3.org/1999/xlink" x="0px" y="0px" width="48px" height="48px" viewBox="0 0 48 48"> <path d="M28.5 19.5L27 21V17C27 14.7909 28.7909 13 31 13H35L34 14" stroke="black" stroke-width="2" stroke-linecap="square" fill="none"></path> <path d="M27 29V31C27 33.2091 28.7909 35 31 35H42C44.2091 35 46 33.2091 46 31V17C46 14.7909 44.2091 13 42 13V13" stroke="black" stroke-width="2" stroke-linecap="square" fill="none"></path> <path d="M21 19L21 17C21 14.7909 19.2091 13 17 13H6C3.79086 13 2 14.7909 2 17V31C2 33.2091 3.79086 35 6 35H13L13.5 34.5" stroke="black" stroke-width="2" stroke-linecap="square" fill="none"></path> <path d="M15 24H24L23.5 24.5" stroke="#000" stroke-width="2" stroke-miterlimit="10" stroke-linecap="square" data-color="color-2" fill="none"></path> <path d="M4 44L44 4" stroke="#000" stroke-width="2" stroke-miterlimit="10" stroke-linecap="square" data-color="color-2" fill="none"></path> </svg>