<svg xmlns="http://www.w3.org/2000/svg" xmlns:xlink="http://www.w3.org/1999/xlink" x="0px" y="0px" width="18px" height="18px" viewBox="0 0 18 18"><line x1="3" y1="2.25" x2="1.75" y2="2.25" fill="none" stroke="#000" stroke-linecap="round" stroke-linejoin="round" stroke-width="1.5" data-color="color-2"></line><line x1="4.757" y1="6.493" x2="3.873" y2="7.376" fill="none" stroke="#000" stroke-linecap="round" stroke-linejoin="round" stroke-width="1.5" data-color="color-2"></line><line x1="13.243" y1="6.493" x2="14.126" y2="7.376" fill="none" stroke="#000" stroke-linecap="round" stroke-linejoin="round" stroke-width="1.5" data-color="color-2"></line><line x1="15" y1="2.25" x2="16.25" y2="2.25" fill="none" stroke="#000" stroke-linecap="round" stroke-linejoin="round" stroke-width="1.5" data-color="color-2"></line><line x1="9" y1="8.25" x2="9" y2="9.5" fill="none" stroke="#000" stroke-linecap="round" stroke-linejoin="round" stroke-width="1.5" data-color="color-2"></line><path d="m12.5,2.25c0,1.933-1.567,3.5-3.5,3.5s-3.5-1.567-3.5-3.5" fill="none" stroke="#000" stroke-linecap="round" stroke-linejoin="round" stroke-width="1.5" data-color="color-2"></path><path d="m3.9547,12.25h10.0906c.4226,0,.7996.2657.9417.6637l.5357,1.5c.2326.6512-.2502,1.3363-.9417,1.3363H3.419c-.6915,0-1.1743-.6851-.9417-1.3363l.5357-1.5c.1421-.398.5191-.6637.9417-.6637Z" fill="none" stroke="#000" stroke-linecap="round" stroke-linejoin="round" stroke-width="1.5"></path></svg>