<svg xmlns="http://www.w3.org/2000/svg" xmlns:xlink="http://www.w3.org/1999/xlink" x="0px" y="0px" width="18px" height="18px" viewBox="0 0 18 18"><polyline points="11.25 5 9 7.25 6.75 5" fill="none" stroke="#000" stroke-linecap="round" stroke-linejoin="round" stroke-width="1.5" data-color="color-2"></polyline><line x1="9" y1="7.25" x2="9" y2="1.75" fill="none" stroke="#000" stroke-linecap="round" stroke-linejoin="round" stroke-width="1.5" data-color="color-2"></line><path d="M1.75,15.25c1.4,.004,2.729-.616,3.625-1.692,1.678,2.002,4.661,2.265,6.663,.587,.212-.178,.409-.374,.587-.587,.894,1.078,2.224,1.699,3.625,1.692" fill="none" stroke="#000" stroke-linecap="round" stroke-linejoin="round" stroke-width="1.5"></path><path d="M1.75,10.846c1.4,.004,2.729-.616,3.625-1.692,1.678,2.002,4.661,2.265,6.663,.587,.212-.178,.409-.374,.587-.587,.894,1.078,2.224,1.699,3.625,1.692" fill="none" stroke="#000" stroke-linecap="round" stroke-linejoin="round" stroke-width="1.5"></path></svg>