<svg xmlns="http://www.w3.org/2000/svg" xmlns:xlink="http://www.w3.org/1999/xlink" x="0px" y="0px" width="18px" height="18px" viewBox="0 0 18 18"><path d="M8.25098 6.826V6.75C8.25098 5.093 9.59398 3.75 11.251 3.75C12.908 3.75 14.251 5.093 14.251 6.75C14.251 6.834 14.248 6.918 14.241 7" stroke="#000" stroke-width="1.5" stroke-linecap="round" stroke-linejoin="round" data-color="color-2" fill="none"></path> <path d="M11.25 0.75V1.25" stroke="#000" stroke-width="1.5" stroke-linecap="round" stroke-linejoin="round" data-color="color-2" fill="none"></path> <path d="M15.493 2.507L15.139 2.861" stroke="#000" stroke-width="1.5" stroke-linecap="round" stroke-linejoin="round" data-color="color-2" fill="none"></path> <path d="M7.00702 2.507L7.36102 2.861" stroke="#000" stroke-width="1.5" stroke-linecap="round" stroke-linejoin="round" data-color="color-2" fill="none"></path> <path d="M17.25 6.75H16.75" stroke="#000" stroke-width="1.5" stroke-linecap="round" stroke-linejoin="round" data-color="color-2" fill="none"></path> <path d="M11.585 10.499C11.824 10.086 12.179 9.74701 12.605 9.52701" stroke="black" stroke-width="1.5" stroke-linecap="round" stroke-linejoin="round" fill="none"></path> <path d="M9.25 10.75L6.5 14.25H8.905L7.75 17.25L10.5 13.75H8.095L9.25 10.75Z" fill="#000" stroke="#000" stroke-width="1.5" stroke-linecap="round" stroke-linejoin="round" data-color="color-2"></path> <path d="M13.4508 14.25H13.75C15.131 14.25 16.25 13.1309 16.25 11.75C16.25 10.3691 15.131 9.25 13.75 9.25C13.337 9.25 12.953 9.3599 12.61 9.5371C12.183 7.935 10.736 6.75 9 6.75C7.264 6.75 5.818 7.936 5.39 9.5371C5.047 9.3599 4.663 9.25 4.25 9.25C2.869 9.25 1.75 10.3691 1.75 11.75C1.75 12.8721 2.4911 13.8191 3.5094 14.1355" stroke="black" stroke-width="1.5" stroke-linecap="round" stroke-linejoin="round" fill="none"></path></svg>