<svg xmlns="http://www.w3.org/2000/svg" xmlns:xlink="http://www.w3.org/1999/xlink" x="0px" y="0px" width="32px" height="32px" viewBox="0 0 32 32"> <path fill-rule="evenodd" clip-rule="evenodd" d="M24 2V29H22V2H24Z" fill="#000" data-color="color-2"></path> <path fill-rule="evenodd" clip-rule="evenodd" d="M4 18H14V20.1084L6.63455 28H14V30H4V27.8916L11.3654 20H4V18Z" fill="black"></path> <path fill-rule="evenodd" clip-rule="evenodd" d="M7.30701 2H10.193L14.693 14H12.1V12.7813L8.80701 4H8.69301L5.40001 12.7813V14H2.80701L7.30701 2Z" fill="black"></path> <path fill-rule="evenodd" clip-rule="evenodd" d="M12.5 11H5V9H12.5V11Z" fill="black"></path> <path fill-rule="evenodd" clip-rule="evenodd" d="M17 21.5858L23 27.5858L29 21.5858L30.4142 23L23 30.4142L15.5858 23L17 21.5858Z" fill="#000" data-color="color-2"></path> </svg>