<svg xmlns="http://www.w3.org/2000/svg" xmlns:xlink="http://www.w3.org/1999/xlink" x="0px" y="0px" width="24px" height="24px" viewBox="0 0 24 24"> <path d="M15 21.5422C14.053 21.8396 13.0452 22 12 22C6.47715 22 2 17.5228 2 12C2 9.88081 2.65919 7.9156 3.7837 6.2982L3.75221 6.34377" stroke="black" stroke-width="2" stroke-miterlimit="10" stroke-linecap="square" fill="none"></path> <path d="M12 8V7" stroke="#000" stroke-width="2" stroke-linecap="square" data-color="color-2" fill="none"></path> <path d="M12 17V16" stroke="#000" stroke-width="2" stroke-linecap="square" data-color="color-2" fill="none"></path> <path d="M14 8H11C9.89543 8 9 8.89543 9 10V10C9 11.1046 9.89543 12 11 12H13C14.1046 12 15 12.8954 15 14V14C15 15.1046 14.1046 16 13 16H10" stroke="#000" stroke-width="2" stroke-linecap="square" data-color="color-2" fill="none"></path> <path d="M9 2.4578C9.94704 2.16035 10.9548 2 12 2C17.5228 2 22 6.47715 22 12C22 14.161 21.3145 16.162 20.1491 17.7972L20.1682 17.7703" stroke="black" stroke-width="2" stroke-miterlimit="10" stroke-linecap="square" fill="none"></path> <path d="M18.9999 19.5L21.2853 18.37L18.8359 16.9558L18.9999 19.5Z" stroke="black" stroke-width="2" stroke-linecap="square" fill="none"></path> <path d="M5 4.61353L2.7146 5.74354L5.16408 7.15776L5 4.61353Z" stroke="black" stroke-width="2" stroke-linecap="square" fill="none"></path> </svg>