<svg xmlns="http://www.w3.org/2000/svg" xmlns:xlink="http://www.w3.org/1999/xlink" x="0px" y="0px" width="32px" height="32px" viewBox="0 0 32 32"> <path d="M24 9L7 9C5.34315 9 4 10.3431 4 12L4 25C4 26.6569 5.34315 28 7 28L24 28C25.6569 28 27 26.6569 27 25L27 12C27 10.3431 25.6569 9 24 9Z" stroke="black" stroke-width="2" stroke-miterlimit="10" stroke-linecap="square" fill="none"></path> <path d="M9 28L19.5 15.5L27 23" stroke="black" stroke-width="2" stroke-miterlimit="10" fill="none" data-cap="butt"></path> <path d="M10.5 17C11.6046 17 12.5 16.1046 12.5 15C12.5 13.8954 11.6046 13 10.5 13C9.39543 13 8.5 13.8954 8.5 15C8.5 16.1046 9.39543 17 10.5 17Z" stroke="black" stroke-width="2" stroke-linecap="square" fill="none"></path> <path d="M23 1.5L19.5 5C20.0047 5 22.4765 5 24.9998 5C28.3135 5 31 7.68629 31 11V12" stroke="#000" stroke-width="2" stroke-miterlimit="10" stroke-linecap="square" data-color="color-2" fill="none"></path> </svg>