<svg xmlns="http://www.w3.org/2000/svg" xmlns:xlink="http://www.w3.org/1999/xlink" x="0px" y="0px" width="32px" height="32px" viewBox="0 0 32 32"> <path d="M21.3929 19.0649L28.4139 26.0859C29.1949 26.8669 29.1949 28.1329 28.4139 28.9139C27.6329 29.6949 26.3669 29.6949 25.5859 28.9139L18.5649 21.8929" stroke="#000" stroke-width="2" stroke-miterlimit="10" data-color="color-2" fill="none" data-cap="butt"></path> <path d="M3 13.5C3 7.977 7.477 3.5 13 3.5C16.861 3.5 20.211 5.688 21.878 8.893" stroke="black" stroke-width="2" stroke-miterlimit="10" fill="none" data-cap="butt"></path> <path d="M22.9999 13.5C22.9999 19.023 18.5229 23.5 12.9999 23.5C9.13895 23.5 5.78895 21.312 4.12195 18.107" stroke="black" stroke-width="2" stroke-miterlimit="10" fill="none" data-cap="butt"></path> <path d="M23 13.5C23 19.0228 18.5228 23.5 13 23.5C9.0418 23.5 5.62072 21.2003 4 17.8641L4.02648 17.9182M3 13.5C3 7.97715 7.47715 3.5 13 3.5C16.9582 3.5 20.3793 5.7997 22 9.13587L21.9665 9.06756" stroke="black" stroke-width="2" fill="none" data-cap="butt"></path> <path d="M4 23.5V17.5H10" stroke="black" stroke-width="2" stroke-miterlimit="10" stroke-linecap="square" fill="none"></path> <path d="M22 3.5V9.5H16" stroke="black" stroke-width="2" stroke-miterlimit="10" stroke-linecap="square" fill="none"></path> </svg>