<svg xmlns="http://www.w3.org/2000/svg" xmlns:xlink="http://www.w3.org/1999/xlink" x="0px" y="0px" width="48px" height="48px" viewBox="0 0 48 48"> <path d="M35 14L12 14C9.23858 14 7 16.2386 7 19L7 36C7 38.7614 9.23858 41 12 41H35C37.7614 41 40 38.7614 40 36V19C40 16.2386 37.7614 14 35 14Z" stroke="black" stroke-width="2" stroke-miterlimit="10" stroke-linecap="square" fill="none"></path> <path d="M16.5 27C18.433 27 20 25.433 20 23.5C20 21.567 18.433 20 16.5 20C14.567 20 13 21.567 13 23.5C13 25.433 14.567 27 16.5 27Z" stroke="black" stroke-width="2" stroke-linecap="square" fill="none"></path> <path d="M32.5 3L26.5 9C27.1246 9 33.0286 9 38.0015 9C41.8675 9 45 12.134 45 16V20" stroke="#000" stroke-width="2" stroke-miterlimit="10" stroke-linecap="square" data-color="color-2" fill="none"></path> <path d="M13 40.9999L29 22.9999L40 33.9999" stroke="black" stroke-width="2" stroke-miterlimit="10" fill="none" data-cap="butt"></path> </svg>