<svg xmlns="http://www.w3.org/2000/svg" xmlns:xlink="http://www.w3.org/1999/xlink" x="0px" y="0px" width="48px" height="48px" viewBox="0 0 48 48"> <path d="M25 38H10.8C5.93947 38 2 34.2152 2 29.5455C2 25.8621 4.45667 22.7367 7.8784 21.5785C8.00013 13.5086 14.8377 7 23.2667 7C31.1393 7 37.6322 12.6754 38.5544 20" stroke="black" stroke-width="2" stroke-miterlimit="10" stroke-linecap="square" fill="none"></path> <path d="M45 25V29H41" stroke="#000" stroke-width="2" stroke-linecap="square" data-color="color-2" fill="none"></path> <path d="M31 41V37H35" stroke="#000" stroke-width="2" stroke-linecap="square" data-color="color-2" fill="none"></path> <path d="M44.9592 29.0514L45.0473 29.2105C43.6965 26.7037 41.0472 25 38 25C33.9204 25 30.554 28.0537 30.0619 32M31.0814 37.0193L30.9527 36.7895C32.3035 39.2963 34.9528 41 38 41C42.0796 41 45.446 37.9463 45.9381 34" stroke="#000" stroke-width="2" stroke-miterlimit="10" stroke-linecap="square" data-color="color-2" fill="none"></path> </svg>