<svg xmlns="http://www.w3.org/2000/svg" xmlns:xlink="http://www.w3.org/1999/xlink" x="0px" y="0px" width="48px" height="48px" viewBox="0 0 48 48"> <path d="M13 7L10.9235 7C8.52017 7 6.45683 8.7099 6.0105 11.0714L3 27L3 36C3 38.7614 5.23858 41 8 41L40 41C42.7614 41 45 38.7614 45 36L45 27L41.9895 11.0714C41.5432 8.7099 39.4798 7 37.0765 7L35 7" stroke="black" stroke-width="2" stroke-miterlimit="10" stroke-linecap="square" fill="none"></path> <path d="M3 27H16V34H32V27H45" stroke="black" stroke-width="2" stroke-miterlimit="10" fill="none" data-cap="butt"></path> <path d="M24 23V5V5.5" stroke="#000" stroke-width="2" stroke-linecap="square" data-color="color-2" fill="none"></path> <path d="M15 14L24 5L33 14" stroke="#000" stroke-width="2" stroke-miterlimit="10" stroke-linecap="square" data-color="color-2" fill="none"></path> </svg>