<svg xmlns="http://www.w3.org/2000/svg" xmlns:xlink="http://www.w3.org/1999/xlink" x="0px" y="0px" width="48px" height="48px" viewBox="0 0 48 48"> <path d="M35 5V43V42" stroke="#000" stroke-width="2" stroke-linecap="square" data-color="color-2" fill="none"></path> <path d="M26 34L35 43L44 34" stroke="#000" stroke-width="2" stroke-miterlimit="10" stroke-linecap="square" data-color="color-2" fill="none"></path> <rect x="5" y="28" width="15" height="15" rx="2.5" stroke="black" stroke-width="2" fill="none" data-cap="butt"></rect> <path d="M10 5H7.5C6.11929 5 5 6.11929 5 7.5L5 10" stroke="black" stroke-width="2" stroke-linecap="square" fill="none"></path> <path d="M10 20H7.5C6.11929 20 5 18.8807 5 17.5L5 15" stroke="black" stroke-width="2" stroke-linecap="square" fill="none"></path> <path d="M15 20H17.5C18.8807 20 20 18.8807 20 17.5V15" stroke="black" stroke-width="2" stroke-linecap="square" fill="none"></path> <path d="M15 5H17.5C18.8807 5 20 6.11929 20 7.5V10" stroke="black" stroke-width="2" stroke-linecap="square" fill="none"></path> </svg>