<svg xmlns="http://www.w3.org/2000/svg" xmlns:xlink="http://www.w3.org/1999/xlink" x="0px" y="0px" width="48px" height="48px" viewBox="0 0 48 48"> <path d="M4 24C4 35.0457 12.9543 44 24 44C35.0457 44 44 35.0457 44 24C44 12.9543 35.0457 4 24 4C15.7987 4 8.7504 8.93638 5.66417 16L5.81703 15.6589" stroke="black" stroke-width="2" stroke-miterlimit="10" stroke-linecap="square" fill="none"></path> <path d="M5 6V16H15" stroke="black" stroke-width="2" stroke-linecap="square" fill="none"></path> <path d="M28 17.5L22.25 17.5C20.4551 17.5 19 18.9551 19 20.75V20.75C19 22.5449 20.4551 24 22.25 24H24H25.75C27.5449 24 29 25.4551 29 27.25V27.25C29 29.0449 27.5449 30.5 25.75 30.5H20" stroke="#000" stroke-width="2" stroke-linecap="square" data-color="color-2" fill="none"></path> <path d="M24 30.5V33.5" stroke="#000" stroke-width="2" stroke-linecap="square" data-color="color-2" fill="none"></path> <path d="M24 17.5V14.5" stroke="#000" stroke-width="2" stroke-linecap="square" data-color="color-2" fill="none"></path> </svg>