<svg xmlns="http://www.w3.org/2000/svg" xmlns:xlink="http://www.w3.org/1999/xlink" x="0px" y="0px" width="48px" height="48px" viewBox="0 0 48 48"><rect x="45" y="45" width="24" height="24" rx="4" transform="rotate(-180 45 45)" stroke="black" stroke-width="2" fill="none" data-cap="butt"></rect> <path d="M29 16C29 8.8203 23.1797 3 16 3C8.8203 3 3 8.8203 3 16C3 23.1797 8.8203 29 16 29" stroke="black" stroke-width="2" stroke-miterlimit="10" stroke-linecap="square" fill="none"></path> <path d="M35.3334 10.8333L40 15.5L44.6667 10.8333" stroke="#000" stroke-width="2" stroke-miterlimit="10" stroke-linecap="square" data-color="color-2" fill="none"></path> <path d="M33 3H36C38.2091 3 40 4.79086 40 7V15.5V13.1667" stroke="#000" stroke-width="2" stroke-miterlimit="10" stroke-linecap="square" data-color="color-2" fill="none"></path> <path d="M12.6667 37.1666L8.00005 32.5L3.33338 37.1666" stroke="#000" stroke-width="2" stroke-miterlimit="10" stroke-linecap="square" data-color="color-2" fill="none"></path> <path d="M15 45L12 45C9.79083 45 7.99997 43.2091 7.99997 41L7.99997 32.5L7.99997 34.8333" stroke="#000" stroke-width="2" stroke-miterlimit="10" stroke-linecap="square" data-color="color-2" fill="none"></path></svg>