<svg xmlns="http://www.w3.org/2000/svg" xmlns:xlink="http://www.w3.org/1999/xlink" x="0px" y="0px" width="18px" height="18px" viewBox="0 0 18 18"><line x1="4.75" y1="12.75" x2="4.75" y2="15.25" fill="none" stroke="#000" stroke-linecap="round" stroke-linejoin="round" stroke-width="1.5" data-color="color-2"></line><path d="M10.75,15.25v-3.25c0-.69,.56-1.25,1.25-1.25h0c.69,0,1.25,.56,1.25,1.25v3.25" fill="none" stroke="#000" stroke-linecap="round" stroke-linejoin="round" stroke-width="1.5" data-color="color-2"></path><line x1="14.75" y1="5.427" x2="14.75" y2="3.5" fill="none" stroke="#000" stroke-linecap="round" stroke-linejoin="round" stroke-width="1.5" data-color="color-2"></line><line x1="7.75" y1="15.25" x2="7.75" y2="2.664" fill="none" stroke="#000" stroke-linecap="round" stroke-linejoin="round" stroke-width="1.5"></line><path d="M16.25,6.086V14.25c0,.552-.448,1-1,1H2.75c-.552,0-1-.448-1-1v-5.548" fill="none" stroke="#000" stroke-linecap="round" stroke-linejoin="round" stroke-width="1.5"></path><line x1="6.75" y1="2.262" x2="17.25" y2="6.488" fill="none" stroke="#000" stroke-linecap="round" stroke-linejoin="round" stroke-width="1.5"></line><line x1="7.75" y1="6.171" x2=".75" y2="8.988" fill="none" stroke="#000" stroke-linecap="round" stroke-linejoin="round" stroke-width="1.5"></line><circle cx="12" cy="8" r="1" fill="#000" data-color="color-2" data-stroke="none"></circle></svg>