<svg xmlns="http://www.w3.org/2000/svg" xmlns:xlink="http://www.w3.org/1999/xlink" x="0px" y="0px" width="18px" height="18px" viewBox="0 0 18 18"><path d="M15.25 8.0214V6.7461C15.25 6.4341 15.104 6.13889 14.855 5.94999L9.605 1.96C9.247 1.688 8.752 1.688 8.395 1.96L3.145 5.94999C2.896 6.13899 2.75 6.4341 2.75 6.7461V14.25C2.75 15.354 3.645 16.25 4.75 16.25H8.1651" stroke="black" stroke-width="1.5" stroke-linecap="round" stroke-linejoin="round" fill="none"></path> <path d="M13.7959 16.4542L16.9571 13.293C17.3476 12.9025 17.3476 12.2693 16.9571 11.8788L16.3713 11.293C15.9808 10.9025 15.3476 10.9025 14.9571 11.293L11.7959 14.4542L11.0001 17.2501L13.7959 16.4542Z" stroke="#000" stroke-width="1.5" stroke-linecap="round" stroke-linejoin="round" data-color="color-2" fill="none"></path></svg>