<svg xmlns="http://www.w3.org/2000/svg" xmlns:xlink="http://www.w3.org/1999/xlink" x="0px" y="0px" width="18px" height="18px" viewBox="0 0 18 18"><path d="M15.25 8.8047V6.7461C15.25 6.4341 15.104 6.13889 14.855 5.94999L9.605 1.96C9.247 1.688 8.752 1.688 8.395 1.96L3.145 5.94999C2.896 6.13899 2.75 6.4341 2.75 6.7461V14.25C2.75 15.354 3.645 16.25 4.75 16.25H6.8259" stroke="black" stroke-width="1.5" stroke-linecap="round" stroke-linejoin="round" fill="none"></path> <path d="M14.5 11.75C13.2297 11.75 12.1711 12.616 11.8553 13.7864C11.7405 13.7627 11.6217 13.75 11.5 13.75C10.5335 13.75 9.75 14.5335 9.75 15.5C9.75 16.4665 10.5335 17.25 11.5 17.25H14.5C16.0188 17.25 17.25 16.0187 17.25 14.5C17.25 12.9813 16.0188 11.75 14.5 11.75Z" stroke="#000" stroke-width="1.5" stroke-linecap="round" stroke-linejoin="round" data-color="color-2" fill="none"></path></svg>