<svg xmlns="http://www.w3.org/2000/svg" xmlns:xlink="http://www.w3.org/1999/xlink" x="0px" y="0px" width="18px" height="18px" viewBox="0 0 18 18"><path d="M9 12.75V16.25" stroke="#000" stroke-width="1.5" stroke-linecap="round" stroke-linejoin="round" data-color="color-2" fill="none"></path> <path d="M5.75 16.25H12.25" stroke="#000" stroke-width="1.5" stroke-linecap="round" stroke-linejoin="round" data-color="color-2" fill="none"></path> <path d="M15.0376 10.4496C13.4572 10.0817 11.4038 9.75598 8.99999 9.75598C7.39409 9.75598 5.31779 9.90118 2.96249 10.4496" stroke="black" stroke-width="1.5" stroke-linecap="round" stroke-linejoin="round" fill="none"></path> <path d="M5.25 7.25V3.75C5.25 2.645 6.145 1.75 7.25 1.75H10.75C11.855 1.75 12.75 2.645 12.75 3.75V7.25" stroke="#000" stroke-width="1.5" stroke-linecap="round" stroke-linejoin="round" data-color="color-2" fill="none"></path> <path d="M15.5 6.75L14.969 10.9981C14.8439 11.999 13.9931 12.75 12.9844 12.75H5.01551C4.00691 12.75 3.15611 11.9989 3.03091 10.9981L2.49991 6.75" stroke="black" stroke-width="1.5" stroke-linecap="round" stroke-linejoin="round" fill="none"></path></svg>