<svg xmlns="http://www.w3.org/2000/svg" xmlns:xlink="http://www.w3.org/1999/xlink" x="0px" y="0px" width="18px" height="18px" viewBox="0 0 18 18"><path d="M3.75 16.25V9.43579" stroke="black" stroke-width="1.5" stroke-linecap="round" stroke-linejoin="round" fill="none"></path> <path d="M14.25 9.436V16.25" stroke="black" stroke-width="1.5" stroke-linecap="round" stroke-linejoin="round" fill="none"></path> <path d="M2 7L9 1.75L16 7" stroke="black" stroke-width="1.5" stroke-linecap="round" stroke-linejoin="round" fill="none"></path> <path d="M7.5 16.25V12.25C7.5 11.974 7.724 11.75 8 11.75H10C10.276 11.75 10.5 11.974 10.5 12.25V16.25" stroke="#000" stroke-width="1.5" stroke-linecap="round" stroke-linejoin="round" data-color="color-2" fill="none"></path> <path d="M9.60001 7H8.39999C8.17899 7 8 7.1791 8 7.4V8.6C8 8.8209 8.17899 9 8.39999 9H9.60001C9.82101 9 10 8.8209 10 8.6V7.4C10 7.1791 9.82101 7 9.60001 7Z" fill="#000" data-color="color-2" data-stroke="none"></path> <path d="M4.75 4.938V2.25" stroke="black" stroke-width="1.5" stroke-linecap="round" stroke-linejoin="round" fill="none"></path> <path d="M16.25 16.25H1.75" stroke="black" stroke-width="1.5" stroke-linecap="round" stroke-linejoin="round" fill="none"></path></svg>