<svg xmlns="http://www.w3.org/2000/svg" xmlns:xlink="http://www.w3.org/1999/xlink" x="0px" y="0px" width="24px" height="24px" viewBox="0 0 24 24"> <path d="M10 19V22" stroke="#000" stroke-width="2" stroke-linecap="square" data-color="color-2" fill="none"></path> <path d="M14 19V22" stroke="#000" stroke-width="2" stroke-linecap="square" data-color="color-2" fill="none"></path> <path d="M12 2C6.75329 2 2.5 6.02944 2.5 11C2.5 13.6655 3.72313 16.0604 5.66667 17.7083V20C5.66667 21.1046 6.5621 22 7.66667 22H16.3333C17.4379 22 18.3333 21.1046 18.3333 20V17.7083C20.2769 16.0604 21.5 13.6655 21.5 11C21.5 6.02944 17.2467 2 12 2Z" stroke="black" stroke-width="2" data-cap="butt" fill="none"></path> <path d="M11 11.5C11 12.8807 9.88071 14 8.5 14C7.11929 14 6 12.8807 6 11.5C6 10.1193 7.11929 9 8.5 9C9.5 9 11 10.5 11 11.5Z" fill="#000" data-color="color-2" data-cap="butt" data-stroke="none"></path> <path d="M13 11.5C13 12.8807 14.1193 14 15.5 14C16.8807 14 18 12.8807 18 11.5C18 10.1193 16.8807 9 15.5 9C14.5 9 13 10.5 13 11.5Z" fill="#000" data-color="color-2" data-cap="butt" data-stroke="none"></path> </svg>