<svg xmlns="http://www.w3.org/2000/svg" xmlns:xlink="http://www.w3.org/1999/xlink" x="0px" y="0px" width="24px" height="24px" viewBox="0 0 24 24"> <path d="M22 14V16.5309C22 18.915 19.9277 20.7697 17.5583 20.5065L13.8896 20.0988C13.3831 20.0426 13 19.6145 13 19.105V17.5" stroke="black" stroke-width="2" data-cap="butt" fill="none"></path> <path d="M7 11L7 14.5C7 15.8807 8.11929 17 9.5 17V17C10.8807 17 12 15.8807 12 14.5L12 11" stroke="black" stroke-width="2" stroke-miterlimit="10" stroke-linecap="square" fill="none"></path> <path d="M12 10L12 15C12 16.3807 13.1193 17.5 14.5 17.5V17.5C15.8807 17.5 17 16.3807 17 15L17 10" stroke="black" stroke-width="2" stroke-miterlimit="10" stroke-linecap="square" fill="none"></path> <path d="M7 11V14C7 15.3807 5.88071 16.5 4.5 16.5V16.5C3.11929 16.5 2 15.3807 2 14L2 9.75624C2 7.09187 4.08927 4.89554 6.75031 4.76248L16.7503 4.26248C19.6062 4.11969 22 6.39676 22 9.25625V14.5C22 15.8807 20.8807 17 19.5 17V17C18.1193 17 17 15.8807 17 14.5V10" stroke="black" stroke-width="2" stroke-miterlimit="10" stroke-linecap="square" fill="none"></path> </svg>