<svg xmlns="http://www.w3.org/2000/svg" xmlns:xlink="http://www.w3.org/1999/xlink" x="0px" y="0px" width="24px" height="24px" viewBox="0 0 24 24"> <path d="M12 22C17.5228 22 22 17.5228 22 12C22 6.47715 17.5228 2 12 2C6.47715 2 2 6.47715 2 12C2 17.5228 6.47715 22 12 22Z" stroke="black" stroke-width="2" stroke-miterlimit="10" stroke-linecap="square" fill="none"></path> <path d="M18 9.5C18 10.6046 17.1046 11.5 16 11.5C14.8954 11.5 14 10.6046 14 9.5C14 8.39543 14.8954 7.5 16 7.5C17.1046 7.5 18 8.39543 18 9.5Z" stroke="#000" stroke-width="2" data-color="color-2" data-cap="butt" fill="none"></path> <path d="M10 9.5C10 10.6046 9.10457 11.5 8 11.5C6.89543 11.5 6 10.6046 6 9.5C6 8.39543 6.89543 7.5 8 7.5C9.10457 7.5 10 8.39543 10 9.5Z" stroke="#000" stroke-width="2" data-color="color-2" data-cap="butt" fill="none"></path> <path d="M8 15L16 15" stroke="#000" stroke-width="2" stroke-linecap="square" data-color="color-2" fill="none"></path> </svg>