<svg xmlns="http://www.w3.org/2000/svg" xmlns:xlink="http://www.w3.org/1999/xlink" x="0px" y="0px" width="24px" height="24px" viewBox="0 0 24 24"> <path d="M22 12C22 6.47715 17.5228 2 12 2C6.47715 2 2 6.47715 2 12C2 17.5228 6.47715 22 12 22C17.5228 22 22 17.5228 22 12Z" stroke="black" stroke-width="2" stroke-miterlimit="10" stroke-linecap="square" fill="none"></path> <path d="M18 12C18 9.79086 16.2091 8 14 8L14 16C16.2091 16 18 14.2091 18 12Z" stroke="#000" stroke-width="2" stroke-miterlimit="10" stroke-linecap="square" data-color="color-2" fill="none"></path> <path d="M10 10L9.75 10C8.7835 10 8 9.2165 8 8.25V8.25C8 7.2835 8.7835 6.5 9.75 6.5L10 6.5" stroke="#000" stroke-width="2" stroke-linecap="square" data-color="color-2" fill="none"></path> <path d="M10 17.5L9.75 17.5C8.7835 17.5 8 16.7165 8 15.75V15.75C8 14.7835 8.7835 14 9.75 14L10 14" stroke="#000" stroke-width="2" stroke-linecap="square" data-color="color-2" fill="none"></path> <path d="M4 22L1 22" stroke="black" stroke-width="2" stroke-linecap="square" fill="none"></path> </svg>