<svg xmlns="http://www.w3.org/2000/svg" xmlns:xlink="http://www.w3.org/1999/xlink" x="0px" y="0px" width="24px" height="24px" viewBox="0 0 24 24"> <path d="M11.5 7L11 6.72552C10.4022 6.37083 10 5.7079 10 4.9487C10 3.81588 10.836 2.84921 12 1.99998C13.164 2.84921 14 3.81588 14 4.9487C14 5.7079 13.5978 6.37083 13 6.72552L12.5 7" stroke="#000" stroke-width="2" stroke-miterlimit="10" data-color="color-2" data-cap="butt" fill="none"></path> <path d="M10 13L10 15C10 16.1046 9.10457 17 8 17V17C6.89543 17 6 16.1046 6 15L6 13" stroke="#000" stroke-width="2" data-color="color-2" data-cap="butt" fill="none"></path> <path d="M18 13L18 15C18 16.1046 17.1046 17 16 17V17C14.8954 17 14 16.1046 14 15L14 13" stroke="#000" stroke-width="2" data-color="color-2" data-cap="butt" fill="none"></path> <path d="M22 19L22 15C22 13.8954 21.1046 13 20 13L4 13C2.89543 13 2 13.8954 2 15L2 19C2 20.1046 2.89543 21 4 21L20 21C21.1046 21 22 20.1046 22 19Z" stroke="black" stroke-width="2" stroke-miterlimit="10" stroke-linecap="square" fill="none"></path> <path d="M20 13L20 8.5C20 7.67157 19.3284 7 18.5 7L5.5 7C4.67157 7 4 7.67157 4 8.5L4 13" stroke="black" stroke-width="2" stroke-miterlimit="10" stroke-linecap="square" fill="none"></path> <circle cx="8" cy="10" r="1" fill="black" data-cap="butt" data-stroke="none"></circle> <circle cx="12" cy="10" r="1" fill="black" data-cap="butt" data-stroke="none"></circle> <circle cx="16" cy="10" r="1" fill="black" data-cap="butt" data-stroke="none"></circle> </svg>