<svg xmlns="http://www.w3.org/2000/svg" xmlns:xlink="http://www.w3.org/1999/xlink" x="0px" y="0px" width="32px" height="32px" viewBox="0 0 32 32"> <path d="M30 18.5V23.3376C30 25.7891 27.8148 27.6638 25.3918 27.291L18.6959 26.2609C17.7202 26.1108 17 25.2713 17 24.2842V22" stroke="black" stroke-width="2" data-cap="butt" fill="none"></path> <path d="M9 15L9 19.5C9 21.433 10.567 23 12.5 23V23C14.433 23 16 21.433 16 19.5L16 15" stroke="black" stroke-width="2" stroke-miterlimit="10" stroke-linecap="square" fill="none"></path> <path d="M16 13L16 19.5C16 21.433 17.567 23 19.5 23V23C21.433 23 23 21.433 23 19.5L23 13" stroke="black" stroke-width="2" stroke-miterlimit="10" stroke-linecap="square" fill="none"></path> <path d="M9 14.6923V18.8077C9 20.7407 7.433 22.3077 5.5 22.3077V22.3077C3.567 22.3077 2 20.7407 2 18.8077L2 12.0952C2 8.89673 4.50905 6.26054 7.70366 6.10257L23.7037 5.31136C27.1296 5.14194 30 7.87395 30 11.304V19.5C30 21.433 28.433 23 26.5 23V23C24.567 23 23 21.433 23 19.5V13.3077" stroke="black" stroke-width="2" stroke-miterlimit="10" stroke-linecap="square" fill="none"></path> </svg>