<svg xmlns="http://www.w3.org/2000/svg" xmlns:xlink="http://www.w3.org/1999/xlink" x="0px" y="0px" width="32px" height="32px" viewBox="0 0 32 32"> <path d="M13 21H19" stroke="#000" stroke-width="2" stroke-linecap="square" data-color="color-2" fill="none"></path> <path d="M11.6132 23.5912C12.4796 23.0136 13 22.0412 13 21C13 19.9588 12.4796 18.9864 11.6132 18.4088" stroke="#000" stroke-width="2" stroke-linecap="square" data-color="color-2" fill="none"></path> <path d="M20.3868 23.5912C19.5204 23.0136 19 22.0412 19 21C19 19.9588 19.5204 18.9864 20.3868 18.4088" stroke="#000" stroke-width="2" stroke-linecap="square" data-color="color-2" fill="none"></path> <path d="M16 30C23.732 30 30 23.732 30 16C30 8.26801 23.732 2 16 2C8.26801 2 2 8.26801 2 16C2 23.732 8.26801 30 16 30Z" stroke="black" stroke-width="2" stroke-miterlimit="10" stroke-linecap="square" fill="none"></path> <path d="M22 13C22 13.5523 21.5523 14 21 14C20.4477 14 20 13.5523 20 13C20 12.4477 20.4477 12 21 12C21.5523 12 22 12.4477 22 13Z" fill="#000" stroke="#000" stroke-width="2" data-color="color-2" data-cap="butt"></path> <path d="M12 13C12 13.5523 11.5523 14 11 14C10.4477 14 10 13.5523 10 13C10 12.4477 10.4477 12 11 12C11.5523 12 12 12.4477 12 13Z" fill="#000" stroke="#000" stroke-width="2" data-color="color-2" data-cap="butt"></path> </svg>