<svg xmlns="http://www.w3.org/2000/svg" xmlns:xlink="http://www.w3.org/1999/xlink" x="0px" y="0px" width="48px" height="48px" viewBox="0 0 48 48"> <path d="M34.7305 24.586C36.163 22.7485 36.8945 20.652 36.5 18C34.16 18.1605 30.5975 18.672 29 20.6115C27.551 22.371 27.535 25.462 28 28C30.553 28.0795 33.196 26.5555 34.7305 24.586Z" stroke="#000" stroke-width="2" stroke-miterlimit="10" stroke-linecap="square" data-color="color-2" fill="none"></path> <path d="M13.2695 24.586C11.837 22.7485 11.1055 20.652 11.5 18C13.84 18.1605 17.4025 18.672 19 20.6115C20.449 22.371 20.465 25.462 20 28C17.447 28.0795 14.804 26.5555 13.2695 24.586Z" stroke="#000" stroke-width="2" stroke-miterlimit="10" stroke-linecap="square" data-color="color-2" fill="none"></path> <path d="M6 20.6842C6 10.6632 14.0405 3 24 3C33.72 3 42 10.6632 42 20.6842C42 30.7053 31.4118 45 24 45C16.5882 45 6 30.7053 6 20.6842Z" stroke="black" stroke-width="2" stroke-miterlimit="10" stroke-linecap="square" fill="none"></path> </svg>