<svg xmlns="http://www.w3.org/2000/svg" xmlns:xlink="http://www.w3.org/1999/xlink" x="0px" y="0px" width="48px" height="48px" viewBox="0 0 48 48"> <path d="M24 30C29.5228 30 34 25.5228 34 20C34 14.4772 29.5228 10 24 10C18.4772 10 14 14.4772 14 20C14 25.5228 18.4772 30 24 30Z" stroke="#000" stroke-width="2" stroke-miterlimit="10" stroke-linecap="square" data-color="color-2" fill="none"></path> <path d="M19 36H29" stroke="#000" stroke-width="2" stroke-linecap="square" data-color="color-2" fill="none"></path> <path d="M24 45C35.598 45 45 35.598 45 24C45 12.402 35.598 3 24 3C12.402 3 3 12.402 3 24C3 35.598 12.402 45 24 45Z" stroke="black" stroke-width="2" stroke-miterlimit="10" stroke-linecap="square" fill="none"></path> <path d="M26 20C26 21.1046 25.1046 22 24 22C22.8954 22 22 21.1046 22 20C22 18.8954 22.8954 18 24 18C25.1046 18 26 18.8954 26 20Z" fill="#000" stroke="#000" stroke-width="2" data-color="color-2" data-cap="butt"></path> </svg>