<svg xmlns="http://www.w3.org/2000/svg" xmlns:xlink="http://www.w3.org/1999/xlink" x="0px" y="0px" width="48px" height="48px" viewBox="0 0 48 48"> <path d="M19.9147 14.3659L19 14L22.5 2H25.5L29 14L28.0853 14.3659C25.4628 15.4149 22.5372 15.4149 19.9147 14.3659Z" stroke="#000" stroke-width="2" stroke-linecap="square" data-color="color-2" fill="none"></path> <path d="M33 19.5L29 23.822V24H37" stroke="#000" stroke-width="2" stroke-linecap="square" data-color="color-2" fill="none"></path> <path d="M15 19.5L19 23.822V24H11" stroke="#000" stroke-width="2" stroke-linecap="square" data-color="color-2" fill="none"></path> <path d="M16.7329 4.29139C8.71639 7.2483 3 14.9566 3 24C3 35.598 12.402 45 24 45C35.598 45 45 35.598 45 24C45 14.9566 39.2836 7.2483 31.2671 4.29139" stroke="black" stroke-width="2" stroke-miterlimit="10" stroke-linecap="square" fill="none"></path> <path d="M24 40C26.7614 40 29 37.3137 29 34C29 30.6863 26.7614 28 24 28C21.2386 28 19 30.6863 19 34C19 37.3137 21.2386 40 24 40Z" stroke="#000" stroke-width="2" stroke-miterlimit="10" stroke-linecap="square" data-color="color-2" fill="none"></path> </svg>