<svg xmlns="http://www.w3.org/2000/svg" xmlns:xlink="http://www.w3.org/1999/xlink" x="0px" y="0px" width="48px" height="48px" viewBox="0 0 48 48"> <path d="M36 24C37.2984 25.1667 38.5 26.9167 38.5 28.4199C38.5 30.0058 37.3806 31 36 31C34.6194 31 33.5 30.0058 33.5 28.4199C33.5 26.9167 34.7149 25.1667 36 24Z" fill="black" data-cap="butt" data-stroke="none"></path> <path d="M12 24C13.2984 25.1667 14.5 26.9167 14.5 28.4199C14.5 30.0058 13.3806 31 12 31C10.6194 31 9.5 30.0058 9.5 28.4199C9.5 26.9167 10.7149 25.1667 12 24Z" fill="black" data-cap="butt" data-stroke="none"></path> <path d="M24 38C26.7614 38 29 35.3137 29 32C29 28.6863 26.7614 26 24 26C21.2386 26 19 28.6863 19 32C19 35.3137 21.2386 38 24 38Z" stroke="#000" stroke-width="2" stroke-miterlimit="10" stroke-linecap="square" data-color="color-2" fill="none"></path> <path d="M30 20H35" stroke="#000" stroke-width="2" stroke-linecap="square" data-color="color-2" fill="none"></path> <path d="M18 20H13" stroke="#000" stroke-width="2" stroke-linecap="square" data-color="color-2" fill="none"></path> <path d="M24 45C35.598 45 45 35.598 45 24C45 12.402 35.598 3 24 3C12.402 3 3 12.402 3 24C3 35.598 12.402 45 24 45Z" stroke="black" stroke-width="2" stroke-miterlimit="10" stroke-linecap="square" fill="none"></path> </svg>