<svg xmlns="http://www.w3.org/2000/svg" xmlns:xlink="http://www.w3.org/1999/xlink" x="0px" y="0px" width="24px" height="24px" viewBox="0 0 24 24"> <path d="M20 10V4C20 2.89543 19.1046 2 18 2H11.0784C10.548 2 10.0393 2.21071 9.66421 2.58579L4.58579 7.66421C4.21071 8.03929 4 8.54799 4 9.07843L4 20C4 21.1046 4.89543 22 6 22H9" stroke="black" stroke-width="2" stroke-miterlimit="10" stroke-linecap="square" fill="none"></path> <path d="M4 9H11V2" stroke="black" stroke-width="2" stroke-miterlimit="10" data-cap="butt" fill="none"></path> <path d="M21 15V15C20.0044 14.6681 19.0576 14.205 18.1844 13.6229L18 13.5V20.5V20" stroke="#000" stroke-width="2" stroke-miterlimit="10" stroke-linecap="square" data-color="color-2" fill="none"></path> <path d="M15.5 23C16.8807 23 18 21.8807 18 20.5C18 19.1193 16.8807 18 15.5 18C14.1193 18 13 19.1193 13 20.5C13 21.8807 14.1193 23 15.5 23Z" stroke="#000" stroke-width="2" stroke-miterlimit="10" stroke-linecap="square" data-color="color-2" fill="none"></path> </svg>