<svg xmlns="http://www.w3.org/2000/svg" xmlns:xlink="http://www.w3.org/1999/xlink" x="0px" y="0px" width="24px" height="24px" viewBox="0 0 24 24"> <path d="M14.5 20.5L21.5 13.5" stroke="#000" stroke-width="2" data-color="color-2" data-cap="butt" fill="none"></path> <path d="M18 22C20.7614 22 23 19.7614 23 17C23 14.2386 20.7614 12 18 12C15.2386 12 13 14.2386 13 17C13 19.7614 15.2386 22 18 22Z" stroke="#000" stroke-width="2" stroke-miterlimit="10" stroke-linecap="square" data-color="color-2" fill="none"></path> <path d="M9 20H4C2.89543 20 2 19.1046 2 18V5C2 3.89543 2.89543 3 4 3H10L13 6H20C21.1046 6 22 6.89543 22 8V8.5" stroke="black" stroke-width="2" stroke-miterlimit="10" stroke-linecap="square" fill="none"></path> </svg>