<svg xmlns="http://www.w3.org/2000/svg" xmlns:xlink="http://www.w3.org/1999/xlink" x="0px" y="0px" width="24px" height="24px" viewBox="0 0 24 24"> <path d="M20 9V4C20 2.89543 19.1046 2 18 2H11.0784C10.548 2 10.0393 2.21071 9.66421 2.58579L4.58579 7.66421C4.21071 8.03929 4 8.54799 4 9.07843L4 20C4 21.1046 4.89543 22 6 22H8" stroke="black" stroke-width="2" stroke-miterlimit="10" stroke-linecap="square" fill="none"></path> <path d="M4 9H11V2" stroke="black" stroke-width="2" stroke-miterlimit="10" data-cap="butt" fill="none"></path> <path d="M22 13V16.5H18.5" stroke="#000" stroke-width="2" stroke-miterlimit="10" stroke-linecap="square" data-color="color-2" fill="none"></path> <path d="M12 22V18.5H15.5" stroke="#000" stroke-width="2" stroke-miterlimit="10" stroke-linecap="square" data-color="color-2" fill="none"></path> <path d="M20.854 16.5H21.242C20.788 14.496 18.996 13 16.854 13C15.5214 13 14.324 13.5794 13.5 14.5" stroke="#000" stroke-width="2" stroke-miterlimit="10" stroke-linecap="square" data-color="color-2" fill="none"></path> <path d="M13.146 18.5H12.758C13.212 20.504 15.004 22 17.146 22C18.4786 22 19.676 21.4206 20.5 20.5" stroke="#000" stroke-width="2" stroke-miterlimit="10" stroke-linecap="square" data-color="color-2" fill="none"></path> </svg>