<svg xmlns="http://www.w3.org/2000/svg" xmlns:xlink="http://www.w3.org/1999/xlink" x="0px" y="0px" width="24px" height="24px" viewBox="0 0 24 24"><path d="M1 21V15H3C4.10457 15 5 15.8954 5 17V17C5 18.1046 4.10457 19 3 19H1.5" stroke="#000" stroke-width="2" stroke-linecap="square" data-color="color-2" fill="none"></path> <path d="M7 21V15H9C10.1046 15 11 15.8954 11 17V17C11 18.1046 10.1046 19 9 19H7.5" stroke="#000" stroke-width="2" stroke-linecap="square" data-color="color-2" fill="none"></path> <path d="M22.2407 21H22.2786L18.9613 15H19" stroke="#000" stroke-width="2" stroke-linecap="square" data-color="color-2" fill="none"></path> <path d="M22.2114 15H22.2493L18.9613 21H19" stroke="#000" stroke-width="2" stroke-linecap="square" data-color="color-2" fill="none"></path> <path d="M14.5 21V15M14.5 15H16M14.5 15L13 15" stroke="#000" stroke-width="2" stroke-linecap="square" data-color="color-2" fill="none"></path> <path d="M4 9H11V2" stroke="black" stroke-width="2" stroke-miterlimit="10" data-cap="butt" fill="none"></path> <path d="M4 11V9.07843C4 8.54799 4.21071 8.03929 4.58579 7.66421L9.66421 2.58579C10.0393 2.21071 10.548 2 11.0784 2H18C19.1046 2 20 2.89543 20 4V11" stroke="black" stroke-width="2" stroke-miterlimit="10" stroke-linecap="square" fill="none"></path></svg>