<svg xmlns="http://www.w3.org/2000/svg" xmlns:xlink="http://www.w3.org/1999/xlink" x="0px" y="0px" width="24px" height="24px" viewBox="0 0 24 24"> <path d="M14.5 22C14.9548 19.9962 16.3586 18.5 18.4999 18.5C20.6412 18.5 22.0452 19.9962 22.5 22H14.5Z" stroke="#000" stroke-width="2" stroke-miterlimit="10" stroke-linecap="square" data-color="color-2" fill="none"></path> <path d="M18.5 16C19.6046 16 20.5 15.1046 20.5 14C20.5 12.8954 19.6046 12 18.5 12C17.3954 12 16.5 12.8954 16.5 14C16.5 15.1046 17.3954 16 18.5 16Z" stroke="#000" stroke-width="2" stroke-miterlimit="10" stroke-linecap="square" data-color="color-2" fill="none"></path> <path d="M11 20H4C2.89543 20 2 19.1046 2 18V5C2 3.89543 2.89543 3 4 3H10L13 6H20C21.1046 6 22 6.89543 22 8V9" stroke="black" stroke-width="2" stroke-miterlimit="10" stroke-linecap="square" fill="none"></path> </svg>