<svg xmlns="http://www.w3.org/2000/svg" xmlns:xlink="http://www.w3.org/1999/xlink" x="0px" y="0px" width="32px" height="32px" viewBox="0 0 32 32"> <path d="M15 10H27C28.1046 10 29 10.8954 29 12V28C29 29.1046 28.1046 30 27 30H15C13.8954 30 13 29.1046 13 28V12C13 10.8954 13.8954 10 15 10Z" stroke="black" stroke-width="2" stroke-miterlimit="10" stroke-linecap="square" fill="none"></path> <path d="M9 22H5C3.89543 22 3 21.1046 3 20L3 4C3 2.89543 3.89543 2 5 2L17 2C18.1046 2 19 2.89543 19 4V6" stroke="#000" stroke-width="2" stroke-miterlimit="10" stroke-linecap="square" data-color="color-2" fill="none"></path> <path d="M18 20H24" stroke="#000" stroke-width="2" stroke-miterlimit="10" stroke-linecap="square" data-color="color-2" fill="none"></path> <path d="M18 16H21" stroke="#000" stroke-width="2" stroke-miterlimit="10" stroke-linecap="square" data-color="color-2" fill="none"></path> </svg>