<svg xmlns="http://www.w3.org/2000/svg" xmlns:xlink="http://www.w3.org/1999/xlink" x="0px" y="0px" width="32px" height="32px" viewBox="0 0 32 32"> <path d="M13 2V11H4" stroke="black" stroke-width="2" stroke-miterlimit="10" data-cap="butt" fill="none"></path> <path d="M4 16V11.2426C4 10.447 4.31607 9.68393 4.87868 9.12132L11.1213 2.87868C11.6839 2.31607 12.447 2 13.2426 2H25C26.6569 2 28 3.34315 28 5V16" stroke="black" stroke-width="2" stroke-miterlimit="10" stroke-linecap="square" fill="none"></path> <path d="M29.9495 28H30L25.5 20H25.5516" stroke="#000" stroke-width="2" stroke-linecap="square" data-color="color-2" fill="none"></path> <path d="M29.9495 20H30L25.5 28H25.5516" stroke="#000" stroke-width="2" stroke-linecap="square" data-color="color-2" fill="none"></path> <path d="M15 24C15 26.2091 13.6569 28 12 28C10.3431 28 9 26.2091 9 24C9 21.7909 10.3431 20 12 20C13.6569 20 15 21.7909 15 24Z" stroke="#000" stroke-width="2" data-color="color-2" data-cap="butt" fill="none"></path> <path d="M22.5 20.6288C21.9948 20.2308 21.3943 20 20.75 20C18.9551 20 17.5 21.7909 17.5 24C17.5 26.2091 18.9551 28 20.75 28C21.3943 28 21.9948 27.7692 22.5 27.3712" stroke="#000" stroke-width="2" stroke-linecap="square" data-color="color-2" fill="none"></path> <path d="M1 20V28H2.5C4.70914 28 6.5 26.2091 6.5 24C6.5 21.7909 4.70914 20 2.5 20H1Z" stroke="#000" stroke-width="2" stroke-linecap="square" data-color="color-2" fill="none"></path> </svg>