<svg xmlns="http://www.w3.org/2000/svg" xmlns:xlink="http://www.w3.org/1999/xlink" x="0px" y="0px" width="32px" height="32px" viewBox="0 0 32 32"> <path d="M28.5 20.7074C27.8938 20.2596 27.1732 20 26.4 20C24.2461 20 22.5 22.0147 22.5 24.5C22.5 26.9853 24.2461 29 26.4 29C27.1732 29 27.8938 28.7404 28.5 28.2926" stroke="#000" stroke-width="2" stroke-linecap="square" data-color="color-2" fill="none"></path> <path d="M14 26.5H19" stroke="#000" stroke-width="2" data-color="color-2" data-cap="butt" fill="none"></path> <path d="M4 26.5H9" stroke="#000" stroke-width="2" data-color="color-2" data-cap="butt" fill="none"></path> <path d="M19.906 29H20L17 20H16L13 29H13.1023" stroke="#000" stroke-width="2" stroke-linecap="square" data-color="color-2" fill="none"></path> <path d="M9.90602 29H10L7 20H6L3 29H3.10228" stroke="#000" stroke-width="2" stroke-linecap="square" data-color="color-2" fill="none"></path> <path d="M13 2V11H4" stroke="black" stroke-width="2" stroke-miterlimit="10" data-cap="butt" fill="none"></path> <path d="M4 16V11.2426C4 10.447 4.31607 9.68393 4.87868 9.12132L11.1213 2.87868C11.6839 2.31607 12.447 2 13.2426 2H25C26.6569 2 28 3.34315 28 5V16" stroke="black" stroke-width="2" stroke-miterlimit="10" stroke-linecap="square" fill="none"></path> </svg>