<svg xmlns="http://www.w3.org/2000/svg" xmlns:xlink="http://www.w3.org/1999/xlink" x="0px" y="0px" width="48px" height="48px" viewBox="0 0 48 48"> <path d="M20 3V16H7" stroke="black" stroke-width="2" stroke-miterlimit="10" data-cap="butt" fill="none"></path> <path d="M34 33.5V37L37.5 39.5" stroke="#000" stroke-width="2" stroke-miterlimit="10" stroke-linecap="square" data-color="color-2" fill="none"></path> <path d="M34 46C38.9706 46 43 41.9706 43 37C43 32.0294 38.9706 28 34 28C29.0294 28 25 32.0294 25 37C25 41.9706 29.0294 46 34 46Z" stroke="#000" stroke-width="2" stroke-miterlimit="10" stroke-linecap="square" data-color="color-2" fill="none"></path> <path d="M22.5 45H12C9.23858 45 7 42.7699 7 40.0084C7 32.8718 7 20.4779 7 16.2381C7 15.4424 7.31607 14.6839 7.87868 14.1213L18.1213 3.87868C18.6839 3.31607 19.447 3 20.2426 3H36C38.7614 3 41 5.23555 41 7.99698C41 12.51 41 18.9657 41 25" stroke="black" stroke-width="2" stroke-miterlimit="10" stroke-linecap="square" fill="none"></path> </svg>