<svg xmlns="http://www.w3.org/2000/svg" xmlns:xlink="http://www.w3.org/1999/xlink" x="0px" y="0px" width="48px" height="48px" viewBox="0 0 48 48"> <path d="M20 3V16H7" stroke="black" stroke-width="2" stroke-miterlimit="10" data-cap="butt" fill="none"></path> <path d="M20.2496 45H12C9.23858 45 7 42.7699 7 40.0084C7 32.8718 7 20.4779 7 16.2381C7 15.4424 7.31607 14.6839 7.87868 14.1213L18.1213 3.87868C18.6839 3.31607 19.447 3 20.2426 3H36C38.7614 3 41 5.23788 41 7.99931C41 12.9132 41 20.1327 41 27" stroke="black" stroke-width="2" stroke-miterlimit="10" stroke-linecap="square" fill="none"></path> <path d="M32 25L35.2457 31.2544L42.5 32.258L37.25 37.1265L38.489 44L32 40.7544L25.511 44L26.75 37.1265L21.5 32.258L28.7543 31.2544L32 25Z" stroke="#000" stroke-width="2" stroke-miterlimit="10" stroke-linecap="square" data-color="color-2" fill="none"></path> </svg>