<svg xmlns="http://www.w3.org/2000/svg" xmlns:xlink="http://www.w3.org/1999/xlink" x="0px" y="0px" width="24px" height="24px" viewBox="0 0 24 24"><path d="m18.833,8l-.503,12.083c-.045,1.071-.926,1.917-1.998,1.917H7.668c-1.072,0-1.954-.845-1.998-1.917l-.503-12.083" fill="none" stroke="#000" stroke-miterlimit="10" stroke-width="2" data-cap="butt"></path><path d="m10,4v-1c0-.552.448-1,1-1h2c.552,0,1,.448,1,1v1" fill="none" stroke="#000" stroke-miterlimit="10" stroke-width="2" data-cap="butt"></path><line x1="10" y1="18" x2="10" y2="12" fill="none" stroke="#000" stroke-linecap="square" stroke-miterlimit="10" stroke-width="2" data-color="color-2"></line><line x1="14" y1="18" x2="14" y2="12" fill="none" stroke="#000" stroke-linecap="square" stroke-miterlimit="10" stroke-width="2" data-color="color-2"></line><path d="m5,4h14c1.104,0,2,.896,2,2v2H3v-2c0-1.104.896-2,2-2Z" fill="none" stroke="#000" stroke-linecap="square" stroke-miterlimit="10" stroke-width="2"></path></svg>