<svg xmlns="http://www.w3.org/2000/svg" xmlns:xlink="http://www.w3.org/1999/xlink" x="0px" y="0px" width="24px" height="24px" viewBox="0 0 24 24"> <path d="M16 21L22.5 14.5C23.3284 13.6716 23.3284 12.3284 22.5 11.5C21.6716 10.6716 20.3284 10.6716 19.5 11.5L13 18V21H16Z" stroke="#000" stroke-width="2" stroke-miterlimit="10" stroke-linecap="square" data-color="color-2" fill="none"></path> <path d="M12 12.25C12.6904 12.25 13.25 11.6904 13.25 11C13.25 10.3096 12.6904 9.75 12 9.75C11.3096 9.75 10.75 10.3096 10.75 11C10.75 11.6904 11.3096 12.25 12 12.25Z" fill="black" data-cap="butt" data-stroke="none"></path> <path d="M7.25 12.25C7.94036 12.25 8.5 11.6904 8.5 11C8.5 10.3096 7.94036 9.75 7.25 9.75C6.55964 9.75 6 10.3096 6 11C6 11.6904 6.55964 12.25 7.25 12.25Z" fill="black" data-cap="butt" data-stroke="none"></path> <path d="M22 7V7C22 5.89543 21.1046 5 20 5H4C2.89543 5 2 5.89543 2 7V15C2 16.1046 2.89543 17 4 17H9" stroke="black" stroke-width="2" stroke-miterlimit="10" stroke-linecap="square" fill="none"></path> </svg>