<svg xmlns="http://www.w3.org/2000/svg" xmlns:xlink="http://www.w3.org/1999/xlink" x="0px" y="0px" width="32px" height="32px" viewBox="0 0 32 32"><path fill-rule="evenodd" clip-rule="evenodd" d="M14.5 8.5C14.5 7.67157 15.1716 7 16 7C16.8284 7 17.5 7.67157 17.5 8.5C17.5 9.32843 16.8284 10 16 10C15.1716 10 14.5 9.32843 14.5 8.5Z" fill="black" data-stroke="none" data-cap="butt"></path> <path d="M27.4001 4.59999L25.4501 0.0499878L23.5001 4.59999L18.9501 6.54999L23.5001 8.49999L25.4501 13.05L27.4001 8.49999L31.9501 6.54999L27.4001 4.59999Z" fill="#000" data-color="color-2" data-stroke="none" data-cap="butt"></path> <path d="M29.6778 13C29.8888 13.9665 30 14.9703 30 16C30 23.732 23.732 30 16 30C8.26801 30 2 23.732 2 16C2 8.26801 8.26801 2 16 2C17.0297 2 18.0335 2.11118 19 2.32218" stroke="black" stroke-width="2" stroke-miterlimit="10" stroke-linecap="square" fill="none"></path> <path d="M16 23V14.5C16 13.672 15.328 13 14.5 13H13" stroke="black" stroke-width="2" stroke-miterlimit="10" stroke-linecap="square" fill="none"></path></svg>