<svg xmlns="http://www.w3.org/2000/svg" xmlns:xlink="http://www.w3.org/1999/xlink" x="0px" y="0px" width="48px" height="48px" viewBox="0 0 48 48"> <path d="M22 6H43" stroke="black" stroke-width="2" stroke-linecap="square" fill="none"></path> <path d="M22 21H43" stroke="black" stroke-width="2" stroke-linecap="square" fill="none"></path> <path d="M22 36H43" stroke="black" stroke-width="2" stroke-linecap="square" fill="none"></path> <path d="M22 12H30" stroke="black" stroke-width="2" stroke-linecap="square" fill="none"></path> <path d="M22 27H30" stroke="black" stroke-width="2" stroke-linecap="square" fill="none"></path> <path d="M22 42H30" stroke="black" stroke-width="2" stroke-linecap="square" fill="none"></path> <path d="M13 4H7C5.89543 4 5 4.89543 5 6V12C5 13.1046 5.89543 14 7 14H13C14.1046 14 15 13.1046 15 12V6C15 4.89543 14.1046 4 13 4Z" stroke="#000" stroke-width="2" stroke-miterlimit="10" stroke-linecap="square" data-color="color-2" fill="none"></path> <path d="M13 19H7C5.89543 19 5 19.8954 5 21V27C5 28.1046 5.89543 29 7 29H13C14.1046 29 15 28.1046 15 27V21C15 19.8954 14.1046 19 13 19Z" stroke="#000" stroke-width="2" stroke-miterlimit="10" stroke-linecap="square" data-color="color-2" fill="none"></path> <path d="M13 34H7C5.89543 34 5 34.8954 5 36V42C5 43.1046 5.89543 44 7 44H13C14.1046 44 15 43.1046 15 42V36C15 34.8954 14.1046 34 13 34Z" stroke="#000" stroke-width="2" stroke-miterlimit="10" stroke-linecap="square" data-color="color-2" fill="none"></path> </svg>