<svg xmlns="http://www.w3.org/2000/svg" xmlns:xlink="http://www.w3.org/1999/xlink" x="0px" y="0px" width="48px" height="48px" viewBox="0 0 48 48"><rect width="15" height="15" rx="2.5" transform="matrix(1 0 0 -1 5 43)" stroke="black" stroke-width="2" fill="none" data-cap="butt"></rect> <rect width="15" height="15" rx="2.5" transform="matrix(1 0 0 -1 5 20)" stroke="black" stroke-width="2" fill="none" data-cap="butt"></rect> <rect width="15" height="15" rx="2.5" transform="matrix(1 0 0 -1 28 20)" stroke="black" stroke-width="2" fill="none" data-cap="butt"></rect> <path d="M35 42C38.866 42 42 38.866 42 35C42 31.134 38.866 28 35 28C31.134 28 28 31.134 28 35C28 38.866 31.134 42 35 42Z" stroke="#000" stroke-width="2" stroke-miterlimit="10" stroke-linecap="square" data-color="color-2" fill="none"></path> <path d="M44 44L40 40L40.5 40.5" stroke="#000" stroke-width="2" stroke-miterlimit="10" stroke-linecap="square" data-color="color-2" fill="none"></path></svg>