<svg xmlns="http://www.w3.org/2000/svg" xmlns:xlink="http://www.w3.org/1999/xlink" x="0px" y="0px" width="48px" height="48px" viewBox="0 0 48 48"><path d="M35.5 28V43" stroke="#000" stroke-width="2" stroke-miterlimit="10" stroke-linecap="square" data-color="color-2" fill="none"></path> <path d="M43 35.5L28 35.5" stroke="#000" stroke-width="2" stroke-miterlimit="10" stroke-linecap="square" data-color="color-2" fill="none"></path> <path d="M12.5 43C16.6421 43 20 39.6421 20 35.5C20 31.3579 16.6421 28 12.5 28C8.35786 28 5 31.3579 5 35.5C5 39.6421 8.35786 43 12.5 43Z" stroke="black" stroke-width="2" stroke-miterlimit="10" stroke-linecap="square" fill="none"></path> <path d="M35.5 20C39.6421 20 43 16.6421 43 12.5C43 8.35786 39.6421 5 35.5 5C31.3579 5 28 8.35786 28 12.5C28 16.6421 31.3579 20 35.5 20Z" stroke="black" stroke-width="2" stroke-miterlimit="10" stroke-linecap="square" fill="none"></path> <path d="M12.5 20C16.6421 20 20 16.6421 20 12.5C20 8.35786 16.6421 5 12.5 5C8.35786 5 5 8.35786 5 12.5C5 16.6421 8.35786 20 12.5 20Z" stroke="black" stroke-width="2" stroke-miterlimit="10" stroke-linecap="square" fill="none"></path></svg>