<svg xmlns="http://www.w3.org/2000/svg" xmlns:xlink="http://www.w3.org/1999/xlink" x="0px" y="0px" width="48px" height="48px" viewBox="0 0 48 48"><rect width="15" height="15" rx="2.5" transform="matrix(1 0 0 -1 5 43)" stroke="black" stroke-width="2" fill="none" data-cap="butt"></rect> <rect width="15" height="15" rx="2.5" transform="matrix(1 0 0 -1 5 20)" stroke="black" stroke-width="2" fill="none" data-cap="butt"></rect> <rect width="15" height="15" rx="2.5" transform="matrix(1 0 0 -1 28 20)" stroke="black" stroke-width="2" fill="none" data-cap="butt"></rect> <path d="M33 43H30.5C29.1193 43 28 41.8807 28 40.5L28 38" stroke="#000" stroke-width="2" stroke-linecap="square" data-color="color-2" fill="none"></path> <path d="M33 28H30.5C29.1193 28 28 29.1193 28 30.5L28 33" stroke="#000" stroke-width="2" stroke-linecap="square" data-color="color-2" fill="none"></path> <path d="M38 28H40.5C41.8807 28 43 29.1193 43 30.5V33" stroke="#000" stroke-width="2" stroke-linecap="square" data-color="color-2" fill="none"></path> <path d="M38 43H40.5C41.8807 43 43 41.8807 43 40.5V38" stroke="#000" stroke-width="2" stroke-linecap="square" data-color="color-2" fill="none"></path></svg>