<svg xmlns="http://www.w3.org/2000/svg" xmlns:xlink="http://www.w3.org/1999/xlink" x="0px" y="0px" width="18px" height="18px" viewBox="0 0 18 18"><path d="m4.3833,9.4508c-.6615,2.6185.9447,4.386,1.7966,4.9343.9662.609,3.2119,1.7216,5.9464-.2024,2.3379-1.645,4.0954-6.7418,1.1134-12.399-1.6861,3.8653-7.753,3.2995-8.8564,7.6671Z" fill="#000" opacity=".3" stroke-width="0" data-color="color-2"></path><path d="m2.75,16.25s4.598-1.265,7.5-6.5" fill="none" stroke="#000" stroke-linecap="round" stroke-linejoin="round" stroke-width="1.5"></path><path d="m9.8997,15.1642c4.9614-.879,6.1773-8.293,3.3653-13.4142-1.709,3.571-5.652,3.034-7.858,5.754-.654.806-1.158,1.901-1.158,3.082,0,1.577.779,2.972,1.972,3.816" fill="none" stroke="#000" stroke-linecap="round" stroke-linejoin="round" stroke-width="1.5"></path></svg>