<svg xmlns="http://www.w3.org/2000/svg" xmlns:xlink="http://www.w3.org/1999/xlink" x="0px" y="0px" width="12px" height="12px" viewBox="0 0 12 12"><path d="m10.259,5.2l.688-.688c.462-.461.716-1.076.716-1.729s-.254-1.267-.716-1.729c-.923-.924-2.534-.924-3.457,0l-.688.688,3.457,3.457Z" fill="#000" stroke-width="0" data-color="color-2"></path><path d="m5.741,2.803l-3.888,3.888c-.311.311-.535.699-.648,1.124l-.861,3.231c-.046.172.003.356.129.482.095.095.223.146.354.146.043,0,.086-.005.129-.017l3.231-.861c.425-.113.813-.337,1.124-.648l3.888-3.888-3.457-3.457Z" stroke-width="0" fill="#000"></path></svg>