<svg xmlns="http://www.w3.org/2000/svg" xmlns:xlink="http://www.w3.org/1999/xlink" x="0px" y="0px" width="18px" height="18px" viewBox="0 0 18 18"><path d="M9,1C4.589,1,1,4.589,1,9c0,1.396,.371,2.776,1.062,3.971,.238,.446-.095,2.002-.842,2.749-.209,.209-.276,.522-.17,.798,.106,.276,.365,.465,.66,.481,.079,.004,.16,.006,.241,.006,1.145,0,2.535-.407,3.44-.871,.675,.343,1.39,.587,2.131,.728,.484,.092,.982,.138,1.478,.138,4.411,0,8-3.589,8-8S13.411,1,9,1Zm1.25,10.5H5.75c-.414,0-.75-.336-.75-.75s.336-.75,.75-.75h4.5c.414,0,.75,.336,.75,.75s-.336,.75-.75,.75Zm2-3.5H5.75c-.414,0-.75-.336-.75-.75s.336-.75,.75-.75h6.5c.414,0,.75,.336,.75,.75s-.336,.75-.75,.75Z" fill="#000"></path></svg>