<svg xmlns="http://www.w3.org/2000/svg" xmlns:xlink="http://www.w3.org/1999/xlink" x="0px" y="0px" width="18px" height="18px" viewBox="0 0 18 18"><path d="m6.3431,11.0598c.0911-.4702.5028-.8098.9818-.8098h3.3503c.4789,0,.8906.3396.9818.8098l.8322,4.2949c2.2412-1.2332,3.7609-3.616,3.7609-6.3547,0-4.0042-3.2459-7.25-7.25-7.25S1.75,4.9958,1.75,9c0,2.7388,1.5197,5.1216,3.7609,6.3547l.8322-4.2949Z" fill="#000" opacity=".3" stroke-width="0" data-color="color-2"></path><circle cx="9" cy="9" r="7.25" fill="none" stroke="#000" stroke-linecap="round" stroke-linejoin="round" stroke-width="1.5"></circle><polygon points="9 5.5 10.5 10.25 7.5 10.25 9 5.5" stroke="#000" stroke-linecap="round" stroke-linejoin="round" stroke-width="1.5" fill="#000"></polygon><path d="m12.4891,15.3547l-.8322-4.295c-.0911-.4702-.5028-.8098-.9817-.8098h-3.3504c-.4789,0-.8906.3396-.9817.8098l-.8322,4.295" fill="none" stroke="#000" stroke-linecap="round" stroke-linejoin="round" stroke-width="1.5"></path></svg>