<svg xmlns="http://www.w3.org/2000/svg" xmlns:xlink="http://www.w3.org/1999/xlink" x="0px" y="0px" width="18px" height="18px" viewBox="0 0 18 18"><path d="M5.25104 5.5L5.25873 12.7423C5.38363 14.7005 7.01134 16.25 9.00104 16.25C11.0721 16.25 12.751 14.5711 12.751 12.5L12.7433 5.2577C12.6184 3.2996 10.9907 1.75 9.00104 1.75C6.92994 1.75 5.25104 3.4289 5.25104 5.5Z" fill="#000" fill-opacity="0.3" data-color="color-2" data-stroke="none"></path> <path d="M2.00104 16L16.001 2" stroke="black" stroke-width="1.5" stroke-linecap="round" stroke-linejoin="round" fill="none"></path> <path d="M5.25104 7.25V5.5C5.25104 3.4289 6.92994 1.75 9.00104 1.75C10.9907 1.75 12.6184 3.2996 12.7433 5.2577" stroke="black" stroke-width="1.5" stroke-linecap="round" stroke-linejoin="round" fill="none"></path> <path d="M5.25873 12.7423C5.38363 14.7005 7.01134 16.25 9.00104 16.25C11.0721 16.25 12.751 14.5711 12.751 12.5V10.75" stroke="black" stroke-width="1.5" stroke-linecap="round" stroke-linejoin="round" fill="none"></path></svg>