<svg xmlns="http://www.w3.org/2000/svg" xmlns:xlink="http://www.w3.org/1999/xlink" x="0px" y="0px" width="18px" height="18px" viewBox="0 0 18 18"><path d="M9.5 2.75L11.412 7.587L16.25 9.5L11.412 11.413L9.5 16.25L7.587 11.413L2.75 9.5L7.587 7.587L9.5 2.75Z" fill="#000" fill-opacity="0.3" data-color="color-2" data-stroke="none"></path> <path d="M5.65799 2.99L4.39499 2.569L3.97399 1.306C3.83699 0.898 3.16199 0.898 3.02499 1.306L2.60399 2.569L1.34099 2.99C1.13699 3.058 0.998993 3.249 0.998993 3.464C0.998993 3.679 1.13699 3.87 1.34099 3.938L2.60399 4.359L3.02499 5.622C3.09299 5.826 3.28499 5.964 3.49999 5.964C3.71499 5.964 3.90599 5.826 3.97499 5.622L4.39599 4.359L5.65899 3.938C5.86299 3.87 6.00099 3.679 6.00099 3.464C6.00099 3.249 5.86199 3.058 5.65799 2.99Z" fill="black" data-stroke="none"></path> <path d="M9.5 2.75L11.412 7.587L16.25 9.5L11.412 11.413L9.5 16.25L7.587 11.413L2.75 9.5L7.587 7.587L9.5 2.75Z" stroke="black" stroke-width="1.5" stroke-linecap="round" stroke-linejoin="round" fill="none"></path></svg>