<svg xmlns="http://www.w3.org/2000/svg" xmlns:xlink="http://www.w3.org/1999/xlink" x="0px" y="0px" width="18px" height="18px" viewBox="0 0 18 18"><path d="M3.75 10.5C4.57843 10.5 5.25 9.82843 5.25 9C5.25 8.17157 4.57843 7.5 3.75 7.5C2.92157 7.5 2.25 8.17157 2.25 9C2.25 9.82843 2.92157 10.5 3.75 10.5Z" fill="#000" fill-opacity="0.3" data-color="color-2" data-stroke="none"></path> <path d="M3.75 5.25C4.57843 5.25 5.25 4.57843 5.25 3.75C5.25 2.92157 4.57843 2.25 3.75 2.25C2.92157 2.25 2.25 2.92157 2.25 3.75C2.25 4.57843 2.92157 5.25 3.75 5.25Z" fill="#000" fill-opacity="0.3" data-color="color-2" data-stroke="none"></path> <path d="M3.75 15.75C4.57843 15.75 5.25 15.0784 5.25 14.25C5.25 13.4216 4.57843 12.75 3.75 12.75C2.92157 12.75 2.25 13.4216 2.25 14.25C2.25 15.0784 2.92157 15.75 3.75 15.75Z" fill="#000" fill-opacity="0.3" data-color="color-2" data-stroke="none"></path> <path d="M3.75 10.5C4.57843 10.5 5.25 9.82843 5.25 9C5.25 8.17157 4.57843 7.5 3.75 7.5C2.92157 7.5 2.25 8.17157 2.25 9C2.25 9.82843 2.92157 10.5 3.75 10.5Z" stroke="black" stroke-width="1.5" stroke-linecap="round" stroke-linejoin="round" fill="none"></path> <path d="M8.25 9H15.75" stroke="black" stroke-width="1.5" stroke-linecap="round" stroke-linejoin="round" fill="none"></path> <path d="M3.75 5.25C4.57843 5.25 5.25 4.57843 5.25 3.75C5.25 2.92157 4.57843 2.25 3.75 2.25C2.92157 2.25 2.25 2.92157 2.25 3.75C2.25 4.57843 2.92157 5.25 3.75 5.25Z" stroke="black" stroke-width="1.5" stroke-linecap="round" stroke-linejoin="round" fill="none"></path> <path d="M8.25 3.75H15.75" stroke="black" stroke-width="1.5" stroke-linecap="round" stroke-linejoin="round" fill="none"></path> <path d="M3.75 15.75C4.57843 15.75 5.25 15.0784 5.25 14.25C5.25 13.4216 4.57843 12.75 3.75 12.75C2.92157 12.75 2.25 13.4216 2.25 14.25C2.25 15.0784 2.92157 15.75 3.75 15.75Z" stroke="black" stroke-width="1.5" stroke-linecap="round" stroke-linejoin="round" fill="none"></path> <path d="M8.25 14.25H15.75" stroke="black" stroke-width="1.5" stroke-linecap="round" stroke-linejoin="round" fill="none"></path></svg>