<svg xmlns="http://www.w3.org/2000/svg" xmlns:xlink="http://www.w3.org/1999/xlink" x="0px" y="0px" width="18px" height="18px" viewBox="0 0 18 18"><polyline points="9.318 13.25 5.748 4.75 5.57 4.75 2 13.25" fill="none" stroke="#000" stroke-linecap="round" stroke-linejoin="round" stroke-width="1.5"></polyline><line x1="2.84" y1="11.25" x2="8.478" y2="11.25" fill="none" stroke="#000" stroke-linecap="round" stroke-linejoin="round" stroke-width="1.5"></line><path d="m11.734,8.234c.486-.523,1.178-.734,1.881-.734h0c1.179,0,2.134.956,2.134,2.134v3.616" fill="none" stroke="#000" stroke-linecap="round" stroke-linejoin="round" stroke-width="1.5"></path><path d="m15.75,10.5c0,1.518-1.232,2.75-2.75,2.75h-.1614c-.7393,0-1.3386-.5993-1.3386-1.3386h0c0-.6436.458-1.1961,1.0904-1.3154l2.2773-.3999c.5385-.1016.8899-.6151.8012-1.1462" fill="none" stroke="#000" stroke-linecap="round" stroke-linejoin="round" stroke-width="1.5"></path></svg>