<svg xmlns="http://www.w3.org/2000/svg" xmlns:xlink="http://www.w3.org/1999/xlink" x="0px" y="0px" width="18px" height="18px" viewBox="0 0 18 18"><path d="M11.75 11.25H14.25C14.8023 11.25 15.25 10.8023 15.25 10.25V7.75C15.25 7.19772 14.8023 6.75 14.25 6.75H11.75C11.1977 6.75 10.75 7.19772 10.75 7.75V10.25C10.75 10.8023 11.1977 11.25 11.75 11.25Z" fill="#000" fill-opacity="0.3" data-color="color-2" data-stroke="none"></path> <path d="M7.75 10.75H2.75" stroke="black" stroke-width="1.5" stroke-linecap="round" stroke-linejoin="round" fill="none"></path> <path d="M15.25 14.25H2.75" stroke="black" stroke-width="1.5" stroke-linecap="round" stroke-linejoin="round" fill="none"></path> <path d="M7.75 7.25H2.75" stroke="black" stroke-width="1.5" stroke-linecap="round" stroke-linejoin="round" fill="none"></path> <path d="M15.25 3.75H2.75" stroke="black" stroke-width="1.5" stroke-linecap="round" stroke-linejoin="round" fill="none"></path> <path d="M11.75 11.25H14.25C14.8023 11.25 15.25 10.8023 15.25 10.25V7.75C15.25 7.19772 14.8023 6.75 14.25 6.75H11.75C11.1977 6.75 10.75 7.19772 10.75 7.75V10.25C10.75 10.8023 11.1977 11.25 11.75 11.25Z" stroke="black" stroke-width="1.5" stroke-linecap="round" stroke-linejoin="round" fill="none"></path></svg>