<svg xmlns="http://www.w3.org/2000/svg" xmlns:xlink="http://www.w3.org/1999/xlink" x="0px" y="0px" width="18px" height="18px" viewBox="0 0 18 18"><path d="M13.5,3.5h0c.276,0,.5,.224,.5,.5h0c0,1.38-1.12,2.5-2.5,2.5h0c-.276,0-.5-.224-.5-.5h0c0-1.38,1.12-2.5,2.5-2.5Z" fill="#000" data-color="color-2" data-stroke="none"></path><path d="M2.75,5.75h6.5l-.227,9.524c-.013,.543-.457,.976-1,.976H3.976c-.543,0-.987-.433-1-.976l-.227-9.524Z" fill="none" stroke="#000" stroke-linecap="round" stroke-linejoin="round" stroke-width="1.5"></path><path d="M1.75,1.75H3.855c.51,0,.938,.383,.994,.89l1.151,10.36" fill="none" stroke="#000" stroke-linecap="round" stroke-linejoin="round" stroke-width="1.5"></path><path d="M12,8.258c.083-.005,.166-.008,.25-.008,2.209,0,4,1.791,4,4s-1.791,4-4,4c-.184,0-.365-.012-.542-.036" fill="none" stroke="#000" stroke-linecap="round" stroke-linejoin="round" stroke-width="1.5" data-color="color-2"></path></svg>