<svg xmlns="http://www.w3.org/2000/svg" xmlns:xlink="http://www.w3.org/1999/xlink" x="0px" y="0px" width="18px" height="18px" viewBox="0 0 18 18"><path d="M5.75 2.25C5.267 2.968 4.75101 3.871 4.31201 4.958C3.49501 6.987 3.284 8.824 3.25 10.105L5.75 12.25V2.25Z" fill="black" data-stroke="none"></path> <path d="M11.75 2.25V5.75" stroke="black" stroke-width="1.5" stroke-linecap="round" stroke-linejoin="round" fill="none"></path> <path d="M13.7675 7.8159C13.2829 8.3864 12.5602 8.75 11.75 8.75C10.249 8.75 9.04802 7.502 9.10602 6.002L9.25003 2.25" stroke="black" stroke-width="1.5" stroke-linecap="round" stroke-linejoin="round" fill="none"></path> <path d="M14.25 2.25L14.3057 3.7005" stroke="black" stroke-width="1.5" stroke-linecap="round" stroke-linejoin="round" fill="none"></path> <path d="M11.75 8.75V15.75" stroke="black" stroke-width="1.5" stroke-linecap="round" stroke-linejoin="round" fill="none"></path> <path d="M5.75 15.75V2.25C5.267 2.968 4.75101 3.871 4.31201 4.958C3.49501 6.987 3.284 8.824 3.25 10.105L5.75 12.25" stroke="black" stroke-width="1.5" stroke-linecap="round" stroke-linejoin="round" fill="none"></path> <path d="M2 16L16 2" stroke="#000" stroke-width="1.5" stroke-linecap="round" stroke-linejoin="round" data-color="color-2" fill="none"></path></svg>