<svg xmlns="http://www.w3.org/2000/svg" xmlns:xlink="http://www.w3.org/1999/xlink" x="0px" y="0px" width="18px" height="18px" viewBox="0 0 18 18"><path d="M4.75,4.75H13.25v6.5c0,1.104-.896,2-2,2H6.75c-1.104,0-2-.896-2-2V4.75h0Z" fill="none" stroke="#000" stroke-linecap="round" stroke-linejoin="round" stroke-width="1.5"></path><line x1="16" y1="16.25" x2="2" y2="16.25" fill="none" stroke="#000" stroke-linecap="round" stroke-linejoin="round" stroke-width="1.5"></line><path d="M13.25,4.75h2c.552,0,1,.448,1,1v1.5c0,1.105-.895,2-2,2h-1" fill="none" stroke="#000" stroke-linecap="round" stroke-linejoin="round" stroke-width="1.5"></path><path d="M7,2c.127-.04,.406-.146,.646-.417,.295-.333,.343-.706,.354-.833" fill="none" stroke="#000" stroke-linecap="round" stroke-linejoin="round" stroke-width="1.5" data-color="color-2"></path><path d="M10.25,2c.127-.04,.406-.146,.646-.417,.295-.333,.343-.706,.354-.833" fill="none" stroke="#000" stroke-linecap="round" stroke-linejoin="round" stroke-width="1.5" data-color="color-2"></path></svg>