<svg xmlns="http://www.w3.org/2000/svg" xmlns:xlink="http://www.w3.org/1999/xlink" x="0px" y="0px" width="18px" height="18px" viewBox="0 0 18 18"><path d="M10.25 16.25V6.75C9.915 7.361 9.55 8.146 9.259 9.094C8.947 10.11 8.809 11.022 8.75 11.75L10.25 13.258" stroke="#000" stroke-width="1.5" stroke-linecap="round" stroke-linejoin="round" data-color="color-2" fill="none"></path> <path d="M5.75 12.155C3.329 11.688 1.5 9.558 1.5 7C1.5 4.101 3.851 1.75 6.75 1.75C8.4274 1.75 9.9218 2.5371 10.8828 3.7622" stroke="black" stroke-width="1.5" stroke-linecap="round" stroke-linejoin="round" fill="none"></path> <path d="M6.75 4V7L4.25 8.5" stroke="black" stroke-width="1.5" stroke-linecap="round" stroke-linejoin="round" fill="none"></path> <path d="M14.75 6.75V8.75" stroke="#000" stroke-width="1.5" stroke-linecap="round" stroke-linejoin="round" data-color="color-2" fill="none"></path> <path d="M16.75 6.75L16.875 9.003C16.943 10.223 15.972 11.25 14.75 11.25C13.528 11.25 12.557 10.224 12.625 9.003L12.75 6.75" stroke="#000" stroke-width="1.5" stroke-linecap="round" stroke-linejoin="round" data-color="color-2" fill="none"></path> <path d="M14.75 11.25V16.25" stroke="#000" stroke-width="1.5" stroke-linecap="round" stroke-linejoin="round" data-color="color-2" fill="none"></path></svg>