<svg xmlns="http://www.w3.org/2000/svg" xmlns:xlink="http://www.w3.org/1999/xlink" x="0px" y="0px" width="18px" height="18px" viewBox="0 0 18 18"><path d="m12.25,5.215v-3.12c0-.17.17-.297.331-.243,1.606.54,2.843,1.643,3.55,3.554.06.163-.066.344-.24.344h-3.103" fill="none" stroke="#000" stroke-linecap="round" stroke-linejoin="round" stroke-width="1.5" data-color="color-2"></path><path d="m5.215,12.25h-3.12c-.17,0-.297.17-.243.331.54,1.606,1.643,2.843,3.554,3.55.163.06.344-.066.344-.24v-3.103" fill="none" stroke="#000" stroke-linecap="round" stroke-linejoin="round" stroke-width="1.5" data-color="color-2"></path><rect x="4.021" y="4.545" width="9.958" height="8.91" rx="4.333" ry="4.333" transform="translate(-3.728 9.088) rotate(-45.399)" fill="none" stroke="#000" stroke-linecap="round" stroke-linejoin="round" stroke-width="1.5"></rect><line x1="7.25" y1="13.653" x2="7.25" y2="4.673" fill="none" stroke="#000" stroke-linecap="round" stroke-linejoin="round" stroke-width="1.5"></line><line x1="10.75" y1="13.115" x2="10.75" y2="4.348" fill="none" stroke="#000" stroke-linecap="round" stroke-linejoin="round" stroke-width="1.5"></line></svg>