<svg xmlns="http://www.w3.org/2000/svg" xmlns:xlink="http://www.w3.org/1999/xlink" x="0px" y="0px" width="18px" height="18px" viewBox="0 0 18 18"><path d="M3.924,12.403h0c-1.389-.328-2.17-1.806-1.659-3.138l1.546-4.032,3.479,.847-.481,4.291c-.157,1.406-1.509,2.357-2.885,2.032Z" fill="none" stroke="#000" stroke-linecap="round" stroke-linejoin="round" stroke-width="1.5"></path><line x1="3.924" y1="12.403" x2="2.948" y2="16.344" fill="none" stroke="#000" stroke-linecap="round" stroke-linejoin="round" stroke-width="1.5"></line><line x1="1.248" y1="15.93" x2="4.648" y2="16.758" fill="none" stroke="#000" stroke-linecap="round" stroke-linejoin="round" stroke-width="1.5"></line><path d="M14.076,12.403h0c1.389-.328,2.17-1.806,1.659-3.138l-1.546-4.032-3.479,.847,.481,4.291c.157,1.406,1.509,2.357,2.885,2.032Z" fill="none" stroke="#000" stroke-linecap="round" stroke-linejoin="round" stroke-width="1.5"></path><line x1="14.076" y1="12.403" x2="15.052" y2="16.344" fill="none" stroke="#000" stroke-linecap="round" stroke-linejoin="round" stroke-width="1.5"></line><line x1="16.752" y1="15.93" x2="13.352" y2="16.758" fill="none" stroke="#000" stroke-linecap="round" stroke-linejoin="round" stroke-width="1.5"></line><line x1="9" y1=".75" x2="9" y2="2.5" fill="none" stroke="#000" stroke-linecap="round" stroke-linejoin="round" stroke-width="1.5" data-color="color-2"></line><line x1="5.25" y1="2" x2="6.25" y2="3.25" fill="none" stroke="#000" stroke-linecap="round" stroke-linejoin="round" stroke-width="1.5" data-color="color-2"></line><line x1="12.75" y1="2" x2="11.75" y2="3.25" fill="none" stroke="#000" stroke-linecap="round" stroke-linejoin="round" stroke-width="1.5" data-color="color-2"></line></svg>