<svg xmlns="http://www.w3.org/2000/svg" xmlns:xlink="http://www.w3.org/1999/xlink" x="0px" y="0px" width="18px" height="18px" viewBox="0 0 18 18"><circle cx="7.25" cy="8.25" r=".75" fill="#000" data-color="color-2" data-stroke="none"></circle><circle cx="10.75" cy="10.25" r=".75" fill="#000" data-color="color-2" data-stroke="none"></circle><circle cx="7.75" cy="10.75" r=".75" fill="#000" data-color="color-2" data-stroke="none"></circle><path d="M16.102,7.537c.097,.472,.148,.962,.148,1.463,0,4.004-3.246,7.25-7.25,7.25S1.75,13.004,1.75,9C1.75,5.638,4.039,2.81,7.143,1.99" fill="none" stroke="#000" stroke-linecap="round" stroke-linejoin="round" stroke-width="1.5"></path><path d="M13.745,8.781c.003,.072,.005,.145,.005,.219,0,2.623-2.127,4.75-4.75,4.75s-4.75-2.127-4.75-4.75c0-1.952,1.177-3.629,2.861-4.36" fill="none" stroke="#000" stroke-linecap="round" stroke-linejoin="round" stroke-width="1.5"></path><path d="M9.75,3.25c1.758,0,3.293,.955,4.114,2.375" fill="none" stroke="#000" stroke-linecap="round" stroke-linejoin="round" stroke-width="1.5" data-color="color-2"></path><path d="M9.75,8l6.28-3.626c-1.254-2.167-3.596-3.624-6.28-3.624v7.25Z" fill="none" stroke="#000" stroke-linecap="round" stroke-linejoin="round" stroke-width="1.5" data-color="color-2"></path></svg>