<svg xmlns="http://www.w3.org/2000/svg" xmlns:xlink="http://www.w3.org/1999/xlink" x="0px" y="0px" width="32px" height="32px" viewBox="0 0 32 32"> <path d="M4 29V16.0617L5.57134 14.458C6.48709 13.5235 7 12.2671 7 10.9587V3H10.5L11.1619 6.08879C11.6507 8.37014 13.6669 10 16 10C18.3331 10 20.3493 8.37014 20.8381 6.08879L21.5 3H25V10.9587C25 12.2671 25.5129 13.5235 26.4287 14.458L28 16.0617V29H4Z" stroke="black" stroke-width="2" stroke-miterlimit="10" stroke-linecap="square" fill="none"></path> <path d="M24 19H30" stroke="#000" stroke-width="2" stroke-linecap="square" data-color="color-2" fill="none"></path> <path d="M2 19H8" stroke="#000" stroke-width="2" stroke-linecap="square" data-color="color-2" fill="none"></path> <path d="M24 24H30" stroke="#000" stroke-width="2" stroke-linecap="square" data-color="color-2" fill="none"></path> <path d="M2 24H8" stroke="#000" stroke-width="2" stroke-linecap="square" data-color="color-2" fill="none"></path> <path d="M20 19H12V15H20V19Z" stroke="black" stroke-width="2" stroke-miterlimit="10" data-cap="butt" fill="none"></path> <path d="M14 24H18" stroke="black" stroke-width="2" stroke-linecap="square" fill="none"></path> </svg>