<svg xmlns="http://www.w3.org/2000/svg" xmlns:xlink="http://www.w3.org/1999/xlink" x="0px" y="0px" width="48px" height="48px" viewBox="0 0 48 48"> <path d="M14 14L18.3391 7.01853" stroke="#000" stroke-width="2" data-color="color-2" data-cap="butt" fill="none"></path> <path d="M21 14L25.2435 7.01853" stroke="#000" stroke-width="2" data-color="color-2" data-cap="butt" fill="none"></path> <path d="M30 21L28.039 25.5757C27.4087 27.0464 25.9625 28 24.3624 28H20" stroke="#000" stroke-width="2" data-color="color-2" data-cap="butt" fill="none"></path> <path d="M10 7V4" stroke="black" stroke-width="2" stroke-linecap="square" fill="none"></path> <path d="M16 19H14" stroke="black" stroke-width="2" stroke-linecap="square" fill="none"></path> <path d="M42 14H4.5" stroke="black" stroke-width="2" data-cap="butt" fill="none"></path> <path d="M7 24H9.77156C11.8381 24 13.2858 26.0405 12.6031 27.9911L7.35 43" stroke="#000" stroke-width="2" data-color="color-2" data-cap="butt" fill="none"></path> <path d="M7 7L4.89929 12.6019C4.33465 14.1076 4.52867 15.793 5.42068 17.131L6.60857 18.9129C7.48418 20.2263 7.68814 21.8761 7.15876 23.3632L3.14559 34.6368C2.6162 36.1239 2.82016 37.7737 3.69578 39.0871L6.30435 43H15.3043L22 21H35.703C37.7032 21 39.5109 19.808 40.2987 17.9696L42 14H45V7H7Z" stroke="black" stroke-width="2" stroke-linecap="square" fill="none"></path> </svg>