<svg xmlns="http://www.w3.org/2000/svg" xmlns:xlink="http://www.w3.org/1999/xlink" x="0px" y="0px" width="24px" height="24px" viewBox="0 0 24 24"> <path d="M11.376 7.5C8.87597 6.5 7.87597 8.49999 7.87597 10C6.37597 9.99999 5.49997 11.0001 5.3261 12C5.26382 12.3581 5.32603 13.0964 5.32603 13" stroke="#000" stroke-width="2" data-color="color-2" fill="none" data-cap="butt"></path> <path d="M15.8968 13L18.3518 8.71234C19.018 9.09386 19.8299 9.22113 20.6293 9.00385C22.2282 8.56929 23.172 6.92089 22.7374 5.32203C22.3029 3.72317 20.6545 2.77934 19.0556 3.2139C18.6211 1.61504 16.9727 0.671209 15.3738 1.10577C13.7749 1.54033 12.8311 3.18874 13.2657 4.7876C13.483 5.58703 14.0037 6.22277 14.67 6.60422L11.0079 13" stroke="black" stroke-width="2" stroke-miterlimit="10" fill="none" data-cap="butt"></path> <path d="M19 13H5L2 21L3.99633 21.4991C9.25125 22.8128 14.7488 22.8128 20.0037 21.4991L22 21L19 13Z" stroke="black" stroke-width="2" stroke-miterlimit="10" stroke-linecap="square" fill="none"></path> <path d="M11 18H13" stroke="#000" stroke-width="2" stroke-linecap="square" data-color="color-2" fill="none"></path> </svg>