<svg xmlns="http://www.w3.org/2000/svg" xmlns:xlink="http://www.w3.org/1999/xlink" x="0px" y="0px" width="24px" height="24px" viewBox="0 0 24 24"><path d="M8 15V23" stroke="#000" stroke-width="2" stroke-miterlimit="10" stroke-linecap="square" data-color="color-2" fill="none"></path> <path d="M19 21V23" stroke="#000" stroke-width="2" stroke-linecap="square" data-color="color-2" fill="none"></path> <path d="M8 19.5C11.3137 19.5 14 16.8137 14 13.5C14 7.18629 8 1.5 8 1.5C8 1.5 2 7.18629 2 13.5C2 16.8137 4.68629 19.5 8 19.5Z" stroke="black" stroke-width="2" stroke-miterlimit="10" stroke-linecap="square" fill="none"></path> <path d="M19 21C20.6569 21 22 19.6569 22 18C22 14.8431 19 12 19 12C19 12 16 14.8431 16 18C16 19.6569 17.3431 21 19 21Z" stroke="black" stroke-width="2" stroke-miterlimit="10" stroke-linecap="square" fill="none"></path></svg>