<svg xmlns="http://www.w3.org/2000/svg" xmlns:xlink="http://www.w3.org/1999/xlink" x="0px" y="0px" width="32px" height="32px" viewBox="0 0 32 32"> <path d="M20.1667 20.1668V20.1668C17.0947 23.6775 13.2741 26.454 8.98627 28.2916L8.5 28.5" stroke="#000" stroke-width="2" stroke-linecap="square" data-color="color-2" fill="none"></path> <path d="M13.0763 26.9938C16.6468 30.5643 22.2091 30.7909 25.5 27.5C32.31 20.69 28.904 8.88034 28.904 8.88034C28.904 8.88034 26.7825 11.1032 23.259 11.6391C19.1966 12.2568 15.5331 11.607 12.57 14.57C9.27913 17.861 9.50579 23.4232 13.0763 26.9938Z" stroke="black" stroke-width="2" stroke-miterlimit="10" stroke-linecap="square" fill="none"></path> <path d="M6.37436 18.1194C-0.125638 13.1194 3 4.00006 3 4.00006C3 4.00006 4.5469 5.62091 7.11614 6.01162C10.0783 6.46209 13.3744 6.01162 15.3744 8.61934" stroke="#000" stroke-width="2" stroke-miterlimit="10" stroke-linecap="square" data-color="color-2" fill="none"></path> </svg>