<svg xmlns="http://www.w3.org/2000/svg" xmlns:xlink="http://www.w3.org/1999/xlink" x="0px" y="0px" width="32px" height="32px" viewBox="0 0 32 32"> <path d="M2 28C3.28482 28.0004 5.21952 27.6401 6.3746 26.9471C7.52968 26.2541 8.5415 25.2463 9.33333 24C10.1253 25.2461 11.1372 26.2538 12.2922 26.9468C13.4473 27.6398 14.7152 28 16 28C17.2848 28 18.5527 27.6398 19.7078 26.9468C20.8628 26.2538 21.8747 25.2461 22.6667 24C23.4585 25.2463 24.4703 26.2541 25.6254 26.9471C26.7805 27.6401 28.7152 28.0004 30 28" stroke="#000" stroke-width="2" stroke-miterlimit="10" stroke-linecap="square" data-color="color-2" fill="none"></path> <path d="M26 19C23.3333 5.36364 15.3333 4 7.1699 4C9.58283 9.50593 10 13.5455 6 19" stroke="black" stroke-width="2" stroke-linecap="square" fill="none"></path> </svg>