<svg xmlns="http://www.w3.org/2000/svg" xmlns:xlink="http://www.w3.org/1999/xlink" x="0px" y="0px" width="32px" height="32px" viewBox="0 0 32 32"> <path d="M11 21.0001L9.85714 29.0001L3 22.1431L11 21.0001Z" stroke="black" stroke-width="2" stroke-miterlimit="10" fill="none" data-cap="butt"></path> <path d="M20.5133 11.5L11 21.0132" stroke="black" stroke-width="2" stroke-miterlimit="10" fill="none" data-cap="butt"></path> <path d="M12.7827 7.21735C13.4042 10.1656 14.8695 12.8695 17 15C19.1305 17.1305 21.8344 18.5958 24.7827 19.2173" stroke="#000" stroke-width="2" stroke-miterlimit="10" stroke-linecap="square" data-color="color-2" fill="none"></path> <path d="M10.3302 13.67C11.045 15.48 12.1239 17.1239 13.5 18.5C14.8761 19.8761 16.5201 20.9551 18.3302 21.67" stroke="#000" stroke-width="2" stroke-miterlimit="10" stroke-linecap="square" data-color="color-2" fill="none"></path> <path d="M27.9778 15.3296C30.584 9.59343 29 2.99997 29 2.99997C29 2.99997 22.4352 1.36555 16.6677 4.01236L17.0901 5.56587C18.3325 10.1346 21.8654 13.6675 26.4341 14.9099L27.9778 15.3296Z" stroke="black" stroke-width="2" fill="none" data-cap="butt"></path> <path d="M20.5 6.47836C20.5 7.30679 21.1716 7.97836 22 7.97836C22.8284 7.97836 23.5 7.30679 23.5 6.47836C23.5 5.64994 22.8284 4.97836 22 4.97836C21.1716 4.97836 20.5 5.64994 20.5 6.47836Z" fill="black" data-stroke="none" data-cap="butt"></path> </svg>