<svg xmlns="http://www.w3.org/2000/svg" xmlns:xlink="http://www.w3.org/1999/xlink" x="0px" y="0px" width="48px" height="48px" viewBox="0 0 48 48"><path d="M24 32L24 45.0001M24 32L20 28M24 32L28 28M24 32V23" stroke="black" stroke-width="2" stroke-miterlimit="10" stroke-linecap="square" fill="none"></path> <path d="M30.596 15L30 16L36.0596 6L44.255 22.5L41.2748 23.25L45 34.5H38.0464L37.5497 41" stroke="#000" stroke-width="2" stroke-linecap="square" data-color="color-2" fill="none"></path> <path d="M17.4 15L18 16L12 6L3.75001 22.5L6.75001 23.25L3.00001 34.5H10L10.5 41" stroke="#000" stroke-width="2" stroke-linecap="square" data-color="color-2" fill="none"></path> <path d="M24 39C28.9706 39 33 34.0751 33 28C33 17.7857 24 6 24 6C24 6 15 17.7857 15 28C15 34.0751 19.0294 39 24 39Z" stroke="black" stroke-width="2" stroke-miterlimit="10" stroke-linecap="square" fill="none"></path></svg>