<svg xmlns="http://www.w3.org/2000/svg" xmlns:xlink="http://www.w3.org/1999/xlink" x="0px" y="0px" width="48px" height="48px" viewBox="0 0 48 48"><path d="M24 29C24.9545 29 34.5 31.8125 34.5 44H13.5C13.5 31.8125 23.0455 29 24 29Z" stroke="black" stroke-width="2" stroke-miterlimit="10" stroke-linecap="square" fill="none"></path> <path d="M24 29V44" stroke="black" stroke-width="2" fill="none" data-cap="butt"></path> <path d="M30 3C30 6.31371 27.3137 9 24 9C20.6863 9 18 6.31371 18 3" stroke="black" stroke-width="2" stroke-miterlimit="10" stroke-linecap="square" fill="none"></path> <path d="M24 14.7997V14.9997" stroke="black" stroke-width="2" stroke-linecap="square" fill="none"></path> <path d="M12.2 3L12 3" stroke="black" stroke-width="2" stroke-linecap="square" fill="none"></path> <path d="M36 3L35.8 3" stroke="black" stroke-width="2" stroke-linecap="square" fill="none"></path> <path d="M15.5214 11.4851L15.38 11.6265" stroke="black" stroke-width="2" stroke-linecap="square" fill="none"></path> <path d="M32.6334 11.6265L32.492 11.485" stroke="black" stroke-width="2" stroke-linecap="square" fill="none"></path> <path d="M32.3807 26.7631L32 27.5L37.9412 16L44.2157 30.2857L41.8627 31.1786L45 41H39.5" stroke="#000" stroke-width="2" stroke-linecap="square" data-color="color-2" fill="none"></path> <path d="M15.3823 26.3043L16 27.5L10.0588 16L3.78432 30.2857L6.13726 31.1786L3 41H8.5" stroke="#000" stroke-width="2" stroke-linecap="square" data-color="color-2" fill="none"></path></svg>