<svg xmlns="http://www.w3.org/2000/svg" xmlns:xlink="http://www.w3.org/1999/xlink" x="0px" y="0px" width="48px" height="48px" viewBox="0 0 48 48"> <path d="M21 46V42C21 40.3431 22.3431 39 24 39C25.6569 39 27 40.3431 27 42V46" stroke="#000" stroke-width="2" stroke-linecap="square" data-color="color-2" fill="none"></path> <path d="M29.4286 35L32.75 46H15.25L18.5714 35" stroke="black" stroke-width="2" stroke-miterlimit="10" stroke-linecap="square" fill="none"></path> <path d="M19.3992 19.0303L8.99998 8.62585L13.6235 4L17.6559 11.4924" stroke="#000" stroke-width="2" stroke-linecap="square" data-color="color-2" fill="none"></path> <path d="M28.5857 19L38.9848 29.4044L34.3916 34L29.7529 27.0536" stroke="#000" stroke-width="2" stroke-linecap="square" data-color="color-2" fill="none"></path> <path d="M23.9773 14.4045L34.3765 4.00012L39 8.62598L31.5114 12.6604" stroke="black" stroke-width="2" stroke-linecap="square" fill="none"></path> <path d="M24.0075 23.5957L13.6084 34.0001L9.01512 29.4046L15.958 24.7635" stroke="black" stroke-width="2" stroke-linecap="square" fill="none"></path> <rect width="6.51891" height="6.51891" transform="matrix(0.706928 0.707285 -0.706928 0.707285 24.0075 14.3893)" stroke="black" stroke-width="2" fill="none" data-cap="butt"></rect> <path d="M24 20C24.5523 20 25 19.5523 25 19C25 18.4477 24.5523 18 24 18C23.4477 18 23 18.4477 23 19C23 19.5523 23.4477 20 24 20Z" fill="black" data-stroke="none" data-cap="butt"></path> </svg>