<svg xmlns="http://www.w3.org/2000/svg" xmlns:xlink="http://www.w3.org/1999/xlink" x="0px" y="0px" width="48px" height="48px" viewBox="0 0 48 48"><path d="M41.5 34.5L39.5 36.5M38 31L37 32M6.5 13.5L8.5 11.5M10 17L11 16" stroke="#000" stroke-width="2" stroke-linecap="square" data-color="color-2" fill="none"></path> <path d="M34.5 6.5L36.5 8.5M31 10L32 11M13.5 41.5L11.5 39.5M17 38L16 37" stroke="black" stroke-width="2" stroke-linecap="square" fill="none"></path> <path d="M24 17L38 3.00001L44 10L35.55 16.65" stroke="black" stroke-width="2" stroke-linecap="square" fill="none"></path> <path d="M24 31L10 45L4 38L12.45 31.35" stroke="black" stroke-width="2" stroke-linecap="square" fill="none"></path> <path d="M31 24L45 38L38 44L31.35 35.55" stroke="#000" stroke-width="2" stroke-linecap="square" data-color="color-2" fill="none"></path> <path d="M17 24L3.00001 9.99999L10 4L16.65 12.45" stroke="#000" stroke-width="2" stroke-linecap="square" data-color="color-2" fill="none"></path> <rect x="24" y="17" width="9.89949" height="9.89949" transform="rotate(45 24 17)" stroke="black" stroke-width="2" fill="none" data-cap="butt"></rect> <path d="M23.3333 24C23.3333 24.3682 23.6318 24.6667 24 24.6667C24.3682 24.6667 24.6667 24.3682 24.6667 24C24.6667 23.6319 24.3682 23.3334 24 23.3334C23.6318 23.3334 23.3333 23.6319 23.3333 24Z" stroke="black" stroke-width="2" stroke-miterlimit="10" stroke-linecap="square" fill="none"></path> <path d="M22.5 24C22.5 24.8284 23.1716 25.5 24 25.5C24.8284 25.5 25.5 24.8284 25.5 24C25.5 23.1716 24.8284 22.5 24 22.5C23.1716 22.5 22.5 23.1716 22.5 24Z" fill="black" data-stroke="none" data-cap="butt"></path></svg>