<svg xmlns="http://www.w3.org/2000/svg" xmlns:xlink="http://www.w3.org/1999/xlink" x="0px" y="0px" width="18px" height="18px" viewBox="0 0 18 18"><path d="M9 11.75C10.5188 11.75 11.75 10.5188 11.75 9C11.75 7.48122 10.5188 6.25 9 6.25C7.48122 6.25 6.25 7.48122 6.25 9C6.25 10.5188 7.48122 11.75 9 11.75Z" stroke="#000" stroke-width="1.5" stroke-linecap="round" stroke-linejoin="round" data-color="color-2" fill="none"></path> <path d="M15.3206 11.092C15.5737 10.7468 15.786 10.413 15.9558 10.1132C16.3481 9.4203 16.3481 8.5793 15.9558 7.8866C15.0088 6.2147 12.7944 3.4999 9.00012 3.4999C5.20582 3.4999 2.99142 6.2147 2.04442 7.8866C1.65202 8.5792 1.65202 9.4203 2.04442 10.1132C2.99142 11.7848 5.20572 14.4999 9.00012 14.4999C9.39872 14.4999 9.77592 14.464 10.1399 14.4083" stroke="black" stroke-width="1.5" stroke-linecap="round" stroke-linejoin="round" fill="none"></path> <path d="M10.922 10.966L14.25 14.25" stroke="#000" stroke-width="1.5" stroke-linecap="round" stroke-linejoin="round" data-color="color-2" fill="none"></path></svg>