<svg xmlns="http://www.w3.org/2000/svg" xmlns:xlink="http://www.w3.org/1999/xlink" x="0px" y="0px" width="18px" height="18px" viewBox="0 0 18 18"><path d="M15.75 15.75L11.6386 11.6386" stroke="black" stroke-width="1.5" stroke-linecap="round" stroke-linejoin="round" fill="none"></path> <path d="M7.75 13.25C10.7875 13.25 13.25 10.7875 13.25 7.75C13.25 4.7125 10.7875 2.25 7.75 2.25C4.7125 2.25 2.25 4.7125 2.25 7.75C2.25 10.7875 4.7125 13.25 7.75 13.25Z" stroke="black" stroke-width="1.5" stroke-linecap="round" stroke-linejoin="round" fill="none"></path> <path d="M5.5 8C6.052 8 6.5 7.5523 6.5 7C6.5 6.4477 6.052 6 5.5 6C4.948 6 4.5 6.4477 4.5 7C4.5 7.5523 4.948 8 5.5 8Z" fill="#000" data-color="color-2" data-stroke="none"></path> <path d="M10 8C10.552 8 11 7.5523 11 7C11 6.4477 10.552 6 10 6C9.448 6 9 6.4477 9 7C9 7.5523 9.448 8 10 8Z" fill="#000" data-color="color-2" data-stroke="none"></path> <path d="M6.58328 8.5H8.91656C9.23856 8.5 9.49988 8.7613 9.49988 9.0833C9.49988 10.0493 8.71588 10.8333 7.74988 10.8333C6.78388 10.8333 5.99988 10.0493 5.99988 9.0833C5.99988 8.7613 6.26128 8.5 6.58328 8.5Z" fill="#000" data-color="color-2" data-stroke="none"></path></svg>