<svg xmlns="http://www.w3.org/2000/svg" xmlns:xlink="http://www.w3.org/1999/xlink" x="0px" y="0px" width="20px" height="20px" viewBox="0 0 20 20"><path d="m17,9.25c-1.8672,0-3.5821.664-4.9215,1.7679l-1.0179-1.0179,4.2197-4.2197c.293-.293.293-.7676,0-1.0605s-.7676-.293-1.0605,0l-4.2197,4.2197-1.0179-1.0179c1.1039-1.3394,1.7679-3.0543,1.7679-4.9215,0-.4141-.3359-.75-.75-.75s-.75.3359-.75.75c0,1.4532-.5028,2.7889-1.3379,3.8516l-1.8818-1.8818c-.293-.293-.7676-.293-1.0605,0s-.293.7676,0,1.0605l1.8818,1.8818c-1.0627.8351-2.3983,1.3379-3.8516,1.3379-.4141,0-.75.3359-.75.75s.3359.75.75.75c1.8672,0,3.5821-.664,4.9215-1.7679l1.0179,1.0179-3.9697,3.9697c-.293.293-.293.7676,0,1.0605.1465.1465.3379.2197.5303.2197s.3838-.0732.5303-.2197l3.9697-3.9697,1.0179,1.0179c-1.1039,1.3394-1.7679,3.0543-1.7679,4.9215,0,.4141.3359.75.75.75s.75-.3359.75-.75c0-1.4532.5028-2.7889,1.3379-3.8516l2.1318,2.1318c.1465.1465.3379.2197.5303.2197s.3838-.0732.5303-.2197c.293-.293.293-.7676,0-1.0605l-2.1318-2.1318c1.0627-.8351,2.3983-1.3379,3.8516-1.3379.4141,0,.75-.3359.75-.75s-.3359-.75-.75-.75Z" fill="#000" stroke-width="0" data-color="color-2"></path><circle cx="10" cy="10" r="7" fill="none" stroke="#000" stroke-linecap="round" stroke-linejoin="round" stroke-width="2"></circle></svg>