<svg xmlns="http://www.w3.org/2000/svg" xmlns:xlink="http://www.w3.org/1999/xlink" x="0px" y="0px" width="18px" height="18px" viewBox="0 0 18 18"><path d="M11.799 7.16901L15.064 11.739C15.185 11.909 15.25 12.112 15.25 12.32V14.25C15.25 14.802 14.802 15.25 14.25 15.25H3.75C3.198 15.25 2.75 14.802 2.75 14.25V12.32C2.75 12.112 2.815 11.908 2.936 11.739L6.20099 7.16901C6.38899 6.90601 6.69201 6.75 7.01501 6.75H10.986C11.309 6.75 11.611 6.90601 11.799 7.16901Z" stroke="black" stroke-width="1.5" stroke-linecap="round" stroke-linejoin="round" fill="none"></path> <path d="M9 12.75C9.966 12.75 10.75 11.966 10.75 11C10.75 10.034 9.966 9.25 9 9.25C8.034 9.25 7.25 10.034 7.25 11C7.25 11.966 8.034 12.75 9 12.75Z" stroke="#000" stroke-width="1.5" stroke-linecap="round" stroke-linejoin="round" data-color="color-2" fill="none"></path> <path d="M15.25 8.25C15.802 8.25 16.25 7.802 16.25 7.25V6.28799C16.25 5.60299 15.906 4.96701 15.327 4.60001C14.083 3.81301 11.888 2.75 9 2.75C6.112 2.75 3.917 3.81301 2.673 4.60001C2.094 4.96601 1.75 5.60199 1.75 6.28799V7.25C1.75 7.802 2.198 8.25 2.75 8.25" stroke="#000" stroke-width="1.5" stroke-linecap="round" stroke-linejoin="round" data-color="color-2" fill="none"></path> <path d="M6.75 5.5V6.75" stroke="black" stroke-width="1.5" stroke-linecap="round" stroke-linejoin="round" fill="none"></path> <path d="M11.25 5.5V6.75" stroke="black" stroke-width="1.5" stroke-linecap="round" stroke-linejoin="round" fill="none"></path></svg>