<svg xmlns="http://www.w3.org/2000/svg" xmlns:xlink="http://www.w3.org/1999/xlink" x="0px" y="0px" width="18px" height="18px" viewBox="0 0 18 18"><path d="M9,4.75v-.75c0-.966,.784-1.75,1.75-1.75h1.75c.793,0,1.462-.527,1.677-1.25" fill="none" stroke="#000" stroke-linecap="round" stroke-linejoin="round" stroke-width="1.5" data-color="color-2"></path><rect x=".75" y="4.75" width="16.5" height="8.5" rx="2" ry="2" fill="none" stroke="#000" stroke-linecap="round" stroke-linejoin="round" stroke-width="1.5"></rect><line x1="11.75" y1="10.25" x2="6.25" y2="10.25" fill="none" stroke="#000" stroke-linecap="round" stroke-linejoin="round" stroke-width="1.5" data-color="color-2"></line><rect x="3" y="7" width="1.5" height="1.5" rx=".5" ry=".5" fill="#000" data-color="color-2" data-stroke="none"></rect><rect x="3" y="9.5" width="1.5" height="1.5" rx=".5" ry=".5" fill="#000" data-color="color-2" data-stroke="none"></rect><rect x="5.5" y="7" width="1.5" height="1.5" rx=".5" ry=".5" fill="#000" data-color="color-2" data-stroke="none"></rect><rect x="8.25" y="7" width="1.5" height="1.5" rx=".5" ry=".5" fill="#000" data-color="color-2" data-stroke="none"></rect><rect x="13.5" y="7" width="1.5" height="1.5" rx=".5" ry=".5" fill="#000" data-color="color-2" data-stroke="none"></rect><rect x="13.5" y="9.5" width="1.5" height="1.5" rx=".5" ry=".5" fill="#000" data-color="color-2" data-stroke="none"></rect><rect x="11" y="7" width="1.5" height="1.5" rx=".5" ry=".5" fill="#000" data-color="color-2" data-stroke="none"></rect></svg>