<svg xmlns="http://www.w3.org/2000/svg" xmlns:xlink="http://www.w3.org/1999/xlink" x="0px" y="0px" width="18px" height="18px" viewBox="0 0 18 18"><path d="M1.829,8.709l3.694,1.965c.542,.289,1.194,.284,1.732-.012l8.924-4.906c.432-.237,.428-.859-.007-1.091l-3.694-1.965c-.542-.289-1.194-.284-1.732,.012L1.821,7.618c-.432,.237-.428,.859,.007,1.091Z" fill="none" stroke="#000" stroke-linecap="round" stroke-linejoin="round" stroke-width="1.5"></path><path d="M2.462,11.878l-.641,.352c-.432,.237-.428,.859,.007,1.091l3.694,1.965c.542,.289,1.194,.284,1.732-.012l8.924-4.906c.432-.237,.428-.859-.007-1.091l-.614-.327" fill="none" stroke="#000" stroke-linecap="round" stroke-linejoin="round" stroke-width="1.5" data-color="color-2"></path></svg>