<svg xmlns="http://www.w3.org/2000/svg" xmlns:xlink="http://www.w3.org/1999/xlink" x="0px" y="0px" width="18px" height="18px" viewBox="0 0 18 18"><path d="M6.25,5.25v2.586c0,.265,.105,.52,.293,.707l.914,.914c.188,.188,.293,.442,.293,.707v5.586" fill="none" stroke="#000" stroke-linecap="round" stroke-linejoin="round" stroke-width="1.5"></path><path d="M3.811,11.311l1.146,1.146c.188,.188,.293,.442,.293,.707v2.586" fill="none" stroke="#000" stroke-linecap="round" stroke-linejoin="round" stroke-width="1.5" data-color="color-2"></path><circle cx="6.25" cy="3.75" r="1.5" fill="none" stroke="#000" stroke-linecap="round" stroke-linejoin="round" stroke-width="1.5"></circle><circle cx="2.75" cy="10.25" r="1.5" fill="none" stroke="#000" stroke-linecap="round" stroke-linejoin="round" stroke-width="1.5" data-color="color-2"></circle><path d="M12.75,15.75v-2.586c0-.265,.105-.52,.293-.707l1.146-1.146" fill="none" stroke="#000" stroke-linecap="round" stroke-linejoin="round" stroke-width="1.5" data-color="color-2"></path><circle cx="15.25" cy="10.25" r="1.5" fill="none" stroke="#000" stroke-linecap="round" stroke-linejoin="round" stroke-width="1.5" data-color="color-2"></circle><path d="M10.25,15.75v-5.586c0-.265,.105-.52,.293-.707l.914-.914c.188-.188,.293-.442,.293-.707v-2.586" fill="none" stroke="#000" stroke-linecap="round" stroke-linejoin="round" stroke-width="1.5"></path><circle cx="11.75" cy="3.75" r="1.5" fill="none" stroke="#000" stroke-linecap="round" stroke-linejoin="round" stroke-width="1.5"></circle></svg>