<svg xmlns="http://www.w3.org/2000/svg" xmlns:xlink="http://www.w3.org/1999/xlink" x="0px" y="0px" width="18px" height="18px" viewBox="0 0 18 18"><path d="M9,3.697l-.861-.861c-.781-.781-2.047-.781-2.828,0l-2.475,2.475c-.781,.781-.781,2.047,0,2.828l.861,.861" fill="none" stroke="#000" stroke-linecap="round" stroke-linejoin="round" stroke-width="1.5" data-color="color-2"></path><path d="M14.303,9l.861,.861c.781,.781,.781,2.047,0,2.828l-2.475,2.475c-.781,.781-2.047,.781-2.828,0l-.861-.861" fill="none" stroke="#000" stroke-linecap="round" stroke-linejoin="round" stroke-width="1.5" data-color="color-2"></path><path d="M11.652,11.652l3.513-3.513c.781-.781,.781-2.047,0-2.828l-2.475-2.475c-.781-.781-2.047-.781-2.828,0l-3.513,3.513-3.513,3.513c-.781,.781-.781,2.047,0,2.828l2.475,2.475c.781,.781,2.047,.781,2.828,0,0,0,3.513-3.513,3.513-3.513Z" fill="none" stroke="#000" stroke-linecap="round" stroke-linejoin="round" stroke-width="1.5"></path><circle cx="9.25" cy="6.75" r=".75" fill="#000" data-color="color-2" data-stroke="none"></circle><circle cx="11.25" cy="8.75" r=".75" fill="#000" data-color="color-2" data-stroke="none"></circle><circle cx="6.75" cy="9.25" r=".75" fill="#000" data-color="color-2" data-stroke="none"></circle><circle cx="8.75" cy="11.25" r=".75" fill="#000" data-color="color-2" data-stroke="none"></circle><circle cx="9" cy="9" r=".75" fill="#000" data-color="color-2" data-stroke="none"></circle></svg>