<svg xmlns="http://www.w3.org/2000/svg" xmlns:xlink="http://www.w3.org/1999/xlink" x="0px" y="0px" width="18px" height="18px" viewBox="0 0 18 18"><path d="M9.25 15.75H14.25C15.0784 15.75 15.75 15.078 15.75 14.25V9.25C15.75 8.422 15.0784 7.75 14.25 7.75H9.25C8.4216 7.75 7.75 8.422 7.75 9.25V14.25C7.75 15.078 8.4216 15.75 9.25 15.75Z" stroke="black" stroke-width="1.5" stroke-linecap="round" stroke-linejoin="round" fill="none"></path> <path d="M4.75 10.25H3.75C2.922 10.25 2.25 9.578 2.25 8.75V3.75C2.25 2.922 2.922 2.25 3.75 2.25H8.75C9.578 2.25 10.25 2.922 10.25 3.75V4.75" stroke="black" stroke-width="1.5" stroke-linecap="round" stroke-linejoin="round" fill="none"></path> <path d="M5.25 15.75C3.593 15.75 2.25 14.407 2.25 12.75" stroke="#000" stroke-width="1.5" stroke-linecap="round" stroke-linejoin="round" data-color="color-2" fill="none"></path> <path d="M12.75 2.25C14.407 2.25 15.75 3.593 15.75 5.25" stroke="#000" stroke-width="1.5" stroke-linecap="round" stroke-linejoin="round" data-color="color-2" fill="none"></path></svg>