<svg xmlns="http://www.w3.org/2000/svg" xmlns:xlink="http://www.w3.org/1999/xlink" x="0px" y="0px" width="18px" height="18px" viewBox="0 0 18 18"><path d="M2.75 14.75C12 14.75 6 3.25 15.25 3.25" stroke="black" stroke-width="1.5" stroke-linecap="round" stroke-linejoin="round" fill="none"></path> <path d="M8.25 3.75H5.75" stroke="#000" stroke-width="1.5" stroke-linecap="round" stroke-linejoin="round" data-color="color-2" fill="none"></path> <path d="M4 5.5C4.966 5.5 5.75 4.716 5.75 3.75C5.75 2.784 4.966 2 4 2C3.034 2 2.25 2.784 2.25 3.75C2.25 4.716 3.034 5.5 4 5.5Z" stroke="#000" stroke-width="1.5" stroke-linecap="round" stroke-linejoin="round" data-color="color-2" fill="none"></path> <path d="M9.75 14.25H12.25" stroke="#000" stroke-width="1.5" stroke-linecap="round" stroke-linejoin="round" data-color="color-2" fill="none"></path> <path d="M14 16C13.034 16 12.25 15.216 12.25 14.25C12.25 13.284 13.034 12.5 14 12.5C14.966 12.5 15.75 13.284 15.75 14.25C15.75 15.216 14.966 16 14 16Z" stroke="#000" stroke-width="1.5" stroke-linecap="round" stroke-linejoin="round" data-color="color-2" fill="none"></path></svg>