<svg xmlns="http://www.w3.org/2000/svg" xmlns:xlink="http://www.w3.org/1999/xlink" x="0px" y="0px" width="18px" height="18px" viewBox="0 0 18 18"><circle cx="9" cy="9" r=".75" fill="#000" data-color="color-2" data-stroke="none"></circle><circle cx="9" cy="2.75" r=".75" fill="#000" data-color="color-2" data-stroke="none"></circle><circle cx="9" cy="5.875" r=".75" fill="#000" data-color="color-2" data-stroke="none"></circle><circle cx="9" cy="12.125" r=".75" fill="#000" data-color="color-2" data-stroke="none"></circle><circle cx="9" cy="15.25" r=".75" fill="#000" data-color="color-2" data-stroke="none"></circle><path d="M2.583,5.496l3.5,3.132c.222,.199,.222,.546,0,.745l-3.5,3.132c-.322,.288-.833,.06-.833-.373V5.868c0-.432,.511-.661,.833-.373Z" fill="none" stroke="#000" stroke-linecap="round" stroke-linejoin="round" stroke-width="1.5"></path><path d="M15.417,5.496l-3.5,3.132c-.222,.199-.222,.546,0,.745l3.5,3.132c.322,.288,.833,.06,.833-.373V5.868c0-.432-.511-.661-.833-.373Z" fill="none" stroke="#000" stroke-linecap="round" stroke-linejoin="round" stroke-width="1.5"></path></svg>