<svg xmlns="http://www.w3.org/2000/svg" xmlns:xlink="http://www.w3.org/1999/xlink" x="0px" y="0px" width="18px" height="18px" viewBox="0 0 18 18"><rect x="2.75" y="2.75" width="12.5" height="12.5" rx="2" ry="2" fill="none" stroke="#000" stroke-linecap="round" stroke-linejoin="round" stroke-width="1.5"></rect><path d="M7.25,12.75c-.552,0-1-.448-1-1v-.789c0-.608-.276-1.182-.751-1.562l-.499-.4,.499-.4c.474-.38,.751-.954,.751-1.562v-.789c0-.552,.448-1,1-1" fill="none" stroke="#000" stroke-linecap="round" stroke-linejoin="round" stroke-width="1.5" data-color="color-2"></path><path d="M10.75,12.75c.552,0,1-.448,1-1v-.789c0-.608,.276-1.182,.751-1.562l.499-.4-.499-.4c-.474-.38-.751-.954-.751-1.562v-.789c0-.552-.448-1-1-1" fill="none" stroke="#000" stroke-linecap="round" stroke-linejoin="round" stroke-width="1.5" data-color="color-2"></path></svg>