<svg xmlns="http://www.w3.org/2000/svg" xmlns:xlink="http://www.w3.org/1999/xlink" x="0px" y="0px" width="18px" height="18px" viewBox="0 0 18 18"><path d="M5.25 8.25H11.75" stroke="#000" stroke-width="1.5" stroke-linecap="round" stroke-linejoin="round" data-color="color-2" fill="none"></path> <path d="M5.25 14.25H8.714" stroke="black" stroke-width="1.5" stroke-linecap="round" stroke-linejoin="round" fill="none"></path> <path d="M5.25 2.25H11.75" stroke="black" stroke-width="1.5" stroke-linecap="round" stroke-linejoin="round" fill="none"></path> <path d="M14.75 8.8981V6.75C14.75 5.922 14.078 5.25 13.25 5.25H3.75C2.922 5.25 2.25 5.922 2.25 6.75V9.75C2.25 10.578 2.922 11.25 3.75 11.25H7.7573" stroke="black" stroke-width="1.5" stroke-linecap="round" stroke-linejoin="round" fill="none"></path> <path d="M11.126 10.768L17.066 12.938C17.316 13.029 17.309 13.386 17.055 13.467L14.336 14.337L13.466 17.056C13.385 17.31 13.028 17.317 12.937 17.067L10.767 11.127C10.685 10.904 10.902 10.687 11.126 10.768Z" stroke="#000" stroke-width="1.5" stroke-linecap="round" stroke-linejoin="round" data-color="color-2" fill="none"></path></svg>