<svg xmlns="http://www.w3.org/2000/svg" xmlns:xlink="http://www.w3.org/1999/xlink" x="0px" y="0px" width="24px" height="24px" viewBox="0 0 24 24"> <path d="M18 6L20 8L22 6" stroke="#000" stroke-width="2" stroke-miterlimit="10" stroke-linecap="square" data-color="color-2" fill="none"></path> <path d="M17 2H18C19.105 2 20 2.895 20 4V8V7" stroke="#000" stroke-width="2" stroke-miterlimit="10" stroke-linecap="square" data-color="color-2" fill="none"></path> <path d="M6 18L4 16L2 18" stroke="#000" stroke-width="2" stroke-miterlimit="10" stroke-linecap="square" data-color="color-2" fill="none"></path> <path d="M7 22H6C4.895 22 4 21.105 4 20V16V17" stroke="#000" stroke-width="2" stroke-miterlimit="10" stroke-linecap="square" data-color="color-2" fill="none"></path> <path d="M13.7357 6.25673C12.9891 3.79373 10.7064 2 8 2C4.686 2 2 4.686 2 8C2 10.7007 3.78617 12.9795 6.24115 13.7309" stroke="black" stroke-width="2" stroke-miterlimit="10" stroke-linecap="square" fill="none"></path> <path d="M16 22C19.3137 22 22 19.3137 22 16C22 12.6863 19.3137 10 16 10C12.6863 10 10 12.6863 10 16C10 19.3137 12.6863 22 16 22Z" stroke="black" stroke-width="2" stroke-miterlimit="10" stroke-linecap="square" fill="none"></path> <path d="M16 15L16 17" stroke="#000" stroke-width="2" stroke-linecap="square" data-color="color-2" fill="none"></path> <path d="M8 7L8 9" stroke="#000" stroke-width="2" stroke-linecap="square" data-color="color-2" fill="none"></path> </svg>