<svg xmlns="http://www.w3.org/2000/svg" xmlns:xlink="http://www.w3.org/1999/xlink" x="0px" y="0px" width="24px" height="24px" viewBox="0 0 24 24"> <path d="M12 3V1" stroke="black" stroke-width="2" stroke-linecap="square" fill="none"></path> <path d="M3 14V5C3 3.89543 3.89543 3 5 3H19C20.1046 3 21 3.89543 21 5V14" stroke="black" stroke-width="2" stroke-miterlimit="10" stroke-linecap="square" fill="none"></path> <path d="M23 18H1" stroke="#000" stroke-width="2" stroke-miterlimit="10" stroke-linecap="square" data-color="color-2" fill="none"></path> <path d="M18 22.5L15 18L15.3333 18.5" stroke="#000" stroke-width="2" stroke-linecap="square" data-color="color-2" fill="none"></path> <path d="M6 22.5L9 18L8.66667 18.5" stroke="#000" stroke-width="2" stroke-linecap="square" data-color="color-2" fill="none"></path> <path d="M12 18V21" stroke="#000" stroke-width="2" stroke-linecap="square" data-color="color-2" fill="none"></path> <path d="M23 18H1" stroke="#000" stroke-width="2" stroke-miterlimit="10" stroke-linecap="square" data-color="color-2" fill="none"></path> <path d="M16 12.5C16 11.6716 15.3284 11 14.5 11C13.6716 11 13 11.6716 13 12.5C13 13.3284 13.6716 14 14.5 14C15.3284 14 16 13.3284 16 12.5Z" fill="black" data-stroke="none" data-cap="butt"></path> <path d="M11 7.5C11 6.67157 10.3284 6 9.5 6C8.67157 6 8 6.67157 8 7.5C8 8.32843 8.67157 9 9.5 9C10.3284 9 11 8.32843 11 7.5Z" fill="black" data-stroke="none" data-cap="butt"></path> <path d="M9.5 12.5L14.5 7.5" stroke="black" stroke-width="2" stroke-linecap="square" fill="none"></path> </svg>