<svg xmlns="http://www.w3.org/2000/svg" xmlns:xlink="http://www.w3.org/1999/xlink" x="0px" y="0px" width="24px" height="24px" viewBox="0 0 24 24"> <path d="M17 21V23" stroke="#000" stroke-width="2" stroke-miterlimit="10" stroke-linecap="square" data-color="color-2" fill="none"></path> <path d="M7 21V23" stroke="#000" stroke-width="2" stroke-miterlimit="10" stroke-linecap="square" data-color="color-2" fill="none"></path> <path d="M145 102V104" stroke="#000" stroke-width="2" stroke-miterlimit="10" stroke-linecap="square" data-color="color-2" fill="none"></path> <path d="M19 3H5C3.89543 3 3 3.89543 3 5V19C3 20.1046 3.89543 21 5 21H19C20.1046 21 21 20.1046 21 19V12.5294V5C21 3.89543 20.1046 3 19 3Z" stroke="black" stroke-width="2" stroke-miterlimit="10" stroke-linecap="square" fill="none"></path> <path d="M14.1213 9.87869L15.5355 8.46448" stroke="black" stroke-width="2" stroke-linecap="square" fill="none"></path> <path d="M8.46445 15.5355L9.87866 14.1213" stroke="black" stroke-width="2" stroke-linecap="square" fill="none"></path> <path d="M14.1213 14.1213L15.5355 15.5355" stroke="black" stroke-width="2" stroke-linecap="square" fill="none"></path> <path d="M8.46445 8.46448L9.87866 9.87869" stroke="black" stroke-width="2" stroke-linecap="square" fill="none"></path> <path d="M12 15C13.6569 15 15 13.6569 15 12C15 10.3431 13.6569 9 12 9C10.3431 9 9 10.3431 9 12C9 13.6569 10.3431 15 12 15Z" stroke="black" stroke-width="2" stroke-miterlimit="10" stroke-linecap="square" fill="none"></path> </svg>