<svg xmlns="http://www.w3.org/2000/svg" xmlns:xlink="http://www.w3.org/1999/xlink" x="0px" y="0px" width="24px" height="24px" viewBox="0 0 24 24"> <path d="M21 18H18C16.343 18 15 16.657 15 15C15 13.343 16.343 12 18 12H21" stroke="#000" stroke-width="2" stroke-miterlimit="10" stroke-linecap="square" data-color="color-2" fill="none"></path> <path d="M6 4H5C3.89543 4 3 4.89543 3 6V6C3 7.10457 3.89543 8 5 8H5.5" stroke="black" stroke-width="2" stroke-linecap="square" fill="none"></path> <path d="M7 8V2H18V8" stroke="#000" stroke-width="2" stroke-miterlimit="10" stroke-linecap="square" data-color="color-2" fill="none"></path> <path d="M6 7.99999H19C20.1046 7.99999 21 8.89542 21 9.99999V14.5V20C21 21.1046 20.1046 22 19 22H5C3.89543 22 3 21.1046 3 20V5.99997V6.23751" stroke="black" stroke-width="2" stroke-miterlimit="10" stroke-linecap="square" fill="none"></path> </svg>