<svg xmlns="http://www.w3.org/2000/svg" xmlns:xlink="http://www.w3.org/1999/xlink" x="0px" y="0px" width="24px" height="24px" viewBox="0 0 24 24"> <path d="M12 19V23" stroke="#000" stroke-width="2" stroke-miterlimit="10" stroke-linecap="square" data-color="color-2" fill="none"></path> <path d="M8 23H16" stroke="#000" stroke-width="2" stroke-miterlimit="10" stroke-linecap="square" data-color="color-2" fill="none"></path> <path d="M18 14L18 3C18 1.89543 17.1046 1 16 1L8 1C6.89543 1 6 1.89543 6 3L6 14" stroke="black" stroke-width="2" stroke-miterlimit="10" stroke-linecap="square" fill="none"></path> <path d="M3.77747 14H20.2304" stroke="black" stroke-width="2" fill="none" data-cap="butt"></path> <path d="M21.5 12.5L20.8787 13.1213C20.3161 13.6839 20 14.447 20 15.2426L20 17C20 18.1046 19.1046 19 18 19L6 19C4.89543 19 4 18.1046 4 17L4 15.2426C4 14.447 3.68393 13.6839 3.12132 13.1213L2.5 12.5" stroke="black" stroke-width="2" stroke-miterlimit="10" stroke-linecap="square" fill="none"></path> </svg>