<svg xmlns="http://www.w3.org/2000/svg" xmlns:xlink="http://www.w3.org/1999/xlink" x="0px" y="0px" width="24px" height="24px" viewBox="0 0 24 24"> <path d="M10.5 6.5C10.5 5.67157 11.1716 5 12 5C12.8284 5 13.5 5.67157 13.5 6.5C13.5 7.32843 12.8284 8 12 8C11.1716 8 10.5 7.32843 10.5 6.5Z" fill="#000" data-color="color-2" data-cap="butt" data-stroke="none"></path> <path d="M12 2.99997V0.999972V1.16023" stroke="#000" stroke-width="2" stroke-linecap="square" data-color="color-2" fill="none"></path> <path d="M7 22V17.5V18" stroke="#000" stroke-width="2" stroke-linecap="square" data-color="color-2" fill="none"></path> <path d="M17 22V17.5V18" stroke="#000" stroke-width="2" stroke-linecap="square" data-color="color-2" fill="none"></path> <path d="M22 22V21.1623C22 19.871 21.1737 18.7246 19.9487 18.3162L15.8675 16.9558C15.0509 16.6836 14.5 15.9193 14.5 15.0585V14.2733C15.6023 13.5723 16.3973 12.4176 16.6082 11.0465L17 8.49999V8" stroke="black" stroke-width="2" stroke-linecap="square" fill="none"></path> <path d="M6.5 8V6.5C6.5 3.46243 8.96243 1 12 1C15.0376 1 17.5 3.46243 17.5 6.5V8" stroke="#000" stroke-width="2" stroke-miterlimit="10" data-color="color-2" data-cap="butt" fill="none"></path> <path d="M2 22V21.1623C2 19.871 2.82629 18.7246 4.05132 18.3162L8.13246 16.9558C8.94914 16.6836 9.5 15.9193 9.5 15.0585V14.2733C8.39767 13.5723 7.60271 12.4176 7.39177 11.0465L7 8.89448L7 8" stroke="black" stroke-width="2" stroke-linecap="square" fill="none"></path> <path d="M5 8H19" stroke="#000" stroke-width="2" stroke-linecap="square" data-color="color-2" fill="none"></path> </svg>