<svg xmlns="http://www.w3.org/2000/svg" xmlns:xlink="http://www.w3.org/1999/xlink" x="0px" y="0px" width="32px" height="32px" viewBox="0 0 32 32"> <path d="M29 23H23.8571C21.7267 23 20 21.2093 20 19C20 16.7907 21.7267 15 23.8571 15H29" stroke="#000" stroke-width="2" stroke-miterlimit="10" stroke-linecap="square" data-color="color-2" fill="none"></path> <path d="M16 10H26C27.6569 10 29 11.3431 29 13V25C29 26.6569 27.6569 28 26 28H6C4.34315 28 3 26.6569 3 25L3 7V7.5" stroke="black" stroke-width="2" stroke-miterlimit="10" stroke-linecap="square" fill="none"></path> <path d="M16 10H6C4.34315 10 3 8.65685 3 7V7C3 5.34315 4.34315 4 6 4H23C24.6569 4 26 5.34315 26 7V10" stroke="black" stroke-width="2" stroke-linecap="square" fill="none"></path> </svg>