<svg xmlns="http://www.w3.org/2000/svg" xmlns:xlink="http://www.w3.org/1999/xlink" x="0px" y="0px" width="32px" height="32px" viewBox="0 0 32 32"> <path d="M30 19.5V24.5C30 26.5619 27.0899 28 23.5 28C19.9101 28 17 26.5619 17 24.5V19.5" stroke="#000" stroke-width="2" stroke-miterlimit="10" data-color="color-2" fill="none" data-cap="butt"></path> <path d="M15 19.5V24.5C15 26.5619 12.0899 28 8.5 28C4.91015 28 2 26.5619 2 24.5V19.5" stroke="black" stroke-width="2" stroke-miterlimit="10" fill="none" data-cap="butt"></path> <path d="M15 14.5V19.5C15 21.5619 12.0899 23 8.5 23C4.91015 23 2 21.5619 2 19.5V14.5" stroke="black" stroke-width="2" stroke-miterlimit="10" fill="none" data-cap="butt"></path> <path d="M15 9.5V14.5C15 16.5619 12.0899 18 8.5 18C4.91015 18 2 16.5619 2 14.5V9.5" stroke="black" stroke-width="2" stroke-miterlimit="10" fill="none" data-cap="butt"></path> <path d="M23.5 23C27.0899 23 30 21.433 30 19.5C30 17.567 27.0899 16 23.5 16C19.9101 16 17 17.567 17 19.5C17 21.433 19.9101 23 23.5 23Z" stroke="#000" stroke-width="2" stroke-miterlimit="10" stroke-linecap="square" data-color="color-2" fill="none"></path> <path d="M8.5 13C12.0899 13 15 11.433 15 9.5C15 7.567 12.0899 6 8.5 6C4.91015 6 2 7.567 2 9.5C2 11.433 4.91015 13 8.5 13Z" stroke="black" stroke-width="2" stroke-miterlimit="10" stroke-linecap="square" fill="none"></path> </svg>