<svg xmlns="http://www.w3.org/2000/svg" xmlns:xlink="http://www.w3.org/1999/xlink" x="0px" y="0px" width="32px" height="32px" viewBox="0 0 32 32"> <path d="M7 22H6C4.89543 22 4 21.1046 4 20V16" stroke="#000" stroke-width="2" stroke-linecap="square" data-color="color-2" fill="none"></path> <path d="M25 22H26C27.1046 22 28 21.1046 28 20V16" stroke="#000" stroke-width="2" stroke-linecap="square" data-color="color-2" fill="none"></path> <path d="M27 16H29" stroke="#000" stroke-width="2" stroke-linecap="square" data-color="color-2" fill="none"></path> <path d="M3 16H5" stroke="#000" stroke-width="2" stroke-linecap="square" data-color="color-2" fill="none"></path> <path d="M9 7H23" stroke="black" stroke-width="2" fill="none" data-cap="butt"></path> <path d="M16 25V30" stroke="#000" stroke-width="2" stroke-miterlimit="10" stroke-linecap="square" data-color="color-2" fill="none"></path> <path d="M11 30H16H21" stroke="#000" stroke-width="2" stroke-miterlimit="10" stroke-linecap="square" data-color="color-2" fill="none"></path> <path d="M23 19L23 5C23 3.34315 21.6569 2 20 2L12 2C10.3431 2 9 3.34314 9 5L9 19" stroke="black" stroke-width="2" stroke-miterlimit="10" stroke-linecap="square" fill="none"></path> <path d="M23.5 19H8.5C7.67157 19 7 19.6716 7 20.5V23.5C7 24.3284 7.67157 25 8.5 25H23.5C24.3284 25 25 24.3284 25 23.5V20.5C25 19.6716 24.3284 19 23.5 19Z" stroke="black" stroke-width="2" fill="none" data-cap="butt"></path> </svg>