<svg xmlns="http://www.w3.org/2000/svg" xmlns:xlink="http://www.w3.org/1999/xlink" x="0px" y="0px" width="32px" height="32px" viewBox="0 0 32 32"> <path d="M16 28.5L16 18" stroke="#000" stroke-width="2" data-color="color-2" fill="none" data-cap="butt"></path> <path d="M5 3V18H27V3H5Z" stroke="black" stroke-width="2" stroke-miterlimit="10" stroke-linecap="square" fill="none"></path> <path d="M16 13.5C17.6569 13.5 19 12.1569 19 10.5C19 8.84315 17.6569 7.5 16 7.5C14.3431 7.5 13 8.84315 13 10.5C13 12.1569 14.3431 13.5 16 13.5Z" stroke="black" stroke-width="2" stroke-miterlimit="10" stroke-linecap="square" fill="none"></path> <path d="M9 14H9.01" stroke="#000" stroke-width="2" stroke-linecap="square" data-color="color-2" fill="none"></path> <path d="M23.01 7H23" stroke="#000" stroke-width="2" stroke-linecap="square" data-color="color-2" fill="none"></path> <path d="M16 29C16 29 17.7639 25.2253 21.1587 23.2653C24.5535 21.3053 28.1244 22 28.1244 22C28.1244 22 27.2029 26.7039 23.8687 28.6289C20.4739 30.5889 16 29 16 29Z" stroke="black" stroke-width="2" stroke-miterlimit="10" stroke-linecap="square" fill="none"></path> <path d="M16 29C16 29 14.2361 25.2253 10.8413 23.2653C7.44646 21.3053 3.87561 22 3.87561 22C3.87561 22 4.79711 26.7039 8.13131 28.6289C11.5261 30.5889 16 29 16 29Z" stroke="black" stroke-width="2" stroke-miterlimit="10" stroke-linecap="square" fill="none"></path> </svg>