<svg xmlns="http://www.w3.org/2000/svg" xmlns:xlink="http://www.w3.org/1999/xlink" x="0px" y="0px" width="32px" height="32px" viewBox="0 0 32 32"><path d="M8 29V24V24.5" stroke="#000" stroke-width="2" stroke-linecap="square" data-color="color-2" fill="none"></path> <path d="M24 29V24V24.5" stroke="#000" stroke-width="2" stroke-linecap="square" data-color="color-2" fill="none"></path> <path d="M13.5 29L15.5 23H16.5L18.5 29L16 32L13.5 29Z" fill="black" data-cap="butt" data-stroke="none"></path> <path d="M2 29V28.9655C2 27.0915 3.24154 25.4442 5.04305 24.928L9.47844 23.6571C11.1012 23.2035 12.22 23.05 12.22 21.3988V19.3462C9.8148 19.1502 8.22737 18.4304 6.64397 16.9772C9.09397 14.2206 9 11.1 9 9C9 5.13401 12.134 2 16 2C19.866 2 23 5.13401 23 9C23 11.1 22.9062 14.2206 25.3562 16.9772C23.7728 18.4304 22.1852 19.304 19.78 19.5V21.3988C19.78 23.05 20.8988 23.2035 22.5216 23.6571L26.9569 24.928C28.7585 25.4442 30 27.0915 30 28.9655V29" stroke="black" stroke-width="2" stroke-miterlimit="10" stroke-linecap="square" fill="none"></path></svg>