<svg xmlns="http://www.w3.org/2000/svg" xmlns:xlink="http://www.w3.org/1999/xlink" x="0px" y="0px" width="48px" height="48px" viewBox="0 0 48 48"> <path d="M25 33V40C25 42.7614 29.701 45 35.5 45C41.299 45 46 42.7614 46 40V33" stroke="#000" stroke-width="2" stroke-miterlimit="10" data-color="color-2" fill="none" data-cap="butt"></path> <path d="M20 35H2V5H46V25" stroke="black" stroke-width="2" stroke-miterlimit="10" stroke-linecap="square" fill="none"></path> <path d="M24 25C26.7614 25 29 22.7614 29 20C29 17.2386 26.7614 15 24 15C21.2386 15 19 17.2386 19 20C19 22.7614 21.2386 25 24 25Z" stroke="black" stroke-width="2" stroke-miterlimit="10" stroke-linecap="square" fill="none"></path> <path d="M41 23.5V13C39.3431 13 38 11.6569 38 10H10C10 11.6569 8.65685 13 7 13V27C8.65685 27 10 28.3431 10 30H20" stroke="black" stroke-width="2" stroke-miterlimit="10" stroke-linecap="square" fill="none"></path> <path d="M34 20H36" stroke="black" stroke-width="2" stroke-miterlimit="10" stroke-linecap="square" fill="none"></path> <path d="M12 20H14" stroke="black" stroke-width="2" stroke-miterlimit="10" stroke-linecap="square" fill="none"></path> <path d="M35.5 38C41.299 38 46 35.7614 46 33C46 30.2386 41.299 28 35.5 28C29.701 28 25 30.2386 25 33C25 35.7614 29.701 38 35.5 38Z" stroke="#000" stroke-width="2" stroke-miterlimit="10" stroke-linecap="square" data-color="color-2" fill="none"></path> <path d="M34 33H37" stroke="#000" stroke-width="2" stroke-linecap="square" data-color="color-2" fill="none"></path> </svg>