<svg xmlns="http://www.w3.org/2000/svg" xmlns:xlink="http://www.w3.org/1999/xlink" x="0px" y="0px" width="48px" height="48px" viewBox="0 0 48 48"> <path d="M36 44L32 38L32.4412 38.6618" stroke="#000" stroke-width="2" stroke-linecap="square" data-color="color-2" fill="none"></path> <path d="M12 44L16 38L15.4829 38.7757" stroke="#000" stroke-width="2" stroke-linecap="square" data-color="color-2" fill="none"></path> <path d="M24 38V43" stroke="#000" stroke-width="2" stroke-linecap="square" data-color="color-2" fill="none"></path> <path d="M5 27L5 10C5 7.23858 7.23858 5 10 5L38 5C40.7614 5 43 7.23858 43 10L43 27" stroke="black" stroke-width="2" stroke-miterlimit="10" stroke-linecap="square" fill="none"></path> <path d="M4.5 38H43.5L45 32H3L4.5 38Z" stroke="black" stroke-width="2" stroke-miterlimit="10" stroke-linecap="square" fill="none"></path> <path d="M24 5L24 2" stroke="black" stroke-width="2" stroke-linecap="square" fill="none"></path> <path d="M24 27C28.6944 27 32.5 23.1944 32.5 18.5H24V10C19.3056 10 15.5 13.8056 15.5 18.5C15.5 23.1944 19.3056 27 24 27Z" stroke="#000" stroke-width="2" stroke-miterlimit="10" stroke-linecap="square" data-color="color-2" fill="none"></path> </svg>