<svg xmlns="http://www.w3.org/2000/svg" xmlns:xlink="http://www.w3.org/1999/xlink" x="0px" y="0px" width="48px" height="48px" viewBox="0 0 48 48"> <path d="M39 32L39 8C39 5.23858 36.7614 3 34 3L14 3C11.2386 3 9 5.23857 9 8L9 32" stroke="black" stroke-width="2" stroke-miterlimit="10" stroke-linecap="square" fill="none"></path> <path d="M33 8L15 8L15 17L33 17L33 8Z" stroke="#000" stroke-width="2" stroke-miterlimit="10" stroke-linecap="square" data-color="color-2" fill="none"></path> <path d="M43 37H5V43H43V37Z" stroke="#000" stroke-width="2" stroke-miterlimit="10" stroke-linecap="square" data-color="color-2" fill="none"></path> <path d="M27 22V28H32V22" stroke="black" stroke-width="2" stroke-linecap="square" fill="none"></path> <path d="M15.5 22H15" stroke="black" stroke-width="2" stroke-linecap="square" fill="none"></path> <path d="M15.5 27H15" stroke="black" stroke-width="2" stroke-linecap="square" fill="none"></path> <path d="M21 22H20.5" stroke="black" stroke-width="2" stroke-linecap="square" fill="none"></path> <path d="M21 27H20.5" stroke="black" stroke-width="2" stroke-linecap="square" fill="none"></path> <path d="M26 22H33" stroke="black" stroke-width="2" stroke-miterlimit="10" stroke-linecap="square" fill="none"></path> </svg>