<svg xmlns="http://www.w3.org/2000/svg" xmlns:xlink="http://www.w3.org/1999/xlink" x="0px" y="0px" width="48px" height="48px" viewBox="0 0 48 48"> <path d="M24 28.9504V36C24 38.7614 28.701 41 34.5 41C40.299 41 45 38.7614 45 36V28.9504" stroke="black" stroke-width="2" stroke-miterlimit="10" fill="none" data-cap="butt"></path> <path d="M34.5 34C40.299 34 45 31.7614 45 29C45 26.2386 40.299 24 34.5 24C28.701 24 24 26.2386 24 29C24 31.7614 28.701 34 34.5 34Z" stroke="black" stroke-width="2" stroke-miterlimit="10" stroke-linecap="square" fill="none"></path> <path d="M3 28V36C3 38.7614 7.70101 41 13.5 41C19.299 41 24 38.7614 24 36V28" stroke="black" stroke-width="2" stroke-miterlimit="10" stroke-linecap="square" fill="none"></path> <path d="M3 21V29C3 31.7614 7.70101 34 13.5 34C19.299 34 24 31.7614 24 29V21" stroke="black" stroke-width="2" stroke-miterlimit="10" stroke-linecap="square" fill="none"></path> <path d="M3 15V22C3 24.7614 7.70101 27 13.5 27C19.299 27 24 24.7614 24 22V15" stroke="black" stroke-width="2" stroke-miterlimit="10" fill="none" data-cap="butt"></path> <path d="M33 29H36" stroke="#000" stroke-width="2" stroke-linecap="square" data-color="color-2" fill="none"></path> <path d="M13.5 20C19.299 20 24 17.7614 24 15C24 12.2386 19.299 10 13.5 10C7.70101 10 3 12.2386 3 15C3 17.7614 7.70101 20 13.5 20Z" stroke="black" stroke-width="2" stroke-miterlimit="10" stroke-linecap="square" fill="none"></path> <path d="M12 15H15" stroke="#000" stroke-width="2" stroke-linecap="square" data-color="color-2" fill="none"></path> </svg>