<svg xmlns="http://www.w3.org/2000/svg" xmlns:xlink="http://www.w3.org/1999/xlink" x="0px" y="0px" width="48px" height="48px" viewBox="0 0 48 48"><path d="M25 34V41C25 43.7614 29.701 46 35.5 46C41.299 46 46 43.7614 46 41V34" stroke="black" stroke-width="2" stroke-miterlimit="10" fill="none" data-cap="butt"></path> <path d="M7.5 30.5H16C20.4183 30.5 24 26.9183 24 22.5V21" stroke="#000" stroke-width="2" stroke-linecap="square" data-color="color-2" fill="none"></path> <path d="M16 5H12C9.23858 5 7 7.23858 7 10V40C7 42.7614 9.23858 45 12 45H21M32 5H36C38.7614 5 41 7.23858 41 10V24.5" stroke="black" stroke-width="2" stroke-miterlimit="10" stroke-linecap="square" fill="none"></path> <path d="M16 8V4.5C16 3.11929 17.1193 2 18.5 2H29.5C30.8807 2 32 3.11929 32 4.5V8H16Z" stroke="#000" stroke-width="2" stroke-miterlimit="10" stroke-linecap="square" data-color="color-2" fill="none"></path> <path d="M35.5 39C41.299 39 46 36.7614 46 34C46 31.2386 41.299 29 35.5 29C29.701 29 25 31.2386 25 34C25 36.7614 29.701 39 35.5 39Z" stroke="black" stroke-width="2" stroke-miterlimit="10" stroke-linecap="square" fill="none"></path> <path d="M34 34H37" stroke="#000" stroke-width="2" stroke-linecap="square" data-color="color-2" fill="none"></path> <path d="M18 21L24 13L30 21H18Z" stroke="#000" stroke-width="2" stroke-linecap="square" data-color="color-2" fill="none"></path></svg>