<svg xmlns="http://www.w3.org/2000/svg" xmlns:xlink="http://www.w3.org/1999/xlink" x="0px" y="0px" width="48px" height="48px" viewBox="0 0 48 48"><path d="M35.6913 17.25L29.2501 21" stroke="black" stroke-width="2" fill="none" data-cap="butt"></path> <path d="M18.7501 27L12.3087 30.75" stroke="black" stroke-width="2" fill="none" data-cap="butt"></path> <path d="M35.6913 30.7499L29.2499 27" stroke="black" stroke-width="2" fill="none" data-cap="butt"></path> <path d="M18.7501 21L12.3087 17.25" stroke="black" stroke-width="2" fill="none" data-cap="butt"></path> <path d="M24 11V18" stroke="black" stroke-width="2" fill="none" data-cap="butt"></path> <path d="M24 30V37" stroke="black" stroke-width="2" fill="none" data-cap="butt"></path> <path d="M18 24C18 27.3137 20.6863 30 24 30C27.3137 30 30 27.3137 30 24C30 20.6863 27.3137 18 24 18C20.6863 18 18 20.6863 18 24Z" stroke="black" stroke-width="2" stroke-miterlimit="10" stroke-linecap="square" fill="none"></path> <path d="M20 7C20 4.79086 21.7909 3 24 3C26.2091 3 28 4.79086 28 7C28 9.20914 26.2091 11 24 11C21.7909 11 20 9.20914 20 7Z" stroke="#000" stroke-width="2" stroke-miterlimit="10" stroke-linecap="square" data-color="color-2" fill="none"></path> <path d="M20 41C20 38.7909 21.7909 37 24 37C26.2091 37 28 38.7909 28 41C28 43.2091 26.2091 45 24 45C21.7909 45 20 43.2091 20 41Z" stroke="#000" stroke-width="2" stroke-miterlimit="10" stroke-linecap="square" data-color="color-2" fill="none"></path> <path d="M39 11C41.2091 11 43 12.7909 43 15C43 17.2091 41.2091 19 39 19C36.7909 19 35 17.2091 35 15C35 12.7909 36.7909 11 39 11Z" stroke="#000" stroke-width="2" stroke-miterlimit="10" stroke-linecap="square" data-color="color-2" fill="none"></path> <path d="M9 29C11.2091 29 13 30.7909 13 33C13 35.2091 11.2091 37 9 37C6.79086 37 5 35.2091 5 33C5 30.7909 6.79086 29 9 29Z" stroke="#000" stroke-width="2" stroke-miterlimit="10" stroke-linecap="square" data-color="color-2" fill="none"></path> <path d="M39 29C41.2091 29 43 30.7909 43 33C43 35.2091 41.2091 37 39 37C36.7909 37 35 35.2091 35 33C35 30.7909 36.7909 29 39 29Z" stroke="#000" stroke-width="2" stroke-miterlimit="10" stroke-linecap="square" data-color="color-2" fill="none"></path> <path d="M9 11C11.2091 11 13 12.7909 13 15C13 17.2091 11.2091 19 9 19C6.79086 19 5 17.2091 5 15C5 12.7909 6.79086 11 9 11Z" stroke="#000" stroke-width="2" stroke-miterlimit="10" stroke-linecap="square" data-color="color-2" fill="none"></path></svg>