<svg xmlns="http://www.w3.org/2000/svg" xmlns:xlink="http://www.w3.org/1999/xlink" x="0px" y="0px" width="12px" height="12px" viewBox="0 0 12 12"><path d="m10.679,5.118L6.573,1.013c-.326-.326-.776-.513-1.237-.513h-3.086c-.965,0-1.75.785-1.75,1.75v3.086c0,.467.182.907.513,1.237l4.105,4.105c.536.536,1.24.804,1.944.804s1.408-.268,1.944-.804l1.672-1.672c.52-.519.806-1.209.806-1.944s-.286-1.425-.806-1.944Zm-6.679-.118c-.552,0-1-.448-1-1s.448-1,1-1,1,.448,1,1-.448,1-1,1Z" stroke-width="0" fill="#000"></path></svg>