<svg xmlns="http://www.w3.org/2000/svg" xmlns:xlink="http://www.w3.org/1999/xlink" x="0px" y="0px" width="18px" height="18px" viewBox="0 0 18 18"><path d="M8.5,13.25c0-1.241,1.009-2.25,2.25-2.25h2.713l-.032-.188,3.343-3.258c.205-.199,.278-.498,.19-.769-.088-.271-.323-.469-.605-.51l-4.62-.671L9.672,1.418c-.252-.512-1.093-.512-1.345,0l-2.066,4.186-4.62,.671c-.282,.041-.517,.239-.605,.51-.088,.271-.015,.57,.19,.769l3.343,3.258-.79,4.601c-.048,.282,.067,.566,.298,.734,.231,.167,.538,.189,.79,.057l3.841-2.02c-.131-.286-.209-.6-.209-.935Z" fill="#000"></path><path d="M15.75,12.5h-5c-.414,0-.75,.336-.75,.75s.336,.75,.75,.75h5c.414,0,.75-.336,.75-.75s-.336-.75-.75-.75Z" fill="#000" data-color="color-2"></path></svg>