<svg xmlns="http://www.w3.org/2000/svg" xmlns:xlink="http://www.w3.org/1999/xlink" x="0px" y="0px" width="24px" height="24px" viewBox="0 0 24 24"><path d="m10.008,19.76c-.423,0-.851-.067-1.269-.206l-.949-.315.63-1.898.949.315c.722.24,1.506.055,2.045-.484l5.758-5.758c.538-.539.724-1.322.484-2.046l-.314-.949,1.898-.629.314.949c.479,1.446.108,3.013-.968,4.089l-5.758,5.758c-.765.766-1.779,1.174-2.82,1.174Z" stroke-width="0" fill="#000"></path><path d="m2.761,14.21l-.315-.949c-.479-1.446-.108-3.012.968-4.089l5.758-5.758c1.076-1.077,2.642-1.449,4.089-.968l.949.314-.629,1.898-.949-.314c-.725-.24-1.508-.055-2.046.484l-5.758,5.758c-.538.539-.724,1.322-.484,2.045l.315.949-1.898.63Z" stroke-width="0" fill="#000"></path><rect x=".965" y="15.5" width="9.071" height="2" transform="translate(-10.056 8.722) rotate(-45)" stroke-width="0" fill="#000"></rect><rect x="11.965" y="4.5" width="9.071" height="2" transform="translate(.944 13.278) rotate(-45)" stroke-width="0" fill="#000"></rect><polygon points="24 19 21 19 21 16 19 16 19 19 16 19 16 21 19 21 19 24 21 24 21 21 24 21 24 19" fill="#000" stroke-width="0" data-color="color-2"></polygon></svg>