<svg xmlns="http://www.w3.org/2000/svg" xmlns:xlink="http://www.w3.org/1999/xlink" x="0px" y="0px" width="24px" height="24px" viewBox="0 0 24 24"><path fill-rule="evenodd" clip-rule="evenodd" d="M23 11.1327V13.4314C22.66 16.9111 20.4176 19.9577 17.1038 21.1627L15.4019 21.7815L14.7185 19.9019L16.4204 19.2831C18.9593 18.3598 20.7383 16.0126 21 13.334V11.1327H23Z" fill="black"></path> <path fill-rule="evenodd" clip-rule="evenodd" d="M11 11.1327L10.9855 13.5797C10.6485 17.029 8.36088 19.9783 5.10385 21.1627L3.40195 21.7815L2.71847 19.9019L4.42037 19.2831C6.95362 18.3619 8.73287 16.068 8.995 13.3852L9.00001 11.1327H11Z" fill="black"></path> <path fill-rule="evenodd" clip-rule="evenodd" d="M23 13H13V3H23V13Z" fill="#000" data-color="color-2"></path> <path fill-rule="evenodd" clip-rule="evenodd" d="M11 13H1V3H11V13Z" fill="#000" data-color="color-2"></path></svg>