<svg xmlns="http://www.w3.org/2000/svg" xmlns:xlink="http://www.w3.org/1999/xlink" x="0px" y="0px" width="32px" height="32px" viewBox="0 0 32 32"> <path fill-rule="evenodd" clip-rule="evenodd" d="M11 13H18C22.4183 13 26 16.5817 26 21C26 25.4183 22.4183 29 18 29H11V27H18C21.3137 27 24 24.3137 24 21C24 17.6863 21.3137 15 18 15H11V13Z" fill="black"></path> <path fill-rule="evenodd" clip-rule="evenodd" d="M11 3H17C20.3137 3 23 5.68629 23 9C23 12.3137 20.3137 15 17 15H11V13H17C19.2091 13 21 11.2091 21 9C21 6.79086 19.2091 5 17 5H11V3Z" fill="black"></path> <path fill-rule="evenodd" clip-rule="evenodd" d="M7 3H13V5H12V27H13V29H7V3Z" fill="black"></path> </svg>