<svg xmlns="http://www.w3.org/2000/svg" xmlns:xlink="http://www.w3.org/1999/xlink" x="0px" y="0px" width="32px" height="32px" viewBox="0 0 32 32"><path d="m13,25h-4c-4.962,0-9-4.038-9-9S4.038,7,9,7h4v2h-4c-3.86,0-7,3.14-7,7s3.14,7,7,7h4v2Z" stroke-width="0" fill="#000"></path><path d="m23,25h-4v-2h4c3.86,0,7-3.14,7-7s-3.14-7-7-7h-4v-2h4c4.962,0,9,4.038,9,9s-4.038,9-9,9Z" stroke-width="0" fill="#000"></path><rect x="8" y="15" width="16" height="2" fill="#000" stroke-width="0" data-color="color-2"></rect></svg>