<svg xmlns="http://www.w3.org/2000/svg" xmlns:xlink="http://www.w3.org/1999/xlink" x="0px" y="0px" width="32px" height="32px" viewBox="0 0 32 32"> <path fill-rule="evenodd" clip-rule="evenodd" d="M21 29H30V27H24.6156L28.0508 24.5178C29.2749 23.6333 30 22.2148 30 20.7046V20.5C30 18.0031 27.9421 16 25.4685 16C23.0294 16 21 17.9751 21 20.4375V21.4375H23V20.4375C23 19.1029 24.1106 18 25.4685 18C26.8609 18 28 19.1309 28 20.5V20.7046C28 21.5728 27.5832 22.3882 26.8794 22.8967L21 27.1451V29Z" fill="#000" data-color="color-2"></path> <path fill-rule="evenodd" clip-rule="evenodd" d="M18.741 3H15.8231V4.03287L1.25896 29H4.18048V27.961L18.741 3Z" fill="black"></path> <path fill-rule="evenodd" clip-rule="evenodd" d="M1.25896 3H4.18047V4.03904L18.741 29H15.8231V27.9671L1.25896 3Z" fill="black"></path> </svg>