<svg xmlns="http://www.w3.org/2000/svg" xmlns:xlink="http://www.w3.org/1999/xlink" x="0px" y="0px" width="48px" height="48px" viewBox="0 0 48 48"><path d="M42.5 13.5L41 10L39.5 13.5L36 15L39.5 16.5L41 20L42.5 16.5L46 15L42.5 13.5Z" fill="#000" data-color="color-2"></path> <path d="M9.9 8.1L9 6L8.1 8.1L6 9L8.1 9.9L9 12L9.9 9.9L12 9L9.9 8.1Z" fill="#000" data-color="color-2"></path> <path fill-rule="evenodd" clip-rule="evenodd" d="M10.5 29.7141L12.8052 35.1948L18.2859 37.5L12.8052 39.8052L10.5 45.2859L8.1948 39.8052L2.71411 37.5L8.1948 35.1948L10.5 29.7141Z" fill="#000" data-color="color-2"></path> <path fill-rule="evenodd" clip-rule="evenodd" d="M25.5445 4H24H22.4555L12.8468 30H31.9703L36.0003 40.8866V43H39.9816L25.5445 4ZM30.8597 27H17.1538L24.0011 8.47214L30.8597 27Z" fill="black"></path></svg>