<svg xmlns="http://www.w3.org/2000/svg" xmlns:xlink="http://www.w3.org/1999/xlink" x="0px" y="0px" width="18px" height="18px" viewBox="0 0 18 18"><path d="m9,16.25c4.004,0,7.25-3.246,7.25-7.25S13.004,1.75,9,1.75,1.75,4.996,1.75,9s3.246,7.25,7.25,7.25Z" fill="#000" opacity=".3" stroke-width="0" data-color="color-2"></path><path d="m9,1.75c4.004,0,7.25,3.246,7.25,7.25s-3.246,7.25-7.25,7.25" fill="none" stroke="#000" stroke-linecap="round" stroke-linejoin="round" stroke-width="1.5"></path><circle cx="3.873" cy="14.127" r=".75" stroke-width="0" fill="#000"></circle><circle cx="1.75" cy="9" r=".75" stroke-width="0" fill="#000"></circle><circle cx="3.873" cy="3.873" r=".75" stroke-width="0" fill="#000"></circle><circle cx="6.226" cy="15.698" r=".75" stroke-width="0" fill="#000"></circle><circle cx="2.302" cy="11.774" r=".75" stroke-width="0" fill="#000"></circle><circle cx="2.302" cy="6.226" r=".75" stroke-width="0" fill="#000"></circle><circle cx="6.226" cy="2.302" r=".75" stroke-width="0" fill="#000"></circle><path d="m9,8v4.25" fill="none" stroke="#000" stroke-linecap="round" stroke-linejoin="round" stroke-width="1.5"></path><path d="m5.75,10.25v2" fill="none" stroke="#000" stroke-linecap="round" stroke-linejoin="round" stroke-width="1.5"></path><path d="m12.25,5.75v6.5" fill="none" stroke="#000" stroke-linecap="round" stroke-linejoin="round" stroke-width="1.5"></path></svg>