<svg xmlns="http://www.w3.org/2000/svg" xmlns:xlink="http://www.w3.org/1999/xlink" x="0px" y="0px" width="18px" height="18px" viewBox="0 0 18 18"><path opacity="0.3" fill-rule="evenodd" clip-rule="evenodd" d="M9.507 3.25C9.637 5.619 11.599 7.5 14 7.5C14.084 7.5 14.167 7.498 14.25 7.493V13.75C14.25 14.855 13.355 15.75 12.25 15.75H3.75C2.645 15.75 1.75 14.855 1.75 13.75V5.25C1.75 4.145 2.645 3.25 3.75 3.25H9.507Z" fill="#000" data-color="color-2" data-stroke="none"></path> <path d="M4.75 8.5V12.75" stroke="black" stroke-width="1.5" stroke-linecap="round" stroke-linejoin="round" fill="none"></path> <path d="M11.25 10.75V12.75" stroke="black" stroke-width="1.5" stroke-linecap="round" stroke-linejoin="round" fill="none"></path> <path d="M8 6.25V12.75" stroke="black" stroke-width="1.5" stroke-linecap="round" stroke-linejoin="round" fill="none"></path> <path d="M14 5.25C15.243 5.25 16.25 4.243 16.25 3C16.25 1.757 15.243 0.75 14 0.75C12.757 0.75 11.75 1.757 11.75 3C11.75 4.243 12.757 5.25 14 5.25Z" stroke="black" stroke-width="1.5" stroke-linecap="round" stroke-linejoin="round" fill="none"></path> <path d="M15.59 4.59L17.25 6.25" stroke="black" stroke-width="1.5" stroke-linecap="round" stroke-linejoin="round" fill="none"></path> <path d="M8.7753 3.25H3.75C2.645 3.25 1.75 4.145 1.75 5.25V13.75C1.75 14.855 2.645 15.75 3.75 15.75H12.25C13.355 15.75 14.25 14.855 14.25 13.75V8.23579" stroke="black" stroke-width="1.5" stroke-linecap="round" stroke-linejoin="round" fill="none"></path></svg>