<svg xmlns="http://www.w3.org/2000/svg" xmlns:xlink="http://www.w3.org/1999/xlink" x="0px" y="0px" width="18px" height="18px" viewBox="0 0 18 18"><path opacity="0.3" d="M6.3438 6.2812L9.1563 9.1718L12.8022 5.5822L12.802 5.57339C11.9587 3.61829 10.0144 2.24989 7.75 2.24989C4.7125 2.24989 2.25 4.71229 2.25 7.74989C2.25 8.52329 2.4112 9.25839 2.6993 9.92619L6.3438 6.2812Z" fill="#000" data-color="color-2" data-stroke="none"></path> <path d="M12.802 5.5735L9.43098 8.9435C9.29698 9.0775 9.07799 9.0775 8.94299 8.9435L6.55698 6.5575C6.42298 6.4235 6.20398 6.4235 6.06898 6.5575L2.69818 9.9263" stroke="black" stroke-width="1.5" stroke-linecap="round" stroke-linejoin="round" fill="none"></path> <path d="M15.75 15.75L11.6386 11.6386" stroke="black" stroke-width="1.5" stroke-linecap="round" stroke-linejoin="round" fill="none"></path> <path d="M12.802 5.5735C11.9587 3.6185 10.0144 2.25 7.75 2.25C4.7125 2.25 2.25 4.7125 2.25 7.75C2.25 10.7875 4.7125 13.25 7.75 13.25C10.0867 13.25 12.0831 11.7927 12.8799 9.7375" stroke="black" stroke-width="1.5" stroke-linecap="round" stroke-linejoin="round" fill="none"></path></svg>