<svg xmlns="http://www.w3.org/2000/svg" xmlns:xlink="http://www.w3.org/1999/xlink" x="0px" y="0px" width="18px" height="18px" viewBox="0 0 18 18"><path opacity="0.3" d="M9 16.25C13.004 16.25 16.25 13.0041 16.25 9C16.25 4.9959 13.004 1.75 9 1.75C4.996 1.75 1.75 4.9959 1.75 9C1.75 13.0041 4.996 16.25 9 16.25Z" fill="#000" data-color="color-2" data-stroke="none"></path> <path d="M7.24989 16.0377C4.09159 15.2547 1.75 12.4008 1.75 9C1.75 5.5992 4.09159 2.7453 7.24989 1.9623" stroke="black" stroke-width="1.5" stroke-linecap="round" stroke-linejoin="round" fill="none"></path> <path d="M10.75 1.9623C13.348 2.6062 15.3938 4.6512 16.0378 7.25" stroke="black" stroke-width="1.5" stroke-linecap="round" stroke-linejoin="round" fill="none"></path> <path d="M10.7491 16.038C13.3476 15.3944 15.394 13.349 16.0379 10.7498" stroke="black" stroke-width="1.5" stroke-linecap="round" stroke-linejoin="round" fill="none"></path></svg>