<svg xmlns="http://www.w3.org/2000/svg" xmlns:xlink="http://www.w3.org/1999/xlink" x="0px" y="0px" width="18px" height="18px" viewBox="0 0 18 18"><path d="M9.25 2.75H8.75C8.19772 2.75 7.75 3.19772 7.75 3.75V14.25C7.75 14.8023 8.19772 15.25 8.75 15.25H9.25C9.80228 15.25 10.25 14.8023 10.25 14.25V3.75C10.25 3.19772 9.80228 2.75 9.25 2.75Z" fill="#000" fill-opacity="0.3" data-color="color-2" data-stroke="none"></path> <path d="M3.75 2.75H3.25C2.69772 2.75 2.25 3.19772 2.25 3.75V9.25C2.25 9.80228 2.69772 10.25 3.25 10.25H3.75C4.30228 10.25 4.75 9.80228 4.75 9.25V3.75C4.75 3.19772 4.30228 2.75 3.75 2.75Z" fill="#000" fill-opacity="0.3" data-color="color-2" data-stroke="none"></path> <path d="M14.75 2.75H14.25C13.6977 2.75 13.25 3.19772 13.25 3.75V6.25C13.25 6.80228 13.6977 7.25 14.25 7.25H14.75C15.3023 7.25 15.75 6.80228 15.75 6.25V3.75C15.75 3.19772 15.3023 2.75 14.75 2.75Z" fill="#000" fill-opacity="0.3" data-color="color-2" data-stroke="none"></path> <path d="M9.25 2.75H8.75C8.19772 2.75 7.75 3.19772 7.75 3.75V14.25C7.75 14.8023 8.19772 15.25 8.75 15.25H9.25C9.80228 15.25 10.25 14.8023 10.25 14.25V3.75C10.25 3.19772 9.80228 2.75 9.25 2.75Z" stroke="black" stroke-width="1.5" stroke-linecap="round" stroke-linejoin="round" fill="none"></path> <path d="M3.75 2.75H3.25C2.69772 2.75 2.25 3.19772 2.25 3.75V9.25C2.25 9.80228 2.69772 10.25 3.25 10.25H3.75C4.30228 10.25 4.75 9.80228 4.75 9.25V3.75C4.75 3.19772 4.30228 2.75 3.75 2.75Z" stroke="black" stroke-width="1.5" stroke-linecap="round" stroke-linejoin="round" fill="none"></path> <path d="M14.75 2.75H14.25C13.6977 2.75 13.25 3.19772 13.25 3.75V6.25C13.25 6.80228 13.6977 7.25 14.25 7.25H14.75C15.3023 7.25 15.75 6.80228 15.75 6.25V3.75C15.75 3.19772 15.3023 2.75 14.75 2.75Z" stroke="black" stroke-width="1.5" stroke-linecap="round" stroke-linejoin="round" fill="none"></path></svg>