<svg xmlns="http://www.w3.org/2000/svg" xmlns:xlink="http://www.w3.org/1999/xlink" x="0px" y="0px" width="18px" height="18px" viewBox="0 0 18 18"><path fill-rule="evenodd" clip-rule="evenodd" d="M10 3.25H4.25C3.14543 3.25 2.25 4.14543 2.25 5.25V13.75C2.25 14.8546 3.14543 15.75 4.25 15.75H12.75C13.8546 15.75 14.75 14.8546 14.75 13.75V8C13.5074 8 12.5 6.99264 12.5 5.75V5.5H12.25C11.0074 5.5 10 4.49264 10 3.25Z" fill="#000" fill-opacity="0.3" data-color="color-2" data-stroke="none"></path> <path d="M5.25 8.5V12.75" stroke="black" stroke-width="1.5" stroke-linecap="round" stroke-linejoin="round" fill="none"></path> <path d="M11.75 10.75V12.75" stroke="black" stroke-width="1.5" stroke-linecap="round" stroke-linejoin="round" fill="none"></path> <path d="M8.5 6.25V12.75" stroke="black" stroke-width="1.5" stroke-linecap="round" stroke-linejoin="round" fill="none"></path> <path d="M14.75 8.75V13.75C14.75 14.855 13.855 15.75 12.75 15.75H4.25C3.145 15.75 2.25 14.855 2.25 13.75V5.25C2.25 4.145 3.145 3.25 4.25 3.25H9.25" stroke="black" stroke-width="1.5" stroke-linecap="round" stroke-linejoin="round" fill="none"></path> <path d="M14.75 0.75V5.75" stroke="black" stroke-width="1.5" stroke-linecap="round" stroke-linejoin="round" fill="none"></path> <path d="M17.25 3.25H12.25" stroke="black" stroke-width="1.5" stroke-linecap="round" stroke-linejoin="round" fill="none"></path></svg>