<svg xmlns="http://www.w3.org/2000/svg" xmlns:xlink="http://www.w3.org/1999/xlink" x="0px" y="0px" width="24px" height="24px" viewBox="0 0 24 24"><line x1="8" y1="5.071" x2="12" y2="12" fill="none" stroke="#000" stroke-miterlimit="10" stroke-width="2" data-color="color-2" data-cap="butt"></line><line x1="8" y1="18.929" x2="12" y2="12" fill="none" stroke="#000" stroke-miterlimit="10" stroke-width="2" data-color="color-2" data-cap="butt"></line><line x1="20" y1="12" x2="12" y2="12" fill="none" stroke="#000" stroke-miterlimit="10" stroke-width="2" data-color="color-2" data-cap="butt"></line><circle cx="12" cy="12" r="8" fill="none" stroke="#000" stroke-linecap="square" stroke-miterlimit="10" stroke-width="2"></circle><line x1="12" y1="2" x2="12" y2="4" fill="none" stroke="#000" stroke-linecap="square" stroke-miterlimit="10" stroke-width="2"></line><line x1="7" y1="3.34" x2="8" y2="5.072" fill="none" stroke="#000" stroke-linecap="square" stroke-miterlimit="10" stroke-width="2"></line><line x1="3.34" y1="7" x2="5.072" y2="8" fill="none" stroke="#000" stroke-linecap="square" stroke-miterlimit="10" stroke-width="2"></line><line x1="2" y1="12" x2="4" y2="12" fill="none" stroke="#000" stroke-linecap="square" stroke-miterlimit="10" stroke-width="2"></line><line x1="3.34" y1="17" x2="5.072" y2="16" fill="none" stroke="#000" stroke-linecap="square" stroke-miterlimit="10" stroke-width="2"></line><line x1="7" y1="20.66" x2="8" y2="18.928" fill="none" stroke="#000" stroke-linecap="square" stroke-miterlimit="10" stroke-width="2"></line><line x1="12" y1="22" x2="12" y2="20" fill="none" stroke="#000" stroke-linecap="square" stroke-miterlimit="10" stroke-width="2"></line><line x1="17" y1="20.66" x2="16" y2="18.928" fill="none" stroke="#000" stroke-linecap="square" stroke-miterlimit="10" stroke-width="2"></line><line x1="20.66" y1="17" x2="18.928" y2="16" fill="none" stroke="#000" stroke-linecap="square" stroke-miterlimit="10" stroke-width="2"></line><line x1="22" y1="12" x2="20" y2="12" fill="none" stroke="#000" stroke-linecap="square" stroke-miterlimit="10" stroke-width="2"></line><line x1="20.66" y1="7" x2="18.928" y2="8" fill="none" stroke="#000" stroke-linecap="square" stroke-miterlimit="10" stroke-width="2"></line><line x1="17" y1="3.34" x2="16" y2="5.072" fill="none" stroke="#000" stroke-linecap="square" stroke-miterlimit="10" stroke-width="2"></line></svg>