<svg xmlns="http://www.w3.org/2000/svg" xmlns:xlink="http://www.w3.org/1999/xlink" x="0px" y="0px" width="32px" height="32px" viewBox="0 0 32 32"><path d="M9 23L6 23C4.34315 23 3 21.6569 3 20L3 19" stroke="#000" stroke-width="2" stroke-miterlimit="10" stroke-linecap="square" data-color="color-2" fill="none"></path> <path d="M23 9L23 6C23 4.34315 21.6569 3 20 3L19 3" stroke="#000" stroke-width="2" stroke-miterlimit="10" stroke-linecap="square" data-color="color-2" fill="none"></path> <path d="M3 11L3 13L3 15" stroke="#000" stroke-width="2" stroke-miterlimit="10" stroke-linecap="square" data-color="color-2" fill="none"></path> <path d="M26 9L12 9C10.3431 9 9 10.3431 9 12L9 26C9 27.6569 10.3431 29 12 29L26 29C27.6569 29 29 27.6569 29 26L29 12C29 10.3431 27.6569 9 26 9Z" stroke="black" stroke-width="2" stroke-miterlimit="10" stroke-linecap="square" fill="none"></path> <path d="M7 3L6 3C4.34315 3 3 4.34315 3 6L3 7" stroke="#000" stroke-width="2" stroke-miterlimit="10" stroke-linecap="square" data-color="color-2" fill="none"></path> <path d="M15 3L13 3L11 3" stroke="#000" stroke-width="2" stroke-miterlimit="10" stroke-linecap="square" data-color="color-2" fill="none"></path></svg>