<svg xmlns="http://www.w3.org/2000/svg" xmlns:xlink="http://www.w3.org/1999/xlink" x="0px" y="0px" width="32px" height="32px" viewBox="0 0 32 32"><path d="M29 20L3 20L3 29L29 29L29 20Z" stroke="#000" stroke-width="2" stroke-miterlimit="10" stroke-linecap="square" data-color="color-2" fill="none"></path> <circle cx="3.5" cy="3.5" r="1.5" fill="black" data-stroke="none" data-cap="butt"></circle> <circle cx="3.5" cy="9.5" r="1.5" fill="black" data-stroke="none" data-cap="butt"></circle> <circle cx="28.5" cy="9.5" r="1.5" fill="black" data-stroke="none" data-cap="butt"></circle> <circle cx="3.5" cy="15.5" r="1.5" fill="black" data-stroke="none" data-cap="butt"></circle> <circle cx="28.5" cy="15.5" r="1.5" fill="black" data-stroke="none" data-cap="butt"></circle> <circle cx="9.75" cy="3.5" r="1.5" fill="black" data-stroke="none" data-cap="butt"></circle> <path d="M17.5 3.5C17.5 4.32843 16.8284 5 16 5C15.1716 5 14.5 4.32843 14.5 3.5C14.5 2.67157 15.1716 2 16 2C16.8284 2 17.5 2.67157 17.5 3.5Z" fill="black" data-stroke="none" data-cap="butt"></path> <circle cx="22.25" cy="3.5" r="1.5" fill="black" data-stroke="none" data-cap="butt"></circle> <circle cx="28.5" cy="3.5" r="1.5" fill="black" data-stroke="none" data-cap="butt"></circle></svg>