<svg xmlns="http://www.w3.org/2000/svg" xmlns:xlink="http://www.w3.org/1999/xlink" x="0px" y="0px" width="32px" height="32px" viewBox="0 0 32 32"><path d="M21 8L21.5 8C22.3284 8 23 8.67157 23 9.5V21.5C23 22.3284 22.3284 23 21.5 23H9.5C8.67157 23 8 22.3284 8 21.5V21" stroke="black" stroke-width="2" stroke-miterlimit="10" stroke-linecap="square" fill="none"></path> <path d="M26 13L26.5 13C27.3284 13 28 13.6716 28 14.5V26.5C28 27.3284 27.3284 28 26.5 28H14.5C13.6716 28 13 27.3284 13 26.5V26" stroke="black" stroke-width="2" stroke-miterlimit="10" stroke-linecap="square" fill="none"></path> <path d="M16.5 3L4.5 3C3.67157 3 3 3.67157 3 4.5L3 16.5C3 17.3284 3.67157 18 4.5 18H16.5C17.3284 18 18 17.3284 18 16.5V4.5C18 3.67157 17.3284 3 16.5 3Z" stroke="#000" stroke-width="2" stroke-miterlimit="10" stroke-linecap="square" data-color="color-2" fill="none"></path></svg>