<svg xmlns="http://www.w3.org/2000/svg" xmlns:xlink="http://www.w3.org/1999/xlink" x="0px" y="0px" width="32px" height="32px" viewBox="0 0 32 32"><path d="M3 12L29 12L29 3L3 3L3 12Z" stroke="#000" stroke-width="2" stroke-miterlimit="10" stroke-linecap="square" data-color="color-2" fill="none"></path> <circle cx="28.5" cy="28.5" r="1.5" transform="rotate(-180 28.5 28.5)" fill="black" data-stroke="none" data-cap="butt"></circle> <circle cx="28.5" cy="22.5" r="1.5" transform="rotate(-180 28.5 22.5)" fill="black" data-stroke="none" data-cap="butt"></circle> <circle cx="3.5" cy="22.5" r="1.5" transform="rotate(-180 3.5 22.5)" fill="black" data-stroke="none" data-cap="butt"></circle> <circle cx="28.5" cy="16.5" r="1.5" transform="rotate(-180 28.5 16.5)" fill="black" data-stroke="none" data-cap="butt"></circle> <circle cx="3.5" cy="16.5" r="1.5" transform="rotate(-180 3.5 16.5)" fill="black" data-stroke="none" data-cap="butt"></circle> <circle cx="22.25" cy="28.5" r="1.5" transform="rotate(-180 22.25 28.5)" fill="black" data-stroke="none" data-cap="butt"></circle> <path d="M14.5 28.5C14.5 27.6716 15.1716 27 16 27C16.8284 27 17.5 27.6716 17.5 28.5C17.5 29.3284 16.8284 30 16 30C15.1716 30 14.5 29.3284 14.5 28.5Z" fill="black" data-stroke="none" data-cap="butt"></path> <circle cx="9.75" cy="28.5" r="1.5" transform="rotate(-180 9.75 28.5)" fill="black" data-stroke="none" data-cap="butt"></circle> <circle cx="3.5" cy="28.5" r="1.5" transform="rotate(-180 3.5 28.5)" fill="black" data-stroke="none" data-cap="butt"></circle></svg>