<svg xmlns="http://www.w3.org/2000/svg" xmlns:xlink="http://www.w3.org/1999/xlink" x="0px" y="0px" width="48px" height="48px" viewBox="0 0 48 48"><path d="M15 33L15 38C15 40.7614 17.2386 43 20 43L38 43C40.7614 43 43 40.7614 43 38L43 20C43 17.2386 40.7614 15 38 15L33 15" stroke="#000" stroke-width="2" stroke-miterlimit="10" stroke-linecap="square" data-color="color-2" fill="none"></path> <path d="M10 33L28 33C30.7614 33 33 30.7614 33 28L33 10C33 7.23857 30.7614 5 28 5L10 5C7.23858 5 5 7.23857 5 10L5 28C5 30.7614 7.23857 33 10 33Z" stroke="black" stroke-width="2" stroke-miterlimit="10" stroke-linecap="square" fill="none"></path></svg>