<svg xmlns="http://www.w3.org/2000/svg" xmlns:xlink="http://www.w3.org/1999/xlink" x="0px" y="0px" width="48px" height="48px" viewBox="0 0 48 48"> <path d="M13 21C17.4183 21 21 17.4183 21 13C21 8.58172 17.4183 5 13 5C8.58172 5 5 8.58172 5 13C5 17.4183 8.58172 21 13 21Z" stroke="black" stroke-width="2" stroke-miterlimit="10" stroke-linecap="square" fill="none"></path> <path d="M35 43C30.5817 43 27 39.4183 27 35C27 30.5817 30.5817 27 35 27C39.4183 27 43 30.5817 43 35C43 39.4183 39.4183 43 35 43Z" stroke="#000" stroke-width="2" stroke-miterlimit="10" stroke-linecap="square" data-color="color-2" fill="none"></path> <path d="M5 13C5 8.58172 8.58172 5 13 5H35C39.4183 5 43 8.58172 43 13C43 17.4183 39.4183 21 35 21H13C8.58172 21 5 17.4183 5 13Z" stroke="black" stroke-width="2" fill="none" data-cap="butt"></path> <path d="M43 35C43 30.5817 39.4183 27 35 27H13C8.58172 27 5 30.5817 5 35C5 39.4183 8.58172 43 13 43H35C39.4183 43 43 39.4183 43 35Z" stroke="#000" stroke-width="2" data-color="color-2" fill="none" data-cap="butt"></path> </svg>