<svg xmlns="http://www.w3.org/2000/svg" xmlns:xlink="http://www.w3.org/1999/xlink" x="0px" y="0px" width="48px" height="48px" viewBox="0 0 48 48"> <path d="M24 5V10" stroke="#000" stroke-width="2" stroke-miterlimit="10" stroke-linecap="square" data-color="color-2" fill="none"></path> <path d="M24 26V43" stroke="#000" stroke-width="2" stroke-miterlimit="10" stroke-linecap="square" data-color="color-2" fill="none"></path> <path d="M24 21C27.0376 21 29.5 18.5376 29.5 15.5C29.5 12.4624 27.0376 10 24 10C20.9624 10 18.5 12.4624 18.5 15.5C18.5 18.5376 20.9624 21 24 21Z" stroke="#000" stroke-width="2" stroke-miterlimit="10" stroke-linecap="square" data-color="color-2" fill="none"></path> <path d="M39 38V43" stroke="black" stroke-width="2" stroke-miterlimit="10" stroke-linecap="square" fill="none"></path> <path d="M9 38V43" stroke="black" stroke-width="2" stroke-miterlimit="10" stroke-linecap="square" fill="none"></path> <path d="M39 5V22" stroke="black" stroke-width="2" stroke-miterlimit="10" stroke-linecap="square" fill="none"></path> <path d="M9 5V22" stroke="black" stroke-width="2" stroke-miterlimit="10" stroke-linecap="square" fill="none"></path> <path d="M39 38C42.0376 38 44.5 35.5376 44.5 32.5C44.5 29.4624 42.0376 27 39 27C35.9624 27 33.5 29.4624 33.5 32.5C33.5 35.5376 35.9624 38 39 38Z" stroke="black" stroke-width="2" stroke-miterlimit="10" stroke-linecap="square" fill="none"></path> <path d="M9 38C12.0376 38 14.5 35.5376 14.5 32.5C14.5 29.4624 12.0376 27 9 27C5.96243 27 3.5 29.4624 3.5 32.5C3.5 35.5376 5.96243 38 9 38Z" stroke="black" stroke-width="2" stroke-miterlimit="10" stroke-linecap="square" fill="none"></path> </svg>