<svg xmlns="http://www.w3.org/2000/svg" xmlns:xlink="http://www.w3.org/1999/xlink" x="0px" y="0px" width="48px" height="48px" viewBox="0 0 48 48"><path d="M21 38L43 38" stroke="black" stroke-width="2" stroke-miterlimit="10" stroke-linecap="square" fill="none"></path> <path d="M21 24L43 24" stroke="#000" stroke-width="2" stroke-miterlimit="10" stroke-linecap="square" data-color="color-2" fill="none"></path> <path d="M21 10L43 10" stroke="black" stroke-width="2" stroke-miterlimit="10" stroke-linecap="square" fill="none"></path> <path d="M9.5 14.5C11.9853 14.5 14 12.4853 14 10C14 7.51472 11.9853 5.5 9.5 5.5C7.01472 5.5 5 7.51472 5 10C5 12.4853 7.01472 14.5 9.5 14.5Z" stroke="black" stroke-width="2" stroke-miterlimit="10" stroke-linecap="square" fill="none"></path> <path d="M9.5 28.5C11.9853 28.5 14 26.4853 14 24C14 21.5147 11.9853 19.5 9.5 19.5C7.01472 19.5 5 21.5147 5 24C5 26.4853 7.01472 28.5 9.5 28.5Z" stroke="#000" stroke-width="2" stroke-miterlimit="10" stroke-linecap="square" data-color="color-2" fill="none"></path> <path d="M9.5 42.5C11.9853 42.5 14 40.4853 14 38C14 35.5147 11.9853 33.5 9.5 33.5C7.01472 33.5 5 35.5147 5 38C5 40.4853 7.01472 42.5 9.5 42.5Z" stroke="black" stroke-width="2" stroke-miterlimit="10" stroke-linecap="square" fill="none"></path></svg>