<svg xmlns="http://www.w3.org/2000/svg" xmlns:xlink="http://www.w3.org/1999/xlink" x="0px" y="0px" width="48px" height="48px" viewBox="0 0 48 48"> <path d="M9 16.5L10.6737 40.35C10.8575 42.9692 13.0358 45 15.6614 45H32.3386C34.9642 45 37.1425 42.9692 37.3263 40.35L39 16.5" stroke="black" stroke-width="2" stroke-linecap="square" fill="none"></path> <path d="M18 9V5.5C18 4.11929 19.1193 3 20.5 3H27.5C28.8807 3 30 4.11929 30 5.5V9" stroke="black" stroke-width="2" stroke-linecap="square" fill="none"></path> <path d="M39 9H9C6.79086 9 5 10.7909 5 13V16H43V13C43 10.7909 41.2091 9 39 9Z" stroke="black" stroke-width="2" stroke-miterlimit="10" stroke-linecap="square" fill="none"></path> <path d="M24 22V39" stroke="#000" stroke-width="2" stroke-miterlimit="10" stroke-linecap="square" data-color="color-2" fill="none"></path> <path d="M16.5 22L17.5 39" stroke="#000" stroke-width="2" stroke-miterlimit="10" stroke-linecap="square" data-color="color-2" fill="none"></path> <path d="M31.5 22L30.5 39" stroke="#000" stroke-width="2" stroke-miterlimit="10" stroke-linecap="square" data-color="color-2" fill="none"></path> </svg>