<svg xmlns="http://www.w3.org/2000/svg" xmlns:xlink="http://www.w3.org/1999/xlink" x="0px" y="0px" width="48px" height="48px" viewBox="0 0 48 48"> <path d="M45 34L45 5L3 5L3 34L45 34Z" stroke="black" stroke-width="2" stroke-miterlimit="10" stroke-linecap="square" fill="none"></path> <path d="M24 43C24.8284 43 25.5 42.3284 25.5 41.5C25.5 40.6716 24.8284 40 24 40C23.1716 40 22.5 40.6716 22.5 41.5C22.5 42.3284 23.1716 43 24 43Z" fill="#000" stroke="#000" stroke-width="2" stroke-miterlimit="10" stroke-linecap="square" data-color="color-2"></path> <path d="M36 43C36.8284 43 37.5 42.3284 37.5 41.5C37.5 40.6716 36.8284 40 36 40C35.1716 40 34.5 40.6716 34.5 41.5C34.5 42.3284 35.1716 43 36 43Z" fill="#000" stroke="#000" stroke-width="2" stroke-miterlimit="10" stroke-linecap="square" data-color="color-2"></path> <path d="M12 43C12.8284 43 13.5 42.3284 13.5 41.5C13.5 40.6716 12.8284 40 12 40C11.1716 40 10.5 40.6716 10.5 41.5C10.5 42.3284 11.1716 43 12 43Z" fill="#000" stroke="#000" stroke-width="2" stroke-miterlimit="10" stroke-linecap="square" data-color="color-2"></path> </svg>