<svg xmlns="http://www.w3.org/2000/svg" xmlns:xlink="http://www.w3.org/1999/xlink" x="0px" y="0px" width="24px" height="24px" viewBox="0 0 24 24"> <path fill-rule="evenodd" clip-rule="evenodd" d="M11 13L11 1L13 1L13 13L11 13Z" fill="#000" data-color="color-2"></path> <path fill-rule="evenodd" clip-rule="evenodd" d="M11 23L11 15L13 15L13 23L11 23Z" fill="#000" data-color="color-2"></path> <path fill-rule="evenodd" clip-rule="evenodd" d="M21.5 13L2.5 13L2.5 11L21.5 11L21.5 13Z" fill="black"></path> <path fill-rule="evenodd" clip-rule="evenodd" d="M8.41431 7.50003L3.9143 12L8.41431 16.5L7.00009 17.9142L1.08588 12L7.00009 6.08582L8.41431 7.50003Z" fill="black"></path> <path fill-rule="evenodd" clip-rule="evenodd" d="M16.9999 17.9142L22.9141 12L16.9999 6.08582L15.5857 7.50003L20.0857 12L15.5857 16.5L16.9999 17.9142Z" fill="black"></path> </svg>