<svg xmlns="http://www.w3.org/2000/svg" xmlns:xlink="http://www.w3.org/1999/xlink" x="0px" y="0px" width="24px" height="24px" viewBox="0 0 24 24"> <path fill-rule="evenodd" clip-rule="evenodd" d="M3 15H8V17H16V15H21V18C21 19.6569 19.6569 21 18 21H17H7H6C4.34315 21 3 19.6569 3 18V15Z" fill="black"></path> <path fill-rule="evenodd" clip-rule="evenodd" d="M5 22C3.34315 22 2 20.6569 2 19L2 5C2 3.34315 3.34315 2 5 2L7 2L7 4L5 4C4.44771 4 4 4.44772 4 5L4 19C4 19.5523 4.44772 20 5 20L19 20C19.5523 20 20 19.5523 20 19L20 5C20 4.44771 19.5523 4 19 4L17 4L17 2L19 2C20.6569 2 22 3.34314 22 5L22 19C22 20.6569 20.6569 22 19 22L5 22Z" fill="black"></path> <path fill-rule="evenodd" clip-rule="evenodd" d="M13 12V3H11V12H13Z" fill="#000" data-color="color-2"></path> <path fill-rule="evenodd" clip-rule="evenodd" d="M8.49991 7.91418L11.9999 4.41418L15.4999 7.91418L16.9141 6.49997L11.9999 1.58576L7.08569 6.49997L8.49991 7.91418Z" fill="#000" data-color="color-2"></path> </svg>