<svg xmlns="http://www.w3.org/2000/svg" xmlns:xlink="http://www.w3.org/1999/xlink" x="0px" y="0px" width="24px" height="24px" viewBox="0 0 24 24"> <path fill-rule="evenodd" clip-rule="evenodd" d="M11 9L11 2L13 2L13 9L11 9Z" fill="black"></path> <path fill-rule="evenodd" clip-rule="evenodd" d="M11 15L11 22L13 22L13 15L11 15Z" fill="black"></path> <path fill-rule="evenodd" clip-rule="evenodd" d="M16.5962 5.18189L11.9999 0.585757L7.4038 5.18193L8.81802 6.59613L11.9999 3.41417L15.182 6.59613L16.5962 5.18189Z" fill="black"></path> <path fill-rule="evenodd" clip-rule="evenodd" d="M16.5962 18.8181L11.9999 23.4142L7.4038 18.8181L8.81802 17.4039L11.9999 20.5858L15.182 17.4039L16.5962 18.8181Z" fill="black"></path> <path fill-rule="evenodd" clip-rule="evenodd" d="M15 11L21.9999 11L21.9999 13L15 13L15 11Z" fill="#000" data-color="color-2"></path> <path fill-rule="evenodd" clip-rule="evenodd" d="M9 11L1.99992 11L1.99992 13L9 13V11Z" fill="#000" data-color="color-2"></path> <path fill-rule="evenodd" clip-rule="evenodd" d="M18.818 16.5962L23.4142 11.9999L18.818 7.4038L17.4038 8.81802L20.5858 11.9999L17.4038 15.182L18.818 16.5962Z" fill="#000" data-color="color-2"></path> <path fill-rule="evenodd" clip-rule="evenodd" d="M5.18196 16.5962L0.585818 11.9999L5.18199 7.4038L6.59619 8.81802L3.41423 11.9999L6.59619 15.182L5.18196 16.5962Z" fill="#000" data-color="color-2"></path> </svg>