<svg xmlns="http://www.w3.org/2000/svg" xmlns:xlink="http://www.w3.org/1999/xlink" x="0px" y="0px" width="24px" height="24px" viewBox="0 0 24 24"> <path fill-rule="evenodd" clip-rule="evenodd" d="M18 14C15.2386 14 13 16.2386 13 19V20H11V19C11 15.134 14.134 12 18 12H21V14H18Z" fill="#000" data-color="color-2"></path> <path fill-rule="evenodd" clip-rule="evenodd" d="M6 14C8.76142 14 11 16.2386 11 19V20H13V19C13 15.134 9.86599 12 6 12H3V14H6Z" fill="#000" data-color="color-2"></path> <path fill-rule="evenodd" clip-rule="evenodd" d="M13 3V22H11V3H13Z" fill="black"></path> <path fill-rule="evenodd" clip-rule="evenodd" d="M9.00015 7.46231L12.0001 4.46231L15.0001 7.46231L16.4143 6.04811L12.0002 1.63387L7.58594 6.0481L9.00015 7.46231Z" fill="black"></path> <path fill-rule="evenodd" clip-rule="evenodd" d="M17.5858 10L20.5858 13L17.5858 16L19 17.4142L23.4142 13L19 8.58582L17.5858 10Z" fill="#000" data-color="color-2"></path> <path fill-rule="evenodd" clip-rule="evenodd" d="M6.41421 10L3.41421 13L6.41421 16L5 17.4142L0.585786 13L5 8.58582L6.41421 10Z" fill="#000" data-color="color-2"></path> </svg>