<svg xmlns="http://www.w3.org/2000/svg" xmlns:xlink="http://www.w3.org/1999/xlink" x="0px" y="0px" width="24px" height="24px" viewBox="0 0 24 24"> <path fill-rule="evenodd" clip-rule="evenodd" d="M5 20L19 20C19.5523 20 20 19.5523 20 19L20 14L22 14L22 19C22 20.6569 20.6569 22 19 22L5 22C3.34315 22 2 20.6569 2 19L2 9C2 7.34314 3.34315 6 5 6L21 6L21 8L5 8C4.44772 8 4 8.44771 4 9L4 19C4 19.5523 4.44772 20 5 20Z" fill="#000" data-color="color-2"></path> <path fill-rule="evenodd" clip-rule="evenodd" d="M14.5858 12L19.5858 6.99997L14.5858 1.99997L16 0.585758L22.4142 6.99997L16 13.4142L14.5858 12Z" fill="black"></path> </svg>