<svg xmlns="http://www.w3.org/2000/svg" xmlns:xlink="http://www.w3.org/1999/xlink" x="0px" y="0px" width="24px" height="24px" viewBox="0 0 24 24"> <path fill-rule="evenodd" clip-rule="evenodd" d="M14.0857 8.49997L17.9999 4.58576L19.4141 5.99997L15.4999 9.91418L14.0857 8.49997Z" fill="#000" data-color="color-2"></path> <path fill-rule="evenodd" clip-rule="evenodd" d="M14.0857 15.5L17.9999 19.4142L19.4141 18L15.4999 14.0858L14.0857 15.5Z" fill="black"></path> <path fill-rule="evenodd" clip-rule="evenodd" d="M8.50009 9.91418L4.58588 5.99997L6.00009 4.58576L9.91431 8.49997L8.50009 9.91418Z" fill="black"></path> <path fill-rule="evenodd" clip-rule="evenodd" d="M8.50009 14.0858L4.58588 18L6.00009 19.4142L9.91431 15.5L8.50009 14.0858Z" fill="#000" data-color="color-2"></path> <path d="M22 10L14 1.99997L22 2.00007L22 10Z" fill="#000" data-color="color-2"></path> <path d="M1.99998 10L9.99997 1.99997L1.99995 2.00007L1.99998 10Z" fill="black"></path> <path d="M22 14L14 22L22 21.9999L22 14Z" fill="black"></path> <path d="M1.99998 14L9.99997 22L1.99995 21.9999L1.99998 14Z" fill="#000" data-color="color-2"></path> </svg>