<svg xmlns="http://www.w3.org/2000/svg" xmlns:xlink="http://www.w3.org/1999/xlink" x="0px" y="0px" width="24px" height="24px" viewBox="0 0 24 24"><path d="m17,22H4c-1.654,0-3-1.346-3-3V6c0-1.654,1.346-3,3-3h4v2h-4c-.551,0-1,.449-1,1v13c0,.551.449,1,1,1h13c.551,0,1-.449,1-1v-3h2v3c0,1.654-1.346,3-3,3Z" stroke-width="0" fill="#000"></path><path d="m24.101,9L14,.919v4.109c-5.894.341-9,3.771-9,9.972v2.759l1.768-2.119c1.33-1.595,2.927-2.509,7.232-2.627v4.067l10.101-8.081Z" fill="#000" stroke-width="0" data-color="color-2"></path></svg>