<svg xmlns="http://www.w3.org/2000/svg" xmlns:xlink="http://www.w3.org/1999/xlink" x="0px" y="0px" width="32px" height="32px" viewBox="0 0 32 32"> <path fill-rule="evenodd" clip-rule="evenodd" d="M27 8C29.2091 8 31 9.79086 31 12L31 25C31 27.2091 29.2091 29 27 29L5 29C2.79086 29 0.999999 27.2091 0.999999 25L1 12C1 9.79086 2.79086 8 5 8L13 8L13 10L5 10C3.89543 10 3 10.8954 3 12L3 25C3 26.1046 3.89543 27 5 27L27 27C28.1046 27 29 26.1046 29 25L29 12C29 10.8954 28.1046 10 27 10L19 10L19 8L27 8Z" fill="#000" data-color="color-2"></path> <path fill-rule="evenodd" clip-rule="evenodd" d="M25.4141 4.00003L20.4141 9.00003L25.4141 14L23.9999 15.4142L17.5857 9.00003L23.9999 2.58582L25.4141 4.00003Z" fill="black"></path> <path fill-rule="evenodd" clip-rule="evenodd" d="M6.58588 4.00003L11.5859 9.00003L6.58588 14L8.00009 15.4142L14.4143 9.00003L8.00009 2.58582L6.58588 4.00003Z" fill="black"></path> </svg>