<svg xmlns="http://www.w3.org/2000/svg" xmlns:xlink="http://www.w3.org/1999/xlink" x="0px" y="0px" width="32px" height="32px" viewBox="0 0 32 32"> <path fill-rule="evenodd" clip-rule="evenodd" d="M4 20L4 6C4 4.89543 4.89543 4 6 4L16 4L16 2L6 2C3.79086 2 2 3.79086 2 6L2 20C2 22.2091 3.79086 24 6 24L29 24L29 22L6 22C4.89543 22 4 21.1046 4 20Z" fill="#000" data-color="color-2"></path> <path fill-rule="evenodd" clip-rule="evenodd" d="M20.5857 16L27.5857 23L20.5857 30L21.9999 31.4142L30.4141 23L21.9999 14.5858L20.5857 16Z" fill="black"></path> </svg>