<svg xmlns="http://www.w3.org/2000/svg" xmlns:xlink="http://www.w3.org/1999/xlink" x="0px" y="0px" width="48px" height="48px" viewBox="0 0 48 48"> <path fill-rule="evenodd" clip-rule="evenodd" d="M6 22.5H43V25.5H6V22.5Z" fill="#000" data-color="color-2"></path> <path fill-rule="evenodd" clip-rule="evenodd" d="M6 8.5H23.5V11.5H6V8.5Z" fill="black"></path> <path fill-rule="evenodd" clip-rule="evenodd" d="M6 36.5H28.5V39.5H6V36.5Z" fill="black"></path> <path fill-rule="evenodd" clip-rule="evenodd" d="M36.5 15.3787L45.1213 24L36.5 32.6213L34.3787 30.5L40.8787 24L34.3787 17.5L36.5 15.3787Z" fill="#000" data-color="color-2"></path> <path fill-rule="evenodd" clip-rule="evenodd" d="M17 1.37866L25.6213 9.99998L17 18.6213L14.8787 16.5L21.3787 9.99998L14.8787 3.49998L17 1.37866Z" fill="black"></path> <path fill-rule="evenodd" clip-rule="evenodd" d="M22 29.3787L30.6213 38L22 46.6213L19.8787 44.5L26.3787 38L19.8787 31.5L22 29.3787Z" fill="black"></path> </svg>