<svg xmlns="http://www.w3.org/2000/svg" xmlns:xlink="http://www.w3.org/1999/xlink" x="0px" y="0px" width="48px" height="48px" viewBox="0 0 48 48"> <path fill-rule="evenodd" clip-rule="evenodd" d="M13 24C13 17.9249 17.9249 13 24 13C30.0751 13 35 17.9249 35 24C35 30.0751 30.0751 35 24 35C17.9249 35 13 30.0751 13 24Z" fill="#000" data-color="color-2"></path> <path fill-rule="evenodd" clip-rule="evenodd" d="M4 10C4 6.68629 6.68629 4 10 4H18V7H10C8.34315 7 7 8.34315 7 10V18H4V10Z" fill="black"></path> <path fill-rule="evenodd" clip-rule="evenodd" d="M4 38C4 41.3137 6.68629 44 10 44H18V41H10C8.34315 41 7 39.6569 7 38V30H4V38Z" fill="black"></path> <path fill-rule="evenodd" clip-rule="evenodd" d="M38 4C41.3137 4 44 6.68629 44 10L44 18L41 18L41 10C41 8.34315 39.6569 7 38 7L30 7L30 4L38 4Z" fill="black"></path> <path fill-rule="evenodd" clip-rule="evenodd" d="M38 44C41.3137 44 44 41.3137 44 38L44 30L41 30L41 38C41 39.6569 39.6569 41 38 41L30 41L30 44L38 44Z" fill="black"></path> </svg>