<svg xmlns="http://www.w3.org/2000/svg" xmlns:xlink="http://www.w3.org/1999/xlink" x="0px" y="0px" width="48px" height="48px" viewBox="0 0 48 48"> <path fill-rule="evenodd" clip-rule="evenodd" d="M7 29L7 10C7 8.34315 8.34315 7 10 7L24 7L24 4L10 4C6.6863 4 4 6.68629 4 10L4 29C4 32.3137 6.68629 35 10 35L42 35L42 32L10 32C8.34315 32 7 30.6569 7 29Z" fill="#000" data-color="color-2"></path> <path fill-rule="evenodd" clip-rule="evenodd" d="M29.8787 23.5L39.8787 33.5L29.8787 43.5L32 45.6213L44.1213 33.5L32 21.3787L29.8787 23.5Z" fill="black"></path> </svg>