<svg xmlns="http://www.w3.org/2000/svg" xmlns:xlink="http://www.w3.org/1999/xlink" x="0px" y="0px" width="48px" height="48px" viewBox="0 0 48 48"> <path fill-rule="evenodd" clip-rule="evenodd" d="M29 34L44 34L44 37L29 37L29 34Z" fill="#000" data-color="color-2"></path> <path fill-rule="evenodd" clip-rule="evenodd" d="M29 7L44 7L44 10L29 10L29 7Z" fill="#000" data-color="color-2"></path> <path fill-rule="evenodd" clip-rule="evenodd" d="M29 20.5L44 20.5L44 23.5L29 23.5L29 20.5Z" fill="#000" data-color="color-2"></path> <path fill-rule="evenodd" clip-rule="evenodd" d="M1 22C1 30.2843 7.71573 37 16 37H23V34H16C9.37258 34 4 28.6274 4 22C4 15.3726 9.37258 10 16 10H21.5V7H16C7.71573 7 1 13.7157 1 22Z" fill="black"></path> <path fill-rule="evenodd" clip-rule="evenodd" d="M15 45.6213L25.1213 35.5L15 25.3787L12.8787 27.5L20.8787 35.5L12.8787 43.5L15 45.6213Z" fill="black"></path> </svg>