<svg xmlns="http://www.w3.org/2000/svg" xmlns:xlink="http://www.w3.org/1999/xlink" x="0px" y="0px" width="48px" height="48px" viewBox="0 0 48 48"> <path fill-rule="evenodd" clip-rule="evenodd" d="M17.4999 12.0002L23.9999 3.33355L30.4999 11.9999L17.4999 12.0002Z" fill="black"></path> <path fill-rule="evenodd" clip-rule="evenodd" d="M17.4999 36L23.9999 44.6667L30.4999 36.0003L17.4999 36Z" fill="black"></path> <path fill-rule="evenodd" clip-rule="evenodd" d="M35.9998 17.5L44.6665 24.0001L36.0001 30.5L35.9998 17.5Z" fill="black"></path> <path fill-rule="evenodd" clip-rule="evenodd" d="M12 17.5L3.3333 24.0001L11.9997 30.5L12 17.5Z" fill="black"></path> <path d="M24 30.5C27.5899 30.5 30.5 27.5899 30.5 24C30.5 20.4101 27.5899 17.5 24 17.5C20.4101 17.5 17.5 20.4101 17.5 24C17.5 27.5899 20.4101 30.5 24 30.5Z" fill="#000" data-color="color-2"></path> </svg>