<svg xmlns="http://www.w3.org/2000/svg" xmlns:xlink="http://www.w3.org/1999/xlink" x="0px" y="0px" width="18px" height="18px" viewBox="0 0 18 18"><circle cx="14.25" cy="9" r=".75" fill="#000" data-color="color-2" data-stroke="none"></circle><circle cx="12.75" cy="10.5" r=".75" fill="#000" data-color="color-2" data-stroke="none"></circle><line x1="4.75" y1="8.25" x2="4.75" y2="11.25" fill="none" stroke="#000" stroke-linecap="round" stroke-linejoin="round" stroke-width="1.5" data-color="color-2"></line><line x1="6.25" y1="9.75" x2="3.25" y2="9.75" fill="none" stroke="#000" stroke-linecap="round" stroke-linejoin="round" stroke-width="1.5" data-color="color-2"></line><path d="M13.25,5.75H4.75C2.541,5.75,.75,7.541,.75,9.75s1.791,4,4,4c1.008,0,1.917-.385,2.62-1h3.259c.703,.615,1.613,1,2.62,1,2.209,0,4-1.791,4-4s-1.791-4-4-4Z" fill="none" stroke="#000" stroke-linecap="round" stroke-linejoin="round" stroke-width="1.5"></path><path d="M9,5.75v-.75c0-.966,.784-1.75,1.75-1.75h1.75c.966,0,1.75-.784,1.75-1.75h0" fill="none" stroke="#000" stroke-linecap="round" stroke-linejoin="round" stroke-width="1.5"></path></svg>