<svg xmlns="http://www.w3.org/2000/svg" xmlns:xlink="http://www.w3.org/1999/xlink" x="0px" y="0px" width="18px" height="18px" viewBox="0 0 18 18"><path d="M4.75,1.25h3.25c.552,0,1,.448,1,1V6.25H3.75V2.25c0-.552,.448-1,1-1Z" fill="none" stroke="#000" stroke-linecap="round" stroke-linejoin="round" stroke-width="1.5" data-color="color-2"></path><path d="M9,11.75h5.25v4c0,.552-.448,1-1,1h-3.25c-.552,0-1-.448-1-1v-4h0Z" fill="none" stroke="#000" stroke-linecap="round" stroke-linejoin="round" stroke-width="1.5" data-color="color-2"></path><path d="M3.75,6.25h5.25v5.5H4.75c-.552,0-1-.448-1-1V6.25h0Z" fill="none" stroke="#000" stroke-linecap="round" stroke-linejoin="round" stroke-width="1.5"></path><path d="M9,6.25h4.25c.552,0,1,.448,1,1v4.5h-5.25V6.25h0Z" fill="none" stroke="#000" stroke-linecap="round" stroke-linejoin="round" stroke-width="1.5"></path></svg>