<svg xmlns="http://www.w3.org/2000/svg" xmlns:xlink="http://www.w3.org/1999/xlink" x="0px" y="0px" width="12px" height="12px" viewBox="0 0 12 12"><path d="m10.25,12H3.25c-1.241,0-2.25-1.009-2.25-2.25,0-.414.336-.75.75-.75s.75.336.75.75.336.75.75.75h7c.414,0,.75.336.75.75s-.336.75-.75.75Z" fill="#000" stroke-width="0" data-color="color-2"></path><path d="m8.75,0H3.25C2.009,0,1,1.009,1,2.25v7.5c0,.414.336.75.75.75s.75-.336.75-.75.336-.75.75-.75h7c.414,0,.75-.336.75-.75V2.25c0-1.241-1.009-2.25-2.25-2.25Zm-1.5,5h-2.5c-.414,0-.75-.336-.75-.75s.336-.75.75-.75h2.5c.414,0,.75.336.75.75s-.336.75-.75.75Z" stroke-width="0" fill="#000"></path></svg>