<svg xmlns="http://www.w3.org/2000/svg" xmlns:xlink="http://www.w3.org/1999/xlink" x="0px" y="0px" width="18px" height="18px" viewBox="0 0 18 18"> <path d="M5.125 12.875L7.25 10.75" stroke="black" stroke-width="1.5" stroke-linecap="round" stroke-linejoin="round" fill="none"></path> <path d="M12.875 5.125L10.75 7.25" stroke="black" stroke-width="1.5" stroke-linecap="round" stroke-linejoin="round" fill="none"></path> <path d="M12.875 12.875L10.75 10.75" stroke="black" stroke-width="1.5" stroke-linecap="round" stroke-linejoin="round" fill="none"></path> <path d="M5.125 5.125L7.25 7.25" stroke="black" stroke-width="1.5" stroke-linecap="round" stroke-linejoin="round" fill="none"></path> <path d="M2.75 11.104V15C2.75 15.138 2.862 15.25 3 15.25H6.896C7.119 15.25 7.23 14.981 7.073 14.823L3.177 10.927C3.02 10.77 2.75 10.881 2.75 11.104Z" fill="#000" fill-opacity="0.3" data-color="color-2" data-stroke="none"></path> <path d="M2.75 11.104V15C2.75 15.138 2.862 15.25 3 15.25H6.896C7.119 15.25 7.23 14.981 7.073 14.823L3.177 10.927C3.02 10.77 2.75 10.881 2.75 11.104Z" stroke="black" stroke-width="1.5" stroke-linecap="round" stroke-linejoin="round" fill="none"></path> <path d="M11.104 2.75H15C15.138 2.75 15.25 2.862 15.25 3V6.896C15.25 7.119 14.981 7.23 14.823 7.073L10.927 3.177C10.77 3.02 10.881 2.75 11.104 2.75Z" fill="#000" fill-opacity="0.3" data-color="color-2" data-stroke="none"></path> <path d="M11.104 2.75H15C15.138 2.75 15.25 2.862 15.25 3V6.896C15.25 7.119 14.981 7.23 14.823 7.073L10.927 3.177C10.77 3.02 10.881 2.75 11.104 2.75Z" stroke="black" stroke-width="1.5" stroke-linecap="round" stroke-linejoin="round" fill="none"></path> <path d="M15.25 11.104V15C15.25 15.138 15.138 15.25 15 15.25H11.104C10.881 15.25 10.77 14.981 10.927 14.823L14.823 10.927C14.98 10.77 15.25 10.881 15.25 11.104Z" fill="#000" fill-opacity="0.3" data-color="color-2" data-stroke="none"></path> <path d="M15.25 11.104V15C15.25 15.138 15.138 15.25 15 15.25H11.104C10.881 15.25 10.77 14.981 10.927 14.823L14.823 10.927C14.98 10.77 15.25 10.881 15.25 11.104Z" stroke="black" stroke-width="1.5" stroke-linecap="round" stroke-linejoin="round" fill="none"></path> <path d="M6.896 2.75H3C2.862 2.75 2.75 2.862 2.75 3V6.896C2.75 7.119 3.019 7.23 3.177 7.073L7.073 3.177C7.23 3.02 7.119 2.75 6.896 2.75Z" fill="#000" fill-opacity="0.3" data-color="color-2" data-stroke="none"></path> <path d="M6.896 2.75H3C2.862 2.75 2.75 2.862 2.75 3V6.896C2.75 7.119 3.019 7.23 3.177 7.073L7.073 3.177C7.23 3.02 7.119 2.75 6.896 2.75Z" stroke="black" stroke-width="1.5" stroke-linecap="round" stroke-linejoin="round" fill="none"></path> </svg>