<svg xmlns="http://www.w3.org/2000/svg" xmlns:xlink="http://www.w3.org/1999/xlink" x="0px" y="0px" width="18px" height="18px" viewBox="0 0 18 18"><path fill-rule="evenodd" clip-rule="evenodd" d="M3.54903 12H13.8491C15.2535 11.4583 16.25 10.0955 16.25 8.5C16.25 6.764 15.065 5.318 13.464 4.891C13.278 2.577 11.362 0.75 9 0.75C6.515 0.75 4.5 2.765 4.5 5.25C4.5 5.6 4.549 5.936 4.624 6.263C3.027 6.33 1.75 7.637 1.75 9.25C1.75 10.4799 2.48996 11.5369 3.54903 12Z" fill="#000" fill-opacity="0.3" data-color="color-2" data-stroke="none"></path> <path d="M12 12.25H12.5C14.571 12.25 16.25 10.571 16.25 8.5C16.25 6.764 15.065 5.318 13.464 4.891C13.278 2.577 11.362 0.75 9 0.75C6.515 0.75 4.5 2.765 4.5 5.25C4.5 5.6 4.549 5.936 4.624 6.263C3.027 6.33 1.75 7.637 1.75 9.25C1.75 10.907 3.093 12.25 4.75 12.25H6" stroke="black" stroke-width="1.5" stroke-linecap="round" stroke-linejoin="round" fill="none"></path> <path d="M11.25 15L9 17.25L6.75 15" stroke="black" stroke-width="1.5" stroke-linecap="round" stroke-linejoin="round" fill="none"></path> <path d="M9 17.25V8.75" stroke="black" stroke-width="1.5" stroke-linecap="round" stroke-linejoin="round" fill="none"></path></svg>