<svg xmlns="http://www.w3.org/2000/svg" xmlns:xlink="http://www.w3.org/1999/xlink" x="0px" y="0px" width="18px" height="18px" viewBox="0 0 18 18"> <path d="M8.58598 3.001L6.23798 6.469C6.01298 6.801 6.25098 7.249 6.65198 7.249H11.348C11.749 7.249 11.987 6.801 11.762 6.469L9.41398 3.001C9.21598 2.708 8.78398 2.708 8.58598 3.001Z" fill="#000" fill-opacity="0.3" data-color="color-2" data-stroke="none"></path> <path d="M8.58598 3.001L6.23798 6.469C6.01298 6.801 6.25098 7.249 6.65198 7.249H11.348C11.749 7.249 11.987 6.801 11.762 6.469L9.41398 3.001C9.21598 2.708 8.78398 2.708 8.58598 3.001Z" stroke="black" stroke-width="1.5" stroke-linecap="round" stroke-linejoin="round" fill="none"></path> <path d="M8.58598 14.999L6.23798 11.531C6.01298 11.199 6.25098 10.751 6.65198 10.751H11.348C11.749 10.751 11.987 11.199 11.762 11.531L9.41398 14.999C9.21598 15.292 8.78398 15.292 8.58598 14.999Z" fill="#000" fill-opacity="0.3" data-color="color-2" data-stroke="none"></path> <path d="M8.58598 14.999L6.23798 11.531C6.01298 11.199 6.25098 10.751 6.65198 10.751H11.348C11.749 10.751 11.987 11.199 11.762 11.531L9.41398 14.999C9.21598 15.292 8.78398 15.292 8.58598 14.999Z" stroke="black" stroke-width="1.5" stroke-linecap="round" stroke-linejoin="round" fill="none"></path> </svg>