<svg xmlns="http://www.w3.org/2000/svg" xmlns:xlink="http://www.w3.org/1999/xlink" x="0px" y="0px" width="18px" height="18px" viewBox="0 0 18 18"><path d="M5.75 14.25L5.75 3.75C5.75 3.19772 5.30228 2.75 4.75 2.75H3.75C3.19772 2.75 2.75 3.19772 2.75 3.75L2.75 14.25C2.75 14.8023 3.19772 15.25 3.75 15.25H4.75C5.30228 15.25 5.75 14.8023 5.75 14.25Z" fill="#000" fill-opacity="0.3" data-color="color-2" data-stroke="none"></path> <path d="M5.75 14.25L5.75 3.75C5.75 3.19772 5.30228 2.75 4.75 2.75H3.75C3.19772 2.75 2.75 3.19772 2.75 3.75L2.75 14.25C2.75 14.8023 3.19772 15.25 3.75 15.25H4.75C5.30228 15.25 5.75 14.8023 5.75 14.25Z" stroke="black" stroke-width="1.5" stroke-linecap="round" stroke-linejoin="round" fill="none"></path> <path d="M12 12.25L8.75 9L12 5.75" stroke="black" stroke-width="1.5" stroke-linecap="round" stroke-linejoin="round" fill="none"></path> <path d="M8.75 9H16.25" stroke="black" stroke-width="1.5" stroke-linecap="round" stroke-linejoin="round" fill="none"></path></svg>