<svg xmlns="http://www.w3.org/2000/svg" xmlns:xlink="http://www.w3.org/1999/xlink" x="0px" y="0px" width="18px" height="18px" viewBox="0 0 18 18"><path d="M9 14.25C11.8995 14.25 14.25 11.8995 14.25 9C14.25 6.10051 11.8995 3.75 9 3.75C6.10051 3.75 3.75 6.10051 3.75 9C3.75 11.8995 6.10051 14.25 9 14.25Z" fill="#000" fill-opacity="0.3" data-color="color-2" data-stroke="none"></path> <path d="M9 14.25C11.8995 14.25 14.25 11.8995 14.25 9C14.25 6.10051 11.8995 3.75 9 3.75C6.10051 3.75 3.75 6.10051 3.75 9C3.75 11.8995 6.10051 14.25 9 14.25Z" stroke="black" stroke-width="1.5" stroke-linecap="round" stroke-linejoin="round" fill="none"></path> <path d="M6.761 4.25H1.75L4.25 1.75" stroke="black" stroke-width="1.5" stroke-linecap="round" stroke-linejoin="round" fill="none"></path> <path d="M16.25 4.25H11.238" stroke="black" stroke-width="1.5" stroke-linecap="round" stroke-linejoin="round" fill="none"></path> <path d="M11.238 13.75H16.25L13.75 16.25" stroke="black" stroke-width="1.5" stroke-linecap="round" stroke-linejoin="round" fill="none"></path> <path d="M1.75 13.75H6.762" stroke="black" stroke-width="1.5" stroke-linecap="round" stroke-linejoin="round" fill="none"></path> <path d="M9 6.75V11.25" stroke="black" stroke-width="1.5" stroke-linecap="round" stroke-linejoin="round" fill="none"></path></svg>