<svg xmlns="http://www.w3.org/2000/svg" xmlns:xlink="http://www.w3.org/1999/xlink" x="0px" y="0px" width="18px" height="18px" viewBox="0 0 18 18"><path d="M3.609 9.552L8.602 16.133C8.802 16.397 9.199 16.397 9.399 16.133L14.392 9.552C14.642 9.223 14.407 8.75 13.994 8.75H11.251V2.75C11.251 2.198 10.803 1.75 10.251 1.75H7.751C7.199 1.75 6.751 2.198 6.751 2.75V8.75H4.008C3.595 8.75 3.359 9.223 3.609 9.552Z" fill="#000" fill-opacity="0.3" data-color="color-2" data-stroke="none"></path> <path d="M3.609 9.552L8.602 16.133C8.802 16.397 9.199 16.397 9.399 16.133L14.392 9.552C14.642 9.223 14.407 8.75 13.994 8.75H11.251V2.75C11.251 2.198 10.803 1.75 10.251 1.75H7.751C7.199 1.75 6.751 2.198 6.751 2.75V8.75H4.008C3.595 8.75 3.359 9.223 3.609 9.552Z" stroke="black" stroke-width="1.5" stroke-linecap="round" stroke-linejoin="round" fill="none"></path></svg>