<svg xmlns="http://www.w3.org/2000/svg" xmlns:xlink="http://www.w3.org/1999/xlink" x="0px" y="0px" width="18px" height="18px" viewBox="0 0 18 18"><path opacity="0.3" d="M15 13.08V4.92004C15 3.85994 14.1404 3.00012 13.08 3.00012H4.92C3.8596 3.00012 3 3.86004 3 4.92004V13.08C3 14.1401 3.8596 15 4.92 15H13.08C14.1404 15 15 14.14 15 13.08Z" fill="#000" data-color="color-2" data-stroke="none"></path> <path d="M6.25 9H11.75" stroke="black" stroke-width="1.5" stroke-linecap="round" stroke-linejoin="round" fill="none"></path> <path d="M9 6.25V11.75" stroke="black" stroke-width="1.5" stroke-linecap="round" stroke-linejoin="round" fill="none"></path> <path d="M15.25 4.75V13.25C15.25 14.35 14.355 15.25 13.25 15.25H5L7 17.25" stroke="black" stroke-width="1.5" stroke-linecap="round" stroke-linejoin="round" fill="none"></path> <path d="M2.75 13.25V4.75C2.75 3.65 3.645 2.75 4.75 2.75H13L11 0.75" stroke="black" stroke-width="1.5" stroke-linecap="round" stroke-linejoin="round" fill="none"></path></svg>