<svg xmlns="http://www.w3.org/2000/svg" xmlns:xlink="http://www.w3.org/1999/xlink" x="0px" y="0px" width="18px" height="18px" viewBox="0 0 18 18"><path d="M3.75 15.25H7.25C7.80228 15.25 8.25 14.8023 8.25 14.25V10.75C8.25 10.1977 7.80228 9.75 7.25 9.75H3.75C3.19772 9.75 2.75 10.1977 2.75 10.75L2.75 14.25C2.75 14.8023 3.19772 15.25 3.75 15.25Z" fill="#000" fill-opacity="0.3" data-color="color-2" data-stroke="none"></path> <path d="M3.75 15.25H7.25C7.80228 15.25 8.25 14.8023 8.25 14.25V10.75C8.25 10.1977 7.80228 9.75 7.25 9.75H3.75C3.19772 9.75 2.75 10.1977 2.75 10.75L2.75 14.25C2.75 14.8023 3.19772 15.25 3.75 15.25Z" stroke="black" stroke-width="1.5" stroke-linecap="round" stroke-linejoin="round" fill="none"></path> <path d="M10.25 7.75L15.25 2.75" stroke="black" stroke-width="1.5" stroke-linecap="round" stroke-linejoin="round" fill="none"></path> <path d="M10.74 2.75H15.25V7.26" stroke="black" stroke-width="1.5" stroke-linecap="round" stroke-linejoin="round" fill="none"></path></svg>