<svg xmlns="http://www.w3.org/2000/svg" xmlns:xlink="http://www.w3.org/1999/xlink" x="0px" y="0px" width="18px" height="18px" viewBox="0 0 18 18"><path d="M15.25 10.75V13.25C15.25 14.36 14.355 15.25 13.25 15.25H4.75C3.645 15.25 2.75 14.36 2.75 13.25V4.75C2.75 3.64 3.645 2.75 4.75 2.75H7.25" stroke="black" stroke-width="1.5" stroke-linecap="round" stroke-linejoin="round" fill="none"></path> <path opacity="0.3" d="M11.75 8.25H13.25C14.355 8.25 15.25 7.35 15.25 6.25V4.75C15.25 3.65 14.355 2.75 13.25 2.75H11.75C10.645 2.75 9.75 3.65 9.75 4.75V6.25C9.75 7.35 10.645 8.25 11.75 8.25Z" fill="#000" data-color="color-2" data-stroke="none"></path> <path d="M11.75 8.25H13.25C14.355 8.25 15.25 7.35 15.25 6.25V4.75C15.25 3.65 14.355 2.75 13.25 2.75H11.75C10.645 2.75 9.75 3.65 9.75 4.75V6.25C9.75 7.35 10.645 8.25 11.75 8.25Z" stroke="black" stroke-width="1.5" stroke-linecap="round" stroke-linejoin="round" fill="none"></path> <path d="M5.75 9.25V12.25H8.75" stroke="black" stroke-width="1.5" stroke-linecap="round" stroke-linejoin="round" fill="none"></path> <path d="M5.75 12.25L8.5 9.5" stroke="black" stroke-width="1.5" stroke-linecap="round" stroke-linejoin="round" fill="none"></path></svg>