<svg xmlns="http://www.w3.org/2000/svg" xmlns:xlink="http://www.w3.org/1999/xlink" x="0px" y="0px" width="18px" height="18px" viewBox="0 0 18 18"><path d="M14.25 9.35399V14C14.25 14.138 14.138 14.25 14 14.25H9.35399C9.13099 14.25 9.01999 13.981 9.17699 13.823L13.823 9.17699C13.98 9.01999 14.25 9.13099 14.25 9.35399Z" fill="#000" fill-opacity="0.3" data-color="color-2" data-stroke="none"></path> <path d="M14.25 9.35399V14C14.25 14.138 14.138 14.25 14 14.25H9.35399C9.13099 14.25 9.01999 13.981 9.17699 13.823L13.823 9.17699C13.98 9.01999 14.25 9.13099 14.25 9.35399Z" stroke="black" stroke-width="1.5" stroke-linecap="round" stroke-linejoin="round" fill="none"></path> <path d="M3.75 8.646V4C3.75 3.862 3.862 3.75 4 3.75H8.646C8.869 3.75 8.98 4.019 8.823 4.177L4.177 8.823C4.02 8.98 3.75 8.869 3.75 8.646Z" fill="#000" fill-opacity="0.3" data-color="color-2" data-stroke="none"></path> <path d="M3.75 8.646V4C3.75 3.862 3.862 3.75 4 3.75H8.646C8.869 3.75 8.98 4.019 8.823 4.177L4.177 8.823C4.02 8.98 3.75 8.869 3.75 8.646Z" stroke="black" stroke-width="1.5" stroke-linecap="round" stroke-linejoin="round" fill="none"></path></svg>