<svg xmlns="http://www.w3.org/2000/svg" xmlns:xlink="http://www.w3.org/1999/xlink" x="0px" y="0px" width="18px" height="18px" viewBox="0 0 18 18"><path d="M1.75 4.75C1.75 3.64543 2.64543 2.75 3.75 2.75H14.25C15.3546 2.75 16.25 3.64543 16.25 4.75V6.25H1.75V4.75Z" fill="#000" fill-opacity="0.3" data-color="color-2" data-stroke="none"></path> <path d="M6 14.25H3.75C2.645 14.25 1.75 13.355 1.75 12.25V4.75C1.75 3.645 2.645 2.75 3.75 2.75H14.25C15.355 2.75 16.25 3.645 16.25 4.75V12.25C16.25 13.355 15.355 14.25 14.25 14.25H12" stroke="black" stroke-width="1.5" stroke-linecap="round" stroke-linejoin="round" fill="none"></path> <path d="M1.75 6.25H16.25" stroke="black" stroke-width="1.5" stroke-linecap="round" stroke-linejoin="round" fill="none"></path> <path d="M6.5 11.25L9 8.75L11.5 11.25" stroke="black" stroke-width="1.5" stroke-linecap="round" stroke-linejoin="round" fill="none"></path> <path d="M9 8.75V17.25" stroke="black" stroke-width="1.5" stroke-linecap="round" stroke-linejoin="round" fill="none"></path></svg>