<svg xmlns="http://www.w3.org/2000/svg" xmlns:xlink="http://www.w3.org/1999/xlink" x="0px" y="0px" width="18px" height="18px" viewBox="0 0 18 18"> <path d="M14.668 8.155L7.286 3.474C6.62 3.052 5.75 3.53 5.75 4.319V13.682C5.75 14.47 6.62 14.949 7.286 14.527L14.669 9.845C15.288 9.452 15.288 8.549 14.669 8.156L14.668 8.155Z" fill="#000" fill-opacity="0.3" data-color="color-2" data-stroke="none"></path> <path d="M14.668 8.155L7.286 3.474C6.62 3.052 5.75 3.53 5.75 4.319V13.682C5.75 14.47 6.62 14.949 7.286 14.527L14.669 9.845C15.288 9.452 15.288 8.549 14.669 8.156L14.668 8.155Z" stroke="black" stroke-width="1.5" stroke-linecap="round" stroke-linejoin="round" fill="none"></path> <path d="M2.75 3.25V14.75" stroke="black" stroke-width="1.5" stroke-linecap="round" stroke-linejoin="round" fill="none"></path> </svg>