<svg xmlns="http://www.w3.org/2000/svg" xmlns:xlink="http://www.w3.org/1999/xlink" x="0px" y="0px" width="18px" height="18px" viewBox="0 0 18 18"><path d="M6.75 2.75L6.75 15.25C6.75 15.8023 7.19772 16.25 7.75 16.25H10.25C10.8023 16.25 11.25 15.8023 11.25 15.25V2.75C11.25 2.19771 10.8023 1.75 10.25 1.75H7.75C7.19772 1.75 6.75 2.19771 6.75 2.75Z" fill="#000" fill-opacity="0.3" data-color="color-2" data-stroke="none"></path> <path d="M6.75 2.75L6.75 15.25C6.75 15.8023 7.19772 16.25 7.75 16.25H10.25C10.8023 16.25 11.25 15.8023 11.25 15.25V2.75C11.25 2.19771 10.8023 1.75 10.25 1.75H7.75C7.19772 1.75 6.75 2.19771 6.75 2.75Z" stroke="black" stroke-width="1.5" stroke-linecap="round" stroke-linejoin="round" fill="none"></path> <path d="M16.5 11.25L14.25 9L16.5 6.75" stroke="black" stroke-width="1.5" stroke-linecap="round" stroke-linejoin="round" fill="none"></path> <path d="M1.5 11.25L3.75 9L1.5 6.75" stroke="black" stroke-width="1.5" stroke-linecap="round" stroke-linejoin="round" fill="none"></path></svg>