<svg xmlns="http://www.w3.org/2000/svg" xmlns:xlink="http://www.w3.org/1999/xlink" x="0px" y="0px" width="18px" height="18px" viewBox="0 0 18 18"><path d="M11.75 4.5V1.75L16.25 6L11.75 10.25V7.5C8.125 7.5 5.75 11 5.75 11C5.75 11 5.75 4.5 11.75 4.5Z" fill="#000" fill-opacity="0.3" data-color="color-2" data-stroke="none"></path> <path d="M11.75 4.5V1.75L16.25 6L11.75 10.25V7.5C8.125 7.5 5.75 11 5.75 11C5.75 11 5.75 4.5 11.75 4.5Z" stroke="black" stroke-width="1.5" stroke-linecap="round" stroke-linejoin="round" fill="none"></path> <path d="M7.25 2.75H4.75C3.645 2.75 2.75 3.645 2.75 4.75V13.25C2.75 14.355 3.645 15.25 4.75 15.25H13.25C14.355 15.25 15.25 14.355 15.25 13.25V10.75" stroke="black" stroke-width="1.5" stroke-linecap="round" stroke-linejoin="round" fill="none"></path></svg>