<svg xmlns="http://www.w3.org/2000/svg" xmlns:xlink="http://www.w3.org/1999/xlink" x="0px" y="0px" width="18px" height="18px" viewBox="0 0 18 18"><rect x="1.75" y="3.25" width="14.5" height="11.5" rx="2" ry="2" fill="#000" opacity=".3" stroke-width="0" data-color="color-2"></rect><polyline points="11 6.75 9 4.75 7 6.75" fill="none" stroke="#000" stroke-linecap="round" stroke-linejoin="round" stroke-width="1.5"></polyline><polyline points="7 11.25 9 13.25 11 11.25" fill="none" stroke="#000" stroke-linecap="round" stroke-linejoin="round" stroke-width="1.5"></polyline><line x1="9" y1="5" x2="9" y2="13" fill="none" stroke="#000" stroke-linecap="round" stroke-linejoin="round" stroke-width="1.5"></line><path d="m11.7422,14.75h2.5078c1.1046,0,2-.8955,2-2v-7.5c0-1.1045-.8954-2-2-2h-2.5078" fill="none" stroke="#000" stroke-linecap="round" stroke-linejoin="round" stroke-width="1.5"></path><path d="m6.2578,3.25h-2.5078c-1.1046,0-2,.8955-2,2v7.5c0,1.1045.8954,2,2,2h2.5078" fill="none" stroke="#000" stroke-linecap="round" stroke-linejoin="round" stroke-width="1.5"></path></svg>