<svg xmlns="http://www.w3.org/2000/svg" xmlns:xlink="http://www.w3.org/1999/xlink" x="0px" y="0px" width="18px" height="18px" viewBox="0 0 18 18"><path opacity="0.3" d="M4.25 16.25C5.2165 16.25 6 15.4683 6 14.5C6 13.5317 5.2165 12.75 4.25 12.75C3.2835 12.75 2.5 13.5317 2.5 14.5C2.5 15.4683 3.2835 16.25 4.25 16.25Z" fill="#000" data-color="color-2" data-stroke="none"></path> <path opacity="0.3" d="M13.75 5.25C14.7165 5.25 15.5 4.4683 15.5 3.5C15.5 2.5317 14.7165 1.75 13.75 1.75C12.7835 1.75 12 2.5317 12 3.5C12 4.4683 12.7835 5.25 13.75 5.25Z" fill="#000" data-color="color-2" data-stroke="none"></path> <path d="M4.25 16.25C5.2165 16.25 6 15.4683 6 14.5C6 13.5317 5.2165 12.75 4.25 12.75C3.2835 12.75 2.5 13.5317 2.5 14.5C2.5 15.4683 3.2835 16.25 4.25 16.25Z" stroke="black" stroke-width="1.5" stroke-linecap="round" stroke-linejoin="round" fill="none"></path> <path d="M13.75 5.25C14.7165 5.25 15.5 4.4683 15.5 3.5C15.5 2.5317 14.7165 1.75 13.75 1.75C12.7835 1.75 12 2.5317 12 3.5C12 4.4683 12.7835 5.25 13.75 5.25Z" stroke="black" stroke-width="1.5" stroke-linecap="round" stroke-linejoin="round" fill="none"></path> <path d="M1.765 7.26001L4.258 9.75L6.75 7.26001" stroke="black" stroke-width="1.5" stroke-linecap="round" stroke-linejoin="round" fill="none"></path> <path d="M16.235 10.74L13.742 8.25L11.25 10.74" stroke="black" stroke-width="1.5" stroke-linecap="round" stroke-linejoin="round" fill="none"></path> <path d="M4.25 9.75V5.25C4.25 4.14 5.145 3.25 6.25 3.25H9" stroke="black" stroke-width="1.5" stroke-linecap="round" stroke-linejoin="round" fill="none"></path> <path d="M13.75 8.25V12.75C13.75 13.86 12.855 14.75 11.75 14.75H9" stroke="black" stroke-width="1.5" stroke-linecap="round" stroke-linejoin="round" fill="none"></path></svg>