<svg xmlns="http://www.w3.org/2000/svg" xmlns:xlink="http://www.w3.org/1999/xlink" x="0px" y="0px" width="18px" height="18px" viewBox="0 0 18 18"><path d="M12.25 3H13.75C14.855 3 15.75 3.895 15.75 5V12.75C15.75 13.855 14.855 14.75 13.75 14.75H4.25C3.145 14.75 2.25 13.855 2.25 12.75V5C2.25 3.895 3.145 3 4.25 3H5.75" fill="#000" fill-opacity="0.3" data-color="color-2" data-stroke="none"></path> <path d="M12.25 3.25H13.75C14.855 3.25 15.75 4.145 15.75 5.25V12.75C15.75 13.855 14.855 14.75 13.75 14.75H4.25C3.145 14.75 2.25 13.855 2.25 12.75V5.25C2.25 4.145 3.145 3.25 4.25 3.25H5.75" stroke="black" stroke-width="1.5" stroke-linecap="round" stroke-linejoin="round" fill="none"></path> <path d="M12 8.75L9 11.75L6 8.75" stroke="black" stroke-width="1.5" stroke-linecap="round" stroke-linejoin="round" fill="none"></path> <path d="M9 11.75V3.25" stroke="black" stroke-width="1.5" stroke-linecap="round" stroke-linejoin="round" fill="none"></path></svg>