<svg xmlns="http://www.w3.org/2000/svg" xmlns:xlink="http://www.w3.org/1999/xlink" x="0px" y="0px" width="18px" height="18px" viewBox="0 0 18 18"><path d="M12.75 7.75H8.25C7.42157 7.75 6.75 8.42157 6.75 9.25V13.75C6.75 14.5784 7.42157 15.25 8.25 15.25H12.75C13.5784 15.25 14.25 14.5784 14.25 13.75V9.25C14.25 8.42157 13.5784 7.75 12.75 7.75Z" fill="#000" fill-opacity="0.3" data-color="color-2" data-stroke="none"></path> <path d="M12.75 7.75H8.25C7.42157 7.75 6.75 8.42157 6.75 9.25V13.75C6.75 14.5784 7.42157 15.25 8.25 15.25H12.75C13.5784 15.25 14.25 14.5784 14.25 13.75V9.25C14.25 8.42157 13.5784 7.75 12.75 7.75Z" stroke="black" stroke-width="1.5" stroke-linecap="round" stroke-linejoin="round" fill="none"></path> <path d="M2.25 7.25C2.25 5.041 4.041 3.25 6.25 3.25H8.5" stroke="black" stroke-width="1.5" stroke-linecap="round" stroke-linejoin="round" fill="none"></path> <path d="M6.25 1L8.5 3.25L6.25 5.5" stroke="black" stroke-width="1.5" stroke-linecap="round" stroke-linejoin="round" fill="none"></path></svg>