<svg xmlns="http://www.w3.org/2000/svg" xmlns:xlink="http://www.w3.org/1999/xlink" x="0px" y="0px" width="18px" height="18px" viewBox="0 0 18 18"><path d="m10,14.75c0-.6011.2339-1.166.6592-1.5908l2.5-2.5c.4248-.4253.9897-.6592,1.5908-.6592.3907,0,.763.1036,1.0933.2917.0896.051.4067-.7905.4067-1.2917,0-4.0039-3.246-7.25-7.25-7.25S1.75,4.9961,1.75,9s3.246,7.25,7.25,7.25c.5012,0,1.3345-.3295,1.2808-.426-.1811-.3255-.2808-.6909-.2808-1.074Z" fill="#000" opacity=".3" stroke-width="0" data-color="color-2"></path><path d="m10.75,6.2501h-2.3752c-.7593,0-1.3748.6155-1.3748,1.3748s.6155,1.3752,1.3748,1.3752h1.2503c.7593,0,1.3748.6155,1.3748,1.3748s-.6155,1.3749-1.3748,1.3749h-2.3752m1.75-6.4999v1.0002m0,6.4998v-1" fill="none" stroke="#000" stroke-linecap="round" stroke-linejoin="round" stroke-width="1.5"></path><polyline points="14.75 17.25 12.25 14.75 14.75 12.25" fill="none" stroke="#000" stroke-linecap="round" stroke-linejoin="round" stroke-width="1.5"></polyline><path d="m16.2173,9.6479c.019-.2139.0327-.4292.0327-.6479,0-4.0039-3.2459-7.25-7.25-7.25S1.75,4.9961,1.75,9s3.2459,7.25,7.25,7.25c.2188,0,.4341-.0137.6479-.0327" fill="none" stroke="#000" stroke-linecap="round" stroke-linejoin="round" stroke-width="1.5"></path><line x1="12.5" y1="14.75" x2="17.25" y2="14.75" fill="none" stroke="#000" stroke-linecap="round" stroke-linejoin="round" stroke-width="1.5"></line></svg>