<svg xmlns="http://www.w3.org/2000/svg" xmlns:xlink="http://www.w3.org/1999/xlink" x="0px" y="0px" width="18px" height="18px" viewBox="0 0 18 18"><path d="m4.8519,15h-.7778c-1.146,0-2.0741-.9339-2.0741-2.087v-7.826c0-1.1531.9281-2.087,2.0741-2.087h9.8518c1.1459,0,2.0741.9339,2.0741,2.087v7.826c0,1.153-.9281,2.087-2.0741,2.087H4.8519Z" fill="#000" opacity=".3" stroke-width="0" data-color="color-2"></path><polyline points="7 12.25 9 10.25 11 12.25" fill="none" stroke="#000" stroke-linecap="round" stroke-linejoin="round" stroke-width="1.5"></polyline><line x1="9" y1="10.5" x2="9" y2="14.75" fill="none" stroke="#000" stroke-linecap="round" stroke-linejoin="round" stroke-width="1.5"></line><rect x="4.75" y="6.25" width="8.5" height="1.5" stroke="#000" stroke-linecap="round" stroke-linejoin="round" stroke-width="1.5" fill="#000"></rect><path d="m6.5,14.75h-2.75c-1.105,0-2-.896-2-2v-7.5c0-1.104.895-2,2-2h10.5c1.105,0,2,.896,2,2v7.5c0,1.104-.895,2-2,2h-2.75" fill="none" stroke="#000" stroke-linecap="round" stroke-linejoin="round" stroke-width="1.5"></path></svg>