<svg xmlns="http://www.w3.org/2000/svg" xmlns:xlink="http://www.w3.org/1999/xlink" x="0px" y="0px" width="18px" height="18px" viewBox="0 0 18 18"><path d="M15.25 13.25V4.75C15.25 3.64543 14.3546 2.75 13.25 2.75L4.75 2.75C3.64543 2.75 2.75 3.64543 2.75 4.75V13.25C2.75 14.3546 3.64543 15.25 4.75 15.25H13.25C14.3546 15.25 15.25 14.3546 15.25 13.25Z" fill="#000" fill-opacity="0.3" data-color="color-2" data-stroke="none"></path> <path d="M15.25 13.25V4.75C15.25 3.64543 14.3546 2.75 13.25 2.75L4.75 2.75C3.64543 2.75 2.75 3.64543 2.75 4.75V13.25C2.75 14.3546 3.64543 15.25 4.75 15.25H13.25C14.3546 15.25 15.25 14.3546 15.25 13.25Z" stroke="black" stroke-width="1.5" stroke-linecap="round" stroke-linejoin="round" fill="none"></path> <path d="M11.157 8.37901L8.17 6.35701C7.672 6.02001 7 6.37701 7 6.97801V11.022C7 11.623 7.672 11.98 8.17 11.643L11.157 9.62101C11.596 9.32401 11.596 8.67601 11.157 8.37901Z" fill="black" data-stroke="none"></path></svg>