<svg xmlns="http://www.w3.org/2000/svg" xmlns:xlink="http://www.w3.org/1999/xlink" x="0px" y="0px" width="18px" height="18px" viewBox="0 0 18 18"><path opacity="0.3" d="M4.25 11C4.25 10.3101 4.81 9.75 5.5 9.75H12.5C13.19 9.75 13.75 10.3101 13.75 11V11.5H4.25V11Z" fill="#000" data-color="color-2" data-stroke="none"></path> <path opacity="0.3" d="M2.25 15C2.25 14.3101 2.81 13.75 3.5 13.75H14.5C15.19 13.75 15.75 14.3101 15.75 15V16.5H2.25V15Z" fill="#000" data-color="color-2" data-stroke="none"></path> <path d="M2.25 16.25V15.75C2.25 14.64 3.145 13.75 4.25 13.75H13.75C14.855 13.75 15.75 14.64 15.75 15.75V16.25" stroke="black" stroke-width="1.5" stroke-linecap="round" stroke-linejoin="round" fill="none"></path> <path d="M4.25 11.25C4.25 10.42 4.922 9.75 5.75 9.75H12.25C13.078 9.75 13.75 10.42 13.75 11.25" stroke="black" stroke-width="1.5" stroke-linecap="round" stroke-linejoin="round" fill="none"></path> <path d="M11.5 4.75L9 7.25L6.5 4.75" stroke="black" stroke-width="1.5" stroke-linecap="round" stroke-linejoin="round" fill="none"></path> <path d="M9 7V1.75" stroke="black" stroke-width="1.5" stroke-linecap="round" stroke-linejoin="round" fill="none"></path></svg>