<svg xmlns="http://www.w3.org/2000/svg" xmlns:xlink="http://www.w3.org/1999/xlink" x="0px" y="0px" width="18px" height="18px" viewBox="0 0 18 18"><path d="M3 6.25C3 5.14543 3.89543 4.25 5 4.25H13C14.1046 4.25 15 5.14543 15 6.25V11.75C15 12.8546 14.1046 13.75 13 13.75H5C3.89543 13.75 3 12.8546 3 11.75V6.25Z" fill="#000" fill-opacity="0.3" data-color="color-2" data-stroke="none"></path> <path d="M5.25 16.25L2.75 13.75L5.25 11.25" stroke="black" stroke-width="1.5" stroke-linecap="round" stroke-linejoin="round" fill="none"></path> <path d="M2.75 13.75H13.25C14.355 13.75 15.25 12.855 15.25 11.75V8.75" stroke="black" stroke-width="1.5" stroke-linecap="round" stroke-linejoin="round" fill="none"></path> <path d="M12.75 1.75L15.25 4.25L12.75 6.75" stroke="black" stroke-width="1.5" stroke-linecap="round" stroke-linejoin="round" fill="none"></path> <path d="M15.25 4.25H4.75C3.645 4.25 2.75 5.145 2.75 6.25V9.25" stroke="black" stroke-width="1.5" stroke-linecap="round" stroke-linejoin="round" fill="none"></path></svg>