<svg xmlns="http://www.w3.org/2000/svg" xmlns:xlink="http://www.w3.org/1999/xlink" x="0px" y="0px" width="18px" height="18px" viewBox="0 0 18 18"><path d="M15.25,2h-4c-.414,0-.75,.336-.75,.75s.336,.75,.75,.75h2.189l-3.111,3.111c-.293,.293-.293,.768,0,1.061,.146,.146,.338,.22,.53,.22s.384-.073,.53-.22l3.111-3.111v2.189c0,.414,.336,.75,.75,.75s.75-.336,.75-.75V2.75c0-.414-.336-.75-.75-.75Z" fill="#000" data-color="color-2"></path><path d="M7.5,16c-1.469,0-2.851-.572-3.889-1.611-1.039-1.039-1.611-2.42-1.611-3.889s.572-2.851,1.611-3.889h0c1.038-1.039,2.42-1.611,3.889-1.611s2.851,.572,3.889,1.611c1.039,1.039,1.611,2.42,1.611,3.889s-.572,2.851-1.611,3.889c-1.038,1.039-2.42,1.611-3.889,1.611Zm0-9.5c-1.068,0-2.072,.416-2.828,1.171h0c-.756,.755-1.172,1.76-1.172,2.829s.416,2.073,1.172,2.829c1.512,1.511,4.145,1.511,5.656,0,.756-.755,1.172-1.76,1.172-2.829s-.416-2.073-1.172-2.829-1.76-1.171-2.828-1.171Zm-3.358,.641h0Z" fill="#000"></path></svg>