<svg xmlns="http://www.w3.org/2000/svg" xmlns:xlink="http://www.w3.org/1999/xlink" x="0px" y="0px" width="20px" height="20px" viewBox="0 0 20 20"><path d="m17,9.882v-1.244c0-1.021-.519-1.972-1.378-2.524l-5.081-3.267c-.329-.212-.752-.212-1.082,0l-5.081,3.267c-.859.552-1.378,1.503-1.378,2.524v5.362c0,1.657,1.343,3,3,3h1.621" fill="none" stroke="#000" stroke-linecap="round" stroke-linejoin="round" stroke-width="2"></path><path d="m15,12c-1.311,0-2.414.846-2.822,2.018-.06-.005-.117-.018-.178-.018-1.105,0-2,.895-2,2s.895,2,2,2h3c1.657,0,3-1.343,3-3s-1.343-3-3-3Z" fill="#000" stroke-width="0" data-color="color-2"></path></svg>