<svg xmlns="http://www.w3.org/2000/svg" xmlns:xlink="http://www.w3.org/1999/xlink" x="0px" y="0px" width="20px" height="20px" viewBox="0 0 20 20"><path d="m4,7v-1c0-1.105.895-2,2-2h8c1.105,0,2,.895,2,2v1" fill="none" stroke="#000" stroke-linecap="round" stroke-linejoin="round" stroke-width="2" data-color="color-2"></path><line x1="10" y1="4" x2="10" y2="10" fill="none" stroke="#000" stroke-linecap="round" stroke-linejoin="round" stroke-width="2" data-color="color-2"></line><rect x="5" y="13" width="10" height="2" stroke="#000" stroke-linecap="round" stroke-linejoin="round" stroke-width="2" fill="#000"></rect><path d="m4,10h0c.552,0,1,.448,1,1v4h0c-1.104,0-2-.896-2-2v-2c0-.552.448-1,1-1Z" stroke="#000" stroke-linecap="round" stroke-linejoin="round" stroke-width="2" fill="#000"></path><path d="m17,10h0v4c0,.552-.448,1-1,1h0c-.552,0-1-.448-1-1v-2c0-1.104.896-2,2-2Z" transform="translate(32 25) rotate(180)" stroke="#000" stroke-linecap="round" stroke-linejoin="round" stroke-width="2" fill="#000"></path><line x1="5" y1="15" x2="5" y2="17" fill="none" stroke="#000" stroke-linecap="round" stroke-linejoin="round" stroke-width="2"></line><line x1="15" y1="15" x2="15" y2="17" fill="none" stroke="#000" stroke-linecap="round" stroke-linejoin="round" stroke-width="2"></line></svg>