<svg xmlns="http://www.w3.org/2000/svg" xmlns:xlink="http://www.w3.org/1999/xlink" x="0px" y="0px" width="20px" height="20px" viewBox="0 0 20 20"><path d="m10,6.105l-7,4.648v3.246c0,2.206,1.794,4,4,4h2v-3c0-.552.447-1,1-1s1,.448,1,1v3h2c2.206,0,4-1.794,4-4v-3.217l-7-4.678Zm1,5.395c0,.276-.224.5-.5.5h-1c-.276,0-.5-.224-.5-.5v-1c0-.276.224-.5.5-.5h1c.276,0,.5.224.5.5v1Z" stroke-width="0" fill="#000"></path><path d="m18.055,6.668L10.555,1.668c-.336-.224-.773-.224-1.109,0l-3.445,2.297v-.965c0-.552-.447-1-1-1s-1,.448-1,1v2.298l-2.055,1.37c-.46.306-.584.927-.277,1.387.305.459.925.584,1.387.277l6.945-4.63,6.945,4.63c.171.114.363.168.554.168.323,0,.641-.156.833-.445.307-.459.183-1.081-.277-1.387Z" fill="#000" stroke-width="0" data-color="color-2"></path></svg>