<svg xmlns="http://www.w3.org/2000/svg" xmlns:xlink="http://www.w3.org/1999/xlink" x="0px" y="0px" width="24px" height="24px" viewBox="0 0 24 24"> <path d="M16 2H18V5H16V2Z" fill="#000" data-color="color-2"></path> <path d="M6 2H8V5H6V2Z" fill="#000" data-color="color-2"></path> <path d="M24 7V9H0V7H24Z" fill="black"></path> <path d="M6 11H8V22H6V11Z" fill="#000" data-color="color-2"></path> <path d="M16 11H18V22H16V11Z" fill="#000" data-color="color-2"></path> <path d="M10 20V22H4V20H10Z" fill="#000" data-color="color-2"></path> <path d="M20 20V22H14V20H20Z" fill="#000" data-color="color-2"></path> <path d="M4 13L2 13L2 3L4 3L4 13Z" fill="black"></path> <path d="M20 13L22 13L22 3L20 3L20 13Z" fill="black"></path> </svg>