<svg xmlns="http://www.w3.org/2000/svg" xmlns:xlink="http://www.w3.org/1999/xlink" x="0px" y="0px" width="24px" height="24px" viewBox="0 0 24 24"> <path d="M24 5V7H0V5H24Z" fill="#000" data-color="color-2"></path> <path d="M3 11L1 11L1 1L3 1L3 11Z" fill="#000" data-color="color-2"></path> <path d="M21 11L23 11L23 1L21 1L21 11Z" fill="#000" data-color="color-2"></path> <path d="M15.664 22L16.3642 15L7.6518 15L8.3061 22L15.664 22Z" fill="black"></path> <path d="M12 14C13.3807 14 14.5 12.8807 14.5 11.5C14.5 10.1193 13.3807 9 12 9C10.6193 9 9.5 10.1193 9.5 11.5C9.5 12.8807 10.6193 14 12 14Z" fill="#000" data-color="color-2"></path> <path d="M16.1592 17H7.84082L4.41211 9H6.58789L9.15918 15H14.8408L17.4121 9H19.5879L16.1592 17Z" fill="black"></path> </svg>