<svg xmlns="http://www.w3.org/2000/svg" xmlns:xlink="http://www.w3.org/1999/xlink" x="0px" y="0px" width="32px" height="32px" viewBox="0 0 32 32"> <path d="M6 14V16H1V14H6Z" fill="black"></path> <path d="M31 14V16H26V14H31Z" fill="black"></path> <path d="M17 3V10H15V3H17Z" fill="black"></path> <path d="M15 24H17V30H15V24Z" fill="black"></path> <path d="M22 28V30H10V28H22Z" fill="black"></path> <path d="M24 26H8V24C8 22.3431 9.34315 21 11 21H21C22.6569 21 24 22.3431 24 24V26Z" fill="black"></path> <path d="M10 19H22V13C22 10.7909 20.2091 9 18 9H14C11.7909 9 10 10.7909 10 13V19Z" fill="black"></path> <path d="M26 11.1816L23.7939 5.29785C23.5012 4.51724 22.7546 4 21.9209 4H10.0791C9.24541 4 8.49878 4.51724 8.20605 5.29785L6 11.1816V18H4V10.8184L4.06348 10.6484L6.33398 4.5957C6.91944 3.03449 8.41172 2 10.0791 2H21.9209C23.5883 2 25.0806 3.03449 25.666 4.5957L27.9365 10.6484L28 10.8184V18H26V11.1816Z" fill="#000" data-color="color-2"></path> </svg>