<svg xmlns="http://www.w3.org/2000/svg" xmlns:xlink="http://www.w3.org/1999/xlink" x="0px" y="0px" width="48px" height="48px" viewBox="0 0 48 48"> <path d="M47 22.5V25.5H43V22.5H47Z" fill="#000" data-color="color-2"></path> <path d="M33 22.5V25.5H15V22.5H33Z" fill="#000" data-color="color-2"></path> <path d="M31 11.5C31 9.567 32.567 8 34.5 8C36.433 8 38 9.567 38 11.5V36.5C38 38.433 36.433 40 34.5 40C32.567 40 31 38.433 31 36.5V11.5Z" fill="black"></path> <path d="M41 15C41 13.8954 41.8954 13 43 13C44.1046 13 45 13.8954 45 15V33C45 34.1046 44.1046 35 43 35C41.8954 35 41 34.1046 41 33V15Z" fill="#000" data-color="color-2"></path> <path d="M17 11.5C17 9.567 15.433 8 13.5 8C11.567 8 10 9.567 10 11.5V36.5C10 38.433 11.567 40 13.5 40C15.433 40 17 38.433 17 36.5V11.5Z" fill="black"></path> <path d="M1 22.5V25.5H5V22.5H1Z" fill="#000" data-color="color-2"></path> <path d="M7 15C7 13.8954 6.10457 13 5 13C3.89543 13 3 13.8954 3 15V33C3 34.1046 3.89543 35 5 35C6.10457 35 7 34.1046 7 33V15Z" fill="#000" data-color="color-2"></path> </svg>