<svg xmlns="http://www.w3.org/2000/svg" xmlns:xlink="http://www.w3.org/1999/xlink" x="0px" y="0px" width="18px" height="18px" viewBox="0 0 18 18"><path d="M15.25 7.25V4.75C15.25 3.645 14.355 2.75 13.25 2.75H4.75C3.645 2.75 2.75 3.645 2.75 4.75V13.25C2.75 14.355 3.645 15.25 4.75 15.25H7.25" stroke="black" stroke-width="1.5" stroke-linecap="round" stroke-linejoin="round" fill="none"></path> <path d="M11.75 9.75H13.25C14.355 9.75 15.25 10.645 15.25 11.75V13.25C15.25 14.355 14.355 15.25 13.25 15.25H11.75C10.645 15.25 9.75 14.355 9.75 13.25V11.75C9.75 10.645 10.645 9.75 11.75 9.75Z" stroke="#000" stroke-width="1.5" stroke-linecap="round" stroke-linejoin="round" data-color="color-2" fill="none"></path> <path d="M8.25 5.25V8.25H5.25" stroke="#000" stroke-width="1.5" stroke-linecap="round" stroke-linejoin="round" data-color="color-2" fill="none"></path> <path d="M8.25 8.25L5.5 5.5" stroke="#000" stroke-width="1.5" stroke-linecap="round" stroke-linejoin="round" data-color="color-2" fill="none"></path></svg>