<svg xmlns="http://www.w3.org/2000/svg" xmlns:xlink="http://www.w3.org/1999/xlink" x="0px" y="0px" width="18px" height="18px" viewBox="0 0 18 18"><path d="M12,12.25h.5c2.071,0,3.75-1.679,3.75-3.75,0-1.736-1.185-3.182-2.786-3.609-.186-2.314-2.102-4.141-4.464-4.141-2.485,0-4.5,2.015-4.5,4.5,0,.35,.049,.686,.124,1.013-1.597,.067-2.874,1.374-2.874,2.987,0,1.657,1.343,3,3,3h1.25" fill="none" stroke="#000" stroke-linecap="round" stroke-linejoin="round" stroke-width="1.5"></path><polyline points="11.25 15 9 17.25 6.75 15" fill="none" stroke="#000" stroke-linecap="round" stroke-linejoin="round" stroke-width="1.5" data-color="color-2"></polyline><line x1="9" y1="17.25" x2="9" y2="8.75" fill="none" stroke="#000" stroke-linecap="round" stroke-linejoin="round" stroke-width="1.5" data-color="color-2"></line></svg>