<svg xmlns="http://www.w3.org/2000/svg" xmlns:xlink="http://www.w3.org/1999/xlink" x="0px" y="0px" width="18px" height="18px" viewBox="0 0 18 18"><path d="m15.16,6.25h-3.41c-.552,0-1-.448-1-1V1.852" fill="none" stroke="#000" stroke-linecap="round" stroke-linejoin="round" stroke-width="1.5"></path><path d="m7,8.5l2.25,2.25-2.25,2.25" fill="none" stroke="#000" stroke-linecap="round" stroke-linejoin="round" stroke-width="1.5" data-color="color-2"></path><path d="m5.75,16.25h7.438c1.093,0,1.984-.8784,2-1.9722l.062-7.6135c0-.2654-.105-.5198-.293-.7073l-3.914-3.9143c-.188-.1875-.442-.2927-.707-.2927h-4.586c-1.104,0-2,.8955-2,2v4" fill="none" stroke="#000" stroke-linecap="round" stroke-linejoin="round" stroke-width="1.5"></path><path d="m9,10.75H4c-.9665,0-1.75.7835-1.75,1.75h0c0,.9665.7835,1.75,1.75,1.75" fill="none" stroke="#000" stroke-linecap="round" stroke-linejoin="round" stroke-width="1.5" data-color="color-2"></path></svg>