<svg xmlns="http://www.w3.org/2000/svg" xmlns:xlink="http://www.w3.org/1999/xlink" x="0px" y="0px" width="18px" height="18px" viewBox="0 0 18 18"><path d="M4.25 6C4.664 6 5 5.66 5 5.25C5 4.84 4.664 4.5 4.25 4.5C3.836 4.5 3.5 4.84 3.5 5.25C3.5 5.66 3.836 6 4.25 6Z" fill="black" data-stroke="none"></path> <path d="M6.75 6C7.164 6 7.5 5.66 7.5 5.25C7.5 4.84 7.164 4.5 6.75 4.5C6.336 4.5 6 4.84 6 5.25C6 5.66 6.336 6 6.75 6Z" fill="black" data-stroke="none"></path> <path d="M1.75 7.75H16.25" stroke="black" stroke-width="1.5" stroke-linecap="round" stroke-linejoin="round" fill="none"></path> <path d="M16.25 7.75V4.75C16.25 3.65 15.355 2.75 14.25 2.75H3.75C2.645 2.75 1.75 3.65 1.75 4.75V13.25C1.75 14.35 2.645 15.25 3.75 15.25H7.79889" stroke="black" stroke-width="1.5" stroke-linecap="round" stroke-linejoin="round" fill="none"></path> <path d="M13.75 13.75H16.25V11.25" stroke="#000" stroke-width="1.5" stroke-linecap="round" stroke-linejoin="round" data-color="color-2" fill="none"></path> <path d="M15.5 16.39C14.999 16.92 14.288 17.25 13.5 17.25C11.981 17.25 10.75 16.02 10.75 14.5C10.75 12.98 11.981 11.75 13.5 11.75C14.666 11.75 15.662 12.48 16.063 13.5" stroke="#000" stroke-width="1.5" stroke-linecap="round" stroke-linejoin="round" data-color="color-2" fill="none"></path></svg>