<svg xmlns="http://www.w3.org/2000/svg" xmlns:xlink="http://www.w3.org/1999/xlink" x="0px" y="0px" width="18px" height="18px" viewBox="0 0 18 18"><path d="m12.25,12.25v1.5c0,1.1046-.8954,2-2,2h-6c-1.1046,0-2-.8954-2-2v-6c0-1.1046.8954-2,2-2h1.5" fill="none" stroke="#000" stroke-linecap="round" stroke-linejoin="round" stroke-width="1.5"></path><path d="m5.75,4.25v6c0,1.1046.8954,2,2,2h6c1.1046,0,2-.8954,2-2v-6c0-1.1046-.8954-2-2-2h-6c-1.1046,0-2,.8954-2,2Z" fill="none" stroke="#000" stroke-linecap="round" stroke-linejoin="round" stroke-width="1.5"></path><polyline points="9.75 5.25 12.75 5.25 12.75 8.25" fill="none" stroke="#000" stroke-linecap="round" stroke-linejoin="round" stroke-width="1.5" data-color="color-2"></polyline><line x1="9" y1="9" x2="12.5" y2="5.5" fill="none" stroke="#000" stroke-linecap="round" stroke-linejoin="round" stroke-width="1.5" data-color="color-2"></line></svg>