<svg xmlns="http://www.w3.org/2000/svg" xmlns:xlink="http://www.w3.org/1999/xlink" x="0px" y="0px" width="24px" height="24px" viewBox="0 0 24 24"> <path d="M12 9C15.5264 9 18.4424 11.6078 18.9277 15H5.07227C5.55758 11.6078 8.47359 9 12 9Z" fill="black"></path> <path d="M11 1H13V9H11V1Z" fill="#000" data-color="color-2"></path> <path d="M19 0H21V4H19V0Z" fill="black"></path> <path d="M3 0H5V4H3V0Z" fill="black"></path> <path d="M14 7V10H10V7H14Z" fill="black"></path> <path d="M22.5 5.9C22.5 7.22548 21.3807 9.5 20 9.5C18.6193 9.5 17.5 7.22548 17.5 5.9C17.5 4.57452 18.6193 3.5 20 3.5C21.3807 3.5 22.5 4.57452 22.5 5.9Z" fill="#000" data-color="color-2"></path> <path d="M6.5 5.9C6.5 7.22548 5.38071 9.5 4 9.5C2.61929 9.5 1.5 7.22548 1.5 5.9C1.5 4.57452 2.61929 3.5 4 3.5C5.38071 3.5 6.5 4.57452 6.5 5.9Z" fill="#000" data-color="color-2"></path> <path d="M18.9277 17C18.4424 20.3922 15.5264 23 12 23C8.47359 23 5.55758 20.3922 5.07227 17H18.9277Z" fill="#000" data-color="color-2"></path> </svg>