<svg xmlns="http://www.w3.org/2000/svg" xmlns:xlink="http://www.w3.org/1999/xlink" x="0px" y="0px" width="24px" height="24px" viewBox="0 0 24 24"> <path d="M15.401 17C14.3766 17.3137 13.2476 17.5 12 17.5C6.75 17.5 3.6 14.2 1.5 12L5.8935 7.80352C6.71221 6.98372 7.79639 6.5183 8.9288 6.50053C10.0612 6.48275 11.1582 6.91393 12 7.70766C12.8418 6.91393 13.9388 6.48275 15.0712 6.50053C16.2036 6.5183 17.2878 6.98372 18.1065 7.80352L22.5 12C21.5828 12.9609 20.4652 14.1317 19.0598 15.1457" stroke="black" stroke-width="2" stroke-miterlimit="10" data-cap="butt" fill="none"></path> <path d="M12 12L9.97224 11.4931C8.66671 11.1667 7.31557 11.0622 5.97539 11.1841L2.49999 11.5L1.93584 11.561" stroke="black" stroke-width="2" data-cap="butt" fill="none"></path> <path d="M3 21L21 3" stroke="#000" stroke-width="2" stroke-linecap="square" data-color="color-2" fill="none"></path> <path d="M19.0001 20.8284L15.5 17.3284C14.719 16.5474 14.719 15.281 15.5 14.5V14.5V14.5C16.2811 13.7189 17.5474 13.7189 18.3285 14.5L21.8285 18" stroke="#000" stroke-width="2" stroke-linecap="square" data-color="color-2" fill="none"></path> </svg>