<svg xmlns="http://www.w3.org/2000/svg" xmlns:xlink="http://www.w3.org/1999/xlink" x="0px" y="0px" width="24px" height="24px" viewBox="0 0 24 24"> <path d="M16 5V13H23" stroke="black" stroke-width="2" data-cap="butt" fill="none"></path> <path d="M13 5V3C13 1.89543 12.1046 1 11 1V1C9.89543 1 9 1.89543 9 3V5" stroke="#000" stroke-width="2" data-color="color-2" data-cap="butt" fill="none"></path> <path d="M9.00002 19H15" stroke="black" stroke-width="2" data-cap="butt" fill="none"></path> <path d="M4 19H3C1.89543 19 1 18.1046 1 17V12V7C1 5.89543 1.89543 5 3 5H17.1333L22.2848 11.0542C22.7465 11.5968 23 12.2859 23 12.9983V17C23 18.1046 22.1046 19 21 19H20" stroke="black" stroke-width="2" stroke-miterlimit="10" stroke-linecap="square" fill="none"></path> <path d="M6.5 22C7.88071 22 9 20.8807 9 19.5C9 18.1193 7.88071 17 6.5 17C5.11929 17 4 18.1193 4 19.5C4 20.8807 5.11929 22 6.5 22Z" stroke="black" stroke-width="2" stroke-miterlimit="10" stroke-linecap="square" fill="none"></path> <path d="M17.5 22C18.8807 22 20 20.8807 20 19.5C20 18.1193 18.8807 17 17.5 17C16.1193 17 15 18.1193 15 19.5C15 20.8807 16.1193 22 17.5 22Z" stroke="black" stroke-width="2" stroke-miterlimit="10" stroke-linecap="square" fill="none"></path> <path d="M7.5 9V14" stroke="#000" stroke-width="2" stroke-miterlimit="10" stroke-linecap="square" data-color="color-2" fill="none"></path> <path d="M5 11.5H10" stroke="#000" stroke-width="2" stroke-miterlimit="10" stroke-linecap="square" data-color="color-2" fill="none"></path> </svg>