<svg xmlns="http://www.w3.org/2000/svg" xmlns:xlink="http://www.w3.org/1999/xlink" x="0px" y="0px" width="24px" height="24px" viewBox="0 0 24 24"><path d="m5,6h0c-.828,0-1.5-.672-1.5-1.5h0c0-.828.672-1.5,1.5-1.5h0c.828,0,1.5.672,1.5,1.5h0c0,.828-.672,1.5-1.5,1.5Z" stroke="#000" stroke-linecap="square" stroke-miterlimit="10" stroke-width="2" fill="#000"></path><path d="m3.5,21l-.5-5.5-1.5-1,.658-4.384c.057-.377.319-.704.686-.808,1.438-.41,2.876-.41,4.313,0,.367.105.629.431.686.808l.658,4.384-1.5,1-.5,5.5h-3Z" fill="none" stroke="#000" stroke-linecap="square" stroke-miterlimit="10" stroke-width="2"></path><path d="m19,6h0c.828,0,1.5-.672,1.5-1.5h0c0-.828-.672-1.5-1.5-1.5h0c-.828,0-1.5.672-1.5,1.5h0c0,.828.672,1.5,1.5,1.5Z" stroke="#000" stroke-linecap="square" stroke-miterlimit="10" stroke-width="2" fill="#000"></path><path d="m20.5,21l.5-5.5,1.5-1-.658-4.384c-.057-.377-.319-.704-.686-.808-1.438-.41-2.876-.41-4.313,0-.367.105-.629.431-.686.808l-.658,4.384,1.5,1,.5,5.5h3Z" fill="none" stroke="#000" stroke-linecap="square" stroke-miterlimit="10" stroke-width="2"></path><line x1="12" y1="2" x2="12" y2="22" fill="none" stroke="#000" stroke-linecap="square" stroke-miterlimit="10" stroke-width="2" data-color="color-2"></line></svg>