<svg xmlns="http://www.w3.org/2000/svg" xmlns:xlink="http://www.w3.org/1999/xlink" x="0px" y="0px" width="24px" height="24px" viewBox="0 0 24 24"> <path d="M15 22V19C15 17.3431 13.6569 16 12 16V16" stroke="black" stroke-width="2" stroke-linecap="square" fill="none"></path> <path d="M17 11H8.00001C5.79087 11 4.00001 9.20914 4.00001 7V7C4.00001 4.79086 5.79087 3 8.00001 3H17C18.1046 3 19 3.89543 19 5V5C19 6.10457 18.1046 7 17 7H16" stroke="black" stroke-width="2" stroke-linecap="square" fill="none"></path> <path d="M9 7H18.5C20.9853 7 23 9.01472 23 11.5V11.5C23 13.9853 20.9853 16 18.5 16H9" stroke="black" stroke-width="2" stroke-linecap="square" fill="none"></path> <path d="M17 11H7.5C5.01472 11 3 13.0147 3 15.5V15.5C3 17.9853 5.01472 20 7.5 20H11V22" stroke="black" stroke-width="2" stroke-linecap="square" fill="none"></path> </svg>