<svg xmlns="http://www.w3.org/2000/svg" xmlns:xlink="http://www.w3.org/1999/xlink" x="0px" y="0px" width="32px" height="32px" viewBox="0 0 32 32"> <path d="M19.5 22C23.6421 22 27 18.6421 27 14.5C27 10.3579 23.6421 7 19.5 7C15.3579 7 12 10.3579 12 14.5C12 16.7547 12.9949 18.777 14.5697 20.1519L14.5391 20.125" stroke="#000" stroke-width="2" stroke-miterlimit="10" stroke-linecap="square" data-color="color-2" fill="none"></path> <path d="M24.2478 8.75228L31.0001 2" stroke="#000" stroke-width="2" stroke-miterlimit="10" data-color="color-2" fill="none" data-cap="butt"></path> <path d="M9.49992 22L9.5 30.5" stroke="black" stroke-width="2" stroke-miterlimit="10" fill="none" data-cap="butt"></path> <path d="M9.5 22C13.6421 22 17 18.6421 17 14.5C17 10.3579 13.6421 7 9.5 7C5.35786 7 2 10.3579 2 14.5C2 18.6421 5.35786 22 9.5 22Z" stroke="black" stroke-width="2" stroke-miterlimit="10" stroke-linecap="square" fill="none"></path> <path d="M31 7.5V2H25.5" stroke="#000" stroke-width="2" stroke-miterlimit="10" stroke-linecap="square" data-color="color-2" fill="none"></path> <path d="M5.61091 26.6113L9.5 30.5004L13.3891 26.6113" stroke="black" stroke-width="2" stroke-miterlimit="10" stroke-linecap="square" fill="none"></path> </svg>