<svg xmlns="http://www.w3.org/2000/svg" xmlns:xlink="http://www.w3.org/1999/xlink" x="0px" y="0px" width="32px" height="32px" viewBox="0 0 32 32"> <path d="M23 19V25" stroke="black" stroke-width="2" stroke-linecap="square" fill="none"></path> <path d="M28 15V11C28 7.68629 25.3137 5 22 5H21" stroke="#000" stroke-width="2" stroke-linecap="square" data-color="color-2" fill="none"></path> <path d="M23 15V14.2143C23 12.2813 21.433 10.7143 19.5 10.7143V10.7143C17.567 10.7143 16 9.14728 16 7.21429V5" stroke="#000" stroke-width="2" stroke-linecap="square" data-color="color-2" fill="none"></path> <path d="M19.5 25H27C28.1046 25 29 24.1046 29 23V21C29 19.8954 28.1046 19 27 19H15.5" stroke="black" stroke-width="2" stroke-linecap="square" fill="none"></path> <path d="M18 30L5.69014 11" stroke="#000" stroke-width="2" stroke-linecap="square" data-color="color-2" fill="none"></path> <path d="M10 25H3L3 19H6" stroke="black" stroke-width="2" stroke-linecap="square" fill="none"></path> </svg>