<svg xmlns="http://www.w3.org/2000/svg" xmlns:xlink="http://www.w3.org/1999/xlink" x="0px" y="0px" width="32px" height="32px" viewBox="0 0 32 32"> <path d="M16 6.00002V2.00006" stroke="#000" stroke-width="2" data-color="color-2" data-cap="butt" fill="none"></path> <path d="M11 10V6H21V10" stroke="black" stroke-width="2" stroke-linecap="square" fill="none"></path> <path d="M23 2.00004L9.99998 1.99996C7.79085 1.99995 5.99998 3.7908 5.99998 5.99994V5.99994" stroke="#000" stroke-width="2" stroke-linecap="square" data-color="color-2" fill="none"></path> <path d="M5 27V13C5 11.3431 6.34315 10 8 10H24C25.6569 10 27 11.3431 27 13V27C27 28.6569 25.6569 30 24 30H8C6.34315 30 5 28.6569 5 27Z" stroke="black" stroke-width="2" stroke-linecap="square" fill="none"></path> <path d="M14 18L14 14H18L18 18H22L22 22H18V26H14V22H10L10 18H14Z" stroke="#000" stroke-width="2" stroke-linecap="square" data-color="color-2" fill="none"></path> </svg>