<svg xmlns="http://www.w3.org/2000/svg" xmlns:xlink="http://www.w3.org/1999/xlink" x="0px" y="0px" width="32px" height="32px" viewBox="0 0 32 32"> <path d="M18.5085 16.0932L17 13.5L17.3177 14.0461" stroke="#000" stroke-width="2" stroke-linecap="square" data-color="color-2" fill="none"></path> <path d="M4.5 23V23C1.61598 19.5687 2.49019 14.3709 6.338 12.0718L16.5 6" stroke="#000" stroke-width="2" data-color="color-2" data-cap="butt" fill="none"></path> <path d="M29 29.5H3" stroke="black" stroke-width="2" stroke-linecap="square" fill="none"></path> <path d="M14.0381 15.3703L8.75752 6.30104C8.3396 5.58327 8.58451 4.66254 9.3038 4.24725L12.7298 2.26923C13.4454 1.85609 14.3603 2.09945 14.7761 2.81352L20.0622 11.8923L17.0501 13.6313L14.0381 15.3703Z" stroke="black" stroke-width="2" stroke-linecap="square" fill="none"></path> <path d="M25.54 18.5L17.04 23.5" stroke="#000" stroke-width="2" stroke-linecap="square" data-color="color-2" fill="none"></path> <path d="M3 29.5V26.5C3 23.7386 5.23858 21.5 8 21.5V21.5C10.7614 21.5 13 23.7386 13 26.5V29.5" stroke="black" stroke-width="2" stroke-linecap="square" fill="none"></path> </svg>