<svg xmlns="http://www.w3.org/2000/svg" xmlns:xlink="http://www.w3.org/1999/xlink" x="0px" y="0px" width="32px" height="32px" viewBox="0 0 32 32"> <path d="M6.2297 22.2447L7.99746 24.0125L9.76523 25.7802" stroke="#000" stroke-width="2" stroke-linecap="square" data-color="color-2" fill="none"></path> <path d="M15.7814 16.2286L19.3169 12.693" stroke="#000" stroke-width="2" stroke-linecap="square" data-color="color-2" fill="none"></path> <path d="M22.8524 9.15753L23.5595 8.45043" stroke="#000" stroke-width="2" stroke-linecap="square" data-color="color-2" fill="none"></path> <path d="M29.1274 9.24658L18.6011 19.7728L12.7086 22.8369L6.28452 29.261C5.30821 30.2373 3.7253 30.2373 2.74899 29.261C1.77267 28.2847 1.77268 26.7017 2.74899 25.7254L9.17302 19.3014L12.2372 13.4088L22.7634 2.88261C23.935 1.71104 25.8345 1.71104 27.006 2.88261L28.0667 3.94327L29.1273 5.00394C30.2989 6.17551 30.2989 8.075 29.1274 9.24658Z" stroke="black" stroke-width="2" stroke-miterlimit="10" stroke-linecap="square" fill="none"></path> </svg>