<svg xmlns="http://www.w3.org/2000/svg" xmlns:xlink="http://www.w3.org/1999/xlink" x="0px" y="0px" width="32px" height="32px" viewBox="0 0 32 32"> <path d="M6 13V8C6 6.34315 7.34315 5 9 5H23C24.6569 5 26 6.34315 26 8V13" stroke="black" stroke-width="2" stroke-miterlimit="10" stroke-linecap="square" fill="none"></path> <path d="M9 5L10.3333 1L21.6667 1L23 5" stroke="black" stroke-width="2" stroke-miterlimit="10" data-cap="butt" fill="none"></path> <path d="M9 27L10.3333 31H21.6667L23 27" stroke="black" stroke-width="2" stroke-miterlimit="10" data-cap="butt" fill="none"></path> <path d="M3 17H10.2222L13 11L18.5 21.5L21.7778 17H29" stroke="#000" stroke-width="2" stroke-linecap="square" data-color="color-2" fill="none"></path> <path d="M22 9H20" stroke="#000" stroke-width="2" stroke-linecap="square" data-color="color-2" fill="none"></path> <path d="M6 21V24C6 25.6569 7.34315 27 9 27H23C24.6569 27 26 25.6569 26 24V21" stroke="black" stroke-width="2" stroke-miterlimit="10" stroke-linecap="square" fill="none"></path> </svg>