<svg xmlns="http://www.w3.org/2000/svg" xmlns:xlink="http://www.w3.org/1999/xlink" x="0px" y="0px" width="32px" height="32px" viewBox="0 0 32 32"> <path d="M3 4H29" stroke="black" stroke-width="2" stroke-miterlimit="10" stroke-linecap="square" fill="none"></path> <path d="M3 28H29" stroke="black" stroke-width="2" stroke-miterlimit="10" stroke-linecap="square" fill="none"></path> <path d="M9 16.0001C9 16.8285 8.32843 17.5001 7.5 17.5001C6.67157 17.5001 6 16.8285 6 16.0001C6 15.1716 6.67157 14.5001 7.5 14.5001C8.32843 14.5001 9 15.1716 9 16.0001Z" fill="#000" data-color="color-2" data-cap="butt" data-stroke="none"></path> <path d="M13 11.5C13 12.3284 12.3284 13 11.5 13C10.6716 13 10 12.3284 10 11.5C10 10.6716 10.6716 10 11.5 10C12.3284 10 13 10.6716 13 11.5Z" fill="#000" data-color="color-2" data-cap="butt" data-stroke="none"></path> <path d="M17.5 16C17.5 16.8284 16.8284 17.5 16 17.5C15.1716 17.5 14.5 16.8284 14.5 16C14.5 15.1716 15.1716 14.5 16 14.5C16.8284 14.5 17.5 15.1716 17.5 16Z" fill="#000" data-color="color-2" data-cap="butt" data-stroke="none"></path> <circle cx="20.5" cy="20.5" r="1.5" fill="#000" data-color="color-2" data-cap="butt" data-stroke="none"></circle> <path d="M26 16C26 16.8284 25.3284 17.5 24.5 17.5C23.6716 17.5 23 16.8284 23 16C23 15.1716 23.6716 14.5 24.5 14.5C25.3284 14.5 26 15.1716 26 16Z" fill="#000" data-color="color-2" data-cap="butt" data-stroke="none"></path> <circle cx="28.5" cy="11.5" r="1.5" fill="#000" data-color="color-2" data-cap="butt" data-stroke="none"></circle> <circle cx="3.5" cy="20.5" r="1.5" fill="#000" data-color="color-2" data-cap="butt" data-stroke="none"></circle> </svg>