<svg xmlns="http://www.w3.org/2000/svg" xmlns:xlink="http://www.w3.org/1999/xlink" x="0px" y="0px" width="32px" height="32px" viewBox="0 0 32 32"> <path d="M5.52629 22C9.69064 23.9169 12.3706 24.0016 16 22.2519C19.627 20.5034 22.3058 20.5868 26.4655 22.5" stroke="#000" stroke-width="2" data-color="color-2" data-cap="butt" fill="none"></path> <path d="M12 6L12 9.78876C8.18511 11.3618 5.5 15.1173 5.5 19.5C5.5 25.299 10.201 30 16 30C21.799 30 26.5 25.299 26.5 19.5C26.5 15.1173 23.8149 11.3618 20 9.78876L20 6" stroke="black" stroke-width="2" data-cap="butt" fill="none"></path> <path d="M13 19C11.8954 19 11 18.1046 11 17C11 15.8954 11.8954 15 13 15C14.1046 15 15 15.8954 15 17C15 18.1046 14.1046 19 13 19Z" stroke="black" stroke-width="2" data-cap="butt" fill="none"></path> <path d="M23 2H9V6H23V2Z" stroke="black" stroke-width="2" stroke-linecap="square" fill="none"></path> </svg>