<svg xmlns="http://www.w3.org/2000/svg" xmlns:xlink="http://www.w3.org/1999/xlink" x="0px" y="0px" width="48px" height="48px" viewBox="0 0 48 48"> <path d="M24 18.5001C24.8284 18.5001 25.5 17.8285 25.5 17.0001C25.5 16.1717 24.8284 15.5001 24 15.5001C23.1716 15.5001 22.5 16.1717 22.5 17.0001C22.5 17.8285 23.1716 18.5001 24 18.5001Z" fill="black" data-cap="butt" data-stroke="none"></path> <path d="M11.5 3H11.405C13.079 6.78128 13.9621 10.8649 14 15C14 23 7.99999 27 10.408 45H10.2941" stroke="black" stroke-width="2" stroke-linecap="square" fill="none"></path> <path d="M36.5 3H36.6C34.924 6.78081 34.0392 10.8645 34 15C34 23 40 27 37.592 45H37.6724" stroke="black" stroke-width="2" stroke-linecap="square" fill="none"></path> <path d="M24 43V39" stroke="black" stroke-width="2" stroke-linecap="square" fill="none"></path> <path d="M11.671 25C15.7523 25.6209 19.872 25.9551 24 26C28.128 25.9551 32.2478 25.6209 36.329 25" stroke="black" stroke-width="2" data-cap="butt" fill="none"></path> <path d="M24 39C24 39 17.582 31 10.269 31" stroke="black" stroke-width="2" data-cap="butt" fill="none"></path> <path d="M24 39C24 39 30.418 31 37.731 31" stroke="black" stroke-width="2" data-cap="butt" fill="none"></path> <path d="M39.5 18L44.5 14.5L39.5 11V18Z" stroke="#000" stroke-width="2" stroke-linecap="round" data-color="color-2" fill="none"></path> <path d="M8.5 18L3.5 14.5L8.5 11V18Z" stroke="#000" stroke-width="2" stroke-linecap="round" data-color="color-2" fill="none"></path> </svg>