<svg xmlns="http://www.w3.org/2000/svg" xmlns:xlink="http://www.w3.org/1999/xlink" x="0px" y="0px" width="48px" height="48px" viewBox="0 0 48 48"> <path d="M10.5374 37.4624L5.67993 42.3199L5.92693 42.0729" stroke="black" stroke-width="2" stroke-miterlimit="10" stroke-linecap="square" fill="none"></path> <path d="M6.80246 43.7753L4.93157 45.6462C4.7363 45.8415 4.41972 45.8415 4.22446 45.6462L3.31898 44.7407L2.35355 43.7753C2.15829 43.58 2.15829 43.2635 2.35355 43.0682L4.22445 41.1973C4.41972 41.002 4.7363 41.002 4.93156 41.1973L5.89699 42.1627L6.80246 43.0682C6.99773 43.2635 6.99773 43.5801 6.80246 43.7753Z" stroke="black" stroke-width="2" stroke-linecap="square" fill="none"></path> <path d="M20 18.1494L19.7383 17.8877L30.0404 28.1899L29.6953 27.8447" stroke="#000" stroke-width="2" stroke-miterlimit="10" stroke-linecap="square" data-color="color-2" fill="none"></path> <path d="M39.1329 19.2098L39.4508 18.8919L24.9604 33.3823L10.5374 37.5031L14.6603 23.0822L29.1507 8.5918L28.9281 8.81443" stroke="black" stroke-width="2" stroke-miterlimit="10" stroke-linecap="square" fill="none"></path> <path d="M44.9393 15.7779L32.2221 3.06066C31.6363 2.47487 30.6866 2.47487 30.1008 3.06066L27.9209 5.24055C27.3351 5.82633 27.3351 6.77608 27.9209 7.36187L40.6381 20.0791C41.2239 20.6649 42.1737 20.6649 42.7594 20.0791L44.9393 17.8992C45.5251 17.3134 45.5251 16.3637 44.9393 15.7779Z" stroke="#000" stroke-width="2" stroke-miterlimit="10" stroke-linecap="square" data-color="color-2" fill="none"></path> </svg>