<svg xmlns="http://www.w3.org/2000/svg" xmlns:xlink="http://www.w3.org/1999/xlink" x="0px" y="0px" width="48px" height="48px" viewBox="0 0 48 48"> <path d="M18 3V8C18 11.3137 20.6863 14 24 14H26" stroke="black" stroke-width="2" stroke-linecap="square" fill="none"></path> <path d="M30 45V41C30 37.6863 27.3137 35 24 35H22" stroke="black" stroke-width="2" stroke-linecap="square" fill="none"></path> <path d="M32 14H14C10.134 14 7 17.134 7 21V21C7 24.866 10.134 28 14 28H32" stroke="black" stroke-width="2" stroke-linecap="square" fill="none"></path> <path d="M25.3333 21H32C35.866 21 39 17.866 39 14V14C39 10.134 35.866 7 32 7H26V3" stroke="black" stroke-width="2" stroke-linecap="square" fill="none"></path> <path d="M17 21C23.497 21 31.4255 21 37.0048 21C40.8708 21 44 24.134 44 28V28C44 31.866 40.866 35 37 35H16" stroke="black" stroke-width="2" stroke-linecap="square" fill="none"></path> <path d="M33 28H10.5C6.91015 28 4 30.9101 4 34.5V34.5C4 38.0899 6.91015 41 10.5 41H22V45" stroke="black" stroke-width="2" stroke-linecap="square" fill="none"></path> </svg>