<svg xmlns="http://www.w3.org/2000/svg" xmlns:xlink="http://www.w3.org/1999/xlink" x="0px" y="0px" width="48px" height="48px" viewBox="0 0 48 48"> <path d="M24 8.99994L24 3" stroke="#000" stroke-width="2" data-color="color-2" data-cap="butt" fill="none"></path> <path d="M16 15V9H32V15" stroke="black" stroke-width="2" stroke-linecap="square" fill="none"></path> <path d="M34 3H13C10.2386 3 8 5.23858 8 8V9" stroke="#000" stroke-width="2" stroke-linecap="square" data-color="color-2" fill="none"></path> <path d="M21 27L21 22H27L27 27H32L32 33H27V38H21V33H16L16 27H21Z" stroke="#000" stroke-width="2" stroke-linecap="square" data-color="color-2" fill="none"></path> <path d="M8 40V20C8 17.2386 10.2386 15 13 15H35C37.7614 15 40 17.2386 40 20V40C40 42.7614 37.7614 45 35 45H13C10.2386 45 8 42.7614 8 40Z" stroke="black" stroke-width="2" stroke-linecap="square" fill="none"></path> </svg>