<svg xmlns="http://www.w3.org/2000/svg" xmlns:xlink="http://www.w3.org/1999/xlink" x="0px" y="0px" width="18px" height="18px" viewBox="0 0 18 18"><path d="M9,1c-.414,0-.75,.336-.75,.75s.336,.75,.75,.75c3.584,0,6.5,2.916,6.5,6.5s-2.916,6.5-6.5,6.5-6.5-2.916-6.5-6.5c0-1.282,.373-2.522,1.078-3.585,.229-.345,.135-.811-.21-1.04-.344-.228-.81-.135-1.04,.21-.869,1.31-1.328,2.836-1.328,4.415,0,4.411,3.589,8,8,8s8-3.589,8-8S13.411,1,9,1Z" fill="#000"></path><path d="M9,14c2.757,0,5-2.243,5-5s-2.243-5-5-5c-.414,0-.75,.336-.75,.75s.336,.75,.75,.75c1.93,0,3.5,1.57,3.5,3.5s-1.57,3.5-3.5,3.5-3.5-1.57-3.5-3.5c0-.414-.336-.75-.75-.75s-.75,.336-.75,.75c0,2.757,2.243,5,5,5Z" fill="#000" data-color="color-2"></path><path d="M9,9.5c-.414,0-.75,.336-.75,.75s.336,.75,.75,.75c1.103,0,2-.897,2-2s-.897-2-2-2c-.414,0-.75,.336-.75,.75s.336,.75,.75,.75c.276,0,.5,.224,.5,.5s-.224,.5-.5,.5Z" fill="#000"></path></svg>