<svg xmlns="http://www.w3.org/2000/svg" xmlns:xlink="http://www.w3.org/1999/xlink" x="0px" y="0px" width="18px" height="18px" viewBox="0 0 18 18"><rect x="1.5" y="2" width="4" height="14" rx="1.75" ry="1.75" fill="#000"></rect><rect x="7" y="7" width="4" height="9" rx="1.75" ry="1.75" fill="#000"></rect><rect x="12.5" y="11" width="4" height="5" rx="1.75" ry="1.75" fill="#000"></rect><path d="M15.25,9.5c.414,0,.75-.336,.75-.75v-2.5c0-.414-.336-.75-.75-.75s-.75,.336-.75,.75v.689L9.78,2.22c-.293-.293-.768-.293-1.061,0s-.293,.768,0,1.061l4.72,4.72h-.689c-.414,0-.75,.336-.75,.75s.336,.75,.75,.75h2.5Z" fill="#000" data-color="color-2"></path></svg>