<svg xmlns="http://www.w3.org/2000/svg" xmlns:xlink="http://www.w3.org/1999/xlink" x="0px" y="0px" width="18px" height="18px" viewBox="0 0 18 18"><path d="M6.033,6.74c.489-.487,1.281-.486,1.767,0l3.283,3.284,4.917-4.917v-.356c0-1.517-1.233-2.75-2.75-2.75H4.75c-1.517,0-2.75,1.233-2.75,2.75v6.023L6.033,6.74Z" fill="#000"></path><path d="M11.967,11.26c-.488,.487-1.28,.486-1.767,0l-3.283-3.284L2,12.894v.356c0,1.517,1.233,2.75,2.75,2.75H13.25c1.517,0,2.75-1.233,2.75-2.75V7.227l-4.033,4.033Z" fill="#000" data-color="color-2"></path></svg>