<svg xmlns="http://www.w3.org/2000/svg" xmlns:xlink="http://www.w3.org/1999/xlink" x="0px" y="0px" width="12px" height="12px" viewBox="0 0 12 12"><path d="m10.311,2.75l1.47-1.47c.293-.293.293-.768,0-1.061s-.768-.293-1.061,0l-5.733,5.733c-.293.293-.293.768,0,1.061.146.146.338.22.53.22s.384-.073.53-.22l3.203-3.203,1.47,1.47c.146.146.338.22.53.22s.384-.073.53-.22c.293-.293.293-.768,0-1.061l-1.47-1.47Z" fill="#000" stroke-width="0" data-color="color-2"></path><circle cx="3.5" cy="8.5" r="3.5" stroke-width="0" fill="#000"></circle></svg>