<svg xmlns="http://www.w3.org/2000/svg" xmlns:xlink="http://www.w3.org/1999/xlink" x="0px" y="0px" width="18px" height="18px" viewBox="0 0 18 18"><path d="M11,12H7c-.414,0-.75,.336-.75,.75s.336,.75,.75,.75h4c.414,0,.75-.336,.75-.75s-.336-.75-.75-.75Z" fill="#000" data-color="color-2"></path><path d="M17.25,12h-4c-.414,0-.75,.336-.75,.75s.336,.75,.75,.75h4c.414,0,.75-.336,.75-.75s-.336-.75-.75-.75Z" fill="#000" data-color="color-2"></path><path d="M4.75,12H.75c-.414,0-.75,.336-.75,.75s.336,.75,.75,.75H4.75c.414,0,.75-.336,.75-.75s-.336-.75-.75-.75Z" fill="#000" data-color="color-2"></path><path d="M.527,7.566l1.009,.328-.624,.858c-.244,.335-.17,.804,.166,1.048,.133,.097,.287,.143,.439,.143,.232,0,.461-.107,.607-.309l.624-.859,.624,.859c.146,.202,.375,.309,.607,.309,.152,0,.307-.046,.439-.143,.336-.244,.41-.712,.166-1.048l-.624-.858,1.009-.328c.395-.128,.609-.551,.481-.945-.127-.394-.546-.61-.944-.481l-1.01,.328v-1.062c0-.414-.336-.75-.75-.75s-.75,.336-.75,.75v1.062l-1.01-.328c-.394-.127-.816,.087-.944,.481-.128,.394,.087,.817,.481,.945Z" fill="#000"></path><path d="M6.777,7.566l1.009,.328-.624,.858c-.244,.335-.17,.804,.166,1.048,.133,.097,.287,.143,.439,.143,.232,0,.461-.107,.607-.309l.624-.859,.624,.859c.146,.202,.375,.309,.607,.309,.152,0,.307-.046,.439-.143,.336-.244,.41-.712,.166-1.048l-.624-.858,1.009-.328c.395-.128,.609-.551,.481-.945-.127-.394-.545-.61-.944-.481l-1.01,.328v-1.062c0-.414-.336-.75-.75-.75s-.75,.336-.75,.75v1.062l-1.01-.328c-.395-.127-.816,.087-.944,.481-.128,.394,.087,.817,.481,.945Z" fill="#000"></path><path d="M13.027,7.566l1.009,.328-.624,.858c-.244,.335-.17,.804,.166,1.048,.133,.097,.287,.143,.439,.143,.232,0,.461-.107,.607-.309l.624-.859,.624,.859c.146,.202,.375,.309,.607,.309,.152,0,.307-.046,.439-.143,.336-.244,.41-.712,.166-1.048l-.624-.858,1.009-.328c.395-.128,.609-.551,.481-.945-.127-.394-.547-.61-.944-.481l-1.01,.328v-1.062c0-.414-.336-.75-.75-.75s-.75,.336-.75,.75v1.062l-1.01-.328c-.393-.127-.816,.087-.944,.481-.128,.394,.087,.817,.481,.945Z" fill="#000"></path></svg>