<svg xmlns="http://www.w3.org/2000/svg" xmlns:xlink="http://www.w3.org/1999/xlink" x="0px" y="0px" width="18px" height="18px" viewBox="0 0 18 18"><path d="M1.75 13.75L3.5 11.75L5.25 13.75V15.25C5.25 15.802 4.802 16.25 4.25 16.25H2.75C2.198 16.25 1.75 15.802 1.75 15.25V13.75Z" fill="#000" fill-opacity="0.3" data-color="color-2" data-stroke="none"></path> <path d="M12.75 13.75L14.5 11.75L16.25 13.75V15.25C16.25 15.802 15.802 16.25 15.25 16.25H13.75C13.198 16.25 12.75 15.802 12.75 15.25V13.75Z" fill="#000" fill-opacity="0.3" data-color="color-2" data-stroke="none"></path> <path d="M3.25 9.25V3.75" stroke="black" stroke-width="1.5" stroke-linecap="round" stroke-linejoin="round" fill="none"></path> <path d="M15.25 9.25V1.75" stroke="black" stroke-width="1.5" stroke-linecap="round" stroke-linejoin="round" fill="none"></path> <path d="M12.25 9.25V2.75" stroke="black" stroke-width="1.5" stroke-linecap="round" stroke-linejoin="round" fill="none"></path> <path d="M9.25 9.25V5.75" stroke="black" stroke-width="1.5" stroke-linecap="round" stroke-linejoin="round" fill="none"></path> <path d="M6.25 9.25V1.75" stroke="black" stroke-width="1.5" stroke-linecap="round" stroke-linejoin="round" fill="none"></path> <path d="M1.75 13.75L3.5 11.75L5.25 13.75V15.25C5.25 15.802 4.802 16.25 4.25 16.25H2.75C2.198 16.25 1.75 15.802 1.75 15.25V13.75Z" stroke="black" stroke-width="1.5" stroke-linecap="round" stroke-linejoin="round" fill="none"></path> <path d="M12.75 13.75L14.5 11.75L16.25 13.75V15.25C16.25 15.802 15.802 16.25 15.25 16.25H13.75C13.198 16.25 12.75 15.802 12.75 15.25V13.75Z" stroke="black" stroke-width="1.5" stroke-linecap="round" stroke-linejoin="round" fill="none"></path></svg>