<svg xmlns="http://www.w3.org/2000/svg" xmlns:xlink="http://www.w3.org/1999/xlink" x="0px" y="0px" width="18px" height="18px" viewBox="0 0 18 18"><path d="M11.652 8.56801L8.00101 6.43901C7.66801 6.24501 7.24899 6.48501 7.24899 6.87101V11.13C7.24899 11.516 7.66801 11.756 8.00101 11.562L11.652 9.43301C11.983 9.24001 11.983 8.76101 11.652 8.56801Z" fill="#000" fill-opacity="0.3" data-color="color-2" data-stroke="none"></path> <path d="M11.652 8.56801L8.00101 6.43901C7.66801 6.24501 7.24899 6.48501 7.24899 6.87101V11.13C7.24899 11.516 7.66801 11.756 8.00101 11.562L11.652 9.43301C11.983 9.24001 11.983 8.76101 11.652 8.56801Z" stroke="black" stroke-width="1.5" stroke-linecap="round" stroke-linejoin="round" fill="none"></path> <path d="M1.75 3.25L2.28999 6.25C3.37299 3.61 5.969 1.75 9 1.75C13.004 1.75 16.25 5 16.25 9C16.25 13 13.004 16.25 9 16.25C5.0635 16.25 1.85961 13.1086 1.75281 9.2016" stroke="black" stroke-width="1.5" stroke-linecap="round" stroke-linejoin="round" fill="none"></path></svg>