<svg xmlns="http://www.w3.org/2000/svg" xmlns:xlink="http://www.w3.org/1999/xlink" x="0px" y="0px" width="18px" height="18px" viewBox="0 0 18 18"><path d="M9 12.25C10.7949 12.25 12.25 10.7949 12.25 9C12.25 7.20507 10.7949 5.75 9 5.75C7.20507 5.75 5.75 7.20507 5.75 9C5.75 10.7949 7.20507 12.25 9 12.25Z" fill="#000" fill-opacity="0.3" data-color="color-2" data-stroke="none"></path> <path d="M9 12.25C10.7949 12.25 12.25 10.7949 12.25 9C12.25 7.20507 10.7949 5.75 9 5.75C7.20507 5.75 5.75 7.20507 5.75 9C5.75 10.7949 7.20507 12.25 9 12.25Z" stroke="black" stroke-width="1.5" stroke-linecap="round" stroke-linejoin="round" fill="none"></path> <path d="M2.75 2.75L4.5 4.5" stroke="black" stroke-width="1.5" stroke-linecap="round" stroke-linejoin="round" fill="none"></path> <path d="M15.25 2.75L13.5 4.5" stroke="black" stroke-width="1.5" stroke-linecap="round" stroke-linejoin="round" fill="none"></path> <path d="M15.25 15.25L13.5 13.5" stroke="black" stroke-width="1.5" stroke-linecap="round" stroke-linejoin="round" fill="none"></path> <path d="M2.75 15.25L4.5 13.5" stroke="black" stroke-width="1.5" stroke-linecap="round" stroke-linejoin="round" fill="none"></path></svg>