<svg xmlns="http://www.w3.org/2000/svg" xmlns:xlink="http://www.w3.org/1999/xlink" x="0px" y="0px" width="18px" height="18px" viewBox="0 0 18 18"><path d="M3.44799 4.75H14.552C15.176 4.75 15.647 5.315 15.536 5.929L13.9 14.929C13.814 15.404 13.399 15.75 12.916 15.75H5.08499C4.60199 15.75 4.18799 15.404 4.10099 14.929L2.46399 5.929C2.35199 5.315 2.82399 4.75 3.44799 4.75Z" fill="#000" fill-opacity="0.3" data-color="color-2" data-stroke="none"></path> <path d="M13.75 1.75H4.25" stroke="black" stroke-width="1.5" stroke-linecap="round" stroke-linejoin="round" fill="none"></path> <path d="M3.44799 4.75H14.552C15.176 4.75 15.647 5.315 15.536 5.929L13.9 14.929C13.814 15.404 13.399 15.75 12.916 15.75H5.08499C4.60199 15.75 4.18799 15.404 4.10099 14.929L2.46399 5.929C2.35199 5.315 2.82399 4.75 3.44799 4.75Z" stroke="black" stroke-width="1.5" stroke-linecap="round" stroke-linejoin="round" fill="none"></path></svg>