<svg xmlns="http://www.w3.org/2000/svg" xmlns:xlink="http://www.w3.org/1999/xlink" x="0px" y="0px" width="18px" height="18px" viewBox="0 0 18 18"><path d="m5.818,6.098c1.757-1.757,4.607-1.757,6.364,0" fill="none" stroke="#000" stroke-linecap="round" stroke-linejoin="round" stroke-width="1.5"></path><path d="m3.697,3.977c2.929-2.929,7.678-2.929,10.607,0" fill="none" stroke="#000" stroke-linecap="round" stroke-linejoin="round" stroke-width="1.5"></path><path d="m4.25,17v-6.25c0-1.1046.8954-2,2-2h5.5c1.1046,0,2,.8954,2,2v6.25H4.25Z" fill="#000" opacity=".3" stroke-width="0" data-color="color-2"></path><path d="m4.25,16.25v-5.5c0-1.1046.8954-2,2-2h5.5c1.1046,0,2,.8954,2,2v5.5" fill="none" stroke="#000" stroke-linecap="round" stroke-linejoin="round" stroke-width="1.5"></path><circle cx="7.25" cy="12" r="1" stroke-width="0" fill="#000"></circle><circle cx="10.75" cy="12" r="1" stroke-width="0" fill="#000"></circle><circle cx="7.25" cy="15.5" r="1" stroke-width="0" fill="#000"></circle><circle cx="10.75" cy="15.5" r="1" stroke-width="0" fill="#000"></circle></svg>