<svg xmlns="http://www.w3.org/2000/svg" xmlns:xlink="http://www.w3.org/1999/xlink" x="0px" y="0px" width="24px" height="24px" viewBox="0 0 24 24"> <path d="M12 15.071C13.6569 15.071 15 13.7279 15 12.071C15 10.4142 13.6569 9.07104 12 9.07104C10.3431 9.07104 9 10.4142 9 12.071C9 13.7279 10.3431 15.071 12 15.071Z" stroke="black" stroke-width="2" stroke-miterlimit="10" stroke-linecap="square" fill="none"></path> <path d="M6.75736 7.82837C5.67157 8.91416 5 10.4142 5 12.071C5 13.7279 5.67157 15.2279 6.75736 16.3137" stroke="#000" stroke-width="2" stroke-linecap="square" data-color="color-2" fill="none"></path> <path d="M20.0711 5C21.8807 6.80964 23 9.30964 23 12.0711C23 14.8325 21.8807 17.3325 20.0711 19.1421" stroke="#000" stroke-width="2" stroke-linecap="square" data-color="color-2" fill="none"></path> <path d="M3.92893 5C2.11929 6.80964 1 9.30964 1 12.0711C1 14.8325 2.11929 17.3325 3.92893 19.1421" stroke="#000" stroke-width="2" stroke-linecap="square" data-color="color-2" fill="none"></path> <path d="M17.2426 7.82837C18.3284 8.91416 19 10.4142 19 12.071C19 13.7279 18.3284 15.2279 17.2426 16.3137" stroke="#000" stroke-width="2" stroke-linecap="square" data-color="color-2" fill="none"></path> </svg>