<svg xmlns="http://www.w3.org/2000/svg" xmlns:xlink="http://www.w3.org/1999/xlink" x="0px" y="0px" width="32px" height="32px" viewBox="0 0 32 32"> <path d="M3 16H29" stroke="black" stroke-width="2" data-cap="butt" fill="none"></path> <path d="M20 20V23" stroke="#000" stroke-width="2" stroke-linecap="square" data-color="color-2" fill="none"></path> <path d="M24 20V23" stroke="#000" stroke-width="2" stroke-linecap="square" data-color="color-2" fill="none"></path> <path d="M16 20V23" stroke="#000" stroke-width="2" stroke-linecap="square" data-color="color-2" fill="none"></path> <path d="M8 20V23" stroke="#000" stroke-width="2" stroke-linecap="square" data-color="color-2" fill="none"></path> <path d="M12 20V23" stroke="#000" stroke-width="2" stroke-linecap="square" data-color="color-2" fill="none"></path> <path d="M3 20H29" stroke="black" stroke-width="2" stroke-linecap="square" fill="none"></path> <path d="M6 29L26 29C27.6569 29 29 27.6569 29 26L29 15.2886C29 13.2952 27.7193 11.5274 25.8252 10.9062L23.7071 10.2116C21.5295 9.49753 19.6779 8.03052 18.4846 6.07402L18.4338 5.99067C16.9222 3.51217 14.2288 2 11.3257 2C6.72755 2 3 5.72755 3 10.3257L3 26C3 27.6569 4.34315 29 6 29Z" stroke="black" stroke-width="2" stroke-miterlimit="10" stroke-linecap="square" fill="none"></path> </svg>