<svg xmlns="http://www.w3.org/2000/svg" xmlns:xlink="http://www.w3.org/1999/xlink" x="0px" y="0px" width="32px" height="32px" viewBox="0 0 32 32"> <path d="M10 17V22" stroke="#000" stroke-width="2" stroke-linecap="square" data-color="color-2" fill="none"></path> <path d="M6 17V22" stroke="#000" stroke-width="2" stroke-linecap="square" data-color="color-2" fill="none"></path> <path d="M14 17V22" stroke="#000" stroke-width="2" stroke-linecap="square" data-color="color-2" fill="none"></path> <path d="M22 17V22" stroke="#000" stroke-width="2" stroke-linecap="square" data-color="color-2" fill="none"></path> <path d="M18 17V22" stroke="#000" stroke-width="2" stroke-linecap="square" data-color="color-2" fill="none"></path> <path d="M26 17V22" stroke="#000" stroke-width="2" stroke-linecap="square" data-color="color-2" fill="none"></path> <path d="M2 17H30" stroke="black" stroke-width="2" stroke-linecap="square" fill="none"></path> <path d="M7 9H17" stroke="black" stroke-width="2" stroke-linecap="square" fill="none"></path> <path d="M7 13H7.01" stroke="black" stroke-width="2" stroke-linecap="square" fill="none"></path> <path d="M13 13H13.01" stroke="black" stroke-width="2" stroke-linecap="square" fill="none"></path> <path d="M19 13H19.01" stroke="black" stroke-width="2" stroke-linecap="square" fill="none"></path> <path d="M25 13H25.01" stroke="black" stroke-width="2" stroke-linecap="square" fill="none"></path> <path d="M21 9H25" stroke="black" stroke-width="2" stroke-linecap="square" fill="none"></path> <path d="M30 24L30 8C30 6.34315 28.6569 5 27 5L5 5C3.34315 5 2 6.34314 2 8L2 24C2 25.6569 3.34314 27 5 27L27 27C28.6569 27 30 25.6569 30 24Z" stroke="black" stroke-width="2" stroke-miterlimit="10" stroke-linecap="square" fill="none"></path> </svg>