<svg xmlns="http://www.w3.org/2000/svg" xmlns:xlink="http://www.w3.org/1999/xlink" x="0px" y="0px" width="48px" height="48px" viewBox="0 0 48 48"> <path d="M29 43.5L17 33H8C5.23858 33 3 30.7614 3 28V20C3 17.2386 5.23858 15 8 15H17L29 4.5V43.5Z" stroke="black" stroke-width="2" stroke-miterlimit="10" stroke-linecap="square" fill="none"></path> <path d="M40.6066 13.3934C43.3211 16.1078 45 19.8578 45 24C45 28.1421 43.3211 31.8921 40.6066 34.6066" stroke="#000" stroke-width="2" stroke-linecap="square" data-color="color-2" fill="none"></path> <path d="M33.5355 27.5355C34.4404 26.6307 35 25.3807 35 24C35 22.6192 34.4404 21.3692 33.5355 20.4644" stroke="#000" stroke-width="2" stroke-linecap="square" data-color="color-2" fill="none"></path> <path d="M37.0711 16.9289C38.8807 18.7385 40 21.2385 40 24C40 26.7614 38.8807 29.2614 37.0711 31.071" stroke="#000" stroke-width="2" stroke-linecap="square" data-color="color-2" fill="none"></path> </svg>