<svg xmlns="http://www.w3.org/2000/svg" xmlns:xlink="http://www.w3.org/1999/xlink" x="0px" y="0px" width="48px" height="48px" viewBox="0 0 48 48"> <path d="M7 14L20 14" stroke="#000" stroke-width="2" stroke-linecap="square" data-color="color-2" fill="none"></path> <path d="M7 21L20 21" stroke="#000" stroke-width="2" stroke-linecap="square" data-color="color-2" fill="none"></path> <path d="M7 7L13 7" stroke="#000" stroke-width="2" stroke-linecap="square" data-color="color-2" fill="none"></path> <path d="M33 33.9365V36V6L35.2211 7.48076C37.6851 9.12343 40.5803 10 43.5416 10H45V19H41.8581C39.9697 19 38.0982 18.6434 36.3421 17.949L33.2881 16.7412" stroke="black" stroke-width="2" stroke-miterlimit="10" stroke-linecap="square" fill="none"></path> <path d="M25 43C29.4183 43 33 39.866 33 36C33 32.134 29.4183 29 25 29C20.5817 29 17 32.134 17 36C17 39.866 20.5817 43 25 43Z" stroke="black" stroke-width="2" stroke-miterlimit="10" stroke-linecap="square" fill="none"></path> </svg>