<svg xmlns="http://www.w3.org/2000/svg" xmlns:xlink="http://www.w3.org/1999/xlink" x="0px" y="0px" width="20px" height="20px" viewBox="0 0 20 20"><path d="m17.121,5.808l-2.929-2.929c-.566-.567-1.32-.879-2.121-.879h-4.143c-.801,0-1.555.312-2.121.879l-2.929,2.929c-.567.566-.879,1.32-.879,2.121v4.143c0,.801.312,1.555.879,2.121l2.929,2.929c.566.567,1.32.879,2.121.879h4.143c.801,0,1.555-.312,2.121-.879l2.929-2.929c.567-.566.879-1.32.879-2.121v-4.143c0-.801-.312-1.555-.879-2.121Zm-2.837,1.813l-4.75,6c-.183.231-.458.37-.753.379-.01,0-.021,0-.031,0-.283,0-.554-.12-.743-.331l-2.25-2.5c-.369-.411-.336-1.043.074-1.412.411-.37,1.042-.336,1.412.074l1.458,1.62,4.015-5.071c.343-.432.971-.506,1.405-.164.433.343.506.972.163,1.405Z" stroke-width="0" fill="#000"></path></svg>