<svg xmlns="http://www.w3.org/2000/svg" xmlns:xlink="http://www.w3.org/1999/xlink" x="0px" y="0px" width="20px" height="20px" viewBox="0 0 20 20"><polyline points="7 10.5 9 12.5 13 7.5" fill="none" stroke="#000" stroke-linecap="round" stroke-linejoin="round" stroke-width="2" data-color="color-2"></polyline><path d="m6.451,3.965c.285-.167.585-.316.899-.444s.632-.233.952-.313" fill="none" stroke="#000" stroke-linecap="round" stroke-linejoin="round" stroke-width="2" data-color="color-2"></path><path d="m8.243,16.777c-.319-.083-.637-.19-.95-.321s-.612-.283-.895-.452" fill="none" stroke="#000" stroke-linecap="round" stroke-linejoin="round" stroke-width="2" data-color="color-2"></path><path d="m3.965,13.549c-.167-.285-.316-.585-.444-.899s-.233-.632-.313-.952" fill="none" stroke="#000" stroke-linecap="round" stroke-linejoin="round" stroke-width="2" data-color="color-2"></path><path d="m3.223,8.243c.083-.319.19-.637.321-.95s.283-.612.452-.895" fill="none" stroke="#000" stroke-linecap="round" stroke-linejoin="round" stroke-width="2" data-color="color-2"></path><path d="m11.758,3.222c3.015.78,5.242,3.519,5.242,6.778,0,3.28-2.256,6.034-5.302,6.793" fill="none" stroke="#000" stroke-linecap="round" stroke-linejoin="round" stroke-width="2"></path></svg>