<svg xmlns="http://www.w3.org/2000/svg" xmlns:xlink="http://www.w3.org/1999/xlink" x="0px" y="0px" width="20px" height="20px" viewBox="0 0 20 20"><line x1="10" y1="14" x2="10" y2="9.5" fill="none" stroke="#000" stroke-linecap="round" stroke-linejoin="round" stroke-width="2"></line><path d="m10,7.5c-.689,0-1.25-.561-1.25-1.25s.561-1.25,1.25-1.25,1.25.561,1.25,1.25-.561,1.25-1.25,1.25Zm0-1.249h.006-.006Zm0,0h.006-.006Zm0,0h.006-.006Zm0,0h.006-.006Zm0,0h.006-.006Zm0,0h.006-.006Zm0,0h.006-.006Zm0,0h.006-.006Z" stroke-width="0" fill="#000"></path><path d="m9.648,3.018c-3.701.185-6.648,3.235-6.648,6.982,0,3.866,3.134,7,7,7,3.747,0,6.797-2.946,6.982-6.647" fill="none" stroke="#000" stroke-linecap="round" stroke-linejoin="round" stroke-width="2"></path><polygon points="16 1 16.75 3.25 19 4 16.75 4.75 16 7 15.25 4.75 13 4 15.25 3.25 16 1" fill="#000" stroke="#000" stroke-linecap="round" stroke-linejoin="round" stroke-width="2" data-color="color-2"></polygon></svg>