<svg xmlns="http://www.w3.org/2000/svg" xmlns:xlink="http://www.w3.org/1999/xlink" x="0px" y="0px" width="20px" height="20px" viewBox="0 0 20 20"><polygon points="12.5 3 10 6 7.5 3 12.5 3" fill="#000" stroke="#000" stroke-linecap="round" stroke-linejoin="round" stroke-width="2" data-color="color-2"></polygon><path d="m15,9H5c-2.206,0-4,1.794-4,4s1.794,4,4,4h10c2.206,0,4-1.794,4-4s-1.794-4-4-4Zm-5,5h-5c-.552,0-1-.448-1-1s.448-1,1-1h5c.552,0,1,.448,1,1s-.448,1-1,1Z" stroke-width="0" fill="#000"></path></svg>