<svg xmlns="http://www.w3.org/2000/svg" xmlns:xlink="http://www.w3.org/1999/xlink" x="0px" y="0px" width="20px" height="20px" viewBox="0 0 20 20"><path d="m14,2H6c-2.206,0-4,1.794-4,4v8c0,2.206,1.794,4,4,4h8c2.206,0,4-1.794,4-4V6c0-2.206-1.794-4-4-4Zm-4,13.5c-.69,0-1.25-.56-1.25-1.25s.56-1.25,1.25-1.25,1.25.56,1.25,1.25-.56,1.25-1.25,1.25Zm1.668-5.12c-.466.331-.622.467-.685.805-.09.48-.51.815-.982.815-.061,0-.123-.006-.185-.018-.543-.102-.9-.624-.799-1.167.218-1.16.985-1.705,1.492-2.066.513-.364.634-.467.634-.912,0-.776-.641-.837-.837-.837-.988,0-1.227.656-1.305.872-.189.52-.765.786-1.282.598-.519-.188-.787-.763-.598-1.281.499-1.37,1.689-2.188,3.185-2.188,1.375,0,2.837.994,2.837,2.837,0,1.494-.888,2.125-1.475,2.543Z" stroke-width="0" fill="#000"></path></svg>