<svg xmlns="http://www.w3.org/2000/svg" xmlns:xlink="http://www.w3.org/1999/xlink" x="0px" y="0px" width="20px" height="20px" viewBox="0 0 20 20"><path d="m14,2H6c-2.206,0-4,1.794-4,4v8c0,2.206,1.794,4,4,4h8c2.206,0,4-1.794,4-4V6c0-2.206-1.794-4-4-4Zm-5,12c0,.553-.448,1-1,1h-2c-.552,0-1-.447-1-1v-2c0-.553.448-1,1-1h2c.552,0,1,.447,1,1v2Zm0-6c0,.553-.448,1-1,1h-2c-.552,0-1-.447-1-1v-2c0-.553.448-1,1-1h2c.552,0,1,.447,1,1v2Zm6,6c0,.553-.448,1-1,1h-2c-.552,0-1-.447-1-1v-2c0-.553.448-1,1-1h2c.552,0,1,.447,1,1v2Zm0-6c0,.553-.448,1-1,1h-2c-.552,0-1-.447-1-1v-2c0-.553.448-1,1-1h2c.552,0,1,.447,1,1v2Z" stroke-width="0" fill="#000"></path></svg>