<svg xmlns="http://www.w3.org/2000/svg" xmlns:xlink="http://www.w3.org/1999/xlink" x="0px" y="0px" width="20px" height="20px" viewBox="0 0 20 20"><path d="m6,5.946l-2.684-.895c-.307-.101-.64-.051-.901.138-.261.188-.415.49-.415.811v8c0,.321.154.623.415.811.173.125.378.189.585.189.106,0,.213-.017.316-.051l2.684-.895V5.946Z" fill="#000" stroke-width="0" data-color="color-2"></path><path d="m14,5.946l2.684-.895c.307-.101.64-.051.901.138.261.188.415.49.415.811v8c0,.321-.154.623-.415.811-.173.125-.378.189-.585.189-.106,0-.213-.017-.316-.051l-2.684-.895V5.946Z" fill="#000" stroke-width="0" data-color="color-2"></path><rect x="4" y="6" width="12" height="8" rx="1" ry="1" transform="translate(20) rotate(90)" fill="none" stroke="#000" stroke-linecap="round" stroke-linejoin="round" stroke-width="2"></rect></svg>