<svg xmlns="http://www.w3.org/2000/svg" xmlns:xlink="http://www.w3.org/1999/xlink" x="0px" y="0px" width="20px" height="20px" viewBox="0 0 20 20"><path d="m14,3H6c-1.657,0-3,1.343-3,3v2h14v-2c0-1.657-1.343-3-3-3Zm-8,3c-.552,0-1-.448-1-1s.448-1,1-1,1,.448,1,1-.448,1-1,1Zm3,0c-.552,0-1-.448-1-1s.448-1,1-1,1,.448,1,1-.448,1-1,1Z" stroke-width="0" fill="#000"></path><line x1="15" y1="17" x2="15" y2="11" fill="none" stroke="#000" stroke-linecap="round" stroke-linejoin="round" stroke-width="2" data-color="color-2"></line><path d="m17,8.134v-2.134c0-1.657-1.343-3-3-3H6c-1.657,0-3,1.343-3,3v8c0,1.657,1.343,3,3,3h4.051l-.025-.025" fill="none" stroke="#000" stroke-linecap="round" stroke-linejoin="round" stroke-width="2"></path><polyline points="12.5 14.5 15 17 17.5 14.5" fill="none" stroke="#000" stroke-linecap="round" stroke-linejoin="round" stroke-width="2" data-color="color-2"></polyline></svg>