<svg xmlns="http://www.w3.org/2000/svg" xmlns:xlink="http://www.w3.org/1999/xlink" x="0px" y="0px" width="20px" height="20px" viewBox="0 0 20 20"><path d="m10,2C5.589,2,2,5.589,2,10s3.589,8,8,8,8-3.589,8-8S14.411,2,10,2Zm2.828,3.757c.391-.391,1.024-.391,1.414,0,.391.391.391,1.024,0,1.414-.391.391-1.024.391-1.414,0s-.391-1.024,0-1.414Zm-8.828,4.243c0-.552.448-1,1-1s1,.448,1,1-.448,1-1,1-1-.448-1-1Zm3.172,4.243c-.391.391-1.024.391-1.414,0-.391-.391-.391-1.024,0-1.414.391-.391,1.024-.391,1.414,0s.391,1.024,0,1.414Zm2.828,1.757c-.552,0-1-.448-1-1s.448-1,1-1,1,.448,1,1-.448,1-1,1Zm.707-5.293c-.195.195-.451.293-.707.293s-.512-.098-.707-.293l-3.5-3.5c-.391-.391-.391-1.023,0-1.414s1.023-.391,1.414,0l3.5,3.5c.391.391.391,1.023,0,1.414Zm-.707-4.707c-.552,0-1-.448-1-1s.448-1,1-1,1,.448,1,1-.448,1-1,1Zm4.243,8.243c-.391.391-1.024.391-1.414,0-.391-.391-.391-1.024,0-1.414s1.024-.391,1.414,0c.391.391.391,1.024,0,1.414Zm.757-3.243c-.552,0-1-.448-1-1s.448-1,1-1,1,.448,1,1-.448,1-1,1Z" stroke-width="0" fill="#000"></path></svg>