<svg xmlns="http://www.w3.org/2000/svg" xmlns:xlink="http://www.w3.org/1999/xlink" x="0px" y="0px" width="20px" height="20px" viewBox="0 0 20 20"><path d="m14.813,4.915c-.39-.368-.828-.697-1.313-.977-.485-.28-.989-.495-1.503-.649" fill="none" stroke="#000" stroke-linecap="round" stroke-linejoin="round" stroke-width="2" data-color="color-2"></path><path d="m8.003,3.289c-.514.153-1.018.369-1.503.649-.485.28-.923.609-1.313.977" fill="none" stroke="#000" stroke-linecap="round" stroke-linejoin="round" stroke-width="2"></path><path d="m3.19,8.374c-.124.522-.19,1.066-.19,1.626,0,.56.066,1.104.19,1.626" fill="none" stroke="#000" stroke-linecap="round" stroke-linejoin="round" stroke-width="2" data-color="color-2"></path><path d="m5.187,15.085c.39.368.828.697,1.313.977.485.28.989.495,1.503.649" fill="none" stroke="#000" stroke-linecap="round" stroke-linejoin="round" stroke-width="2"></path><path d="m11.997,16.711c.514-.153,1.018-.369,1.503-.649.485-.28.923-.609,1.313-.977" fill="none" stroke="#000" stroke-linecap="round" stroke-linejoin="round" stroke-width="2" data-color="color-2"></path><path d="m16.81,11.626c.124-.522.19-1.066.19-1.626,0-.56-.066-1.104-.19-1.626" fill="none" stroke="#000" stroke-linecap="round" stroke-linejoin="round" stroke-width="2"></path></svg>