<svg xmlns="http://www.w3.org/2000/svg" xmlns:xlink="http://www.w3.org/1999/xlink" x="0px" y="0px" width="20px" height="20px" viewBox="0 0 20 20"><path d="m12.528,17c.549-.614,1.348-1,2.236-1s1.687.386,2.236,1" fill="none" stroke="#000" stroke-linecap="round" stroke-linejoin="round" stroke-width="2" data-color="color-2"></path><path d="m14,3H6c-1.657,0-3,1.343-3,3v2h14v-2c0-1.657-1.343-3-3-3Zm-8,3c-.552,0-1-.448-1-1s.448-1,1-1,1,.448,1,1-.448,1-1,1Zm3,0c-.552,0-1-.448-1-1s.448-1,1-1,1,.448,1,1-.448,1-1,1Z" stroke-width="0" fill="#000"></path><circle cx="14.764" cy="12" r="2" fill="#000" stroke-width="0" data-color="color-2"></circle><path d="m17,8.118v-2.118c0-1.657-1.343-3-3-3H6c-1.657,0-3,1.343-3,3v8c0,1.657,1.343,3,3,3h3.042" fill="none" stroke="#000" stroke-linecap="round" stroke-linejoin="round" stroke-width="2"></path></svg>