<svg xmlns="http://www.w3.org/2000/svg" xmlns:xlink="http://www.w3.org/1999/xlink" x="0px" y="0px" width="18px" height="18px" viewBox="0 0 18 18"><path d="M9 9.75V11" stroke="black" stroke-width="1.5" stroke-linecap="round" stroke-linejoin="round" fill="none"></path> <path d="M11.6517 10.8483L10.7678 11.7322" stroke="black" stroke-width="1.5" stroke-linecap="round" stroke-linejoin="round" fill="none"></path> <path d="M12.75 13.5H11.5" stroke="black" stroke-width="1.5" stroke-linecap="round" stroke-linejoin="round" fill="none"></path> <path d="M11.6517 16.1517L10.7678 15.2678" stroke="black" stroke-width="1.5" stroke-linecap="round" stroke-linejoin="round" fill="none"></path> <path d="M9 17.25V16" stroke="black" stroke-width="1.5" stroke-linecap="round" stroke-linejoin="round" fill="none"></path> <path d="M6.3483 16.1517L7.23219 15.2678" stroke="black" stroke-width="1.5" stroke-linecap="round" stroke-linejoin="round" fill="none"></path> <path d="M5.25 13.5H6.5" stroke="black" stroke-width="1.5" stroke-linecap="round" stroke-linejoin="round" fill="none"></path> <path d="M6.3483 10.8483L7.23219 11.7322" stroke="black" stroke-width="1.5" stroke-linecap="round" stroke-linejoin="round" fill="none"></path> <path d="M9 16C10.3812 16 11.5 14.8813 11.5 13.5C11.5 12.1187 10.3812 11 9 11C7.6188 11 6.5 12.1187 6.5 13.5C6.5 14.8813 7.6188 16 9 16Z" stroke="black" stroke-width="1.5" stroke-linecap="round" stroke-linejoin="round" fill="none"></path> <path d="M9 0.75C9.9665 0.75 10.75 1.534 10.75 2.5C10.75 3.466 9.9665 4.25 9 4.25C8.0335 4.25 7.25 3.466 7.25 2.5C7.25 1.534 8.0335 0.75 9 0.75Z" stroke="#000" stroke-width="1.5" stroke-linecap="round" stroke-linejoin="round" data-color="color-2" fill="none"></path> <path d="M3.5 2.75C4.4665 2.75 5.25 3.534 5.25 4.5C5.25 5.466 4.4665 6.25 3.5 6.25C2.5335 6.25 1.75 5.466 1.75 4.5C1.75 3.534 2.5335 2.75 3.5 2.75Z" stroke="#000" stroke-width="1.5" stroke-linecap="round" stroke-linejoin="round" data-color="color-2" fill="none"></path> <path d="M9 6.75V4.25" stroke="#000" stroke-width="1.5" stroke-linecap="round" stroke-linejoin="round" data-color="color-2" fill="none"></path> <path d="M4.25 8.75L3.7928 8.29251C3.6053 8.10501 3.5 7.85071 3.5 7.58551V6.48111" stroke="#000" stroke-width="1.5" stroke-linecap="round" stroke-linejoin="round" data-color="color-2" fill="none"></path> <path d="M14.5 2.75C13.5335 2.75 12.75 3.534 12.75 4.5C12.75 5.466 13.5335 6.25 14.5 6.25C15.4665 6.25 16.25 5.466 16.25 4.5C16.25 3.534 15.4665 2.75 14.5 2.75Z" stroke="#000" stroke-width="1.5" stroke-linecap="round" stroke-linejoin="round" data-color="color-2" fill="none"></path> <path d="M13.75 8.75L14.2072 8.29251C14.3947 8.10501 14.5 7.85071 14.5 7.58551V6.48111" stroke="#000" stroke-width="1.5" stroke-linecap="round" stroke-linejoin="round" data-color="color-2" fill="none"></path></svg>