<svg xmlns="http://www.w3.org/2000/svg" xmlns:xlink="http://www.w3.org/1999/xlink" x="0px" y="0px" width="18px" height="18px" viewBox="0 0 18 18"><rect x=".75" y="2.75" width="16.5" height="8.5" rx="2" ry="2" fill="none" stroke="#000" stroke-linecap="round" stroke-linejoin="round" stroke-width="1.5"></rect><line x1="11.75" y1="8.25" x2="6.25" y2="8.25" fill="none" stroke="#000" stroke-linecap="round" stroke-linejoin="round" stroke-width="1.5" data-color="color-2"></line><rect x="3" y="5" width="1.5" height="1.5" rx=".5" ry=".5" fill="#000" data-color="color-2" data-stroke="none"></rect><rect x="3" y="7.5" width="1.5" height="1.5" rx=".5" ry=".5" fill="#000" data-color="color-2" data-stroke="none"></rect><rect x="5.5" y="5" width="1.5" height="1.5" rx=".5" ry=".5" fill="#000" data-color="color-2" data-stroke="none"></rect><rect x="8.25" y="5" width="1.5" height="1.5" rx=".5" ry=".5" fill="#000" data-color="color-2" data-stroke="none"></rect><rect x="13.5" y="5" width="1.5" height="1.5" rx=".5" ry=".5" fill="#000" data-color="color-2" data-stroke="none"></rect><rect x="13.5" y="7.5" width="1.5" height="1.5" rx=".5" ry=".5" fill="#000" data-color="color-2" data-stroke="none"></rect><rect x="11" y="5" width="1.5" height="1.5" rx=".5" ry=".5" fill="#000" data-color="color-2" data-stroke="none"></rect><polyline points="11.5 13.75 9 16.25 6.5 13.75" fill="none" stroke="#000" stroke-linecap="round" stroke-linejoin="round" stroke-width="1.5" data-color="color-2"></polyline></svg>