<svg xmlns="http://www.w3.org/2000/svg" xmlns:xlink="http://www.w3.org/1999/xlink" x="0px" y="0px" width="18px" height="18px" viewBox="0 0 18 18"><path d="M8.75,11.75H2.75c-1.105,0-2-.895-2-2V5.25c0-1.105,.895-2,2-2H15.25c1.105,0,2,.895,2,2v2.25" fill="none" stroke="#000" stroke-linecap="round" stroke-linejoin="round" stroke-width="1.5"></path><line x1="9" y1="8.75" x2="6.25" y2="8.75" fill="none" stroke="#000" stroke-linecap="round" stroke-linejoin="round" stroke-width="1.5" data-color="color-2"></line><rect x="3" y="5.5" width="1.5" height="1.5" rx=".5" ry=".5" fill="#000" data-color="color-2" data-stroke="none"></rect><rect x="3" y="8" width="1.5" height="1.5" rx=".5" ry=".5" fill="#000" data-color="color-2" data-stroke="none"></rect><rect x="5.5" y="5.5" width="1.5" height="1.5" rx=".5" ry=".5" fill="#000" data-color="color-2" data-stroke="none"></rect><rect x="8.25" y="5.5" width="1.5" height="1.5" rx=".5" ry=".5" fill="#000" data-color="color-2" data-stroke="none"></rect><rect x="13.5" y="5.5" width="1.5" height="1.5" rx=".5" ry=".5" fill="#000" data-color="color-2" data-stroke="none"></rect><rect x="11" y="5.5" width="1.5" height="1.5" rx=".5" ry=".5" fill="#000" data-color="color-2" data-stroke="none"></rect><rect x="11.25" y="8.75" width="5" height="7.5" rx="2" ry="2" fill="none" stroke="#000" stroke-linecap="round" stroke-linejoin="round" stroke-width="1.5" data-color="color-2"></rect><line x1="13.75" y1="12.25" x2="13.75" y2="11.25" fill="none" stroke="#000" stroke-linecap="round" stroke-linejoin="round" stroke-width="1.5" data-color="color-2"></line></svg>