<svg xmlns="http://www.w3.org/2000/svg" xmlns:xlink="http://www.w3.org/1999/xlink" x="0px" y="0px" width="18px" height="18px" viewBox="0 0 18 18"><path d="M16.25 9.07831V13.25C16.25 14.355 15.355 15.25 14.25 15.25H3.75C2.645 15.25 1.75 14.355 1.75 13.25V4.75C1.75 3.645 2.645 2.75 3.75 2.75H10.0938" stroke="black" stroke-width="1.5" stroke-linecap="round" stroke-linejoin="round" fill="none"></path> <path d="M13.25 12.25H4.75V5.75H7.5351" stroke="black" stroke-width="1.5" stroke-linecap="round" stroke-linejoin="round" fill="none"></path> <path d="M9.836 9.25C9.836 9.25 11.87 9.216 12.586 8.5L16.836 4.25C17.388 3.698 17.388 2.802 16.836 2.25C16.284 1.698 15.388 1.698 14.836 2.25L10.586 6.5C9.87 7.216 9.836 9.25 9.836 9.25Z" stroke="#000" stroke-width="1.5" stroke-linecap="round" stroke-linejoin="round" data-color="color-2" fill="none"></path></svg>