<svg xmlns="http://www.w3.org/2000/svg" xmlns:xlink="http://www.w3.org/1999/xlink" x="0px" y="0px" width="18px" height="18px" viewBox="0 0 18 18"><path d="M6.25 5.25H10.75" stroke="#000" stroke-width="1.5" stroke-linecap="round" stroke-linejoin="round" data-color="color-2" fill="none"></path> <path d="M10.75 5.25L12.25 2.25L15.25 3" stroke="#000" stroke-width="1.5" stroke-linecap="round" stroke-linejoin="round" data-color="color-2" fill="none"></path> <path d="M10.75 5.25L12.25 8.25L15.25 7.5" stroke="#000" stroke-width="1.5" stroke-linecap="round" stroke-linejoin="round" data-color="color-2" fill="none"></path> <path d="M5.05298 6.909L6.99998 12.75" stroke="#000" stroke-width="1.5" stroke-linecap="round" stroke-linejoin="round" data-color="color-2" fill="none"></path> <path d="M14.25 12.75H3.75C3.198 12.75 2.75 13.198 2.75 13.75V14.75C2.75 15.302 3.198 15.75 3.75 15.75H14.25C14.802 15.75 15.25 15.302 15.25 14.75V13.75C15.25 13.198 14.802 12.75 14.25 12.75Z" stroke="black" stroke-width="1.5" stroke-linecap="round" stroke-linejoin="round" fill="none"></path> <path d="M4.5 7C5.466 7 6.25 6.216 6.25 5.25C6.25 4.284 5.466 3.5 4.5 3.5C3.534 3.5 2.75 4.284 2.75 5.25C2.75 6.216 3.534 7 4.5 7Z" stroke="black" stroke-width="1.5" stroke-linecap="round" stroke-linejoin="round" fill="none"></path></svg>