<svg xmlns="http://www.w3.org/2000/svg" xmlns:xlink="http://www.w3.org/1999/xlink" x="0px" y="0px" width="18px" height="18px" viewBox="0 0 18 18"><path d="M8.75,12.25H3.75c-1.105,0-2-.895-2-2V5.75c0-1.105,.895-2,2-2H14.25c1.105,0,2,.895,2,2v1" fill="none" stroke="#000" stroke-linecap="round" stroke-linejoin="round" stroke-width="1.5"></path><line x1="9" y1="9.25" x2="6.75" y2="9.25" fill="none" stroke="#000" stroke-linecap="round" stroke-linejoin="round" stroke-width="1.5" data-color="color-2"></line><rect x="6.875" y="6" width="1.5" height="1.5" rx=".5" ry=".5" fill="#000" data-color="color-2" data-stroke="none"></rect><rect x="4.125" y="6" width="1.5" height="1.5" rx=".5" ry=".5" fill="#000" data-color="color-2" data-stroke="none"></rect><rect x="9.625" y="6" width="1.5" height="1.5" rx=".5" ry=".5" fill="#000" data-color="color-2" data-stroke="none"></rect><rect x="12.375" y="6" width="1.5" height="1.5" rx=".5" ry=".5" fill="#000" data-color="color-2" data-stroke="none"></rect><rect x="11.25" y="8.75" width="5" height="7.5" rx="2" ry="2" fill="none" stroke="#000" stroke-linecap="round" stroke-linejoin="round" stroke-width="1.5" data-color="color-2"></rect><line x1="13.75" y1="12.25" x2="13.75" y2="11.25" fill="none" stroke="#000" stroke-linecap="round" stroke-linejoin="round" stroke-width="1.5" data-color="color-2"></line></svg>