<svg xmlns="http://www.w3.org/2000/svg" xmlns:xlink="http://www.w3.org/1999/xlink" x="0px" y="0px" width="18px" height="18px" viewBox="0 0 18 18"><polyline points="9.318 12.75 5.748 4.25 5.57 4.25 2 12.75" fill="none" stroke="#000" stroke-linecap="round" stroke-linejoin="round" stroke-width="1.5"></polyline><line x1="2.84" y1="10.75" x2="8.478" y2="10.75" fill="none" stroke="#000" stroke-linecap="round" stroke-linejoin="round" stroke-width="1.5"></line><line x1="11.75" y1="12.75" x2="16" y2="12.75" fill="none" stroke="#000" stroke-linecap="round" stroke-linejoin="round" stroke-width="1.5"></line><polyline points="11.75 7.25 13.75 7.25 13.75 12.75" fill="none" stroke="#000" stroke-linecap="round" stroke-linejoin="round" stroke-width="1.5"></polyline><path d="M15.706,2.286l-1.145-.382-.382-1.145c-.124-.37-.737-.37-.86,0l-.382,1.145-1.145,.382c-.185,.062-.31,.235-.31,.43s.125,.368,.31,.43l1.145,.382,.382,1.145c.062,.185,.235,.31,.43,.31s.368-.125,.43-.31l.382-1.145,1.145-.382c.185-.062,.31-.235,.31-.43s-.125-.368-.31-.43Z" fill="#000" data-color="color-2" data-stroke="none"></path></svg>