<svg xmlns="http://www.w3.org/2000/svg" xmlns:xlink="http://www.w3.org/1999/xlink" x="0px" y="0px" width="32px" height="32px" viewBox="0 0 32 32"><path d="M9 21L11.2525 24L16 19.2524L17.4142 20.6666L6.66666 31.4142L1.5 26L9 21Z" fill="black"></path> <path d="M23 11L20.7476 8.00004L16 12.7476L14.5858 11.3334L25.3333 0.585813L30.5 6L23 11Z" fill="black"></path> <path d="M21 23L24 20.7475L19.2524 16L20.6666 14.5858L31.4142 25.3333L26 30.5L21 23Z" fill="#000" data-color="color-2"></path> <path d="M11 9L8.00004 11.2524L12.7476 16L11.3334 17.4142L0.585813 6.66665L6 1.5L11 9Z" fill="#000" data-color="color-2"></path> <path fill-rule="evenodd" clip-rule="evenodd" d="M16 9.91913L22.0809 16L16 22.0809L9.91912 16L16 9.91913Z" fill="black"></path></svg>