<svg xmlns="http://www.w3.org/2000/svg" xmlns:xlink="http://www.w3.org/1999/xlink" x="0px" y="0px" width="24px" height="24px" viewBox="0 0 24 24"><path d="M7 20H17" stroke="black" stroke-width="2" stroke-miterlimit="10" stroke-linecap="square" fill="none"></path> <path d="M8.5 20V22" stroke="black" stroke-width="2" stroke-miterlimit="10" stroke-linecap="square" fill="none"></path> <path d="M15.5 20V22" stroke="black" stroke-width="2" stroke-miterlimit="10" stroke-linecap="square" fill="none"></path> <path d="M16 16H8V20H16V16Z" stroke="black" stroke-width="2" stroke-miterlimit="10" stroke-linecap="square" fill="none"></path> <path d="M15 2C15 3.65685 13.6569 5 12 5C10.3431 5 9 3.65685 9 2" stroke="black" stroke-width="2" stroke-miterlimit="10" stroke-linecap="square" fill="none"></path> <path d="M12 7.9V8" stroke="black" stroke-width="2" stroke-linecap="square" fill="none"></path> <path d="M6.1 2L6 2" stroke="black" stroke-width="2" stroke-linecap="square" fill="none"></path> <path d="M18 2L17.9 2" stroke="black" stroke-width="2" stroke-linecap="square" fill="none"></path> <path d="M7.76071 6.24265L7.69 6.31336" stroke="black" stroke-width="2" stroke-linecap="square" fill="none"></path> <path d="M16.3167 6.31335L16.246 6.24264" stroke="black" stroke-width="2" stroke-linecap="square" fill="none"></path> <path d="M16.7692 12.9286L16.5385 13.3214L19.0769 9L22.1538 15.2857L21 15.6786L22.5385 20H21" stroke="#000" stroke-width="2" stroke-linecap="square" data-color="color-2" fill="none"></path> <path d="M7.23077 12.9286L7.46154 13.3214L4.92308 9L1.84616 15.2857L3 15.6786L1.46154 20H3" stroke="#000" stroke-width="2" stroke-linecap="square" data-color="color-2" fill="none"></path></svg>