<svg xmlns="http://www.w3.org/2000/svg" xmlns:xlink="http://www.w3.org/1999/xlink" x="0px" y="0px" width="24px" height="24px" viewBox="0 0 24 24"> <path d="M12 17L12 8.09808" stroke="black" stroke-width="2" stroke-miterlimit="10" fill="none" data-cap="butt"></path> <path d="M12 9.09808C12 9.09808 12.5958 5.29 15.2631 3.75C17.9305 2.21 21.5263 3.59808 21.5263 3.59808C21.5263 3.59808 20.8829 7.43365 18.2631 8.94615C15.5958 10.4862 12 9.09808 12 9.09808Z" stroke="black" stroke-width="2" stroke-miterlimit="10" stroke-linecap="square" fill="none"></path> <path d="M12 9.09808C12 9.09808 11.4042 5.29 8.73686 3.75C6.0695 2.21 2.47372 3.59808 2.47372 3.59808C2.47372 3.59808 3.11714 7.43365 5.73686 8.94615C8.40421 10.4861 12 9.09808 12 9.09808Z" stroke="black" stroke-width="2" stroke-miterlimit="10" stroke-linecap="square" fill="none"></path> <path d="M3 22C3 20.3431 4.34315 19 6 19C6.49165 19 6.95568 19.1183 7.36519 19.3279C7.99835 17.9538 9.38779 17 11 17C13.2091 17 15 18.7909 15 21" stroke="#000" stroke-width="2" stroke-miterlimit="10" stroke-linecap="square" data-color="color-2" fill="none"></path> <path d="M21 22C21 20.3431 19.7688 19 18.25 19" stroke="#000" stroke-width="2" stroke-miterlimit="10" stroke-linecap="square" data-color="color-2" fill="none"></path> </svg>