<svg xmlns="http://www.w3.org/2000/svg" xmlns:xlink="http://www.w3.org/1999/xlink" x="0px" y="0px" width="24px" height="24px" viewBox="0 0 24 24"><line x1="14.706" y1="8.353" x2="19.556" y2="10.778" fill="none" stroke="#000" stroke-miterlimit="10" stroke-width="2" data-color="color-2" data-cap="butt"></line><path d="m19,5l-2-2-2.74,6.394c-.158.368-.519.606-.919.606h-7.341c-1.105,0-2,.895-2,2v10h3v-2.764c0-.155.036-.308.106-.447l1.894-3.789,5.316,1.772c.409.136.684.518.684.949v4.279h3v-5l2-8h1c1.105,0,2-.895,2-2v-2h-4Z" fill="none" stroke="#000" stroke-miterlimit="10" stroke-width="2" data-cap="butt"></path><path d="m1,7c0,1.657,1.343,3,3,3h1" fill="none" stroke="#000" stroke-linecap="square" stroke-miterlimit="10" stroke-width="2"></path><path d="m11.5,7c-2.761,0-5-2.239-5-5" fill="none" stroke="#000" stroke-linecap="square" stroke-miterlimit="10" stroke-width="2" data-color="color-2"></path></svg>