<svg xmlns="http://www.w3.org/2000/svg" xmlns:xlink="http://www.w3.org/1999/xlink" x="0px" y="0px" width="32px" height="32px" viewBox="0 0 32 32"> <path d="M16 29C16 29 17.7639 25.2253 21.1587 23.2653C24.5535 21.3053 28.1244 22 28.1244 22C28.1244 22 27.2029 26.7039 23.8687 28.6289C20.4738 30.5889 16 29 16 29Z" stroke="black" stroke-width="2" stroke-miterlimit="10" stroke-linecap="square" fill="none"></path> <path d="M16 29C16 29 14.2361 25.2253 10.8413 23.2653C7.44651 21.3053 3.87566 22 3.87566 22C3.87566 22 4.79716 26.7039 8.13135 28.6289C11.5262 30.5889 16 29 16 29Z" stroke="black" stroke-width="2" stroke-miterlimit="10" stroke-linecap="square" fill="none"></path> <path d="M16 28.5V19" stroke="black" stroke-width="2" fill="none" data-cap="butt"></path> <path d="M9 12V5.66667L12.8182 7L16 3L19.1818 7L23 5.66667V12C23 15.866 19.866 19 16 19C12.134 19 9 15.866 9 12Z" stroke="#000" stroke-width="2" data-color="color-2" fill="none" data-cap="butt"></path> </svg>