<svg xmlns="http://www.w3.org/2000/svg" xmlns:xlink="http://www.w3.org/1999/xlink" x="0px" y="0px" width="32px" height="32px" viewBox="0 0 32 32"> <path d="M16 6V15.5" stroke="#000" stroke-width="2" stroke-miterlimit="10" data-color="color-2" fill="none" data-cap="butt"></path> <path d="M12.5 18.5L4 10" stroke="#000" stroke-width="2" stroke-miterlimit="10" data-color="color-2" fill="none" data-cap="butt"></path> <path d="M11.5 22H2" stroke="#000" stroke-width="2" stroke-miterlimit="10" data-color="color-2" fill="none" data-cap="butt"></path> <path d="M16 29H24.5192C25.8893 29 27 27.8893 27 26.5192V26.5192C27 24.5616 24.8389 23.3753 23.1873 24.4262L16 29Z" stroke="black" stroke-width="2" stroke-miterlimit="10" stroke-linecap="square" fill="none"></path> <path d="M16 2H27C28.6569 2 30 3.34315 30 5V6" stroke="#000" stroke-width="2" stroke-miterlimit="10" stroke-linecap="square" data-color="color-2" fill="none"></path> <path d="M12.8636 6C6.27273 6 1 11.1111 1 17.5C1 23.8889 6.27273 29 12.8636 29C14.1818 29 15.2364 29 16.8182 29C13.9182 28.1056 11.5455 25.1667 11.5455 21.9722C11.5455 18.1389 14.8409 14.9444 18.7955 14.9444C19.5864 14.9444 20.7727 14.9444 20.7727 14.9444C23.2773 14.9444 30 13.1556 30 6C26.3091 6 14.7091 6 12.8636 6Z" stroke="black" stroke-width="2" stroke-miterlimit="10" stroke-linecap="square" fill="none"></path> <path d="M21.5 11C22.3284 11 23 10.3284 23 9.5C23 8.67157 22.3284 8 21.5 8C20.6716 8 20 8.67157 20 9.5C20 10.3284 20.6716 11 21.5 11Z" fill="black" data-stroke="none" data-cap="butt"></path> </svg>