<svg xmlns="http://www.w3.org/2000/svg" xmlns:xlink="http://www.w3.org/1999/xlink" x="0px" y="0px" width="32px" height="32px" viewBox="0 0 32 32"><path d="M11 21.3333V30M11 21.3333L8.33333 18.6667M11 21.3333L13.6667 18.6667" stroke="#000" stroke-width="2" stroke-miterlimit="10" stroke-linecap="square" data-color="color-2" fill="none"></path> <path d="M25 28V30" stroke="#000" stroke-width="2" stroke-linecap="square" data-color="color-2" fill="none"></path> <path d="M11 26C15.4183 26 19 22.4183 19 18C19 9.58172 11 2 11 2C11 2 3.00001 9.58172 3.00001 18C3.00001 22.4183 6.58173 26 11 26Z" stroke="black" stroke-width="2" stroke-miterlimit="10" stroke-linecap="square" fill="none"></path> <path d="M25 28C27.2091 28 29 26.2091 29 24C29 19.7909 25 16 25 16C25 16 21 19.7909 21 24C21 26.2091 22.7908 28 25 28Z" stroke="black" stroke-width="2" stroke-miterlimit="10" stroke-linecap="square" fill="none"></path></svg>