<svg xmlns="http://www.w3.org/2000/svg" xmlns:xlink="http://www.w3.org/1999/xlink" x="0px" y="0px" width="32px" height="32px" viewBox="0 0 32 32"> <path d="M25.9563 17.0414L2.35246 25.2792L4 29.9999L26.8746 19.8747L25.9563 17.0414Z" stroke="black" stroke-width="2" stroke-miterlimit="10" fill="none" data-cap="butt"></path> <path d="M7 20.7239L5.08168 19.8748L5.99999 17.0415L11.5 18.961" stroke="black" stroke-width="2" stroke-miterlimit="10" fill="none" data-cap="butt"></path> <path d="M16 24.7077L27.9563 30.0001L29.6038 25.2793L21.187 22.3418" stroke="black" stroke-width="2" stroke-miterlimit="10" fill="none" data-cap="butt"></path> <path d="M10 11.0398C10 10.0786 10.75 5.84146 10.75 5.84146L12.4375 6.75609L16 2C16 2 22 6.75609 22 11.0398C22 14.8397 18.9247 17 16 17C13.0753 17 10 14.8397 10 11.0398Z" stroke="#000" stroke-width="2" stroke-miterlimit="10" stroke-linecap="square" data-color="color-2" fill="none"></path> </svg>