<svg xmlns="http://www.w3.org/2000/svg" xmlns:xlink="http://www.w3.org/1999/xlink" x="0px" y="0px" width="48px" height="48px" viewBox="0 0 48 48"> <path d="M14 14C14 14 14.3394 8.68256 11.1716 5.51472C8.00373 2.34688 2.68629 2.68629 2.68629 2.68629C2.68629 2.68629 2.40345 8.0603 5.51472 11.1716C8.68256 14.3394 14 14 14 14Z" stroke="#000" stroke-width="2" stroke-miterlimit="10" stroke-linecap="square" data-color="color-2" fill="none"></path> <path d="M13.8995 19.1213C13.8995 19.1213 14.3096 22.9539 12.1317 25.1317C9.95383 27.3096 6.12132 26.8995 6.12132 26.8995C6.12132 26.8995 5.75008 23.0281 7.88908 20.8891C10.067 18.7112 13.8995 19.1213 13.8995 19.1213Z" stroke="#000" stroke-width="2" stroke-miterlimit="10" stroke-linecap="square" data-color="color-2" fill="none"></path> <path d="M36.7782 8.22186C36.7782 8.22186 37.1883 12.0544 35.0104 14.2323C32.8325 16.4102 29 16 29 16C29 16 28.6288 12.1286 30.7678 9.98963C32.9457 7.81174 36.7782 8.22186 36.7782 8.22186Z" stroke="#000" stroke-width="2" stroke-miterlimit="10" stroke-linecap="square" data-color="color-2" fill="none"></path> <path d="M45.6569 33.3432C45.6569 33.3432 45.8266 36.0019 44.2426 37.5858C42.6587 39.1697 40 39 40 39C40 39 39.8586 36.313 41.4142 34.7574C42.9981 33.1735 45.6569 33.3432 45.6569 33.3432Z" stroke="#000" stroke-width="2" stroke-miterlimit="10" stroke-linecap="square" data-color="color-2" fill="none"></path> <path d="M17 15L24.6749 16.9187" stroke="#000" stroke-width="2" stroke-miterlimit="10" data-color="color-2" fill="none" data-cap="butt"></path> <path d="M29 38L36.1675 40.867" stroke="#000" stroke-width="2" stroke-miterlimit="10" data-color="color-2" fill="none" data-cap="butt"></path> <path d="M29 29L36.8264 26.0651" stroke="#000" stroke-width="2" stroke-miterlimit="10" data-color="color-2" fill="none" data-cap="butt"></path> <path d="M17 34L24.5 32" stroke="#000" stroke-width="2" stroke-miterlimit="10" data-color="color-2" fill="none" data-cap="butt"></path> <path d="M25 3L17 4V45H24L25 3Z" stroke="black" stroke-width="2" stroke-miterlimit="10" stroke-linecap="square" fill="none"></path> <path d="M37 22L29 21V45H36L37 22Z" stroke="black" stroke-width="2" stroke-miterlimit="10" stroke-linecap="square" fill="none"></path> </svg>