<svg xmlns="http://www.w3.org/2000/svg" xmlns:xlink="http://www.w3.org/1999/xlink" x="0px" y="0px" width="48px" height="48px" viewBox="0 0 48 48"> <path d="M24 38.0248V39M24 39L22.5 40.5M24 39L25.5 40.5" stroke="black" stroke-width="2" stroke-linecap="square" fill="none"></path> <path d="M24 38L26.2774 36.1781C26.3512 36.119 26.3094 36 26.2149 36H21.7851C21.6906 36 21.6488 36.119 21.7226 36.1781L24 38Z" stroke="black" stroke-width="2" stroke-miterlimit="10" stroke-linecap="square" fill="none"></path> <path d="M19.9564 26.967L16.3635 24.2723C15.5541 24.6862 15 25.5282 15 26.4997C15 27.8804 16.1193 28.9997 17.5 28.9997C18.721 28.9997 19.7376 28.1244 19.9564 26.967Z" fill="#000" data-color="color-2" data-stroke="none" data-cap="butt"></path> <path d="M28.0435 26.9667C28.2621 28.1243 29.2788 28.9999 30.5 28.9999C31.8807 28.9999 33 27.8807 33 26.4999C33 25.5283 32.4456 24.6861 31.636 24.2723L28.0435 26.9667Z" fill="#000" data-color="color-2" data-stroke="none" data-cap="butt"></path> <path d="M16 12L6 4V19L3 24L7 26L6 31L11 32V36.5L13.5 35.8889L17.837 42.6353C19.1851 44.7323 21.507 46 24 46C26.493 46 28.8149 44.7323 30.163 42.6353L34.5 35.8889L37 36.5V32L42 31L41 26L45 24L42 19V4L32 12C32 12 28.375 10 24 10C19.625 10 16 12 16 12Z" stroke="black" stroke-width="2" stroke-miterlimit="10" stroke-linecap="square" fill="none"></path> </svg>