<svg xmlns="http://www.w3.org/2000/svg" xmlns:xlink="http://www.w3.org/1999/xlink" x="0px" y="0px" width="48px" height="48px" viewBox="0 0 48 48"> <path d="M21 5.99997V3" stroke="black" stroke-width="2" stroke-miterlimit="10" stroke-linecap="square" fill="none"></path> <path d="M31.5 20V18" stroke="black" stroke-width="2" stroke-miterlimit="10" stroke-linecap="square" fill="none"></path> <path d="M37 25L39 25" stroke="black" stroke-width="2" stroke-miterlimit="10" stroke-linecap="square" fill="none"></path> <path d="M24 25L26 25" stroke="black" stroke-width="2" stroke-miterlimit="10" stroke-linecap="square" fill="none"></path> <path d="M7 16L10.5 16L9.75002 16" stroke="black" stroke-width="2" stroke-miterlimit="10" stroke-linecap="square" fill="none"></path> <path d="M10.75 7L13.25 9.5L12.8115 9.06147" stroke="black" stroke-width="2" stroke-miterlimit="10" stroke-linecap="square" fill="none"></path> <path d="M31.25 7L28.75 9.5L29.0735 9.17654" stroke="black" stroke-width="2" stroke-miterlimit="10" stroke-linecap="square" fill="none"></path> <path d="M12 33L10.3252 17.9266C9.61825 11.5643 14.5985 6 21 6C25.6572 6 29.5622 8.94511 31.0723 13" stroke="#000" stroke-width="2" data-color="color-2" fill="none" data-cap="butt"></path> <path d="M27 33L26.1878 25.9605C25.8214 22.7853 28.3038 20 31.5 20C34.6962 20 37.1786 22.7853 36.8123 25.9605L36 33" stroke="#000" stroke-width="2" data-color="color-2" fill="none" data-cap="butt"></path> <path d="M21 16.01V16" stroke="black" stroke-width="2" stroke-miterlimit="10" stroke-linecap="square" fill="none"></path> <path d="M31.5 25.01V25" stroke="black" stroke-width="2" stroke-miterlimit="10" stroke-linecap="square" fill="none"></path> <path d="M37.5 33L36 43H12L10.5 33" stroke="black" stroke-width="2" stroke-miterlimit="10" fill="none" data-cap="butt"></path> <path d="M41 33H7" stroke="black" stroke-width="2" stroke-miterlimit="10" stroke-linecap="square" fill="none"></path> </svg>