<svg xmlns="http://www.w3.org/2000/svg" xmlns:xlink="http://www.w3.org/1999/xlink" x="0px" y="0px" width="48px" height="48px" viewBox="0 0 48 48"> <path d="M18 43.0001L18 35.5C18 32.1863 20.6863 29.5 24 29.5V29.5C27.3137 29.5 30 32.1863 30 35.5V43.0001" stroke="#000" stroke-width="2" stroke-miterlimit="10" data-color="color-2" fill="none" data-cap="butt"></path> <path d="M7 43V17.5516" stroke="black" stroke-width="2" stroke-miterlimit="10" fill="none" data-cap="butt"></path> <path d="M41 17.6316V43" stroke="black" stroke-width="2" stroke-miterlimit="10" fill="none" data-cap="butt"></path> <path d="M3 21L24 3L45 21" stroke="#000" stroke-width="2" stroke-miterlimit="10" stroke-linecap="square" data-color="color-2" fill="none"></path> <path d="M5 43H43" stroke="black" stroke-width="2" stroke-miterlimit="10" stroke-linecap="square" fill="none"></path> <path d="M33.1352 20.9999C34.2883 19.8561 34.2883 18.0016 33.1352 16.8578C31.9821 15.714 30.1126 15.714 28.9595 16.8578C28.3829 17.4297 28.0946 18.2504 28.0946 18.9999H24H19.9053C19.9053 18.2503 19.6171 17.4297 19.0405 16.8578C17.8874 15.714 16.0179 15.714 14.8648 16.8578C13.7117 18.0016 13.7117 19.8561 14.8648 20.9999C13.7117 22.1438 13.7117 23.9983 14.8648 25.1421C16.0179 26.2859 17.8874 26.2859 19.0405 25.1421C19.6171 24.5702 19.9053 23.7495 19.9053 22.9999H28.0946C28.0946 23.7495 28.3829 24.5702 28.9595 25.1421C30.1126 26.2859 31.9821 26.2859 33.1352 25.1421C34.2883 23.9983 34.2883 22.1438 33.1352 20.9999Z" stroke="black" stroke-width="2" stroke-miterlimit="10" stroke-linecap="square" fill="none"></path> </svg>