<svg xmlns="http://www.w3.org/2000/svg" xmlns:xlink="http://www.w3.org/1999/xlink" x="0px" y="0px" width="48px" height="48px" viewBox="0 0 48 48"> <path d="M24 45C26.0005 45 31.5 43.5005 31.5 37.4997C31.5 32.4319 28.6091 29.2497 24 24C19.3909 29.2497 16.5 32.4319 16.5 37.4997C16.5 43.4991 21.9995 45 24 45Z" stroke="#000" stroke-width="2" stroke-miterlimit="10" stroke-linecap="square" data-color="color-2" fill="none"></path> <path d="M8 28.7089C8 26.0815 10 14.5 10 14.5L14.5 17L24 4C24 4 40 17 40 28.7089C40 39.0952 31.7993 45 24 45C16.2007 45 8 39.0952 8 28.7089Z" stroke="black" stroke-width="2" stroke-miterlimit="10" stroke-linecap="square" fill="none"></path> </svg>