<svg xmlns="http://www.w3.org/2000/svg" xmlns:xlink="http://www.w3.org/1999/xlink" x="0px" y="0px" width="18px" height="18px" viewBox="0 0 18 18"><path d="m13.25,2.75H4.75c-1.1046,0-2,.8954-2,2v8.5c0,1.1046.8954,2,2,2h8.5c1.1046,0,2-.8954,2-2V4.75c0-1.1046-.8954-2-2-2Z" fill="#000" opacity=".3" stroke-width="0" data-color="color-2"></path><path d="m5.5,9c.863.867,1.537,1.868,2.1,2.962,1.307-2.491,2.94-4.466,4.9-5.923" fill="none" stroke="#000" stroke-linecap="round" stroke-linejoin="round" stroke-width="1.5"></path><path d="m15,15.25H4.75c-1.1046,0-2-.8954-2-2V4.75c0-1.1046.8954-2,2-2h8.5c1.1046,0,2,.8954,2,2v6.25" fill="none" stroke="#000" stroke-linecap="round" stroke-linejoin="round" stroke-width="1.5"></path><polyline points="13.25 13.25 15.25 15.25 13.25 17.25" fill="none" stroke="#000" stroke-linecap="round" stroke-linejoin="round" stroke-width="1.5"></polyline></svg>