<svg xmlns="http://www.w3.org/2000/svg" xmlns:xlink="http://www.w3.org/1999/xlink" x="0px" y="0px" width="18px" height="18px" viewBox="0 0 18 18"><path d="M12.75 3.75V14.25C12.75 14.8023 13.1977 15.25 13.75 15.25H14.75C15.3023 15.25 15.75 14.8023 15.75 14.25V3.75C15.75 3.19771 15.3023 2.75 14.75 2.75H13.75C13.1977 2.75 12.75 3.19771 12.75 3.75Z" fill="#000" fill-opacity="0.3" data-color="color-2" data-stroke="none"></path> <path d="M12.75 3.75V14.25C12.75 14.8023 13.1977 15.25 13.75 15.25H14.75C15.3023 15.25 15.75 14.8023 15.75 14.25V3.75C15.75 3.19771 15.3023 2.75 14.75 2.75H13.75C13.1977 2.75 12.75 3.19771 12.75 3.75Z" stroke="black" stroke-width="1.5" stroke-linecap="round" stroke-linejoin="round" fill="none"></path> <path d="M5.5 12.25L2.25 9L5.5 5.75" stroke="black" stroke-width="1.5" stroke-linecap="round" stroke-linejoin="round" fill="none"></path> <path d="M2.25 9H9.75" stroke="black" stroke-width="1.5" stroke-linecap="round" stroke-linejoin="round" fill="none"></path></svg>