<svg xmlns="http://www.w3.org/2000/svg" xmlns:xlink="http://www.w3.org/1999/xlink" x="0px" y="0px" width="18px" height="18px" viewBox="0 0 18 18"><path d="m13.25,2.75H4.75c-1.1046,0-2,.8954-2,2v8.5c0,1.1046.8954,2,2,2h8.5c1.1046,0,2-.8954,2-2V4.75c0-1.1046-.8954-2-2-2Z" fill="#000" opacity=".3" stroke-width="0" data-color="color-2"></path><rect x="2.75" y="2.75" width="12.5" height="12.5" rx="2" ry="2" fill="none" stroke="#000" stroke-linecap="round" stroke-linejoin="round" stroke-width="1.5"></rect><polyline points="7.75 12.25 5.75 12.25 5.75 10.25" fill="none" stroke="#000" stroke-linecap="round" stroke-linejoin="round" stroke-width="1.5"></polyline><polyline points="12.25 10.25 12.25 12.25 10.25 12.25" fill="none" stroke="#000" stroke-linecap="round" stroke-linejoin="round" stroke-width="1.5"></polyline><polyline points="10.25 5.75 12.25 5.75 12.25 7.75" fill="none" stroke="#000" stroke-linecap="round" stroke-linejoin="round" stroke-width="1.5"></polyline><polyline points="5.75 7.75 5.75 5.75 7.75 5.75" fill="none" stroke="#000" stroke-linecap="round" stroke-linejoin="round" stroke-width="1.5"></polyline></svg>