<svg xmlns="http://www.w3.org/2000/svg" xmlns:xlink="http://www.w3.org/1999/xlink" x="0px" y="0px" width="18px" height="18px" viewBox="0 0 18 18"><path d="M14.75 2.25H12.75C11.9216 2.25 11.25 2.92157 11.25 3.75V5.75C11.25 6.57843 11.9216 7.25 12.75 7.25H14.75C15.5784 7.25 16.25 6.57843 16.25 5.75V3.75C16.25 2.92157 15.5784 2.25 14.75 2.25Z" fill="#000" fill-opacity="0.3" data-color="color-2" data-stroke="none"></path> <path d="M14.75 2.25H12.75C11.9216 2.25 11.25 2.92157 11.25 3.75V5.75C11.25 6.57843 11.9216 7.25 12.75 7.25H14.75C15.5784 7.25 16.25 6.57843 16.25 5.75V3.75C16.25 2.92157 15.5784 2.25 14.75 2.25Z" stroke="black" stroke-width="1.5" stroke-linecap="round" stroke-linejoin="round" fill="none"></path> <path d="M14.75 10.75H12.75C11.9216 10.75 11.25 11.4216 11.25 12.25V14.25C11.25 15.0784 11.9216 15.75 12.75 15.75H14.75C15.5784 15.75 16.25 15.0784 16.25 14.25V12.25C16.25 11.4216 15.5784 10.75 14.75 10.75Z" stroke="black" stroke-width="1.5" stroke-linecap="round" stroke-linejoin="round" fill="none"></path> <path d="M6.75 6.5L9 4.25L6.75 2" stroke="black" stroke-width="1.5" stroke-linecap="round" stroke-linejoin="round" fill="none"></path> <path d="M9 4.25H6.5C3.877 4.25 1.75 6.377 1.75 9C1.75 11.623 3.877 13.75 6.5 13.75H8.25" stroke="black" stroke-width="1.5" stroke-linecap="round" stroke-linejoin="round" fill="none"></path></svg>