<svg xmlns="http://www.w3.org/2000/svg" xmlns:xlink="http://www.w3.org/1999/xlink" x="0px" y="0px" width="18px" height="18px" viewBox="0 0 18 18"><path d="M13.854 7.43903L9.39099 1.83303C9.19099 1.58203 8.80899 1.58203 8.60899 1.83303L4.14599 7.43903C3.88499 7.76703 4.11799 8.25003 4.53699 8.25003H6.74999V12.25C6.74999 12.802 7.19799 13.25 7.74999 13.25H10.25C10.802 13.25 11.25 12.802 11.25 12.25V8.25003H13.463C13.882 8.25003 14.115 7.76603 13.854 7.43903Z" fill="#000" fill-opacity="0.3" data-color="color-2" data-stroke="none"></path> <path d="M13.854 7.43903L9.39099 1.83303C9.19099 1.58203 8.80899 1.58203 8.60899 1.83303L4.14599 7.43903C3.88499 7.76703 4.11799 8.25003 4.53699 8.25003H6.74999V12.25C6.74999 12.802 7.19799 13.25 7.74999 13.25H10.25C10.802 13.25 11.25 12.802 11.25 12.25V8.25003H13.463C13.882 8.25003 14.115 7.76603 13.854 7.43903Z" stroke="black" stroke-width="1.5" stroke-linecap="round" stroke-linejoin="round" fill="none"></path> <path d="M11.25 16.25H6.75" stroke="black" stroke-width="1.5" stroke-linecap="round" stroke-linejoin="round" fill="none"></path></svg>