<svg xmlns="http://www.w3.org/2000/svg" xmlns:xlink="http://www.w3.org/1999/xlink" x="0px" y="0px" width="18px" height="18px" viewBox="0 0 18 18"><path opacity="0.3" d="M13 3H5C3.8954 3 3 3.9 3 5V13C3 14.1 3.8954 15 5 15H13C14.1046 15 15 14.1 15 13V5C15 3.9 14.1046 3 13 3Z" fill="#000" data-color="color-2" data-stroke="none"></path> <path d="M7 13.25L5 15.25L7 17.25" stroke="black" stroke-width="1.5" stroke-linecap="round" stroke-linejoin="round" fill="none"></path> <path d="M11 4.75L13 2.75L11 0.75" stroke="black" stroke-width="1.5" stroke-linecap="round" stroke-linejoin="round" fill="none"></path> <path d="M5.25 15.25H13.25C14.355 15.25 15.25 14.35 15.25 13.25V4.75" stroke="black" stroke-width="1.5" stroke-linecap="round" stroke-linejoin="round" fill="none"></path> <path d="M12.75 2.75H4.75C3.645 2.75 2.75 3.65 2.75 4.75V13.25" stroke="black" stroke-width="1.5" stroke-linecap="round" stroke-linejoin="round" fill="none"></path></svg>