<svg xmlns="http://www.w3.org/2000/svg" xmlns:xlink="http://www.w3.org/1999/xlink" x="0px" y="0px" width="18px" height="18px" viewBox="0 0 18 18"><path d="m9,16.25c4.004,0,7.25-3.246,7.25-7.25S13.004,1.75,9,1.75,1.75,4.996,1.75,9s3.246,7.25,7.25,7.25Z" fill="#000" opacity=".3" stroke-width="0" data-color="color-2"></path><line x1="5.75" y1="9" x2="12.25" y2="9" fill="none" stroke="#000" stroke-linecap="round" stroke-linejoin="round" stroke-width="1.5"></line><line x1="5.75" y1="11.75" x2="9.75" y2="11.75" fill="none" stroke="#000" stroke-linecap="round" stroke-linejoin="round" stroke-width="1.5"></line><line x1="5.75" y1="6.25" x2="12.25" y2="6.25" fill="none" stroke="#000" stroke-linecap="round" stroke-linejoin="round" stroke-width="1.5"></line><path d="m1.7528,9.2017c.1068,3.907,3.3107,7.0483,7.2472,7.0483,4.004,0,7.25-3.25,7.25-7.25S13.004,1.75,9,1.75c-3.031,0-5.627,1.86-6.71,4.5l-.54-3" fill="none" stroke="#000" stroke-linecap="round" stroke-linejoin="round" stroke-width="1.5"></path></svg>