<svg xmlns="http://www.w3.org/2000/svg" xmlns:xlink="http://www.w3.org/1999/xlink" x="0px" y="0px" width="18px" height="18px" viewBox="0 0 18 18"><path d="M2.75 3.75L2.75 7.25C2.75 7.80228 3.19772 8.25 3.75 8.25H7.25C7.80228 8.25 8.25 7.80228 8.25 7.25V3.75C8.25 3.19772 7.80228 2.75 7.25 2.75H3.75C3.19772 2.75 2.75 3.19772 2.75 3.75Z" fill="#000" fill-opacity="0.3" data-color="color-2" data-stroke="none"></path> <path d="M2.75 3.75L2.75 7.25C2.75 7.80228 3.19772 8.25 3.75 8.25H7.25C7.80228 8.25 8.25 7.80228 8.25 7.25V3.75C8.25 3.19772 7.80228 2.75 7.25 2.75H3.75C3.19772 2.75 2.75 3.19772 2.75 3.75Z" stroke="black" stroke-width="1.5" stroke-linecap="round" stroke-linejoin="round" fill="none"></path> <path d="M15.25 15.25L10.25 10.25" stroke="black" stroke-width="1.5" stroke-linecap="round" stroke-linejoin="round" fill="none"></path> <path d="M10.25 14.76V10.25H14.76" stroke="black" stroke-width="1.5" stroke-linecap="round" stroke-linejoin="round" fill="none"></path></svg>