<svg xmlns="http://www.w3.org/2000/svg" xmlns:xlink="http://www.w3.org/1999/xlink" x="0px" y="0px" width="18px" height="18px" viewBox="0 0 18 18"><path d="M15 13.08V4.92C15 3.85961 14.1404 3 13.08 3L4.92 3C3.85961 3 3 3.85961 3 4.92V13.08C3 14.1404 3.85961 15 4.92 15H13.08C14.1404 15 15 14.1404 15 13.08Z" fill="#000" fill-opacity="0.3" data-color="color-2" data-stroke="none"></path> <path d="M11.25 2.75H13.25C14.355 2.75 15.25 3.645 15.25 4.75V6.75" stroke="black" stroke-width="1.5" stroke-linecap="round" stroke-linejoin="round" fill="none"></path> <path d="M6.75 15.25H4.75C3.645 15.25 2.75 14.355 2.75 13.25V11.25" stroke="black" stroke-width="1.5" stroke-linecap="round" stroke-linejoin="round" fill="none"></path> <path d="M2.75 6.75V4.75C2.75 3.645 3.645 2.75 4.75 2.75H6.75" stroke="black" stroke-width="1.5" stroke-linecap="round" stroke-linejoin="round" fill="none"></path> <path d="M15.25 11.25V13.25C15.25 14.355 14.355 15.25 13.25 15.25H11.25" stroke="black" stroke-width="1.5" stroke-linecap="round" stroke-linejoin="round" fill="none"></path></svg>