<svg xmlns="http://www.w3.org/2000/svg" xmlns:xlink="http://www.w3.org/1999/xlink" x="0px" y="0px" width="18px" height="18px" viewBox="0 0 18 18"><path opacity="0.3" d="M1.75 5C1.75 3.895 2.645 3 3.75 3H14.25C15.355 3 16.25 3.895 16.25 5V11.25C16.25 12.355 15.355 13.25 14.25 13.25H3.75C2.645 13.25 1.75 12.355 1.75 11.25V5Z" fill="#000" data-color="color-2" data-stroke="none"></path> <path d="M12 2.75H14.25C15.355 2.75 16.25 3.645 16.25 4.75V10.75C16.25 11.855 15.355 12.75 14.25 12.75H3.75C2.645 12.75 1.75 11.855 1.75 10.75V4.75C1.75 3.645 2.645 2.75 3.75 2.75H6" stroke="black" stroke-width="1.5" stroke-linecap="round" stroke-linejoin="round" fill="none"></path> <path d="M5.75 15.75C6.508 15.511 7.628 15.25 9 15.25C9.795 15.25 10.941 15.338 12.25 15.75" stroke="black" stroke-width="1.5" stroke-linecap="round" stroke-linejoin="round" fill="none"></path> <path d="M9 12.75V15.25" stroke="black" stroke-width="1.5" stroke-linecap="round" stroke-linejoin="round" fill="none"></path> <path d="M11.5 6.75L9 9.25L6.5 6.75" stroke="black" stroke-width="1.5" stroke-linecap="round" stroke-linejoin="round" fill="none"></path> <path d="M9 9.25V0.75" stroke="black" stroke-width="1.5" stroke-linecap="round" stroke-linejoin="round" fill="none"></path></svg>