<svg xmlns="http://www.w3.org/2000/svg" xmlns:xlink="http://www.w3.org/1999/xlink" x="0px" y="0px" width="18px" height="18px" viewBox="0 0 18 18"><path d="M14.25 2.75H3.75C2.64543 2.75 1.75 3.64543 1.75 4.75V13.25C1.75 14.3546 2.64543 15.25 3.75 15.25H14.25C15.3546 15.25 16.25 14.3546 16.25 13.25V4.75C16.25 3.64543 15.3546 2.75 14.25 2.75Z" fill="#000" fill-opacity="0.3" data-color="color-2" data-stroke="none"></path> <path d="M14.25 2.75H3.75C2.64543 2.75 1.75 3.64543 1.75 4.75V13.25C1.75 14.3546 2.64543 15.25 3.75 15.25H14.25C15.3546 15.25 16.25 14.3546 16.25 13.25V4.75C16.25 3.64543 15.3546 2.75 14.25 2.75Z" stroke="black" stroke-width="1.5" stroke-linecap="round" stroke-linejoin="round" fill="none"></path> <path d="M10.75 6.25H12.25C12.802 6.25 13.25 6.698 13.25 7.25V9.25C13.25 9.802 12.802 10.25 12.25 10.25H4.75" stroke="black" stroke-width="1.5" stroke-linecap="round" stroke-linejoin="round" fill="none"></path> <path d="M6.75 8.25L4.75 10.25L6.75 12.25" stroke="black" stroke-width="1.5" stroke-linecap="round" stroke-linejoin="round" fill="none"></path></svg>