<svg xmlns="http://www.w3.org/2000/svg" xmlns:xlink="http://www.w3.org/1999/xlink" x="0px" y="0px" width="18px" height="18px" viewBox="0 0 18 18"><path d="M14.25 12.75H3.75C3.19772 12.75 2.75 13.1977 2.75 13.75V14.75C2.75 15.3023 3.19772 15.75 3.75 15.75H14.25C14.8023 15.75 15.25 15.3023 15.25 14.75V13.75C15.25 13.1977 14.8023 12.75 14.25 12.75Z" fill="#000" fill-opacity="0.3" data-color="color-2" data-stroke="none"></path> <path d="M14.25 12.75H3.75C3.19772 12.75 2.75 13.1977 2.75 13.75V14.75C2.75 15.3023 3.19772 15.75 3.75 15.75H14.25C14.8023 15.75 15.25 15.3023 15.25 14.75V13.75C15.25 13.1977 14.8023 12.75 14.25 12.75Z" stroke="black" stroke-width="1.5" stroke-linecap="round" stroke-linejoin="round" fill="none"></path> <path d="M5.75 5.5L9 2.25L12.25 5.5" stroke="black" stroke-width="1.5" stroke-linecap="round" stroke-linejoin="round" fill="none"></path> <path d="M9 2.25V9.75" stroke="black" stroke-width="1.5" stroke-linecap="round" stroke-linejoin="round" fill="none"></path></svg>