<svg xmlns="http://www.w3.org/2000/svg" xmlns:xlink="http://www.w3.org/1999/xlink" x="0px" y="0px" width="18px" height="18px" viewBox="0 0 18 18"><path d="M8.15499 6.33199L3.47399 13.714C3.05199 14.38 3.52999 15.25 4.31899 15.25H13.682C14.47 15.25 14.949 14.38 14.527 13.714L9.84499 6.331C9.45199 5.712 8.54899 5.712 8.15599 6.331L8.15499 6.33199Z" fill="#000" fill-opacity="0.3" data-color="color-2" data-stroke="none"></path> <path d="M8.15499 6.33199L3.47399 13.714C3.05199 14.38 3.52999 15.25 4.31899 15.25H13.682C14.47 15.25 14.949 14.38 14.527 13.714L9.84499 6.331C9.45199 5.712 8.54899 5.712 8.15599 6.331L8.15499 6.33199Z" stroke="black" stroke-width="1.5" stroke-linecap="round" stroke-linejoin="round" fill="none"></path> <path d="M3.25 2.75H14.75" stroke="black" stroke-width="1.5" stroke-linecap="round" stroke-linejoin="round" fill="none"></path></svg>