<svg xmlns="http://www.w3.org/2000/svg" xmlns:xlink="http://www.w3.org/1999/xlink" x="0px" y="0px" width="18px" height="18px" viewBox="0 0 18 18"><path fill-rule="evenodd" clip-rule="evenodd" d="M3 7.25V13.08C3 14.1404 3.85961 15 4.92 15H13.08C14.1404 15 15 14.1404 15 13.08V4.92C15 3.85961 14.1404 3 13.08 3H7.25V7.25H3Z" fill="#000" fill-opacity="0.3" data-color="color-2" data-stroke="none"></path> <path d="M10.25 2.75H13.25C14.355 2.75 15.25 3.645 15.25 4.75V13.25C15.25 14.355 14.355 15.25 13.25 15.25H4.75C3.645 15.25 2.75 14.355 2.75 13.25V10.25" stroke="black" stroke-width="1.5" stroke-linecap="round" stroke-linejoin="round" fill="none"></path> <path d="M7.25 2.75V7.25H2.75" stroke="black" stroke-width="1.5" stroke-linecap="round" stroke-linejoin="round" fill="none"></path> <path d="M7.25 7.25L1.75 1.75" stroke="black" stroke-width="1.5" stroke-linecap="round" stroke-linejoin="round" fill="none"></path></svg>