<svg xmlns="http://www.w3.org/2000/svg" xmlns:xlink="http://www.w3.org/1999/xlink" x="0px" y="0px" width="18px" height="18px" viewBox="0 0 18 18"> <path d="M5.125 5.125L7.25 7.25" stroke="black" stroke-width="1.5" stroke-linecap="round" stroke-linejoin="round" fill="none"></path> <path d="M12.875 12.875L10.75 10.75" stroke="black" stroke-width="1.5" stroke-linecap="round" stroke-linejoin="round" fill="none"></path> <path d="M2.75 6.896V3C2.75 2.862 2.862 2.75 3 2.75H6.896C7.119 2.75 7.23 3.019 7.073 3.177L3.177 7.073C3.02 7.23 2.75 7.119 2.75 6.896Z" fill="#000" fill-opacity="0.3" data-color="color-2" data-stroke="none"></path> <path d="M2.75 6.896V3C2.75 2.862 2.862 2.75 3 2.75H6.896C7.119 2.75 7.23 3.019 7.073 3.177L3.177 7.073C3.02 7.23 2.75 7.119 2.75 6.896Z" stroke="black" stroke-width="1.5" stroke-linecap="round" stroke-linejoin="round" fill="none"></path> <path d="M11.104 15.25H15C15.138 15.25 15.25 15.138 15.25 15V11.104C15.25 10.881 14.981 10.77 14.823 10.927L10.927 14.823C10.77 14.98 10.881 15.25 11.104 15.25Z" fill="#000" fill-opacity="0.3" data-color="color-2" data-stroke="none"></path> <path d="M11.104 15.25H15C15.138 15.25 15.25 15.138 15.25 15V11.104C15.25 10.881 14.981 10.77 14.823 10.927L10.927 14.823C10.77 14.98 10.881 15.25 11.104 15.25Z" stroke="black" stroke-width="1.5" stroke-linecap="round" stroke-linejoin="round" fill="none"></path> </svg>