<svg xmlns="http://www.w3.org/2000/svg" xmlns:xlink="http://www.w3.org/1999/xlink" x="0px" y="0px" width="18px" height="18px" viewBox="0 0 18 18"><path d="M3.25 9C3.25 7.89543 4.14543 7 5.25 7H12.75C13.8546 7 14.75 7.89543 14.75 9V14.25C14.75 15.3546 13.8546 16.25 12.75 16.25H5.25C4.14543 16.25 3.25 15.3546 3.25 14.25V9Z" fill="#000" fill-opacity="0.3" data-color="color-2" data-stroke="none"></path> <path d="M11.75 7.25H12.75C13.855 7.25 14.75 8.145 14.75 9.25V14.25C14.75 15.355 13.855 16.25 12.75 16.25H5.25C4.145 16.25 3.25 15.355 3.25 14.25V9.25C3.25 8.145 4.145 7.25 5.25 7.25H6.25" stroke="black" stroke-width="1.5" stroke-linecap="round" stroke-linejoin="round" fill="none"></path> <path d="M6 4.25L9 1.25L12 4.25" stroke="black" stroke-width="1.5" stroke-linecap="round" stroke-linejoin="round" fill="none"></path> <path d="M9 1.25V12" stroke="black" stroke-width="1.5" stroke-linecap="round" stroke-linejoin="round" fill="none"></path></svg>