<svg xmlns="http://www.w3.org/2000/svg" xmlns:xlink="http://www.w3.org/1999/xlink" x="0px" y="0px" width="18px" height="18px" viewBox="0 0 18 18"><path d="M8.44801 3.609L1.86701 8.602C1.60301 8.802 1.60301 9.199 1.86701 9.399L8.44801 14.392C8.77701 14.642 9.25001 14.407 9.25001 13.994V11.251H15.25C15.802 11.251 16.25 10.803 16.25 10.251V7.751C16.25 7.199 15.802 6.751 15.25 6.751H9.25001V4.008C9.25001 3.595 8.77701 3.359 8.44801 3.609Z" fill="#000" fill-opacity="0.3" data-color="color-2" data-stroke="none"></path> <path d="M8.44801 3.609L1.86701 8.602C1.60301 8.802 1.60301 9.199 1.86701 9.399L8.44801 14.392C8.77701 14.642 9.25001 14.407 9.25001 13.994V11.251H15.25C15.802 11.251 16.25 10.803 16.25 10.251V7.751C16.25 7.199 15.802 6.751 15.25 6.751H9.25001V4.008C9.25001 3.595 8.77701 3.359 8.44801 3.609Z" stroke="black" stroke-width="1.5" stroke-linecap="round" stroke-linejoin="round" fill="none"></path></svg>