<svg xmlns="http://www.w3.org/2000/svg" xmlns:xlink="http://www.w3.org/1999/xlink" x="0px" y="0px" width="18px" height="18px" viewBox="0 0 18 18"><path d="m7.75,15.25h5.5c1.1046,0,2-.8954,2-2V4.75c0-1.1046-.8954-2-2-2H4.75c-1.1046,0-2,.8954-2,2v5.5h4c.5523,0,1,.4477,1,1v4Z" fill="#000" opacity=".3" stroke-width="0" data-color="color-2"></path><rect x="2.75" y="2.75" width="12.5" height="12.5" rx="2" ry="2" fill="none" stroke="#000" stroke-linecap="round" stroke-linejoin="round" stroke-width="1.5"></rect><polyline points="12.25 9 12.25 5.75 9 5.75" fill="none" stroke="#000" stroke-linecap="round" stroke-linejoin="round" stroke-width="1.5"></polyline><line x1="12.25" y1="5.75" x2="9.25" y2="8.75" fill="none" stroke="#000" stroke-linecap="round" stroke-linejoin="round" stroke-width="1.5"></line><path d="m2.75,11.25c0-.5523.4477-1,1-1h3c.5523,0,1,.4477,1,1v3c0,.5523-.4477,1-1,1" fill="none" stroke="#000" stroke-linecap="round" stroke-linejoin="round" stroke-width="1.5"></path></svg>