<svg xmlns="http://www.w3.org/2000/svg" xmlns:xlink="http://www.w3.org/1999/xlink" x="0px" y="0px" width="18px" height="18px" viewBox="0 0 18 18"> <path d="M6.75 10.25H3.75C3.19772 10.25 2.75 10.6977 2.75 11.25V14.25C2.75 14.8023 3.19772 15.25 3.75 15.25H6.75C7.30228 15.25 7.75 14.8023 7.75 14.25V11.25C7.75 10.6977 7.30228 10.25 6.75 10.25Z" fill="#000" fill-opacity="0.3" data-color="color-2" data-stroke="none"></path> <path d="M6.75 10.25H3.75C3.19772 10.25 2.75 10.6977 2.75 11.25V14.25C2.75 14.8023 3.19772 15.25 3.75 15.25H6.75C7.30228 15.25 7.75 14.8023 7.75 14.25V11.25C7.75 10.6977 7.30228 10.25 6.75 10.25Z" stroke="black" stroke-width="1.5" stroke-linecap="round" stroke-linejoin="round" fill="none"></path> <path d="M10.25 12.75L12.75 15.25L15.25 12.75" stroke="black" stroke-width="1.5" stroke-linecap="round" stroke-linejoin="round" fill="none"></path> <path d="M12.75 15.25V2.75" stroke="black" stroke-width="1.5" stroke-linecap="round" stroke-linejoin="round" fill="none"></path> <path d="M2.75 6.5V6.75C2.75 7.302 3.198 7.75 3.75 7.75H4" stroke="black" stroke-width="1.5" stroke-linecap="round" stroke-linejoin="round" fill="none"></path> <path d="M4 2.75H3.75C3.198 2.75 2.75 3.198 2.75 3.75V4" stroke="black" stroke-width="1.5" stroke-linecap="round" stroke-linejoin="round" fill="none"></path> <path d="M7.75 4V3.75C7.75 3.198 7.302 2.75 6.75 2.75H6.5" stroke="black" stroke-width="1.5" stroke-linecap="round" stroke-linejoin="round" fill="none"></path> <path d="M6.5 7.75H6.75C7.302 7.75 7.75 7.302 7.75 6.75V6.5" stroke="black" stroke-width="1.5" stroke-linecap="round" stroke-linejoin="round" fill="none"></path> </svg>