<svg xmlns="http://www.w3.org/2000/svg" xmlns:xlink="http://www.w3.org/1999/xlink" x="0px" y="0px" width="18px" height="18px" viewBox="0 0 18 18"> <path d="M8.646 14.25H4C3.862 14.25 3.75 14.138 3.75 14V9.35399C3.75 9.13099 4.019 9.01999 4.177 9.17699L8.823 13.823C8.98 13.98 8.869 14.25 8.646 14.25Z" fill="#000" fill-opacity="0.3" data-color="color-2" data-stroke="none"></path> <path d="M8.646 14.25H4C3.862 14.25 3.75 14.138 3.75 14V9.35399C3.75 9.13099 4.019 9.01999 4.177 9.17699L8.823 13.823C8.98 13.98 8.869 14.25 8.646 14.25Z" stroke="black" stroke-width="1.5" stroke-linecap="round" stroke-linejoin="round" fill="none"></path> <path d="M9.35399 3.75H14C14.138 3.75 14.25 3.862 14.25 4V8.646C14.25 8.869 13.981 8.98 13.823 8.823L9.17699 4.177C9.01999 4.02 9.13099 3.75 9.35399 3.75Z" fill="#000" fill-opacity="0.3" data-color="color-2" data-stroke="none"></path> <path d="M9.35399 3.75H14C14.138 3.75 14.25 3.862 14.25 4V8.646C14.25 8.869 13.981 8.98 13.823 8.823L9.17699 4.177C9.01999 4.02 9.13099 3.75 9.35399 3.75Z" stroke="black" stroke-width="1.5" stroke-linecap="round" stroke-linejoin="round" fill="none"></path> </svg>