<svg xmlns="http://www.w3.org/2000/svg" xmlns:xlink="http://www.w3.org/1999/xlink" x="0px" y="0px" width="18px" height="18px" viewBox="0 0 18 18"><path d="M4.14599 10.561L8.60899 16.166C8.80899 16.417 9.19099 16.417 9.39099 16.166L13.854 10.561C14.115 10.233 13.882 9.75 13.463 9.75H11.25V5.75C11.25 5.198 10.802 4.75 10.25 4.75H7.74999C7.19799 4.75 6.74999 5.198 6.74999 5.75V9.75H4.53699C4.11799 9.75 3.88499 10.234 4.14599 10.561Z" fill="#000" fill-opacity="0.3" data-color="color-2" data-stroke="none"></path> <path d="M4.14599 10.561L8.60899 16.166C8.80899 16.417 9.19099 16.417 9.39099 16.166L13.854 10.561C14.115 10.233 13.882 9.75 13.463 9.75H11.25V5.75C11.25 5.198 10.802 4.75 10.25 4.75H7.74999C7.19799 4.75 6.74999 5.198 6.74999 5.75V9.75H4.53699C4.11799 9.75 3.88499 10.234 4.14599 10.561Z" stroke="black" stroke-width="1.5" stroke-linecap="round" stroke-linejoin="round" fill="none"></path> <path d="M6.75 1.75H11.25" stroke="black" stroke-width="1.5" stroke-linecap="round" stroke-linejoin="round" fill="none"></path></svg>