<svg xmlns="http://www.w3.org/2000/svg" xmlns:xlink="http://www.w3.org/1999/xlink" x="0px" y="0px" width="18px" height="18px" viewBox="0 0 18 18"><path d="M15.146 7.74999H10.5C10.362 7.74999 10.25 7.63799 10.25 7.49999V2.85399C10.25 2.63099 10.519 2.51999 10.677 2.67699L15.323 7.32299C15.48 7.47999 15.369 7.74999 15.146 7.74999Z" fill="#000" fill-opacity="0.3" data-color="color-2" data-stroke="none"></path> <path d="M15.146 7.74999H10.5C10.362 7.74999 10.25 7.63799 10.25 7.49999V2.85399C10.25 2.63099 10.519 2.51999 10.677 2.67699L15.323 7.32299C15.48 7.47999 15.369 7.74999 15.146 7.74999Z" stroke="black" stroke-width="1.5" stroke-linecap="round" stroke-linejoin="round" fill="none"></path> <path d="M2.85403 10.25H7.50003C7.63803 10.25 7.75003 10.362 7.75003 10.5V15.146C7.75003 15.369 7.48103 15.48 7.32303 15.323L2.67703 10.677C2.52003 10.52 2.63103 10.25 2.85403 10.25Z" fill="#000" fill-opacity="0.3" data-color="color-2" data-stroke="none"></path> <path d="M2.85403 10.25H7.50003C7.63803 10.25 7.75003 10.362 7.75003 10.5V15.146C7.75003 15.369 7.48103 15.48 7.32303 15.323L2.67703 10.677C2.52003 10.52 2.63103 10.25 2.85403 10.25Z" stroke="black" stroke-width="1.5" stroke-linecap="round" stroke-linejoin="round" fill="none"></path></svg>