<svg xmlns="http://www.w3.org/2000/svg" xmlns:xlink="http://www.w3.org/1999/xlink" x="0px" y="0px" width="18px" height="18px" viewBox="0 0 18 18"><path opacity="0.3" d="M13.464 6.89099C13.278 4.57699 11.362 2.75 9 2.75C6.515 2.75 4.5 4.765 4.5 7.25C4.5 7.6 4.54899 7.936 4.62399 8.263C3.02699 8.33 1.75 9.637 1.75 11.25C1.75 12.907 3.093 14.25 4.75 14.25H12.5C14.571 14.25 16.25 12.571 16.25 10.5C16.25 8.764 15.065 7.31799 13.464 6.89099Z" fill="#000" data-color="color-2" data-stroke="none"></path> <path d="M6.75 10.5L9 8.25L11.25 10.5" stroke="black" stroke-width="1.5" stroke-linecap="round" stroke-linejoin="round" fill="none"></path> <path d="M9 8.25V14.25" stroke="black" stroke-width="1.5" stroke-linecap="round" stroke-linejoin="round" fill="none"></path> <path d="M12 14.25H12.5C14.571 14.25 16.25 12.571 16.25 10.5C16.25 8.7639 15.065 7.31791 13.464 6.89111C13.278 4.57711 11.362 2.75 9 2.75C6.515 2.75 4.5 4.7651 4.5 7.25C4.5 7.6001 4.54899 7.93598 4.62399 8.26288C3.02699 8.32998 1.75 9.6369 1.75 11.25C1.75 12.907 3.093 14.25 4.75 14.25H6" stroke="black" stroke-width="1.5" stroke-linecap="round" stroke-linejoin="round" fill="none"></path></svg>