<svg xmlns="http://www.w3.org/2000/svg" xmlns:xlink="http://www.w3.org/1999/xlink" x="0px" y="0px" width="18px" height="18px" viewBox="0 0 18 18"><path d="M2.75 11.25L15.25 11.25C15.8023 11.25 16.25 10.8023 16.25 10.25V7.75C16.25 7.19772 15.8023 6.75 15.25 6.75L2.75 6.75C2.19771 6.75 1.75 7.19772 1.75 7.75V10.25C1.75 10.8023 2.19771 11.25 2.75 11.25Z" fill="#000" fill-opacity="0.3" data-color="color-2" data-stroke="none"></path> <path d="M2.75 11.25L15.25 11.25C15.8023 11.25 16.25 10.8023 16.25 10.25V7.75C16.25 7.19772 15.8023 6.75 15.25 6.75L2.75 6.75C2.19771 6.75 1.75 7.19772 1.75 7.75V10.25C1.75 10.8023 2.19771 11.25 2.75 11.25Z" stroke="black" stroke-width="1.5" stroke-linecap="round" stroke-linejoin="round" fill="none"></path> <path d="M6.75 3.75L9 1.5L11.25 3.75" stroke="black" stroke-width="1.5" stroke-linecap="round" stroke-linejoin="round" fill="none"></path> <path d="M6.75 14.25L9 16.5L11.25 14.25" stroke="black" stroke-width="1.5" stroke-linecap="round" stroke-linejoin="round" fill="none"></path></svg>