<svg xmlns="http://www.w3.org/2000/svg" xmlns:xlink="http://www.w3.org/1999/xlink" x="0px" y="0px" width="18px" height="18px" viewBox="0 0 18 18"><path d="M10.75 2.75H13.25C14.355 2.75 15.25 3.645 15.25 4.75V13.25C15.25 14.355 14.355 15.25 13.25 15.25H4.75C3.645 15.25 2.75 14.355 2.75 13.25V10.75" stroke="black" stroke-width="1.5" stroke-linecap="round" stroke-linejoin="round" fill="none"></path> <path opacity="0.3" d="M8.25 6.25V4.75C8.25 3.645 7.355 2.75 6.25 2.75H4.75C3.645 2.75 2.75 3.645 2.75 4.75V6.25C2.75 7.355 3.645 8.25 4.75 8.25H6.25C7.355 8.25 8.25 7.355 8.25 6.25Z" fill="#000" data-color="color-2" data-stroke="none"></path> <path d="M8.25 6.25V4.75C8.25 3.645 7.355 2.75 6.25 2.75H4.75C3.645 2.75 2.75 3.645 2.75 4.75V6.25C2.75 7.355 3.645 8.25 4.75 8.25H6.25C7.355 8.25 8.25 7.355 8.25 6.25Z" stroke="black" stroke-width="1.5" stroke-linecap="round" stroke-linejoin="round" fill="none"></path> <path d="M12.75 9.75H9.75V12.75" stroke="black" stroke-width="1.5" stroke-linecap="round" stroke-linejoin="round" fill="none"></path> <path d="M9.75 9.75L12.5 12.5" stroke="black" stroke-width="1.5" stroke-linecap="round" stroke-linejoin="round" fill="none"></path></svg>