<svg xmlns="http://www.w3.org/2000/svg" xmlns:xlink="http://www.w3.org/1999/xlink" x="0px" y="0px" width="12px" height="12px" viewBox="0 0 12 12"><path d="m6.25,8.75h-3.5c-1.105,0-2-.895-2-2v-1.5c0-1.105.895-2,2-2h3.5" fill="none" stroke="#000" stroke-linecap="round" stroke-linejoin="round" stroke-width="1.5"></path><path d="m8.75,3.25h.5c1.105,0,2,.895,2,2v1.5c0,1.105-.895,2-2,2h-.5" fill="none" stroke="#000" stroke-linecap="round" stroke-linejoin="round" stroke-width="1.5"></path><line x1="6.25" y1="2" x2="6.25" y2="10" fill="none" stroke="#000" stroke-linecap="round" stroke-linejoin="round" stroke-width="1.5" data-color="color-2"></line><path d="m5,.75c.69,0,1.25.56,1.25,1.25" fill="none" stroke="#000" stroke-linecap="round" stroke-linejoin="round" stroke-width="1.5" data-color="color-2"></path><path d="m7.5.75c-.69,0-1.25.56-1.25,1.25" fill="none" stroke="#000" stroke-linecap="round" stroke-linejoin="round" stroke-width="1.5" data-color="color-2"></path><path d="m5,11.25c.69,0,1.25-.56,1.25-1.25" fill="none" stroke="#000" stroke-linecap="round" stroke-linejoin="round" stroke-width="1.5" data-color="color-2"></path><path d="m7.5,11.25c-.69,0-1.25-.56-1.25-1.25" fill="none" stroke="#000" stroke-linecap="round" stroke-linejoin="round" stroke-width="1.5" data-color="color-2"></path></svg>