<svg xmlns="http://www.w3.org/2000/svg" xmlns:xlink="http://www.w3.org/1999/xlink" x="0px" y="0px" width="18px" height="18px" viewBox="0 0 18 18"><path d="M6.45261 2.2103C7.24501 1.9128 8.1035 1.75 9 1.75C13.004 1.75 16.25 4.996 16.25 9C16.25 13.004 13.004 16.25 9 16.25C4.996 16.25 1.75 13.004 1.75 9C1.75 8.1036 1.9128 7.24501 2.2103 6.45261" stroke="black" stroke-width="1.5" stroke-linecap="round" stroke-linejoin="round" fill="none"></path> <path d="M9 10.25C9.69 10.25 10.25 9.69 10.25 9C10.25 8.31 9.69 7.75 9 7.75C8.31 7.75 7.75 8.31 7.75 9C7.75 9.69 8.31 10.25 9 10.25Z" fill="#000" stroke="#000" stroke-width="1.5" stroke-linecap="round" stroke-linejoin="round" data-color="color-2"></path> <path d="M8.29306 8.293L3.88306 3.883" stroke="#000" stroke-width="1.5" stroke-linecap="round" stroke-linejoin="round" data-color="color-2" fill="none"></path></svg>