<svg xmlns="http://www.w3.org/2000/svg" xmlns:xlink="http://www.w3.org/1999/xlink" x="0px" y="0px" width="32px" height="32px" viewBox="0 0 32 32"> <path d="M13.7792 2.98777L13.5 5.36671C11.4345 6.31472 10 8.40117 10 10.8227L10 23H22L22 10.8227C22 8.40117 20.5655 6.31472 18.5 5.36671L18.2209 2.98777C18.0951 1.85613 17.1386 1 16 1C14.8614 1 13.9049 1.85613 13.7792 2.98777Z" fill="black"></path> <path d="M25 27.5C25 28.8807 23.8807 30 22.5 30H9.5C8.11929 30 7 28.8807 7 27.5C7 26.1193 8.11929 25 9.5 25H22.5C23.8807 25 25 26.1193 25 27.5Z" fill="#000" data-color="color-2"></path> </svg>