<svg xmlns="http://www.w3.org/2000/svg" xmlns:xlink="http://www.w3.org/1999/xlink" x="0px" y="0px" width="32px" height="32px" viewBox="0 0 32 32"> <path fill-rule="evenodd" clip-rule="evenodd" d="M25 13H28.5V19H25V17H26.5V15H25V13Z" fill="#000" data-color="color-2"></path> <path d="M23.054 2H8.9458L9.61247 0H22.3873L23.054 2Z" fill="#000" data-color="color-2"></path> <path d="M23.054 30H8.9458L9.61247 32H22.3873L23.054 30Z" fill="#000" data-color="color-2"></path> <path fill-rule="evenodd" clip-rule="evenodd" d="M23 4C25.2091 4 27 5.79086 27 8V24C27 26.2091 25.2091 28 23 28H9C6.79086 28 5 26.2091 5 24V8C5 5.79086 6.79086 4 9 4H23ZM18.7686 11C17.5938 11.0002 16.7139 11.7585 16 12.6104C15.2861 11.7585 14.4062 11.0002 13.2314 11C11.4474 11 10 12.4873 10 14.3223C10.0003 17.4592 14.669 20.882 16 21.5C17.331 20.882 21.9997 17.4592 22 14.3223C22 12.4873 20.5526 11 18.7686 11Z" fill="black"></path> </svg>