<svg xmlns="http://www.w3.org/2000/svg" xmlns:xlink="http://www.w3.org/1999/xlink" x="0px" y="0px" width="48px" height="48px" viewBox="0 0 48 48"> <path d="M37 41C37 42.6569 35.7528 44 34.2143 44H13.7857C12.2472 44 11 42.6569 11 41C11 39.3431 12.2472 38 13.7857 38H34.2143C35.7528 38 37 39.3431 37 41Z" fill="black"></path> <path fill-rule="evenodd" clip-rule="evenodd" d="M24 2C25.446 2 26.6831 3.03799 26.9346 4.46191L27.5 7.66211C30.5981 9.1047 32.9998 12.5028 33 16.1875V35H15V16.1875C15.0002 12.5028 17.4019 9.1047 20.5 7.66211L21.0654 4.46191C21.3169 3.03799 22.554 2 24 2ZM18 17V32H21V17H18Z" fill="#000" data-color="color-2"></path> </svg>