<svg xmlns="http://www.w3.org/2000/svg" xmlns:xlink="http://www.w3.org/1999/xlink" x="0px" y="0px" width="24px" height="24px" viewBox="0 0 24 24"> <path d="M11 10V9H13V10" stroke="black" stroke-width="2" stroke-linecap="square" fill="none"></path> <path d="M12 18H12.01" stroke="black" stroke-width="2" stroke-linecap="square" fill="none"></path> <path d="M12 3V1" stroke="#000" stroke-width="2" stroke-linecap="square" data-color="color-2" fill="none"></path> <path d="M10.5 10H10L8.4593 22H8.5" stroke="#000" stroke-width="2" stroke-linecap="square" data-color="color-2" fill="none"></path> <path d="M13.5 10H14L15.5332 22H15.5" stroke="#000" stroke-width="2" stroke-linecap="square" data-color="color-2" fill="none"></path> <path d="M16.4105 9.14425L16.7378 6.89854C16.8865 5.87863 16.2357 4.91276 15.2347 4.66749L14.1429 4.4L13.7857 3H10.2143L9.85714 4.4L8.76534 4.66749C7.76426 4.91276 7.1135 5.87863 7.26218 6.89854L7.58954 9.14425C7.66117 9.63562 8.08252 10 8.57908 10H15.4209C15.9175 10 16.3388 9.63562 16.4105 9.14425Z" stroke="black" stroke-width="2" data-cap="butt" fill="none"></path> <path d="M6 22H18" stroke="black" stroke-width="2" stroke-linecap="square" fill="none"></path> </svg>