<svg xmlns="http://www.w3.org/2000/svg" xmlns:xlink="http://www.w3.org/1999/xlink" x="0px" y="0px" width="24px" height="24px" viewBox="0 0 24 24"> <path d="M12 19V10" stroke="black" stroke-width="2" data-cap="butt" fill="none"></path> <path d="M12 3V2" stroke="black" stroke-width="2" stroke-linecap="square" fill="none"></path> <path d="M11 3C10 3.66667 8 6.5 8 10" stroke="#000" stroke-width="2" data-color="color-2" data-cap="butt" fill="none"></path> <path d="M13 3C14 3.66667 16 6.5 16 10" stroke="#000" stroke-width="2" data-color="color-2" data-cap="butt" fill="none"></path> <path d="M17.4791 4.17643C19.2024 4.95195 20.7431 6.08457 22 7.5V10H2V7.5C3.2569 6.08457 4.79756 4.95195 6.52095 4.17643C8.24433 3.40091 10.1115 3 12 3C13.8885 3 15.7557 3.40091 17.4791 4.17643Z" stroke="black" stroke-width="2" stroke-miterlimit="10" stroke-linecap="square" fill="none"></path> <path d="M4 21V21C9.03612 18.4819 14.9639 18.4819 20 21V21" stroke="black" stroke-width="2" stroke-linecap="square" fill="none"></path> </svg>