<svg xmlns="http://www.w3.org/2000/svg" xmlns:xlink="http://www.w3.org/1999/xlink" x="0px" y="0px" width="24px" height="24px" viewBox="0 0 24 24"> <path d="M17 8H21" stroke="#000" stroke-width="2" stroke-linecap="square" data-color="color-2" fill="none"></path> <path d="M3 8H7" stroke="#000" stroke-width="2" stroke-linecap="square" data-color="color-2" fill="none"></path> <path d="M5 2V4V3.5" stroke="black" stroke-width="2" stroke-linecap="square" fill="none"></path> <path d="M19 2V4V3.5" stroke="black" stroke-width="2" stroke-linecap="square" fill="none"></path> <path d="M12 9V7" stroke="black" stroke-width="2" stroke-linecap="square" fill="none"></path> <path d="M12 21V18" stroke="black" stroke-width="2" stroke-linecap="square" fill="none"></path> <path d="M7 14H17" stroke="#000" stroke-width="2" stroke-linecap="square" data-color="color-2" fill="none"></path> <path d="M3 6V21H7V6C7 4.89543 6.10457 4 5 4C3.89543 4 3 4.89543 3 6Z" stroke="black" stroke-width="2" data-cap="butt" fill="none"></path> <path d="M17 6V21H21V6C21 4.89543 20.1046 4 19 4C17.8954 4 17 4.89543 17 6Z" stroke="black" stroke-width="2" data-cap="butt" fill="none"></path> <path d="M7 14V21H17V14C17 11.2386 14.7614 9 12 9C9.23858 9 7 11.2386 7 14Z" stroke="black" stroke-width="2" data-cap="butt" fill="none"></path> </svg>