<svg xmlns="http://www.w3.org/2000/svg" xmlns:xlink="http://www.w3.org/1999/xlink" x="0px" y="0px" width="32px" height="32px" viewBox="0 0 32 32"> <path d="M13 29V24H19V29" stroke="black" stroke-width="2" data-cap="butt" fill="none"></path> <path d="M8 16V7.79052" stroke="black" stroke-width="2" data-cap="butt" fill="none"></path> <path d="M24 16V7.81066" stroke="black" stroke-width="2" data-cap="butt" fill="none"></path> <path d="M5 19.8148V29H27V19.8148" stroke="black" stroke-width="2" data-cap="butt" fill="none"></path> <path d="M18 12L20 12" stroke="black" stroke-width="2" stroke-linecap="square" fill="none"></path> <path d="M12 12L14 12" stroke="black" stroke-width="2" stroke-linecap="square" fill="none"></path> <path d="M22.3953 8H9.60469C8.24226 8 6.92039 7.53631 5.85652 6.68521L5 6V5L6.01109 4.97593C9.2376 4.8991 12.3385 3.70987 14.7889 1.60949L15.5 1H16.5L17.2014 1.59887C19.5663 3.61817 22.5362 4.79262 25.6426 4.93694L27 5V6L26.1435 6.68521C25.0796 7.53632 23.7577 8 22.3953 8Z" stroke="#000" stroke-width="2" data-color="color-2" data-cap="butt" fill="none"></path> <path d="M25.5969 20H6.40312C4.88421 20 3.44764 19.3096 2.49878 18.1235L2 17.5V16H16H30V17.5L29.5012 18.1235C28.5524 19.3096 27.1158 20 25.5969 20Z" stroke="#000" stroke-width="2" data-color="color-2" data-cap="butt" fill="none"></path> </svg>