<svg xmlns="http://www.w3.org/2000/svg" xmlns:xlink="http://www.w3.org/1999/xlink" x="0px" y="0px" width="32px" height="32px" viewBox="0 0 32 32"> <path d="M3 22V19" stroke="black" stroke-width="2" stroke-linecap="square" fill="none"></path> <path d="M8 22H3V29H8" stroke="black" stroke-width="2" data-cap="butt" fill="none"></path> <path d="M29 22V19" stroke="black" stroke-width="2" stroke-linecap="square" fill="none"></path> <path d="M24 22H29V29H24" stroke="black" stroke-width="2" data-cap="butt" fill="none"></path> <path d="M13 29V24C13 22.3431 14.3431 21 16 21V21C17.6569 21 19 22.3431 19 24V29" stroke="#000" stroke-width="2" data-color="color-2" data-cap="butt" fill="none"></path> <path d="M8 12V29H24V12" stroke="black" stroke-width="2" data-cap="butt" fill="none"></path> <path d="M24 17H22" stroke="black" stroke-width="2" stroke-linecap="square" fill="none"></path> <path d="M13 16H12" stroke="black" stroke-width="2" stroke-linecap="square" fill="none"></path> <path d="M26 12V3H22V7H18V3H14V7H10V3H6V12H26Z" stroke="black" stroke-width="2" stroke-linecap="square" fill="none"></path> </svg>