<svg xmlns="http://www.w3.org/2000/svg" xmlns:xlink="http://www.w3.org/1999/xlink" x="0px" y="0px" width="32px" height="32px" viewBox="0 0 32 32"> <path d="M16 7V7C13.1036 10.4757 13.1036 15.5243 16 19V19" stroke="#000" stroke-width="2" data-color="color-2" data-cap="butt" fill="none"></path> <path d="M16 7V7C18.8964 10.4757 18.8964 15.5243 16 19V19" stroke="#000" stroke-width="2" data-color="color-2" data-cap="butt" fill="none"></path> <path d="M22 13H10" stroke="#000" stroke-width="2" data-color="color-2" data-cap="butt" fill="none"></path> <path d="M24 2C25.6569 2 27 3.34315 27 5L27 27C27 28.6569 25.6569 30 24 30L5 30L5 2L24 2Z" stroke="black" stroke-width="2" data-cap="butt" fill="none"></path> <path d="M11 24H21" stroke="black" stroke-width="2" stroke-linecap="square" fill="none"></path> <path d="M16 19C19.3137 19 22 16.3137 22 13C22 9.68629 19.3137 7 16 7C12.6863 7 10 9.68629 10 13C10 16.3137 12.6863 19 16 19Z" stroke="#000" stroke-width="2" stroke-miterlimit="10" stroke-linecap="square" data-color="color-2" fill="none"></path> </svg>