<svg xmlns="http://www.w3.org/2000/svg" xmlns:xlink="http://www.w3.org/1999/xlink" x="0px" y="0px" width="32px" height="32px" viewBox="0 0 32 32"> <path d="M9 10V17" stroke="black" stroke-width="2" data-cap="butt" fill="none"></path> <path d="M12 3.5V10" stroke="black" stroke-width="2" data-cap="butt" fill="none"></path> <path d="M15 10.0331V17.0331" stroke="black" stroke-width="2" data-cap="butt" fill="none"></path> <path d="M22 10V17" stroke="black" stroke-width="2" data-cap="butt" fill="none"></path> <path d="M25 17V24" stroke="black" stroke-width="2" data-cap="butt" fill="none"></path> <path d="M7 17V24" stroke="black" stroke-width="2" data-cap="butt" fill="none"></path> <path d="M18 3V10" stroke="black" stroke-width="2" data-cap="butt" fill="none"></path> <path d="M29 17L3 17" stroke="black" stroke-width="2" data-cap="butt" fill="none"></path> <path d="M29 24H21" stroke="black" stroke-width="2" data-cap="butt" fill="none"></path> <path d="M11 24H3" stroke="black" stroke-width="2" data-cap="butt" fill="none"></path> <path d="M11 29V22C11 19.2386 13.2386 17 16 17V17C18.7614 17 21 19.2386 21 22V29" stroke="#000" stroke-width="2" data-color="color-2" data-cap="butt" fill="none"></path> <path d="M16 3C8.8203 3 3 8.8203 3 16V29H29V16C29 8.8203 23.1797 3 16 3Z" stroke="black" stroke-width="2" stroke-miterlimit="10" stroke-linecap="square" fill="none"></path> <path d="M27.5483 10L4.5 10" stroke="black" stroke-width="2" data-cap="butt" fill="none"></path> </svg>