<svg xmlns="http://www.w3.org/2000/svg" xmlns:xlink="http://www.w3.org/1999/xlink" x="0px" y="0px" width="32px" height="32px" viewBox="0 0 32 32"> <path d="M16 22V16" stroke="#000" stroke-width="2" data-color="color-2" data-cap="butt" fill="none"></path> <path d="M21 22V14.5" stroke="#000" stroke-width="2" data-color="color-2" data-cap="butt" fill="none"></path> <path d="M11 22V14.5" stroke="#000" stroke-width="2" data-color="color-2" data-cap="butt" fill="none"></path> <path d="M26 6C26 11.5228 21.5228 16 16 16C10.4772 16 6 11.5228 6 6" stroke="black" stroke-width="2" stroke-miterlimit="10" stroke-linecap="square" fill="none"></path> <path d="M26 22L6 22" stroke="black" stroke-width="2" stroke-linecap="square" fill="none"></path> <path d="M2 28V4H6V28H2Z" stroke="black" stroke-width="2" stroke-linecap="square" fill="none"></path> <path d="M26 28V4H30V28H26Z" stroke="black" stroke-width="2" stroke-linecap="square" fill="none"></path> <path d="M22.2312 27C21.8553 27.5978 21.1527 28 20.348 28C19.1473 28 18.174 27.1046 18.174 26C18.174 27.1046 17.2007 28 16 28C14.7993 28 13.826 27.1046 13.826 26C13.826 27.1046 12.8527 28 11.652 28C10.8473 28 10.1447 27.5978 9.76883 27" stroke="#000" stroke-width="2" stroke-linecap="square" data-color="color-2" fill="none"></path> </svg>