<svg xmlns="http://www.w3.org/2000/svg" xmlns:xlink="http://www.w3.org/1999/xlink" x="0px" y="0px" width="32px" height="32px" viewBox="0 0 32 32"> <path d="M23 18H29V29H23" stroke="#000" stroke-width="2" data-color="color-2" data-cap="butt" fill="none"></path> <path d="M9 18H2.99999V29H9" stroke="#000" stroke-width="2" data-color="color-2" data-cap="butt" fill="none"></path> <path d="M16 3V1" stroke="#000" stroke-width="2" stroke-linecap="square" data-color="color-2" fill="none"></path> <path d="M11 10V8C11 5.23858 13.2386 3 16 3V3C18.7614 3 21 5.23858 21 8V10" stroke="black" stroke-width="2" data-cap="butt" fill="none"></path> <path d="M16 29L16 26" stroke="#000" stroke-width="2" stroke-miterlimit="10" stroke-linecap="square" data-color="color-2" fill="none"></path> <path d="M14 14H18" stroke="black" stroke-width="2" stroke-miterlimit="10" stroke-linecap="square" fill="none"></path> <path d="M14 18H18" stroke="black" stroke-width="2" stroke-miterlimit="10" stroke-linecap="square" fill="none"></path> <path d="M14 22H18" stroke="black" stroke-width="2" stroke-miterlimit="10" stroke-linecap="square" fill="none"></path> <path d="M9 15C9 11.134 12.134 8 16 8V8C19.866 8 23 11.134 23 15V29H9V15Z" stroke="black" stroke-width="2" data-cap="butt" fill="none"></path> </svg>