<svg xmlns="http://www.w3.org/2000/svg" xmlns:xlink="http://www.w3.org/1999/xlink" x="0px" y="0px" width="32px" height="32px" viewBox="0 0 32 32"> <path d="M3 10H7" stroke="#000" stroke-width="2" stroke-linecap="square" data-color="color-2" fill="none"></path> <path d="M25 10H29" stroke="#000" stroke-width="2" stroke-linecap="square" data-color="color-2" fill="none"></path> <path d="M16 11V8" stroke="black" stroke-width="2" stroke-linecap="square" fill="none"></path> <path d="M22 18V17.125C22 13.7423 19.3137 11 16 11C12.6863 11 10 13.7423 10 17.125V18" stroke="black" stroke-width="2" stroke-miterlimit="10" stroke-linecap="square" fill="none"></path> <path d="M13 29V25C13 23.3431 14.3431 22 16 22V22C17.6569 22 19 23.3431 19 25V29" stroke="#000" stroke-width="2" data-color="color-2" data-cap="butt" fill="none"></path> <path d="M27 3V5V4.5" stroke="black" stroke-width="2" stroke-linecap="square" fill="none"></path> <path d="M5 3V5V4.5" stroke="black" stroke-width="2" stroke-linecap="square" fill="none"></path> <path d="M25 29H7" stroke="black" stroke-width="2" data-cap="butt" fill="none"></path> <path d="M7 18H25" stroke="black" stroke-width="2" data-cap="butt" fill="none"></path> <path d="M29 29V7C29 5.89543 28.1046 5 27 5C25.8954 5 25 5.89543 25 7V29H29Z" stroke="black" stroke-width="2" data-cap="butt" fill="none"></path> <path d="M7 29V7C7 5.89543 6.10457 5 5 5C3.89543 5 3 5.89543 3 7V29H7Z" stroke="black" stroke-width="2" data-cap="butt" fill="none"></path> </svg>