<svg xmlns="http://www.w3.org/2000/svg" xmlns:xlink="http://www.w3.org/1999/xlink" x="0px" y="0px" width="48px" height="48px" viewBox="0 0 48 48"> <path d="M23 26L45 26" stroke="#000" stroke-width="2" stroke-linecap="square" data-color="color-2" fill="none"></path> <path d="M8 26L14 26" stroke="#000" stroke-width="2" stroke-linecap="square" data-color="color-2" fill="none"></path> <path d="M8 36H3" stroke="black" stroke-width="2" stroke-linecap="square" fill="none"></path> <circle cx="33" cy="37" r="6" stroke="black" stroke-width="2" data-cap="butt" fill="none"></circle> <path d="M34 36.9999C34 37.5522 33.5523 37.9999 33 37.9999C32.4477 37.9999 32 37.5522 32 36.9999C32 36.4477 32.4477 35.9999 33 35.9999C33.5523 35.9999 34 36.4477 34 36.9999Z" fill="black" stroke="black" stroke-width="2" data-cap="butt"></path> <path d="M27.092 36H8V20.2361C8 19.4785 7.572 18.786 6.89443 18.4472L4.10557 17.0528C3.42801 16.714 3 16.0215 3 15.2639V10H40C42.7614 10 45 12.2386 45 15V36H38.9339" stroke="black" stroke-width="2" data-cap="butt" fill="none"></path> <path d="M14 36V20H23V36" stroke="black" stroke-width="2" stroke-linecap="square" fill="none"></path> <path d="M40 15L28 15L28 21L40 21L40 15Z" stroke="#000" stroke-width="2" stroke-linecap="square" data-color="color-2" fill="none"></path> </svg>