<svg xmlns="http://www.w3.org/2000/svg" xmlns:xlink="http://www.w3.org/1999/xlink" x="0px" y="0px" width="48px" height="48px" viewBox="0 0 48 48"> <path d="M24 14L24 19" stroke="black" stroke-width="2" stroke-linecap="square" fill="none"></path> <path d="M36.5 14L36.5 19" stroke="black" stroke-width="2" stroke-linecap="square" fill="none"></path> <path d="M11.5 14L11.5 19" stroke="black" stroke-width="2" stroke-linecap="square" fill="none"></path> <path d="M15 43H9L11.0357 24H16.3571L15 43Z" stroke="black" stroke-width="2" stroke-linecap="square" fill="none"></path> <path d="M33 43H39L36.9643 24H31.6429L33 43Z" stroke="black" stroke-width="2" stroke-linecap="square" fill="none"></path> <path d="M6.75619 12.0873L4 5H5C5 5 7.5 9 24 9C40.5 9 43 5 43 5H44L41.2438 12.0873C40.7954 13.2405 39.685 14 38.4478 14H9.5522C8.31496 14 7.20462 13.2405 6.75619 12.0873Z" stroke="#000" stroke-width="2" stroke-linecap="square" data-color="color-2" fill="none"></path> <path d="M41 19H7" stroke="black" stroke-width="2" stroke-linecap="square" fill="none"></path> </svg>