<svg xmlns="http://www.w3.org/2000/svg" xmlns:xlink="http://www.w3.org/1999/xlink" x="0px" y="0px" width="48px" height="48px" viewBox="0 0 48 48"> <path d="M24 39L24 24" stroke="#000" stroke-width="2" data-color="color-2" data-cap="butt" fill="none"></path> <path d="M24 6V3" stroke="black" stroke-width="2" stroke-linecap="square" fill="none"></path> <path d="M23 6C20 7.33333 16 12 16 19" stroke="#000" stroke-width="2" data-color="color-2" data-cap="butt" fill="none"></path> <path d="M25 6C28 7.33333 32 12 32 19" stroke="#000" stroke-width="2" data-color="color-2" data-cap="butt" fill="none"></path> <path d="M4 19V16.6429C8.91398 9.71382 16.255 6 24 6C31.745 6 39.086 9.71382 44 16.6429V19H4Z" stroke="black" stroke-width="2" stroke-miterlimit="10" stroke-linecap="square" fill="none"></path> <path d="M8 43V43C18.0722 37.9639 29.9278 37.9639 40 43V43" stroke="#000" stroke-width="2" stroke-linecap="square" data-color="color-2" fill="none"></path> <path d="M20 19V20C20 22.2091 21.7909 24 24 24V24C26.2091 24 28 22.2091 28 20V19" stroke="black" stroke-width="2" data-cap="butt" fill="none"></path> <path d="M12 19V20C12 22.2091 13.7909 24 16 24V24C18.2091 24 20 22.2091 20 20V19" stroke="black" stroke-width="2" data-cap="butt" fill="none"></path> <path d="M4 19V20C4 22.2091 5.79086 24 8 24V24C10.2091 24 12 22.2091 12 20V19" stroke="black" stroke-width="2" data-cap="butt" fill="none"></path> <path d="M28 19V20C28 22.2091 29.7909 24 32 24V24C34.2091 24 36 22.2091 36 20V19" stroke="black" stroke-width="2" data-cap="butt" fill="none"></path> <path d="M36 19V20C36 22.2091 37.7909 24 40 24V24C42.2091 24 44 22.2091 44 20V19" stroke="black" stroke-width="2" data-cap="butt" fill="none"></path> </svg>