<svg xmlns="http://www.w3.org/2000/svg" xmlns:xlink="http://www.w3.org/1999/xlink" x="0px" y="0px" width="48px" height="48px" viewBox="0 0 48 48"> <path d="M27.6685 27.5397C28.9338 12.5203 21.8343 8.454 18.1057 6.66843L17.7278 6.49628" stroke="black" stroke-width="2" data-cap="butt" fill="none"></path> <path d="M10.958 21.3855C8.62533 18.7807 5.16524 18.8585 3.45464 19.4027L4.79453 25H5.08346H12.9078" stroke="black" stroke-width="2" data-cap="butt" fill="none"></path> <path d="M33.7893 13.2349C29.1742 7.11018 22.0041 6.5004 17 6.5L17 15.1224V14.8468" stroke="black" stroke-width="2" stroke-linecap="square" fill="none"></path> <path d="M12.5 25H22" stroke="black" stroke-width="2" data-cap="butt" fill="none"></path> <path d="M35 41V39" stroke="black" stroke-width="2" stroke-linecap="square" fill="none"></path> <path d="M30 41V39" stroke="black" stroke-width="2" stroke-linecap="square" fill="none"></path> <path d="M25 41V39" stroke="black" stroke-width="2" stroke-linecap="square" fill="none"></path> <path d="M19.0154 17.2969L18.5 17.5C15 19 12.3608 22.4736 12.1942 24.9999L11.891 25L8.69685 13.0791C10.3339 12.7049 22.0245 12.1482 22.0245 28.1482L27.461 28.3567C29.3044 20.2688 34.7047 16.505 43 16.5L40.9114 28.926L34.5084 28.646C34.5084 24.6619 37.3 17.8 42.5 17L42.8015 16.961" stroke="black" stroke-width="2" stroke-linecap="square" fill="none"></path> <path d="M43 41V34L18.35 33L16 30H5V41" stroke="#000" stroke-width="2" stroke-linecap="square" data-color="color-2" fill="none"></path> </svg>