<svg xmlns="http://www.w3.org/2000/svg" xmlns:xlink="http://www.w3.org/1999/xlink" x="0px" y="0px" width="48px" height="48px" viewBox="0 0 48 48"> <path d="M29 9V3H19V9" stroke="#000" stroke-width="2" stroke-linecap="square" data-color="color-2" fill="none"></path> <path d="M18 19L18 35" stroke="black" stroke-width="2" stroke-linecap="square" fill="none"></path> <path d="M25.9873 45H14C11.2386 45 9 42.7614 9 40V14C9 11.2386 11.2386 9 14 9H34C36.7614 9 39 11.2386 39 14V23.7598" stroke="black" stroke-width="2" stroke-linecap="square" fill="none"></path> <path d="M24 19L24 26.9554" stroke="black" stroke-width="2" stroke-linecap="square" fill="none"></path> <path d="M30 19L30 22.9297" stroke="black" stroke-width="2" stroke-linecap="square" fill="none"></path> <path d="M33.5 42.5C37.6421 42.5 41 39.1421 41 35C41 30.8579 37.6421 27.5 33.5 27.5C29.3579 27.5 26 30.8579 26 35C26 39.1421 29.3579 42.5 33.5 42.5Z" stroke="#000" stroke-width="2" stroke-miterlimit="10" stroke-linecap="square" data-color="color-2" fill="none"></path> <path d="M43.5 45L39 40.5L39.5 41" stroke="#000" stroke-width="2" stroke-miterlimit="10" stroke-linecap="square" data-color="color-2" fill="none"></path> </svg>