<svg xmlns="http://www.w3.org/2000/svg" xmlns:xlink="http://www.w3.org/1999/xlink" x="0px" y="0px" width="48px" height="48px" viewBox="0 0 48 48"> <path d="M24 10V4" stroke="#000" stroke-width="2" stroke-linecap="square" data-color="color-2" fill="none"></path> <path d="M28 10V8.50002C28 7.22245 28.6111 6.046 29.6051 5.30743" stroke="#000" stroke-width="2" stroke-linecap="square" data-color="color-2" fill="none"></path> <path d="M20 10V8.50002C20 7.22245 19.3889 6.046 18.3949 5.30743" stroke="#000" stroke-width="2" stroke-linecap="square" data-color="color-2" fill="none"></path> <path d="M35 43V28" stroke="black" stroke-width="2" stroke-linecap="square" fill="none"></path> <path d="M21 43L21 28" stroke="black" stroke-width="2" stroke-linecap="square" fill="none"></path> <path d="M7 43L7 28" stroke="black" stroke-width="2" stroke-linecap="square" fill="none"></path> <path d="M41 43V28" stroke="black" stroke-width="2" stroke-linecap="square" fill="none"></path> <path d="M27 43V28" stroke="black" stroke-width="2" stroke-linecap="square" fill="none"></path> <path d="M13 43V28" stroke="black" stroke-width="2" stroke-linecap="square" fill="none"></path> <path d="M39.5 15H40V10H8L8 15H8.5" stroke="#000" stroke-width="2" stroke-linecap="square" data-color="color-2" fill="none"></path> <path d="M43 15V20.5L41 21V23H7V21L5 20.5V15H43Z" stroke="black" stroke-width="2" stroke-linecap="square" fill="none"></path> <path d="M43 43L5 43" stroke="#000" stroke-width="2" stroke-linecap="square" data-color="color-2" fill="none"></path> </svg>