<svg xmlns="http://www.w3.org/2000/svg" xmlns:xlink="http://www.w3.org/1999/xlink" x="0px" y="0px" width="48px" height="48px" viewBox="0 0 48 48"> <path d="M17 13V21" stroke="black" stroke-width="2" data-cap="butt" fill="none"></path> <path d="M31 13V21" stroke="black" stroke-width="2" data-cap="butt" fill="none"></path> <path d="M35 21V29" stroke="black" stroke-width="2" data-cap="butt" fill="none"></path> <path d="M38 29V37" stroke="black" stroke-width="2" data-cap="butt" fill="none"></path> <path d="M10 29V37" stroke="black" stroke-width="2" data-cap="butt" fill="none"></path> <path d="M13 21V29" stroke="black" stroke-width="2" data-cap="butt" fill="none"></path> <path d="M24 21V27" stroke="black" stroke-width="2" data-cap="butt" fill="none"></path> <path d="M24 5V13" stroke="black" stroke-width="2" data-cap="butt" fill="none"></path> <path d="M43 21L5 21" stroke="black" stroke-width="2" data-cap="butt" fill="none"></path> <path d="M5 29L18.6815 29" stroke="black" stroke-width="2" data-cap="butt" fill="none"></path> <path d="M43 37L32 37" stroke="black" stroke-width="2" data-cap="butt" fill="none"></path> <path d="M5 37L16 37" stroke="black" stroke-width="2" data-cap="butt" fill="none"></path> <path d="M16 43H5V24C5 13.5066 13.5066 5 24 5C34.4934 5 43 13.5066 43 24V43H32" stroke="black" stroke-width="2" stroke-miterlimit="10" stroke-linecap="square" fill="none"></path> <path d="M39.5 13L8.5 13" stroke="black" stroke-width="2" data-cap="butt" fill="none"></path> <path d="M43 29L29.2939 29" stroke="black" stroke-width="2" data-cap="butt" fill="none"></path> <path d="M16 35V45H32V35C32 30.5817 28.4183 27 24 27C19.5817 27 16 30.5817 16 35Z" stroke="#000" stroke-width="2" data-color="color-2" data-cap="butt" fill="none"></path> </svg>