<svg xmlns="http://www.w3.org/2000/svg" xmlns:xlink="http://www.w3.org/1999/xlink" x="0px" y="0px" width="48px" height="48px" viewBox="0 0 48 48"> <path d="M39 43H5" stroke="black" stroke-width="2" stroke-linecap="square" fill="none"></path> <path d="M22.3749 33.4631L22.7665 30.4888" stroke="#000" stroke-width="2" stroke-linecap="square" data-color="color-2" fill="none"></path> <path d="M23.4191 25.5315L23.8107 22.5572" stroke="#000" stroke-width="2" stroke-linecap="square" data-color="color-2" fill="none"></path> <path d="M24.4633 17.5999L24.8549 14.6256" stroke="#000" stroke-width="2" stroke-linecap="square" data-color="color-2" fill="none"></path> <path d="M28.3224 34.2461L28.714 31.2717" stroke="#000" stroke-width="2" stroke-linecap="square" data-color="color-2" fill="none"></path> <path d="M29.3666 26.3145L29.7582 23.3402" stroke="#000" stroke-width="2" stroke-linecap="square" data-color="color-2" fill="none"></path> <path d="M30.4108 18.383L30.8024 15.4086" stroke="#000" stroke-width="2" stroke-linecap="square" data-color="color-2" fill="none"></path> <path d="M16.425 32.6798L16.8166 29.7054" stroke="#000" stroke-width="2" stroke-linecap="square" data-color="color-2" fill="none"></path> <path d="M17.4693 24.7482L17.8608 21.7739" stroke="#000" stroke-width="2" stroke-linecap="square" data-color="color-2" fill="none"></path> <path d="M18.5135 16.8167L18.9051 13.8423" stroke="#000" stroke-width="2" stroke-linecap="square" data-color="color-2" fill="none"></path> <path d="M28.4819 10.06L28.743 8.07709" stroke="#000" stroke-width="2" stroke-linecap="square" data-color="color-2" fill="none"></path> <path d="M22.5314 9.27659L22.7924 7.2937" stroke="#000" stroke-width="2" stroke-linecap="square" data-color="color-2" fill="none"></path> <path d="M17.5729 8.62377L18.3757 2.5516L34.2375 4.64994L33.4347 10.7221" stroke="black" stroke-width="2" data-cap="butt" fill="none"></path> <path d="M13.6071 8.10168L9.0387 42.8023" stroke="black" stroke-width="2" data-cap="butt" fill="none"></path> <path d="M37.4235 11.2372L33.2419 43" stroke="black" stroke-width="2" data-cap="butt" fill="none"></path> <path d="M40.3761 11.6259L10.6351 7.69274" stroke="black" stroke-width="2" stroke-linecap="square" fill="none"></path> <path d="M38.2853 27.5076L8.54421 23.5745" stroke="black" stroke-width="2" stroke-linecap="square" fill="none"></path> <path d="M39.3295 19.5761L9.58843 15.6429" stroke="black" stroke-width="2" stroke-linecap="square" fill="none"></path> <path d="M37.241 35.4392L7.49999 31.506" stroke="black" stroke-width="2" stroke-linecap="square" fill="none"></path> <path d="M18.5947 43L18.9143 40.5722C19.0945 39.2033 20.3503 38.2397 21.7192 38.4199V38.4199C23.0881 38.6001 24.0517 39.8559 23.8715 41.2248L23.6378 43" stroke="black" stroke-width="2" data-cap="butt" fill="none"></path> <path d="M28.1766 43L28.333 41.8122C28.5132 40.4433 29.769 39.4797 31.1379 39.6599V39.6599C32.5068 39.8402 33.4705 41.096 33.2902 42.4649L33.225 42.9606" stroke="black" stroke-width="2" data-cap="butt" fill="none"></path> <path d="M9.03871 42.8022L9.49555 39.3322C9.67577 37.9633 10.9316 36.9997 12.3005 37.1799V37.1799C13.6694 37.3601 14.633 38.6159 14.4528 39.9848L14.0558 43" stroke="black" stroke-width="2" data-cap="butt" fill="none"></path> </svg>