<svg xmlns="http://www.w3.org/2000/svg" xmlns:xlink="http://www.w3.org/1999/xlink" x="0px" y="0px" width="18px" height="18px" viewBox="0 0 18 18"><rect x="2" y="11" width="5.5" height="5.5" rx="1.75" ry="1.75" fill="#000"></rect><circle cx="4.75" cy="4.25" r="2.75" fill="#000"></circle><path d="M13.25,3.5h-4c-.414,0-.75,.336-.75,.75s.336,.75,.75,.75h4c.689,0,1.25,.561,1.25,1.25v5.5c0,.689-.561,1.25-1.25,1.25h-4c-.414,0-.75,.336-.75,.75s.336,.75,.75,.75h4c1.517,0,2.75-1.233,2.75-2.75V6.25c0-1.517-1.233-2.75-2.75-2.75Z" fill="#000" data-color="color-2"></path></svg>