<svg xmlns="http://www.w3.org/2000/svg" xmlns:xlink="http://www.w3.org/1999/xlink" x="0px" y="0px" width="24px" height="24px" viewBox="0 0 24 24"> <path d="M20 10V4C20 2.89543 19.1046 2 18 2H11.0784C10.548 2 10.0393 2.21071 9.66421 2.58579L4.58579 7.66421C4.21071 8.03929 4 8.54799 4 9.07843L4 20C4 21.1046 4.89543 22 6 22H9" stroke="black" stroke-width="2" stroke-miterlimit="10" stroke-linecap="square" fill="none"></path> <path d="M4 9H11V2" stroke="black" stroke-width="2" stroke-miterlimit="10" data-cap="butt" fill="none"></path> <path d="M16 22.5C17.109 22 21 19.229 21 16.689C21 15.204 19.794 14 18.308 14C17.328 14 16.596 14.614 16 15.303C15.405 14.613 14.672 14 13.692 14C12.205 14 11 15.204 11 16.689C11 19.229 14.891 22 16 22.5Z" stroke="#000" stroke-width="2" stroke-miterlimit="10" stroke-linecap="square" data-color="color-2" fill="none"></path> </svg>