<svg xmlns="http://www.w3.org/2000/svg" xmlns:xlink="http://www.w3.org/1999/xlink" x="0px" y="0px" width="24px" height="24px" viewBox="0 0 24 24"> <path d="M13 20H4C2.89543 20 2 19.1046 2 18V5C2 3.89543 2.89543 3 4 3H10L13 6H20C21.1046 6 22 6.89543 22 8V8" stroke="black" stroke-width="2" stroke-miterlimit="10" stroke-linecap="square" fill="none"></path> <path d="M19 21V22" stroke="#000" stroke-width="2" stroke-linecap="square" data-color="color-2" fill="none"></path> <path d="M19 12V13" stroke="#000" stroke-width="2" stroke-linecap="square" data-color="color-2" fill="none"></path> <path d="M21 13L18 13C16.8954 13 16 13.8954 16 15V15C16 16.1046 16.8954 17 18 17H20C21.1046 17 22 17.8954 22 19V19C22 20.1046 21.1046 21 20 21H17" stroke="#000" stroke-width="2" stroke-linecap="square" data-color="color-2" fill="none"></path> </svg>