<svg xmlns="http://www.w3.org/2000/svg" xmlns:xlink="http://www.w3.org/1999/xlink" x="0px" y="0px" width="24px" height="24px" viewBox="0 0 24 24"><path d="M1.56922 15H1.5L2 22H3L5 18L7 22H8L8.5 15H8.46904" stroke="#000" stroke-width="2" stroke-linecap="square" data-color="color-2" fill="none"></path> <path d="M11.0653 22H11L13.0833 15H13.9167L16 22H15.929" stroke="#000" stroke-width="2" stroke-linecap="square" data-color="color-2" fill="none"></path> <path d="M17.6486 15H17.5833L19.6667 22H20.5L22.5833 15H22.5123" stroke="#000" stroke-width="2" stroke-linecap="square" data-color="color-2" fill="none"></path> <path d="M11.5 20.5L15.5 20.5" stroke="#000" stroke-width="2" data-color="color-2" data-cap="butt" fill="none"></path> <path d="M4 9H11V2" stroke="black" stroke-width="2" stroke-miterlimit="10" data-cap="butt" fill="none"></path> <path d="M4 11V9.07843C4 8.54799 4.21071 8.03929 4.58579 7.66421L9.66421 2.58579C10.0393 2.21071 10.548 2 11.0784 2H18C19.1046 2 20 2.89543 20 4V11" stroke="black" stroke-width="2" stroke-miterlimit="10" stroke-linecap="square" fill="none"></path></svg>