<svg xmlns="http://www.w3.org/2000/svg" xmlns:xlink="http://www.w3.org/1999/xlink" x="0px" y="0px" width="24px" height="24px" viewBox="0 0 24 24"> <path d="M22 8.5V8C22 6.89543 21.1046 6 20 6H13L10 3H4C2.89543 3 2 3.89543 2 5V18C2 19.1046 2.89543 20 4 20H15" stroke="black" stroke-width="2" stroke-miterlimit="10" stroke-linecap="square" fill="none"></path> <path d="M20 22V17H19" stroke="#000" stroke-width="2" stroke-miterlimit="10" stroke-linecap="square" data-color="color-2" fill="none"></path> <path d="M20 14C20.6904 14 21.25 13.4404 21.25 12.75C21.25 12.0596 20.6904 11.5 20 11.5C19.3096 11.5 18.75 12.0596 18.75 12.75C18.75 13.4404 19.3096 14 20 14Z" fill="#000" data-color="color-2" data-cap="butt" data-stroke="none"></path> </svg>