<svg xmlns="http://www.w3.org/2000/svg" xmlns:xlink="http://www.w3.org/1999/xlink" x="0px" y="0px" width="24px" height="24px" viewBox="0 0 24 24"> <path d="M20 9V4C20 2.89543 19.1046 2 18 2H11.0784C10.548 2 10.0393 2.21071 9.66421 2.58579L4.58579 7.66421C4.21071 8.03929 4 8.54799 4 9.07843L4 20C4 21.1046 4.89543 22 6 22H12" stroke="black" stroke-width="2" stroke-miterlimit="10" stroke-linecap="square" fill="none"></path> <path d="M4 9H11V2" stroke="black" stroke-width="2" stroke-miterlimit="10" data-cap="butt" fill="none"></path> <path d="M18 22V23" stroke="#000" stroke-width="2" stroke-linecap="square" data-color="color-2" fill="none"></path> <path d="M18 13V14" stroke="#000" stroke-width="2" stroke-linecap="square" data-color="color-2" fill="none"></path> <path d="M20 14L17 14C15.8954 14 15 14.8954 15 16V16C15 17.1046 15.8954 18 17 18H19C20.1046 18 21 18.8954 21 20V20C21 21.1046 20.1046 22 19 22H16" stroke="#000" stroke-width="2" stroke-linecap="square" data-color="color-2" fill="none"></path> </svg>