<svg xmlns="http://www.w3.org/2000/svg" xmlns:xlink="http://www.w3.org/1999/xlink" x="0px" y="0px" width="32px" height="32px" viewBox="0 0 32 32"> <path d="M30 12.5V11C30 9.34315 28.6569 8 27 8H17.4L13.2 4H5C3.34315 4 2 5.34315 2 7V24C2 25.6569 3.34315 27 5 27H14.5" stroke="black" stroke-width="2" stroke-miterlimit="10" stroke-linecap="square" fill="none"></path> <path d="M24 28C27.3137 28 30 25.3137 30 22C30 18.6863 27.3137 16 24 16C20.6863 16 18 18.6863 18 22C18 25.3137 20.6863 28 24 28Z" stroke="#000" stroke-width="2" stroke-miterlimit="10" stroke-linecap="square" data-color="color-2" fill="none"></path> <path d="M23 16L23.5 15H24.5L25 16" stroke="#000" stroke-width="2" stroke-miterlimit="10" data-color="color-2" data-cap="butt" fill="none"></path> <path d="M27.536 17.05L28.596 16.697L29.303 17.404L28.95 18.464" stroke="#000" stroke-width="2" stroke-miterlimit="10" data-color="color-2" data-cap="butt" fill="none"></path> <path d="M30 21L31 21.5V22.5L30 23" stroke="#000" stroke-width="2" stroke-miterlimit="10" data-color="color-2" data-cap="butt" fill="none"></path> <path d="M28.95 25.536L29.303 26.596L28.596 27.303L27.536 26.95" stroke="#000" stroke-width="2" stroke-miterlimit="10" data-color="color-2" data-cap="butt" fill="none"></path> <path d="M25 28L24.5 29H23.5L23 28" stroke="#000" stroke-width="2" stroke-miterlimit="10" data-color="color-2" data-cap="butt" fill="none"></path> <path d="M20.464 26.95L19.404 27.303L18.697 26.596L19.05 25.536" stroke="#000" stroke-width="2" stroke-miterlimit="10" data-color="color-2" data-cap="butt" fill="none"></path> <path d="M18 23L17 22.5V21.5L18 21" stroke="#000" stroke-width="2" stroke-miterlimit="10" data-color="color-2" data-cap="butt" fill="none"></path> <path d="M19.05 18.464L18.697 17.404L19.404 16.697L20.464 17.05" stroke="#000" stroke-width="2" stroke-miterlimit="10" data-color="color-2" data-cap="butt" fill="none"></path> </svg>