<svg xmlns="http://www.w3.org/2000/svg" xmlns:xlink="http://www.w3.org/1999/xlink" x="0px" y="0px" width="32px" height="32px" viewBox="0 0 32 32"> <path d="M24 29C27.866 29 31 25.866 31 22C31 18.134 27.866 15 24 15C20.134 15 17 18.134 17 22C17 25.866 20.134 29 24 29Z" stroke="#000" stroke-width="2" stroke-miterlimit="10" stroke-linecap="square" data-color="color-2" fill="none"></path> <path d="M24 19V22L27 24" stroke="#000" stroke-width="2" stroke-miterlimit="10" stroke-linecap="square" data-color="color-2" fill="none"></path> <path d="M30 13V11C30 9.34315 28.6569 8 27 8H17.4L13.2 4H5C3.34315 4 2 5.34315 2 7V24C2 25.6569 3.34315 27 5 27H14" stroke="black" stroke-width="2" stroke-miterlimit="10" stroke-linecap="square" fill="none"></path> </svg>