<svg xmlns="http://www.w3.org/2000/svg" xmlns:xlink="http://www.w3.org/1999/xlink" x="0px" y="0px" width="32px" height="32px" viewBox="0 0 32 32"> <path d="M21 27H5C3.34315 27 2 25.6569 2 24V7C2 5.34315 3.34315 4 5 4H13.2L17.4 8H27C28.6569 8 30 9.34315 30 11V12" stroke="black" stroke-width="2" stroke-miterlimit="10" stroke-linecap="square" fill="none"></path> <path d="M26 24V24C26 23.3808 26.3289 22.8081 26.8637 22.4961L28.2143 21.7084C29.32 21.0633 30 19.8795 30 18.5993V18.5993C30 16.6115 28.3885 15 26.4007 15H26.0916C24.7849 15 23.5646 15.6531 22.8397 16.7404L22.6666 17" stroke="#000" stroke-width="2" stroke-linecap="square" data-color="color-2" fill="none"></path> <path d="M26 29C26.2761 29 26.5 28.7761 26.5 28.5C26.5 28.2239 26.2761 28 26 28C25.7239 28 25.5 28.2239 25.5 28.5C25.5 28.7761 25.7239 29 26 29Z" fill="#000" stroke="#000" stroke-width="2" stroke-miterlimit="10" stroke-linecap="square" data-color="color-2"></path> </svg>