<svg xmlns="http://www.w3.org/2000/svg" xmlns:xlink="http://www.w3.org/1999/xlink" x="0px" y="0px" width="32px" height="32px" viewBox="0 0 32 32"> <path d="M24 15C27.866 15 31 18.134 31 22C31 25.866 27.866 29 24 29C20.134 29 17 25.866 17 22C17 18.134 20.134 15 24 15Z" stroke="#000" stroke-width="2" stroke-miterlimit="10" stroke-linecap="square" data-color="color-2" fill="none"></path> <path d="M24 19V25V24.5" stroke="#000" stroke-width="2" stroke-linecap="square" data-color="color-2" fill="none"></path> <path d="M21 22L24 25L27 22" stroke="#000" stroke-width="2" stroke-miterlimit="10" stroke-linecap="square" data-color="color-2" fill="none"></path> <path d="M30 13V11C30 9.34315 28.6569 8 27 8H17.4L13.2 4H5C3.34315 4 2 5.34315 2 7V24C2 25.6569 3.34315 27 5 27H14" stroke="black" stroke-width="2" stroke-miterlimit="10" stroke-linecap="square" fill="none"></path> </svg>