<svg xmlns="http://www.w3.org/2000/svg" xmlns:xlink="http://www.w3.org/1999/xlink" x="0px" y="0px" width="48px" height="48px" viewBox="0 0 48 48"> <path d="M20 3V16H7" stroke="black" stroke-width="2" stroke-miterlimit="10" data-cap="butt" fill="none"></path> <path d="M32 30H28.75C26.9551 30 25.5 31.4551 25.5 33.25V33.25C25.5 35.0449 26.9551 36.5 28.75 36.5H30.25C32.0449 36.5 33.5 37.9551 33.5 39.75V39.75C33.5 41.5449 32.0449 43 30.25 43H27" stroke="#000" stroke-width="2" stroke-linecap="square" data-color="color-2" fill="none"></path> <path d="M43.9214 43H44L36.5 30H36.5802" stroke="#000" stroke-width="2" stroke-linecap="square" data-color="color-2" fill="none"></path> <path d="M43.9214 30H44L36.5 43H36.5802" stroke="#000" stroke-width="2" stroke-linecap="square" data-color="color-2" fill="none"></path> <path d="M11.4214 43H11.5L4 30H4.08021" stroke="#000" stroke-width="2" stroke-linecap="square" data-color="color-2" fill="none"></path> <path d="M11.4214 30H11.5L4 43H4.08021" stroke="#000" stroke-width="2" stroke-linecap="square" data-color="color-2" fill="none"></path> <path d="M7 24C7 21.7277 7 18.7293 7 16.2422C7 15.4466 7.31607 14.6839 7.87868 14.1213L18.1213 3.87868C18.6839 3.31607 19.447 3 20.2426 3H36C38.7614 3 41 5.23768 41 7.9991C41 13.0203 41 18.769 41 24" stroke="black" stroke-width="2" stroke-miterlimit="10" stroke-linecap="square" fill="none"></path> <path d="M16 30L16 43H22" stroke="#000" stroke-width="2" stroke-linecap="square" data-color="color-2" fill="none"></path> </svg>