<svg xmlns="http://www.w3.org/2000/svg" xmlns:xlink="http://www.w3.org/1999/xlink" x="0px" y="0px" width="48px" height="48px" viewBox="0 0 48 48"> <path d="M37 43C41.9706 43 46 38.9706 46 34C46 29.0294 41.9706 25 37 25C32.0294 25 28 29.0294 28 34C28 38.9706 32.0294 43 37 43Z" stroke="#000" stroke-width="2" stroke-miterlimit="10" stroke-linecap="square" data-color="color-2" fill="none"></path> <path d="M37 38V39" stroke="#000" stroke-width="2" stroke-linecap="square" data-color="color-2" fill="none"></path> <path d="M37 29V30" stroke="#000" stroke-width="2" stroke-linecap="square" data-color="color-2" fill="none"></path> <path d="M39 30L36 30C34.8954 30 34 30.8954 34 32V32C34 33.1046 34.8954 34 36 34H38C39.1046 34 40 34.8954 40 36V36C40 37.1046 39.1046 38 38 38H35" stroke="#000" stroke-width="2" stroke-linecap="square" data-color="color-2" fill="none"></path> <path d="M45 22.5V16C45 13.2386 42.7614 11 40 11H27L19 5H8C5.23858 5 3 7.23858 3 10V36C3 38.7614 5.23858 41 8 41H25" stroke="black" stroke-width="2" stroke-miterlimit="10" stroke-linecap="square" fill="none"></path> </svg>