<svg xmlns="http://www.w3.org/2000/svg" xmlns:xlink="http://www.w3.org/1999/xlink" x="0px" y="0px" width="48px" height="48px" viewBox="0 0 48 48"> <path d="M25 41H8C5.23858 41 3 38.7614 3 36V10C3 7.23858 5.23858 5 8 5H19L27 11H40C42.7614 11 45 13.2386 45 16V26" stroke="black" stroke-width="2" stroke-miterlimit="10" stroke-linecap="square" fill="none"></path> <path d="M35.5 42C39.6421 42 43 38.6421 43 34.5C43 30.3579 39.6421 27 35.5 27C31.3579 27 28 30.3579 28 34.5C28 38.6421 31.3579 42 35.5 42Z" stroke="#000" stroke-width="2" stroke-miterlimit="10" stroke-linecap="square" data-color="color-2" fill="none"></path> <path d="M45.5 44.5L41 40L41.5 40.5" stroke="#000" stroke-width="2" stroke-miterlimit="10" stroke-linecap="square" data-color="color-2" fill="none"></path> </svg>