<svg xmlns="http://www.w3.org/2000/svg" xmlns:xlink="http://www.w3.org/1999/xlink" x="0px" y="0px" width="48px" height="48px" viewBox="0 0 48 48"> <path d="M36.0011 45C38.7626 45 41 42.7626 41 40.0012C41 30.0149 41 17.9851 41 7.99883C41 5.2374 38.7614 3 36 3H20.2426C19.447 3 18.6839 3.31607 18.1213 3.87868L7.87868 14.1213C7.31607 14.6839 7 15.447 7 16.2426C7 24.1618 7.00001 32.0809 7.00001 40C7 42.7614 9.23744 45 11.9989 45C19.4778 45 28.5222 45 36.0011 45Z" stroke="black" stroke-width="2" stroke-miterlimit="10" stroke-linecap="square" fill="none"></path> <path d="M20 3V16H7" stroke="black" stroke-width="2" stroke-miterlimit="10" data-cap="butt" fill="none"></path> <path d="M14 25H23" stroke="#000" stroke-width="2" stroke-miterlimit="10" stroke-linecap="square" data-color="color-2" fill="none"></path> <path d="M14 32H34" stroke="#000" stroke-width="2" stroke-miterlimit="10" stroke-linecap="square" data-color="color-2" fill="none"></path> </svg>