<svg xmlns="http://www.w3.org/2000/svg" xmlns:xlink="http://www.w3.org/1999/xlink" x="0px" y="0px" width="48px" height="48px" viewBox="0 0 48 48"> <path d="M16.5 41H8C5.23858 41 3 38.7614 3 36V10C3 7.23858 5.23858 5 8 5H19L27 11H40C42.7614 11 45 13.2386 45 16V34" stroke="black" stroke-width="2" stroke-miterlimit="10" stroke-linecap="square" fill="none"></path> <path d="M44 42L35.2 28L29.7 36.8958L27.5 34.125L22 42H44Z" stroke="#000" stroke-width="2" stroke-miterlimit="10" data-color="color-2" data-cap="butt" fill="none"></path> <path d="M26 29C27.6569 29 29 27.6569 29 26C29 24.3431 27.6569 23 26 23C24.3431 23 23 24.3431 23 26C23 27.6569 24.3431 29 26 29Z" stroke="#000" stroke-width="2" stroke-miterlimit="10" stroke-linecap="square" data-color="color-2" fill="none"></path> </svg>