<svg xmlns="http://www.w3.org/2000/svg" xmlns:xlink="http://www.w3.org/1999/xlink" x="0px" y="0px" width="48px" height="48px" viewBox="0 0 48 48"> <path d="M23.9982 36L24.0002 38L24.0002 24" stroke="#000" stroke-width="2" stroke-miterlimit="10" stroke-linecap="square" data-color="color-2" fill="none"></path> <path d="M5 18H43" stroke="black" stroke-width="2" data-cap="butt" fill="none"></path> <path d="M43 38L43 18.9652C43 18.4278 42.9134 17.8939 42.7434 17.3841L39.755 8.41886C39.0744 6.37715 37.1637 5 35.0116 5L12.9884 5.00001C10.8363 5 8.92556 6.37716 8.24499 8.41887L5.25658 17.3841C5.08664 17.8939 5 18.4278 5 18.9652L5 38C5 40.7614 7.23857 43 10 43L38 43C40.7614 43 43 40.7614 43 38Z" stroke="black" stroke-width="2" stroke-miterlimit="10" stroke-linecap="square" fill="none"></path> <path d="M31.0007 30.9996L24.0004 38L17 30.9996" stroke="#000" stroke-width="2" stroke-miterlimit="10" stroke-linecap="square" data-color="color-2" fill="none"></path> <path d="M24 18V5" stroke="black" stroke-width="2" data-cap="butt" fill="none"></path> </svg>