<svg xmlns="http://www.w3.org/2000/svg" xmlns:xlink="http://www.w3.org/1999/xlink" x="0px" y="0px" width="48px" height="48px" viewBox="0 0 48 48"> <path d="M20 3V16H7" stroke="black" stroke-width="2" stroke-miterlimit="10" data-cap="butt" fill="none"></path> <path d="M22 45H12C9.23858 45 7 42.7699 7 40.0084C7 32.8718 7 20.4779 7 16.2381C7 15.4424 7.31607 14.6839 7.87868 14.1213L18.1213 3.87868C18.6839 3.31607 19.447 3 20.2426 3H36C38.7614 3 41 5.23719 41 7.99862C41 11.6066 41 16.4579 41 21.5" stroke="black" stroke-width="2" stroke-miterlimit="10" stroke-linecap="square" fill="none"></path> <path d="M40 26.6668H29C27.8954 26.6668 27 27.5622 27 28.6668V43.6668L34.5 38.0001L42 43.6668V28.6668C42 27.5622 41.1046 26.6668 40 26.6668Z" stroke="#000" stroke-width="2" stroke-miterlimit="10" stroke-linecap="square" data-color="color-2" fill="none"></path> </svg>