<svg xmlns="http://www.w3.org/2000/svg" xmlns:xlink="http://www.w3.org/1999/xlink" x="0px" y="0px" width="12px" height="12px" viewBox="0 0 12 12"><path d="m11.705,5.328l-1.205-1.197v-1.683c0-.522-.425-.947-.947-.947h-1.683l-1.198-1.206c-.359-.36-.984-.36-1.344,0l-1.198,1.206h-1.683c-.522,0-.947.425-.947.947v1.683l-1.204,1.196c-.182.179-.281.418-.281.674s.1.495.28.672l1.205,1.197v1.683c0,.522.425.947.947.947h1.683l1.198,1.206c.18.18.418.279.672.279s.492-.099.672-.279l1.198-1.206h1.683c.522,0,.947-.425.947-.947v-1.683l1.204-1.196c.182-.179.281-.418.281-.674s-.1-.493-.28-.672Z" stroke-width="0" fill="#000"></path></svg>