<svg xmlns="http://www.w3.org/2000/svg" xmlns:xlink="http://www.w3.org/1999/xlink" x="0px" y="0px" width="18px" height="18px" viewBox="0 0 18 18"><path d="M3.249,12.403c-.128,0-.258-.033-.377-.102-.546-.319-.872-.882-.872-1.507V4.187c0-.719,.45-1.375,1.121-1.633L7.621,.822c.85-.326,1.792,.045,2.195,.861,.184,.372,.032,.821-.34,1.005-.37,.185-.821,.03-1.004-.34-.05-.101-.176-.179-.313-.125L3.66,3.954c-.096,.037-.16,.13-.16,.233v6.607c0,.119,.08,.184,.128,.211,.357,.209,.479,.668,.27,1.026-.139,.239-.391,.372-.648,.372Z" fill="#000" data-color="color-2"></path><path d="M6.249,14.903c-.128,0-.258-.033-.377-.102-.546-.319-.872-.882-.872-1.507V6.687c0-.719,.45-1.375,1.121-1.633l4.5-1.731c.851-.325,1.791,.045,2.195,.861,.184,.372,.032,.821-.34,1.005-.371,.184-.821,.031-1.004-.34-.051-.1-.178-.181-.313-.125l-4.499,1.731c-.096,.037-.16,.13-.16,.233v6.607c0,.119,.08,.184,.128,.211,.357,.209,.479,.668,.27,1.026-.139,.239-.391,.372-.648,.372Z" fill="#000" data-color="color-2"></path><path d="M9.751,17.544c-.35,0-.696-.104-.992-.308-.476-.327-.759-.866-.759-1.442v-6.607c0-.719,.45-1.375,1.121-1.634h0l4.5-1.731c.542-.207,1.146-.135,1.62,.192,.476,.327,.759,.866,.759,1.442v6.607c0,.719-.45,1.375-1.121,1.634l-4.5,1.731c-.204,.078-.417,.116-.628,.116Z" fill="#000"></path></svg>