<svg xmlns="http://www.w3.org/2000/svg" xmlns:xlink="http://www.w3.org/1999/xlink" x="0px" y="0px" width="18px" height="18px" viewBox="0 0 18 18"><path d="M12.25,12.5H6.75c-.689,0-1.25-.561-1.25-1.25V5.75c0-.414-.336-.75-.75-.75s-.75,.336-.75,.75v5.5c0,1.517,1.233,2.75,2.75,2.75h5.5c.414,0,.75-.336,.75-.75s-.336-.75-.75-.75Z" fill="#000" data-color="color-2"></path><path d="M9.25,15.5H3.75c-.689,0-1.25-.561-1.25-1.25v-5.5c0-.414-.336-.75-.75-.75s-.75,.336-.75,.75v5.5c0,1.517,1.233,2.75,2.75,2.75h5.5c.414,0,.75-.336,.75-.75s-.336-.75-.75-.75Z" fill="#000" data-color="color-2"></path><rect x="7" y="1" width="10" height="10" rx="2.75" ry="2.75" fill="#000"></rect></svg>