<svg xmlns="http://www.w3.org/2000/svg" xmlns:xlink="http://www.w3.org/1999/xlink" x="0px" y="0px" width="18px" height="18px" viewBox="0 0 18 18"><path d="M7,15.409c-.083,0-.167-.014-.25-.043-1.933-.684-3.433-2.184-4.115-4.115-.138-.391,.066-.819,.457-.957,.392-.137,.82,.067,.957,.457,.523,1.48,1.72,2.677,3.201,3.201,.391,.138,.595,.566,.457,.957-.108,.308-.398,.5-.707,.5Z" fill="#000" data-color="color-2"></path><path d="M11.001,15.408c-.309,0-.599-.192-.707-.5-.138-.391,.066-.819,.457-.957,1.48-.523,2.677-1.72,3.2-3.201,.138-.39,.565-.594,.957-.457,.391,.138,.595,.566,.457,.957-.683,1.932-2.183,3.432-4.114,4.115-.083,.029-.167,.043-.25,.043Z" fill="#000" data-color="color-2"></path><path d="M14.658,7.75c-.309,0-.599-.192-.707-.5-.523-1.48-1.72-2.677-3.201-3.201-.391-.138-.595-.566-.457-.957s.566-.595,.957-.457c1.933,.684,3.433,2.184,4.115,4.115,.138,.391-.066,.819-.457,.957-.083,.029-.167,.043-.25,.043Z" fill="#000" data-color="color-2"></path><path d="M3.342,7.75c-.083,0-.167-.014-.25-.043-.391-.138-.595-.566-.457-.957,.683-1.932,2.183-3.432,4.114-4.115,.393-.138,.819,.066,.957,.457s-.066,.819-.457,.957c-1.48,.523-2.677,1.72-3.2,3.201-.108,.308-.398,.5-.707,.5Z" fill="#000" data-color="color-2"></path><rect x="6.75" y="1" width="4.5" height="4.5" rx="1.432" ry="1.432" fill="#000"></rect><rect x="6.75" y="12.5" width="4.5" height="4.5" rx="1.432" ry="1.432" fill="#000"></rect><rect x="1" y="6.75" width="4.5" height="4.5" rx="1.432" ry="1.432" fill="#000"></rect><rect x="12.5" y="6.75" width="4.5" height="4.5" rx="1.432" ry="1.432" fill="#000"></rect></svg>