<svg xmlns="http://www.w3.org/2000/svg" xmlns:xlink="http://www.w3.org/1999/xlink" x="0px" y="0px" width="18px" height="18px" viewBox="0 0 18 18"><path d="M3.75,13c-.414,0-.75-.336-.75-.75V5.75c0-.414,.336-.75,.75-.75s.75,.336,.75,.75v6.5c0,.414-.336,.75-.75,.75Z" fill="#000" data-color="color-2"></path><path d="M12.25,15H5.75c-.414,0-.75-.336-.75-.75s.336-.75,.75-.75h6.5c.414,0,.75,.336,.75,.75s-.336,.75-.75,.75Z" fill="#000" data-color="color-2"></path><path d="M14.25,13c-.414,0-.75-.336-.75-.75V5.75c0-.414,.336-.75,.75-.75s.75,.336,.75,.75v6.5c0,.414-.336,.75-.75,.75Z" fill="#000" data-color="color-2"></path><path d="M12.25,4.5H5.75c-.414,0-.75-.336-.75-.75s.336-.75,.75-.75h6.5c.414,0,.75,.336,.75,.75s-.336,.75-.75,.75Z" fill="#000" data-color="color-2"></path><rect x="1.5" y="12" width="4.5" height="4.5" rx="1.432" ry="1.432" fill="#000"></rect><rect x="1.5" y="1.5" width="4.5" height="4.5" rx="1.432" ry="1.432" fill="#000"></rect><rect x="12" y="1.5" width="4.5" height="4.5" rx="1.432" ry="1.432" fill="#000"></rect><rect x="12" y="12" width="4.5" height="4.5" rx="1.432" ry="1.432" fill="#000"></rect><path d="M12,9c0-.414-.336-.75-.75-.75h-1.5v-1.5c0-.414-.336-.75-.75-.75s-.75,.336-.75,.75v1.5h-1.5c-.414,0-.75,.336-.75,.75s.336,.75,.75,.75h1.5v1.5c0,.414,.336,.75,.75,.75s.75-.336,.75-.75v-1.5h1.5c.414,0,.75-.336,.75-.75Z" fill="#000" data-color="color-2"></path></svg>