<svg xmlns="http://www.w3.org/2000/svg" xmlns:xlink="http://www.w3.org/1999/xlink" x="0px" y="0px" width="18px" height="18px" viewBox="0 0 18 18"><path d="M16.72,12.72l-.72,.72v-2.689c0-.414-.336-.75-.75-.75s-.75,.336-.75,.75v2.689l-.72-.72c-.293-.293-.768-.293-1.061,0s-.293,.768,0,1.061l2,2c.146,.146,.338,.22,.53,.22s.384-.073,.53-.22l2-2c.293-.293,.293-.768,0-1.061s-.768-.293-1.061,0Z" fill="#000" data-color="color-2"></path><path d="M13.78,5.28l.72-.72v2.689c0,.414,.336,.75,.75,.75s.75-.336,.75-.75v-2.689l.72,.72c.146,.146,.338,.22,.53,.22s.384-.073,.53-.22c.293-.293,.293-.768,0-1.061l-2-2c-.293-.293-.768-.293-1.061,0l-2,2c-.293,.293-.293,.768,0,1.061s.768,.293,1.061,0Z" fill="#000" data-color="color-2"></path><path d="M7.25,2h-2c-2.068,0-3.75,1.682-3.75,3.75v6.5c0,2.068,1.682,3.75,3.75,3.75h2c2.068,0,3.75-1.682,3.75-3.75V5.75c0-2.068-1.682-3.75-3.75-3.75Zm-.25,6.75c0,.414-.336,.75-.75,.75s-.75-.336-.75-.75v-2.5c0-.414,.336-.75,.75-.75s.75,.336,.75,.75v2.5Z" fill="#000"></path></svg>