<svg xmlns="http://www.w3.org/2000/svg" xmlns:xlink="http://www.w3.org/1999/xlink" x="0px" y="0px" width="18px" height="18px" viewBox="0 0 18 18"><path d="M9,15.75c-.192,0-.384-.073-.53-.22L2.22,9.28c-.293-.293-.293-.768,0-1.061s.768-.293,1.061,0l5.72,5.72,5.72-5.72c.293-.293,.768-.293,1.061,0s.293,.768,0,1.061l-6.25,6.25c-.146,.146-.338,.22-.53,.22Z" fill="#000" data-color="color-2"></path><path d="M9,10.75c-.192,0-.384-.073-.53-.22L2.22,4.28c-.293-.293-.293-.768,0-1.061s.768-.293,1.061,0l5.72,5.72L14.72,3.22c.293-.293,.768-.293,1.061,0s.293,.768,0,1.061l-6.25,6.25c-.146,.146-.338,.22-.53,.22Z" fill="#000"></path></svg>