<svg xmlns="http://www.w3.org/2000/svg" xmlns:xlink="http://www.w3.org/1999/xlink" x="0px" y="0px" width="18px" height="18px" viewBox="0 0 18 18"><path d="M14.25,6h-2.25V3.75c0-.965-.785-1.75-1.75-1.75H3.75c-.468,0-.908,.182-1.238,.513-.292,.293-.292,.769,.001,1.061,.294,.293,.769,.291,1.061-.001,.027-.027,.085-.073,.176-.073h6.5c.138,0,.25,.112,.25,.25v2.25h-2.75c-.468,0-.908,.182-1.238,.513-.292,.293-.292,.769,.001,1.061,.294,.293,.769,.291,1.061-.001,.027-.027,.085-.073,.176-.073h2.75v2.75c0,.09-.045,.149-.073,.176-.293,.292-.294,.768-.001,1.061,.146,.147,.339,.22,.531,.22,.191,0,.383-.073,.53-.219,.331-.331,.513-.77,.513-1.238v-2.75h2.25c.138,0,.25,.112,.25,.25v6.5c0,.09-.045,.149-.073,.176-.293,.292-.294,.768-.001,1.061,.146,.147,.339,.22,.531,.22,.191,0,.383-.073,.53-.219,.331-.331,.513-.77,.513-1.238V7.75c0-.965-.785-1.75-1.75-1.75Z" fill="#000" data-color="color-2"></path><path d="M15.487,14.427L3.573,2.513c-.293-.292-.767-.293-1.06,0-.331,.331-.513,.77-.513,1.238v6.5c0,.965,.785,1.75,1.75,1.75h2.25v2.25c0,.965,.785,1.75,1.75,1.75h6.5c.468,0,.908-.182,1.238-.513,.292-.293,.292-.768,0-1.06Z" fill="#000"></path></svg>