<svg xmlns="http://www.w3.org/2000/svg" xmlns:xlink="http://www.w3.org/1999/xlink" x="0px" y="0px" width="24px" height="24px" viewBox="0 0 24 24"> <path d="M6 18H5V20H3V4C3 2.34315 4.34315 1 6 1V18Z" fill="#000" data-color="color-2"></path> <path d="M19 18V22H17V18H19Z" fill="black"></path> <path d="M3 20C3 18.3431 4.34315 17 6 17H21V19H6C5.44772 19 5 19.4477 5 20C5 20.5523 5.44772 21 6 21H21V23H6C4.34315 23 3 21.6569 3 20Z" fill="black"></path> <path fill-rule="evenodd" clip-rule="evenodd" d="M21 18H8V1H21V18ZM11 11H18V6H11V11Z" fill="black"></path> </svg>