<svg xmlns="http://www.w3.org/2000/svg" xmlns:xlink="http://www.w3.org/1999/xlink" x="0px" y="0px" width="24px" height="24px" viewBox="0 0 24 24"> <path d="M7.5 11.2207L4.69922 13.7109L3 13V2H7.5V11.2207Z" fill="black"></path> <path d="M21 13L19 13.4379L16.5 11.2217V2H21V13Z" fill="black"></path> <path d="M15.5781 17.4189L15.8945 18.0527L12 22L8.10547 18.0527L8.42188 17.4189C9.89602 14.471 14.104 14.471 15.5781 17.4189Z" fill="black"></path> <path d="M14.5 11.1729L12 13.3174L9.5 11.1738V2H14.5V11.1729Z" fill="#000" data-color="color-2"></path> <path d="M19 12.6211L12 20.4961L5 12.6211V2H3V13.3799L12 23.5049L21 13.3799V2H19V12.6211Z" fill="black"></path> </svg>