<svg xmlns="http://www.w3.org/2000/svg" xmlns:xlink="http://www.w3.org/1999/xlink" x="0px" y="0px" width="20px" height="20px" viewBox="0 0 20 20"><path d="m14,4H6c-1.337,0-2.457.881-2.844,2.089l6.348,3.627c.307.176.685.176.992,0l6.348-3.627c-.387-1.208-1.507-2.089-2.844-2.089Z" stroke-width="0" fill="#000"></path><path d="m3.156,6.089l6.348,3.627c.307.176.685.176.992,0l6.348-3.627" fill="none" stroke="#000" stroke-linejoin="round" stroke-width="2"></path><line x1="12" y1="14" x2="18" y2="14" fill="none" stroke="#000" stroke-linecap="round" stroke-linejoin="round" stroke-width="2" data-color="color-2"></line><line x1="15" y1="11" x2="15" y2="17" fill="none" stroke="#000" stroke-linecap="round" stroke-linejoin="round" stroke-width="2" data-color="color-2"></line><path d="m17,8.149v-1.149c0-1.657-1.343-3-3-3H6c-1.657,0-3,1.343-3,3v6c0,1.657,1.343,3,3,3h3.149" fill="none" stroke="#000" stroke-linecap="round" stroke-linejoin="round" stroke-width="2"></path></svg>