<svg xmlns="http://www.w3.org/2000/svg" xmlns:xlink="http://www.w3.org/1999/xlink" x="0px" y="0px" width="20px" height="20px" viewBox="0 0 20 20"><path d="m17.121,3.55l-.671-.671c-1.17-1.17-3.073-1.171-4.243,0L3.293,11.793c-.135.134-.228.305-.269.49l-1,4.5c-.074.333.027.682.269.924.189.189.445.293.707.293.072,0,.145-.008.217-.024l4.5-1c.186-.041.356-.134.49-.269l8.914-8.914c1.17-1.169,1.17-3.073,0-4.243Zm-1.414,2.829l-1.457,1.457-2.086-2.086,1.457-1.457c.39-.39,1.025-.39,1.415,0l.671.671c.39.39.39,1.024,0,1.415Z" stroke-width="0" fill="#000"></path></svg>