<svg xmlns="http://www.w3.org/2000/svg" xmlns:xlink="http://www.w3.org/1999/xlink" x="0px" y="0px" width="20px" height="20px" viewBox="0 0 20 20"><path d="m17,9v5c0,1.6569-1.3431,3-3,3H6c-1.6569,0-3-1.3431-3-3v-5l7,4,7-4Z" fill="none" stroke="#000" stroke-linecap="round" stroke-linejoin="round" stroke-width="2"></path><path d="m5,10v-5.5c0-.8284.6716-1.5,1.5-1.5h7c.8284,0,1.5.6716,1.5,1.5v5.5" fill="none" stroke="#000" stroke-linecap="round" stroke-linejoin="round" stroke-width="2"></path><line x1="3" y1="9" x2="5" y2="7" fill="none" stroke="#000" stroke-linecap="round" stroke-linejoin="round" stroke-width="2"></line><line x1="17" y1="9" x2="15" y2="7" fill="none" stroke="#000" stroke-linecap="round" stroke-linejoin="round" stroke-width="2"></line><path d="m12,7h-4c-.4141,0-.75-.3359-.75-.75s.3359-.75.75-.75h4c.4141,0,.75.3359.75.75s-.3359.75-.75.75Z" fill="#000" stroke-width="0" data-color="color-2"></path><path d="m12,9.5h-4c-.4141,0-.75-.3359-.75-.75s.3359-.75.75-.75h4c.4141,0,.75.3359.75.75s-.3359.75-.75.75Z" fill="#000" stroke-width="0" data-color="color-2"></path></svg>