<svg xmlns="http://www.w3.org/2000/svg" xmlns:xlink="http://www.w3.org/1999/xlink" x="0px" y="0px" width="20px" height="20px" viewBox="0 0 20 20"><line x1="6.5" y1="10" x2="4.631" y2="10" fill="none" stroke="#000" stroke-linecap="round" stroke-linejoin="round" stroke-width="2"></line><line x1="12.5" y1="14" x2="14.5" y2="14" fill="none" stroke="#000" stroke-linecap="round" stroke-linejoin="round" stroke-width="2" data-color="color-2"></line><path d="m12,17h-1.5c-.828,0-1.5-.672-1.5-1.5v-3c0-.828.672-1.5,1.5-1.5h1.5" fill="none" stroke="#000" stroke-linecap="round" stroke-linejoin="round" stroke-width="2" data-color="color-2"></path><path d="m13.862,7.721L4.669,3.125c-.894-.447-1.893.382-1.619,1.343l1.581,5.532-1.581,5.532c-.275.961.724,1.791,1.619,1.343l.923-.461" fill="none" stroke="#000" stroke-linecap="round" stroke-linejoin="round" stroke-width="2"></path><path d="m15,11h1.5c.828,0,1.5.672,1.5,1.5v3c0,.828-.672,1.5-1.5,1.5h-1.5" fill="none" stroke="#000" stroke-linecap="round" stroke-linejoin="round" stroke-width="2" data-color="color-2"></path></svg>