<svg xmlns="http://www.w3.org/2000/svg" xmlns:xlink="http://www.w3.org/1999/xlink" x="0px" y="0px" width="20px" height="20px" viewBox="0 0 20 20"><path d="m18,13h-4.719c-.459,0-.859.312-.97.757l-.121.485c-.111.445-.511.757-.97.757h-2.438c-.459,0-.859-.312-.97-.757l-.121-.485c-.111-.445-.511-.757-.97-.757H2c-.552,0-1,.448-1,1,0,.123.057,3,5,3h8c4.943,0,5-2.877,5-3,0-.552-.448-1-1-1Z" stroke-width="0" fill="#000"></path><rect x="9" y="3" width="5" height="5" rx="1.5" ry="1.5" fill="#000" stroke="#000" stroke-linecap="round" stroke-linejoin="round" stroke-width="2" data-color="color-2"></rect><path d="m14,14c1.105,0,2-.895,2-2v-1.164" fill="none" stroke="#000" stroke-linecap="round" stroke-linejoin="round" stroke-width="2"></path><path d="m5.545,4.057c-.884.207-1.545.996-1.545,1.943v6c0,1.105.895,2,2,2" fill="none" stroke="#000" stroke-linecap="round" stroke-linejoin="round" stroke-width="2"></path><polygon points="15 5.5 17 3.5 17 7.5 15 5.5 15 5.5" fill="#000" stroke="#000" stroke-linecap="round" stroke-linejoin="round" stroke-width="2" data-color="color-2"></polygon></svg>