<svg xmlns="http://www.w3.org/2000/svg" xmlns:xlink="http://www.w3.org/1999/xlink" x="0px" y="0px" width="20px" height="20px" viewBox="0 0 20 20"><path d="m16.865,8.639c-.634-3.214-3.465-5.639-6.865-5.639-3.866,0-7,3.134-7,7,0,1.376.403,2.655,1.088,3.737l-1.088,3.263,3.263-1.088c.739.468,1.574.791,2.464.957" fill="none" stroke="#000" stroke-linecap="round" stroke-linejoin="round" stroke-width="2"></path><path d="m17.98,12.863c-.141-1.133-1.059-1.883-2.201-1.863-.71.013-1.304.374-1.78.969-.364-.606-1.091-.97-1.818-.97-1.212,0-2.182.97-2.182,2.182.1,2.211,2.201,4.078,3.399,4.928.355.252.827.24,1.172-.024,1.163-.892,3.675-3.086,3.409-5.222Z" fill="#000" stroke-width="0" data-color="color-2"></path></svg>