<svg xmlns="http://www.w3.org/2000/svg" xmlns:xlink="http://www.w3.org/1999/xlink" x="0px" y="0px" width="20px" height="20px" viewBox="0 0 20 20"><path d="m13.912,5.561c-1.085-1.547-2.879-2.561-4.912-2.561-3.314,0-6,2.686-6,6,0,1.179.345,2.275.932,3.203l-.932,2.797,2.595-.865" fill="none" stroke="#000" stroke-linecap="round" stroke-linejoin="round" stroke-width="2" data-color="color-2"></path><path d="m9,13c0,2.209,1.791,4,4,4,.786,0,1.517-.23,2.135-.622l1.865.622-.622-1.865c.392-.618.622-1.349.622-2.135,0-2.209-1.791-4-4-4s-4,1.791-4,4Z" stroke="#000" stroke-linecap="round" stroke-linejoin="round" stroke-width="2" fill="#000"></path></svg>