<svg xmlns="http://www.w3.org/2000/svg" xmlns:xlink="http://www.w3.org/1999/xlink" x="0px" y="0px" width="24px" height="24px" viewBox="0 0 24 24"><polygon points="13 17 11 17 11 9.646 9.279 10.897 8.104 9.279 11.239 7 13 7 13 17" fill="#000" stroke-width="0" data-color="color-2"></polygon><circle cx="16.067" cy="2.865" r="1" fill="#000" stroke-width="0" data-color="color-2"></circle><circle cx="19.431" cy="5.309" r="1" fill="#000" stroke-width="0" data-color="color-2"></circle><circle cx="21.511" cy="8.91" r="1" fill="#000" stroke-width="0" data-color="color-2"></circle><circle cx="21.945" cy="13.045" r="1" fill="#000" stroke-width="0" data-color="color-2"></circle><circle cx="20.66" cy="17" r="1" fill="#000" stroke-width="0" data-color="color-2"></circle><path d="m12,23c-6.065,0-11-4.935-11-11S5.935,1,12,1h1v2h-1C7.037,3,3,7.038,3,12s4.037,9,9,9c1.917,0,3.746-.594,5.289-1.718l.809-.588,1.178,1.617-.809.589c-1.889,1.374-4.124,2.101-6.467,2.101Z" stroke-width="0" fill="#000"></path></svg>