<svg xmlns="http://www.w3.org/2000/svg" xmlns:xlink="http://www.w3.org/1999/xlink" x="0px" y="0px" width="32px" height="32px" viewBox="0 0 32 32"> <path fill-rule="evenodd" clip-rule="evenodd" d="M16 24V8H17L20 9L23.5 13V18L20 23L17 24H16Z" fill="black"></path> <path fill-rule="evenodd" clip-rule="evenodd" d="M16 9C12.134 9 9 12.134 9 16C9 19.866 12.134 23 16 23C19.866 23 23 19.866 23 16C23 12.134 19.866 9 16 9ZM7 16C7 11.0294 11.0294 7 16 7C20.9706 7 25 11.0294 25 16C25 20.9706 20.9706 25 16 25C11.0294 25 7 20.9706 7 16Z" fill="black"></path> <path fill-rule="evenodd" clip-rule="evenodd" d="M17 28V32H15V28H17Z" fill="#000" data-color="color-2"></path> <path fill-rule="evenodd" clip-rule="evenodd" d="M17 0V4H15V0H17Z" fill="#000" data-color="color-2"></path> <path fill-rule="evenodd" clip-rule="evenodd" d="M4 17L-8.74228e-08 17L0 15L4 15L4 17Z" fill="#000" data-color="color-2"></path> <path fill-rule="evenodd" clip-rule="evenodd" d="M32 17L28 17L28 15L32 15L32 17Z" fill="#000" data-color="color-2"></path> <path fill-rule="evenodd" clip-rule="evenodd" d="M25.1924 23.7782L28.0208 26.6066L26.6066 28.0208L23.7782 25.1924L25.1924 23.7782Z" fill="#000" data-color="color-2"></path> <path fill-rule="evenodd" clip-rule="evenodd" d="M5.3934 3.97919L8.22183 6.80762L6.80761 8.22183L3.97919 5.3934L5.3934 3.97919Z" fill="#000" data-color="color-2"></path> <path fill-rule="evenodd" clip-rule="evenodd" d="M8.22183 25.1924L5.3934 28.0208L3.97919 26.6066L6.80762 23.7782L8.22183 25.1924Z" fill="#000" data-color="color-2"></path> <path fill-rule="evenodd" clip-rule="evenodd" d="M28.0208 5.3934L25.1924 8.22183L23.7782 6.80761L26.6066 3.97919L28.0208 5.3934Z" fill="#000" data-color="color-2"></path> </svg>