<svg xmlns="http://www.w3.org/2000/svg" xmlns:xlink="http://www.w3.org/1999/xlink" x="0px" y="0px" width="48px" height="48px" viewBox="0 0 48 48"> <path fill-rule="evenodd" clip-rule="evenodd" d="M10 4C6.68629 4 4 6.68629 4 10V38C4 41.3137 6.68629 44 10 44H38C41.3137 44 44 41.3137 44 38V10C44 6.68629 41.3137 4 38 4H10ZM16 20.5C18.4853 20.5 20.5 18.4853 20.5 16C20.5 13.5147 18.4853 11.5 16 11.5C13.5147 11.5 11.5 13.5147 11.5 16C11.5 18.4853 13.5147 20.5 16 20.5ZM38 41C39.6569 41 41 39.6569 41 38V29.5858L30.9274 19.5225L13.3572 41C13.3572 41 30.1329 41 38 41Z" fill="black"></path> </svg>