<svg xmlns="http://www.w3.org/2000/svg" xmlns:xlink="http://www.w3.org/1999/xlink" x="0px" y="0px" width="48px" height="48px" viewBox="0 0 48 48"> <path fill-rule="evenodd" clip-rule="evenodd" d="M4 40.5H28V43.5H4V40.5Z" fill="#000" data-color="color-2"></path> <path fill-rule="evenodd" clip-rule="evenodd" d="M33 40.5H44V43.5H33V40.5Z" fill="#000" data-color="color-2"></path> <path fill-rule="evenodd" clip-rule="evenodd" d="M6.90398 16.8784C7.39853 8.55043 14.564 2 23.2667 2C32.2414 2 39.5936 8.96503 39.6661 17.6655C43.8173 18.4427 47 21.9595 47 26.25C47 31.1205 42.9032 35 37.9333 35H10.8C5.4253 35 1 30.8048 1 25.5455C1 21.6398 3.45141 18.3242 6.90398 16.8784ZM33.0883 20.5L19 12.8155V28.1845L33.0883 20.5Z" fill="black"></path> <path fill-rule="evenodd" clip-rule="evenodd" d="M25 38H30V46H25V38Z" fill="#000" data-color="color-2"></path> </svg>