<svg xmlns="http://www.w3.org/2000/svg" xmlns:xlink="http://www.w3.org/1999/xlink" x="0px" y="0px" width="18px" height="18px" viewBox="0 0 18 18"><path fill-rule="evenodd" clip-rule="evenodd" d="M3.75 2.25H14.25C15.355 2.25 16.25 3.146 16.25 4.25V8.9273C16.25 9.13243 15.8776 9.2376 15.6973 9.01974C15.0552 8.24419 14.0852 7.75 13 7.75C11.0674 7.75 9.5 9.31736 9.5 11.25V13.8461L5.75 16.25V13.25H3.75C2.645 13.25 1.75 12.354 1.75 11.25V4.25C1.75 3.146 2.645 2.25 3.75 2.25Z" fill="#000" fill-opacity="0.3" data-color="color-2" data-stroke="none"></path> <path d="M16.25 8.5244V4.25C16.25 3.146 15.355 2.25 14.25 2.25H3.75C2.645 2.25 1.75 3.146 1.75 4.25V11.25C1.75 12.354 2.645 13.25 3.75 13.25H5.75V16.25L8.7549 13.8462" stroke="black" stroke-width="1.5" stroke-linecap="round" stroke-linejoin="round" fill="none"></path> <path d="M14.25 13.25V11.25C14.25 10.56 13.69 10 13 10C12.31 10 11.75 10.56 11.75 11.25V13.75C11.75 15.131 12.869 16.25 14.25 16.25C15.631 16.25 16.75 15.131 16.75 13.75V11.75" stroke="black" stroke-width="1.5" stroke-linecap="round" stroke-linejoin="round" fill="none"></path></svg>