<svg xmlns="http://www.w3.org/2000/svg" xmlns:xlink="http://www.w3.org/1999/xlink" x="0px" y="0px" width="18px" height="18px" viewBox="0 0 18 18"><path d="M13.75 2.75H4C2.895 2.75 2 3.645 2 4.75V16.25L5.75 13.25H13.75C14.855 13.25 15.75 12.355 15.75 11.25V4.75C15.75 3.645 14.855 2.75 13.75 2.75Z" fill="#000" fill-opacity="0.3" data-color="color-2" data-stroke="none"></path> <path d="M10.5 8.25H3.25C2.698 8.25 2.25 8.698 2.25 9.25V16.25L6 13.25H13.75C14.855 13.25 15.75 12.355 15.75 11.25V4.75C15.75 3.645 14.855 2.75 13.75 2.75H4.25C3.145 2.75 2.25 3.645 2.25 4.75V5.25" stroke="black" stroke-width="1.5" stroke-linecap="round" stroke-linejoin="round" fill="none"></path> <path d="M8.25 5.75L10.75 8.25L8.25 10.75" stroke="black" stroke-width="1.5" stroke-linecap="round" stroke-linejoin="round" fill="none"></path></svg>