<svg xmlns="http://www.w3.org/2000/svg" xmlns:xlink="http://www.w3.org/1999/xlink" x="0px" y="0px" width="18px" height="18px" viewBox="0 0 18 18"><path d="M16.75 9.75H13.25C12.974 9.75 12.75 9.9739 12.75 10.25V12.25C12.75 12.5261 12.974 12.75 13.25 12.75H16.75C17.026 12.75 17.25 12.5261 17.25 12.25V10.25C17.25 9.9739 17.026 9.75 16.75 9.75Z" fill="#000" fill-opacity="0.3" data-color="color-2" data-stroke="none"></path> <path fill-rule="evenodd" clip-rule="evenodd" d="M13.75 2.75H4.25C3.145 2.75 2.25 3.645 2.25 4.75V16.25L6 13.25H10.5V12.25V10.25C10.5 8.73122 11.7312 7.5 13.25 7.5H15.75V4.75C15.75 3.645 14.855 2.75 13.75 2.75Z" fill="#000" fill-opacity="0.3" data-color="color-2" data-stroke="none"></path> <path d="M12.75 16.25V12.25" stroke="black" stroke-width="1.5" stroke-linecap="round" stroke-linejoin="round" fill="none"></path> <path d="M15.75 6.75V4.75C15.75 3.646 14.855 2.75 13.75 2.75H4.25C3.145 2.75 2.25 3.646 2.25 4.75V16.25L6 13.25H9.75" stroke="black" stroke-width="1.5" stroke-linecap="round" stroke-linejoin="round" fill="none"></path> <path d="M16.75 9.75H13.25C12.974 9.75 12.75 9.9739 12.75 10.25V12.25C12.75 12.5261 12.974 12.75 13.25 12.75H16.75C17.026 12.75 17.25 12.5261 17.25 12.25V10.25C17.25 9.9739 17.026 9.75 16.75 9.75Z" stroke="black" stroke-width="1.5" stroke-linecap="round" stroke-linejoin="round" fill="none"></path></svg>