<svg xmlns="http://www.w3.org/2000/svg" xmlns:xlink="http://www.w3.org/1999/xlink" x="0px" y="0px" width="18px" height="18px" viewBox="0 0 18 18"><path d="M14.25 2.25H3.75C2.645 2.25 1.75 3.146 1.75 4.25V11.25C1.75 12.354 2.645 13.25 3.75 13.25H5.75V16.25L9.5 13.25H14.25C15.355 13.25 16.25 12.354 16.25 11.25V4.25C16.25 3.146 15.355 2.25 14.25 2.25Z" fill="#000" fill-opacity="0.3" data-color="color-2" data-stroke="none"></path> <path d="M14.25 2.25H3.75C2.645 2.25 1.75 3.146 1.75 4.25V11.25C1.75 12.354 2.645 13.25 3.75 13.25H5.75V16.25L9.5 13.25H14.25C15.355 13.25 16.25 12.354 16.25 11.25V4.25C16.25 3.146 15.355 2.25 14.25 2.25Z" stroke="black" stroke-width="1.5" stroke-linecap="round" stroke-linejoin="round" fill="none"></path></svg>