<svg xmlns="http://www.w3.org/2000/svg" xmlns:xlink="http://www.w3.org/1999/xlink" x="0px" y="0px" width="18px" height="18px" viewBox="0 0 18 18"><path d="M6.75 10.25C6.75 10.25 9.0838 10.1662 9.909 9.34104L14.784 4.46604C15.4053 3.84474 15.4053 2.83734 14.784 2.21604C14.1627 1.59474 13.1553 1.59474 12.534 2.21604L7.659 7.09104C6.8809 7.86914 6.75 10.25 6.75 10.25Z" fill="#000" fill-opacity="0.3" data-color="color-2" data-stroke="none"></path> <path d="M1.75 10.25H3.83691" stroke="black" stroke-width="1.5" stroke-linecap="round" stroke-linejoin="round" fill="none"></path> <path d="M1.75 13.25H16.25" stroke="black" stroke-width="1.5" stroke-linecap="round" stroke-linejoin="round" fill="none"></path> <path d="M1.75 16.25H16.25" stroke="black" stroke-width="1.5" stroke-linecap="round" stroke-linejoin="round" fill="none"></path> <path d="M6.75 10.25C6.75 10.25 9.0838 10.1662 9.909 9.34104L14.784 4.46604C15.4053 3.84474 15.4053 2.83734 14.784 2.21604C14.1627 1.59474 13.1553 1.59474 12.534 2.21604L7.659 7.09104C6.8809 7.86914 6.75 10.25 6.75 10.25Z" stroke="black" stroke-width="1.5" stroke-linecap="round" stroke-linejoin="round" fill="none"></path></svg>