<svg xmlns="http://www.w3.org/2000/svg" xmlns:xlink="http://www.w3.org/1999/xlink" x="0px" y="0px" width="18px" height="18px" viewBox="0 0 18 18"><path d="M6.25 12.25H14.75C15.578 12.25 16.25 11.578 16.25 10.75V4.25C16.25 3.422 15.578 2.75 14.75 2.75H6.25C5.422 2.75 4.75 3.422 4.75 4.25V10.75C4.75 11.578 5.422 12.25 6.25 12.25Z" fill="#000" fill-opacity="0.3" data-color="color-2" data-stroke="none"></path> <path d="M4.75 4.65631L9.97 7.91902C10.294 8.12202 10.706 8.12202 11.03 7.91902L16.25 4.65631" stroke="black" stroke-width="1.5" stroke-linecap="round" stroke-linejoin="round" fill="none"></path> <path d="M6.25 12.25H14.75C15.578 12.25 16.25 11.578 16.25 10.75V4.25C16.25 3.422 15.578 2.75 14.75 2.75H6.25C5.422 2.75 4.75 3.422 4.75 4.25V10.75C4.75 11.578 5.422 12.25 6.25 12.25Z" stroke="black" stroke-width="1.5" stroke-linecap="round" stroke-linejoin="round" fill="none"></path> <path d="M12.25 15.25H5.75C3.541 15.25 1.75 13.459 1.75 11.25V7.75" stroke="black" stroke-width="1.5" stroke-linecap="round" stroke-linejoin="round" fill="none"></path></svg>