<svg xmlns="http://www.w3.org/2000/svg" xmlns:xlink="http://www.w3.org/1999/xlink" x="0px" y="0px" width="18px" height="18px" viewBox="0 0 18 18"><path d="M2.75 15.25C2.75 15.25 6.349 14.682 7.296 13.735C8.243 12.788 14.623 6.408 14.623 6.408C15.46 5.571 15.46 4.214 14.623 3.377C13.786 2.541 12.429 2.541 11.593 3.377C11.593 3.377 5.213 9.757 4.266 10.704C3.319 11.651 2.75 15.25 2.75 15.25Z" fill="#000" fill-opacity="0.3" data-color="color-2" data-stroke="none"></path> <path d="M2.75 15.25C2.75 15.25 6.349 14.682 7.296 13.735C8.243 12.788 14.623 6.408 14.623 6.408C15.46 5.571 15.46 4.214 14.623 3.377C13.786 2.541 12.429 2.541 11.593 3.377C11.593 3.377 5.213 9.757 4.266 10.704C3.319 11.651 2.75 15.25 2.75 15.25Z" stroke="black" stroke-width="1.5" stroke-linecap="round" stroke-linejoin="round" fill="none"></path> <path d="M15.5 14.68C14.741 15.439 13.509 15.439 12.75 14.68C11.991 13.921 10.759 13.921 10 14.68" stroke="black" stroke-width="1.5" stroke-linecap="round" stroke-linejoin="round" fill="none"></path></svg>