<svg xmlns="http://www.w3.org/2000/svg" xmlns:xlink="http://www.w3.org/1999/xlink" x="0px" y="0px" width="18px" height="18px" viewBox="0 0 18 18"><path fill-rule="evenodd" clip-rule="evenodd" d="M13.75 2.75H4.25C3.145 2.75 2.25 3.645 2.25 4.75V16.25L6 13.25H10C10 12.0074 11.0074 11 12.25 11H12.5V10.75C12.5 9.50736 13.5074 8.5 14.75 8.5C15.0166 8.5 15.2724 8.54637 15.5097 8.63148C15.642 8.67892 15.75 8.52962 15.75 8.38907V4.75C15.75 3.645 14.855 2.75 13.75 2.75Z" fill="#000" fill-opacity="0.3" data-color="color-2" data-stroke="none"></path> <path d="M14.75 10.75V15.75" stroke="black" stroke-width="1.5" stroke-linecap="round" stroke-linejoin="round" fill="none"></path> <path d="M17.25 13.25H12.25" stroke="black" stroke-width="1.5" stroke-linecap="round" stroke-linejoin="round" fill="none"></path> <path d="M15.75 7.9272V4.75C15.75 3.646 14.855 2.75 13.75 2.75H4.25C3.145 2.75 2.25 3.646 2.25 4.75V16.25L6 13.25H9.25" stroke="black" stroke-width="1.5" stroke-linecap="round" stroke-linejoin="round" fill="none"></path></svg>