<svg xmlns="http://www.w3.org/2000/svg" xmlns:xlink="http://www.w3.org/1999/xlink" x="0px" y="0px" width="20px" height="20px" viewBox="0 0 20 20"><path d="m10,2c-3.859,0-7,3.14-7,7v8c0,.388.225.741.576.906.35.163.766.112,1.064-.138l2.359-1.966,2.359,1.966c.371.31.91.31,1.281,0l2.359-1.966,2.359,1.966c.184.153.411.232.641.232.144,0,.289-.031.424-.094.352-.165.576-.518.576-.906v-8c0-3.86-3.141-7-7-7Zm-3.25,8.5c-.69,0-1.25-.56-1.25-1.25s.56-1.25,1.25-1.25,1.25.56,1.25,1.25-.56,1.25-1.25,1.25Zm3.25,3.5c-1.104,0-2-.896-2-2,0-.368.299-.667.667-.667h2.667c.368,0,.667.299.667.667,0,1.104-.896,2-2,2Zm3.25-3.5c-.69,0-1.25-.56-1.25-1.25s.56-1.25,1.25-1.25,1.25.56,1.25,1.25-.56,1.25-1.25,1.25Z" stroke-width="0" fill="#000"></path></svg>