<svg xmlns="http://www.w3.org/2000/svg" xmlns:xlink="http://www.w3.org/1999/xlink" x="0px" y="0px" width="18px" height="18px" viewBox="0 0 18 18"><path d="M1.75,17c-.192,0-.384-.073-.53-.22-.293-.293-.293-.768,0-1.061l3-3c.293-.293,.768-.293,1.061,0s.293,.768,0,1.061l-3,3c-.146,.146-.338,.22-.53,.22Z" fill="#000"></path><path d="M16.78,4.048l-1.414-1.414s0,0,0,0,0,0,0,0l-1.413-1.414c-.293-.293-.768-.293-1.061,0s-.293,.768,0,1.061l.884,.884-1.311,1.311c-.293,.293-.293,.768,0,1.061,.146,.146,.338,.22,.53,.22s.384-.073,.53-.22l1.31-1.311,.884,.884c.146,.146,.338,.22,.53,.22s.384-.073,.53-.22c.293-.293,.293-.768,0-1.061Z" fill="#000" data-color="color-2"></path><path d="M15.75,9.01c-.192,0-.384-.073-.53-.22L9.209,2.78c-.293-.293-.293-.768,0-1.061s.768-.293,1.061,0l6.011,6.01c.293,.293,.293,.768,0,1.061-.146,.146-.338,.22-.53,.22Z" fill="#000" data-color="color-2"></path><path d="M9.032,4.725l-1.151,1.151,1.592,1.591c.293,.293,.293,.768,0,1.061-.146,.146-.338,.22-.53,.22s-.384-.073-.53-.22l-1.592-1.591-.957,.957,1.591,1.591c.293,.293,.293,.768,0,1.061-.146,.146-.338,.22-.53,.22s-.384-.073-.53-.22l-1.591-1.591-.291,.291c-.33,.331-.512,.771-.512,1.237v2.768c0,.414,.336,.75,.75,.75h2.768c.468,0,.907-.182,1.237-.513l4.52-4.52-4.243-4.243Z" fill="#000"></path></svg>