<svg xmlns="http://www.w3.org/2000/svg" xmlns:xlink="http://www.w3.org/1999/xlink" x="0px" y="0px" width="32px" height="32px" viewBox="0 0 32 32"><path d="M15 22H17V29H15V22Z" fill="#000" data-color="color-2"></path> <path d="M19 26H21V29H19V26Z" fill="#000" data-color="color-2"></path> <path d="M27 24H29V29H27V24Z" fill="#000" data-color="color-2"></path> <path d="M7 23H9V29H7V23Z" fill="#000" data-color="color-2"></path> <path d="M3 26H5V29H3V26Z" fill="#000" data-color="color-2"></path> <path d="M23 23H25V29H23V23Z" fill="#000" data-color="color-2"></path> <path d="M11 24H13V29H11V24Z" fill="#000" data-color="color-2"></path> <path d="M32 8V10H29V8H32Z" fill="black"></path> <path d="M3 8V10H0V8H3Z" fill="black"></path> <path fill-rule="evenodd" clip-rule="evenodd" d="M22.6953 3C24.5075 3.00007 26.0936 4.21876 26.5605 5.96973L27.8662 10.8154L29.0654 11.415C30.2509 12.0079 30.9999 13.2194 31 14.5449V20H1V14.5449C1.00006 13.2194 1.74906 12.0079 2.93457 11.415L4.13379 10.8154L5.43945 5.96973C5.90638 4.21876 7.49255 3.00007 9.30469 3H22.6953ZM4 17.5H6.5C7.88071 17.5 9 16.3807 9 15H4V17.5ZM23 15C23 16.3807 24.1193 17.5 25.5 17.5H28V15H23ZM12.3818 13H16.3818L14.6582 16.4473L16.4473 17.3418L19.6182 11H15.6182L17.3418 7.55273L15.5527 6.6582L12.3818 13Z" fill="black"></path></svg>