<svg xmlns="http://www.w3.org/2000/svg" xmlns:xlink="http://www.w3.org/1999/xlink" x="0px" y="0px" width="32px" height="32px" viewBox="0 0 32 32"> <path fill-rule="evenodd" clip-rule="evenodd" d="M18.0881 5.5896L29 6V16H32V18H23V20H29V22H3L2 20L2.5 15H13.8534L18.0881 5.5896ZM21.5 10H26.5C26.7761 10 27 10.2239 27 10.5V13.5C27 13.7761 26.7761 14 26.5 14H21.5C21.2239 14 21 13.7761 21 13.5V10.5C21 10.2239 21.2239 10 21.5 10Z" fill="black"></path> <path fill-rule="evenodd" clip-rule="evenodd" d="M1 20C1 11.7157 7.71573 5 16 5L29 5V7L16 7C8.8203 7 3 12.8203 3 20C3 20.5523 3.44772 21 4 21L29 21V23L4 23C2.34315 23 1 21.6569 1 20Z" fill="black"></path> <path fill-rule="evenodd" clip-rule="evenodd" d="M3 25H29V27H3V25Z" fill="#000" data-color="color-2"></path> </svg>