<svg xmlns="http://www.w3.org/2000/svg" xmlns:xlink="http://www.w3.org/1999/xlink" x="0px" y="0px" width="48px" height="48px" viewBox="0 0 48 48"> <path d="M27.0588 4C22.3686 4 16.6479 5.80156 12.0863 9.16068C7.50899 12.5313 4 17.5522 4 24C4 30.4478 7.50899 35.4687 12.0863 38.8393C16.6479 42.1984 22.3686 44 27.0588 44H27.7932L28.013 43.2993C29.952 37.1168 30.9621 30.5891 31 24.0058C31 17.483 29.9641 10.9217 28.013 4.70075L27.7932 4H27.0588Z" fill="black"></path> <path fill-rule="evenodd" clip-rule="evenodd" d="M34 22.5H44V25.5H34V22.5Z" fill="#000" data-color="color-2"></path> <path fill-rule="evenodd" clip-rule="evenodd" d="M34 11H44V14H34V11Z" fill="#000" data-color="color-2"></path> <path fill-rule="evenodd" clip-rule="evenodd" d="M34 34H44V37H34V34Z" fill="#000" data-color="color-2"></path> </svg>