<svg xmlns="http://www.w3.org/2000/svg" xmlns:xlink="http://www.w3.org/1999/xlink" x="0px" y="0px" width="12px" height="12px" viewBox="0 0 12 12"><path d="m6,12c-2.206,0-4-1.794-4-4v-.5c0-.414.336-.75.75-.75s.75.336.75.75v.5c0,1.378,1.122,2.5,2.5,2.5s2.5-1.122,2.5-2.5v-.5c0-.414.336-.75.75-.75s.75.336.75.75v.5c0,2.206-1.794,4-4,4Z" stroke-width="0" fill="#000"></path><path d="m9.25,5.25c-.414,0-.75-.336-.75-.75v-.5c0-1.378-1.122-2.5-2.5-2.5s-2.5,1.122-2.5,2.5v.5c0,.414-.336.75-.75.75s-.75-.336-.75-.75v-.5C2,1.794,3.794,0,6,0s4,1.794,4,4v.5c0,.414-.336.75-.75.75Z" stroke-width="0" fill="#000"></path><path d="m6,9c-.414,0-.75-.336-.75-.75V3.75c0-.414.336-.75.75-.75s.75.336.75.75v4.5c0,.414-.336.75-.75.75Z" fill="#000" stroke-width="0" data-color="color-2"></path></svg>