<svg xmlns="http://www.w3.org/2000/svg" xmlns:xlink="http://www.w3.org/1999/xlink" x="0px" y="0px" width="12px" height="12px" viewBox="0 0 12 12"><path d="m7.75,10h-1V1.25c0-.414-.336-.75-.75-.75s-.75.336-.75.75v8.75h-1c-.414,0-.75.336-.75.75s.336.75.75.75h3.5c.414,0,.75-.336.75-.75s-.336-.75-.75-.75Z" fill="#000" stroke-width="0" data-color="color-2"></path><path d="m10.751,3.25c-.255,0-.504-.13-.645-.364l-.531-.886H2.425l-.531.886c-.213.354-.673.471-1.029.257-.355-.213-.471-.674-.258-1.029l.75-1.25c.136-.226.38-.364.644-.364h8c.264,0,.508.138.644.364l.75,1.25c.213.355.098.816-.258,1.029-.121.073-.254.107-.385.107Z" stroke-width="0" fill="#000"></path></svg>