<svg xmlns="http://www.w3.org/2000/svg" xmlns:xlink="http://www.w3.org/1999/xlink" x="0px" y="0px" width="12px" height="12px" viewBox="0 0 12 12"><circle cx="4" cy="4" r="1" fill="#000" stroke-width="0" data-color="color-2"></circle><path d="m8.75.5H3.25C1.733.5.5,1.733.5,3.25v5.5c0,1.517,1.233,2.75,2.75,2.75h5.5c1.517,0,2.75-1.233,2.75-2.75V3.25c0-1.517-1.233-2.75-2.75-2.75ZM2,3.25c0-.689.561-1.25,1.25-1.25h5.5c.689,0,1.25.561,1.25,1.25v3.025l-1.013-1.013c-.682-.683-1.793-.683-2.475,0l-4.237,4.237c-.163-.211-.276-.463-.276-.749V3.25Z" stroke-width="0" fill="#000"></path></svg>