<svg xmlns="http://www.w3.org/2000/svg" xmlns:xlink="http://www.w3.org/1999/xlink" x="0px" y="0px" width="12px" height="12px" viewBox="0 0 12 12"><path d="m11,10H1c-.4141,0-.75.3359-.75.75s.3359.75.75.75h10c.4141,0,.75-.3359.75-.75s-.3359-.75-.75-.75Z" stroke-width="0" fill="#000"></path><path d="m11,7H1c-.4141,0-.75.3359-.75.75s.3359.75.75.75h10c.4141,0,.75-.3359.75-.75s-.3359-.75-.75-.75Z" stroke-width="0" fill="#000"></path><path d="m8.25,3.75h-1.5v1.5c0,.4141-.3359.75-.75.75s-.75-.3359-.75-.75v-1.5h-1.5c-.4141,0-.75-.3359-.75-.75s.3359-.75.75-.75h1.5V.75c0-.4141.3359-.75.75-.75s.75.3359.75.75v1.5h1.5c.4141,0,.75.3359.75.75s-.3359.75-.75.75Z" fill="#000" stroke-width="0" data-color="color-2"></path><path d="m11,10H1c-.4141,0-.75.3359-.75.75s.3359.75.75.75h10c.4141,0,.75-.3359.75-.75s-.3359-.75-.75-.75Z" stroke-width="0" fill="#000"></path><path d="m11,7H1c-.4141,0-.75.3359-.75.75s.3359.75.75.75h10c.4141,0,.75-.3359.75-.75s-.3359-.75-.75-.75Z" stroke-width="0" fill="#000"></path></svg>