<svg xmlns="http://www.w3.org/2000/svg" xmlns:xlink="http://www.w3.org/1999/xlink" x="0px" y="0px" width="18px" height="18px" viewBox="0 0 18 18"><path d="m12,6h-2.25v2.25c0,.4141-.3359.75-.75.75s-.75-.3359-.75-.75v-2.25h-2.25c-.4141,0-.75-.3359-.75-.75s.3359-.75.75-.75h2.25v-2.25c0-.4141.3359-.75.75-.75s.75.3359.75.75v2.25h2.25c.4141,0,.75.3359.75.75s-.3359.75-.75.75Z" fill="#000" stroke-width="0" data-color="color-2"></path><path d="m15.25,10.5H2.75c-.4141,0-.75.3359-.75.75s.3359.75.75.75h12.5c.4141,0,.75-.3359.75-.75s-.3359-.75-.75-.75Z" stroke-width="0" fill="#000"></path><path d="m15.25,14H2.75c-.4141,0-.75.3359-.75.75s.3359.75.75.75h12.5c.4141,0,.75-.3359.75-.75s-.3359-.75-.75-.75Z" stroke-width="0" fill="#000"></path></svg>