<svg xmlns="http://www.w3.org/2000/svg" xmlns:xlink="http://www.w3.org/1999/xlink" x="0px" y="0px" width="18px" height="18px" viewBox="0 0 18 18"><path d="M2.75,12c-.192,0-.384-.073-.53-.22-.293-.293-.293-.768,0-1.061l1.72-1.72-1.72-1.72c-.293-.293-.293-.768,0-1.061s.768-.293,1.061,0l2.25,2.25c.293,.293,.293,.768,0,1.061l-2.25,2.25c-.146,.146-.338,.22-.53,.22Z" fill="#000" data-color="color-2"></path><path d="M15.25,4.5H2.75c-.414,0-.75-.336-.75-.75s.336-.75,.75-.75H15.25c.414,0,.75,.336,.75,.75s-.336,.75-.75,.75Z" fill="#000"></path><path d="M15.25,8H7.75c-.414,0-.75-.336-.75-.75s.336-.75,.75-.75h7.5c.414,0,.75,.336,.75,.75s-.336,.75-.75,.75Z" fill="#000"></path><path d="M15.25,11.5H7.75c-.414,0-.75-.336-.75-.75s.336-.75,.75-.75h7.5c.414,0,.75,.336,.75,.75s-.336,.75-.75,.75Z" fill="#000"></path><path d="M15.25,15H2.75c-.414,0-.75-.336-.75-.75s.336-.75,.75-.75H15.25c.414,0,.75,.336,.75,.75s-.336,.75-.75,.75Z" fill="#000"></path></svg>