<svg xmlns="http://www.w3.org/2000/svg" xmlns:xlink="http://www.w3.org/1999/xlink" x="0px" y="0px" width="18px" height="18px" viewBox="0 0 18 18"><path d="M15.387,12.132c-.208-.219-.421-.443-.621-.694-.189-.238-.593-.238-.782,0-.2,.25-.413,.475-.621,.694-.67,.706-1.363,1.437-1.363,2.715,0,1.325,1.065,2.402,2.375,2.402s2.375-1.078,2.375-2.402c0-1.279-.693-2.009-1.363-2.715Z" fill="#000" data-color="color-2"></path><path d="M14.465,8.435L7.598,.267c-.267-.317-.74-.358-1.057-.092-.317,.267-.358,.74-.092,1.057l.871,1.036L2.011,6.608c-1.174,.96-1.348,2.696-.387,3.873l2.965,3.592c.469,.574,1.134,.929,1.873,.998,.087,.008,.175,.012,.262,.012,.645,0,1.263-.224,1.763-.645l5.886-4.946c.152-.128,.248-.312,.265-.509,.017-.198-.045-.396-.173-.547ZM8.286,3.417l3.854,4.583H2.771c.059-.079,.108-.165,.189-.23L8.286,3.417Z" fill="#000"></path></svg>