<svg xmlns="http://www.w3.org/2000/svg" xmlns:xlink="http://www.w3.org/1999/xlink" x="0px" y="0px" width="18px" height="18px" viewBox="0 0 18 18"><path d="M10.949,12.979L7.265,3.479c-.112-.289-.39-.479-.699-.479h-.61c-.31,0-.587,.19-.699,.479L1.57,12.979c-.149,.386,.042,.821,.428,.971,.387,.149,.82-.042,.971-.428l.784-2.021h5.014l.784,2.021c.115,.297,.398,.479,.699,.479,.091,0,.182-.016,.271-.051,.386-.15,.577-.584,.428-.97Zm-6.615-2.979l1.925-4.963,1.925,4.963h-3.85Z" fill="#000"></path><path d="M15.75,15.5c-.689,0-1.25-.561-1.25-1.25v-3.75h.75c.414,0,.75-.336,.75-.75s-.336-.75-.75-.75h-.75V3.75c0-.689,.561-1.25,1.25-1.25,.414,0,.75-.336,.75-.75s-.336-.75-.75-.75c-.79,0-1.498,.339-2,.875-.502-.535-1.21-.875-2-.875-.414,0-.75,.336-.75,.75s.336,.75,.75,.75c.689,0,1.25,.561,1.25,1.25v5.25h-.75c-.414,0-.75,.336-.75,.75s.336,.75,.75,.75h.75v3.75c0,.689-.561,1.25-1.25,1.25-.414,0-.75,.336-.75,.75s.336,.75,.75,.75c.79,0,1.498-.339,2-.875,.502,.535,1.21,.875,2,.875,.414,0,.75-.336,.75-.75s-.336-.75-.75-.75Z" fill="#000" data-color="color-2"></path></svg>