<svg xmlns="http://www.w3.org/2000/svg" xmlns:xlink="http://www.w3.org/1999/xlink" x="0px" y="0px" width="20px" height="20px" viewBox="0 0 20 20"><path d="m12,17h0c1.6569,0,3-1.3431,3-3v-6c0-2.7614-2.2386-5-5-5h0c-2.7614,0-5,2.2386-5,5v4" fill="none" stroke="#000" stroke-linecap="round" stroke-linejoin="round" stroke-width="2" data-color="color-2"></path><path d="m4.5,9h.5v5h-.5c-1.1038,0-2-.8962-2-2v-1c0-1.1038.8962-2,2-2Z" stroke="#000" stroke-linecap="round" stroke-linejoin="round" stroke-width="2" fill="#000"></path><path d="m17,9h.5v5h-.5c-1.1038,0-2-.8962-2-2v-1c0-1.1038.8962-2,2-2Z" transform="translate(32.5 23) rotate(-180)" stroke="#000" stroke-linecap="round" stroke-linejoin="round" stroke-width="2" fill="#000"></path></svg>