<svg xmlns="http://www.w3.org/2000/svg" xmlns:xlink="http://www.w3.org/1999/xlink" x="0px" y="0px" width="20px" height="20px" viewBox="0 0 20 20"><polyline points="10 8 10 10 12 11.5" fill="none" stroke="#000" stroke-linecap="round" stroke-linejoin="round" stroke-width="2" data-color="color-2"></polyline><circle cx="10" cy="10" r="6" fill="none" stroke="#000" stroke-linecap="round" stroke-linejoin="round" stroke-width="2"></circle><path d="m10,4c2.0881,0,3.9254,1.0678,5,2.686l-.6623-3.1034c-.197-.9229-1.0122-1.5826-1.956-1.5826h-4.7635c-.9437,0-1.759.6597-1.956,1.5826l-.6623,3.1034c1.0746-1.6182,2.9119-2.686,5-2.686Z" stroke-width="0" fill="#000"></path><path d="m10,16c2.0881,0,3.9254-1.0678,5-2.686l-.6623,3.1034c-.197.9229-1.0122,1.5826-1.956,1.5826h-4.7635c-.9437,0-1.759-.6597-1.956-1.5826l-.6623-3.1034c1.0746,1.6182,2.9119,2.686,5,2.686Z" stroke-width="0" fill="#000"></path></svg>