<svg xmlns="http://www.w3.org/2000/svg" xmlns:xlink="http://www.w3.org/1999/xlink" x="0px" y="0px" width="20px" height="20px" viewBox="0 0 20 20"><path d="m9.9998,12.3125c-.8115,0-1.1522.5915-1.7975,1.2861-.5988.6441-1.7614,1.124-3.1924.7946s-2.6679-1.4261-2.9405-3.4552c-.2726-2.0291.255-3.3379,1.6003-4.2593s4.1185-1.1787,6.3301-1.1787c2.2116,0,4.9847.2574,6.3301,1.1787s1.8729,2.2301,1.6003,4.2593c-.2726,2.0291-1.5095,3.1258-2.9405,3.4552s-2.5936-.1505-3.1924-.7946c-.6453-.6946-.986-1.2861-1.7975-1.2861Z" fill="none" stroke="#000" stroke-linecap="round" stroke-linejoin="round" stroke-width="2"></path><path d="m13.001,9.4536c-.0381,0-.0767-.0029-.1157-.0088-1.645-.2554-4.1216-.2549-5.771-.0005-.4072.0586-.7925-.2178-.8555-.627s.2173-.7925.627-.8555c1.7983-.2773,4.4351-.2778,6.229.0005.4092.0635.6899.4468.6265.856-.0576.3706-.377.6353-.7402.6353Z" fill="#000" stroke-width="0" data-color="color-2"></path></svg>