<svg xmlns="http://www.w3.org/2000/svg" xmlns:xlink="http://www.w3.org/1999/xlink" x="0px" y="0px" width="20px" height="20px" viewBox="0 0 20 20"><path d="m16,8c.5523,0,1-.4477,1-1v-1.084c0-.3201-.1496-.6233-.4108-.8082-1.0563-.748-3.3808-2.1078-6.5892-2.1078-3.2084,0-5.533,1.3598-6.5892,2.1078-.2612.185-.4108.4882-.4108.8082v1.084c0,.5523.4477,1,1,1" fill="none" stroke="#000" stroke-linecap="round" stroke-linejoin="round" stroke-width="2" data-color="color-2"></path><path d="m7.5,7v2" fill="none" stroke="#000" stroke-linecap="round" stroke-linejoin="round" stroke-width="2"></path><path d="m10,17h-4.5c-.8284,0-1.5-.6716-1.5-1.5v-1.1848c0-.2052.0631-.4054.1808-.5735l3.3192-4.7418h5s3.3192,4.7418,3.3192,4.7418c.1177.1681.1808.3683.1808.5735v1.1848c0,.8284-.6716,1.5-1.5,1.5h-4.5Z" fill="none" stroke="#000" stroke-linecap="round" stroke-linejoin="round" stroke-width="2"></path><path d="m12.5,9v-2" fill="none" stroke="#000" stroke-linecap="round" stroke-linejoin="round" stroke-width="2"></path><path d="m15.8192,13.7418l-3.3192-4.7418h-5l-3.3192,4.7418c-.1177.1681-.1808.3683-.1808.5735v1.1848c0,.8284.6716,1.5,1.5,1.5h9c.8284,0,1.5-.6716,1.5-1.5v-1.1848c0-.2052-.0631-.4054-.1808-.5735Zm-5.8192,1.2582c-1.1046,0-2-.8954-2-2s.8954-2,2-2,2,.8954,2,2-.8954,2-2,2Z" stroke-width="0" fill="#000"></path></svg>