<svg xmlns="http://www.w3.org/2000/svg" xmlns:xlink="http://www.w3.org/1999/xlink" x="0px" y="0px" width="20px" height="20px" viewBox="0 0 20 20"><path d="m15,11H5c-1.6543,0-3,1.3457-3,3s1.3457,3,3,3h10c1.6543,0,3-1.3457,3-3s-1.3457-3-3-3Zm-9.75,4.25c-.6904,0-1.25-.5596-1.25-1.25s.5596-1.25,1.25-1.25,1.25.5596,1.25,1.25-.5596,1.25-1.25,1.25Zm4,0c-.6904,0-1.25-.5596-1.25-1.25s.5596-1.25,1.25-1.25,1.25.5596,1.25,1.25-.5596,1.25-1.25,1.25Z" stroke-width="0" fill="#000"></path><circle cx="13" cy="5" r="1" stroke="#000" stroke-linecap="round" stroke-linejoin="round" stroke-width="2" fill="#000"></circle><path d="m9.818,8.182c-1.7574-1.7574-1.7574-4.6066,0-6.364" fill="none" stroke="#000" stroke-linecap="round" stroke-linejoin="round" stroke-width="2" data-color="color-2"></path><path d="m16.182,8.182c1.7574-1.7574,1.7574-4.6066,0-6.364" fill="none" stroke="#000" stroke-linecap="round" stroke-linejoin="round" stroke-width="2" data-color="color-2"></path><line x1="13" y1="6" x2="13" y2="12" fill="none" stroke="#000" stroke-linecap="round" stroke-linejoin="round" stroke-width="2"></line></svg>