<svg xmlns="http://www.w3.org/2000/svg" xmlns:xlink="http://www.w3.org/1999/xlink" x="0px" y="0px" width="20px" height="20px" viewBox="0 0 20 20"><path d="m7.0814,12.9184c2.1544,2.1544,4.9915,3.626,8.1685,4.072.489.068.952-.241,1.077-.719l.642-2.475c.119-.459-.111-.937-.545-1.13l-1.886-.8377c-.402-.179-.875-.064-1.15.28l-2.0596,2.3457c-1.222-.6633-2.336-1.498-3.3103-2.4724-.9744-.9744-1.8091-2.0884-2.4724-3.3103l2.3457-2.0596c.344-.275.459-.748.28-1.15l-.8377-1.886c-.193-.434-.671-.664-1.13-.545l-2.475.642c-.478.125-.787.588-.719,1.077.446,3.177,1.9175,6.014,4.0719,8.1684Z" stroke="#000" stroke-linecap="round" stroke-linejoin="round" stroke-width="2" fill="#000"></path></svg>