<svg xmlns="http://www.w3.org/2000/svg" xmlns:xlink="http://www.w3.org/1999/xlink" x="0px" y="0px" width="18px" height="18px" viewBox="0 0 18 18"><path d="m11.75,7.25c0,.553.449,1,1.002,1h2.498c.552,0,1-.448,1-1v-.962c0-.685-.344-1.321-.923-1.688-1.244-.787-3.439-1.85-6.327-1.85s-5.083,1.063-6.327,1.85c-.579.366-.923,1.002-.923,1.688v.962c0,.552.448,1,1,1h2.501c.552,0,.999-.447,1-.999l.002-1.672c.825-.2,1.744-.329,2.747-.329s1.922.128,2.747.329l.003,1.671Z" fill="#000" opacity=".3" stroke-width="0" data-color="color-2"></path><path d="m11.75,7.25c0,.553.449,1,1.002,1h2.498c.552,0,1-.448,1-1v-.962c0-.685-.344-1.321-.923-1.688-1.244-.787-3.439-1.85-6.327-1.85s-5.083,1.063-6.327,1.85c-.579.366-.923,1.002-.923,1.688v.962c0,.552.448,1,1,1h2.501c.552,0,.999-.447,1-.999l.002-1.672c.825-.2,1.744-.329,2.747-.329s1.922.128,2.747.329l.003,1.671Z" fill="none" stroke="#000" stroke-linecap="round" stroke-linejoin="round" stroke-width="1.5"></path><line x1="11.25" y1="15.25" x2="6.75" y2="15.25" fill="none" stroke="#000" stroke-linecap="round" stroke-linejoin="round" stroke-width="1.5"></line><rect x="6.875" y="12" width="1.5" height="1.5" rx=".5" ry=".5" stroke-width="0" fill="#000"></rect><rect x="4.125" y="12" width="1.5" height="1.5" rx=".5" ry=".5" stroke-width="0" fill="#000"></rect><rect x="9.625" y="12" width="1.5" height="1.5" rx=".5" ry=".5" stroke-width="0" fill="#000"></rect><rect x="12.375" y="12" width="1.5" height="1.5" rx=".5" ry=".5" stroke-width="0" fill="#000"></rect><rect x="5.5" y="10" width="1.5" height="1.5" rx=".5" ry=".5" stroke-width="0" fill="#000"></rect><rect x="8.25" y="10" width="1.5" height="1.5" rx=".5" ry=".5" stroke-width="0" fill="#000"></rect><rect x="11" y="10" width="1.5" height="1.5" rx=".5" ry=".5" stroke-width="0" fill="#000"></rect></svg>