<svg xmlns="http://www.w3.org/2000/svg" xmlns:xlink="http://www.w3.org/1999/xlink" x="0px" y="0px" width="18px" height="18px" viewBox="0 0 18 18"><line x1="1.25" y1="8.25" x2="1.25" y2="9.75" fill="none" stroke="#000" stroke-linecap="round" stroke-linejoin="round" stroke-width="1.5"></line><line x1="4.25" y1="3.75" x2="4.25" y2="14.25" fill="none" stroke="#000" stroke-linecap="round" stroke-linejoin="round" stroke-width="1.5"></line><line x1="7.25" y1="5.75" x2="7.25" y2="12.25" fill="none" stroke="#000" stroke-linecap="round" stroke-linejoin="round" stroke-width="1.5"></line><line x1="10.25" y1="2.75" x2="10.25" y2="7.6356" fill="none" stroke="#000" stroke-linecap="round" stroke-linejoin="round" stroke-width="1.5"></line><circle cx="13.5" cy="9.5" r="1.5" stroke-width="0" fill="#000"></circle><path d="m15.6011,16h-4.2021c-.4067,0-.7905-.1987-1.0273-.5317-.2324-.3276-.293-.7476-.1621-1.123.4883-1.4023,1.8105-2.3452,3.2905-2.3452s2.8022.9429,3.291,2.3457c.1304.375.0698.7949-.1626,1.1226-.2368.333-.6206.5317-1.0273.5317Z" stroke-width="0" fill="#000"></path></svg>