<svg xmlns="http://www.w3.org/2000/svg" xmlns:xlink="http://www.w3.org/1999/xlink" x="0px" y="0px" width="18px" height="18px" viewBox="0 0 18 18"><path d="M2.75 7.75V8C2.75 10.432 4.142 12.535 6.171 13.568L5.906 14.629C5.827 14.945 6.066 15.25 6.391 15.25H11.61C11.935 15.25 12.174 14.944 12.095 14.629L11.83 13.568C13.858 12.535 15.251 10.432 15.251 8V7.75H2.75Z" fill="#000" fill-opacity="0.3" data-color="color-2" data-stroke="none"></path> <path d="M11.281 7.74999L13.984 3.98999C14.44 3.35599 14.296 2.47199 13.662 2.01599C13.028 1.55999 12.144 1.70399 11.688 2.33799L7.787 7.74999" stroke="black" stroke-width="1.5" stroke-linecap="round" stroke-linejoin="round" fill="none"></path> <path d="M2.75 7.75V8C2.75 10.432 4.142 12.535 6.171 13.568L5.906 14.629C5.827 14.945 6.066 15.25 6.391 15.25H11.61C11.935 15.25 12.174 14.944 12.095 14.629L11.83 13.568C13.858 12.535 15.251 10.432 15.251 8V7.75H2.75Z" stroke="black" stroke-width="1.5" stroke-linecap="round" stroke-linejoin="round" fill="none"></path></svg>