<svg xmlns="http://www.w3.org/2000/svg" xmlns:xlink="http://www.w3.org/1999/xlink" x="0px" y="0px" width="18px" height="18px" viewBox="0 0 18 18"><path d="M6.32 14.25H11.681C14.439 13.153 16.249 10.718 16.251 7.75H1.75C1.752 10.718 3.562 13.153 6.32 14.25Z" fill="#000" fill-opacity="0.3" data-color="color-2" data-stroke="none"></path> <path d="M4.5 6C3.12 6 2 4.88 2 3.5C2 3.224 2.224 3 2.5 3C3.88 3 5 4.12 5 5.5C5 5.776 4.776 6 4.5 6Z" fill="black" data-stroke="none"></path> <path d="M6.32 14.25H11.681C14.439 13.153 16.249 10.718 16.251 7.75H1.75C1.752 10.718 3.562 13.153 6.32 14.25Z" stroke="black" stroke-width="1.5" stroke-linecap="round" stroke-linejoin="round" fill="none"></path> <path d="M14.75 5.25C14.294 4.643 13.568 4.25 12.75 4.25C12.133 4.25 11.576 4.482 11.14 4.853C10.636 3.904 9.65 3.25 8.5 3.25C7.732 3.25 7.031 3.539 6.5 4.014" stroke="black" stroke-width="1.5" stroke-linecap="round" stroke-linejoin="round" fill="none"></path></svg>