<svg xmlns="http://www.w3.org/2000/svg" xmlns:xlink="http://www.w3.org/1999/xlink" x="0px" y="0px" width="18px" height="18px" viewBox="0 0 18 18"><path d="M9 6.25C11.898 6.25 14.25 8.602 14.25 11.5V14.25C14.25 15.354 13.354 16.25 12.25 16.25H5.75C4.646 16.25 3.75 15.354 3.75 14.25V11.5C3.75 8.602 6.102 6.25 9 6.25Z" fill="#000" fill-opacity="0.3" data-color="color-2" data-stroke="none"></path> <path d="M2.75 1.75H15.25" stroke="black" stroke-width="1.5" stroke-linecap="round" stroke-linejoin="round" fill="none"></path> <path d="M9 6.25C11.898 6.25 14.25 8.602 14.25 11.5V14.25C14.25 15.354 13.354 16.25 12.25 16.25H5.75C4.646 16.25 3.75 15.354 3.75 14.25V11.5C3.75 8.602 6.102 6.25 9 6.25Z" stroke="black" stroke-width="1.5" stroke-linecap="round" stroke-linejoin="round" fill="none"></path> <path d="M9 2V3.75" stroke="black" stroke-width="1.5" stroke-linecap="round" stroke-linejoin="round" fill="none"></path> <path d="M9 12L10.75 10.25" stroke="black" stroke-width="1.5" stroke-linecap="round" stroke-linejoin="round" fill="none"></path></svg>