<svg xmlns="http://www.w3.org/2000/svg" xmlns:xlink="http://www.w3.org/1999/xlink" x="0px" y="0px" width="24px" height="24px" viewBox="0 0 24 24"> <path fill-rule="evenodd" clip-rule="evenodd" d="M7 11V17H5V11H7Z" fill="#000" data-color="color-2"></path> <path fill-rule="evenodd" clip-rule="evenodd" d="M11 11V17H9V11H11Z" fill="#000" data-color="color-2"></path> <path fill-rule="evenodd" clip-rule="evenodd" d="M19 11V17H17V11H19Z" fill="#000" data-color="color-2"></path> <path fill-rule="evenodd" clip-rule="evenodd" d="M15 11V17H13V11H15Z" fill="#000" data-color="color-2"></path> <path fill-rule="evenodd" clip-rule="evenodd" d="M2 6C2 4.89543 2.89543 4 4 4H20C21.1046 4 22 4.89543 22 6V13H2V6ZM5 7H12V9H5V7ZM19 7H14V9H19V7Z" fill="black"></path> <path fill-rule="evenodd" clip-rule="evenodd" d="M20 3C21.6569 3 23 4.34315 23 6L23 18C23 19.6569 21.6569 21 20 21L4 21C2.34314 21 0.999999 19.6569 0.999999 18L1 6C1 4.34314 2.34315 3 4 3L20 3ZM21 6C21 5.44772 20.5523 5 20 5L4 5C3.44771 5 3 5.44771 3 6L3 18C3 18.5523 3.44771 19 4 19L20 19C20.5523 19 21 18.5523 21 18L21 6Z" fill="black"></path> </svg>