<svg xmlns="http://www.w3.org/2000/svg" xmlns:xlink="http://www.w3.org/1999/xlink" x="0px" y="0px" width="18px" height="18px" viewBox="0 0 18 18"><path d="M16.25 12.75H12.25C11.6977 12.75 11.25 13.1977 11.25 13.75V15.25C11.25 15.8023 11.6977 16.25 12.25 16.25H16.25C16.8023 16.25 17.25 15.8023 17.25 15.25V13.75C17.25 13.1977 16.8023 12.75 16.25 12.75Z" stroke="#000" stroke-width="1.5" stroke-linecap="round" stroke-linejoin="round" data-color="color-2" fill="none"></path> <path d="M15.75 7.0176V4.75C15.75 3.646 14.855 2.75 13.75 2.75H4.25C3.145 2.75 2.25 3.646 2.25 4.75V16.25L6 13.25H8.2831" stroke="black" stroke-width="1.5" stroke-linecap="round" stroke-linejoin="round" fill="none"></path> <path d="M12.75 12.75V11.25C12.75 10.422 13.422 9.75 14.25 9.75C15.078 9.75 15.75 10.422 15.75 11.25V12.75" stroke="#000" stroke-width="1.5" stroke-linecap="round" stroke-linejoin="round" data-color="color-2" fill="none"></path></svg>