<svg xmlns="http://www.w3.org/2000/svg" xmlns:xlink="http://www.w3.org/1999/xlink" x="0px" y="0px" width="18px" height="18px" viewBox="0 0 18 18"><path d="M1.75 5.75L8.517 9.483C8.818 9.649 9.182 9.649 9.483 9.483L16.25 5.75" stroke="black" stroke-width="1.5" stroke-linecap="round" stroke-linejoin="round" fill="none"></path> <path d="M16.25 8.6798V5.25C16.25 4.146 15.355 3.25 14.25 3.25H3.75C2.645 3.25 1.75 4.146 1.75 5.25V12.75C1.75 13.854 2.645 14.75 3.75 14.75H6.4776" stroke="black" stroke-width="1.5" stroke-linecap="round" stroke-linejoin="round" fill="none"></path> <path d="M15.75 16.75H16.149C16.944 16.75 17.421 15.867 16.985 15.202L14.086 10.777C13.691 10.174 12.808 10.174 12.413 10.777L9.51402 15.202C9.07802 15.867 9.55502 16.75 10.35 16.75H10.749" stroke="#000" stroke-width="1.5" stroke-linecap="round" stroke-linejoin="round" data-color="color-2" fill="none"></path> <path d="M13.25 13.25V15.25" stroke="#000" stroke-width="1.5" stroke-linecap="round" stroke-linejoin="round" data-color="color-2" fill="none"></path> <path d="M13.25 18C13.664 18 14 17.664 14 17.25C14 16.836 13.664 16.5 13.25 16.5C12.836 16.5 12.5 16.836 12.5 17.25C12.5 17.664 12.836 18 13.25 18Z" fill="#000" data-color="color-2" data-stroke="none"></path></svg>