<svg xmlns="http://www.w3.org/2000/svg" xmlns:xlink="http://www.w3.org/1999/xlink" x="0px" y="0px" width="18px" height="18px" viewBox="0 0 18 18"><path d="M13.75,2.75H4.25c-1.105,0-2,.895-2,2v11.5l3.75-3h7.75c1.105,0,2-.895,2-2V4.75c0-1.105-.895-2-2-2Z" fill="none" stroke="#000" stroke-linecap="round" stroke-linejoin="round" stroke-width="1.5"></path><path d="M9,9c-.552,0-1-.449-1-1s.448-1,1-1,1,.449,1,1-.448,1-1,1Z" fill="#000" opacity=".75" data-color="color-2" data-stroke="none"></path><path d="M5.5,9c-.552,0-1-.449-1-1s.448-1,1-1,1,.449,1,1-.448,1-1,1Z" fill="#000" data-color="color-2" data-stroke="none"></path><path d="M12.5,9c-.552,0-1-.449-1-1s.448-1,1-1,1,.449,1,1-.448,1-1,1Z" fill="#000" opacity=".5" data-color="color-2" data-stroke="none"></path></svg>