<svg xmlns="http://www.w3.org/2000/svg" xmlns:xlink="http://www.w3.org/1999/xlink" x="0px" y="0px" width="18px" height="18px" viewBox="0 0 18 18"><path d="M15.75,.75h-4.5c-.827,0-1.5,.673-1.5,1.5v2c0,.827,.673,1.5,1.5,1.5h.5v2l2.227-2h1.773c.827,0,1.5-.673,1.5-1.5V2.25c0-.827-.673-1.5-1.5-1.5Z" fill="none" stroke="#000" stroke-linecap="round" stroke-linejoin="round" stroke-width="1.5" data-color="color-2"></path><path d="M15.25,8.25v6c0,1.105-.895,2-2,2H3.75c-1.105,0-2-.895-2-2v-5.5c0-1.105,.895-2,2-2h4.38" fill="none" stroke="#000" stroke-linecap="round" stroke-linejoin="round" stroke-width="1.5"></path><circle cx="5.5" cy="11" r="1" fill="#000" data-stroke="none"></circle><circle cx="11.5" cy="11" r="1" fill="#000" data-stroke="none"></circle><path d="M7.5,12h2c.276,0,.5,.224,.5,.5h0c0,.828-.672,1.5-1.5,1.5h0c-.828,0-1.5-.672-1.5-1.5h0c0-.276,.224-.5,.5-.5Z" fill="#000" data-stroke="none"></path><line x1="5.25" y1="3.75" x2="5.25" y2="6.75" fill="none" stroke="#000" stroke-linecap="round" stroke-linejoin="round" stroke-width="1.5"></line><circle cx="5.25" cy="2.5" r="1.5" fill="#000" data-stroke="none"></circle></svg>