<svg xmlns="http://www.w3.org/2000/svg" xmlns:xlink="http://www.w3.org/1999/xlink" x="0px" y="0px" width="18px" height="18px" viewBox="0 0 18 18"><path d="M1.75 5.75L8.517 9.483C8.818 9.649 9.182 9.649 9.483 9.483L16.25 5.75" stroke="black" stroke-width="1.5" stroke-linecap="round" stroke-linejoin="round" fill="none"></path> <path d="M16.25 9V5.25C16.25 4.146 15.355 3.25 14.25 3.25H3.75C2.645 3.25 1.75 4.146 1.75 5.25V12.75C1.75 13.854 2.645 14.75 3.75 14.75H9.25" stroke="black" stroke-width="1.5" stroke-linecap="round" stroke-linejoin="round" fill="none"></path> <path d="M14.75 14.25V12.25C14.75 11.56 14.19 11 13.5 11C12.81 11 12.25 11.56 12.25 12.25V14.75C12.25 16.131 13.369 17.25 14.75 17.25C16.131 17.25 17.25 16.131 17.25 14.75V12.75" stroke="#000" stroke-width="1.5" stroke-linecap="round" stroke-linejoin="round" data-color="color-2" fill="none"></path></svg>