<svg xmlns="http://www.w3.org/2000/svg" xmlns:xlink="http://www.w3.org/1999/xlink" x="0px" y="0px" width="12px" height="12px" viewBox="0 0 12 12"><path d="m11.903,7.041c-.135-.012-.265-.041-.403-.041-2.481,0-4.5,2.019-4.5,4.5,0,.138.029.268.041.403,2.474-.435,4.427-2.388,4.863-4.863Z" fill="#000" stroke-width="0" data-color="color-2"></path><path d="m.097,4.959c.135.012.265.041.403.041,2.481,0,4.5-2.019,4.5-4.5,0-.138-.029-.268-.041-.403C2.485.532.532,2.485.097,4.959Z" fill="#000" stroke-width="0" data-color="color-2"></path><path d="m5.5,11.5c0-3.309,2.691-6,6-6,.161,0,.318.012.476.024C11.744,2.595,9.405.256,6.476.024c.012.157.024.315.024.476,0,3.309-2.691,6-6,6-.161,0-.318-.012-.476-.024.232,2.929,2.571,5.268,5.5,5.5-.012-.157-.024-.315-.024-.476Z" stroke-width="0" fill="#000"></path></svg>