<svg xmlns="http://www.w3.org/2000/svg" xmlns:xlink="http://www.w3.org/1999/xlink" x="0px" y="0px" width="24px" height="24px" viewBox="0 0 24 24"> <path d="M3 14L3.83982 13.3281C6.31742 11.3461 9.79286 11.1952 12.4329 12.9552V12.9552C14.3612 14.2408 16.7862 14.5323 18.9643 13.7402L21 13" stroke="#000" stroke-width="2" data-color="color-2" data-cap="butt" fill="none"></path> <path d="M3 9V19C3 20.1046 3.89543 21 5 21H19C20.1046 21 21 20.1046 21 19V9" stroke="black" stroke-width="2" stroke-linecap="square" fill="none"></path> <path d="M9 5V4C9 2.34315 10.3431 1 12 1V1C13.6569 1 15 2.34315 15 4V5" stroke="#000" stroke-width="2" data-color="color-2" data-cap="butt" fill="none"></path> <path d="M3 5H21" stroke="black" stroke-width="2" stroke-linecap="square" fill="none"></path> </svg>