<svg xmlns="http://www.w3.org/2000/svg" xmlns:xlink="http://www.w3.org/1999/xlink" x="0px" y="0px" width="24px" height="24px" viewBox="0 0 24 24"> <path d="M11.5866 10.8982L11.9944 11.9855L12.4076 13.0875" stroke="black" stroke-width="2" stroke-linecap="square" fill="none"></path> <path d="M7.56506 15.7303L7.75172 16.2281L7.89736 16.6165" stroke="black" stroke-width="2" stroke-linecap="square" fill="none"></path> <path d="M16.0705 7.29871L16.237 7.74275L16.3919 8.15598" stroke="black" stroke-width="2" stroke-linecap="square" fill="none"></path> <path d="M10.308 19.7416C7.99001 21.276 5.39105 22.2653 3.52946 20.4037C1.66787 18.5421 2.6572 15.9432 4.19157 13.6251C6.68366 9.86024 9.95656 6.58733 13.7214 4.09525C16.0395 2.56087 18.6384 1.57154 20.5 3.43313C22.3616 5.29472 21.3723 7.89368 19.8379 10.2117C17.3458 13.9766 14.0729 17.2495 10.308 19.7416Z" stroke="#000" stroke-width="2" stroke-linecap="square" data-color="color-2" fill="none"></path> </svg>