<svg xmlns="http://www.w3.org/2000/svg" xmlns:xlink="http://www.w3.org/1999/xlink" x="0px" y="0px" width="24px" height="24px" viewBox="0 0 24 24"> <path d="M4.00806 9.86371L9.80361 11.4166" stroke="#000" stroke-width="2" data-color="color-2" data-cap="butt" fill="none"></path> <path d="M5.20447 5.94707L3.28379 12.7321C2.82805 14.342 3.77752 16.0136 5.39369 16.4466C6.97805 16.8711 8.6096 15.9444 9.05636 14.3662L11 7.49999L5.20447 5.94707Z" stroke="black" stroke-width="2" stroke-linecap="square" fill="none"></path> <path d="M2.12695 20.7477L5.99066 21.783" stroke="black" stroke-width="2" stroke-linecap="square" fill="none"></path> <path d="M4.05881 21.2654L5.35291 16.4357" stroke="black" stroke-width="2" data-cap="butt" fill="none"></path> <path d="M14.1964 11.3637L19.9919 9.81079" stroke="#000" stroke-width="2" data-color="color-2" data-cap="butt" fill="none"></path> <path d="M13 7.5L14.9407 14.3186C15.3893 15.8945 17.0194 16.8189 18.6021 16.3948C20.2199 15.9614 21.1693 14.2871 20.7108 12.6762L18.7956 5.94709L13 7.5Z" stroke="black" stroke-width="2" stroke-linecap="square" fill="none"></path> <path d="M18.0093 21.73L21.873 20.6948" stroke="black" stroke-width="2" stroke-linecap="square" fill="none"></path> <path d="M19.9411 21.2124L18.647 16.3828" stroke="black" stroke-width="2" data-cap="butt" fill="none"></path> <path d="M12 1V2" stroke="#000" stroke-width="2" stroke-miterlimit="10" stroke-linecap="square" data-color="color-2" fill="none"></path> <path d="M16.5 2.5L16 3" stroke="#000" stroke-width="2" stroke-miterlimit="10" stroke-linecap="square" data-color="color-2" fill="none"></path> <path d="M7.5 2.5L8 3" stroke="#000" stroke-width="2" stroke-miterlimit="10" stroke-linecap="square" data-color="color-2" fill="none"></path> </svg>