<svg xmlns="http://www.w3.org/2000/svg" xmlns:xlink="http://www.w3.org/1999/xlink" x="0px" y="0px" width="24px" height="24px" viewBox="0 0 24 24"> <path d="M12 6.5C9.96718 6.5 9.00001 8 10 10H10.0514" stroke="black" stroke-width="2" stroke-linecap="square" fill="none"></path> <path d="M9 10L9.99999 22" stroke="#000" stroke-width="2" stroke-miterlimit="10" data-color="color-2" data-cap="butt" fill="none"></path> <path d="M15 10L14 22" stroke="#000" stroke-width="2" stroke-miterlimit="10" data-color="color-2" data-cap="butt" fill="none"></path> <path d="M19 6C19 4.65562 18.0685 3.25 16.3771 3.25C15.7862 3.25 15.2388 3.41736 14.8001 3.69979C14.1615 2.97124 13.145 2 12 2C10.855 2 9.83848 2.97124 9.19993 3.69979C8.76122 3.41736 8.21591 3.25 7.625 3.25C5.94526 3.25 5 4.44569 5 6" stroke="black" stroke-width="2" stroke-miterlimit="10" stroke-linecap="square" fill="none"></path> <path d="M19 10H5L6.33333 22H17.6667L19 10Z" stroke="black" stroke-width="2" stroke-miterlimit="10" stroke-linecap="square" fill="none"></path> </svg>