<svg xmlns="http://www.w3.org/2000/svg" xmlns:xlink="http://www.w3.org/1999/xlink" x="0px" y="0px" width="24px" height="24px" viewBox="0 0 24 24"> <path d="M16.5 12H17L12.9285 22.1788C12.5932 23.017 11.4068 23.017 11.0715 22.1788L7 12H7.5" stroke="#000" stroke-width="2" data-color="color-2" data-cap="butt" fill="none"></path> <path d="M17.5 7C17.2 4.2 14.9 2 12 2C9.1 2 6.8 4.2 6.5 7C5.1 7 4 8.1 4 9.5C4 10.9 5.1 12 6.5 12C7.1 12 10.5 12 12 12C13.5 12 16.9 12 17.5 12C18.9 12 20 10.9 20 9.5C20 8.1 18.9 7 17.5 7Z" stroke="black" stroke-width="2" stroke-linecap="square" fill="none"></path> <path d="M13 6.18748L13.9306 6.76912" stroke="#000" stroke-width="2" stroke-linecap="square" data-color="color-2" fill="none"></path> <path d="M10 9C10.5523 9 11 8.55228 11 8C11 7.44772 10.5523 7 10 7C9.44772 7 9 7.44772 9 8C9 8.55228 9.44772 9 10 9Z" fill="#000" data-color="color-2" data-cap="butt" data-stroke="none"></path> </svg>