<svg xmlns="http://www.w3.org/2000/svg" xmlns:xlink="http://www.w3.org/1999/xlink" x="0px" y="0px" width="24px" height="24px" viewBox="0 0 24 24"> <path d="M12 4V8" stroke="#000" stroke-width="2" data-color="color-2" data-cap="butt" fill="none"></path> <path d="M4.86732 9.8575L4.15304 19.8575C4.07034 21.0152 4.98727 22 6.14795 22H17.852C19.0127 22 19.9297 21.0152 19.847 19.8575L19.1327 9.85751C19.0579 8.8109 18.187 8 17.1378 8H6.86224C5.81296 8 4.94208 8.81089 4.86732 9.8575Z" stroke="black" stroke-width="2" data-cap="butt" fill="none"></path> <path d="M20 3V3C20 3.55228 19.5523 4 19 4H5C4.44772 4 4 3.55228 4 3V3" stroke="#000" stroke-width="2" stroke-linecap="square" data-color="color-2" fill="none"></path> <path d="M12 18C13.6569 18 15 16.6569 15 15C15 13.3431 13.6569 12 12 12C10.3431 12 9 13.3431 9 15C9 16.6569 10.3431 18 12 18Z" stroke="#000" stroke-width="2" stroke-miterlimit="10" data-color="color-2" data-cap="butt" fill="none"></path> </svg>