<svg xmlns="http://www.w3.org/2000/svg" xmlns:xlink="http://www.w3.org/1999/xlink" x="0px" y="0px" width="32px" height="32px" viewBox="0 0 32 32"> <path d="M12.5 30C18.299 30 23 25.299 23 19.5C23 13.701 18.299 9 12.5 9C6.70101 9 2 13.701 2 19.5C2 25.299 6.70101 30 12.5 30Z" stroke="black" stroke-width="2" stroke-linecap="square" fill="none"></path> <path d="M26.9146 17.7838C28.8054 16.1339 30 13.7065 30 11C30 6.02944 25.9706 2 21 2C18.2876 2 15.8554 3.1999 14.2054 5.09785" stroke="black" stroke-width="2" stroke-linecap="square" fill="none"></path> <path d="M15 25L16 23.5" stroke="#000" stroke-width="2" stroke-linecap="square" data-color="color-2" fill="none"></path> <path d="M25.6022 10L25.1022 10.5" stroke="#000" stroke-width="2" stroke-linecap="square" data-color="color-2" fill="none"></path> <path d="M21 7L20.5 7" stroke="#000" stroke-width="2" stroke-linecap="square" data-color="color-2" fill="none"></path> <path d="M13 14L13.3472 14.6733" stroke="#000" stroke-width="2" stroke-linecap="square" data-color="color-2" fill="none"></path> <path d="M6.98667 21.5047L7 21.5" stroke="#000" stroke-width="2" stroke-linecap="square" data-color="color-2" fill="none"></path> <path d="M13 20.0047L13.0133 20" stroke="#000" stroke-width="2" stroke-linecap="square" data-color="color-2" fill="none"></path> </svg>