<svg xmlns="http://www.w3.org/2000/svg" xmlns:xlink="http://www.w3.org/1999/xlink" x="0px" y="0px" width="32px" height="32px" viewBox="0 0 32 32"> <path d="M11 9L24.8655 22.8655" stroke="black" stroke-width="2" data-cap="butt" fill="none"></path> <path d="M7.10376 15.1038L21.0497 29.0497" stroke="black" stroke-width="2" data-cap="butt" fill="none"></path> <path d="M21 9L7.15531 22.8447" stroke="black" stroke-width="2" data-cap="butt" fill="none"></path> <path d="M24.877 15.123L11.004 28.996" stroke="black" stroke-width="2" data-cap="butt" fill="none"></path> <path d="M11.1148 9H11C9.15385 9 8.5 5.35853 8.5 4C8.5 4 10.9172 4.5 13 4.5C14.3097 1.24807 16 1.1945 16 1.1945C16 1.1945 17.6903 1.24807 19 4.5C21.0828 4.5 23.5 4 23.5 4C23.5 5.4264 22.8462 9 21 9H20.8098" stroke="#000" stroke-width="2" stroke-miterlimit="10" data-color="color-2" data-cap="butt" fill="none"></path> <path d="M25 21.2V16.8C25 11.9399 21.5462 8 17.2857 8H14.7143C10.4538 8 7 11.9399 7 16.8V21.2C7 26.0601 10.4538 30 14.7143 30H17.2857C21.5462 30 25 26.0601 25 21.2Z" stroke="black" stroke-width="2" stroke-miterlimit="10" stroke-linecap="square" fill="none"></path> </svg>