<svg xmlns="http://www.w3.org/2000/svg" xmlns:xlink="http://www.w3.org/1999/xlink" x="0px" y="0px" width="32px" height="32px" viewBox="0 0 32 32"> <path d="M16 22V14" stroke="#000" stroke-width="2" stroke-linecap="square" data-color="color-2" fill="none"></path> <path d="M16 30C22.6274 30 28 24.6963 28 18.1538C28 13.9165 25.7464 10.1988 22.3578 8.10507C20.3668 6.87492 18.6667 4.93763 18.6667 2.59731V2H13.3333V2.59731C13.3333 4.93763 11.6332 6.87492 9.64222 8.10507C6.25364 10.1988 4 13.9165 4 18.1538C4 24.6963 9.37258 30 16 30Z" stroke="black" stroke-width="2" stroke-miterlimit="10" data-cap="butt" fill="none"></path> <path d="M10 22.0769C9.37021 20.9474 9 19.5672 9 18.0769C9 16.5867 9.37021 15.2064 10 14.0769" stroke="#000" stroke-width="2" stroke-miterlimit="10" stroke-linecap="square" data-color="color-2" fill="none"></path> <path d="M22 14.0769C22.6298 15.2064 23 16.5867 23 18.0769C23 19.5672 22.6298 20.9474 22 22.0769" stroke="#000" stroke-width="2" stroke-miterlimit="10" stroke-linecap="square" data-color="color-2" fill="none"></path> </svg>