<svg xmlns="http://www.w3.org/2000/svg" xmlns:xlink="http://www.w3.org/1999/xlink" x="0px" y="0px" width="32px" height="32px" viewBox="0 0 32 32"> <path d="M8 6H13" stroke="black" stroke-width="2" data-cap="butt" fill="none"></path> <path d="M19 10H23" stroke="#000" stroke-width="2" stroke-linecap="square" data-color="color-2" fill="none"></path> <path d="M22 14H23" stroke="#000" stroke-width="2" stroke-linecap="square" data-color="color-2" fill="none"></path> <path d="M5 18H11V24H5" stroke="#000" stroke-width="2" data-color="color-2" data-cap="butt" fill="none"></path> <path d="M13 3V12L13.2649 12.0883C14.8983 12.6328 16 14.1613 16 15.883V29H5V15.883C5 14.1613 6.10172 12.6328 7.73509 12.0883L8 12V3C8 2.44771 8.44772 2 9 2H12C12.5523 2 13 2.44771 13 3Z" stroke="black" stroke-width="2" stroke-miterlimit="10" stroke-linecap="square" fill="none"></path> <path d="M20 27L28 27L28 5L17 5" stroke="black" stroke-width="2" stroke-miterlimit="10" stroke-linecap="square" fill="none"></path> </svg>