<svg xmlns="http://www.w3.org/2000/svg" xmlns:xlink="http://www.w3.org/1999/xlink" x="0px" y="0px" width="32px" height="32px" viewBox="0 0 32 32"> <path d="M9 29C12.866 29 16 25.866 16 22C16 18.134 12.866 15 9 15C5.13401 15 2 18.134 2 22C2 25.866 5.13401 29 9 29Z" stroke="black" stroke-width="2" stroke-linecap="square" fill="none"></path> <path d="M18.5756 27.4247C19.7814 28.4094 21.3217 29 23 29C26.866 29 30 25.866 30 22C30 18.134 26.866 15 23 15C21.3231 15 19.7839 15.5896 18.5785 16.5729" stroke="black" stroke-width="2" stroke-linecap="square" fill="none"></path> <path d="M22.7101 11C22.8987 10.3663 23 9.69497 23 9C23 5.13401 19.866 2 16 2C12.134 2 9 5.13401 9 9C9 9.69497 9.10128 10.3663 9.28988 11" stroke="black" stroke-width="2" stroke-linecap="square" fill="none"></path> <path d="M6.5 23C7.32843 23 8 22.3284 8 21.5C8 20.6716 7.32843 20 6.5 20C5.67157 20 5 20.6716 5 21.5C5 22.3284 5.67157 23 6.5 23Z" fill="#000" data-color="color-2" data-cap="butt" data-stroke="none"></path> <path d="M17.5 9C18.3284 9 19 8.32843 19 7.5C19 6.67157 18.3284 6 17.5 6C16.6716 6 16 6.67157 16 7.5C16 8.32843 16.6716 9 17.5 9Z" fill="#000" data-color="color-2" data-cap="butt" data-stroke="none"></path> <path d="M24.5 25C25.3284 25 26 24.3284 26 23.5C26 22.6716 25.3284 22 24.5 22C23.6716 22 23 22.6716 23 23.5C23 24.3284 23.6716 25 24.5 25Z" fill="#000" data-color="color-2" data-cap="butt" data-stroke="none"></path> </svg>