<svg xmlns="http://www.w3.org/2000/svg" xmlns:xlink="http://www.w3.org/1999/xlink" x="0px" y="0px" width="32px" height="32px" viewBox="0 0 32 32"> <path d="M5 18H27" stroke="black" stroke-width="2" stroke-linecap="square" fill="none"></path> <path d="M19 13V9H13V13" stroke="black" stroke-width="2" stroke-linecap="square" fill="none"></path> <path d="M4.99998 12.9107L4.99999 12C5 10.8954 4.10456 10 2.99999 10H2" stroke="black" stroke-width="2" stroke-linecap="square" fill="none"></path> <path d="M27 12.9107L27 12C27 10.8954 27.8954 10 29 10H30" stroke="black" stroke-width="2" stroke-linecap="square" fill="none"></path> <path d="M27 13H5V26C5 27.6569 6.34315 29 8 29H24C25.6569 29 27 27.6569 27 26V13Z" stroke="black" stroke-width="2" stroke-miterlimit="10" stroke-linecap="square" fill="none"></path> <path d="M16 3V1" stroke="#000" stroke-width="2" stroke-linecap="square" data-color="color-2" fill="none"></path> <path d="M23 5V3" stroke="#000" stroke-width="2" stroke-linecap="square" data-color="color-2" fill="none"></path> <path d="M9 5V3" stroke="#000" stroke-width="2" stroke-linecap="square" data-color="color-2" fill="none"></path> </svg>