<svg xmlns="http://www.w3.org/2000/svg" xmlns:xlink="http://www.w3.org/1999/xlink" x="0px" y="0px" width="32px" height="32px" viewBox="0 0 32 32"> <path d="M3 19H29" stroke="#000" stroke-width="2" stroke-linecap="square" data-color="color-2" fill="none"></path> <path d="M3 9V8C3 6.34315 4.34315 5 6 5H26C27.6569 5 29 6.34315 29 8V9H3Z" stroke="black" stroke-width="2" data-cap="butt" fill="none"></path> <path d="M3 23V24C3 25.6569 4.34315 27 6 27H26C27.6569 27 29 25.6569 29 24V23H3Z" stroke="black" stroke-width="2" data-cap="butt" fill="none"></path> <path d="M3 14C3 14 4.53344 15 5.6 15C7.72178 15 8.68329 13 10.8 13C12.9167 13 13.8782 15 16 15C18.1163 15 19.0781 13 21.2 13C23.3167 13 24.2782 15 26.4 15C27.4666 15 29 14 29 14" stroke="#000" stroke-width="2" stroke-linecap="square" stroke-linejoin="round" data-color="color-2" fill="none"></path> </svg>