<svg xmlns="http://www.w3.org/2000/svg" xmlns:xlink="http://www.w3.org/1999/xlink" x="0px" y="0px" width="32px" height="32px" viewBox="0 0 32 32"> <path d="M29 15.2657V13.5C29 7.701 24.4731 3 18.8889 3H13.1111C7.52689 3 3 7.701 3 13.5V15.2657" stroke="black" stroke-width="2" data-cap="butt" fill="none"></path> <path d="M13 23H3V26C3 27.6569 4.34315 29 6 29H26C27.6569 29 29 27.6569 29 26V23H25" stroke="black" stroke-width="2" stroke-linecap="square" fill="none"></path> <path d="M22 8.00198L22.0099 8.01207" stroke="black" stroke-width="2" stroke-linecap="square" fill="none"></path> <path d="M10 8.00198L10.0099 8.01207" stroke="black" stroke-width="2" stroke-linecap="square" fill="none"></path> <path d="M16 11.002L16.0099 11.0121" stroke="black" stroke-width="2" stroke-linecap="square" fill="none"></path> <path d="M28 15L4 15C2.89543 15 2 15.8954 2 17C2 18.1046 2.89543 19 4 19L15 19L19 24L23 19L28 19C29.1046 19 30 18.1046 30 17C30 15.8954 29.1046 15 28 15Z" stroke="#000" stroke-width="2" stroke-miterlimit="10" stroke-linecap="square" data-color="color-2" fill="none"></path> </svg>