<svg xmlns="http://www.w3.org/2000/svg" xmlns:xlink="http://www.w3.org/1999/xlink" x="0px" y="0px" width="32px" height="32px" viewBox="0 0 32 32"> <path d="M5 21V27C5 28.6569 6.34315 30 8 30H21C22.6569 30 24 28.6569 24 27V12H29V18C29 19.6569 27.6569 21 26 21H24.5" stroke="black" stroke-width="2" stroke-linecap="square" fill="none"></path> <path d="M6.78571 6H9L9.04975 5.50248C9.30535 2.94647 11.4562 1 14.0249 1H14.4751C17.0438 1 19.1946 2.94647 19.4502 5.50248L19.5 6H22C23.6569 6 25 7.34315 25 9C25 10.6569 23.6569 12 22 12H8V15C8 16.1046 7.10457 17 6 17C4.89543 17 4 16.1046 4 15V8.78571C4 7.24721 5.24721 6 6.78571 6Z" stroke="#000" stroke-width="2" stroke-linecap="square" data-color="color-2" fill="none"></path> <path d="M10 25V21" stroke="black" stroke-width="2" stroke-linecap="square" fill="none"></path> <path d="M19 25L19 17" stroke="black" stroke-width="2" stroke-linecap="square" fill="none"></path> <path d="M14.5 25V17" stroke="black" stroke-width="2" stroke-linecap="square" fill="none"></path> </svg>