<svg xmlns="http://www.w3.org/2000/svg" xmlns:xlink="http://www.w3.org/1999/xlink" x="0px" y="0px" width="32px" height="32px" viewBox="0 0 32 32"> <path d="M22.636 6.53553L25.5949 3.12145C26.4797 2.10058 28.0448 2.04476 29 3V3V3C29.9552 3.95524 29.8994 5.52033 28.8785 6.40509L25.4645 9.36396" stroke="#000" stroke-width="2" stroke-miterlimit="10" data-color="color-2" data-cap="butt" fill="none"></path> <path d="M9.36396 25.4645L6.40509 28.8785C5.52033 29.8994 3.95524 29.9552 3 29V29V29C2.04476 28.0448 2.10058 26.4797 3.12146 25.5949L6.53553 22.636" stroke="#000" stroke-width="2" stroke-miterlimit="10" data-color="color-2" data-cap="butt" fill="none"></path> <path d="M10.8284 26.8284L26.8284 10.8284L24 8L21.1716 5.17157L13.3934 12.9497L5.17157 21.1716L8 24L10.8284 26.8284Z" stroke="black" stroke-width="2" stroke-miterlimit="10" stroke-linecap="square" fill="none"></path> </svg>