<svg xmlns="http://www.w3.org/2000/svg" xmlns:xlink="http://www.w3.org/1999/xlink" x="0px" y="0px" width="32px" height="32px" viewBox="0 0 32 32"> <path d="M11.5 8.99154C10.4929 8.23722 9.49054 7.50528 8.53702 6.81002L11.761 2.38202C12.5191 2.93335 14.0454 3.94248 15.8499 5.28221" stroke="#000" stroke-width="2" stroke-miterlimit="10" data-color="color-2" data-cap="butt" fill="none"></path> <path d="M18.9323 15.3457C20.4787 17.0254 21.48 18.6264 21.48 20C21.48 23.397 18.5 24.52 16 24.52C13.5 24.52 10.52 23.397 10.52 20C10.52 16.286 17.84 10.91 23.463 6.80999L20.239 2.38199C17.533 4.34999 5.039 12.151 5.039 20C5.039 25.826 9.34202 30 16 30C22.658 30 26.961 25.826 26.961 20C26.961 17.2197 25.3933 14.4454 23.2483 11.9342" stroke="black" stroke-width="2" stroke-miterlimit="10" stroke-linecap="square" fill="none"></path> </svg>