<svg xmlns="http://www.w3.org/2000/svg" xmlns:xlink="http://www.w3.org/1999/xlink" x="0px" y="0px" width="32px" height="32px" viewBox="0 0 32 32"> <path d="M12 18V19C12 21.2091 13.7909 23 16 23V23C18.2091 23 20 21.2091 20 19V18" stroke="#000" stroke-width="2" data-color="color-2" data-cap="butt" fill="none"></path> <path d="M20 18V19C20 21.2091 21.7909 23 24 23V23C26.2091 23 28 21.2091 28 19V19" stroke="#000" stroke-width="2" data-color="color-2" data-cap="butt" fill="none"></path> <path d="M12 18V19C12 21.2091 10.2091 23 8 23V23C5.79086 23 4 21.2091 4 19V19" stroke="#000" stroke-width="2" data-color="color-2" data-cap="butt" fill="none"></path> <path d="M20 3.10168C20 5.08632 16.8873 7.10902 16 7.5C15.1127 7.10902 12 5.08632 12 3.10168C12 1.94076 12.9647 1 14.154 1C14.9039 1 15.4736 1.41814 15.9384 1.92857H16H16.0616C16.5264 1.41814 17.0961 1 17.846 1C19.0353 1 20 1.94076 20 3.10168Z" stroke="#000" stroke-width="2" data-color="color-2" data-cap="butt" fill="none"></path> <path d="M6 18L6 12C6 10.8954 6.89543 10 8 10L24 10C25.1046 10 26 10.8954 26 12L26 18" stroke="black" stroke-width="2" stroke-miterlimit="10" data-cap="butt" fill="none"></path> <path d="M3 28L29 28L29 21C29 19.3431 27.6569 18 26 18L6 18C4.34315 18 3 19.3431 3 21L3 28Z" stroke="black" stroke-width="2" stroke-miterlimit="10" stroke-linecap="square" fill="none"></path> <path d="M16 14L16.0094 14.0094" stroke="#000" stroke-width="2" stroke-miterlimit="10" stroke-linecap="square" data-color="color-2" fill="none"></path> <path d="M21 14L21.0094 14.0094" stroke="#000" stroke-width="2" stroke-miterlimit="10" stroke-linecap="square" data-color="color-2" fill="none"></path> <path d="M11 13.9906L11.0094 14" stroke="#000" stroke-width="2" stroke-miterlimit="10" stroke-linecap="square" data-color="color-2" fill="none"></path> </svg>