<svg xmlns="http://www.w3.org/2000/svg" xmlns:xlink="http://www.w3.org/1999/xlink" x="0px" y="0px" width="32px" height="32px" viewBox="0 0 32 32"> <path d="M29 20L28.3216 23.3922C28.1346 24.3271 27.3138 25 26.3604 25H5.63961C4.68625 25 3.86542 24.3271 3.67845 23.3922L3 20" stroke="black" stroke-width="2" stroke-miterlimit="10" data-cap="butt" fill="none"></path> <path d="M16 7V12.5C16 13.8807 17.1193 15 18.5 15V15C19.8807 15 21 13.8807 21 12.5V7" stroke="#000" stroke-width="2" stroke-linecap="square" data-color="color-2" fill="none"></path> <path d="M4 20V10C4 8.34315 5.34315 7 7 7H25C26.6569 7 28 8.34315 28 10V20" stroke="#000" stroke-width="2" stroke-linecap="square" data-color="color-2" fill="none"></path> <path d="M1 20H31" stroke="black" stroke-width="2" stroke-linecap="square" fill="none"></path> </svg>