<svg xmlns="http://www.w3.org/2000/svg" xmlns:xlink="http://www.w3.org/1999/xlink" x="0px" y="0px" width="32px" height="32px" viewBox="0 0 32 32"> <path d="M9 5.99816C9.76959 5.67723 10.6141 5.5 11.5 5.5C13.1571 5.5 14.6694 6.1201 15.8174 7.1409L15.7336 7.21063" stroke="#000" stroke-width="2" stroke-linecap="square" data-color="color-2" fill="none"></path> <path d="M14 12C14 10.6193 12.8807 9.5 11.5 9.5C10.1193 9.5 9 10.6193 9 12" stroke="#000" stroke-width="2" stroke-miterlimit="10" stroke-linecap="square" data-color="color-2" fill="none"></path> <path d="M1.5 6L4.5 12L5 12V4" stroke="black" stroke-width="2" stroke-linecap="square" fill="none"></path> <path d="M14 16H4V17.6923C4 23.091 7.04875 24.9643 11 27L12 29H20L21 27C24.9512 24.9643 28 23.091 28 17.6923V16H18" stroke="black" stroke-width="2" stroke-linecap="square" fill="none"></path> <path d="M28 12C28 8.13401 24.866 5 21 5C17.134 5 14 8.13401 14 12" stroke="#000" stroke-width="2" stroke-linecap="square" data-color="color-2" fill="none"></path> <path d="M24 12C24 10.3431 22.6569 9 21 9C19.3431 9 18 10.3431 18 12V21" stroke="#000" stroke-width="2" stroke-linecap="square" data-color="color-2" fill="none"></path> </svg>