<svg xmlns="http://www.w3.org/2000/svg" xmlns:xlink="http://www.w3.org/1999/xlink" x="0px" y="0px" width="32px" height="32px" viewBox="0 0 32 32"> <path d="M4.5 16.0001H12L12 21.5001C12 22.8808 13.1193 24.0001 14.5 24.0001V24.0001C15.8807 24.0001 17 22.8808 17 21.5001V16.0001L27.5 16" stroke="#000" stroke-width="2" data-color="color-2" data-cap="butt" fill="none"></path> <path d="M3 29L4.9547 12.761C5.07565 11.7561 5.92824 11 6.94036 11H25.0596C26.0718 11 26.9243 11.7561 27.0453 12.761L29 29H3Z" stroke="black" stroke-width="2" data-cap="butt" fill="none"></path> <path d="M24 1C24 4.85638 22.9549 7 18 7C18 3.14362 19.0451 1 24 1Z" stroke="#000" stroke-width="2" data-color="color-2" data-cap="butt" fill="none"></path> <path d="M11.5 7C12.8807 7 14 5.88071 14 4.5C14 3.11929 12.8807 2 11.5 2C10.1193 2 9 3.11929 9 4.5C9 5.88071 10.1193 7 11.5 7Z" stroke="#000" stroke-width="2" data-color="color-2" data-cap="butt" fill="none"></path> </svg>