<svg xmlns="http://www.w3.org/2000/svg" xmlns:xlink="http://www.w3.org/1999/xlink" x="0px" y="0px" width="32px" height="32px" viewBox="0 0 32 32"> <path d="M23 6C23 8.20914 24.3431 10 26 10C27.6569 10 29 8.20914 29 6C29 3.79086 27.6569 2 26 2C24.3431 2 23 3.79086 23 6Z" stroke="#000" stroke-width="2" stroke-linecap="square" data-color="color-2" fill="none"></path> <path d="M15.6523 5.58949C13.1686 2.66388 5.50003 3 4 4.5C2.49997 6 2.42077 13.4864 5.30597 15.9358C7.10007 17.7299 9.30884 17.3088 12 20C14.6912 22.6912 14.2765 24.9064 16.0706 26.7005C18.5543 29.6261 25.5 30 27.5 28C29.5 26 29.3021 18.8036 26.4169 16.3541C24.6228 14.56 22.6912 14.6912 20 12C17.3088 9.30884 17.4464 7.3836 15.6523 5.58949Z" stroke="black" stroke-width="2" stroke-linecap="round" stroke-linejoin="round" fill="none"></path> <path d="M20.25 25.5C20.9404 25.5 21.5 24.9404 21.5 24.25C21.5 23.5596 20.9404 23 20.25 23C19.5596 23 19 23.5596 19 24.25C19 24.9404 19.5596 25.5 20.25 25.5Z" fill="#000" data-color="color-2" data-cap="butt" data-stroke="none"></path> <path d="M24.25 22.5C24.9404 22.5 25.5 21.9404 25.5 21.25C25.5 20.5596 24.9404 20 24.25 20C23.5596 20 23 20.5596 23 21.25C23 21.9404 23.5596 22.5 24.25 22.5Z" fill="#000" data-color="color-2" data-cap="butt" data-stroke="none"></path> <path d="M18.25 21.5C18.9404 21.5 19.5 20.9404 19.5 20.25C19.5 19.5596 18.9404 19 18.25 19C17.5596 19 17 19.5596 17 20.25C17 20.9404 17.5596 21.5 18.25 21.5Z" fill="#000" data-color="color-2" data-cap="butt" data-stroke="none"></path> </svg>