<svg xmlns="http://www.w3.org/2000/svg" xmlns:xlink="http://www.w3.org/1999/xlink" x="0px" y="0px" width="32px" height="32px" viewBox="0 0 32 32"> <path d="M13.0233 19.2015C11.6416 17.1487 9.11134 16.2012 6.72439 16.8429C1.91201 18.1365 0.473737 24.447 3.82315 28.0193C8.22157 32.7104 15.432 28.3445 21.4769 22.4637C27.4672 16.636 32.6078 8.41457 28.5521 4.08903C24.7547 0.0390224 17.0017 2.01203 16.6999 8.84405M16.6999 8.84405L16.6954 8.96339C16.6966 8.92345 16.6981 8.88367 16.6999 8.84405Z" stroke="black" stroke-width="2" stroke-linecap="square" fill="none"></path> <path d="M19.9838 11.5817L19.8595 11.3974C18.5416 9.4429 16.128 8.5408 13.8512 9.15172C12.5614 9.4978 11 10.5 10 13" stroke="black" stroke-width="2" stroke-linecap="square" fill="none"></path> <path d="M8 23.5L8.5 22.5" stroke="#000" stroke-width="2" stroke-linecap="square" data-color="color-2" fill="none"></path> <path d="M15.5 14.5L16 14" stroke="#000" stroke-width="2" stroke-linecap="square" data-color="color-2" fill="none"></path> <path d="M24 7.5L23 7.10349" stroke="#000" stroke-width="2" stroke-linecap="square" data-color="color-2" fill="none"></path> </svg>