<svg xmlns="http://www.w3.org/2000/svg" xmlns:xlink="http://www.w3.org/1999/xlink" x="0px" y="0px" width="32px" height="32px" viewBox="0 0 32 32"> <path d="M10.1804 17H20.7559" stroke="#000" stroke-width="2" data-color="color-2" data-cap="butt" fill="none"></path> <path d="M24 2H4V30H24C25.6569 30 27 28.6569 27 27V5C27 3.34315 25.6569 2 24 2Z" stroke="black" stroke-width="2" stroke-miterlimit="10" stroke-linecap="square" fill="none"></path> <path d="M31 7V9" stroke="#000" stroke-width="2" stroke-miterlimit="10" stroke-linecap="square" data-color="color-2" fill="none"></path> <path d="M31 13V15" stroke="#000" stroke-width="2" stroke-miterlimit="10" stroke-linecap="square" data-color="color-2" fill="none"></path> <path d="M18.7057 10.0116C18.8339 10 19.6721 10 19.8182 10C21.6 10 23 11.3529 23 13.0749C23 14.9006 21.5 17.0343 20 17.275V21H11V17.275C9.5 17.0343 8 14.9006 8 13.0749C8 11.3529 9.4 10 11.1818 10C11.3279 10 12.1695 9.98838 12.2977 10" stroke="#000" stroke-width="2" data-color="color-2" data-cap="butt" fill="none"></path> <path d="M12 12L12 11.5C12 9.567 13.567 8 15.5 8V8C17.433 8 19 9.567 19 11.5V12" stroke="#000" stroke-width="2" stroke-linecap="square" data-color="color-2" fill="none"></path> </svg>