<svg xmlns="http://www.w3.org/2000/svg" xmlns:xlink="http://www.w3.org/1999/xlink" x="0px" y="0px" width="48px" height="48px" viewBox="0 0 48 48"> <path d="M29.7237 9.50055C41.4841 9.57169 45 16.7037 45 29.4788C45 38.5992 37.8463 41.6171 29.2106 42.4045" stroke="black" stroke-width="2" stroke-miterlimit="10" data-cap="butt" fill="none"></path> <path d="M22 8L21.1941 3.1644C21.0925 2.55487 21.5625 2 22.1805 2L25.8195 2C26.4375 2 26.9075 2.55487 26.8059 3.1644L26 8" stroke="#000" stroke-width="2" data-color="color-2" data-cap="butt" fill="none"></path> <path d="M18.2339 9.50085C6.50743 9.58885 3 16.719 3 29.4788C3 38.591 10.1409 41.6117 18.7662 42.4024" stroke="black" stroke-width="2" stroke-miterlimit="10" data-cap="butt" fill="none"></path> <path d="M24 44C31.6466 44 35 35.9411 35 26C35 16.0589 33.218 8 24 8C14.782 8 13 16.0589 13 26C13 35.9411 16.3534 44 24 44Z" stroke="black" stroke-width="2" stroke-miterlimit="10" data-cap="butt" fill="none"></path> <path d="M18 26C18 18.8203 18.972 13 24 13" stroke="#000" stroke-width="2" stroke-miterlimit="10" stroke-linecap="square" data-color="color-2" fill="none"></path> </svg>