<svg xmlns="http://www.w3.org/2000/svg" xmlns:xlink="http://www.w3.org/1999/xlink" x="0px" y="0px" width="48px" height="48px" viewBox="0 0 48 48"> <path d="M28 19L28 28" stroke="black" stroke-width="2" stroke-linecap="square" fill="none"></path> <path d="M40 7H8C5.23858 7 3 9.23858 3 12V36C3 38.7614 5.23858 41 8 41H40C42.7614 41 45 38.7614 45 36V12C45 9.23858 42.7614 7 40 7Z" stroke="black" stroke-width="2" stroke-miterlimit="10" stroke-linecap="square" fill="none"></path> <path d="M33 13H9V35H33V13Z" stroke="#000" stroke-width="2" stroke-miterlimit="10" stroke-linecap="square" data-color="color-2" fill="none"></path> <path d="M40 16H38" stroke="black" stroke-width="2" stroke-linecap="square" fill="none"></path> <path d="M40 21H38" stroke="black" stroke-width="2" stroke-linecap="square" fill="none"></path> <path d="M39 32.5C39.8284 32.5 40.5 31.8284 40.5 31C40.5 30.1716 39.8284 29.5 39 29.5C38.1716 29.5 37.5 30.1716 37.5 31C37.5 31.8284 38.1716 32.5 39 32.5Z" fill="black" data-cap="butt" data-stroke="none"></path> <path d="M39 32C39.5523 32 40 31.5523 40 31C40 30.4477 39.5523 30 39 30C38.4477 30 38 30.4477 38 31C38 31.5523 38.4477 32 39 32Z" stroke="black" stroke-width="2" data-cap="butt" fill="none"></path> </svg>