<svg xmlns="http://www.w3.org/2000/svg" xmlns:xlink="http://www.w3.org/1999/xlink" x="0px" y="0px" width="48px" height="48px" viewBox="0 0 48 48"> <path d="M22.9008 20.8881L23 21.5L20 3H11.9999" stroke="#000" stroke-width="2" stroke-linecap="square" data-color="color-2" fill="none"></path> <path d="M32.6881 21.4282C28.5986 23.149 26.0476 22.9563 22.2708 21.1382C18.3864 19.2682 15.7986 19.1177 11.5 21L11.2151 21.1311" stroke="black" stroke-width="2" data-cap="butt" fill="none"></path> <path d="M23 33C23 39.4273 24.5676 43 32 43C32 36.5727 30.4324 33 23 33Z" stroke="#000" stroke-width="2" data-color="color-2" data-cap="butt" fill="none"></path> <path d="M45 28C45 37.641 42.7357 43 32 43C32 33.359 34.2643 28 45 28Z" stroke="#000" stroke-width="2" data-color="color-2" data-cap="butt" fill="none"></path> <path d="M20.5 43H15.2881C12.4167 43 10.1353 40.5871 10.296 37.7202L11.9059 9H32.0941L33.0644 26.3107" stroke="black" stroke-width="2" stroke-linecap="square" fill="none"></path> </svg>