<svg xmlns="http://www.w3.org/2000/svg" xmlns:xlink="http://www.w3.org/1999/xlink" x="0px" y="0px" width="48px" height="48px" viewBox="0 0 48 48"> <path d="M24 18V20V19" stroke="#000" stroke-width="2" stroke-linecap="square" data-color="color-2" fill="none"></path> <path d="M31 29V27C31 23.134 27.866 20 24 20C20.134 20 17 23.134 17 27V29" stroke="#000" stroke-width="2" stroke-linecap="square" data-color="color-2" fill="none"></path> <path d="M24 44L24 29" stroke="black" stroke-width="2" stroke-linecap="square" fill="none"></path> <path d="M32 40H43" stroke="black" stroke-width="2" data-cap="butt" fill="none"></path> <path d="M16 40H5" stroke="black" stroke-width="2" data-cap="butt" fill="none"></path> <path d="M43 35H34.5C33.1193 35 32 36.1193 32 37.5V44" stroke="black" stroke-width="2" stroke-linecap="square" fill="none"></path> <path d="M5 35H13.5C14.8807 35 16 36.1193 16 37.5V44" stroke="black" stroke-width="2" stroke-linecap="square" fill="none"></path> <path d="M14 29H34" stroke="black" stroke-width="2" stroke-linecap="square" fill="none"></path> <path d="M44 24L43 35V44" stroke="black" stroke-width="2" stroke-linecap="square" fill="none"></path> <path d="M4 24L5 35V44" stroke="black" stroke-width="2" stroke-linecap="square" fill="none"></path> <path d="M30 6.15252C30 9.12948 25.331 12.1635 24 12.75C22.669 12.1635 18 9.12948 18 6.15252C18 4.41114 19.447 3 21.231 3C22.3559 3 23.2104 3.62722 23.9077 4.39286H24H24.0923C24.7896 3.62722 25.6441 3 26.769 3C28.553 3 30 4.41114 30 6.15252Z" stroke="#000" stroke-width="2" data-color="color-2" data-cap="butt" fill="none"></path> </svg>