<svg xmlns="http://www.w3.org/2000/svg" xmlns:xlink="http://www.w3.org/1999/xlink" x="0px" y="0px" width="48px" height="48px" viewBox="0 0 48 48"> <path d="M5 30C5 24.0286 6.25 12.7501 20.5 12.0001C23.6533 11.8341 27.122 11.9593 30.1079 13.1159M30.1079 13.1159C29.9691 13.1738 29.8301 13.2332 29.6911 13.294L30.1079 13.1159Z" stroke="black" stroke-width="2" stroke-linecap="square" fill="none"></path> <path d="M36.75 12.75L39.5 10.0001" stroke="#000" stroke-width="2" data-color="color-2" data-cap="butt" fill="none"></path> <path d="M45 35H3V38C3 39.6569 4.34315 41 6 41H42C43.6569 41 45 39.6569 45 38V35Z" stroke="#000" stroke-width="2" stroke-linecap="square" data-color="color-2" fill="none"></path> <path d="M23 6V2" stroke="#000" stroke-width="2" stroke-linecap="square" data-color="color-2" fill="none"></path> <path d="M15 7V4" stroke="#000" stroke-width="2" stroke-linecap="square" data-color="color-2" fill="none"></path> <path d="M31 7V4" stroke="#000" stroke-width="2" stroke-linecap="square" data-color="color-2" fill="none"></path> <path d="M43 30C43 27.3378 42.0419 25.5759 40.1152 23.3165" stroke="black" stroke-width="2" stroke-linecap="square" fill="none"></path> <path d="M36.8988 12.6012C39.4595 15.1619 34.1692 24.6015 31.6084 27.16C29.0716 29.6102 24.9137 29.574 22.4199 27.0802C19.926 24.5863 19.8899 20.4284 22.34 17.8916C24.8985 15.3308 34.3381 10.0405 36.8988 12.6012Z" stroke="black" stroke-width="2" stroke-linecap="square" fill="none"></path> <path d="M40.0141 4.24898C38.8197 5.4434 39.0813 8.28385 39.374 9.5538C39.4402 9.84072 39.6593 10.0598 39.9462 10.126C41.2162 10.4187 44.0566 10.6803 45.251 9.48591C46.0518 8.6851 46.0693 7.40467 45.2907 6.62611C44.7998 6.13521 44.1237 6.06547 43.4673 6.11325L43.3868 6.03266C43.4345 5.37625 43.3648 4.70017 42.8739 4.20927C42.0953 3.43072 40.8149 3.44817 40.0141 4.24898Z" stroke="#000" stroke-width="2" data-color="color-2" data-cap="butt" fill="none"></path> </svg>