<svg xmlns="http://www.w3.org/2000/svg" xmlns:xlink="http://www.w3.org/1999/xlink" x="0px" y="0px" width="48px" height="48px" viewBox="0 0 48 48"> <path d="M7 22H14C17.866 22 21 18.866 21 15V15C21 11.134 17.866 8 14 8V8C10.134 8 7 11.134 7 15V16" stroke="black" stroke-width="2" stroke-linecap="square" fill="none"></path> <path d="M34 22L33.9633 22L39.7833 8.62154C40.607 6.72813 39.8124 4.52082 37.971 3.58675V3.58675C35.8189 2.49509 33.2018 3.59978 32.4828 5.90335L27.459 22L27.5 22" stroke="#000" stroke-width="2" stroke-miterlimit="10" stroke-linecap="square" data-color="color-2" fill="none"></path> <path d="M32 37H16V28H32V37Z" stroke="#000" stroke-width="2" data-color="color-2" data-cap="butt" fill="none"></path> <path d="M7 22V38C7 40.7614 9.23858 43 12 43H36C38.7614 43 41 40.7614 41 38V22" stroke="black" stroke-width="2" stroke-miterlimit="10" stroke-linecap="square" fill="none"></path> <path d="M4 22H44" stroke="black" stroke-width="2" stroke-linecap="square" fill="none"></path> </svg>