<svg xmlns="http://www.w3.org/2000/svg" xmlns:xlink="http://www.w3.org/1999/xlink" x="0px" y="0px" width="48px" height="48px" viewBox="0 0 48 48"> <path d="M19 9H28" stroke="#000" stroke-width="2" data-color="color-2" data-cap="butt" fill="none"></path> <path d="M24 44H10V20.7082C10 18.4356 11.284 16.358 13.3167 15.3416L19 12.5V5.5C19 4.11929 20.1193 3 21.5 3H25.5C26.8807 3 28 4.11929 28 5.5V12.5L33.6833 15.3416C35.716 16.358 37 18.4356 37 20.7082V25" stroke="black" stroke-width="2" stroke-miterlimit="10" stroke-linecap="square" fill="none"></path> <path d="M23 38H16V23L31 23V25" stroke="black" stroke-width="2" stroke-miterlimit="10" stroke-linecap="square" fill="none"></path> <path d="M34 29C37.2308 32.7647 40 35.2573 40 38.8824C40 42.5074 37.3135 45 34 45C30.6865 45 28 42.5074 28 38.8824C28 35.2573 30.7692 32.7647 34 29Z" stroke="#000" stroke-width="2" stroke-miterlimit="10" stroke-linecap="square" data-color="color-2" fill="none"></path> </svg>