<svg xmlns="http://www.w3.org/2000/svg" xmlns:xlink="http://www.w3.org/1999/xlink" x="0px" y="0px" width="48px" height="48px" viewBox="0 0 48 48"> <path d="M12 10H36" stroke="black" stroke-width="2" data-cap="butt" fill="none"></path> <path d="M8 19H40" stroke="black" stroke-width="2" data-cap="butt" fill="none"></path> <path d="M8 19L8 42C8 43.6569 9.34315 45 11 45L37 45C38.6569 45 40 43.6569 40 42L40 19L36 10L36 2.99999L12 2.99999L12 10L8 19Z" stroke="black" stroke-width="2" stroke-miterlimit="10" stroke-linecap="square" fill="none"></path> <path d="M24 38C27.3137 38 30 35.3137 30 32C30 28.6863 27.3137 26 24 26C20.6863 26 18 28.6863 18 32C18 35.3137 20.6863 38 24 38Z" stroke="#000" stroke-width="2" stroke-miterlimit="10" data-color="color-2" data-cap="butt" fill="none"></path> </svg>