<svg xmlns="http://www.w3.org/2000/svg" xmlns:xlink="http://www.w3.org/1999/xlink" x="0px" y="0px" width="48px" height="48px" viewBox="0 0 48 48"> <path d="M7 35H41" stroke="#000" stroke-width="2" data-color="color-2" data-cap="butt" fill="none"></path> <path d="M15 28H19" stroke="black" stroke-width="2" stroke-linecap="square" fill="none"></path> <path d="M25 28H33" stroke="black" stroke-width="2" stroke-linecap="square" fill="none"></path> <path d="M24 4.97782V12" stroke="black" stroke-width="2" data-cap="butt" fill="none"></path> <path d="M32 5V12" stroke="black" stroke-width="2" data-cap="butt" fill="none"></path> <path d="M16 5V12" stroke="black" stroke-width="2" data-cap="butt" fill="none"></path> <path d="M7 22L8.77 21.2712C18.526 17.254 29.474 17.254 39.23 21.2712L41 22" stroke="#000" stroke-width="2" data-color="color-2" data-cap="butt" fill="none"></path> <path d="M34.5177 12L40.0813 19.861C40.679 20.7055 41 21.7148 41 22.7495V38C41 40.7614 38.7614 43 36 43H12C9.23858 43 7 40.7614 7 38L7 22.7495C7 21.7147 7.321 20.7055 7.91875 19.861L13.4823 12" stroke="black" stroke-width="2" data-cap="butt" fill="none"></path> <path d="M9 12L39 12L39 5L9 5L9 12Z" stroke="black" stroke-width="2" stroke-miterlimit="10" stroke-linecap="square" fill="none"></path> </svg>