<svg xmlns="http://www.w3.org/2000/svg" xmlns:xlink="http://www.w3.org/1999/xlink" x="0px" y="0px" width="48px" height="48px" viewBox="0 0 48 48"> <path d="M32 21L31 24H30.5" stroke="#000" stroke-width="2" stroke-linecap="square" data-color="color-2" fill="none"></path> <path d="M5 6V11.5714C5 16.7142 10.2281 19 15 19V13.4286C15 8.60183 9.72357 6 5 6Z" stroke="black" stroke-width="2" stroke-linecap="round" fill="none"></path> <path d="M5 30L43 30" stroke="#000" stroke-width="2" data-color="color-2" data-cap="butt" fill="none"></path> <path d="M43 24V27C43 36.3251 39.2561 39.4839 33 43H15C8.74386 39.4839 5 36.3251 5 27V24H43Z" stroke="black" stroke-width="2" stroke-linecap="square" fill="none"></path> <path d="M27 19C27 17.067 25.433 15.5 23.5 15.5C21.567 15.5 20 17.067 20 19" stroke="#000" stroke-width="2" stroke-linecap="square" data-color="color-2" fill="none"></path> <path d="M42 19V18C42 12.6787 35.5793 9.18147 31.1095 12.5445C27.9769 8.70035 23.2018 6.8811 19 8.7243" stroke="black" stroke-width="2" stroke-miterlimit="10" stroke-linecap="square" fill="none"></path> <path d="M33.5 5.5L32.5 6.5" stroke="#000" stroke-width="2" stroke-linecap="square" data-color="color-2" fill="none"></path> <path d="M36 17L37 18" stroke="#000" stroke-width="2" stroke-linecap="square" data-color="color-2" fill="none"></path> </svg>