<svg xmlns="http://www.w3.org/2000/svg" xmlns:xlink="http://www.w3.org/1999/xlink" x="0px" y="0px" width="48px" height="48px" viewBox="0 0 48 48"> <path d="M29.5 14C32.5556 14 35 10.1396 35 8C35 8 31.3333 6.66667 28.2778 7.33333C26.4769 2.45543 24.1183 2 24 2C23.8817 2 21.5231 2.45543 19.7222 7.33333C16.6667 6.66667 13 8 13 8C13 10.0378 15.4444 14 18.5 14" stroke="#000" stroke-width="2" stroke-miterlimit="10" data-color="color-2" data-cap="butt" fill="none"></path> <path d="M23.9991 45C17.0507 45 8.00182 31 8.00182 23.3C7.90386 18.4169 11.7713 14 17.0507 14H30.9493C36.2287 14 40.0961 18.4169 39.9982 23.3C39.9982 31 30.9475 45 23.9991 45Z" stroke="black" stroke-width="2" stroke-linecap="round" stroke-linejoin="round" fill="none"></path> <path d="M24 36L24 37" stroke="#000" stroke-width="2" stroke-miterlimit="10" stroke-linecap="square" data-color="color-2" fill="none"></path> <path d="M28 29L28 30" stroke="#000" stroke-width="2" stroke-miterlimit="10" stroke-linecap="square" data-color="color-2" fill="none"></path> <path d="M20 29L20 30" stroke="#000" stroke-width="2" stroke-miterlimit="10" stroke-linecap="square" data-color="color-2" fill="none"></path> <path d="M24 22L24 23" stroke="#000" stroke-width="2" stroke-miterlimit="10" stroke-linecap="square" data-color="color-2" fill="none"></path> <path d="M16 22L16 23" stroke="#000" stroke-width="2" stroke-miterlimit="10" stroke-linecap="square" data-color="color-2" fill="none"></path> <path d="M32 22L32 23" stroke="#000" stroke-width="2" stroke-miterlimit="10" stroke-linecap="square" data-color="color-2" fill="none"></path> </svg>