<svg xmlns="http://www.w3.org/2000/svg" xmlns:xlink="http://www.w3.org/1999/xlink" x="0px" y="0px" width="48px" height="48px" viewBox="0 0 48 48"> <path d="M28 18H33L41 7" stroke="#000" stroke-width="2" stroke-linecap="square" data-color="color-2" fill="none"></path> <path d="M20 18H15L7 7" stroke="#000" stroke-width="2" stroke-linecap="square" data-color="color-2" fill="none"></path> <path d="M5 25V38C5 40.7614 7.23858 43 10 43H37C39.7614 43 42 40.7614 42 38V25" stroke="black" stroke-width="2" stroke-miterlimit="10" stroke-linecap="square" fill="none"></path> <path d="M18 25H3V21C3 19.3431 4.34315 18 6 18H20" stroke="black" stroke-width="2" stroke-miterlimit="10" stroke-linecap="square" fill="none"></path> <path d="M30 25H45V21C45 19.3431 43.6569 18 42 18H28" stroke="black" stroke-width="2" stroke-miterlimit="10" stroke-linecap="square" fill="none"></path> <path d="M20 7V23H28V7C28 4.79086 26.2091 3 24 3C21.7909 3 20 4.79086 20 7Z" stroke="#000" stroke-width="2" data-color="color-2" data-cap="butt" fill="none"></path> <path d="M28 31V37" stroke="black" stroke-width="2" stroke-linecap="square" fill="none"></path> <path d="M35 31V37" stroke="black" stroke-width="2" stroke-linecap="square" fill="none"></path> <path d="M13 31V37" stroke="black" stroke-width="2" stroke-linecap="square" fill="none"></path> <path d="M20 31V37" stroke="black" stroke-width="2" stroke-linecap="square" fill="none"></path> </svg>