<svg xmlns="http://www.w3.org/2000/svg" xmlns:xlink="http://www.w3.org/1999/xlink" x="0px" y="0px" width="48px" height="48px" viewBox="0 0 48 48"> <path d="M24 42V45V44.5" stroke="#000" stroke-width="2" stroke-linecap="square" data-color="color-2" fill="none"></path> <path d="M32.5 40.5L33.5 42.5982L33.3358 42.2537" stroke="#000" stroke-width="2" stroke-linecap="square" data-color="color-2" fill="none"></path> <path d="M37 34L39.5 35L39.184 34.8736" stroke="#000" stroke-width="2" stroke-linecap="square" data-color="color-2" fill="none"></path> <path d="M11 34L8.5 35L8.81599 34.8736" stroke="#000" stroke-width="2" stroke-linecap="square" data-color="color-2" fill="none"></path> <path d="M15.5 40.5L14.5 42.5982L14.6642 42.2537" stroke="#000" stroke-width="2" stroke-linecap="square" data-color="color-2" fill="none"></path> <path d="M27.4892 23C30.1873 26.0936 32 28.9656 32 31C32 35.8173 27.649 37 24 37C20.351 37 16 35.8173 16 31C16 25.7339 28.146 14.8555 36.354 9.04923L31.5 3C27.553 5.78996 8 19.8703 8 31C8 39.2621 14.28 45 24 45C33.72 45 40 39.2621 40 31C40 26.7551 37.1343 22.0468 33.3699 17.6913" stroke="black" stroke-width="2" stroke-linecap="square" fill="none"></path> <path d="M18.2817 13.765C16.1117 11.9389 13.9427 10.2594 12 8.88254L16.5 3C17.7492 3.88136 20.6974 5.73914 24 8.53264" stroke="black" stroke-width="2" stroke-linecap="square" fill="none"></path> </svg>