<svg xmlns="http://www.w3.org/2000/svg" xmlns:xlink="http://www.w3.org/1999/xlink" x="0px" y="0px" width="24px" height="24px" viewBox="0 0 24 24"> <path d="M16.3002 7.16994L18.5 5V4L16.5 3H15H13.5L11.5 4V5L13.6829 7.16994" stroke="black" stroke-width="2" stroke-miterlimit="10" data-cap="butt" fill="none"></path> <path d="M18 16.0004C19.2144 15.0882 20 13.6358 20 12C20 9.23858 17.7614 7 15 7C12.2386 7 10 9.23858 10 12C10 13.6358 10.7856 15.0882 12 16.0004" stroke="#000" stroke-width="2" data-color="color-2" data-cap="butt" fill="none"></path> <path d="M22 16H6V19C6 20.1046 6.89543 21 8 21H20C21.1046 21 22 20.1046 22 19V16Z" stroke="black" stroke-width="2" data-cap="butt" fill="none"></path> <path d="M6 16L6 3L3 3C1.89543 3 1 3.89543 1 5L1 14C0.999999 15.1046 1.89543 16 3 16L6 16Z" stroke="black" stroke-width="2" data-cap="butt" fill="none"></path> </svg>