<svg xmlns="http://www.w3.org/2000/svg" xmlns:xlink="http://www.w3.org/1999/xlink" x="0px" y="0px" width="32px" height="32px" viewBox="0 0 32 32"> <path d="M16.5 25V29" stroke="#000" stroke-width="2" stroke-linecap="square" data-color="color-2" fill="none"></path> <path d="M4.5 29V18C4.5 13.768 6.69073 10.0477 10 7.91116" stroke="black" stroke-width="2" data-cap="butt" fill="none"></path> <path d="M28.5 29V18C28.5 13.768 26.3093 10.0476 23 7.91113" stroke="black" stroke-width="2" data-cap="butt" fill="none"></path> <path d="M16.5 14C18.0526 13.2941 23.5 9.38212 23.5 5.79623C23.5 3.69976 21.8116 2 19.7312 2C18.3592 2 17.3344 2.86682 16.5 3.83953C15.667 2.86541 14.6408 2 13.2688 2C11.187 2 9.5 3.69976 9.5 5.79623C9.5 9.38212 14.9474 13.2941 16.5 14Z" stroke="#000" stroke-width="2" stroke-miterlimit="10" stroke-linecap="square" data-color="color-2" fill="none"></path> <path d="M26.5 29H30.5" stroke="black" stroke-width="2" stroke-linecap="square" fill="none"></path> <path d="M2.5 29H6.5" stroke="black" stroke-width="2" stroke-linecap="square" fill="none"></path> <path d="M10.5 25L10.5 24.375L12.1667 19H16.5H20.8333L22.5 24.375V25H10.5Z" stroke="black" stroke-width="2" stroke-miterlimit="10" stroke-linecap="square" fill="none"></path> </svg>