<svg xmlns="http://www.w3.org/2000/svg" xmlns:xlink="http://www.w3.org/1999/xlink" x="0px" y="0px" width="24px" height="24px" viewBox="0 0 24 24"> <path fill-rule="evenodd" clip-rule="evenodd" d="M18.5 19L18.5 8L20.5 8L20.5 19L18.5 19Z" fill="black"></path> <path fill-rule="evenodd" clip-rule="evenodd" d="M3.5 19L3.5 8L5.5 8L5.5 19L3.5 19Z" fill="black"></path> <path fill-rule="evenodd" clip-rule="evenodd" d="M8.5 19L8.5 8L10.5 8L10.5 19L8.5 19Z" fill="#000" data-color="color-2"></path> <path fill-rule="evenodd" clip-rule="evenodd" d="M13.5 19L13.5 8L15.5 8L15.5 19L13.5 19Z" fill="#000" data-color="color-2"></path> <path d="M12 0.399658L1 5.44966V9.00001H23V5.44966L12 0.399658Z" fill="black"></path> <path d="M4 18C2.34315 18 1 19.3431 1 21V23H23V21C23 19.3431 21.6569 18 20 18H4Z" fill="black"></path> </svg>