<svg xmlns="http://www.w3.org/2000/svg" xmlns:xlink="http://www.w3.org/1999/xlink" x="0px" y="0px" width="24px" height="24px" viewBox="0 0 24 24"><path fill-rule="evenodd" clip-rule="evenodd" d="M19 3V19H17V3H19Z" fill="#000" data-color="color-2"></path> <path fill-rule="evenodd" clip-rule="evenodd" d="M23 11V19H21V11H23Z" fill="black"></path> <path fill-rule="evenodd" clip-rule="evenodd" d="M15 13V19H13V13H15Z" fill="black"></path> <path fill-rule="evenodd" clip-rule="evenodd" d="M18 1.33335L21.5 6.00002L14.5 6.00002L18 1.33335Z" fill="#000" data-color="color-2"></path> <path fill-rule="evenodd" clip-rule="evenodd" d="M13 21H23V23H13V21Z" fill="#000" data-color="color-2"></path> <path fill-rule="evenodd" clip-rule="evenodd" d="M2.5 4.5C2.5 3.11893 3.61893 2 5 2C6.38107 2 7.5 3.11893 7.5 4.5C7.5 5.88107 6.38107 7 5 7C3.61893 7 2.5 5.88107 2.5 4.5Z" fill="black"></path> <path d="M0.940154 11C1.27643 9.08743 3.01678 8 4.95869 8H13V10H8.49997L7.39507 23H2.5L2.07735 16.1326L0.326995 15.2438L0.940154 11Z" fill="black"></path></svg>