<svg xmlns="http://www.w3.org/2000/svg" xmlns:xlink="http://www.w3.org/1999/xlink" x="0px" y="0px" width="24px" height="24px" viewBox="0 0 24 24"> <path fill-rule="evenodd" clip-rule="evenodd" d="M17.7226 23.8868L19.3867 22.7774L15.832 17.4453L14.1679 18.5547L17.7226 23.8868Z" fill="#000" data-color="color-2"></path> <path fill-rule="evenodd" clip-rule="evenodd" d="M6.27738 23.8868L4.61328 22.7774L8.16798 17.4453L9.83208 18.5547L6.27738 23.8868Z" fill="#000" data-color="color-2"></path> <path fill-rule="evenodd" clip-rule="evenodd" d="M13 17V22H11V17H13Z" fill="#000" data-color="color-2"></path> <path fill-rule="evenodd" clip-rule="evenodd" d="M13 0V4H11V0H13Z" fill="black"></path> <path fill-rule="evenodd" clip-rule="evenodd" d="M0 17H24V19H0V17Z" fill="#000" data-color="color-2"></path> <path fill-rule="evenodd" clip-rule="evenodd" d="M2 5C2 3.34315 3.34315 2 5 2H19C20.6569 2 22 3.34315 22 5V15H2V5ZM18.4142 6.58579L17 5.17157L13 9.17157L10 6.17157L5.58579 10.5858L7 12L10 9L13 12L18.4142 6.58579Z" fill="black"></path> </svg>