<svg xmlns="http://www.w3.org/2000/svg" xmlns:xlink="http://www.w3.org/1999/xlink" x="0px" y="0px" width="24px" height="24px" viewBox="0 0 24 24"> <path d="M5 8.61132L1 6.61133V11.1775L5 13.0301V8.61132Z" fill="black"></path> <path d="M17 8.61132L13 6.61133V11.1775L17 13.0301V8.61132Z" fill="black"></path> <path d="M11 18.6113L7 16.6113V21.1775L11 23.0301V18.6113Z" fill="#000" data-color="color-2"></path> <path d="M10.5496 4.60047L5.99997 6.87526L1.45038 4.60047L5.99997 2.49329L10.5496 4.60047Z" fill="black"></path> <path d="M22.5496 4.60047L18 6.87526L13.4504 4.60047L18 2.49329L22.5496 4.60047Z" fill="black"></path> <path d="M16.5496 14.6005L12 16.8753L7.45038 14.6005L12 12.4933L16.5496 14.6005Z" fill="#000" data-color="color-2"></path> <path d="M11 6.61133L7 8.61132V13.0301L11 11.1775V6.61133Z" fill="black"></path> <path d="M23 6.61133L19 8.61132V13.0301L23 11.1775V6.61133Z" fill="black"></path> <path d="M17 16.6113L13 18.6113V23.0301L17 21.1775V16.6113Z" fill="#000" data-color="color-2"></path> </svg>