<svg xmlns="http://www.w3.org/2000/svg" xmlns:xlink="http://www.w3.org/1999/xlink" x="0px" y="0px" width="24px" height="24px" viewBox="0 0 24 24"> <path d="M4 17C2.34315 17 1 18.3431 1 20C1 21.6569 2.34315 23 4 23C5.65685 23 7 21.6569 7 20C7 18.3431 5.65685 17 4 17Z" fill="black"></path> <path d="M12 17C10.3431 17 9 18.3431 9 20C9 21.6569 10.3431 23 12 23C13.6569 23 15 21.6569 15 20C15 18.3431 13.6569 17 12 17Z" fill="black"></path> <path d="M20 17C18.3431 17 17 18.3431 17 20C17 21.6569 18.3431 23 20 23C21.6569 23 23 21.6569 23 20C23 18.3431 21.6569 17 20 17Z" fill="black"></path> <path fill-rule="evenodd" clip-rule="evenodd" d="M3 11H21V15H19V13H5V15H3V11Z" fill="#000" data-color="color-2"></path> <path fill-rule="evenodd" clip-rule="evenodd" d="M13 9V15H11V9H13Z" fill="#000" data-color="color-2"></path> <path d="M9.5 2V7H14.5V2H9.5Z" fill="black"></path> </svg>