<svg xmlns="http://www.w3.org/2000/svg" xmlns:xlink="http://www.w3.org/1999/xlink" x="0px" y="0px" width="32px" height="32px" viewBox="0 0 32 32"> <path fill-rule="evenodd" clip-rule="evenodd" d="M25 28V32H23V28H25Z" fill="black"></path> <path fill-rule="evenodd" clip-rule="evenodd" d="M9 28V32H7V28H9Z" fill="black"></path> <path d="M16 20C18.2091 20 20 18.2091 20 16C20 13.7909 18.2091 12 16 12C13.7909 12 12 13.7909 12 16C12 18.2091 13.7909 20 16 20Z" fill="#000" data-color="color-2"></path> <path fill-rule="evenodd" clip-rule="evenodd" d="M6 2C3.79086 2 2 3.79086 2 6V26C2 28.2091 3.79086 30 6 30H26C28.2091 30 30 28.2091 30 26V6C30 3.79086 28.2091 2 26 2H6ZM4 22H8V24H24V8H8V10H4V12H8V20H4V22Z" fill="black"></path> </svg>