<svg xmlns="http://www.w3.org/2000/svg" xmlns:xlink="http://www.w3.org/1999/xlink" x="0px" y="0px" width="32px" height="32px" viewBox="0 0 32 32"> <path d="M16 8.5C18.2091 8.5 20 6.70914 20 4.5C20 2.29086 18.2091 0.5 16 0.5C13.7909 0.5 12 2.29086 12 4.5C12 6.70914 13.7909 8.5 16 8.5Z" fill="#000" data-color="color-2"></path> <path fill-rule="evenodd" clip-rule="evenodd" d="M3 19V17H29V19H26V31H6V19H3ZM11.5858 21.4142L13 20L16 23L19 20L20.4142 21.4142L17.4142 24.4142L20.4142 27.4142L19 28.8284L16 25.8284L13 28.8284L11.5858 27.4142L14.5858 24.4142L11.5858 21.4142Z" fill="black"></path> <path d="M23.4185 15C22.2317 12.0682 19.3574 10 16 10C12.6426 10 9.76832 12.0682 8.58154 15H23.4185Z" fill="#000" data-color="color-2"></path> </svg>