<svg xmlns="http://www.w3.org/2000/svg" xmlns:xlink="http://www.w3.org/1999/xlink" x="0px" y="0px" width="32px" height="32px" viewBox="0 0 32 32"> <path fill-rule="evenodd" clip-rule="evenodd" d="M17 18V29H15V18H17Z" fill="black"></path> <path fill-rule="evenodd" clip-rule="evenodd" d="M4 18V3H28V18H4ZM19 10.5C19 12.1569 17.6569 13.5 16 13.5C14.3431 13.5 13 12.1569 13 10.5C13 8.84315 14.3431 7.5 16 7.5C17.6569 7.5 19 8.84315 19 10.5ZM7 13H10.01V15H7V13ZM25 6V8H22V6H25Z" fill="#000" data-color="color-2"></path> <path d="M16 29C16 29 17.7639 25.2253 21.1587 23.2653C24.5535 21.3053 28.1244 22 28.1244 22C28.1244 22 27.2029 26.7039 23.8687 28.6289C20.4738 30.5889 16 29 16 29Z" fill="black"></path> <path d="M16 29C16 29 14.2361 25.2253 10.8413 23.2653C7.44649 21.3053 3.87564 22 3.87564 22C3.87564 22 4.79714 26.7039 8.13134 28.6289C11.5261 30.5889 16 29 16 29Z" fill="black"></path> </svg>