<svg xmlns="http://www.w3.org/2000/svg" xmlns:xlink="http://www.w3.org/1999/xlink" x="0px" y="0px" width="32px" height="32px" viewBox="0 0 32 32"> <path fill-rule="evenodd" clip-rule="evenodd" d="M5 14H27V19H25V16H7V19H5V14Z" fill="#000" data-color="color-2"></path> <path fill-rule="evenodd" clip-rule="evenodd" d="M17 11V19H15V11H17Z" fill="#000" data-color="color-2"></path> <path d="M19.5 21H12.5V28H19.5V21Z" fill="black"></path> <path d="M29.5 21H22.5V28H29.5V21Z" fill="black"></path> <path d="M9.5 21H2.5V28H9.5V21Z" fill="black"></path> <path d="M12 5C12 7.20914 13.7909 9 16 9C18.2091 9 20 7.20914 20 5C20 2.79086 18.2091 1 16 1C13.7909 1 12 2.79086 12 5Z" fill="black"></path> </svg>