<svg xmlns="http://www.w3.org/2000/svg" xmlns:xlink="http://www.w3.org/1999/xlink" x="0px" y="0px" width="48px" height="48px" viewBox="0 0 48 48"> <path fill-rule="evenodd" clip-rule="evenodd" d="M25.5 2V9.5H29V12.5H25.5V35.5H29V38.5H25.5V46H22.5V25.5H19V22.5H22.5V2H25.5Z" fill="#000" data-color="color-2"></path> <path fill-rule="evenodd" clip-rule="evenodd" d="M2 20.5C2 18.567 3.567 17 5.5 17H12.5C14.433 17 16 18.567 16 20.5V27.5C16 29.433 14.433 31 12.5 31H5.5C3.567 31 2 29.433 2 27.5V20.5Z" fill="black"></path> <path fill-rule="evenodd" clip-rule="evenodd" d="M32 7.5C32 5.567 33.567 4 35.5 4H42.5C44.433 4 46 5.567 46 7.5V14.5C46 16.433 44.433 18 42.5 18H35.5C33.567 18 32 16.433 32 14.5V7.5Z" fill="black"></path> <path fill-rule="evenodd" clip-rule="evenodd" d="M32 33.5C32 31.567 33.567 30 35.5 30H42.5C44.433 30 46 31.567 46 33.5V40.5C46 42.433 44.433 44 42.5 44H35.5C33.567 44 32 42.433 32 40.5V33.5Z" fill="black"></path> </svg>