<svg xmlns="http://www.w3.org/2000/svg" xmlns:xlink="http://www.w3.org/1999/xlink" x="0px" y="0px" width="48px" height="48px" viewBox="0 0 48 48"> <path fill-rule="evenodd" clip-rule="evenodd" d="M47 9V17H44V9H47Z" fill="#000" data-color="color-2"></path> <path fill-rule="evenodd" clip-rule="evenodd" d="M47 21V29H44V21H47Z" fill="#000" data-color="color-2"></path> <path d="M11.5 2H6V46H11.5L11.5 2Z" fill="#000" data-color="color-2"></path> <path fill-rule="evenodd" clip-rule="evenodd" d="M35 46H14.5L14.5 2H35C38.3137 2 41 4.68629 41 8V40C41 43.3137 38.3137 46 35 46ZM19 13H36.5V23H19V13ZM19 30H36.5V27H19V30ZM19 33V36H26V33H19Z" fill="black"></path> </svg>