<svg xmlns="http://www.w3.org/2000/svg" xmlns:xlink="http://www.w3.org/1999/xlink" x="0px" y="0px" width="48px" height="48px" viewBox="0 0 48 48"> <path d="M29.0459 25L34 32.7061V39H31V34H17V39H14V32.7061L18.9541 25H29.0459Z" fill="black"></path> <path d="M6 22C4.34315 22 3 20.6569 3 19L3 7C3 5.34315 4.34315 4 6 4C7.65685 4 9 5.34315 9 7L9 19C9 20.6569 7.65685 22 6 22Z" fill="black"></path> <path d="M42 22C43.6569 22 45 20.6569 45 19L45 7C45 5.34315 43.6569 4 42 4C40.3431 4 39 5.34315 39 7L39 19C39 20.6569 40.3431 22 42 22Z" fill="black"></path> <path d="M14 12H17V25H14V12Z" fill="#000" data-color="color-2"></path> <path d="M31 12H34V25H31V12Z" fill="#000" data-color="color-2"></path> <path d="M40.5 11.5V14.5H7.5V11.5H40.5Z" fill="black"></path> <path d="M44 42V45H4V42H44Z" fill="#000" data-color="color-2"></path> <path d="M5.5 11.5V14.5H1V11.5H5.5Z" fill="black"></path> <path d="M42.5 11.5V14.5H47V11.5H42.5Z" fill="black"></path> </svg>