<svg xmlns="http://www.w3.org/2000/svg" xmlns:xlink="http://www.w3.org/1999/xlink" x="0px" y="0px" width="48px" height="48px" viewBox="0 0 48 48"> <path d="M33.5 37H36.5V43H33.5V37Z" fill="#000" data-color="color-2"></path> <path d="M44 41V44H4V41H44Z" fill="black"></path> <path fill-rule="evenodd" clip-rule="evenodd" d="M14.8369 18.8242L36.1807 12C40.5164 10.6141 44.7558 14.372 43.9004 18.8428L43.1611 22.7051L43.1709 22.707L42.375 26.8447C40.7476 24.5209 38.0523 23 35 23C30.0294 23 26 27.0294 26 32C26 32.6486 26.0698 33.2809 26.2002 33.8906H17.6572C15.0439 33.8906 12.7312 32.1985 11.9395 29.708L3.13281 2H9.52832L14.8369 18.8242ZM18 30H24V27H18V30ZM20 21V24H27V21H20Z" fill="black"></path> <path d="M35 38C38.3137 38 41 35.3137 41 32C41 28.6863 38.3137 26 35 26C31.6863 26 29 28.6863 29 32C29 35.3137 31.6863 38 35 38Z" fill="#000" data-color="color-2"></path> <path d="M35 38C38.3137 38 41 35.3137 41 32C41 28.6863 38.3137 26 35 26C31.6863 26 29 28.6863 29 32C29 35.3137 31.6863 38 35 38Z" fill="#000" data-color="color-2"></path> </svg>