<svg xmlns="http://www.w3.org/2000/svg" xmlns:xlink="http://www.w3.org/1999/xlink" x="0px" y="0px" width="12px" height="12px" viewBox="0 0 12 12"><path d="m8.25,4.5c-.414,0-.75-.336-.75-.75V1.75c0-.138-.112-.25-.25-.25h-2.5c-.138,0-.25.112-.25.25v2c0,.414-.336.75-.75.75s-.75-.336-.75-.75V1.75c0-.965.785-1.75,1.75-1.75h2.5c.965,0,1.75.785,1.75,1.75v2c0,.414-.336.75-.75.75Z" fill="#000" stroke-width="0" data-color="color-2"></path><path d="m11.509,7.454c-1.582.596-3.18.925-4.759,1.011v.285c0,.414-.336.75-.75.75s-.75-.336-.75-.75v-.285c-1.581-.086-3.178-.416-4.765-1.014-.025-.009-.198-.075-.485-.205v1.503c0,1.517,1.233,2.75,2.75,2.75h6.5c1.517,0,2.75-1.233,2.75-2.75v-1.503c-.29.131-.464.198-.491.208Z" stroke-width="0" fill="#000"></path><path d="m9.25,3H2.75C1.289,3,.102,4.148.016,5.588c.625.319.983.455.992.458,1.421.536,2.842.834,4.241.919v-.215c0-.414.336-.75.75-.75s.75.336.75.75v.215c1.398-.085,2.819-.383,4.235-.917.011-.004.372-.142.998-.463-.087-1.439-1.273-2.586-2.733-2.586Z" stroke-width="0" fill="#000"></path></svg>