<svg xmlns="http://www.w3.org/2000/svg" xmlns:xlink="http://www.w3.org/1999/xlink" x="0px" y="0px" width="18px" height="18px" viewBox="0 0 18 18"><path d="M9.5,11c-2.482,0-5.06-.412-6.718-1.425-.789,.425-1.282,.979-1.282,1.675v3c0,1.89,3.629,2.75,7,2.75s7-.86,7-2.75v-3c0-.415-.183-.777-.492-1.095-1.573,.592-3.569,.845-5.508,.845Zm-5,4.011c-.936-.272-1.437-.589-1.5-.761v-1.218c.434,.208,.942,.381,1.5,.521v1.458Zm3.25,.465c-.647-.025-1.236-.075-1.75-.151v-1.487c.569,.076,1.159,.124,1.75,.146v1.492Zm3.25-.151c-.514,.076-1.103,.126-1.75,.151v-1.492c.591-.022,1.181-.07,1.75-.146v1.487Zm1.5-.316v-1.455c.559-.14,1.067-.313,1.502-.522v1.196c-.064,.183-.565,.506-1.502,.781Z" fill="#000" data-color="color-2"></path><path d="M9.5,1c-3.371,0-7,.86-7,2.75v3c0,1.89,3.629,2.75,7,2.75s7-.86,7-2.75V3.75c0-1.89-3.629-2.75-7-2.75Zm-.75,5.484v1.492c-.647-.025-1.236-.075-1.75-.151v-1.487c.569,.076,1.159,.124,1.75,.146Zm1.5,0c.591-.022,1.181-.07,1.75-.146v1.487c-.514,.076-1.103,.126-1.75,.151v-1.492Zm-6.25,.266v-1.218c.434,.208,.942,.381,1.5,.521v1.458c-.936-.272-1.437-.589-1.5-.761Zm9.5,.758v-1.455c.559-.14,1.067-.313,1.502-.522v1.196c-.064,.183-.565,.506-1.502,.781Z" fill="#000"></path></svg>