<svg xmlns="http://www.w3.org/2000/svg" xmlns:xlink="http://www.w3.org/1999/xlink" x="0px" y="0px" width="18px" height="18px" viewBox="0 0 18 18"><path d="M2.979,6.75C3.75,3.87,6.377,1.75,9.5,1.75c3.728,0,6.75,3.022,6.75,6.75v5" fill="none" stroke="#000" stroke-linecap="round" stroke-linejoin="round" stroke-width="1.5"></path><circle cx="15" cy="15" r="1.75" fill="none" stroke="#000" stroke-linecap="round" stroke-linejoin="round" stroke-width="1.5"></circle><path d="M8.764,13.091c-.486-.176-1.165-.129-1.513,.442-.349-.571-1.027-.618-1.513-.442-.969,.351-1.672,1.463-2.681,1.338-.208-.026-.374,.166-.279,.343,.534,.996,1.591,1.229,2.183,1.229,.679,0,1.673-.414,2.289-1.341,.616,.928,1.61,1.341,2.289,1.341,.592,0,1.65-.233,2.183-1.229,.095-.177-.072-.369-.279-.343-1.008,.127-1.712-.987-2.681-1.338h.002Z" fill="#000" data-color="color-2" data-stroke="none"></path><line x1="13.75" y1="13.5" x2="13.75" y2="8.75" fill="none" stroke="#000" stroke-linecap="round" stroke-linejoin="round" stroke-width="1.5"></line><rect x="1.75" y="6.75" width="12" height="3.5" rx="1.5" ry="1.5" fill="none" stroke="#000" stroke-linecap="round" stroke-linejoin="round" stroke-width="1.5"></rect></svg>