<svg xmlns="http://www.w3.org/2000/svg" xmlns:xlink="http://www.w3.org/1999/xlink" x="0px" y="0px" width="18px" height="18px" viewBox="0 0 18 18"><rect x="7" y="5.5" width="4" height="7" rx="1.75" ry="1.75" fill="#000" data-color="color-2"></rect><path d="M17.122,5.552c-.104-.468-.398-.88-.808-1.13-.406-.249-.88-.319-1.332-.199-.857,.224-1.672,.562-2.423,1.006-.187,.11-.347,.252-.524,.374,.288,.485,.464,1.043,.464,1.647v1h1.75c.414,0,.75,.336,.75,.75s-.336,.75-.75,.75h-1.75v1c0,.604-.176,1.162-.464,1.647,.177,.122,.337,.264,.524,.374,.751,.443,1.566,.782,2.422,1.006,.144,.038,.291,.057,.436,.057,.312,0,.62-.086,.896-.255,.41-.25,.704-.662,.808-1.13,.25-1.131,.378-2.292,.378-3.448s-.127-2.317-.378-3.448Z" fill="#000"></path><path d="M5.5,9.75h-1.75c-.414,0-.75-.336-.75-.75s.336-.75,.75-.75h1.75v-1c0-.604,.176-1.162,.464-1.647-.177-.122-.337-.264-.524-.374-.751-.443-1.566-.782-2.422-1.006-.454-.118-.928-.05-1.333,.199-.41,.25-.704,.662-.808,1.13-.25,1.131-.378,2.292-.378,3.448s.127,2.317,.378,3.448c.104,.468,.398,.88,.808,1.13,.276,.169,.584,.255,.896,.255,.146,0,.292-.019,.436-.057,.857-.224,1.672-.562,2.423-1.006,.187-.11,.347-.252,.524-.374-.288-.485-.464-1.043-.464-1.647v-1Z" fill="#000"></path></svg>