<svg xmlns="http://www.w3.org/2000/svg" xmlns:xlink="http://www.w3.org/1999/xlink" x="0px" y="0px" width="32px" height="32px" viewBox="0 0 32 32"><rect x="8" width="2" height="3" fill="#000" stroke-width="0" data-color="color-2"></rect><rect x="22" width="2" height="3" fill="#000" stroke-width="0" data-color="color-2"></rect><path d="m27,3H5c-2.206,0-4,1.794-4,4v17.913c0,2.253,1.833,4.087,4.087,4.087h9.913v-2H5.087c-1.15,0-2.087-.936-2.087-2.087v-11.913h26v3h2V7c0-2.206-1.794-4-4-4Zm-17,5h-2v-3h2v3Zm14,0h-2v-3h2v3Z" stroke-width="0" fill="#000"></path><path d="m24,16c-4.418,0-8,3.582-8,8s3.582,8,8,8,8-3.582,8-8-3.582-8-8-8Zm3.277,11.387l-4.277-2.852v-4.535h2v3.465l3.387,2.258-1.109,1.664Z" fill="#000" stroke-width="0" data-color="color-2"></path></svg>