<svg xmlns="http://www.w3.org/2000/svg" xmlns:xlink="http://www.w3.org/1999/xlink" x="0px" y="0px" width="18px" height="18px" viewBox="0 0 18 18"><path d="M1.75 1.75L3.101 2.088C3.494 2.186 3.78901 2.51199 3.84801 2.91299L4.92731 10.25" stroke="black" stroke-width="1.5" stroke-linecap="round" stroke-linejoin="round" fill="none"></path> <path d="M6.77098 4.75H4.11798" stroke="black" stroke-width="1.5" stroke-linecap="round" stroke-linejoin="round" fill="none"></path> <path d="M15.25 13.25H4.75C3.9216 13.25 3.25 12.5784 3.25 11.75C3.25 10.9216 3.9216 10.25 4.75 10.25H13.0496C13.4701 10.25 13.8457 9.98691 13.9894 9.59171L14.6114 7.88091" stroke="black" stroke-width="1.5" stroke-linecap="round" stroke-linejoin="round" fill="none"></path> <path d="M4 17C4.552 17 5 16.552 5 16C5 15.448 4.552 15 4 15C3.448 15 3 15.448 3 16C3 16.552 3.448 17 4 17Z" fill="#000" data-color="color-2" data-stroke="none"></path> <path d="M14 17C14.552 17 15 16.552 15 16C15 15.448 14.552 15 14 15C13.448 15 13 15.448 13 16C13 16.552 13.448 17 14 17Z" fill="#000" data-color="color-2" data-stroke="none"></path> <path d="M12.0459 6.20419L15.2071 3.043C15.5976 2.6525 15.5976 2.0193 15.2071 1.6288L14.6213 1.043C14.2308 0.652497 13.5976 0.652497 13.2071 1.043L10.0459 4.20419L9.25012 7.0001L12.0459 6.20419Z" stroke="#000" stroke-width="1.5" stroke-linecap="round" stroke-linejoin="round" data-color="color-2" fill="none"></path></svg>