<svg xmlns="http://www.w3.org/2000/svg" xmlns:xlink="http://www.w3.org/1999/xlink" x="0px" y="0px" width="18px" height="18px" viewBox="0 0 18 18"><path d="M4.75 9.25001V6.08301L11.5 3.08301" stroke="#000" stroke-width="1.5" stroke-linecap="round" stroke-linejoin="round" data-color="color-2" fill="none"></path> <path d="M8.90601 1.93101L15.25 4.75001L8.90601 7.56901C8.64701 7.68401 8.35199 7.68401 8.09399 7.56901L1.75 4.75001L8.09399 1.93101C8.35299 1.81601 8.64801 1.81601 8.90601 1.93101Z" stroke="black" stroke-width="1.5" stroke-linecap="round" stroke-linejoin="round" fill="none"></path> <path d="M15.25 8.4934V4.75" stroke="black" stroke-width="1.5" stroke-linecap="round" stroke-linejoin="round" fill="none"></path> <path d="M1.75 4.75V12.6C1.75 12.995 1.98299 13.353 2.34399 13.514L8.09399 16.07C8.22339 16.1274 8.3618 16.1562 8.5 16.1562" stroke="black" stroke-width="1.5" stroke-linecap="round" stroke-linejoin="round" fill="none"></path> <path d="M8.5 7.65601V16.1562" stroke="black" stroke-width="1.5" stroke-linecap="round" stroke-linejoin="round" fill="none"></path> <path d="M13.41 15.66C14.653 15.66 15.66 14.6526 15.66 13.41C15.66 12.1674 14.653 11.16 13.41 11.16C12.167 11.16 11.16 12.1674 11.16 13.41C11.16 14.6526 12.167 15.66 13.41 15.66Z" stroke="#000" stroke-width="1.5" stroke-linecap="round" stroke-linejoin="round" data-color="color-2" fill="none"></path> <path d="M15 15L16.66 16.66" stroke="#000" stroke-width="1.5" stroke-linecap="round" stroke-linejoin="round" data-color="color-2" fill="none"></path></svg>