<svg xmlns="http://www.w3.org/2000/svg" xmlns:xlink="http://www.w3.org/1999/xlink" x="0px" y="0px" width="18px" height="18px" viewBox="0 0 18 18"><path d="M6.75 4.75V3C6.75 1.757 7.757 0.75 9 0.75C10.243 0.75 11.25 1.757 11.25 3V4.75" stroke="black" stroke-width="1.5" stroke-linecap="round" stroke-linejoin="round" fill="none"></path> <path d="M5.334 4.75H12.667C13.704 4.75 14.57 5.543 14.659 6.577L15.311 14.077C15.413 15.246 14.491 16.25 13.319 16.25H4.681C3.508 16.25 2.587 15.245 2.689 14.077L3.341 6.577C3.431 5.543 4.297 4.75 5.334 4.75Z" stroke="black" stroke-width="1.5" stroke-linecap="round" stroke-linejoin="round" fill="none"></path> <path d="M9 10.25V7.75" stroke="#000" stroke-width="1.5" stroke-linecap="round" stroke-linejoin="round" data-color="color-2" fill="none"></path> <path d="M9 14C9.5523 14 10 13.5523 10 13C10 12.4477 9.5523 12 9 12C8.4477 12 8 12.4477 8 13C8 13.5523 8.4477 14 9 14Z" fill="#000" data-color="color-2" data-stroke="none"></path></svg>