<svg xmlns="http://www.w3.org/2000/svg" xmlns:xlink="http://www.w3.org/1999/xlink" x="0px" y="0px" width="18px" height="18px" viewBox="0 0 18 18"><path d="M1.75 7.25H16.25" stroke="black" stroke-width="1.5" stroke-linecap="round" stroke-linejoin="round" fill="none"></path> <path d="M4.25 11.25H7.25" stroke="black" stroke-width="1.5" stroke-linecap="round" stroke-linejoin="round" fill="none"></path> <path d="M14.75 12.75H17.25V10.25" stroke="#000" stroke-width="1.5" stroke-linecap="round" stroke-linejoin="round" data-color="color-2" fill="none"></path> <path d="M16.25 7.25V5.75C16.25 4.646 15.355 3.75 14.25 3.75H3.75C2.645 3.75 1.75 4.646 1.75 5.75V12.25C1.75 13.354 2.645 14.25 3.75 14.25H8.75601" stroke="black" stroke-width="1.5" stroke-linecap="round" stroke-linejoin="round" fill="none"></path> <path d="M16.5 15.387C15.999 15.918 15.288 16.25 14.5 16.25C12.981 16.25 11.75 15.019 11.75 13.5C11.75 11.981 12.981 10.75 14.5 10.75C15.666 10.75 16.662 11.476 17.063 12.5" stroke="#000" stroke-width="1.5" stroke-linecap="round" stroke-linejoin="round" data-color="color-2" fill="none"></path></svg>