<svg xmlns="http://www.w3.org/2000/svg" xmlns:xlink="http://www.w3.org/1999/xlink" x="0px" y="0px" width="18px" height="18px" viewBox="0 0 18 18"><path d="M1.75 1.75L3.101 2.088C3.494 2.186 3.789 2.51199 3.848 2.91299L4.9273 10.25" stroke="black" stroke-width="1.5" stroke-linecap="round" stroke-linejoin="round" fill="none"></path> <path d="M15.25 13.25H4.75C3.9216 13.25 3.25 12.5784 3.25 11.75C3.25 10.9216 3.9216 10.25 4.75 10.25H13.0496C13.4701 10.25 13.8457 9.98691 13.9894 9.59171L15.2618 6.09171C15.4989 5.43951 15.0159 4.75 14.322 4.75" stroke="black" stroke-width="1.5" stroke-linecap="round" stroke-linejoin="round" fill="none"></path> <path d="M4 17C4.552 17 5 16.552 5 16C5 15.448 4.552 15 4 15C3.448 15 3 15.448 3 16C3 16.552 3.448 17 4 17Z" fill="#000" data-color="color-2" data-stroke="none"></path> <path d="M14 17C14.552 17 15 16.552 15 16C15 15.448 14.552 15 14 15C13.448 15 13 15.448 13 16C13 16.552 13.448 17 14 17Z" fill="#000" data-color="color-2" data-stroke="none"></path> <path d="M11.25 5.25L9.25 7.25L7.25 5.25" stroke="#000" stroke-width="1.5" stroke-linecap="round" stroke-linejoin="round" data-color="color-2" fill="none"></path> <path d="M9.25 7V0.75" stroke="#000" stroke-width="1.5" stroke-linecap="round" stroke-linejoin="round" data-color="color-2" fill="none"></path></svg>