<svg xmlns="http://www.w3.org/2000/svg" xmlns:xlink="http://www.w3.org/1999/xlink" x="0px" y="0px" width="18px" height="18px" viewBox="0 0 18 18"><path d="M14 16.25C15.243 16.25 16.25 15.243 16.25 14C16.25 12.757 15.243 11.75 14 11.75C12.757 11.75 11.75 12.757 11.75 14C11.75 15.243 12.757 16.25 14 16.25Z" stroke="#000" stroke-width="1.5" stroke-linecap="round" stroke-linejoin="round" data-color="color-2" fill="none"></path> <path d="M15.25 8.917V6.7461C15.25 6.4341 15.104 6.13889 14.855 5.94999L9.60501 1.96C9.24701 1.688 8.75199 1.688 8.39499 1.96L3.14499 5.94999C2.89599 6.13899 2.75 6.4341 2.75 6.7461V14.25C2.75 15.354 3.645 16.25 4.75 16.25H9.27661" stroke="black" stroke-width="1.5" stroke-linecap="round" stroke-linejoin="round" fill="none"></path> <path d="M15.59 15.59L17.25 17.25" stroke="#000" stroke-width="1.5" stroke-linecap="round" stroke-linejoin="round" data-color="color-2" fill="none"></path></svg>