<svg xmlns="http://www.w3.org/2000/svg" xmlns:xlink="http://www.w3.org/1999/xlink" x="0px" y="0px" width="18px" height="18px" viewBox="0 0 18 18"><path opacity="0.3" fill-rule="evenodd" clip-rule="evenodd" d="M14.75 16.25V3.75C14.75 2.645 13.855 1.75 12.75 1.75H5.25C4.145 1.75 3.25 2.645 3.25 3.75V16.25L6 14.75L9 16.25L12 14.75L14.75 16.25Z" fill="#000" data-color="color-2" data-stroke="none"></path> <path d="M14.75 3.75V16.25L11.75 14.5L9 16.25L6.25 14.5L3.25 16.25V3.75C3.25 2.645 4.145 1.75 5.25 1.75H12.75C13.855 1.75 14.75 2.645 14.75 3.75Z" stroke="black" stroke-width="1.5" stroke-linecap="round" stroke-linejoin="round" fill="none"></path> <path d="M6.25 10.75H8.75" stroke="black" stroke-width="1.5" stroke-linecap="round" stroke-linejoin="round" fill="none"></path> <path d="M11.25 10.75H11.75" stroke="black" stroke-width="1.5" stroke-linecap="round" stroke-linejoin="round" fill="none"></path> <path d="M9 7.25C9.69 7.25 10.25 6.69 10.25 6C10.25 5.31 9.69 4.75 9 4.75C8.31 4.75 7.75 5.31 7.75 6C7.75 6.69 8.31 7.25 9 7.25Z" fill="black" stroke="black" stroke-width="1.5" stroke-linecap="round" stroke-linejoin="round"></path></svg>