<svg xmlns="http://www.w3.org/2000/svg" xmlns:xlink="http://www.w3.org/1999/xlink" x="0px" y="0px" width="18px" height="18px" viewBox="0 0 18 18"><path d="M7.25 16.25V13C7.25 12.034 8.034 11.25 9 11.25C9.966 11.25 10.75 12.034 10.75 13V16.25" fill="#000" fill-opacity="0.3" data-color="color-2" data-stroke="none"></path> <path d="M14.2507 1.75H3.74968L1.75598 5.25C2.23098 6.281 3.266 7 4.476 7C5.384 7 6.18799 6.588 6.73799 5.951C7.28799 6.588 8.09198 7 8.99998 7C9.90798 7 10.711 6.589 11.261 5.952C11.811 6.589 12.615 7 13.522 7C14.731 7 15.767 6.281 16.242 5.25L14.2507 1.75Z" fill="#000" fill-opacity="0.3" data-color="color-2" data-stroke="none"></path> <path d="M3.75 16.25V9.95508" stroke="black" stroke-width="1.5" stroke-linecap="round" stroke-linejoin="round" fill="none"></path> <path d="M14.25 9.9548V16.25" stroke="black" stroke-width="1.5" stroke-linecap="round" stroke-linejoin="round" fill="none"></path> <path d="M14.2507 1.75H3.74968L1.75598 5.25C2.23098 6.281 3.266 7 4.476 7C5.384 7 6.18799 6.588 6.73799 5.951C7.28799 6.588 8.09198 7 8.99998 7C9.90798 7 10.711 6.589 11.261 5.952C11.811 6.589 12.615 7 13.522 7C14.731 7 15.767 6.281 16.242 5.25L14.2507 1.75Z" stroke="black" stroke-width="1.5" stroke-linecap="round" stroke-linejoin="round" fill="none"></path> <path d="M7.25 16.25V13C7.25 12.034 8.034 11.25 9 11.25C9.966 11.25 10.75 12.034 10.75 13V16.25" stroke="black" stroke-width="1.5" stroke-linecap="round" stroke-linejoin="round" fill="none"></path> <path d="M1.75 16.25H16.25" stroke="black" stroke-width="1.5" stroke-linecap="round" stroke-linejoin="round" fill="none"></path></svg>