<svg xmlns="http://www.w3.org/2000/svg" xmlns:xlink="http://www.w3.org/1999/xlink" x="0px" y="0px" width="18px" height="18px" viewBox="0 0 18 18"><path opacity="0.3" fill-rule="evenodd" clip-rule="evenodd" d="M15.649 10.553H16.25V7.25H1.75V12.25C1.75 13.355 2.645 14.25 3.75 14.25H9C9 13.0071 10.007 12 11.25 12H11.5V11.75C11.5 10.5071 12.507 9.5 13.75 9.5C14.5517 9.5 15.2505 9.92189 15.649 10.553Z" fill="#000" data-color="color-2" data-stroke="none"></path> <path d="M1.75 7.25H16.25" stroke="black" stroke-width="1.5" stroke-linecap="round" stroke-linejoin="round" fill="none"></path> <path d="M4.25 11.25H7.25" stroke="black" stroke-width="1.5" stroke-linecap="round" stroke-linejoin="round" fill="none"></path> <path d="M13.75 11.75V16.75" stroke="black" stroke-width="1.5" stroke-linecap="round" stroke-linejoin="round" fill="none"></path> <path d="M16.25 10.1091V5.75C16.25 4.646 15.355 3.75 14.25 3.75H3.75C2.645 3.75 1.75 4.646 1.75 5.75V12.25C1.75 13.354 2.645 14.25 3.75 14.25H8.25" stroke="black" stroke-width="1.5" stroke-linecap="round" stroke-linejoin="round" fill="none"></path> <path d="M16.25 14.25H11.25" stroke="black" stroke-width="1.5" stroke-linecap="round" stroke-linejoin="round" fill="none"></path></svg>