<svg xmlns="http://www.w3.org/2000/svg" xmlns:xlink="http://www.w3.org/1999/xlink" x="0px" y="0px" width="18px" height="18px" viewBox="0 0 18 18"><path d="m3.25,2.25h4.922c.53,0,1.039.211,1.414.586l5.75,5.75c.781.781.781,2.047,0,2.828l-3.922,3.922c-.781.781-2.047.781-2.828,0l-5.75-5.75c-.375-.375-.586-.884-.586-1.414V3.25c0-.552.448-1,1-1Z" fill="#000" opacity=".3" stroke-width="0" data-color="color-2"></path><path d="m3.25,2.25h4.922c.53,0,1.039.211,1.414.586l5.75,5.75c.781.781.781,2.047,0,2.828l-3.922,3.922c-.781.781-2.047.781-2.828,0l-5.75-5.75c-.375-.375-.586-.884-.586-1.414V3.25c0-.552.448-1,1-1Z" fill="none" stroke="#000" stroke-linecap="round" stroke-linejoin="round" stroke-width="1.5"></path><path d="m8.543,7.2073c.3903.3903,1.0239.3903,1.4142,0s.3903-1.0239,0-1.4142-1.0239-.3903-1.4142,0-.3903,1.0239,0,1.4142Z" stroke-width="0" fill="#000"></path><path d="m8.543,12.7073c.3903.3903,1.0239.3903,1.4142,0s.3903-1.0239,0-1.4142-1.0239-.3903-1.4142,0-.3903,1.0239,0,1.4142Z" stroke-width="0" fill="#000"></path><path d="m6.25,9.25h6" fill="none" stroke="#000" stroke-linecap="round" stroke-linejoin="round" stroke-width="1.5"></path></svg>