<svg xmlns="http://www.w3.org/2000/svg" xmlns:xlink="http://www.w3.org/1999/xlink" x="0px" y="0px" width="18px" height="18px" viewBox="0 0 18 18"><path d="M6.58008 4.57715C6.96495 6.52846 8.6858 8 10.75 8C11.8774 8 12.9004 7.55909 13.6611 6.84277C13.9331 7.11405 14.2749 7.31273 14.6562 7.41699L13.7549 10.0723C13.6172 10.4777 13.2368 10.7509 12.8086 10.751H5.00098L4.12891 4.52246L6.58008 4.57715Z" fill="#000" fill-opacity="0.3" data-color="color-2" data-stroke="none"></path> <path d="M1.75 1.75L3.101 2.088C3.494 2.186 3.789 2.51199 3.848 2.91299L4.9273 10.25" stroke="black" stroke-width="1.5" stroke-linecap="round" stroke-linejoin="round" fill="none"></path> <path d="M5.85061 4.75H4.11801" stroke="black" stroke-width="1.5" stroke-linecap="round" stroke-linejoin="round" fill="none"></path> <path d="M15.25 13.25H4.75C3.9216 13.25 3.25 12.5784 3.25 11.75C3.25 10.9216 3.9216 10.25 4.75 10.25H13.0496C13.4701 10.25 13.8457 9.98691 13.9894 9.59171L14.5121 8.1539" stroke="black" stroke-width="1.5" stroke-linecap="round" stroke-linejoin="round" fill="none"></path> <path d="M4 17C4.552 17 5 16.552 5 16C5 15.448 4.552 15 4 15C3.448 15 3 15.448 3 16C3 16.552 3.448 17 4 17Z" fill="black" data-stroke="none"></path> <path d="M14 17C14.552 17 15 16.552 15 16C15 15.448 14.552 15 14 15C13.448 15 13 15.448 13 16C13 16.552 13.448 17 14 17Z" fill="black" data-stroke="none"></path> <path d="M10.75 5.75C11.8546 5.75 12.75 4.85457 12.75 3.75C12.75 2.64543 11.8546 1.75 10.75 1.75C9.64543 1.75 8.75 2.64543 8.75 3.75C8.75 4.85457 9.64543 5.75 10.75 5.75Z" stroke="black" stroke-width="1.5" stroke-linecap="round" stroke-linejoin="round" fill="none"></path> <path d="M12.75 3.75H16.75" stroke="black" stroke-width="1.5" stroke-linecap="round" stroke-linejoin="round" fill="none"></path> <path d="M15.25 3.75V5.25" stroke="black" stroke-width="1.5" stroke-linecap="round" stroke-linejoin="round" fill="none"></path></svg>