<svg xmlns="http://www.w3.org/2000/svg" xmlns:xlink="http://www.w3.org/1999/xlink" x="0px" y="0px" width="18px" height="18px" viewBox="0 0 18 18"><path fill-rule="evenodd" clip-rule="evenodd" d="M4.75 5.25H13.25C14.3546 5.25 15.25 6.14543 15.25 7.25C15.25 7.49477 15.403 9.7056 15.0281 9.61799C14.6979 9.54081 14.3537 9.5 14 9.5C11.5147 9.5 9.5 11.5147 9.5 14C9.5 14.3725 9.54526 14.7344 9.6306 15.0807C9.70041 15.3639 5.24507 15.2558 4.75 15.25C3.64543 15.25 2.75 14.3546 2.75 13.25V7.25C2.75 6.14543 3.64543 5.25 4.75 5.25Z" fill="#000" fill-opacity="0.3" data-color="color-2" data-stroke="none"></path> <path d="M9 2.25V8.25" stroke="black" stroke-width="1.5" stroke-linecap="round" stroke-linejoin="round" fill="none"></path> <path d="M3 6.284L4.449 3.362C4.787 2.681 5.481 2.25 6.241 2.25H11.759C12.519 2.25 13.213 2.681 13.551 3.362L15 6.285" stroke="black" stroke-width="1.5" stroke-linecap="round" stroke-linejoin="round" fill="none"></path> <path d="M14 16.25C15.2426 16.25 16.25 15.2426 16.25 14C16.25 12.7574 15.2426 11.75 14 11.75C12.7574 11.75 11.75 12.7574 11.75 14C11.75 15.2426 12.7574 16.25 14 16.25Z" stroke="black" stroke-width="1.5" stroke-linecap="round" stroke-linejoin="round" fill="none"></path> <path d="M15.59 15.59L17.25 17.25" stroke="black" stroke-width="1.5" stroke-linecap="round" stroke-linejoin="round" fill="none"></path> <path d="M15.25 8.917V7.25C15.25 6.146 14.355 5.25 13.25 5.25H4.75C3.645 5.25 2.75 6.146 2.75 7.25V13.25C2.75 14.354 3.645 15.25 4.75 15.25H8.91699" stroke="black" stroke-width="1.5" stroke-linecap="round" stroke-linejoin="round" fill="none"></path></svg>