<svg xmlns="http://www.w3.org/2000/svg" xmlns:xlink="http://www.w3.org/1999/xlink" x="0px" y="0px" width="18px" height="18px" viewBox="0 0 18 18"><path d="M9.406 1.93101L15.75 4.75001L9.406 7.56901C9.147 7.68401 8.852 7.68401 8.594 7.56901L2.25 4.75001L8.594 1.93101C8.853 1.81601 9.148 1.81601 9.406 1.93101Z" fill="#000" fill-opacity="0.3" data-color="color-2" data-stroke="none"></path> <path d="M9 7.65601V16.069" stroke="black" stroke-width="1.5" stroke-linecap="round" stroke-linejoin="round" fill="none"></path> <path d="M2.25 4.75V12.6C2.25 12.995 2.48299 13.353 2.84399 13.514L8.59399 16.07C8.85299 16.185 9.14801 16.185 9.40601 16.07L10.4215 15.6185" stroke="black" stroke-width="1.5" stroke-linecap="round" stroke-linejoin="round" fill="none"></path> <path d="M15.75 7.9231V4.75" stroke="black" stroke-width="1.5" stroke-linecap="round" stroke-linejoin="round" fill="none"></path> <path d="M5.25 9.24998V6.08298L12 3.08298" stroke="black" stroke-width="1.5" stroke-linecap="round" stroke-linejoin="round" fill="none"></path> <path d="M9.406 1.93101L15.75 4.75001L9.406 7.56901C9.147 7.68401 8.852 7.68401 8.594 7.56901L2.25 4.75001L8.594 1.93101C8.853 1.81601 9.148 1.81601 9.406 1.93101Z" stroke="black" stroke-width="1.5" stroke-linecap="round" stroke-linejoin="round" fill="none"></path> <path d="M14.75 10.75V15.75" stroke="black" stroke-width="1.5" stroke-linecap="round" stroke-linejoin="round" fill="none"></path> <path d="M17.25 13.25H12.25" stroke="black" stroke-width="1.5" stroke-linecap="round" stroke-linejoin="round" fill="none"></path></svg>