<svg xmlns="http://www.w3.org/2000/svg" xmlns:xlink="http://www.w3.org/1999/xlink" x="0px" y="0px" width="18px" height="18px" viewBox="0 0 18 18"><path d="M12.626 3.19L8.299 4.42399C7.767 4.57499 7.45999 5.129 7.61099 5.66L8.70799 9.50599C8.85999 10.038 9.413 10.345 9.944 10.194L14.272 8.95899C14.803 8.80799 15.111 8.255 14.959 7.723L13.862 3.87699C13.71 3.34599 13.157 3.038 12.626 3.19Z" fill="#000" fill-opacity="0.3" data-color="color-2" data-stroke="none"></path> <path d="M12.626 3.19L8.299 4.42399C7.767 4.57499 7.45999 5.129 7.61099 5.66L8.70799 9.50599C8.85999 10.038 9.413 10.345 9.944 10.194L14.272 8.95899C14.803 8.80799 15.111 8.255 14.959 7.723L13.862 3.87699C13.71 3.34599 13.157 3.038 12.626 3.19Z" stroke="black" stroke-width="1.5" stroke-linecap="round" stroke-linejoin="round" fill="none"></path> <path d="M10.462 3.80701L11.011 5.73" stroke="black" stroke-width="1.5" stroke-linecap="round" stroke-linejoin="round" fill="none"></path> <path d="M8.27499 13.887L16.75 11.47" stroke="black" stroke-width="1.5" stroke-linecap="round" stroke-linejoin="round" fill="none"></path> <path d="M6.019 12.318L3.507 3.47701C3.385 3.047 2.992 2.75 2.545 2.75H1.5" stroke="black" stroke-width="1.5" stroke-linecap="round" stroke-linejoin="round" fill="none"></path> <path d="M6.5 15.75C7.466 15.75 8.25 14.966 8.25 14C8.25 13.034 7.466 12.25 6.5 12.25C5.534 12.25 4.75 13.034 4.75 14C4.75 14.966 5.534 15.75 6.5 15.75Z" stroke="black" stroke-width="1.5" stroke-linecap="round" stroke-linejoin="round" fill="none"></path></svg>