<svg xmlns="http://www.w3.org/2000/svg" xmlns:xlink="http://www.w3.org/1999/xlink" x="0px" y="0px" width="18px" height="18px" viewBox="0 0 18 18"><path d="M6.75 2.25H3.75C3.19772 2.25 2.75 2.69772 2.75 3.25V14.75C2.75 15.3023 3.19772 15.75 3.75 15.75H6.75C7.30228 15.75 7.75 15.3023 7.75 14.75V3.25C7.75 2.69772 7.30228 2.25 6.75 2.25Z" fill="#000" fill-opacity="0.3" data-color="color-2" data-stroke="none"></path> <path d="M6.75 2.25H3.75C3.1977 2.25 2.75 2.698 2.75 3.25V14.75C2.75 15.302 3.1977 15.75 3.75 15.75H6.75C7.3023 15.75 7.75 15.302 7.75 14.75V3.25C7.75 2.698 7.3023 2.25 6.75 2.25Z" stroke="black" stroke-width="1.5" stroke-linecap="round" stroke-linejoin="round" fill="none"></path> <path d="M2.75 5.25H5.25" stroke="black" stroke-width="1.5" stroke-linecap="round" stroke-linejoin="round" fill="none"></path> <path d="M2.75 7.75H4.25" stroke="black" stroke-width="1.5" stroke-linecap="round" stroke-linejoin="round" fill="none"></path> <path d="M2.75 12.75H4.25" stroke="black" stroke-width="1.5" stroke-linecap="round" stroke-linejoin="round" fill="none"></path> <path d="M2.75 10.25H5.25" stroke="black" stroke-width="1.5" stroke-linecap="round" stroke-linejoin="round" fill="none"></path> <path d="M10.5 15.75H15.75" stroke="black" stroke-width="1.5" stroke-linecap="round" stroke-linejoin="round" fill="none"></path> <path d="M10.5 2.25H15.75" stroke="black" stroke-width="1.5" stroke-linecap="round" stroke-linejoin="round" fill="none"></path> <path d="M13.25 12.75V5.25" stroke="black" stroke-width="1.5" stroke-linecap="round" stroke-linejoin="round" fill="none"></path> <path d="M15.25 7.25L13.25 5.25L11.25 7.25" stroke="black" stroke-width="1.5" stroke-linecap="round" stroke-linejoin="round" fill="none"></path></svg>