<svg xmlns="http://www.w3.org/2000/svg" xmlns:xlink="http://www.w3.org/1999/xlink" x="0px" y="0px" width="18px" height="18px" viewBox="0 0 18 18"><path d="M5.04001 2.25H12.96C13.979 2.25 14.835 3.016 14.948 4.029L16.004 13.529C16.136 14.714 15.208 15.75 14.016 15.75H3.98501C2.79301 15.75 1.86601 14.714 1.99701 13.529L3.05201 4.029C3.16501 3.016 4.02101 2.25 5.04001 2.25Z" fill="#000" fill-opacity="0.3" data-color="color-2" data-stroke="none"></path> <path d="M5.04001 2.25H12.96C13.979 2.25 14.835 3.016 14.948 4.029L16.004 13.529C16.136 14.714 15.208 15.75 14.016 15.75H3.98501C2.79301 15.75 1.86601 14.714 1.99701 13.529L3.05201 4.029C3.16501 3.016 4.02101 2.25 5.04001 2.25Z" stroke="black" stroke-width="1.5" stroke-linecap="round" stroke-linejoin="round" fill="none"></path> <path d="M11.75 5.25C11.75 6.769 10.519 8 9 8C7.481 8 6.25 6.769 6.25 5.25" stroke="black" stroke-width="1.5" stroke-linecap="round" stroke-linejoin="round" fill="none"></path></svg>