<svg xmlns="http://www.w3.org/2000/svg" xmlns:xlink="http://www.w3.org/1999/xlink" x="0px" y="0px" width="20px" height="20px" viewBox="0 0 20 20"><path d="m17,11c-1.0281,0-1.3052,1-2.3333,1s-1.3052-1-2.3333-1-1.3052,1-2.3333,1-1.3052-1-2.3333-1-1.3052,1-2.3333,1-1.3052-1-2.3333-1" fill="none" stroke="#000" stroke-linecap="round" stroke-linejoin="round" stroke-width="2" data-color="color-2"></path><path d="m16,8s0-4-5-4h-1c-.3252,0-.659,0-1,0-5,0-5,4-5,4" fill="none" stroke="#000" stroke-linecap="round" stroke-linejoin="round" stroke-width="2"></path><path d="m4.4998,14.9775c.7407.5853,1.8472,1.0225,3.5002,1.0225.341,0,1.6748,0,2,0s1.659,0,2,0c1.6316,0,2.7308-.4259,3.4713-.9998" fill="none" stroke="#000" stroke-linecap="round" stroke-linejoin="round" stroke-width="2"></path><circle cx="8" cy="7" r="1" stroke-width="0" fill="#000"></circle><circle cx="12" cy="8" r="1" stroke-width="0" fill="#000"></circle></svg>