<svg xmlns="http://www.w3.org/2000/svg" xmlns:xlink="http://www.w3.org/1999/xlink" x="0px" y="0px" width="18px" height="18px" viewBox="0 0 18 18"><path d="M9 13.25C11.3472 13.25 13.25 11.3472 13.25 9C13.25 6.65279 11.3472 4.75 9 4.75C6.65279 4.75 4.75 6.65279 4.75 9C4.75 11.3472 6.65279 13.25 9 13.25Z" fill="#000" fill-opacity="0.3" data-color="color-2" data-stroke="none"></path> <path d="M9 0.75V2.25" stroke="black" stroke-width="1.5" stroke-linecap="round" stroke-linejoin="round" fill="none"></path> <path d="M14.834 3.16599L13.773 4.22699" stroke="black" stroke-width="1.5" stroke-linecap="round" stroke-linejoin="round" fill="none"></path> <path d="M17.25 9H15.75" stroke="black" stroke-width="1.5" stroke-linecap="round" stroke-linejoin="round" fill="none"></path> <path d="M14.834 14.834L13.773 13.773" stroke="black" stroke-width="1.5" stroke-linecap="round" stroke-linejoin="round" fill="none"></path> <path d="M9 17.25V15.75" stroke="black" stroke-width="1.5" stroke-linecap="round" stroke-linejoin="round" fill="none"></path> <path d="M3.16602 14.834L4.22702 13.773" stroke="black" stroke-width="1.5" stroke-linecap="round" stroke-linejoin="round" fill="none"></path> <path d="M0.75 9H2.25" stroke="black" stroke-width="1.5" stroke-linecap="round" stroke-linejoin="round" fill="none"></path> <path d="M3.16602 3.16599L4.22702 4.22699" stroke="black" stroke-width="1.5" stroke-linecap="round" stroke-linejoin="round" fill="none"></path> <path d="M9 13.25C11.3472 13.25 13.25 11.3472 13.25 9C13.25 6.65279 11.3472 4.75 9 4.75C6.65279 4.75 4.75 6.65279 4.75 9C4.75 11.3472 6.65279 13.25 9 13.25Z" stroke="black" stroke-width="1.5" stroke-linecap="round" stroke-linejoin="round" fill="none"></path></svg>