<svg xmlns="http://www.w3.org/2000/svg" xmlns:xlink="http://www.w3.org/1999/xlink" x="0px" y="0px" width="18px" height="18px" viewBox="0 0 18 18"><path d="M5.5 9C5.5 5.646 7.781 2.831 10.875 2.004C10.276 1.844 9.65 1.75 9 1.75C4.996 1.75 1.75 4.996 1.75 9C1.75 13.004 4.996 16.25 9 16.25C9.65 16.25 10.276 16.156 10.875 15.996C7.781 15.169 5.5 12.354 5.5 9Z" fill="#000" fill-opacity="0.3" data-color="color-2" data-stroke="none"></path> <path d="M10.876 1.995C13.971 2.822 16.25 5.645 16.25 9C16.25 12.355 13.978 15.169 10.891 16.001" stroke="black" stroke-width="1.5" stroke-linecap="round" stroke-linejoin="round" fill="none"></path> <path d="M5.5 9C5.5 5.646 7.781 2.831 10.875 2.004C10.276 1.844 9.65 1.75 9 1.75C4.996 1.75 1.75 4.996 1.75 9C1.75 13.004 4.996 16.25 9 16.25C9.65 16.25 10.276 16.156 10.875 15.996C7.781 15.169 5.5 12.354 5.5 9Z" stroke="black" stroke-width="1.5" stroke-linecap="round" stroke-linejoin="round" fill="none"></path></svg>