<svg xmlns="http://www.w3.org/2000/svg" xmlns:xlink="http://www.w3.org/1999/xlink" x="0px" y="0px" width="18px" height="18px" viewBox="0 0 18 18"><path opacity="0.3" d="M9.49902 7.25L9.81053 1.9868C9.82313 1.7732 9.55073 1.6733 9.42243 1.8447L3.04953 10.3501C2.92603 10.5149 3.04363 10.75 3.24963 10.75H7.25003L10.75 7.25H9.49902Z" fill="#000" data-color="color-2" data-stroke="none"></path> <path d="M8.31279 13.9294L8.18939 16.0132C8.17679 16.2268 8.44918 16.3266 8.57748 16.1554L14.9504 7.64991C15.0321 7.54091 15.0083 7.40111 14.9232 7.31891" stroke="black" stroke-width="1.5" stroke-linecap="round" stroke-linejoin="round" fill="none"></path> <path d="M10.75 7.25H9.49904L9.81064 1.9868C9.82324 1.7732 9.55085 1.6734 9.42255 1.8446L3.04966 10.3501C2.92616 10.5149 3.04374 10.75 3.24974 10.75H7.25016" stroke="black" stroke-width="1.5" stroke-linecap="round" stroke-linejoin="round" fill="none"></path> <path d="M2 16L16 2" stroke="black" stroke-width="1.5" stroke-linecap="round" stroke-linejoin="round" fill="none"></path></svg>