<svg xmlns="http://www.w3.org/2000/svg" xmlns:xlink="http://www.w3.org/1999/xlink" x="0px" y="0px" width="18px" height="18px" viewBox="0 0 18 18"><path fill-rule="evenodd" clip-rule="evenodd" d="M14.2477 5.65292C14.5584 5.65292 14.8609 5.61753 15.1512 5.55056C14.8049 7.02224 13.6465 8.18068 12.1748 8.52713C11.5168 7.46148 10.3451 6.75 9 6.75C8.6366 6.75 8.28591 6.80198 7.9546 6.89884C7.51019 6.25391 7.25 5.47222 7.25 4.62977C7.25 2.72924 8.5742 1.13799 10.3503 0.728333C10.2807 1.02397 10.2439 1.33224 10.2439 1.64912C10.2439 3.86036 12.0365 5.65292 14.2477 5.65292Z" fill="#000" fill-opacity="0.3" data-color="color-2" data-stroke="none"></path> <path d="M14.341 7.172C14.724 6.703 15.002 6.145 15.142 5.534C14.854 5.6 14.558 5.642 14.25 5.642C12.041 5.642 10.25 3.851 10.25 1.642C10.25 1.334 10.292 1.038 10.358 0.75C8.58 1.156 7.25 2.741 7.25 4.642C7.25 5.47 7.502 6.24 7.933 6.878" stroke="black" stroke-width="1.5" stroke-linecap="round" stroke-linejoin="round" fill="none"></path> <path d="M1.75 14.25H11.25" stroke="black" stroke-width="1.5" stroke-linecap="round" stroke-linejoin="round" fill="none"></path> <path d="M8.75 17.25H14.25" stroke="black" stroke-width="1.5" stroke-linecap="round" stroke-linejoin="round" fill="none"></path> <path d="M14.25 14.25H16.25" stroke="black" stroke-width="1.5" stroke-linecap="round" stroke-linejoin="round" fill="none"></path> <path d="M3.75 17.25H5.75" stroke="black" stroke-width="1.5" stroke-linecap="round" stroke-linejoin="round" fill="none"></path> <path d="M16.25 11.75C16.25 10.369 15.131 9.25 13.75 9.25C13.337 9.25 12.953 9.36 12.61 9.537C12.183 7.935 10.736 6.75 9 6.75C7.264 6.75 5.818 7.936 5.39 9.537C5.047 9.36 4.663 9.25 4.25 9.25C2.869 9.25 1.75 10.369 1.75 11.75" stroke="black" stroke-width="1.5" stroke-linecap="round" stroke-linejoin="round" fill="none"></path> <path d="M11.585 10.499C11.824 10.086 12.179 9.74701 12.605 9.52701" stroke="black" stroke-width="1.5" stroke-linecap="round" stroke-linejoin="round" fill="none"></path></svg>