<svg xmlns="http://www.w3.org/2000/svg" xmlns:xlink="http://www.w3.org/1999/xlink" x="0px" y="0px" width="18px" height="18px" viewBox="0 0 18 18"><path d="M11.75,9.25c0,1.105-.895,2-2,2H3.75c-1.105,0-2-.895-2-2V5.25c0-1.105,.895-2,2-2h6c.753,0,1.409,.416,1.75,1.032" fill="none" stroke="#000" stroke-linecap="round" stroke-linejoin="round" stroke-width="1.5"></path><path d="M6.25,8.75c0-1.105,.895-2,2-2h6c1.105,0,2,.895,2,2v4c0,1.105-.895,2-2,2h-6c-.753,0-1.409-.416-1.75-1.032" fill="none" stroke="#000" stroke-linecap="round" stroke-linejoin="round" stroke-width="1.5" data-color="color-2"></path></svg>