<svg xmlns="http://www.w3.org/2000/svg" xmlns:xlink="http://www.w3.org/1999/xlink" x="0px" y="0px" width="18px" height="18px" viewBox="0 0 18 18"><path d="M11.067,3.317c0-1.141-.925-2.067-2.067-2.067s-2.067,.925-2.067,2.067,.517,1.55,2.067,2.583c1.359,.906,3.1,2.067,3.1,3.617,0,1.712-1.388,2.583-3.1,2.583" fill="none" stroke="#000" stroke-linecap="round" stroke-linejoin="round" stroke-width="1.5"></path><path d="M6.933,14.683c0,1.141,.925,2.067,2.067,2.067s2.067-.925,2.067-2.067-.707-1.677-2.067-2.583c-1.55-1.033-3.1-2.067-3.1-3.617,0-1.712,1.388-2.583,3.1-2.583" fill="none" stroke="#000" stroke-linecap="round" stroke-linejoin="round" stroke-width="1.5" data-color="color-2"></path></svg>