<svg xmlns="http://www.w3.org/2000/svg" xmlns:xlink="http://www.w3.org/1999/xlink" x="0px" y="0px" width="24px" height="24px" viewBox="0 0 24 24"> <path d="M19 19C21.2 19 23 17.2 23 15C23 12.8 21.2 11 19 11C18.7 7.1 15.5 4 11.5 4C7.5 4 4.2 7.2 4 11.1C2.3 11.5 1 13.1 1 15C1 17.2 2.8 19 5 19" stroke="black" stroke-width="2" stroke-miterlimit="10" stroke-linecap="square" fill="none"></path> <path d="M12 14.5C13.746 15.7738 15 17.2238 15 18.9231C15 20.6223 13.6568 22 12 22C10.3432 22 9 20.6223 9 18.9231C9 17.2238 10.254 15.7738 12 14.5Z" stroke="#000" stroke-width="2" stroke-miterlimit="10" stroke-linecap="square" data-color="color-2" fill="none"></path> </svg>