<svg xmlns="http://www.w3.org/2000/svg" xmlns:xlink="http://www.w3.org/1999/xlink" x="0px" y="0px" width="32px" height="32px" viewBox="0 0 32 32"> <path d="M28 4L19.1793 12.8207L19.3896 12.6104" stroke="#000" stroke-width="2" stroke-linecap="square" data-color="color-2" fill="none"></path> <path d="M7.69104 11.309L7.19104 11.809L11.5 7.5" stroke="#000" stroke-width="2" stroke-linecap="square" data-color="color-2" fill="none"></path> <path d="M20.703 24.297L20.203 24.797L29 16" stroke="#000" stroke-width="2" stroke-linecap="square" data-color="color-2" fill="none"></path> <path d="M16 3L15 3.99999" stroke="#000" stroke-width="2" stroke-linecap="square" data-color="color-2" fill="none"></path> <path d="M18 30C19.6569 30 21 28.6569 21 27C21 25.3431 19.6569 24 18 24C16.3431 24 15 25.3431 15 27C15 28.6569 16.3431 30 18 30Z" stroke="black" stroke-width="2" stroke-miterlimit="10" stroke-linecap="square" fill="none"></path> <path d="M5 17C6.65685 17 8 15.6569 8 14C8 12.3431 6.65685 11 5 11C3.34315 11 2 12.3431 2 14C2 15.6569 3.34315 17 5 17Z" stroke="black" stroke-width="2" stroke-miterlimit="10" stroke-linecap="square" fill="none"></path> <path d="M17 18C18.6569 18 20 16.6569 20 15C20 13.3431 18.6569 12 17 12C15.3431 12 14 13.3431 14 15C14 16.6569 15.3431 18 17 18Z" stroke="black" stroke-width="2" stroke-miterlimit="10" stroke-linecap="square" fill="none"></path> </svg>