<svg xmlns="http://www.w3.org/2000/svg" xmlns:xlink="http://www.w3.org/1999/xlink" x="0px" y="0px" width="32px" height="32px" viewBox="0 0 32 32"> <path d="M1 25L12 25" stroke="#000" stroke-width="2" stroke-linecap="square" data-color="color-2" fill="none"></path> <path d="M12 29H17" stroke="#000" stroke-width="2" stroke-linecap="square" data-color="color-2" fill="none"></path> <path d="M8 21H15" stroke="#000" stroke-width="2" stroke-linecap="square" data-color="color-2" fill="none"></path> <path d="M6 29H8" stroke="#000" stroke-width="2" stroke-linecap="square" data-color="color-2" fill="none"></path> <path d="M16 1V3" stroke="black" stroke-width="2" stroke-linecap="square" fill="none"></path> <path d="M31 16L29 16" stroke="black" stroke-width="2" stroke-linecap="square" fill="none"></path> <path d="M4 16L2 16" stroke="black" stroke-width="2" stroke-linecap="square" fill="none"></path> <path d="M25.1924 25.1924L26.6066 26.6066" stroke="black" stroke-width="2" stroke-linecap="square" fill="none"></path> <path d="M5.3934 5.3934L6.80762 6.80762" stroke="black" stroke-width="2" stroke-linecap="square" fill="none"></path> <path d="M26.6066 5.3934L25.1924 6.80762" stroke="black" stroke-width="2" stroke-linecap="square" fill="none"></path> <path d="M19 23.4185C21.9318 22.2317 24 19.3574 24 16C24 11.5817 20.4183 8 16 8C11.5817 8 8 11.5817 8 16C8 16.3387 8.02104 16.6724 8.06189 17" stroke="black" stroke-width="2" stroke-miterlimit="10" stroke-linecap="square" fill="none"></path> </svg>