<svg xmlns="http://www.w3.org/2000/svg" xmlns:xlink="http://www.w3.org/1999/xlink" x="0px" y="0px" width="32px" height="32px" viewBox="0 0 32 32"> <path d="M6.12176 26.9362C3.22416 26.5113 1 24.0157 1 21C1 18.386 2.675 16.168 5.008 15.346C5.091 9.619 9.753 5 15.5 5C21.299 5 26 9.701 26 15.5C26 15.677 25.983 15.849 25.974 16.024C28.789 16.265 31 18.622 31 21.5C31 24.4119 28.7381 26.7946 25.8752 26.9874" stroke="black" stroke-width="2" stroke-miterlimit="10" stroke-linecap="square" fill="none"></path> <path d="M16 29L16.5 29.5L16 30L15.5 29.5L16 29Z" stroke="#000" stroke-width="2" data-color="color-2" data-cap="butt" fill="none"></path> <path d="M16 23L16.5 23.5L16 24L15.5 23.5L16 23Z" stroke="#000" stroke-width="2" data-color="color-2" data-cap="butt" fill="none"></path> <path d="M21 26L21.5 26.5L21 27L20.5 26.5L21 26Z" stroke="#000" stroke-width="2" data-color="color-2" data-cap="butt" fill="none"></path> <path d="M21 20L21.5 20.5L21 21L20.5 20.5L21 20Z" stroke="#000" stroke-width="2" data-color="color-2" data-cap="butt" fill="none"></path> <path d="M11 26L11.5 26.5L11 27L10.5 26.5L11 26Z" stroke="#000" stroke-width="2" data-color="color-2" data-cap="butt" fill="none"></path> <path d="M11 20L11.5 20.5L11 21L10.5 20.5L11 20Z" stroke="#000" stroke-width="2" data-color="color-2" data-cap="butt" fill="none"></path> </svg>