<svg xmlns="http://www.w3.org/2000/svg" xmlns:xlink="http://www.w3.org/1999/xlink" x="0px" y="0px" width="48px" height="48px" viewBox="0 0 48 48"> <path d="M6.31391 30C5.46485 27.7769 5 25.3657 5 22.8465C5 12.9181 12.2201 4.66657 21.7243 3C20.1082 5.8939 19.1878 9.22493 19.1878 12.7697C19.1878 23.9002 28.2622 32.9232 39.456 32.9232C40.665 32.9232 41.8492 32.818 43 32.6162C40.2438 37.5516 35.464 41.2156 29.775 42.5" stroke="black" stroke-width="2" stroke-miterlimit="10" stroke-linecap="square" stroke-linejoin="bevel" fill="none"></path> <path d="M2 40H17" stroke="#000" stroke-width="2" stroke-linecap="square" data-color="color-2" fill="none"></path> <path d="M15 45H25" stroke="#000" stroke-width="2" stroke-linecap="square" data-color="color-2" fill="none"></path> <path d="M12 30L17 30" stroke="#000" stroke-width="2" stroke-linecap="square" data-color="color-2" fill="none"></path> <path d="M7 45H10" stroke="#000" stroke-width="2" stroke-linecap="square" data-color="color-2" fill="none"></path> <path d="M5 35H8" stroke="#000" stroke-width="2" stroke-linecap="square" data-color="color-2" fill="none"></path> <path d="M35.45 11.55L33.5 7L31.55 11.55L27 13.5L31.55 15.45L33.5 20L35.45 15.45L40 13.5L35.45 11.55Z" stroke="#000" stroke-width="2" data-color="color-2" data-cap="butt" fill="none"></path> <path d="M42.5 4L45 6.5L42.5 9L40 6.5L42.5 4Z" stroke="#000" stroke-width="2" data-color="color-2" data-cap="butt" fill="none"></path> <path d="M40.5 22L43 24.5L40.5 27L38 24.5L40.5 22Z" stroke="#000" stroke-width="2" data-color="color-2" data-cap="butt" fill="none"></path> </svg>