<svg xmlns="http://www.w3.org/2000/svg" xmlns:xlink="http://www.w3.org/1999/xlink" x="0px" y="0px" width="24px" height="24px" viewBox="0 0 24 24"><path d="M20.8485 8.24265L13.5 4" stroke="black" stroke-width="2" stroke-linecap="square" fill="none"></path> <path d="M17 22H19C20.1046 22 21 21.1046 21 20V20C21 18.8954 20.1046 18 19 18H5C3.89543 18 3 17.1046 3 16V16C3 14.8954 3.89543 14 5 14H7" stroke="#000" stroke-width="2" stroke-linecap="square" data-color="color-2" fill="none"></path> <path d="M10 15L12.1648 10.747L13.8968 11.747L15.6289 12.747L14.5 15L10 15Z" fill="#000" data-color="color-2" data-cap="butt" data-stroke="none"></path> <path d="M14.2902 2L12.2072 5.60793C12.0746 5.83761 12.0386 6.11057 12.1073 6.36675L12.6249 8.2986C12.6936 8.55478 12.6576 8.82774 12.525 9.05742L11.7321 10.4309L16.0622 12.9309L16.8551 11.5575C16.9877 11.3278 17.2061 11.1602 17.4623 11.0916L19.3942 10.5739C19.6503 10.5053 19.8688 10.3377 20.0014 10.108L22 6.64633" stroke="black" stroke-width="2" stroke-miterlimit="10" stroke-linecap="square" fill="none"></path></svg>