<svg xmlns="http://www.w3.org/2000/svg" xmlns:xlink="http://www.w3.org/1999/xlink" x="0px" y="0px" width="24px" height="24px" viewBox="0 0 24 24"> <path d="M20 15.7245L20 19C20 20.1046 19.1046 21 18 21L6 21C4.89543 21 4 20.1046 4 19L4 15.7245" stroke="#000" stroke-width="2" data-color="color-2" data-cap="butt" fill="none"></path> <path d="M16 5L16 1L7.99999 1L8 5" stroke="#000" stroke-width="2" data-color="color-2" data-cap="butt" fill="none"></path> <path d="M21 5L21 14C21 15.1046 20.1046 16 19 16L5 16C3.89543 16 3 15.1046 3 14L3 5L21 5Z" stroke="black" stroke-width="2" data-cap="butt" fill="none"></path> <path d="M10 9H14" stroke="#000" stroke-width="2" stroke-linecap="square" data-color="color-2" fill="none"></path> <path d="M15 17V14" stroke="black" stroke-width="2" stroke-linecap="square" fill="none"></path> <path d="M9 17V14" stroke="black" stroke-width="2" stroke-linecap="square" fill="none"></path> </svg>