<svg xmlns="http://www.w3.org/2000/svg" xmlns:xlink="http://www.w3.org/1999/xlink" x="0px" y="0px" width="32px" height="32px" viewBox="0 0 32 32"> <path d="M28 20.2754L28 26C28 27.6569 26.6569 29 25 29L7.00001 29C5.34315 29 4.00001 27.6569 4.00001 26L4.00001 20.2754" stroke="#000" stroke-width="2" data-color="color-2" data-cap="butt" fill="none"></path> <path d="M21 6L21 2L11 2L11 6" stroke="#000" stroke-width="2" data-color="color-2" data-cap="butt" fill="none"></path> <path d="M21 15L21 10L11 10L11 15L21 15Z" stroke="#000" stroke-width="2" data-color="color-2" data-cap="butt" fill="none"></path> <path d="M29 6L29 18C29 19.6569 27.6569 21 26 21L6 21C4.34315 21 3 19.6569 3 18L3 6L29 6Z" stroke="black" stroke-width="2" data-cap="butt" fill="none"></path> <path d="M21 24V19" stroke="black" stroke-width="2" stroke-linecap="square" fill="none"></path> <path d="M11 24V19" stroke="black" stroke-width="2" stroke-linecap="square" fill="none"></path> </svg>