<svg xmlns="http://www.w3.org/2000/svg" xmlns:xlink="http://www.w3.org/1999/xlink" x="0px" y="0px" width="48px" height="48px" viewBox="0 0 48 48"> <path d="M35 28V29C35 31.2091 36.7909 33 39 33H42" stroke="#000" stroke-width="2" data-color="color-2" data-cap="butt" fill="none"></path> <path d="M21 21V12" stroke="black" stroke-width="2" data-cap="butt" fill="none"></path> <path d="M39 12H38.5H5" stroke="black" stroke-width="2" stroke-linecap="square" fill="none"></path> <path d="M45 16V17H47V16H45ZM39.4376 13H45V11H39.4376V13ZM45 13V16H47V13H45ZM39.4376 13H40.4376V11H39.4376V13ZM45 13H45H47C47 11.8954 46.1046 11 45 11V13Z" fill="#000" data-color="color-2" data-cap="butt" data-stroke="none"></path> <path d="M5 39V33H17V39" stroke="black" stroke-width="2" data-cap="butt" fill="none"></path> <path d="M5 21H21.5857L27.5857 28H42.3511H41.3511" stroke="black" stroke-width="2" stroke-linecap="square" fill="none"></path> <path d="M5 39H22H20" stroke="black" stroke-width="2" stroke-miterlimit="10" stroke-linecap="square" fill="none"></path> <path d="M5 7H33.4547C36.1428 7 38.5028 8.78785 39.2306 11.3755L41.4583 19.2962C42.1487 21.7509 42.4595 24.2969 42.3798 26.8457L42.0908 36.0937C42.0402 37.7133 40.7127 39 39.0923 39H34H35" stroke="black" stroke-width="2" stroke-linecap="square" fill="none"></path> <path d="M28 45C31.3138 45 34 42.3138 34 39C34 35.6862 31.3138 33 28 33C24.6862 33 22 35.6862 22 39C22 42.3138 24.6862 45 28 45Z" stroke="#000" stroke-width="2" stroke-miterlimit="10" stroke-linecap="square" data-color="color-2" fill="none"></path> </svg>