<svg xmlns="http://www.w3.org/2000/svg" xmlns:xlink="http://www.w3.org/1999/xlink" x="0px" y="0px" width="48px" height="48px" viewBox="0 0 48 48"> <path d="M24 13V25" stroke="#000" stroke-width="2" stroke-linecap="square" data-color="color-2" fill="none"></path> <path d="M5 30H13.02V32C13.02 33.6569 11.6769 35 10.02 35H5" stroke="#000" stroke-width="2" stroke-linecap="square" data-color="color-2" fill="none"></path> <path d="M43.02 30H35V32C35 33.6569 36.3431 35 38 35H43.02" stroke="#000" stroke-width="2" stroke-linecap="square" data-color="color-2" fill="none"></path> <path d="M5 18H2" stroke="black" stroke-width="2" stroke-linecap="square" fill="none"></path> <path d="M29 9H19" stroke="black" stroke-width="2" stroke-linecap="square" fill="none"></path> <path d="M36.01 9H36" stroke="#000" stroke-width="2" stroke-linecap="square" data-color="color-2" fill="none"></path> <path d="M12.01 9H12" stroke="#000" stroke-width="2" stroke-linecap="square" data-color="color-2" fill="none"></path> <path d="M46.02 18H43" stroke="black" stroke-width="2" stroke-linecap="square" fill="none"></path> <path d="M43 41V10C43 7.23858 40.7614 5 38 5H10C7.23858 5 5 7.23858 5 10V41C5 42.1046 5.89543 43 7 43H12C13.1046 43 14 42.1046 14 41V39H34V41C34 42.1046 34.8954 43 36 43H41C42.1046 43 43 42.1046 43 41Z" stroke="black" stroke-width="2" data-cap="butt" fill="none"></path> <path d="M5 25H43" stroke="black" stroke-width="2" data-cap="butt" fill="none"></path> <path d="M5 13H43" stroke="black" stroke-width="2" data-cap="butt" fill="none"></path> </svg>