<svg xmlns="http://www.w3.org/2000/svg" xmlns:xlink="http://www.w3.org/1999/xlink" x="0px" y="0px" width="48px" height="48px" viewBox="0 0 48 48"> <path d="M24 40V40.5V10V10.5" stroke="#000" stroke-width="2" stroke-miterlimit="10" stroke-linecap="square" data-color="color-2" fill="none"></path> <path d="M24 40.5C30.6823 36.6172 38.3177 36.6172 45 40.5V10.4121C38.3177 6.52931 30.6823 6.52931 24 10.4121C17.3177 6.52931 9.6823 6.52965 3 10.4124V40.5C9.6823 36.6172 17.3177 36.6172 24 40.5Z" stroke="black" stroke-width="2" stroke-miterlimit="10" stroke-linecap="square" fill="none"></path> <path d="M9.00122 17.8532C11.9771 17.1661 15.0239 17.1661 17.9998 17.8532" stroke="#000" stroke-width="2" stroke-miterlimit="10" stroke-linecap="square" data-color="color-2" fill="none"></path> <path d="M9 28.3534C11.9766 27.6661 15.0242 27.666 18.0009 28.3534" stroke="#000" stroke-width="2" stroke-miterlimit="10" stroke-linecap="square" data-color="color-2" fill="none"></path> <path d="M29.999 28.3536C32.9761 27.666 36.0242 27.666 39.0013 28.3536" stroke="#000" stroke-width="2" stroke-miterlimit="10" stroke-linecap="square" data-color="color-2" fill="none"></path> <path d="M30 17.8533C32.9763 17.1661 36.0237 17.1661 39 17.8533" stroke="#000" stroke-width="2" stroke-miterlimit="10" stroke-linecap="square" data-color="color-2" fill="none"></path> </svg>