<svg xmlns="http://www.w3.org/2000/svg" xmlns:xlink="http://www.w3.org/1999/xlink" x="0px" y="0px" width="48px" height="48px" viewBox="0 0 48 48"> <path d="M34.0047 19L41 19L45 24V25H43" stroke="black" stroke-width="2" data-cap="butt" fill="none"></path> <path d="M14.0168 19L7.00001 19L3.00001 24V25H5.00001" stroke="black" stroke-width="2" data-cap="butt" fill="none"></path> <path d="M24 2H31L29.5 4.5L31 7H24" stroke="#000" stroke-width="2" stroke-linecap="square" data-color="color-2" fill="none"></path> <path d="M28 43V31H20V43" stroke="black" stroke-width="2" stroke-linecap="square" fill="none"></path> <path d="M15 30V37H10V30H15Z" stroke="#000" stroke-width="2" stroke-linecap="square" data-color="color-2" fill="none"></path> <path d="M38 30V37H33V30H38Z" stroke="#000" stroke-width="2" stroke-linecap="square" data-color="color-2" fill="none"></path> <path d="M24 2V10V9.5" stroke="black" stroke-width="2" stroke-linecap="square" fill="none"></path> <path d="M43 43V25H34V15L24 10L14 15L14 25H5V43H43Z" stroke="black" stroke-width="2" stroke-linecap="square" fill="none"></path> <circle cx="24" cy="21" r="4" stroke="#000" stroke-width="2" data-color="color-2" data-cap="butt" fill="none"></circle> </svg>