<svg xmlns="http://www.w3.org/2000/svg" xmlns:xlink="http://www.w3.org/1999/xlink" x="0px" y="0px" width="48px" height="48px" viewBox="0 0 48 48"> <path d="M24 9.5L24 35.5" stroke="black" stroke-width="2" data-cap="butt" fill="none"></path> <path d="M4 38L4 41L19 41L20 43L28 43L29 41L44 41L44 38" stroke="#000" stroke-width="2" stroke-miterlimit="10" stroke-linecap="square" data-color="color-2" fill="none"></path> <path d="M46 7.29215V33.129C41.4286 30.9327 28.5 31.5 24 36C19.5 31.5 6.57143 30.9329 2 33.129V7.29215C6.57143 5.09602 19.4286 5.47825 24 10.1631C28.5714 5.47834 41.4286 5.09577 46 7.29215Z" stroke="black" stroke-width="2" stroke-miterlimit="10" stroke-linecap="square" fill="none"></path> <path d="M8 16C10.5 15 13.5 15 16 16" stroke="#000" stroke-width="2" stroke-miterlimit="10" stroke-linecap="square" data-color="color-2" fill="none"></path> <path d="M32 16C34.5 15 37.5 15 40 16" stroke="#000" stroke-width="2" stroke-miterlimit="10" stroke-linecap="square" data-color="color-2" fill="none"></path> <path d="M8 22.7501C10.5 21.75 13.5 21.75 16 22.75" stroke="#000" stroke-width="2" stroke-miterlimit="10" stroke-linecap="square" data-color="color-2" fill="none"></path> <path d="M32 22.75C34.5 21.75 37.5 21.75 40 22.75" stroke="#000" stroke-width="2" stroke-miterlimit="10" stroke-linecap="square" data-color="color-2" fill="none"></path> </svg>