<svg xmlns="http://www.w3.org/2000/svg" xmlns:xlink="http://www.w3.org/1999/xlink" x="0px" y="0px" width="18px" height="18px" viewBox="0 0 18 18"><path d="m14.25,2.25H3.75c-1.105,0-2,.896-2,2v7c0,1.104.895,2,2,2h2v3l3.75-3h4.75c1.105,0,2-.896,2-2v-7c0-1.104-.895-2-2-2Z" fill="none" stroke="#000" stroke-linecap="round" stroke-linejoin="round" stroke-width="1.5"></path><path d="m12,10.25h-1.75v-5h1.75c.966,0,1.75.784,1.75,1.75v1.5c0,.966-.784,1.75-1.75,1.75Z" fill="none" stroke="#000" stroke-linecap="round" stroke-linejoin="round" stroke-width="1.5" data-color="color-2"></path><line x1="4.777" y1="9.25" x2="7.723" y2="9.25" fill="none" stroke="#000" stroke-linecap="round" stroke-linejoin="round" stroke-width="1.5" data-color="color-2"></line><path d="m8.187,10.25l-1.3341-4.6029c-.0412-.1392-.1265-.3971-.3294-.3971h-.5471c-.2029,0-.2912.2559-.3294.3971l-1.3341,4.6029" fill="none" stroke="#000" stroke-linecap="round" stroke-linejoin="round" stroke-width="1.5" data-color="color-2"></path></svg>